<?xml version="1.0" encoding="UTF-8" standalone="no"?>
<!DOCTYPE svg PUBLIC "-//W3C//DTD SVG 1.1//EN"
 "http://www.w3.org/Graphics/SVG/1.1/DTD/svg11.dtd">
<!-- Generated by graphviz version 12.1.2 (20240928.0832)
 -->
<!-- Title: commerce.product_core Pages: 1 -->
<svg width="1377pt" height="1006pt"
 viewBox="0.00 0.00 1376.92 1006.40" xmlns="http://www.w3.org/2000/svg" xmlns:xlink="http://www.w3.org/1999/xlink">
<g id="graph0" class="graph" transform="scale(1 1) rotate(0) translate(4 1002.4)">
<title>commerce.product_core</title>
<polygon fill="white" stroke="none" points="-4,4 -4,-1002.4 1372.92,-1002.4 1372.92,4 -4,4"/>
<!-- commerce.product_core -->
<g id="node1" class="node">
<title>commerce.product_core</title>
<polygon fill="#efefef" stroke="none" points="559.32,-635.4 559.32,-671 872.22,-671 872.22,-635.4 559.32,-635.4"/>
<polygon fill="none" stroke="black" points="559.32,-635.4 559.32,-671 872.22,-671 872.22,-635.4 559.32,-635.4"/>
<text text-anchor="start" x="566.32" y="-648.8" font-family="Arial Bold" font-size="18.00">commerce.product_core</text>
<text text-anchor="start" x="740.73" y="-648.8" font-family="Arial" font-size="14.00">    </text>
<text text-anchor="start" x="771.85" y="-648.8" font-family="Arial" font-size="14.00" fill="#666666">[BASE TABLE]</text>
<polygon fill="none" stroke="black" points="559.32,-604.6 559.32,-635.4 872.22,-635.4 872.22,-604.6 559.32,-604.6"/>
<text text-anchor="start" x="566.32" y="-616.8" font-family="Arial" font-size="14.00">price_cents </text>
<text text-anchor="start" x="641.8" y="-616.8" font-family="Arial" font-size="14.00" fill="#666666">[bigint]</text>
<polygon fill="none" stroke="black" points="559.32,-573.8 559.32,-604.6 872.22,-604.6 872.22,-573.8 559.32,-573.8"/>
<text text-anchor="start" x="566.32" y="-586" font-family="Arial" font-size="14.00">id </text>
<text text-anchor="start" x="581.11" y="-586" font-family="Arial" font-size="14.00" fill="#666666">[integer]</text>
<polygon fill="none" stroke="black" points="559.32,-543 559.32,-573.8 872.22,-573.8 872.22,-543 559.32,-543"/>
<text text-anchor="start" x="566.32" y="-555.2" font-family="Arial" font-size="14.00">stock </text>
<text text-anchor="start" x="602.89" y="-555.2" font-family="Arial" font-size="14.00" fill="#666666">[integer]</text>
<polygon fill="none" stroke="black" points="559.32,-512.2 559.32,-543 872.22,-543 872.22,-512.2 559.32,-512.2"/>
<text text-anchor="start" x="566.32" y="-524.4" font-family="Arial" font-size="14.00">media_id </text>
<text text-anchor="start" x="627.02" y="-524.4" font-family="Arial" font-size="14.00" fill="#666666">[integer]</text>
<polygon fill="none" stroke="black" points="559.32,-481.4 559.32,-512.2 872.22,-512.2 872.22,-481.4 559.32,-481.4"/>
<text text-anchor="start" x="566.32" y="-493.6" font-family="Arial" font-size="14.00">is_available </text>
<text text-anchor="start" x="643.37" y="-493.6" font-family="Arial" font-size="14.00" fill="#666666">[boolean]</text>
<polygon fill="none" stroke="black" stroke-width="3" points="557.82,-479.9 557.82,-672.5 873.72,-672.5 873.72,-479.9 557.82,-479.9"/>
</g>
<!-- content.media_core -->
<g id="node5" class="node">
<title>content.media_core</title>
<polygon fill="#efefef" stroke="none" points="575.81,-320.4 575.81,-356 855.73,-356 855.73,-320.4 575.81,-320.4"/>
<polygon fill="none" stroke="black" points="575.81,-320.4 575.81,-356 855.73,-356 855.73,-320.4 575.81,-320.4"/>
<text text-anchor="start" x="582.81" y="-333.8" font-family="Arial Bold" font-size="18.00">content.media_core</text>
<text text-anchor="start" x="724.24" y="-333.8" font-family="Arial" font-size="14.00">    </text>
<text text-anchor="start" x="755.36" y="-333.8" font-family="Arial" font-size="14.00" fill="#666666">[BASE TABLE]</text>
<polygon fill="none" stroke="black" points="575.81,-289.6 575.81,-320.4 855.73,-320.4 855.73,-289.6 575.81,-289.6"/>
<text text-anchor="start" x="582.81" y="-301.8" font-family="Arial" font-size="14.00">created_at </text>
<text text-anchor="start" x="652.86" y="-301.8" font-family="Arial" font-size="14.00" fill="#666666">[timestamp with time zone]</text>
<polygon fill="none" stroke="black" points="575.81,-258.8 575.81,-289.6 855.73,-289.6 855.73,-258.8 575.81,-258.8"/>
<text text-anchor="start" x="582.81" y="-271" font-family="Arial" font-size="14.00">modified_at </text>
<text text-anchor="start" x="659.08" y="-271" font-family="Arial" font-size="14.00" fill="#666666">[timestamp with time zone]</text>
<polygon fill="none" stroke="black" points="575.81,-228 575.81,-258.8 855.73,-258.8 855.73,-228 575.81,-228"/>
<text text-anchor="start" x="582.81" y="-240.2" font-family="Arial" font-size="14.00">id </text>
<text text-anchor="start" x="597.6" y="-240.2" font-family="Arial" font-size="14.00" fill="#666666">[integer]</text>
<polygon fill="none" stroke="black" points="575.81,-197.2 575.81,-228 855.73,-228 855.73,-197.2 575.81,-197.2"/>
<text text-anchor="start" x="582.81" y="-209.4" font-family="Arial" font-size="14.00">author_id </text>
<text text-anchor="start" x="645.08" y="-209.4" font-family="Arial" font-size="14.00" fill="#666666">[integer]</text>
<polygon fill="none" stroke="black" points="575.81,-166.4 575.81,-197.2 855.73,-197.2 855.73,-166.4 575.81,-166.4"/>
<text text-anchor="start" x="582.81" y="-178.6" font-family="Arial" font-size="14.00">width </text>
<text text-anchor="start" x="619.38" y="-178.6" font-family="Arial" font-size="14.00" fill="#666666">[integer]</text>
<polygon fill="none" stroke="black" points="575.81,-135.6 575.81,-166.4 855.73,-166.4 855.73,-135.6 575.81,-135.6"/>
<text text-anchor="start" x="582.81" y="-147.8" font-family="Arial" font-size="14.00">height </text>
<text text-anchor="start" x="624.84" y="-147.8" font-family="Arial" font-size="14.00" fill="#666666">[integer]</text>
<polygon fill="none" stroke="black" points="575.81,-104.8 575.81,-135.6 855.73,-135.6 855.73,-104.8 575.81,-104.8"/>
<text text-anchor="start" x="582.81" y="-117" font-family="Arial" font-size="14.00">mime_type </text>
<text text-anchor="start" x="655.17" y="-117" font-family="Arial" font-size="14.00" fill="#666666">[varchar(255)]</text>
<polygon fill="none" stroke="black" points="575.81,-74 575.81,-104.8 855.73,-104.8 855.73,-74 575.81,-74"/>
<text text-anchor="start" x="582.81" y="-86.2" font-family="Arial" font-size="14.00">folder_url </text>
<text text-anchor="start" x="645.06" y="-86.2" font-family="Arial" font-size="14.00" fill="#666666">[varchar(255)]</text>
<polygon fill="none" stroke="black" points="575.81,-43.2 575.81,-74 855.73,-74 855.73,-43.2 575.81,-43.2"/>
<text text-anchor="start" x="582.81" y="-55.4" font-family="Arial" font-size="14.00">file_name </text>
<text text-anchor="start" x="647.4" y="-55.4" font-family="Arial" font-size="14.00" fill="#666666">[varchar(255)]</text>
</g>
<!-- commerce.product_core&#45;&gt;content.media_core -->
<g id="edge4" class="edge">
<title>commerce.product_core:media_id&#45;&gt;content.media_core:id</title>
<path fill="none" stroke="black" d="M883.63,-526.93C998.72,-511.73 979.67,-243.4 856.73,-243.4"/>
<polygon fill="black" stroke="black" points="883.53,-526.94 873.26,-523.09 878.21,-527.28 873.89,-527.56 873.89,-527.56 873.89,-527.56 878.21,-527.28 873.84,-532.07 883.53,-526.94"/>
<text text-anchor="start" x="880.22" y="-537.6" font-family="Arial" font-size="10.00">FOREIGN KEY (media_id) REFERENCES content.media_core(id) ON DELETE SET NULL</text>
</g>
<!-- commerce.product_identity -->
<g id="node2" class="node">
<title>commerce.product_identity</title>
<polygon fill="#efefef" stroke="none" points="107.31,-919.6 107.31,-955.2 444.23,-955.2 444.23,-919.6 107.31,-919.6"/>
<polygon fill="none" stroke="black" points="107.31,-919.6 107.31,-955.2 444.23,-955.2 444.23,-919.6 107.31,-919.6"/>
<text text-anchor="start" x="114.31" y="-933" font-family="Arial Bold" font-size="18.00">commerce.product_identity</text>
<text text-anchor="start" x="312.74" y="-933" font-family="Arial" font-size="14.00">    </text>
<text text-anchor="start" x="343.86" y="-933" font-family="Arial" font-size="14.00" fill="#666666">[BASE TABLE]</text>
<polygon fill="none" stroke="black" points="107.31,-888.8 107.31,-919.6 444.23,-919.6 444.23,-888.8 107.31,-888.8"/>
<text text-anchor="start" x="114.31" y="-901" font-family="Arial" font-size="14.00">product_id </text>
<text text-anchor="start" x="183.58" y="-901" font-family="Arial" font-size="14.00" fill="#666666">[integer]</text>
<polygon fill="none" stroke="black" points="107.31,-858 107.31,-888.8 444.23,-888.8 444.23,-858 107.31,-858"/>
<text text-anchor="start" x="114.31" y="-870.2" font-family="Arial" font-size="14.00">name </text>
<text text-anchor="start" x="153.22" y="-870.2" font-family="Arial" font-size="14.00" fill="#666666">[varchar(64)]</text>
<polygon fill="none" stroke="black" points="107.31,-827.2 107.31,-858 444.23,-858 444.23,-827.2 107.31,-827.2"/>
<text text-anchor="start" x="114.31" y="-839.4" font-family="Arial" font-size="14.00">slug </text>
<text text-anchor="start" x="143.88" y="-839.4" font-family="Arial" font-size="14.00" fill="#666666">[varchar(64)]</text>
<polygon fill="none" stroke="black" points="107.31,-796.4 107.31,-827.2 444.23,-827.2 444.23,-796.4 107.31,-796.4"/>
<text text-anchor="start" x="114.31" y="-808.6" font-family="Arial" font-size="14.00">isbn_ean </text>
<text text-anchor="start" x="175.03" y="-808.6" font-family="Arial" font-size="14.00" fill="#666666">[varchar(13)]</text>
</g>
<!-- commerce.product_identity&#45;&gt;commerce.product_core -->
<g id="edge1" class="edge">
<title>commerce.product_identity:product_id&#45;&gt;commerce.product_core:id</title>
<path fill="none" stroke="black" d="M455.5,-903.51C511.54,-895.35 473.18,-816.32 495.77,-753.2 522.06,-679.75 480.31,-589.2 558.32,-589.2"/>
<polygon fill="black" stroke="black" points="455.54,-903.51 445.26,-899.69 450.22,-903.87 445.9,-904.16 445.9,-904.16 445.9,-904.16 450.22,-903.87 445.87,-908.67 455.54,-903.51"/>
<text text-anchor="start" x="7" y="-914.2" font-family="Arial" font-size="10.00">FOREIGN KEY (product_id) REFERENCES commerce.product_core(id) ON DELETE CASCADE</text>
</g>
<!-- commerce.product_content -->
<g id="node3" class="node">
<title>commerce.product_content</title>
<polygon fill="#efefef" stroke="none" points="548.32,-904.2 548.32,-939.8 883.22,-939.8 883.22,-904.2 548.32,-904.2"/>
<polygon fill="none" stroke="black" points="548.32,-904.2 548.32,-939.8 883.22,-939.8 883.22,-904.2 548.32,-904.2"/>
<text text-anchor="start" x="555.32" y="-917.6" font-family="Arial Bold" font-size="18.00">commerce.product_content</text>
<text text-anchor="start" x="751.73" y="-917.6" font-family="Arial" font-size="14.00">    </text>
<text text-anchor="start" x="782.85" y="-917.6" font-family="Arial" font-size="14.00" fill="#666666">[BASE TABLE]</text>
<polygon fill="none" stroke="black" points="548.32,-873.4 548.32,-904.2 883.22,-904.2 883.22,-873.4 548.32,-873.4"/>
<text text-anchor="start" x="555.32" y="-885.6" font-family="Arial" font-size="14.00">product_id </text>
<text text-anchor="start" x="624.59" y="-885.6" font-family="Arial" font-size="14.00" fill="#666666">[integer]</text>
<polygon fill="none" stroke="black" points="548.32,-842.6 548.32,-873.4 883.22,-873.4 883.22,-842.6 548.32,-842.6"/>
<text text-anchor="start" x="555.32" y="-854.8" font-family="Arial" font-size="14.00">description </text>
<text text-anchor="start" x="626.91" y="-854.8" font-family="Arial" font-size="14.00" fill="#666666">[text]</text>
<polygon fill="none" stroke="black" points="548.32,-811.8 548.32,-842.6 883.22,-842.6 883.22,-811.8 548.32,-811.8"/>
<text text-anchor="start" x="555.32" y="-824" font-family="Arial" font-size="14.00">tags </text>
<text text-anchor="start" x="585.67" y="-824" font-family="Arial" font-size="14.00" fill="#666666">[varchar(255)]</text>
</g>
<!-- commerce.product_content&#45;&gt;commerce.product_core -->
<g id="edge2" class="edge">
<title>commerce.product_content:product_id&#45;&gt;commerce.product_core:id</title>
<path fill="none" stroke="black" d="M894.12,-886.39C949.53,-858.03 936.33,-589.2 873.22,-589.2"/>
<polygon fill="black" stroke="black" points="894.26,-886.35 883.48,-884.35 889.08,-887.62 884.87,-888.64 884.87,-888.64 884.87,-888.64 889.08,-887.62 885.61,-893.09 894.26,-886.35"/>
<text text-anchor="start" x="668.61" y="-872.8" font-family="Arial" font-size="10.00">FOREIGN KEY (product_id) REFERENCES commerce.product_core(id) ON DELETE CASCADE</text>
</g>
<!-- commerce.transaction_item -->
<g id="node4" class="node">
<title>commerce.transaction_item</title>
<polygon fill="#efefef" stroke="none" points="987.82,-919.6 987.82,-955.2 1325.72,-955.2 1325.72,-919.6 987.82,-919.6"/>
<polygon fill="none" stroke="black" points="987.82,-919.6 987.82,-955.2 1325.72,-955.2 1325.72,-919.6 987.82,-919.6"/>
<text text-anchor="start" x="994.82" y="-933" font-family="Arial Bold" font-size="18.00">commerce.transaction_item</text>
<text text-anchor="start" x="1194.23" y="-933" font-family="Arial" font-size="14.00">    </text>
<text text-anchor="start" x="1225.35" y="-933" font-family="Arial" font-size="14.00" fill="#666666">[BASE TABLE]</text>
<polygon fill="none" stroke="black" points="987.82,-888.8 987.82,-919.6 1325.72,-919.6 1325.72,-888.8 987.82,-888.8"/>
<text text-anchor="start" x="994.82" y="-901" font-family="Arial" font-size="14.00">unit_price_snapshot_cents </text>
<text text-anchor="start" x="1165.27" y="-901" font-family="Arial" font-size="14.00" fill="#666666">[bigint]</text>
<polygon fill="none" stroke="black" points="987.82,-858 987.82,-888.8 1325.72,-888.8 1325.72,-858 987.82,-858"/>
<text text-anchor="start" x="994.82" y="-870.2" font-family="Arial" font-size="14.00">transaction_id </text>
<text text-anchor="start" x="1085.87" y="-870.2" font-family="Arial" font-size="14.00" fill="#666666">[integer]</text>
<polygon fill="none" stroke="black" points="987.82,-827.2 987.82,-858 1325.72,-858 1325.72,-827.2 987.82,-827.2"/>
<text text-anchor="start" x="994.82" y="-839.4" font-family="Arial" font-size="14.00">product_id </text>
<text text-anchor="start" x="1064.09" y="-839.4" font-family="Arial" font-size="14.00" fill="#666666">[integer]</text>
<polygon fill="none" stroke="black" points="987.82,-796.4 987.82,-827.2 1325.72,-827.2 1325.72,-796.4 987.82,-796.4"/>
<text text-anchor="start" x="994.82" y="-808.6" font-family="Arial" font-size="14.00">quantity </text>
<text text-anchor="start" x="1047.74" y="-808.6" font-family="Arial" font-size="14.00" fill="#666666">[integer]</text>
</g>
<!-- commerce.transaction_item&#45;&gt;commerce.product_core -->
<g id="edge3" class="edge">
<title>commerce.transaction_item:product_id&#45;&gt;commerce.product_core:id</title>
<path fill="none" stroke="black" d="M976.99,-840.25C925.99,-814.71 931.44,-589.2 873.22,-589.2"/>
<polygon fill="black" stroke="black" points="976.77,-840.2 985.45,-846.9 981.96,-841.44 986.17,-842.44 986.17,-842.44 986.17,-842.44 981.96,-841.44 987.54,-838.15 976.77,-840.2"/>
<text text-anchor="start" x="742.83" y="-826.6" font-family="Arial" font-size="10.00">FOREIGN KEY (product_id) REFERENCES commerce.product_core(id)</text>
</g>
</g>
</svg>
