<?xml version="1.0" encoding="UTF-8" standalone="no"?>
<!DOCTYPE svg PUBLIC "-//W3C//DTD SVG 1.1//EN"
 "http://www.w3.org/Graphics/SVG/1.1/DTD/svg11.dtd">
<!-- Generated by graphviz version 12.1.2 (20240928.0832)
 -->
<!-- Title: commerce.product_identity Pages: 1 -->
<svg width="837pt" height="571pt"
 viewBox="0.00 0.00 837.35 571.20" xmlns="http://www.w3.org/2000/svg" xmlns:xlink="http://www.w3.org/1999/xlink">
<g id="graph0" class="graph" transform="scale(1 1) rotate(0) translate(4 567.2)">
<title>commerce.product_identity</title>
<polygon fill="white" stroke="none" points="-4,4 -4,-567.2 833.35,-567.2 833.35,4 -4,4"/>
<!-- commerce.product_identity -->
<g id="node1" class="node">
<title>commerce.product_identity</title>
<polygon fill="#efefef" stroke="none" points="46.2,-481.4 46.2,-517 383.12,-517 383.12,-481.4 46.2,-481.4"/>
<polygon fill="none" stroke="black" points="46.2,-481.4 46.2,-517 383.12,-517 383.12,-481.4 46.2,-481.4"/>
<text text-anchor="start" x="53.2" y="-494.8" font-family="Arial Bold" font-size="18.00">commerce.product_identity</text>
<text text-anchor="start" x="251.63" y="-494.8" font-family="Arial" font-size="14.00">    </text>
<text text-anchor="start" x="282.75" y="-494.8" font-family="Arial" font-size="14.00" fill="#666666">[BASE TABLE]</text>
<polygon fill="none" stroke="black" points="46.2,-450.6 46.2,-481.4 383.12,-481.4 383.12,-450.6 46.2,-450.6"/>
<text text-anchor="start" x="53.2" y="-462.8" font-family="Arial" font-size="14.00">product_id </text>
<text text-anchor="start" x="122.47" y="-462.8" font-family="Arial" font-size="14.00" fill="#666666">[integer]</text>
<polygon fill="none" stroke="black" points="46.2,-419.8 46.2,-450.6 383.12,-450.6 383.12,-419.8 46.2,-419.8"/>
<text text-anchor="start" x="53.2" y="-432" font-family="Arial" font-size="14.00">name </text>
<text text-anchor="start" x="92.11" y="-432" font-family="Arial" font-size="14.00" fill="#666666">[varchar(64)]</text>
<polygon fill="none" stroke="black" points="46.2,-389 46.2,-419.8 383.12,-419.8 383.12,-389 46.2,-389"/>
<text text-anchor="start" x="53.2" y="-401.2" font-family="Arial" font-size="14.00">slug </text>
<text text-anchor="start" x="82.77" y="-401.2" font-family="Arial" font-size="14.00" fill="#666666">[varchar(64)]</text>
<polygon fill="none" stroke="black" points="46.2,-358.2 46.2,-389 383.12,-389 383.12,-358.2 46.2,-358.2"/>
<text text-anchor="start" x="53.2" y="-370.4" font-family="Arial" font-size="14.00">isbn_ean </text>
<text text-anchor="start" x="113.92" y="-370.4" font-family="Arial" font-size="14.00" fill="#666666">[varchar(13)]</text>
<polygon fill="none" stroke="black" stroke-width="3" points="44.7,-356.7 44.7,-518.5 384.62,-518.5 384.62,-356.7 44.7,-356.7"/>
</g>
<!-- commerce.product_core -->
<g id="node2" class="node">
<title>commerce.product_core</title>
<polygon fill="#efefef" stroke="none" points="58.21,-197.2 58.21,-232.8 371.11,-232.8 371.11,-197.2 58.21,-197.2"/>
<polygon fill="none" stroke="black" points="58.21,-197.2 58.21,-232.8 371.11,-232.8 371.11,-197.2 58.21,-197.2"/>
<text text-anchor="start" x="65.21" y="-210.6" font-family="Arial Bold" font-size="18.00">commerce.product_core</text>
<text text-anchor="start" x="239.62" y="-210.6" font-family="Arial" font-size="14.00">    </text>
<text text-anchor="start" x="270.74" y="-210.6" font-family="Arial" font-size="14.00" fill="#666666">[BASE TABLE]</text>
<polygon fill="none" stroke="black" points="58.21,-166.4 58.21,-197.2 371.11,-197.2 371.11,-166.4 58.21,-166.4"/>
<text text-anchor="start" x="65.21" y="-178.6" font-family="Arial" font-size="14.00">price_cents </text>
<text text-anchor="start" x="140.69" y="-178.6" font-family="Arial" font-size="14.00" fill="#666666">[bigint]</text>
<polygon fill="none" stroke="black" points="58.21,-135.6 58.21,-166.4 371.11,-166.4 371.11,-135.6 58.21,-135.6"/>
<text text-anchor="start" x="65.21" y="-147.8" font-family="Arial" font-size="14.00">id </text>
<text text-anchor="start" x="80" y="-147.8" font-family="Arial" font-size="14.00" fill="#666666">[integer]</text>
<polygon fill="none" stroke="black" points="58.21,-104.8 58.21,-135.6 371.11,-135.6 371.11,-104.8 58.21,-104.8"/>
<text text-anchor="start" x="65.21" y="-117" font-family="Arial" font-size="14.00">stock </text>
<text text-anchor="start" x="101.78" y="-117" font-family="Arial" font-size="14.00" fill="#666666">[integer]</text>
<polygon fill="none" stroke="black" points="58.21,-74 58.21,-104.8 371.11,-104.8 371.11,-74 58.21,-74"/>
<text text-anchor="start" x="65.21" y="-86.2" font-family="Arial" font-size="14.00">media_id </text>
<text text-anchor="start" x="125.91" y="-86.2" font-family="Arial" font-size="14.00" fill="#666666">[integer]</text>
<polygon fill="none" stroke="black" points="58.21,-43.2 58.21,-74 371.11,-74 371.11,-43.2 58.21,-43.2"/>
<text text-anchor="start" x="65.21" y="-55.4" font-family="Arial" font-size="14.00">is_available </text>
<text text-anchor="start" x="142.26" y="-55.4" font-family="Arial" font-size="14.00" fill="#666666">[boolean]</text>
</g>
<!-- commerce.product_identity&#45;&gt;commerce.product_core -->
<g id="edge1" class="edge">
<title>commerce.product_identity:product_id&#45;&gt;commerce.product_core:id</title>
<path fill="none" stroke="black" d="M394.16,-463.65C452.8,-434.82 438.6,-151 372.11,-151"/>
<polygon fill="black" stroke="black" points="394.18,-463.64 383.42,-461.54 388.99,-464.86 384.77,-465.85 384.77,-465.85 384.77,-465.85 388.99,-464.86 385.47,-470.3 394.18,-463.64"/>
<text text-anchor="start" x="391.12" y="-476" font-family="Arial" font-size="10.00">FOREIGN KEY (product_id) REFERENCES commerce.product_core(id) ON DELETE CASCADE</text>
</g>
</g>
</svg>
