<?xml version="1.0" encoding="UTF-8" standalone="no"?>
<!DOCTYPE svg PUBLIC "-//W3C//DTD SVG 1.1//EN"
 "http://www.w3.org/Graphics/SVG/1.1/DTD/svg11.dtd">
<!-- Generated by graphviz version 12.1.2 (20240928.0832)
 -->
<!-- Title: commerce.product_content Pages: 1 -->
<svg width="835pt" height="540pt"
 viewBox="0.00 0.00 835.34 540.40" xmlns="http://www.w3.org/2000/svg" xmlns:xlink="http://www.w3.org/1999/xlink">
<g id="graph0" class="graph" transform="scale(1 1) rotate(0) translate(4 536.4)">
<title>commerce.product_content</title>
<polygon fill="white" stroke="none" points="-4,4 -4,-536.4 831.34,-536.4 831.34,4 -4,4"/>
<!-- commerce.product_content -->
<g id="node1" class="node">
<title>commerce.product_content</title>
<polygon fill="#efefef" stroke="none" points="46.2,-450.6 46.2,-486.2 381.11,-486.2 381.11,-450.6 46.2,-450.6"/>
<polygon fill="none" stroke="black" points="46.2,-450.6 46.2,-486.2 381.11,-486.2 381.11,-450.6 46.2,-450.6"/>
<text text-anchor="start" x="53.2" y="-464" font-family="Arial Bold" font-size="18.00">commerce.product_content</text>
<text text-anchor="start" x="249.62" y="-464" font-family="Arial" font-size="14.00">    </text>
<text text-anchor="start" x="280.74" y="-464" font-family="Arial" font-size="14.00" fill="#666666">[BASE TABLE]</text>
<polygon fill="none" stroke="black" points="46.2,-419.8 46.2,-450.6 381.11,-450.6 381.11,-419.8 46.2,-419.8"/>
<text text-anchor="start" x="53.2" y="-432" font-family="Arial" font-size="14.00">product_id </text>
<text text-anchor="start" x="122.47" y="-432" font-family="Arial" font-size="14.00" fill="#666666">[integer]</text>
<polygon fill="none" stroke="black" points="46.2,-389 46.2,-419.8 381.11,-419.8 381.11,-389 46.2,-389"/>
<text text-anchor="start" x="53.2" y="-401.2" font-family="Arial" font-size="14.00">description </text>
<text text-anchor="start" x="124.79" y="-401.2" font-family="Arial" font-size="14.00" fill="#666666">[text]</text>
<polygon fill="none" stroke="black" points="46.2,-358.2 46.2,-389 381.11,-389 381.11,-358.2 46.2,-358.2"/>
<text text-anchor="start" x="53.2" y="-370.4" font-family="Arial" font-size="14.00">tags </text>
<text text-anchor="start" x="83.55" y="-370.4" font-family="Arial" font-size="14.00" fill="#666666">[varchar(255)]</text>
<polygon fill="none" stroke="black" stroke-width="3" points="44.7,-356.7 44.7,-487.7 382.61,-487.7 382.61,-356.7 44.7,-356.7"/>
</g>
<!-- commerce.product_core -->
<g id="node2" class="node">
<title>commerce.product_core</title>
<polygon fill="#efefef" stroke="none" points="57.2,-197.2 57.2,-232.8 370.1,-232.8 370.1,-197.2 57.2,-197.2"/>
<polygon fill="none" stroke="black" points="57.2,-197.2 57.2,-232.8 370.1,-232.8 370.1,-197.2 57.2,-197.2"/>
<text text-anchor="start" x="64.2" y="-210.6" font-family="Arial Bold" font-size="18.00">commerce.product_core</text>
<text text-anchor="start" x="238.61" y="-210.6" font-family="Arial" font-size="14.00">    </text>
<text text-anchor="start" x="269.73" y="-210.6" font-family="Arial" font-size="14.00" fill="#666666">[BASE TABLE]</text>
<polygon fill="none" stroke="black" points="57.2,-166.4 57.2,-197.2 370.1,-197.2 370.1,-166.4 57.2,-166.4"/>
<text text-anchor="start" x="64.2" y="-178.6" font-family="Arial" font-size="14.00">price_cents </text>
<text text-anchor="start" x="139.69" y="-178.6" font-family="Arial" font-size="14.00" fill="#666666">[bigint]</text>
<polygon fill="none" stroke="black" points="57.2,-135.6 57.2,-166.4 370.1,-166.4 370.1,-135.6 57.2,-135.6"/>
<text text-anchor="start" x="64.2" y="-147.8" font-family="Arial" font-size="14.00">id </text>
<text text-anchor="start" x="78.99" y="-147.8" font-family="Arial" font-size="14.00" fill="#666666">[integer]</text>
<polygon fill="none" stroke="black" points="57.2,-104.8 57.2,-135.6 370.1,-135.6 370.1,-104.8 57.2,-104.8"/>
<text text-anchor="start" x="64.2" y="-117" font-family="Arial" font-size="14.00">stock </text>
<text text-anchor="start" x="100.77" y="-117" font-family="Arial" font-size="14.00" fill="#666666">[integer]</text>
<polygon fill="none" stroke="black" points="57.2,-74 57.2,-104.8 370.1,-104.8 370.1,-74 57.2,-74"/>
<text text-anchor="start" x="64.2" y="-86.2" font-family="Arial" font-size="14.00">media_id </text>
<text text-anchor="start" x="124.91" y="-86.2" font-family="Arial" font-size="14.00" fill="#666666">[integer]</text>
<polygon fill="none" stroke="black" points="57.2,-43.2 57.2,-74 370.1,-74 370.1,-43.2 57.2,-43.2"/>
<text text-anchor="start" x="64.2" y="-55.4" font-family="Arial" font-size="14.00">is_available </text>
<text text-anchor="start" x="141.25" y="-55.4" font-family="Arial" font-size="14.00" fill="#666666">[boolean]</text>
</g>
<!-- commerce.product_content&#45;&gt;commerce.product_core -->
<g id="edge1" class="edge">
<title>commerce.product_content:product_id&#45;&gt;commerce.product_core:id</title>
<path fill="none" stroke="black" d="M392.14,-432.57C443.9,-403.92 430.73,-151 371.1,-151"/>
<polygon fill="black" stroke="black" points="392.1,-432.58 381.29,-430.76 386.94,-433.93 382.75,-435.03 382.75,-435.03 382.75,-435.03 386.94,-433.93 383.57,-439.47 392.1,-432.58"/>
<text text-anchor="start" x="389.11" y="-445.2" font-family="Arial" font-size="10.00">FOREIGN KEY (product_id) REFERENCES commerce.product_core(id) ON DELETE CASCADE</text>
</g>
</g>
</svg>
