<?xml version="1.0" encoding="UTF-8" standalone="no"?>
<!DOCTYPE svg PUBLIC "-//W3C//DTD SVG 1.1//EN"
 "http://www.w3.org/Graphics/SVG/1.1/DTD/svg11.dtd">
<!-- Generated by graphviz version 12.1.2 (20240928.0832)
 -->
<!-- Title: commerce.v_product Pages: 1 -->
<svg width="342pt" height="444pt"
 viewBox="0.00 0.00 341.51 444.00" xmlns="http://www.w3.org/2000/svg" xmlns:xlink="http://www.w3.org/1999/xlink">
<g id="graph0" class="graph" transform="scale(1 1) rotate(0) translate(4 440)">
<title>commerce.v_product</title>
<polygon fill="white" stroke="none" points="-4,4 -4,-440 337.51,-440 337.51,4 -4,4"/>
<!-- commerce.v_product -->
<g id="node1" class="node">
<title>commerce.v_product</title>
<polygon fill="#efefef" stroke="none" points="46.2,-354.2 46.2,-389.8 287.31,-389.8 287.31,-354.2 46.2,-354.2"/>
<polygon fill="none" stroke="black" points="46.2,-354.2 46.2,-389.8 287.31,-389.8 287.31,-354.2 46.2,-354.2"/>
<text text-anchor="start" x="53.2" y="-367.6" font-family="Arial Bold" font-size="18.00">commerce.v_product</text>
<text text-anchor="start" x="205.64" y="-367.6" font-family="Arial" font-size="14.00">    </text>
<text text-anchor="start" x="236.75" y="-367.6" font-family="Arial" font-size="14.00" fill="#666666">[VIEW]</text>
<polygon fill="none" stroke="black" points="46.2,-323.4 46.2,-354.2 287.31,-354.2 287.31,-323.4 46.2,-323.4"/>
<text text-anchor="start" x="53.2" y="-335.6" font-family="Arial" font-size="14.00">identifier </text>
<text text-anchor="start" x="110.01" y="-335.6" font-family="Arial" font-size="14.00" fill="#666666">[integer]</text>
<polygon fill="none" stroke="black" points="46.2,-292.6 46.2,-323.4 287.31,-323.4 287.31,-292.6 46.2,-292.6"/>
<text text-anchor="start" x="53.2" y="-304.8" font-family="Arial" font-size="14.00">name </text>
<text text-anchor="start" x="92.11" y="-304.8" font-family="Arial" font-size="14.00" fill="#666666">[varchar(64)]</text>
<polygon fill="none" stroke="black" points="46.2,-261.8 46.2,-292.6 287.31,-292.6 287.31,-261.8 46.2,-261.8"/>
<text text-anchor="start" x="53.2" y="-274" font-family="Arial" font-size="14.00">slug </text>
<text text-anchor="start" x="82.77" y="-274" font-family="Arial" font-size="14.00" fill="#666666">[varchar(64)]</text>
<polygon fill="none" stroke="black" points="46.2,-231 46.2,-261.8 287.31,-261.8 287.31,-231 46.2,-231"/>
<text text-anchor="start" x="53.2" y="-243.2" font-family="Arial" font-size="14.00">gtin13 </text>
<text text-anchor="start" x="95.23" y="-243.2" font-family="Arial" font-size="14.00" fill="#666666">[varchar(13)]</text>
<polygon fill="none" stroke="black" points="46.2,-200.2 46.2,-231 287.31,-231 287.31,-200.2 46.2,-200.2"/>
<text text-anchor="start" x="53.2" y="-212.4" font-family="Arial" font-size="14.00">price_cents </text>
<text text-anchor="start" x="128.68" y="-212.4" font-family="Arial" font-size="14.00" fill="#666666">[bigint]</text>
<polygon fill="none" stroke="black" points="46.2,-169.4 46.2,-200.2 287.31,-200.2 287.31,-169.4 46.2,-169.4"/>
<text text-anchor="start" x="53.2" y="-181.6" font-family="Arial" font-size="14.00">stock </text>
<text text-anchor="start" x="89.77" y="-181.6" font-family="Arial" font-size="14.00" fill="#666666">[integer]</text>
<polygon fill="none" stroke="black" points="46.2,-138.6 46.2,-169.4 287.31,-169.4 287.31,-138.6 46.2,-138.6"/>
<text text-anchor="start" x="53.2" y="-150.8" font-family="Arial" font-size="14.00">is_available </text>
<text text-anchor="start" x="130.25" y="-150.8" font-family="Arial" font-size="14.00" fill="#666666">[boolean]</text>
<polygon fill="none" stroke="black" points="46.2,-107.8 46.2,-138.6 287.31,-138.6 287.31,-107.8 46.2,-107.8"/>
<text text-anchor="start" x="53.2" y="-120" font-family="Arial" font-size="14.00">image_id </text>
<text text-anchor="start" x="113.9" y="-120" font-family="Arial" font-size="14.00" fill="#666666">[integer]</text>
<polygon fill="none" stroke="black" points="46.2,-77 46.2,-107.8 287.31,-107.8 287.31,-77 46.2,-77"/>
<text text-anchor="start" x="53.2" y="-89.2" font-family="Arial" font-size="14.00">description </text>
<text text-anchor="start" x="124.79" y="-89.2" font-family="Arial" font-size="14.00" fill="#666666">[text]</text>
<polygon fill="none" stroke="black" points="46.2,-46.2 46.2,-77 287.31,-77 287.31,-46.2 46.2,-46.2"/>
<text text-anchor="start" x="53.2" y="-58.4" font-family="Arial" font-size="14.00">tags </text>
<text text-anchor="start" x="83.55" y="-58.4" font-family="Arial" font-size="14.00" fill="#666666">[varchar(255)]</text>
<polygon fill="none" stroke="black" stroke-width="3" points="44.7,-44.7 44.7,-391.3 288.81,-391.3 288.81,-44.7 44.7,-44.7"/>
</g>
</g>
</svg>
