<?xml version="1.0" encoding="UTF-8" standalone="no"?>
<!DOCTYPE svg PUBLIC "-//W3C//DTD SVG 1.1//EN"
 "http://www.w3.org/Graphics/SVG/1.1/DTD/svg11.dtd">
<!-- Generated by graphviz version 12.1.2 (20240928.0832)
 -->
<!-- Title: commerce.transaction_payment Pages: 1 -->
<svg width="1281pt" height="787pt"
 viewBox="0.00 0.00 1281.17 786.80" xmlns="http://www.w3.org/2000/svg" xmlns:xlink="http://www.w3.org/1999/xlink">
<g id="graph0" class="graph" transform="scale(1 1) rotate(0) translate(4 782.8)">
<title>commerce.transaction_payment</title>
<polygon fill="white" stroke="none" points="-4,4 -4,-782.8 1277.17,-782.8 1277.17,4 -4,4"/>
<!-- commerce.transaction_payment -->
<g id="node1" class="node">
<title>commerce.transaction_payment</title>
<polygon fill="#efefef" stroke="none" points="477.35,-697 477.35,-732.6 845.25,-732.6 845.25,-697 477.35,-697"/>
<polygon fill="none" stroke="black" points="477.35,-697 477.35,-732.6 845.25,-732.6 845.25,-697 477.35,-697"/>
<text text-anchor="start" x="484.35" y="-710.4" font-family="Arial Bold" font-size="18.00">commerce.transaction_payment</text>
<text text-anchor="start" x="713.76" y="-710.4" font-family="Arial" font-size="14.00">    </text>
<text text-anchor="start" x="744.87" y="-710.4" font-family="Arial" font-size="14.00" fill="#666666">[BASE TABLE]</text>
<polygon fill="none" stroke="black" points="477.35,-666.2 477.35,-697 845.25,-697 845.25,-666.2 477.35,-666.2"/>
<text text-anchor="start" x="484.35" y="-678.4" font-family="Arial" font-size="14.00">paid_at </text>
<text text-anchor="start" x="534.17" y="-678.4" font-family="Arial" font-size="14.00" fill="#666666">[timestamp with time zone]</text>
<polygon fill="none" stroke="black" points="477.35,-635.4 477.35,-666.2 845.25,-666.2 845.25,-635.4 477.35,-635.4"/>
<text text-anchor="start" x="484.35" y="-647.6" font-family="Arial" font-size="14.00">transaction_id </text>
<text text-anchor="start" x="575.41" y="-647.6" font-family="Arial" font-size="14.00" fill="#666666">[integer]</text>
<polygon fill="none" stroke="black" points="477.35,-604.6 477.35,-635.4 845.25,-635.4 845.25,-604.6 477.35,-604.6"/>
<text text-anchor="start" x="484.35" y="-616.8" font-family="Arial" font-size="14.00">billing_place_id </text>
<text text-anchor="start" x="583.98" y="-616.8" font-family="Arial" font-size="14.00" fill="#666666">[integer]</text>
<polygon fill="none" stroke="black" points="477.35,-573.8 477.35,-604.6 845.25,-604.6 845.25,-573.8 477.35,-573.8"/>
<text text-anchor="start" x="484.35" y="-586" font-family="Arial" font-size="14.00">payment_status </text>
<text text-anchor="start" x="587.08" y="-586" font-family="Arial" font-size="14.00" fill="#666666">[smallint]</text>
<polygon fill="none" stroke="black" points="477.35,-543 477.35,-573.8 845.25,-573.8 845.25,-543 477.35,-543"/>
<text text-anchor="start" x="484.35" y="-555.2" font-family="Arial" font-size="14.00">invoice_number </text>
<text text-anchor="start" x="587.08" y="-555.2" font-family="Arial" font-size="14.00" fill="#666666">[varchar(64)]</text>
<polygon fill="none" stroke="black" points="477.35,-512.2 477.35,-543 845.25,-543 845.25,-512.2 477.35,-512.2"/>
<text text-anchor="start" x="484.35" y="-524.4" font-family="Arial" font-size="14.00">payment_method </text>
<text text-anchor="start" x="596.42" y="-524.4" font-family="Arial" font-size="14.00" fill="#666666">[varchar(32)]</text>
<polygon fill="none" stroke="black" points="477.35,-481.4 477.35,-512.2 845.25,-512.2 845.25,-481.4 477.35,-481.4"/>
<text text-anchor="start" x="484.35" y="-493.6" font-family="Arial" font-size="14.00">provider_reference </text>
<text text-anchor="start" x="605.75" y="-493.6" font-family="Arial" font-size="14.00" fill="#666666">[varchar(255)]</text>
<polygon fill="none" stroke="black" stroke-width="3" points="475.85,-479.9 475.85,-734.1 846.75,-734.1 846.75,-479.9 475.85,-479.9"/>
</g>
<!-- commerce.transaction_core -->
<g id="node2" class="node">
<title>commerce.transaction_core</title>
<polygon fill="#efefef" stroke="none" points="294.86,-320.4 294.86,-356 631.74,-356 631.74,-320.4 294.86,-320.4"/>
<polygon fill="none" stroke="black" points="294.86,-320.4 294.86,-356 631.74,-356 631.74,-320.4 294.86,-320.4"/>
<text text-anchor="start" x="301.86" y="-333.8" font-family="Arial Bold" font-size="18.00">commerce.transaction_core</text>
<text text-anchor="start" x="500.25" y="-333.8" font-family="Arial" font-size="14.00">    </text>
<text text-anchor="start" x="531.37" y="-333.8" font-family="Arial" font-size="14.00" fill="#666666">[BASE TABLE]</text>
<polygon fill="none" stroke="black" points="294.86,-289.6 294.86,-320.4 631.74,-320.4 631.74,-289.6 294.86,-289.6"/>
<text text-anchor="start" x="301.86" y="-301.8" font-family="Arial" font-size="14.00">created_at </text>
<text text-anchor="start" x="371.91" y="-301.8" font-family="Arial" font-size="14.00" fill="#666666">[timestamp with time zone]</text>
<polygon fill="none" stroke="black" points="294.86,-258.8 294.86,-289.6 631.74,-289.6 631.74,-258.8 294.86,-258.8"/>
<text text-anchor="start" x="301.86" y="-271" font-family="Arial" font-size="14.00">modified_at </text>
<text text-anchor="start" x="378.13" y="-271" font-family="Arial" font-size="14.00" fill="#666666">[timestamp with time zone]</text>
<polygon fill="none" stroke="black" points="294.86,-228 294.86,-258.8 631.74,-258.8 631.74,-228 294.86,-228"/>
<text text-anchor="start" x="301.86" y="-240.2" font-family="Arial" font-size="14.00">id </text>
<text text-anchor="start" x="316.64" y="-240.2" font-family="Arial" font-size="14.00" fill="#666666">[integer]</text>
<polygon fill="none" stroke="black" points="294.86,-197.2 294.86,-228 631.74,-228 631.74,-197.2 294.86,-197.2"/>
<text text-anchor="start" x="301.86" y="-209.4" font-family="Arial" font-size="14.00">client_entity_id </text>
<text text-anchor="start" x="398.36" y="-209.4" font-family="Arial" font-size="14.00" fill="#666666">[integer]</text>
<polygon fill="none" stroke="black" points="294.86,-166.4 294.86,-197.2 631.74,-197.2 631.74,-166.4 294.86,-166.4"/>
<text text-anchor="start" x="301.86" y="-178.6" font-family="Arial" font-size="14.00">seller_entity_id </text>
<text text-anchor="start" x="399.13" y="-178.6" font-family="Arial" font-size="14.00" fill="#666666">[integer]</text>
<polygon fill="none" stroke="black" points="294.86,-135.6 294.86,-166.4 631.74,-166.4 631.74,-135.6 294.86,-135.6"/>
<text text-anchor="start" x="301.86" y="-147.8" font-family="Arial" font-size="14.00">status </text>
<text text-anchor="start" x="343.1" y="-147.8" font-family="Arial" font-size="14.00" fill="#666666">[smallint]</text>
<polygon fill="none" stroke="black" points="294.86,-104.8 294.86,-135.6 631.74,-135.6 631.74,-104.8 294.86,-104.8"/>
<text text-anchor="start" x="301.86" y="-117" font-family="Arial" font-size="14.00">is_gift </text>
<text text-anchor="start" x="342.32" y="-117" font-family="Arial" font-size="14.00" fill="#666666">[boolean]</text>
<polygon fill="none" stroke="black" points="294.86,-74 294.86,-104.8 631.74,-104.8 631.74,-74 294.86,-74"/>
<text text-anchor="start" x="301.86" y="-86.2" font-family="Arial" font-size="14.00">is_recurring </text>
<text text-anchor="start" x="378.88" y="-86.2" font-family="Arial" font-size="14.00" fill="#666666">[boolean]</text>
<polygon fill="none" stroke="black" points="294.86,-43.2 294.86,-74 631.74,-74 631.74,-43.2 294.86,-43.2"/>
<text text-anchor="start" x="301.86" y="-55.4" font-family="Arial" font-size="14.00">description </text>
<text text-anchor="start" x="373.45" y="-55.4" font-family="Arial" font-size="14.00" fill="#666666">[text]</text>
</g>
<!-- commerce.transaction_payment&#45;&gt;commerce.transaction_core -->
<g id="edge1" class="edge">
<title>commerce.transaction_payment:transaction_id&#45;&gt;commerce.transaction_core:id</title>
<path fill="none" stroke="black" d="M465.98,-650.2C383.39,-640.18 419.89,-507.27 477.35,-435.2 521.28,-380.11 587.76,-454.25 631.74,-399.2 674.96,-345.1 701.99,-243.4 632.74,-243.4"/>
<polygon fill="black" stroke="black" points="466.04,-650.2 475.76,-655.27 471.36,-650.51 475.69,-650.76 475.69,-650.76 475.69,-650.76 471.36,-650.51 476.28,-646.29 466.04,-650.2"/>
<text text-anchor="start" x="7" y="-660.8" font-family="Arial" font-size="10.00">FOREIGN KEY (transaction_id) REFERENCES commerce.transaction_core(id) ON DELETE CASCADE</text>
</g>
<!-- geo.place_core -->
<g id="node3" class="node">
<title>geo.place_core</title>
<polygon fill="#efefef" stroke="none" points="735.84,-258.8 735.84,-294.4 982.76,-294.4 982.76,-258.8 735.84,-258.8"/>
<polygon fill="none" stroke="black" points="735.84,-258.8 735.84,-294.4 982.76,-294.4 982.76,-258.8 735.84,-258.8"/>
<text text-anchor="start" x="742.84" y="-272.2" font-family="Arial Bold" font-size="18.00">geo.place_core</text>
<text text-anchor="start" x="851.27" y="-272.2" font-family="Arial" font-size="14.00">    </text>
<text text-anchor="start" x="882.39" y="-272.2" font-family="Arial" font-size="14.00" fill="#666666">[BASE TABLE]</text>
<polygon fill="none" stroke="black" points="735.84,-228 735.84,-258.8 982.76,-258.8 982.76,-228 735.84,-228"/>
<text text-anchor="start" x="742.84" y="-240.2" font-family="Arial" font-size="14.00">id </text>
<text text-anchor="start" x="757.63" y="-240.2" font-family="Arial" font-size="14.00" fill="#666666">[integer]</text>
<polygon fill="none" stroke="black" points="735.84,-197.2 735.84,-228 982.76,-228 982.76,-197.2 735.84,-197.2"/>
<text text-anchor="start" x="742.84" y="-209.4" font-family="Arial" font-size="14.00">elevation </text>
<text text-anchor="start" x="802.77" y="-209.4" font-family="Arial" font-size="14.00" fill="#666666">[smallint]</text>
<polygon fill="none" stroke="black" points="735.84,-166.4 735.84,-197.2 982.76,-197.2 982.76,-166.4 735.84,-166.4"/>
<text text-anchor="start" x="742.84" y="-178.6" font-family="Arial" font-size="14.00">type_id </text>
<text text-anchor="start" x="791.87" y="-178.6" font-family="Arial" font-size="14.00" fill="#666666">[smallint]</text>
<polygon fill="none" stroke="black" points="735.84,-135.6 735.84,-166.4 982.76,-166.4 982.76,-135.6 735.84,-135.6"/>
<text text-anchor="start" x="742.84" y="-147.8" font-family="Arial" font-size="14.00">name </text>
<text text-anchor="start" x="781.75" y="-147.8" font-family="Arial" font-size="14.00" fill="#666666">[varchar(60)]</text>
<polygon fill="none" stroke="black" points="735.84,-104.8 735.84,-135.6 982.76,-135.6 982.76,-104.8 735.84,-104.8"/>
<text text-anchor="start" x="742.84" y="-117" font-family="Arial" font-size="14.00">coordinates </text>
<text text-anchor="start" x="819.11" y="-117" font-family="Arial" font-size="14.00" fill="#666666">[geometry(Point,4326)]</text>
</g>
<!-- commerce.transaction_payment&#45;&gt;geo.place_core -->
<g id="edge2" class="edge">
<title>commerce.transaction_payment:billing_place_id&#45;&gt;geo.place_core:id</title>
<path fill="none" stroke="black" d="M856.53,-619.35C923.98,-610.19 877.51,-506.7 845.25,-435.2 818.44,-375.81 762.8,-396.92 735.84,-337.6 718.52,-299.48 692.97,-243.4 734.84,-243.4"/>
<polygon fill="black" stroke="black" points="856.56,-619.35 846.3,-615.49 851.24,-619.68 846.91,-619.96 846.91,-619.96 846.91,-619.96 851.24,-619.68 846.86,-624.47 856.56,-619.35"/>
<text text-anchor="start" x="853.25" y="-630" font-family="Arial" font-size="10.00">FOREIGN KEY (billing_place_id) REFERENCES geo.place_core(id) ON DELETE SET NULL</text>
</g>
</g>
</svg>
