<?xml version="1.0" encoding="UTF-8" standalone="no"?>
<!DOCTYPE svg PUBLIC "-//W3C//DTD SVG 1.1//EN"
 "http://www.w3.org/Graphics/SVG/1.1/DTD/svg11.dtd">
<!-- Generated by graphviz version 12.1.2 (20240928.0832)
 -->
<!-- Title: commerce.transaction_delivery Pages: 1 -->
<svg width="1290pt" height="818pt"
 viewBox="0.00 0.00 1289.84 817.60" xmlns="http://www.w3.org/2000/svg" xmlns:xlink="http://www.w3.org/1999/xlink">
<g id="graph0" class="graph" transform="scale(1 1) rotate(0) translate(4 813.6)">
<title>commerce.transaction_delivery</title>
<polygon fill="white" stroke="none" points="-4,4 -4,-813.6 1285.84,-813.6 1285.84,4 -4,4"/>
<!-- commerce.transaction_delivery -->
<g id="node1" class="node">
<title>commerce.transaction_delivery</title>
<polygon fill="#efefef" stroke="none" points="477.35,-727.8 477.35,-763.4 842.24,-763.4 842.24,-727.8 477.35,-727.8"/>
<polygon fill="none" stroke="black" points="477.35,-727.8 477.35,-763.4 842.24,-763.4 842.24,-727.8 477.35,-727.8"/>
<text text-anchor="start" x="484.35" y="-741.2" font-family="Arial Bold" font-size="18.00">commerce.transaction_delivery</text>
<text text-anchor="start" x="710.75" y="-741.2" font-family="Arial" font-size="14.00">    </text>
<text text-anchor="start" x="741.87" y="-741.2" font-family="Arial" font-size="14.00" fill="#666666">[BASE TABLE]</text>
<polygon fill="none" stroke="black" points="477.35,-697 477.35,-727.8 842.24,-727.8 842.24,-697 477.35,-697"/>
<text text-anchor="start" x="484.35" y="-709.2" font-family="Arial" font-size="14.00">shipped_at </text>
<text text-anchor="start" x="556.75" y="-709.2" font-family="Arial" font-size="14.00" fill="#666666">[timestamp with time zone]</text>
<polygon fill="none" stroke="black" points="477.35,-666.2 477.35,-697 842.24,-697 842.24,-666.2 477.35,-666.2"/>
<text text-anchor="start" x="484.35" y="-678.4" font-family="Arial" font-size="14.00">estimated_at </text>
<text text-anchor="start" x="568.4" y="-678.4" font-family="Arial" font-size="14.00" fill="#666666">[timestamp with time zone]</text>
<polygon fill="none" stroke="black" points="477.35,-635.4 477.35,-666.2 842.24,-666.2 842.24,-635.4 477.35,-635.4"/>
<text text-anchor="start" x="484.35" y="-647.6" font-family="Arial" font-size="14.00">delivered_at </text>
<text text-anchor="start" x="564.52" y="-647.6" font-family="Arial" font-size="14.00" fill="#666666">[timestamp with time zone]</text>
<polygon fill="none" stroke="black" points="477.35,-604.6 477.35,-635.4 842.24,-635.4 842.24,-604.6 477.35,-604.6"/>
<text text-anchor="start" x="484.35" y="-616.8" font-family="Arial" font-size="14.00">transaction_id </text>
<text text-anchor="start" x="575.41" y="-616.8" font-family="Arial" font-size="14.00" fill="#666666">[integer]</text>
<polygon fill="none" stroke="black" points="477.35,-573.8 477.35,-604.6 842.24,-604.6 842.24,-573.8 477.35,-573.8"/>
<text text-anchor="start" x="484.35" y="-586" font-family="Arial" font-size="14.00">shipping_place_id </text>
<text text-anchor="start" x="600.33" y="-586" font-family="Arial" font-size="14.00" fill="#666666">[integer]</text>
<polygon fill="none" stroke="black" points="477.35,-543 477.35,-573.8 842.24,-573.8 842.24,-543 477.35,-543"/>
<text text-anchor="start" x="484.35" y="-555.2" font-family="Arial" font-size="14.00">delivery_status </text>
<text text-anchor="start" x="581.62" y="-555.2" font-family="Arial" font-size="14.00" fill="#666666">[smallint]</text>
<polygon fill="none" stroke="black" points="477.35,-512.2 477.35,-543 842.24,-543 842.24,-512.2 477.35,-512.2"/>
<text text-anchor="start" x="484.35" y="-524.4" font-family="Arial" font-size="14.00">carrier </text>
<text text-anchor="start" x="527.91" y="-524.4" font-family="Arial" font-size="14.00" fill="#666666">[varchar(64)]</text>
<polygon fill="none" stroke="black" points="477.35,-481.4 477.35,-512.2 842.24,-512.2 842.24,-481.4 477.35,-481.4"/>
<text text-anchor="start" x="484.35" y="-493.6" font-family="Arial" font-size="14.00">tracking_number </text>
<text text-anchor="start" x="592.52" y="-493.6" font-family="Arial" font-size="14.00" fill="#666666">[varchar(255)]</text>
<polygon fill="none" stroke="black" stroke-width="3" points="475.85,-479.9 475.85,-764.9 843.74,-764.9 843.74,-479.9 475.85,-479.9"/>
</g>
<!-- commerce.transaction_core -->
<g id="node2" class="node">
<title>commerce.transaction_core</title>
<polygon fill="#efefef" stroke="none" points="293.35,-320.4 293.35,-356 630.24,-356 630.24,-320.4 293.35,-320.4"/>
<polygon fill="none" stroke="black" points="293.35,-320.4 293.35,-356 630.24,-356 630.24,-320.4 293.35,-320.4"/>
<text text-anchor="start" x="300.35" y="-333.8" font-family="Arial Bold" font-size="18.00">commerce.transaction_core</text>
<text text-anchor="start" x="498.75" y="-333.8" font-family="Arial" font-size="14.00">    </text>
<text text-anchor="start" x="529.87" y="-333.8" font-family="Arial" font-size="14.00" fill="#666666">[BASE TABLE]</text>
<polygon fill="none" stroke="black" points="293.35,-289.6 293.35,-320.4 630.24,-320.4 630.24,-289.6 293.35,-289.6"/>
<text text-anchor="start" x="300.35" y="-301.8" font-family="Arial" font-size="14.00">created_at </text>
<text text-anchor="start" x="370.4" y="-301.8" font-family="Arial" font-size="14.00" fill="#666666">[timestamp with time zone]</text>
<polygon fill="none" stroke="black" points="293.35,-258.8 293.35,-289.6 630.24,-289.6 630.24,-258.8 293.35,-258.8"/>
<text text-anchor="start" x="300.35" y="-271" font-family="Arial" font-size="14.00">modified_at </text>
<text text-anchor="start" x="376.62" y="-271" font-family="Arial" font-size="14.00" fill="#666666">[timestamp with time zone]</text>
<polygon fill="none" stroke="black" points="293.35,-228 293.35,-258.8 630.24,-258.8 630.24,-228 293.35,-228"/>
<text text-anchor="start" x="300.35" y="-240.2" font-family="Arial" font-size="14.00">id </text>
<text text-anchor="start" x="315.14" y="-240.2" font-family="Arial" font-size="14.00" fill="#666666">[integer]</text>
<polygon fill="none" stroke="black" points="293.35,-197.2 293.35,-228 630.24,-228 630.24,-197.2 293.35,-197.2"/>
<text text-anchor="start" x="300.35" y="-209.4" font-family="Arial" font-size="14.00">client_entity_id </text>
<text text-anchor="start" x="396.86" y="-209.4" font-family="Arial" font-size="14.00" fill="#666666">[integer]</text>
<polygon fill="none" stroke="black" points="293.35,-166.4 293.35,-197.2 630.24,-197.2 630.24,-166.4 293.35,-166.4"/>
<text text-anchor="start" x="300.35" y="-178.6" font-family="Arial" font-size="14.00">seller_entity_id </text>
<text text-anchor="start" x="397.63" y="-178.6" font-family="Arial" font-size="14.00" fill="#666666">[integer]</text>
<polygon fill="none" stroke="black" points="293.35,-135.6 293.35,-166.4 630.24,-166.4 630.24,-135.6 293.35,-135.6"/>
<text text-anchor="start" x="300.35" y="-147.8" font-family="Arial" font-size="14.00">status </text>
<text text-anchor="start" x="341.6" y="-147.8" font-family="Arial" font-size="14.00" fill="#666666">[smallint]</text>
<polygon fill="none" stroke="black" points="293.35,-104.8 293.35,-135.6 630.24,-135.6 630.24,-104.8 293.35,-104.8"/>
<text text-anchor="start" x="300.35" y="-117" font-family="Arial" font-size="14.00">is_gift </text>
<text text-anchor="start" x="340.82" y="-117" font-family="Arial" font-size="14.00" fill="#666666">[boolean]</text>
<polygon fill="none" stroke="black" points="293.35,-74 293.35,-104.8 630.24,-104.8 630.24,-74 293.35,-74"/>
<text text-anchor="start" x="300.35" y="-86.2" font-family="Arial" font-size="14.00">is_recurring </text>
<text text-anchor="start" x="377.38" y="-86.2" font-family="Arial" font-size="14.00" fill="#666666">[boolean]</text>
<polygon fill="none" stroke="black" points="293.35,-43.2 293.35,-74 630.24,-74 630.24,-43.2 293.35,-43.2"/>
<text text-anchor="start" x="300.35" y="-55.4" font-family="Arial" font-size="14.00">description </text>
<text text-anchor="start" x="371.95" y="-55.4" font-family="Arial" font-size="14.00" fill="#666666">[text]</text>
</g>
<!-- commerce.transaction_delivery&#45;&gt;commerce.transaction_core -->
<g id="edge1" class="edge">
<title>commerce.transaction_delivery:transaction_id&#45;&gt;commerce.transaction_core:id</title>
<path fill="none" stroke="black" d="M465.97,-619.29C397.13,-609.28 428.49,-496.57 477.35,-435.2 520.84,-380.59 586.73,-453.79 630.24,-399.2 673.4,-345.05 700.49,-243.4 631.24,-243.4"/>
<polygon fill="black" stroke="black" points="466.04,-619.29 475.71,-624.47 471.37,-619.66 475.69,-619.95 475.69,-619.95 475.69,-619.95 471.37,-619.66 476.33,-615.49 466.04,-619.29"/>
<text text-anchor="start" x="7" y="-630" font-family="Arial" font-size="10.00">FOREIGN KEY (transaction_id) REFERENCES commerce.transaction_core(id) ON DELETE CASCADE</text>
</g>
<!-- geo.place_core -->
<g id="node3" class="node">
<title>geo.place_core</title>
<polygon fill="#efefef" stroke="none" points="734.34,-258.8 734.34,-294.4 981.26,-294.4 981.26,-258.8 734.34,-258.8"/>
<polygon fill="none" stroke="black" points="734.34,-258.8 734.34,-294.4 981.26,-294.4 981.26,-258.8 734.34,-258.8"/>
<text text-anchor="start" x="741.34" y="-272.2" font-family="Arial Bold" font-size="18.00">geo.place_core</text>
<text text-anchor="start" x="849.77" y="-272.2" font-family="Arial" font-size="14.00">    </text>
<text text-anchor="start" x="880.88" y="-272.2" font-family="Arial" font-size="14.00" fill="#666666">[BASE TABLE]</text>
<polygon fill="none" stroke="black" points="734.34,-228 734.34,-258.8 981.26,-258.8 981.26,-228 734.34,-228"/>
<text text-anchor="start" x="741.34" y="-240.2" font-family="Arial" font-size="14.00">id </text>
<text text-anchor="start" x="756.12" y="-240.2" font-family="Arial" font-size="14.00" fill="#666666">[integer]</text>
<polygon fill="none" stroke="black" points="734.34,-197.2 734.34,-228 981.26,-228 981.26,-197.2 734.34,-197.2"/>
<text text-anchor="start" x="741.34" y="-209.4" font-family="Arial" font-size="14.00">elevation </text>
<text text-anchor="start" x="801.27" y="-209.4" font-family="Arial" font-size="14.00" fill="#666666">[smallint]</text>
<polygon fill="none" stroke="black" points="734.34,-166.4 734.34,-197.2 981.26,-197.2 981.26,-166.4 734.34,-166.4"/>
<text text-anchor="start" x="741.34" y="-178.6" font-family="Arial" font-size="14.00">type_id </text>
<text text-anchor="start" x="790.37" y="-178.6" font-family="Arial" font-size="14.00" fill="#666666">[smallint]</text>
<polygon fill="none" stroke="black" points="734.34,-135.6 734.34,-166.4 981.26,-166.4 981.26,-135.6 734.34,-135.6"/>
<text text-anchor="start" x="741.34" y="-147.8" font-family="Arial" font-size="14.00">name </text>
<text text-anchor="start" x="780.25" y="-147.8" font-family="Arial" font-size="14.00" fill="#666666">[varchar(60)]</text>
<polygon fill="none" stroke="black" points="734.34,-104.8 734.34,-135.6 981.26,-135.6 981.26,-104.8 734.34,-104.8"/>
<text text-anchor="start" x="741.34" y="-117" font-family="Arial" font-size="14.00">coordinates </text>
<text text-anchor="start" x="817.61" y="-117" font-family="Arial" font-size="14.00" fill="#666666">[geometry(Point,4326)]</text>
</g>
<!-- commerce.transaction_delivery&#45;&gt;geo.place_core -->
<g id="edge2" class="edge">
<title>commerce.transaction_delivery:shipping_place_id&#45;&gt;geo.place_core:id</title>
<path fill="none" stroke="black" d="M853.5,-588.4C907.19,-579.28 868.68,-494.25 842.24,-435.2 815.81,-376.18 760.88,-396.56 734.34,-337.6 717.15,-299.42 691.47,-243.4 733.34,-243.4"/>
<polygon fill="black" stroke="black" points="853.54,-588.4 843.22,-584.69 848.23,-588.81 843.91,-589.15 843.91,-589.15 843.91,-589.15 848.23,-588.81 843.92,-593.66 853.54,-588.4"/>
<text text-anchor="start" x="850.24" y="-599.2" font-family="Arial" font-size="10.00">FOREIGN KEY (shipping_place_id) REFERENCES geo.place_core(id) ON DELETE SET NULL</text>
</g>
</g>
</svg>
