<?xml version="1.0" encoding="UTF-8" standalone="no"?>
<!DOCTYPE svg PUBLIC "-//W3C//DTD SVG 1.1//EN"
 "http://www.w3.org/Graphics/SVG/1.1/DTD/svg11.dtd">
<!-- Generated by graphviz version 12.1.2 (20240928.0832)
 -->
<!-- Title: commerce.transaction_price Pages: 1 -->
<svg width="873pt" height="787pt"
 viewBox="0.00 0.00 873.44 786.80" xmlns="http://www.w3.org/2000/svg" xmlns:xlink="http://www.w3.org/1999/xlink">
<g id="graph0" class="graph" transform="scale(1 1) rotate(0) translate(4 782.8)">
<title>commerce.transaction_price</title>
<polygon fill="white" stroke="none" points="-4,4 -4,-782.8 869.44,-782.8 869.44,4 -4,4"/>
<!-- commerce.transaction_price -->
<g id="node1" class="node">
<title>commerce.transaction_price</title>
<polygon fill="#efefef" stroke="none" points="46.2,-697 46.2,-732.6 388.09,-732.6 388.09,-697 46.2,-697"/>
<polygon fill="none" stroke="black" points="46.2,-697 46.2,-732.6 388.09,-732.6 388.09,-697 46.2,-697"/>
<text text-anchor="start" x="53.2" y="-710.4" font-family="Arial Bold" font-size="18.00">commerce.transaction_price</text>
<text text-anchor="start" x="256.6" y="-710.4" font-family="Arial" font-size="14.00">    </text>
<text text-anchor="start" x="287.71" y="-710.4" font-family="Arial" font-size="14.00" fill="#666666">[BASE TABLE]</text>
<polygon fill="none" stroke="black" points="46.2,-666.2 46.2,-697 388.09,-697 388.09,-666.2 46.2,-666.2"/>
<text text-anchor="start" x="53.2" y="-678.4" font-family="Arial" font-size="14.00">shipping_cents </text>
<text text-anchor="start" x="150.49" y="-678.4" font-family="Arial" font-size="14.00" fill="#666666">[bigint]</text>
<polygon fill="none" stroke="black" points="46.2,-635.4 46.2,-666.2 388.09,-666.2 388.09,-635.4 46.2,-635.4"/>
<text text-anchor="start" x="53.2" y="-647.6" font-family="Arial" font-size="14.00">discount_cents </text>
<text text-anchor="start" x="150.48" y="-647.6" font-family="Arial" font-size="14.00" fill="#666666">[bigint]</text>
<polygon fill="none" stroke="black" points="46.2,-604.6 46.2,-635.4 388.09,-635.4 388.09,-604.6 46.2,-604.6"/>
<text text-anchor="start" x="53.2" y="-616.8" font-family="Arial" font-size="14.00">tax_cents </text>
<text text-anchor="start" x="117.01" y="-616.8" font-family="Arial" font-size="14.00" fill="#666666">[bigint]</text>
<polygon fill="none" stroke="black" points="46.2,-573.8 46.2,-604.6 388.09,-604.6 388.09,-573.8 46.2,-573.8"/>
<text text-anchor="start" x="53.2" y="-586" font-family="Arial" font-size="14.00">transaction_id </text>
<text text-anchor="start" x="144.25" y="-586" font-family="Arial" font-size="14.00" fill="#666666">[integer]</text>
<polygon fill="none" stroke="black" points="46.2,-543 46.2,-573.8 388.09,-573.8 388.09,-543 46.2,-543"/>
<text text-anchor="start" x="53.2" y="-555.2" font-family="Arial" font-size="14.00">tax_rate_bp </text>
<text text-anchor="start" x="131.03" y="-555.2" font-family="Arial" font-size="14.00" fill="#666666">[integer]</text>
<polygon fill="none" stroke="black" points="46.2,-512.2 46.2,-543 388.09,-543 388.09,-512.2 46.2,-512.2"/>
<text text-anchor="start" x="53.2" y="-524.4" font-family="Arial" font-size="14.00">currency_code </text>
<text text-anchor="start" x="148.92" y="-524.4" font-family="Arial" font-size="14.00" fill="#666666">[smallint]</text>
<polygon fill="none" stroke="black" points="46.2,-481.4 46.2,-512.2 388.09,-512.2 388.09,-481.4 46.2,-481.4"/>
<text text-anchor="start" x="53.2" y="-493.6" font-family="Arial" font-size="14.00">is_tax_included </text>
<text text-anchor="start" x="153.6" y="-493.6" font-family="Arial" font-size="14.00" fill="#666666">[boolean]</text>
<polygon fill="none" stroke="black" stroke-width="3" points="44.7,-479.9 44.7,-734.1 389.59,-734.1 389.59,-479.9 44.7,-479.9"/>
</g>
<!-- commerce.transaction_core -->
<g id="node2" class="node">
<title>commerce.transaction_core</title>
<polygon fill="#efefef" stroke="none" points="48.7,-320.4 48.7,-356 385.59,-356 385.59,-320.4 48.7,-320.4"/>
<polygon fill="none" stroke="black" points="48.7,-320.4 48.7,-356 385.59,-356 385.59,-320.4 48.7,-320.4"/>
<text text-anchor="start" x="55.7" y="-333.8" font-family="Arial Bold" font-size="18.00">commerce.transaction_core</text>
<text text-anchor="start" x="254.1" y="-333.8" font-family="Arial" font-size="14.00">    </text>
<text text-anchor="start" x="285.21" y="-333.8" font-family="Arial" font-size="14.00" fill="#666666">[BASE TABLE]</text>
<polygon fill="none" stroke="black" points="48.7,-289.6 48.7,-320.4 385.59,-320.4 385.59,-289.6 48.7,-289.6"/>
<text text-anchor="start" x="55.7" y="-301.8" font-family="Arial" font-size="14.00">created_at </text>
<text text-anchor="start" x="125.75" y="-301.8" font-family="Arial" font-size="14.00" fill="#666666">[timestamp with time zone]</text>
<polygon fill="none" stroke="black" points="48.7,-258.8 48.7,-289.6 385.59,-289.6 385.59,-258.8 48.7,-258.8"/>
<text text-anchor="start" x="55.7" y="-271" font-family="Arial" font-size="14.00">modified_at </text>
<text text-anchor="start" x="131.97" y="-271" font-family="Arial" font-size="14.00" fill="#666666">[timestamp with time zone]</text>
<polygon fill="none" stroke="black" points="48.7,-228 48.7,-258.8 385.59,-258.8 385.59,-228 48.7,-228"/>
<text text-anchor="start" x="55.7" y="-240.2" font-family="Arial" font-size="14.00">id </text>
<text text-anchor="start" x="70.49" y="-240.2" font-family="Arial" font-size="14.00" fill="#666666">[integer]</text>
<polygon fill="none" stroke="black" points="48.7,-197.2 48.7,-228 385.59,-228 385.59,-197.2 48.7,-197.2"/>
<text text-anchor="start" x="55.7" y="-209.4" font-family="Arial" font-size="14.00">client_entity_id </text>
<text text-anchor="start" x="152.2" y="-209.4" font-family="Arial" font-size="14.00" fill="#666666">[integer]</text>
<polygon fill="none" stroke="black" points="48.7,-166.4 48.7,-197.2 385.59,-197.2 385.59,-166.4 48.7,-166.4"/>
<text text-anchor="start" x="55.7" y="-178.6" font-family="Arial" font-size="14.00">seller_entity_id </text>
<text text-anchor="start" x="152.98" y="-178.6" font-family="Arial" font-size="14.00" fill="#666666">[integer]</text>
<polygon fill="none" stroke="black" points="48.7,-135.6 48.7,-166.4 385.59,-166.4 385.59,-135.6 48.7,-135.6"/>
<text text-anchor="start" x="55.7" y="-147.8" font-family="Arial" font-size="14.00">status </text>
<text text-anchor="start" x="96.94" y="-147.8" font-family="Arial" font-size="14.00" fill="#666666">[smallint]</text>
<polygon fill="none" stroke="black" points="48.7,-104.8 48.7,-135.6 385.59,-135.6 385.59,-104.8 48.7,-104.8"/>
<text text-anchor="start" x="55.7" y="-117" font-family="Arial" font-size="14.00">is_gift </text>
<text text-anchor="start" x="96.16" y="-117" font-family="Arial" font-size="14.00" fill="#666666">[boolean]</text>
<polygon fill="none" stroke="black" points="48.7,-74 48.7,-104.8 385.59,-104.8 385.59,-74 48.7,-74"/>
<text text-anchor="start" x="55.7" y="-86.2" font-family="Arial" font-size="14.00">is_recurring </text>
<text text-anchor="start" x="132.73" y="-86.2" font-family="Arial" font-size="14.00" fill="#666666">[boolean]</text>
<polygon fill="none" stroke="black" points="48.7,-43.2 48.7,-74 385.59,-74 385.59,-43.2 48.7,-43.2"/>
<text text-anchor="start" x="55.7" y="-55.4" font-family="Arial" font-size="14.00">description </text>
<text text-anchor="start" x="127.29" y="-55.4" font-family="Arial" font-size="14.00" fill="#666666">[text]</text>
</g>
<!-- commerce.transaction_price&#45;&gt;commerce.transaction_core -->
<g id="edge1" class="edge">
<title>commerce.transaction_price:transaction_id&#45;&gt;commerce.transaction_core:id</title>
<path fill="none" stroke="black" d="M398.96,-587.17C465.56,-558.83 459.98,-243.4 386.59,-243.4"/>
<polygon fill="black" stroke="black" points="399.21,-587.12 388.51,-584.72 393.98,-588.19 389.74,-589.07 389.74,-589.07 389.74,-589.07 393.98,-588.19 390.32,-593.54 399.21,-587.12"/>
<text text-anchor="start" x="396.09" y="-599.2" font-family="Arial" font-size="10.00">FOREIGN KEY (transaction_id) REFERENCES commerce.transaction_core(id) ON DELETE CASCADE</text>
</g>
</g>
</svg>
