<?xml version="1.0" encoding="UTF-8" standalone="no"?>
<!DOCTYPE svg PUBLIC "-//W3C//DTD SVG 1.1//EN"
 "http://www.w3.org/Graphics/SVG/1.1/DTD/svg11.dtd">
<!-- Generated by graphviz version 12.1.2 (20240928.0832)
 -->
<!-- Title: commerce.transaction_core Pages: 1 -->
<svg width="2117pt" height="1037pt"
 viewBox="0.00 0.00 2117.05 1037.20" xmlns="http://www.w3.org/2000/svg" xmlns:xlink="http://www.w3.org/1999/xlink">
<g id="graph0" class="graph" transform="scale(1 1) rotate(0) translate(4 1033.2)">
<title>commerce.transaction_core</title>
<polygon fill="white" stroke="none" points="-4,4 -4,-1033.2 2113.05,-1033.2 2113.05,4 -4,4"/>
<!-- commerce.transaction_core -->
<g id="node1" class="node">
<title>commerce.transaction_core</title>
<polygon fill="#efefef" stroke="none" points="829.97,-543 829.97,-578.6 1166.85,-578.6 1166.85,-543 829.97,-543"/>
<polygon fill="none" stroke="black" points="829.97,-543 829.97,-578.6 1166.85,-578.6 1166.85,-543 829.97,-543"/>
<text text-anchor="start" x="836.97" y="-556.4" font-family="Arial Bold" font-size="18.00">commerce.transaction_core</text>
<text text-anchor="start" x="1035.36" y="-556.4" font-family="Arial" font-size="14.00">    </text>
<text text-anchor="start" x="1066.48" y="-556.4" font-family="Arial" font-size="14.00" fill="#666666">[BASE TABLE]</text>
<polygon fill="none" stroke="black" points="829.97,-512.2 829.97,-543 1166.85,-543 1166.85,-512.2 829.97,-512.2"/>
<text text-anchor="start" x="836.97" y="-524.4" font-family="Arial" font-size="14.00">created_at </text>
<text text-anchor="start" x="907.02" y="-524.4" font-family="Arial" font-size="14.00" fill="#666666">[timestamp with time zone]</text>
<polygon fill="none" stroke="black" points="829.97,-481.4 829.97,-512.2 1166.85,-512.2 1166.85,-481.4 829.97,-481.4"/>
<text text-anchor="start" x="836.97" y="-493.6" font-family="Arial" font-size="14.00">modified_at </text>
<text text-anchor="start" x="913.24" y="-493.6" font-family="Arial" font-size="14.00" fill="#666666">[timestamp with time zone]</text>
<polygon fill="none" stroke="black" points="829.97,-450.6 829.97,-481.4 1166.85,-481.4 1166.85,-450.6 829.97,-450.6"/>
<text text-anchor="start" x="836.97" y="-462.8" font-family="Arial" font-size="14.00">id </text>
<text text-anchor="start" x="851.75" y="-462.8" font-family="Arial" font-size="14.00" fill="#666666">[integer]</text>
<polygon fill="none" stroke="black" points="829.97,-419.8 829.97,-450.6 1166.85,-450.6 1166.85,-419.8 829.97,-419.8"/>
<text text-anchor="start" x="836.97" y="-432" font-family="Arial" font-size="14.00">client_entity_id </text>
<text text-anchor="start" x="933.47" y="-432" font-family="Arial" font-size="14.00" fill="#666666">[integer]</text>
<polygon fill="none" stroke="black" points="829.97,-389 829.97,-419.8 1166.85,-419.8 1166.85,-389 829.97,-389"/>
<text text-anchor="start" x="836.97" y="-401.2" font-family="Arial" font-size="14.00">seller_entity_id </text>
<text text-anchor="start" x="934.24" y="-401.2" font-family="Arial" font-size="14.00" fill="#666666">[integer]</text>
<polygon fill="none" stroke="black" points="829.97,-358.2 829.97,-389 1166.85,-389 1166.85,-358.2 829.97,-358.2"/>
<text text-anchor="start" x="836.97" y="-370.4" font-family="Arial" font-size="14.00">status </text>
<text text-anchor="start" x="878.21" y="-370.4" font-family="Arial" font-size="14.00" fill="#666666">[smallint]</text>
<polygon fill="none" stroke="black" points="829.97,-327.4 829.97,-358.2 1166.85,-358.2 1166.85,-327.4 829.97,-327.4"/>
<text text-anchor="start" x="836.97" y="-339.6" font-family="Arial" font-size="14.00">is_gift </text>
<text text-anchor="start" x="877.43" y="-339.6" font-family="Arial" font-size="14.00" fill="#666666">[boolean]</text>
<polygon fill="none" stroke="black" points="829.97,-296.6 829.97,-327.4 1166.85,-327.4 1166.85,-296.6 829.97,-296.6"/>
<text text-anchor="start" x="836.97" y="-308.8" font-family="Arial" font-size="14.00">is_recurring </text>
<text text-anchor="start" x="914" y="-308.8" font-family="Arial" font-size="14.00" fill="#666666">[boolean]</text>
<polygon fill="none" stroke="black" points="829.97,-265.8 829.97,-296.6 1166.85,-296.6 1166.85,-265.8 829.97,-265.8"/>
<text text-anchor="start" x="836.97" y="-278" font-family="Arial" font-size="14.00">description </text>
<text text-anchor="start" x="908.56" y="-278" font-family="Arial" font-size="14.00" fill="#666666">[text]</text>
<polygon fill="none" stroke="black" stroke-width="3" points="828.47,-264.3 828.47,-580.1 1168.35,-580.1 1168.35,-264.3 828.47,-264.3"/>
</g>
<!-- identity.entity -->
<g id="node6" class="node">
<title>identity.entity</title>
<polygon fill="#efefef" stroke="none" points="685.13,-104.8 685.13,-140.4 963.69,-140.4 963.69,-104.8 685.13,-104.8"/>
<polygon fill="none" stroke="black" points="685.13,-104.8 685.13,-140.4 963.69,-140.4 963.69,-104.8 685.13,-104.8"/>
<text text-anchor="start" x="711.92" y="-118.2" font-family="Arial Bold" font-size="18.00">identity.entity</text>
<text text-anchor="start" x="812.41" y="-118.2" font-family="Arial" font-size="14.00">    </text>
<text text-anchor="start" x="843.53" y="-118.2" font-family="Arial" font-size="14.00" fill="#666666">[BASE TABLE]</text>
<polygon fill="none" stroke="black" points="685.13,-74 685.13,-104.8 963.69,-104.8 963.69,-74 685.13,-74"/>
<text text-anchor="start" x="692.13" y="-86.2" font-family="Arial" font-size="14.00">anonymized_at </text>
<text text-anchor="start" x="790.97" y="-86.2" font-family="Arial" font-size="14.00" fill="#666666">[timestamp with time zone]</text>
<polygon fill="none" stroke="black" points="685.13,-43.2 685.13,-74 963.69,-74 963.69,-43.2 685.13,-43.2"/>
<text text-anchor="start" x="692.13" y="-55.4" font-family="Arial" font-size="14.00">id </text>
<text text-anchor="start" x="706.91" y="-55.4" font-family="Arial" font-size="14.00" fill="#666666">[integer]</text>
</g>
<!-- commerce.transaction_core&#45;&gt;identity.entity -->
<g id="edge5" class="edge">
<title>commerce.transaction_core:client_entity_id&#45;&gt;identity.entity:id</title>
<path fill="none" stroke="black" d="M818.6,-434.6C736.1,-424.65 773.73,-292.63 829.97,-219.6 867.52,-170.83 926.06,-232.3 963.69,-183.6 997.66,-139.64 1020.25,-58.6 964.69,-58.6"/>
<polygon fill="black" stroke="black" points="818.65,-434.61 828.38,-439.67 823.98,-434.91 828.3,-435.16 828.3,-435.16 828.3,-435.16 823.98,-434.91 828.89,-430.69 818.65,-434.61"/>
<text text-anchor="start" x="531.32" y="-445.2" font-family="Arial" font-size="10.00">FOREIGN KEY (client_entity_id) REFERENCES identity.entity(id)</text>
</g>
<!-- org.entity -->
<g id="node7" class="node">
<title>org.entity</title>
<polygon fill="#efefef" stroke="none" points="1068.42,-89.4 1068.42,-125 1276.4,-125 1276.4,-89.4 1068.42,-89.4"/>
<polygon fill="none" stroke="black" points="1068.42,-89.4 1068.42,-125 1276.4,-125 1276.4,-89.4 1068.42,-89.4"/>
<text text-anchor="start" x="1075.42" y="-102.8" font-family="Arial Bold" font-size="18.00">org.entity</text>
<text text-anchor="start" x="1144.91" y="-102.8" font-family="Arial" font-size="14.00">    </text>
<text text-anchor="start" x="1176.03" y="-102.8" font-family="Arial" font-size="14.00" fill="#666666">[BASE TABLE]</text>
<polygon fill="none" stroke="black" points="1068.42,-58.6 1068.42,-89.4 1276.4,-89.4 1276.4,-58.6 1068.42,-58.6"/>
<text text-anchor="start" x="1075.42" y="-70.8" font-family="Arial" font-size="14.00">id </text>
<text text-anchor="start" x="1090.21" y="-70.8" font-family="Arial" font-size="14.00" fill="#666666">[integer]</text>
</g>
<!-- commerce.transaction_core&#45;&gt;org.entity -->
<g id="edge6" class="edge">
<title>commerce.transaction_core:seller_entity_id&#45;&gt;org.entity:id</title>
<path fill="none" stroke="black" d="M1178.19,-403.72C1246.35,-394.19 1207.69,-286.58 1166.85,-219.6 1141.16,-177.46 1094.22,-210.27 1068.42,-168.2 1046.54,-132.51 1025.55,-74 1067.42,-74"/>
<polygon fill="black" stroke="black" points="1178.17,-403.72 1167.89,-399.89 1172.84,-404.07 1168.52,-404.36 1168.52,-404.36 1168.52,-404.36 1172.84,-404.07 1168.48,-408.87 1178.17,-403.72"/>
<text text-anchor="start" x="1174.85" y="-414.4" font-family="Arial" font-size="10.00">FOREIGN KEY (seller_entity_id) REFERENCES org.entity(id)</text>
</g>
<!-- commerce.transaction_price -->
<g id="node2" class="node">
<title>commerce.transaction_price</title>
<polygon fill="#efefef" stroke="none" points="133.47,-935 133.47,-970.6 475.35,-970.6 475.35,-935 133.47,-935"/>
<polygon fill="none" stroke="black" points="133.47,-935 133.47,-970.6 475.35,-970.6 475.35,-935 133.47,-935"/>
<text text-anchor="start" x="140.47" y="-948.4" font-family="Arial Bold" font-size="18.00">commerce.transaction_price</text>
<text text-anchor="start" x="343.86" y="-948.4" font-family="Arial" font-size="14.00">    </text>
<text text-anchor="start" x="374.98" y="-948.4" font-family="Arial" font-size="14.00" fill="#666666">[BASE TABLE]</text>
<polygon fill="none" stroke="black" points="133.47,-904.2 133.47,-935 475.35,-935 475.35,-904.2 133.47,-904.2"/>
<text text-anchor="start" x="140.47" y="-916.4" font-family="Arial" font-size="14.00">shipping_cents </text>
<text text-anchor="start" x="237.76" y="-916.4" font-family="Arial" font-size="14.00" fill="#666666">[bigint]</text>
<polygon fill="none" stroke="black" points="133.47,-873.4 133.47,-904.2 475.35,-904.2 475.35,-873.4 133.47,-873.4"/>
<text text-anchor="start" x="140.47" y="-885.6" font-family="Arial" font-size="14.00">discount_cents </text>
<text text-anchor="start" x="237.75" y="-885.6" font-family="Arial" font-size="14.00" fill="#666666">[bigint]</text>
<polygon fill="none" stroke="black" points="133.47,-842.6 133.47,-873.4 475.35,-873.4 475.35,-842.6 133.47,-842.6"/>
<text text-anchor="start" x="140.47" y="-854.8" font-family="Arial" font-size="14.00">tax_cents </text>
<text text-anchor="start" x="204.28" y="-854.8" font-family="Arial" font-size="14.00" fill="#666666">[bigint]</text>
<polygon fill="none" stroke="black" points="133.47,-811.8 133.47,-842.6 475.35,-842.6 475.35,-811.8 133.47,-811.8"/>
<text text-anchor="start" x="140.47" y="-824" font-family="Arial" font-size="14.00">transaction_id </text>
<text text-anchor="start" x="231.52" y="-824" font-family="Arial" font-size="14.00" fill="#666666">[integer]</text>
<polygon fill="none" stroke="black" points="133.47,-781 133.47,-811.8 475.35,-811.8 475.35,-781 133.47,-781"/>
<text text-anchor="start" x="140.47" y="-793.2" font-family="Arial" font-size="14.00">tax_rate_bp </text>
<text text-anchor="start" x="218.3" y="-793.2" font-family="Arial" font-size="14.00" fill="#666666">[integer]</text>
<polygon fill="none" stroke="black" points="133.47,-750.2 133.47,-781 475.35,-781 475.35,-750.2 133.47,-750.2"/>
<text text-anchor="start" x="140.47" y="-762.4" font-family="Arial" font-size="14.00">currency_code </text>
<text text-anchor="start" x="236.18" y="-762.4" font-family="Arial" font-size="14.00" fill="#666666">[smallint]</text>
<polygon fill="none" stroke="black" points="133.47,-719.4 133.47,-750.2 475.35,-750.2 475.35,-719.4 133.47,-719.4"/>
<text text-anchor="start" x="140.47" y="-731.6" font-family="Arial" font-size="14.00">is_tax_included </text>
<text text-anchor="start" x="240.87" y="-731.6" font-family="Arial" font-size="14.00" fill="#666666">[boolean]</text>
</g>
<!-- commerce.transaction_price&#45;&gt;commerce.transaction_core -->
<g id="edge1" class="edge">
<title>commerce.transaction_price:transaction_id&#45;&gt;commerce.transaction_core:id</title>
<path fill="none" stroke="black" d="M486.64,-826.47C546.87,-817.08 483.03,-719.49 527.41,-660.8 623.65,-533.54 669.41,-466 828.97,-466"/>
<polygon fill="black" stroke="black" points="486.66,-826.47 476.37,-822.69 481.34,-826.85 477.02,-827.15 477.02,-827.15 477.02,-827.15 481.34,-826.85 477.01,-831.66 486.66,-826.47"/>
<text text-anchor="start" x="7" y="-837.2" font-family="Arial" font-size="10.00">FOREIGN KEY (transaction_id) REFERENCES commerce.transaction_core(id) ON DELETE CASCADE</text>
</g>
<!-- commerce.transaction_payment -->
<g id="node3" class="node">
<title>commerce.transaction_payment</title>
<polygon fill="#efefef" stroke="none" points="579.46,-935 579.46,-970.6 947.36,-970.6 947.36,-935 579.46,-935"/>
<polygon fill="none" stroke="black" points="579.46,-935 579.46,-970.6 947.36,-970.6 947.36,-935 579.46,-935"/>
<text text-anchor="start" x="586.46" y="-948.4" font-family="Arial Bold" font-size="18.00">commerce.transaction_payment</text>
<text text-anchor="start" x="815.87" y="-948.4" font-family="Arial" font-size="14.00">    </text>
<text text-anchor="start" x="846.98" y="-948.4" font-family="Arial" font-size="14.00" fill="#666666">[BASE TABLE]</text>
<polygon fill="none" stroke="black" points="579.46,-904.2 579.46,-935 947.36,-935 947.36,-904.2 579.46,-904.2"/>
<text text-anchor="start" x="586.46" y="-916.4" font-family="Arial" font-size="14.00">paid_at </text>
<text text-anchor="start" x="636.28" y="-916.4" font-family="Arial" font-size="14.00" fill="#666666">[timestamp with time zone]</text>
<polygon fill="none" stroke="black" points="579.46,-873.4 579.46,-904.2 947.36,-904.2 947.36,-873.4 579.46,-873.4"/>
<text text-anchor="start" x="586.46" y="-885.6" font-family="Arial" font-size="14.00">transaction_id </text>
<text text-anchor="start" x="677.52" y="-885.6" font-family="Arial" font-size="14.00" fill="#666666">[integer]</text>
<polygon fill="none" stroke="black" points="579.46,-842.6 579.46,-873.4 947.36,-873.4 947.36,-842.6 579.46,-842.6"/>
<text text-anchor="start" x="586.46" y="-854.8" font-family="Arial" font-size="14.00">billing_place_id </text>
<text text-anchor="start" x="686.09" y="-854.8" font-family="Arial" font-size="14.00" fill="#666666">[integer]</text>
<polygon fill="none" stroke="black" points="579.46,-811.8 579.46,-842.6 947.36,-842.6 947.36,-811.8 579.46,-811.8"/>
<text text-anchor="start" x="586.46" y="-824" font-family="Arial" font-size="14.00">payment_status </text>
<text text-anchor="start" x="689.19" y="-824" font-family="Arial" font-size="14.00" fill="#666666">[smallint]</text>
<polygon fill="none" stroke="black" points="579.46,-781 579.46,-811.8 947.36,-811.8 947.36,-781 579.46,-781"/>
<text text-anchor="start" x="586.46" y="-793.2" font-family="Arial" font-size="14.00">invoice_number </text>
<text text-anchor="start" x="689.19" y="-793.2" font-family="Arial" font-size="14.00" fill="#666666">[varchar(64)]</text>
<polygon fill="none" stroke="black" points="579.46,-750.2 579.46,-781 947.36,-781 947.36,-750.2 579.46,-750.2"/>
<text text-anchor="start" x="586.46" y="-762.4" font-family="Arial" font-size="14.00">payment_method </text>
<text text-anchor="start" x="698.53" y="-762.4" font-family="Arial" font-size="14.00" fill="#666666">[varchar(32)]</text>
<polygon fill="none" stroke="black" points="579.46,-719.4 579.46,-750.2 947.36,-750.2 947.36,-719.4 579.46,-719.4"/>
<text text-anchor="start" x="586.46" y="-731.6" font-family="Arial" font-size="14.00">provider_reference </text>
<text text-anchor="start" x="707.86" y="-731.6" font-family="Arial" font-size="14.00" fill="#666666">[varchar(255)]</text>
</g>
<!-- commerce.transaction_payment&#45;&gt;commerce.transaction_core -->
<g id="edge2" class="edge">
<title>commerce.transaction_payment:transaction_id&#45;&gt;commerce.transaction_core:id</title>
<path fill="none" stroke="black" d="M958.19,-885.78C992.1,-862.57 971.28,-712.6 947.36,-676.2 916.08,-628.6 861.29,-672.37 829.97,-624.8 791.16,-565.85 758.39,-466 828.97,-466"/>
<polygon fill="black" stroke="black" points="958.23,-885.76 947.35,-884.4 953.14,-887.33 949,-888.6 949,-888.6 949,-888.6 953.14,-887.33 950,-893 958.23,-885.76"/>
<text text-anchor="start" x="479" y="-898.8" font-family="Arial" font-size="10.00">FOREIGN KEY (transaction_id) REFERENCES commerce.transaction_core(id) ON DELETE CASCADE</text>
</g>
<!-- commerce.transaction_delivery -->
<g id="node4" class="node">
<title>commerce.transaction_delivery</title>
<polygon fill="#efefef" stroke="none" points="1051.97,-950.4 1051.97,-986 1416.85,-986 1416.85,-950.4 1051.97,-950.4"/>
<polygon fill="none" stroke="black" points="1051.97,-950.4 1051.97,-986 1416.85,-986 1416.85,-950.4 1051.97,-950.4"/>
<text text-anchor="start" x="1058.97" y="-963.8" font-family="Arial Bold" font-size="18.00">commerce.transaction_delivery</text>
<text text-anchor="start" x="1285.36" y="-963.8" font-family="Arial" font-size="14.00">    </text>
<text text-anchor="start" x="1316.48" y="-963.8" font-family="Arial" font-size="14.00" fill="#666666">[BASE TABLE]</text>
<polygon fill="none" stroke="black" points="1051.97,-919.6 1051.97,-950.4 1416.85,-950.4 1416.85,-919.6 1051.97,-919.6"/>
<text text-anchor="start" x="1058.97" y="-931.8" font-family="Arial" font-size="14.00">shipped_at </text>
<text text-anchor="start" x="1131.36" y="-931.8" font-family="Arial" font-size="14.00" fill="#666666">[timestamp with time zone]</text>
<polygon fill="none" stroke="black" points="1051.97,-888.8 1051.97,-919.6 1416.85,-919.6 1416.85,-888.8 1051.97,-888.8"/>
<text text-anchor="start" x="1058.97" y="-901" font-family="Arial" font-size="14.00">estimated_at </text>
<text text-anchor="start" x="1143.02" y="-901" font-family="Arial" font-size="14.00" fill="#666666">[timestamp with time zone]</text>
<polygon fill="none" stroke="black" points="1051.97,-858 1051.97,-888.8 1416.85,-888.8 1416.85,-858 1051.97,-858"/>
<text text-anchor="start" x="1058.97" y="-870.2" font-family="Arial" font-size="14.00">delivered_at </text>
<text text-anchor="start" x="1139.13" y="-870.2" font-family="Arial" font-size="14.00" fill="#666666">[timestamp with time zone]</text>
<polygon fill="none" stroke="black" points="1051.97,-827.2 1051.97,-858 1416.85,-858 1416.85,-827.2 1051.97,-827.2"/>
<text text-anchor="start" x="1058.97" y="-839.4" font-family="Arial" font-size="14.00">transaction_id </text>
<text text-anchor="start" x="1150.02" y="-839.4" font-family="Arial" font-size="14.00" fill="#666666">[integer]</text>
<polygon fill="none" stroke="black" points="1051.97,-796.4 1051.97,-827.2 1416.85,-827.2 1416.85,-796.4 1051.97,-796.4"/>
<text text-anchor="start" x="1058.97" y="-808.6" font-family="Arial" font-size="14.00">shipping_place_id </text>
<text text-anchor="start" x="1174.95" y="-808.6" font-family="Arial" font-size="14.00" fill="#666666">[integer]</text>
<polygon fill="none" stroke="black" points="1051.97,-765.6 1051.97,-796.4 1416.85,-796.4 1416.85,-765.6 1051.97,-765.6"/>
<text text-anchor="start" x="1058.97" y="-777.8" font-family="Arial" font-size="14.00">delivery_status </text>
<text text-anchor="start" x="1156.24" y="-777.8" font-family="Arial" font-size="14.00" fill="#666666">[smallint]</text>
<polygon fill="none" stroke="black" points="1051.97,-734.8 1051.97,-765.6 1416.85,-765.6 1416.85,-734.8 1051.97,-734.8"/>
<text text-anchor="start" x="1058.97" y="-747" font-family="Arial" font-size="14.00">carrier </text>
<text text-anchor="start" x="1102.53" y="-747" font-family="Arial" font-size="14.00" fill="#666666">[varchar(64)]</text>
<polygon fill="none" stroke="black" points="1051.97,-704 1051.97,-734.8 1416.85,-734.8 1416.85,-704 1051.97,-704"/>
<text text-anchor="start" x="1058.97" y="-716.2" font-family="Arial" font-size="14.00">tracking_number </text>
<text text-anchor="start" x="1167.13" y="-716.2" font-family="Arial" font-size="14.00" fill="#666666">[varchar(255)]</text>
</g>
<!-- commerce.transaction_delivery&#45;&gt;commerce.transaction_core -->
<g id="edge3" class="edge">
<title>commerce.transaction_delivery:transaction_id&#45;&gt;commerce.transaction_core:id</title>
<path fill="none" stroke="black" d="M1040.76,-841.91C973.23,-832.21 1006.11,-722.87 1051.97,-660.8 1083.76,-617.76 1135.04,-667.82 1166.85,-624.8 1208.82,-568.05 1238.43,-466 1167.85,-466"/>
<polygon fill="black" stroke="black" points="1040.66,-841.9 1050.33,-847.07 1045.98,-842.26 1050.3,-842.55 1050.3,-842.55 1050.3,-842.55 1045.98,-842.26 1050.94,-838.09 1040.66,-841.9"/>
<text text-anchor="start" x="819.79" y="-826.6" font-family="Arial" font-size="10.00">FOREIGN KEY (transaction_id) REFERENCES commerce.transaction_core(id) ON DELETE CASCADE</text>
</g>
<!-- commerce.transaction_item -->
<g id="node5" class="node">
<title>commerce.transaction_item</title>
<polygon fill="#efefef" stroke="none" points="1521.46,-888.8 1521.46,-924.4 1859.36,-924.4 1859.36,-888.8 1521.46,-888.8"/>
<polygon fill="none" stroke="black" points="1521.46,-888.8 1521.46,-924.4 1859.36,-924.4 1859.36,-888.8 1521.46,-888.8"/>
<text text-anchor="start" x="1528.46" y="-902.2" font-family="Arial Bold" font-size="18.00">commerce.transaction_item</text>
<text text-anchor="start" x="1727.87" y="-902.2" font-family="Arial" font-size="14.00">    </text>
<text text-anchor="start" x="1758.99" y="-902.2" font-family="Arial" font-size="14.00" fill="#666666">[BASE TABLE]</text>
<polygon fill="none" stroke="black" points="1521.46,-858 1521.46,-888.8 1859.36,-888.8 1859.36,-858 1521.46,-858"/>
<text text-anchor="start" x="1528.46" y="-870.2" font-family="Arial" font-size="14.00">unit_price_snapshot_cents </text>
<text text-anchor="start" x="1698.91" y="-870.2" font-family="Arial" font-size="14.00" fill="#666666">[bigint]</text>
<polygon fill="none" stroke="black" points="1521.46,-827.2 1521.46,-858 1859.36,-858 1859.36,-827.2 1521.46,-827.2"/>
<text text-anchor="start" x="1528.46" y="-839.4" font-family="Arial" font-size="14.00">transaction_id </text>
<text text-anchor="start" x="1619.51" y="-839.4" font-family="Arial" font-size="14.00" fill="#666666">[integer]</text>
<polygon fill="none" stroke="black" points="1521.46,-796.4 1521.46,-827.2 1859.36,-827.2 1859.36,-796.4 1521.46,-796.4"/>
<text text-anchor="start" x="1528.46" y="-808.6" font-family="Arial" font-size="14.00">product_id </text>
<text text-anchor="start" x="1597.73" y="-808.6" font-family="Arial" font-size="14.00" fill="#666666">[integer]</text>
<polygon fill="none" stroke="black" points="1521.46,-765.6 1521.46,-796.4 1859.36,-796.4 1859.36,-765.6 1521.46,-765.6"/>
<text text-anchor="start" x="1528.46" y="-777.8" font-family="Arial" font-size="14.00">quantity </text>
<text text-anchor="start" x="1581.38" y="-777.8" font-family="Arial" font-size="14.00" fill="#666666">[integer]</text>
</g>
<!-- commerce.transaction_item&#45;&gt;commerce.transaction_core -->
<g id="edge4" class="edge">
<title>commerce.transaction_item:transaction_id&#45;&gt;commerce.transaction_core:id</title>
<path fill="none" stroke="black" d="M1510.13,-841.92C1443.7,-832.43 1516.99,-725.31 1469.41,-660.8 1374.7,-532.39 1327.41,-466 1167.85,-466"/>
<polygon fill="black" stroke="black" points="1510.15,-841.92 1519.83,-847.07 1515.47,-842.27 1519.79,-842.56 1519.79,-842.56 1519.79,-842.56 1515.47,-842.27 1520.42,-838.09 1510.15,-841.92"/>
<text text-anchor="start" x="1527.46" y="-852.6" font-family="Arial" font-size="10.00">FOREIGN KEY (transaction_id) REFERENCES commerce.transaction_core(id) ON UPDATE CASCADE ON DELETE CASCADE</text>
</g>
</g>
</svg>
