<?xml version="1.0" encoding="UTF-8" standalone="no"?>
<!DOCTYPE svg PUBLIC "-//W3C//DTD SVG 1.1//EN"
 "http://www.w3.org/Graphics/SVG/1.1/DTD/svg11.dtd">
<!-- Generated by graphviz version 12.1.2 (20240928.0832)
 -->
<!-- Title: commerce.transaction_item Pages: 1 -->
<svg width="1271pt" height="694pt"
 viewBox="0.00 0.00 1271.15 694.40" xmlns="http://www.w3.org/2000/svg" xmlns:xlink="http://www.w3.org/1999/xlink">
<g id="graph0" class="graph" transform="scale(1 1) rotate(0) translate(4 690.4)">
<title>commerce.transaction_item</title>
<polygon fill="white" stroke="none" points="-4,4 -4,-690.4 1267.15,-690.4 1267.15,4 -4,4"/>
<!-- commerce.transaction_item -->
<g id="node1" class="node">
<title>commerce.transaction_item</title>
<polygon fill="#efefef" stroke="none" points="589.59,-604.6 589.59,-640.2 927.5,-640.2 927.5,-604.6 589.59,-604.6"/>
<polygon fill="none" stroke="black" points="589.59,-604.6 589.59,-640.2 927.5,-640.2 927.5,-604.6 589.59,-604.6"/>
<text text-anchor="start" x="596.59" y="-618" font-family="Arial Bold" font-size="18.00">commerce.transaction_item</text>
<text text-anchor="start" x="796.01" y="-618" font-family="Arial" font-size="14.00">    </text>
<text text-anchor="start" x="827.13" y="-618" font-family="Arial" font-size="14.00" fill="#666666">[BASE TABLE]</text>
<polygon fill="none" stroke="black" points="589.59,-573.8 589.59,-604.6 927.5,-604.6 927.5,-573.8 589.59,-573.8"/>
<text text-anchor="start" x="596.59" y="-586" font-family="Arial" font-size="14.00">unit_price_snapshot_cents </text>
<text text-anchor="start" x="767.04" y="-586" font-family="Arial" font-size="14.00" fill="#666666">[bigint]</text>
<polygon fill="none" stroke="black" points="589.59,-543 589.59,-573.8 927.5,-573.8 927.5,-543 589.59,-543"/>
<text text-anchor="start" x="596.59" y="-555.2" font-family="Arial" font-size="14.00">transaction_id </text>
<text text-anchor="start" x="687.65" y="-555.2" font-family="Arial" font-size="14.00" fill="#666666">[integer]</text>
<polygon fill="none" stroke="black" points="589.59,-512.2 589.59,-543 927.5,-543 927.5,-512.2 589.59,-512.2"/>
<text text-anchor="start" x="596.59" y="-524.4" font-family="Arial" font-size="14.00">product_id </text>
<text text-anchor="start" x="665.86" y="-524.4" font-family="Arial" font-size="14.00" fill="#666666">[integer]</text>
<polygon fill="none" stroke="black" points="589.59,-481.4 589.59,-512.2 927.5,-512.2 927.5,-481.4 589.59,-481.4"/>
<text text-anchor="start" x="596.59" y="-493.6" font-family="Arial" font-size="14.00">quantity </text>
<text text-anchor="start" x="649.52" y="-493.6" font-family="Arial" font-size="14.00" fill="#666666">[integer]</text>
<polygon fill="none" stroke="black" stroke-width="3" points="588.09,-479.9 588.09,-641.7 929,-641.7 929,-479.9 588.09,-479.9"/>
</g>
<!-- commerce.transaction_core -->
<g id="node2" class="node">
<title>commerce.transaction_core</title>
<polygon fill="#efefef" stroke="none" points="376.1,-320.4 376.1,-356 712.99,-356 712.99,-320.4 376.1,-320.4"/>
<polygon fill="none" stroke="black" points="376.1,-320.4 376.1,-356 712.99,-356 712.99,-320.4 376.1,-320.4"/>
<text text-anchor="start" x="383.1" y="-333.8" font-family="Arial Bold" font-size="18.00">commerce.transaction_core</text>
<text text-anchor="start" x="581.5" y="-333.8" font-family="Arial" font-size="14.00">    </text>
<text text-anchor="start" x="612.62" y="-333.8" font-family="Arial" font-size="14.00" fill="#666666">[BASE TABLE]</text>
<polygon fill="none" stroke="black" points="376.1,-289.6 376.1,-320.4 712.99,-320.4 712.99,-289.6 376.1,-289.6"/>
<text text-anchor="start" x="383.1" y="-301.8" font-family="Arial" font-size="14.00">created_at </text>
<text text-anchor="start" x="453.15" y="-301.8" font-family="Arial" font-size="14.00" fill="#666666">[timestamp with time zone]</text>
<polygon fill="none" stroke="black" points="376.1,-258.8 376.1,-289.6 712.99,-289.6 712.99,-258.8 376.1,-258.8"/>
<text text-anchor="start" x="383.1" y="-271" font-family="Arial" font-size="14.00">modified_at </text>
<text text-anchor="start" x="459.37" y="-271" font-family="Arial" font-size="14.00" fill="#666666">[timestamp with time zone]</text>
<polygon fill="none" stroke="black" points="376.1,-228 376.1,-258.8 712.99,-258.8 712.99,-228 376.1,-228"/>
<text text-anchor="start" x="383.1" y="-240.2" font-family="Arial" font-size="14.00">id </text>
<text text-anchor="start" x="397.89" y="-240.2" font-family="Arial" font-size="14.00" fill="#666666">[integer]</text>
<polygon fill="none" stroke="black" points="376.1,-197.2 376.1,-228 712.99,-228 712.99,-197.2 376.1,-197.2"/>
<text text-anchor="start" x="383.1" y="-209.4" font-family="Arial" font-size="14.00">client_entity_id </text>
<text text-anchor="start" x="479.61" y="-209.4" font-family="Arial" font-size="14.00" fill="#666666">[integer]</text>
<polygon fill="none" stroke="black" points="376.1,-166.4 376.1,-197.2 712.99,-197.2 712.99,-166.4 376.1,-166.4"/>
<text text-anchor="start" x="383.1" y="-178.6" font-family="Arial" font-size="14.00">seller_entity_id </text>
<text text-anchor="start" x="480.38" y="-178.6" font-family="Arial" font-size="14.00" fill="#666666">[integer]</text>
<polygon fill="none" stroke="black" points="376.1,-135.6 376.1,-166.4 712.99,-166.4 712.99,-135.6 376.1,-135.6"/>
<text text-anchor="start" x="383.1" y="-147.8" font-family="Arial" font-size="14.00">status </text>
<text text-anchor="start" x="424.35" y="-147.8" font-family="Arial" font-size="14.00" fill="#666666">[smallint]</text>
<polygon fill="none" stroke="black" points="376.1,-104.8 376.1,-135.6 712.99,-135.6 712.99,-104.8 376.1,-104.8"/>
<text text-anchor="start" x="383.1" y="-117" font-family="Arial" font-size="14.00">is_gift </text>
<text text-anchor="start" x="423.57" y="-117" font-family="Arial" font-size="14.00" fill="#666666">[boolean]</text>
<polygon fill="none" stroke="black" points="376.1,-74 376.1,-104.8 712.99,-104.8 712.99,-74 376.1,-74"/>
<text text-anchor="start" x="383.1" y="-86.2" font-family="Arial" font-size="14.00">is_recurring </text>
<text text-anchor="start" x="460.13" y="-86.2" font-family="Arial" font-size="14.00" fill="#666666">[boolean]</text>
<polygon fill="none" stroke="black" points="376.1,-43.2 376.1,-74 712.99,-74 712.99,-43.2 376.1,-43.2"/>
<text text-anchor="start" x="383.1" y="-55.4" font-family="Arial" font-size="14.00">description </text>
<text text-anchor="start" x="454.7" y="-55.4" font-family="Arial" font-size="14.00" fill="#666666">[text]</text>
</g>
<!-- commerce.transaction_item&#45;&gt;commerce.transaction_core -->
<g id="edge1" class="edge">
<title>commerce.transaction_item:transaction_id&#45;&gt;commerce.transaction_core:id</title>
<path fill="none" stroke="black" d="M578.43,-557.32C536.99,-547.69 558.82,-475.89 589.59,-435.2 624.06,-389.64 678.57,-444.79 712.99,-399.2 754.71,-343.94 783.24,-243.4 713.99,-243.4"/>
<polygon fill="black" stroke="black" points="578.32,-557.31 587.79,-562.84 583.62,-557.87 587.93,-558.33 587.93,-558.33 587.93,-558.33 583.62,-557.87 588.74,-553.89 578.32,-557.31"/>
<text text-anchor="start" x="7" y="-568.4" font-family="Arial" font-size="10.00">FOREIGN KEY (transaction_id) REFERENCES commerce.transaction_core(id) ON UPDATE CASCADE ON DELETE CASCADE</text>
</g>
<!-- commerce.product_core -->
<g id="node3" class="node">
<title>commerce.product_core</title>
<polygon fill="#efefef" stroke="none" points="817.1,-258.8 817.1,-294.4 1130,-294.4 1130,-258.8 817.1,-258.8"/>
<polygon fill="none" stroke="black" points="817.1,-258.8 817.1,-294.4 1130,-294.4 1130,-258.8 817.1,-258.8"/>
<text text-anchor="start" x="824.1" y="-272.2" font-family="Arial Bold" font-size="18.00">commerce.product_core</text>
<text text-anchor="start" x="998.51" y="-272.2" font-family="Arial" font-size="14.00">    </text>
<text text-anchor="start" x="1029.62" y="-272.2" font-family="Arial" font-size="14.00" fill="#666666">[BASE TABLE]</text>
<polygon fill="none" stroke="black" points="817.1,-228 817.1,-258.8 1130,-258.8 1130,-228 817.1,-228"/>
<text text-anchor="start" x="824.1" y="-240.2" font-family="Arial" font-size="14.00">price_cents </text>
<text text-anchor="start" x="899.58" y="-240.2" font-family="Arial" font-size="14.00" fill="#666666">[bigint]</text>
<polygon fill="none" stroke="black" points="817.1,-197.2 817.1,-228 1130,-228 1130,-197.2 817.1,-197.2"/>
<text text-anchor="start" x="824.1" y="-209.4" font-family="Arial" font-size="14.00">id </text>
<text text-anchor="start" x="838.88" y="-209.4" font-family="Arial" font-size="14.00" fill="#666666">[integer]</text>
<polygon fill="none" stroke="black" points="817.1,-166.4 817.1,-197.2 1130,-197.2 1130,-166.4 817.1,-166.4"/>
<text text-anchor="start" x="824.1" y="-178.6" font-family="Arial" font-size="14.00">stock </text>
<text text-anchor="start" x="860.66" y="-178.6" font-family="Arial" font-size="14.00" fill="#666666">[integer]</text>
<polygon fill="none" stroke="black" points="817.1,-135.6 817.1,-166.4 1130,-166.4 1130,-135.6 817.1,-135.6"/>
<text text-anchor="start" x="824.1" y="-147.8" font-family="Arial" font-size="14.00">media_id </text>
<text text-anchor="start" x="884.8" y="-147.8" font-family="Arial" font-size="14.00" fill="#666666">[integer]</text>
<polygon fill="none" stroke="black" points="817.1,-104.8 817.1,-135.6 1130,-135.6 1130,-104.8 817.1,-104.8"/>
<text text-anchor="start" x="824.1" y="-117" font-family="Arial" font-size="14.00">is_available </text>
<text text-anchor="start" x="901.15" y="-117" font-family="Arial" font-size="14.00" fill="#666666">[boolean]</text>
</g>
<!-- commerce.transaction_item&#45;&gt;commerce.product_core -->
<g id="edge2" class="edge">
<title>commerce.transaction_item:product_id&#45;&gt;commerce.product_core:id</title>
<path fill="none" stroke="black" d="M938.71,-526.09C964.76,-517.02 942.91,-468.9 927.5,-435.2 900.27,-375.64 844.25,-397.2 817.1,-337.6 794.07,-287.04 760.54,-212.6 816.1,-212.6"/>
<polygon fill="black" stroke="black" points="938.72,-526.09 928.17,-523.1 933.45,-526.87 929.16,-527.5 929.16,-527.5 929.16,-527.5 933.45,-526.87 929.49,-532 938.72,-526.09"/>
<text text-anchor="start" x="935.5" y="-537.6" font-family="Arial" font-size="10.00">FOREIGN KEY (product_id) REFERENCES commerce.product_core(id)</text>
</g>
</g>
</svg>
