<?xml version="1.0" encoding="UTF-8" standalone="no"?>
<!DOCTYPE svg PUBLIC "-//W3C//DTD SVG 1.1//EN"
 "http://www.w3.org/Graphics/SVG/1.1/DTD/svg11.dtd">
<!-- Generated by graphviz version 12.1.2 (20240928.0832)
 -->
<!-- Title: content.v_article Pages: 1 -->
<svg width="363pt" height="629pt"
 viewBox="0.00 0.00 363.41 628.80" xmlns="http://www.w3.org/2000/svg" xmlns:xlink="http://www.w3.org/1999/xlink">
<g id="graph0" class="graph" transform="scale(1 1) rotate(0) translate(4 624.8)">
<title>content.v_article</title>
<polygon fill="white" stroke="none" points="-4,4 -4,-624.8 359.41,-624.8 359.41,4 -4,4"/>
<!-- content.v_article -->
<g id="node1" class="node">
<title>content.v_article</title>
<polygon fill="#efefef" stroke="none" points="46.2,-539 46.2,-574.6 309.21,-574.6 309.21,-539 46.2,-539"/>
<polygon fill="none" stroke="black" points="46.2,-539 46.2,-574.6 309.21,-574.6 309.21,-539 46.2,-539"/>
<text text-anchor="start" x="80.15" y="-552.4" font-family="Arial Bold" font-size="18.00">content.v_article</text>
<text text-anchor="start" x="200.59" y="-552.4" font-family="Arial" font-size="14.00">    </text>
<text text-anchor="start" x="231.71" y="-552.4" font-family="Arial" font-size="14.00" fill="#666666">[VIEW]</text>
<polygon fill="none" stroke="black" points="46.2,-508.2 46.2,-539 309.21,-539 309.21,-508.2 46.2,-508.2"/>
<text text-anchor="start" x="53.2" y="-520.4" font-family="Arial" font-size="14.00">identifier </text>
<text text-anchor="start" x="110.01" y="-520.4" font-family="Arial" font-size="14.00" fill="#666666">[integer]</text>
<polygon fill="none" stroke="black" points="46.2,-477.4 46.2,-508.2 309.21,-508.2 309.21,-477.4 46.2,-477.4"/>
<text text-anchor="start" x="53.2" y="-489.6" font-family="Arial" font-size="14.00">doc_type </text>
<text text-anchor="start" x="113.91" y="-489.6" font-family="Arial" font-size="14.00" fill="#666666">[smallint]</text>
<polygon fill="none" stroke="black" points="46.2,-446.6 46.2,-477.4 309.21,-477.4 309.21,-446.6 46.2,-446.6"/>
<text text-anchor="start" x="53.2" y="-458.8" font-family="Arial" font-size="14.00">headline </text>
<text text-anchor="start" x="110.03" y="-458.8" font-family="Arial" font-size="14.00" fill="#666666">[varchar(255)]</text>
<polygon fill="none" stroke="black" points="46.2,-415.8 46.2,-446.6 309.21,-446.6 309.21,-415.8 46.2,-415.8"/>
<text text-anchor="start" x="53.2" y="-428" font-family="Arial" font-size="14.00">slug </text>
<text text-anchor="start" x="82.77" y="-428" font-family="Arial" font-size="14.00" fill="#666666">[varchar(255)]</text>
<polygon fill="none" stroke="black" points="46.2,-385 46.2,-415.8 309.21,-415.8 309.21,-385 46.2,-385"/>
<text text-anchor="start" x="53.2" y="-397.2" font-family="Arial" font-size="14.00">alternative_headline </text>
<text text-anchor="start" x="182.41" y="-397.2" font-family="Arial" font-size="14.00" fill="#666666">[varchar(255)]</text>
<polygon fill="none" stroke="black" points="46.2,-354.2 46.2,-385 309.21,-385 309.21,-354.2 46.2,-354.2"/>
<text text-anchor="start" x="53.2" y="-366.4" font-family="Arial" font-size="14.00">description </text>
<text text-anchor="start" x="124.79" y="-366.4" font-family="Arial" font-size="14.00" fill="#666666">[varchar(1000)]</text>
<polygon fill="none" stroke="black" points="46.2,-323.4 46.2,-354.2 309.21,-354.2 309.21,-323.4 46.2,-323.4"/>
<text text-anchor="start" x="53.2" y="-335.6" font-family="Arial" font-size="14.00">status </text>
<text text-anchor="start" x="94.44" y="-335.6" font-family="Arial" font-size="14.00" fill="#666666">[smallint]</text>
<polygon fill="none" stroke="black" points="46.2,-292.6 46.2,-323.4 309.21,-323.4 309.21,-292.6 46.2,-292.6"/>
<text text-anchor="start" x="53.2" y="-304.8" font-family="Arial" font-size="14.00">is_readable </text>
<text text-anchor="start" x="129.48" y="-304.8" font-family="Arial" font-size="14.00" fill="#666666">[boolean]</text>
<polygon fill="none" stroke="black" points="46.2,-261.8 46.2,-292.6 309.21,-292.6 309.21,-261.8 46.2,-261.8"/>
<text text-anchor="start" x="53.2" y="-274" font-family="Arial" font-size="14.00">is_commentable </text>
<text text-anchor="start" x="159.03" y="-274" font-family="Arial" font-size="14.00" fill="#666666">[boolean]</text>
<polygon fill="none" stroke="black" points="46.2,-231 46.2,-261.8 309.21,-261.8 309.21,-231 46.2,-231"/>
<text text-anchor="start" x="53.2" y="-243.2" font-family="Arial" font-size="14.00">published_at </text>
<text text-anchor="start" x="136.49" y="-243.2" font-family="Arial" font-size="14.00" fill="#666666">[timestamp with time zone]</text>
<polygon fill="none" stroke="black" points="46.2,-200.2 46.2,-231 309.21,-231 309.21,-200.2 46.2,-200.2"/>
<text text-anchor="start" x="53.2" y="-212.4" font-family="Arial" font-size="14.00">created_at </text>
<text text-anchor="start" x="123.25" y="-212.4" font-family="Arial" font-size="14.00" fill="#666666">[timestamp with time zone]</text>
<polygon fill="none" stroke="black" points="46.2,-169.4 46.2,-200.2 309.21,-200.2 309.21,-169.4 46.2,-169.4"/>
<text text-anchor="start" x="53.2" y="-181.6" font-family="Arial" font-size="14.00">modified_at </text>
<text text-anchor="start" x="129.47" y="-181.6" font-family="Arial" font-size="14.00" fill="#666666">[timestamp with time zone]</text>
<polygon fill="none" stroke="black" points="46.2,-138.6 46.2,-169.4 309.21,-169.4 309.21,-138.6 46.2,-138.6"/>
<text text-anchor="start" x="53.2" y="-150.8" font-family="Arial" font-size="14.00">author_id </text>
<text text-anchor="start" x="115.47" y="-150.8" font-family="Arial" font-size="14.00" fill="#666666">[integer]</text>
<polygon fill="none" stroke="black" points="46.2,-107.8 46.2,-138.6 309.21,-138.6 309.21,-107.8 46.2,-107.8"/>
<text text-anchor="start" x="53.2" y="-120" font-family="Arial" font-size="14.00">article_body </text>
<text text-anchor="start" x="132.58" y="-120" font-family="Arial" font-size="14.00" fill="#666666">[text]</text>
<polygon fill="none" stroke="black" points="46.2,-77 46.2,-107.8 309.21,-107.8 309.21,-77 46.2,-77"/>
<text text-anchor="start" x="53.2" y="-89.2" font-family="Arial" font-size="14.00">keywords </text>
<text text-anchor="start" x="116.22" y="-89.2" font-family="Arial" font-size="14.00" fill="#666666">[json]</text>
<polygon fill="none" stroke="black" points="46.2,-46.2 46.2,-77 309.21,-77 309.21,-46.2 46.2,-46.2"/>
<text text-anchor="start" x="53.2" y="-58.4" font-family="Arial" font-size="14.00">images </text>
<text text-anchor="start" x="102.22" y="-58.4" font-family="Arial" font-size="14.00" fill="#666666">[json]</text>
<polygon fill="none" stroke="black" stroke-width="3" points="44.7,-44.7 44.7,-576.1 310.71,-576.1 310.71,-44.7 44.7,-44.7"/>
</g>
</g>
</svg>
