<?xml version="1.0" encoding="UTF-8" standalone="no"?>
<!DOCTYPE svg PUBLIC "-//W3C//DTD SVG 1.1//EN"
 "http://www.w3.org/Graphics/SVG/1.1/DTD/svg11.dtd">
<!-- Generated by graphviz version 12.1.2 (20240928.0832)
 -->
<!-- Title: content.core Pages: 1 -->
<svg width="1120pt" height="633pt"
 viewBox="0.00 0.00 1120.16 632.80" xmlns="http://www.w3.org/2000/svg" xmlns:xlink="http://www.w3.org/1999/xlink">
<g id="graph0" class="graph" transform="scale(1 1) rotate(0) translate(4 628.8)">
<title>content.core</title>
<polygon fill="white" stroke="none" points="-4,4 -4,-628.8 1116.16,-628.8 1116.16,4 -4,4"/>
<!-- content.core -->
<g id="node1" class="node">
<title>content.core</title>
<polygon fill="#efefef" stroke="none" points="428.47,-543 428.47,-578.6 691.48,-578.6 691.48,-543 428.47,-543"/>
<polygon fill="none" stroke="black" points="428.47,-543 428.47,-578.6 691.48,-578.6 691.48,-543 428.47,-543"/>
<text text-anchor="start" x="453.5" y="-556.4" font-family="Arial Bold" font-size="18.00">content.core</text>
<text text-anchor="start" x="541.96" y="-556.4" font-family="Arial" font-size="14.00">    </text>
<text text-anchor="start" x="573.07" y="-556.4" font-family="Arial" font-size="14.00" fill="#666666">[BASE TABLE]</text>
<polygon fill="none" stroke="black" points="428.47,-512.2 428.47,-543 691.48,-543 691.48,-512.2 428.47,-512.2"/>
<text text-anchor="start" x="435.47" y="-524.4" font-family="Arial" font-size="14.00">published_at </text>
<text text-anchor="start" x="518.76" y="-524.4" font-family="Arial" font-size="14.00" fill="#666666">[timestamp with time zone]</text>
<polygon fill="none" stroke="black" points="428.47,-481.4 428.47,-512.2 691.48,-512.2 691.48,-481.4 428.47,-481.4"/>
<text text-anchor="start" x="435.47" y="-493.6" font-family="Arial" font-size="14.00">created_at </text>
<text text-anchor="start" x="505.51" y="-493.6" font-family="Arial" font-size="14.00" fill="#666666">[timestamp with time zone]</text>
<polygon fill="none" stroke="black" points="428.47,-450.6 428.47,-481.4 691.48,-481.4 691.48,-450.6 428.47,-450.6"/>
<text text-anchor="start" x="435.47" y="-462.8" font-family="Arial" font-size="14.00">modified_at </text>
<text text-anchor="start" x="511.74" y="-462.8" font-family="Arial" font-size="14.00" fill="#666666">[timestamp with time zone]</text>
<polygon fill="none" stroke="black" points="428.47,-419.8 428.47,-450.6 691.48,-450.6 691.48,-419.8 428.47,-419.8"/>
<text text-anchor="start" x="435.47" y="-432" font-family="Arial" font-size="14.00">document_id </text>
<text text-anchor="start" x="519.52" y="-432" font-family="Arial" font-size="14.00" fill="#666666">[integer]</text>
<polygon fill="none" stroke="black" points="428.47,-389 428.47,-419.8 691.48,-419.8 691.48,-389 428.47,-389"/>
<text text-anchor="start" x="435.47" y="-401.2" font-family="Arial" font-size="14.00">author_entity_id </text>
<text text-anchor="start" x="538.98" y="-401.2" font-family="Arial" font-size="14.00" fill="#666666">[integer]</text>
<polygon fill="none" stroke="black" points="428.47,-358.2 428.47,-389 691.48,-389 691.48,-358.2 428.47,-358.2"/>
<text text-anchor="start" x="435.47" y="-370.4" font-family="Arial" font-size="14.00">status </text>
<text text-anchor="start" x="476.71" y="-370.4" font-family="Arial" font-size="14.00" fill="#666666">[smallint]</text>
<polygon fill="none" stroke="black" points="428.47,-327.4 428.47,-358.2 691.48,-358.2 691.48,-327.4 428.47,-327.4"/>
<text text-anchor="start" x="435.47" y="-339.6" font-family="Arial" font-size="14.00">is_readable </text>
<text text-anchor="start" x="511.74" y="-339.6" font-family="Arial" font-size="14.00" fill="#666666">[boolean]</text>
<polygon fill="none" stroke="black" points="428.47,-296.6 428.47,-327.4 691.48,-327.4 691.48,-296.6 428.47,-296.6"/>
<text text-anchor="start" x="435.47" y="-308.8" font-family="Arial" font-size="14.00">is_commentable </text>
<text text-anchor="start" x="541.29" y="-308.8" font-family="Arial" font-size="14.00" fill="#666666">[boolean]</text>
<polygon fill="none" stroke="black" points="428.47,-265.8 428.47,-296.6 691.48,-296.6 691.48,-265.8 428.47,-265.8"/>
<text text-anchor="start" x="435.47" y="-278" font-family="Arial" font-size="14.00">is_visible_comments </text>
<text text-anchor="start" x="568.51" y="-278" font-family="Arial" font-size="14.00" fill="#666666">[boolean]</text>
<polygon fill="none" stroke="black" stroke-width="3" points="426.97,-264.3 426.97,-580.1 692.98,-580.1 692.98,-264.3 426.97,-264.3"/>
</g>
<!-- content.document -->
<g id="node2" class="node">
<title>content.document</title>
<polygon fill="#efefef" stroke="none" points="238.5,-104.8 238.5,-140.4 505.45,-140.4 505.45,-104.8 238.5,-104.8"/>
<polygon fill="none" stroke="black" points="238.5,-104.8 238.5,-140.4 505.45,-140.4 505.45,-104.8 238.5,-104.8"/>
<text text-anchor="start" x="245.5" y="-118.2" font-family="Arial Bold" font-size="18.00">content.document</text>
<text text-anchor="start" x="373.96" y="-118.2" font-family="Arial" font-size="14.00">    </text>
<text text-anchor="start" x="405.08" y="-118.2" font-family="Arial" font-size="14.00" fill="#666666">[BASE TABLE]</text>
<polygon fill="none" stroke="black" points="238.5,-74 238.5,-104.8 505.45,-104.8 505.45,-74 238.5,-74"/>
<text text-anchor="start" x="245.5" y="-86.2" font-family="Arial" font-size="14.00">id </text>
<text text-anchor="start" x="260.28" y="-86.2" font-family="Arial" font-size="14.00" fill="#666666">[integer]</text>
<polygon fill="none" stroke="black" points="238.5,-43.2 238.5,-74 505.45,-74 505.45,-43.2 238.5,-43.2"/>
<text text-anchor="start" x="245.5" y="-55.4" font-family="Arial" font-size="14.00">doc_type </text>
<text text-anchor="start" x="306.21" y="-55.4" font-family="Arial" font-size="14.00" fill="#666666">[smallint]</text>
</g>
<!-- content.core&#45;&gt;content.document -->
<g id="edge1" class="edge">
<title>content.core:document_id&#45;&gt;content.document:id</title>
<path fill="none" stroke="black" d="M417.12,-434.62C335.1,-425 378.8,-297.25 428.47,-219.6 448.82,-187.78 485,-215.36 505.45,-183.6 528.11,-148.4 548.32,-89.4 506.45,-89.4"/>
<polygon fill="black" stroke="black" points="417.15,-434.62 426.88,-439.67 422.47,-434.92 426.8,-435.16 426.8,-435.16 426.8,-435.16 422.47,-434.92 427.38,-430.69 417.15,-434.62"/>
<text text-anchor="start" x="7" y="-445.2" font-family="Arial" font-size="10.00">FOREIGN KEY (document_id) REFERENCES content.document(id) ON DELETE CASCADE</text>
</g>
<!-- identity.entity -->
<g id="node3" class="node">
<title>identity.entity</title>
<polygon fill="#efefef" stroke="none" points="609.69,-104.8 609.69,-140.4 888.26,-140.4 888.26,-104.8 609.69,-104.8"/>
<polygon fill="none" stroke="black" points="609.69,-104.8 609.69,-140.4 888.26,-140.4 888.26,-104.8 609.69,-104.8"/>
<text text-anchor="start" x="636.49" y="-118.2" font-family="Arial Bold" font-size="18.00">identity.entity</text>
<text text-anchor="start" x="736.97" y="-118.2" font-family="Arial" font-size="14.00">    </text>
<text text-anchor="start" x="768.09" y="-118.2" font-family="Arial" font-size="14.00" fill="#666666">[BASE TABLE]</text>
<polygon fill="none" stroke="black" points="609.69,-74 609.69,-104.8 888.26,-104.8 888.26,-74 609.69,-74"/>
<text text-anchor="start" x="616.69" y="-86.2" font-family="Arial" font-size="14.00">anonymized_at </text>
<text text-anchor="start" x="715.53" y="-86.2" font-family="Arial" font-size="14.00" fill="#666666">[timestamp with time zone]</text>
<polygon fill="none" stroke="black" points="609.69,-43.2 609.69,-74 888.26,-74 888.26,-43.2 609.69,-43.2"/>
<text text-anchor="start" x="616.69" y="-55.4" font-family="Arial" font-size="14.00">id </text>
<text text-anchor="start" x="631.48" y="-55.4" font-family="Arial" font-size="14.00" fill="#666666">[integer]</text>
</g>
<!-- content.core&#45;&gt;identity.entity -->
<g id="edge2" class="edge">
<title>content.core:author_entity_id&#45;&gt;identity.entity:id</title>
<path fill="none" stroke="black" d="M702.83,-403.71C771.18,-394.06 734.52,-285.18 691.48,-219.6 669.69,-186.4 631.53,-216.78 609.69,-183.6 579.15,-137.19 553.13,-58.6 608.69,-58.6"/>
<polygon fill="black" stroke="black" points="702.79,-403.71 692.51,-399.89 697.47,-404.07 693.15,-404.36 693.15,-404.36 693.15,-404.36 697.47,-404.07 693.11,-408.87 702.79,-403.71"/>
<text text-anchor="start" x="699.48" y="-414.4" font-family="Arial" font-size="10.00">FOREIGN KEY (author_entity_id) REFERENCES identity.entity(id) ON DELETE SET NULL</text>
</g>
</g>
</svg>
