<?xml version="1.0" encoding="UTF-8" standalone="no"?>
<!DOCTYPE svg PUBLIC "-//W3C//DTD SVG 1.1//EN"
 "http://www.w3.org/Graphics/SVG/1.1/DTD/svg11.dtd">
<!-- Generated by graphviz version 12.1.2 (20240928.0832)
 -->
<!-- Title: content.tag Pages: 1 -->
<svg width="995pt" height="479pt"
 viewBox="0.00 0.00 994.99 478.80" xmlns="http://www.w3.org/2000/svg" xmlns:xlink="http://www.w3.org/1999/xlink">
<g id="graph0" class="graph" transform="scale(1 1) rotate(0) translate(4 474.8)">
<title>content.tag</title>
<polygon fill="white" stroke="none" points="-4,4 -4,-474.8 990.99,-474.8 990.99,4 -4,4"/>
<!-- content.tag -->
<g id="node1" class="node">
<title>content.tag</title>
<polygon fill="#efefef" stroke="none" points="147.81,-138.6 147.81,-174.2 365.77,-174.2 365.77,-138.6 147.81,-138.6"/>
<polygon fill="none" stroke="black" points="147.81,-138.6 147.81,-174.2 365.77,-174.2 365.77,-138.6 147.81,-138.6"/>
<text text-anchor="start" x="154.81" y="-152" font-family="Arial Bold" font-size="18.00">content.tag</text>
<text text-anchor="start" x="234.28" y="-152" font-family="Arial" font-size="14.00">    </text>
<text text-anchor="start" x="265.39" y="-152" font-family="Arial" font-size="14.00" fill="#666666">[BASE TABLE]</text>
<polygon fill="none" stroke="black" points="147.81,-107.8 147.81,-138.6 365.77,-138.6 365.77,-107.8 147.81,-107.8"/>
<text text-anchor="start" x="154.81" y="-120" font-family="Arial" font-size="14.00">id </text>
<text text-anchor="start" x="169.59" y="-120" font-family="Arial" font-size="14.00" fill="#666666">[integer]</text>
<polygon fill="none" stroke="black" points="147.81,-77 147.81,-107.8 365.77,-107.8 365.77,-77 147.81,-77"/>
<text text-anchor="start" x="154.81" y="-89.2" font-family="Arial" font-size="14.00">slug </text>
<text text-anchor="start" x="184.38" y="-89.2" font-family="Arial" font-size="14.00" fill="#666666">[varchar(64)]</text>
<polygon fill="none" stroke="black" points="147.81,-46.2 147.81,-77 365.77,-77 365.77,-46.2 147.81,-46.2"/>
<text text-anchor="start" x="154.81" y="-58.4" font-family="Arial" font-size="14.00">name </text>
<text text-anchor="start" x="193.72" y="-58.4" font-family="Arial" font-size="14.00" fill="#666666">[varchar(64)]</text>
<polygon fill="none" stroke="black" stroke-width="3" points="146.31,-44.7 146.31,-175.7 367.27,-175.7 367.27,-44.7 146.31,-44.7"/>
</g>
<!-- content.tag_hierarchy -->
<g id="node2" class="node">
<title>content.tag_hierarchy</title>
<polygon fill="#efefef" stroke="none" points="109.33,-392 109.33,-427.6 404.25,-427.6 404.25,-392 109.33,-392"/>
<polygon fill="none" stroke="black" points="109.33,-392 109.33,-427.6 404.25,-427.6 404.25,-392 109.33,-392"/>
<text text-anchor="start" x="116.33" y="-405.4" font-family="Arial Bold" font-size="18.00">content.tag_hierarchy</text>
<text text-anchor="start" x="272.76" y="-405.4" font-family="Arial" font-size="14.00">    </text>
<text text-anchor="start" x="303.87" y="-405.4" font-family="Arial" font-size="14.00" fill="#666666">[BASE TABLE]</text>
<polygon fill="none" stroke="black" points="109.33,-361.2 109.33,-392 404.25,-392 404.25,-361.2 109.33,-361.2"/>
<text text-anchor="start" x="116.33" y="-373.4" font-family="Arial" font-size="14.00">ancestor_id </text>
<text text-anchor="start" x="192.6" y="-373.4" font-family="Arial" font-size="14.00" fill="#666666">[integer]</text>
<polygon fill="none" stroke="black" points="109.33,-330.4 109.33,-361.2 404.25,-361.2 404.25,-330.4 109.33,-330.4"/>
<text text-anchor="start" x="116.33" y="-342.6" font-family="Arial" font-size="14.00">descendant_id </text>
<text text-anchor="start" x="211.29" y="-342.6" font-family="Arial" font-size="14.00" fill="#666666">[integer]</text>
<polygon fill="none" stroke="black" points="109.33,-299.6 109.33,-330.4 404.25,-330.4 404.25,-299.6 109.33,-299.6"/>
<text text-anchor="start" x="116.33" y="-311.8" font-family="Arial" font-size="14.00">depth </text>
<text text-anchor="start" x="155.25" y="-311.8" font-family="Arial" font-size="14.00" fill="#666666">[smallint]</text>
</g>
<!-- content.tag_hierarchy&#45;&gt;content.tag -->
<g id="edge1" class="edge">
<title>content.tag_hierarchy:ancestor_id&#45;&gt;content.tag:id</title>
<path fill="none" stroke="black" d="M415.09,-373.58C457.16,-344.99 420.05,-123.2 366.77,-123.2"/>
<polygon fill="black" stroke="black" points="415.12,-373.57 404.24,-372.2 410.02,-375.13 405.88,-376.4 405.88,-376.4 405.88,-376.4 410.02,-375.13 406.89,-380.8 415.12,-373.57"/>
<text text-anchor="start" x="20.35" y="-386.6" font-family="Arial" font-size="10.00">FOREIGN KEY (ancestor_id) REFERENCES content.tag(id) ON DELETE CASCADE</text>
</g>
<!-- content.tag_hierarchy&#45;&gt;content.tag -->
<g id="edge2" class="edge">
<title>content.tag_hierarchy:descendant_id&#45;&gt;content.tag:id</title>
<path fill="none" stroke="black" d="M414.99,-342.3C449.67,-313.98 413.24,-123.2 366.77,-123.2"/>
<polygon fill="black" stroke="black" points="414.97,-342.31 404.04,-341.45 409.95,-344.11 405.87,-345.57 405.87,-345.57 405.87,-345.57 409.95,-344.11 407.08,-349.92 414.97,-342.31"/>
<text text-anchor="start" x="7" y="-355.8" font-family="Arial" font-size="10.00">FOREIGN KEY (descendant_id) REFERENCES content.tag(id) ON DELETE CASCADE</text>
</g>
<!-- content.content_to_tag -->
<g id="node3" class="node">
<title>content.content_to_tag</title>
<polygon fill="#efefef" stroke="none" points="508.32,-376.6 508.32,-412.2 811.26,-412.2 811.26,-376.6 508.32,-376.6"/>
<polygon fill="none" stroke="black" points="508.32,-376.6 508.32,-412.2 811.26,-412.2 811.26,-376.6 508.32,-376.6"/>
<text text-anchor="start" x="515.32" y="-390" font-family="Arial Bold" font-size="18.00">content.content_to_tag</text>
<text text-anchor="start" x="679.77" y="-390" font-family="Arial" font-size="14.00">    </text>
<text text-anchor="start" x="710.89" y="-390" font-family="Arial" font-size="14.00" fill="#666666">[BASE TABLE]</text>
<polygon fill="none" stroke="black" points="508.32,-345.8 508.32,-376.6 811.26,-376.6 811.26,-345.8 508.32,-345.8"/>
<text text-anchor="start" x="515.32" y="-358" font-family="Arial" font-size="14.00">content_id </text>
<text text-anchor="start" x="583.81" y="-358" font-family="Arial" font-size="14.00" fill="#666666">[integer]</text>
<polygon fill="none" stroke="black" points="508.32,-315 508.32,-345.8 811.26,-345.8 811.26,-315 508.32,-315"/>
<text text-anchor="start" x="515.32" y="-327.2" font-family="Arial" font-size="14.00">tag_id </text>
<text text-anchor="start" x="557.35" y="-327.2" font-family="Arial" font-size="14.00" fill="#666666">[integer]</text>
</g>
<!-- content.content_to_tag&#45;&gt;content.tag -->
<g id="edge3" class="edge">
<title>content.content_to_tag:tag_id&#45;&gt;content.tag:id</title>
<path fill="none" stroke="black" d="M501.21,-322.02C474.36,-283.26 368.29,-123.2 366.77,-123.2"/>
<polygon fill="black" stroke="black" points="501.23,-322.05 503.48,-332.78 504.37,-326.36 506.92,-329.86 506.92,-329.86 506.92,-329.86 504.37,-326.36 510.76,-327.48 501.23,-322.05"/>
<text text-anchor="start" x="514.32" y="-340.4" font-family="Arial" font-size="10.00">FOREIGN KEY (tag_id) REFERENCES content.tag(id) ON UPDATE CASCADE ON DELETE CASCADE</text>
</g>
</g>
</svg>
