<?xml version="1.0" encoding="UTF-8" standalone="no"?>
<!DOCTYPE svg PUBLIC "-//W3C//DTD SVG 1.1//EN"
 "http://www.w3.org/Graphics/SVG/1.1/DTD/svg11.dtd">
<!-- Generated by graphviz version 12.1.2 (20240928.0832)
 -->
<!-- Title: content.media_content Pages: 1 -->
<svg width="776pt" height="694pt"
 viewBox="0.00 0.00 776.25 694.40" xmlns="http://www.w3.org/2000/svg" xmlns:xlink="http://www.w3.org/1999/xlink">
<g id="graph0" class="graph" transform="scale(1 1) rotate(0) translate(4 690.4)">
<title>content.media_content</title>
<polygon fill="white" stroke="none" points="-4,4 -4,-690.4 772.25,-690.4 772.25,4 -4,4"/>
<!-- content.media_content -->
<g id="node1" class="node">
<title>content.media_content</title>
<polygon fill="#efefef" stroke="none" points="46.2,-604.6 46.2,-640.2 348.13,-640.2 348.13,-604.6 46.2,-604.6"/>
<polygon fill="none" stroke="black" points="46.2,-604.6 46.2,-640.2 348.13,-640.2 348.13,-604.6 46.2,-604.6"/>
<text text-anchor="start" x="53.2" y="-618" font-family="Arial Bold" font-size="18.00">content.media_content</text>
<text text-anchor="start" x="216.64" y="-618" font-family="Arial" font-size="14.00">    </text>
<text text-anchor="start" x="247.76" y="-618" font-family="Arial" font-size="14.00" fill="#666666">[BASE TABLE]</text>
<polygon fill="none" stroke="black" points="46.2,-573.8 46.2,-604.6 348.13,-604.6 348.13,-573.8 46.2,-573.8"/>
<text text-anchor="start" x="53.2" y="-586" font-family="Arial" font-size="14.00">media_id </text>
<text text-anchor="start" x="113.9" y="-586" font-family="Arial" font-size="14.00" fill="#666666">[integer]</text>
<polygon fill="none" stroke="black" points="46.2,-543 46.2,-573.8 348.13,-573.8 348.13,-543 46.2,-543"/>
<text text-anchor="start" x="53.2" y="-555.2" font-family="Arial" font-size="14.00">name </text>
<text text-anchor="start" x="92.11" y="-555.2" font-family="Arial" font-size="14.00" fill="#666666">[varchar(255)]</text>
<polygon fill="none" stroke="black" points="46.2,-512.2 46.2,-543 348.13,-543 348.13,-512.2 46.2,-512.2"/>
<text text-anchor="start" x="53.2" y="-524.4" font-family="Arial" font-size="14.00">description </text>
<text text-anchor="start" x="124.79" y="-524.4" font-family="Arial" font-size="14.00" fill="#666666">[varchar(255)]</text>
<polygon fill="none" stroke="black" points="46.2,-481.4 46.2,-512.2 348.13,-512.2 348.13,-481.4 46.2,-481.4"/>
<text text-anchor="start" x="53.2" y="-493.6" font-family="Arial" font-size="14.00">copyright_notice </text>
<text text-anchor="start" x="159.04" y="-493.6" font-family="Arial" font-size="14.00" fill="#666666">[varchar(255)]</text>
<polygon fill="none" stroke="black" stroke-width="3" points="44.7,-479.9 44.7,-641.7 349.63,-641.7 349.63,-479.9 44.7,-479.9"/>
</g>
<!-- content.media_core -->
<g id="node2" class="node">
<title>content.media_core</title>
<polygon fill="#efefef" stroke="none" points="57.2,-320.4 57.2,-356 337.13,-356 337.13,-320.4 57.2,-320.4"/>
<polygon fill="none" stroke="black" points="57.2,-320.4 57.2,-356 337.13,-356 337.13,-320.4 57.2,-320.4"/>
<text text-anchor="start" x="64.2" y="-333.8" font-family="Arial Bold" font-size="18.00">content.media_core</text>
<text text-anchor="start" x="205.64" y="-333.8" font-family="Arial" font-size="14.00">    </text>
<text text-anchor="start" x="236.75" y="-333.8" font-family="Arial" font-size="14.00" fill="#666666">[BASE TABLE]</text>
<polygon fill="none" stroke="black" points="57.2,-289.6 57.2,-320.4 337.13,-320.4 337.13,-289.6 57.2,-289.6"/>
<text text-anchor="start" x="64.2" y="-301.8" font-family="Arial" font-size="14.00">created_at </text>
<text text-anchor="start" x="134.25" y="-301.8" font-family="Arial" font-size="14.00" fill="#666666">[timestamp with time zone]</text>
<polygon fill="none" stroke="black" points="57.2,-258.8 57.2,-289.6 337.13,-289.6 337.13,-258.8 57.2,-258.8"/>
<text text-anchor="start" x="64.2" y="-271" font-family="Arial" font-size="14.00">modified_at </text>
<text text-anchor="start" x="140.47" y="-271" font-family="Arial" font-size="14.00" fill="#666666">[timestamp with time zone]</text>
<polygon fill="none" stroke="black" points="57.2,-228 57.2,-258.8 337.13,-258.8 337.13,-228 57.2,-228"/>
<text text-anchor="start" x="64.2" y="-240.2" font-family="Arial" font-size="14.00">id </text>
<text text-anchor="start" x="78.99" y="-240.2" font-family="Arial" font-size="14.00" fill="#666666">[integer]</text>
<polygon fill="none" stroke="black" points="57.2,-197.2 57.2,-228 337.13,-228 337.13,-197.2 57.2,-197.2"/>
<text text-anchor="start" x="64.2" y="-209.4" font-family="Arial" font-size="14.00">author_id </text>
<text text-anchor="start" x="126.47" y="-209.4" font-family="Arial" font-size="14.00" fill="#666666">[integer]</text>
<polygon fill="none" stroke="black" points="57.2,-166.4 57.2,-197.2 337.13,-197.2 337.13,-166.4 57.2,-166.4"/>
<text text-anchor="start" x="64.2" y="-178.6" font-family="Arial" font-size="14.00">width </text>
<text text-anchor="start" x="100.78" y="-178.6" font-family="Arial" font-size="14.00" fill="#666666">[integer]</text>
<polygon fill="none" stroke="black" points="57.2,-135.6 57.2,-166.4 337.13,-166.4 337.13,-135.6 57.2,-135.6"/>
<text text-anchor="start" x="64.2" y="-147.8" font-family="Arial" font-size="14.00">height </text>
<text text-anchor="start" x="106.24" y="-147.8" font-family="Arial" font-size="14.00" fill="#666666">[integer]</text>
<polygon fill="none" stroke="black" points="57.2,-104.8 57.2,-135.6 337.13,-135.6 337.13,-104.8 57.2,-104.8"/>
<text text-anchor="start" x="64.2" y="-117" font-family="Arial" font-size="14.00">mime_type </text>
<text text-anchor="start" x="136.56" y="-117" font-family="Arial" font-size="14.00" fill="#666666">[varchar(255)]</text>
<polygon fill="none" stroke="black" points="57.2,-74 57.2,-104.8 337.13,-104.8 337.13,-74 57.2,-74"/>
<text text-anchor="start" x="64.2" y="-86.2" font-family="Arial" font-size="14.00">folder_url </text>
<text text-anchor="start" x="126.46" y="-86.2" font-family="Arial" font-size="14.00" fill="#666666">[varchar(255)]</text>
<polygon fill="none" stroke="black" points="57.2,-43.2 57.2,-74 337.13,-74 337.13,-43.2 57.2,-43.2"/>
<text text-anchor="start" x="64.2" y="-55.4" font-family="Arial" font-size="14.00">file_name </text>
<text text-anchor="start" x="128.8" y="-55.4" font-family="Arial" font-size="14.00" fill="#666666">[varchar(255)]</text>
</g>
<!-- content.media_content&#45;&gt;content.media_core -->
<g id="edge1" class="edge">
<title>content.media_content:media_id&#45;&gt;content.media_core:id</title>
<path fill="none" stroke="black" d="M358.96,-587.17C424.89,-558.83 411.56,-243.4 338.13,-243.4"/>
<polygon fill="black" stroke="black" points="359.25,-587.11 348.55,-584.73 354.03,-588.19 349.79,-589.06 349.79,-589.06 349.79,-589.06 354.03,-588.19 350.37,-593.54 359.25,-587.11"/>
<text text-anchor="start" x="356.13" y="-599.2" font-family="Arial" font-size="10.00">FOREIGN KEY (media_id) REFERENCES content.media_core(id) ON DELETE CASCADE</text>
</g>
</g>
</svg>
