<?xml version="1.0" encoding="UTF-8" standalone="no"?>
<!DOCTYPE svg PUBLIC "-//W3C//DTD SVG 1.1//EN"
 "http://www.w3.org/Graphics/SVG/1.1/DTD/svg11.dtd">
<!-- Generated by graphviz version 12.1.2 (20240928.0832)
 -->
<!-- Title: content.tag_hierarchy Pages: 1 -->
<svg width="755pt" height="479pt"
 viewBox="0.00 0.00 755.36 478.80" xmlns="http://www.w3.org/2000/svg" xmlns:xlink="http://www.w3.org/1999/xlink">
<g id="graph0" class="graph" transform="scale(1 1) rotate(0) translate(4 474.8)">
<title>content.tag_hierarchy</title>
<polygon fill="white" stroke="none" points="-4,4 -4,-474.8 751.36,-474.8 751.36,4 -4,4"/>
<!-- content.tag_hierarchy -->
<g id="node1" class="node">
<title>content.tag_hierarchy</title>
<polygon fill="#efefef" stroke="none" points="46.2,-389 46.2,-424.6 341.12,-424.6 341.12,-389 46.2,-389"/>
<polygon fill="none" stroke="black" points="46.2,-389 46.2,-424.6 341.12,-424.6 341.12,-389 46.2,-389"/>
<text text-anchor="start" x="53.2" y="-402.4" font-family="Arial Bold" font-size="18.00">content.tag_hierarchy</text>
<text text-anchor="start" x="209.63" y="-402.4" font-family="Arial" font-size="14.00">    </text>
<text text-anchor="start" x="240.74" y="-402.4" font-family="Arial" font-size="14.00" fill="#666666">[BASE TABLE]</text>
<polygon fill="none" stroke="black" points="46.2,-358.2 46.2,-389 341.12,-389 341.12,-358.2 46.2,-358.2"/>
<text text-anchor="start" x="53.2" y="-370.4" font-family="Arial" font-size="14.00">ancestor_id </text>
<text text-anchor="start" x="129.47" y="-370.4" font-family="Arial" font-size="14.00" fill="#666666">[integer]</text>
<polygon fill="none" stroke="black" points="46.2,-327.4 46.2,-358.2 341.12,-358.2 341.12,-327.4 46.2,-327.4"/>
<text text-anchor="start" x="53.2" y="-339.6" font-family="Arial" font-size="14.00">descendant_id </text>
<text text-anchor="start" x="148.16" y="-339.6" font-family="Arial" font-size="14.00" fill="#666666">[integer]</text>
<polygon fill="none" stroke="black" points="46.2,-296.6 46.2,-327.4 341.12,-327.4 341.12,-296.6 46.2,-296.6"/>
<text text-anchor="start" x="53.2" y="-308.8" font-family="Arial" font-size="14.00">depth </text>
<text text-anchor="start" x="92.12" y="-308.8" font-family="Arial" font-size="14.00" fill="#666666">[smallint]</text>
<polygon fill="none" stroke="black" stroke-width="3" points="44.7,-295.1 44.7,-426.1 342.62,-426.1 342.62,-295.1 44.7,-295.1"/>
</g>
<!-- content.tag -->
<g id="node2" class="node">
<title>content.tag</title>
<polygon fill="#efefef" stroke="none" points="84.68,-135.6 84.68,-171.2 302.64,-171.2 302.64,-135.6 84.68,-135.6"/>
<polygon fill="none" stroke="black" points="84.68,-135.6 84.68,-171.2 302.64,-171.2 302.64,-135.6 84.68,-135.6"/>
<text text-anchor="start" x="91.68" y="-149" font-family="Arial Bold" font-size="18.00">content.tag</text>
<text text-anchor="start" x="171.15" y="-149" font-family="Arial" font-size="14.00">    </text>
<text text-anchor="start" x="202.27" y="-149" font-family="Arial" font-size="14.00" fill="#666666">[BASE TABLE]</text>
<polygon fill="none" stroke="black" points="84.68,-104.8 84.68,-135.6 302.64,-135.6 302.64,-104.8 84.68,-104.8"/>
<text text-anchor="start" x="91.68" y="-117" font-family="Arial" font-size="14.00">id </text>
<text text-anchor="start" x="106.46" y="-117" font-family="Arial" font-size="14.00" fill="#666666">[integer]</text>
<polygon fill="none" stroke="black" points="84.68,-74 84.68,-104.8 302.64,-104.8 302.64,-74 84.68,-74"/>
<text text-anchor="start" x="91.68" y="-86.2" font-family="Arial" font-size="14.00">slug </text>
<text text-anchor="start" x="121.25" y="-86.2" font-family="Arial" font-size="14.00" fill="#666666">[varchar(64)]</text>
<polygon fill="none" stroke="black" points="84.68,-43.2 84.68,-74 302.64,-74 302.64,-43.2 84.68,-43.2"/>
<text text-anchor="start" x="91.68" y="-55.4" font-family="Arial" font-size="14.00">name </text>
<text text-anchor="start" x="130.59" y="-55.4" font-family="Arial" font-size="14.00" fill="#666666">[varchar(64)]</text>
</g>
<!-- content.tag_hierarchy&#45;&gt;content.tag -->
<g id="edge1" class="edge">
<title>content.tag_hierarchy:ancestor_id&#45;&gt;content.tag:id</title>
<path fill="none" stroke="black" d="M352.35,-372.87C453.55,-358.01 413.99,-120.2 303.64,-120.2"/>
<polygon fill="black" stroke="black" points="352.43,-372.87 342.13,-369.09 347.1,-373.25 342.78,-373.55 342.78,-373.55 342.78,-373.55 347.1,-373.25 342.77,-378.06 352.43,-372.87"/>
<text text-anchor="start" x="349.12" y="-383.6" font-family="Arial" font-size="10.00">FOREIGN KEY (ancestor_id) REFERENCES content.tag(id) ON DELETE CASCADE</text>
</g>
<!-- content.tag_hierarchy&#45;&gt;content.tag -->
<g id="edge2" class="edge">
<title>content.tag_hierarchy:descendant_id&#45;&gt;content.tag:id</title>
<path fill="none" stroke="black" d="M352.46,-341.95C439.66,-327 400.41,-120.2 303.64,-120.2"/>
<polygon fill="black" stroke="black" points="352.42,-341.95 342.08,-338.29 347.1,-342.39 342.78,-342.75 342.78,-342.75 342.78,-342.75 347.1,-342.39 342.82,-347.26 352.42,-341.95"/>
<text text-anchor="start" x="349.12" y="-352.8" font-family="Arial" font-size="10.00">FOREIGN KEY (descendant_id) REFERENCES content.tag(id) ON DELETE CASCADE</text>
</g>
</g>
</svg>
