<?xml version="1.0" encoding="UTF-8" standalone="no"?>
<!DOCTYPE svg PUBLIC "-//W3C//DTD SVG 1.1//EN"
 "http://www.w3.org/Graphics/SVG/1.1/DTD/svg11.dtd">
<!-- Generated by graphviz version 12.1.2 (20240928.0832)
 -->
<!-- Title: content.revision Pages: 1 -->
<svg width="1152pt" height="633pt"
 viewBox="0.00 0.00 1152.11 632.80" xmlns="http://www.w3.org/2000/svg" xmlns:xlink="http://www.w3.org/1999/xlink">
<g id="graph0" class="graph" transform="scale(1 1) rotate(0) translate(4 628.8)">
<title>content.revision</title>
<polygon fill="white" stroke="none" points="-4,4 -4,-628.8 1148.11,-628.8 1148.11,4 -4,4"/>
<!-- content.revision -->
<g id="node1" class="node">
<title>content.revision</title>
<polygon fill="#efefef" stroke="none" points="428.47,-543 428.47,-578.6 723.42,-578.6 723.42,-543 428.47,-543"/>
<polygon fill="none" stroke="black" points="428.47,-543 428.47,-578.6 723.42,-578.6 723.42,-543 428.47,-543"/>
<text text-anchor="start" x="455.97" y="-556.4" font-family="Arial Bold" font-size="18.00">content.revision</text>
<text text-anchor="start" x="571.44" y="-556.4" font-family="Arial" font-size="14.00">    </text>
<text text-anchor="start" x="602.55" y="-556.4" font-family="Arial" font-size="14.00" fill="#666666">[BASE TABLE]</text>
<polygon fill="none" stroke="black" points="428.47,-512.2 428.47,-543 723.42,-543 723.42,-512.2 428.47,-512.2"/>
<text text-anchor="start" x="435.47" y="-524.4" font-family="Arial" font-size="14.00">saved_at </text>
<text text-anchor="start" x="496.18" y="-524.4" font-family="Arial" font-size="14.00" fill="#666666">[timestamp with time zone]</text>
<polygon fill="none" stroke="black" points="428.47,-481.4 428.47,-512.2 723.42,-512.2 723.42,-481.4 428.47,-481.4"/>
<text text-anchor="start" x="435.47" y="-493.6" font-family="Arial" font-size="14.00">document_id </text>
<text text-anchor="start" x="519.52" y="-493.6" font-family="Arial" font-size="14.00" fill="#666666">[integer]</text>
<polygon fill="none" stroke="black" points="428.47,-450.6 428.47,-481.4 723.42,-481.4 723.42,-450.6 428.47,-450.6"/>
<text text-anchor="start" x="435.47" y="-462.8" font-family="Arial" font-size="14.00">author_entity_id </text>
<text text-anchor="start" x="538.98" y="-462.8" font-family="Arial" font-size="14.00" fill="#666666">[integer]</text>
<polygon fill="none" stroke="black" points="428.47,-419.8 428.47,-450.6 723.42,-450.6 723.42,-419.8 428.47,-419.8"/>
<text text-anchor="start" x="435.47" y="-432" font-family="Arial" font-size="14.00">revision_num </text>
<text text-anchor="start" x="522.62" y="-432" font-family="Arial" font-size="14.00" fill="#666666">[smallint]</text>
<polygon fill="none" stroke="black" points="428.47,-389 428.47,-419.8 723.42,-419.8 723.42,-389 428.47,-389"/>
<text text-anchor="start" x="435.47" y="-401.2" font-family="Arial" font-size="14.00">snapshot_headline </text>
<text text-anchor="start" x="556.9" y="-401.2" font-family="Arial" font-size="14.00" fill="#666666">[varchar(255)]</text>
<polygon fill="none" stroke="black" points="428.47,-358.2 428.47,-389 723.42,-389 723.42,-358.2 428.47,-358.2"/>
<text text-anchor="start" x="435.47" y="-370.4" font-family="Arial" font-size="14.00">snapshot_slug </text>
<text text-anchor="start" x="529.65" y="-370.4" font-family="Arial" font-size="14.00" fill="#666666">[varchar(255)]</text>
<polygon fill="none" stroke="black" points="428.47,-327.4 428.47,-358.2 723.42,-358.2 723.42,-327.4 428.47,-327.4"/>
<text text-anchor="start" x="435.47" y="-339.6" font-family="Arial" font-size="14.00">snapshot_alternative_headline </text>
<text text-anchor="start" x="629.28" y="-339.6" font-family="Arial" font-size="14.00" fill="#666666">[varchar(255)]</text>
<polygon fill="none" stroke="black" points="428.47,-296.6 428.47,-327.4 723.42,-327.4 723.42,-296.6 428.47,-296.6"/>
<text text-anchor="start" x="435.47" y="-308.8" font-family="Arial" font-size="14.00">snapshot_description </text>
<text text-anchor="start" x="571.67" y="-308.8" font-family="Arial" font-size="14.00" fill="#666666">[varchar(1000)]</text>
<polygon fill="none" stroke="black" points="428.47,-265.8 428.47,-296.6 723.42,-296.6 723.42,-265.8 428.47,-265.8"/>
<text text-anchor="start" x="435.47" y="-278" font-family="Arial" font-size="14.00">snapshot_body </text>
<text text-anchor="start" x="534.32" y="-278" font-family="Arial" font-size="14.00" fill="#666666">[text]</text>
<polygon fill="none" stroke="black" stroke-width="3" points="426.97,-264.3 426.97,-580.1 724.92,-580.1 724.92,-264.3 426.97,-264.3"/>
</g>
<!-- content.document -->
<g id="node2" class="node">
<title>content.document</title>
<polygon fill="#efefef" stroke="none" points="254.47,-104.8 254.47,-140.4 521.42,-140.4 521.42,-104.8 254.47,-104.8"/>
<polygon fill="none" stroke="black" points="254.47,-104.8 254.47,-140.4 521.42,-140.4 521.42,-104.8 254.47,-104.8"/>
<text text-anchor="start" x="261.47" y="-118.2" font-family="Arial Bold" font-size="18.00">content.document</text>
<text text-anchor="start" x="389.93" y="-118.2" font-family="Arial" font-size="14.00">    </text>
<text text-anchor="start" x="421.05" y="-118.2" font-family="Arial" font-size="14.00" fill="#666666">[BASE TABLE]</text>
<polygon fill="none" stroke="black" points="254.47,-74 254.47,-104.8 521.42,-104.8 521.42,-74 254.47,-74"/>
<text text-anchor="start" x="261.47" y="-86.2" font-family="Arial" font-size="14.00">id </text>
<text text-anchor="start" x="276.26" y="-86.2" font-family="Arial" font-size="14.00" fill="#666666">[integer]</text>
<polygon fill="none" stroke="black" points="254.47,-43.2 254.47,-74 521.42,-74 521.42,-43.2 254.47,-43.2"/>
<text text-anchor="start" x="261.47" y="-55.4" font-family="Arial" font-size="14.00">doc_type </text>
<text text-anchor="start" x="322.18" y="-55.4" font-family="Arial" font-size="14.00" fill="#666666">[smallint]</text>
</g>
<!-- content.revision&#45;&gt;content.document -->
<g id="edge1" class="edge">
<title>content.revision:document_id&#45;&gt;content.document:id</title>
<path fill="none" stroke="black" d="M417.09,-496.35C307.47,-486.57 360.7,-318.14 428.47,-219.6 453.57,-183.1 496.19,-220.02 521.42,-183.6 545.27,-149.19 564.29,-89.4 522.42,-89.4"/>
<polygon fill="black" stroke="black" points="417.14,-496.36 426.94,-501.28 422.47,-496.59 426.8,-496.77 426.8,-496.77 426.8,-496.77 422.47,-496.59 427.33,-492.29 417.14,-496.36"/>
<text text-anchor="start" x="7" y="-506.8" font-family="Arial" font-size="10.00">FOREIGN KEY (document_id) REFERENCES content.document(id) ON DELETE CASCADE</text>
</g>
<!-- identity.entity -->
<g id="node3" class="node">
<title>identity.entity</title>
<polygon fill="#efefef" stroke="none" points="625.66,-104.8 625.66,-140.4 904.23,-140.4 904.23,-104.8 625.66,-104.8"/>
<polygon fill="none" stroke="black" points="625.66,-104.8 625.66,-140.4 904.23,-140.4 904.23,-104.8 625.66,-104.8"/>
<text text-anchor="start" x="652.46" y="-118.2" font-family="Arial Bold" font-size="18.00">identity.entity</text>
<text text-anchor="start" x="752.94" y="-118.2" font-family="Arial" font-size="14.00">    </text>
<text text-anchor="start" x="784.06" y="-118.2" font-family="Arial" font-size="14.00" fill="#666666">[BASE TABLE]</text>
<polygon fill="none" stroke="black" points="625.66,-74 625.66,-104.8 904.23,-104.8 904.23,-74 625.66,-74"/>
<text text-anchor="start" x="632.66" y="-86.2" font-family="Arial" font-size="14.00">anonymized_at </text>
<text text-anchor="start" x="731.5" y="-86.2" font-family="Arial" font-size="14.00" fill="#666666">[timestamp with time zone]</text>
<polygon fill="none" stroke="black" points="625.66,-43.2 625.66,-74 904.23,-74 904.23,-43.2 625.66,-43.2"/>
<text text-anchor="start" x="632.66" y="-55.4" font-family="Arial" font-size="14.00">id </text>
<text text-anchor="start" x="647.45" y="-55.4" font-family="Arial" font-size="14.00" fill="#666666">[integer]</text>
</g>
<!-- content.revision&#45;&gt;identity.entity -->
<g id="edge2" class="edge">
<title>content.revision:author_entity_id&#45;&gt;identity.entity:id</title>
<path fill="none" stroke="black" d="M734.82,-465.49C830.75,-455.67 784.16,-306.32 723.42,-219.6 696.86,-181.68 652.3,-221.47 625.66,-183.6 593.7,-138.16 569.11,-58.6 624.66,-58.6"/>
<polygon fill="black" stroke="black" points="734.75,-465.49 724.54,-461.49 729.42,-465.75 725.09,-465.97 725.09,-465.97 725.09,-465.97 729.42,-465.75 724.98,-470.48 734.75,-465.49"/>
<text text-anchor="start" x="731.42" y="-476" font-family="Arial" font-size="10.00">FOREIGN KEY (author_entity_id) REFERENCES identity.entity(id) ON DELETE SET NULL</text>
</g>
</g>
</svg>
