<?xml version="1.0" encoding="UTF-8" standalone="no"?>
<!DOCTYPE svg PUBLIC "-//W3C//DTD SVG 1.1//EN"
 "http://www.w3.org/Graphics/SVG/1.1/DTD/svg11.dtd">
<!-- Generated by graphviz version 12.1.2 (20240928.0832)
 -->
<!-- Title: content.content_to_media Pages: 1 -->
<svg width="1395pt" height="664pt"
 viewBox="0.00 0.00 1394.89 663.60" xmlns="http://www.w3.org/2000/svg" xmlns:xlink="http://www.w3.org/1999/xlink">
<g id="graph0" class="graph" transform="scale(1 1) rotate(0) translate(4 659.6)">
<title>content.content_to_media</title>
<polygon fill="white" stroke="none" points="-4,4 -4,-659.6 1390.89,-659.6 1390.89,4 -4,4"/>
<!-- content.content_to_media -->
<g id="node1" class="node">
<title>content.content_to_media</title>
<polygon fill="#efefef" stroke="none" points="529.59,-573.8 529.59,-609.4 854.53,-609.4 854.53,-573.8 529.59,-573.8"/>
<polygon fill="none" stroke="black" points="529.59,-573.8 529.59,-609.4 854.53,-609.4 854.53,-573.8 529.59,-573.8"/>
<text text-anchor="start" x="536.59" y="-587.2" font-family="Arial Bold" font-size="18.00">content.content_to_media</text>
<text text-anchor="start" x="723.04" y="-587.2" font-family="Arial" font-size="14.00">    </text>
<text text-anchor="start" x="754.15" y="-587.2" font-family="Arial" font-size="14.00" fill="#666666">[BASE TABLE]</text>
<polygon fill="none" stroke="black" points="529.59,-543 529.59,-573.8 854.53,-573.8 854.53,-543 529.59,-543"/>
<text text-anchor="start" x="536.59" y="-555.2" font-family="Arial" font-size="14.00">content_id </text>
<text text-anchor="start" x="605.09" y="-555.2" font-family="Arial" font-size="14.00" fill="#666666">[integer]</text>
<polygon fill="none" stroke="black" points="529.59,-512.2 529.59,-543 854.53,-543 854.53,-512.2 529.59,-512.2"/>
<text text-anchor="start" x="536.59" y="-524.4" font-family="Arial" font-size="14.00">media_id </text>
<text text-anchor="start" x="597.3" y="-524.4" font-family="Arial" font-size="14.00" fill="#666666">[integer]</text>
<polygon fill="none" stroke="black" points="529.59,-481.4 529.59,-512.2 854.53,-512.2 854.53,-481.4 529.59,-481.4"/>
<text text-anchor="start" x="536.59" y="-493.6" font-family="Arial" font-size="14.00">position </text>
<text text-anchor="start" x="588.74" y="-493.6" font-family="Arial" font-size="14.00" fill="#666666">[smallint]</text>
<polygon fill="none" stroke="black" stroke-width="3" points="528.09,-479.9 528.09,-610.9 856.03,-610.9 856.03,-479.9 528.09,-479.9"/>
</g>
<!-- content.document -->
<g id="node2" class="node">
<title>content.document</title>
<polygon fill="#efefef" stroke="none" points="369.59,-212.6 369.59,-248.2 636.54,-248.2 636.54,-212.6 369.59,-212.6"/>
<polygon fill="none" stroke="black" points="369.59,-212.6 369.59,-248.2 636.54,-248.2 636.54,-212.6 369.59,-212.6"/>
<text text-anchor="start" x="376.59" y="-226" font-family="Arial Bold" font-size="18.00">content.document</text>
<text text-anchor="start" x="505.05" y="-226" font-family="Arial" font-size="14.00">    </text>
<text text-anchor="start" x="536.16" y="-226" font-family="Arial" font-size="14.00" fill="#666666">[BASE TABLE]</text>
<polygon fill="none" stroke="black" points="369.59,-181.8 369.59,-212.6 636.54,-212.6 636.54,-181.8 369.59,-181.8"/>
<text text-anchor="start" x="376.59" y="-194" font-family="Arial" font-size="14.00">id </text>
<text text-anchor="start" x="391.37" y="-194" font-family="Arial" font-size="14.00" fill="#666666">[integer]</text>
<polygon fill="none" stroke="black" points="369.59,-151 369.59,-181.8 636.54,-181.8 636.54,-151 369.59,-151"/>
<text text-anchor="start" x="376.59" y="-163.2" font-family="Arial" font-size="14.00">doc_type </text>
<text text-anchor="start" x="437.3" y="-163.2" font-family="Arial" font-size="14.00" fill="#666666">[smallint]</text>
</g>
<!-- content.content_to_media&#45;&gt;content.document -->
<g id="edge1" class="edge">
<title>content.content_to_media:content_id&#45;&gt;content.document:id</title>
<path fill="none" stroke="black" d="M518.39,-557.37C479.12,-548.47 513.4,-483.46 529.59,-435.2 554.93,-359.69 611.1,-366.88 636.54,-291.4 649.91,-251.72 679.4,-197.2 637.54,-197.2"/>
<polygon fill="black" stroke="black" points="518.31,-557.37 527.81,-562.84 523.62,-557.9 527.93,-558.33 527.93,-558.33 527.93,-558.33 523.62,-557.9 528.71,-553.89 518.31,-557.37"/>
<text text-anchor="start" x="7" y="-568.4" font-family="Arial" font-size="10.00">FOREIGN KEY (content_id) REFERENCES content.document(id) ON UPDATE CASCADE ON DELETE CASCADE</text>
</g>
<!-- content.media_core -->
<g id="node3" class="node">
<title>content.media_core</title>
<polygon fill="#efefef" stroke="none" points="741.1,-320.4 741.1,-356 1021.02,-356 1021.02,-320.4 741.1,-320.4"/>
<polygon fill="none" stroke="black" points="741.1,-320.4 741.1,-356 1021.02,-356 1021.02,-320.4 741.1,-320.4"/>
<text text-anchor="start" x="748.1" y="-333.8" font-family="Arial Bold" font-size="18.00">content.media_core</text>
<text text-anchor="start" x="889.53" y="-333.8" font-family="Arial" font-size="14.00">    </text>
<text text-anchor="start" x="920.65" y="-333.8" font-family="Arial" font-size="14.00" fill="#666666">[BASE TABLE]</text>
<polygon fill="none" stroke="black" points="741.1,-289.6 741.1,-320.4 1021.02,-320.4 1021.02,-289.6 741.1,-289.6"/>
<text text-anchor="start" x="748.1" y="-301.8" font-family="Arial" font-size="14.00">created_at </text>
<text text-anchor="start" x="818.15" y="-301.8" font-family="Arial" font-size="14.00" fill="#666666">[timestamp with time zone]</text>
<polygon fill="none" stroke="black" points="741.1,-258.8 741.1,-289.6 1021.02,-289.6 1021.02,-258.8 741.1,-258.8"/>
<text text-anchor="start" x="748.1" y="-271" font-family="Arial" font-size="14.00">modified_at </text>
<text text-anchor="start" x="824.37" y="-271" font-family="Arial" font-size="14.00" fill="#666666">[timestamp with time zone]</text>
<polygon fill="none" stroke="black" points="741.1,-228 741.1,-258.8 1021.02,-258.8 1021.02,-228 741.1,-228"/>
<text text-anchor="start" x="748.1" y="-240.2" font-family="Arial" font-size="14.00">id </text>
<text text-anchor="start" x="762.89" y="-240.2" font-family="Arial" font-size="14.00" fill="#666666">[integer]</text>
<polygon fill="none" stroke="black" points="741.1,-197.2 741.1,-228 1021.02,-228 1021.02,-197.2 741.1,-197.2"/>
<text text-anchor="start" x="748.1" y="-209.4" font-family="Arial" font-size="14.00">author_id </text>
<text text-anchor="start" x="810.37" y="-209.4" font-family="Arial" font-size="14.00" fill="#666666">[integer]</text>
<polygon fill="none" stroke="black" points="741.1,-166.4 741.1,-197.2 1021.02,-197.2 1021.02,-166.4 741.1,-166.4"/>
<text text-anchor="start" x="748.1" y="-178.6" font-family="Arial" font-size="14.00">width </text>
<text text-anchor="start" x="784.67" y="-178.6" font-family="Arial" font-size="14.00" fill="#666666">[integer]</text>
<polygon fill="none" stroke="black" points="741.1,-135.6 741.1,-166.4 1021.02,-166.4 1021.02,-135.6 741.1,-135.6"/>
<text text-anchor="start" x="748.1" y="-147.8" font-family="Arial" font-size="14.00">height </text>
<text text-anchor="start" x="790.13" y="-147.8" font-family="Arial" font-size="14.00" fill="#666666">[integer]</text>
<polygon fill="none" stroke="black" points="741.1,-104.8 741.1,-135.6 1021.02,-135.6 1021.02,-104.8 741.1,-104.8"/>
<text text-anchor="start" x="748.1" y="-117" font-family="Arial" font-size="14.00">mime_type </text>
<text text-anchor="start" x="820.46" y="-117" font-family="Arial" font-size="14.00" fill="#666666">[varchar(255)]</text>
<polygon fill="none" stroke="black" points="741.1,-74 741.1,-104.8 1021.02,-104.8 1021.02,-74 741.1,-74"/>
<text text-anchor="start" x="748.1" y="-86.2" font-family="Arial" font-size="14.00">folder_url </text>
<text text-anchor="start" x="810.35" y="-86.2" font-family="Arial" font-size="14.00" fill="#666666">[varchar(255)]</text>
<polygon fill="none" stroke="black" points="741.1,-43.2 741.1,-74 1021.02,-74 1021.02,-43.2 741.1,-43.2"/>
<text text-anchor="start" x="748.1" y="-55.4" font-family="Arial" font-size="14.00">file_name </text>
<text text-anchor="start" x="812.69" y="-55.4" font-family="Arial" font-size="14.00" fill="#666666">[varchar(255)]</text>
</g>
<!-- content.content_to_media&#45;&gt;content.media_core -->
<g id="edge2" class="edge">
<title>content.content_to_media:media_id&#45;&gt;content.media_core:id</title>
<path fill="none" stroke="black" d="M865.57,-526.1C893.23,-516.7 876.67,-465.12 854.53,-435.2 823.06,-392.69 772.47,-441.78 741.1,-399.2 700.03,-343.45 670.85,-243.4 740.1,-243.4"/>
<polygon fill="black" stroke="black" points="865.75,-526.08 855.19,-523.1 860.47,-526.86 856.19,-527.5 856.19,-527.5 856.19,-527.5 860.47,-526.86 856.52,-532 865.75,-526.08"/>
<text text-anchor="start" x="862.53" y="-537.6" font-family="Arial" font-size="10.00">FOREIGN KEY (media_id) REFERENCES content.media_core(id) ON UPDATE CASCADE ON DELETE CASCADE</text>
</g>
</g>
</svg>
