<?xml version="1.0" encoding="UTF-8" standalone="no"?>
<!DOCTYPE svg PUBLIC "-//W3C//DTD SVG 1.1//EN"
 "http://www.w3.org/Graphics/SVG/1.1/DTD/svg11.dtd">
<!-- Generated by graphviz version 12.1.2 (20240928.0832)
 -->
<!-- Title: content.body Pages: 1 -->
<svg width="729pt" height="417pt"
 viewBox="0.00 0.00 729.13 417.20" xmlns="http://www.w3.org/2000/svg" xmlns:xlink="http://www.w3.org/1999/xlink">
<g id="graph0" class="graph" transform="scale(1 1) rotate(0) translate(4 413.2)">
<title>content.body</title>
<polygon fill="white" stroke="none" points="-4,4 -4,-413.2 725.13,-413.2 725.13,4 -4,4"/>
<!-- content.body -->
<g id="node1" class="node">
<title>content.body</title>
<polygon fill="#efefef" stroke="none" points="60.69,-327.4 60.69,-363 292.66,-363 292.66,-327.4 60.69,-327.4"/>
<polygon fill="none" stroke="black" points="60.69,-327.4 60.69,-363 292.66,-363 292.66,-327.4 60.69,-327.4"/>
<text text-anchor="start" x="67.69" y="-340.8" font-family="Arial Bold" font-size="18.00">content.body</text>
<text text-anchor="start" x="161.17" y="-340.8" font-family="Arial" font-size="14.00">    </text>
<text text-anchor="start" x="192.29" y="-340.8" font-family="Arial" font-size="14.00" fill="#666666">[BASE TABLE]</text>
<polygon fill="none" stroke="black" points="60.69,-296.6 60.69,-327.4 292.66,-327.4 292.66,-296.6 60.69,-296.6"/>
<text text-anchor="start" x="67.69" y="-308.8" font-family="Arial" font-size="14.00">document_id </text>
<text text-anchor="start" x="151.74" y="-308.8" font-family="Arial" font-size="14.00" fill="#666666">[integer]</text>
<polygon fill="none" stroke="black" points="60.69,-265.8 60.69,-296.6 292.66,-296.6 292.66,-265.8 60.69,-265.8"/>
<text text-anchor="start" x="67.69" y="-278" font-family="Arial" font-size="14.00">content </text>
<text text-anchor="start" x="117.5" y="-278" font-family="Arial" font-size="14.00" fill="#666666">[text]</text>
<polygon fill="none" stroke="black" stroke-width="3" points="59.19,-264.3 59.19,-364.5 294.16,-364.5 294.16,-264.3 59.19,-264.3"/>
</g>
<!-- content.document -->
<g id="node2" class="node">
<title>content.document</title>
<polygon fill="#efefef" stroke="none" points="43.2,-104.8 43.2,-140.4 310.15,-140.4 310.15,-104.8 43.2,-104.8"/>
<polygon fill="none" stroke="black" points="43.2,-104.8 43.2,-140.4 310.15,-140.4 310.15,-104.8 43.2,-104.8"/>
<text text-anchor="start" x="50.2" y="-118.2" font-family="Arial Bold" font-size="18.00">content.document</text>
<text text-anchor="start" x="178.66" y="-118.2" font-family="Arial" font-size="14.00">    </text>
<text text-anchor="start" x="209.78" y="-118.2" font-family="Arial" font-size="14.00" fill="#666666">[BASE TABLE]</text>
<polygon fill="none" stroke="black" points="43.2,-74 43.2,-104.8 310.15,-104.8 310.15,-74 43.2,-74"/>
<text text-anchor="start" x="50.2" y="-86.2" font-family="Arial" font-size="14.00">id </text>
<text text-anchor="start" x="64.99" y="-86.2" font-family="Arial" font-size="14.00" fill="#666666">[integer]</text>
<polygon fill="none" stroke="black" points="43.2,-43.2 43.2,-74 310.15,-74 310.15,-43.2 43.2,-43.2"/>
<text text-anchor="start" x="50.2" y="-55.4" font-family="Arial" font-size="14.00">doc_type </text>
<text text-anchor="start" x="110.91" y="-55.4" font-family="Arial" font-size="14.00" fill="#666666">[smallint]</text>
</g>
<!-- content.body&#45;&gt;content.document -->
<g id="edge1" class="edge">
<title>content.body:document_id&#45;&gt;content.document:id</title>
<path fill="none" stroke="black" d="M303.37,-309.02C345.36,-282.61 357.38,-89.4 311.15,-89.4"/>
<polygon fill="black" stroke="black" points="303.54,-308.97 292.66,-307.6 298.44,-310.53 294.3,-311.8 294.3,-311.8 294.3,-311.8 298.44,-310.53 295.3,-316.2 303.54,-308.97"/>
<text text-anchor="start" x="300.66" y="-322" font-family="Arial" font-size="10.00">FOREIGN KEY (document_id) REFERENCES content.document(id) ON DELETE CASCADE</text>
</g>
</g>
</svg>
