<?xml version="1.0" encoding="UTF-8" standalone="no"?>
<!DOCTYPE svg PUBLIC "-//W3C//DTD SVG 1.1//EN"
 "http://www.w3.org/Graphics/SVG/1.1/DTD/svg11.dtd">
<!-- Generated by graphviz version 12.1.2 (20240928.0832)
 -->
<!-- Title: content.v_article_list Pages: 1 -->
<svg width="363pt" height="382pt"
 viewBox="0.00 0.00 363.41 382.40" xmlns="http://www.w3.org/2000/svg" xmlns:xlink="http://www.w3.org/1999/xlink">
<g id="graph0" class="graph" transform="scale(1 1) rotate(0) translate(4 378.4)">
<title>content.v_article_list</title>
<polygon fill="white" stroke="none" points="-4,4 -4,-378.4 359.41,-378.4 359.41,4 -4,4"/>
<!-- content.v_article_list -->
<g id="node1" class="node">
<title>content.v_article_list</title>
<polygon fill="#efefef" stroke="none" points="46.2,-292.6 46.2,-328.2 309.21,-328.2 309.21,-292.6 46.2,-292.6"/>
<polygon fill="none" stroke="black" points="46.2,-292.6 46.2,-328.2 309.21,-328.2 309.21,-292.6 46.2,-292.6"/>
<text text-anchor="start" x="64.64" y="-306" font-family="Arial Bold" font-size="18.00">content.v_article_list</text>
<text text-anchor="start" x="216.1" y="-306" font-family="Arial" font-size="14.00">    </text>
<text text-anchor="start" x="247.21" y="-306" font-family="Arial" font-size="14.00" fill="#666666">[VIEW]</text>
<polygon fill="none" stroke="black" points="46.2,-261.8 46.2,-292.6 309.21,-292.6 309.21,-261.8 46.2,-261.8"/>
<text text-anchor="start" x="53.2" y="-274" font-family="Arial" font-size="14.00">identifier </text>
<text text-anchor="start" x="110.01" y="-274" font-family="Arial" font-size="14.00" fill="#666666">[integer]</text>
<polygon fill="none" stroke="black" points="46.2,-231 46.2,-261.8 309.21,-261.8 309.21,-231 46.2,-231"/>
<text text-anchor="start" x="53.2" y="-243.2" font-family="Arial" font-size="14.00">headline </text>
<text text-anchor="start" x="110.03" y="-243.2" font-family="Arial" font-size="14.00" fill="#666666">[varchar(255)]</text>
<polygon fill="none" stroke="black" points="46.2,-200.2 46.2,-231 309.21,-231 309.21,-200.2 46.2,-200.2"/>
<text text-anchor="start" x="53.2" y="-212.4" font-family="Arial" font-size="14.00">slug </text>
<text text-anchor="start" x="82.77" y="-212.4" font-family="Arial" font-size="14.00" fill="#666666">[varchar(255)]</text>
<polygon fill="none" stroke="black" points="46.2,-169.4 46.2,-200.2 309.21,-200.2 309.21,-169.4 46.2,-169.4"/>
<text text-anchor="start" x="53.2" y="-181.6" font-family="Arial" font-size="14.00">alternative_headline </text>
<text text-anchor="start" x="182.41" y="-181.6" font-family="Arial" font-size="14.00" fill="#666666">[varchar(255)]</text>
<polygon fill="none" stroke="black" points="46.2,-138.6 46.2,-169.4 309.21,-169.4 309.21,-138.6 46.2,-138.6"/>
<text text-anchor="start" x="53.2" y="-150.8" font-family="Arial" font-size="14.00">description </text>
<text text-anchor="start" x="124.79" y="-150.8" font-family="Arial" font-size="14.00" fill="#666666">[varchar(1000)]</text>
<polygon fill="none" stroke="black" points="46.2,-107.8 46.2,-138.6 309.21,-138.6 309.21,-107.8 46.2,-107.8"/>
<text text-anchor="start" x="53.2" y="-120" font-family="Arial" font-size="14.00">published_at </text>
<text text-anchor="start" x="136.49" y="-120" font-family="Arial" font-size="14.00" fill="#666666">[timestamp with time zone]</text>
<polygon fill="none" stroke="black" points="46.2,-77 46.2,-107.8 309.21,-107.8 309.21,-77 46.2,-77"/>
<text text-anchor="start" x="53.2" y="-89.2" font-family="Arial" font-size="14.00">author_id </text>
<text text-anchor="start" x="115.47" y="-89.2" font-family="Arial" font-size="14.00" fill="#666666">[integer]</text>
<polygon fill="none" stroke="black" points="46.2,-46.2 46.2,-77 309.21,-77 309.21,-46.2 46.2,-46.2"/>
<text text-anchor="start" x="53.2" y="-58.4" font-family="Arial" font-size="14.00">status </text>
<text text-anchor="start" x="94.44" y="-58.4" font-family="Arial" font-size="14.00" fill="#666666">[smallint]</text>
<polygon fill="none" stroke="black" stroke-width="3" points="44.7,-44.7 44.7,-329.7 310.71,-329.7 310.71,-44.7 44.7,-44.7"/>
</g>
</g>
</svg>
