<?xml version="1.0" encoding="UTF-8" standalone="no"?>
<!DOCTYPE svg PUBLIC "-//W3C//DTD SVG 1.1//EN"
 "http://www.w3.org/Graphics/SVG/1.1/DTD/svg11.dtd">
<!-- Generated by graphviz version 12.1.2 (20240928.0832)
 -->
<!-- Title: content.content_to_tag Pages: 1 -->
<svg width="1321pt" height="448pt"
 viewBox="0.00 0.00 1321.21 448.00" xmlns="http://www.w3.org/2000/svg" xmlns:xlink="http://www.w3.org/1999/xlink">
<g id="graph0" class="graph" transform="scale(1 1) rotate(0) translate(4 444)">
<title>content.content_to_tag</title>
<polygon fill="white" stroke="none" points="-4,4 -4,-444 1317.21,-444 1317.21,4 -4,4"/>
<!-- content.content_to_tag -->
<g id="node1" class="node">
<title>content.content_to_tag</title>
<polygon fill="#efefef" stroke="none" points="529.59,-358.2 529.59,-393.8 832.54,-393.8 832.54,-358.2 529.59,-358.2"/>
<polygon fill="none" stroke="black" points="529.59,-358.2 529.59,-393.8 832.54,-393.8 832.54,-358.2 529.59,-358.2"/>
<text text-anchor="start" x="536.59" y="-371.6" font-family="Arial Bold" font-size="18.00">content.content_to_tag</text>
<text text-anchor="start" x="701.05" y="-371.6" font-family="Arial" font-size="14.00">    </text>
<text text-anchor="start" x="732.16" y="-371.6" font-family="Arial" font-size="14.00" fill="#666666">[BASE TABLE]</text>
<polygon fill="none" stroke="black" points="529.59,-327.4 529.59,-358.2 832.54,-358.2 832.54,-327.4 529.59,-327.4"/>
<text text-anchor="start" x="536.59" y="-339.6" font-family="Arial" font-size="14.00">content_id </text>
<text text-anchor="start" x="605.09" y="-339.6" font-family="Arial" font-size="14.00" fill="#666666">[integer]</text>
<polygon fill="none" stroke="black" points="529.59,-296.6 529.59,-327.4 832.54,-327.4 832.54,-296.6 529.59,-296.6"/>
<text text-anchor="start" x="536.59" y="-308.8" font-family="Arial" font-size="14.00">tag_id </text>
<text text-anchor="start" x="578.63" y="-308.8" font-family="Arial" font-size="14.00" fill="#666666">[integer]</text>
<polygon fill="none" stroke="black" stroke-width="3" points="528.09,-295.1 528.09,-395.3 834.04,-395.3 834.04,-295.1 528.09,-295.1"/>
</g>
<!-- content.document -->
<g id="node2" class="node">
<title>content.document</title>
<polygon fill="#efefef" stroke="none" points="374.59,-120.2 374.59,-155.8 641.54,-155.8 641.54,-120.2 374.59,-120.2"/>
<polygon fill="none" stroke="black" points="374.59,-120.2 374.59,-155.8 641.54,-155.8 641.54,-120.2 374.59,-120.2"/>
<text text-anchor="start" x="381.59" y="-133.6" font-family="Arial Bold" font-size="18.00">content.document</text>
<text text-anchor="start" x="510.05" y="-133.6" font-family="Arial" font-size="14.00">    </text>
<text text-anchor="start" x="541.17" y="-133.6" font-family="Arial" font-size="14.00" fill="#666666">[BASE TABLE]</text>
<polygon fill="none" stroke="black" points="374.59,-89.4 374.59,-120.2 641.54,-120.2 641.54,-89.4 374.59,-89.4"/>
<text text-anchor="start" x="381.59" y="-101.6" font-family="Arial" font-size="14.00">id </text>
<text text-anchor="start" x="396.38" y="-101.6" font-family="Arial" font-size="14.00" fill="#666666">[integer]</text>
<polygon fill="none" stroke="black" points="374.59,-58.6 374.59,-89.4 641.54,-89.4 641.54,-58.6 374.59,-58.6"/>
<text text-anchor="start" x="381.59" y="-70.8" font-family="Arial" font-size="14.00">doc_type </text>
<text text-anchor="start" x="442.3" y="-70.8" font-family="Arial" font-size="14.00" fill="#666666">[smallint]</text>
</g>
<!-- content.content_to_tag&#45;&gt;content.document -->
<g id="edge1" class="edge">
<title>content.content_to_tag:content_id&#45;&gt;content.document:id</title>
<path fill="none" stroke="black" d="M518.6,-341.34C491.25,-332.14 509.34,-281.62 529.59,-250.4 559.4,-204.47 611.74,-244.93 641.54,-199 664.33,-163.87 684.41,-104.8 642.54,-104.8"/>
<polygon fill="black" stroke="black" points="518.37,-341.31 527.61,-347.2 523.65,-342.08 527.93,-342.7 527.93,-342.7 527.93,-342.7 523.65,-342.08 528.91,-338.3 518.37,-341.31"/>
<text text-anchor="start" x="7" y="-352.8" font-family="Arial" font-size="10.00">FOREIGN KEY (content_id) REFERENCES content.document(id) ON UPDATE CASCADE ON DELETE CASCADE</text>
</g>
<!-- content.tag -->
<g id="node3" class="node">
<title>content.tag</title>
<polygon fill="#efefef" stroke="none" points="746.09,-135.6 746.09,-171.2 964.05,-171.2 964.05,-135.6 746.09,-135.6"/>
<polygon fill="none" stroke="black" points="746.09,-135.6 746.09,-171.2 964.05,-171.2 964.05,-135.6 746.09,-135.6"/>
<text text-anchor="start" x="753.09" y="-149" font-family="Arial Bold" font-size="18.00">content.tag</text>
<text text-anchor="start" x="832.56" y="-149" font-family="Arial" font-size="14.00">    </text>
<text text-anchor="start" x="863.67" y="-149" font-family="Arial" font-size="14.00" fill="#666666">[BASE TABLE]</text>
<polygon fill="none" stroke="black" points="746.09,-104.8 746.09,-135.6 964.05,-135.6 964.05,-104.8 746.09,-104.8"/>
<text text-anchor="start" x="753.09" y="-117" font-family="Arial" font-size="14.00">id </text>
<text text-anchor="start" x="767.87" y="-117" font-family="Arial" font-size="14.00" fill="#666666">[integer]</text>
<polygon fill="none" stroke="black" points="746.09,-74 746.09,-104.8 964.05,-104.8 964.05,-74 746.09,-74"/>
<text text-anchor="start" x="753.09" y="-86.2" font-family="Arial" font-size="14.00">slug </text>
<text text-anchor="start" x="782.66" y="-86.2" font-family="Arial" font-size="14.00" fill="#666666">[varchar(64)]</text>
<polygon fill="none" stroke="black" points="746.09,-43.2 746.09,-74 964.05,-74 964.05,-43.2 746.09,-43.2"/>
<text text-anchor="start" x="753.09" y="-55.4" font-family="Arial" font-size="14.00">name </text>
<text text-anchor="start" x="792" y="-55.4" font-family="Arial" font-size="14.00" fill="#666666">[varchar(64)]</text>
</g>
<!-- content.content_to_tag&#45;&gt;content.tag -->
<g id="edge2" class="edge">
<title>content.content_to_tag:tag_id&#45;&gt;content.tag:id</title>
<path fill="none" stroke="black" d="M843.56,-309.36C856.8,-300.23 845.51,-269.52 832.54,-250.4 809.17,-215.96 769.36,-248.91 746.09,-214.4 722.67,-179.69 703.22,-120.2 745.09,-120.2"/>
<polygon fill="black" stroke="black" points="843.53,-309.37 832.71,-307.56 838.37,-310.73 834.18,-311.83 834.18,-311.83 834.18,-311.83 838.37,-310.73 835.01,-316.27 843.53,-309.37"/>
<text text-anchor="start" x="840.54" y="-322" font-family="Arial" font-size="10.00">FOREIGN KEY (tag_id) REFERENCES content.tag(id) ON UPDATE CASCADE ON DELETE CASCADE</text>
</g>
</g>
</svg>
