<?xml version="1.0" encoding="UTF-8" standalone="no"?>
<!DOCTYPE svg PUBLIC "-//W3C//DTD SVG 1.1//EN"
 "http://www.w3.org/Graphics/SVG/1.1/DTD/svg11.dtd">
<!-- Generated by graphviz version 12.1.2 (20240928.0832)
 -->
<!-- Title: content.comment Pages: 1 -->
<svg width="1127pt" height="798pt"
 viewBox="0.00 0.00 1126.77 798.00" xmlns="http://www.w3.org/2000/svg" xmlns:xlink="http://www.w3.org/1999/xlink">
<g id="graph0" class="graph" transform="scale(1 1) rotate(0) translate(4 794)">
<title>content.comment</title>
<polygon fill="white" stroke="none" points="-4,4 -4,-794 1122.77,-794 1122.77,4 -4,4"/>
<!-- content.comment -->
<g id="node1" class="node">
<title>content.comment</title>
<polygon fill="#efefef" stroke="none" points="428.47,-543 428.47,-578.6 691.42,-578.6 691.42,-543 428.47,-543"/>
<polygon fill="none" stroke="black" points="428.47,-543 428.47,-578.6 691.42,-578.6 691.42,-543 428.47,-543"/>
<text text-anchor="start" x="435.47" y="-556.4" font-family="Arial Bold" font-size="18.00">content.comment</text>
<text text-anchor="start" x="559.93" y="-556.4" font-family="Arial" font-size="14.00">    </text>
<text text-anchor="start" x="591.05" y="-556.4" font-family="Arial" font-size="14.00" fill="#666666">[BASE TABLE]</text>
<polygon fill="none" stroke="black" points="428.47,-512.2 428.47,-543 691.42,-543 691.42,-512.2 428.47,-512.2"/>
<text text-anchor="start" x="435.47" y="-524.4" font-family="Arial" font-size="14.00">created_at </text>
<text text-anchor="start" x="505.51" y="-524.4" font-family="Arial" font-size="14.00" fill="#666666">[timestamp with time zone]</text>
<polygon fill="none" stroke="black" points="428.47,-481.4 428.47,-512.2 691.42,-512.2 691.42,-481.4 428.47,-481.4"/>
<text text-anchor="start" x="435.47" y="-493.6" font-family="Arial" font-size="14.00">modified_at </text>
<text text-anchor="start" x="511.74" y="-493.6" font-family="Arial" font-size="14.00" fill="#666666">[timestamp with time zone]</text>
<polygon fill="none" stroke="black" points="428.47,-450.6 428.47,-481.4 691.42,-481.4 691.42,-450.6 428.47,-450.6"/>
<text text-anchor="start" x="435.47" y="-462.8" font-family="Arial" font-size="14.00">document_id </text>
<text text-anchor="start" x="519.52" y="-462.8" font-family="Arial" font-size="14.00" fill="#666666">[integer]</text>
<polygon fill="none" stroke="black" points="428.47,-419.8 428.47,-450.6 691.42,-450.6 691.42,-419.8 428.47,-419.8"/>
<text text-anchor="start" x="435.47" y="-432" font-family="Arial" font-size="14.00">account_entity_id </text>
<text text-anchor="start" x="548.32" y="-432" font-family="Arial" font-size="14.00" fill="#666666">[integer]</text>
<polygon fill="none" stroke="black" points="428.47,-389 428.47,-419.8 691.42,-419.8 691.42,-389 428.47,-389"/>
<text text-anchor="start" x="435.47" y="-401.2" font-family="Arial" font-size="14.00">parent_id </text>
<text text-anchor="start" x="497.74" y="-401.2" font-family="Arial" font-size="14.00" fill="#666666">[integer]</text>
<polygon fill="none" stroke="black" points="428.47,-358.2 428.47,-389 691.42,-389 691.42,-358.2 428.47,-358.2"/>
<text text-anchor="start" x="435.47" y="-370.4" font-family="Arial" font-size="14.00">id </text>
<text text-anchor="start" x="450.25" y="-370.4" font-family="Arial" font-size="14.00" fill="#666666">[integer]</text>
<polygon fill="none" stroke="black" points="428.47,-327.4 428.47,-358.2 691.42,-358.2 691.42,-327.4 428.47,-327.4"/>
<text text-anchor="start" x="435.47" y="-339.6" font-family="Arial" font-size="14.00">status </text>
<text text-anchor="start" x="476.71" y="-339.6" font-family="Arial" font-size="14.00" fill="#666666">[smallint]</text>
<polygon fill="none" stroke="black" points="428.47,-296.6 428.47,-327.4 691.42,-327.4 691.42,-296.6 428.47,-296.6"/>
<text text-anchor="start" x="435.47" y="-308.8" font-family="Arial" font-size="14.00">path </text>
<text text-anchor="start" x="466.6" y="-308.8" font-family="Arial" font-size="14.00" fill="#666666">[ltree]</text>
<polygon fill="none" stroke="black" points="428.47,-265.8 428.47,-296.6 691.42,-296.6 691.42,-265.8 428.47,-265.8"/>
<text text-anchor="start" x="435.47" y="-278" font-family="Arial" font-size="14.00">content </text>
<text text-anchor="start" x="485.28" y="-278" font-family="Arial" font-size="14.00" fill="#666666">[text]</text>
<polygon fill="none" stroke="black" stroke-width="3" points="426.97,-264.3 426.97,-580.1 692.92,-580.1 692.92,-264.3 426.97,-264.3"/>
</g>
<!-- content.comment&#45;&gt;content.comment -->
<g id="edge3" class="edge">
<title>content.comment:parent_id&#45;&gt;content.comment:id</title>
<path fill="none" stroke="black" d="M561.59,-430.12C568.9,-560.25 568.35,-790 559.94,-790 551.29,-790 550.96,-518.7 558.93,-388.72"/>
<polygon fill="black" stroke="black" points="561.59,-430.09 565.49,-419.84 561.28,-424.77 561.02,-420.44 561.02,-420.44 561.02,-420.44 561.28,-424.77 556.51,-420.38 561.59,-430.09"/>
<text text-anchor="start" x="567.98" y="-429.78" font-family="Arial" font-size="10.00">FOREIGN KEY (parent_id) REFERENCES content.comment(id) ON DELETE SET NULL</text>
</g>
<!-- content.document -->
<g id="node2" class="node">
<title>content.document</title>
<polygon fill="#efefef" stroke="none" points="238.47,-104.8 238.47,-140.4 505.42,-140.4 505.42,-104.8 238.47,-104.8"/>
<polygon fill="none" stroke="black" points="238.47,-104.8 238.47,-140.4 505.42,-140.4 505.42,-104.8 238.47,-104.8"/>
<text text-anchor="start" x="245.47" y="-118.2" font-family="Arial Bold" font-size="18.00">content.document</text>
<text text-anchor="start" x="373.93" y="-118.2" font-family="Arial" font-size="14.00">    </text>
<text text-anchor="start" x="405.05" y="-118.2" font-family="Arial" font-size="14.00" fill="#666666">[BASE TABLE]</text>
<polygon fill="none" stroke="black" points="238.47,-74 238.47,-104.8 505.42,-104.8 505.42,-74 238.47,-74"/>
<text text-anchor="start" x="245.47" y="-86.2" font-family="Arial" font-size="14.00">id </text>
<text text-anchor="start" x="260.25" y="-86.2" font-family="Arial" font-size="14.00" fill="#666666">[integer]</text>
<polygon fill="none" stroke="black" points="238.47,-43.2 238.47,-74 505.42,-74 505.42,-43.2 238.47,-43.2"/>
<text text-anchor="start" x="245.47" y="-55.4" font-family="Arial" font-size="14.00">doc_type </text>
<text text-anchor="start" x="306.18" y="-55.4" font-family="Arial" font-size="14.00" fill="#666666">[smallint]</text>
</g>
<!-- content.comment&#45;&gt;content.document -->
<g id="edge1" class="edge">
<title>content.comment:document_id&#45;&gt;content.document:id</title>
<path fill="none" stroke="black" d="M417.09,-465.5C321.39,-455.83 371.45,-308.81 428.47,-219.6 448.8,-187.78 484.98,-215.35 505.42,-183.6 528.08,-148.39 548.29,-89.4 506.42,-89.4"/>
<polygon fill="black" stroke="black" points="417.14,-465.5 426.92,-470.48 422.47,-465.76 426.8,-465.97 426.8,-465.97 426.8,-465.97 422.47,-465.76 427.35,-461.49 417.14,-465.5"/>
<text text-anchor="start" x="7" y="-476" font-family="Arial" font-size="10.00">FOREIGN KEY (document_id) REFERENCES content.document(id) ON DELETE CASCADE</text>
</g>
<!-- identity.entity -->
<g id="node3" class="node">
<title>identity.entity</title>
<polygon fill="#efefef" stroke="none" points="609.66,-104.8 609.66,-140.4 888.22,-140.4 888.22,-104.8 609.66,-104.8"/>
<polygon fill="none" stroke="black" points="609.66,-104.8 609.66,-140.4 888.22,-140.4 888.22,-104.8 609.66,-104.8"/>
<text text-anchor="start" x="636.46" y="-118.2" font-family="Arial Bold" font-size="18.00">identity.entity</text>
<text text-anchor="start" x="736.94" y="-118.2" font-family="Arial" font-size="14.00">    </text>
<text text-anchor="start" x="768.06" y="-118.2" font-family="Arial" font-size="14.00" fill="#666666">[BASE TABLE]</text>
<polygon fill="none" stroke="black" points="609.66,-74 609.66,-104.8 888.22,-104.8 888.22,-74 609.66,-74"/>
<text text-anchor="start" x="616.66" y="-86.2" font-family="Arial" font-size="14.00">anonymized_at </text>
<text text-anchor="start" x="715.5" y="-86.2" font-family="Arial" font-size="14.00" fill="#666666">[timestamp with time zone]</text>
<polygon fill="none" stroke="black" points="609.66,-43.2 609.66,-74 888.22,-74 888.22,-43.2 609.66,-43.2"/>
<text text-anchor="start" x="616.66" y="-55.4" font-family="Arial" font-size="14.00">id </text>
<text text-anchor="start" x="631.45" y="-55.4" font-family="Arial" font-size="14.00" fill="#666666">[integer]</text>
</g>
<!-- content.comment&#45;&gt;identity.entity -->
<g id="edge2" class="edge">
<title>content.comment:account_entity_id&#45;&gt;identity.entity:id</title>
<path fill="none" stroke="black" d="M702.76,-434.62C784.86,-424.96 741.96,-296.68 691.42,-219.6 669.65,-186.4 631.49,-216.77 609.66,-183.6 579.12,-137.19 553.1,-58.6 608.66,-58.6"/>
<polygon fill="black" stroke="black" points="702.74,-434.62 692.5,-430.69 697.41,-434.92 693.09,-435.16 693.09,-435.16 693.09,-435.16 697.41,-434.92 693,-439.67 702.74,-434.62"/>
<text text-anchor="start" x="699.42" y="-445.2" font-family="Arial" font-size="10.00">FOREIGN KEY (account_entity_id) REFERENCES identity.entity(id) ON DELETE SET NULL</text>
</g>
</g>
</svg>
