<?xml version="1.0" encoding="UTF-8" standalone="no"?>
<!DOCTYPE svg PUBLIC "-//W3C//DTD SVG 1.1//EN"
 "http://www.w3.org/Graphics/SVG/1.1/DTD/svg11.dtd">
<!-- Generated by graphviz version 12.1.2 (20240928.0832)
 -->
<!-- Title: content.document Pages: 1 -->
<svg width="2892pt" height="633pt"
 viewBox="0.00 0.00 2891.95 632.80" xmlns="http://www.w3.org/2000/svg" xmlns:xlink="http://www.w3.org/1999/xlink">
<g id="graph0" class="graph" transform="scale(1 1) rotate(0) translate(4 628.8)">
<title>content.document</title>
<polygon fill="white" stroke="none" points="-4,4 -4,-628.8 2887.95,-628.8 2887.95,4 -4,4"/>
<!-- content.document -->
<g id="node1" class="node">
<title>content.document</title>
<polygon fill="#efefef" stroke="none" points="1236.49,-107.8 1236.49,-143.4 1503.44,-143.4 1503.44,-107.8 1236.49,-107.8"/>
<polygon fill="none" stroke="black" points="1236.49,-107.8 1236.49,-143.4 1503.44,-143.4 1503.44,-107.8 1236.49,-107.8"/>
<text text-anchor="start" x="1243.49" y="-121.2" font-family="Arial Bold" font-size="18.00">content.document</text>
<text text-anchor="start" x="1371.95" y="-121.2" font-family="Arial" font-size="14.00">    </text>
<text text-anchor="start" x="1403.06" y="-121.2" font-family="Arial" font-size="14.00" fill="#666666">[BASE TABLE]</text>
<polygon fill="none" stroke="black" points="1236.49,-77 1236.49,-107.8 1503.44,-107.8 1503.44,-77 1236.49,-77"/>
<text text-anchor="start" x="1243.49" y="-89.2" font-family="Arial" font-size="14.00">id </text>
<text text-anchor="start" x="1258.27" y="-89.2" font-family="Arial" font-size="14.00" fill="#666666">[integer]</text>
<polygon fill="none" stroke="black" points="1236.49,-46.2 1236.49,-77 1503.44,-77 1503.44,-46.2 1236.49,-46.2"/>
<text text-anchor="start" x="1243.49" y="-58.4" font-family="Arial" font-size="14.00">doc_type </text>
<text text-anchor="start" x="1304.2" y="-58.4" font-family="Arial" font-size="14.00" fill="#666666">[smallint]</text>
<polygon fill="none" stroke="black" stroke-width="3" points="1234.99,-44.7 1234.99,-144.9 1504.94,-144.9 1504.94,-44.7 1234.99,-44.7"/>
</g>
<!-- content.core -->
<g id="node2" class="node">
<title>content.core</title>
<polygon fill="#efefef" stroke="none" points="163.45,-546 163.45,-581.6 426.47,-581.6 426.47,-546 163.45,-546"/>
<polygon fill="none" stroke="black" points="163.45,-546 163.45,-581.6 426.47,-581.6 426.47,-546 163.45,-546"/>
<text text-anchor="start" x="188.49" y="-559.4" font-family="Arial Bold" font-size="18.00">content.core</text>
<text text-anchor="start" x="276.94" y="-559.4" font-family="Arial" font-size="14.00">    </text>
<text text-anchor="start" x="308.06" y="-559.4" font-family="Arial" font-size="14.00" fill="#666666">[BASE TABLE]</text>
<polygon fill="none" stroke="black" points="163.45,-515.2 163.45,-546 426.47,-546 426.47,-515.2 163.45,-515.2"/>
<text text-anchor="start" x="170.45" y="-527.4" font-family="Arial" font-size="14.00">published_at </text>
<text text-anchor="start" x="253.74" y="-527.4" font-family="Arial" font-size="14.00" fill="#666666">[timestamp with time zone]</text>
<polygon fill="none" stroke="black" points="163.45,-484.4 163.45,-515.2 426.47,-515.2 426.47,-484.4 163.45,-484.4"/>
<text text-anchor="start" x="170.45" y="-496.6" font-family="Arial" font-size="14.00">created_at </text>
<text text-anchor="start" x="240.5" y="-496.6" font-family="Arial" font-size="14.00" fill="#666666">[timestamp with time zone]</text>
<polygon fill="none" stroke="black" points="163.45,-453.6 163.45,-484.4 426.47,-484.4 426.47,-453.6 163.45,-453.6"/>
<text text-anchor="start" x="170.45" y="-465.8" font-family="Arial" font-size="14.00">modified_at </text>
<text text-anchor="start" x="246.72" y="-465.8" font-family="Arial" font-size="14.00" fill="#666666">[timestamp with time zone]</text>
<polygon fill="none" stroke="black" points="163.45,-422.8 163.45,-453.6 426.47,-453.6 426.47,-422.8 163.45,-422.8"/>
<text text-anchor="start" x="170.45" y="-435" font-family="Arial" font-size="14.00">document_id </text>
<text text-anchor="start" x="254.51" y="-435" font-family="Arial" font-size="14.00" fill="#666666">[integer]</text>
<polygon fill="none" stroke="black" points="163.45,-392 163.45,-422.8 426.47,-422.8 426.47,-392 163.45,-392"/>
<text text-anchor="start" x="170.45" y="-404.2" font-family="Arial" font-size="14.00">author_entity_id </text>
<text text-anchor="start" x="273.97" y="-404.2" font-family="Arial" font-size="14.00" fill="#666666">[integer]</text>
<polygon fill="none" stroke="black" points="163.45,-361.2 163.45,-392 426.47,-392 426.47,-361.2 163.45,-361.2"/>
<text text-anchor="start" x="170.45" y="-373.4" font-family="Arial" font-size="14.00">status </text>
<text text-anchor="start" x="211.7" y="-373.4" font-family="Arial" font-size="14.00" fill="#666666">[smallint]</text>
<polygon fill="none" stroke="black" points="163.45,-330.4 163.45,-361.2 426.47,-361.2 426.47,-330.4 163.45,-330.4"/>
<text text-anchor="start" x="170.45" y="-342.6" font-family="Arial" font-size="14.00">is_readable </text>
<text text-anchor="start" x="246.73" y="-342.6" font-family="Arial" font-size="14.00" fill="#666666">[boolean]</text>
<polygon fill="none" stroke="black" points="163.45,-299.6 163.45,-330.4 426.47,-330.4 426.47,-299.6 163.45,-299.6"/>
<text text-anchor="start" x="170.45" y="-311.8" font-family="Arial" font-size="14.00">is_commentable </text>
<text text-anchor="start" x="276.28" y="-311.8" font-family="Arial" font-size="14.00" fill="#666666">[boolean]</text>
<polygon fill="none" stroke="black" points="163.45,-268.8 163.45,-299.6 426.47,-299.6 426.47,-268.8 163.45,-268.8"/>
<text text-anchor="start" x="170.45" y="-281" font-family="Arial" font-size="14.00">is_visible_comments </text>
<text text-anchor="start" x="303.5" y="-281" font-family="Arial" font-size="14.00" fill="#666666">[boolean]</text>
</g>
<!-- content.core&#45;&gt;content.document -->
<g id="edge1" class="edge">
<title>content.core:document_id&#45;&gt;content.document:id</title>
<path fill="none" stroke="black" d="M437.41,-437.61C516.14,-427.47 409.91,-289.74 477.96,-225.6 602.34,-108.37 1064.56,-92.4 1235.49,-92.4"/>
<polygon fill="black" stroke="black" points="437.78,-437.59 427.53,-433.69 432.46,-437.9 428.13,-438.16 428.13,-438.16 428.13,-438.16 432.46,-437.9 428.07,-442.67 437.78,-437.59"/>
<text text-anchor="start" x="7" y="-448.2" font-family="Arial" font-size="10.00">FOREIGN KEY (document_id) REFERENCES content.document(id) ON DELETE CASCADE</text>
</g>
<!-- content.identity -->
<g id="node3" class="node">
<title>content.identity</title>
<polygon fill="#efefef" stroke="none" points="530.48,-484.4 530.48,-520 781.44,-520 781.44,-484.4 530.48,-484.4"/>
<polygon fill="none" stroke="black" points="530.48,-484.4 530.48,-520 781.44,-520 781.44,-484.4 530.48,-484.4"/>
<text text-anchor="start" x="537.48" y="-497.8" font-family="Arial Bold" font-size="18.00">content.identity</text>
<text text-anchor="start" x="649.95" y="-497.8" font-family="Arial" font-size="14.00">    </text>
<text text-anchor="start" x="681.07" y="-497.8" font-family="Arial" font-size="14.00" fill="#666666">[BASE TABLE]</text>
<polygon fill="none" stroke="black" points="530.48,-453.6 530.48,-484.4 781.44,-484.4 781.44,-453.6 530.48,-453.6"/>
<text text-anchor="start" x="537.48" y="-465.8" font-family="Arial" font-size="14.00">document_id </text>
<text text-anchor="start" x="621.53" y="-465.8" font-family="Arial" font-size="14.00" fill="#666666">[integer]</text>
<polygon fill="none" stroke="black" points="530.48,-422.8 530.48,-453.6 781.44,-453.6 781.44,-422.8 530.48,-422.8"/>
<text text-anchor="start" x="537.48" y="-435" font-family="Arial" font-size="14.00">slug </text>
<text text-anchor="start" x="567.05" y="-435" font-family="Arial" font-size="14.00" fill="#666666">[varchar(255)]</text>
<polygon fill="none" stroke="black" points="530.48,-392 530.48,-422.8 781.44,-422.8 781.44,-392 530.48,-392"/>
<text text-anchor="start" x="537.48" y="-404.2" font-family="Arial" font-size="14.00">headline </text>
<text text-anchor="start" x="594.31" y="-404.2" font-family="Arial" font-size="14.00" fill="#666666">[varchar(255)]</text>
<polygon fill="none" stroke="black" points="530.48,-361.2 530.48,-392 781.44,-392 781.44,-361.2 530.48,-361.2"/>
<text text-anchor="start" x="537.48" y="-373.4" font-family="Arial" font-size="14.00">alternative_headline </text>
<text text-anchor="start" x="666.69" y="-373.4" font-family="Arial" font-size="14.00" fill="#666666">[varchar(255)]</text>
<polygon fill="none" stroke="black" points="530.48,-330.4 530.48,-361.2 781.44,-361.2 781.44,-330.4 530.48,-330.4"/>
<text text-anchor="start" x="537.48" y="-342.6" font-family="Arial" font-size="14.00">description </text>
<text text-anchor="start" x="609.07" y="-342.6" font-family="Arial" font-size="14.00" fill="#666666">[varchar(1000)]</text>
</g>
<!-- content.identity&#45;&gt;content.document -->
<g id="edge2" class="edge">
<title>content.identity:document_id&#45;&gt;content.document:id</title>
<path fill="none" stroke="black" d="M792.67,-468.48C884.43,-458.4 762.71,-305.29 833.96,-225.6 896.62,-155.52 1141.48,-92.4 1235.49,-92.4"/>
<polygon fill="black" stroke="black" points="792.76,-468.47 782.55,-464.49 787.44,-468.74 783.11,-468.97 783.11,-468.97 783.11,-468.97 787.44,-468.74 783.01,-473.48 792.76,-468.47"/>
<text text-anchor="start" x="575.71" y="-453" font-family="Arial" font-size="10.00">FOREIGN KEY (document_id) REFERENCES content.document(id) ON DELETE CASCADE</text>
</g>
<!-- content.body -->
<g id="node4" class="node">
<title>content.body</title>
<polygon fill="#efefef" stroke="none" points="885.98,-438.2 885.98,-473.8 1117.95,-473.8 1117.95,-438.2 885.98,-438.2"/>
<polygon fill="none" stroke="black" points="885.98,-438.2 885.98,-473.8 1117.95,-473.8 1117.95,-438.2 885.98,-438.2"/>
<text text-anchor="start" x="892.98" y="-451.6" font-family="Arial Bold" font-size="18.00">content.body</text>
<text text-anchor="start" x="986.46" y="-451.6" font-family="Arial" font-size="14.00">    </text>
<text text-anchor="start" x="1017.57" y="-451.6" font-family="Arial" font-size="14.00" fill="#666666">[BASE TABLE]</text>
<polygon fill="none" stroke="black" points="885.98,-407.4 885.98,-438.2 1117.95,-438.2 1117.95,-407.4 885.98,-407.4"/>
<text text-anchor="start" x="892.98" y="-419.6" font-family="Arial" font-size="14.00">document_id </text>
<text text-anchor="start" x="977.03" y="-419.6" font-family="Arial" font-size="14.00" fill="#666666">[integer]</text>
<polygon fill="none" stroke="black" points="885.98,-376.6 885.98,-407.4 1117.95,-407.4 1117.95,-376.6 885.98,-376.6"/>
<text text-anchor="start" x="892.98" y="-388.8" font-family="Arial" font-size="14.00">content </text>
<text text-anchor="start" x="942.79" y="-388.8" font-family="Arial" font-size="14.00" fill="#666666">[text]</text>
</g>
<!-- content.body&#45;&gt;content.document -->
<g id="edge3" class="edge">
<title>content.body:document_id&#45;&gt;content.document:id</title>
<path fill="none" stroke="black" d="M1129.29,-422.24C1203.82,-413.63 1139.77,-307 1169.96,-225.6 1192.9,-163.74 1169.51,-92.4 1235.49,-92.4"/>
<polygon fill="black" stroke="black" points="1129.26,-422.24 1119.04,-418.29 1123.94,-422.53 1119.61,-422.76 1119.61,-422.76 1119.61,-422.76 1123.94,-422.53 1119.52,-427.28 1129.26,-422.24"/>
<text text-anchor="start" x="1125.95" y="-432.8" font-family="Arial" font-size="10.00">FOREIGN KEY (document_id) REFERENCES content.document(id) ON DELETE CASCADE</text>
</g>
<!-- content.revision -->
<g id="node5" class="node">
<title>content.revision</title>
<polygon fill="#efefef" stroke="none" points="1222.48,-546 1222.48,-581.6 1517.44,-581.6 1517.44,-546 1222.48,-546"/>
<polygon fill="none" stroke="black" points="1222.48,-546 1222.48,-581.6 1517.44,-581.6 1517.44,-546 1222.48,-546"/>
<text text-anchor="start" x="1249.98" y="-559.4" font-family="Arial Bold" font-size="18.00">content.revision</text>
<text text-anchor="start" x="1365.45" y="-559.4" font-family="Arial" font-size="14.00">    </text>
<text text-anchor="start" x="1396.57" y="-559.4" font-family="Arial" font-size="14.00" fill="#666666">[BASE TABLE]</text>
<polygon fill="none" stroke="black" points="1222.48,-515.2 1222.48,-546 1517.44,-546 1517.44,-515.2 1222.48,-515.2"/>
<text text-anchor="start" x="1229.48" y="-527.4" font-family="Arial" font-size="14.00">saved_at </text>
<text text-anchor="start" x="1290.19" y="-527.4" font-family="Arial" font-size="14.00" fill="#666666">[timestamp with time zone]</text>
<polygon fill="none" stroke="black" points="1222.48,-484.4 1222.48,-515.2 1517.44,-515.2 1517.44,-484.4 1222.48,-484.4"/>
<text text-anchor="start" x="1229.48" y="-496.6" font-family="Arial" font-size="14.00">document_id </text>
<text text-anchor="start" x="1313.54" y="-496.6" font-family="Arial" font-size="14.00" fill="#666666">[integer]</text>
<polygon fill="none" stroke="black" points="1222.48,-453.6 1222.48,-484.4 1517.44,-484.4 1517.44,-453.6 1222.48,-453.6"/>
<text text-anchor="start" x="1229.48" y="-465.8" font-family="Arial" font-size="14.00">author_entity_id </text>
<text text-anchor="start" x="1333" y="-465.8" font-family="Arial" font-size="14.00" fill="#666666">[integer]</text>
<polygon fill="none" stroke="black" points="1222.48,-422.8 1222.48,-453.6 1517.44,-453.6 1517.44,-422.8 1222.48,-422.8"/>
<text text-anchor="start" x="1229.48" y="-435" font-family="Arial" font-size="14.00">revision_num </text>
<text text-anchor="start" x="1316.63" y="-435" font-family="Arial" font-size="14.00" fill="#666666">[smallint]</text>
<polygon fill="none" stroke="black" points="1222.48,-392 1222.48,-422.8 1517.44,-422.8 1517.44,-392 1222.48,-392"/>
<text text-anchor="start" x="1229.48" y="-404.2" font-family="Arial" font-size="14.00">snapshot_headline </text>
<text text-anchor="start" x="1350.92" y="-404.2" font-family="Arial" font-size="14.00" fill="#666666">[varchar(255)]</text>
<polygon fill="none" stroke="black" points="1222.48,-361.2 1222.48,-392 1517.44,-392 1517.44,-361.2 1222.48,-361.2"/>
<text text-anchor="start" x="1229.48" y="-373.4" font-family="Arial" font-size="14.00">snapshot_slug </text>
<text text-anchor="start" x="1323.66" y="-373.4" font-family="Arial" font-size="14.00" fill="#666666">[varchar(255)]</text>
<polygon fill="none" stroke="black" points="1222.48,-330.4 1222.48,-361.2 1517.44,-361.2 1517.44,-330.4 1222.48,-330.4"/>
<text text-anchor="start" x="1229.48" y="-342.6" font-family="Arial" font-size="14.00">snapshot_alternative_headline </text>
<text text-anchor="start" x="1423.29" y="-342.6" font-family="Arial" font-size="14.00" fill="#666666">[varchar(255)]</text>
<polygon fill="none" stroke="black" points="1222.48,-299.6 1222.48,-330.4 1517.44,-330.4 1517.44,-299.6 1222.48,-299.6"/>
<text text-anchor="start" x="1229.48" y="-311.8" font-family="Arial" font-size="14.00">snapshot_description </text>
<text text-anchor="start" x="1365.68" y="-311.8" font-family="Arial" font-size="14.00" fill="#666666">[varchar(1000)]</text>
<polygon fill="none" stroke="black" points="1222.48,-268.8 1222.48,-299.6 1517.44,-299.6 1517.44,-268.8 1222.48,-268.8"/>
<text text-anchor="start" x="1229.48" y="-281" font-family="Arial" font-size="14.00">snapshot_body </text>
<text text-anchor="start" x="1328.34" y="-281" font-family="Arial" font-size="14.00" fill="#666666">[text]</text>
</g>
<!-- content.revision&#45;&gt;content.document -->
<g id="edge4" class="edge">
<title>content.revision:document_id&#45;&gt;content.document:id</title>
<path fill="none" stroke="black" d="M1527.12,-494.04C1561.61,-444.52 1546.54,-92.4 1504.44,-92.4"/>
<polygon fill="black" stroke="black" points="1527.05,-494.09 1516.23,-495.86 1522.61,-497.04 1519,-499.43 1519,-499.43 1519,-499.43 1522.61,-497.04 1521.2,-503.37 1527.05,-494.09"/>
<text text-anchor="start" x="1097.97" y="-509.8" font-family="Arial" font-size="10.00">FOREIGN KEY (document_id) REFERENCES content.document(id) ON DELETE CASCADE</text>
</g>
<!-- content.content_to_tag -->
<g id="node6" class="node">
<title>content.content_to_tag</title>
<polygon fill="#efefef" stroke="none" points="1621.49,-438.2 1621.49,-473.8 1924.43,-473.8 1924.43,-438.2 1621.49,-438.2"/>
<polygon fill="none" stroke="black" points="1621.49,-438.2 1621.49,-473.8 1924.43,-473.8 1924.43,-438.2 1621.49,-438.2"/>
<text text-anchor="start" x="1628.49" y="-451.6" font-family="Arial Bold" font-size="18.00">content.content_to_tag</text>
<text text-anchor="start" x="1792.94" y="-451.6" font-family="Arial" font-size="14.00">    </text>
<text text-anchor="start" x="1824.06" y="-451.6" font-family="Arial" font-size="14.00" fill="#666666">[BASE TABLE]</text>
<polygon fill="none" stroke="black" points="1621.49,-407.4 1621.49,-438.2 1924.43,-438.2 1924.43,-407.4 1621.49,-407.4"/>
<text text-anchor="start" x="1628.49" y="-419.6" font-family="Arial" font-size="14.00">content_id </text>
<text text-anchor="start" x="1696.99" y="-419.6" font-family="Arial" font-size="14.00" fill="#666666">[integer]</text>
<polygon fill="none" stroke="black" points="1621.49,-376.6 1621.49,-407.4 1924.43,-407.4 1924.43,-376.6 1621.49,-376.6"/>
<text text-anchor="start" x="1628.49" y="-388.8" font-family="Arial" font-size="14.00">tag_id </text>
<text text-anchor="start" x="1670.52" y="-388.8" font-family="Arial" font-size="14.00" fill="#666666">[integer]</text>
</g>
<!-- content.content_to_tag&#45;&gt;content.document -->
<g id="edge5" class="edge">
<title>content.content_to_tag:content_id&#45;&gt;content.document:id</title>
<path fill="none" stroke="black" d="M1610.16,-422.24C1535.69,-413.63 1600.04,-306.98 1569.96,-225.6 1547.09,-163.72 1570.41,-92.4 1504.44,-92.4"/>
<polygon fill="black" stroke="black" points="1610.17,-422.24 1619.91,-427.28 1615.5,-422.53 1619.82,-422.76 1619.82,-422.76 1619.82,-422.76 1615.5,-422.53 1620.4,-418.29 1610.17,-422.24"/>
<text text-anchor="start" x="1231.04" y="-406.8" font-family="Arial" font-size="10.00">FOREIGN KEY (content_id) REFERENCES content.document(id) ON UPDATE CASCADE ON DELETE CASCADE</text>
</g>
<!-- content.content_to_media -->
<g id="node7" class="node">
<title>content.content_to_media</title>
<polygon fill="#efefef" stroke="none" points="2028.49,-453.6 2028.49,-489.2 2353.43,-489.2 2353.43,-453.6 2028.49,-453.6"/>
<polygon fill="none" stroke="black" points="2028.49,-453.6 2028.49,-489.2 2353.43,-489.2 2353.43,-453.6 2028.49,-453.6"/>
<text text-anchor="start" x="2035.49" y="-467" font-family="Arial Bold" font-size="18.00">content.content_to_media</text>
<text text-anchor="start" x="2221.94" y="-467" font-family="Arial" font-size="14.00">    </text>
<text text-anchor="start" x="2253.05" y="-467" font-family="Arial" font-size="14.00" fill="#666666">[BASE TABLE]</text>
<polygon fill="none" stroke="black" points="2028.49,-422.8 2028.49,-453.6 2353.43,-453.6 2353.43,-422.8 2028.49,-422.8"/>
<text text-anchor="start" x="2035.49" y="-435" font-family="Arial" font-size="14.00">content_id </text>
<text text-anchor="start" x="2103.99" y="-435" font-family="Arial" font-size="14.00" fill="#666666">[integer]</text>
<polygon fill="none" stroke="black" points="2028.49,-392 2028.49,-422.8 2353.43,-422.8 2353.43,-392 2028.49,-392"/>
<text text-anchor="start" x="2035.49" y="-404.2" font-family="Arial" font-size="14.00">media_id </text>
<text text-anchor="start" x="2096.2" y="-404.2" font-family="Arial" font-size="14.00" fill="#666666">[integer]</text>
<polygon fill="none" stroke="black" points="2028.49,-361.2 2028.49,-392 2353.43,-392 2353.43,-361.2 2028.49,-361.2"/>
<text text-anchor="start" x="2035.49" y="-373.4" font-family="Arial" font-size="14.00">position </text>
<text text-anchor="start" x="2087.64" y="-373.4" font-family="Arial" font-size="14.00" fill="#666666">[smallint]</text>
</g>
<!-- content.content_to_media&#45;&gt;content.document -->
<g id="edge6" class="edge">
<title>content.content_to_media:content_id&#45;&gt;content.document:id</title>
<path fill="none" stroke="black" d="M2017.53,-437.62C1938.57,-427.72 2041.7,-293.08 1976.96,-225.6 1901.43,-146.88 1613.53,-92.4 1504.44,-92.4"/>
<polygon fill="black" stroke="black" points="2017.18,-437.6 2026.9,-442.67 2022.5,-437.91 2026.83,-438.16 2026.83,-438.16 2026.83,-438.16 2022.5,-437.91 2027.42,-433.69 2017.18,-437.6"/>
<text text-anchor="start" x="2034.49" y="-448.2" font-family="Arial" font-size="10.00">FOREIGN KEY (content_id) REFERENCES content.document(id) ON UPDATE CASCADE ON DELETE CASCADE</text>
</g>
<!-- content.comment -->
<g id="node8" class="node">
<title>content.comment</title>
<polygon fill="#efefef" stroke="none" points="2457.48,-546 2457.48,-581.6 2720.44,-581.6 2720.44,-546 2457.48,-546"/>
<polygon fill="none" stroke="black" points="2457.48,-546 2457.48,-581.6 2720.44,-581.6 2720.44,-546 2457.48,-546"/>
<text text-anchor="start" x="2464.48" y="-559.4" font-family="Arial Bold" font-size="18.00">content.comment</text>
<text text-anchor="start" x="2588.95" y="-559.4" font-family="Arial" font-size="14.00">    </text>
<text text-anchor="start" x="2620.06" y="-559.4" font-family="Arial" font-size="14.00" fill="#666666">[BASE TABLE]</text>
<polygon fill="none" stroke="black" points="2457.48,-515.2 2457.48,-546 2720.44,-546 2720.44,-515.2 2457.48,-515.2"/>
<text text-anchor="start" x="2464.48" y="-527.4" font-family="Arial" font-size="14.00">created_at </text>
<text text-anchor="start" x="2534.53" y="-527.4" font-family="Arial" font-size="14.00" fill="#666666">[timestamp with time zone]</text>
<polygon fill="none" stroke="black" points="2457.48,-484.4 2457.48,-515.2 2720.44,-515.2 2720.44,-484.4 2457.48,-484.4"/>
<text text-anchor="start" x="2464.48" y="-496.6" font-family="Arial" font-size="14.00">modified_at </text>
<text text-anchor="start" x="2540.75" y="-496.6" font-family="Arial" font-size="14.00" fill="#666666">[timestamp with time zone]</text>
<polygon fill="none" stroke="black" points="2457.48,-453.6 2457.48,-484.4 2720.44,-484.4 2720.44,-453.6 2457.48,-453.6"/>
<text text-anchor="start" x="2464.48" y="-465.8" font-family="Arial" font-size="14.00">document_id </text>
<text text-anchor="start" x="2548.54" y="-465.8" font-family="Arial" font-size="14.00" fill="#666666">[integer]</text>
<polygon fill="none" stroke="black" points="2457.48,-422.8 2457.48,-453.6 2720.44,-453.6 2720.44,-422.8 2457.48,-422.8"/>
<text text-anchor="start" x="2464.48" y="-435" font-family="Arial" font-size="14.00">account_entity_id </text>
<text text-anchor="start" x="2577.34" y="-435" font-family="Arial" font-size="14.00" fill="#666666">[integer]</text>
<polygon fill="none" stroke="black" points="2457.48,-392 2457.48,-422.8 2720.44,-422.8 2720.44,-392 2457.48,-392"/>
<text text-anchor="start" x="2464.48" y="-404.2" font-family="Arial" font-size="14.00">parent_id </text>
<text text-anchor="start" x="2526.75" y="-404.2" font-family="Arial" font-size="14.00" fill="#666666">[integer]</text>
<polygon fill="none" stroke="black" points="2457.48,-361.2 2457.48,-392 2720.44,-392 2720.44,-361.2 2457.48,-361.2"/>
<text text-anchor="start" x="2464.48" y="-373.4" font-family="Arial" font-size="14.00">id </text>
<text text-anchor="start" x="2479.27" y="-373.4" font-family="Arial" font-size="14.00" fill="#666666">[integer]</text>
<polygon fill="none" stroke="black" points="2457.48,-330.4 2457.48,-361.2 2720.44,-361.2 2720.44,-330.4 2457.48,-330.4"/>
<text text-anchor="start" x="2464.48" y="-342.6" font-family="Arial" font-size="14.00">status </text>
<text text-anchor="start" x="2505.73" y="-342.6" font-family="Arial" font-size="14.00" fill="#666666">[smallint]</text>
<polygon fill="none" stroke="black" points="2457.48,-299.6 2457.48,-330.4 2720.44,-330.4 2720.44,-299.6 2457.48,-299.6"/>
<text text-anchor="start" x="2464.48" y="-311.8" font-family="Arial" font-size="14.00">path </text>
<text text-anchor="start" x="2495.62" y="-311.8" font-family="Arial" font-size="14.00" fill="#666666">[ltree]</text>
<polygon fill="none" stroke="black" points="2457.48,-268.8 2457.48,-299.6 2720.44,-299.6 2720.44,-268.8 2457.48,-268.8"/>
<text text-anchor="start" x="2464.48" y="-281" font-family="Arial" font-size="14.00">content </text>
<text text-anchor="start" x="2514.3" y="-281" font-family="Arial" font-size="14.00" fill="#666666">[text]</text>
</g>
<!-- content.comment&#45;&gt;content.document -->
<g id="edge7" class="edge">
<title>content.comment:document_id&#45;&gt;content.document:id</title>
<path fill="none" stroke="black" d="M2446.29,-468.46C2355.08,-457.97 2483.65,-298.91 2405.96,-225.6 2332.32,-156.11 1605.69,-92.4 1504.44,-92.4"/>
<polygon fill="black" stroke="black" points="2446.17,-468.45 2455.91,-473.48 2451.49,-468.73 2455.82,-468.96 2455.82,-468.96 2455.82,-468.96 2451.49,-468.73 2456.39,-464.49 2446.17,-468.45"/>
<text text-anchor="start" x="2463.48" y="-479" font-family="Arial" font-size="10.00">FOREIGN KEY (document_id) REFERENCES content.document(id) ON DELETE CASCADE</text>
</g>
</g>
</svg>
