<?xml version="1.0" encoding="UTF-8" standalone="no"?>
<!DOCTYPE svg PUBLIC "-//W3C//DTD SVG 1.1//EN"
 "http://www.w3.org/Graphics/SVG/1.1/DTD/svg11.dtd">
<!-- Generated by graphviz version 12.1.2 (20240928.0832)
 -->
<!-- Title: content.identity Pages: 1 -->
<svg width="739pt" height="510pt"
 viewBox="0.00 0.00 738.62 509.60" xmlns="http://www.w3.org/2000/svg" xmlns:xlink="http://www.w3.org/1999/xlink">
<g id="graph0" class="graph" transform="scale(1 1) rotate(0) translate(4 505.6)">
<title>content.identity</title>
<polygon fill="white" stroke="none" points="-4,4 -4,-505.6 734.62,-505.6 734.62,4 -4,4"/>
<!-- content.identity -->
<g id="node1" class="node">
<title>content.identity</title>
<polygon fill="#efefef" stroke="none" points="51.19,-419.8 51.19,-455.4 302.16,-455.4 302.16,-419.8 51.19,-419.8"/>
<polygon fill="none" stroke="black" points="51.19,-419.8 51.19,-455.4 302.16,-455.4 302.16,-419.8 51.19,-419.8"/>
<text text-anchor="start" x="58.19" y="-433.2" font-family="Arial Bold" font-size="18.00">content.identity</text>
<text text-anchor="start" x="170.67" y="-433.2" font-family="Arial" font-size="14.00">    </text>
<text text-anchor="start" x="201.78" y="-433.2" font-family="Arial" font-size="14.00" fill="#666666">[BASE TABLE]</text>
<polygon fill="none" stroke="black" points="51.19,-389 51.19,-419.8 302.16,-419.8 302.16,-389 51.19,-389"/>
<text text-anchor="start" x="58.19" y="-401.2" font-family="Arial" font-size="14.00">document_id </text>
<text text-anchor="start" x="142.25" y="-401.2" font-family="Arial" font-size="14.00" fill="#666666">[integer]</text>
<polygon fill="none" stroke="black" points="51.19,-358.2 51.19,-389 302.16,-389 302.16,-358.2 51.19,-358.2"/>
<text text-anchor="start" x="58.19" y="-370.4" font-family="Arial" font-size="14.00">slug </text>
<text text-anchor="start" x="87.77" y="-370.4" font-family="Arial" font-size="14.00" fill="#666666">[varchar(255)]</text>
<polygon fill="none" stroke="black" points="51.19,-327.4 51.19,-358.2 302.16,-358.2 302.16,-327.4 51.19,-327.4"/>
<text text-anchor="start" x="58.19" y="-339.6" font-family="Arial" font-size="14.00">headline </text>
<text text-anchor="start" x="115.02" y="-339.6" font-family="Arial" font-size="14.00" fill="#666666">[varchar(255)]</text>
<polygon fill="none" stroke="black" points="51.19,-296.6 51.19,-327.4 302.16,-327.4 302.16,-296.6 51.19,-296.6"/>
<text text-anchor="start" x="58.19" y="-308.8" font-family="Arial" font-size="14.00">alternative_headline </text>
<text text-anchor="start" x="187.4" y="-308.8" font-family="Arial" font-size="14.00" fill="#666666">[varchar(255)]</text>
<polygon fill="none" stroke="black" points="51.19,-265.8 51.19,-296.6 302.16,-296.6 302.16,-265.8 51.19,-265.8"/>
<text text-anchor="start" x="58.19" y="-278" font-family="Arial" font-size="14.00">description </text>
<text text-anchor="start" x="129.79" y="-278" font-family="Arial" font-size="14.00" fill="#666666">[varchar(1000)]</text>
<polygon fill="none" stroke="black" stroke-width="3" points="49.69,-264.3 49.69,-456.9 303.66,-456.9 303.66,-264.3 49.69,-264.3"/>
</g>
<!-- content.document -->
<g id="node2" class="node">
<title>content.document</title>
<polygon fill="#efefef" stroke="none" points="43.2,-104.8 43.2,-140.4 310.15,-140.4 310.15,-104.8 43.2,-104.8"/>
<polygon fill="none" stroke="black" points="43.2,-104.8 43.2,-140.4 310.15,-140.4 310.15,-104.8 43.2,-104.8"/>
<text text-anchor="start" x="50.2" y="-118.2" font-family="Arial Bold" font-size="18.00">content.document</text>
<text text-anchor="start" x="178.66" y="-118.2" font-family="Arial" font-size="14.00">    </text>
<text text-anchor="start" x="209.78" y="-118.2" font-family="Arial" font-size="14.00" fill="#666666">[BASE TABLE]</text>
<polygon fill="none" stroke="black" points="43.2,-74 43.2,-104.8 310.15,-104.8 310.15,-74 43.2,-74"/>
<text text-anchor="start" x="50.2" y="-86.2" font-family="Arial" font-size="14.00">id </text>
<text text-anchor="start" x="64.99" y="-86.2" font-family="Arial" font-size="14.00" fill="#666666">[integer]</text>
<polygon fill="none" stroke="black" points="43.2,-43.2 43.2,-74 310.15,-74 310.15,-43.2 43.2,-43.2"/>
<text text-anchor="start" x="50.2" y="-55.4" font-family="Arial" font-size="14.00">doc_type </text>
<text text-anchor="start" x="110.91" y="-55.4" font-family="Arial" font-size="14.00" fill="#666666">[smallint]</text>
</g>
<!-- content.identity&#45;&gt;content.document -->
<g id="edge1" class="edge">
<title>content.identity:document_id&#45;&gt;content.document:id</title>
<path fill="none" stroke="black" d="M312.97,-402.22C373.77,-374.39 377.75,-89.4 311.15,-89.4"/>
<polygon fill="black" stroke="black" points="313.25,-402.16 302.51,-399.93 308.04,-403.32 303.81,-404.25 303.81,-404.25 303.81,-404.25 308.04,-403.32 304.46,-408.72 313.25,-402.16"/>
<text text-anchor="start" x="310.16" y="-414.4" font-family="Arial" font-size="10.00">FOREIGN KEY (document_id) REFERENCES content.document(id) ON DELETE CASCADE</text>
</g>
</g>
</svg>
