<?xml version="1.0" encoding="UTF-8" standalone="no"?>
<!DOCTYPE svg PUBLIC "-//W3C//DTD SVG 1.1//EN"
 "http://www.w3.org/Graphics/SVG/1.1/DTD/svg11.dtd">
<!-- Generated by graphviz version 12.1.2 (20240928.0832)
 -->
<!-- Title: content.v_tag_tree Pages: 1 -->
<svg width="323pt" height="352pt"
 viewBox="0.00 0.00 322.52 351.60" xmlns="http://www.w3.org/2000/svg" xmlns:xlink="http://www.w3.org/1999/xlink">
<g id="graph0" class="graph" transform="scale(1 1) rotate(0) translate(4 347.6)">
<title>content.v_tag_tree</title>
<polygon fill="white" stroke="none" points="-4,4 -4,-347.6 318.52,-347.6 318.52,4 -4,4"/>
<!-- content.v_tag_tree -->
<g id="node1" class="node">
<title>content.v_tag_tree</title>
<polygon fill="#efefef" stroke="none" points="46.2,-261.8 46.2,-297.4 268.32,-297.4 268.32,-261.8 46.2,-261.8"/>
<polygon fill="none" stroke="black" points="46.2,-261.8 46.2,-297.4 268.32,-297.4 268.32,-261.8 46.2,-261.8"/>
<text text-anchor="start" x="53.2" y="-275.2" font-family="Arial Bold" font-size="18.00">content.v_tag_tree</text>
<text text-anchor="start" x="186.64" y="-275.2" font-family="Arial" font-size="14.00">    </text>
<text text-anchor="start" x="217.76" y="-275.2" font-family="Arial" font-size="14.00" fill="#666666">[VIEW]</text>
<polygon fill="none" stroke="black" points="46.2,-231 46.2,-261.8 268.32,-261.8 268.32,-231 46.2,-231"/>
<text text-anchor="start" x="53.2" y="-243.2" font-family="Arial" font-size="14.00">identifier </text>
<text text-anchor="start" x="110.01" y="-243.2" font-family="Arial" font-size="14.00" fill="#666666">[integer]</text>
<polygon fill="none" stroke="black" points="46.2,-200.2 46.2,-231 268.32,-231 268.32,-200.2 46.2,-200.2"/>
<text text-anchor="start" x="53.2" y="-212.4" font-family="Arial" font-size="14.00">name </text>
<text text-anchor="start" x="92.11" y="-212.4" font-family="Arial" font-size="14.00" fill="#666666">[varchar(64)]</text>
<polygon fill="none" stroke="black" points="46.2,-169.4 46.2,-200.2 268.32,-200.2 268.32,-169.4 46.2,-169.4"/>
<text text-anchor="start" x="53.2" y="-181.6" font-family="Arial" font-size="14.00">slug </text>
<text text-anchor="start" x="82.77" y="-181.6" font-family="Arial" font-size="14.00" fill="#666666">[varchar(64)]</text>
<polygon fill="none" stroke="black" points="46.2,-138.6 46.2,-169.4 268.32,-169.4 268.32,-138.6 46.2,-138.6"/>
<text text-anchor="start" x="53.2" y="-150.8" font-family="Arial" font-size="14.00">depth </text>
<text text-anchor="start" x="92.12" y="-150.8" font-family="Arial" font-size="14.00" fill="#666666">[integer]</text>
<polygon fill="none" stroke="black" points="46.2,-107.8 46.2,-138.6 268.32,-138.6 268.32,-107.8 46.2,-107.8"/>
<text text-anchor="start" x="53.2" y="-120" font-family="Arial" font-size="14.00">parent_id </text>
<text text-anchor="start" x="115.47" y="-120" font-family="Arial" font-size="14.00" fill="#666666">[integer]</text>
<polygon fill="none" stroke="black" points="46.2,-77 46.2,-107.8 268.32,-107.8 268.32,-77 46.2,-77"/>
<text text-anchor="start" x="53.2" y="-89.2" font-family="Arial" font-size="14.00">breadcrumb </text>
<text text-anchor="start" x="131.79" y="-89.2" font-family="Arial" font-size="14.00" fill="#666666">[text]</text>
<polygon fill="none" stroke="black" points="46.2,-46.2 46.2,-77 268.32,-77 268.32,-46.2 46.2,-46.2"/>
<text text-anchor="start" x="53.2" y="-58.4" font-family="Arial" font-size="14.00">article_count </text>
<text text-anchor="start" x="136.47" y="-58.4" font-family="Arial" font-size="14.00" fill="#666666">[bigint]</text>
<polygon fill="none" stroke="black" stroke-width="3" points="44.7,-44.7 44.7,-298.9 269.82,-298.9 269.82,-44.7 44.7,-44.7"/>
</g>
</g>
</svg>
