<?xml version="1.0" encoding="UTF-8" standalone="no"?>
<!DOCTYPE svg PUBLIC "-//W3C//DTD SVG 1.1//EN"
 "http://www.w3.org/Graphics/SVG/1.1/DTD/svg11.dtd">
<!-- Generated by graphviz version 12.1.2 (20240928.0832)
 -->
<!-- Title: content.media_core Pages: 1 -->
<svg width="2549pt" height="1170pt"
 viewBox="0.00 0.00 2548.73 1170.48" xmlns="http://www.w3.org/2000/svg" xmlns:xlink="http://www.w3.org/1999/xlink">
<g id="graph0" class="graph" transform="scale(1 1) rotate(0) translate(4 1166.48)">
<title>content.media_core</title>
<polygon fill="white" stroke="none" points="-4,4 -4,-1166.48 2544.73,-1166.48 2544.73,4 -4,4"/>
<!-- content.media_core -->
<g id="node1" class="node">
<title>content.media_core</title>
<polygon fill="#efefef" stroke="none" points="1108.65,-553.08 1108.65,-588.68 1388.57,-588.68 1388.57,-553.08 1108.65,-553.08"/>
<polygon fill="none" stroke="black" points="1108.65,-553.08 1108.65,-588.68 1388.57,-588.68 1388.57,-553.08 1108.65,-553.08"/>
<text text-anchor="start" x="1115.65" y="-566.48" font-family="Arial Bold" font-size="18.00">content.media_core</text>
<text text-anchor="start" x="1257.08" y="-566.48" font-family="Arial" font-size="14.00">    </text>
<text text-anchor="start" x="1288.2" y="-566.48" font-family="Arial" font-size="14.00" fill="#666666">[BASE TABLE]</text>
<polygon fill="none" stroke="black" points="1108.65,-522.28 1108.65,-553.08 1388.57,-553.08 1388.57,-522.28 1108.65,-522.28"/>
<text text-anchor="start" x="1115.65" y="-534.48" font-family="Arial" font-size="14.00">created_at </text>
<text text-anchor="start" x="1185.69" y="-534.48" font-family="Arial" font-size="14.00" fill="#666666">[timestamp with time zone]</text>
<polygon fill="none" stroke="black" points="1108.65,-491.48 1108.65,-522.28 1388.57,-522.28 1388.57,-491.48 1108.65,-491.48"/>
<text text-anchor="start" x="1115.65" y="-503.68" font-family="Arial" font-size="14.00">modified_at </text>
<text text-anchor="start" x="1191.92" y="-503.68" font-family="Arial" font-size="14.00" fill="#666666">[timestamp with time zone]</text>
<polygon fill="none" stroke="black" points="1108.65,-460.68 1108.65,-491.48 1388.57,-491.48 1388.57,-460.68 1108.65,-460.68"/>
<text text-anchor="start" x="1115.65" y="-472.88" font-family="Arial" font-size="14.00">id </text>
<text text-anchor="start" x="1130.43" y="-472.88" font-family="Arial" font-size="14.00" fill="#666666">[integer]</text>
<polygon fill="none" stroke="black" points="1108.65,-429.88 1108.65,-460.68 1388.57,-460.68 1388.57,-429.88 1108.65,-429.88"/>
<text text-anchor="start" x="1115.65" y="-442.08" font-family="Arial" font-size="14.00">author_id </text>
<text text-anchor="start" x="1177.92" y="-442.08" font-family="Arial" font-size="14.00" fill="#666666">[integer]</text>
<polygon fill="none" stroke="black" points="1108.65,-399.08 1108.65,-429.88 1388.57,-429.88 1388.57,-399.08 1108.65,-399.08"/>
<text text-anchor="start" x="1115.65" y="-411.28" font-family="Arial" font-size="14.00">width </text>
<text text-anchor="start" x="1152.22" y="-411.28" font-family="Arial" font-size="14.00" fill="#666666">[integer]</text>
<polygon fill="none" stroke="black" points="1108.65,-368.28 1108.65,-399.08 1388.57,-399.08 1388.57,-368.28 1108.65,-368.28"/>
<text text-anchor="start" x="1115.65" y="-380.48" font-family="Arial" font-size="14.00">height </text>
<text text-anchor="start" x="1157.68" y="-380.48" font-family="Arial" font-size="14.00" fill="#666666">[integer]</text>
<polygon fill="none" stroke="black" points="1108.65,-337.48 1108.65,-368.28 1388.57,-368.28 1388.57,-337.48 1108.65,-337.48"/>
<text text-anchor="start" x="1115.65" y="-349.68" font-family="Arial" font-size="14.00">mime_type </text>
<text text-anchor="start" x="1188.01" y="-349.68" font-family="Arial" font-size="14.00" fill="#666666">[varchar(255)]</text>
<polygon fill="none" stroke="black" points="1108.65,-306.68 1108.65,-337.48 1388.57,-337.48 1388.57,-306.68 1108.65,-306.68"/>
<text text-anchor="start" x="1115.65" y="-318.88" font-family="Arial" font-size="14.00">folder_url </text>
<text text-anchor="start" x="1177.9" y="-318.88" font-family="Arial" font-size="14.00" fill="#666666">[varchar(255)]</text>
<polygon fill="none" stroke="black" points="1108.65,-275.88 1108.65,-306.68 1388.57,-306.68 1388.57,-275.88 1108.65,-275.88"/>
<text text-anchor="start" x="1115.65" y="-288.08" font-family="Arial" font-size="14.00">file_name </text>
<text text-anchor="start" x="1180.24" y="-288.08" font-family="Arial" font-size="14.00" fill="#666666">[varchar(255)]</text>
<polygon fill="none" stroke="black" stroke-width="3" points="1107.15,-274.38 1107.15,-590.18 1390.07,-590.18 1390.07,-274.38 1107.15,-274.38"/>
</g>
<!-- identity.entity -->
<g id="node8" class="node">
<title>identity.entity</title>
<polygon fill="#efefef" stroke="none" points="1109.33,-114.88 1109.33,-150.48 1387.89,-150.48 1387.89,-114.88 1109.33,-114.88"/>
<polygon fill="none" stroke="black" points="1109.33,-114.88 1109.33,-150.48 1387.89,-150.48 1387.89,-114.88 1109.33,-114.88"/>
<text text-anchor="start" x="1136.12" y="-128.28" font-family="Arial Bold" font-size="18.00">identity.entity</text>
<text text-anchor="start" x="1236.61" y="-128.28" font-family="Arial" font-size="14.00">    </text>
<text text-anchor="start" x="1267.72" y="-128.28" font-family="Arial" font-size="14.00" fill="#666666">[BASE TABLE]</text>
<polygon fill="none" stroke="black" points="1109.33,-84.08 1109.33,-114.88 1387.89,-114.88 1387.89,-84.08 1109.33,-84.08"/>
<text text-anchor="start" x="1116.33" y="-96.28" font-family="Arial" font-size="14.00">anonymized_at </text>
<text text-anchor="start" x="1215.17" y="-96.28" font-family="Arial" font-size="14.00" fill="#666666">[timestamp with time zone]</text>
<polygon fill="none" stroke="black" points="1109.33,-53.28 1109.33,-84.08 1387.89,-84.08 1387.89,-53.28 1109.33,-53.28"/>
<text text-anchor="start" x="1116.33" y="-65.48" font-family="Arial" font-size="14.00">id </text>
<text text-anchor="start" x="1131.11" y="-65.48" font-family="Arial" font-size="14.00" fill="#666666">[integer]</text>
</g>
<!-- content.media_core&#45;&gt;identity.entity -->
<g id="edge7" class="edge">
<title>content.media_core:author_id&#45;&gt;identity.entity:id</title>
<path fill="none" stroke="black" d="M1399.62,-444.98C1564.33,-434.87 1552.22,-175.07 1431.09,-53.28 1373.9,4.23 1248.61,28.83 1248.61,-52.28"/>
<polygon fill="black" stroke="black" points="1399.9,-444.97 1389.77,-440.77 1394.57,-445.13 1390.24,-445.26 1390.24,-445.26 1390.24,-445.26 1394.57,-445.13 1390.04,-449.77 1399.9,-444.97"/>
<text text-anchor="start" x="1396.57" y="-455.28" font-family="Arial" font-size="10.00">FOREIGN KEY (author_id) REFERENCES identity.entity(id) ON DELETE SET NULL</text>
</g>
<!-- identity.account_core -->
<g id="node2" class="node">
<title>identity.account_core</title>
<polygon fill="#efefef" stroke="none" points="123.65,-1083.68 123.65,-1119.28 417.57,-1119.28 417.57,-1083.68 123.65,-1083.68"/>
<polygon fill="none" stroke="black" points="123.65,-1083.68 123.65,-1119.28 417.57,-1119.28 417.57,-1083.68 123.65,-1083.68"/>
<text text-anchor="start" x="130.65" y="-1097.08" font-family="Arial Bold" font-size="18.00">identity.account_core</text>
<text text-anchor="start" x="286.08" y="-1097.08" font-family="Arial" font-size="14.00">    </text>
<text text-anchor="start" x="317.2" y="-1097.08" font-family="Arial" font-size="14.00" fill="#666666">[BASE TABLE]</text>
<polygon fill="none" stroke="black" points="123.65,-1052.88 123.65,-1083.68 417.57,-1083.68 417.57,-1052.88 123.65,-1052.88"/>
<text text-anchor="start" x="130.65" y="-1065.08" font-family="Arial" font-size="14.00">tos_accepted_at </text>
<text text-anchor="start" x="237.28" y="-1065.08" font-family="Arial" font-size="14.00" fill="#666666">[timestamp with time zone]</text>
<polygon fill="none" stroke="black" points="123.65,-1022.08 123.65,-1052.88 417.57,-1052.88 417.57,-1022.08 123.65,-1022.08"/>
<text text-anchor="start" x="130.65" y="-1034.28" font-family="Arial" font-size="14.00">entity_id </text>
<text text-anchor="start" x="186.68" y="-1034.28" font-family="Arial" font-size="14.00" fill="#666666">[integer]</text>
<polygon fill="none" stroke="black" points="123.65,-991.28 123.65,-1022.08 417.57,-1022.08 417.57,-991.28 123.65,-991.28"/>
<text text-anchor="start" x="130.65" y="-1003.48" font-family="Arial" font-size="14.00">person_entity_id </text>
<text text-anchor="start" x="237.27" y="-1003.48" font-family="Arial" font-size="14.00" fill="#666666">[integer]</text>
<polygon fill="none" stroke="black" points="123.65,-960.48 123.65,-991.28 417.57,-991.28 417.57,-960.48 123.65,-960.48"/>
<text text-anchor="start" x="130.65" y="-972.68" font-family="Arial" font-size="14.00">media_id </text>
<text text-anchor="start" x="191.35" y="-972.68" font-family="Arial" font-size="14.00" fill="#666666">[integer]</text>
<polygon fill="none" stroke="black" points="123.65,-929.68 123.65,-960.48 417.57,-960.48 417.57,-929.68 123.65,-929.68"/>
<text text-anchor="start" x="130.65" y="-941.88" font-family="Arial" font-size="14.00">site_style </text>
<text text-anchor="start" x="192.89" y="-941.88" font-family="Arial" font-size="14.00" fill="#666666">[smallint]</text>
<polygon fill="none" stroke="black" points="123.65,-898.88 123.65,-929.68 417.57,-929.68 417.57,-898.88 123.65,-898.88"/>
<text text-anchor="start" x="130.65" y="-911.08" font-family="Arial" font-size="14.00">display_mode </text>
<text text-anchor="start" x="220.92" y="-911.08" font-family="Arial" font-size="14.00" fill="#666666">[smallint]</text>
<polygon fill="none" stroke="black" points="123.65,-868.08 123.65,-898.88 417.57,-898.88 417.57,-868.08 123.65,-868.08"/>
<text text-anchor="start" x="130.65" y="-880.28" font-family="Arial" font-size="14.00">is_visible </text>
<text text-anchor="start" x="191.34" y="-880.28" font-family="Arial" font-size="14.00" fill="#666666">[boolean]</text>
<polygon fill="none" stroke="black" points="123.65,-837.28 123.65,-868.08 417.57,-868.08 417.57,-837.28 123.65,-837.28"/>
<text text-anchor="start" x="130.65" y="-849.48" font-family="Arial" font-size="14.00">is_private_message </text>
<text text-anchor="start" x="259.05" y="-849.48" font-family="Arial" font-size="14.00" fill="#666666">[boolean]</text>
<polygon fill="none" stroke="black" points="123.65,-806.48 123.65,-837.28 417.57,-837.28 417.57,-806.48 123.65,-806.48"/>
<text text-anchor="start" x="130.65" y="-818.68" font-family="Arial" font-size="14.00">username </text>
<text text-anchor="start" x="196.79" y="-818.68" font-family="Arial" font-size="14.00" fill="#666666">[varchar(32)]</text>
<polygon fill="none" stroke="black" points="123.65,-775.68 123.65,-806.48 417.57,-806.48 417.57,-775.68 123.65,-775.68"/>
<text text-anchor="start" x="130.65" y="-787.88" font-family="Arial" font-size="14.00">slug </text>
<text text-anchor="start" x="160.22" y="-787.88" font-family="Arial" font-size="14.00" fill="#666666">[varchar(32)]</text>
<polygon fill="none" stroke="black" points="123.65,-744.88 123.65,-775.68 417.57,-775.68 417.57,-744.88 123.65,-744.88"/>
<text text-anchor="start" x="130.65" y="-757.08" font-family="Arial" font-size="14.00">language </text>
<text text-anchor="start" x="192.15" y="-757.08" font-family="Arial" font-size="14.00" fill="#666666">[varchar(5)]</text>
<polygon fill="none" stroke="black" points="123.65,-714.08 123.65,-744.88 417.57,-744.88 417.57,-714.08 123.65,-714.08"/>
<text text-anchor="start" x="130.65" y="-726.28" font-family="Arial" font-size="14.00">time_zone </text>
<text text-anchor="start" x="199.13" y="-726.28" font-family="Arial" font-size="14.00" fill="#666666">[text]</text>
</g>
<!-- identity.account_core&#45;&gt;content.media_core -->
<g id="edge1" class="edge">
<title>identity.account_core:media_id&#45;&gt;content.media_core:id</title>
<path fill="none" stroke="black" d="M428.7,-973.68C480.72,-948.77 426.77,-719.71 469.61,-670.88 567.38,-559.44 959.4,-476.08 1107.65,-476.08"/>
<polygon fill="black" stroke="black" points="428.67,-973.69 417.94,-971.41 423.46,-974.82 419.22,-975.74 419.22,-975.74 419.22,-975.74 423.46,-974.82 419.85,-980.21 428.67,-973.69"/>
<text text-anchor="start" x="7" y="-985.88" font-family="Arial" font-size="10.00">FOREIGN KEY (media_id) REFERENCES content.media_core(id) ON DELETE SET NULL</text>
</g>
<!-- identity.person_content -->
<g id="node3" class="node">
<title>identity.person_content</title>
<polygon fill="#efefef" stroke="none" points="521.63,-1022.08 521.63,-1057.68 829.58,-1057.68 829.58,-1022.08 521.63,-1022.08"/>
<polygon fill="none" stroke="black" points="521.63,-1022.08 521.63,-1057.68 829.58,-1057.68 829.58,-1022.08 521.63,-1022.08"/>
<text text-anchor="start" x="528.63" y="-1035.48" font-family="Arial Bold" font-size="18.00">identity.person_content</text>
<text text-anchor="start" x="698.09" y="-1035.48" font-family="Arial" font-size="14.00">    </text>
<text text-anchor="start" x="729.21" y="-1035.48" font-family="Arial" font-size="14.00" fill="#666666">[BASE TABLE]</text>
<polygon fill="none" stroke="black" points="521.63,-991.28 521.63,-1022.08 829.58,-1022.08 829.58,-991.28 521.63,-991.28"/>
<text text-anchor="start" x="528.63" y="-1003.48" font-family="Arial" font-size="14.00">entity_id </text>
<text text-anchor="start" x="584.67" y="-1003.48" font-family="Arial" font-size="14.00" fill="#666666">[integer]</text>
<polygon fill="none" stroke="black" points="521.63,-960.48 521.63,-991.28 829.58,-991.28 829.58,-960.48 521.63,-960.48"/>
<text text-anchor="start" x="528.63" y="-972.68" font-family="Arial" font-size="14.00">media_id </text>
<text text-anchor="start" x="589.34" y="-972.68" font-family="Arial" font-size="14.00" fill="#666666">[integer]</text>
<polygon fill="none" stroke="black" points="521.63,-929.68 521.63,-960.48 829.58,-960.48 829.58,-929.68 521.63,-929.68"/>
<text text-anchor="start" x="528.63" y="-941.88" font-family="Arial" font-size="14.00">occupation </text>
<text text-anchor="start" x="600.24" y="-941.88" font-family="Arial" font-size="14.00" fill="#666666">[varchar(30)]</text>
<polygon fill="none" stroke="black" points="521.63,-898.88 521.63,-929.68 829.58,-929.68 829.58,-898.88 521.63,-898.88"/>
<text text-anchor="start" x="528.63" y="-911.08" font-family="Arial" font-size="14.00">bias </text>
<text text-anchor="start" x="558.21" y="-911.08" font-family="Arial" font-size="14.00" fill="#666666">[varchar(30)]</text>
<polygon fill="none" stroke="black" points="521.63,-868.08 521.63,-898.88 829.58,-898.88 829.58,-868.08 521.63,-868.08"/>
<text text-anchor="start" x="528.63" y="-880.28" font-family="Arial" font-size="14.00">hobby </text>
<text text-anchor="start" x="570.67" y="-880.28" font-family="Arial" font-size="14.00" fill="#666666">[varchar(64)]</text>
<polygon fill="none" stroke="black" points="521.63,-837.28 521.63,-868.08 829.58,-868.08 829.58,-837.28 521.63,-837.28"/>
<text text-anchor="start" x="528.63" y="-849.48" font-family="Arial" font-size="14.00">award </text>
<text text-anchor="start" x="570.65" y="-849.48" font-family="Arial" font-size="14.00" fill="#666666">[varchar(128)]</text>
<polygon fill="none" stroke="black" points="521.63,-806.48 521.63,-837.28 829.58,-837.28 829.58,-806.48 521.63,-806.48"/>
<text text-anchor="start" x="528.63" y="-818.68" font-family="Arial" font-size="14.00">devise </text>
<text text-anchor="start" x="572.99" y="-818.68" font-family="Arial" font-size="14.00" fill="#666666">[varchar(100)]</text>
<polygon fill="none" stroke="black" points="521.63,-775.68 521.63,-806.48 829.58,-806.48 829.58,-775.68 521.63,-775.68"/>
<text text-anchor="start" x="528.63" y="-787.88" font-family="Arial" font-size="14.00">description </text>
<text text-anchor="start" x="600.23" y="-787.88" font-family="Arial" font-size="14.00" fill="#666666">[text]</text>
</g>
<!-- identity.person_content&#45;&gt;content.media_core -->
<g id="edge2" class="edge">
<title>identity.person_content:media_id&#45;&gt;content.media_core:id</title>
<path fill="none" stroke="black" d="M840.48,-973.9C894.12,-950.54 849.68,-727.61 881.61,-670.88 946.65,-555.31 975.03,-476.08 1107.65,-476.08"/>
<polygon fill="black" stroke="black" points="840.72,-973.85 830.03,-971.4 835.49,-974.9 831.24,-975.75 831.24,-975.75 831.24,-975.75 835.49,-974.9 831.8,-980.23 840.72,-973.85"/>
<text text-anchor="start" x="419.01" y="-985.88" font-family="Arial" font-size="10.00">FOREIGN KEY (media_id) REFERENCES content.media_core(id) ON DELETE SET NULL</text>
</g>
<!-- org.org_core -->
<g id="node4" class="node">
<title>org.org_core</title>
<polygon fill="#efefef" stroke="none" points="933.72,-1022.08 933.72,-1057.68 1183.49,-1057.68 1183.49,-1022.08 933.72,-1022.08"/>
<polygon fill="none" stroke="black" points="933.72,-1022.08 933.72,-1057.68 1183.49,-1057.68 1183.49,-1022.08 933.72,-1022.08"/>
<text text-anchor="start" x="950.13" y="-1035.48" font-family="Arial Bold" font-size="18.00">org.org_core</text>
<text text-anchor="start" x="1042.59" y="-1035.48" font-family="Arial" font-size="14.00">    </text>
<text text-anchor="start" x="1073.71" y="-1035.48" font-family="Arial" font-size="14.00" fill="#666666">[BASE TABLE]</text>
<polygon fill="none" stroke="black" points="933.72,-991.28 933.72,-1022.08 1183.49,-1022.08 1183.49,-991.28 933.72,-991.28"/>
<text text-anchor="start" x="940.72" y="-1003.48" font-family="Arial" font-size="14.00">created_at </text>
<text text-anchor="start" x="1010.77" y="-1003.48" font-family="Arial" font-size="14.00" fill="#666666">[timestamp with time zone]</text>
<polygon fill="none" stroke="black" points="933.72,-960.48 933.72,-991.28 1183.49,-991.28 1183.49,-960.48 933.72,-960.48"/>
<text text-anchor="start" x="940.72" y="-972.68" font-family="Arial" font-size="14.00">entity_id </text>
<text text-anchor="start" x="996.76" y="-972.68" font-family="Arial" font-size="14.00" fill="#666666">[integer]</text>
<polygon fill="none" stroke="black" points="933.72,-929.68 933.72,-960.48 1183.49,-960.48 1183.49,-929.68 933.72,-929.68"/>
<text text-anchor="start" x="940.72" y="-941.88" font-family="Arial" font-size="14.00">place_id </text>
<text text-anchor="start" x="996.76" y="-941.88" font-family="Arial" font-size="14.00" fill="#666666">[integer]</text>
<polygon fill="none" stroke="black" points="933.72,-898.88 933.72,-929.68 1183.49,-929.68 1183.49,-898.88 933.72,-898.88"/>
<text text-anchor="start" x="940.72" y="-911.08" font-family="Arial" font-size="14.00">contact_entity_id </text>
<text text-anchor="start" x="1049.68" y="-911.08" font-family="Arial" font-size="14.00" fill="#666666">[integer]</text>
<polygon fill="none" stroke="black" points="933.72,-868.08 933.72,-898.88 1183.49,-898.88 1183.49,-868.08 933.72,-868.08"/>
<text text-anchor="start" x="940.72" y="-880.28" font-family="Arial" font-size="14.00">media_id </text>
<text text-anchor="start" x="1001.43" y="-880.28" font-family="Arial" font-size="14.00" fill="#666666">[integer]</text>
<polygon fill="none" stroke="black" points="933.72,-837.28 933.72,-868.08 1183.49,-868.08 1183.49,-837.28 933.72,-837.28"/>
<text text-anchor="start" x="940.72" y="-849.48" font-family="Arial" font-size="14.00">parent_entity_id </text>
<text text-anchor="start" x="1044.24" y="-849.48" font-family="Arial" font-size="14.00" fill="#666666">[integer]</text>
<polygon fill="none" stroke="black" points="933.72,-806.48 933.72,-837.28 1183.49,-837.28 1183.49,-806.48 933.72,-806.48"/>
<text text-anchor="start" x="940.72" y="-818.68" font-family="Arial" font-size="14.00">type </text>
<text text-anchor="start" x="971.07" y="-818.68" font-family="Arial" font-size="14.00" fill="#666666">[varchar(30)]</text>
<polygon fill="none" stroke="black" points="933.72,-775.68 933.72,-806.48 1183.49,-806.48 1183.49,-775.68 933.72,-775.68"/>
<text text-anchor="start" x="940.72" y="-787.88" font-family="Arial" font-size="14.00">purpose </text>
<text text-anchor="start" x="995.21" y="-787.88" font-family="Arial" font-size="14.00" fill="#666666">[varchar(30)]</text>
</g>
<!-- org.org_core&#45;&gt;content.media_core -->
<g id="edge3" class="edge">
<title>org.org_core:media_id&#45;&gt;content.media_core:id</title>
<path fill="none" stroke="black" d="M1194.83,-882.66C1246.44,-873.64 1204.03,-792.37 1183.49,-732.48 1165.76,-680.77 1126.37,-686.59 1108.65,-634.88 1085.76,-568.11 1037.07,-476.08 1107.65,-476.08"/>
<polygon fill="black" stroke="black" points="1194.8,-882.66 1184.47,-878.97 1189.48,-883.08 1185.16,-883.43 1185.16,-883.43 1185.16,-883.43 1189.48,-883.08 1185.18,-887.94 1194.8,-882.66"/>
<text text-anchor="start" x="772.92" y="-893.48" font-family="Arial" font-size="10.00">FOREIGN KEY (media_id) REFERENCES content.media_core(id) ON DELETE SET NULL</text>
</g>
<!-- content.media_content -->
<g id="node5" class="node">
<title>content.media_content</title>
<polygon fill="#efefef" stroke="none" points="1287.64,-960.48 1287.64,-996.08 1589.57,-996.08 1589.57,-960.48 1287.64,-960.48"/>
<polygon fill="none" stroke="black" points="1287.64,-960.48 1287.64,-996.08 1589.57,-996.08 1589.57,-960.48 1287.64,-960.48"/>
<text text-anchor="start" x="1294.64" y="-973.88" font-family="Arial Bold" font-size="18.00">content.media_content</text>
<text text-anchor="start" x="1458.08" y="-973.88" font-family="Arial" font-size="14.00">    </text>
<text text-anchor="start" x="1489.2" y="-973.88" font-family="Arial" font-size="14.00" fill="#666666">[BASE TABLE]</text>
<polygon fill="none" stroke="black" points="1287.64,-929.68 1287.64,-960.48 1589.57,-960.48 1589.57,-929.68 1287.64,-929.68"/>
<text text-anchor="start" x="1294.64" y="-941.88" font-family="Arial" font-size="14.00">media_id </text>
<text text-anchor="start" x="1355.35" y="-941.88" font-family="Arial" font-size="14.00" fill="#666666">[integer]</text>
<polygon fill="none" stroke="black" points="1287.64,-898.88 1287.64,-929.68 1589.57,-929.68 1589.57,-898.88 1287.64,-898.88"/>
<text text-anchor="start" x="1294.64" y="-911.08" font-family="Arial" font-size="14.00">name </text>
<text text-anchor="start" x="1333.55" y="-911.08" font-family="Arial" font-size="14.00" fill="#666666">[varchar(255)]</text>
<polygon fill="none" stroke="black" points="1287.64,-868.08 1287.64,-898.88 1589.57,-898.88 1589.57,-868.08 1287.64,-868.08"/>
<text text-anchor="start" x="1294.64" y="-880.28" font-family="Arial" font-size="14.00">description </text>
<text text-anchor="start" x="1366.24" y="-880.28" font-family="Arial" font-size="14.00" fill="#666666">[varchar(255)]</text>
<polygon fill="none" stroke="black" points="1287.64,-837.28 1287.64,-868.08 1589.57,-868.08 1589.57,-837.28 1287.64,-837.28"/>
<text text-anchor="start" x="1294.64" y="-849.48" font-family="Arial" font-size="14.00">copyright_notice </text>
<text text-anchor="start" x="1400.48" y="-849.48" font-family="Arial" font-size="14.00" fill="#666666">[varchar(255)]</text>
</g>
<!-- content.media_content&#45;&gt;content.media_core -->
<g id="edge4" class="edge">
<title>content.media_content:media_id&#45;&gt;content.media_core:id</title>
<path fill="none" stroke="black" d="M1276.33,-944.27C1225.01,-935.34 1269.79,-854.82 1287.64,-794.08 1311.26,-713.7 1364.96,-715.26 1388.57,-634.88 1408.46,-567.16 1460.15,-476.08 1389.57,-476.08"/>
<polygon fill="black" stroke="black" points="1276.34,-944.27 1285.96,-949.54 1281.66,-944.69 1285.98,-945.03 1285.98,-945.03 1285.98,-945.03 1281.66,-944.69 1286.66,-940.57 1276.34,-944.27"/>
<text text-anchor="start" x="1084.08" y="-929.08" font-family="Arial" font-size="10.00">FOREIGN KEY (media_id) REFERENCES content.media_core(id) ON DELETE CASCADE</text>
</g>
<!-- content.content_to_media -->
<g id="node6" class="node">
<title>content.content_to_media</title>
<polygon fill="#efefef" stroke="none" points="1694.14,-945.08 1694.14,-980.68 2019.07,-980.68 2019.07,-945.08 1694.14,-945.08"/>
<polygon fill="none" stroke="black" points="1694.14,-945.08 1694.14,-980.68 2019.07,-980.68 2019.07,-945.08 1694.14,-945.08"/>
<text text-anchor="start" x="1701.14" y="-958.48" font-family="Arial Bold" font-size="18.00">content.content_to_media</text>
<text text-anchor="start" x="1887.58" y="-958.48" font-family="Arial" font-size="14.00">    </text>
<text text-anchor="start" x="1918.7" y="-958.48" font-family="Arial" font-size="14.00" fill="#666666">[BASE TABLE]</text>
<polygon fill="none" stroke="black" points="1694.14,-914.28 1694.14,-945.08 2019.07,-945.08 2019.07,-914.28 1694.14,-914.28"/>
<text text-anchor="start" x="1701.14" y="-926.48" font-family="Arial" font-size="14.00">content_id </text>
<text text-anchor="start" x="1769.64" y="-926.48" font-family="Arial" font-size="14.00" fill="#666666">[integer]</text>
<polygon fill="none" stroke="black" points="1694.14,-883.48 1694.14,-914.28 2019.07,-914.28 2019.07,-883.48 1694.14,-883.48"/>
<text text-anchor="start" x="1701.14" y="-895.68" font-family="Arial" font-size="14.00">media_id </text>
<text text-anchor="start" x="1761.85" y="-895.68" font-family="Arial" font-size="14.00" fill="#666666">[integer]</text>
<polygon fill="none" stroke="black" points="1694.14,-852.68 1694.14,-883.48 2019.07,-883.48 2019.07,-852.68 1694.14,-852.68"/>
<text text-anchor="start" x="1701.14" y="-864.88" font-family="Arial" font-size="14.00">position </text>
<text text-anchor="start" x="1753.29" y="-864.88" font-family="Arial" font-size="14.00" fill="#666666">[smallint]</text>
</g>
<!-- content.content_to_media&#45;&gt;content.media_core -->
<g id="edge5" class="edge">
<title>content.content_to_media:media_id&#45;&gt;content.media_core:id</title>
<path fill="none" stroke="black" d="M1682.96,-898.37C1596.66,-889.07 1695.49,-755.4 1641.61,-670.88 1565.5,-551.5 1531.15,-476.08 1389.57,-476.08"/>
<polygon fill="black" stroke="black" points="1682.82,-898.36 1692.58,-903.36 1688.15,-898.63 1692.47,-898.85 1692.47,-898.85 1692.47,-898.85 1688.15,-898.63 1693.03,-894.37 1682.82,-898.36"/>
<text text-anchor="start" x="1700.14" y="-908.88" font-family="Arial" font-size="10.00">FOREIGN KEY (media_id) REFERENCES content.media_core(id) ON UPDATE CASCADE ON DELETE CASCADE</text>
</g>
<!-- commerce.product_core -->
<g id="node7" class="node">
<title>commerce.product_core</title>
<polygon fill="#efefef" stroke="none" points="2123.16,-975.88 2123.16,-1011.48 2436.06,-1011.48 2436.06,-975.88 2123.16,-975.88"/>
<polygon fill="none" stroke="black" points="2123.16,-975.88 2123.16,-1011.48 2436.06,-1011.48 2436.06,-975.88 2123.16,-975.88"/>
<text text-anchor="start" x="2130.16" y="-989.28" font-family="Arial Bold" font-size="18.00">commerce.product_core</text>
<text text-anchor="start" x="2304.57" y="-989.28" font-family="Arial" font-size="14.00">    </text>
<text text-anchor="start" x="2335.69" y="-989.28" font-family="Arial" font-size="14.00" fill="#666666">[BASE TABLE]</text>
<polygon fill="none" stroke="black" points="2123.16,-945.08 2123.16,-975.88 2436.06,-975.88 2436.06,-945.08 2123.16,-945.08"/>
<text text-anchor="start" x="2130.16" y="-957.28" font-family="Arial" font-size="14.00">price_cents </text>
<text text-anchor="start" x="2205.64" y="-957.28" font-family="Arial" font-size="14.00" fill="#666666">[bigint]</text>
<polygon fill="none" stroke="black" points="2123.16,-914.28 2123.16,-945.08 2436.06,-945.08 2436.06,-914.28 2123.16,-914.28"/>
<text text-anchor="start" x="2130.16" y="-926.48" font-family="Arial" font-size="14.00">id </text>
<text text-anchor="start" x="2144.94" y="-926.48" font-family="Arial" font-size="14.00" fill="#666666">[integer]</text>
<polygon fill="none" stroke="black" points="2123.16,-883.48 2123.16,-914.28 2436.06,-914.28 2436.06,-883.48 2123.16,-883.48"/>
<text text-anchor="start" x="2130.16" y="-895.68" font-family="Arial" font-size="14.00">stock </text>
<text text-anchor="start" x="2166.72" y="-895.68" font-family="Arial" font-size="14.00" fill="#666666">[integer]</text>
<polygon fill="none" stroke="black" points="2123.16,-852.68 2123.16,-883.48 2436.06,-883.48 2436.06,-852.68 2123.16,-852.68"/>
<text text-anchor="start" x="2130.16" y="-864.88" font-family="Arial" font-size="14.00">media_id </text>
<text text-anchor="start" x="2190.86" y="-864.88" font-family="Arial" font-size="14.00" fill="#666666">[integer]</text>
<polygon fill="none" stroke="black" points="2123.16,-821.88 2123.16,-852.68 2436.06,-852.68 2436.06,-821.88 2123.16,-821.88"/>
<text text-anchor="start" x="2130.16" y="-834.08" font-family="Arial" font-size="14.00">is_available </text>
<text text-anchor="start" x="2207.21" y="-834.08" font-family="Arial" font-size="14.00" fill="#666666">[boolean]</text>
</g>
<!-- commerce.product_core&#45;&gt;content.media_core -->
<g id="edge6" class="edge">
<title>commerce.product_core:media_id&#45;&gt;content.media_core:id</title>
<path fill="none" stroke="black" d="M2111.98,-867.42C2039.85,-857.34 2132.12,-733.06 2071.61,-670.88 1961.68,-557.91 1547.19,-476.08 1389.57,-476.08"/>
<polygon fill="black" stroke="black" points="2111.85,-867.42 2121.54,-872.55 2117.17,-867.76 2121.49,-868.04 2121.49,-868.04 2121.49,-868.04 2117.17,-867.76 2122.11,-863.57 2111.85,-867.42"/>
<text text-anchor="start" x="2129.16" y="-878.08" font-family="Arial" font-size="10.00">FOREIGN KEY (media_id) REFERENCES content.media_core(id) ON DELETE SET NULL</text>
</g>
</g>
</svg>
