<?xml version="1.0" encoding="UTF-8" standalone="no"?>
<!DOCTYPE svg PUBLIC "-//W3C//DTD SVG 1.1//EN"
 "http://www.w3.org/Graphics/SVG/1.1/DTD/svg11.dtd">
<!-- Generated by graphviz version 12.1.2 (20240928.0832)
 -->
<!-- Title: geo.place_content Pages: 1 -->
<svg width="720pt" height="510pt"
 viewBox="0.00 0.00 720.47 509.60" xmlns="http://www.w3.org/2000/svg" xmlns:xlink="http://www.w3.org/1999/xlink">
<g id="graph0" class="graph" transform="scale(1 1) rotate(0) translate(4 505.6)">
<title>geo.place_content</title>
<polygon fill="white" stroke="none" points="-4,4 -4,-505.6 716.47,-505.6 716.47,4 -4,4"/>
<!-- geo.place_content -->
<g id="node1" class="node">
<title>geo.place_content</title>
<polygon fill="#efefef" stroke="none" points="46.2,-419.8 46.2,-455.4 315.13,-455.4 315.13,-419.8 46.2,-419.8"/>
<polygon fill="none" stroke="black" points="46.2,-419.8 46.2,-455.4 315.13,-455.4 315.13,-419.8 46.2,-419.8"/>
<text text-anchor="start" x="53.2" y="-433.2" font-family="Arial Bold" font-size="18.00">geo.place_content</text>
<text text-anchor="start" x="183.64" y="-433.2" font-family="Arial" font-size="14.00">    </text>
<text text-anchor="start" x="214.76" y="-433.2" font-family="Arial" font-size="14.00" fill="#666666">[BASE TABLE]</text>
<polygon fill="none" stroke="black" points="46.2,-389 46.2,-419.8 315.13,-419.8 315.13,-389 46.2,-389"/>
<text text-anchor="start" x="53.2" y="-401.2" font-family="Arial" font-size="14.00">place_id </text>
<text text-anchor="start" x="109.24" y="-401.2" font-family="Arial" font-size="14.00" fill="#666666">[integer]</text>
<polygon fill="none" stroke="black" points="46.2,-358.2 46.2,-389 315.13,-389 315.13,-358.2 46.2,-358.2"/>
<text text-anchor="start" x="53.2" y="-370.4" font-family="Arial" font-size="14.00">description </text>
<text text-anchor="start" x="124.79" y="-370.4" font-family="Arial" font-size="14.00" fill="#666666">[text]</text>
<polygon fill="none" stroke="black" stroke-width="3" points="44.7,-356.7 44.7,-456.9 316.63,-456.9 316.63,-356.7 44.7,-356.7"/>
</g>
<!-- geo.place_core -->
<g id="node2" class="node">
<title>geo.place_core</title>
<polygon fill="#efefef" stroke="none" points="57.2,-197.2 57.2,-232.8 304.12,-232.8 304.12,-197.2 57.2,-197.2"/>
<polygon fill="none" stroke="black" points="57.2,-197.2 57.2,-232.8 304.12,-232.8 304.12,-197.2 57.2,-197.2"/>
<text text-anchor="start" x="64.2" y="-210.6" font-family="Arial Bold" font-size="18.00">geo.place_core</text>
<text text-anchor="start" x="172.63" y="-210.6" font-family="Arial" font-size="14.00">    </text>
<text text-anchor="start" x="203.75" y="-210.6" font-family="Arial" font-size="14.00" fill="#666666">[BASE TABLE]</text>
<polygon fill="none" stroke="black" points="57.2,-166.4 57.2,-197.2 304.12,-197.2 304.12,-166.4 57.2,-166.4"/>
<text text-anchor="start" x="64.2" y="-178.6" font-family="Arial" font-size="14.00">id </text>
<text text-anchor="start" x="78.99" y="-178.6" font-family="Arial" font-size="14.00" fill="#666666">[integer]</text>
<polygon fill="none" stroke="black" points="57.2,-135.6 57.2,-166.4 304.12,-166.4 304.12,-135.6 57.2,-135.6"/>
<text text-anchor="start" x="64.2" y="-147.8" font-family="Arial" font-size="14.00">elevation </text>
<text text-anchor="start" x="124.13" y="-147.8" font-family="Arial" font-size="14.00" fill="#666666">[smallint]</text>
<polygon fill="none" stroke="black" points="57.2,-104.8 57.2,-135.6 304.12,-135.6 304.12,-104.8 57.2,-104.8"/>
<text text-anchor="start" x="64.2" y="-117" font-family="Arial" font-size="14.00">type_id </text>
<text text-anchor="start" x="113.24" y="-117" font-family="Arial" font-size="14.00" fill="#666666">[smallint]</text>
<polygon fill="none" stroke="black" points="57.2,-74 57.2,-104.8 304.12,-104.8 304.12,-74 57.2,-74"/>
<text text-anchor="start" x="64.2" y="-86.2" font-family="Arial" font-size="14.00">name </text>
<text text-anchor="start" x="103.11" y="-86.2" font-family="Arial" font-size="14.00" fill="#666666">[varchar(60)]</text>
<polygon fill="none" stroke="black" points="57.2,-43.2 57.2,-74 304.12,-74 304.12,-43.2 57.2,-43.2"/>
<text text-anchor="start" x="64.2" y="-55.4" font-family="Arial" font-size="14.00">coordinates </text>
<text text-anchor="start" x="140.47" y="-55.4" font-family="Arial" font-size="14.00" fill="#666666">[geometry(Point,4326)]</text>
</g>
<!-- geo.place_content&#45;&gt;geo.place_core -->
<g id="edge1" class="edge">
<title>geo.place_content:place_id&#45;&gt;geo.place_core:id</title>
<path fill="none" stroke="black" d="M326.44,-403.55C414.27,-388.6 400.6,-181.8 305.12,-181.8"/>
<polygon fill="black" stroke="black" points="326.43,-403.55 316.09,-399.89 321.11,-403.99 316.79,-404.34 316.79,-404.34 316.79,-404.34 321.11,-403.99 316.83,-408.86 326.43,-403.55"/>
<text text-anchor="start" x="323.13" y="-414.4" font-family="Arial" font-size="10.00">FOREIGN KEY (place_id) REFERENCES geo.place_core(id) ON DELETE CASCADE</text>
</g>
</g>
</svg>
