<?xml version="1.0" encoding="UTF-8" standalone="no"?>
<!DOCTYPE svg PUBLIC "-//W3C//DTD SVG 1.1//EN"
 "http://www.w3.org/Graphics/SVG/1.1/DTD/svg11.dtd">
<!-- Generated by graphviz version 12.1.2 (20240928.0832)
 -->
<!-- Title: geo.postal_address Pages: 1 -->
<svg width="727pt" height="633pt"
 viewBox="0.00 0.00 726.50 632.80" xmlns="http://www.w3.org/2000/svg" xmlns:xlink="http://www.w3.org/1999/xlink">
<g id="graph0" class="graph" transform="scale(1 1) rotate(0) translate(4 628.8)">
<title>geo.postal_address</title>
<polygon fill="white" stroke="none" points="-4,4 -4,-628.8 722.5,-628.8 722.5,4 -4,4"/>
<!-- geo.postal_address -->
<g id="node1" class="node">
<title>geo.postal_address</title>
<polygon fill="#efefef" stroke="none" points="46.2,-543 46.2,-578.6 321.16,-578.6 321.16,-543 46.2,-543"/>
<polygon fill="none" stroke="black" points="46.2,-543 46.2,-578.6 321.16,-578.6 321.16,-543 46.2,-543"/>
<text text-anchor="start" x="53.2" y="-556.4" font-family="Arial Bold" font-size="18.00">geo.postal_address</text>
<text text-anchor="start" x="189.67" y="-556.4" font-family="Arial" font-size="14.00">    </text>
<text text-anchor="start" x="220.78" y="-556.4" font-family="Arial" font-size="14.00" fill="#666666">[BASE TABLE]</text>
<polygon fill="none" stroke="black" points="46.2,-512.2 46.2,-543 321.16,-543 321.16,-512.2 46.2,-512.2"/>
<text text-anchor="start" x="53.2" y="-524.4" font-family="Arial" font-size="14.00">place_id </text>
<text text-anchor="start" x="109.24" y="-524.4" font-family="Arial" font-size="14.00" fill="#666666">[integer]</text>
<polygon fill="none" stroke="black" points="46.2,-481.4 46.2,-512.2 321.16,-512.2 321.16,-481.4 46.2,-481.4"/>
<text text-anchor="start" x="53.2" y="-493.6" font-family="Arial" font-size="14.00">country_code </text>
<text text-anchor="start" x="141.14" y="-493.6" font-family="Arial" font-size="14.00" fill="#666666">[smallint]</text>
<polygon fill="none" stroke="black" points="46.2,-450.6 46.2,-481.4 321.16,-481.4 321.16,-450.6 46.2,-450.6"/>
<text text-anchor="start" x="53.2" y="-462.8" font-family="Arial" font-size="14.00">address_locality </text>
<text text-anchor="start" x="157.48" y="-462.8" font-family="Arial" font-size="14.00" fill="#666666">[varchar(64)]</text>
<polygon fill="none" stroke="black" points="46.2,-419.8 46.2,-450.6 321.16,-450.6 321.16,-419.8 46.2,-419.8"/>
<text text-anchor="start" x="53.2" y="-432" font-family="Arial" font-size="14.00">address_region </text>
<text text-anchor="start" x="153.6" y="-432" font-family="Arial" font-size="14.00" fill="#666666">[varchar(64)]</text>
<polygon fill="none" stroke="black" points="46.2,-389 46.2,-419.8 321.16,-419.8 321.16,-389 46.2,-389"/>
<text text-anchor="start" x="53.2" y="-401.2" font-family="Arial" font-size="14.00">street_address </text>
<text text-anchor="start" x="149.7" y="-401.2" font-family="Arial" font-size="14.00" fill="#666666">[varchar(60)]</text>
<polygon fill="none" stroke="black" points="46.2,-358.2 46.2,-389 321.16,-389 321.16,-358.2 46.2,-358.2"/>
<text text-anchor="start" x="53.2" y="-370.4" font-family="Arial" font-size="14.00">postal_code </text>
<text text-anchor="start" x="132.59" y="-370.4" font-family="Arial" font-size="14.00" fill="#666666">[varchar(16)]</text>
<polygon fill="none" stroke="black" stroke-width="3" points="44.7,-356.7 44.7,-580.1 322.66,-580.1 322.66,-356.7 44.7,-356.7"/>
</g>
<!-- geo.place_core -->
<g id="node2" class="node">
<title>geo.place_core</title>
<polygon fill="#efefef" stroke="none" points="60.22,-197.2 60.22,-232.8 307.14,-232.8 307.14,-197.2 60.22,-197.2"/>
<polygon fill="none" stroke="black" points="60.22,-197.2 60.22,-232.8 307.14,-232.8 307.14,-197.2 60.22,-197.2"/>
<text text-anchor="start" x="67.22" y="-210.6" font-family="Arial Bold" font-size="18.00">geo.place_core</text>
<text text-anchor="start" x="175.65" y="-210.6" font-family="Arial" font-size="14.00">    </text>
<text text-anchor="start" x="206.77" y="-210.6" font-family="Arial" font-size="14.00" fill="#666666">[BASE TABLE]</text>
<polygon fill="none" stroke="black" points="60.22,-166.4 60.22,-197.2 307.14,-197.2 307.14,-166.4 60.22,-166.4"/>
<text text-anchor="start" x="67.22" y="-178.6" font-family="Arial" font-size="14.00">id </text>
<text text-anchor="start" x="82" y="-178.6" font-family="Arial" font-size="14.00" fill="#666666">[integer]</text>
<polygon fill="none" stroke="black" points="60.22,-135.6 60.22,-166.4 307.14,-166.4 307.14,-135.6 60.22,-135.6"/>
<text text-anchor="start" x="67.22" y="-147.8" font-family="Arial" font-size="14.00">elevation </text>
<text text-anchor="start" x="127.15" y="-147.8" font-family="Arial" font-size="14.00" fill="#666666">[smallint]</text>
<polygon fill="none" stroke="black" points="60.22,-104.8 60.22,-135.6 307.14,-135.6 307.14,-104.8 60.22,-104.8"/>
<text text-anchor="start" x="67.22" y="-117" font-family="Arial" font-size="14.00">type_id </text>
<text text-anchor="start" x="116.25" y="-117" font-family="Arial" font-size="14.00" fill="#666666">[smallint]</text>
<polygon fill="none" stroke="black" points="60.22,-74 60.22,-104.8 307.14,-104.8 307.14,-74 60.22,-74"/>
<text text-anchor="start" x="67.22" y="-86.2" font-family="Arial" font-size="14.00">name </text>
<text text-anchor="start" x="106.13" y="-86.2" font-family="Arial" font-size="14.00" fill="#666666">[varchar(60)]</text>
<polygon fill="none" stroke="black" points="60.22,-43.2 60.22,-74 307.14,-74 307.14,-43.2 60.22,-43.2"/>
<text text-anchor="start" x="67.22" y="-55.4" font-family="Arial" font-size="14.00">coordinates </text>
<text text-anchor="start" x="143.49" y="-55.4" font-family="Arial" font-size="14.00" fill="#666666">[geometry(Point,4326)]</text>
</g>
<!-- geo.postal_address&#45;&gt;geo.place_core -->
<g id="edge1" class="edge">
<title>geo.postal_address:place_id&#45;&gt;geo.place_core:id</title>
<path fill="none" stroke="black" d="M331.97,-525.57C397.68,-497.23 381.59,-181.8 308.14,-181.8"/>
<polygon fill="black" stroke="black" points="332.28,-525.51 321.57,-523.13 327.05,-526.59 322.81,-527.46 322.81,-527.46 322.81,-527.46 327.05,-526.59 323.4,-531.94 332.28,-525.51"/>
<text text-anchor="start" x="329.16" y="-537.6" font-family="Arial" font-size="10.00">FOREIGN KEY (place_id) REFERENCES geo.place_core(id) ON DELETE CASCADE</text>
</g>
</g>
</svg>
