<?xml version="1.0" encoding="UTF-8" standalone="no"?>
<!DOCTYPE svg PUBLIC "-//W3C//DTD SVG 1.1//EN"
 "http://www.w3.org/Graphics/SVG/1.1/DTD/svg11.dtd">
<!-- Generated by graphviz version 12.1.2 (20240928.0832)
 -->
<!-- Title: geo.place_core Pages: 1 -->
<svg width="2956pt" height="694pt"
 viewBox="0.00 0.00 2956.48 694.40" xmlns="http://www.w3.org/2000/svg" xmlns:xlink="http://www.w3.org/1999/xlink">
<g id="graph0" class="graph" transform="scale(1 1) rotate(0) translate(4 690.4)">
<title>geo.place_core</title>
<polygon fill="white" stroke="none" points="-4,4 -4,-690.4 2952.48,-690.4 2952.48,4 -4,4"/>
<!-- geo.place_core -->
<g id="node1" class="node">
<title>geo.place_core</title>
<polygon fill="#efefef" stroke="none" points="1133.86,-200.2 1133.86,-235.8 1380.78,-235.8 1380.78,-200.2 1133.86,-200.2"/>
<polygon fill="none" stroke="black" points="1133.86,-200.2 1133.86,-235.8 1380.78,-235.8 1380.78,-200.2 1133.86,-200.2"/>
<text text-anchor="start" x="1140.86" y="-213.6" font-family="Arial Bold" font-size="18.00">geo.place_core</text>
<text text-anchor="start" x="1249.29" y="-213.6" font-family="Arial" font-size="14.00">    </text>
<text text-anchor="start" x="1280.41" y="-213.6" font-family="Arial" font-size="14.00" fill="#666666">[BASE TABLE]</text>
<polygon fill="none" stroke="black" points="1133.86,-169.4 1133.86,-200.2 1380.78,-200.2 1380.78,-169.4 1133.86,-169.4"/>
<text text-anchor="start" x="1140.86" y="-181.6" font-family="Arial" font-size="14.00">id </text>
<text text-anchor="start" x="1155.65" y="-181.6" font-family="Arial" font-size="14.00" fill="#666666">[integer]</text>
<polygon fill="none" stroke="black" points="1133.86,-138.6 1133.86,-169.4 1380.78,-169.4 1380.78,-138.6 1133.86,-138.6"/>
<text text-anchor="start" x="1140.86" y="-150.8" font-family="Arial" font-size="14.00">elevation </text>
<text text-anchor="start" x="1200.79" y="-150.8" font-family="Arial" font-size="14.00" fill="#666666">[smallint]</text>
<polygon fill="none" stroke="black" points="1133.86,-107.8 1133.86,-138.6 1380.78,-138.6 1380.78,-107.8 1133.86,-107.8"/>
<text text-anchor="start" x="1140.86" y="-120" font-family="Arial" font-size="14.00">type_id </text>
<text text-anchor="start" x="1189.9" y="-120" font-family="Arial" font-size="14.00" fill="#666666">[smallint]</text>
<polygon fill="none" stroke="black" points="1133.86,-77 1133.86,-107.8 1380.78,-107.8 1380.78,-77 1133.86,-77"/>
<text text-anchor="start" x="1140.86" y="-89.2" font-family="Arial" font-size="14.00">name </text>
<text text-anchor="start" x="1179.77" y="-89.2" font-family="Arial" font-size="14.00" fill="#666666">[varchar(60)]</text>
<polygon fill="none" stroke="black" points="1133.86,-46.2 1133.86,-77 1380.78,-77 1380.78,-46.2 1133.86,-46.2"/>
<text text-anchor="start" x="1140.86" y="-58.4" font-family="Arial" font-size="14.00">coordinates </text>
<text text-anchor="start" x="1217.13" y="-58.4" font-family="Arial" font-size="14.00" fill="#666666">[geometry(Point,4326)]</text>
<polygon fill="none" stroke="black" stroke-width="3" points="1132.36,-44.7 1132.36,-237.3 1382.28,-237.3 1382.28,-44.7 1132.36,-44.7"/>
</g>
<!-- identity.person_contact -->
<g id="node2" class="node">
<title>identity.person_contact</title>
<polygon fill="#efefef" stroke="none" points="87.85,-592.2 87.85,-627.8 394.79,-627.8 394.79,-592.2 87.85,-592.2"/>
<polygon fill="none" stroke="black" points="87.85,-592.2 87.85,-627.8 394.79,-627.8 394.79,-592.2 87.85,-592.2"/>
<text text-anchor="start" x="94.85" y="-605.6" font-family="Arial Bold" font-size="18.00">identity.person_contact</text>
<text text-anchor="start" x="263.3" y="-605.6" font-family="Arial" font-size="14.00">    </text>
<text text-anchor="start" x="294.42" y="-605.6" font-family="Arial" font-size="14.00" fill="#666666">[BASE TABLE]</text>
<polygon fill="none" stroke="black" points="87.85,-561.4 87.85,-592.2 394.79,-592.2 394.79,-561.4 87.85,-561.4"/>
<text text-anchor="start" x="94.85" y="-573.6" font-family="Arial" font-size="14.00">entity_id </text>
<text text-anchor="start" x="150.89" y="-573.6" font-family="Arial" font-size="14.00" fill="#666666">[integer]</text>
<polygon fill="none" stroke="black" points="87.85,-530.6 87.85,-561.4 394.79,-561.4 394.79,-530.6 87.85,-530.6"/>
<text text-anchor="start" x="94.85" y="-542.8" font-family="Arial" font-size="14.00">place_id </text>
<text text-anchor="start" x="150.89" y="-542.8" font-family="Arial" font-size="14.00" fill="#666666">[integer]</text>
<polygon fill="none" stroke="black" points="87.85,-499.8 87.85,-530.6 394.79,-530.6 394.79,-499.8 87.85,-499.8"/>
<text text-anchor="start" x="94.85" y="-512" font-family="Arial" font-size="14.00">email </text>
<text text-anchor="start" x="132.2" y="-512" font-family="Arial" font-size="14.00" fill="#666666">[varchar(128)]</text>
<polygon fill="none" stroke="black" points="87.85,-469 87.85,-499.8 394.79,-499.8 394.79,-469 87.85,-469"/>
<text text-anchor="start" x="94.85" y="-481.2" font-family="Arial" font-size="14.00">phone </text>
<text text-anchor="start" x="137.67" y="-481.2" font-family="Arial" font-size="14.00" fill="#666666">[varchar(32)]</text>
<polygon fill="none" stroke="black" points="87.85,-438.2 87.85,-469 394.79,-469 394.79,-438.2 87.85,-438.2"/>
<text text-anchor="start" x="94.85" y="-450.4" font-family="Arial" font-size="14.00">phone2 </text>
<text text-anchor="start" x="145.46" y="-450.4" font-family="Arial" font-size="14.00" fill="#666666">[varchar(32)]</text>
<polygon fill="none" stroke="black" points="87.85,-407.4 87.85,-438.2 394.79,-438.2 394.79,-407.4 87.85,-407.4"/>
<text text-anchor="start" x="94.85" y="-419.6" font-family="Arial" font-size="14.00">fax </text>
<text text-anchor="start" x="117.42" y="-419.6" font-family="Arial" font-size="14.00" fill="#666666">[varchar(32)]</text>
<polygon fill="none" stroke="black" points="87.85,-376.6 87.85,-407.4 394.79,-407.4 394.79,-376.6 87.85,-376.6"/>
<text text-anchor="start" x="94.85" y="-388.8" font-family="Arial" font-size="14.00">url </text>
<text text-anchor="start" x="114.3" y="-388.8" font-family="Arial" font-size="14.00" fill="#666666">[varchar(255)]</text>
</g>
<!-- identity.person_contact&#45;&gt;geo.place_core -->
<g id="edge1" class="edge">
<title>identity.person_contact:place_id&#45;&gt;geo.place_core:id</title>
<path fill="none" stroke="black" d="M406.17,-545.4C490.77,-534.86 375.45,-387.72 447.32,-318 558.71,-209.94 977.67,-184.8 1132.86,-184.8"/>
<polygon fill="black" stroke="black" points="406.11,-545.4 395.87,-541.49 400.78,-545.71 396.46,-545.96 396.46,-545.96 396.46,-545.96 400.78,-545.71 396.39,-550.47 406.11,-545.4"/>
<text text-anchor="start" x="7" y="-556" font-family="Arial" font-size="10.00">FOREIGN KEY (place_id) REFERENCES geo.place_core(id) ON DELETE SET NULL</text>
</g>
<!-- identity.person_biography -->
<g id="node3" class="node">
<title>identity.person_biography</title>
<polygon fill="#efefef" stroke="none" points="499.34,-561.4 499.34,-597 827.3,-597 827.3,-561.4 499.34,-561.4"/>
<polygon fill="none" stroke="black" points="499.34,-561.4 499.34,-597 827.3,-597 827.3,-561.4 499.34,-561.4"/>
<text text-anchor="start" x="506.34" y="-574.8" font-family="Arial Bold" font-size="18.00">identity.person_biography</text>
<text text-anchor="start" x="695.81" y="-574.8" font-family="Arial" font-size="14.00">    </text>
<text text-anchor="start" x="726.93" y="-574.8" font-family="Arial" font-size="14.00" fill="#666666">[BASE TABLE]</text>
<polygon fill="none" stroke="black" points="499.34,-530.6 499.34,-561.4 827.3,-561.4 827.3,-530.6 499.34,-530.6"/>
<text text-anchor="start" x="506.34" y="-542.8" font-family="Arial" font-size="14.00">entity_id </text>
<text text-anchor="start" x="562.38" y="-542.8" font-family="Arial" font-size="14.00" fill="#666666">[integer]</text>
<polygon fill="none" stroke="black" points="499.34,-499.8 499.34,-530.6 827.3,-530.6 827.3,-499.8 499.34,-499.8"/>
<text text-anchor="start" x="506.34" y="-512" font-family="Arial" font-size="14.00">birth_place_id </text>
<text text-anchor="start" x="597.41" y="-512" font-family="Arial" font-size="14.00" fill="#666666">[integer]</text>
<polygon fill="none" stroke="black" points="499.34,-469 499.34,-499.8 827.3,-499.8 827.3,-469 499.34,-469"/>
<text text-anchor="start" x="506.34" y="-481.2" font-family="Arial" font-size="14.00">death_place_id </text>
<text text-anchor="start" x="605.21" y="-481.2" font-family="Arial" font-size="14.00" fill="#666666">[integer]</text>
<polygon fill="none" stroke="black" points="499.34,-438.2 499.34,-469 827.3,-469 827.3,-438.2 499.34,-438.2"/>
<text text-anchor="start" x="506.34" y="-450.4" font-family="Arial" font-size="14.00">birth_date </text>
<text text-anchor="start" x="572.5" y="-450.4" font-family="Arial" font-size="14.00" fill="#666666">[date]</text>
<polygon fill="none" stroke="black" points="499.34,-407.4 499.34,-438.2 827.3,-438.2 827.3,-407.4 499.34,-407.4"/>
<text text-anchor="start" x="506.34" y="-419.6" font-family="Arial" font-size="14.00">death_date </text>
<text text-anchor="start" x="580.3" y="-419.6" font-family="Arial" font-size="14.00" fill="#666666">[date]</text>
</g>
<!-- identity.person_biography&#45;&gt;geo.place_core -->
<g id="edge2" class="edge">
<title>identity.person_biography:birth_place_id&#45;&gt;geo.place_core:id</title>
<path fill="none" stroke="black" d="M838.52,-514.58C911.23,-504.94 825.4,-386.04 879.32,-318 958.38,-218.24 1005.57,-184.8 1132.86,-184.8"/>
<polygon fill="black" stroke="black" points="838.61,-514.57 828.36,-510.69 833.29,-514.9 828.97,-515.16 828.97,-515.16 828.97,-515.16 833.29,-514.9 828.91,-519.67 838.61,-514.57"/>
<text text-anchor="start" x="414.49" y="-525.2" font-family="Arial" font-size="10.00">FOREIGN KEY (birth_place_id) REFERENCES geo.place_core(id) ON DELETE SET NULL</text>
</g>
<!-- identity.person_biography&#45;&gt;geo.place_core -->
<g id="edge3" class="edge">
<title>identity.person_biography:death_place_id&#45;&gt;geo.place_core:id</title>
<path fill="none" stroke="black" d="M838.57,-483.65C898.56,-474.08 832.36,-374.64 879.32,-318 960.57,-220.02 1005.57,-184.8 1132.86,-184.8"/>
<polygon fill="black" stroke="black" points="838.61,-483.65 828.31,-479.89 833.29,-484.04 828.97,-484.35 828.97,-484.35 828.97,-484.35 833.29,-484.04 828.96,-488.86 838.61,-483.65"/>
<text text-anchor="start" x="408.92" y="-494.4" font-family="Arial" font-size="10.00">FOREIGN KEY (death_place_id) REFERENCES geo.place_core(id) ON DELETE SET NULL</text>
</g>
<!-- geo.postal_address -->
<g id="node4" class="node">
<title>geo.postal_address</title>
<polygon fill="#efefef" stroke="none" points="931.84,-576.8 931.84,-612.4 1206.8,-612.4 1206.8,-576.8 931.84,-576.8"/>
<polygon fill="none" stroke="black" points="931.84,-576.8 931.84,-612.4 1206.8,-612.4 1206.8,-576.8 931.84,-576.8"/>
<text text-anchor="start" x="938.84" y="-590.2" font-family="Arial Bold" font-size="18.00">geo.postal_address</text>
<text text-anchor="start" x="1075.31" y="-590.2" font-family="Arial" font-size="14.00">    </text>
<text text-anchor="start" x="1106.43" y="-590.2" font-family="Arial" font-size="14.00" fill="#666666">[BASE TABLE]</text>
<polygon fill="none" stroke="black" points="931.84,-546 931.84,-576.8 1206.8,-576.8 1206.8,-546 931.84,-546"/>
<text text-anchor="start" x="938.84" y="-558.2" font-family="Arial" font-size="14.00">place_id </text>
<text text-anchor="start" x="994.88" y="-558.2" font-family="Arial" font-size="14.00" fill="#666666">[integer]</text>
<polygon fill="none" stroke="black" points="931.84,-515.2 931.84,-546 1206.8,-546 1206.8,-515.2 931.84,-515.2"/>
<text text-anchor="start" x="938.84" y="-527.4" font-family="Arial" font-size="14.00">country_code </text>
<text text-anchor="start" x="1026.79" y="-527.4" font-family="Arial" font-size="14.00" fill="#666666">[smallint]</text>
<polygon fill="none" stroke="black" points="931.84,-484.4 931.84,-515.2 1206.8,-515.2 1206.8,-484.4 931.84,-484.4"/>
<text text-anchor="start" x="938.84" y="-496.6" font-family="Arial" font-size="14.00">address_locality </text>
<text text-anchor="start" x="1043.12" y="-496.6" font-family="Arial" font-size="14.00" fill="#666666">[varchar(64)]</text>
<polygon fill="none" stroke="black" points="931.84,-453.6 931.84,-484.4 1206.8,-484.4 1206.8,-453.6 931.84,-453.6"/>
<text text-anchor="start" x="938.84" y="-465.8" font-family="Arial" font-size="14.00">address_region </text>
<text text-anchor="start" x="1039.24" y="-465.8" font-family="Arial" font-size="14.00" fill="#666666">[varchar(64)]</text>
<polygon fill="none" stroke="black" points="931.84,-422.8 931.84,-453.6 1206.8,-453.6 1206.8,-422.8 931.84,-422.8"/>
<text text-anchor="start" x="938.84" y="-435" font-family="Arial" font-size="14.00">street_address </text>
<text text-anchor="start" x="1035.34" y="-435" font-family="Arial" font-size="14.00" fill="#666666">[varchar(60)]</text>
<polygon fill="none" stroke="black" points="931.84,-392 931.84,-422.8 1206.8,-422.8 1206.8,-392 931.84,-392"/>
<text text-anchor="start" x="938.84" y="-404.2" font-family="Arial" font-size="14.00">postal_code </text>
<text text-anchor="start" x="1018.24" y="-404.2" font-family="Arial" font-size="14.00" fill="#666666">[varchar(16)]</text>
</g>
<!-- geo.postal_address&#45;&gt;geo.place_core -->
<g id="edge4" class="edge">
<title>geo.postal_address:place_id&#45;&gt;geo.place_core:id</title>
<path fill="none" stroke="black" d="M1217.52,-558.44C1250.56,-535.7 1224.44,-388.62 1206.8,-348.8 1189,-308.61 1151.78,-322.14 1133.86,-282 1116.25,-242.55 1089.66,-184.8 1132.86,-184.8"/>
<polygon fill="black" stroke="black" points="1217.69,-558.39 1206.81,-557 1212.58,-559.94 1208.44,-561.2 1208.44,-561.2 1208.44,-561.2 1212.58,-559.94 1209.43,-565.61 1217.69,-558.39"/>
<text text-anchor="start" x="1214.8" y="-571.4" font-family="Arial" font-size="10.00">FOREIGN KEY (place_id) REFERENCES geo.place_core(id) ON DELETE CASCADE</text>
</g>
<!-- geo.place_content -->
<g id="node5" class="node">
<title>geo.place_content</title>
<polygon fill="#efefef" stroke="none" points="1310.86,-515.2 1310.86,-550.8 1579.79,-550.8 1579.79,-515.2 1310.86,-515.2"/>
<polygon fill="none" stroke="black" points="1310.86,-515.2 1310.86,-550.8 1579.79,-550.8 1579.79,-515.2 1310.86,-515.2"/>
<text text-anchor="start" x="1317.86" y="-528.6" font-family="Arial Bold" font-size="18.00">geo.place_content</text>
<text text-anchor="start" x="1448.3" y="-528.6" font-family="Arial" font-size="14.00">    </text>
<text text-anchor="start" x="1479.41" y="-528.6" font-family="Arial" font-size="14.00" fill="#666666">[BASE TABLE]</text>
<polygon fill="none" stroke="black" points="1310.86,-484.4 1310.86,-515.2 1579.79,-515.2 1579.79,-484.4 1310.86,-484.4"/>
<text text-anchor="start" x="1317.86" y="-496.6" font-family="Arial" font-size="14.00">place_id </text>
<text text-anchor="start" x="1373.9" y="-496.6" font-family="Arial" font-size="14.00" fill="#666666">[integer]</text>
<polygon fill="none" stroke="black" points="1310.86,-453.6 1310.86,-484.4 1579.79,-484.4 1579.79,-453.6 1310.86,-453.6"/>
<text text-anchor="start" x="1317.86" y="-465.8" font-family="Arial" font-size="14.00">description </text>
<text text-anchor="start" x="1389.45" y="-465.8" font-family="Arial" font-size="14.00" fill="#666666">[text]</text>
</g>
<!-- geo.place_content&#45;&gt;geo.place_core -->
<g id="edge5" class="edge">
<title>geo.place_content:place_id&#45;&gt;geo.place_core:id</title>
<path fill="none" stroke="black" d="M1299.53,-499.15C1184.84,-483.41 1521.6,-184.8 1381.78,-184.8"/>
<polygon fill="black" stroke="black" points="1299.54,-499.16 1309.24,-504.27 1304.87,-499.49 1309.19,-499.76 1309.19,-499.76 1309.19,-499.76 1304.87,-499.49 1309.8,-495.29 1299.54,-499.16"/>
<text text-anchor="start" x="1316.86" y="-509.8" font-family="Arial" font-size="10.00">FOREIGN KEY (place_id) REFERENCES geo.place_core(id) ON DELETE CASCADE</text>
</g>
<!-- org.org_core -->
<g id="node6" class="node">
<title>org.org_core</title>
<polygon fill="#efefef" stroke="none" points="1684.44,-607.6 1684.44,-643.2 1934.21,-643.2 1934.21,-607.6 1684.44,-607.6"/>
<polygon fill="none" stroke="black" points="1684.44,-607.6 1684.44,-643.2 1934.21,-643.2 1934.21,-607.6 1684.44,-607.6"/>
<text text-anchor="start" x="1700.85" y="-621" font-family="Arial Bold" font-size="18.00">org.org_core</text>
<text text-anchor="start" x="1793.31" y="-621" font-family="Arial" font-size="14.00">    </text>
<text text-anchor="start" x="1824.42" y="-621" font-family="Arial" font-size="14.00" fill="#666666">[BASE TABLE]</text>
<polygon fill="none" stroke="black" points="1684.44,-576.8 1684.44,-607.6 1934.21,-607.6 1934.21,-576.8 1684.44,-576.8"/>
<text text-anchor="start" x="1691.44" y="-589" font-family="Arial" font-size="14.00">created_at </text>
<text text-anchor="start" x="1761.48" y="-589" font-family="Arial" font-size="14.00" fill="#666666">[timestamp with time zone]</text>
<polygon fill="none" stroke="black" points="1684.44,-546 1684.44,-576.8 1934.21,-576.8 1934.21,-546 1684.44,-546"/>
<text text-anchor="start" x="1691.44" y="-558.2" font-family="Arial" font-size="14.00">entity_id </text>
<text text-anchor="start" x="1747.47" y="-558.2" font-family="Arial" font-size="14.00" fill="#666666">[integer]</text>
<polygon fill="none" stroke="black" points="1684.44,-515.2 1684.44,-546 1934.21,-546 1934.21,-515.2 1684.44,-515.2"/>
<text text-anchor="start" x="1691.44" y="-527.4" font-family="Arial" font-size="14.00">place_id </text>
<text text-anchor="start" x="1747.48" y="-527.4" font-family="Arial" font-size="14.00" fill="#666666">[integer]</text>
<polygon fill="none" stroke="black" points="1684.44,-484.4 1684.44,-515.2 1934.21,-515.2 1934.21,-484.4 1684.44,-484.4"/>
<text text-anchor="start" x="1691.44" y="-496.6" font-family="Arial" font-size="14.00">contact_entity_id </text>
<text text-anchor="start" x="1800.39" y="-496.6" font-family="Arial" font-size="14.00" fill="#666666">[integer]</text>
<polygon fill="none" stroke="black" points="1684.44,-453.6 1684.44,-484.4 1934.21,-484.4 1934.21,-453.6 1684.44,-453.6"/>
<text text-anchor="start" x="1691.44" y="-465.8" font-family="Arial" font-size="14.00">media_id </text>
<text text-anchor="start" x="1752.14" y="-465.8" font-family="Arial" font-size="14.00" fill="#666666">[integer]</text>
<polygon fill="none" stroke="black" points="1684.44,-422.8 1684.44,-453.6 1934.21,-453.6 1934.21,-422.8 1684.44,-422.8"/>
<text text-anchor="start" x="1691.44" y="-435" font-family="Arial" font-size="14.00">parent_entity_id </text>
<text text-anchor="start" x="1794.95" y="-435" font-family="Arial" font-size="14.00" fill="#666666">[integer]</text>
<polygon fill="none" stroke="black" points="1684.44,-392 1684.44,-422.8 1934.21,-422.8 1934.21,-392 1684.44,-392"/>
<text text-anchor="start" x="1691.44" y="-404.2" font-family="Arial" font-size="14.00">type </text>
<text text-anchor="start" x="1721.79" y="-404.2" font-family="Arial" font-size="14.00" fill="#666666">[varchar(30)]</text>
<polygon fill="none" stroke="black" points="1684.44,-361.2 1684.44,-392 1934.21,-392 1934.21,-361.2 1684.44,-361.2"/>
<text text-anchor="start" x="1691.44" y="-373.4" font-family="Arial" font-size="14.00">purpose </text>
<text text-anchor="start" x="1745.92" y="-373.4" font-family="Arial" font-size="14.00" fill="#666666">[varchar(30)]</text>
</g>
<!-- org.org_core&#45;&gt;geo.place_core -->
<g id="edge6" class="edge">
<title>org.org_core:place_id&#45;&gt;geo.place_core:id</title>
<path fill="none" stroke="black" d="M1673.44,-530.05C1593.86,-520.6 1689.62,-391.98 1632.32,-318 1555.1,-218.3 1507.89,-184.8 1381.78,-184.8"/>
<polygon fill="black" stroke="black" points="1673.12,-530.03 1682.85,-535.07 1678.44,-530.32 1682.77,-530.56 1682.77,-530.56 1682.77,-530.56 1678.44,-530.32 1683.35,-526.09 1673.12,-530.03"/>
<text text-anchor="start" x="1294.64" y="-540.6" font-family="Arial" font-size="10.00">FOREIGN KEY (place_id) REFERENCES geo.place_core(id) ON DELETE SET NULL</text>
</g>
<!-- commerce.transaction_payment -->
<g id="node7" class="node">
<title>commerce.transaction_payment</title>
<polygon fill="#efefef" stroke="none" points="2038.38,-592.2 2038.38,-627.8 2406.27,-627.8 2406.27,-592.2 2038.38,-592.2"/>
<polygon fill="none" stroke="black" points="2038.38,-592.2 2038.38,-627.8 2406.27,-627.8 2406.27,-592.2 2038.38,-592.2"/>
<text text-anchor="start" x="2045.38" y="-605.6" font-family="Arial Bold" font-size="18.00">commerce.transaction_payment</text>
<text text-anchor="start" x="2274.78" y="-605.6" font-family="Arial" font-size="14.00">    </text>
<text text-anchor="start" x="2305.9" y="-605.6" font-family="Arial" font-size="14.00" fill="#666666">[BASE TABLE]</text>
<polygon fill="none" stroke="black" points="2038.38,-561.4 2038.38,-592.2 2406.27,-592.2 2406.27,-561.4 2038.38,-561.4"/>
<text text-anchor="start" x="2045.38" y="-573.6" font-family="Arial" font-size="14.00">paid_at </text>
<text text-anchor="start" x="2095.2" y="-573.6" font-family="Arial" font-size="14.00" fill="#666666">[timestamp with time zone]</text>
<polygon fill="none" stroke="black" points="2038.38,-530.6 2038.38,-561.4 2406.27,-561.4 2406.27,-530.6 2038.38,-530.6"/>
<text text-anchor="start" x="2045.38" y="-542.8" font-family="Arial" font-size="14.00">transaction_id </text>
<text text-anchor="start" x="2136.43" y="-542.8" font-family="Arial" font-size="14.00" fill="#666666">[integer]</text>
<polygon fill="none" stroke="black" points="2038.38,-499.8 2038.38,-530.6 2406.27,-530.6 2406.27,-499.8 2038.38,-499.8"/>
<text text-anchor="start" x="2045.38" y="-512" font-family="Arial" font-size="14.00">billing_place_id </text>
<text text-anchor="start" x="2145" y="-512" font-family="Arial" font-size="14.00" fill="#666666">[integer]</text>
<polygon fill="none" stroke="black" points="2038.38,-469 2038.38,-499.8 2406.27,-499.8 2406.27,-469 2038.38,-469"/>
<text text-anchor="start" x="2045.38" y="-481.2" font-family="Arial" font-size="14.00">payment_status </text>
<text text-anchor="start" x="2148.1" y="-481.2" font-family="Arial" font-size="14.00" fill="#666666">[smallint]</text>
<polygon fill="none" stroke="black" points="2038.38,-438.2 2038.38,-469 2406.27,-469 2406.27,-438.2 2038.38,-438.2"/>
<text text-anchor="start" x="2045.38" y="-450.4" font-family="Arial" font-size="14.00">invoice_number </text>
<text text-anchor="start" x="2148.1" y="-450.4" font-family="Arial" font-size="14.00" fill="#666666">[varchar(64)]</text>
<polygon fill="none" stroke="black" points="2038.38,-407.4 2038.38,-438.2 2406.27,-438.2 2406.27,-407.4 2038.38,-407.4"/>
<text text-anchor="start" x="2045.38" y="-419.6" font-family="Arial" font-size="14.00">payment_method </text>
<text text-anchor="start" x="2157.44" y="-419.6" font-family="Arial" font-size="14.00" fill="#666666">[varchar(32)]</text>
<polygon fill="none" stroke="black" points="2038.38,-376.6 2038.38,-407.4 2406.27,-407.4 2406.27,-376.6 2038.38,-376.6"/>
<text text-anchor="start" x="2045.38" y="-388.8" font-family="Arial" font-size="14.00">provider_reference </text>
<text text-anchor="start" x="2166.77" y="-388.8" font-family="Arial" font-size="14.00" fill="#666666">[varchar(255)]</text>
</g>
<!-- commerce.transaction_payment&#45;&gt;geo.place_core -->
<g id="edge7" class="edge">
<title>commerce.transaction_payment:billing_place_id&#45;&gt;geo.place_core:id</title>
<path fill="none" stroke="black" d="M2027.2,-514.54C1955.14,-504.3 2048.82,-378.26 1986.32,-318 1887.29,-222.52 1519.35,-184.8 1381.78,-184.8"/>
<polygon fill="black" stroke="black" points="2027.06,-514.53 2036.75,-519.67 2032.39,-514.87 2036.71,-515.16 2036.71,-515.16 2036.71,-515.16 2032.39,-514.87 2037.33,-510.69 2027.06,-514.53"/>
<text text-anchor="start" x="2044.38" y="-525.2" font-family="Arial" font-size="10.00">FOREIGN KEY (billing_place_id) REFERENCES geo.place_core(id) ON DELETE SET NULL</text>
</g>
<!-- commerce.transaction_delivery -->
<g id="node8" class="node">
<title>commerce.transaction_delivery</title>
<polygon fill="#efefef" stroke="none" points="2510.88,-607.6 2510.88,-643.2 2875.77,-643.2 2875.77,-607.6 2510.88,-607.6"/>
<polygon fill="none" stroke="black" points="2510.88,-607.6 2510.88,-643.2 2875.77,-643.2 2875.77,-607.6 2510.88,-607.6"/>
<text text-anchor="start" x="2517.88" y="-621" font-family="Arial Bold" font-size="18.00">commerce.transaction_delivery</text>
<text text-anchor="start" x="2744.28" y="-621" font-family="Arial" font-size="14.00">    </text>
<text text-anchor="start" x="2775.39" y="-621" font-family="Arial" font-size="14.00" fill="#666666">[BASE TABLE]</text>
<polygon fill="none" stroke="black" points="2510.88,-576.8 2510.88,-607.6 2875.77,-607.6 2875.77,-576.8 2510.88,-576.8"/>
<text text-anchor="start" x="2517.88" y="-589" font-family="Arial" font-size="14.00">shipped_at </text>
<text text-anchor="start" x="2590.27" y="-589" font-family="Arial" font-size="14.00" fill="#666666">[timestamp with time zone]</text>
<polygon fill="none" stroke="black" points="2510.88,-546 2510.88,-576.8 2875.77,-576.8 2875.77,-546 2510.88,-546"/>
<text text-anchor="start" x="2517.88" y="-558.2" font-family="Arial" font-size="14.00">estimated_at </text>
<text text-anchor="start" x="2601.93" y="-558.2" font-family="Arial" font-size="14.00" fill="#666666">[timestamp with time zone]</text>
<polygon fill="none" stroke="black" points="2510.88,-515.2 2510.88,-546 2875.77,-546 2875.77,-515.2 2510.88,-515.2"/>
<text text-anchor="start" x="2517.88" y="-527.4" font-family="Arial" font-size="14.00">delivered_at </text>
<text text-anchor="start" x="2598.04" y="-527.4" font-family="Arial" font-size="14.00" fill="#666666">[timestamp with time zone]</text>
<polygon fill="none" stroke="black" points="2510.88,-484.4 2510.88,-515.2 2875.77,-515.2 2875.77,-484.4 2510.88,-484.4"/>
<text text-anchor="start" x="2517.88" y="-496.6" font-family="Arial" font-size="14.00">transaction_id </text>
<text text-anchor="start" x="2608.93" y="-496.6" font-family="Arial" font-size="14.00" fill="#666666">[integer]</text>
<polygon fill="none" stroke="black" points="2510.88,-453.6 2510.88,-484.4 2875.77,-484.4 2875.77,-453.6 2510.88,-453.6"/>
<text text-anchor="start" x="2517.88" y="-465.8" font-family="Arial" font-size="14.00">shipping_place_id </text>
<text text-anchor="start" x="2633.86" y="-465.8" font-family="Arial" font-size="14.00" fill="#666666">[integer]</text>
<polygon fill="none" stroke="black" points="2510.88,-422.8 2510.88,-453.6 2875.77,-453.6 2875.77,-422.8 2510.88,-422.8"/>
<text text-anchor="start" x="2517.88" y="-435" font-family="Arial" font-size="14.00">delivery_status </text>
<text text-anchor="start" x="2615.15" y="-435" font-family="Arial" font-size="14.00" fill="#666666">[smallint]</text>
<polygon fill="none" stroke="black" points="2510.88,-392 2510.88,-422.8 2875.77,-422.8 2875.77,-392 2510.88,-392"/>
<text text-anchor="start" x="2517.88" y="-404.2" font-family="Arial" font-size="14.00">carrier </text>
<text text-anchor="start" x="2561.44" y="-404.2" font-family="Arial" font-size="14.00" fill="#666666">[varchar(64)]</text>
<polygon fill="none" stroke="black" points="2510.88,-361.2 2510.88,-392 2875.77,-392 2875.77,-361.2 2510.88,-361.2"/>
<text text-anchor="start" x="2517.88" y="-373.4" font-family="Arial" font-size="14.00">tracking_number </text>
<text text-anchor="start" x="2626.04" y="-373.4" font-family="Arial" font-size="14.00" fill="#666666">[varchar(255)]</text>
</g>
<!-- commerce.transaction_delivery&#45;&gt;geo.place_core -->
<g id="edge8" class="edge">
<title>commerce.transaction_delivery:shipping_place_id&#45;&gt;geo.place_core:id</title>
<path fill="none" stroke="black" d="M2499.5,-468.07C2446.71,-457.56 2510.34,-360.28 2458.32,-318 2364.79,-241.98 1502.31,-184.8 1381.78,-184.8"/>
<polygon fill="black" stroke="black" points="2499.58,-468.08 2509.15,-473.45 2504.9,-468.56 2509.21,-468.94 2509.21,-468.94 2509.21,-468.94 2504.9,-468.56 2509.95,-464.49 2499.58,-468.08"/>
<text text-anchor="start" x="2516.88" y="-479" font-family="Arial" font-size="10.00">FOREIGN KEY (shipping_place_id) REFERENCES geo.place_core(id) ON DELETE SET NULL</text>
</g>
</g>
</svg>
