<?xml version="1.0" encoding="UTF-8" standalone="no"?>
<!DOCTYPE svg PUBLIC "-//W3C//DTD SVG 1.1//EN"
 "http://www.w3.org/Graphics/SVG/1.1/DTD/svg11.dtd">
<!-- Generated by graphviz version 12.1.2 (20240928.0832)
 -->
<!-- Title: geo.v_place Pages: 1 -->
<svg width="298pt" height="506pt"
 viewBox="0.00 0.00 298.03 505.60" xmlns="http://www.w3.org/2000/svg" xmlns:xlink="http://www.w3.org/1999/xlink">
<g id="graph0" class="graph" transform="scale(1 1) rotate(0) translate(4 501.6)">
<title>geo.v_place</title>
<polygon fill="white" stroke="none" points="-4,4 -4,-501.6 294.03,-501.6 294.03,4 -4,4"/>
<!-- geo.v_place -->
<g id="node1" class="node">
<title>geo.v_place</title>
<polygon fill="#efefef" stroke="none" points="46.2,-415.8 46.2,-451.4 243.83,-451.4 243.83,-415.8 46.2,-415.8"/>
<polygon fill="none" stroke="black" points="46.2,-415.8 46.2,-451.4 243.83,-451.4 243.83,-415.8 46.2,-415.8"/>
<text text-anchor="start" x="64.45" y="-429.2" font-family="Arial Bold" font-size="18.00">geo.v_place</text>
<text text-anchor="start" x="150.91" y="-429.2" font-family="Arial" font-size="14.00">    </text>
<text text-anchor="start" x="182.03" y="-429.2" font-family="Arial" font-size="14.00" fill="#666666">[VIEW]</text>
<polygon fill="none" stroke="black" points="46.2,-385 46.2,-415.8 243.83,-415.8 243.83,-385 46.2,-385"/>
<text text-anchor="start" x="53.2" y="-397.2" font-family="Arial" font-size="14.00">identifier </text>
<text text-anchor="start" x="110.01" y="-397.2" font-family="Arial" font-size="14.00" fill="#666666">[integer]</text>
<polygon fill="none" stroke="black" points="46.2,-354.2 46.2,-385 243.83,-385 243.83,-354.2 46.2,-354.2"/>
<text text-anchor="start" x="53.2" y="-366.4" font-family="Arial" font-size="14.00">name </text>
<text text-anchor="start" x="92.11" y="-366.4" font-family="Arial" font-size="14.00" fill="#666666">[varchar(60)]</text>
<polygon fill="none" stroke="black" points="46.2,-323.4 46.2,-354.2 243.83,-354.2 243.83,-323.4 46.2,-323.4"/>
<text text-anchor="start" x="53.2" y="-335.6" font-family="Arial" font-size="14.00">elevation </text>
<text text-anchor="start" x="113.13" y="-335.6" font-family="Arial" font-size="14.00" fill="#666666">[smallint]</text>
<polygon fill="none" stroke="black" points="46.2,-292.6 46.2,-323.4 243.83,-323.4 243.83,-292.6 46.2,-292.6"/>
<text text-anchor="start" x="53.2" y="-304.8" font-family="Arial" font-size="14.00">geo </text>
<text text-anchor="start" x="80.45" y="-304.8" font-family="Arial" font-size="14.00" fill="#666666">[jsonb]</text>
<polygon fill="none" stroke="black" points="46.2,-261.8 46.2,-292.6 243.83,-292.6 243.83,-261.8 46.2,-261.8"/>
<text text-anchor="start" x="53.2" y="-274" font-family="Arial" font-size="14.00">latitude </text>
<text text-anchor="start" x="102.23" y="-274" font-family="Arial" font-size="14.00" fill="#666666">[double precision]</text>
<polygon fill="none" stroke="black" points="46.2,-231 46.2,-261.8 243.83,-261.8 243.83,-231 46.2,-231"/>
<text text-anchor="start" x="53.2" y="-243.2" font-family="Arial" font-size="14.00">longitude </text>
<text text-anchor="start" x="113.92" y="-243.2" font-family="Arial" font-size="14.00" fill="#666666">[double precision]</text>
<polygon fill="none" stroke="black" points="46.2,-200.2 46.2,-231 243.83,-231 243.83,-200.2 46.2,-200.2"/>
<text text-anchor="start" x="53.2" y="-212.4" font-family="Arial" font-size="14.00">street_address </text>
<text text-anchor="start" x="149.7" y="-212.4" font-family="Arial" font-size="14.00" fill="#666666">[varchar(60)]</text>
<polygon fill="none" stroke="black" points="46.2,-169.4 46.2,-200.2 243.83,-200.2 243.83,-169.4 46.2,-169.4"/>
<text text-anchor="start" x="53.2" y="-181.6" font-family="Arial" font-size="14.00">postal_code </text>
<text text-anchor="start" x="132.59" y="-181.6" font-family="Arial" font-size="14.00" fill="#666666">[varchar(16)]</text>
<polygon fill="none" stroke="black" points="46.2,-138.6 46.2,-169.4 243.83,-169.4 243.83,-138.6 46.2,-138.6"/>
<text text-anchor="start" x="53.2" y="-150.8" font-family="Arial" font-size="14.00">address_locality </text>
<text text-anchor="start" x="157.48" y="-150.8" font-family="Arial" font-size="14.00" fill="#666666">[varchar(64)]</text>
<polygon fill="none" stroke="black" points="46.2,-107.8 46.2,-138.6 243.83,-138.6 243.83,-107.8 46.2,-107.8"/>
<text text-anchor="start" x="53.2" y="-120" font-family="Arial" font-size="14.00">address_region </text>
<text text-anchor="start" x="153.6" y="-120" font-family="Arial" font-size="14.00" fill="#666666">[varchar(64)]</text>
<polygon fill="none" stroke="black" points="46.2,-77 46.2,-107.8 243.83,-107.8 243.83,-77 46.2,-77"/>
<text text-anchor="start" x="53.2" y="-89.2" font-family="Arial" font-size="14.00">country_code </text>
<text text-anchor="start" x="141.14" y="-89.2" font-family="Arial" font-size="14.00" fill="#666666">[smallint]</text>
<polygon fill="none" stroke="black" points="46.2,-46.2 46.2,-77 243.83,-77 243.83,-46.2 46.2,-46.2"/>
<text text-anchor="start" x="53.2" y="-58.4" font-family="Arial" font-size="14.00">description </text>
<text text-anchor="start" x="124.79" y="-58.4" font-family="Arial" font-size="14.00" fill="#666666">[text]</text>
<polygon fill="none" stroke="black" stroke-width="3" points="44.7,-44.7 44.7,-452.9 245.33,-452.9 245.33,-44.7 44.7,-44.7"/>
</g>
</g>
</svg>
