<?xml version="1.0" encoding="UTF-8" standalone="no"?>
<!DOCTYPE svg PUBLIC "-//W3C//DTD SVG 1.1//EN"
 "http://www.w3.org/Graphics/SVG/1.1/DTD/svg11.dtd">
<!-- Generated by graphviz version 12.1.2 (20240928.0832)
 -->
<!-- Title: identity.v_shadow_writes Pages: 1 -->
<svg width="375pt" height="290pt"
 viewBox="0.00 0.00 374.55 290.00" xmlns="http://www.w3.org/2000/svg" xmlns:xlink="http://www.w3.org/1999/xlink">
<g id="graph0" class="graph" transform="scale(1 1) rotate(0) translate(4 286)">
<title>identity.v_shadow_writes</title>
<polygon fill="white" stroke="none" points="-4,4 -4,-286 370.55,-286 370.55,4 -4,4"/>
<!-- identity.v_shadow_writes -->
<g id="node1" class="node">
<title>identity.v_shadow_writes</title>
<polygon fill="#efefef" stroke="none" points="46.2,-200.2 46.2,-235.8 320.35,-235.8 320.35,-200.2 46.2,-200.2"/>
<polygon fill="none" stroke="black" points="46.2,-200.2 46.2,-235.8 320.35,-235.8 320.35,-200.2 46.2,-200.2"/>
<text text-anchor="start" x="53.2" y="-213.6" font-family="Arial Bold" font-size="18.00">identity.v_shadow_writes</text>
<text text-anchor="start" x="238.68" y="-213.6" font-family="Arial" font-size="14.00">    </text>
<text text-anchor="start" x="269.79" y="-213.6" font-family="Arial" font-size="14.00" fill="#666666">[VIEW]</text>
<polygon fill="none" stroke="black" points="46.2,-169.4 46.2,-200.2 320.35,-200.2 320.35,-169.4 46.2,-169.4"/>
<text text-anchor="start" x="53.2" y="-181.6" font-family="Arial" font-size="14.00">logged_at </text>
<text text-anchor="start" x="118.59" y="-181.6" font-family="Arial" font-size="14.00" fill="#666666">[timestamp with time zone]</text>
<polygon fill="none" stroke="black" points="46.2,-138.6 46.2,-169.4 320.35,-169.4 320.35,-138.6 46.2,-138.6"/>
<text text-anchor="start" x="53.2" y="-150.8" font-family="Arial" font-size="14.00">schema_name </text>
<text text-anchor="start" x="148.92" y="-150.8" font-family="Arial" font-size="14.00" fill="#666666">[varchar(64)]</text>
<polygon fill="none" stroke="black" points="46.2,-107.8 46.2,-138.6 320.35,-138.6 320.35,-107.8 46.2,-107.8"/>
<text text-anchor="start" x="53.2" y="-120" font-family="Arial" font-size="14.00">table_name </text>
<text text-anchor="start" x="130.25" y="-120" font-family="Arial" font-size="14.00" fill="#666666">[varchar(64)]</text>
<polygon fill="none" stroke="black" points="46.2,-77 46.2,-107.8 320.35,-107.8 320.35,-77 46.2,-77"/>
<text text-anchor="start" x="53.2" y="-89.2" font-family="Arial" font-size="14.00">operation </text>
<text text-anchor="start" x="115.47" y="-89.2" font-family="Arial" font-size="14.00" fill="#666666">[varchar(6)]</text>
<polygon fill="none" stroke="black" points="46.2,-46.2 46.2,-77 320.35,-77 320.35,-46.2 46.2,-46.2"/>
<text text-anchor="start" x="53.2" y="-58.4" font-family="Arial" font-size="14.00">row_pk </text>
<text text-anchor="start" x="102.22" y="-58.4" font-family="Arial" font-size="14.00" fill="#666666">[text]</text>
<polygon fill="none" stroke="black" stroke-width="3" points="44.7,-44.7 44.7,-237.3 321.85,-237.3 321.85,-44.7 44.7,-44.7"/>
</g>
</g>
</svg>
