<?xml version="1.0" encoding="UTF-8" standalone="no"?>
<!DOCTYPE svg PUBLIC "-//W3C//DTD SVG 1.1//EN"
 "http://www.w3.org/Graphics/SVG/1.1/DTD/svg11.dtd">
<!-- Generated by graphviz version 12.1.2 (20240928.0832)
 -->
<!-- Title: identity.dml_audit_log Pages: 1 -->
<svg width="403pt" height="352pt"
 viewBox="0.00 0.00 403.38 351.60" xmlns="http://www.w3.org/2000/svg" xmlns:xlink="http://www.w3.org/1999/xlink">
<g id="graph0" class="graph" transform="scale(1 1) rotate(0) translate(4 347.6)">
<title>identity.dml_audit_log</title>
<polygon fill="white" stroke="none" points="-4,4 -4,-347.6 399.38,-347.6 399.38,4 -4,4"/>
<!-- identity.dml_audit_log -->
<g id="node1" class="node">
<title>identity.dml_audit_log</title>
<polygon fill="#efefef" stroke="none" points="46.2,-261.8 46.2,-297.4 349.18,-297.4 349.18,-261.8 46.2,-261.8"/>
<polygon fill="none" stroke="black" points="46.2,-261.8 46.2,-297.4 349.18,-297.4 349.18,-261.8 46.2,-261.8"/>
<text text-anchor="start" x="53.2" y="-275.2" font-family="Arial Bold" font-size="18.00">identity.dml_audit_log</text>
<text text-anchor="start" x="217.69" y="-275.2" font-family="Arial" font-size="14.00">    </text>
<text text-anchor="start" x="248.8" y="-275.2" font-family="Arial" font-size="14.00" fill="#666666">[BASE TABLE]</text>
<polygon fill="none" stroke="black" points="46.2,-231 46.2,-261.8 349.18,-261.8 349.18,-231 46.2,-231"/>
<text text-anchor="start" x="53.2" y="-243.2" font-family="Arial" font-size="14.00">logged_at </text>
<text text-anchor="start" x="118.59" y="-243.2" font-family="Arial" font-size="14.00" fill="#666666">[timestamp with time zone]</text>
<polygon fill="none" stroke="black" points="46.2,-200.2 46.2,-231 349.18,-231 349.18,-200.2 46.2,-200.2"/>
<text text-anchor="start" x="53.2" y="-212.4" font-family="Arial" font-size="14.00">db_session_user </text>
<text text-anchor="start" x="162.94" y="-212.4" font-family="Arial" font-size="14.00" fill="#666666">[varchar(64)]</text>
<polygon fill="none" stroke="black" points="46.2,-169.4 46.2,-200.2 349.18,-200.2 349.18,-169.4 46.2,-169.4"/>
<text text-anchor="start" x="53.2" y="-181.6" font-family="Arial" font-size="14.00">db_current_user </text>
<text text-anchor="start" x="159.04" y="-181.6" font-family="Arial" font-size="14.00" fill="#666666">[varchar(64)]</text>
<polygon fill="none" stroke="black" points="46.2,-138.6 46.2,-169.4 349.18,-169.4 349.18,-138.6 46.2,-138.6"/>
<text text-anchor="start" x="53.2" y="-150.8" font-family="Arial" font-size="14.00">schema_name </text>
<text text-anchor="start" x="148.92" y="-150.8" font-family="Arial" font-size="14.00" fill="#666666">[varchar(64)]</text>
<polygon fill="none" stroke="black" points="46.2,-107.8 46.2,-138.6 349.18,-138.6 349.18,-107.8 46.2,-107.8"/>
<text text-anchor="start" x="53.2" y="-120" font-family="Arial" font-size="14.00">table_name </text>
<text text-anchor="start" x="130.25" y="-120" font-family="Arial" font-size="14.00" fill="#666666">[varchar(64)]</text>
<polygon fill="none" stroke="black" points="46.2,-77 46.2,-107.8 349.18,-107.8 349.18,-77 46.2,-77"/>
<text text-anchor="start" x="53.2" y="-89.2" font-family="Arial" font-size="14.00">operation </text>
<text text-anchor="start" x="115.47" y="-89.2" font-family="Arial" font-size="14.00" fill="#666666">[varchar(6)]</text>
<polygon fill="none" stroke="black" points="46.2,-46.2 46.2,-77 349.18,-77 349.18,-46.2 46.2,-46.2"/>
<text text-anchor="start" x="53.2" y="-58.4" font-family="Arial" font-size="14.00">row_pk </text>
<text text-anchor="start" x="102.22" y="-58.4" font-family="Arial" font-size="14.00" fill="#666666">[text]</text>
<polygon fill="none" stroke="black" stroke-width="3" points="44.7,-44.7 44.7,-298.9 350.68,-298.9 350.68,-44.7 44.7,-44.7"/>
</g>
</g>
</svg>
