<?xml version="1.0" encoding="UTF-8" standalone="no"?>
<!DOCTYPE svg PUBLIC "-//W3C//DTD SVG 1.1//EN"
 "http://www.w3.org/Graphics/SVG/1.1/DTD/svg11.dtd">
<!-- Generated by graphviz version 12.1.2 (20240928.0832)
 -->
<!-- Title: identity.auth Pages: 1 -->
<svg width="920pt" height="602pt"
 viewBox="0.00 0.00 919.83 602.00" xmlns="http://www.w3.org/2000/svg" xmlns:xlink="http://www.w3.org/1999/xlink">
<g id="graph0" class="graph" transform="scale(1 1) rotate(0) translate(4 598)">
<title>identity.auth</title>
<polygon fill="white" stroke="none" points="-4,4 -4,-598 915.83,-598 915.83,4 -4,4"/>
<!-- identity.auth -->
<g id="node1" class="node">
<title>identity.auth</title>
<polygon fill="#efefef" stroke="none" points="387.32,-512.2 387.32,-547.8 649.55,-547.8 649.55,-512.2 387.32,-512.2"/>
<polygon fill="none" stroke="black" points="387.32,-512.2 387.32,-547.8 649.55,-547.8 649.55,-512.2 387.32,-512.2"/>
<text text-anchor="start" x="410.95" y="-525.6" font-family="Arial Bold" font-size="18.00">identity.auth</text>
<text text-anchor="start" x="501.43" y="-525.6" font-family="Arial" font-size="14.00">    </text>
<text text-anchor="start" x="532.55" y="-525.6" font-family="Arial" font-size="14.00" fill="#666666">[BASE TABLE]</text>
<polygon fill="none" stroke="black" points="387.32,-481.4 387.32,-512.2 649.55,-512.2 649.55,-481.4 387.32,-481.4"/>
<text text-anchor="start" x="394.32" y="-493.6" font-family="Arial" font-size="14.00">created_at </text>
<text text-anchor="start" x="464.37" y="-493.6" font-family="Arial" font-size="14.00" fill="#666666">[timestamp with time zone]</text>
<polygon fill="none" stroke="black" points="387.32,-450.6 387.32,-481.4 649.55,-481.4 649.55,-450.6 387.32,-450.6"/>
<text text-anchor="start" x="394.32" y="-462.8" font-family="Arial" font-size="14.00">last_login_at </text>
<text text-anchor="start" x="476.82" y="-462.8" font-family="Arial" font-size="14.00" fill="#666666">[timestamp with time zone]</text>
<polygon fill="none" stroke="black" points="387.32,-419.8 387.32,-450.6 649.55,-450.6 649.55,-419.8 387.32,-419.8"/>
<text text-anchor="start" x="394.32" y="-432" font-family="Arial" font-size="14.00">modified_at </text>
<text text-anchor="start" x="470.59" y="-432" font-family="Arial" font-size="14.00" fill="#666666">[timestamp with time zone]</text>
<polygon fill="none" stroke="black" points="387.32,-389 387.32,-419.8 649.55,-419.8 649.55,-389 387.32,-389"/>
<text text-anchor="start" x="394.32" y="-401.2" font-family="Arial" font-size="14.00">entity_id </text>
<text text-anchor="start" x="450.35" y="-401.2" font-family="Arial" font-size="14.00" fill="#666666">[integer]</text>
<polygon fill="none" stroke="black" points="387.32,-358.2 387.32,-389 649.55,-389 649.55,-358.2 387.32,-358.2"/>
<text text-anchor="start" x="394.32" y="-370.4" font-family="Arial" font-size="14.00">role_id </text>
<text text-anchor="start" x="440.24" y="-370.4" font-family="Arial" font-size="14.00" fill="#666666">[smallint]</text>
<polygon fill="none" stroke="black" points="387.32,-327.4 387.32,-358.2 649.55,-358.2 649.55,-327.4 387.32,-327.4"/>
<text text-anchor="start" x="394.32" y="-339.6" font-family="Arial" font-size="14.00">is_banned </text>
<text text-anchor="start" x="462.82" y="-339.6" font-family="Arial" font-size="14.00" fill="#666666">[boolean]</text>
<polygon fill="none" stroke="black" points="387.32,-296.6 387.32,-327.4 649.55,-327.4 649.55,-296.6 387.32,-296.6"/>
<text text-anchor="start" x="394.32" y="-308.8" font-family="Arial" font-size="14.00">password_hash </text>
<text text-anchor="start" x="496.27" y="-308.8" font-family="Arial" font-size="14.00" fill="#666666">[varchar(255)]</text>
<polygon fill="none" stroke="black" stroke-width="3" points="385.82,-295.1 385.82,-549.3 651.05,-549.3 651.05,-295.1 385.82,-295.1"/>
</g>
<!-- identity.entity -->
<g id="node2" class="node">
<title>identity.entity</title>
<polygon fill="#efefef" stroke="none" points="201.15,-120.2 201.15,-155.8 479.71,-155.8 479.71,-120.2 201.15,-120.2"/>
<polygon fill="none" stroke="black" points="201.15,-120.2 201.15,-155.8 479.71,-155.8 479.71,-120.2 201.15,-120.2"/>
<text text-anchor="start" x="227.95" y="-133.6" font-family="Arial Bold" font-size="18.00">identity.entity</text>
<text text-anchor="start" x="328.43" y="-133.6" font-family="Arial" font-size="14.00">    </text>
<text text-anchor="start" x="359.55" y="-133.6" font-family="Arial" font-size="14.00" fill="#666666">[BASE TABLE]</text>
<polygon fill="none" stroke="black" points="201.15,-89.4 201.15,-120.2 479.71,-120.2 479.71,-89.4 201.15,-89.4"/>
<text text-anchor="start" x="208.15" y="-101.6" font-family="Arial" font-size="14.00">anonymized_at </text>
<text text-anchor="start" x="306.99" y="-101.6" font-family="Arial" font-size="14.00" fill="#666666">[timestamp with time zone]</text>
<polygon fill="none" stroke="black" points="201.15,-58.6 201.15,-89.4 479.71,-89.4 479.71,-58.6 201.15,-58.6"/>
<text text-anchor="start" x="208.15" y="-70.8" font-family="Arial" font-size="14.00">id </text>
<text text-anchor="start" x="222.94" y="-70.8" font-family="Arial" font-size="14.00" fill="#666666">[integer]</text>
</g>
<!-- identity.auth&#45;&gt;identity.entity -->
<g id="edge1" class="edge">
<title>identity.auth:entity_id&#45;&gt;identity.entity:id</title>
<path fill="none" stroke="black" d="M376,-403.57C321.65,-394.11 354.34,-306.07 387.32,-250.4 411.27,-209.97 455.73,-239.41 479.71,-199 508.07,-151.22 536.27,-74 480.71,-74"/>
<polygon fill="black" stroke="black" points="376.02,-403.57 385.62,-408.86 381.34,-404 385.65,-404.35 385.65,-404.35 385.65,-404.35 381.34,-404 386.35,-399.89 376.02,-403.57"/>
<text text-anchor="start" x="7" y="-414.4" font-family="Arial" font-size="10.00">FOREIGN KEY (entity_id) REFERENCES identity.entity(id) ON DELETE CASCADE</text>
</g>
<!-- identity.role -->
<g id="node3" class="node">
<title>identity.role</title>
<polygon fill="#efefef" stroke="none" points="584.45,-135.6 584.45,-171.2 810.42,-171.2 810.42,-135.6 584.45,-135.6"/>
<polygon fill="none" stroke="black" points="584.45,-135.6 584.45,-171.2 810.42,-171.2 810.42,-135.6 584.45,-135.6"/>
<text text-anchor="start" x="591.45" y="-149" font-family="Arial Bold" font-size="18.00">identity.role</text>
<text text-anchor="start" x="678.93" y="-149" font-family="Arial" font-size="14.00">    </text>
<text text-anchor="start" x="710.04" y="-149" font-family="Arial" font-size="14.00" fill="#666666">[BASE TABLE]</text>
<polygon fill="none" stroke="black" points="584.45,-104.8 584.45,-135.6 810.42,-135.6 810.42,-104.8 584.45,-104.8"/>
<text text-anchor="start" x="591.45" y="-117" font-family="Arial" font-size="14.00">permissions </text>
<text text-anchor="start" x="670.03" y="-117" font-family="Arial" font-size="14.00" fill="#666666">[integer]</text>
<polygon fill="none" stroke="black" points="584.45,-74 584.45,-104.8 810.42,-104.8 810.42,-74 584.45,-74"/>
<text text-anchor="start" x="591.45" y="-86.2" font-family="Arial" font-size="14.00">id </text>
<text text-anchor="start" x="606.24" y="-86.2" font-family="Arial" font-size="14.00" fill="#666666">[smallint]</text>
<polygon fill="none" stroke="black" points="584.45,-43.2 584.45,-74 810.42,-74 810.42,-43.2 584.45,-43.2"/>
<text text-anchor="start" x="591.45" y="-55.4" font-family="Arial" font-size="14.00">name </text>
<text text-anchor="start" x="630.36" y="-55.4" font-family="Arial" font-size="14.00" fill="#666666">[varchar(13)]</text>
</g>
<!-- identity.auth&#45;&gt;identity.role -->
<g id="edge2" class="edge">
<title>identity.auth:role_id&#45;&gt;identity.role:id</title>
<path fill="none" stroke="black" d="M660.9,-372.51C701.4,-363.04 675.58,-294.15 649.55,-250.4 632.64,-221.99 601.36,-242.81 584.45,-214.4 556.04,-166.66 527.89,-89.4 583.45,-89.4"/>
<polygon fill="black" stroke="black" points="660.82,-372.52 650.41,-369.09 655.52,-373.08 651.21,-373.53 651.21,-373.53 651.21,-373.53 655.52,-373.08 651.35,-378.04 660.82,-372.52"/>
<text text-anchor="start" x="657.55" y="-383.6" font-family="Arial" font-size="10.00">FOREIGN KEY (role_id) REFERENCES identity.role(id)</text>
</g>
</g>
</svg>
