<?xml version="1.0" encoding="UTF-8" standalone="no"?>
<!DOCTYPE svg PUBLIC "-//W3C//DTD SVG 1.1//EN"
 "http://www.w3.org/Graphics/SVG/1.1/DTD/svg11.dtd">
<!-- Generated by graphviz version 12.1.2 (20240928.0832)
 -->
<!-- Title: identity.permission_bit Pages: 1 -->
<svg width="405pt" height="259pt"
 viewBox="0.00 0.00 405.38 259.20" xmlns="http://www.w3.org/2000/svg" xmlns:xlink="http://www.w3.org/1999/xlink">
<g id="graph0" class="graph" transform="scale(1 1) rotate(0) translate(4 255.2)">
<title>identity.permission_bit</title>
<polygon fill="white" stroke="none" points="-4,4 -4,-255.2 401.38,-255.2 401.38,4 -4,4"/>
<!-- identity.permission_bit -->
<g id="node1" class="node">
<title>identity.permission_bit</title>
<polygon fill="#efefef" stroke="none" points="46.2,-169.4 46.2,-205 351.18,-205 351.18,-169.4 46.2,-169.4"/>
<polygon fill="none" stroke="black" points="46.2,-169.4 46.2,-205 351.18,-205 351.18,-169.4 46.2,-169.4"/>
<text text-anchor="start" x="53.2" y="-182.8" font-family="Arial Bold" font-size="18.00">identity.permission_bit</text>
<text text-anchor="start" x="219.69" y="-182.8" font-family="Arial" font-size="14.00">    </text>
<text text-anchor="start" x="250.81" y="-182.8" font-family="Arial" font-size="14.00" fill="#666666">[BASE TABLE]</text>
<polygon fill="none" stroke="black" points="46.2,-138.6 46.2,-169.4 351.18,-169.4 351.18,-138.6 46.2,-138.6"/>
<text text-anchor="start" x="53.2" y="-150.8" font-family="Arial" font-size="14.00">bit_value </text>
<text text-anchor="start" x="113.13" y="-150.8" font-family="Arial" font-size="14.00" fill="#666666">[integer]</text>
<polygon fill="none" stroke="black" points="46.2,-107.8 46.2,-138.6 351.18,-138.6 351.18,-107.8 46.2,-107.8"/>
<text text-anchor="start" x="53.2" y="-120" font-family="Arial" font-size="14.00">bit_index </text>
<text text-anchor="start" x="113.13" y="-120" font-family="Arial" font-size="14.00" fill="#666666">[integer]</text>
<polygon fill="none" stroke="black" points="46.2,-77 46.2,-107.8 351.18,-107.8 351.18,-77 46.2,-77"/>
<text text-anchor="start" x="53.2" y="-89.2" font-family="Arial" font-size="14.00">name </text>
<text text-anchor="start" x="92.11" y="-89.2" font-family="Arial" font-size="14.00" fill="#666666">[varchar(30)]</text>
<polygon fill="none" stroke="black" points="46.2,-46.2 46.2,-77 351.18,-77 351.18,-46.2 46.2,-46.2"/>
<text text-anchor="start" x="53.2" y="-58.4" font-family="Arial" font-size="14.00">description </text>
<text text-anchor="start" x="124.79" y="-58.4" font-family="Arial" font-size="14.00" fill="#666666">[varchar(120)]</text>
<polygon fill="none" stroke="black" stroke-width="3" points="44.7,-44.7 44.7,-206.5 352.68,-206.5 352.68,-44.7 44.7,-44.7"/>
</g>
</g>
</svg>
