<?xml version="1.0" encoding="UTF-8" standalone="no"?>
<!DOCTYPE svg PUBLIC "-//W3C//DTD SVG 1.1//EN"
 "http://www.w3.org/Graphics/SVG/1.1/DTD/svg11.dtd">
<!-- Generated by graphviz version 12.1.2 (20240928.0832)
 -->
<!-- Title: identity.person_contact Pages: 1 -->
<svg width="1099pt" height="664pt"
 viewBox="0.00 0.00 1099.05 663.60" xmlns="http://www.w3.org/2000/svg" xmlns:xlink="http://www.w3.org/1999/xlink">
<g id="graph0" class="graph" transform="scale(1 1) rotate(0) translate(4 659.6)">
<title>identity.person_contact</title>
<polygon fill="white" stroke="none" points="-4,4 -4,-659.6 1095.05,-659.6 1095.05,4 -4,4"/>
<!-- identity.person_contact -->
<g id="node1" class="node">
<title>identity.person_contact</title>
<polygon fill="#efefef" stroke="none" points="387.32,-573.8 387.32,-609.4 694.26,-609.4 694.26,-573.8 387.32,-573.8"/>
<polygon fill="none" stroke="black" points="387.32,-573.8 387.32,-609.4 694.26,-609.4 694.26,-573.8 387.32,-573.8"/>
<text text-anchor="start" x="394.32" y="-587.2" font-family="Arial Bold" font-size="18.00">identity.person_contact</text>
<text text-anchor="start" x="562.77" y="-587.2" font-family="Arial" font-size="14.00">    </text>
<text text-anchor="start" x="593.89" y="-587.2" font-family="Arial" font-size="14.00" fill="#666666">[BASE TABLE]</text>
<polygon fill="none" stroke="black" points="387.32,-543 387.32,-573.8 694.26,-573.8 694.26,-543 387.32,-543"/>
<text text-anchor="start" x="394.32" y="-555.2" font-family="Arial" font-size="14.00">entity_id </text>
<text text-anchor="start" x="450.35" y="-555.2" font-family="Arial" font-size="14.00" fill="#666666">[integer]</text>
<polygon fill="none" stroke="black" points="387.32,-512.2 387.32,-543 694.26,-543 694.26,-512.2 387.32,-512.2"/>
<text text-anchor="start" x="394.32" y="-524.4" font-family="Arial" font-size="14.00">place_id </text>
<text text-anchor="start" x="450.36" y="-524.4" font-family="Arial" font-size="14.00" fill="#666666">[integer]</text>
<polygon fill="none" stroke="black" points="387.32,-481.4 387.32,-512.2 694.26,-512.2 694.26,-481.4 387.32,-481.4"/>
<text text-anchor="start" x="394.32" y="-493.6" font-family="Arial" font-size="14.00">email </text>
<text text-anchor="start" x="431.66" y="-493.6" font-family="Arial" font-size="14.00" fill="#666666">[varchar(128)]</text>
<polygon fill="none" stroke="black" points="387.32,-450.6 387.32,-481.4 694.26,-481.4 694.26,-450.6 387.32,-450.6"/>
<text text-anchor="start" x="394.32" y="-462.8" font-family="Arial" font-size="14.00">phone </text>
<text text-anchor="start" x="437.14" y="-462.8" font-family="Arial" font-size="14.00" fill="#666666">[varchar(32)]</text>
<polygon fill="none" stroke="black" points="387.32,-419.8 387.32,-450.6 694.26,-450.6 694.26,-419.8 387.32,-419.8"/>
<text text-anchor="start" x="394.32" y="-432" font-family="Arial" font-size="14.00">phone2 </text>
<text text-anchor="start" x="444.93" y="-432" font-family="Arial" font-size="14.00" fill="#666666">[varchar(32)]</text>
<polygon fill="none" stroke="black" points="387.32,-389 387.32,-419.8 694.26,-419.8 694.26,-389 387.32,-389"/>
<text text-anchor="start" x="394.32" y="-401.2" font-family="Arial" font-size="14.00">fax </text>
<text text-anchor="start" x="416.88" y="-401.2" font-family="Arial" font-size="14.00" fill="#666666">[varchar(32)]</text>
<polygon fill="none" stroke="black" points="387.32,-358.2 387.32,-389 694.26,-389 694.26,-358.2 387.32,-358.2"/>
<text text-anchor="start" x="394.32" y="-370.4" font-family="Arial" font-size="14.00">url </text>
<text text-anchor="start" x="413.77" y="-370.4" font-family="Arial" font-size="14.00" fill="#666666">[varchar(255)]</text>
<polygon fill="none" stroke="black" stroke-width="3" points="385.82,-356.7 385.82,-610.9 695.76,-610.9 695.76,-356.7 385.82,-356.7"/>
</g>
<!-- identity.entity -->
<g id="node2" class="node">
<title>identity.entity</title>
<polygon fill="#efefef" stroke="none" points="218.51,-151 218.51,-186.6 497.07,-186.6 497.07,-151 218.51,-151"/>
<polygon fill="none" stroke="black" points="218.51,-151 218.51,-186.6 497.07,-186.6 497.07,-151 218.51,-151"/>
<text text-anchor="start" x="245.3" y="-164.4" font-family="Arial Bold" font-size="18.00">identity.entity</text>
<text text-anchor="start" x="345.79" y="-164.4" font-family="Arial" font-size="14.00">    </text>
<text text-anchor="start" x="376.9" y="-164.4" font-family="Arial" font-size="14.00" fill="#666666">[BASE TABLE]</text>
<polygon fill="none" stroke="black" points="218.51,-120.2 218.51,-151 497.07,-151 497.07,-120.2 218.51,-120.2"/>
<text text-anchor="start" x="225.51" y="-132.4" font-family="Arial" font-size="14.00">anonymized_at </text>
<text text-anchor="start" x="324.35" y="-132.4" font-family="Arial" font-size="14.00" fill="#666666">[timestamp with time zone]</text>
<polygon fill="none" stroke="black" points="218.51,-89.4 218.51,-120.2 497.07,-120.2 497.07,-89.4 218.51,-89.4"/>
<text text-anchor="start" x="225.51" y="-101.6" font-family="Arial" font-size="14.00">id </text>
<text text-anchor="start" x="240.29" y="-101.6" font-family="Arial" font-size="14.00" fill="#666666">[integer]</text>
</g>
<!-- identity.person_contact&#45;&gt;identity.entity -->
<g id="edge1" class="edge">
<title>identity.person_contact:entity_id&#45;&gt;identity.entity:id</title>
<path fill="none" stroke="black" d="M375.97,-557.92C280.87,-548.59 339.75,-406.59 387.32,-312 414.7,-257.56 469.58,-284.19 497.07,-229.8 522.13,-180.22 553.63,-104.8 498.07,-104.8"/>
<polygon fill="black" stroke="black" points="376,-557.92 385.77,-562.88 381.32,-558.17 385.65,-558.37 385.65,-558.37 385.65,-558.37 381.32,-558.17 386.2,-553.89 376,-557.92"/>
<text text-anchor="start" x="7" y="-568.4" font-family="Arial" font-size="10.00">FOREIGN KEY (entity_id) REFERENCES identity.entity(id) ON DELETE CASCADE</text>
</g>
<!-- geo.place_core -->
<g id="node3" class="node">
<title>geo.place_core</title>
<polygon fill="#efefef" stroke="none" points="601.33,-197.2 601.33,-232.8 848.25,-232.8 848.25,-197.2 601.33,-197.2"/>
<polygon fill="none" stroke="black" points="601.33,-197.2 601.33,-232.8 848.25,-232.8 848.25,-197.2 601.33,-197.2"/>
<text text-anchor="start" x="608.33" y="-210.6" font-family="Arial Bold" font-size="18.00">geo.place_core</text>
<text text-anchor="start" x="716.76" y="-210.6" font-family="Arial" font-size="14.00">    </text>
<text text-anchor="start" x="747.88" y="-210.6" font-family="Arial" font-size="14.00" fill="#666666">[BASE TABLE]</text>
<polygon fill="none" stroke="black" points="601.33,-166.4 601.33,-197.2 848.25,-197.2 848.25,-166.4 601.33,-166.4"/>
<text text-anchor="start" x="608.33" y="-178.6" font-family="Arial" font-size="14.00">id </text>
<text text-anchor="start" x="623.12" y="-178.6" font-family="Arial" font-size="14.00" fill="#666666">[integer]</text>
<polygon fill="none" stroke="black" points="601.33,-135.6 601.33,-166.4 848.25,-166.4 848.25,-135.6 601.33,-135.6"/>
<text text-anchor="start" x="608.33" y="-147.8" font-family="Arial" font-size="14.00">elevation </text>
<text text-anchor="start" x="668.26" y="-147.8" font-family="Arial" font-size="14.00" fill="#666666">[smallint]</text>
<polygon fill="none" stroke="black" points="601.33,-104.8 601.33,-135.6 848.25,-135.6 848.25,-104.8 601.33,-104.8"/>
<text text-anchor="start" x="608.33" y="-117" font-family="Arial" font-size="14.00">type_id </text>
<text text-anchor="start" x="657.36" y="-117" font-family="Arial" font-size="14.00" fill="#666666">[smallint]</text>
<polygon fill="none" stroke="black" points="601.33,-74 601.33,-104.8 848.25,-104.8 848.25,-74 601.33,-74"/>
<text text-anchor="start" x="608.33" y="-86.2" font-family="Arial" font-size="14.00">name </text>
<text text-anchor="start" x="647.24" y="-86.2" font-family="Arial" font-size="14.00" fill="#666666">[varchar(60)]</text>
<polygon fill="none" stroke="black" points="601.33,-43.2 601.33,-74 848.25,-74 848.25,-43.2 601.33,-43.2"/>
<text text-anchor="start" x="608.33" y="-55.4" font-family="Arial" font-size="14.00">coordinates </text>
<text text-anchor="start" x="684.6" y="-55.4" font-family="Arial" font-size="14.00" fill="#666666">[geometry(Point,4326)]</text>
</g>
<!-- identity.person_contact&#45;&gt;geo.place_core -->
<g id="edge2" class="edge">
<title>identity.person_contact:place_id&#45;&gt;geo.place_core:id</title>
<path fill="none" stroke="black" d="M705.61,-527.02C787.83,-517.27 746.53,-387.92 694.26,-312 669.14,-275.52 626.56,-312.41 601.33,-276 577.48,-241.58 558.46,-181.8 600.33,-181.8"/>
<polygon fill="black" stroke="black" points="705.58,-527.02 695.34,-523.09 700.25,-527.32 695.93,-527.56 695.93,-527.56 695.93,-527.56 700.25,-527.32 695.85,-532.07 705.58,-527.02"/>
<text text-anchor="start" x="702.26" y="-537.6" font-family="Arial" font-size="10.00">FOREIGN KEY (place_id) REFERENCES geo.place_core(id) ON DELETE SET NULL</text>
</g>
</g>
</svg>
