<?xml version="1.0" encoding="UTF-8" standalone="no"?>
<!DOCTYPE svg PUBLIC "-//W3C//DTD SVG 1.1//EN"
 "http://www.w3.org/Graphics/SVG/1.1/DTD/svg11.dtd">
<!-- Generated by graphviz version 12.1.2 (20240928.0832)
 -->
<!-- Title: identity.role Pages: 1 -->
<svg width="576pt" height="602pt"
 viewBox="0.00 0.00 575.71 602.00" xmlns="http://www.w3.org/2000/svg" xmlns:xlink="http://www.w3.org/1999/xlink">
<g id="graph0" class="graph" transform="scale(1 1) rotate(0) translate(4 598)">
<title>identity.role</title>
<polygon fill="white" stroke="none" points="-4,4 -4,-598 571.71,-598 571.71,4 -4,4"/>
<!-- identity.role -->
<g id="node1" class="node">
<title>identity.role</title>
<polygon fill="#efefef" stroke="none" points="61.33,-138.6 61.33,-174.2 287.3,-174.2 287.3,-138.6 61.33,-138.6"/>
<polygon fill="none" stroke="black" points="61.33,-138.6 61.33,-174.2 287.3,-174.2 287.3,-138.6 61.33,-138.6"/>
<text text-anchor="start" x="68.33" y="-152" font-family="Arial Bold" font-size="18.00">identity.role</text>
<text text-anchor="start" x="155.81" y="-152" font-family="Arial" font-size="14.00">    </text>
<text text-anchor="start" x="186.92" y="-152" font-family="Arial" font-size="14.00" fill="#666666">[BASE TABLE]</text>
<polygon fill="none" stroke="black" points="61.33,-107.8 61.33,-138.6 287.3,-138.6 287.3,-107.8 61.33,-107.8"/>
<text text-anchor="start" x="68.33" y="-120" font-family="Arial" font-size="14.00">permissions </text>
<text text-anchor="start" x="146.91" y="-120" font-family="Arial" font-size="14.00" fill="#666666">[integer]</text>
<polygon fill="none" stroke="black" points="61.33,-77 61.33,-107.8 287.3,-107.8 287.3,-77 61.33,-77"/>
<text text-anchor="start" x="68.33" y="-89.2" font-family="Arial" font-size="14.00">id </text>
<text text-anchor="start" x="83.12" y="-89.2" font-family="Arial" font-size="14.00" fill="#666666">[smallint]</text>
<polygon fill="none" stroke="black" points="61.33,-46.2 61.33,-77 287.3,-77 287.3,-46.2 61.33,-46.2"/>
<text text-anchor="start" x="68.33" y="-58.4" font-family="Arial" font-size="14.00">name </text>
<text text-anchor="start" x="107.24" y="-58.4" font-family="Arial" font-size="14.00" fill="#666666">[varchar(13)]</text>
<polygon fill="none" stroke="black" stroke-width="3" points="59.83,-44.7 59.83,-175.7 288.8,-175.7 288.8,-44.7 59.83,-44.7"/>
</g>
<!-- identity.auth -->
<g id="node2" class="node">
<title>identity.auth</title>
<polygon fill="#efefef" stroke="none" points="43.2,-515.2 43.2,-550.8 305.43,-550.8 305.43,-515.2 43.2,-515.2"/>
<polygon fill="none" stroke="black" points="43.2,-515.2 43.2,-550.8 305.43,-550.8 305.43,-515.2 43.2,-515.2"/>
<text text-anchor="start" x="66.83" y="-528.6" font-family="Arial Bold" font-size="18.00">identity.auth</text>
<text text-anchor="start" x="157.31" y="-528.6" font-family="Arial" font-size="14.00">    </text>
<text text-anchor="start" x="188.43" y="-528.6" font-family="Arial" font-size="14.00" fill="#666666">[BASE TABLE]</text>
<polygon fill="none" stroke="black" points="43.2,-484.4 43.2,-515.2 305.43,-515.2 305.43,-484.4 43.2,-484.4"/>
<text text-anchor="start" x="50.2" y="-496.6" font-family="Arial" font-size="14.00">created_at </text>
<text text-anchor="start" x="120.25" y="-496.6" font-family="Arial" font-size="14.00" fill="#666666">[timestamp with time zone]</text>
<polygon fill="none" stroke="black" points="43.2,-453.6 43.2,-484.4 305.43,-484.4 305.43,-453.6 43.2,-453.6"/>
<text text-anchor="start" x="50.2" y="-465.8" font-family="Arial" font-size="14.00">last_login_at </text>
<text text-anchor="start" x="132.7" y="-465.8" font-family="Arial" font-size="14.00" fill="#666666">[timestamp with time zone]</text>
<polygon fill="none" stroke="black" points="43.2,-422.8 43.2,-453.6 305.43,-453.6 305.43,-422.8 43.2,-422.8"/>
<text text-anchor="start" x="50.2" y="-435" font-family="Arial" font-size="14.00">modified_at </text>
<text text-anchor="start" x="126.47" y="-435" font-family="Arial" font-size="14.00" fill="#666666">[timestamp with time zone]</text>
<polygon fill="none" stroke="black" points="43.2,-392 43.2,-422.8 305.43,-422.8 305.43,-392 43.2,-392"/>
<text text-anchor="start" x="50.2" y="-404.2" font-family="Arial" font-size="14.00">entity_id </text>
<text text-anchor="start" x="106.23" y="-404.2" font-family="Arial" font-size="14.00" fill="#666666">[integer]</text>
<polygon fill="none" stroke="black" points="43.2,-361.2 43.2,-392 305.43,-392 305.43,-361.2 43.2,-361.2"/>
<text text-anchor="start" x="50.2" y="-373.4" font-family="Arial" font-size="14.00">role_id </text>
<text text-anchor="start" x="96.12" y="-373.4" font-family="Arial" font-size="14.00" fill="#666666">[smallint]</text>
<polygon fill="none" stroke="black" points="43.2,-330.4 43.2,-361.2 305.43,-361.2 305.43,-330.4 43.2,-330.4"/>
<text text-anchor="start" x="50.2" y="-342.6" font-family="Arial" font-size="14.00">is_banned </text>
<text text-anchor="start" x="118.7" y="-342.6" font-family="Arial" font-size="14.00" fill="#666666">[boolean]</text>
<polygon fill="none" stroke="black" points="43.2,-299.6 43.2,-330.4 305.43,-330.4 305.43,-299.6 43.2,-299.6"/>
<text text-anchor="start" x="50.2" y="-311.8" font-family="Arial" font-size="14.00">password_hash </text>
<text text-anchor="start" x="152.15" y="-311.8" font-family="Arial" font-size="14.00" fill="#666666">[varchar(255)]</text>
</g>
<!-- identity.auth&#45;&gt;identity.role -->
<g id="edge1" class="edge">
<title>identity.auth:role_id&#45;&gt;identity.role:id</title>
<path fill="none" stroke="black" d="M316.4,-373.97C367.51,-345.32 348,-92.4 288.3,-92.4"/>
<polygon fill="black" stroke="black" points="316.42,-373.96 305.6,-372.16 311.26,-375.32 307.07,-376.43 307.07,-376.43 307.07,-376.43 311.26,-375.32 307.9,-380.87 316.42,-373.96"/>
<text text-anchor="start" x="313.43" y="-386.6" font-family="Arial" font-size="10.00">FOREIGN KEY (role_id) REFERENCES identity.role(id)</text>
</g>
</g>
</svg>
