<?xml version="1.0" encoding="UTF-8" standalone="no"?>
<!DOCTYPE svg PUBLIC "-//W3C//DTD SVG 1.1//EN"
 "http://www.w3.org/Graphics/SVG/1.1/DTD/svg11.dtd">
<!-- Generated by graphviz version 12.1.2 (20240928.0832)
 -->
<!-- Title: identity.v_admin_sessions Pages: 1 -->
<svg width="380pt" height="382pt"
 viewBox="0.00 0.00 379.57 382.40" xmlns="http://www.w3.org/2000/svg" xmlns:xlink="http://www.w3.org/1999/xlink">
<g id="graph0" class="graph" transform="scale(1 1) rotate(0) translate(4 378.4)">
<title>identity.v_admin_sessions</title>
<polygon fill="white" stroke="none" points="-4,4 -4,-378.4 375.57,-378.4 375.57,4 -4,4"/>
<!-- identity.v_admin_sessions -->
<g id="node1" class="node">
<title>identity.v_admin_sessions</title>
<polygon fill="#efefef" stroke="none" points="46.2,-292.6 46.2,-328.2 325.37,-328.2 325.37,-292.6 46.2,-292.6"/>
<polygon fill="none" stroke="black" points="46.2,-292.6 46.2,-328.2 325.37,-328.2 325.37,-292.6 46.2,-292.6"/>
<text text-anchor="start" x="53.2" y="-306" font-family="Arial Bold" font-size="18.00">identity.v_admin_sessions</text>
<text text-anchor="start" x="243.69" y="-306" font-family="Arial" font-size="14.00">    </text>
<text text-anchor="start" x="274.81" y="-306" font-family="Arial" font-size="14.00" fill="#666666">[VIEW]</text>
<polygon fill="none" stroke="black" points="46.2,-261.8 46.2,-292.6 325.37,-292.6 325.37,-261.8 46.2,-261.8"/>
<text text-anchor="start" x="53.2" y="-274" font-family="Arial" font-size="14.00">pid </text>
<text text-anchor="start" x="75.77" y="-274" font-family="Arial" font-size="14.00" fill="#666666">[integer]</text>
<polygon fill="none" stroke="black" points="46.2,-231 46.2,-261.8 325.37,-261.8 325.37,-231 46.2,-231"/>
<text text-anchor="start" x="53.2" y="-243.2" font-family="Arial" font-size="14.00">connected_as </text>
<text text-anchor="start" x="144.27" y="-243.2" font-family="Arial" font-size="14.00" fill="#666666">[name]</text>
<polygon fill="none" stroke="black" points="46.2,-200.2 46.2,-231 325.37,-231 325.37,-200.2 46.2,-200.2"/>
<text text-anchor="start" x="53.2" y="-212.4" font-family="Arial" font-size="14.00">application_name </text>
<text text-anchor="start" x="166.83" y="-212.4" font-family="Arial" font-size="14.00" fill="#666666">[text]</text>
<polygon fill="none" stroke="black" points="46.2,-169.4 46.2,-200.2 325.37,-200.2 325.37,-169.4 46.2,-169.4"/>
<text text-anchor="start" x="53.2" y="-181.6" font-family="Arial" font-size="14.00">client_addr </text>
<text text-anchor="start" x="125.58" y="-181.6" font-family="Arial" font-size="14.00" fill="#666666">[inet]</text>
<polygon fill="none" stroke="black" points="46.2,-138.6 46.2,-169.4 325.37,-169.4 325.37,-138.6 46.2,-138.6"/>
<text text-anchor="start" x="53.2" y="-150.8" font-family="Arial" font-size="14.00">backend_start </text>
<text text-anchor="start" x="145.03" y="-150.8" font-family="Arial" font-size="14.00" fill="#666666">[timestamp with time zone]</text>
<polygon fill="none" stroke="black" points="46.2,-107.8 46.2,-138.6 325.37,-138.6 325.37,-107.8 46.2,-107.8"/>
<text text-anchor="start" x="53.2" y="-120" font-family="Arial" font-size="14.00">state </text>
<text text-anchor="start" x="87.44" y="-120" font-family="Arial" font-size="14.00" fill="#666666">[text]</text>
<polygon fill="none" stroke="black" points="46.2,-77 46.2,-107.8 325.37,-107.8 325.37,-77 46.2,-77"/>
<text text-anchor="start" x="53.2" y="-89.2" font-family="Arial" font-size="14.00">query_start </text>
<text text-anchor="start" x="127.12" y="-89.2" font-family="Arial" font-size="14.00" fill="#666666">[timestamp with time zone]</text>
<polygon fill="none" stroke="black" points="46.2,-46.2 46.2,-77 325.37,-77 325.37,-46.2 46.2,-46.2"/>
<text text-anchor="start" x="53.2" y="-58.4" font-family="Arial" font-size="14.00">query_preview </text>
<text text-anchor="start" x="148.14" y="-58.4" font-family="Arial" font-size="14.00" fill="#666666">[text]</text>
<polygon fill="none" stroke="black" stroke-width="3" points="44.7,-44.7 44.7,-329.7 326.87,-329.7 326.87,-44.7 44.7,-44.7"/>
</g>
</g>
</svg>
