<?xml version="1.0" encoding="UTF-8" standalone="no"?>
<!DOCTYPE svg PUBLIC "-//W3C//DTD SVG 1.1//EN"
 "http://www.w3.org/Graphics/SVG/1.1/DTD/svg11.dtd">
<!-- Generated by graphviz version 12.1.2 (20240928.0832)
 -->
<!-- Title: identity.person_identity Pages: 1 -->
<svg width="751pt" height="674pt"
 viewBox="0.00 0.00 751.48 673.68" xmlns="http://www.w3.org/2000/svg" xmlns:xlink="http://www.w3.org/1999/xlink">
<g id="graph0" class="graph" transform="scale(1 1) rotate(0) translate(4 669.68)">
<title>identity.person_identity</title>
<polygon fill="white" stroke="none" points="-4,4 -4,-669.68 747.48,-669.68 747.48,4 -4,4"/>
<!-- identity.person_identity -->
<g id="node1" class="node">
<title>identity.person_identity</title>
<polygon fill="#efefef" stroke="none" points="46.2,-583.88 46.2,-619.48 356.16,-619.48 356.16,-583.88 46.2,-583.88"/>
<polygon fill="none" stroke="black" points="46.2,-583.88 46.2,-619.48 356.16,-619.48 356.16,-583.88 46.2,-583.88"/>
<text text-anchor="start" x="53.2" y="-597.28" font-family="Arial Bold" font-size="18.00">identity.person_identity</text>
<text text-anchor="start" x="224.67" y="-597.28" font-family="Arial" font-size="14.00">    </text>
<text text-anchor="start" x="255.79" y="-597.28" font-family="Arial" font-size="14.00" fill="#666666">[BASE TABLE]</text>
<polygon fill="none" stroke="black" points="46.2,-553.08 46.2,-583.88 356.16,-583.88 356.16,-553.08 46.2,-553.08"/>
<text text-anchor="start" x="53.2" y="-565.28" font-family="Arial" font-size="14.00">entity_id </text>
<text text-anchor="start" x="109.23" y="-565.28" font-family="Arial" font-size="14.00" fill="#666666">[integer]</text>
<polygon fill="none" stroke="black" points="46.2,-522.28 46.2,-553.08 356.16,-553.08 356.16,-522.28 46.2,-522.28"/>
<text text-anchor="start" x="53.2" y="-534.48" font-family="Arial" font-size="14.00">gender </text>
<text text-anchor="start" x="100.68" y="-534.48" font-family="Arial" font-size="14.00" fill="#666666">[smallint]</text>
<polygon fill="none" stroke="black" points="46.2,-491.48 46.2,-522.28 356.16,-522.28 356.16,-491.48 46.2,-491.48"/>
<text text-anchor="start" x="53.2" y="-503.68" font-family="Arial" font-size="14.00">nationality </text>
<text text-anchor="start" x="120.13" y="-503.68" font-family="Arial" font-size="14.00" fill="#666666">[smallint]</text>
<polygon fill="none" stroke="black" points="46.2,-460.68 46.2,-491.48 356.16,-491.48 356.16,-460.68 46.2,-460.68"/>
<text text-anchor="start" x="53.2" y="-472.88" font-family="Arial" font-size="14.00">given_name </text>
<text text-anchor="start" x="133.37" y="-472.88" font-family="Arial" font-size="14.00" fill="#666666">[varchar(32)]</text>
<polygon fill="none" stroke="black" points="46.2,-429.88 46.2,-460.68 356.16,-460.68 356.16,-429.88 46.2,-429.88"/>
<text text-anchor="start" x="53.2" y="-442.08" font-family="Arial" font-size="14.00">family_name </text>
<text text-anchor="start" x="136.45" y="-442.08" font-family="Arial" font-size="14.00" fill="#666666">[varchar(32)]</text>
<polygon fill="none" stroke="black" points="46.2,-399.08 46.2,-429.88 356.16,-429.88 356.16,-399.08 46.2,-399.08"/>
<text text-anchor="start" x="53.2" y="-411.28" font-family="Arial" font-size="14.00">usual_name </text>
<text text-anchor="start" x="133.37" y="-411.28" font-family="Arial" font-size="14.00" fill="#666666">[varchar(32)]</text>
<polygon fill="none" stroke="black" points="46.2,-368.28 46.2,-399.08 356.16,-399.08 356.16,-368.28 46.2,-368.28"/>
<text text-anchor="start" x="53.2" y="-380.48" font-family="Arial" font-size="14.00">nickname </text>
<text text-anchor="start" x="117.01" y="-380.48" font-family="Arial" font-size="14.00" fill="#666666">[varchar(32)]</text>
<polygon fill="none" stroke="black" points="46.2,-337.48 46.2,-368.28 356.16,-368.28 356.16,-337.48 46.2,-337.48"/>
<text text-anchor="start" x="53.2" y="-349.68" font-family="Arial" font-size="14.00">prefix </text>
<text text-anchor="start" x="91.32" y="-349.68" font-family="Arial" font-size="14.00" fill="#666666">[varchar(32)]</text>
<polygon fill="none" stroke="black" points="46.2,-306.68 46.2,-337.48 356.16,-337.48 356.16,-306.68 46.2,-306.68"/>
<text text-anchor="start" x="53.2" y="-318.88" font-family="Arial" font-size="14.00">suffix </text>
<text text-anchor="start" x="89.77" y="-318.88" font-family="Arial" font-size="14.00" fill="#666666">[varchar(32)]</text>
<polygon fill="none" stroke="black" points="46.2,-275.88 46.2,-306.68 356.16,-306.68 356.16,-275.88 46.2,-275.88"/>
<text text-anchor="start" x="53.2" y="-288.08" font-family="Arial" font-size="14.00">additional_name </text>
<text text-anchor="start" x="159.83" y="-288.08" font-family="Arial" font-size="14.00" fill="#666666">[varchar(32)]</text>
<polygon fill="none" stroke="black" stroke-width="3" points="44.7,-274.38 44.7,-620.98 357.66,-620.98 357.66,-274.38 44.7,-274.38"/>
</g>
<!-- identity.entity -->
<g id="node2" class="node">
<title>identity.entity</title>
<polygon fill="#efefef" stroke="none" points="61.9,-114.88 61.9,-150.48 340.46,-150.48 340.46,-114.88 61.9,-114.88"/>
<polygon fill="none" stroke="black" points="61.9,-114.88 61.9,-150.48 340.46,-150.48 340.46,-114.88 61.9,-114.88"/>
<text text-anchor="start" x="88.69" y="-128.28" font-family="Arial Bold" font-size="18.00">identity.entity</text>
<text text-anchor="start" x="189.18" y="-128.28" font-family="Arial" font-size="14.00">    </text>
<text text-anchor="start" x="220.3" y="-128.28" font-family="Arial" font-size="14.00" fill="#666666">[BASE TABLE]</text>
<polygon fill="none" stroke="black" points="61.9,-84.08 61.9,-114.88 340.46,-114.88 340.46,-84.08 61.9,-84.08"/>
<text text-anchor="start" x="68.9" y="-96.28" font-family="Arial" font-size="14.00">anonymized_at </text>
<text text-anchor="start" x="167.74" y="-96.28" font-family="Arial" font-size="14.00" fill="#666666">[timestamp with time zone]</text>
<polygon fill="none" stroke="black" points="61.9,-53.28 61.9,-84.08 340.46,-84.08 340.46,-53.28 61.9,-53.28"/>
<text text-anchor="start" x="68.9" y="-65.48" font-family="Arial" font-size="14.00">id </text>
<text text-anchor="start" x="83.69" y="-65.48" font-family="Arial" font-size="14.00" fill="#666666">[integer]</text>
</g>
<!-- identity.person_identity&#45;&gt;identity.entity -->
<g id="edge1" class="edge">
<title>identity.person_identity:entity_id&#45;&gt;identity.entity:id</title>
<path fill="none" stroke="black" d="M366.44,-564.08C415.41,-516.11 421.79,-91.62 383.66,-53.28 326.47,4.23 201.18,28.83 201.18,-52.28"/>
<polygon fill="black" stroke="black" points="366.5,-564.05 355.54,-564.27 361.68,-566.34 357.77,-568.19 357.77,-568.19 357.77,-568.19 361.68,-566.34 359.39,-572.4 366.5,-564.05"/>
<text text-anchor="start" x="364.16" y="-578.48" font-family="Arial" font-size="10.00">FOREIGN KEY (entity_id) REFERENCES identity.entity(id) ON DELETE CASCADE</text>
</g>
</g>
</svg>
