<?xml version="1.0" encoding="UTF-8" standalone="no"?>
<!DOCTYPE svg PUBLIC "-//W3C//DTD SVG 1.1//EN"
 "http://www.w3.org/Graphics/SVG/1.1/DTD/svg11.dtd">
<!-- Generated by graphviz version 12.1.2 (20240928.0832)
 -->
<!-- Title: identity.v_auth Pages: 1 -->
<svg width="303pt" height="321pt"
 viewBox="0.00 0.00 303.50 320.80" xmlns="http://www.w3.org/2000/svg" xmlns:xlink="http://www.w3.org/1999/xlink">
<g id="graph0" class="graph" transform="scale(1 1) rotate(0) translate(4 316.8)">
<title>identity.v_auth</title>
<polygon fill="white" stroke="none" points="-4,4 -4,-316.8 299.5,-316.8 299.5,4 -4,4"/>
<!-- identity.v_auth -->
<g id="node1" class="node">
<title>identity.v_auth</title>
<polygon fill="#efefef" stroke="none" points="46.2,-231 46.2,-266.6 249.3,-266.6 249.3,-231 46.2,-231"/>
<polygon fill="none" stroke="black" points="46.2,-231 46.2,-266.6 249.3,-266.6 249.3,-231 46.2,-231"/>
<text text-anchor="start" x="56.17" y="-244.4" font-family="Arial Bold" font-size="18.00">identity.v_auth</text>
<text text-anchor="start" x="164.65" y="-244.4" font-family="Arial" font-size="14.00">    </text>
<text text-anchor="start" x="195.77" y="-244.4" font-family="Arial" font-size="14.00" fill="#666666">[VIEW]</text>
<polygon fill="none" stroke="black" points="46.2,-200.2 46.2,-231 249.3,-231 249.3,-200.2 46.2,-200.2"/>
<text text-anchor="start" x="53.2" y="-212.4" font-family="Arial" font-size="14.00">entity_id </text>
<text text-anchor="start" x="109.23" y="-212.4" font-family="Arial" font-size="14.00" fill="#666666">[integer]</text>
<polygon fill="none" stroke="black" points="46.2,-169.4 46.2,-200.2 249.3,-200.2 249.3,-169.4 46.2,-169.4"/>
<text text-anchor="start" x="53.2" y="-181.6" font-family="Arial" font-size="14.00">password_hash </text>
<text text-anchor="start" x="155.15" y="-181.6" font-family="Arial" font-size="14.00" fill="#666666">[varchar(255)]</text>
<polygon fill="none" stroke="black" points="46.2,-138.6 46.2,-169.4 249.3,-169.4 249.3,-138.6 46.2,-138.6"/>
<text text-anchor="start" x="53.2" y="-150.8" font-family="Arial" font-size="14.00">is_banned </text>
<text text-anchor="start" x="121.7" y="-150.8" font-family="Arial" font-size="14.00" fill="#666666">[boolean]</text>
<polygon fill="none" stroke="black" points="46.2,-107.8 46.2,-138.6 249.3,-138.6 249.3,-107.8 46.2,-107.8"/>
<text text-anchor="start" x="53.2" y="-120" font-family="Arial" font-size="14.00">role_id </text>
<text text-anchor="start" x="99.12" y="-120" font-family="Arial" font-size="14.00" fill="#666666">[smallint]</text>
<polygon fill="none" stroke="black" points="46.2,-77 46.2,-107.8 249.3,-107.8 249.3,-77 46.2,-77"/>
<text text-anchor="start" x="53.2" y="-89.2" font-family="Arial" font-size="14.00">role_name </text>
<text text-anchor="start" x="123.24" y="-89.2" font-family="Arial" font-size="14.00" fill="#666666">[varchar(13)]</text>
<polygon fill="none" stroke="black" points="46.2,-46.2 46.2,-77 249.3,-77 249.3,-46.2 46.2,-46.2"/>
<text text-anchor="start" x="53.2" y="-58.4" font-family="Arial" font-size="14.00">role_permissions </text>
<text text-anchor="start" x="162.91" y="-58.4" font-family="Arial" font-size="14.00" fill="#666666">[integer]</text>
<polygon fill="none" stroke="black" stroke-width="3" points="44.7,-44.7 44.7,-268.1 250.8,-268.1 250.8,-44.7 44.7,-44.7"/>
</g>
</g>
</svg>
