<?xml version="1.0" encoding="UTF-8" standalone="no"?>
<!DOCTYPE svg PUBLIC "-//W3C//DTD SVG 1.1//EN"
 "http://www.w3.org/Graphics/SVG/1.1/DTD/svg11.dtd">
<!-- Generated by graphviz version 12.1.2 (20240928.0832)
 -->
<!-- Title: identity.group_to_account Pages: 1 -->
<svg width="1386pt" height="479pt"
 viewBox="0.00 0.00 1386.10 478.80" xmlns="http://www.w3.org/2000/svg" xmlns:xlink="http://www.w3.org/1999/xlink">
<g id="graph0" class="graph" transform="scale(1 1) rotate(0) translate(4 474.8)">
<title>identity.group_to_account</title>
<polygon fill="white" stroke="none" points="-4,4 -4,-474.8 1382.1,-474.8 1382.1,4 -4,4"/>
<!-- identity.group_to_account -->
<g id="node1" class="node">
<title>identity.group_to_account</title>
<polygon fill="#efefef" stroke="none" points="510.01,-389 510.01,-424.6 837.96,-424.6 837.96,-389 510.01,-389"/>
<polygon fill="none" stroke="black" points="510.01,-389 510.01,-424.6 837.96,-424.6 837.96,-389 510.01,-389"/>
<text text-anchor="start" x="517.01" y="-402.4" font-family="Arial Bold" font-size="18.00">identity.group_to_account</text>
<text text-anchor="start" x="706.47" y="-402.4" font-family="Arial" font-size="14.00">    </text>
<text text-anchor="start" x="737.58" y="-402.4" font-family="Arial" font-size="14.00" fill="#666666">[BASE TABLE]</text>
<polygon fill="none" stroke="black" points="510.01,-358.2 510.01,-389 837.96,-389 837.96,-358.2 510.01,-358.2"/>
<text text-anchor="start" x="517.01" y="-370.4" font-family="Arial" font-size="14.00">group_id </text>
<text text-anchor="start" x="575.39" y="-370.4" font-family="Arial" font-size="14.00" fill="#666666">[integer]</text>
<polygon fill="none" stroke="black" points="510.01,-327.4 510.01,-358.2 837.96,-358.2 837.96,-327.4 510.01,-327.4"/>
<text text-anchor="start" x="517.01" y="-339.6" font-family="Arial" font-size="14.00">account_entity_id </text>
<text text-anchor="start" x="629.86" y="-339.6" font-family="Arial" font-size="14.00" fill="#666666">[integer]</text>
<polygon fill="none" stroke="black" stroke-width="3" points="508.51,-325.9 508.51,-426.1 839.46,-426.1 839.46,-325.9 508.51,-325.9"/>
</g>
<!-- identity.group -->
<g id="node2" class="node">
<title>identity.group</title>
<polygon fill="#efefef" stroke="none" points="365.1,-166.4 365.1,-202 614.87,-202 614.87,-166.4 365.1,-166.4"/>
<polygon fill="none" stroke="black" points="365.1,-166.4 365.1,-202 614.87,-202 614.87,-166.4 365.1,-166.4"/>
<text text-anchor="start" x="376.99" y="-179.8" font-family="Arial Bold" font-size="18.00">identity.group</text>
<text text-anchor="start" x="478.48" y="-179.8" font-family="Arial" font-size="14.00">    </text>
<text text-anchor="start" x="509.6" y="-179.8" font-family="Arial" font-size="14.00" fill="#666666">[BASE TABLE]</text>
<polygon fill="none" stroke="black" points="365.1,-135.6 365.1,-166.4 614.87,-166.4 614.87,-135.6 365.1,-135.6"/>
<text text-anchor="start" x="372.1" y="-147.8" font-family="Arial" font-size="14.00">created_at </text>
<text text-anchor="start" x="442.15" y="-147.8" font-family="Arial" font-size="14.00" fill="#666666">[timestamp with time zone]</text>
<polygon fill="none" stroke="black" points="365.1,-104.8 365.1,-135.6 614.87,-135.6 614.87,-104.8 365.1,-104.8"/>
<text text-anchor="start" x="372.1" y="-117" font-family="Arial" font-size="14.00">id </text>
<text text-anchor="start" x="386.88" y="-117" font-family="Arial" font-size="14.00" fill="#666666">[integer]</text>
<polygon fill="none" stroke="black" points="365.1,-74 365.1,-104.8 614.87,-104.8 614.87,-74 365.1,-74"/>
<text text-anchor="start" x="372.1" y="-86.2" font-family="Arial" font-size="14.00">name </text>
<text text-anchor="start" x="411.01" y="-86.2" font-family="Arial" font-size="14.00" fill="#666666">[varchar(32)]</text>
<polygon fill="none" stroke="black" points="365.1,-43.2 365.1,-74 614.87,-74 614.87,-43.2 365.1,-43.2"/>
<text text-anchor="start" x="372.1" y="-55.4" font-family="Arial" font-size="14.00">description </text>
<text text-anchor="start" x="443.69" y="-55.4" font-family="Arial" font-size="14.00" fill="#666666">[text]</text>
</g>
<!-- identity.group_to_account&#45;&gt;identity.group -->
<g id="edge1" class="edge">
<title>identity.group_to_account:group_id&#45;&gt;identity.group:id</title>
<path fill="none" stroke="black" d="M498.97,-372.11C471.37,-362.74 488.22,-311.37 510.01,-281.2 538.86,-241.25 586.08,-285.19 614.87,-245.2 647.33,-200.11 671.43,-120.2 615.87,-120.2"/>
<polygon fill="black" stroke="black" points="498.79,-372.08 508.02,-378 504.06,-372.87 508.35,-373.5 508.35,-373.5 508.35,-373.5 504.06,-372.87 509.34,-369.1 498.79,-372.08"/>
<text text-anchor="start" x="7" y="-383.6" font-family="Arial" font-size="10.00">FOREIGN KEY (group_id) REFERENCES identity.&quot;group&quot;(id) ON UPDATE CASCADE ON DELETE CASCADE</text>
</g>
<!-- identity.entity -->
<g id="node3" class="node">
<title>identity.entity</title>
<polygon fill="#efefef" stroke="none" points="719.7,-135.6 719.7,-171.2 998.27,-171.2 998.27,-135.6 719.7,-135.6"/>
<polygon fill="none" stroke="black" points="719.7,-135.6 719.7,-171.2 998.27,-171.2 998.27,-135.6 719.7,-135.6"/>
<text text-anchor="start" x="746.5" y="-149" font-family="Arial Bold" font-size="18.00">identity.entity</text>
<text text-anchor="start" x="846.98" y="-149" font-family="Arial" font-size="14.00">    </text>
<text text-anchor="start" x="878.1" y="-149" font-family="Arial" font-size="14.00" fill="#666666">[BASE TABLE]</text>
<polygon fill="none" stroke="black" points="719.7,-104.8 719.7,-135.6 998.27,-135.6 998.27,-104.8 719.7,-104.8"/>
<text text-anchor="start" x="726.7" y="-117" font-family="Arial" font-size="14.00">anonymized_at </text>
<text text-anchor="start" x="825.54" y="-117" font-family="Arial" font-size="14.00" fill="#666666">[timestamp with time zone]</text>
<polygon fill="none" stroke="black" points="719.7,-74 719.7,-104.8 998.27,-104.8 998.27,-74 719.7,-74"/>
<text text-anchor="start" x="726.7" y="-86.2" font-family="Arial" font-size="14.00">id </text>
<text text-anchor="start" x="741.49" y="-86.2" font-family="Arial" font-size="14.00" fill="#666666">[integer]</text>
</g>
<!-- identity.group_to_account&#45;&gt;identity.entity -->
<g id="edge2" class="edge">
<title>identity.group_to_account:account_entity_id&#45;&gt;identity.entity:id</title>
<path fill="none" stroke="black" d="M848.89,-340.21C861.85,-331.26 849.76,-301.06 837.96,-281.2 807.11,-229.31 750.34,-266.41 719.7,-214.4 691.5,-166.53 663.14,-89.4 718.7,-89.4"/>
<polygon fill="black" stroke="black" points="848.96,-340.2 838.15,-338.36 843.79,-341.54 839.6,-342.63 839.6,-342.63 839.6,-342.63 843.79,-341.54 840.41,-347.07 848.96,-340.2"/>
<text text-anchor="start" x="845.96" y="-352.8" font-family="Arial" font-size="10.00">FOREIGN KEY (account_entity_id) REFERENCES identity.entity(id) ON UPDATE CASCADE ON DELETE CASCADE</text>
</g>
</g>
</svg>
