<?xml version="1.0" encoding="UTF-8" standalone="no"?>
<!DOCTYPE svg PUBLIC "-//W3C//DTD SVG 1.1//EN"
 "http://www.w3.org/Graphics/SVG/1.1/DTD/svg11.dtd">
<!-- Generated by graphviz version 12.1.2 (20240928.0832)
 -->
<!-- Title: identity.account_core Pages: 1 -->
<svg width="771pt" height="941pt"
 viewBox="0.00 0.00 771.03 940.80" xmlns="http://www.w3.org/2000/svg" xmlns:xlink="http://www.w3.org/1999/xlink">
<g id="graph0" class="graph" transform="scale(1 1) rotate(0) translate(4 936.8)">
<title>identity.account_core</title>
<polygon fill="white" stroke="none" points="-4,4 -4,-936.8 767.03,-936.8 767.03,4 -4,4"/>
<!-- identity.account_core -->
<g id="node1" class="node">
<title>identity.account_core</title>
<polygon fill="#efefef" stroke="none" points="46.2,-851 46.2,-886.6 340.12,-886.6 340.12,-851 46.2,-851"/>
<polygon fill="none" stroke="black" points="46.2,-851 46.2,-886.6 340.12,-886.6 340.12,-851 46.2,-851"/>
<text text-anchor="start" x="53.2" y="-864.4" font-family="Arial Bold" font-size="18.00">identity.account_core</text>
<text text-anchor="start" x="208.63" y="-864.4" font-family="Arial" font-size="14.00">    </text>
<text text-anchor="start" x="239.75" y="-864.4" font-family="Arial" font-size="14.00" fill="#666666">[BASE TABLE]</text>
<polygon fill="none" stroke="black" points="46.2,-820.2 46.2,-851 340.12,-851 340.12,-820.2 46.2,-820.2"/>
<text text-anchor="start" x="53.2" y="-832.4" font-family="Arial" font-size="14.00">tos_accepted_at </text>
<text text-anchor="start" x="159.83" y="-832.4" font-family="Arial" font-size="14.00" fill="#666666">[timestamp with time zone]</text>
<polygon fill="none" stroke="black" points="46.2,-789.4 46.2,-820.2 340.12,-820.2 340.12,-789.4 46.2,-789.4"/>
<text text-anchor="start" x="53.2" y="-801.6" font-family="Arial" font-size="14.00">entity_id </text>
<text text-anchor="start" x="109.23" y="-801.6" font-family="Arial" font-size="14.00" fill="#666666">[integer]</text>
<polygon fill="none" stroke="black" points="46.2,-758.6 46.2,-789.4 340.12,-789.4 340.12,-758.6 46.2,-758.6"/>
<text text-anchor="start" x="53.2" y="-770.8" font-family="Arial" font-size="14.00">person_entity_id </text>
<text text-anchor="start" x="159.83" y="-770.8" font-family="Arial" font-size="14.00" fill="#666666">[integer]</text>
<polygon fill="none" stroke="black" points="46.2,-727.8 46.2,-758.6 340.12,-758.6 340.12,-727.8 46.2,-727.8"/>
<text text-anchor="start" x="53.2" y="-740" font-family="Arial" font-size="14.00">media_id </text>
<text text-anchor="start" x="113.9" y="-740" font-family="Arial" font-size="14.00" fill="#666666">[integer]</text>
<polygon fill="none" stroke="black" points="46.2,-697 46.2,-727.8 340.12,-727.8 340.12,-697 46.2,-697"/>
<text text-anchor="start" x="53.2" y="-709.2" font-family="Arial" font-size="14.00">site_style </text>
<text text-anchor="start" x="115.45" y="-709.2" font-family="Arial" font-size="14.00" fill="#666666">[smallint]</text>
<polygon fill="none" stroke="black" points="46.2,-666.2 46.2,-697 340.12,-697 340.12,-666.2 46.2,-666.2"/>
<text text-anchor="start" x="53.2" y="-678.4" font-family="Arial" font-size="14.00">display_mode </text>
<text text-anchor="start" x="143.48" y="-678.4" font-family="Arial" font-size="14.00" fill="#666666">[smallint]</text>
<polygon fill="none" stroke="black" points="46.2,-635.4 46.2,-666.2 340.12,-666.2 340.12,-635.4 46.2,-635.4"/>
<text text-anchor="start" x="53.2" y="-647.6" font-family="Arial" font-size="14.00">is_visible </text>
<text text-anchor="start" x="113.89" y="-647.6" font-family="Arial" font-size="14.00" fill="#666666">[boolean]</text>
<polygon fill="none" stroke="black" points="46.2,-604.6 46.2,-635.4 340.12,-635.4 340.12,-604.6 46.2,-604.6"/>
<text text-anchor="start" x="53.2" y="-616.8" font-family="Arial" font-size="14.00">is_private_message </text>
<text text-anchor="start" x="181.6" y="-616.8" font-family="Arial" font-size="14.00" fill="#666666">[boolean]</text>
<polygon fill="none" stroke="black" points="46.2,-573.8 46.2,-604.6 340.12,-604.6 340.12,-573.8 46.2,-573.8"/>
<text text-anchor="start" x="53.2" y="-586" font-family="Arial" font-size="14.00">username </text>
<text text-anchor="start" x="119.34" y="-586" font-family="Arial" font-size="14.00" fill="#666666">[varchar(32)]</text>
<polygon fill="none" stroke="black" points="46.2,-543 46.2,-573.8 340.12,-573.8 340.12,-543 46.2,-543"/>
<text text-anchor="start" x="53.2" y="-555.2" font-family="Arial" font-size="14.00">slug </text>
<text text-anchor="start" x="82.77" y="-555.2" font-family="Arial" font-size="14.00" fill="#666666">[varchar(32)]</text>
<polygon fill="none" stroke="black" points="46.2,-512.2 46.2,-543 340.12,-543 340.12,-512.2 46.2,-512.2"/>
<text text-anchor="start" x="53.2" y="-524.4" font-family="Arial" font-size="14.00">language </text>
<text text-anchor="start" x="114.7" y="-524.4" font-family="Arial" font-size="14.00" fill="#666666">[varchar(5)]</text>
<polygon fill="none" stroke="black" points="46.2,-481.4 46.2,-512.2 340.12,-512.2 340.12,-481.4 46.2,-481.4"/>
<text text-anchor="start" x="53.2" y="-493.6" font-family="Arial" font-size="14.00">time_zone </text>
<text text-anchor="start" x="121.68" y="-493.6" font-family="Arial" font-size="14.00" fill="#666666">[text]</text>
<polygon fill="none" stroke="black" stroke-width="3" points="44.7,-479.9 44.7,-888.1 341.62,-888.1 341.62,-479.9 44.7,-479.9"/>
</g>
<!-- identity.entity -->
<g id="node2" class="node">
<title>identity.entity</title>
<polygon fill="#efefef" stroke="none" points="53.88,-212.6 53.88,-248.2 332.44,-248.2 332.44,-212.6 53.88,-212.6"/>
<polygon fill="none" stroke="black" points="53.88,-212.6 53.88,-248.2 332.44,-248.2 332.44,-212.6 53.88,-212.6"/>
<text text-anchor="start" x="80.67" y="-226" font-family="Arial Bold" font-size="18.00">identity.entity</text>
<text text-anchor="start" x="181.16" y="-226" font-family="Arial" font-size="14.00">    </text>
<text text-anchor="start" x="212.28" y="-226" font-family="Arial" font-size="14.00" fill="#666666">[BASE TABLE]</text>
<polygon fill="none" stroke="black" points="53.88,-181.8 53.88,-212.6 332.44,-212.6 332.44,-181.8 53.88,-181.8"/>
<text text-anchor="start" x="60.88" y="-194" font-family="Arial" font-size="14.00">anonymized_at </text>
<text text-anchor="start" x="159.72" y="-194" font-family="Arial" font-size="14.00" fill="#666666">[timestamp with time zone]</text>
<polygon fill="none" stroke="black" points="53.88,-151 53.88,-181.8 332.44,-181.8 332.44,-151 53.88,-151"/>
<text text-anchor="start" x="60.88" y="-163.2" font-family="Arial" font-size="14.00">id </text>
<text text-anchor="start" x="75.67" y="-163.2" font-family="Arial" font-size="14.00" fill="#666666">[integer]</text>
</g>
<!-- identity.account_core&#45;&gt;identity.entity -->
<g id="edge1" class="edge">
<title>identity.account_core:entity_id&#45;&gt;identity.entity:id</title>
<path fill="none" stroke="black" d="M345.22,-795.24C363.31,-715.45 387.54,-162.96 375.64,-151 318.45,-93.49 193.16,-68.9 193.16,-150"/>
<polygon fill="black" stroke="black" points="345.19,-795.3 337.12,-802.72 343.09,-800.2 341.39,-804.19 341.39,-804.19 341.39,-804.19 343.09,-800.2 345.39,-806.26 345.19,-795.3"/>
<text text-anchor="start" x="348.12" y="-814.8" font-family="Arial" font-size="10.00">FOREIGN KEY (entity_id) REFERENCES identity.entity(id) ON DELETE CASCADE</text>
</g>
<!-- identity.account_core&#45;&gt;identity.entity -->
<g id="edge2" class="edge">
<title>identity.account_core:person_entity_id&#45;&gt;identity.entity:id</title>
<path fill="none" stroke="black" d="M345.16,-764.4C362.59,-686.64 386.96,-162.38 375.64,-151 318.45,-93.49 193.16,-68.9 193.16,-150"/>
<polygon fill="black" stroke="black" points="345.13,-764.47 337.11,-771.95 343.06,-769.39 341.38,-773.38 341.38,-773.38 341.38,-773.38 343.06,-769.39 345.4,-775.44 345.13,-764.47"/>
<text text-anchor="start" x="348.12" y="-784" font-family="Arial" font-size="10.00">FOREIGN KEY (person_entity_id) REFERENCES identity.entity(id) ON DELETE SET NULL</text>
</g>
<!-- content.media_core -->
<g id="node3" class="node">
<title>content.media_core</title>
<polygon fill="#efefef" stroke="none" points="437.2,-320.4 437.2,-356 717.12,-356 717.12,-320.4 437.2,-320.4"/>
<polygon fill="none" stroke="black" points="437.2,-320.4 437.2,-356 717.12,-356 717.12,-320.4 437.2,-320.4"/>
<text text-anchor="start" x="444.2" y="-333.8" font-family="Arial Bold" font-size="18.00">content.media_core</text>
<text text-anchor="start" x="585.63" y="-333.8" font-family="Arial" font-size="14.00">    </text>
<text text-anchor="start" x="616.75" y="-333.8" font-family="Arial" font-size="14.00" fill="#666666">[BASE TABLE]</text>
<polygon fill="none" stroke="black" points="437.2,-289.6 437.2,-320.4 717.12,-320.4 717.12,-289.6 437.2,-289.6"/>
<text text-anchor="start" x="444.2" y="-301.8" font-family="Arial" font-size="14.00">created_at </text>
<text text-anchor="start" x="514.25" y="-301.8" font-family="Arial" font-size="14.00" fill="#666666">[timestamp with time zone]</text>
<polygon fill="none" stroke="black" points="437.2,-258.8 437.2,-289.6 717.12,-289.6 717.12,-258.8 437.2,-258.8"/>
<text text-anchor="start" x="444.2" y="-271" font-family="Arial" font-size="14.00">modified_at </text>
<text text-anchor="start" x="520.47" y="-271" font-family="Arial" font-size="14.00" fill="#666666">[timestamp with time zone]</text>
<polygon fill="none" stroke="black" points="437.2,-228 437.2,-258.8 717.12,-258.8 717.12,-228 437.2,-228"/>
<text text-anchor="start" x="444.2" y="-240.2" font-family="Arial" font-size="14.00">id </text>
<text text-anchor="start" x="458.99" y="-240.2" font-family="Arial" font-size="14.00" fill="#666666">[integer]</text>
<polygon fill="none" stroke="black" points="437.2,-197.2 437.2,-228 717.12,-228 717.12,-197.2 437.2,-197.2"/>
<text text-anchor="start" x="444.2" y="-209.4" font-family="Arial" font-size="14.00">author_id </text>
<text text-anchor="start" x="506.47" y="-209.4" font-family="Arial" font-size="14.00" fill="#666666">[integer]</text>
<polygon fill="none" stroke="black" points="437.2,-166.4 437.2,-197.2 717.12,-197.2 717.12,-166.4 437.2,-166.4"/>
<text text-anchor="start" x="444.2" y="-178.6" font-family="Arial" font-size="14.00">width </text>
<text text-anchor="start" x="480.77" y="-178.6" font-family="Arial" font-size="14.00" fill="#666666">[integer]</text>
<polygon fill="none" stroke="black" points="437.2,-135.6 437.2,-166.4 717.12,-166.4 717.12,-135.6 437.2,-135.6"/>
<text text-anchor="start" x="444.2" y="-147.8" font-family="Arial" font-size="14.00">height </text>
<text text-anchor="start" x="486.23" y="-147.8" font-family="Arial" font-size="14.00" fill="#666666">[integer]</text>
<polygon fill="none" stroke="black" points="437.2,-104.8 437.2,-135.6 717.12,-135.6 717.12,-104.8 437.2,-104.8"/>
<text text-anchor="start" x="444.2" y="-117" font-family="Arial" font-size="14.00">mime_type </text>
<text text-anchor="start" x="516.56" y="-117" font-family="Arial" font-size="14.00" fill="#666666">[varchar(255)]</text>
<polygon fill="none" stroke="black" points="437.2,-74 437.2,-104.8 717.12,-104.8 717.12,-74 437.2,-74"/>
<text text-anchor="start" x="444.2" y="-86.2" font-family="Arial" font-size="14.00">folder_url </text>
<text text-anchor="start" x="506.46" y="-86.2" font-family="Arial" font-size="14.00" fill="#666666">[varchar(255)]</text>
<polygon fill="none" stroke="black" points="437.2,-43.2 437.2,-74 717.12,-74 717.12,-43.2 437.2,-43.2"/>
<text text-anchor="start" x="444.2" y="-55.4" font-family="Arial" font-size="14.00">file_name </text>
<text text-anchor="start" x="508.79" y="-55.4" font-family="Arial" font-size="14.00" fill="#666666">[varchar(255)]</text>
</g>
<!-- identity.account_core&#45;&gt;content.media_core -->
<g id="edge3" class="edge">
<title>identity.account_core:media_id&#45;&gt;content.media_core:id</title>
<path fill="none" stroke="black" d="M351.31,-741.68C445.99,-711.51 326.79,-243.4 436.2,-243.4"/>
<polygon fill="black" stroke="black" points="351.34,-741.67 340.79,-738.7 346.07,-742.46 341.79,-743.1 341.79,-743.1 341.79,-743.1 346.07,-742.46 342.12,-747.6 351.34,-741.67"/>
<text text-anchor="start" x="348.12" y="-753.2" font-family="Arial" font-size="10.00">FOREIGN KEY (media_id) REFERENCES content.media_core(id) ON DELETE SET NULL</text>
</g>
</g>
</svg>
