<?xml version="1.0" encoding="UTF-8" standalone="no"?>
<!DOCTYPE svg PUBLIC "-//W3C//DTD SVG 1.1//EN"
 "http://www.w3.org/Graphics/SVG/1.1/DTD/svg11.dtd">
<!-- Generated by graphviz version 12.1.2 (20240928.0832)
 -->
<!-- Title: identity.person_content Pages: 1 -->
<svg width="1123pt" height="818pt"
 viewBox="0.00 0.00 1122.84 817.60" xmlns="http://www.w3.org/2000/svg" xmlns:xlink="http://www.w3.org/1999/xlink">
<g id="graph0" class="graph" transform="scale(1 1) rotate(0) translate(4 813.6)">
<title>identity.person_content</title>
<polygon fill="white" stroke="none" points="-4,4 -4,-813.6 1118.84,-813.6 1118.84,4 -4,4"/>
<!-- identity.person_content -->
<g id="node1" class="node">
<title>identity.person_content</title>
<polygon fill="#efefef" stroke="none" points="387.32,-727.8 387.32,-763.4 695.27,-763.4 695.27,-727.8 387.32,-727.8"/>
<polygon fill="none" stroke="black" points="387.32,-727.8 387.32,-763.4 695.27,-763.4 695.27,-727.8 387.32,-727.8"/>
<text text-anchor="start" x="394.32" y="-741.2" font-family="Arial Bold" font-size="18.00">identity.person_content</text>
<text text-anchor="start" x="563.78" y="-741.2" font-family="Arial" font-size="14.00">    </text>
<text text-anchor="start" x="594.9" y="-741.2" font-family="Arial" font-size="14.00" fill="#666666">[BASE TABLE]</text>
<polygon fill="none" stroke="black" points="387.32,-697 387.32,-727.8 695.27,-727.8 695.27,-697 387.32,-697"/>
<text text-anchor="start" x="394.32" y="-709.2" font-family="Arial" font-size="14.00">entity_id </text>
<text text-anchor="start" x="450.35" y="-709.2" font-family="Arial" font-size="14.00" fill="#666666">[integer]</text>
<polygon fill="none" stroke="black" points="387.32,-666.2 387.32,-697 695.27,-697 695.27,-666.2 387.32,-666.2"/>
<text text-anchor="start" x="394.32" y="-678.4" font-family="Arial" font-size="14.00">media_id </text>
<text text-anchor="start" x="455.02" y="-678.4" font-family="Arial" font-size="14.00" fill="#666666">[integer]</text>
<polygon fill="none" stroke="black" points="387.32,-635.4 387.32,-666.2 695.27,-666.2 695.27,-635.4 387.32,-635.4"/>
<text text-anchor="start" x="394.32" y="-647.6" font-family="Arial" font-size="14.00">occupation </text>
<text text-anchor="start" x="465.93" y="-647.6" font-family="Arial" font-size="14.00" fill="#666666">[varchar(30)]</text>
<polygon fill="none" stroke="black" points="387.32,-604.6 387.32,-635.4 695.27,-635.4 695.27,-604.6 387.32,-604.6"/>
<text text-anchor="start" x="394.32" y="-616.8" font-family="Arial" font-size="14.00">bias </text>
<text text-anchor="start" x="423.89" y="-616.8" font-family="Arial" font-size="14.00" fill="#666666">[varchar(30)]</text>
<polygon fill="none" stroke="black" points="387.32,-573.8 387.32,-604.6 695.27,-604.6 695.27,-573.8 387.32,-573.8"/>
<text text-anchor="start" x="394.32" y="-586" font-family="Arial" font-size="14.00">hobby </text>
<text text-anchor="start" x="436.35" y="-586" font-family="Arial" font-size="14.00" fill="#666666">[varchar(64)]</text>
<polygon fill="none" stroke="black" points="387.32,-543 387.32,-573.8 695.27,-573.8 695.27,-543 387.32,-543"/>
<text text-anchor="start" x="394.32" y="-555.2" font-family="Arial" font-size="14.00">award </text>
<text text-anchor="start" x="436.34" y="-555.2" font-family="Arial" font-size="14.00" fill="#666666">[varchar(128)]</text>
<polygon fill="none" stroke="black" points="387.32,-512.2 387.32,-543 695.27,-543 695.27,-512.2 387.32,-512.2"/>
<text text-anchor="start" x="394.32" y="-524.4" font-family="Arial" font-size="14.00">devise </text>
<text text-anchor="start" x="438.68" y="-524.4" font-family="Arial" font-size="14.00" fill="#666666">[varchar(100)]</text>
<polygon fill="none" stroke="black" points="387.32,-481.4 387.32,-512.2 695.27,-512.2 695.27,-481.4 387.32,-481.4"/>
<text text-anchor="start" x="394.32" y="-493.6" font-family="Arial" font-size="14.00">description </text>
<text text-anchor="start" x="465.91" y="-493.6" font-family="Arial" font-size="14.00" fill="#666666">[text]</text>
<polygon fill="none" stroke="black" stroke-width="3" points="385.82,-479.9 385.82,-764.9 696.77,-764.9 696.77,-479.9 385.82,-479.9"/>
</g>
<!-- identity.entity -->
<g id="node2" class="node">
<title>identity.entity</title>
<polygon fill="#efefef" stroke="none" points="210.01,-212.6 210.01,-248.2 488.58,-248.2 488.58,-212.6 210.01,-212.6"/>
<polygon fill="none" stroke="black" points="210.01,-212.6 210.01,-248.2 488.58,-248.2 488.58,-212.6 210.01,-212.6"/>
<text text-anchor="start" x="236.81" y="-226" font-family="Arial Bold" font-size="18.00">identity.entity</text>
<text text-anchor="start" x="337.29" y="-226" font-family="Arial" font-size="14.00">    </text>
<text text-anchor="start" x="368.41" y="-226" font-family="Arial" font-size="14.00" fill="#666666">[BASE TABLE]</text>
<polygon fill="none" stroke="black" points="210.01,-181.8 210.01,-212.6 488.58,-212.6 488.58,-181.8 210.01,-181.8"/>
<text text-anchor="start" x="217.01" y="-194" font-family="Arial" font-size="14.00">anonymized_at </text>
<text text-anchor="start" x="315.85" y="-194" font-family="Arial" font-size="14.00" fill="#666666">[timestamp with time zone]</text>
<polygon fill="none" stroke="black" points="210.01,-151 210.01,-181.8 488.58,-181.8 488.58,-151 210.01,-151"/>
<text text-anchor="start" x="217.01" y="-163.2" font-family="Arial" font-size="14.00">id </text>
<text text-anchor="start" x="231.8" y="-163.2" font-family="Arial" font-size="14.00" fill="#666666">[integer]</text>
</g>
<!-- identity.person_content&#45;&gt;identity.entity -->
<g id="edge1" class="edge">
<title>identity.person_content:entity_id&#45;&gt;identity.entity:id</title>
<path fill="none" stroke="black" d="M376.03,-711.99C268.16,-703.07 351,-549.14 387.32,-435.2 411.06,-360.73 464.68,-365.82 488.58,-291.4 505.57,-238.5 545.13,-166.4 489.58,-166.4"/>
<polygon fill="black" stroke="black" points="375.99,-711.99 385.81,-716.88 381.32,-712.2 385.65,-712.37 385.65,-712.37 385.65,-712.37 381.32,-712.2 386.16,-707.89 375.99,-711.99"/>
<text text-anchor="start" x="7" y="-722.4" font-family="Arial" font-size="10.00">FOREIGN KEY (entity_id) REFERENCES identity.entity(id) ON DELETE CASCADE</text>
</g>
<!-- content.media_core -->
<g id="node3" class="node">
<title>content.media_core</title>
<polygon fill="#efefef" stroke="none" points="593.33,-320.4 593.33,-356 873.26,-356 873.26,-320.4 593.33,-320.4"/>
<polygon fill="none" stroke="black" points="593.33,-320.4 593.33,-356 873.26,-356 873.26,-320.4 593.33,-320.4"/>
<text text-anchor="start" x="600.33" y="-333.8" font-family="Arial Bold" font-size="18.00">content.media_core</text>
<text text-anchor="start" x="741.77" y="-333.8" font-family="Arial" font-size="14.00">    </text>
<text text-anchor="start" x="772.88" y="-333.8" font-family="Arial" font-size="14.00" fill="#666666">[BASE TABLE]</text>
<polygon fill="none" stroke="black" points="593.33,-289.6 593.33,-320.4 873.26,-320.4 873.26,-289.6 593.33,-289.6"/>
<text text-anchor="start" x="600.33" y="-301.8" font-family="Arial" font-size="14.00">created_at </text>
<text text-anchor="start" x="670.38" y="-301.8" font-family="Arial" font-size="14.00" fill="#666666">[timestamp with time zone]</text>
<polygon fill="none" stroke="black" points="593.33,-258.8 593.33,-289.6 873.26,-289.6 873.26,-258.8 593.33,-258.8"/>
<text text-anchor="start" x="600.33" y="-271" font-family="Arial" font-size="14.00">modified_at </text>
<text text-anchor="start" x="676.6" y="-271" font-family="Arial" font-size="14.00" fill="#666666">[timestamp with time zone]</text>
<polygon fill="none" stroke="black" points="593.33,-228 593.33,-258.8 873.26,-258.8 873.26,-228 593.33,-228"/>
<text text-anchor="start" x="600.33" y="-240.2" font-family="Arial" font-size="14.00">id </text>
<text text-anchor="start" x="615.12" y="-240.2" font-family="Arial" font-size="14.00" fill="#666666">[integer]</text>
<polygon fill="none" stroke="black" points="593.33,-197.2 593.33,-228 873.26,-228 873.26,-197.2 593.33,-197.2"/>
<text text-anchor="start" x="600.33" y="-209.4" font-family="Arial" font-size="14.00">author_id </text>
<text text-anchor="start" x="662.6" y="-209.4" font-family="Arial" font-size="14.00" fill="#666666">[integer]</text>
<polygon fill="none" stroke="black" points="593.33,-166.4 593.33,-197.2 873.26,-197.2 873.26,-166.4 593.33,-166.4"/>
<text text-anchor="start" x="600.33" y="-178.6" font-family="Arial" font-size="14.00">width </text>
<text text-anchor="start" x="636.91" y="-178.6" font-family="Arial" font-size="14.00" fill="#666666">[integer]</text>
<polygon fill="none" stroke="black" points="593.33,-135.6 593.33,-166.4 873.26,-166.4 873.26,-135.6 593.33,-135.6"/>
<text text-anchor="start" x="600.33" y="-147.8" font-family="Arial" font-size="14.00">height </text>
<text text-anchor="start" x="642.37" y="-147.8" font-family="Arial" font-size="14.00" fill="#666666">[integer]</text>
<polygon fill="none" stroke="black" points="593.33,-104.8 593.33,-135.6 873.26,-135.6 873.26,-104.8 593.33,-104.8"/>
<text text-anchor="start" x="600.33" y="-117" font-family="Arial" font-size="14.00">mime_type </text>
<text text-anchor="start" x="672.69" y="-117" font-family="Arial" font-size="14.00" fill="#666666">[varchar(255)]</text>
<polygon fill="none" stroke="black" points="593.33,-74 593.33,-104.8 873.26,-104.8 873.26,-74 593.33,-74"/>
<text text-anchor="start" x="600.33" y="-86.2" font-family="Arial" font-size="14.00">folder_url </text>
<text text-anchor="start" x="662.59" y="-86.2" font-family="Arial" font-size="14.00" fill="#666666">[varchar(255)]</text>
<polygon fill="none" stroke="black" points="593.33,-43.2 593.33,-74 873.26,-74 873.26,-43.2 593.33,-43.2"/>
<text text-anchor="start" x="600.33" y="-55.4" font-family="Arial" font-size="14.00">file_name </text>
<text text-anchor="start" x="664.93" y="-55.4" font-family="Arial" font-size="14.00" fill="#666666">[varchar(255)]</text>
</g>
<!-- identity.person_content&#45;&gt;content.media_core -->
<g id="edge2" class="edge">
<title>identity.person_content:media_id&#45;&gt;content.media_core:id</title>
<path fill="none" stroke="black" d="M706.67,-681.09C802.64,-671.24 756.59,-521.51 695.27,-435.2 667.44,-396.03 621.21,-438.34 593.33,-399.2 553.16,-342.8 523.09,-243.4 592.33,-243.4"/>
<polygon fill="black" stroke="black" points="706.59,-681.09 696.38,-677.09 701.26,-681.35 696.94,-681.57 696.94,-681.57 696.94,-681.57 701.26,-681.35 696.83,-686.08 706.59,-681.09"/>
<text text-anchor="start" x="703.27" y="-691.6" font-family="Arial" font-size="10.00">FOREIGN KEY (media_id) REFERENCES content.media_core(id) ON DELETE SET NULL</text>
</g>
</g>
</svg>
