<?xml version="1.0" encoding="UTF-8" standalone="no"?>
<!DOCTYPE svg PUBLIC "-//W3C//DTD SVG 1.1//EN"
 "http://www.w3.org/Graphics/SVG/1.1/DTD/svg11.dtd">
<!-- Generated by graphviz version 12.1.2 (20240928.0832)
 -->
<!-- Title: identity.person_biography Pages: 1 -->
<svg width="1151pt" height="602pt"
 viewBox="0.00 0.00 1150.65 602.00" xmlns="http://www.w3.org/2000/svg" xmlns:xlink="http://www.w3.org/1999/xlink">
<g id="graph0" class="graph" transform="scale(1 1) rotate(0) translate(4 598)">
<title>identity.person_biography</title>
<polygon fill="white" stroke="none" points="-4,4 -4,-598 1146.65,-598 1146.65,4 -4,4"/>
<!-- identity.person_biography -->
<g id="node1" class="node">
<title>identity.person_biography</title>
<polygon fill="#efefef" stroke="none" points="387.32,-512.2 387.32,-547.8 715.27,-547.8 715.27,-512.2 387.32,-512.2"/>
<polygon fill="none" stroke="black" points="387.32,-512.2 387.32,-547.8 715.27,-547.8 715.27,-512.2 387.32,-512.2"/>
<text text-anchor="start" x="394.32" y="-525.6" font-family="Arial Bold" font-size="18.00">identity.person_biography</text>
<text text-anchor="start" x="583.79" y="-525.6" font-family="Arial" font-size="14.00">    </text>
<text text-anchor="start" x="614.9" y="-525.6" font-family="Arial" font-size="14.00" fill="#666666">[BASE TABLE]</text>
<polygon fill="none" stroke="black" points="387.32,-481.4 387.32,-512.2 715.27,-512.2 715.27,-481.4 387.32,-481.4"/>
<text text-anchor="start" x="394.32" y="-493.6" font-family="Arial" font-size="14.00">entity_id </text>
<text text-anchor="start" x="450.35" y="-493.6" font-family="Arial" font-size="14.00" fill="#666666">[integer]</text>
<polygon fill="none" stroke="black" points="387.32,-450.6 387.32,-481.4 715.27,-481.4 715.27,-450.6 387.32,-450.6"/>
<text text-anchor="start" x="394.32" y="-462.8" font-family="Arial" font-size="14.00">birth_place_id </text>
<text text-anchor="start" x="485.38" y="-462.8" font-family="Arial" font-size="14.00" fill="#666666">[integer]</text>
<polygon fill="none" stroke="black" points="387.32,-419.8 387.32,-450.6 715.27,-450.6 715.27,-419.8 387.32,-419.8"/>
<text text-anchor="start" x="394.32" y="-432" font-family="Arial" font-size="14.00">death_place_id </text>
<text text-anchor="start" x="493.18" y="-432" font-family="Arial" font-size="14.00" fill="#666666">[integer]</text>
<polygon fill="none" stroke="black" points="387.32,-389 387.32,-419.8 715.27,-419.8 715.27,-389 387.32,-389"/>
<text text-anchor="start" x="394.32" y="-401.2" font-family="Arial" font-size="14.00">birth_date </text>
<text text-anchor="start" x="460.48" y="-401.2" font-family="Arial" font-size="14.00" fill="#666666">[date]</text>
<polygon fill="none" stroke="black" points="387.32,-358.2 387.32,-389 715.27,-389 715.27,-358.2 387.32,-358.2"/>
<text text-anchor="start" x="394.32" y="-370.4" font-family="Arial" font-size="14.00">death_date </text>
<text text-anchor="start" x="468.28" y="-370.4" font-family="Arial" font-size="14.00" fill="#666666">[date]</text>
<polygon fill="none" stroke="black" stroke-width="3" points="385.82,-356.7 385.82,-549.3 716.77,-549.3 716.77,-356.7 385.82,-356.7"/>
</g>
<!-- identity.entity -->
<g id="node2" class="node">
<title>identity.entity</title>
<polygon fill="#efefef" stroke="none" points="45.01,-151 45.01,-186.6 323.58,-186.6 323.58,-151 45.01,-151"/>
<polygon fill="none" stroke="black" points="45.01,-151 45.01,-186.6 323.58,-186.6 323.58,-151 45.01,-151"/>
<text text-anchor="start" x="71.81" y="-164.4" font-family="Arial Bold" font-size="18.00">identity.entity</text>
<text text-anchor="start" x="172.29" y="-164.4" font-family="Arial" font-size="14.00">    </text>
<text text-anchor="start" x="203.41" y="-164.4" font-family="Arial" font-size="14.00" fill="#666666">[BASE TABLE]</text>
<polygon fill="none" stroke="black" points="45.01,-120.2 45.01,-151 323.58,-151 323.58,-120.2 45.01,-120.2"/>
<text text-anchor="start" x="52.01" y="-132.4" font-family="Arial" font-size="14.00">anonymized_at </text>
<text text-anchor="start" x="150.86" y="-132.4" font-family="Arial" font-size="14.00" fill="#666666">[timestamp with time zone]</text>
<polygon fill="none" stroke="black" points="45.01,-89.4 45.01,-120.2 323.58,-120.2 323.58,-89.4 45.01,-89.4"/>
<text text-anchor="start" x="52.01" y="-101.6" font-family="Arial" font-size="14.00">id </text>
<text text-anchor="start" x="66.8" y="-101.6" font-family="Arial" font-size="14.00" fill="#666666">[integer]</text>
</g>
<!-- identity.person_biography&#45;&gt;identity.entity -->
<g id="edge1" class="edge">
<title>identity.person_biography:entity_id&#45;&gt;identity.entity:id</title>
<path fill="none" stroke="black" d="M376.46,-494.88C307.2,-465.3 409.15,-104.8 324.58,-104.8"/>
<polygon fill="black" stroke="black" points="376.18,-494.82 385.13,-501.15 381.41,-495.84 385.66,-496.67 385.66,-496.67 385.66,-496.67 381.41,-495.84 386.85,-492.32 376.18,-494.82"/>
<text text-anchor="start" x="7" y="-506.8" font-family="Arial" font-size="10.00">FOREIGN KEY (entity_id) REFERENCES identity.entity(id) ON DELETE CASCADE</text>
</g>
<!-- geo.place_core -->
<g id="node3" class="node">
<title>geo.place_core</title>
<polygon fill="#efefef" stroke="none" points="427.84,-197.2 427.84,-232.8 674.76,-232.8 674.76,-197.2 427.84,-197.2"/>
<polygon fill="none" stroke="black" points="427.84,-197.2 427.84,-232.8 674.76,-232.8 674.76,-197.2 427.84,-197.2"/>
<text text-anchor="start" x="434.84" y="-210.6" font-family="Arial Bold" font-size="18.00">geo.place_core</text>
<text text-anchor="start" x="543.27" y="-210.6" font-family="Arial" font-size="14.00">    </text>
<text text-anchor="start" x="574.38" y="-210.6" font-family="Arial" font-size="14.00" fill="#666666">[BASE TABLE]</text>
<polygon fill="none" stroke="black" points="427.84,-166.4 427.84,-197.2 674.76,-197.2 674.76,-166.4 427.84,-166.4"/>
<text text-anchor="start" x="434.84" y="-178.6" font-family="Arial" font-size="14.00">id </text>
<text text-anchor="start" x="449.62" y="-178.6" font-family="Arial" font-size="14.00" fill="#666666">[integer]</text>
<polygon fill="none" stroke="black" points="427.84,-135.6 427.84,-166.4 674.76,-166.4 674.76,-135.6 427.84,-135.6"/>
<text text-anchor="start" x="434.84" y="-147.8" font-family="Arial" font-size="14.00">elevation </text>
<text text-anchor="start" x="494.77" y="-147.8" font-family="Arial" font-size="14.00" fill="#666666">[smallint]</text>
<polygon fill="none" stroke="black" points="427.84,-104.8 427.84,-135.6 674.76,-135.6 674.76,-104.8 427.84,-104.8"/>
<text text-anchor="start" x="434.84" y="-117" font-family="Arial" font-size="14.00">type_id </text>
<text text-anchor="start" x="483.87" y="-117" font-family="Arial" font-size="14.00" fill="#666666">[smallint]</text>
<polygon fill="none" stroke="black" points="427.84,-74 427.84,-104.8 674.76,-104.8 674.76,-74 427.84,-74"/>
<text text-anchor="start" x="434.84" y="-86.2" font-family="Arial" font-size="14.00">name </text>
<text text-anchor="start" x="473.75" y="-86.2" font-family="Arial" font-size="14.00" fill="#666666">[varchar(60)]</text>
<polygon fill="none" stroke="black" points="427.84,-43.2 427.84,-74 674.76,-74 674.76,-43.2 427.84,-43.2"/>
<text text-anchor="start" x="434.84" y="-55.4" font-family="Arial" font-size="14.00">coordinates </text>
<text text-anchor="start" x="511.11" y="-55.4" font-family="Arial" font-size="14.00" fill="#666666">[geometry(Point,4326)]</text>
</g>
<!-- identity.person_biography&#45;&gt;geo.place_core -->
<g id="edge2" class="edge">
<title>identity.person_biography:birth_place_id&#45;&gt;geo.place_core:id</title>
<path fill="none" stroke="black" d="M726.13,-463.37C775.4,-434.72 735.94,-181.8 675.76,-181.8"/>
<polygon fill="black" stroke="black" points="726.26,-463.33 715.44,-461.57 721.1,-464.71 716.92,-465.83 716.92,-465.83 716.92,-465.83 721.1,-464.71 717.76,-470.26 726.26,-463.33"/>
<text text-anchor="start" x="723.27" y="-476" font-family="Arial" font-size="10.00">FOREIGN KEY (birth_place_id) REFERENCES geo.place_core(id) ON DELETE SET NULL</text>
</g>
<!-- identity.person_biography&#45;&gt;geo.place_core -->
<g id="edge3" class="edge">
<title>identity.person_biography:death_place_id&#45;&gt;geo.place_core:id</title>
<path fill="none" stroke="black" d="M726.52,-434.47C827.72,-419.61 786.25,-181.8 675.76,-181.8"/>
<polygon fill="black" stroke="black" points="726.58,-434.47 716.29,-430.69 721.26,-434.85 716.94,-435.15 716.94,-435.15 716.94,-435.15 721.26,-434.85 716.93,-439.67 726.58,-434.47"/>
<text text-anchor="start" x="723.27" y="-445.2" font-family="Arial" font-size="10.00">FOREIGN KEY (death_place_id) REFERENCES geo.place_core(id) ON DELETE SET NULL</text>
</g>
</g>
</svg>
