<?xml version="1.0" encoding="UTF-8" standalone="no"?>
<!DOCTYPE svg PUBLIC "-//W3C//DTD SVG 1.1//EN"
 "http://www.w3.org/Graphics/SVG/1.1/DTD/svg11.dtd">
<!-- Generated by graphviz version 12.1.2 (20240928.0832)
 -->
<!-- Title: identity.v_person Pages: 1 -->
<svg width="379pt" height="783pt"
 viewBox="0.00 0.00 378.96 782.80" xmlns="http://www.w3.org/2000/svg" xmlns:xlink="http://www.w3.org/1999/xlink">
<g id="graph0" class="graph" transform="scale(1 1) rotate(0) translate(4 778.8)">
<title>identity.v_person</title>
<polygon fill="white" stroke="none" points="-4,4 -4,-778.8 374.96,-778.8 374.96,4 -4,4"/>
<!-- identity.v_person -->
<g id="node1" class="node">
<title>identity.v_person</title>
<polygon fill="#efefef" stroke="none" points="46.2,-693 46.2,-728.6 324.76,-728.6 324.76,-693 46.2,-693"/>
<polygon fill="none" stroke="black" points="46.2,-693 46.2,-728.6 324.76,-728.6 324.76,-693 46.2,-693"/>
<text text-anchor="start" x="85.4" y="-706.4" font-family="Arial Bold" font-size="18.00">identity.v_person</text>
<text text-anchor="start" x="210.89" y="-706.4" font-family="Arial" font-size="14.00">    </text>
<text text-anchor="start" x="242" y="-706.4" font-family="Arial" font-size="14.00" fill="#666666">[VIEW]</text>
<polygon fill="none" stroke="black" points="46.2,-662.2 46.2,-693 324.76,-693 324.76,-662.2 46.2,-662.2"/>
<text text-anchor="start" x="53.2" y="-674.4" font-family="Arial" font-size="14.00">identifier </text>
<text text-anchor="start" x="110.01" y="-674.4" font-family="Arial" font-size="14.00" fill="#666666">[integer]</text>
<polygon fill="none" stroke="black" points="46.2,-631.4 46.2,-662.2 324.76,-662.2 324.76,-631.4 46.2,-631.4"/>
<text text-anchor="start" x="53.2" y="-643.6" font-family="Arial" font-size="14.00">anonymized_at </text>
<text text-anchor="start" x="152.04" y="-643.6" font-family="Arial" font-size="14.00" fill="#666666">[timestamp with time zone]</text>
<polygon fill="none" stroke="black" points="46.2,-600.6 46.2,-631.4 324.76,-631.4 324.76,-600.6 46.2,-600.6"/>
<text text-anchor="start" x="53.2" y="-612.8" font-family="Arial" font-size="14.00">given_name </text>
<text text-anchor="start" x="133.37" y="-612.8" font-family="Arial" font-size="14.00" fill="#666666">[varchar(32)]</text>
<polygon fill="none" stroke="black" points="46.2,-569.8 46.2,-600.6 324.76,-600.6 324.76,-569.8 46.2,-569.8"/>
<text text-anchor="start" x="53.2" y="-582" font-family="Arial" font-size="14.00">additional_name </text>
<text text-anchor="start" x="159.83" y="-582" font-family="Arial" font-size="14.00" fill="#666666">[varchar(32)]</text>
<polygon fill="none" stroke="black" points="46.2,-539 46.2,-569.8 324.76,-569.8 324.76,-539 46.2,-539"/>
<text text-anchor="start" x="53.2" y="-551.2" font-family="Arial" font-size="14.00">family_name </text>
<text text-anchor="start" x="136.45" y="-551.2" font-family="Arial" font-size="14.00" fill="#666666">[varchar(32)]</text>
<polygon fill="none" stroke="black" points="46.2,-508.2 46.2,-539 324.76,-539 324.76,-508.2 46.2,-508.2"/>
<text text-anchor="start" x="53.2" y="-520.4" font-family="Arial" font-size="14.00">alternative_name </text>
<text text-anchor="start" x="164.49" y="-520.4" font-family="Arial" font-size="14.00" fill="#666666">[varchar(32)]</text>
<polygon fill="none" stroke="black" points="46.2,-477.4 46.2,-508.2 324.76,-508.2 324.76,-477.4 46.2,-477.4"/>
<text text-anchor="start" x="53.2" y="-489.6" font-family="Arial" font-size="14.00">alternate_name </text>
<text text-anchor="start" x="154.38" y="-489.6" font-family="Arial" font-size="14.00" fill="#666666">[varchar(32)]</text>
<polygon fill="none" stroke="black" points="46.2,-446.6 46.2,-477.4 324.76,-477.4 324.76,-446.6 46.2,-446.6"/>
<text text-anchor="start" x="53.2" y="-458.8" font-family="Arial" font-size="14.00">honorific_prefix </text>
<text text-anchor="start" x="152.03" y="-458.8" font-family="Arial" font-size="14.00" fill="#666666">[varchar(32)]</text>
<polygon fill="none" stroke="black" points="46.2,-415.8 46.2,-446.6 324.76,-446.6 324.76,-415.8 46.2,-415.8"/>
<text text-anchor="start" x="53.2" y="-428" font-family="Arial" font-size="14.00">honorific_suffix </text>
<text text-anchor="start" x="150.47" y="-428" font-family="Arial" font-size="14.00" fill="#666666">[varchar(32)]</text>
<polygon fill="none" stroke="black" points="46.2,-385 46.2,-415.8 324.76,-415.8 324.76,-385 46.2,-385"/>
<text text-anchor="start" x="53.2" y="-397.2" font-family="Arial" font-size="14.00">gender </text>
<text text-anchor="start" x="100.68" y="-397.2" font-family="Arial" font-size="14.00" fill="#666666">[smallint]</text>
<polygon fill="none" stroke="black" points="46.2,-354.2 46.2,-385 324.76,-385 324.76,-354.2 46.2,-354.2"/>
<text text-anchor="start" x="53.2" y="-366.4" font-family="Arial" font-size="14.00">nationality </text>
<text text-anchor="start" x="120.13" y="-366.4" font-family="Arial" font-size="14.00" fill="#666666">[smallint]</text>
<polygon fill="none" stroke="black" points="46.2,-323.4 46.2,-354.2 324.76,-354.2 324.76,-323.4 46.2,-323.4"/>
<text text-anchor="start" x="53.2" y="-335.6" font-family="Arial" font-size="14.00">birth_date </text>
<text text-anchor="start" x="119.36" y="-335.6" font-family="Arial" font-size="14.00" fill="#666666">[date]</text>
<polygon fill="none" stroke="black" points="46.2,-292.6 46.2,-323.4 324.76,-323.4 324.76,-292.6 46.2,-292.6"/>
<text text-anchor="start" x="53.2" y="-304.8" font-family="Arial" font-size="14.00">birth_place_id </text>
<text text-anchor="start" x="144.26" y="-304.8" font-family="Arial" font-size="14.00" fill="#666666">[integer]</text>
<polygon fill="none" stroke="black" points="46.2,-261.8 46.2,-292.6 324.76,-292.6 324.76,-261.8 46.2,-261.8"/>
<text text-anchor="start" x="53.2" y="-274" font-family="Arial" font-size="14.00">death_date </text>
<text text-anchor="start" x="127.16" y="-274" font-family="Arial" font-size="14.00" fill="#666666">[date]</text>
<polygon fill="none" stroke="black" points="46.2,-231 46.2,-261.8 324.76,-261.8 324.76,-231 46.2,-231"/>
<text text-anchor="start" x="53.2" y="-243.2" font-family="Arial" font-size="14.00">death_place_id </text>
<text text-anchor="start" x="152.06" y="-243.2" font-family="Arial" font-size="14.00" fill="#666666">[integer]</text>
<polygon fill="none" stroke="black" points="46.2,-200.2 46.2,-231 324.76,-231 324.76,-200.2 46.2,-200.2"/>
<text text-anchor="start" x="53.2" y="-212.4" font-family="Arial" font-size="14.00">url </text>
<text text-anchor="start" x="72.65" y="-212.4" font-family="Arial" font-size="14.00" fill="#666666">[varchar(255)]</text>
<polygon fill="none" stroke="black" points="46.2,-169.4 46.2,-200.2 324.76,-200.2 324.76,-169.4 46.2,-169.4"/>
<text text-anchor="start" x="53.2" y="-181.6" font-family="Arial" font-size="14.00">address_id </text>
<text text-anchor="start" x="125.58" y="-181.6" font-family="Arial" font-size="14.00" fill="#666666">[integer]</text>
<polygon fill="none" stroke="black" points="46.2,-138.6 46.2,-169.4 324.76,-169.4 324.76,-138.6 46.2,-138.6"/>
<text text-anchor="start" x="53.2" y="-150.8" font-family="Arial" font-size="14.00">image_id </text>
<text text-anchor="start" x="113.9" y="-150.8" font-family="Arial" font-size="14.00" fill="#666666">[integer]</text>
<polygon fill="none" stroke="black" points="46.2,-107.8 46.2,-138.6 324.76,-138.6 324.76,-107.8 46.2,-107.8"/>
<text text-anchor="start" x="53.2" y="-120" font-family="Arial" font-size="14.00">occupation </text>
<text text-anchor="start" x="124.81" y="-120" font-family="Arial" font-size="14.00" fill="#666666">[varchar(30)]</text>
<polygon fill="none" stroke="black" points="46.2,-77 46.2,-107.8 324.76,-107.8 324.76,-77 46.2,-77"/>
<text text-anchor="start" x="53.2" y="-89.2" font-family="Arial" font-size="14.00">description </text>
<text text-anchor="start" x="124.79" y="-89.2" font-family="Arial" font-size="14.00" fill="#666666">[varchar(100)]</text>
<polygon fill="none" stroke="black" points="46.2,-46.2 46.2,-77 324.76,-77 324.76,-46.2 46.2,-46.2"/>
<text text-anchor="start" x="53.2" y="-58.4" font-family="Arial" font-size="14.00">disambiguating_description </text>
<text text-anchor="start" x="226.75" y="-58.4" font-family="Arial" font-size="14.00" fill="#666666">[text]</text>
<polygon fill="none" stroke="black" stroke-width="3" points="44.7,-44.7 44.7,-730.1 326.26,-730.1 326.26,-44.7 44.7,-44.7"/>
</g>
</g>
</svg>
