<?xml version="1.0" encoding="UTF-8" standalone="no"?>
<!DOCTYPE svg PUBLIC "-//W3C//DTD SVG 1.1//EN"
 "http://www.w3.org/Graphics/SVG/1.1/DTD/svg11.dtd">
<!-- Generated by graphviz version 12.1.2 (20240928.0832)
 -->
<!-- Title: identity.v_role Pages: 1 -->
<svg width="307pt" height="875pt"
 viewBox="0.00 0.00 307.40 875.20" xmlns="http://www.w3.org/2000/svg" xmlns:xlink="http://www.w3.org/1999/xlink">
<g id="graph0" class="graph" transform="scale(1 1) rotate(0) translate(4 871.2)">
<title>identity.v_role</title>
<polygon fill="white" stroke="none" points="-4,4 -4,-871.2 303.4,-871.2 303.4,4 -4,4"/>
<!-- identity.v_role -->
<g id="node1" class="node">
<title>identity.v_role</title>
<polygon fill="#efefef" stroke="none" points="46.2,-785.4 46.2,-821 253.2,-821 253.2,-785.4 46.2,-785.4"/>
<polygon fill="none" stroke="black" points="46.2,-785.4 46.2,-821 253.2,-821 253.2,-785.4 46.2,-785.4"/>
<text text-anchor="start" x="59.62" y="-798.8" font-family="Arial Bold" font-size="18.00">identity.v_role</text>
<text text-anchor="start" x="165.1" y="-798.8" font-family="Arial" font-size="14.00">    </text>
<text text-anchor="start" x="196.22" y="-798.8" font-family="Arial" font-size="14.00" fill="#666666">[VIEW]</text>
<polygon fill="none" stroke="black" points="46.2,-754.6 46.2,-785.4 253.2,-785.4 253.2,-754.6 46.2,-754.6"/>
<text text-anchor="start" x="53.2" y="-766.8" font-family="Arial" font-size="14.00">id </text>
<text text-anchor="start" x="67.99" y="-766.8" font-family="Arial" font-size="14.00" fill="#666666">[smallint]</text>
<polygon fill="none" stroke="black" points="46.2,-723.8 46.2,-754.6 253.2,-754.6 253.2,-723.8 46.2,-723.8"/>
<text text-anchor="start" x="53.2" y="-736" font-family="Arial" font-size="14.00">name </text>
<text text-anchor="start" x="92.11" y="-736" font-family="Arial" font-size="14.00" fill="#666666">[varchar(13)]</text>
<polygon fill="none" stroke="black" points="46.2,-693 46.2,-723.8 253.2,-723.8 253.2,-693 46.2,-693"/>
<text text-anchor="start" x="53.2" y="-705.2" font-family="Arial" font-size="14.00">permissions </text>
<text text-anchor="start" x="131.78" y="-705.2" font-family="Arial" font-size="14.00" fill="#666666">[integer]</text>
<polygon fill="none" stroke="black" points="46.2,-662.2 46.2,-693 253.2,-693 253.2,-662.2 46.2,-662.2"/>
<text text-anchor="start" x="53.2" y="-674.4" font-family="Arial" font-size="14.00">access_admin </text>
<text text-anchor="start" x="146.58" y="-674.4" font-family="Arial" font-size="14.00" fill="#666666">[boolean]</text>
<polygon fill="none" stroke="black" points="46.2,-631.4 46.2,-662.2 253.2,-662.2 253.2,-631.4 46.2,-631.4"/>
<text text-anchor="start" x="53.2" y="-643.6" font-family="Arial" font-size="14.00">create_contents </text>
<text text-anchor="start" x="156.71" y="-643.6" font-family="Arial" font-size="14.00" fill="#666666">[boolean]</text>
<polygon fill="none" stroke="black" points="46.2,-600.6 46.2,-631.4 253.2,-631.4 253.2,-600.6 46.2,-600.6"/>
<text text-anchor="start" x="53.2" y="-612.8" font-family="Arial" font-size="14.00">edit_contents </text>
<text text-anchor="start" x="140.37" y="-612.8" font-family="Arial" font-size="14.00" fill="#666666">[boolean]</text>
<polygon fill="none" stroke="black" points="46.2,-569.8 46.2,-600.6 253.2,-600.6 253.2,-569.8 46.2,-569.8"/>
<text text-anchor="start" x="53.2" y="-582" font-family="Arial" font-size="14.00">delete_contents </text>
<text text-anchor="start" x="155.94" y="-582" font-family="Arial" font-size="14.00" fill="#666666">[boolean]</text>
<polygon fill="none" stroke="black" points="46.2,-539 46.2,-569.8 253.2,-569.8 253.2,-539 46.2,-539"/>
<text text-anchor="start" x="53.2" y="-551.2" font-family="Arial" font-size="14.00">publish_contents </text>
<text text-anchor="start" x="162.16" y="-551.2" font-family="Arial" font-size="14.00" fill="#666666">[boolean]</text>
<polygon fill="none" stroke="black" points="46.2,-508.2 46.2,-539 253.2,-539 253.2,-508.2 46.2,-508.2"/>
<text text-anchor="start" x="53.2" y="-520.4" font-family="Arial" font-size="14.00">create_comments </text>
<text text-anchor="start" x="168.36" y="-520.4" font-family="Arial" font-size="14.00" fill="#666666">[boolean]</text>
<polygon fill="none" stroke="black" points="46.2,-477.4 46.2,-508.2 253.2,-508.2 253.2,-477.4 46.2,-477.4"/>
<text text-anchor="start" x="53.2" y="-489.6" font-family="Arial" font-size="14.00">edit_comments </text>
<text text-anchor="start" x="152.02" y="-489.6" font-family="Arial" font-size="14.00" fill="#666666">[boolean]</text>
<polygon fill="none" stroke="black" points="46.2,-446.6 46.2,-477.4 253.2,-477.4 253.2,-446.6 46.2,-446.6"/>
<text text-anchor="start" x="53.2" y="-458.8" font-family="Arial" font-size="14.00">delete_comments </text>
<text text-anchor="start" x="167.59" y="-458.8" font-family="Arial" font-size="14.00" fill="#666666">[boolean]</text>
<polygon fill="none" stroke="black" points="46.2,-415.8 46.2,-446.6 253.2,-446.6 253.2,-415.8 46.2,-415.8"/>
<text text-anchor="start" x="53.2" y="-428" font-family="Arial" font-size="14.00">manage_users </text>
<text text-anchor="start" x="149.7" y="-428" font-family="Arial" font-size="14.00" fill="#666666">[boolean]</text>
<polygon fill="none" stroke="black" points="46.2,-385 46.2,-415.8 253.2,-415.8 253.2,-385 46.2,-385"/>
<text text-anchor="start" x="53.2" y="-397.2" font-family="Arial" font-size="14.00">manage_groups </text>
<text text-anchor="start" x="158.28" y="-397.2" font-family="Arial" font-size="14.00" fill="#666666">[boolean]</text>
<polygon fill="none" stroke="black" points="46.2,-354.2 46.2,-385 253.2,-385 253.2,-354.2 46.2,-354.2"/>
<text text-anchor="start" x="53.2" y="-366.4" font-family="Arial" font-size="14.00">manage_contents </text>
<text text-anchor="start" x="168.39" y="-366.4" font-family="Arial" font-size="14.00" fill="#666666">[boolean]</text>
<polygon fill="none" stroke="black" points="46.2,-323.4 46.2,-354.2 253.2,-354.2 253.2,-323.4 46.2,-323.4"/>
<text text-anchor="start" x="53.2" y="-335.6" font-family="Arial" font-size="14.00">manage_tags </text>
<text text-anchor="start" x="141.93" y="-335.6" font-family="Arial" font-size="14.00" fill="#666666">[boolean]</text>
<polygon fill="none" stroke="black" points="46.2,-292.6 46.2,-323.4 253.2,-323.4 253.2,-292.6 46.2,-292.6"/>
<text text-anchor="start" x="53.2" y="-304.8" font-family="Arial" font-size="14.00">manage_menus </text>
<text text-anchor="start" x="157.49" y="-304.8" font-family="Arial" font-size="14.00" fill="#666666">[boolean]</text>
<polygon fill="none" stroke="black" points="46.2,-261.8 46.2,-292.6 253.2,-292.6 253.2,-261.8 46.2,-261.8"/>
<text text-anchor="start" x="53.2" y="-274" font-family="Arial" font-size="14.00">upload_files </text>
<text text-anchor="start" x="131.81" y="-274" font-family="Arial" font-size="14.00" fill="#666666">[boolean]</text>
<polygon fill="none" stroke="black" points="46.2,-231 46.2,-261.8 253.2,-261.8 253.2,-231 46.2,-231"/>
<text text-anchor="start" x="53.2" y="-243.2" font-family="Arial" font-size="14.00">can_read </text>
<text text-anchor="start" x="115.47" y="-243.2" font-family="Arial" font-size="14.00" fill="#666666">[boolean]</text>
<polygon fill="none" stroke="black" points="46.2,-200.2 46.2,-231 253.2,-231 253.2,-200.2 46.2,-200.2"/>
<text text-anchor="start" x="53.2" y="-212.4" font-family="Arial" font-size="14.00">edit_others_contents </text>
<text text-anchor="start" x="187.07" y="-212.4" font-family="Arial" font-size="14.00" fill="#666666">[boolean]</text>
<polygon fill="none" stroke="black" points="46.2,-169.4 46.2,-200.2 253.2,-200.2 253.2,-169.4 46.2,-169.4"/>
<text text-anchor="start" x="53.2" y="-181.6" font-family="Arial" font-size="14.00">moderate_comments </text>
<text text-anchor="start" x="188.59" y="-181.6" font-family="Arial" font-size="14.00" fill="#666666">[boolean]</text>
<polygon fill="none" stroke="black" points="46.2,-138.6 46.2,-169.4 253.2,-169.4 253.2,-138.6 46.2,-138.6"/>
<text text-anchor="start" x="53.2" y="-150.8" font-family="Arial" font-size="14.00">view_transactions </text>
<text text-anchor="start" x="168.37" y="-150.8" font-family="Arial" font-size="14.00" fill="#666666">[boolean]</text>
<polygon fill="none" stroke="black" points="46.2,-107.8 46.2,-138.6 253.2,-138.6 253.2,-107.8 46.2,-107.8"/>
<text text-anchor="start" x="53.2" y="-120" font-family="Arial" font-size="14.00">manage_commerce </text>
<text text-anchor="start" x="180.81" y="-120" font-family="Arial" font-size="14.00" fill="#666666">[boolean]</text>
<polygon fill="none" stroke="black" points="46.2,-77 46.2,-107.8 253.2,-107.8 253.2,-77 46.2,-77"/>
<text text-anchor="start" x="53.2" y="-89.2" font-family="Arial" font-size="14.00">manage_system </text>
<text text-anchor="start" x="159.81" y="-89.2" font-family="Arial" font-size="14.00" fill="#666666">[boolean]</text>
<polygon fill="none" stroke="black" points="46.2,-46.2 46.2,-77 253.2,-77 253.2,-46.2 46.2,-46.2"/>
<text text-anchor="start" x="53.2" y="-58.4" font-family="Arial" font-size="14.00">export_data </text>
<text text-anchor="start" x="131.03" y="-58.4" font-family="Arial" font-size="14.00" fill="#666666">[boolean]</text>
<polygon fill="none" stroke="black" stroke-width="3" points="44.7,-44.7 44.7,-822.5 254.7,-822.5 254.7,-44.7 44.7,-44.7"/>
</g>
</g>
</svg>
