<?xml version="1.0" encoding="UTF-8" standalone="no"?>
<!DOCTYPE svg PUBLIC "-//W3C//DTD SVG 1.1//EN"
 "http://www.w3.org/Graphics/SVG/1.1/DTD/svg11.dtd">
<!-- Generated by graphviz version 12.1.2 (20240928.0832)
 -->
<!-- Title: identity.group Pages: 1 -->
<svg width="889pt" height="479pt"
 viewBox="0.00 0.00 889.16 478.80" xmlns="http://www.w3.org/2000/svg" xmlns:xlink="http://www.w3.org/1999/xlink">
<g id="graph0" class="graph" transform="scale(1 1) rotate(0) translate(4 474.8)">
<title>identity.group</title>
<polygon fill="white" stroke="none" points="-4,4 -4,-474.8 885.16,-474.8 885.16,4 -4,4"/>
<!-- identity.group -->
<g id="node1" class="node">
<title>identity.group</title>
<polygon fill="#efefef" stroke="none" points="82.29,-169.4 82.29,-205 332.06,-205 332.06,-169.4 82.29,-169.4"/>
<polygon fill="none" stroke="black" points="82.29,-169.4 82.29,-205 332.06,-205 332.06,-169.4 82.29,-169.4"/>
<text text-anchor="start" x="94.18" y="-182.8" font-family="Arial Bold" font-size="18.00">identity.group</text>
<text text-anchor="start" x="195.67" y="-182.8" font-family="Arial" font-size="14.00">    </text>
<text text-anchor="start" x="226.79" y="-182.8" font-family="Arial" font-size="14.00" fill="#666666">[BASE TABLE]</text>
<polygon fill="none" stroke="black" points="82.29,-138.6 82.29,-169.4 332.06,-169.4 332.06,-138.6 82.29,-138.6"/>
<text text-anchor="start" x="89.29" y="-150.8" font-family="Arial" font-size="14.00">created_at </text>
<text text-anchor="start" x="159.34" y="-150.8" font-family="Arial" font-size="14.00" fill="#666666">[timestamp with time zone]</text>
<polygon fill="none" stroke="black" points="82.29,-107.8 82.29,-138.6 332.06,-138.6 332.06,-107.8 82.29,-107.8"/>
<text text-anchor="start" x="89.29" y="-120" font-family="Arial" font-size="14.00">id </text>
<text text-anchor="start" x="104.07" y="-120" font-family="Arial" font-size="14.00" fill="#666666">[integer]</text>
<polygon fill="none" stroke="black" points="82.29,-77 82.29,-107.8 332.06,-107.8 332.06,-77 82.29,-77"/>
<text text-anchor="start" x="89.29" y="-89.2" font-family="Arial" font-size="14.00">name </text>
<text text-anchor="start" x="128.2" y="-89.2" font-family="Arial" font-size="14.00" fill="#666666">[varchar(32)]</text>
<polygon fill="none" stroke="black" points="82.29,-46.2 82.29,-77 332.06,-77 332.06,-46.2 82.29,-46.2"/>
<text text-anchor="start" x="89.29" y="-58.4" font-family="Arial" font-size="14.00">description </text>
<text text-anchor="start" x="160.88" y="-58.4" font-family="Arial" font-size="14.00" fill="#666666">[text]</text>
<polygon fill="none" stroke="black" stroke-width="3" points="80.79,-44.7 80.79,-206.5 333.56,-206.5 333.56,-44.7 80.79,-44.7"/>
</g>
<!-- identity.group_to_account -->
<g id="node2" class="node">
<title>identity.group_to_account</title>
<polygon fill="#efefef" stroke="none" points="43.2,-392 43.2,-427.6 371.15,-427.6 371.15,-392 43.2,-392"/>
<polygon fill="none" stroke="black" points="43.2,-392 43.2,-427.6 371.15,-427.6 371.15,-392 43.2,-392"/>
<text text-anchor="start" x="50.2" y="-405.4" font-family="Arial Bold" font-size="18.00">identity.group_to_account</text>
<text text-anchor="start" x="239.66" y="-405.4" font-family="Arial" font-size="14.00">    </text>
<text text-anchor="start" x="270.77" y="-405.4" font-family="Arial" font-size="14.00" fill="#666666">[BASE TABLE]</text>
<polygon fill="none" stroke="black" points="43.2,-361.2 43.2,-392 371.15,-392 371.15,-361.2 43.2,-361.2"/>
<text text-anchor="start" x="50.2" y="-373.4" font-family="Arial" font-size="14.00">group_id </text>
<text text-anchor="start" x="108.58" y="-373.4" font-family="Arial" font-size="14.00" fill="#666666">[integer]</text>
<polygon fill="none" stroke="black" points="43.2,-330.4 43.2,-361.2 371.15,-361.2 371.15,-330.4 43.2,-330.4"/>
<text text-anchor="start" x="50.2" y="-342.6" font-family="Arial" font-size="14.00">account_entity_id </text>
<text text-anchor="start" x="163.05" y="-342.6" font-family="Arial" font-size="14.00" fill="#666666">[integer]</text>
</g>
<!-- identity.group_to_account&#45;&gt;identity.group -->
<g id="edge1" class="edge">
<title>identity.group_to_account:group_id&#45;&gt;identity.group:id</title>
<path fill="none" stroke="black" d="M382.38,-375.87C483.58,-361.01 443.45,-123.2 333.06,-123.2"/>
<polygon fill="black" stroke="black" points="382.45,-375.87 372.16,-372.09 377.13,-376.25 372.81,-376.55 372.81,-376.55 372.81,-376.55 377.13,-376.25 372.8,-381.07 382.45,-375.87"/>
<text text-anchor="start" x="379.15" y="-386.6" font-family="Arial" font-size="10.00">FOREIGN KEY (group_id) REFERENCES identity.&quot;group&quot;(id) ON UPDATE CASCADE ON DELETE CASCADE</text>
</g>
</g>
</svg>
