<?xml version="1.0" encoding="UTF-8" standalone="no"?>
<!DOCTYPE svg PUBLIC "-//W3C//DTD SVG 1.1//EN"
 "http://www.w3.org/Graphics/SVG/1.1/DTD/svg11.dtd">
<!-- Generated by graphviz version 12.1.2 (20240928.0832)
 -->
<!-- Title: meta.containment_intent Pages: 1 -->
<svg width="417pt" height="352pt"
 viewBox="0.00 0.00 417.33 351.60" xmlns="http://www.w3.org/2000/svg" xmlns:xlink="http://www.w3.org/1999/xlink">
<g id="graph0" class="graph" transform="scale(1 1) rotate(0) translate(4 347.6)">
<title>meta.containment_intent</title>
<polygon fill="white" stroke="none" points="-4,4 -4,-347.6 413.33,-347.6 413.33,4 -4,4"/>
<!-- meta.containment_intent -->
<g id="node1" class="node">
<title>meta.containment_intent</title>
<polygon fill="#efefef" stroke="none" points="46.2,-261.8 46.2,-297.4 363.13,-297.4 363.13,-261.8 46.2,-261.8"/>
<polygon fill="none" stroke="black" points="46.2,-261.8 46.2,-297.4 363.13,-297.4 363.13,-261.8 46.2,-261.8"/>
<text text-anchor="start" x="53.2" y="-275.2" font-family="Arial Bold" font-size="18.00">meta.containment_intent</text>
<text text-anchor="start" x="231.64" y="-275.2" font-family="Arial" font-size="14.00">    </text>
<text text-anchor="start" x="262.76" y="-275.2" font-family="Arial" font-size="14.00" fill="#666666">[BASE TABLE]</text>
<polygon fill="none" stroke="black" points="46.2,-231 46.2,-261.8 363.13,-261.8 363.13,-231 46.2,-231"/>
<text text-anchor="start" x="53.2" y="-243.2" font-family="Arial" font-size="14.00">component_id </text>
<text text-anchor="start" x="145.04" y="-243.2" font-family="Arial" font-size="14.00" fill="#666666">[text]</text>
<polygon fill="none" stroke="black" points="46.2,-200.2 46.2,-231 363.13,-231 363.13,-200.2 46.2,-200.2"/>
<text text-anchor="start" x="53.2" y="-212.4" font-family="Arial" font-size="14.00">intent_density_bytes </text>
<text text-anchor="start" x="184.73" y="-212.4" font-family="Arial" font-size="14.00" fill="#666666">[smallint]</text>
<polygon fill="none" stroke="black" points="46.2,-169.4 46.2,-200.2 363.13,-200.2 363.13,-169.4 46.2,-169.4"/>
<text text-anchor="start" x="53.2" y="-181.6" font-family="Arial" font-size="14.00">rls_guard_bitmask </text>
<text text-anchor="start" x="171.48" y="-181.6" font-family="Arial" font-size="14.00" fill="#666666">[integer]</text>
<polygon fill="none" stroke="black" points="46.2,-138.6 46.2,-169.4 363.13,-169.4 363.13,-138.6 46.2,-138.6"/>
<text text-anchor="start" x="53.2" y="-150.8" font-family="Arial" font-size="14.00">mutation_procedures </text>
<text text-anchor="start" x="188.61" y="-150.8" font-family="Arial" font-size="14.00" fill="#666666">[text[]]</text>
<polygon fill="none" stroke="black" points="46.2,-107.8 46.2,-138.6 363.13,-138.6 363.13,-107.8 46.2,-107.8"/>
<text text-anchor="start" x="53.2" y="-120" font-family="Arial" font-size="14.00">immutable_keys </text>
<text text-anchor="start" x="158.24" y="-120" font-family="Arial" font-size="14.00" fill="#666666">[name[]]</text>
<polygon fill="none" stroke="black" points="46.2,-77 46.2,-107.8 363.13,-107.8 363.13,-77 46.2,-77"/>
<text text-anchor="start" x="53.2" y="-89.2" font-family="Arial" font-size="14.00">exempt_bloat_check </text>
<text text-anchor="start" x="185.5" y="-89.2" font-family="Arial" font-size="14.00" fill="#666666">[boolean]</text>
<polygon fill="none" stroke="black" points="46.2,-46.2 46.2,-77 363.13,-77 363.13,-46.2 46.2,-46.2"/>
<text text-anchor="start" x="53.2" y="-58.4" font-family="Arial" font-size="14.00">naive_density_bytes </text>
<text text-anchor="start" x="183.95" y="-58.4" font-family="Arial" font-size="14.00" fill="#666666">[smallint]</text>
<polygon fill="none" stroke="black" stroke-width="3" points="44.7,-44.7 44.7,-298.9 364.63,-298.9 364.63,-44.7 44.7,-44.7"/>
</g>
</g>
</svg>
