<?xml version="1.0" encoding="UTF-8" standalone="no"?>
<!DOCTYPE svg PUBLIC "-//W3C//DTD SVG 1.1//EN"
 "http://www.w3.org/Graphics/SVG/1.1/DTD/svg11.dtd">
<!-- Generated by graphviz version 12.1.2 (20240928.0832)
 -->
<!-- Title: meta.v_performance_sentinel Pages: 1 -->
<svg width="402pt" height="536pt"
 viewBox="0.00 0.00 402.48 536.40" xmlns="http://www.w3.org/2000/svg" xmlns:xlink="http://www.w3.org/1999/xlink">
<g id="graph0" class="graph" transform="scale(1 1) rotate(0) translate(4 532.4)">
<title>meta.v_performance_sentinel</title>
<polygon fill="white" stroke="none" points="-4,4 -4,-532.4 398.48,-532.4 398.48,4 -4,4"/>
<!-- meta.v_performance_sentinel -->
<g id="node1" class="node">
<title>meta.v_performance_sentinel</title>
<polygon fill="#efefef" stroke="none" points="46.2,-446.6 46.2,-482.2 348.28,-482.2 348.28,-446.6 46.2,-446.6"/>
<polygon fill="none" stroke="black" points="46.2,-446.6 46.2,-482.2 348.28,-482.2 348.28,-446.6 46.2,-446.6"/>
<text text-anchor="start" x="53.2" y="-460" font-family="Arial Bold" font-size="18.00">meta.v_performance_sentinel</text>
<text text-anchor="start" x="266.61" y="-460" font-family="Arial" font-size="14.00">    </text>
<text text-anchor="start" x="297.72" y="-460" font-family="Arial" font-size="14.00" fill="#666666">[VIEW]</text>
<polygon fill="none" stroke="black" points="46.2,-415.8 46.2,-446.6 348.28,-446.6 348.28,-415.8 46.2,-415.8"/>
<text text-anchor="start" x="53.2" y="-428" font-family="Arial" font-size="14.00">component_id </text>
<text text-anchor="start" x="145.04" y="-428" font-family="Arial" font-size="14.00" fill="#666666">[text]</text>
<polygon fill="none" stroke="black" points="46.2,-385 46.2,-415.8 348.28,-415.8 348.28,-385 46.2,-385"/>
<text text-anchor="start" x="53.2" y="-397.2" font-family="Arial" font-size="14.00">hot_blocker_alert </text>
<text text-anchor="start" x="164.49" y="-397.2" font-family="Arial" font-size="14.00" fill="#666666">[boolean]</text>
<polygon fill="none" stroke="black" points="46.2,-354.2 46.2,-385 348.28,-385 348.28,-354.2 46.2,-354.2"/>
<text text-anchor="start" x="53.2" y="-366.4" font-family="Arial" font-size="14.00">hot_blocker_cols </text>
<text text-anchor="start" x="162.15" y="-366.4" font-family="Arial" font-size="14.00" fill="#666666">[name[]]</text>
<polygon fill="none" stroke="black" points="46.2,-323.4 46.2,-354.2 348.28,-354.2 348.28,-323.4 46.2,-323.4"/>
<text text-anchor="start" x="53.2" y="-335.6" font-family="Arial" font-size="14.00">n_tup_upd </text>
<text text-anchor="start" x="123.27" y="-335.6" font-family="Arial" font-size="14.00" fill="#666666">[bigint]</text>
<polygon fill="none" stroke="black" points="46.2,-292.6 46.2,-323.4 348.28,-323.4 348.28,-292.6 46.2,-292.6"/>
<text text-anchor="start" x="53.2" y="-304.8" font-family="Arial" font-size="14.00">brin_drift_alert </text>
<text text-anchor="start" x="146.58" y="-304.8" font-family="Arial" font-size="14.00" fill="#666666">[boolean]</text>
<polygon fill="none" stroke="black" points="46.2,-261.8 46.2,-292.6 348.28,-292.6 348.28,-261.8 46.2,-261.8"/>
<text text-anchor="start" x="53.2" y="-274" font-family="Arial" font-size="14.00">brin_worst_col </text>
<text text-anchor="start" x="147.35" y="-274" font-family="Arial" font-size="14.00" fill="#666666">[name]</text>
<polygon fill="none" stroke="black" points="46.2,-231 46.2,-261.8 348.28,-261.8 348.28,-231 46.2,-231"/>
<text text-anchor="start" x="53.2" y="-243.2" font-family="Arial" font-size="14.00">brin_correlation </text>
<text text-anchor="start" x="153.59" y="-243.2" font-family="Arial" font-size="14.00" fill="#666666">[numeric(5,4)]</text>
<polygon fill="none" stroke="black" points="46.2,-200.2 46.2,-231 348.28,-231 348.28,-200.2 46.2,-200.2"/>
<text text-anchor="start" x="53.2" y="-212.4" font-family="Arial" font-size="14.00">bloat_alert </text>
<text text-anchor="start" x="122.47" y="-212.4" font-family="Arial" font-size="14.00" fill="#666666">[boolean]</text>
<polygon fill="none" stroke="black" points="46.2,-169.4 46.2,-200.2 348.28,-200.2 348.28,-169.4 46.2,-169.4"/>
<text text-anchor="start" x="53.2" y="-181.6" font-family="Arial" font-size="14.00">intent_density_bytes </text>
<text text-anchor="start" x="184.73" y="-181.6" font-family="Arial" font-size="14.00" fill="#666666">[smallint]</text>
<polygon fill="none" stroke="black" points="46.2,-138.6 46.2,-169.4 348.28,-169.4 348.28,-138.6 46.2,-138.6"/>
<text text-anchor="start" x="53.2" y="-150.8" font-family="Arial" font-size="14.00">bloat_threshold_bytes </text>
<text text-anchor="start" x="194.07" y="-150.8" font-family="Arial" font-size="14.00" fill="#666666">[integer]</text>
<polygon fill="none" stroke="black" points="46.2,-107.8 46.2,-138.6 348.28,-138.6 348.28,-107.8 46.2,-107.8"/>
<text text-anchor="start" x="53.2" y="-120" font-family="Arial" font-size="14.00">observed_bytes_per_tuple </text>
<text text-anchor="start" x="222.1" y="-120" font-family="Arial" font-size="14.00" fill="#666666">[integer]</text>
<polygon fill="none" stroke="black" points="46.2,-77 46.2,-107.8 348.28,-107.8 348.28,-77 46.2,-77"/>
<text text-anchor="start" x="53.2" y="-89.2" font-family="Arial" font-size="14.00">fillfactor_pct </text>
<text text-anchor="start" x="131.79" y="-89.2" font-family="Arial" font-size="14.00" fill="#666666">[integer]</text>
<polygon fill="none" stroke="black" points="46.2,-46.2 46.2,-77 348.28,-77 348.28,-46.2 46.2,-46.2"/>
<text text-anchor="start" x="53.2" y="-58.4" font-family="Arial" font-size="14.00">n_live_tup </text>
<text text-anchor="start" x="120.92" y="-58.4" font-family="Arial" font-size="14.00" fill="#666666">[bigint]</text>
<polygon fill="none" stroke="black" stroke-width="3" points="44.7,-44.7 44.7,-483.7 349.78,-483.7 349.78,-44.7 44.7,-44.7"/>
</g>
</g>
</svg>
