<?xml version="1.0" encoding="UTF-8" standalone="no"?>
<!DOCTYPE svg PUBLIC "-//W3C//DTD SVG 1.1//EN"
 "http://www.w3.org/Graphics/SVG/1.1/DTD/svg11.dtd">
<!-- Generated by graphviz version 12.1.2 (20240928.0832)
 -->
<!-- Title: meta.v_extended_containment_security_matrix Pages: 1 -->
<svg width="531pt" height="629pt"
 viewBox="0.00 0.00 531.46 628.80" xmlns="http://www.w3.org/2000/svg" xmlns:xlink="http://www.w3.org/1999/xlink">
<g id="graph0" class="graph" transform="scale(1 1) rotate(0) translate(4 624.8)">
<title>meta.v_extended_containment_security_matrix</title>
<polygon fill="white" stroke="none" points="-4,4 -4,-624.8 527.46,-624.8 527.46,4 -4,4"/>
<!-- meta.v_extended_containment_security_matrix -->
<g id="node1" class="node">
<title>meta.v_extended_containment_security_matrix</title>
<polygon fill="#efefef" stroke="none" points="46.2,-539 46.2,-574.6 477.26,-574.6 477.26,-539 46.2,-539"/>
<polygon fill="none" stroke="black" points="46.2,-539 46.2,-574.6 477.26,-574.6 477.26,-539 46.2,-539"/>
<text text-anchor="start" x="53.2" y="-552.4" font-family="Arial Bold" font-size="18.00">meta.v_extended_containment_security_matrix</text>
<text text-anchor="start" x="395.59" y="-552.4" font-family="Arial" font-size="14.00">    </text>
<text text-anchor="start" x="426.7" y="-552.4" font-family="Arial" font-size="14.00" fill="#666666">[VIEW]</text>
<polygon fill="none" stroke="black" points="46.2,-508.2 46.2,-539 477.26,-539 477.26,-508.2 46.2,-508.2"/>
<text text-anchor="start" x="53.2" y="-520.4" font-family="Arial" font-size="14.00">component_name </text>
<text text-anchor="start" x="169.16" y="-520.4" font-family="Arial" font-size="14.00" fill="#666666">[text]</text>
<polygon fill="none" stroke="black" points="46.2,-477.4 46.2,-508.2 477.26,-508.2 477.26,-477.4 46.2,-477.4"/>
<text text-anchor="start" x="53.2" y="-489.6" font-family="Arial" font-size="14.00">component_not_found_alert </text>
<text text-anchor="start" x="231.45" y="-489.6" font-family="Arial" font-size="14.00" fill="#666666">[boolean]</text>
<polygon fill="none" stroke="black" points="46.2,-446.6 46.2,-477.4 477.26,-477.4 477.26,-446.6 46.2,-446.6"/>
<text text-anchor="start" x="53.2" y="-458.8" font-family="Arial" font-size="14.00">intent_density_bytes </text>
<text text-anchor="start" x="184.73" y="-458.8" font-family="Arial" font-size="14.00" fill="#666666">[smallint]</text>
<polygon fill="none" stroke="black" points="46.2,-415.8 46.2,-446.6 477.26,-446.6 477.26,-415.8 46.2,-415.8"/>
<text text-anchor="start" x="53.2" y="-428" font-family="Arial" font-size="14.00">actual_density_bytes </text>
<text text-anchor="start" x="187.84" y="-428" font-family="Arial" font-size="14.00" fill="#666666">[smallint]</text>
<polygon fill="none" stroke="black" points="46.2,-385 46.2,-415.8 477.26,-415.8 477.26,-385 46.2,-385"/>
<text text-anchor="start" x="53.2" y="-397.2" font-family="Arial" font-size="14.00">header_bytes_used </text>
<text text-anchor="start" x="180.07" y="-397.2" font-family="Arial" font-size="14.00" fill="#666666">[smallint]</text>
<polygon fill="none" stroke="black" points="46.2,-354.2 46.2,-385 477.26,-385 477.26,-354.2 46.2,-354.2"/>
<text text-anchor="start" x="53.2" y="-366.4" font-family="Arial" font-size="14.00">density_drift_alert </text>
<text text-anchor="start" x="167.59" y="-366.4" font-family="Arial" font-size="14.00" fill="#666666">[boolean]</text>
<polygon fill="none" stroke="black" points="46.2,-323.4 46.2,-354.2 477.26,-354.2 477.26,-323.4 46.2,-323.4"/>
<text text-anchor="start" x="53.2" y="-335.6" font-family="Arial" font-size="14.00">missing_mutation_interface </text>
<text text-anchor="start" x="227.51" y="-335.6" font-family="Arial" font-size="14.00" fill="#666666">[boolean]</text>
<polygon fill="none" stroke="black" points="46.2,-292.6 46.2,-323.4 477.26,-323.4 477.26,-292.6 46.2,-292.6"/>
<text text-anchor="start" x="53.2" y="-304.8" font-family="Arial" font-size="14.00">security_breach_alert </text>
<text text-anchor="start" x="190.94" y="-304.8" font-family="Arial" font-size="14.00" fill="#666666">[boolean]</text>
<polygon fill="none" stroke="black" points="46.2,-261.8 46.2,-292.6 477.26,-292.6 477.26,-261.8 46.2,-261.8"/>
<text text-anchor="start" x="53.2" y="-274" font-family="Arial" font-size="14.00">mutation_procedures </text>
<text text-anchor="start" x="188.61" y="-274" font-family="Arial" font-size="14.00" fill="#666666">[text[]]</text>
<polygon fill="none" stroke="black" points="46.2,-231 46.2,-261.8 477.26,-261.8 477.26,-231 46.2,-231"/>
<text text-anchor="start" x="53.2" y="-243.2" font-family="Arial" font-size="14.00">immutable_keys </text>
<text text-anchor="start" x="158.24" y="-243.2" font-family="Arial" font-size="14.00" fill="#666666">[name[]]</text>
<polygon fill="none" stroke="black" points="46.2,-200.2 46.2,-231 477.26,-231 477.26,-200.2 46.2,-200.2"/>
<text text-anchor="start" x="53.2" y="-212.4" font-family="Arial" font-size="14.00">rls_guard_bitmask </text>
<text text-anchor="start" x="171.48" y="-212.4" font-family="Arial" font-size="14.00" fill="#666666">[integer]</text>
<polygon fill="none" stroke="black" points="46.2,-169.4 46.2,-200.2 477.26,-200.2 477.26,-169.4 46.2,-169.4"/>
<text text-anchor="start" x="53.2" y="-181.6" font-family="Arial" font-size="14.00">exempt_bloat_check </text>
<text text-anchor="start" x="185.5" y="-181.6" font-family="Arial" font-size="14.00" fill="#666666">[boolean]</text>
<polygon fill="none" stroke="black" points="46.2,-138.6 46.2,-169.4 477.26,-169.4 477.26,-138.6 46.2,-138.6"/>
<text text-anchor="start" x="53.2" y="-150.8" font-family="Arial" font-size="14.00">positive_drift_bytes </text>
<text text-anchor="start" x="176.93" y="-150.8" font-family="Arial" font-size="14.00" fill="#666666">[smallint]</text>
<polygon fill="none" stroke="black" points="46.2,-107.8 46.2,-138.6 477.26,-138.6 477.26,-107.8 46.2,-107.8"/>
<text text-anchor="start" x="53.2" y="-120" font-family="Arial" font-size="14.00">padding_bytes </text>
<text text-anchor="start" x="148.16" y="-120" font-family="Arial" font-size="14.00" fill="#666666">[smallint]</text>
<polygon fill="none" stroke="black" points="46.2,-77 46.2,-107.8 477.26,-107.8 477.26,-77 46.2,-77"/>
<text text-anchor="start" x="53.2" y="-89.2" font-family="Arial" font-size="14.00">dod_efficiency_ratio </text>
<text text-anchor="start" x="181.61" y="-89.2" font-family="Arial" font-size="14.00" fill="#666666">[numeric]</text>
<polygon fill="none" stroke="black" points="46.2,-46.2 46.2,-77 477.26,-77 477.26,-46.2 46.2,-46.2"/>
<text text-anchor="start" x="53.2" y="-58.4" font-family="Arial" font-size="14.00">raw_data_bytes </text>
<text text-anchor="start" x="155.93" y="-58.4" font-family="Arial" font-size="14.00" fill="#666666">[smallint]</text>
<polygon fill="none" stroke="black" stroke-width="3" points="44.7,-44.7 44.7,-576.1 478.76,-576.1 478.76,-44.7 44.7,-44.7"/>
</g>
</g>
</svg>
