<?xml version="1.0" encoding="UTF-8" standalone="no"?>
<!DOCTYPE svg PUBLIC "-//W3C//DTD SVG 1.1//EN"
 "http://www.w3.org/Graphics/SVG/1.1/DTD/svg11.dtd">
<!-- Generated by graphviz version 12.1.2 (20240928.0832)
 -->
<!-- Title: meta.v_introspection_security Pages: 1 -->
<svg width="407pt" height="290pt"
 viewBox="0.00 0.00 406.52 290.00" xmlns="http://www.w3.org/2000/svg" xmlns:xlink="http://www.w3.org/1999/xlink">
<g id="graph0" class="graph" transform="scale(1 1) rotate(0) translate(4 286)">
<title>meta.v_introspection_security</title>
<polygon fill="white" stroke="none" points="-4,4 -4,-286 402.52,-286 402.52,4 -4,4"/>
<!-- meta.v_introspection_security -->
<g id="node1" class="node">
<title>meta.v_introspection_security</title>
<polygon fill="#efefef" stroke="none" points="46.2,-200.2 46.2,-235.8 352.32,-235.8 352.32,-200.2 46.2,-200.2"/>
<polygon fill="none" stroke="black" points="46.2,-200.2 46.2,-235.8 352.32,-235.8 352.32,-200.2 46.2,-200.2"/>
<text text-anchor="start" x="53.2" y="-213.6" font-family="Arial Bold" font-size="18.00">meta.v_introspection_security</text>
<text text-anchor="start" x="270.64" y="-213.6" font-family="Arial" font-size="14.00">    </text>
<text text-anchor="start" x="301.76" y="-213.6" font-family="Arial" font-size="14.00" fill="#666666">[VIEW]</text>
<polygon fill="none" stroke="black" points="46.2,-169.4 46.2,-200.2 352.32,-200.2 352.32,-169.4 46.2,-169.4"/>
<text text-anchor="start" x="53.2" y="-181.6" font-family="Arial" font-size="14.00">proc_id </text>
<text text-anchor="start" x="103.01" y="-181.6" font-family="Arial" font-size="14.00" fill="#666666">[oid]</text>
<polygon fill="none" stroke="black" points="46.2,-138.6 46.2,-169.4 352.32,-169.4 352.32,-138.6 46.2,-138.6"/>
<text text-anchor="start" x="53.2" y="-150.8" font-family="Arial" font-size="14.00">proc_name </text>
<text text-anchor="start" x="127.13" y="-150.8" font-family="Arial" font-size="14.00" fill="#666666">[name]</text>
<polygon fill="none" stroke="black" points="46.2,-107.8 46.2,-138.6 352.32,-138.6 352.32,-107.8 46.2,-107.8"/>
<text text-anchor="start" x="53.2" y="-120" font-family="Arial" font-size="14.00">is_security_definer </text>
<text text-anchor="start" x="173.81" y="-120" font-family="Arial" font-size="14.00" fill="#666666">[boolean]</text>
<polygon fill="none" stroke="black" points="46.2,-77 46.2,-107.8 352.32,-107.8 352.32,-77 46.2,-77"/>
<text text-anchor="start" x="53.2" y="-89.2" font-family="Arial" font-size="14.00">has_secured_path </text>
<text text-anchor="start" x="172.29" y="-89.2" font-family="Arial" font-size="14.00" fill="#666666">[boolean]</text>
<polygon fill="none" stroke="black" points="46.2,-46.2 46.2,-77 352.32,-77 352.32,-46.2 46.2,-46.2"/>
<text text-anchor="start" x="53.2" y="-58.4" font-family="Arial" font-size="14.00">search_path_value </text>
<text text-anchor="start" x="175.4" y="-58.4" font-family="Arial" font-size="14.00" fill="#666666">[text]</text>
<polygon fill="none" stroke="black" stroke-width="3" points="44.7,-44.7 44.7,-237.3 353.82,-237.3 353.82,-44.7 44.7,-44.7"/>
</g>
</g>
</svg>
