<?xml version="1.0" encoding="UTF-8" standalone="no"?>
<!DOCTYPE svg PUBLIC "-//W3C//DTD SVG 1.1//EN"
 "http://www.w3.org/Graphics/SVG/1.1/DTD/svg11.dtd">
<!-- Generated by graphviz version 12.1.2 (20240928.0832)
 -->
<!-- Title: meta.v_introspection_layout Pages: 1 -->
<svg width="395pt" height="259pt"
 viewBox="0.00 0.00 394.53 259.20" xmlns="http://www.w3.org/2000/svg" xmlns:xlink="http://www.w3.org/1999/xlink">
<g id="graph0" class="graph" transform="scale(1 1) rotate(0) translate(4 255.2)">
<title>meta.v_introspection_layout</title>
<polygon fill="white" stroke="none" points="-4,4 -4,-255.2 390.53,-255.2 390.53,4 -4,4"/>
<!-- meta.v_introspection_layout -->
<g id="node1" class="node">
<title>meta.v_introspection_layout</title>
<polygon fill="#efefef" stroke="none" points="46.2,-169.4 46.2,-205 340.33,-205 340.33,-169.4 46.2,-169.4"/>
<polygon fill="none" stroke="black" points="46.2,-169.4 46.2,-205 340.33,-205 340.33,-169.4 46.2,-169.4"/>
<text text-anchor="start" x="53.2" y="-182.8" font-family="Arial Bold" font-size="18.00">meta.v_introspection_layout</text>
<text text-anchor="start" x="258.65" y="-182.8" font-family="Arial" font-size="14.00">    </text>
<text text-anchor="start" x="289.77" y="-182.8" font-family="Arial" font-size="14.00" fill="#666666">[VIEW]</text>
<polygon fill="none" stroke="black" points="46.2,-138.6 46.2,-169.4 340.33,-169.4 340.33,-138.6 46.2,-138.6"/>
<text text-anchor="start" x="53.2" y="-150.8" font-family="Arial" font-size="14.00">component_id </text>
<text text-anchor="start" x="145.04" y="-150.8" font-family="Arial" font-size="14.00" fill="#666666">[oid]</text>
<polygon fill="none" stroke="black" points="46.2,-107.8 46.2,-138.6 340.33,-138.6 340.33,-107.8 46.2,-107.8"/>
<text text-anchor="start" x="53.2" y="-120" font-family="Arial" font-size="14.00">actual_density_bytes </text>
<text text-anchor="start" x="187.84" y="-120" font-family="Arial" font-size="14.00" fill="#666666">[smallint]</text>
<polygon fill="none" stroke="black" points="46.2,-77 46.2,-107.8 340.33,-107.8 340.33,-77 46.2,-77"/>
<text text-anchor="start" x="53.2" y="-89.2" font-family="Arial" font-size="14.00">header_bytes_used </text>
<text text-anchor="start" x="180.07" y="-89.2" font-family="Arial" font-size="14.00" fill="#666666">[smallint]</text>
<polygon fill="none" stroke="black" points="46.2,-46.2 46.2,-77 340.33,-77 340.33,-46.2 46.2,-46.2"/>
<text text-anchor="start" x="53.2" y="-58.4" font-family="Arial" font-size="14.00">raw_data_bytes </text>
<text text-anchor="start" x="155.93" y="-58.4" font-family="Arial" font-size="14.00" fill="#666666">[smallint]</text>
<polygon fill="none" stroke="black" stroke-width="3" points="44.7,-44.7 44.7,-206.5 341.83,-206.5 341.83,-44.7 44.7,-44.7"/>
</g>
</g>
</svg>
