<?xml version="1.0" encoding="UTF-8" standalone="no"?>
<!DOCTYPE svg PUBLIC "-//W3C//DTD SVG 1.1//EN"
 "http://www.w3.org/Graphics/SVG/1.1/DTD/svg11.dtd">
<!-- Generated by graphviz version 12.1.2 (20240928.0832)
 -->
<!-- Title: org.v_organization Pages: 1 -->
<svg width="373pt" height="598pt"
 viewBox="0.00 0.00 372.76 598.00" xmlns="http://www.w3.org/2000/svg" xmlns:xlink="http://www.w3.org/1999/xlink">
<g id="graph0" class="graph" transform="scale(1 1) rotate(0) translate(4 594)">
<title>org.v_organization</title>
<polygon fill="white" stroke="none" points="-4,4 -4,-594 368.76,-594 368.76,4 -4,4"/>
<!-- org.v_organization -->
<g id="node1" class="node">
<title>org.v_organization</title>
<polygon fill="#efefef" stroke="none" points="46.2,-508.2 46.2,-543.8 318.56,-543.8 318.56,-508.2 46.2,-508.2"/>
<polygon fill="none" stroke="black" points="46.2,-508.2 46.2,-543.8 318.56,-543.8 318.56,-508.2 46.2,-508.2"/>
<text text-anchor="start" x="76.81" y="-521.6" font-family="Arial Bold" font-size="18.00">org.v_organization</text>
<text text-anchor="start" x="213.27" y="-521.6" font-family="Arial" font-size="14.00">    </text>
<text text-anchor="start" x="244.39" y="-521.6" font-family="Arial" font-size="14.00" fill="#666666">[VIEW]</text>
<polygon fill="none" stroke="black" points="46.2,-477.4 46.2,-508.2 318.56,-508.2 318.56,-477.4 46.2,-477.4"/>
<text text-anchor="start" x="53.2" y="-489.6" font-family="Arial" font-size="14.00">identifier </text>
<text text-anchor="start" x="110.01" y="-489.6" font-family="Arial" font-size="14.00" fill="#666666">[integer]</text>
<polygon fill="none" stroke="black" points="46.2,-446.6 46.2,-477.4 318.56,-477.4 318.56,-446.6 46.2,-446.6"/>
<text text-anchor="start" x="53.2" y="-458.8" font-family="Arial" font-size="14.00">name </text>
<text text-anchor="start" x="92.11" y="-458.8" font-family="Arial" font-size="14.00" fill="#666666">[varchar(64)]</text>
<polygon fill="none" stroke="black" points="46.2,-415.8 46.2,-446.6 318.56,-446.6 318.56,-415.8 46.2,-415.8"/>
<text text-anchor="start" x="53.2" y="-428" font-family="Arial" font-size="14.00">slug </text>
<text text-anchor="start" x="82.77" y="-428" font-family="Arial" font-size="14.00" fill="#666666">[varchar(64)]</text>
<polygon fill="none" stroke="black" points="46.2,-385 46.2,-415.8 318.56,-415.8 318.56,-385 46.2,-385"/>
<text text-anchor="start" x="53.2" y="-397.2" font-family="Arial" font-size="14.00">brand </text>
<text text-anchor="start" x="92.9" y="-397.2" font-family="Arial" font-size="14.00" fill="#666666">[varchar(255)]</text>
<polygon fill="none" stroke="black" points="46.2,-354.2 46.2,-385 318.56,-385 318.56,-354.2 46.2,-354.2"/>
<text text-anchor="start" x="53.2" y="-366.4" font-family="Arial" font-size="14.00">org_type </text>
<text text-anchor="start" x="111.57" y="-366.4" font-family="Arial" font-size="14.00" fill="#666666">[varchar(30)]</text>
<polygon fill="none" stroke="black" points="46.2,-323.4 46.2,-354.2 318.56,-354.2 318.56,-323.4 46.2,-323.4"/>
<text text-anchor="start" x="53.2" y="-335.6" font-family="Arial" font-size="14.00">purpose </text>
<text text-anchor="start" x="107.68" y="-335.6" font-family="Arial" font-size="14.00" fill="#666666">[varchar(30)]</text>
<polygon fill="none" stroke="black" points="46.2,-292.6 46.2,-323.4 318.56,-323.4 318.56,-292.6 46.2,-292.6"/>
<text text-anchor="start" x="53.2" y="-304.8" font-family="Arial" font-size="14.00">founding_date </text>
<text text-anchor="start" x="145.84" y="-304.8" font-family="Arial" font-size="14.00" fill="#666666">[timestamp with time zone]</text>
<polygon fill="none" stroke="black" points="46.2,-261.8 46.2,-292.6 318.56,-292.6 318.56,-261.8 46.2,-261.8"/>
<text text-anchor="start" x="53.2" y="-274" font-family="Arial" font-size="14.00">email </text>
<text text-anchor="start" x="90.54" y="-274" font-family="Arial" font-size="14.00" fill="#666666">[varchar(128)]</text>
<polygon fill="none" stroke="black" points="46.2,-231 46.2,-261.8 318.56,-261.8 318.56,-231 46.2,-231"/>
<text text-anchor="start" x="53.2" y="-243.2" font-family="Arial" font-size="14.00">telephone </text>
<text text-anchor="start" x="118.59" y="-243.2" font-family="Arial" font-size="14.00" fill="#666666">[varchar(30)]</text>
<polygon fill="none" stroke="black" points="46.2,-200.2 46.2,-231 318.56,-231 318.56,-200.2 46.2,-200.2"/>
<text text-anchor="start" x="53.2" y="-212.4" font-family="Arial" font-size="14.00">url </text>
<text text-anchor="start" x="72.65" y="-212.4" font-family="Arial" font-size="14.00" fill="#666666">[varchar(255)]</text>
<polygon fill="none" stroke="black" points="46.2,-169.4 46.2,-200.2 318.56,-200.2 318.56,-169.4 46.2,-169.4"/>
<text text-anchor="start" x="53.2" y="-181.6" font-family="Arial" font-size="14.00">location_name </text>
<text text-anchor="start" x="148.15" y="-181.6" font-family="Arial" font-size="14.00" fill="#666666">[varchar(60)]</text>
<polygon fill="none" stroke="black" points="46.2,-138.6 46.2,-169.4 318.56,-169.4 318.56,-138.6 46.2,-138.6"/>
<text text-anchor="start" x="53.2" y="-150.8" font-family="Arial" font-size="14.00">address_locality </text>
<text text-anchor="start" x="157.48" y="-150.8" font-family="Arial" font-size="14.00" fill="#666666">[varchar(64)]</text>
<polygon fill="none" stroke="black" points="46.2,-107.8 46.2,-138.6 318.56,-138.6 318.56,-107.8 46.2,-107.8"/>
<text text-anchor="start" x="53.2" y="-120" font-family="Arial" font-size="14.00">country_code </text>
<text text-anchor="start" x="141.14" y="-120" font-family="Arial" font-size="14.00" fill="#666666">[smallint]</text>
<polygon fill="none" stroke="black" points="46.2,-77 46.2,-107.8 318.56,-107.8 318.56,-77 46.2,-77"/>
<text text-anchor="start" x="53.2" y="-89.2" font-family="Arial" font-size="14.00">geo </text>
<text text-anchor="start" x="80.45" y="-89.2" font-family="Arial" font-size="14.00" fill="#666666">[jsonb]</text>
<polygon fill="none" stroke="black" points="46.2,-46.2 46.2,-77 318.56,-77 318.56,-46.2 46.2,-46.2"/>
<text text-anchor="start" x="53.2" y="-58.4" font-family="Arial" font-size="14.00">parent_organization_id </text>
<text text-anchor="start" x="199.53" y="-58.4" font-family="Arial" font-size="14.00" fill="#666666">[integer]</text>
<polygon fill="none" stroke="black" stroke-width="3" points="44.7,-44.7 44.7,-545.3 320.06,-545.3 320.06,-44.7 44.7,-44.7"/>
</g>
</g>
</svg>
