<?xml version="1.0" encoding="UTF-8" standalone="no"?>
<!DOCTYPE svg PUBLIC "-//W3C//DTD SVG 1.1//EN"
 "http://www.w3.org/Graphics/SVG/1.1/DTD/svg11.dtd">
<!-- Generated by graphviz version 12.1.2 (20240928.0832)
 -->
<!-- Title: org.org_contact Pages: 1 -->
<svg width="676pt" height="510pt"
 viewBox="0.00 0.00 676.24 509.60" xmlns="http://www.w3.org/2000/svg" xmlns:xlink="http://www.w3.org/1999/xlink">
<g id="graph0" class="graph" transform="scale(1 1) rotate(0) translate(4 505.6)">
<title>org.org_contact</title>
<polygon fill="white" stroke="none" points="-4,4 -4,-505.6 672.24,-505.6 672.24,4 -4,4"/>
<!-- org.org_contact -->
<g id="node1" class="node">
<title>org.org_contact</title>
<polygon fill="#efefef" stroke="none" points="46.2,-419.8 46.2,-455.4 298.15,-455.4 298.15,-419.8 46.2,-419.8"/>
<polygon fill="none" stroke="black" points="46.2,-419.8 46.2,-455.4 298.15,-455.4 298.15,-419.8 46.2,-419.8"/>
<text text-anchor="start" x="53.2" y="-433.2" font-family="Arial Bold" font-size="18.00">org.org_contact</text>
<text text-anchor="start" x="166.66" y="-433.2" font-family="Arial" font-size="14.00">    </text>
<text text-anchor="start" x="197.78" y="-433.2" font-family="Arial" font-size="14.00" fill="#666666">[BASE TABLE]</text>
<polygon fill="none" stroke="black" points="46.2,-389 46.2,-419.8 298.15,-419.8 298.15,-389 46.2,-389"/>
<text text-anchor="start" x="53.2" y="-401.2" font-family="Arial" font-size="14.00">entity_id </text>
<text text-anchor="start" x="109.23" y="-401.2" font-family="Arial" font-size="14.00" fill="#666666">[integer]</text>
<polygon fill="none" stroke="black" points="46.2,-358.2 46.2,-389 298.15,-389 298.15,-358.2 46.2,-358.2"/>
<text text-anchor="start" x="53.2" y="-370.4" font-family="Arial" font-size="14.00">email </text>
<text text-anchor="start" x="90.54" y="-370.4" font-family="Arial" font-size="14.00" fill="#666666">[varchar(128)]</text>
<polygon fill="none" stroke="black" points="46.2,-327.4 46.2,-358.2 298.15,-358.2 298.15,-327.4 46.2,-327.4"/>
<text text-anchor="start" x="53.2" y="-339.6" font-family="Arial" font-size="14.00">phone </text>
<text text-anchor="start" x="96.02" y="-339.6" font-family="Arial" font-size="14.00" fill="#666666">[varchar(30)]</text>
<polygon fill="none" stroke="black" points="46.2,-296.6 46.2,-327.4 298.15,-327.4 298.15,-296.6 46.2,-296.6"/>
<text text-anchor="start" x="53.2" y="-308.8" font-family="Arial" font-size="14.00">phone2 </text>
<text text-anchor="start" x="103.81" y="-308.8" font-family="Arial" font-size="14.00" fill="#666666">[varchar(30)]</text>
<polygon fill="none" stroke="black" points="46.2,-265.8 46.2,-296.6 298.15,-296.6 298.15,-265.8 46.2,-265.8"/>
<text text-anchor="start" x="53.2" y="-278" font-family="Arial" font-size="14.00">fax </text>
<text text-anchor="start" x="75.77" y="-278" font-family="Arial" font-size="14.00" fill="#666666">[varchar(30)]</text>
<polygon fill="none" stroke="black" points="46.2,-235 46.2,-265.8 298.15,-265.8 298.15,-235 46.2,-235"/>
<text text-anchor="start" x="53.2" y="-247.2" font-family="Arial" font-size="14.00">url </text>
<text text-anchor="start" x="72.65" y="-247.2" font-family="Arial" font-size="14.00" fill="#666666">[varchar(255)]</text>
<polygon fill="none" stroke="black" stroke-width="3" points="44.7,-233.5 44.7,-456.9 299.65,-456.9 299.65,-233.5 44.7,-233.5"/>
</g>
<!-- org.entity -->
<g id="node2" class="node">
<title>org.entity</title>
<polygon fill="#efefef" stroke="none" points="68.19,-74 68.19,-109.6 276.16,-109.6 276.16,-74 68.19,-74"/>
<polygon fill="none" stroke="black" points="68.19,-74 68.19,-109.6 276.16,-109.6 276.16,-74 68.19,-74"/>
<text text-anchor="start" x="75.19" y="-87.4" font-family="Arial Bold" font-size="18.00">org.entity</text>
<text text-anchor="start" x="144.67" y="-87.4" font-family="Arial" font-size="14.00">    </text>
<text text-anchor="start" x="175.79" y="-87.4" font-family="Arial" font-size="14.00" fill="#666666">[BASE TABLE]</text>
<polygon fill="none" stroke="black" points="68.19,-43.2 68.19,-74 276.16,-74 276.16,-43.2 68.19,-43.2"/>
<text text-anchor="start" x="75.19" y="-55.4" font-family="Arial" font-size="14.00">id </text>
<text text-anchor="start" x="89.97" y="-55.4" font-family="Arial" font-size="14.00" fill="#666666">[integer]</text>
</g>
<!-- org.org_contact&#45;&gt;org.entity -->
<g id="edge1" class="edge">
<title>org.org_contact:entity_id&#45;&gt;org.entity:id</title>
<path fill="none" stroke="black" d="M309.05,-402.76C379.14,-378.72 373.58,-97.79 319.36,-43.2 273.26,3.21 172.17,23.22 172.17,-42.2"/>
<polygon fill="black" stroke="black" points="309.34,-402.71 298.74,-399.91 304.08,-403.58 299.81,-404.29 299.81,-404.29 299.81,-404.29 304.08,-403.58 300.21,-408.78 309.34,-402.71"/>
<text text-anchor="start" x="306.15" y="-414.4" font-family="Arial" font-size="10.00">FOREIGN KEY (entity_id) REFERENCES org.entity(id) ON DELETE CASCADE</text>
</g>
</g>
</svg>
