<?xml version="1.0" encoding="UTF-8" standalone="no"?>
<!DOCTYPE svg PUBLIC "-//W3C//DTD SVG 1.1//EN"
 "http://www.w3.org/Graphics/SVG/1.1/DTD/svg11.dtd">
<!-- Generated by graphviz version 12.1.2 (20240928.0832)
 -->
<!-- Title: org.org_hierarchy Pages: 1 -->
<svg width="692pt" height="448pt"
 viewBox="0.00 0.00 692.22 448.00" xmlns="http://www.w3.org/2000/svg" xmlns:xlink="http://www.w3.org/1999/xlink">
<g id="graph0" class="graph" transform="scale(1 1) rotate(0) translate(4 444)">
<title>org.org_hierarchy</title>
<polygon fill="white" stroke="none" points="-4,4 -4,-444 688.22,-444 688.22,4 -4,4"/>
<!-- org.org_hierarchy -->
<g id="node1" class="node">
<title>org.org_hierarchy</title>
<polygon fill="#efefef" stroke="none" points="46.2,-358.2 46.2,-393.8 314.13,-393.8 314.13,-358.2 46.2,-358.2"/>
<polygon fill="none" stroke="black" points="46.2,-358.2 46.2,-393.8 314.13,-393.8 314.13,-358.2 46.2,-358.2"/>
<text text-anchor="start" x="53.2" y="-371.6" font-family="Arial Bold" font-size="18.00">org.org_hierarchy</text>
<text text-anchor="start" x="182.65" y="-371.6" font-family="Arial" font-size="14.00">    </text>
<text text-anchor="start" x="213.76" y="-371.6" font-family="Arial" font-size="14.00" fill="#666666">[BASE TABLE]</text>
<polygon fill="none" stroke="black" points="46.2,-327.4 46.2,-358.2 314.13,-358.2 314.13,-327.4 46.2,-327.4"/>
<text text-anchor="start" x="53.2" y="-339.6" font-family="Arial" font-size="14.00">entity_id </text>
<text text-anchor="start" x="109.23" y="-339.6" font-family="Arial" font-size="14.00" fill="#666666">[integer]</text>
<polygon fill="none" stroke="black" points="46.2,-296.6 46.2,-327.4 314.13,-327.4 314.13,-296.6 46.2,-296.6"/>
<text text-anchor="start" x="53.2" y="-308.8" font-family="Arial" font-size="14.00">lft </text>
<text text-anchor="start" x="67.98" y="-308.8" font-family="Arial" font-size="14.00" fill="#666666">[integer]</text>
<polygon fill="none" stroke="black" points="46.2,-265.8 46.2,-296.6 314.13,-296.6 314.13,-265.8 46.2,-265.8"/>
<text text-anchor="start" x="53.2" y="-278" font-family="Arial" font-size="14.00">rgt </text>
<text text-anchor="start" x="73.43" y="-278" font-family="Arial" font-size="14.00" fill="#666666">[integer]</text>
<polygon fill="none" stroke="black" points="46.2,-235 46.2,-265.8 314.13,-265.8 314.13,-235 46.2,-235"/>
<text text-anchor="start" x="53.2" y="-247.2" font-family="Arial" font-size="14.00">depth </text>
<text text-anchor="start" x="92.12" y="-247.2" font-family="Arial" font-size="14.00" fill="#666666">[smallint]</text>
<polygon fill="none" stroke="black" stroke-width="3" points="44.7,-233.5 44.7,-395.3 315.63,-395.3 315.63,-233.5 44.7,-233.5"/>
</g>
<!-- org.entity -->
<g id="node2" class="node">
<title>org.entity</title>
<polygon fill="#efefef" stroke="none" points="76.18,-74 76.18,-109.6 284.16,-109.6 284.16,-74 76.18,-74"/>
<polygon fill="none" stroke="black" points="76.18,-74 76.18,-109.6 284.16,-109.6 284.16,-74 76.18,-74"/>
<text text-anchor="start" x="83.18" y="-87.4" font-family="Arial Bold" font-size="18.00">org.entity</text>
<text text-anchor="start" x="152.67" y="-87.4" font-family="Arial" font-size="14.00">    </text>
<text text-anchor="start" x="183.78" y="-87.4" font-family="Arial" font-size="14.00" fill="#666666">[BASE TABLE]</text>
<polygon fill="none" stroke="black" points="76.18,-43.2 76.18,-74 284.16,-74 284.16,-43.2 76.18,-43.2"/>
<text text-anchor="start" x="83.18" y="-55.4" font-family="Arial" font-size="14.00">id </text>
<text text-anchor="start" x="97.97" y="-55.4" font-family="Arial" font-size="14.00" fill="#666666">[integer]</text>
</g>
<!-- org.org_hierarchy&#45;&gt;org.entity -->
<g id="edge1" class="edge">
<title>org.org_hierarchy:entity_id&#45;&gt;org.entity:id</title>
<path fill="none" stroke="black" d="M325.06,-340.76C380.87,-316.76 371.84,-87.98 327.36,-43.2 281.25,3.21 180.17,23.22 180.17,-42.2"/>
<polygon fill="black" stroke="black" points="325.26,-340.72 314.56,-338.32 320.03,-341.79 315.79,-342.67 315.79,-342.67 315.79,-342.67 320.03,-341.79 316.37,-347.14 325.26,-340.72"/>
<text text-anchor="start" x="322.13" y="-352.8" font-family="Arial" font-size="10.00">FOREIGN KEY (entity_id) REFERENCES org.entity(id) ON DELETE CASCADE</text>
</g>
</g>
</svg>
