<?xml version="1.0" encoding="UTF-8" standalone="no"?>
<!DOCTYPE svg PUBLIC "-//W3C//DTD SVG 1.1//EN"
 "http://www.w3.org/Graphics/SVG/1.1/DTD/svg11.dtd">
<!-- Generated by graphviz version 12.1.2 (20240928.0832)
 -->
<!-- Title: org.org_identity Pages: 1 -->
<svg width="679pt" height="448pt"
 viewBox="0.00 0.00 679.26 448.00" xmlns="http://www.w3.org/2000/svg" xmlns:xlink="http://www.w3.org/1999/xlink">
<g id="graph0" class="graph" transform="scale(1 1) rotate(0) translate(4 444)">
<title>org.org_identity</title>
<polygon fill="white" stroke="none" points="-4,4 -4,-444 675.26,-444 675.26,4 -4,4"/>
<!-- org.org_identity -->
<g id="node1" class="node">
<title>org.org_identity</title>
<polygon fill="#efefef" stroke="none" points="46.2,-358.2 46.2,-393.8 301.17,-393.8 301.17,-358.2 46.2,-358.2"/>
<polygon fill="none" stroke="black" points="46.2,-358.2 46.2,-393.8 301.17,-393.8 301.17,-358.2 46.2,-358.2"/>
<text text-anchor="start" x="53.2" y="-371.6" font-family="Arial Bold" font-size="18.00">org.org_identity</text>
<text text-anchor="start" x="169.68" y="-371.6" font-family="Arial" font-size="14.00">    </text>
<text text-anchor="start" x="200.8" y="-371.6" font-family="Arial" font-size="14.00" fill="#666666">[BASE TABLE]</text>
<polygon fill="none" stroke="black" points="46.2,-327.4 46.2,-358.2 301.17,-358.2 301.17,-327.4 46.2,-327.4"/>
<text text-anchor="start" x="53.2" y="-339.6" font-family="Arial" font-size="14.00">entity_id </text>
<text text-anchor="start" x="109.23" y="-339.6" font-family="Arial" font-size="14.00" fill="#666666">[integer]</text>
<polygon fill="none" stroke="black" points="46.2,-296.6 46.2,-327.4 301.17,-327.4 301.17,-296.6 46.2,-296.6"/>
<text text-anchor="start" x="53.2" y="-308.8" font-family="Arial" font-size="14.00">name </text>
<text text-anchor="start" x="92.11" y="-308.8" font-family="Arial" font-size="14.00" fill="#666666">[varchar(64)]</text>
<polygon fill="none" stroke="black" points="46.2,-265.8 46.2,-296.6 301.17,-296.6 301.17,-265.8 46.2,-265.8"/>
<text text-anchor="start" x="53.2" y="-278" font-family="Arial" font-size="14.00">brand </text>
<text text-anchor="start" x="92.9" y="-278" font-family="Arial" font-size="14.00" fill="#666666">[varchar(255)]</text>
<polygon fill="none" stroke="black" points="46.2,-235 46.2,-265.8 301.17,-265.8 301.17,-235 46.2,-235"/>
<text text-anchor="start" x="53.2" y="-247.2" font-family="Arial" font-size="14.00">slug </text>
<text text-anchor="start" x="82.77" y="-247.2" font-family="Arial" font-size="14.00" fill="#666666">[varchar(64)]</text>
<polygon fill="none" stroke="black" stroke-width="3" points="44.7,-233.5 44.7,-395.3 302.67,-395.3 302.67,-233.5 44.7,-233.5"/>
</g>
<!-- org.entity -->
<g id="node2" class="node">
<title>org.entity</title>
<polygon fill="#efefef" stroke="none" points="69.7,-74 69.7,-109.6 277.67,-109.6 277.67,-74 69.7,-74"/>
<polygon fill="none" stroke="black" points="69.7,-74 69.7,-109.6 277.67,-109.6 277.67,-74 69.7,-74"/>
<text text-anchor="start" x="76.7" y="-87.4" font-family="Arial Bold" font-size="18.00">org.entity</text>
<text text-anchor="start" x="146.18" y="-87.4" font-family="Arial" font-size="14.00">    </text>
<text text-anchor="start" x="177.3" y="-87.4" font-family="Arial" font-size="14.00" fill="#666666">[BASE TABLE]</text>
<polygon fill="none" stroke="black" points="69.7,-43.2 69.7,-74 277.67,-74 277.67,-43.2 69.7,-43.2"/>
<text text-anchor="start" x="76.7" y="-55.4" font-family="Arial" font-size="14.00">id </text>
<text text-anchor="start" x="91.48" y="-55.4" font-family="Arial" font-size="14.00" fill="#666666">[integer]</text>
</g>
<!-- org.org_identity&#45;&gt;org.entity -->
<g id="edge1" class="edge">
<title>org.org_identity:entity_id&#45;&gt;org.entity:id</title>
<path fill="none" stroke="black" d="M312.16,-340.76C368.65,-316.76 365.4,-88.03 320.87,-43.2 274.77,3.21 173.69,23.22 173.69,-42.2"/>
<polygon fill="black" stroke="black" points="312.3,-340.73 301.6,-338.32 307.07,-341.8 302.83,-342.67 302.83,-342.67 302.83,-342.67 307.07,-341.8 303.4,-347.14 312.3,-340.73"/>
<text text-anchor="start" x="309.17" y="-352.8" font-family="Arial" font-size="10.00">FOREIGN KEY (entity_id) REFERENCES org.entity(id) ON DELETE CASCADE</text>
</g>
</g>
</svg>
