<?xml version="1.0" encoding="UTF-8" standalone="no"?>
<!DOCTYPE svg PUBLIC "-//W3C//DTD SVG 1.1//EN"
 "http://www.w3.org/Graphics/SVG/1.1/DTD/svg11.dtd">
<!-- Generated by graphviz version 12.1.2 (20240928.0832)
 -->
<!-- Title: org.org_core Pages: 1 -->
<svg width="1470pt" height="818pt"
 viewBox="0.00 0.00 1470.50 817.60" xmlns="http://www.w3.org/2000/svg" xmlns:xlink="http://www.w3.org/1999/xlink">
<g id="graph0" class="graph" transform="scale(1 1) rotate(0) translate(4 813.6)">
<title>org.org_core</title>
<polygon fill="white" stroke="none" points="-4,4 -4,-813.6 1466.5,-813.6 1466.5,4 -4,4"/>
<!-- org.org_core -->
<g id="node1" class="node">
<title>org.org_core</title>
<polygon fill="#efefef" stroke="none" points="403.45,-727.8 403.45,-763.4 653.22,-763.4 653.22,-727.8 403.45,-727.8"/>
<polygon fill="none" stroke="black" points="403.45,-727.8 403.45,-763.4 653.22,-763.4 653.22,-727.8 403.45,-727.8"/>
<text text-anchor="start" x="419.86" y="-741.2" font-family="Arial Bold" font-size="18.00">org.org_core</text>
<text text-anchor="start" x="512.32" y="-741.2" font-family="Arial" font-size="14.00">    </text>
<text text-anchor="start" x="543.44" y="-741.2" font-family="Arial" font-size="14.00" fill="#666666">[BASE TABLE]</text>
<polygon fill="none" stroke="black" points="403.45,-697 403.45,-727.8 653.22,-727.8 653.22,-697 403.45,-697"/>
<text text-anchor="start" x="410.45" y="-709.2" font-family="Arial" font-size="14.00">created_at </text>
<text text-anchor="start" x="480.5" y="-709.2" font-family="Arial" font-size="14.00" fill="#666666">[timestamp with time zone]</text>
<polygon fill="none" stroke="black" points="403.45,-666.2 403.45,-697 653.22,-697 653.22,-666.2 403.45,-666.2"/>
<text text-anchor="start" x="410.45" y="-678.4" font-family="Arial" font-size="14.00">entity_id </text>
<text text-anchor="start" x="466.49" y="-678.4" font-family="Arial" font-size="14.00" fill="#666666">[integer]</text>
<polygon fill="none" stroke="black" points="403.45,-635.4 403.45,-666.2 653.22,-666.2 653.22,-635.4 403.45,-635.4"/>
<text text-anchor="start" x="410.45" y="-647.6" font-family="Arial" font-size="14.00">place_id </text>
<text text-anchor="start" x="466.49" y="-647.6" font-family="Arial" font-size="14.00" fill="#666666">[integer]</text>
<polygon fill="none" stroke="black" points="403.45,-604.6 403.45,-635.4 653.22,-635.4 653.22,-604.6 403.45,-604.6"/>
<text text-anchor="start" x="410.45" y="-616.8" font-family="Arial" font-size="14.00">contact_entity_id </text>
<text text-anchor="start" x="519.41" y="-616.8" font-family="Arial" font-size="14.00" fill="#666666">[integer]</text>
<polygon fill="none" stroke="black" points="403.45,-573.8 403.45,-604.6 653.22,-604.6 653.22,-573.8 403.45,-573.8"/>
<text text-anchor="start" x="410.45" y="-586" font-family="Arial" font-size="14.00">media_id </text>
<text text-anchor="start" x="471.16" y="-586" font-family="Arial" font-size="14.00" fill="#666666">[integer]</text>
<polygon fill="none" stroke="black" points="403.45,-543 403.45,-573.8 653.22,-573.8 653.22,-543 403.45,-543"/>
<text text-anchor="start" x="410.45" y="-555.2" font-family="Arial" font-size="14.00">parent_entity_id </text>
<text text-anchor="start" x="513.97" y="-555.2" font-family="Arial" font-size="14.00" fill="#666666">[integer]</text>
<polygon fill="none" stroke="black" points="403.45,-512.2 403.45,-543 653.22,-543 653.22,-512.2 403.45,-512.2"/>
<text text-anchor="start" x="410.45" y="-524.4" font-family="Arial" font-size="14.00">type </text>
<text text-anchor="start" x="440.8" y="-524.4" font-family="Arial" font-size="14.00" fill="#666666">[varchar(30)]</text>
<polygon fill="none" stroke="black" points="403.45,-481.4 403.45,-512.2 653.22,-512.2 653.22,-481.4 403.45,-481.4"/>
<text text-anchor="start" x="410.45" y="-493.6" font-family="Arial" font-size="14.00">purpose </text>
<text text-anchor="start" x="464.93" y="-493.6" font-family="Arial" font-size="14.00" fill="#666666">[varchar(30)]</text>
<polygon fill="none" stroke="black" stroke-width="3" points="401.95,-479.9 401.95,-764.9 654.72,-764.9 654.72,-479.9 401.95,-479.9"/>
</g>
<!-- org.entity -->
<g id="node2" class="node">
<title>org.entity</title>
<polygon fill="#efefef" stroke="none" points="92.35,-197.2 92.35,-232.8 300.33,-232.8 300.33,-197.2 92.35,-197.2"/>
<polygon fill="none" stroke="black" points="92.35,-197.2 92.35,-232.8 300.33,-232.8 300.33,-197.2 92.35,-197.2"/>
<text text-anchor="start" x="99.35" y="-210.6" font-family="Arial Bold" font-size="18.00">org.entity</text>
<text text-anchor="start" x="168.84" y="-210.6" font-family="Arial" font-size="14.00">    </text>
<text text-anchor="start" x="199.95" y="-210.6" font-family="Arial" font-size="14.00" fill="#666666">[BASE TABLE]</text>
<polygon fill="none" stroke="black" points="92.35,-166.4 92.35,-197.2 300.33,-197.2 300.33,-166.4 92.35,-166.4"/>
<text text-anchor="start" x="99.35" y="-178.6" font-family="Arial" font-size="14.00">id </text>
<text text-anchor="start" x="114.14" y="-178.6" font-family="Arial" font-size="14.00" fill="#666666">[integer]</text>
</g>
<!-- org.org_core&#45;&gt;org.entity -->
<g id="edge1" class="edge">
<title>org.org_core:entity_id&#45;&gt;org.entity:id</title>
<path fill="none" stroke="black" d="M393.46,-676.97C346.95,-626.59 354.78,-181.8 301.33,-181.8"/>
<polygon fill="black" stroke="black" points="393.26,-676.87 400.09,-685.45 398.01,-679.31 401.86,-681.29 401.86,-681.29 401.86,-681.29 398.01,-679.31 404.21,-677.45 393.26,-676.87"/>
<text text-anchor="start" x="40.36" y="-691.6" font-family="Arial" font-size="10.00">FOREIGN KEY (entity_id) REFERENCES org.entity(id) ON DELETE CASCADE</text>
</g>
<!-- org.org_core&#45;&gt;org.entity -->
<g id="edge5" class="edge">
<title>org.org_core:parent_entity_id&#45;&gt;org.entity:id</title>
<path fill="none" stroke="black" d="M392.04,-557.74C332.55,-549.54 370.96,-467.1 352.34,-399.2 339.21,-351.34 350.95,-181.8 301.33,-181.8"/>
<polygon fill="black" stroke="black" points="392.14,-557.74 401.83,-562.87 397.46,-558.08 401.78,-558.36 401.78,-558.36 401.78,-558.36 397.46,-558.08 402.41,-553.89 392.14,-557.74"/>
<text text-anchor="start" x="7" y="-568.4" font-family="Arial" font-size="10.00">FOREIGN KEY (parent_entity_id) REFERENCES org.entity(id) ON DELETE SET NULL</text>
</g>
<!-- geo.place_core -->
<g id="node3" class="node">
<title>geo.place_core</title>
<polygon fill="#efefef" stroke="none" points="404.88,-258.8 404.88,-294.4 651.8,-294.4 651.8,-258.8 404.88,-258.8"/>
<polygon fill="none" stroke="black" points="404.88,-258.8 404.88,-294.4 651.8,-294.4 651.8,-258.8 404.88,-258.8"/>
<text text-anchor="start" x="411.88" y="-272.2" font-family="Arial Bold" font-size="18.00">geo.place_core</text>
<text text-anchor="start" x="520.31" y="-272.2" font-family="Arial" font-size="14.00">    </text>
<text text-anchor="start" x="551.43" y="-272.2" font-family="Arial" font-size="14.00" fill="#666666">[BASE TABLE]</text>
<polygon fill="none" stroke="black" points="404.88,-228 404.88,-258.8 651.8,-258.8 651.8,-228 404.88,-228"/>
<text text-anchor="start" x="411.88" y="-240.2" font-family="Arial" font-size="14.00">id </text>
<text text-anchor="start" x="426.66" y="-240.2" font-family="Arial" font-size="14.00" fill="#666666">[integer]</text>
<polygon fill="none" stroke="black" points="404.88,-197.2 404.88,-228 651.8,-228 651.8,-197.2 404.88,-197.2"/>
<text text-anchor="start" x="411.88" y="-209.4" font-family="Arial" font-size="14.00">elevation </text>
<text text-anchor="start" x="471.81" y="-209.4" font-family="Arial" font-size="14.00" fill="#666666">[smallint]</text>
<polygon fill="none" stroke="black" points="404.88,-166.4 404.88,-197.2 651.8,-197.2 651.8,-166.4 404.88,-166.4"/>
<text text-anchor="start" x="411.88" y="-178.6" font-family="Arial" font-size="14.00">type_id </text>
<text text-anchor="start" x="460.91" y="-178.6" font-family="Arial" font-size="14.00" fill="#666666">[smallint]</text>
<polygon fill="none" stroke="black" points="404.88,-135.6 404.88,-166.4 651.8,-166.4 651.8,-135.6 404.88,-135.6"/>
<text text-anchor="start" x="411.88" y="-147.8" font-family="Arial" font-size="14.00">name </text>
<text text-anchor="start" x="450.79" y="-147.8" font-family="Arial" font-size="14.00" fill="#666666">[varchar(60)]</text>
<polygon fill="none" stroke="black" points="404.88,-104.8 404.88,-135.6 651.8,-135.6 651.8,-104.8 404.88,-104.8"/>
<text text-anchor="start" x="411.88" y="-117" font-family="Arial" font-size="14.00">coordinates </text>
<text text-anchor="start" x="488.15" y="-117" font-family="Arial" font-size="14.00" fill="#666666">[geometry(Point,4326)]</text>
</g>
<!-- org.org_core&#45;&gt;geo.place_core -->
<g id="edge2" class="edge">
<title>org.org_core:place_id&#45;&gt;geo.place_core:id</title>
<path fill="none" stroke="black" d="M662.85,-645.35C699.09,-597 694.97,-243.4 652.8,-243.4"/>
<polygon fill="black" stroke="black" points="662.96,-645.28 652.1,-646.82 658.45,-648.13 654.79,-650.44 654.79,-650.44 654.79,-650.44 658.45,-648.13 656.91,-654.43 662.96,-645.28"/>
<text text-anchor="start" x="661.22" y="-660.8" font-family="Arial" font-size="10.00">FOREIGN KEY (place_id) REFERENCES geo.place_core(id) ON DELETE SET NULL</text>
</g>
<!-- identity.entity -->
<g id="node4" class="node">
<title>identity.entity</title>
<polygon fill="#efefef" stroke="none" points="756.06,-212.6 756.06,-248.2 1034.62,-248.2 1034.62,-212.6 756.06,-212.6"/>
<polygon fill="none" stroke="black" points="756.06,-212.6 756.06,-248.2 1034.62,-248.2 1034.62,-212.6 756.06,-212.6"/>
<text text-anchor="start" x="782.85" y="-226" font-family="Arial Bold" font-size="18.00">identity.entity</text>
<text text-anchor="start" x="883.34" y="-226" font-family="Arial" font-size="14.00">    </text>
<text text-anchor="start" x="914.45" y="-226" font-family="Arial" font-size="14.00" fill="#666666">[BASE TABLE]</text>
<polygon fill="none" stroke="black" points="756.06,-181.8 756.06,-212.6 1034.62,-212.6 1034.62,-181.8 756.06,-181.8"/>
<text text-anchor="start" x="763.06" y="-194" font-family="Arial" font-size="14.00">anonymized_at </text>
<text text-anchor="start" x="861.9" y="-194" font-family="Arial" font-size="14.00" fill="#666666">[timestamp with time zone]</text>
<polygon fill="none" stroke="black" points="756.06,-151 756.06,-181.8 1034.62,-181.8 1034.62,-151 756.06,-151"/>
<text text-anchor="start" x="763.06" y="-163.2" font-family="Arial" font-size="14.00">id </text>
<text text-anchor="start" x="777.84" y="-163.2" font-family="Arial" font-size="14.00" fill="#666666">[integer]</text>
</g>
<!-- org.org_core&#45;&gt;identity.entity -->
<g id="edge3" class="edge">
<title>org.org_core:contact_entity_id&#45;&gt;identity.entity:id</title>
<path fill="none" stroke="black" d="M664.36,-618.36C750.31,-588.67 655.43,-166.4 755.06,-166.4"/>
<polygon fill="black" stroke="black" points="664.43,-618.35 653.83,-615.5 659.16,-619.2 654.88,-619.89 654.88,-619.89 654.88,-619.89 659.16,-619.2 655.27,-624.39 664.43,-618.35"/>
<text text-anchor="start" x="661.22" y="-630" font-family="Arial" font-size="10.00">FOREIGN KEY (contact_entity_id) REFERENCES identity.entity(id) ON DELETE SET NULL</text>
</g>
<!-- content.media_core -->
<g id="node5" class="node">
<title>content.media_core</title>
<polygon fill="#efefef" stroke="none" points="1139.38,-320.4 1139.38,-356 1419.3,-356 1419.3,-320.4 1139.38,-320.4"/>
<polygon fill="none" stroke="black" points="1139.38,-320.4 1139.38,-356 1419.3,-356 1419.3,-320.4 1139.38,-320.4"/>
<text text-anchor="start" x="1146.38" y="-333.8" font-family="Arial Bold" font-size="18.00">content.media_core</text>
<text text-anchor="start" x="1287.81" y="-333.8" font-family="Arial" font-size="14.00">    </text>
<text text-anchor="start" x="1318.93" y="-333.8" font-family="Arial" font-size="14.00" fill="#666666">[BASE TABLE]</text>
<polygon fill="none" stroke="black" points="1139.38,-289.6 1139.38,-320.4 1419.3,-320.4 1419.3,-289.6 1139.38,-289.6"/>
<text text-anchor="start" x="1146.38" y="-301.8" font-family="Arial" font-size="14.00">created_at </text>
<text text-anchor="start" x="1216.42" y="-301.8" font-family="Arial" font-size="14.00" fill="#666666">[timestamp with time zone]</text>
<polygon fill="none" stroke="black" points="1139.38,-258.8 1139.38,-289.6 1419.3,-289.6 1419.3,-258.8 1139.38,-258.8"/>
<text text-anchor="start" x="1146.38" y="-271" font-family="Arial" font-size="14.00">modified_at </text>
<text text-anchor="start" x="1222.65" y="-271" font-family="Arial" font-size="14.00" fill="#666666">[timestamp with time zone]</text>
<polygon fill="none" stroke="black" points="1139.38,-228 1139.38,-258.8 1419.3,-258.8 1419.3,-228 1139.38,-228"/>
<text text-anchor="start" x="1146.38" y="-240.2" font-family="Arial" font-size="14.00">id </text>
<text text-anchor="start" x="1161.16" y="-240.2" font-family="Arial" font-size="14.00" fill="#666666">[integer]</text>
<polygon fill="none" stroke="black" points="1139.38,-197.2 1139.38,-228 1419.3,-228 1419.3,-197.2 1139.38,-197.2"/>
<text text-anchor="start" x="1146.38" y="-209.4" font-family="Arial" font-size="14.00">author_id </text>
<text text-anchor="start" x="1208.65" y="-209.4" font-family="Arial" font-size="14.00" fill="#666666">[integer]</text>
<polygon fill="none" stroke="black" points="1139.38,-166.4 1139.38,-197.2 1419.3,-197.2 1419.3,-166.4 1139.38,-166.4"/>
<text text-anchor="start" x="1146.38" y="-178.6" font-family="Arial" font-size="14.00">width </text>
<text text-anchor="start" x="1182.95" y="-178.6" font-family="Arial" font-size="14.00" fill="#666666">[integer]</text>
<polygon fill="none" stroke="black" points="1139.38,-135.6 1139.38,-166.4 1419.3,-166.4 1419.3,-135.6 1139.38,-135.6"/>
<text text-anchor="start" x="1146.38" y="-147.8" font-family="Arial" font-size="14.00">height </text>
<text text-anchor="start" x="1188.41" y="-147.8" font-family="Arial" font-size="14.00" fill="#666666">[integer]</text>
<polygon fill="none" stroke="black" points="1139.38,-104.8 1139.38,-135.6 1419.3,-135.6 1419.3,-104.8 1139.38,-104.8"/>
<text text-anchor="start" x="1146.38" y="-117" font-family="Arial" font-size="14.00">mime_type </text>
<text text-anchor="start" x="1218.73" y="-117" font-family="Arial" font-size="14.00" fill="#666666">[varchar(255)]</text>
<polygon fill="none" stroke="black" points="1139.38,-74 1139.38,-104.8 1419.3,-104.8 1419.3,-74 1139.38,-74"/>
<text text-anchor="start" x="1146.38" y="-86.2" font-family="Arial" font-size="14.00">folder_url </text>
<text text-anchor="start" x="1208.63" y="-86.2" font-family="Arial" font-size="14.00" fill="#666666">[varchar(255)]</text>
<polygon fill="none" stroke="black" points="1139.38,-43.2 1139.38,-74 1419.3,-74 1419.3,-43.2 1139.38,-43.2"/>
<text text-anchor="start" x="1146.38" y="-55.4" font-family="Arial" font-size="14.00">file_name </text>
<text text-anchor="start" x="1210.97" y="-55.4" font-family="Arial" font-size="14.00" fill="#666666">[varchar(255)]</text>
</g>
<!-- org.org_core&#45;&gt;content.media_core -->
<g id="edge4" class="edge">
<title>org.org_core:media_id&#45;&gt;content.media_core:id</title>
<path fill="none" stroke="black" d="M664.57,-589.17C866.72,-588 947.31,-551.63 1086.34,-399.2 1135.53,-345.26 1065.37,-243.4 1138.38,-243.4"/>
<polygon fill="black" stroke="black" points="664.56,-589.17 654.55,-584.7 659.22,-589.19 654.89,-589.2 654.89,-589.2 654.89,-589.2 659.22,-589.19 654.57,-593.7 664.56,-589.17"/>
<text text-anchor="start" x="661.22" y="-599.2" font-family="Arial" font-size="10.00">FOREIGN KEY (media_id) REFERENCES content.media_core(id) ON DELETE SET NULL</text>
</g>
</g>
</svg>
