<?xml version="1.0" encoding="UTF-8" standalone="no"?>
<!DOCTYPE svg PUBLIC "-//W3C//DTD SVG 1.1//EN"
 "http://www.w3.org/Graphics/SVG/1.1/DTD/svg11.dtd">
<!-- Generated by graphviz version 12.1.2 (20240928.0832)
 -->
<!-- Title: org.entity Pages: 1 -->
<svg width="2322pt" height="602pt"
 viewBox="0.00 0.00 2322.21 602.00" xmlns="http://www.w3.org/2000/svg" xmlns:xlink="http://www.w3.org/1999/xlink">
<g id="graph0" class="graph" transform="scale(1 1) rotate(0) translate(4 598)">
<title>org.entity</title>
<polygon fill="white" stroke="none" points="-4,4 -4,-598 2318.21,-598 2318.21,4 -4,4"/>
<!-- org.entity -->
<g id="node1" class="node">
<title>org.entity</title>
<polygon fill="#efefef" stroke="none" points="887.58,-77 887.58,-112.6 1095.55,-112.6 1095.55,-77 887.58,-77"/>
<polygon fill="none" stroke="black" points="887.58,-77 887.58,-112.6 1095.55,-112.6 1095.55,-77 887.58,-77"/>
<text text-anchor="start" x="894.58" y="-90.4" font-family="Arial Bold" font-size="18.00">org.entity</text>
<text text-anchor="start" x="964.06" y="-90.4" font-family="Arial" font-size="14.00">    </text>
<text text-anchor="start" x="995.18" y="-90.4" font-family="Arial" font-size="14.00" fill="#666666">[BASE TABLE]</text>
<polygon fill="none" stroke="black" points="887.58,-46.2 887.58,-77 1095.55,-77 1095.55,-46.2 887.58,-46.2"/>
<text text-anchor="start" x="894.58" y="-58.4" font-family="Arial" font-size="14.00">id </text>
<text text-anchor="start" x="909.36" y="-58.4" font-family="Arial" font-size="14.00" fill="#666666">[integer]</text>
<polygon fill="none" stroke="black" stroke-width="3" points="886.08,-44.7 886.08,-114.1 1097.05,-114.1 1097.05,-44.7 886.08,-44.7"/>
</g>
<!-- org.org_core -->
<g id="node2" class="node">
<title>org.org_core</title>
<polygon fill="#efefef" stroke="none" points="151.68,-499.8 151.68,-535.4 401.45,-535.4 401.45,-499.8 151.68,-499.8"/>
<polygon fill="none" stroke="black" points="151.68,-499.8 151.68,-535.4 401.45,-535.4 401.45,-499.8 151.68,-499.8"/>
<text text-anchor="start" x="168.09" y="-513.2" font-family="Arial Bold" font-size="18.00">org.org_core</text>
<text text-anchor="start" x="260.55" y="-513.2" font-family="Arial" font-size="14.00">    </text>
<text text-anchor="start" x="291.67" y="-513.2" font-family="Arial" font-size="14.00" fill="#666666">[BASE TABLE]</text>
<polygon fill="none" stroke="black" points="151.68,-469 151.68,-499.8 401.45,-499.8 401.45,-469 151.68,-469"/>
<text text-anchor="start" x="158.68" y="-481.2" font-family="Arial" font-size="14.00">created_at </text>
<text text-anchor="start" x="228.73" y="-481.2" font-family="Arial" font-size="14.00" fill="#666666">[timestamp with time zone]</text>
<polygon fill="none" stroke="black" points="151.68,-438.2 151.68,-469 401.45,-469 401.45,-438.2 151.68,-438.2"/>
<text text-anchor="start" x="158.68" y="-450.4" font-family="Arial" font-size="14.00">entity_id </text>
<text text-anchor="start" x="214.71" y="-450.4" font-family="Arial" font-size="14.00" fill="#666666">[integer]</text>
<polygon fill="none" stroke="black" points="151.68,-407.4 151.68,-438.2 401.45,-438.2 401.45,-407.4 151.68,-407.4"/>
<text text-anchor="start" x="158.68" y="-419.6" font-family="Arial" font-size="14.00">place_id </text>
<text text-anchor="start" x="214.72" y="-419.6" font-family="Arial" font-size="14.00" fill="#666666">[integer]</text>
<polygon fill="none" stroke="black" points="151.68,-376.6 151.68,-407.4 401.45,-407.4 401.45,-376.6 151.68,-376.6"/>
<text text-anchor="start" x="158.68" y="-388.8" font-family="Arial" font-size="14.00">contact_entity_id </text>
<text text-anchor="start" x="267.64" y="-388.8" font-family="Arial" font-size="14.00" fill="#666666">[integer]</text>
<polygon fill="none" stroke="black" points="151.68,-345.8 151.68,-376.6 401.45,-376.6 401.45,-345.8 151.68,-345.8"/>
<text text-anchor="start" x="158.68" y="-358" font-family="Arial" font-size="14.00">media_id </text>
<text text-anchor="start" x="219.38" y="-358" font-family="Arial" font-size="14.00" fill="#666666">[integer]</text>
<polygon fill="none" stroke="black" points="151.68,-315 151.68,-345.8 401.45,-345.8 401.45,-315 151.68,-315"/>
<text text-anchor="start" x="158.68" y="-327.2" font-family="Arial" font-size="14.00">parent_entity_id </text>
<text text-anchor="start" x="262.2" y="-327.2" font-family="Arial" font-size="14.00" fill="#666666">[integer]</text>
<polygon fill="none" stroke="black" points="151.68,-284.2 151.68,-315 401.45,-315 401.45,-284.2 151.68,-284.2"/>
<text text-anchor="start" x="158.68" y="-296.4" font-family="Arial" font-size="14.00">type </text>
<text text-anchor="start" x="189.03" y="-296.4" font-family="Arial" font-size="14.00" fill="#666666">[varchar(30)]</text>
<polygon fill="none" stroke="black" points="151.68,-253.4 151.68,-284.2 401.45,-284.2 401.45,-253.4 151.68,-253.4"/>
<text text-anchor="start" x="158.68" y="-265.6" font-family="Arial" font-size="14.00">purpose </text>
<text text-anchor="start" x="213.16" y="-265.6" font-family="Arial" font-size="14.00" fill="#666666">[varchar(30)]</text>
</g>
<!-- org.org_core&#45;&gt;org.entity -->
<g id="edge1" class="edge">
<title>org.org_core:entity_id&#45;&gt;org.entity:id</title>
<path fill="none" stroke="black" d="M412.69,-453.1C510.87,-442.95 377.51,-279.16 453.57,-194.8 520.98,-120.03 785.9,-61.6 886.58,-61.6"/>
<polygon fill="black" stroke="black" points="412.77,-453.1 402.57,-449.09 407.45,-453.36 403.12,-453.57 403.12,-453.57 403.12,-453.57 407.45,-453.36 403,-458.08 412.77,-453.1"/>
<text text-anchor="start" x="40.36" y="-463.6" font-family="Arial" font-size="10.00">FOREIGN KEY (entity_id) REFERENCES org.entity(id) ON DELETE CASCADE</text>
</g>
<!-- org.org_core&#45;&gt;org.entity -->
<g id="edge2" class="edge">
<title>org.org_core:parent_entity_id&#45;&gt;org.entity:id</title>
<path fill="none" stroke="black" d="M412.83,-329.42C459.96,-319.49 409.48,-236.24 453.57,-194.8 526.93,-125.85 785.9,-61.6 886.58,-61.6"/>
<polygon fill="black" stroke="black" points="412.74,-329.43 402.36,-325.89 407.43,-329.93 403.12,-330.34 403.12,-330.34 403.12,-330.34 407.43,-329.93 403.21,-334.85 412.74,-329.43"/>
<text text-anchor="start" x="7" y="-340.4" font-family="Arial" font-size="10.00">FOREIGN KEY (parent_entity_id) REFERENCES org.entity(id) ON DELETE SET NULL</text>
</g>
<!-- org.org_identity -->
<g id="node3" class="node">
<title>org.org_identity</title>
<polygon fill="#efefef" stroke="none" points="506.08,-438.2 506.08,-473.8 761.05,-473.8 761.05,-438.2 506.08,-438.2"/>
<polygon fill="none" stroke="black" points="506.08,-438.2 506.08,-473.8 761.05,-473.8 761.05,-438.2 506.08,-438.2"/>
<text text-anchor="start" x="513.08" y="-451.6" font-family="Arial Bold" font-size="18.00">org.org_identity</text>
<text text-anchor="start" x="629.56" y="-451.6" font-family="Arial" font-size="14.00">    </text>
<text text-anchor="start" x="660.68" y="-451.6" font-family="Arial" font-size="14.00" fill="#666666">[BASE TABLE]</text>
<polygon fill="none" stroke="black" points="506.08,-407.4 506.08,-438.2 761.05,-438.2 761.05,-407.4 506.08,-407.4"/>
<text text-anchor="start" x="513.08" y="-419.6" font-family="Arial" font-size="14.00">entity_id </text>
<text text-anchor="start" x="569.12" y="-419.6" font-family="Arial" font-size="14.00" fill="#666666">[integer]</text>
<polygon fill="none" stroke="black" points="506.08,-376.6 506.08,-407.4 761.05,-407.4 761.05,-376.6 506.08,-376.6"/>
<text text-anchor="start" x="513.08" y="-388.8" font-family="Arial" font-size="14.00">name </text>
<text text-anchor="start" x="551.99" y="-388.8" font-family="Arial" font-size="14.00" fill="#666666">[varchar(64)]</text>
<polygon fill="none" stroke="black" points="506.08,-345.8 506.08,-376.6 761.05,-376.6 761.05,-345.8 506.08,-345.8"/>
<text text-anchor="start" x="513.08" y="-358" font-family="Arial" font-size="14.00">brand </text>
<text text-anchor="start" x="552.78" y="-358" font-family="Arial" font-size="14.00" fill="#666666">[varchar(255)]</text>
<polygon fill="none" stroke="black" points="506.08,-315 506.08,-345.8 761.05,-345.8 761.05,-315 506.08,-315"/>
<text text-anchor="start" x="513.08" y="-327.2" font-family="Arial" font-size="14.00">slug </text>
<text text-anchor="start" x="542.65" y="-327.2" font-family="Arial" font-size="14.00" fill="#666666">[varchar(64)]</text>
</g>
<!-- org.org_identity&#45;&gt;org.entity -->
<g id="edge3" class="edge">
<title>org.org_identity:entity_id&#45;&gt;org.entity:id</title>
<path fill="none" stroke="black" d="M772,-420.25C811.53,-398.22 796.47,-239.96 813.57,-194.8 837.46,-131.66 819.07,-61.6 886.58,-61.6"/>
<polygon fill="black" stroke="black" points="772.06,-420.23 761.26,-418.36 766.89,-421.56 762.7,-422.63 762.7,-422.63 762.7,-422.63 766.89,-421.56 763.49,-427.08 772.06,-420.23"/>
<text text-anchor="start" x="769.05" y="-432.8" font-family="Arial" font-size="10.00">FOREIGN KEY (entity_id) REFERENCES org.entity(id) ON DELETE CASCADE</text>
</g>
<!-- org.org_contact -->
<g id="node4" class="node">
<title>org.org_contact</title>
<polygon fill="#efefef" stroke="none" points="865.59,-469 865.59,-504.6 1117.54,-504.6 1117.54,-469 865.59,-469"/>
<polygon fill="none" stroke="black" points="865.59,-469 865.59,-504.6 1117.54,-504.6 1117.54,-469 865.59,-469"/>
<text text-anchor="start" x="872.59" y="-482.4" font-family="Arial Bold" font-size="18.00">org.org_contact</text>
<text text-anchor="start" x="986.05" y="-482.4" font-family="Arial" font-size="14.00">    </text>
<text text-anchor="start" x="1017.17" y="-482.4" font-family="Arial" font-size="14.00" fill="#666666">[BASE TABLE]</text>
<polygon fill="none" stroke="black" points="865.59,-438.2 865.59,-469 1117.54,-469 1117.54,-438.2 865.59,-438.2"/>
<text text-anchor="start" x="872.59" y="-450.4" font-family="Arial" font-size="14.00">entity_id </text>
<text text-anchor="start" x="928.63" y="-450.4" font-family="Arial" font-size="14.00" fill="#666666">[integer]</text>
<polygon fill="none" stroke="black" points="865.59,-407.4 865.59,-438.2 1117.54,-438.2 1117.54,-407.4 865.59,-407.4"/>
<text text-anchor="start" x="872.59" y="-419.6" font-family="Arial" font-size="14.00">email </text>
<text text-anchor="start" x="909.94" y="-419.6" font-family="Arial" font-size="14.00" fill="#666666">[varchar(128)]</text>
<polygon fill="none" stroke="black" points="865.59,-376.6 865.59,-407.4 1117.54,-407.4 1117.54,-376.6 865.59,-376.6"/>
<text text-anchor="start" x="872.59" y="-388.8" font-family="Arial" font-size="14.00">phone </text>
<text text-anchor="start" x="915.41" y="-388.8" font-family="Arial" font-size="14.00" fill="#666666">[varchar(30)]</text>
<polygon fill="none" stroke="black" points="865.59,-345.8 865.59,-376.6 1117.54,-376.6 1117.54,-345.8 865.59,-345.8"/>
<text text-anchor="start" x="872.59" y="-358" font-family="Arial" font-size="14.00">phone2 </text>
<text text-anchor="start" x="923.2" y="-358" font-family="Arial" font-size="14.00" fill="#666666">[varchar(30)]</text>
<polygon fill="none" stroke="black" points="865.59,-315 865.59,-345.8 1117.54,-345.8 1117.54,-315 865.59,-315"/>
<text text-anchor="start" x="872.59" y="-327.2" font-family="Arial" font-size="14.00">fax </text>
<text text-anchor="start" x="895.16" y="-327.2" font-family="Arial" font-size="14.00" fill="#666666">[varchar(30)]</text>
<polygon fill="none" stroke="black" points="865.59,-284.2 865.59,-315 1117.54,-315 1117.54,-284.2 865.59,-284.2"/>
<text text-anchor="start" x="872.59" y="-296.4" font-family="Arial" font-size="14.00">url </text>
<text text-anchor="start" x="892.04" y="-296.4" font-family="Arial" font-size="14.00" fill="#666666">[varchar(255)]</text>
</g>
<!-- org.org_contact&#45;&gt;org.entity -->
<g id="edge4" class="edge">
<title>org.org_contact:entity_id&#45;&gt;org.entity:id</title>
<path fill="none" stroke="black" d="M1127.34,-448.57C1165.03,-403.9 1171.52,-76.17 1141.75,-46.2 1094.71,1.16 991.57,21.55 991.57,-45.2"/>
<polygon fill="black" stroke="black" points="1127.51,-448.47 1116.6,-449.53 1122.88,-451.12 1119.12,-453.27 1119.12,-453.27 1119.12,-453.27 1122.88,-451.12 1121.06,-457.34 1127.51,-448.47"/>
<text text-anchor="start" x="756.45" y="-463.6" font-family="Arial" font-size="10.00">FOREIGN KEY (entity_id) REFERENCES org.entity(id) ON DELETE CASCADE</text>
</g>
<!-- org.org_legal -->
<g id="node5" class="node">
<title>org.org_legal</title>
<polygon fill="#efefef" stroke="none" points="1222.09,-438.2 1222.09,-473.8 1457.05,-473.8 1457.05,-438.2 1222.09,-438.2"/>
<polygon fill="none" stroke="black" points="1222.09,-438.2 1222.09,-473.8 1457.05,-473.8 1457.05,-438.2 1222.09,-438.2"/>
<text text-anchor="start" x="1229.09" y="-451.6" font-family="Arial Bold" font-size="18.00">org.org_legal</text>
<text text-anchor="start" x="1325.56" y="-451.6" font-family="Arial" font-size="14.00">    </text>
<text text-anchor="start" x="1356.67" y="-451.6" font-family="Arial" font-size="14.00" fill="#666666">[BASE TABLE]</text>
<polygon fill="none" stroke="black" points="1222.09,-407.4 1222.09,-438.2 1457.05,-438.2 1457.05,-407.4 1222.09,-407.4"/>
<text text-anchor="start" x="1229.09" y="-419.6" font-family="Arial" font-size="14.00">entity_id </text>
<text text-anchor="start" x="1285.12" y="-419.6" font-family="Arial" font-size="14.00" fill="#666666">[integer]</text>
<polygon fill="none" stroke="black" points="1222.09,-376.6 1222.09,-407.4 1457.05,-407.4 1457.05,-376.6 1222.09,-376.6"/>
<text text-anchor="start" x="1229.09" y="-388.8" font-family="Arial" font-size="14.00">duns </text>
<text text-anchor="start" x="1263.34" y="-388.8" font-family="Arial" font-size="14.00" fill="#666666">[varchar(9)]</text>
<polygon fill="none" stroke="black" points="1222.09,-345.8 1222.09,-376.6 1457.05,-376.6 1457.05,-345.8 1222.09,-345.8"/>
<text text-anchor="start" x="1229.09" y="-358" font-family="Arial" font-size="14.00">siret </text>
<text text-anchor="start" x="1259.43" y="-358" font-family="Arial" font-size="14.00" fill="#666666">[varchar(14)]</text>
<polygon fill="none" stroke="black" points="1222.09,-315 1222.09,-345.8 1457.05,-345.8 1457.05,-315 1222.09,-315"/>
<text text-anchor="start" x="1229.09" y="-327.2" font-family="Arial" font-size="14.00">vat_id </text>
<text text-anchor="start" x="1270.34" y="-327.2" font-family="Arial" font-size="14.00" fill="#666666">[varchar(32)]</text>
</g>
<!-- org.org_legal&#45;&gt;org.entity -->
<g id="edge5" class="edge">
<title>org.org_legal:entity_id&#45;&gt;org.entity:id</title>
<path fill="none" stroke="black" d="M1211.14,-420.25C1171.6,-398.22 1186.66,-239.97 1169.57,-194.8 1145.67,-131.66 1164.06,-61.6 1096.55,-61.6"/>
<polygon fill="black" stroke="black" points="1211.08,-420.23 1219.64,-427.08 1216.24,-421.56 1220.44,-422.63 1220.44,-422.63 1220.44,-422.63 1216.24,-421.56 1221.88,-418.36 1211.08,-420.23"/>
<text text-anchor="start" x="951.27" y="-406.8" font-family="Arial" font-size="10.00">FOREIGN KEY (entity_id) REFERENCES org.entity(id) ON DELETE CASCADE</text>
</g>
<!-- org.org_hierarchy -->
<g id="node6" class="node">
<title>org.org_hierarchy</title>
<polygon fill="#efefef" stroke="none" points="1561.6,-438.2 1561.6,-473.8 1829.53,-473.8 1829.53,-438.2 1561.6,-438.2"/>
<polygon fill="none" stroke="black" points="1561.6,-438.2 1561.6,-473.8 1829.53,-473.8 1829.53,-438.2 1561.6,-438.2"/>
<text text-anchor="start" x="1568.6" y="-451.6" font-family="Arial Bold" font-size="18.00">org.org_hierarchy</text>
<text text-anchor="start" x="1698.04" y="-451.6" font-family="Arial" font-size="14.00">    </text>
<text text-anchor="start" x="1729.16" y="-451.6" font-family="Arial" font-size="14.00" fill="#666666">[BASE TABLE]</text>
<polygon fill="none" stroke="black" points="1561.6,-407.4 1561.6,-438.2 1829.53,-438.2 1829.53,-407.4 1561.6,-407.4"/>
<text text-anchor="start" x="1568.6" y="-419.6" font-family="Arial" font-size="14.00">entity_id </text>
<text text-anchor="start" x="1624.63" y="-419.6" font-family="Arial" font-size="14.00" fill="#666666">[integer]</text>
<polygon fill="none" stroke="black" points="1561.6,-376.6 1561.6,-407.4 1829.53,-407.4 1829.53,-376.6 1561.6,-376.6"/>
<text text-anchor="start" x="1568.6" y="-388.8" font-family="Arial" font-size="14.00">lft </text>
<text text-anchor="start" x="1583.38" y="-388.8" font-family="Arial" font-size="14.00" fill="#666666">[integer]</text>
<polygon fill="none" stroke="black" points="1561.6,-345.8 1561.6,-376.6 1829.53,-376.6 1829.53,-345.8 1561.6,-345.8"/>
<text text-anchor="start" x="1568.6" y="-358" font-family="Arial" font-size="14.00">rgt </text>
<text text-anchor="start" x="1588.83" y="-358" font-family="Arial" font-size="14.00" fill="#666666">[integer]</text>
<polygon fill="none" stroke="black" points="1561.6,-315 1561.6,-345.8 1829.53,-345.8 1829.53,-315 1561.6,-315"/>
<text text-anchor="start" x="1568.6" y="-327.2" font-family="Arial" font-size="14.00">depth </text>
<text text-anchor="start" x="1607.52" y="-327.2" font-family="Arial" font-size="14.00" fill="#666666">[smallint]</text>
</g>
<!-- org.org_hierarchy&#45;&gt;org.entity -->
<g id="edge6" class="edge">
<title>org.org_hierarchy:entity_id&#45;&gt;org.entity:id</title>
<path fill="none" stroke="black" d="M1550.21,-422.22C1465.38,-411.96 1577.02,-268.75 1509.57,-194.8 1444.58,-123.55 1192.99,-61.6 1096.55,-61.6"/>
<polygon fill="black" stroke="black" points="1550.28,-422.22 1560.01,-427.27 1555.61,-422.52 1559.93,-422.76 1559.93,-422.76 1559.93,-422.76 1555.61,-422.52 1560.52,-418.29 1550.28,-422.22"/>
<text text-anchor="start" x="1567.6" y="-432.8" font-family="Arial" font-size="10.00">FOREIGN KEY (entity_id) REFERENCES org.entity(id) ON DELETE CASCADE</text>
</g>
<!-- commerce.transaction_core -->
<g id="node7" class="node">
<title>commerce.transaction_core</title>
<polygon fill="#efefef" stroke="none" points="1934.12,-515.2 1934.12,-550.8 2271.01,-550.8 2271.01,-515.2 1934.12,-515.2"/>
<polygon fill="none" stroke="black" points="1934.12,-515.2 1934.12,-550.8 2271.01,-550.8 2271.01,-515.2 1934.12,-515.2"/>
<text text-anchor="start" x="1941.12" y="-528.6" font-family="Arial Bold" font-size="18.00">commerce.transaction_core</text>
<text text-anchor="start" x="2139.52" y="-528.6" font-family="Arial" font-size="14.00">    </text>
<text text-anchor="start" x="2170.64" y="-528.6" font-family="Arial" font-size="14.00" fill="#666666">[BASE TABLE]</text>
<polygon fill="none" stroke="black" points="1934.12,-484.4 1934.12,-515.2 2271.01,-515.2 2271.01,-484.4 1934.12,-484.4"/>
<text text-anchor="start" x="1941.12" y="-496.6" font-family="Arial" font-size="14.00">created_at </text>
<text text-anchor="start" x="2011.17" y="-496.6" font-family="Arial" font-size="14.00" fill="#666666">[timestamp with time zone]</text>
<polygon fill="none" stroke="black" points="1934.12,-453.6 1934.12,-484.4 2271.01,-484.4 2271.01,-453.6 1934.12,-453.6"/>
<text text-anchor="start" x="1941.12" y="-465.8" font-family="Arial" font-size="14.00">modified_at </text>
<text text-anchor="start" x="2017.39" y="-465.8" font-family="Arial" font-size="14.00" fill="#666666">[timestamp with time zone]</text>
<polygon fill="none" stroke="black" points="1934.12,-422.8 1934.12,-453.6 2271.01,-453.6 2271.01,-422.8 1934.12,-422.8"/>
<text text-anchor="start" x="1941.12" y="-435" font-family="Arial" font-size="14.00">id </text>
<text text-anchor="start" x="1955.91" y="-435" font-family="Arial" font-size="14.00" fill="#666666">[integer]</text>
<polygon fill="none" stroke="black" points="1934.12,-392 1934.12,-422.8 2271.01,-422.8 2271.01,-392 1934.12,-392"/>
<text text-anchor="start" x="1941.12" y="-404.2" font-family="Arial" font-size="14.00">client_entity_id </text>
<text text-anchor="start" x="2037.63" y="-404.2" font-family="Arial" font-size="14.00" fill="#666666">[integer]</text>
<polygon fill="none" stroke="black" points="1934.12,-361.2 1934.12,-392 2271.01,-392 2271.01,-361.2 1934.12,-361.2"/>
<text text-anchor="start" x="1941.12" y="-373.4" font-family="Arial" font-size="14.00">seller_entity_id </text>
<text text-anchor="start" x="2038.4" y="-373.4" font-family="Arial" font-size="14.00" fill="#666666">[integer]</text>
<polygon fill="none" stroke="black" points="1934.12,-330.4 1934.12,-361.2 2271.01,-361.2 2271.01,-330.4 1934.12,-330.4"/>
<text text-anchor="start" x="1941.12" y="-342.6" font-family="Arial" font-size="14.00">status </text>
<text text-anchor="start" x="1982.37" y="-342.6" font-family="Arial" font-size="14.00" fill="#666666">[smallint]</text>
<polygon fill="none" stroke="black" points="1934.12,-299.6 1934.12,-330.4 2271.01,-330.4 2271.01,-299.6 1934.12,-299.6"/>
<text text-anchor="start" x="1941.12" y="-311.8" font-family="Arial" font-size="14.00">is_gift </text>
<text text-anchor="start" x="1981.59" y="-311.8" font-family="Arial" font-size="14.00" fill="#666666">[boolean]</text>
<polygon fill="none" stroke="black" points="1934.12,-268.8 1934.12,-299.6 2271.01,-299.6 2271.01,-268.8 1934.12,-268.8"/>
<text text-anchor="start" x="1941.12" y="-281" font-family="Arial" font-size="14.00">is_recurring </text>
<text text-anchor="start" x="2018.15" y="-281" font-family="Arial" font-size="14.00" fill="#666666">[boolean]</text>
<polygon fill="none" stroke="black" points="1934.12,-238 1934.12,-268.8 2271.01,-268.8 2271.01,-238 1934.12,-238"/>
<text text-anchor="start" x="1941.12" y="-250.2" font-family="Arial" font-size="14.00">description </text>
<text text-anchor="start" x="2012.72" y="-250.2" font-family="Arial" font-size="14.00" fill="#666666">[text]</text>
</g>
<!-- commerce.transaction_core&#45;&gt;org.entity -->
<g id="edge7" class="edge">
<title>commerce.transaction_core:seller_entity_id&#45;&gt;org.entity:id</title>
<path fill="none" stroke="black" d="M1922.86,-375.86C1857.35,-365.45 1941.27,-248.37 1881.57,-194.8 1749.86,-76.64 1273.49,-61.6 1096.55,-61.6"/>
<polygon fill="black" stroke="black" points="1922.82,-375.85 1932.47,-381.06 1928.14,-376.24 1932.46,-376.55 1932.46,-376.55 1932.46,-376.55 1928.14,-376.24 1933.12,-372.09 1922.82,-375.85"/>
<text text-anchor="start" x="1652.16" y="-386.6" font-family="Arial" font-size="10.00">FOREIGN KEY (seller_entity_id) REFERENCES org.entity(id)</text>
</g>
</g>
</svg>
