<?xml version="1.0" encoding="UTF-8" standalone="no"?>
<!DOCTYPE svg PUBLIC "-//W3C//DTD SVG 1.1//EN"
 "http://www.w3.org/Graphics/SVG/1.1/DTD/svg11.dtd">
<!-- Generated by graphviz version 12.1.2 (20240928.0832)
 -->
<!-- Title: org.org_legal Pages: 1 -->
<svg width="659pt" height="448pt"
 viewBox="0.00 0.00 659.25 448.00" xmlns="http://www.w3.org/2000/svg" xmlns:xlink="http://www.w3.org/1999/xlink">
<g id="graph0" class="graph" transform="scale(1 1) rotate(0) translate(4 444)">
<title>org.org_legal</title>
<polygon fill="white" stroke="none" points="-4,4 -4,-444 655.25,-444 655.25,4 -4,4"/>
<!-- org.org_legal -->
<g id="node1" class="node">
<title>org.org_legal</title>
<polygon fill="#efefef" stroke="none" points="46.2,-358.2 46.2,-393.8 281.16,-393.8 281.16,-358.2 46.2,-358.2"/>
<polygon fill="none" stroke="black" points="46.2,-358.2 46.2,-393.8 281.16,-393.8 281.16,-358.2 46.2,-358.2"/>
<text text-anchor="start" x="53.2" y="-371.6" font-family="Arial Bold" font-size="18.00">org.org_legal</text>
<text text-anchor="start" x="149.67" y="-371.6" font-family="Arial" font-size="14.00">    </text>
<text text-anchor="start" x="180.79" y="-371.6" font-family="Arial" font-size="14.00" fill="#666666">[BASE TABLE]</text>
<polygon fill="none" stroke="black" points="46.2,-327.4 46.2,-358.2 281.16,-358.2 281.16,-327.4 46.2,-327.4"/>
<text text-anchor="start" x="53.2" y="-339.6" font-family="Arial" font-size="14.00">entity_id </text>
<text text-anchor="start" x="109.23" y="-339.6" font-family="Arial" font-size="14.00" fill="#666666">[integer]</text>
<polygon fill="none" stroke="black" points="46.2,-296.6 46.2,-327.4 281.16,-327.4 281.16,-296.6 46.2,-296.6"/>
<text text-anchor="start" x="53.2" y="-308.8" font-family="Arial" font-size="14.00">duns </text>
<text text-anchor="start" x="87.45" y="-308.8" font-family="Arial" font-size="14.00" fill="#666666">[varchar(9)]</text>
<polygon fill="none" stroke="black" points="46.2,-265.8 46.2,-296.6 281.16,-296.6 281.16,-265.8 46.2,-265.8"/>
<text text-anchor="start" x="53.2" y="-278" font-family="Arial" font-size="14.00">siret </text>
<text text-anchor="start" x="83.54" y="-278" font-family="Arial" font-size="14.00" fill="#666666">[varchar(14)]</text>
<polygon fill="none" stroke="black" points="46.2,-235 46.2,-265.8 281.16,-265.8 281.16,-235 46.2,-235"/>
<text text-anchor="start" x="53.2" y="-247.2" font-family="Arial" font-size="14.00">vat_id </text>
<text text-anchor="start" x="94.45" y="-247.2" font-family="Arial" font-size="14.00" fill="#666666">[varchar(32)]</text>
<polygon fill="none" stroke="black" stroke-width="3" points="44.7,-233.5 44.7,-395.3 282.66,-395.3 282.66,-233.5 44.7,-233.5"/>
</g>
<!-- org.entity -->
<g id="node2" class="node">
<title>org.entity</title>
<polygon fill="#efefef" stroke="none" points="59.69,-74 59.69,-109.6 267.67,-109.6 267.67,-74 59.69,-74"/>
<polygon fill="none" stroke="black" points="59.69,-74 59.69,-109.6 267.67,-109.6 267.67,-74 59.69,-74"/>
<text text-anchor="start" x="66.69" y="-87.4" font-family="Arial Bold" font-size="18.00">org.entity</text>
<text text-anchor="start" x="136.18" y="-87.4" font-family="Arial" font-size="14.00">    </text>
<text text-anchor="start" x="167.29" y="-87.4" font-family="Arial" font-size="14.00" fill="#666666">[BASE TABLE]</text>
<polygon fill="none" stroke="black" points="59.69,-43.2 59.69,-74 267.67,-74 267.67,-43.2 59.69,-43.2"/>
<text text-anchor="start" x="66.69" y="-55.4" font-family="Arial" font-size="14.00">id </text>
<text text-anchor="start" x="81.48" y="-55.4" font-family="Arial" font-size="14.00" fill="#666666">[integer]</text>
</g>
<!-- org.org_legal&#45;&gt;org.entity -->
<g id="edge1" class="edge">
<title>org.org_legal:entity_id&#45;&gt;org.entity:id</title>
<path fill="none" stroke="black" d="M292.26,-340.76C349.83,-316.78 355.51,-88.15 310.87,-43.2 264.77,3.21 163.68,23.22 163.68,-42.2"/>
<polygon fill="black" stroke="black" points="292.29,-340.76 281.6,-338.32 287.06,-341.81 282.81,-342.67 282.81,-342.67 282.81,-342.67 287.06,-341.81 283.38,-347.15 292.29,-340.76"/>
<text text-anchor="start" x="289.16" y="-352.8" font-family="Arial" font-size="10.00">FOREIGN KEY (entity_id) REFERENCES org.entity(id) ON DELETE CASCADE</text>
</g>
</g>
</svg>
