<?xml version="1.0" encoding="UTF-8" standalone="no"?>
<!DOCTYPE svg PUBLIC "-//W3C//DTD SVG 1.1//EN"
 "http://www.w3.org/Graphics/SVG/1.1/DTD/svg11.dtd">
<!-- Generated by graphviz version 12.1.2 (20240928.0832)
 -->
<!-- Title: public.geography_columns Pages: 1 -->
<svg width="385pt" height="352pt"
 viewBox="0.00 0.00 384.54 351.60" xmlns="http://www.w3.org/2000/svg" xmlns:xlink="http://www.w3.org/1999/xlink">
<g id="graph0" class="graph" transform="scale(1 1) rotate(0) translate(4 347.6)">
<title>public.geography_columns</title>
<polygon fill="white" stroke="none" points="-4,4 -4,-347.6 380.54,-347.6 380.54,4 -4,4"/>
<!-- public.geography_columns -->
<g id="node1" class="node">
<title>public.geography_columns</title>
<polygon fill="#efefef" stroke="none" points="46.2,-261.8 46.2,-297.4 330.34,-297.4 330.34,-261.8 46.2,-261.8"/>
<polygon fill="none" stroke="black" points="46.2,-261.8 46.2,-297.4 330.34,-297.4 330.34,-261.8 46.2,-261.8"/>
<text text-anchor="start" x="53.2" y="-275.2" font-family="Arial Bold" font-size="18.00">public.geography_columns</text>
<text text-anchor="start" x="248.66" y="-275.2" font-family="Arial" font-size="14.00">    </text>
<text text-anchor="start" x="279.78" y="-275.2" font-family="Arial" font-size="14.00" fill="#666666">[VIEW]</text>
<polygon fill="none" stroke="black" points="46.2,-231 46.2,-261.8 330.34,-261.8 330.34,-231 46.2,-231"/>
<text text-anchor="start" x="53.2" y="-243.2" font-family="Arial" font-size="14.00">f_table_catalog </text>
<text text-anchor="start" x="152.05" y="-243.2" font-family="Arial" font-size="14.00" fill="#666666">[name]</text>
<polygon fill="none" stroke="black" points="46.2,-200.2 46.2,-231 330.34,-231 330.34,-200.2 46.2,-200.2"/>
<text text-anchor="start" x="53.2" y="-212.4" font-family="Arial" font-size="14.00">f_table_schema </text>
<text text-anchor="start" x="155.93" y="-212.4" font-family="Arial" font-size="14.00" fill="#666666">[name]</text>
<polygon fill="none" stroke="black" points="46.2,-169.4 46.2,-200.2 330.34,-200.2 330.34,-169.4 46.2,-169.4"/>
<text text-anchor="start" x="53.2" y="-181.6" font-family="Arial" font-size="14.00">f_table_name </text>
<text text-anchor="start" x="141.93" y="-181.6" font-family="Arial" font-size="14.00" fill="#666666">[name]</text>
<polygon fill="none" stroke="black" points="46.2,-138.6 46.2,-169.4 330.34,-169.4 330.34,-138.6 46.2,-138.6"/>
<text text-anchor="start" x="53.2" y="-150.8" font-family="Arial" font-size="14.00">f_geography_column </text>
<text text-anchor="start" x="187.85" y="-150.8" font-family="Arial" font-size="14.00" fill="#666666">[name]</text>
<polygon fill="none" stroke="black" points="46.2,-107.8 46.2,-138.6 330.34,-138.6 330.34,-107.8 46.2,-107.8"/>
<text text-anchor="start" x="53.2" y="-120" font-family="Arial" font-size="14.00">coord_dimension </text>
<text text-anchor="start" x="163.71" y="-120" font-family="Arial" font-size="14.00" fill="#666666">[integer]</text>
<polygon fill="none" stroke="black" points="46.2,-77 46.2,-107.8 330.34,-107.8 330.34,-77 46.2,-77"/>
<text text-anchor="start" x="53.2" y="-89.2" font-family="Arial" font-size="14.00">srid </text>
<text text-anchor="start" x="79.65" y="-89.2" font-family="Arial" font-size="14.00" fill="#666666">[integer]</text>
<polygon fill="none" stroke="black" points="46.2,-46.2 46.2,-77 330.34,-77 330.34,-46.2 46.2,-46.2"/>
<text text-anchor="start" x="53.2" y="-58.4" font-family="Arial" font-size="14.00">type </text>
<text text-anchor="start" x="83.55" y="-58.4" font-family="Arial" font-size="14.00" fill="#666666">[text]</text>
<polygon fill="none" stroke="black" stroke-width="3" points="44.7,-44.7 44.7,-298.9 331.84,-298.9 331.84,-44.7 44.7,-44.7"/>
</g>
</g>
</svg>
