<?xml version="1.0" encoding="UTF-8" standalone="no"?>
<!DOCTYPE svg PUBLIC "-//W3C//DTD SVG 1.1//EN"
 "http://www.w3.org/Graphics/SVG/1.1/DTD/svg11.dtd">
<!-- Generated by graphviz version 12.1.2 (20240928.0832)
 -->
<!-- Title: public.spatial_ref_sys Pages: 1 -->
<svg width="396pt" height="290pt"
 viewBox="0.00 0.00 396.35 290.00" xmlns="http://www.w3.org/2000/svg" xmlns:xlink="http://www.w3.org/1999/xlink">
<g id="graph0" class="graph" transform="scale(1 1) rotate(0) translate(4 286)">
<title>public.spatial_ref_sys</title>
<polygon fill="white" stroke="none" points="-4,4 -4,-286 392.35,-286 392.35,4 -4,4"/>
<!-- public.spatial_ref_sys -->
<g id="node1" class="node">
<title>public.spatial_ref_sys</title>
<polygon fill="#efefef" stroke="none" points="46.2,-200.2 46.2,-235.8 342.15,-235.8 342.15,-200.2 46.2,-200.2"/>
<polygon fill="none" stroke="black" points="46.2,-200.2 46.2,-235.8 342.15,-235.8 342.15,-200.2 46.2,-200.2"/>
<text text-anchor="start" x="53.2" y="-213.6" font-family="Arial Bold" font-size="18.00">public.spatial_ref_sys</text>
<text text-anchor="start" x="210.66" y="-213.6" font-family="Arial" font-size="14.00">    </text>
<text text-anchor="start" x="241.78" y="-213.6" font-family="Arial" font-size="14.00" fill="#666666">[BASE TABLE]</text>
<polygon fill="none" stroke="black" points="46.2,-169.4 46.2,-200.2 342.15,-200.2 342.15,-169.4 46.2,-169.4"/>
<text text-anchor="start" x="53.2" y="-181.6" font-family="Arial" font-size="14.00">srid </text>
<text text-anchor="start" x="79.65" y="-181.6" font-family="Arial" font-size="14.00" fill="#666666">[integer]</text>
<polygon fill="none" stroke="black" points="46.2,-138.6 46.2,-169.4 342.15,-169.4 342.15,-138.6 46.2,-138.6"/>
<text text-anchor="start" x="53.2" y="-150.8" font-family="Arial" font-size="14.00">auth_name </text>
<text text-anchor="start" x="127.14" y="-150.8" font-family="Arial" font-size="14.00" fill="#666666">[varchar(256)]</text>
<polygon fill="none" stroke="black" points="46.2,-107.8 46.2,-138.6 342.15,-138.6 342.15,-107.8 46.2,-107.8"/>
<text text-anchor="start" x="53.2" y="-120" font-family="Arial" font-size="14.00">auth_srid </text>
<text text-anchor="start" x="114.68" y="-120" font-family="Arial" font-size="14.00" fill="#666666">[integer]</text>
<polygon fill="none" stroke="black" points="46.2,-77 46.2,-107.8 342.15,-107.8 342.15,-77 46.2,-77"/>
<text text-anchor="start" x="53.2" y="-89.2" font-family="Arial" font-size="14.00">srtext </text>
<text text-anchor="start" x="91.32" y="-89.2" font-family="Arial" font-size="14.00" fill="#666666">[varchar(2048)]</text>
<polygon fill="none" stroke="black" points="46.2,-46.2 46.2,-77 342.15,-77 342.15,-46.2 46.2,-46.2"/>
<text text-anchor="start" x="53.2" y="-58.4" font-family="Arial" font-size="14.00">proj4text </text>
<text text-anchor="start" x="110.79" y="-58.4" font-family="Arial" font-size="14.00" fill="#666666">[varchar(2048)]</text>
<polygon fill="none" stroke="black" stroke-width="3" points="44.7,-44.7 44.7,-237.3 343.65,-237.3 343.65,-44.7 44.7,-44.7"/>
</g>
</g>
</svg>
