<svg xmlns="http://www.w3.org/2000/svg" version="1.1" viewBox="0 0 300 300"><path fill="#ff8000" d="M148.327 59.794c-1.287 1.983-3.431 5.003-4.718 6.626-10.722 13.568-1.372 34.8 19.943 45.302 5.447 2.66 11.108 5.5 12.652 6.311 1.501.767 5.104 4.012 7.977 7.167 6.476 7.078 6.39 7.078 8.62-.676 4.29-14.875-.3-24.16-17.155-34.664-11.922-7.438-19.256-17.31-21.572-29.03-1.158-5.814-2.573-6.04-5.747-1.036zm.6 13.252c2.188 9.151 9.993 18.437 21.487 25.424 11.794 7.167 17.284 13.568 18.442 21.411.686 4.553-.558 5.094-2.187.992-1.973-5.003-9.307-11.81-17.885-16.543-16.297-9.016-23.202-19.564-23.245-35.476 0-3.516 2.23-.766 3.388 4.192z" style="stroke-width:.879375"/><path d="M220.936 133.18c-7.034 1.487-12.009 4.101-23.889 12.62-12.48 8.88-17.584 10.639-32.037 10.864-12.909.226-13.552.541-7.29 3.561 15.31 7.348 30.879 5.274 49.063-6.626 16.77-10.999 33.195-12.667 45.204-4.598 5.833 3.967 7.977 2.66 4.503-2.795-7.29-11.45-20.286-16.227-35.554-13.027z" style="fill:#80b3ff;stroke-width:.879375"/><path d="M130.657 85.623c-5.103 8.655 5.232 29.165 18.914 37.594 7.59 4.688 14.582 7.348 23.502 8.88 7.72 1.398 8.235 2.615 1.887 4.688-6.733 2.254-14.281.947-24.274-4.237-11.966-6.13-16.298-11.495-23.417-28.894-1.844-4.418-3.431-1.758-3.388 5.634.171 25.288 32.766 46.294 54.081 34.845 10.165-5.5 4.032-16.95-12.651-23.666-16.77-6.716-27.106-17.264-30.45-31.013-.944-3.786-3.089-5.724-4.204-3.831z" style="fill:#f60;stroke-width:.879375"/><path d="M92.787 140.842c-15.225 2.93-31.78 15.462-38.813 29.435-5.619 11.134-3.345 12.442 5.49 3.246 22.473-23.35 47.476-26.911 74.152-10.548 35.94 22.043 52.924 23.755 83.975 8.474 16.512-8.113 27.276-9.105 37.44-3.47 5.876 3.2 6.305 3.245 6.305.135-.043-15.281-25.475-18.662-48.806-6.491-26.419 13.748-40.486 12.396-70.164-6.897-20.244-13.163-33.667-16.904-49.579-13.884Z" style="fill:#59f;stroke-width:.879375"/><path d="M91.672 166.175c-15.654 2.75-37.398 21.773-39.328 34.484-.858 5.5 1.973 4.237 10.508-4.643 20.157-20.915 41.73-23.575 70.121-8.61 36.069 18.978 56.955 20.375 86.205 5.635 14.967-7.528 23.888-9.376 32.38-6.671 5.618 1.758 6.09 1.713 7.72-.902 3.388-5.454-5.104-10.683-17.241-10.683-8.406.045-10.25.631-27.877 8.7-26.676 12.26-43.789 10.638-77.456-7.348-19.77-10.593-29.292-12.711-45.032-9.962z" style="fill:#06f;stroke-width:.879375"/><path d="M88.07 190.832c-10.465 3.066-19.128 9.692-18.7 14.38.386 4.012 2.53 4.913 6.434 2.614 16.254-9.556 31.78-8.068 57.727 5.59 39.285 20.69 76.554 17.986 99.5-7.167 6.604-7.258-1.33-11.495-9.479-5.049-22.516 17.76-51.765 17.355-88.563-1.307-19.986-10.097-34.096-12.847-46.92-9.06z" style="fill:#04a;stroke-width:.879375"/></svg>
