<?xml version="1.0" encoding="UTF-8" standalone="no"?>
<svg
   viewBox="0 0 300 300"
   version="1.1"
   id="svg6"
   sodipodi:docname="favicon.svg"
   inkscape:version="1.3.1 (9b9bdc1480, 2023-11-25, custom)"
   xmlns:inkscape="http://www.inkscape.org/namespaces/inkscape"
   xmlns:sodipodi="http://sodipodi.sourceforge.net/DTD/sodipodi-0.dtd"
   xmlns="http://www.w3.org/2000/svg"
   xmlns:svg="http://www.w3.org/2000/svg">
  <defs
     id="defs6" />
  <sodipodi:namedview
     id="namedview6"
     pagecolor="#505050"
     bordercolor="#ffffff"
     borderopacity="1"
     inkscape:showpageshadow="0"
     inkscape:pageopacity="0"
     inkscape:pagecheckerboard="1"
     inkscape:deskcolor="#505050"
     inkscape:zoom="3.8933333"
     inkscape:cx="150"
     inkscape:cy="150"
     inkscape:window-width="2560"
     inkscape:window-height="1371"
     inkscape:window-x="0"
     inkscape:window-y="0"
     inkscape:window-maximized="1"
     inkscape:current-layer="svg6" />
  <path
     d="m 148.32693,59.793872 c -1.28663,1.983384 -3.43102,5.003538 -4.71765,6.626307 -10.72196,13.568151 -1.37241,34.799381 19.94282,45.302301 5.44675,2.65954 11.10795,5.49938 12.65191,6.31077 1.50107,0.76631 5.10364,4.01184 7.97713,7.16723 6.47606,7.07707 6.39028,7.07707 8.62045,-0.67616 4.28878,-14.87538 -0.30022,-24.16122 -17.15513,-34.664141 -11.9228,-7.437695 -19.25662,-17.30954 -21.57256,-29.029538 -1.15797,-5.814922 -2.57327,-6.040307 -5.74697,-1.036769 z m 0.60043,13.252613 c 2.18728,9.150614 9.99286,18.436454 21.48679,25.423384 11.79415,7.167231 17.28379,13.568151 18.44176,21.411531 0.6862,4.55277 -0.55754,5.09369 -2.18728,0.99169 -1.97284,-5.00353 -9.30665,-11.81015 -17.88421,-16.54322 -16.29737,-9.015391 -23.20231,-19.563387 -23.24519,-35.475538 0,-3.515999 2.23016,-0.766307 3.38813,4.192153 z"
     fill="#ff8000"
     id="path1"
     style="stroke-width:0.879375" />
  <path
     d="m 220.93599,133.17909 c -7.0336,1.48754 -12.00859,4.102 -23.88851,12.62154 -12.48035,8.88015 -17.584,10.63815 -32.03719,10.86354 -12.90923,0.22538 -13.55255,0.54092 -7.29093,3.56107 15.31095,7.34754 30.87922,5.274 49.06365,-6.62631 16.76913,-10.99876 33.19516,-12.66661 45.20375,-4.59784 5.83274,3.96677 7.97713,2.65954 4.50321,-2.79477 -7.29092,-11.44954 -20.28593,-16.22769 -35.55398,-13.02723 z"
     style="fill:#80b3ff;stroke-width:0.879375"
     id="path2" />
  <path
     d="m 130.65716,85.622945 c -5.10365,8.654764 5.23231,29.164765 18.91352,37.594145 7.59114,4.688 14.58185,7.34754 23.50252,8.88016 7.7198,1.39738 8.23445,2.61446 1.88706,4.688 -6.73339,2.25384 -14.28164,0.94661 -24.2745,-4.23723 -11.96569,-6.13047 -16.29736,-11.49462 -23.41674,-28.89431 -1.84417,-4.417541 -3.43102,-1.758 -3.38813,5.63462 0.17155,25.28815 32.76628,46.29399 54.08152,34.84445 10.16441,-5.49938 4.03145,-16.94892 -12.65191,-23.66538 -16.76913,-6.71646 -27.10509,-17.26446 -30.45034,-31.012921 -0.94353,-3.786457 -3.08792,-5.724765 -4.203,-3.831534 z"
     style="fill:#ff6600;stroke-width:0.879375"
     id="path3" />
  <path
     d="m 92.787224,140.84217 c -15.22517,2.93 -31.779863,15.46138 -38.813462,29.43522 -5.618303,11.134 -3.345249,12.44123 5.489638,3.24554 22.47321,-23.34984 47.4768,-26.91092 74.15302,-10.548 35.93998,22.04261 52.92355,23.75554 83.97432,8.47446 16.5118,-8.11384 27.27664,-9.10553 37.44105,-3.47092 5.87563,3.20046 6.30451,3.24554 6.30451,0.13523 -0.0429,-15.28107 -25.47536,-18.66184 -48.80632,-6.49107 -26.41889,13.74846 -40.48609,12.39615 -70.16445,-6.89677 C 122.12249,141.5634 108.6986,137.82201 92.787224,140.84217 Z"
     style="fill:#5599ff;stroke-width:0.879375"
     id="path4" />
  <path
     d="m 91.672141,166.17539 c -15.654048,2.7497 -37.398165,21.77215 -39.328116,34.48384 -0.857756,5.49939 1.972839,4.23723 10.507512,-4.64292 20.157268,-20.91569 41.729833,-23.57522 70.121563,-8.60969 36.06864,18.97738 56.955,20.37477 86.20449,5.63462 14.96784,-7.52785 23.8885,-9.376 32.38029,-6.67139 5.6183,1.758 6.09007,1.71293 7.7198,-0.90154 3.38814,-5.4543 -5.10365,-10.68322 -17.2409,-10.68322 -8.406,0.0451 -10.25018,0.63107 -27.87707,8.69984 -26.67621,12.26092 -43.78845,10.63815 -77.45537,-7.34754 -19.77128,-10.59307 -29.29237,-12.71169 -45.032199,-9.962 z"
     style="fill:#0066ff;stroke-width:0.879375"
     id="path5" />
  <path
     d="m 88.069565,190.83247 c -10.464624,3.06523 -19.12796,9.69153 -18.699082,14.37953 0.38599,4.01185 2.53038,4.91339 6.433171,2.61446 16.254477,-9.5563 31.779866,-8.06876 57.726986,5.58954 39.28523,20.69031 76.55473,17.98569 99.49971,-7.16723 6.60472,-7.25738 -1.32953,-11.49461 -9.47821,-5.04861 -22.5161,17.7603 -51.76558,17.35461 -88.56331,-1.30723 -19.98572,-10.09723 -34.09581,-12.84692 -46.919265,-9.06046 z"
     style="fill:#0044aa;stroke-width:0.879375"
     id="path6" />
  <style
     id="style6">@media (prefers-color-scheme:dark){:root{filter:contrast(.3846153846153846) brightness(4.5)}}</style>
</svg>
