<svg xmlns="http://www.w3.org/2000/svg" version="1.1" xmlns:xlink="http://www.w3.org/1999/xlink" xmlns:svgjs="http://svgjs.dev/svgjs" width="400" height="400"><svg xmlns="http://www.w3.org/2000/svg" width="400" height="400" version="1.0" viewBox="0 0 300 300"><path d="m146.95 61.55-11.35 5.6-8.5-1.7C107.3 61.5 82.35 72.85 70.8 91l-2.85 4.5L58 96.6c-22 2.4-28.75 18.25-14.3 33.55l2.5 2.65-5.15 6.75C14.8 173.8 20.45 222.85 53.2 244.6c26.2 17.45 79.6 24.85 113.7 15.7 4.1-1.1 12.1-1.55 30.1-1.7 27.65-.3 30.75-.8 45-7.75 27.6-13.45 40.5-45.6 32.7-81.45-7.1-32.8-46.3-64.05-84-67-5.4-.45-9.3-1.3-11.45-2.6l-3.2-1.95 1.6-3.15c5.65-10.95.4-30.45-9.95-36.75-4.95-3-8.45-2.4-20.75 3.6zM168.3 64c9.25 7.3 10.6 32.5 1.7 32.5-2.3 0-2.45-.3-2.15-4.25.2-3.15-.1-4.4-1.25-4.85-1.1-.4-1.4-1.35-1-2.95.5-2 .3-2.25-1.75-1.75l-2.35.6 2.25-2.45c2.8-3.05 2.9-4.85.25-4.15-3.15.85-2.35-.3 1.6-2.15 3.95-1.9 3.9-3.15-.1-2.15-5.2 1.3-17.8 15.35-14.7 16.35.7.25 3.15 2 5.45 4 4.3 3.6 9.45 6.25 12.15 6.25.85 0 3.15 1.1 5.2 2.5 2 1.35 4.65 2.55 5.8 2.6 1.15 0 1.55.3.85.55-.7.3-1.25.85-1.25 1.25 0 .65 1.55 1.25 9.5 3.65.55.15-.7.35-2.8.35-4.35.1-4.15 1.6.35 2.6 2.45.55 2.8.95 1.9 2.05-1.55 1.85-.35 3.45 2.65 3.45 1.45 0 2.25.45 1.9 1-.35.55-1.95 1-3.55 1-1.65 0-2.95.4-2.95.95 0 1.85 4.5 4.05 8.3 4.05 2.3 0 3.55.4 3.2 1-.35.55-2.15 1-4 1-4.3 0-5.35 1.65-2.05 3.15 3.05 1.4 3.25 2.5.55 3.35-2.6.85-2.55 1.95.25 3.3 2.2 1.05 2.2 1.05-.45 1.15-3.85.1-4.85 3.75-1.65 6.2l2.35 1.8-4.65.05c-5.5 0-8.55 2.45-5.35 4.25 3.2 1.8-9.95 5.05-14.25 3.5-3.9-1.4-4.1-2.45-.7-3.75 3.7-1.45 4-1.25 1.9 1.25-1.05 1.25.25.25 2.85-2.25 7.45-7 10.75-15 6.2-15-3.45 0-3.15-1.35 1.05-4.75 3.15-2.65 3.35-3.1 1.9-4.3-3.75-3.1-5.6-8.6-3.2-9.65 1.9-.85 1.6-1.1-2.65-2.15-5.35-1.35-6.85-2.2-18-10.4-8.4-6.2-10.1-6.7-6.7-1.9 10.7 15.05 7.45 33.5-7.05 40.05l-5.85 2.65 1.95 3.6 1.9 3.55-4.8-.45c-3.15-.3-5.05-.05-5.55.75-.55.9.05 1.05 2.4.5 2.2-.45 3.95-.2 5.6.9 3.3 2.15 3.5 2.05 3.5-1.55 0-2.5 1.15-4.2 5.85-8.75 7.05-6.75 9.15-10.5 9.9-17.9l.55-5.55 1.95 2.4c2.45 3 2 9-1.1 14.9-2.5 4.75-1.25 5.4 1.9 1 2.95-4.15 5-11.4 4.3-15-.7-3.4.9-3.95 3.8-1.3 3.55 3.2-.45 13-9.55 23.25l-2.1 2.35 2.1-1.05c1.15-.6 3.3-2.7 4.8-4.65 2.8-3.65 5.6-4.7 5.6-2.05 0 2.45-7.85 10.3-11.6 11.65-1.85.7-3.4 1.65-3.4 2.15s-.6.7-1.35.4c-2.45-.95-7.55 4.05-7.05 6.9.3 1.6.1 2.3-.55 1.9-.6-.35-1.05.35-1.05 1.65 0 9.8-19.25 19-25.4 12.15-2.85-3.2-7.35-3.5-9.7-.7-.95 1.15-.45 1.4 2.8 1.4 3.05 0 4.55.65 6.8 3 3.25 3.35 7.85 5 14.35 5 5.15 0 5.2 1.6.1 4.3-4 2.1-16.45 1.9-21.15-.3-3.15-1.5-2.8-3 .7-3 6.2 0 3.55-2.4-3.85-3.55-2.55-.35-4.65-1.1-4.65-1.65 0-.6 1.15-.75 2.75-.35 6.2 1.5 7.45 1.4 2.55-.2-4.25-1.45-5-2.05-4.3-3.35.8-1.4-.2-1.75-7.45-2.6-12.9-1.6-20.55-6.95-16.6-11.75 1.15-1.35 1.6-1.25 4.2.9 3.75 3.2 8.45 4 14.85 2.65 6.9-1.5 6.8-1.5 10.1 2l2.9 3.1v-2.45c0-1.35 1.2-3.65 2.65-5.1 1.45-1.45 2.1-2.65 1.45-2.65-.65 0-2.25 1.15-3.55 2.5l-2.3 2.55-2.05-3.25c-1.25-1.9-1.75-3.75-1.3-4.6 1.7-3 0-5.75-4.85-8-6.75-3.1-6.9-2.85-1.7 2.75 5.2 5.55 5.65 7.25 2.45 9.5-7.5 5.25-26.75-4.1-28.3-13.7-.75-4.6-4.45-15.75-5.25-15.75-.3 0-.3 5.05 0 11.25 1 23.3 9.95 35.2 25.2 33.4 3-.35 5.65-.25 5.95.2.3.5-1.8 1.2-4.65 1.6-2.85.35-5.75 1.15-6.5 1.75-.9.75-1.25.6-1.25-.6 0-2-.95-2.05-3.8-.05C85.15 181 85 181 85 179.1c0-2.45-1.8-3.7-3.3-2.2-1.65 1.65-2.7 1.35-2.7-.85 0-1.05-.45-2.2-1-2.55-.55-.35-1-1.7-1-3.05 0-2.85-.05-2.9-4.55-1-3.7 1.55-4.2 1.1-2-1.8 1.35-1.8 1.45-11.1.1-12.4-.3-.3-1.45.3-2.6 1.3-2.1 1.9-2.1 1.9-1.4-.85.55-2.15.3-2.7-1.05-2.7-1.3 0-1.45-.35-.7-1.25 3.8-4.65 6.05-28.75 2.65-28.75-.85 0-5.1-1.2-9.45-2.6-5.15-1.7-8.55-2.35-9.7-1.8-1.45.65-1.1.9 1.55 1.15 3.1.35 3.2.5 1.5 1.75-1.75 1.3-1.65 1.45 1.3 2.05 2.45.5 3 1.05 2.6 2.55-.4 1.55.05 1.9 2.65 1.9 2.8 0 3.1.3 3.1 3.1 0 2.8.25 3.1 2.5 2.65 2.1-.4 2.5-.1 2.5 1.9 0 6.8-18-4.05-23.1-13.85-5.5-10.7 3.3-19.05 18.35-17.35 6.1.7 6.75.3 4.1-2.6-1.55-1.75-1.5-1.85 1.3-1.85 2.55 0 3.55-.9 6.85-6 3.65-5.65 9.85-11.45 17.25-16.15 5.2-3.25 4.2.4-1.05 4-5.05 3.5-10.5 9.9-13.55 15.85-3.2 6.25-2.65 6.3 1.8.15 3.4-4.8 13.5-13.85 15.4-13.85 2.45 0-.45 4.9-6.65 11.15-10.95 11-15.5 22.1-11.05 27 3.6 4 7.2.35 14-14.05 4.25-9 4.6-9.45 5.6-7.1.6 1.35 2.1 4.9 3.4 7.85 3.2 7.3 3.15 7.3-3.65 14.65-3.3 3.55-6 7.25-6 8.25s-.9 3.6-2 5.75c-3 5.85-2.55 7.35 3.95 13.7 5.95 5.75 10.85 8.35 5.75 3-2.7-2.8-3.75-5.95-1.55-4.6.85.5.95.15.45-1.2-1.5-3.75-1.75-7.95-.65-10.75L96 134.8l3.25 4.85c3 4.45 8.75 9.35 11 9.35.5 0-1.15-2.3-3.65-5.1-6.2-6.9-7.35-11.35-4.45-17.25l2.2-4.5 5.95 11.9c8.75 17.55 9.85 16.5 2.75-2.55-4.45-11.75-4.65-10.7 2.05-9.75 6.8.95 8.9 4.25 8.95 14.25 0 5.1.25 6.1 1.1 4.65 1.6-2.8 2.25-13.05 1-16.6-2.05-6 5.75-4.85 8.65 1.25 1.2 2.5 1.15 2.95-.85 4.55-2.5 2-3.55 8.15-1.95 11.15 1.4 2.6 5.55 2.8 4.5.25-1.65-4.1-1.65-9-.05-12.15 2.1-4.1 3.9-3.55 4.6 1.5l.6 3.9 1.15-2.8c3.45-8.15 1.6-15.7-3.85-15.7-.95 0-4.05-.75-6.9-1.65-4.3-1.4-6.55-1.55-13.25-.75-11.7 1.4-11.55 1.55-17.3-16.65-.85-2.6-.75-2.6 12.5 1.45 13.7 4.15 20.65 3.25 19.85-2.55-.8-5.35-13.1-9.45-27.6-9.2-8 .1-8.25.05-8.25-2.25 0-3.45 6-4.75 19-4.15 9.75.45 10.25.4 7.1-.95-5.5-2.3-14.15-3.55-19.9-2.8-7.55.95-7.05-2.05.8-4.85 9.75-3.45 29.7-2.5 28.5 1.4-.95 2.95 1.05 2.35 5.35-1.55 4.9-4.4 5.1-4.35 4.4.5-.35 2.7-.15 4 .65 4 2.05 0 6.5-2.7 9.1-5.55 7-7.6 11.4-9.5 15.3-6.45zm36.8 53.2c2 3.7-1.95 16.2-4.75 15.1-1.95-.75-1.65-2.7.65-4.8 2.9-2.6 2.5-3.4-2-4.1-4.25-.7-4.75-1.25-2.75-3.25 1-1 .75-1.6-1.15-3.05-2.25-1.7-2.25-1.9-.6-2.85 1.95-1.1 1.25-3.25-1.05-3.25-1.2 0-1.25-.35-.25-1.95 1.3-2.05 9.4 3.45 11.9 8.15zm8.4-6.3c7.45 2.75 9.85 6.7 9.2 15.1-.55 6.85-.25 6.85 3.55 0 3.1-5.6 7-2.15 5.3 4.65-.75 2.95-6.45 9.4-12.9 14.5-5.45 4.35-4.8 4.85 1.95 1.7 7.15-3.35 15-11.1 17.2-17.05l1.9-5.05 4.2 3.8c5.85 5.25 5.5 8.3-1.7 14.15-2.9 2.35-4.9 4.3-4.4 4.3 1.65 0 15.65-5.05 16.6-6 1.15-1.15 3.6.6 3.6 2.6 0 2.15-4.75 4-16.5 6.35-6.05 1.2-13.55 3.2-16.65 4.45-4.2 1.7-6.75 2.15-9.55 1.65-3.9-.65-12.2.15-15.8 1.5-3.75 1.45 2.2-4.1 6.55-6.05 2.15-1 3.95-2.15 3.95-2.6 0-.9-4.65.35-8.1 2.15l-2.4 1.25 1.95-2.4c1.1-1.3 4.2-4.75 6.95-7.65 7.65-8 4.85-7.2-3.75 1.05-7.1 6.85-7.65 7.2-7.65 4.75 0-1.45-.55-3.2-1.25-3.9-1-1-.8-1.6 1.1-3 2.05-1.6 2.15-1.9.7-3.1-1.85-1.5-.4-4.05 2.25-4.05 1.25 0 1.35.25.4 1.2-.65.65-1.2 1.65-1.2 2.2 0 .55 1.55-.55 3.5-2.4 4.95-4.8 6.8-10.35 6.35-18.95-.25-3.9-.4-7.05-.4-7.05.05 0 2.3.85 5.05 1.9zM59.1 140.75c4.1 1.1 4.6 7.45.95 12.4-2.1 2.85-1.45 4.3 1.45 3.2 1.5-.55 1.65-.2 1 2.65-.7 3.1-.6 3.25 1.65 2.65 3.35-.8 3.15 3.85-.2 6.4l-2.4 1.8 2.7.7c1.5.35 2.75 1.05 2.75 1.55s.95.9 2.1.9c1.55 0 1.95.45 1.5 1.65-.55 1.35-.1 1.5 2.5 1l3.1-.65-.65 3.65-.7 3.65 3.6-.6c2.65-.4 3.55-.2 3.55.8 0 1.95 1.95 2.95 3.3 1.6 1.65-1.65 2.7-1.35 2.7.8 0 3.75-9.85 3.75-21 .05-11.1-3.7-19.55-3.75-26.6-.15-4.45 2.25-10.4 8.4-10.4 10.75 0 .8-.45 1.45-1 1.45-2.5 0-.05-21.2 2.8-24.35 6-6.6 19.45-6.4 31.2.5l3.5 2.05-2.95-3.15c-5.5-5.8-12.85-8.55-22.75-8.55h-8.7l1.75-3c3.35-5.75 14.25-5.7 21.85.05 6.25 4.8 4.6 1.7-3.8-7l-8.25-8.6L47.5 141c3.6-3.7 4.05-3.9 6.05-2.55 1.2.8 3.7 1.85 5.55 2.3zm133.9 9.7c0 1.1-.65 1.2-3.15.5-4.5-1.3-4.7-1.95-.5-1.95 2.5 0 3.65.45 3.65 1.45zm-29.6 3.85c1.65 1.2 1.4 1.75-3.25 7.2-2.8 3.3-4.8 6.2-4.5 6.45.55.55 4.25-3.35 8.1-8.45 1.85-2.5 2.4-2.75 3.2-1.5 1.75 2.55 1.2 3.4-5 7.5-3.25 2.2-5.95 4.4-5.95 4.85 0 1 4.45-1.65 7.7-4.6 2.9-2.65 4.15-1.95 3.15 1.75-1.95 7.4-13.05 15.5-21.2 15.5h-4l2.05-2.25c3.15-3.45 4.2-6.05 4.9-12.15.6-5 1.15-6.05 5.3-9.85 2.5-2.35 4.5-4.6 4.35-5-.4-1.25 3.25-.85 5.15.55zm30.3 2.4c.45 1.15-.25 2.3-2.25 3.75-1.55 1.1-4.95 3.95-7.5 6.3-3.95 3.6-4.85 4.05-5.9 2.85-.65-.8-2.5-1.75-4.15-2.1-2.5-.55-2.85-1.05-2.3-2.85.8-2.6.3-2.15 3.9-3.45 2.9-1 2.9-1.05.5-1.15-2.35-.1-2.4-.15-.55-1.25 6.35-3.7 17.2-4.95 18.25-2.1zm64.6 1 9.75 1.75 1.15 3.75c1.85 6.25.7 6.8-14.55 6.8l-13.15.05 8.5 5c10.65 6.25 13.45 7.1 17.9 5.3 4.3-1.75 4.6-1.4 3.5 3.9-1.15 5.5-6.05 8.25-14.65 8.2-3.15 0-5.75.05-5.75.2 0 1.3 7.65 4.35 11 4.35h4.3l-1.9 2.1c-2.65 2.95-6.75 4.9-10.25 4.9-3.3 0-4.4-1.15-11.45-12-6.4-9.8-19.45-18.7-28.9-19.6-3.3-.3-3.7-.2-1.8.45 11.95 4.05 20 12.75 27.1 29.35 2.15 5 4.6 9.9 5.5 10.9 1.45 1.65 1.35 1.85-1.45 3.35-7.15 3.65-11.15 1.7-25.85-12.6-18.25-17.75-32.2-21.55-41.25-11.25-3.7 4.2-3.5 5.05.55 2.9 10.55-5.5 38.7 9.45 46.5 24.65 2.7 5.35 2.55 5.65-3.85 6.35-3.15.3-6.75.8-8 1.05-1.85.4-2.65-.4-4.8-4.65-4.45-8.8-16.45-19-22.15-18.85-1.15 0-.5.7 1.75 1.9 6.95 3.7 14.95 14.5 14.95 20.15 0 2.8-3.85 2.45-4.95-.4-2-5.35-12.75-14.4-23.7-20.05l-3.15-1.6 1.45-5.8c8.7-33.45 33.15-47.2 59.65-33.5 3.7 1.95 7 3.3 7.25 3.05.65-.7-5.1-5-10.05-7.55-3.85-2-3.9-2.1-1.5-2.65 9.05-2 20.65-1.95 32.3.1zm-112.85 15.55c-2.5 8.3-5.55 10.2-13.75 8.6l-6.05-1.2 6.3-1.7c4.2-1.15 7.35-2.75 9.4-4.85 3.7-3.65 5.05-3.95 4.1-.85zm27.4-.15c3.7 1.3 3.8 1.75 1.15 6.95-2.3 4.5-3.2 4.75-7.8 1.95l-3.3-2.05 3.3-3.95c1.8-2.2 3.35-3.95 3.4-4 .05 0 1.5.5 3.25 1.1zm-59.35 9.95c1.55.1 1.35.35-.85 1.15-2.3.85-3.15.7-4.5-.7-1.55-1.65-1.5-1.7.85-1.15 1.4.35 3.4.65 4.5.7zm51.2 3.8 4.2 3.8-1.4 3.95c-.8 2.15-1.45 4.6-1.45 5.45-.05 1.6-7.7 1.75-17.55.35-3.2-.45-4.75-.05-7.75 2-3.55 2.4-3.75 2.45-3.75.55 0-1.05-.5-1.95-1.1-1.95-.65 0-.8 1.1-.4 3 .95 4.3-.2 5.4-3.2 3-3.05-2.4-4.35-1.85-1.95.8 2.4 2.7 2.1 3.2-2.2 3.2-12.35 0-11.3-17.2 1.15-18.35 11-.95 16.7-2.5 23.05-6.05 7.55-4.35 7.25-4.35 12.35.25zm-59.25-1.6c1.15 1.05 1.1 1.55-.25 3.05-1.55 1.75-1.5 1.8.95 1.2 1.6-.4 3.8-.05 5.55.85 1.55.8 4.55 1.8 6.65 2.2l3.8.7-2.7 2.8c-3.1 3.25-3.5 8-1.05 12.75 2.1 4.05 2.05 4.2-1.2 4.2-2 0-3.25-.8-4.55-3-.95-1.65-2.2-3-2.75-3-.5 0-.25 1.35.6 3 1.5 2.85 1.45 3-.55 3-6.25 0-10.05-10.05-6.4-17.1 1.5-2.9 1.5-2.95-.5-1.7-2.95 1.85-4.4 6.2-3.65 10.9.6 3.85.55 4-1.65 3.35-3.7-1.15-5.6-3.45-6-7.3-.35-3.55-.35-3.6-1.45-1.15l-1.1 2.5-.7-2.7c-2.2-8.55 11.05-19.95 16.95-14.55zm42.1.3c-1.05.8-3.3 1.45-4.95 1.45-5.3 0-.7-2.4 5.4-2.85 1.1-.05 1 .3-.45 1.4zM71.1 191.5c3.35 2.05 7.75 3.95 9.9 4.2 2.8.4 4 1.1 4.4 2.65 1 3.8.7 4.2-3.15 3.85-16.35-1.55-30.55 17.7-26.4 35.75 1.4 6 1.3 6-5.75-.7-11.75-11.15-4.75-30.5 13.45-37.1L69.5 198l-4.45.55c-12.25 1.5-22 9.85-25.4 21.75l-1.2 4-2.85-5.3c-11.5-21.1 14-40.8 35.5-27.5zm200.55 14.2c-.85 6.05-1.3 6.35-6.35 3.75l-4.2-2.2 2.7-2.5c5.8-5.4 8.65-5.05 7.85.95zm-119.25-.65c.55.5.4 1.5-.4 2.45-2 2.4-.45 2.95 1.9.6 4.65-4.65 8.4-4.15 20.75 3 15.35 8.95 20.8 13.2 10.6 8.35-5-2.4-14.2-4.45-20.2-4.5-3.35 0-3.45-.1-1.6-1.5 1.45-1.1 1.55-1.45.45-1.45-.85 0-2.4.65-3.45 1.45-2 1.5-7.45 2.1-7.45.85 0-.4 1.2-1.95 2.7-3.5 1.9-2 2.25-2.8 1.15-2.8-1.7 0-4.2 2.55-5.15 5.25-.5 1.35-1.8 1.75-5.65 1.75-5.7 0-6.25-.9-2.4-3.95 1.75-1.4 2.1-2.05 1.05-2.05-.85 0-2.7 1.4-4.1 3.1l-2.6 3.05v-3.4c0-6.5 9.9-11.1 14.4-6.7zm-59.8 4.45c2 1.35 4.95 2.5 6.55 2.5 3.7 0 3.65 1.45-.2 3-11.2 4.65-19 25.3-13.55 35.85 2.35 4.5 2 4.6-6.5 1.55-13.5-4.85-14.9-6.55-14.9-18.6 0-17.95 16.85-32.25 28.6-24.3zm168.45 6.35c5.6 5.65 5.1 7.9-4.35 19.4-4.6 5.6-5.25 5.8-6.1 1.6-.65-3.4-7.65-10.85-10.15-10.85-2.85 0-1.4-1.85 3.8-4.85 2.9-1.65 6.6-4.15 8.25-5.55 3.85-3.25 5.05-3.2 8.55.25zM116.5 218.5c10.25.15 15.9 2.3 10.6 4-10.2 3.2-18.1 22.4-13.65 33.05l1.5 3.55-3.25-.55c-1.75-.3-6.35-1.05-10.2-1.6-8.95-1.35-9-1.45-8.9-11.75.1-12.5 9.9-30.1 15.3-27.55.9.45 4.75.8 8.6.85zm29.25 5.55c3.7.6 8.25 1.3 10.1 1.6l3.3.45-4.5 4.85c-7.4 7.9-8.2 16.65-2.15 23.9l2.45 2.9-3.7.6c-2.05.35-8.8.65-15 .65h-11.3l-1.2-2.75c-5.1-11.7 3.7-35.6 12.5-33.85 1.55.3 5.8 1.05 9.5 1.65zm29.35 3.45 4.65.6-.5 6.95c-.4 5.4-.1 7.95 1.25 11 2.2 4.85 2.75 4.4-8.4 7.85l-9.2 2.9-1.7-2.6c-2.4-3.65-2.4-19.2 0-24.45 1.6-3.6 1.9-3.75 5.5-3.3 2.1.25 5.9.75 8.4 1.05zm62.8 4.05c6.8 10.65 5.1 15.7-6.4 19.6-11.95 4-17 4.65-15.6 2 3.5-6.45-1.8-17.1-9.7-19.6-2.25-.7-2.3-.6-1.5 3.1 3.05 14.5-1.55 20.2-14.1 17.5l-2.95-.65 3.8-2.9c4.65-3.55 8-10.55 7.25-15.15l-.55-3.3 6.3-.05c7.7-.05 17.85-1.6 23.1-3.5 6.2-2.3 7.25-2 10.35 2.95z"></path><path d="M138.6 89.45c.6 1.5 4.25 2.9 10.25 3.95 3 .55 3.25.4 2.1-.95-3.2-3.85-13.65-6.4-12.35-3zM138.25 100.2c-.1 10.85 4.8 19.5 6.3 11.3.85-4.55-.2-10.05-2.8-14.75-2.95-5.25-3.45-4.75-3.5 3.45zM48 112.75c0 1.95 1.75 4.25 3.25 4.25.5 0 .75-1.25.55-2.75-.35-3.2-3.8-4.55-3.8-1.5zM88.5 169.05c.7 1.1 10.5 1.3 10.5.2 0-.4-2.5-.85-5.55-.95-3.4-.15-5.3.15-4.95.75zM205 163.65c-4.55 1.55-4.55 1.55-2.5 2.4 2.75 1.1 17.25 1.15 17.95.05 1.3-2.1-10.8-4-15.45-2.45zM191.5 176.4c-5.1 2.2-6.5 4.7-1.9 3.45 7.15-2 19.8 2.2 27.7 9.15 5.7 4.95 4.35 1.55-1.75-4.6-8.55-8.5-16.65-11.25-24.05-8z"></path></svg><style>@media (prefers-color-scheme: light) { :root { filter: none; } }
@media (prefers-color-scheme: dark) { :root { filter: none; } }
</style></svg>