<svg version="1.0" xmlns="http://www.w3.org/2000/svg" width="805.3" height="805.3" viewBox="0 0 604 604"><path d="M128 7c-11 8-14 10-16 15-1 4-2 5 0 9l2 7 16 18c1 1 2 3 1 4v9l-1 9a972 972 0 0 0-4 75l-1 13c-1 12-2 16-3 17l1 3c2 2 1 2-8 5l-13 7-13 8c-7 4-10 6-20 15l-7 6c-8 7-11 20-7 33 3 9 7 13 15 18l7 3h28l28 1a813 813 0 0 1-2 136c-1 4 0 5 2 7l2 3 11-1a302 302 0 0 0 18 0h8l28-2h27a471 471 0 0 1 56 3c3 1 4 11 3 23a460 460 0 0 0-1 51l-1 10a170 170 0 0 0 4 31l-1 5c-2 4-2 17 0 23 1 3 0 5-2 11s-2 7-1 12l1 5 4-1c5-1 24 0 33 2a576 576 0 0 0 74 3l8 1 8-2c6-3 7-3 29-2l51-1 1-13 1-20v-27l2-14c0-15 1-20 2-27 2-5 2-7 1-11s-3-5-7-4l-19 1-9-3c-5-2-6-2-7 0-2 2-2 7-1 14 3 7 3 14 3 28a2041 2041 0 0 0-1 39l-17 2a205 205 0 0 1-23-3l3-22c0-13 1-16 3-22 2-7 6-22 7-31v-6h-9l-13 2c-4 1-5 1-10-2s-6-3-7-2c-2 1-2 2-1 5l1 9 2 23v23a213 213 0 0 0-2 24l-4 1-7 1h-13c-1-2 0-83 1-86 1-1 0-2-4-1l-11 1c-5 1-7 1-16-2l-5-1c-3 1-3 1-3 7l2 26a182 182 0 0 1 3 39v15l-3 3c-2 1-3 2-6 1-9-1-8-1-9-9v-21l1-43a539 539 0 0 1 3-97l-5-2h-12l-51-2h-6l-20 1-27 1c-10 2-24 2-29 0l-3-2v-32l1-54c0-26-1-24 9-25 6-1 9-2 13-5l4-2v-6c-1-7-1-7 2-8 3-2 4-3 4-7l2-10c4-9 4-14 1-18l-2-3 3-5c3-3 3-5 3-8-1-3-1-4 2-6s4-3 4-5v-6c1-3 0-6-1-8l-1-3h-49v-69l1-69c1 0 5-9 6-14 0-4-1-10-4-16-1-4-7-8-15-10-10-3-13-3-23 4z"/><path d="M359 92c-1 1-2 2-1 6 1 6 0 18-2 29l-1 11c0 11-2 21-3 24v8l1 30-1-1-9-5c-7-5-20-12-29-15l-14-6-15-7c-6-1-22-9-31-15-11-6-14-8-17-13-2-4-5-7-7-6 0 1 2 11 4 14l9 8c5 3 7 5 10 12 3 6 9 14 16 21l3 3a479 479 0 0 0 57 44l-8 1a116 116 0 0 0-19 2c-10 3-27 10-37 16a94 94 0 0 1-17 9l-4 1-8 3-9 5-6 2-2 1-9 4c-9 4-10 6-3 7l12-3c5-3 8-4 9-3l3 1 7 1c7 2 25 1 31-1l18-1c14-1 20-1 27-3l5-2 11-2-3 4a141 141 0 0 0-32 50 154 154 0 0 1-38 55l-4 4 4 2c3 2 4 2 4 1 2-4 9-11 10-11 4 0 29-15 46-27a212 212 0 0 0 47-41l1 12 9 29c7 22 8 23 15 33s10 16 15 32l4 11c1 1 6 0 6-1a248 248 0 0 0-6-26 188 188 0 0 1 2-24l3-23v-27l-1-10-2-12v-4l9 7a180 180 0 0 0 56 33l10 5 33 16c5 2 7 4 14 13l4 5h13c2-1 2-1-1-2l-5-1-7-9c-3-6-8-12-13-17l-16-20c-4-6-9-13-12-15l-30-28a88 88 0 0 0-26-19c-6-2-11-5-11-6l6-1c19 0 31-2 44-5l10-2 17-7 15-5a166 166 0 0 1 23 2c2-1 0-5-2-5a564 564 0 0 0-35-8c-36-10-44-12-65-11l-12-1c2-4 9-15 15-22a100 100 0 0 0 20-62l-1-19-2 4-2 6-6 4-9 6-8 9a612 612 0 0 0-41 55l-4-26c-4-14-13-34-22-47l-5-8v-12l-1-14h-4z"/></svg>