<svg xmlns="http://www.w3.org/2000/svg"><symbol id="bar_chart" viewBox="0 -960 960 960"><path d="M640-160v-280h160v280H640Zm-240 0v-640h160v640H400Zm-240 0v-440h160v440H160Z"></path></symbol><symbol id="calendar_month" viewBox="0 -960 960 960"><path d="M200-80q-33 0-56.5-23.5T120-160v-560q0-33 23.5-56.5T200-800h40v-80h80v80h320v-80h80v80h40q33 0 56.5 23.5T840-720v560q0 33-23.5 56.5T760-80H200Zm0-80h560v-400H200v400Zm0-480h560v-80H200v80Zm0 0v-80 80Zm280 240q-17 0-28.5-11.5T440-440q0-17 11.5-28.5T480-480q17 0 28.5 11.5T520-440q0 17-11.5 28.5T480-400Zm-160 0q-17 0-28.5-11.5T280-440q0-17 11.5-28.5T320-480q17 0 28.5 11.5T360-440q0 17-11.5 28.5T320-400Zm320 0q-17 0-28.5-11.5T600-440q0-17 11.5-28.5T640-480q17 0 28.5 11.5T680-440q0 17-11.5 28.5T640-400ZM480-240q-17 0-28.5-11.5T440-280q0-17 11.5-28.5T480-320q17 0 28.5 11.5T520-280q0 17-11.5 28.5T480-240Zm-160 0q-17 0-28.5-11.5T280-280q0-17 11.5-28.5T320-320q17 0 28.5 11.5T360-280q0 17-11.5 28.5T320-240Zm320 0q-17 0-28.5-11.5T600-280q0-17 11.5-28.5T640-320q17 0 28.5 11.5T680-280q0 17-11.5 28.5T640-240Z"></path></symbol><symbol id="delete" viewBox="0 -960 960 960"><path d="M280-120q-33 0-56.5-23.5T200-200v-520h-40v-80h200v-40h240v40h200v80h-40v520q0 33-23.5 56.5T680-120H280Zm400-600H280v520h400v-520ZM360-280h80v-360h-80v360Zm160 0h80v-360h-80v360ZM280-720v520-520Z"></path></symbol><symbol id="edit" viewBox="0 -960 960 960"><path d="M200-200h57l391-391-57-57-391 391v57Zm-80 80v-170l528-527q12-11 26.5-17t30.5-6q16 0 31 6t26 18l55 56q12 11 17.5 26t5.5 30q0 16-5.5 30.5T817-647L290-120H120Zm640-584-56-56 56 56Zm-141 85-28-29 57 57-29-28Z"></path></symbol><symbol id="edit_calendar" viewBox="0 -960 960 960"><path d="M200-80q-33 0-56.5-23.5T120-160v-560q0-33 23.5-56.5T200-800h40v-80h80v80h320v-80h80v80h40q33 0 56.5 23.5T840-720v200h-80v-40H200v400h280v80H200Zm0-560h560v-80H200v80Zm0 0v-80 80ZM560-80v-123l221-220q9-9 20-13t22-4q12 0 23 4.5t20 13.5l37 37q8 9 12.5 20t4.5 22q0 11-4 22.5T903-300L683-80H560Zm300-263-37-37 37 37ZM620-140h38l121-122-18-19-19-18-122 121v38Zm141-141-19-18 37 37-18-19Z"></path></symbol><symbol id="event_available" viewBox="0 -960 960 960"><path d="M438-226 296-368l58-58 84 84 168-168 58 58-226 226ZM200-80q-33 0-56.5-23.5T120-160v-560q0-33 23.5-56.5T200-800h40v-80h80v80h320v-80h80v80h40q33 0 56.5 23.5T840-720v560q0 33-23.5 56.5T760-80H200Zm0-80h560v-400H200v400Zm0-480h560v-80H200v80Zm0 0v-80 80Z"></path></symbol><symbol id="event_repeat" viewBox="0 -960 960 960"><path d="M200-80q-33 0-56.5-23.5T120-160v-560q0-33 23.5-56.5T200-800h40v-80h80v80h320v-80h80v80h40q33 0 56.5 23.5T840-720v240h-80v-80H200v400h280v80H200ZM760 0q-73 0-127.5-45.5T564-160h62q13 44 49.5 72T760-60q58 0 99-41t41-99q0-58-41-99t-99-41q-29 0-54 10.5T662-300h58v60H560v-160h60v57q27-26 63-41.5t77-15.5q83 0 141.5 58.5T960-200q0 83-58.5 141.5T760 0ZM200-640h560v-80H200v80Zm0 0v-80 80Z"></path></symbol><symbol id="history" viewBox="0 -960 960 960"><path d="M480-120q-138 0-240.5-91.5T122-440h82q14 104 92.5 172T480-200q117 0 198.5-81.5T760-480q0-117-81.5-198.5T480-760q-69 0-129 32t-101 88h110v80H120v-240h80v94q51-64 124.5-99T480-840q75 0 140.5 28.5t114 77q48.5 48.5 77 114T840-480q0 75-28.5 140.5t-77 114q-48.5 48.5-114 77T480-120Zm112-192L440-464v-216h80v184l128 128-56 56Z"></path></symbol><symbol id="history_off" viewBox="0 -960 960 960"><path d="m785-289-58-58q16-29 24.5-63t8.5-70q0-117-81.5-198.5T480-760q-35 0-68.5 8.5T348-726l-59-59q43-26 91.5-40.5T480-840q75 0 140.5 28.5t114 77q48.5 48.5 77 114T840-480q0 53-14.5 101T785-289ZM520-554l-80-80v-46h80v126ZM792-56 672-176q-42 26-90 41t-102 15q-138 0-240.5-91.5T122-440h82q14 104 92.5 172T480-200q37 0 70.5-8.5T614-234L288-560H120v-168l-64-64 56-56 736 736-56 56Z"></path></symbol><symbol id="print" viewBox="0 -960 960 960"><path d="M640-640v-120H320v120h-80v-200h480v200h-80Zm-480 80h640-640Zm560 100q17 0 28.5-11.5T760-500q0-17-11.5-28.5T720-540q-17 0-28.5 11.5T680-500q0 17 11.5 28.5T720-460Zm-80 260v-160H320v160h320Zm80 80H240v-160H80v-240q0-51 35-85.5t85-34.5h560q51 0 85.5 34.5T880-520v240H720v160Zm80-240v-160q0-17-11.5-28.5T760-560H200q-17 0-28.5 11.5T160-520v160h80v-80h480v80h80Z"></path></symbol><symbol id="print_disabled" viewBox="0 -960 960 960"><path d="m791-55-71-71v6H240v-160H80v-240q0-51 35-85.5t85-34.5h6L55-791l57-57 736 736-57 57ZM320-200h320v-6L486-360H320v160Zm474-80-80-80h86v-160q0-17-11.5-28.5T760-560H514l-80-80h326q51 0 85.5 34.5T880-520v240h-86Zm-634-80h80v-80h166L286-560h-86q-17 0-28.5 11.5T160-520v160Zm480-280v-120H314l-80-80h486v200h-80Zm80 180q17 0 28.5-11.5T760-500q0-17-11.5-28.5T720-540q-17 0-28.5 11.5T680-500q0 17 11.5 28.5T720-460ZM200-560h86-126 40Zm560 0h40-286 246Z"></path></symbol><symbol id="tune" viewBox="0 -960 960 960"><path d="M440-120v-240h80v80h320v80H520v80h-80Zm-320-80v-80h240v80H120Zm160-160v-80H120v-80h160v-80h80v240h-80Zm160-80v-80h400v80H440Zm160-160v-240h80v80h160v80H680v80h-80Zm-480-80v-80h400v80H120Z"></path></symbol></svg>