<svg xmlns="http://www.w3.org/2000/svg" version="1.1" xmlns:xlink="http://www.w3.org/1999/xlink" xmlns:svgjs="http://svgjs.com/svgjs" width="512" height="512"><svg viewBox="0 0 512 512" xml:space="preserve" xmlns="http://www.w3.org/2000/svg"><path fill="#482A1D" d="m379 509-20 1-6 3h-56c0-2 2-3 3-5h3c3 2 5 4 6 0h27c5 1 9 2 13-2h7l4-1 1 1c3 3 12 4 14 2l1-2 2-1 1 1v3z"></path><path fill="#43170C" d="m300 508-4 5h-10l-11-3c-10-1-20-3-31 0-3 0-5-1-3-5l3-10h3v3c-2 4 0 5 3 6h4l5-1 8 2h5l8 1h7l5 1 8 1z"></path><path fill="#3C271E" d="m103 10 9-9h18v2l-5 1c-6-2-10-1-15 3-2 2-4 2-7 3z"></path><path fill="#33170C" d="M183 333h7l31-1 6 1 30 3 3-2h12l4 4v8c-3 11-2 22-3 33l-5 8-2-7 2-17 2-17c0-6-1-8-8-7h-2a355 355 0 0 0-34 2l-14-4h-8l-18 1h-7l-2-1v-4h6z"></path><path fill="#321B0C" d="M103 10c3-1 5-1 7-3 5-4 9-5 15-3l5-1 4 1c2 3 8 3 7 9l-3 2-8-7c-6-2-21 2-25 6l-1 4c-2 4-1 7 1 10l2 7 4 1 3 3-1 15h-3c-1-7-3-12-10-16 2-6-3-8-6-11-3-5 2-14 9-17z"></path><path fill="#2C1910" d="M279 420v-12c1-5 4-6 9-3l2 1-1 4c-3 1-3 3-3 6v8l2 5v7c-4 3 0 3 1 5v24l-2 2 2 8 1 4v2l-6 1-1-4-1-39-1-8c4-5 3-9-2-11z"></path><path fill="#4B3321" d="m350 149 6-10 21-26 6-3 1-1h1l1-1h3v4l-6 8-1 1-3 4-5 6-7 8-5 6-3 5-3 2-2 1-4-1v-3z"></path><path fill="#3B1109" d="M146 332v1l4 2 22-2 2 5h-5l-22 1-5 2-10-7v-2h7v-21l1-11v-21l3-3v27c0 10-1 20 3 29z"></path><path fill="#541F0B" d="m113 54 1-15c9 3 15 2 21-4l2-3v-1l3 1v3l2 4-1 3c-5 7-2 15-4 22v15l-3-6v-2l-1-4V46l-3-3-12 1-1 5v7l-1 2h-2l-1-4z"></path><path fill="#3C271E" d="M438 288c8 8 17 15 21 26l4 4 4 4v1h-7l3-2c-3-2-6-3-7-5-3-5-7-6-12-5l-14-8-19-10 2-2 10 4 5 2h2l4 5c2 2 3 1 3-2a9 9 0 0 1 5 0c2 6 4 7 10 6l-9-7-5-11z"></path><path fill="#562D18" d="m329 326-7-10-10-29v-4l1-8-2-8 5 4 1 8c-5 3-2 7-1 10 0 2 2 3 4 2l3 8c-3 1-4 1-3 4 2 3 2 6 3 10 1 2 3 4 6 2 4 3 9 4 10 10l3 2-2 2h-2l-6-9-3 6z"></path><path fill="#4B3321" d="M137 79V64c2-7-1-15 4-22l1 72h-3l-1-5V96l-1-7V79z"></path><path fill="#2C1910" d="M303 90v-6c2-6 5-2 8-2v6c-1 8 1 15 6 22l-5 5-1-1-2-2-1 2v2l-2 2 1 3-1 2h-1l-2-3 3-21c1-4 1-7-3-9z"></path><path fill="#3D2112" d="M244 290v-3l8-10c4-6 6-13 10-18l13-19 7-3-1 5-1 1v1l-4 3c-5 1-6 5-6 9l-1 1-1 3-1 1-5 2 1 5v1h-1c-3 2-7 4-4 8v3l-1 1-3 4c-3 3-6 5-10 5z"></path><path fill="#312620" d="m208 123 19 11-6 3h-2c0-4-2-6-6-5l2 8-2 1c-2-5-7-8-12-11-4-4-7-9-7-15l3-3c2 1 4 1 5 3 2 1 3 4 4 7l-7-2c1 5 4 8 9 10v-7z"></path><path fill="#613C27" d="m281 242 1-5-7 3-3-1 3-4-18 2 6-2c3 0 4-1 4-4l6-2 2-1h8l7-3h3l3-1h2v3l-11 8-4 6-2 1z"></path><path fill="#3D2112" d="m380 509-1-3v-1h3l12 1h12c5-1 8-2 8-7s2-7 6-7v14c0 2-2 4-4 4l-36-1z"></path><path fill="#6A3217" d="m335 405 7 3 14-1h4l2 5v2l-3 17h-2l2-14-1-3-3 1h-6l-5-2-7-2 1 8v12l-1-1-2-25z"></path><path fill="#462715" d="M268 194c-11-6-20-15-30-24l1-5 1-2 5 5 1 4 15 9 2 2 3 2v1l4 3 1 2-3 3z"></path><path fill="#3F1D0D" d="M305 404h4c4 1 7 2 6 7v17c-3 3-2 8-8 6l1-5h2l-2-2v-4l-1-4 2-7h-4l-4-1-2 1-3-1v-3l9-4zM389 449l-4-33 7-7v4l1 6v2l2 4-1 2c-4 2-1 4 1 7a78 78 0 0 1-2 19l-1 3-3-7zM377 277l-16-10-10-8-4-3-2-5 8 2 4 2 5 4 2 2 9 8 9 6-5 2z"></path><path fill="#77452B" d="m240 162-1 3-1 5a86 86 0 0 1-19-19c4-4 3-8 0-10v-4h2l8 3v1h-5v3l2 3 4 4c-4 0-5 2-2 4 2 2 5 2 7 2l5 5z"></path><path fill="#3F1D0D" d="M425 415v12l-1 17-1 1c-2-1-4-2-4-4l-2-4 1-4 2-11c-1-3 1-7-4-8v-2l1-2 3-1 5 6z"></path><path fill="#43170C" d="m421 480-1 6c-6 1-7-4-10-6 4-2 3-5 4-8v-2l1-2 1-11 4-3 2 3-2 8-2 12 3 3z"></path><path fill="#3F1D0D" d="M267 231c0 3-1 4-4 4l-7 2-6 1-22 2-10-1-5-3 25-2 10-1 7-1h2l6-1h4z"></path><path fill="#2C1910" d="m363 430 1 6c-4 9-5 18-6 29h-3l-2-2v-4l1-5 3-15 2-8 4-1z"></path><path fill="#5D3623" d="m392 142-2 6c-3 10-8 18-15 26l-3-3v-2c4-2 5-4 5-8l4-9 2-5v-3h1l4 3v-2l-2-2v-1h6z"></path><path fill="#1D1610" d="M338 329h8v8l4 18c1 5-1 7-6 6v-1c1-2 2-4 1-5l-9-24 2-2z"></path><path fill="#9F3B24" d="M409 480c4 2 5 7 10 6l1 5c-4 1-6 3-6 8s-3 6-7 7c1-3 3-4 5-6l-1-1h-5c5-6 4-7-2-10l-2-1h11c-2-5-5-5-9-5l-5-1 3-2h7z"></path><path fill="#482A1D" d="m326 129 2 1 8 25 2 10 3 3c-5 6-5 0-7-2 0-6 0-12-4-16l-1-4c1-5-1-8-6-9h-1v-3l4-5z"></path><path fill="#5D3623" d="m307 267-21 20-4-4a671 671 0 0 1 23-21l2 5z"></path><path fill="#4F3328" d="m272 239 3 1-13 19c-4 5-6 12-10 18l-8 10 10-21c3-9 9-17 15-24l3-3z"></path><path fill="#482A1D" d="M139 114h3a1251 1251 0 0 1-1 43l-6-5 2-8 1-4v-8l1-18z"></path><path fill="#2C1910" d="M185 162v3l-2 6-3 1c-6 1-6 1-5 8 1 1-1 3-2 4l-4-12v-1h2l5-6h1c2-3 0-4-2-5l-5-3c7-2 12-1 15 5z"></path><path fill="#1D1610" d="M238 319c-6 2-10 6-15 10-3 2-5 2-8-1l19-18 3 1 1 8z"></path><path fill="#562D18" d="m431 210-18 6-4 2-10 2 1-5 29-9 2 3v1z"></path><path fill="#654C3C" d="m170 157 5 3c2 1 4 2 1 5-1-7-6-4-10-5 2 6 6 5 10 5l-5 5-2-2-4-3c-2-4-5-4-8-5h-2l-2-1-1-4v-1l9 1 5-1h4v3z"></path><path fill="#613C27" d="m326 129-5 5-8-19 4-5c4 5 8 11 9 19z"></path><path fill="#5D3623" d="m283 159 9 4 6 4 1 11-3-4-14-8v-6l1-1z"></path><path fill="#4B3321" d="m213 236 5 3 10 1c-10 3-20 3-30-1v-1c1-3 0-7 5-6l10 4z"></path><path fill="#33170C" d="M373 478h9c4 0 7-2 6-7v-6l3-1 4 5v8l-6 5h-16v-4z"></path><path fill="#673D26" d="m400 216-1 4-30 3-4-4 17-1 5-1h1l5-1h7z"></path><path fill="#422E21" d="m207 223 32-16-1 7-4 1-3 1-4 3v1h-2l-3 1v1l-4 1-4 1-4 2-3-3z"></path><path fill="#6A3217" d="m405 251 17 16v7l-2-1c-1-5-5-6-9-8l-7-10 1-4z"></path><path fill="#4B3321" d="M173 184c1-1 3-3 2-4-1-7-1-7 5-8l3-1 2-6c1 4-1 7-4 10l-2 4-1 4c-3 4-3 9 0 14h-4l-3-3c-2-4 0-7 2-10z"></path><path fill="#673D26" d="m347 256 4 3 1 22h-7v-2l1-4h-2v-4c5-5 4-10 3-15z"></path><path fill="#772111" d="m143 275-3 4c-1-8 0-15-3-21l2-4 1 5 4-2h3l-1 17-3 1z"></path><path fill="#3C271E" d="m143 276 3-1v56c-4-8-3-18-3-28v-27z"></path><path fill="#312620" d="M344 361c5 1 7-1 6-6l-4-18v-8l4-1c-3 8 0 16 2 24l2 6-2 6c-3 0-5-2-8-3z"></path><path fill="#3F1D0D" d="m337 430 2 1 1 11v2l-1 10-3-1-3-1v-20l4-2z"></path><path fill="#482A1D" d="M303 91c4 1 4 4 3 8l-3 21 2 3-1 6h-1l-2-7v-16l2-15z"></path><path fill="#4C2311" d="m372 172 3 2-7 11v4l-8 3h-3l-1-2 9-11 7-7z"></path><path fill="#321B0C" d="m337 430-4 2-3-23c0-3 2-4 5-4l2 25z"></path><path fill="#6A3217" d="M307 434c6 2 5-3 7-6v15l-2 1c-2 2-3 3-3 5l-2 12-1-3v-5l1-8v-11z"></path><path fill="#3C271E" d="M431 210v-2l3-1 6-3-5-5 1-2 21 4v2l-13-1v2l6 3c-6-1-12 1-19 3z"></path><path fill="#3D2112" d="M282 160v6l-15-8-1-2c-4-2-7-6-12-4v-1l4-2 13 4 2 1c1 5 6 5 9 6z"></path><path fill="#673D26" d="m396 129-1 2-4 2c1-3 2-6-3-6l1-6 1-4 2-6 4-5v23z"></path><path fill="#562D18" d="M368 189v-4l28 2v4h-1l-2-1-1 1-4-1-4-1h-16z"></path><path fill="#613C27" d="m272 297-20 13-2-3 8-5 1-1 2-2 9-5 2 3z"></path><path fill="#4F3328" d="m147 257-3-1v-5c0-4 0-8 2-11l5-2 2-3 5-2 4 4-11 4c-3 0-4 2-4 5v11z"></path><path fill="#2C1910" d="m207 223 3 3-4 4-3 2c-5-1-4 3-5 6h-5l-2-6 8-5h1l4-3 3-1z"></path><path fill="#562D18" d="m436 197-1 2-3 5-13-7-2-1-3-2 1-2 10 1 11 4z"></path><path fill="#422E21" d="m234 310-19 18v-3l17-18 2 2v1z"></path><path fill="#312620" d="m336 331 9 24c1 1 0 3-1 5l-6-15-7-16 5 2zM191 232l2 6c-5 4-11 6-17 5l-5-2 4-4 4-2 2 4c4 2 8-1 9-6l1-1z"></path><path fill="#794920" d="m422 457-2-3-4 3 1-20 2 4c0 2 2 3 4 4l-1 12z"></path><path fill="#2C1910" d="M272 415v26l-3 4-3-1v-2h1v-7l2-5v-15h3z"></path><path fill="#312620" d="m269 445 3-4-1 20 1 17h-2l-2-19v-6l1-4v-4z"></path><path fill="#3F1D0D" d="m438 288 5 11-1 1h-3l-4-5-5-12 4-1 4 6zM299 178l-1-11 2-4 5 6v9l1 3h-4l-3-3z"></path><path fill="#3C271E" d="m272 414-3 1 1-24-2-3v-1l5-8-1 35zM238 214l1-7 14-5 3 3v1l-5 2-9 6h-4z"></path><path fill="#482A1D" d="m434 282-5 1-4-3-3-6v-6l12 14z"></path><path fill="#541F0B" d="m138 15 3-2h4l1 5-2 4-3 8-3-2V15z"></path><path fill="#3D2112" d="M229 141v-1l1-3h3l17 7-4 5-3-2-3-1-6-3h-2l-3-2z"></path><path fill="#654C3C" d="m301 123 2 6h1a270 270 0 0 0 3-6l-2 13v10h-1c-2-3-4-5-2-8l-2-2 1-13z"></path><path fill="#613C27" d="M376 228c7 1 12 7 18 11l8 9h-3l-23-18v-2z"></path><path fill="#673D26" d="m415 192-1 2h-6l-3-1-9-2v-4l19 5z"></path><path fill="#3C271E" d="M315 476c3 4 7 2 12 1l1 6v1h-7l-12-7 1-2 5 1z"></path><path fill="#4C2311" d="M376 228v2l-1 2h-3l-1-1-8-5-2-7h4l4 4v2l6 2 1 1z"></path><path fill="#2C1910" d="m328 483-1-6 5-3 6 2v4l-1 1-9 2z"></path><path fill="#462715" d="m273 297-3-3v-1l11-9h1l4 3-13 10z"></path><path fill="#6D4731" d="m268 194 4-3 6 2 5 4c-3 2-7 3-10 3v-1h2l-7-5z"></path><path fill="#3C271E" d="m350 328-4 1h-5l1-2 1-3c6-1 2-5 3-8l5-3-1 15z"></path><path fill="#4F3328" d="m174 216-1 3c-4 3-6 7-4 13l-4 3-2-7v-1l6-7 1-4h4z"></path><path fill="#3C271E" d="M174 216h-4l-1-1v-4l5-14h3l-3 19z"></path><path fill="#6A3217" d="M296 408v3c-5 0-8 2-8 7l1 6-1 5-2-5v-8c0-3 0-5 3-6l1-4 4-1 2 3z"></path><path fill="#3D2112" d="m300 136 2 2c-2 3 0 5 2 8v6l-1 1-4 1c-1-6-3-12 1-18z"></path><path fill="#1D1610" d="M362 414v-2c1-4 3-5 6-5l-1 14-5-7z"></path><path fill="#422E21" d="m260 334-3 2-30-3h27l6 1z"></path><path fill="#5D3623" d="m413 291-2 2a237 237 0 0 1-17-7l12 2c2 1 5 2 5-2l6 2 1 1 2 2h-7z"></path><path fill="#3C271E" d="m250 307 2 4-14 8-1-8h2c4 4 5-1 8-2l3-2z"></path><path fill="#2C1910" d="M444 311c5-1 9 0 12 5 1 2 4 3 7 5l-4 2h-2c-3-4-4-9-10-9l-3-3z"></path><path fill="#82563A" d="m391 133 4-2-3 11h-6v1l2 2v2l-4-3v-3l1-4h1c6 4 4-1 5-4z"></path><path fill="#321B0C" d="m357 468 1 9 2 3h-3l-6-3 2-4 3-5h1z"></path><path fill="#3F1D0D" d="m362 414 5 7-4 9-4 1 3-17z"></path><path fill="#6D4731" d="m307 267-2-5 2-4a35 35 0 0 1 9 7v2l-1 4-4-4h-4z"></path><path fill="#422E21" d="M273 199v2l-17 4-3-3 20-3z"></path><path fill="#6A3217" d="M219 141c3 2 4 6 0 10l-6-10 2-1 4 1z"></path><path fill="#2C1910" d="m450 207-6-3v-2l13 1 3 3-3 1h-7z"></path><path fill="#893821" d="m141 30 3-8 2-4c2 6 2 11-2 17h-4v-3l1-2z"></path><path fill="#4C2311" d="m345 281 7 1 1 1-2 11h-2c-2-3 1-8-4-9v-4z"></path><path fill="#4F3328" d="m351 294 2-11-1 20-3-4v-3l2-2z"></path><path fill="#422E21" d="m377 277 5-2 3 2 2 3 7 6-17-9z"></path><path fill="#482A1D" d="m340 162 5-6 3 1 1 2-6 9h-1l-2-6z"></path><path fill="#1D1610" d="M208 123v7c-5-2-8-5-9-10l8 2 1 1z"></path><path fill="#3C271E" d="M312 444h2a163 163 0 0 1 0 17c-4-6-3-11-2-17z"></path><path fill="#2C1910" d="m336 331-5-2-2-3 3-6 6 9-2 2z"></path><path fill="#3C271E" d="m391 464-3 1 1-16 3 7v6l-1 2z"></path><path fill="#4F3328" d="M314 461h1v14h-5v-3l2-5 2-6z"></path><path fill="#462715" d="m349 299 3 5-1 9-4-4 2-10z"></path><path fill="#482A1D" d="m241 294 2-2h7l-5 7-1 4-1 1h-1l-1-2v-8z"></path><path fill="#6D4731" d="m303 153 1-1h1v16l-5-5v-3l3-7z"></path><path fill="#462715" d="m396 106-4 6h-3v-4l3-5c1-2 2-3 4 0v3z"></path><path fill="#3C271E" d="m392 409-7 7 1-8 6-1v2z"></path><path fill="#613C27" d="M241 294v8l-3 3h-4l7-11zM308 267h3l2 8-1 8-3-8-1-8z"></path><path fill="#4F3328" d="M170 157v-3h7c5 0 8 2 8 8-3-6-8-7-15-5z"></path><path fill="#562D18" d="m333 452 3 1-1 14h-1l-2-6 1-9z"></path><path fill="#6A3217" d="M334 467h1l4 2v3l-1 4-6-2 2-7z"></path><path fill="#5D3623" d="m421 480-3-3 2-12 1 15zM246 149l4-5 8 5-4 2-8-2z"></path><path fill="#77452B" d="m457 207 3-1-3-3 1-2c4 1 8 2 5 8l-6-2z"></path><path fill="#3C271E" d="M279 420c5 2 6 6 1 11l-1-11z"></path><path fill="#33170C" d="M270 478h2l2 1 2 1v4h-4v-1h-4l-1-3 3-2z"></path><path fill="#3C271E" d="m360 480-2-3 15 1v2l-7 1h-5l-1-1z"></path><path fill="#33170C" d="m230 137-1 3-8-3 6-3 2 1 1 2z"></path><path fill="#804D2F" d="M399 248h3l3 3-2 4-6-3-1-1v-1l3-2z"></path><path fill="#794920" d="m417 410-2 3-14-1-3-2h19z"></path><path fill="#661B0F" d="m398 410 3 3v2l-5-1-4-2v-5l6 3z"></path><path fill="#3C271E" d="M447 314c6 0 7 5 10 9-6 0-7-6-10-9z"></path><path fill="#422E21" d="M311 82c-3 0-6-4-8 2-2-3-1-5 2-6 4-2 5 0 6 4zM276 483v-3l7-2 1 4-8 1z"></path><path fill="#8C6A4B" d="M250 292h-7l1-2c4 0 7-2 10-5l-4 7z"></path><path fill="#422E21" d="M282 160c-3-1-8-1-9-6l10 4-1 2z"></path><path fill="#2C1910" d="m163 229 2 6-3 2-4-4v-1l5-3z"></path><path fill="#4F3328" d="M396 103c-2-3-3-2-4 0l-3 5h-2l2-2v-2c1-2 2-5 4-5 2-1 5 0 3 4z"></path><path fill="#3C271E" d="M145 13h-4c1-6-5-6-7-9 5 0 9 4 11 9z"></path><path fill="#804D2F" d="m296 408-2-3 11-1-9 4z"></path><path fill="#422E21" d="m191 232-1 1h-3v-1l12-5-8 5z"></path><path fill="#4F3328" d="M152 154v1l-11 2 1-3h10zM348 157l-3-1 5-7v3l-2 5z"></path><path fill="#422E21" d="m426 415-6-6c4 0 6 1 6 6z"></path><path fill="#3F1D0D" d="m303 153-3 7-1-6 4-1zM368 407c-3 0-5 1-6 5l-2-5h8z"></path><path fill="#3C271E" d="M234 305h4l-4 4-2-2 2-2zM174 338l-2-5h5v4l-2 1h-1z"></path><path fill="#6A3217" d="M140 35h4l-2 4-2-4z"></path><path fill="#4F3328" d="m340 162 2 6h-1l-3-3 2-3z"></path><path fill="#422E21" d="m204 224-4 3 4-3zM179 235l6-2v2h-6z"></path><path fill="#82563A" d="m166 154-5 1 5-1z"></path><path fill="#613C27" d="M250 238z"></path><path fill="#3F1D0D" d="M357 468h-1l-1-3h3l-1 3z"></path><path fill="#3C271E" d="M189 333h-4 4z"></path><path fill="#82563A" d="M396 129v-3 3z"></path><path fill="#312620" d="m230 137-1-2 4 2h-3zM185 235v-2l2-1v1l-2 2z"></path><path fill="#3C271E" d="m150 335-4-2 4 2z"></path><path fill="#312620" d="M195 238h3v1l-3-1z"></path><path fill="#3C271E" d="M183 333h-4 4z"></path><path fill="#4B3321" d="M389 104v2-2z"></path><path fill="#422E21" d="m276 480-2-1 2 1zM273 154l-2-1 2 1z"></path><path fill="#312620" d="M193 238h1-1z"></path><path fill="#462715" d="m384 109-1 1 1-1z"></path><path fill="#4F3328" d="m386 108-1 1 1-1z"></path><path fill="#613C27" d="m376 228-1-1 1 1z"></path><path fill="#794920" d="m423 445 1-1-1 1z"></path><path fill="#422E21" d="M79 173h1l10-3-4-1c2-5 7-6 12-7 2 2 6-1 6 3l-5 3-15 10-12 7c-2 2-3 4-6 5l-8 3c-2 1-3 0-3-2 6-7 13-14 23-17l1-1z"></path><path fill="#3B1109" d="M114 58h2v3c-4 4-2 8 0 11l-1 3v12l-1 4-1 1 2 1-1 3v5l-1 12-1 9v5l-2 12-2-16-2-5c3-3 3-11 1-14v-4l3-8c0-2-2-5-1-6 3-5 1-10 0-15l1-11 4-2z"></path><path fill="#33170C" d="M113 244v-3c-1-3-3-4-5-6l-1-2v-4h3c1 5 4 7 9 7l1 4-2 4 1 20v21l-1 3v9l-1 4-4-1v-43c4-3 4-8 0-13z"></path><path fill="#430F05" d="m111 314 1-5 3-1 3-4 1 5v9l-1 3v3l1 3v3l-1 9-2 3v1l-4-5 2-21-3-3zM222 363h-4l-6-3 3-2 3 1h5l5-2h3l7 3 2-2v-9h4l-1 2 1 3 1 4 3 1 1 1v3l-4 7c-3-8-14-11-23-7z"></path><path fill="#2C1910" d="m108 123 2 16v13a63 63 0 0 0 1 8v4h-3l-4-10 1-25 3-6z"></path><path fill="#58210E" d="M55 235c-8-8-12-17-9-28l4 2c-3 10 1 17 11 21v2l-6 3z"></path><path fill="#562D18" d="m55 235 6-3h3l2 1 4 1 7 1 2 1 20 1v3h-1c-4-2-7-3-10 0h-8l-6-2c-3 4-7 2-10 1-3 0-6-2-9-4z"></path><path fill="#462715" d="m50 209-4-3h-1l1-2c3-1 4-2 1-4 0-5 3-7 8-9 0 2 1 3 3 2l8-3-9 10-1 1-2 2h-1l-3 6z"></path><path fill="#772111" d="M240 431c1-4 0-9 4-13h4l-1 25h-3v-5c2-4-1-6-4-7z"></path><path fill="#661B0F" d="M247 495h-3l-2-3-1-20 2-6c2 1 0 6 5 4v6l-3 1c-2 2 0 12 2 15v3z"></path><path fill="#3C271E" d="m201 362-48 1v-2h27l5-2h5l11 3z"></path><path fill="#430F05" d="M242 377v-5h3l5 4v5l-2 8-3 5v-7c1-4 0-7-3-10z"></path><path fill="#4C2311" d="M242 378c3 2 4 5 3 9v7l1 5-4 12-1-20 1-13z"></path><path fill="#430F05" d="M248 470c-5 2-3-3-5-5l1-5-1-16 1-1h4v27z"></path><path fill="#43170C" d="M144 365h-16l1-6c3 0 5-1 5-4l4 2c2 2 5 2 7 3l-1 5z"></path><path fill="#33170C" d="m112 362-2-9 4-4 2-4 1 5 2 8 1 2-8 2z"></path><path fill="#430F05" d="m242 412 4-13 3 1-1 9-1 2 1 7h-4l-2-6z"></path><path fill="#482A1D" d="M109 71c1 5 3 10 0 15-1 1 1 4 1 6l-2 8 1-29z"></path><path fill="#462715" d="M245 372h-2c-3-7-3-7-13-8l-8-1c9-4 20-1 23 7v2zM112 362l8-2 9-1-1 6h-12l-4-3z"></path><path fill="#482A1D" d="M99 240v-3l4-1 3-1h2l5 5H99z"></path><path fill="#58210E" d="m111 314 3 3-2 21h-2v-5l1-19z"></path><path fill="#541F0B" d="m244 443-1 1h-3v-13c3 1 6 3 4 7v5z"></path><path fill="#4C2311" d="M110 338h2l4 5v2l-2 4-4 4v-15z"></path><path fill="#430F05" d="m201 362-11-3 1-2h6l3 1h5l3 1v1l-3 3-4-1z"></path><path fill="#4F3328" d="m104 154 4 10-4 1c0-4-4-1-6-3l5-3 1-5z"></path><path fill="#33170C" d="m144 365 1-5 2-2h1l4 3v2l-8 2z"></path><path fill="#783720" d="M240 444h3l1 16-4-16z"></path><path fill="#541F0B" d="m118 304-3 4-3 1 1-9 4 1 1 3z"></path><path fill="#4F3328" d="M94 27c3 3 8 5 6 11-2-3-7-5-6-11z"></path><path fill="#783720" d="m242 492 1 3-2 9-2-6 3-6z"></path><path fill="#462715" d="M113 245c4 4 4 9 0 12v-12z"></path><path fill="#3C271E" d="M107 104c2 3 2 11 0 14v-14z"></path><path fill="#462715" d="m205 363 3-3h4l6 3h-13z"></path><path fill="#4F3328" d="m86 169 4 1-10 3 6-4z"></path><path fill="#462715" d="m114 58-4 2v-6h3l1 4z"></path><path fill="#783720" d="M88 240c3-3 6-2 10 0H88z"></path><path fill="#58210E" d="M47 200c3 2 2 3-1 4l1-4z"></path><path fill="#783720" d="m74 238 6 2-6-2zM83 240h2-2z"></path><path fill="#4F3328" d="m79 173-1 1 1-1z"></path><path fill="#58210E" d="M45 206z"></path><path fill="#B83D24" d="M406 499h5l1 1-6 5-2 1h-10l-12-1h-4l-2 1-4-1-5 1h-6l-1-1-4-2h-1l-1 1-4 2h-13l-4-2 2-1h3v-4l1-1h19l3-3c0-2-2-3-3-4h-1l-6-3h-9c-2 0-4-2-5-3l6-2h5l6-1h7l2 1 7 5 2 8c0 3 1 5 4 3a237 237 0 0 0 15 2l3-2 1-1 1-4v-3l-1-1-1-3 1-5h4l5 1c4 0 7 0 9 5h-12c-2 3-3 6 0 8l1 3h4m-41 6s-1 0 0 0z"></path><path fill="#B73F27" d="M338 499v4h-3l-2 1 4 2-1 2-2-1a700 700 0 0 0-31 0h-11a63 63 0 0 1-8-1h-4l-8-2v-20h3l2 1h3l4 5v2l1 3 2 2 3 2 4-1 9-1c7 3 14 1 20-1l11 3h4z"></path><path fill="#893821" d="M309 507a705 705 0 0 1 7 1h-7v-1z"></path><path fill="#3D2112" d="M361 506h15l-1 2c-2 2-11 1-14-2z"></path><path fill="#893821" d="m336 508 1-2h12c-4 4-8 3-13 2zM292 507h11v1h-3l-8-1z"></path><path fill="#3F1D0D" d="M303 508v-1h6v1c-1 4-3 2-6 0z"></path><path fill="#9F3B24" d="m356 503 4 2-4 1v-3z"></path><path fill="#3F1D0D" d="M311 508h4-4z"></path><path fill="#9F3B24" d="m350 506 4-2v2h-4z"></path><path fill="#893821" d="M354 506v-2l1-1h1v3h-2zM378 505h1v1l-1-1z"></path><path fill="#A93E28" d="M248 470v-13h1l4-3 3-4v3l-1 2v3l-1 8v4l3 4 3-4v-4l1-3h3l1 4-1 2v12h-1l-1 6-2 3-6 4-2 3 2 3v4l-4-1-3-5v-7l2-11-1-3v-7z"></path><path fill="#893821" d="m252 497 2-3 6-4 1 4c0 4 0 9 6 9v2l-8-2-5 1v-5l1-2h-3z"></path><path fill="#9F3B24" d="M267 505v-2l1-1 1-1 2-2v-3l-3-13h3l1 1v21h-5z"></path><path fill="#893821" d="m247 498 3 5c-3 0-5-1-3-5zM272 505v-1l8 2-8-1zM284 506h2-2z"></path><path fill="#D0AB46" d="m245 357-1-3-1-3 1-2 1-10h15l3 6c1 3 2 5-1 9l-2-6-2-2-2 1v3l6 9c-5 4-9 1-13 1l-1-1-3-2z"></path><path fill="#AB3B24" d="M250 377v-1l-1-13h19l-2 17h-1l-3-2-12-1m7-10-3 3 3 3 3-2-3-4zM174 338h5l3 1c2 1 3 2 4-1h17l3 5-12 1h-17l-6 1-2 1-2-1-2-4 4-3h5z"></path><path fill="#783720" d="m194 344 12-1a1345 1345 0 0 0 24-2l2 2c4 5 3 7-2 10l-7-5h-2l-3-1h-2c-7 0-13-3-19 0h-3v-3z"></path><path fill="#AB3B24" d="M230 353c5-3 6-5 2-10l-2-2 9-1 1 9v9l-2 2-7-4-1-3z"></path><path fill="#6A3217" d="M268 363h-19v-3c4 0 8 3 13-1 5-3 7-8 4-12l-3-9c6 0 7 2 7 8l-2 17z"></path><path fill="#B68137" d="m262 339 4 8c3 4 1 9-4 12l-6-9v-3l2-1 2 2 2 6c3-4 2-6 1-9l-2-6h1z"></path><path fill="#AF422A" d="m226 341-20 2-2-5 4-1h4l14 4z"></path><path fill="#A93E28" d="M265 380h1l2 7v1l-2 3-4 2v-2l-1-8 4-3z"></path><path fill="#6A3217" d="m240 349-1-9 6-1-1 10h-4z"></path><path fill="#A93E28" d="M186 338c-1 3-2 2-4 1l2-1h2zM179 338h-4 4z"></path><path fill="#AB3B24" d="M212 337h-4 4z"></path><path fill="#3C271E" d="M184 338h-4 4z"></path><path fill="#CDA440" d="M138 15v13l-1 3-1 1-1 3c-6 6-12 7-21 3l-3-2-4-1a830 830 0 0 0-2-17l6-4 5-1 14-4 8 6m-19 7c1 4 4 5 7 4 4-2 2-5 2-7-1-4-4-3-9 0-1-5-4-1-6-1-6 0-8 3-6 9 2 7 13 12 20 9l3-2-1-1h-5l1-4c-7-1-9-4-6-7m14 6z"></path><path fill="#794920" d="m130 8-14 5-5 1-6 3v-3c4-4 19-8 25-6z"></path><path fill="#541F0B" d="m105 28 2 7-2-7zM107 35l4 1-4-1z"></path><path fill="#A97038" d="m288 429 1-4c2 3 3 7 2 11-2 5 0 7 5 8a887 887 0 0 1-1 28v5l-3 3-2-1-1-4 1-10-1-25-1-4v-7z"></path><path fill="#58210E" d="m292 480 3-3 1-5h2l1 8v3a12618 12618 0 0 0-22 1h-1v-1l8-1 6-1 2-1z"></path><path fill="#5D3623" d="M289 465v10l-2-8 2-2z"></path><path fill="#6A3217" d="m288 436 1 4c-1-1-5-1-1-4z"></path><path fill="#5D3623" d="m292 480-2 1v-2l2 1z"></path><path fill="#6A3217" d="M288 431v2-2z"></path><path fill="#D1BD9D" d="m385 137-1 4-1 3v1l-1 1-2 7-5 8-4 5-7 13-8 11-17 5h-2l-1-1a154 154 0 0 1 2-14l2-5 2-2 2-3 6-8 4 4-9 18c5-3 10-7 12-12l3-8 13-21 1-3 1-10 4-5 3-4 1-1 7-3-1 4-1 6-2 5-1 5z"></path><path fill="#C2A887" d="m354 165-4-3 1-3 4-6 2-1 2-2 3-5 3 2-4 6-7 12zM374 131v9l-3 1-3 1-1-3 7-8z"></path><path fill="#AE9273" d="m390 117-7 3 6-8h3l-2 5z"></path><path fill="#3D2112" d="m354 153-4 6h-1l-1-2 2-5 4 1z"></path><path fill="#AE9273" d="m367 139 1 3-3 4-2-1 4-6zM382 121l-2 4 2-4zM359 150l-2 2 2-2z"></path><path fill="#BB3A23" d="M119 321v-3l6 1h3l2-1c3-6 3-12 0-18l1-3v-2l-1-5 1-2 2-6v-4l-1-5v-10l1-3 4-2c3 6 2 13 2 21l1 14-1 5v4l-1 5v2l1 2-1 2-1 1 2 1-1 4c-3 2-2 3 0 5v5l-2 3h-4l-9-4-1-1-3-4v-2z"></path><path fill="#673D26" d="m138 357-4-2c-3-5-1-11-6-14-3-5 1-5 3-7h1l10 7v1c-1 6 1 11-4 15z"></path><path fill="#A93E28" d="m169 338-4 3 1 4c-9 0-10 1-8 8-4 0-4-3-4-5l-2-6-3 5v1l-2-9 22-1zM132 334h-7c-3 0-4-1-4-4l2-2 9 4v2z"></path><path fill="#661B0F" d="m147 339 2 9-1 3-4-5-2-4v-1l5-2z"></path><path fill="#772111" d="M138 308v-1l1-5v-2h1a230 230 0 0 1-2 9v-1z"></path><path fill="#AB3B24" d="M138 324c-2-2-3-3 0-5l1 3-1 2z"></path><path fill="#893821" d="m138 324 1-2v7h-1v-5z"></path><path fill="#A93E28" d="M138 329h1v3h-3l2-3z"></path><path fill="#772111" d="m139 298 1-5v5h-1z"></path><path fill="#AB3B24" d="M139 298h1v2h-1v-2zM139 314h-2l1-1 1 1z"></path><path fill="#893821" d="M137 332h1-1z"></path><path fill="#B73F27" d="M134 71v1l-1 2-1 15v5a158 158 0 0 1 0 24l-6-5-2-9 1-19 2-20 5 2 2 4z"></path><path fill="#AB3B24" d="m132 67-5-2-1-15c-3-2-5-1-5 2l-1 9-3-5v-8l1-4h12l3 2v21h-1z"></path><path fill="#57150A" d="m132 118 1-2V94l-1-5 1-16h1l3 6v10a694 694 0 0 0-2 37l-3-8z"></path><path fill="#9F3B24" d="m117 56 3 5-1 39h-4a590 590 0 0 0 0-9V75l1-3V58l1-2zM133 46l-3-2 3 2zM132 67h1l1 4-2-4z"></path><path fill="#6A3217" d="m137 31 1-2 3 1-1 2-3-1z"></path><path fill="#9F3B24" d="m118 44-1 4 1-4z"></path><path fill="#6A3217" d="m135 35 1-2-1 2z"></path><path fill="#9F3B24" d="M134 73h-1l1-1v1z"></path><path fill="#973E28" d="m425 280 4 3 6 12 3 5h-1l-7-3h-2l-5-2v-4l4-3-2-8z"></path><path fill="#1D1610" d="m442 300 1-1 9 7c-6 1-8 0-10-6z"></path><path fill="#4C2311" d="M423 291v4l-10-4h10z"></path><path fill="#3B1109" d="m430 297 7 3c0 3-1 4-3 2l-4-5zM428 297h1-1z"></path><path fill="#C2A887" d="m316 271 1-3 4 3 2 16 7 4c0 3 0 6 4 7l-5 6h-3l-3-5-2-8-4-12-1-8z"></path><path fill="#804D2F" d="m343 324-1 3-3-2c-1-6-6-7-10-10l-1-4v-2h1l5 4c3 2 5 4 9 3v8z"></path><path fill="#3F1D0D" d="M328 312v2c-2 3-4 1-5-1-1-4-1-7-3-10-1-3 0-3 3-4l3 5 3 5h-2l-1 2 2 1z"></path><path fill="#321B0C" d="m317 279 3 12c-2 1-4 0-4-2-1-3-4-7 1-10z"></path><path fill="#3B1109" d="m135 126 1-17h2l1 5-1 17-3-5z"></path><path fill="#541F0B" d="M138 109h-2l1-20 1 7v13zM137 87v-4 4z"></path><path fill="#C2A887" d="M305 136a334 334 0 0 0 2-15l1-3v-2l1-2h2l1 1 9 19 1 3-6-1-2-5c-6 3-2 7-3 10-2-2-2-6-6-5z"></path><path fill="#482A1D" d="m308 118-1 3v-3h1z"></path><path fill="#654C3C" d="M311 114h-2v-2l2 2zM308 118h-1l1-2v2z"></path><path fill="#D6C8A8" d="M270 293v1l-9 5-2 2h-1l-7-1c0-3 0-6 2-8 3-3 4-7 5-11v-1l4-9v-2h1c3-1 6-2 4-6v-2a337 337 0 0 1 5-7c5-1 9-6 8-10l1-1 2-2 4-6 11-8 8-1c1 3-1 8 4 9v2l-7 2-2-1 2-7c-5 1-5 5-6 9l-4 7-3-6c-3 4-2 8-2 12l-4 6-4 3-3 3c-3 2-4 5-3 9h-1l-2 3-3 6c-3 4 0 7 2 10m15-44z"></path><path fill="#B7A38A" d="m251 300 7 1-8 6-3 2-5-2v-2l1-1 1-2 1-3 5-7 4-7 3-4c0 4-1 8-4 11-2 2-2 5-2 8l-5 3c3 0 6 1 5-3z"></path><path fill="#CBB599" d="M280 244c1 4-3 9-7 10l3-7 4-3z"></path><path fill="#613C27" d="m276 247-4 7-1 2h-1c0-4 1-8 6-9zM262 269l-1 2-3 6c-3-4 1-6 4-8z"></path><path fill="#B7A38A" d="M267 263c2 4-1 5-4 6v-1l4-5zM258 277l3-5-3 8v-3z"></path><path fill="#613C27" d="m267 263-4 4-1-4 5-2v2z"></path><path fill="#CBB599" d="m283 241-2 2v-1l2-1z"></path><path fill="#613C27" d="m270 258-1 1v-2l1 1z"></path><path fill="#CBB599" d="M270 258v-2h1l-1 2z"></path><path fill="#613C27" d="M262 263z"></path><path fill="#2C1910" d="m219 141-4-1-2-8c4-1 6 1 6 5v4z"></path><path fill="#D2C2A4" d="M222 222h3l2-2h1l6-1 5 2-2 2 2 2 4-2h7l2 2 1-3h2l3-1 9-3h12l6-1 6-2 1-1c-1-4 1-7 2-10l6 2 2 17a262 262 0 0 0-6 1l-3 1h-3c-5-4-5 0-7 2l-6 1h-11l-3 3h-6l-3-5-1 1 2 5h-7l-1-1-3 1-14-1-5 1-2-1v-1l1-3c-3-1-7 4-8-2h3l3-3z"></path><path fill="#6D4731" d="m298 224 4-1 5-1v3h-1l-7 1-1-2z"></path><path fill="#C2A887" d="m263 231 3-3h7l-6 3h-4zM283 228c2-3 2-7 7-3l-7 3z"></path><path fill="#CBB599" d="m287 235-4 6 4-6z"></path><path fill="#6D4731" d="m293 225 3-1-3 1z"></path><path fill="#C2A887" d="M275 228h2-2z"></path><path fill="#9F3B24" d="M382 505zM397 506h7-7z"></path><path fill="#B68137" d="m340 442-1-10v-8c2 2 1 9 8 8a1709 1709 0 0 1-1 28c-6 0-4 6-7 8a342 342 0 0 1 1-26z"></path><path fill="#CDA440" d="M347 432c-7 1-6-6-8-9v-4l4 7 1-2c-1-3-1-6 4-6l2-3h5l1 2c-3 5-1 10 0 15l-3 7-2-4 1-8-2-4-3 3v6z"></path><path fill="#B68137" d="m350 415-2 3c-5 0-5 3-4 6l-1 2-4-7-2-8 7 3 5 1h1z"></path><path fill="#3F1D0D" d="m353 439 3-7h1l2-1-2 8-3 15-1 5-1-1-1-6 2-13z"></path><path fill="#935023" d="m357 431-1 1c-1-5-3-10 0-15l-1-2 3-1 1 3-2 14z"></path><path fill="#CDA440" d="m349 415-5-1 5 1z"></path><path fill="#D6C8A8" d="M240 163a105 105 0 0 1-8-11c6 0 12-3 18 1l2 3 2 1c3 1 3 3 2 4l-3 4h-1l-6 2h-1l-5-4z"></path><path fill="#C2A887" d="m278 192-6-1-2-2-4-4h-1l-2-2-2-2-3-5 4 2h4l13 12-1 2z"></path><path fill="#6D4731" d="m258 176 3 5-15-9-1-4 1-1 12 9zM266 186l3 2-3-2zM263 183l2 1-2-1z"></path><path fill="#BB853F" d="M296 444c-5-1-7-3-5-8 1-4 0-8-2-12v-6l7-6h3l2-1 4 1v1l1 5 1 1 1 4v6l-1 5-1 2-5-6-1-3v-5h-2l-1 5-1 17z"></path><path fill="#A97038" d="m296 411-7 7c-1-5 2-7 7-7z"></path><path fill="#6A3217" d="M307 419v-2c1-3 2-5-2-5h4l-2 7zM308 429v-2l2 2h-2zM301 411l-2 1 2-1zM308 425v-2 2z"></path><path fill="#C28E39" d="m396 414 5 1 15-1c5 1 3 5 4 9l-2 1-2-4h-1l-4 9-4-5-2 5 1 12 1 2-2 7c-6 3-8 8-5 15v4l-1 1-4-4-1-13v-1l1-8v-19l-2-4 1-2 2-5z"></path><path fill="#58210E" d="m393 453 2 13v3l-4-5 1-2v-6l1-3z"></path><path fill="#794920" d="m396 414-2 5-2-6 4 1zM394 427l1 6c-2-2-5-4-1-6z"></path><path fill="#58210E" d="m395 444-1 7 1-7z"></path><path fill="#794920" d="m393 421 2 4-2-4z"></path><path fill="#D2C2A4" d="m364 261-2-2-5-4-2-4c1-3 3-5-1-6l2-2h2l2 2 2 2 2 2 8 5 7 4 3 3v2c-2 3-4 3-6 1-3-2-5-7-9-3h-3z"></path><path fill="#935C40" d="m364 261 3 1 11 6 24 12 6 4v1l-23-8-3-2-9-6-9-8z"></path><path fill="#562D18" d="M347 256c1 5 2 10-3 15h-1l-1-3v-18l1-1 5-1 3 1 2 4-8-2 2 5z"></path><path fill="#AE9273" d="m353 253-2-4h2l2 2 2 4-4-2zM357 255l5 3c-2 0-3-1-5-3z"></path><path fill="#C2A887" d="m254 157-2-1-2-3c-6-4-12-1-18-1l-2-1-4-4-2-3v-2l1-1h4l3 2 2 1a164 164 0 0 1 9 3l3 2 7 2 1 1 6 4-6 1z"></path><path fill="#4C2311" d="m230 151 2 1 3 5c-2 0-5 0-7-2-3-2-2-4 2-4z"></path><path fill="#B0815C" d="m224 144 2 3-2-3zM225 141l-1 1v-1h1z"></path><path fill="#CDA440" d="m411 429 4-9h1l2 5v8l-1 4-2 20-1 11-1 3v1c-4 4-6 1-9-1l4-4 1-3h4a16020 16020 0 0 1-5-11l5-1-2-2v-21z"></path><path fill="#58210E" d="m416 414-15 1v-2h14l1 1z"></path><path fill="#794920" d="M418 433v-8l2-2-2 10z"></path><path fill="#BF9141" d="m408 467-4 4c3 2 5 5 9 1 0 3 1 6-3 8h-8l-7-3a214 214 0 0 0 0-11l4 4 1-1v-4c-3-7-1-12 5-15v11c0 3-1 6 3 6zM414 470v-2 2z"></path><path fill="#A56643" d="m230 231 14 1h4l-10 2-25 2-10-4 3-2 1 1 4 1h14l5-1z"></path><path fill="#C2A887" d="m255 232-2-5 1-1 3 5-2 1z"></path><path fill="#794920" d="m352 458 1 1v4l2 2 1 3-4 5-1-12h-1l-2 10h-1l-2-4 1-7 1-1 5-1z"></path><path fill="#3F1D0D" d="m355 465-2-2 2 2z"></path><path fill="#82563A" d="m375 161 5-8h1l-4 8h-2z"></path><path fill="#462715" d="M375 161h2c0 4-1 6-5 7l-1-2 4-5z"></path><path fill="#8C6A4B" d="m371 166 1 3v2l-7 8 6-13z"></path><path fill="#C59A75" d="m381 152-1 1 2-7 1 1-2 5zM383 144l1-3v2l-1 1z"></path><path fill="#82563A" d="m383 147-1-1h1v1z"></path><path fill="#A56643" d="M406 499h-4l-1-3a2919 2919 0 0 1 1-8l2 1c6 3 7 4 2 10z"></path><path fill="#58210E" d="m395 477 6 3-2 2h-10l6-5z"></path><path fill="#D3BB92" d="M316 136a71 71 0 0 0 7 1v2l1 2 1 5 1 2v2l-1 3c-4 1-5 3-5 6l-1 14c-2-12 0-24-3-36v-1z"></path><path fill="#2C1910" d="m340 174-2 5-2 1-6-1v-13h4c2 2 2 8 7 2h2v2l-1 3-2 1z"></path><path fill="#321B0C" d="M334 166h-2l-1-8-4-4-1-4v-2l-1-2-1-5-1-2v-2c5 1 7 4 6 9l1 4c4 4 4 10 4 16z"></path><path fill="#D1BD9D" d="m303 239 7-2c0 8 1 15-3 21a89 89 0 0 0-3 4l-2 3-20 18-1 1-5-5 6-6c4 1 6 0 8-4h-6l1-4 18-23v-3z"></path><path fill="#6D4731" d="m302 265 2-3-2 3z"></path><path fill="#3D2112" d="m141 157 10-2 2 5h-10l-6 1h-4l-1-1v-2l1-1 2-5 6 5z"></path><path fill="#893821" d="m135 152-2 5 1-17h2v4l-1 8z"></path><path fill="#57150A" d="m136 140-2-1 1-13 3 6v2l-2 6z"></path><path fill="#3B1109" d="m136 140 2-6v6l-1 4-1-4z"></path><path fill="#562D18" d="M173 184c-2 3-4 6-2 11l-4 14-10-1 4-3c4 0 5-2 5-6 0-6-1-7-8-7v-3h4l3-1 4-5c1-3 2-6-2-7h-14l-5-2 6-2h15l4 12z"></path><path fill="#D2C4A9" d="M169 172h-5l-3-2-1 2h-7l-1-2c4-3 5-6 5-10 3 1 6 1 8 5l4 3v4z"></path><path fill="#D0BFA6" d="M169 171v-3l2 2-2 1z"></path><path fill="#321B0C" d="M242 305v2l-4 4h-1l-3-1v-1l4-4 3-2 1 1v1z"></path><path fill="#B0815C" d="m419 197 13 7-3 2-29 9h-4l4-3 15-4h3l4-3-3-8z"></path><path fill="#33170C" d="M429 206h1l2-2 3-5 5 5-6 3-3 1-2-2z"></path><path fill="#DED2B1" d="M157 160c0 4-1 7-5 10h-12l-5-1 6-8 2-1 9 1 3-1h2z"></path><path fill="#C4AE95" d="M176 165c-4 0-8 1-10-5 4 1 9-2 10 5z"></path><path fill="#D2C4A9" d="m155 160-3 1 1-1h2z"></path><path fill="#CBB599" d="m299 178 3 3 1 4-9-7c-4 6-3 10 0 15l-5-3-12-10-3-5c5 1 9 5 13 3l1-5-9-6c-5-2-7-2-9 4l-7-4c0-4 0-8 5-8l14 7 14 8 3 4z"></path><path fill="#9F3B24" d="M389 482h6l-1 5c-4 0-3 2-3 4l-1 3h-3l-3-5-2-7h7z"></path><path fill="#B14D34" d="m382 482 2 7-6 1-3-3 1-4 2-1h4z"></path><path fill="#973E28" d="m376 483-1 4c-3-2-5-3-5 1l-7-6h13v1z"></path><path fill="#58210E" d="M373 482h-7v-1l7-1v2zM376 483v-1h2l-2 1z"></path><path fill="#D1BD9D" d="m400 212-4 3-4 1h-6l-9-1-16 1-1-6 3-2h16l11-1h7l3 5z"></path><path fill="#B0815C" d="m361 216 16-1 9 1-4 2-17 1h-4l-5-2 5-1zM388 217l4-1-4 1z"></path><path fill="#C4AE95" d="M214 232h-3l-4-1v-1l3-4 4-1h2c1 6 5 1 8 2l-1 3h-3l-6 2z"></path><path fill="#AE9273" d="M234 219h-6l3-3 3-1 4-1 3 1-7 4z"></path><path fill="#C4AE95" d="m222 222-3 3-1-2 4-1z"></path><path fill="#AE9273" d="m218 223 1 2h-4c0-1 1-2 3-2z"></path><path fill="#3C271E" d="m234 215-3 1 3-1z"></path><path fill="#C4AE95" d="m227 220-2 2v-2h2z"></path><path fill="#AE9273" d="M225 220v2h-2l2-2z"></path><path fill="#B14D34" d="M411 266c4 1 8 2 9 7l-2 1-6 1-2-1h-4l-9-5-6-8 13 4c2 2 3 6 7 2v-1z"></path><path fill="#A56643" d="m411 265-1 2-6-2-3-5-4-8 6 3 8 10zM418 274l2-1 2 1 3 6 1 8h-2v-2l-6-12z"></path><path fill="#2C1910" d="m167 209 4-14 3 2-5 14-2-1v-1z"></path><path fill="#BC916A" d="M343 271h1v4l1 4v6l-1 9-3-5 1-12 1-6z"></path><path fill="#4C2311" d="m345 279-1-4h2l-1 4z"></path><path fill="#AF422A" d="m137 258-4 2v-10l-2-6-3 1-3 4 1 3a102 102 0 0 1-2 20l-1 8h-2l-2-3v-33l1-4c7-1 14-2 19 2a370 370 0 0 0-2 16z"></path><path fill="#43170C" d="M139 254v-12l3-6 11-1-2 3-5 2c-2 3-2 7-2 11v6l-4 2-1-5z"></path><path fill="#3B1109" d="M339 454v15l-4-2 1-14 3 1z"></path><path fill="#6A3217" d="M340 442v2-2z"></path><path fill="#D8C39A" d="M357 192h4l10-1c3 2 6 6 8 5 3-2 4 0 6 1l4 6-24 1c-3-4-4-1-7 1h-9l-2-1 2-3c3 1 3-1 3-3l5-5v-1z"></path><path fill="#8C6A4B" d="M357 192v1l-6 2-10 3-2-3 16-5 2 2zM371 191l-10 1 7-3 3 1v1z"></path><path fill="#A97038" d="m299 480-1-8 3-18 3 6 2-2 1 3-1 9v8l-2 1-5 1z"></path><path fill="#C28E39" d="m306 458-2 2-3-6v-24l5 6 1 2v7c-1 3-5 5-1 8v5z"></path><path fill="#33170C" d="m306 470 1-8 2-13c0-2 1-3 3-5-1 6-2 11 2 17l-2 6-2 5-4-2z"></path><path fill="#BB853F" d="M306 453c-4-3 0-5 0-8v8zM307 440v-2 2z"></path><path fill="#CEB18E" d="M267 158c-4 1-4 5-4 9l-2-1-6-1 2 5 8 8h-3l-4-2-12-8 6-3h1l3-4c1-1 1-3-2-4l6-1 6 1 1 1m-7 3 1-2h-2l1 2z"></path><path fill="#5D3623" d="M266 156h-5l-7-4c5-2 8 2 12 4z"></path><path fill="#562D18" d="m387 132 1-5c5 0 4 3 3 6s1 8-5 4c3-1 4-2 1-4v-1z"></path><path fill="#AE9273" d="m389 121 1-4-1 4z"></path><path fill="#D0BA99" d="m396 191 9 3-2 6v1l-11 1 4-5a491351 491351 0 0 1-3-6h3z"></path><path fill="#D6C8A8" d="m392 191 4 6-4 5-3 1-4-6c-2-4 2-5 3-7l4 1z"></path><path fill="#CEB187" d="M388 190c-1 2-5 3-3 7-2-1-3-3-6-1-2 1-5-3-8-5v-1h2l4-1 3 1h8z"></path><path fill="#8C6A4B" d="m384 189-4 1 4-1zM377 189l-4 1 4-1z"></path><path fill="#673D26" d="m395 191-1-1 1 1z"></path><path fill="#B7A38A" d="m259 301 2-2-2 2z"></path><path fill="#D0BFA6" d="m153 235-12 1h-14c-6 0-3-4-4-6l1-2v-1l3-2 4 1 3-1a116 116 0 0 1 22 0c6 1 1 5 2 7l-1 1-4 2z"></path><path fill="#C59A75" d="m419 197 3 8-4 3v-1l-4-7-1-4a546 546 0 0 0 6 1z"></path><path fill="#B0815C" d="M417 196h-7v-2h4l3 2z"></path><path fill="#2C1910" d="m185 235 2-2h3c-1 5-5 8-9 6l-2-4h6z"></path><path fill="#8A4E33" d="m262 393 5-2-2 11 1 3a1839 1839 0 0 1-2 45l-2-5-2-16v-12l2-24z"></path><path fill="#3B1109" d="M266 435a5452 5452 0 0 1 0-33l1-11 1-3 2 3-1 24v15l-2 5h-1zM266 449v-5l3 1v4l-2 1-1-1z"></path><path fill="#58210E" d="M266 435h1v7h-1v-7zM267 442z"></path><path fill="#1D1610" d="m264 469 1-2v-8h3l2 19-3 1-3-10z"></path><path fill="#430F05" d="M268 459h-3l-1-9 1-1 2 1 1 3v6z"></path><path fill="#1D1610" d="m268 453-1-3 2-1-1 4z"></path><path fill="#D0BA99" d="M305 169v-14l7-1v4l1 3 1 19c-1 3-1 5 3 5h1l-2 3v3h-5l-5-10-1-3v-9z"></path><path fill="#6D4731" d="m306 181 4 10c-4 0-6 3-8 6v-3c4-3 2-6 1-9v-4h3zM305 175v3-3z"></path><path fill="#321B0C" d="m256 205 17-4 10-3 2 2-3 4h-3l-8 1h-4l-11 1v-1z"></path><path fill="#613C27" d="m256 206 10-1-7 4-3 1-12 4h-2l9-6 5-2z"></path><path fill="#CBB599" d="m242 214 2 1v4l-1 2h-4l-5-2 7-4 1-1z"></path><path fill="#5D3623" d="m243 147-3-1 3 1z"></path><path fill="#B0815C" d="M234 143h-2 2z"></path><path fill="#D6C8A8" d="m312 154-7 1v-19c4-1 4 3 6 5l1 6-1 3 1 2v2z"></path><path fill="#C2A887" d="M305 142v2-2zM305 146v2h-1v-2h1z"></path><path fill="#541F0B" d="m399 248-3 2-2-1-3-3-6-4-4-4-6-6 1-2 23 18z"></path><path fill="#CEB187" d="M410 196h3l1 4-4 1-4-1h-3l2-6h3l2 2z"></path><path fill="#C59A75" d="m410 196-2-2h2v2z"></path><path fill="#973E28" d="M341 498h-2l-2-3-3-2-2-4h-16l-7 2 1-6 11-1h7l9 1c1 1 3 3 5 3h9l6 3-9-1h-9v2l5 1 1 2-4 3z"></path><path fill="#43170C" d="m321 484-12 1-6-2v-1l1-3 3-2h2l12 7z"></path><path fill="#430F05" d="m337 485-9-1v-1l10-2 4 2-5 2z"></path><path fill="#783720" d="M309 477h-2l-1-7 4 2v3l-1 2z"></path><path fill="#D0BA99" d="m371 231 1 1 3 3 1 4 14 11c3 2 4 4 2 7l-5-1-2-1-5-1-6-3-13-14-6-2 3-5h-6v-1l6-3 3 1 3 2 7 2z"></path><path fill="#673D26" d="M361 227a3711 3711 0 0 1-11-5h-4l-5-2-1-1 1-2h15l5 2 2 7v1h-2z"></path><path fill="#935C40" d="m375 235-3-3h3l5 6-5-3z"></path><path fill="#673D26" d="m371 231-7-2-1-2 8 4z"></path><path fill="#B68137" d="m345 468 2 3h1l2-10h1l1 12-1 5-13 2v-4l1-4 6-4z"></path><path fill="#6A3217" d="m338 480 13-2 5 2-2 2-6 1h-5l-5-2v-1z"></path><path fill="#C2A887" d="m276 279 5 5-11 9c-2-3-5-6-2-10l8-4z"></path><path fill="#AE9273" d="m285 200-1-2-6-5 1-3 3 2 1 1 1 1 1-1 3 3v4h-3z"></path><path fill="#462715" d="M343 324v-13h2l1 5c-1 3 3 7-3 8z"></path><path fill="#2C1910" d="m346 316-1-5 2-1 4 3-5 3z"></path><path fill="#6D4731" d="M131 225a199 199 0 0 1-7 0v-1l1-3h1l8-1h18l4 2 7 5v1l-5 4c-1-2 4-6-3-7a97 97 0 0 0-24 0z"></path><path fill="#3F1D0D" d="m163 227-7-5-3-2 7-1 4-1 5-3 1 1-1 4-6 7z"></path><path fill="#562D18" d="m169 215-5 3 3-8 2 1v4z"></path><path fill="#654C3C" d="M304 148h1v4h-1v-4z"></path><path fill="#CEB18E" d="m418 274 5 12c-2 0-5-3-6 2l-6-2v-1l-4-7v-3a133 133 0 0 0 5 0l6-1z"></path><path fill="#3F1D0D" d="M411 285v1c0 4-3 3-5 2l-12-2-7-6-2-3 23 8h3z"></path><path fill="#C59A75" d="M417 288c1-5 4-2 6-2l1 2-6 1-1-1z"></path><path fill="#B0815C" d="m418 289 6-1h2l-3 3h-3l-2-2z"></path><path fill="#8C6A4B" d="m239 311 3-4 5 2c-3 1-4 6-8 2z"></path><path fill="#C59A75" d="m386 132 1 1-1 4h-1l1-5z"></path><path fill="#973E28" d="m354 482 3-1 3-1 1 1v1h-7z"></path><path fill="#D3BB92" d="m321 271-4-4-1-2-1-16v-2l1-3 1 1 4 3 1-4 3-3v8l2 8v9c-5-3-6-2-6 5z"></path><path fill="#A56643" d="m315 249 1 16-4-4-5-3c4-6 3-13 3-21v-10c0-3-1-2-3-2v-3l2-1 3 2 1 6 3 3v12l-1 3v2z"></path><path fill="#6A3217" d="m347 309-2 2h-2l1-12v-5l1-9c5 1 2 6 4 9v5l-2 10z"></path><path fill="#462715" d="M349 296v-2h2l-2 2z"></path><path fill="#4F3328" d="m344 170-1-2 6-9h1v3l-6 8z"></path><path fill="#33170C" d="m392 462-1 2 1-2z"></path><path fill="#3F1D0D" d="M392 458v1-1z"></path><path fill="#8C6A4B" d="m245 299-1 3 1-3zM242 305v-1h1l-1 1z"></path><path fill="#CDA440" d="M345 467c-2 2-3 4-6 5v-4c3-2 1-8 7-8l-1 7z"></path><path fill="#430F05" d="m264 469 3 11 1 3 3 13h-2l-1-2c-2-2 0-7-5-7h-1l1-6h1v-12z"></path><path fill="#9F3B24" d="M276 484h-1 1z"></path><path fill="#58210E" d="M272 483h-1 1z"></path><path fill="#6A3217" d="M361 482v-1h5v1h-5z"></path><path fill="#C59A75" d="m375 235 5 3 6 4 5 4 3 3 2 2 1 1 4 8 3 5-13-4-3-3v-2l4 1c2-3 1-5-2-7l-14-11-1-4z"></path><path fill="#935C40" d="m396 251-2-1h2v1z"></path><path fill="#D2C4A9" d="m141 161-6 8 5 1v4l-17 1 1-6h-3v7l-3 1c-3-3-5-3-7 3l-1 2-2-1c-7-2-7-1-8 5l-1 5-1 3-1 1-2 1-7 1 1-8v-8l-4 1v-4l14-10 4 2 10-7 14-2h14z"></path><path fill="#B7A38A" d="M57 200a467 467 0 0 0 14-11l-4 5c-2 5-5 6-10 6z"></path><path fill="#CBB599" d="M73 187v-1l11-8 1 4-5 2-7 3z"></path><path fill="#C4AE95" d="m113 163-10 7-4-2 5-3 4-1h3l2-1z"></path><path fill="#893821" d="M110 143v-4l2-11 2 9h1l3-8v6l-2 12c0 5 0 5 5 4h1l-8 6 2 2-5 1-1-8v-9z"></path><path fill="#B33E26" d="m118 129-3 8h-1l-2-10 1-5 1-9v-12l1-1h4v15l-1 3v11z"></path><path fill="#541F0B" d="M116 61v11c-2-3-4-7 0-11zM115 75z"></path><path fill="#893821" d="M113 113v9-9z"></path><path fill="#541F0B" d="m115 100-1 1v-5l1 4zM114 91l1 2-2-1 1-1z"></path><path fill="#D2C2A4" d="M107 229v4l-1 2-15-2c-2 5-5 0-8-1l1-9 12-1 3 5 2-1-2-4 7-3 1 10z"></path><path fill="#973E28" d="m131 288-1 2-7 2v19h-1l-3-2-1-5v-16l1-3 5 3 3-6 3-7 2-9v8l1 4v4l-2 6z"></path><path fill="#B7A38A" d="M107 229a88 88 0 0 1 0-11h1c1 4 3 7 6 7 4 0 5 2 6 5l-1 6c-5 0-8-2-9-7h-3z"></path><path fill="#6D4731" d="m119 236 2-6h2c1 2-2 6 4 6h14l-1 6c-6-4-13-3-19-2l-2-4z"></path><path fill="#B14D34" d="m126 282-2 6-4-3-1-4 2-1h2l3 2z"></path><path fill="#57150A" d="M118 244zM118 288v9-9z"></path><path fill="#973E28" d="m121 280-2 1v-4l2 3z"></path><path fill="#B7A38A" d="M107 235v-2l1 2h-1z"></path><path fill="#893821" d="M121 330c0 3 1 4 4 4h6c-2 2-6 2-3 7l-5 1-5-3 1-9h2z"></path><path fill="#AB3B24" d="m119 309 3 2 3 8-6-1v-9z"></path><path fill="#893821" d="M116 345v-3l2 1 1 15-2-8-1-5z"></path><path fill="#772111" d="M118 342h-1l1-3 5 3h-5z"></path><path fill="#AB3B24" d="m119 323 3 4h-3l-1-3 1-1z"></path><path fill="#772111" d="M119 327h3l1 1-2 2h-2v-3z"></path><path fill="#973E28" d="m119 323-1 1v-3l1 2z"></path><path fill="#A93E28" d="M208 358h-3v-1l14-1 5-2 4 3-5 2-5-1a101 101 0 0 1-10 0z"></path><path fill="#661B0F" d="m228 357-4-3-1-4v-2l7 5v3l-2 1z"></path><path fill="#6A3217" d="m249 363 1 13-5-4v-2l4-7z"></path><path fill="#661B0F" d="m208 359 6-1-2 2h-4v-1zM218 359h5-5z"></path><path fill="#6A3217" d="m243 351 1 3-1-3zM245 358l3 1-3-1z"></path><path fill="#4F3328" d="m111 160 5-1h10l1 1v1a383 383 0 0 0-15 2l-1-3z"></path><path fill="#3B1109" d="M110 152zM110 143v5-5z"></path><path fill="#D2C2A4" d="M57 200c5 0 8-1 10-6l4-5c4 3 9 4 9 10v10l-13-5-4 8-1 8-3 4h10c0 3-4 5 1 6l1 2-1 2-4-1-2-1h-2l-1-2-6-8c-5-5-4-10 0-14l-1-5 2-2 1-1z"></path><path fill="#B7A38A" d="m53 203 2 5c-4 4-5 9 0 14l6 8c-10-4-14-11-11-21l3-6zM83 232c3 1 6 6 8 1a744 744 0 0 1 12 3l-4 1-20-1 3-4h1zM70 234l1-2 3 1 3 1v1l-7-1z"></path><path fill="#D2C2A4" d="M77 235v-2l4-1-2 4-2-1z"></path><path fill="#B7A38A" d="M64 232h2-2zM56 201l-2 2 2-2z"></path><path fill="#B33920" d="m256 450-3 4-4 3v-9l-1-5v-25l-1-7 2-2v-20l1-8 4 1 3 13-1 5-1 2v4c-3 2-3 4 0 6v2l-2 10 2 15v3l1 4v4z"></path><path fill="#430F05" d="m249 480-2 11c-2-2-4-12-2-14l3-1v2l1 2zM185 359l-5 2h-25v-3h28l2 1z"></path><path fill="#661B0F" d="M155 359v2h-2l-5-3 7 1zM185 359l-2-1v-1h8l-1 2h-5z"></path><path fill="#772111" d="m254 382-4-1v-4l12 1 3 2-4 3h-2l-5-1zM248 389l1 10h-3l-1-5 3-5z"></path><path fill="#A93E28" d="m248 443 1 5h-1v-5z"></path><path fill="#661B0F" d="M248 461v5-5zM248 448h1v4h-1v-4zM249 454a181 181 0 0 0-1 3v-3h1z"></path><path fill="#A93E28" d="M249 454h-1v-2h1v2zM118 343l5-1 5-1c5 3 3 9 6 13 0 4-2 5-5 5h-9l-1-1-1-15m5 9 3 1 1-2-4 1zM142 342l2 4-1 6c0 3 1 5 4 6l-2 2c-2-1-5-1-7-3 5-4 3-9 4-15z"></path><path fill="#772111" d="m248 409-1 2 1-2z"></path><path fill="#BB3A23" d="M187 357h-20l-1-5 2-2h2l4-1 3 1 9-2 8-1h3l11 1 8-1h2l3 1 2 2 1 3c-2 2-3 3-5 3l-14 1-5 1-3-1c-4-3-7-3-10 0z"></path><path fill="#A93E28" d="M187 357c3-3 6-3 10 0h-10z"></path><path fill="#661B0F" d="m200 358 5-1v1h-5z"></path><path fill="#B33920" d="M147 358c-3-1-4-3-4-6l1-6 4 5 1-3v-1l3-5 2 6c0 2 0 5 4 5l-1 5h-2l-7-1-1 1m2-5s1 1 0 0z"></path><path fill="#772111" d="M370 488c0-4 2-3 5-1l3 3-1 6-1 3c-3 2-4 0-4-3l-2-8z"></path><path fill="#B14D34" d="m376 499 2-3c4 2 6 1 9-2h3l-1 7-13-2z"></path><path fill="#57150A" d="m389 501 1-7 1-3c0-2-1-4 3-4l1 3 1 1v4l-2 3v2l-3 1h-2z"></path><path fill="#6A3217" d="m348 490 9 1h1v7h-3l-2-1-5-5v-2z"></path><path fill="#973E28" d="M358 498v-7c1 1 3 2 3 4l-3 3z"></path><path fill="#772111" d="m341 498 4-3 6 2v1h-10z"></path><path fill="#9F3B24" d="M401 488v7c-3-1-2-4 0-7z"></path><path fill="#772111" d="m337 496 2 2-1 1h-4l1-3h2z"></path><path fill="#973E28" d="M344 483h4-4z"></path><path fill="#9F3B24" d="m372 505-5 1 5-1z"></path><path fill="#973E28" d="M351 498v-1h2l2 1h-4z"></path><path fill="#9F3B24" d="m391 501 3-1-3 1zM395 498l1-3-1 3zM402 499h2-2z"></path><path fill="#973E28" d="M344 498h2-2z"></path><path fill="#9F3B24" d="m355 503-1 1 1-1zM365 505c-1 0 0 0 0 0zM396 491l-1-1 1 1zM280 485l19-2h4l-1 4c-2 4 0 6 4 7l-3 3-9 1c1-8-1-10-8-9l-2 1-4-5z"></path><path fill="#783720" d="m284 490 2-1c7-1 9 1 8 9l-5 1-2-2-2-2-1-3v-2z"></path><path fill="#772111" d="m303 497 3-3h17v2c-6 2-13 4-20 1z"></path><path fill="#973E28" d="M323 496v-2l12 2-1 3-11-3z"></path><path fill="#9F3B24" d="m284 492 1 3-1-3zM287 497l2 2-2-2z"></path><path fill="#5D3623" d="M256 450v-8l2-10 2-3 2 16-2 18v3h-5v-11l1-2v-3z"></path><path fill="#783720" d="m261 463 1-18 2 5 1 9v3l-1 1h-3z"></path><path fill="#77452B" d="M255 466h4l1 4-3 4-3-4v-4h1z"></path><path fill="#783720" d="M255 466h-1l1-8v8z"></path><path fill="#893821" d="M262 487h1c1 4-1 3-3 3l2-3z"></path><path fill="#430F05" d="m264 463 1-1v5l-1-4z"></path><path fill="#43170C" d="M252 497h3l-1 2-2-2z"></path><path fill="#783720" d="m260 470-1-4h1v4z"></path><path fill="#661B0F" d="m249 480-1-2 1 2z"></path><path fill="#783720" d="m256 453-1 2 1-2z"></path><path fill="#8C6A4B" d="m268 494 1 2 2 3-2 2-1 1-1 1c-6 0-6-5-6-10l7 1z"></path><path fill="#562D18" d="m268 494-7-1-1-3c2 0 4 1 3-3 5 0 3 5 5 7zM271 499l-1-2 1-1v3z"></path><path fill="#893821" d="m268 502 1-1-1 1z"></path><path fill="#783720" d="m258 367 2 4-3 2-3-3 4-3z"></path><path fill="#5D3623" d="m168 350-2 2-8 1c-2-7-1-8 8-8l3 1-1 4z"></path><path fill="#973E28" d="m194 347-8 1h-9v-4h17v3z"></path><path fill="#A93E28" d="M177 344v6l-3-1-3-4 6-1z"></path><path fill="#973E28" d="m171 345 3 4a15 15 0 0 1-6 1l1-4 2-1zM216 347l-8 1-11-1c6-3 12 0 19 0zM223 350l-2-2h2v2zM221 348l-3-1 3 1z"></path><path fill="#783720" d="m260 429-2 3-2 10h-1v-3l2-17-2-8v-8l2-4v-13l5 2v2l-2 24v12z"></path><path fill="#893821" d="m262 391-5-2 2-6h2l1 8z"></path><path fill="#DAB033" d="M119 21c-3 4-1 7 6 8l-1 4h5l1 1-3 2c-7 3-18-2-20-9-2-6 0-9 6-9 2 0 5-4 6 1v2z"></path><path fill="#935023" d="M119 21v-1c5-4 8-5 9-1 0 2 2 5-2 7-3 1-6 0-7-5z"></path><path fill="#DAB033" d="M133 28z"></path><path fill="#884518" d="m301 430-1 23-2 19-2-1v-9a887 887 0 0 0 1-35l1-5h2v5l1 3z"></path><path fill="#783720" d="m303 482-4 1v-3l5-1-1 3z"></path><path fill="#3F1D0D" d="M340 217v2l-8 2-2-2h-3v-3c2-4 4-6 4-9 1-4 2-10-3-13l-2-1 2-2 2-4 1-8 5 1 1 2-1 12 1 1h2l2 3-4 8c0 4-3 7 2 10l1 1z"></path><path fill="#82563A" d="m365 147 3-5 3-1 1 2-12 21-3 8c-2 5-7 9-12 12a1522 1522 0 0 0 16-31l4-6z"></path><path fill="#AE9273" d="m373 143-2-2 3-1-1 3z"></path><path fill="#4F3328" d="m340 175 2-2-2 2z"></path><path fill="#8C6A4B" d="m337 195-1-1 1 1zM337 182l-1-1 1-1v2z"></path><path fill="#6A3217" d="m132 266-2 9-3 7-1-1a5997 5997 0 0 0-2-11l1-2v-3l1-4v-12l2-4 5 5v3l-1 3v10z"></path><path fill="#793A26" d="m125 319-3-8h1l3 4 2-4 1-9 1 16-2 1h-3z"></path><path fill="#AF422A" d="m130 318-1-16v-2h1c3 6 3 12 0 18z"></path><path fill="#793A26" d="M130 300h-1c-2-3 0-9-6-8l7-2 1 5v2l-1 3z"></path><path fill="#AF422A" d="m131 288 2-6-2 6z"></path><path fill="#AB3B24" d="m139 302-1 5 1-5z"></path><path fill="#AF422A" d="m133 278-1-4 1 4zM132 266v-3 3zM128 319l2-1-2 1zM131 297v-2 2z"></path><path fill="#AB3B24" d="M138 308v1-1z"></path><path fill="#793A26" d="M119 109v-9l1-39 1-9 5-2 1 15-2 20-1 19 2 9-2 14-1-2c2-8 1-13-4-16z"></path><path fill="#AB3B24" d="m124 127 2-14 6 5 3 8-2 13-1 18v1l-6 1h-10l-2-2 8-6c5-6 3-12 2-18v-6zM132 89l1 5-1-5zM133 112l-1 4 1-4zM133 103v1-1z"></path><path fill="#9F3B24" d="m126 50-5 2c0-3 2-4 5-2z"></path><path fill="#D3BB92" d="m329 304 5-6 6-1 1 6-5 8-6-6-1-1z"></path><path fill="#BC916A" d="m329 304 1 1 6 6 5-8 3-4-1 12v4c-4 2-6 0-9-2l-5-4-3-5h3z"></path><path fill="#D6C8A8" d="M321 271c0-7 1-8 6-5v2c-2 5-1 10 2 13l-6 6-2-16z"></path><path fill="#D3BB92" d="m323 287 6-6c-3-3-4-8-2-12l4 5 1 5-2 7-1 5-6-4z"></path><path fill="#673D26" d="M330 291v-5l2 2 8 6v3h-6c-4 0-4-3-4-6z"></path><path fill="#562D18" d="M328 311h-2l1-2 1 2z"></path><path fill="#8A4E33" d="M312 154v-13c0-3-4-7 2-10l2 5v1c3 12 1 24 3 36l1 11-2 1h-1l-3-5-1-20-1-2v-4z"></path><path fill="#804D2F" d="M303 239v3a429 429 0 0 1-20 22l1-5 5-6 4-6 4-7 4-2 2 1z"></path><path fill="#82563A" d="M283 265h1v4l-3 4-5 6-8 4 3-7 3-2v-1l9-8z"></path><path fill="#CBB599" d="m283 264-9 9c-1-3 0-6 3-8l3-3 4-3-1 5z"></path><path fill="#D1BD9D" d="M307 225c2 0 3-1 3 2v8c-5-1-3-6-4-9l1-1z"></path><path fill="#CBB599" d="m293 247-4 5c-1-3-2-7 1-11l3 6z"></path><path fill="#D1BD9D" d="m301 238-4 1c1-3 1-7 6-8l-2 7z"></path><path fill="#CBB599" d="m273 274-2 2 2-2zM285 249z"></path><path fill="#D6C8A8" d="M251 300c1 4-2 3-5 3l5-3z"></path><path fill="#C4AE95" d="m256 210 3-1 13-3a202 202 0 0 0 10-2h12c-1 3-3 6-2 10l-1 1-7-3-17 3-18 3 7-8z"></path><path fill="#4C2311" d="m294 204-12-1 3-3h7c4-1 8 1 11-3 1-3 3-6 8-6h5v2l-1 1-2 1h-3c-5 2-7 11-4 16 6 9 8 10 21 5v3l-2 1-2 2-2-1c-2-1-4-1-3 2v5h-2l-4-5-3-2-9-15-6-2z"></path><path fill="#82563A" d="m249 218 18-2v2a680 680 0 0 1-17 5h-7v-2l1-2 5-1z"></path><path fill="#804D2F" d="M267 218v-2l17-4 6 3-5 2-6 1h-12z"></path><path fill="#AE9273" d="m300 206 9 15-2 1-5 1-2-17zM243 221v2l-4 2-2-2 2-2h4z"></path><path fill="#C2A887" d="M221 230h1l1 1-9 1 6-2h1z"></path><path fill="#C59A75" d="m279 218 6-1-6 1z"></path><path fill="#C2A887" d="m230 231-5 1 5-1zM250 223l3-1-1 3-2-2zM247 231l-3 1 3-1zM255 222l3-1-3 1z"></path><path fill="#935023" d="m352 458-5 1v-33l3-3 2 4-1 8 2 4-2 13 1 6z"></path><path fill="#CEB18E" d="m250 153 2 3-2-3z"></path><path fill="#A56643" d="M253 165h-1 1z"></path><path fill="#8A4E33" d="m288 196-4-3h-1l-2-1-2-3-13-11-9-8-2-5 6 1c3 8 9 11 16 14l12 10 5 3-2 3h-4z"></path><path fill="#A97038" d="M305 413c4-1 3 1 2 4l-2-4z"></path><path fill="#935023" d="M408 467c-4 0-3-3-3-6v-11l2-7-1-2-1-12 2-5 4 5v12l-1 9-2 3v14z"></path><path fill="#BF9141" d="m406 441 1 2-1-2z"></path><path fill="#D6C8A8" d="M346 222h4l5 1 3 2-6 4v1h6l-3 5 1 6v2l-2 2-1 4h-2l-3-2-1-1-1-4-1-2c0-6-3-13 1-18z"></path><path fill="#CEB187" d="m402 280-24-12-11-6c4-5 6 0 9 2 2 2 4 2 6-1h2l12 10 6 6v1z"></path><path fill="#82563A" d="m356 240-1-5 6 2 13 14 7 3v1l-2 3-7-4-8-5-2-2-2-2-2-2-2-3z"></path><path fill="#804D2F" d="m379 258 2-3 4 1 3 2 3 2 6 10-1 3-12-10-2-2-3-3z"></path><path fill="#C4AE95" d="m364 249 8 5-8-5zM353 249l1-4c4 1 2 3 1 6l-2-2zM356 241l2 2h-2v-2z"></path><path fill="#82563A" d="m382 261 2 1-2 1v-2z"></path><path fill="#C4AE95" d="m360 245 2 2-2-2z"></path><path fill="#BC916A" d="m402 280 1-1 4-1 4 7h-2l-1-1-6-4z"></path><path fill="#5D3623" d="m408 284 1 1-1-1z"></path><path fill="#CEB187" d="m327 257-2-8 5-1 2 2c6-4 3-8 2-14l-4 2-4-5c4 0 7 0 5-5l1-4 4 9 3 18 2 10 1 7 1 3-1 6-1 12-4-3-2-3h2v-1l-4-9-2-17-4 1z"></path><path fill="#B14D34" d="m339 250-2-17h4l2 6-2 3 2 7-1 1h-3z"></path><path fill="#804D2F" d="m343 249-2-7 2-3 2 1v3l2 3 1 1v1l-5 1zM339 251l3-1v11h-1l-2-10z"></path><path fill="#BC916A" d="M341 261h1v7l-1-7z"></path><path fill="#AE9273" d="M348 248v-1l3 2-3-1z"></path><path fill="#C28E39" d="m409 464-1-7 5 7h-4zM408 453l2-3 3 2-5 1zM411 437v-4 4zM411 441v-1 1z"></path><path fill="#C2A887" d="m207 231 4 1-4-1z"></path><path fill="#D6C8A8" d="m320 184-1-10 1-15c0-3 1-5 5-6l2 1 1 6v4l1 3c-4 2-4 5-1 8v3c-3 3-4 7-8 6z"></path><path fill="#C2A887" d="m327 154-2-1 1-3 1 4z"></path><path fill="#482A1D" d="m323 139 1 2-1-2z"></path><path fill="#C2A887" d="m325 146 1 2-1-2z"></path><path fill="#B0815C" d="M328 178v-3h2v12c0 2-1 3-3 4l-5-2c7-2 6-6 6-11z"></path><path fill="#482A1D" d="m328 160-1-6 4 4 1 8h-2l-1 1-1-4v-3z"></path><path fill="#CEB18E" d="m329 167 1-1v9h-2c-3-3-3-6 1-8z"></path><path fill="#3F1D0D" d="M330 173v-1 1z"></path><path fill="#DED2B1" d="m282 273 2-4h6c-2 4-4 5-8 4z"></path><path fill="#893821" d="m126 159 6-1v3h-2l-3-1-1-1z"></path><path fill="#654C3C" d="M141 161h-4l6-1-2 1zM132 161v-1l1 1h-1z"></path><path fill="#D0BFA6" d="M140 173v-2l12-1 1 2-5 2 5 2h14v1l2 6-4 4-3 2h-4l-10 1h-2l-3 1h-2l-15 1h-5l-1-11 1-1a6361 6361 0 0 0 25-6l-6-1z"></path><path fill="#D1BD9D" d="M158 192c7 0 8 1 8 7 0 4-1 6-5 6l-5 3-21-1 4-3 4-1 4-10 11-1z"></path><path fill="#6D4731" d="m135 207 21 1 11 1v1l-3 8-4 1 3-7-6-1h-20l-2-3v-1z"></path><path fill="#4B3321" d="m158 192-11 1h-3l-1-2 3-1h2l10-1v3z"></path><path fill="#82563A" d="m169 183-2-6c4 0 3 3 2 6zM164 176h-6 6z"></path><path fill="#D0BFA6" d="m160 172 1-2 3 2h-4z"></path><path fill="#82563A" d="m162 189 3-1-3 1zM155 176h-2 2zM167 176h-1 1z"></path><path fill="#C2A887" d="m400 212-2-5c4 0 8 0 12-3l5 4-15 4z"></path><path fill="#D3BB92" d="m415 208-5-4v-3l4-1 3 7-1 1h-1z"></path><path fill="#562D18" d="m432 204-2 2 2-2z"></path><path fill="#C2A887" d="m416 208 2-1v1h-2z"></path><path fill="#DED2B1" d="M270 172c2-7 4-7 9-5l9 6-1 5c-4 2-8-2-13-4h-1a11 11 0 0 0-3-2z"></path><path fill="#D6C8A8" d="M303 185c1 3 3 6-1 9l-3-2-5 1c-3-5-4-9 0-15l9 7z"></path><path fill="#A56643" d="m273 174 4 6c-7-3-13-6-16-13h2l7 4 1 1 2 2z"></path><path fill="#B0815C" d="M387 494c-3 3-5 4-9 2v-6l6-1 3 5z"></path><path fill="#B14D34" d="m391 491-1 3 1-3z"></path><path fill="#8C6A4B" d="M365 204a1323 1323 0 0 0 24-1v3l-10 2h-16l-12 1-3-1 1-3h10l6-1z"></path><path fill="#D6C8A8" d="M348 209h3l9 1 1 6-5 1h-9l1-8z"></path><path fill="#8A4E33" d="M389 206v-2l3-1 11-2 3-1 4 1v3c-4 3-8 3-13 2l-7 1-1-1z"></path><path fill="#CEB187" d="m360 210-9-1 12-1-3 2z"></path><path fill="#C2A887" d="M389 206v1l-10 1 10-2z"></path><path fill="#D2C2A4" d="M221 230h-1 1z"></path><path fill="#562D18" d="M407 278h-4l-7-5 1-3 9 4 1 1v3z"></path><path fill="#C59A75" d="m404 265 6 2c-3 4-4 0-6-2z"></path><path fill="#BC916A" d="m407 275-1-1h4l1 1h-4z"></path><path fill="#A56643" d="M411 275v-1l1 1h-1z"></path><path fill="#CEB187" d="M340 297v-3l1-5 3 5v5l-3 4-1-6z"></path><path fill="#973E28" d="m124 272 2 9-3-1 1-8zM133 250l-5-5 3-1 2 6zM125 261v4-4zM133 256v-3 3zM125 249l1 2-1-2zM125 268l-1 2 1-2z"></path><path fill="#D6C8A8" d="m338 206 3-8 10-3 1 3c0 2 0 4-3 3l-2 3-8 3-1-1z"></path><path fill="#CEB187" d="M339 207a826 826 0 0 0 10-2l-1 3-1 9h-6l-2-2v-8zM352 198l-1-3 6-2-5 5zM365 204l-6 1c2-2 3-5 6-1z"></path><path fill="#C2A887" d="m260 161-1-2h2l-1 2z"></path><path fill="#82563A" d="m386 137 1-4c3 2 2 3-1 4z"></path><path fill="#C59A75" d="m406 200-3 1v-1h3z"></path><path fill="#3F1D0D" d="M123 230h-2c-2-3-3-5-7-5-3 0-5-3-6-7l1-2 3 1h2v2l2 1 5-1a48 48 0 0 0 4 2l-1 3-1 4v2z"></path><path fill="#BC916A" d="M148 225h7-7z"></path><path fill="#AE9273" d="M131 236h-4 4z"></path><path fill="#B7A38A" d="m131 226 3-1-3 1z"></path><path fill="#6D4731" d="m124 228-1-3h1v3z"></path><path fill="#B7A38A" d="M124 227v-2h2l-2 2z"></path><path fill="#AE9273" d="M135 236h-1 1z"></path><path fill="#783720" d="m265 402 1 2-1-2z"></path><path fill="#CEB18E" d="M328 178c0 5 1 9-6 11l-1 1h-5v-2l2-3 2-1c4 1 5-3 8-6zM314 180l3 5c-4 0-4-2-3-5z"></path><path fill="#6D4731" d="M316 190h5v2l-5 1v-3z"></path><path fill="#C2A887" d="m312 158 1 2-1-2z"></path><path fill="#CBB599" d="m294 193 5-1 3 2v3c-2 4-6 2-10 2v-3l2-3z"></path><path fill="#AE9273" d="m272 206-13 3 8-4h4l1 1z"></path><path fill="#613C27" d="m272 206-1-1 8-1-7 2z"></path><path fill="#AE9273" d="m249 218-5 1v-4l12-5-7 8z"></path><path fill="#D0BA99" d="M312 150v2l-1-2h1z"></path><path fill="#C2A887" d="M312 150h-1l1-3v3z"></path><path fill="#935C40" d="m391 246-5-3 5 3z"></path><path fill="#AF422A" d="m335 496-12-2h-16l2-3 7-2 18 4 3 2-2 1z"></path><path fill="#B83D24" d="m309 491-2 3h-1c-4-1-6-3-4-7l1-4 6 2v6z"></path><path fill="#893821" d="m334 493-18-4h16l2 4z"></path><path fill="#8A4E33" d="M353 497h-2l-6-2-1-2 4-1 5 5z"></path><path fill="#893821" d="m348 492-4 1-5-1v-2h9v2z"></path><path fill="#C59A75" d="m385 256-4-1v-1l4 1v1z"></path><path fill="#82563A" d="M385 256v-1l2 1 1 2-3-2z"></path><path fill="#C59A75" d="m363 227 1 2-3-2h2z"></path><path fill="#C2A887" d="m345 240-1-1-3-6-4-11 4-2 5 2c-4 5-1 12-1 18z"></path><path fill="#783720" d="m341 220-4 2 3 10-3 1-5-9v-3l8-2 1 1z"></path><path fill="#C2A887" d="m355 223-5-1 5 1z"></path><path fill="#C4AE95" d="M292 196v3l-4 1v-4h4zM283 193h1v1l-1-1zM282 192l1 1-1-1z"></path><path fill="#D2C4A9" d="M137 211h20l6 1-3 7h-7a258 258 0 0 1-19 1l-8 1-1-3v-2l1-5h11z"></path><path fill="#B7A38A" d="m125 218 1 3h-1v-3zM134 220h2-2z"></path><path fill="#D6C8A8" d="M332 223v1l-1 4c2 5-1 5-5 5-5 2 0 6-2 8l-2 3-1 4-4-3-1-1v-12l2-4v-3l2-3 1-1 2 1 2-2h5l2 3z"></path><path fill="#B0815C" d="M325 241c1-2-4-6 1-8l4 5v10l-5 1v-4l2-1a81948 81948 0 0 1-2-3zM327 257l4-1 2 17-2 1-4-6v-11z"></path><path fill="#CEB187" d="m325 243 2 1-2 1v-2z"></path><path fill="#D6C8A8" d="M315 249v-2 2z"></path><path fill="#673D26" d="m312 223 4 6v3l-3-3-1-6z"></path><path fill="#D3BB92" d="M316 234v6-6z"></path><path fill="#DED2B1" d="m62 220 1-8 4-8 13 5v-10l2-4c0-4 2-6 7-6l-1 8c-4 3-2 5 1 6l-1 1-2 4h5c4 5 6 9 5 14l-12 1c-4-2-2 1-3 3l-3 2-2-1c-3-6-9-6-14-7z"></path><path fill="#4C2311" d="M89 204v-1l7-7 1-1 1-1 1-3 9-9h3l3-2h6v1l-4 4c-2 1-4 1-5 3l3 6v3c-3 3-2 6 0 9v4l-1 5-1 2-3-1 1-8-3-5 2-5-2-4c-1-1-3 0-4 1l-3 3-8 8-3-2z"></path><path fill="#D6C8A8" d="M89 189c-5 0-7 2-7 6l-2 4c0-6-5-7-9-10l2-2 7-3 5-2 4-1v8z"></path><path fill="#6D4731" d="M140 174h6v2l-24 4-4-2v-1l3-1h2l17-2z"></path><path fill="#D2C2A4" d="m95 196-6 7c-3-1-5-3-1-6l7-1z"></path><path fill="#AE9273" d="m108 181-9 10 1-5c1-6 1-7 8-5z"></path><path fill="#D1BD9D" d="M118 177v3a40 40 0 0 1-7-1c2-5 4-5 7-2zM123 175l-2 1v-7h3l-1 6z"></path><path fill="#AE9273" d="M111 180h3l-3 2v-2z"></path><path fill="#654C3C" d="m127 160 3 1h-3v-1z"></path><path fill="#D2C2A4" d="m98 194-1 1 1-1z"></path><path fill="#613C27" d="M124 127v6l-3 18c-5 1-5 1-5-4l2-12 1-3-1-2v-2h1l4-3 1 2z"></path><path fill="#793A26" d="m121 151 3-18c1 6 3 12-2 18h-1z"></path><path fill="#5D3623" d="m119 132-1 3v-3h1z"></path><path fill="#793A26" d="M119 132h-1v-2l1 2z"></path><path fill="#5D3623" d="m123 125-4 3-1-2v-8l1-3v-5c5 2 6 7 4 15z"></path><path fill="#893821" d="M118 120v5-5zM119 115l-1 3 1-3zM118 126l1 2h-1v-2z"></path><path fill="#D6C8A8" d="M62 220c5 1 11 1 14 7l2 1 3-2c1-2-1-5 3-3l-1 9h-1l-5 1-3-1-4-2c2-3 5-5-1-6H59l3-4z"></path><path fill="#DED2B1" d="m106 218-7 4 1-4c0-6 2-7 8-5l-2 5z"></path><path fill="#D1BD9D" d="m99 222 2 4-2 1-3-5h3z"></path><path fill="#673D26" d="M123 292c6-1 4 5 6 8v2l-1 9-2 4-3-4v-19z"></path><path fill="#C4AE95" d="M107 218a31 31 0 0 1 3-10 319 319 0 0 0-3 10z"></path><path fill="#DED2B1" d="M69 224c6 1 3 3 1 6-5-1-1-3-1-6zM70 230l4 2h-3l-1-2z"></path><path fill="#A93E28" d="m255 414 2 8-2 17-2-15 2-10zM259 383l-2 6v6l-3-13 5 1zM255 406v6c-3-2-3-4 0-6zM255 442h1v4l-1-4z"></path><path fill="#893821" d="m257 402-2 4v-4h2z"></path><path fill="#A93E28" d="M257 402h-2l1-2 1 2zM158 353l8-1 1 5v1h-10l1-5z"></path><path fill="#661B0F" d="M175 357h6v1h-6v-1zM167 358v-1h4v1h-4z"></path><path fill="#A93E28" d="M171 358v-1h4v1h-4zM181 358v-1h2v1h-2z"></path><path fill="#893821" d="M123 351h4l-1 2-3-2z"></path><path fill="#AF422A" d="M177 350v-2h9l-9 2zM168 350h2-2z"></path><path fill="#661B0F" d="M150 353c0 1-1 0 0 0z"></path><path fill="#E1AC47" d="M327 194h1l1 12-4 3v-3l-4-4c-3 0-6 1-6 5 0 3 1 4 4 4h6c-2 6-6 7-11 4-5-4-4-10-5-16l1-1 4 3c4-3 7-3 11 0l2-7z"></path><path fill="#BB853F" d="m310 198-1 1c1 6 0 12 5 16 5 3 9 2 11-4v-2l4-3-1-11c5 2 4 8 3 12 0 3-2 5-4 9-13 5-15 4-21-5-3-5-1-14 4-15v2z"></path><path fill="#DAB033" d="m326 193-1 8c-4-3-7-3-11 0l-4-3 3-2h2l8-3h3z"></path><path fill="#B7A38A" d="M339 207v8c-5-2-2-5-2-9l2 1z"></path><path fill="#BB853F" d="M326 193h-3l-2-1v-2l1-1 5 2-1 2z"></path><path fill="#CEB187" d="m332 223-2-3 2 1v2z"></path><path fill="#BC916A" d="m341 289-1 5-8-6-2-2 2-7 3 4 2 3 4 3z"></path><path fill="#A56643" d="m335 283-3-4-1-5 2-1 4 9v1h-2z"></path><path fill="#E1AC47" d="m321 192 2 1-8 3v-2l1-1 5-1z"></path><path fill="#D3BB92" d="m316 232 1-3 1-1-2 4z"></path><path fill="#673D26" d="m321 221-1 1-2 1c-1-3 1-3 3-2z"></path><path fill="#E1AC47" d="m313 196-3 2v-2l3-1v1z"></path><path fill="#D3BB92" d="m318 223 2-1-1 3-1-2z"></path><path fill="#BB853F" d="M313 196v-1l2-1v2h-2z"></path><path fill="#673D26" d="m325 220-2 2 2-2z"></path><path fill="#AE9273" d="m347 246-1-3 1 3z"></path><path fill="#D8C39A" d="M330 248v-10l4-2c1 6 4 10-2 14l-2-2z"></path><path fill="#BC916A" d="M337 283v-1 1z"></path><path fill="#B0815C" d="M328 160v3-3z"></path><path fill="#422E21" d="M114 197v-4l4-1h3l5 1v2l-1 1-3 5-3-2-5-2z"></path><path fill="#4B3321" d="M126 195v-2c5-1 10-2 15-1v1l-3 1h-1l-4 1h-7z"></path><path fill="#654C3C" d="m121 192-3-1-1-6 2-4 2 11z"></path><path fill="#8C6A4B" d="M141 193v-1l2-1 1 2-2 1-1-1z"></path><path fill="#4C2311" d="M118 179v-1l3 2h-1l-2-1z"></path><path fill="#8C6A4B" d="M148 190h-2 2z"></path><path fill="#DED2B1" d="m142 194 2-1h3l-4 10-4 1-4 3-3-1 3-10 2-2h5z"></path><path fill="#3D2112" d="M114 210v-4l7 1 14 1 2 3h-11l-3 3h-2c-1-4-4-5-7-4z"></path><path fill="#C4AE95" d="m135 208-14-1 1-6 4-5 3 5-5 3 1 2h7a10759 10759 0 0 0 3 2z"></path><path fill="#CBB599" d="m273 174-2-2 2 2z"></path><path fill="#C4AE95" d="M114 210c3-1 6 0 7 4v5l-5 1-2-1v-9z"></path><path fill="#6D4731" d="M121 219v-5h3l1 2v2l-1 3-3-2zM114 219l2 1-2-1zM113 215l1 2h-2l1-2z"></path><path fill="#B7A38A" d="m125 216-1-2 2-3-1 5z"></path><path fill="#D2C2A4" d="m110 208-2 5c-6-2-8-1-8 5l-1 4h-3c1-5-1-9-5-14 4-3 10-4 9-10h6l1 5 3 5m-8-3h1v-1l-1 1z"></path><path fill="#C4AE95" d="M100 198c1 6-5 7-9 10h-5l2-4 4 2 8-8zM116 185l2 6-4 2-3-5c1-2 3-2 5-3z"></path><path fill="#B0815C" d="m122 201-1 6-6-1c-3-3-4-6-1-9v1l3 6 2-5 3 2z"></path><path fill="#C4AE95" d="m107 203-1-5h-5l2-3c1-1 3-2 4-1l2 4-2 5z"></path><path fill="#6D4731" d="m118 179 2 1h-1l-1-1z"></path><path fill="#9F3B24" d="M325 209v1l-6 1c-3 0-4-1-4-4 0-4 3-5 6-5l4 4v3z"></path><path fill="#D2C4A9" d="M132 206h-7l-1-2 5-3-3-5v-1h8l1 1-3 10z"></path><path fill="#CBB599" d="m119 199-2 5-3-6 5 1z"></path><path fill="#C4AE95" d="M142 194h-4l3-1 1 1zM135 196l-1-1 3-1-2 2zM102 205l1-1a75747 75747 0 0 1-1 1z"></path></svg><style>@media (prefers-color-scheme: light) { :root { filter: contrast(1) brightness(0.8); } }
@media (prefers-color-scheme: dark) { :root { filter: contrast(0.3846153846153846) brightness(4.5); } }
</style></svg>