<?xml version="1.0" standalone="no"?>
<!DOCTYPE svg PUBLIC "-//W3C//DTD SVG 20010904//EN"
 "http://www.w3.org/TR/2001/REC-SVG-20010904/DTD/svg10.dtd">
<svg version="1.0" xmlns="http://www.w3.org/2000/svg"
 width="300.000000pt" height="300.000000pt" viewBox="0 0 300.000000 300.000000"
 preserveAspectRatio="xMidYMid meet">
<metadata>
Created by potrace 1.10, written by Peter Selinger 2001-2011
</metadata>
<g transform="translate(0.000000,300.000000) scale(0.100000,-0.100000)"
fill="#000000" stroke="none">
<path d="M625 2959 c-91 -67 -95 -94 -24 -178 l50 -61 -11 -197 c-6 -109 -15
-254 -21 -321 -5 -68 -7 -127 -5 -131 3 -4 -15 -12 -38 -19 -24 -6 -57 -22
-72 -35 -16 -13 -49 -35 -74 -50 -25 -14 -71 -51 -104 -81 l-58 -55 4 -75 c4
-83 16 -104 81 -137 33 -17 55 -19 175 -17 l137 3 -4 -275 c-2 -151 -4 -313
-5 -360 l-1 -85 90 -5 c50 -3 103 -2 120 2 62 16 532 4 551 -14 3 -4 5 -89 3
-190 -1 -101 -3 -205 -2 -233 2 -138 2 -335 0 -372 l-2 -43 110 -5 c61 -3 180
-7 265 -10 85 -3 176 -6 201 -6 25 -1 51 1 58 5 6 4 96 7 200 7 l190 -1 5 43
c3 23 8 119 11 212 3 94 11 198 17 231 16 87 12 91 -69 92 -38 1 -82 6 -97 12
-44 16 -52 1 -38 -68 7 -32 12 -122 12 -200 l0 -142 -87 0 c-49 0 -94 4 -101
9 -17 11 -1 174 27 281 12 41 21 87 21 103 0 26 -1 27 -42 21 -24 -3 -53 -7
-66 -10 -13 -3 -36 3 -52 13 -16 9 -32 14 -36 10 -4 -3 -1 -54 5 -112 7 -63 9
-145 5 -205 -8 -109 -3 -103 -84 -114 l-45 -6 3 152 c1 84 3 183 5 220 2 61 0
68 -18 71 -11 1 -33 -1 -48 -6 -19 -6 -42 -6 -67 2 -67 20 -66 20 -58 -66 4
-43 12 -139 17 -213 7 -116 7 -137 -7 -152 -14 -17 -55 -16 -75 2 -8 7 9 741
19 801 l6 36 -84 7 c-135 11 -465 8 -543 -5 -67 -12 -106 -9 -131 8 -7 6 -9
93 -6 280 l4 272 42 7 c62 10 89 32 82 66 -4 21 -1 30 14 38 11 6 20 21 20 33
0 12 7 43 14 68 12 40 12 50 1 67 -12 16 -12 22 0 38 8 11 15 31 15 45 0 15 6
29 14 32 17 7 27 66 14 90 -8 15 -21 18 -86 17 -42 -1 -96 -1 -119 -1 l-43 1
0 343 c0 286 2 346 15 363 17 23 19 79 4 122 -7 22 -22 35 -50 46 -60 24 -108
19 -154 -15z m160 -24 c29 -28 32 -68 9 -114 -27 -54 -75 -65 -138 -33 -43 22
-66 78 -47 118 8 18 17 25 30 21 11 -2 32 4 48 14 38 26 69 24 98 -6z m-10
-513 l0 -337 -61 -3 c-53 -2 -62 0 -66 16 -3 10 1 99 8 197 7 98 14 240 16
316 l3 138 45 4 c25 2 47 4 50 5 3 1 5 -150 5 -336z m252 -369 c9 -24 -7 -28
-38 -11 -22 13 -29 14 -29 4 0 -8 9 -16 20 -19 39 -10 20 -27 -32 -28 -139 -3
-220 -15 -270 -41 -26 -14 -49 -18 -68 -14 -28 5 -43 -8 -18 -16 14 -5 -39
-85 -71 -108 -25 -17 -27 -30 -4 -30 9 0 35 20 57 45 27 29 45 42 54 36 9 -6
10 -15 3 -33 -6 -17 -6 -29 1 -36 6 -6 7 -21 2 -39 -4 -15 -8 -39 -9 -53 -1
-14 -2 -38 -3 -55 l-2 -30 -87 2 c-151 3 -211 25 -232 85 -21 60 -14 90 30
128 22 19 52 48 67 64 15 15 41 35 57 44 17 8 46 27 65 42 75 57 176 76 393
77 84 0 110 -3 114 -14z m-37 -107 c-1 -30 -22 -38 -146 -51 -71 -8 -132 -15
-135 -15 -4 0 -9 14 -11 31 -6 42 11 49 150 57 113 8 142 3 142 -22z m-305
-37 c9 -28 -9 -46 -29 -30 -12 10 -13 18 -5 32 13 25 26 24 34 -2z m279 -45
c8 -22 7 -52 -2 -58 -18 -11 -249 -17 -275 -7 -32 13 -46 39 -26 52 22 13 30
11 36 -11 3 -11 9 -17 14 -14 5 3 7 10 4 15 -9 13 12 19 106 28 129 13 136 12
143 -5z m-265 -106 c11 -28 6 -38 -20 -38 -14 0 -19 7 -19 30 0 36 26 41 39 8z
m264 2 c-9 -32 -24 -37 -134 -44 l-106 -6 -1 30 -1 29 72 3 c183 8 175 8 170
-12z m-35 -82 c7 -35 -21 -47 -126 -56 -91 -7 -107 -6 -133 10 -32 19 -32 19
-23 42 11 29 43 19 53 -16 l9 -33 7 33 c7 28 12 33 31 29 12 -2 27 -1 32 2 6
3 41 5 79 4 48 -1 69 -5 71 -15z m-123 -150 c0 -40 1 -77 3 -81 2 -5 3 -61 2
-125 -2 -65 -3 -152 -3 -194 1 -79 -3 -88 -25 -66 -7 7 -12 8 -12 2 0 -6 13
-20 28 -31 57 -42 78 -138 28 -131 -11 2 -26 13 -32 26 -18 36 -26 39 -22 8 3
-27 1 -29 -35 -31 -43 -3 -54 10 -55 66 -1 34 0 36 25 31 18 -3 24 -1 19 7 -4
6 -16 11 -27 11 -23 0 -25 23 -2 45 12 12 13 19 4 24 -9 6 -10 69 -6 252 2
134 5 247 5 252 0 4 24 7 53 7 l54 0 -2 -72z m516 -518 c8 -11 12 -12 16 -2 2
6 18 12 34 12 29 0 29 0 28 -60 -1 -44 -5 -60 -16 -60 -15 0 -63 47 -63 61 0
5 -4 9 -10 9 -15 0 -12 -21 5 -40 14 -16 -1 -17 -215 -17 l-230 0 0 26 c0 14
-7 38 -14 54 l-15 27 37 -5 c20 -3 80 -2 132 3 160 13 299 9 311 -8z m219 -10
c0 -11 4 -20 10 -20 5 0 6 7 3 17 -4 10 -2 14 5 9 14 -9 4 -76 -16 -98 -19
-22 -65 -23 -97 -2 -20 13 -25 24 -23 58 0 22 3 44 5 49 2 4 29 7 59 7 47 0
54 -2 54 -20z m14 -270 c-2 -80 -7 -219 -10 -310 -4 -91 -6 -180 -5 -199 1
-19 -4 -38 -10 -42 -7 -4 -1 -21 20 -49 26 -36 29 -46 18 -58 -10 -13 -9 -14
3 -10 16 5 18 34 6 85 l-7 32 31 -10 c20 -8 43 -8 68 -2 21 5 62 8 92 7 115
-6 188 -6 284 2 96 7 99 7 117 -17 10 -13 19 -39 19 -57 0 -20 4 -31 10 -27
14 9 12 72 -2 78 -35 12 16 22 115 22 l112 0 0 -58 c0 -33 -4 -62 -10 -65 -5
-4 -91 -8 -190 -10 -99 -1 -250 -3 -335 -5 -85 -1 -186 1 -225 5 -38 4 -85 9
-103 10 -25 2 -37 9 -48 30 -8 15 -19 28 -24 28 -13 0 -13 -13 1 -27 16 -16 2
-32 -22 -26 -19 5 -20 10 -14 47 4 23 7 59 7 81 -1 365 -1 485 2 510 2 17 4
41 4 55 2 23 5 26 36 22 20 -2 37 1 41 9 6 9 1 10 -20 5 -36 -9 -65 16 -65 59
l0 31 54 0 55 -1 -5 -145z m202 -139 l41 -1 -4 -192 c-4 -193 -7 -207 -41
-208 -10 0 -11 27 -6 133 10 186 10 207 -1 207 -5 0 -11 -24 -11 -52 -6 -247
-9 -288 -24 -286 -12 3 -15 20 -16 78 0 41 -4 132 -9 202 -8 121 -7 127 11
123 10 -2 38 -4 60 -4z m294 -9 c42 2 50 0 50 -14 0 -10 -4 -18 -10 -18 -5 0
-10 -21 -10 -46 0 -25 -5 -55 -11 -66 -7 -12 -12 -68 -13 -124 0 -56 -4 -105
-7 -109 -4 -3 -23 -9 -43 -12 l-37 -6 8 44 c10 57 9 248 0 318 -7 48 -6 53 7
42 9 -8 35 -12 66 -9z m359 -12 l43 0 -7 -57 c-4 -32 -9 -76 -10 -98 -9 -143
-18 -211 -28 -217 -7 -5 -30 -7 -52 -6 l-40 3 -3 160 c-1 88 -7 175 -12 194
l-9 33 37 -6 c20 -3 57 -6 81 -6z"/>
<path d="M700 2895 c-16 -20 -6 -45 19 -45 25 0 34 14 26 40 -8 24 -28 26 -45
5z"/>
<path d="M693 2310 c-1 -36 3 -60 9 -60 6 0 5 -6 -2 -15 -14 -16 -8 -31 8 -21
11 6 15 110 6 139 -10 34 -19 16 -21 -43z"/>
<path d="M686 2141 c-13 -14 -14 -21 -6 -26 13 -8 30 11 30 33 0 16 -4 15 -24
-7z"/>
<path d="M734 1557 c-2 -7 2 -26 10 -42 13 -24 16 -26 22 -12 8 22 -3 67 -17
67 -5 0 -12 -6 -15 -13z"/>
<path d="M731 1430 c-2 -64 6 -91 19 -69 5 7 6 27 3 44 -3 18 0 41 6 53 8 16
7 21 -5 26 -9 3 -17 6 -18 6 -2 0 -4 -27 -5 -60z"/>
<path d="M1158 993 c-16 -2 -28 -9 -28 -15 0 -5 7 -7 16 -4 9 3 34 6 57 7 33
0 38 2 22 9 -21 9 -25 9 -67 3z"/>
<path d="M917 973 c-9 -8 12 -33 28 -33 6 0 20 9 30 20 16 17 16 20 2 20 -8 0
-18 -6 -20 -12 -4 -10 -6 -10 -6 0 -1 13 -23 17 -34 5z"/>
<path d="M1500 708 c0 -46 16 -69 21 -32 6 36 0 64 -12 64 -5 0 -9 -15 -9 -32z"/>
<path d="M1505 618 c-4 -13 -7 -27 -6 -31 1 -5 2 -43 3 -85 2 -51 7 -82 16
-92 13 -12 14 -11 8 6 -3 11 -7 66 -7 122 -1 56 -3 102 -4 102 -1 0 -6 -10
-10 -22z"/>
<path d="M1490 304 c0 -21 4 -33 10 -29 6 4 8 10 5 15 -3 4 1 11 7 13 10 4 10
6 1 6 -7 1 -10 8 -7 16 4 8 1 15 -5 15 -6 0 -11 -16 -11 -36z"/>
<path d="M2283 139 c3 -12 2 -32 -3 -45 -7 -18 -6 -24 4 -24 26 0 35 74 10 84
-13 5 -15 2 -11 -15z"/>
<path d="M1663 127 c4 -10 7 -20 7 -23 0 -2 7 0 17 3 11 4 14 3 9 -5 -4 -8 -1
-12 10 -12 10 0 14 3 11 7 -4 3 -1 13 6 21 10 13 8 14 -11 8 -14 -5 -29 -3
-39 6 -15 11 -16 11 -10 -5z"/>
<path d="M2062 107 c23 -26 38 -27 38 -1 0 8 -6 14 -14 14 -8 0 -22 3 -30 6
-12 4 -10 -1 6 -19z"/>
<path d="M1777 98 c-7 -4 4 -8 23 -9 49 -2 74 1 84 11 10 10 -91 8 -107 -2z"/>
<path d="M1915 90 c3 -5 17 -10 30 -10 13 0 27 5 30 10 4 6 -8 10 -30 10 -22
0 -34 -4 -30 -10z"/>
<path d="M2035 518 c-8 -27 -14 -278 -6 -278 5 0 11 55 14 123 3 67 9 132 12
145 5 14 3 22 -4 22 -6 0 -13 -6 -16 -12z"/>
<path d="M2365 510 c-4 -6 -2 -16 3 -23 10 -12 8 -124 -3 -184 -4 -25 -2 -33
8 -33 10 0 15 13 17 43 1 23 3 79 5 125 3 64 1 82 -10 82 -8 0 -17 -5 -20 -10z"/>
<path d="M1779 2543 c0 -5 0 -30 0 -58 1 -27 -6 -102 -15 -165 -20 -146 -20
-150 -11 -244 l8 -78 -48 34 c-44 32 -83 50 -297 139 -143 60 -222 112 -252
164 -18 31 -27 10 -14 -30 8 -23 27 -47 53 -66 23 -16 47 -43 54 -60 30 -73
234 -265 329 -312 24 -11 44 -25 44 -29 0 -4 -23 -8 -51 -8 -62 0 -176 -37
-255 -83 -32 -19 -70 -38 -84 -42 -14 -4 -50 -20 -80 -35 -30 -15 -79 -36
-107 -46 -55 -19 -71 -44 -28 -44 13 0 40 9 59 19 28 16 41 18 77 9 24 -5 78
-7 119 -3 41 3 91 6 110 6 52 -1 177 19 221 34 22 8 39 12 39 10 0 -3 -17 -22
-38 -43 -54 -54 -94 -115 -131 -200 -59 -135 -108 -208 -198 -297 -27 -27 -28
-31 -7 -39 10 -4 23 3 34 17 10 13 51 40 92 61 104 54 262 169 339 248 l67 67
6 -52 c12 -89 74 -254 121 -323 24 -36 51 -90 60 -122 9 -31 18 -65 21 -75 3
-9 14 -17 25 -17 21 0 21 6 -6 96 -8 27 -9 58 -4 90 15 91 22 327 11 384 -6
30 -9 57 -6 59 2 2 20 -9 40 -25 72 -57 169 -124 189 -130 31 -10 99 -41 223
-101 83 -41 121 -65 144 -94 27 -34 37 -39 72 -39 l41 1 -32 14 c-17 7 -39 28
-49 46 -9 18 -38 56 -64 83 -26 28 -62 74 -80 101 -19 28 -63 77 -99 110 -36
33 -90 84 -121 112 -30 29 -84 67 -120 85 l-65 32 100 7 c109 7 197 27 290 66
62 26 90 29 156 18 30 -5 39 -4 39 8 0 10 -28 20 -97 35 -54 11 -141 32 -193
46 -65 18 -125 27 -187 29 -51 1 -93 4 -93 7 0 3 25 38 55 78 86 115 111 187
119 345 4 85 -6 116 -19 58 -4 -19 -16 -33 -35 -41 -43 -18 -125 -118 -263
-322 l-25 -38 -7 63 c-11 98 -62 230 -119 306 -21 28 -26 46 -26 92 0 32 -3
64 -6 73 -6 16 -23 22 -25 9z m71 -259 c0 -5 9 -29 20 -52 33 -69 61 -208 56
-281 -2 -36 -5 -67 -5 -69 -1 -1 -10 2 -22 8 -14 8 -29 8 -50 1 -29 -10 -31
-9 -49 32 -24 54 -29 238 -9 351 l13 78 23 -28 c13 -16 23 -34 23 -40z m430
29 c-16 -88 -54 -199 -74 -215 -12 -10 -17 -18 -12 -18 5 0 3 -8 -5 -17 -14
-18 -19 -26 -61 -102 -11 -20 -24 -41 -29 -47 -8 -10 -116 -54 -133 -54 -17 0
0 120 18 120 6 0 25 24 41 52 29 50 132 182 189 243 16 17 35 40 43 53 22 33
31 27 23 -15z m-880 -163 c109 -48 206 -94 235 -112 11 -7 33 -22 50 -33 16
-11 36 -19 42 -17 7 2 13 -4 13 -12 0 -8 6 -19 13 -23 18 -11 27 -49 20 -84
-4 -23 -11 -28 -47 -32 -50 -5 -104 25 -211 117 -119 102 -265 260 -224 243 8
-3 57 -24 109 -47z m965 -280 c115 -27 165 -43 165 -51 0 -4 -51 -23 -112 -43
-98 -31 -131 -36 -248 -41 -74 -3 -151 -2 -170 3 -33 8 -35 10 -32 48 4 46 22
62 101 86 76 22 198 22 296 -2z m-437 -17 c36 -48 -8 -123 -72 -123 -42 0 -73
38 -72 89 1 29 6 35 36 46 43 16 91 11 108 -12z m-155 -94 l26 -46 -77 -21
c-103 -27 -210 -45 -307 -49 -44 -2 -120 -5 -170 -8 -49 -3 -83 -2 -75 2 8 3
29 16 45 28 17 13 41 26 55 30 14 4 48 18 75 30 96 42 221 76 305 84 47 4 88
5 92 2 3 -4 18 -27 31 -52z m185 -111 c12 -46 24 -99 27 -118 2 -19 9 -55 14
-80 20 -93 10 -375 -13 -367 -6 2 -11 12 -11 23 0 20 -1 22 -40 71 -14 17 -32
46 -39 65 -17 40 -47 152 -52 193 -8 57 -3 208 7 226 5 10 8 23 7 29 -2 9 39
31 72 39 3 0 16 -36 28 -81z m92 58 c15 -1 39 -12 55 -24 15 -12 31 -22 36
-22 8 0 60 -33 89 -57 105 -85 240 -217 240 -233 0 -5 20 -30 45 -56 25 -25
45 -50 45 -56 0 -5 -38 11 -84 36 -46 25 -106 53 -132 62 -27 9 -56 22 -64 28
-8 7 -36 23 -62 36 -25 13 -79 50 -119 82 -68 54 -75 64 -105 139 l-32 80 30
-7 c17 -3 43 -7 58 -8z m-227 -30 c-4 -5 -7 -33 -9 -60 -1 -28 -2 -63 -3 -78
-2 -51 -155 -195 -330 -312 -82 -55 -111 -65 -78 -28 10 10 17 23 17 29 0 6 9
22 20 35 11 14 36 59 56 99 81 162 191 297 261 319 21 7 42 16 47 21 12 11 27
-11 19 -25z"/>
<path d="M1817 2233 c-7 -11 18 -287 27 -301 13 -22 26 -12 21 16 -3 15 -7 68
-9 117 -7 140 -20 200 -39 168z"/>
<path d="M2138 2148 c-14 -18 -36 -58 -50 -88 -15 -30 -38 -72 -53 -94 -14
-21 -23 -41 -20 -45 10 -10 53 48 87 119 18 36 42 79 55 96 13 17 23 34 23 37
0 16 -20 4 -42 -25z"/>
<path d="M1486 2041 c-7 -11 60 -72 176 -161 31 -24 48 -26 48 -5 0 8 -5 15
-10 15 -20 0 -77 44 -92 70 -8 15 -36 41 -62 58 -52 35 -53 36 -60 23z"/>
<path d="M2369 1830 c-14 -8 -92 -15 -283 -24 -29 -2 -52 -8 -54 -15 -3 -10 9
-11 49 -7 30 3 110 8 179 11 69 3 129 10 134 15 15 15 -6 31 -25 20z"/>
<path d="M1858 1822 c-11 -2 -18 -13 -18 -28 0 -20 5 -24 30 -24 23 0 30 5 30
19 0 23 -19 39 -42 33z"/>
<path d="M1658 1765 c-2 -2 -46 -10 -98 -19 -103 -18 -159 -33 -175 -48 -12
-11 55 -2 136 18 31 8 77 14 101 14 24 0 52 6 63 13 17 13 17 14 -3 19 -11 3
-22 4 -24 3z"/>
<path d="M1896 1613 c4 -14 7 -40 8 -56 1 -17 6 -32 13 -34 12 -4 12 84 -1
105 -13 22 -27 13 -20 -15z"/>
<path d="M1916 1502 c-8 -13 -4 -72 6 -78 4 -3 8 -14 8 -24 0 -19 29 -55 37
-46 2 2 -3 25 -11 50 -9 26 -16 60 -16 76 0 28 -13 40 -24 22z"/>
<path d="M1927 1334 c-7 -8 1 -54 13 -67 3 -4 15 -4 26 0 16 6 18 14 13 38 -4
17 -7 22 -8 13 -1 -24 -16 -23 -27 3 -5 11 -13 17 -17 13z"/>
<path d="M2075 1631 c-9 -15 9 -43 46 -71 17 -14 41 -33 52 -42 11 -10 24 -18
28 -18 4 0 14 -6 21 -13 22 -21 147 -117 153 -117 12 0 3 21 -15 37 -21 19
-28 39 -8 27 7 -4 8 -3 4 4 -4 7 -13 12 -19 12 -7 0 -28 13 -47 30 -19 16 -41
29 -48 30 -21 0 -52 23 -107 78 -30 30 -56 49 -60 43z"/>
<path d="M1703 1548 c-22 -35 -44 -70 -49 -79 -5 -9 -28 -38 -51 -64 -41 -45
-52 -65 -35 -65 14 0 67 61 117 135 26 39 58 82 71 96 23 25 23 39 -1 39 -6 0
-29 -28 -52 -62z"/>
</g>
</svg>
