<svg version="1.0" xmlns="http://www.w3.org/2000/svg" width="665.3" height="805.3" viewBox="0 0 499 604"><g fill="#e69138"><path d="m74 2-7 5c-17 12-19 18-7 31l9 11 2 4-1 13a765 765 0 0 0-6 84v18l-1 2c-11 3-14 5-19 8l-13 9c-11 6-27 20-28 26-6 15 0 31 13 38l6 3h50a663 663 0 0 1-2 116c1 17 0 16 20 15a1668 1668 0 0 1 90-1c19 0 28 2 29 4 2 3 2 18 0 52-1 26 0 35 1 44 2 7 2 8 1 11-2 5-2 11-1 18 2 5 2 6 0 12-4 10-2 17 2 15 5-1 18 0 37 2a269 269 0 0 0 60 2c9 1 10 1 15-1s6-2 29-2h43l1-11a647 647 0 0 0 2-48l1-16 2-16c2-9 0-16-4-15-7 2-18 2-26 0-10-4-12-1-8 10l2 34v29l-9 1-26-2c-1 0-2-1-1-4l1-16 4-20 6-32v-2h-8l-12 2c-3 1-4 1-9-2s-8-3-8 0l2 20c2 16 2 20 1 31l-1 18c0 5 0 5-3 5l-18 3c-2 0-1-75 0-78 1-2-7-3-14-1h-9l-9-2h-4l1 9 2 19a274 274 0 0 1 2 43l1 8-3 2c-3 2-4 2-9 1l-5-1v-40l1-35c0-24 1-61 3-68 2-8 1-11-3-11a871 871 0 0 0-131-1l-4-1v-17l1-50v-33l7-1c5 0 9-2 12-4l4-2v-6c-1-5-1-5 2-7s4-2 4-7l3-13c2-6 2-7 0-9-3-4-3-5 0-9 2-4 3-5 3-8-1-2-1-3 2-5 4-3 5-12 3-17l-2-3H99v-62l1-63c6-3 7-19 2-28-3-6-21-11-28-8zm17 7c10 5 11 22 0 30-4 3-14 3-19 0-2-2-4-3-5-2-2 0-3-2-3-5l-2-6c-3-4 0-12 6-12 2 0 5 0 8-2 8-5 9-6 15-3zm1 50 1 14v5l-1 2v86h-8l-1-1-2 1c0 1-4 2-7 1-4 0-6-3-3-3l2-1 4-1c2 0 3-1 3-2l1-5v-4c-2-1-3-5-2-6l1 2c1 5 4 4 4-1l-1-22c1-6 1-6-2-9s-3-5 0-5c2 0 2 0 1-4v-8c2-4 2-15 2-26l1-4 1-5 1-7c1-5-5-6-6-2-2 6-2 19-1 20v2a643 643 0 0 1-6 82l-3 4c-2 1-2 0-1-16a374 374 0 0 0 2-23l1-20 2-22V46l8-1h9v-1 15zm29 111h2l3 3 3 3c2 0 5 2 5 4 0 1-4 2-17 2a93 93 0 0 0-23 2c-8 1-15 3-20 6s-6 3-10 2l-5-1c-2 0-1 2 0 4 2 2 2 2-1 6l-3 4-7 8c-5 4-6 6-5 7 2 2 13-4 14-9l7-7c3 0 4 2 2 7-1 5-1 5 1 8l2 2-2 5c-1 4-2 6-1 7v6l-1 7v3H49l-23-1h-2l-8-4-2-1c-4 0-9-10-9-18 0-7 0-8 7-14a2584 2584 0 0 0 24-21l8-5 3-2 4-2c1-2 4-3 5-3l9-4 13-3h13l8-1h22zm17 1c2 2 2 3 0 4-3 1-11-2-11-5 0-2 10-1 11 1zm-8 18c4 7 0 10-15 11l-20 2c-17 2-16 2-15-2l-1-5c-2-4 6-6 27-8h10c1-2 13 0 14 2zm-54 8c3 5-1 9-5 6-2-1-3-3 0-6 1-3 4-3 5 0zm51 9c3 11 2 12-17 13-25 1-29 1-31-1l-4-1c-4 0-6-7-2-8 4-2 6 0 6 4 0 3 2 2 3-1 1-5 3-5 19-7l13-1c12-1 12-1 13 2zm-1 16v3c1 6-10 9-28 8l-7 1c-7 1-8 1-8-4 1-6 0-6 13-7a170 170 0 0 0 30-1zm-47 4c2 4 1 7-4 7-2 0-2 0-2-6-1-6 3-7 6-1zm32 12c11 0 11 0 8 6-2 5-6 6-29 6l-8 1c-2 1-3 0 0-4l1-6c0-3 4-4 8-2h2c0-1 5-3 6-2l12 1zm-34 2c2 2 2 9 0 10-1 0-6-2-7-4-3-5 4-11 7-6zm22 16v28l1 2a460 460 0 0 0-2 62c1 6 0 7-2 5-2-3-5-2-5 0l4 4c5 2 11 9 12 14l1 4v1l-1 3c-1 3-10 2-10-2 0-1 1-2 3-2s3-3 0-6l-9-13h-3c-4 1-5 3-2 3 4 0 6 3 5 5l2 2c2 0 3 1 3 4 0 4-1 4-3 0l-2-2v3l2 6c0 3 0 3-2 3h-7c-4 1-7-1-7-3l-1-8v-6h3l3 1h2c2-1-3-5-5-4-2 0-2-1-2-4 0-5 1-6 7-5l4-1-2-2-6-1-2-2v-9a1226 1226 0 0 1 1-42v-39l11-1c9 0 10 1 9 2zm68 103c18-1 27 0 24 4l-1 2c0 2 0 2-1 1l-10-2-9-1-14 4c0 2 0 2 4 1h29l-1 3 2 5 3 3h-58c-22 1-25 0-24-3l-2-9c-3-7-3-7-1-6h11l8 1h5c2-2 7-2 14-3h21zm62 1 2 3c0 2 1 4 3 5 6 5-2 17-11 15-12-2-14-6-12-22l13-2 5 1zm-23 9v11c1 2 1 3-5 0-4-2-5-3-8-9-2-4 3-11 8-11h5v9zm29 21c0 6-1 12-2 11l-5 1c-7 1-11-2-12-8l-1-6c0-2 0-2 7-1l10-1c3-2 3-1 3 4zm-8 16 4-1 2-1a805 805 0 0 1-1 92l-1 16-3 1-6 1h-3c0 2 4 3 6 2 1-2 5 0 7 3s1 4-2 2l-2-1c-2 0-1 7 0 8h5l-1-1-3-2v-1l4-1c3-1 6 6 4 9s-5 4-7 2h-1c0 2-2 1-3-2-1-4-5-8-6-7-1 0-1 4 1 5v5c-7 0-9-4-5-13v-21a481 481 0 0 0 0-48c1-1 0-11-1-14v-3l2-12v-21l3 2 7 1zm33 32c2-2 19-1 18 2v10a559 559 0 0 1-4 59c-5 3-7 0-5-13a342 342 0 0 0 2-48c-4-2-5 0-5 10a182 182 0 0 1-1 39v9c0 4-2 6-5 3v-33a128 128 0 0 1-2-38h2zm60 1h9c4 0 5 2 2 6l-1 10c0 6-1 8-2 9l-2 8v6l-1 18 1 3c2 5-2 10-8 11-8 1-8 1-7-8l2-13v-10c1-3 0-11-1-17-2-23-2-25 0-24l8 1zm67 2 9 1 1 4-1 6-1 11a334 334 0 0 1-6 46c-3 2-15 1-16-1-2-3-2-13 0-15v-7l-1-4v-20c-1-2-1-3 1-4v-1l-1-4-2-7c-1-5 0-6 4-5h13zm-108 73c4 1 13 2 17 1h4c1 1 4 0 11-1 16-3 33-2 33 2l2 3c2 2 2 3 2 8-1 6 1 7 3 3 3-5 2-10-1-12l-2-3 21-2c12 0 13 0 13 2l2 2v-1c-1-2 0-3 4-3 3 0 3 0 3 5s-1 6-3 2c-1-3-2-2-1 3 0 4 0 4 2 2 1-1 1-1 1 4 0 7-1 8-14 8-6 0-7-1-7-2h-1c-2 2-2 2-7 1h-10l-5-1-2-1-1 1-5 1c-7 0-19 2-20 3-2 1-6 0-5-1l-2-1-5 1h-17c-45-1-54-2-50-5l3-2-3-9c-2-10-2-9 2-8l7 2c3 1 5 0 7-1l9-1 7-1 9 1z"/><path d="M80 18c-5 5-1 10 6 9 3-1 3-7 0-9-2-3-3-2-6 0zM28 211l-2 3h-2l5 4c2 0 3-2 1-2v-7l-2 2zM34 210c-2 2-2 6-1 6 2 0 4-5 2-6h-1zM18 217l2 4v-6l-2 2zM54 235c-1 1 1 5 3 5v-4c-1-2-3-3-3-1zM39 238l2 2 2 1h1v-3c0-3-5-3-5 0zM87 259c-2 1-3 5-2 8l1 3-2 20c-1 5 0 7 2 9 2 3 2 6-2 8-3 2-3 2-2 5v13c0 10 0 10 2 10s2 0 1 1c-2 2-1 3 2 1 3-1 3-1 3-7l-1-30c0-11 1-19 2-20 4-5 1-23-4-21zM81 372c0 2 5 4 6 4l-1-3c-1-2-5-3-5-1zM138 367h-10c-9-2-13 1-9 6 3 2 9 2 9 0 0-3 7-4 16-4 8 0 10-1 11-2h-1l-2 1c-2-2-10-2-15-1zM224 368c-3 2-2 4 1 4 4 1 5 1 3-2-1-3-2-3-4-2zM199 368l-2 1-1 1c0 2 1 2 3 1l1-3h-1zM221 392c1 3 5 5 7 3s0-4-4-5c-3 0-3 0-3 2zM226 410l-1 9-1 9v3l-1 3v3l1 5v10l-1 8v23c-3 11-2 13 1 13 2 0 3-1 3-2l1-3v-3c-1-2-1-2 1-3v-2h-2l-1-2 1-3 1 1c1 3 2-5 1-14v-10l-1-8v-7c2-1 2-30 0-31l-3 1zM321 451l-1 16a103 103 0 0 1-1 21v14c2 1 3-2 3-6l1-7v-3l-1-4 2-14a56 56 0 0 1 2-16c0-4-4-4-5-1zM381 451v5c2 2 3 7 2 9-1 1-1 2 1 3v4l-1 8-2 11c0 6 0 6 2 6 3 0 4-8 2-13v-3c3-3 5-22 2-27l1-2 1-1h-8zM380 504c0 2 1 2 2 2l1-2c0-2-2-2-3 0zM365 517l1 3c2 3 2 6-2 11-3 4-3 4 2 2 7-2 9-14 2-16h-3zM291 519c-5 0-5 2-1 2h5l2-1c0-2-1-2-6-1zM253 520c-1 2 1 6 4 8s7 3 7 1c0-1 7-2 9-1 3 3 20 1 23-1 1-1-1-2-15-1l-17-1 1-1 2-2 1-1-7-1h-8zM298 520l2 1h4c0-1-1-2-3-2l-3 1zM312 521c-2 0-3 2-1 3l5-1c5-1 9 1 11 4s5 4 6 1l1-2c4-3-12-7-22-5z"/><path d="M316 526h-13l-4 1c0 2 4 4 8 3l14-1c4 0 5-1 2-2l-4-1h-3zM276 83c-1 1-2 2-1 7s0 22-2 26l-1 14-2 15c-1 2-2 4-1 6l2 15 1 13c0 3-1 2-9-3-7-5-19-11-28-15-3 0-9-3-14-6l-11-5c-12-2-41-20-44-26-3-5-8-7-7-3l2 4c1 6 3 9 10 13 5 4 7 6 9 12 9 16 46 50 65 58 6 3 5 4-4 4-13 0-33 6-48 16a93 93 0 0 1-21 9l-6 3-14 6c-15 6-17 7-18 9 0 3 9 3 16-1l5-3 9 2c11 2 24 3 30 0l12-1c11 0 25-2 36-5 11-4 12-3 6 2-11 9-22 26-31 48a131 131 0 0 1-33 47c-4 2-4 3 0 5l3 2 4-5 7-6c16-6 60-37 74-54 9-10 9-10 9 0 2 16 13 47 21 59 8 11 11 17 16 36 1 4 1 4 5 4s4 1 0-13c-3-9-3-13-3-17 6-46 6-54 3-76-1-10-2-10 7-3a206 206 0 0 0 67 38l23 11 7 6c8 10 9 11 15 11 7 0 10-1 4-3l-5-1-6-8c-2-5-7-11-10-14l-14-18c-7-9-11-14-25-27-27-24-28-25-38-30-12-5-12-6-4-6 21 0 43-5 64-13l13-5 8 1 11 2c3 0 3 0 3-2-2-4-1-4-15-6l-31-8c-24-6-30-7-46-7h-13l2-2 11-15c14-20 19-34 19-59 1-20 0-23-3-11a229 229 0 0 0-59 71l-1-12c-2-17-11-40-23-57l-4-6v-8c1-13 0-17-4-15zm8 39 4 8 2 6c5 10 9 22 10 32l1 7v22c2 5-2 8-5 4-2-2-5-1-6 0-9 7-14-4-15-33l1-31 3-11c0-9 1-9 5-4zm83 0-1 4-1 3-6 21-2 7-4 7-2 3-2 3-4 8-4 7-2 3c-5 10-6 11-15 14l-9 3c-7 3-7 3-7-4l2-9 1-5 2-2c1 0 3-2 4-5a163 163 0 0 1 25-33l5-7 3-3 3-4 11-13 2-1 1 3zm-177 25 5 3 13 5 12 6 8 3 10 5 8 4 5 3 4 3 3 2 4 2c2 2 2 2 3 1 1-2 3 0 3 2l2 4c4 2 7 12 5 14l-2 4c-1 4-14 5-18 2l-4-2-2-2-5-3-15-12-13-11c-3-2-11-9-16-16l-7-7-4-4-2-4c-3-3-1-4 3-2zm183 56a141 141 0 0 1 28 8c12 3 13 5 4 7l-6 2-20 6-4 1c-5 3-57 5-63 2l-3-2 1-7c0-8 4-11 15-14l6-2 5-1 7-1c5-1 23 0 30 1zm-77 1 2 1c5 0 8 11 5 18s-16 11-20 6c-5-4-7-8-7-11v-4c-1-3 0-6 4-7l8-2c7-2 7-2 8-1zm-25 15 2 5 3 5c3 5 2 6-3 6l-16 5-5 1-9 1-18 3-26 1c-8-1-16 0-16 1 1 1-15 2-16 0-1-1 12-9 15-9 1 1 2 0 1-1l2-1 8-3 7-3 3-2 4-1c4 0 8-1 15-4l7-3 5-1c1-1 7-2 23-3l10-1c1 0 3 1 4 4zm33 14 2 5c2 5 6 25 6 32l2 7 2 4c-1 1 0 6 1 10v11l1 5v4l-1 6v6l-2 14v12c-2 1-4-3-4-5 1-3-1-9-3-9l-1-1-2-3c-5-3-11-15-13-24l-2-9-2-13-2-8v-4l1-15a68 68 0 0 1 2-19c0-4 1-5 3-4l6-2c4-2 5-2 6 0zm13 1 7 1c1-1 3 0 8 3l11 6 4 3 3 2 6 5 4 3 6 4 7 7c2 1 3 3 2 3l3 2 7 5 2 4 5 3 1 1c0 2-8 0-13-3l-3-2c-2 0-12-6-14-9l-3-2c-1 1-3 0-5-1l-5-2-2-2-6-6-6-7c-2-4-6-5-7-3-1 3-1 3 7 12l8 6 3 3 3 2 7 4 10 8 10 8c5 5 9 5 7 1s-1-4 3-2h5c1-2 2-2 4 0l3 2 1 3 2 5 5 5c0-2 2-1 6 5s4 9 0 5l-3-2-5-3-6-3-2-1-3-1-4-2-8-4-8-4-3-1-5-2c-1-2-3-3-5-3l-2-1-7-4-6-4-4-3-12-9-8-6c-2-1-3-3-3-5l-8-19c-3-7-3-7 6-5zm-34 3v4l-2 14c0 15-3 21-17 33l-5 5a213 213 0 0 1-44 33c-8 6-13 7-8 2l3-6 5-8 4-6 4-6 3-7 3-7 3-6 4-5 3-6c0-1 1-3 3-3l2-3 6-8 5-7 2-1 4-3c4-4 10-7 13-7l5-2c2-2 3-2 4 0z"/><path d="M283 139c-2 2-2 3-1 5l2 32c0 7 2 17 3 19 4 4 5-5 2-26v-16l-2-9c0-6-1-8-4-5zM343 151l-4 5-10 18-10 17c-2 2-2 5 0 5 1 0 12-12 12-14l4-9 4-9 3-4c2-2 7-10 7-12 0-1-4 0-6 3zM221 174c-2 0-2 1 5 7 5 3 8 7 8 8l2 1 3 2 3 3 4 2c0 2 3 3 5 4l6 5c2 2 2 2 5 1 2-1 2-3 0-4-9-5-15-10-16-12-2-5-10-12-14-14l-6-3h-5zM380 213c-3 1-23 3-36 3-27 1-24 1-24 4 0 2 0 2 3 2l21-2c12 0 17-1 17-2 1-1 2-1 4 1h13c5 0 6 0 8-2 4-4 0-6-6-4zM291 214l-3 1c-4 0-2 7 2 8 6 2 7 1 7-4 0-4-5-8-6-5zM249 225a952 952 0 0 1-44 10l-3 1c-1 2 3 2 8 1l9-2 9-1c4-2 9-3 21-4 9 0 17-4 12-5h-12zM295 249c2 4 2 8 2 13s1 6 2 7c3 1 4-1 3-5v-6c1-2 0-5-2-9-2-2-5-3-5 0zM300 272c-2 1-1 14 1 15 1 0 2 1 2 3 0 4 3 10 3 8h1c0 2 3 4 4 3l-4-11-1-8c-2-11-2-12-6-10zM302 303c-1 1 0 8 2 11 1 2 6 2 8 0 1-1 0-10-2-10v3l-1 2-2-2-2-2-1-1c0-2-1-2-2-1zM268 253l-3 6-5 6-2 4-1 2-4 5c-1 4-4 7-12 16-5 5-7 10-3 10a84 84 0 0 0 19-24l9-13 2-3 7-7c0-3-4-4-7-2z"/></g></svg>