<svg xmlns="http://www.w3.org/2000/svg" width="1000" height="1000"><path d="M775 240c0 44-38 80-85 80s-85-36-85-80 38-80 85-80c43 0 79 30 84 71M410 240a85 80 0 11-1-9" fill="#fea"/><path d="M550 602c175 205 454 41 340-170 8 7 33-14 30-10 124 364-378 364-450 190-10-26 20-9 80-10z" fill="#fea"/><path d="M840 292c81 91-74 118 80 170 114-73-84-192-80-170z" fill="#a05a2c"/><path fill="#fc0" d="M759 247c0 37-31 67-69 67s-69-30-69-67 31-67 69-67c35 0 64 25 68 59M405 250a73 70 0 110-8"/><path d="M580 860c3-69-64-226-60-300 29 0 51-22 80-20 1 0 180 286 180 290-36 3-173 36-200 30z" fill="#fea"/><path d="M280 810l130-280c1-1 109 29 110 30s-79 290-80 290c47 3-127-12-160-40z" fill="#fea"/><path d="M450 390a30 30 0 10-60 0 30 30 0 0060 0zM620 390a30 30 0 11-60 0 30 30 0 0160 0z" fill="#fff"/><path d="M620 392c-413 405-207 203 0 0z" fill="#ffb380"/><path d="M435 389a15 15 0 11-30 0 15 15 0 0130 0zM604 389a15 15 0 11-30 0 15 15 0 0130 0z"/><path d="M540 710c27-95-3-28-40-20-86 18 0-75-60-80-50-14-80 140-165 54-21-21 28-78 15-104-8-29-50-12-60-40-10-26 0-45 10-50 22-10 26-21 30-40 3-25-43-39-50-70-6-26 27-45 20-80-8-45 78 39 68 5-6-23-23-67-18-75 22-26 68-39 80-30 27 21 31 54 50 30 19-31-96-73 50-90 61-8 35 121 70 100 19-11-39-67 55-88 68-13 76 36 45 58-19 14-6 29 0 40 68-3-2-65 80-50 121 22-42 94 10 110 22 14 57-82 70-50 17 25-2 81-60 130-2 39 50 9 70 10 44 1-50 87-80 80-1 19 48 33 60 60 27 63-27 67-80 30-54-7-9 71 30 60 32-9 8 93-80 20-58-34-52-28-20 30 11 43-85 65-100 50z" fill="#a05a2c"/><path d="M340 490c-55-93-8-157 0-170 10-16 69-92 130-10 32 24 62 10 70 0 59-75 109-19 130 10 26 48 25 93 10 140-9 47-65 104-170 110-71 0-120-8-170-80z" fill="#fc0"/><path d="M440 412c-16 12-40 2-56-22-15-24-15-53 0-64s40-1 56 22c15 24 15 53 0 64z" fill="#fea"/><path d="M445 385a25 25 0 11-50 0 25 25 0 0150 0z"/><path d="M610 327c17 9 21 36 8 61-12 24-37 37-54 28-18-9-21-36-9-61 13-24 37-37 55-28l-23 45z" fill="#fea"/><path d="M605 385a25 25 0 11-50 0 25 25 0 0150 0z"/><path d="M445 530c-45-4-62-83-5-90 2-44 93-82 120 0 65 13 34 97-10 90-14 12-50 26-105 0z" fill="#fea"/><path d="M420 480c17-61 161-58 160 0 5 58-149 67-160 0z" fill="#fff"/><path d="M460 440c14-6 36-24 75 0-1 29-13 56-35 60-24-3-35-25-40-60z" fill="#784421"/><path d="M475 510c0 2 26 15 25-10 0 19 14 18 26 11-14 8-15 4-26 4-9-1-11 7-25-5z" stroke="#000" stroke-width="1.4"/><path d="M455 850c0 52-51 95-115 95s-115-43-115-95 51-95 115-95c58 0 107 36 114 84M807 845c0 52-52 95-117 95s-117-43-117-95 52-95 117-95c64 0 116 42 117 94" fill="#fc0"/><path d="M300 850c-18-16-54 2-40 70l20 10c-35-50-10-83 20-80zM360 860c-18-16-54 15-40 83l20 2c-35-50-10-88 20-85zM720 850c18-16 54 2 40 70l-20 10c35-50 10-83-20-80zM640 850c18-16 54 22 40 90l-20-3c35-50 10-90-20-87z" fill="#a05a2c"/></svg>