<svg xmlns="http://www.w3.org/2000/svg">
  <symbol id="1" viewBox="0 0 300 103">
  	<path d="M134 1.2c0 .8 4.1 1.2 10 .9 3.9-.2 13 3.4 13 5.1 0 .7-.5.7-1.2.1-.7-.5-2.9-1-4.8-1.1l-3.5-.1 3.6.9c2 .5 4.3 1 5 1.2 2.7.6 4.9 4.1 4.9 8 0 2.9-.4 3.8-1.7 3.8-1.3 0-1.4-.3-.5-1.2.7-.7 1.2-2.3 1.2-3.7-.1-2.4-.2-2.4-1.8.9-2 4.1-6.5 5-7 1.4-.4-2.7 1.8-4.6 3.8-3.4 1.3.8 1.2 1-.2 1-2 0-3.2 1.6-2.3 3 1.3 2.1 4.5-.9 4.3-3.9-.2-3.1-1.7-3.2-5-.3-3.6 3.1-1.1 7.9 3.7 7 1.4-.3 2.8-.2 3 .2 1 1.5-5 1.8-7.3.4-3.2-2.1-2.8-8.3.6-10 3-1.5 3.7-2.3 1.8-2-.8.1-1.8.4-2.1.7-.3.3-2 .3-3.7.1-3.2-.5-3.2-.6-.8-1.2l2.5-.6-2.7-.6c-1.5-.3-2.7-.2-2.6.1.2 2.4-.3 3.3-1.4 2.3-.7-.6-1.6-1.1-2-1.1-.5-.1-1.1-.1-1.5-.2-.5-.1.3-.5 1.7-1l2.5-.8-2.5.2c-1.4.1-3.1-.3-3.9-.7-1-.6-1.2-.5-.7.2.5.9-.8 1.2-4.4 1.2-2.8 0-4.9-.4-4.6-.8.3-.5-.1-.9-.9-.9s-1.2.4-.9.9c.3.4-1.1.8-3 .8-2 0-3.6.4-3.6.8 0 .5 3.7.8 8.3.7 4.5-.1 8.7.1 9.2.4.6.3 1.9.6 3 .6 1.1.1 2.8.5 3.8.9.9.5 2.8.5 4.1.2 2.3-.6 2.3-.4 1.3 1.9-.7 1.4-2.1 2.5-3.2 2.5-3.3 0-6.5 1.2-5.9 2.1.3.5 0 .9-.5.9-.6 0-1.1-.5-1.1-1.1 0-.5-.5-.7-1.1-.3-.8.5-.6 1 .5 1.6.9.5 1.6 1.4 1.6 2.1 0 .8-.3.8-.9-.1-.6-1-1.7-.3-4.1 2.5-1.9 2.1-3.8 3.7-4.3 3.5-.5-.1-.6.2-.3.7.4.5.2 1.2-.4 1.6-.5.3-.8 2.3-.6 4.3.2 2 .2 3.1-.1 2.4-.2-.6-.9-1-1.4-.7-.5.4-.6-.2-.2-1.1.4-1.2.3-1.5-.6-1-.7.5-1 1.4-.7 2.2.3.8 0 1.4-.8 1.4-1.4 0-1.8-2.9-.6-4.5 2.4-3.5 1.9-4.2-3.1-4.1-2.7.1-4.9-.2-4.9-.6 0-1.2-3.5-.9-4.8.4-1.9 1.9-1.4 2.8 1.3 2.8 1.4 0 2.5.3 2.5.7 0 .5 1.4.8 3 .9 3.5.1 4.5.8 3.6 2.3-.5.7-1.5.7-3.3 0-1.7-.6-3.6-.7-5.2 0-1.4.5-5.9 1.4-10 2.1-8.6 1.4-13.9 3.4-14.8 5.6-.4 1.1-.8 1.2-2 .3-3.2-2.7-12-6-20.1-7.5C53.9 33.1 49 31.1 47 27.5c-.9-1.7-2.5-3.1-3.6-3.2-1.6-.3-1.5-.1.3.6 1.8.8 2.1 1.6 1.6 4.4-.3 1.9-.1 3.7.5 4.1.7.4.9-.3.6-2.1-.4-2.2-.3-2.6.7-1.6 2 2 1.9 4.5-.1 5-1.5.4-1.6.8-.7 1.7.8.9 1.5 1 2.3.2.7-.6 1-1.4.7-1.9-.2-.4.5-.7 1.6-.7 1.5 0 2.1.6 2.1 2.1 0 1.4-.5 1.9-1.4 1.6-1-.4-1.9.7-2.9 3.1l-1.5 3.7-.9-3.5c-.9-3.3-1.1-3.4-5.4-3.3-2.4.1-3.5-.1-2.4-.4 1.6-.5 1.2-.8-2-1.9l-4-1.3 4 .5c2.2.3 4.6 1.1 5.3 1.6.7.6 1.5.8 1.9.4 1-1 .1-1.4-6.8-3.2-3.5-.9-7.6-2.5-9.1-3.5-3-2.1-3.8-2.3-3.8-.9 0 .5.4 1 1 1 .5 0 3.7 2.1 7 4.7 4.7 3.6 6.8 4.6 9.5 4.5 3.2-.1 3.5.1 3.5 2.8 0 3.9.9 4.1 5 1.2 2.4-1.7 2.8-2.2 1.3-1.7-1.8.5-2.2.3-1.7-.8.4-1.3 4.1-2.6 8.9-3.2.6-.1 2.3-.5 3.8-1 1.7-.4 3.7-.3 5 .3 2 .9 1.8 1.1-1.8 1.2-2.2.1-5.8.8-8 1.6-2.3.8-2.7 1.1-1 .7 4.1-.9 21.8-1.1 20.4-.2-1.2.7 1.7 2 5.6 2.5 1.1.1 2.5.3 3 .4 2.1.3-4.1 2.3-6.7 2.1-3.3-.2-11.7 3.1-18.1 7l-4.9 3-7.3-2c-4.1-1.2-8.2-1.8-9.1-1.4-1.2.4-1.5.3-1-.5.9-1.6.5-1.5-3.2.4-2.8 1.3-3.1 1.8-2.1 3.6 1.4 2.6-.2 3.8-4 3.1-3.3-.6-3.9-1.2-2.2-2.3.9-.5 2-.3 2.8.6 2 2 2.5 1.7 1.1-.5-1-1.6-.9-2.3.6-4 1.8-1.9 1.8-2-.3-1.8-1.4.1-2.4 1-2.8 2.5-.3 1.5-1.1 2.1-2 1.8-.8-.3-1.9-.6-2.4-.6-.6 0-.7-.5-.3-1.1.3-.6 0-1.5-.7-2-1.1-.7-1-.9.4-.9.9 0 1.7-.5 1.7-1.1 0-.8.5-.7 1.5.1 1.3 1.1 1.4 1 .9-.4-.8-2-.6-2 4.1 0 2 .8 3.9 1.3 4.1 1.1.2-.2-4-2.1-9.4-4.2-5.3-2.1-11-4.9-12.5-6.2C9 35.5 6 36.9 6 43c0 2.1-1 5-2.5 7.2-3.2 4.7-4.2 9.3-2.4 10.3.8.5 1.1.5.7 0-.4-.4 1.7-3.7 4.8-7.2 4.8-5.4 5.3-6.3 3.4-6.3-1.2 0-1.9.4-1.6.9.3.5-1 2.6-2.9 4.7-4.2 4.7-4.4 4-.7-2.6 2.1-3.9 3.1-4.8 4.7-4.5 1.7.4 1.6.3-.2-.6-2.4-1.2-2.8-2.5-1.7-5.3.8-2.1 2.7-2 4.8.3 1.1 1.2 1.5 2.5 1 3.3-.5.7-.9 2.2-.9 3.3 0 1.1-.9 4.6-1.8 7.9-1 3.2-1.6 6-1.4 6.3.3.2.8-.9 1.2-2.6.4-1.7 1-3.1 1.5-3.1.4 0 .6-1 .3-2.3-.4-2.1-.3-2.1 1.1.3 1.7 2.7 2.2 2 .6-.9-.6-1.3-.5-3.2.3-5.9l1.2-4.1 4 2c2.2 1 3.2 1.7 2.1 1.4-1-.3-2.5 0-3.2.6-.7.6-1.8.8-2.4.4-.8-.5-1.1.1-.8 1.6.2 1.8.9 2.3 2.6 2.1 1.3-.1 2.9.4 3.7 1.1 1.1 1.2 1 1.7-.6 3-1.1 1-2.5 1.7-3.2 1.7-.8 0-.7.3.3 1 .8.5 1.1 1.2.8 1.6-.4.4-1.8 0-3.1-.9-2.3-1.5-2.5-1.5-3.6.9-.6 1.4-1.1 3.3-1.1 4.2 0 1.4-.2 1.5-1 .2-1.6-2.6-2.1-.4-.5 2.7.8 1.6 1.8 5.1 2.1 7.6l.7 4.6-3.9.3-3.9.3.3 4.2c.1 2.6-.7 6.7-2.2 10.8C.3 99.5.1 103 2 103c.6 0 8-13.3 8-14.5 0-.3-.7-.5-1.5-.5-.9 0-1.2.6-.8 1.7.4 1 .2 1.4-.4 1-.6-.4-1-.1-1 .6.1.6-.7 3-1.8 5.2-2.4 4.9-2.4 4.9-3 4.4-.2-.3.7-3.2 2-6.5C4.9 91.2 6 87 6 85.1c0-2.5.4-3.2 1.5-2.8.8.4 1.7.1 2.1-.5.4-.7.3-.8-.4-.4s-1.2.2-1.2-.5c0-.8-.4-.8-1.5.1-1.2 1-1.5 1-1.5-.4 0-1.1.9-1.6 3.3-1.6 1.9 0 3.6.2 3.9.5 1.2 1.2-.6 5.7-2.5 6.4-1.8.7-1.8.8-.3 1.4 1 .4 1.9.1 2.2-.8.9-2.3 7.2-3.8 13.3-3.2 3.6.4 4.9.3 3.6-.3-1.1-.5-2.9-.9-3.9-.9-1.1-.1-3.3-1.3-4.8-2.8-2.2-2.1-3.1-2.4-4-1.5-1.6 1.6-3.1 1.5-2.6 0 .3-.7-.1-3.7-.9-6.8-1.7-7.2-1.7-7 1.5-7 2.3.1 2.5.2 1.2 1.3-.9.7-1.7 2.3-1.7 3.7-.2 1.8 0 2.1.7 1 .5-.8.7-1.7.4-2.1-.8-1.3 1.5-2 7.4-2.4 6.7-.3 17.6-2.4 16.8-3.2-.3-.3-2.5-.1-4.8.5-6.9 1.7-16.5 2.5-17.1 1.5-.4-.6 2-1 6.1-1.1 3.7 0 7.8-.5 9.2-1.1 2-.9 1.3-1-3.5-.5-9.1 1-12.5.6-12.5-1.7 0-.6.8-.5 2.1.1 1.1.6 3 .9 4.2.7 1.7-.3 1.5-.5-.8-.6-2.5-.2-2.7-.4-1.1-1 1.1-.4 4.4-.3 7.4.2 5.7 1 7.8 0 6.7-3.2-.6-1.4 1.1-4.1 2.6-4.1.5 0 .4.9-.3 2-1 1.6-1 2.4.1 4.1 1.1 1.9 1.1 2.1-.3 1.6-.9-.4-1.6-.2-1.6.3 0 1.3 8.5 1.3 12.8.1 2.3-.7 3.5-.6 4.5.4 1.6 1.5 7.3 1.3 9-.4.9-1 .2-1.1-3.4-.6-3.3.5-4.9.3-5.4-.6-.6-.9-.2-1.1 1.3-.7 1.2.4 2 .3 1.7-.1-.4-.8 5.4-5.6 6-4.9.6.6-.9 2.4-3 3.6-1.9 1.1-1.9 1.1.3.9 1.2-.1 2.2-.5 2.2-.9s.7-.5 1.6-.1c1.3.5 1.3.7.2 1.5-.9.6-.4.7 1.4.5 1.5-.1 3-.6 3.4-1 1.3-1.3 6.1-.7 7.4.8.9 1 .9 1.5.1 1.5-.6 0-1.1-.4-1.1-.9 0-.6-.9-.9-1.9-.8-1.1 0-1.7.5-1.5.9.3.5.9.6 1.4.3 1.5-.9 1.8 1 .4 2.3-.8.7-1.4.9-1.4.4 0-1.3-8.1-2.5-9.2-1.4-.6.6.6 1 3.1 1 5.1.1 6.4.8 5.6 3.4-.4 1.2 0 2.7 1.1 3.9 1.3 1.5 1.5 2.2.6 3.1-1.5 1.5-1.5 5.3-.2 7.8 1.2 2.2 0 3.3-2.5 2.4-1.1-.5-1.3-.9-.5-1.4.6-.4-2-1.7-5.9-3-7.1-2.3-9.1-3.9-4.8-4.1 2.1 0 2.1-.1.2-.8-1.6-.7-1.2-1 2.5-1.9 2.5-.5 3.5-1 2.2-1.1-1.2-.1-3.8.5-5.7 1.3-4.2 1.8-3.8 4.8.8 6.5 1.9.6 2.2.9.7.6-1.4-.3-5.7-.8-9.6-1.2-6.5-.5-7.3-.4-9.4 1.7-1.4 1.4-2 2.9-1.6 4.2.3 1.4.2 1.8-.5 1.1-1.5-1.5-1.9-6.2-.5-6 .6.1 1-.3.9-.8-.2-1.4 2.7-1.9 9.9-1.8 5.2.1 5.7-.1 5.5-2-.2-2.2 2.9-4.3 7.1-5 2.4-.4 4.2-1.7 2.3-1.7-.7 0-1-.4-.7-.9.3-.5-.2-1.2-1.1-1.5-2-.8-8.3 1.2-8.3 2.6 0 .6-.7.8-1.5.4-.8-.3-1.5-.1-1.5.4 0 .6.5 1 1 1 .6 0 1 .7 1 1.6 0 .8-.4 1.2-1 .9-.5-.3-1-.2-1 .4 0 .5.6 1.1 1.3 1.4.6.2.9.8.4 1.2-.4.5-1.6-.1-2.7-1.3-1.2-1.2-1.7-2.2-1.3-2.2.4 0 .1-.5-.7-1-1.3-.9-1.3-1 0-1s1.3-.1 0-1c-.8-.5-1-1-.4-1s1.1-.7 1.1-1.5-.4-1.2-.9-.9c-.4.3-.8.1-.8-.5s1.5-1.5 3.2-2.1l3.3-1-3.5.6c-1.9.4-4.5.7-5.8.7-2.6.1-3.8 3.2-2.8 7.1.3 1.4.2 2.8-.4 3.1-.5.3-1 .2-1-.4 0-.6-.7-.8-1.5-.5-1 .4-1.3.2-1-.8.3-.7-.2-2.2-1.1-3.3-1.4-1.8-1.5-1.9-1-.1.5 1.5.2 1.7-1.9 1.2L30 68l2.2 2.5c1.2 1.4 2.9 2.5 3.9 2.5 2.6 0 5 1.1 4.4 2.1-.3.4-1.2.6-2 .3-.8-.4-2 .6-3 2.5-.8 1.7-1.2 3.1-.8 3.2.5.1-.3.5-1.7.9l-2.5.8 2.8.1c1.6.1 2.6.5 2.2 1-.7 1.2 9.9 3.5 12.6 2.8 1-.3 1.9-.1 1.9.4 0 1.8 11.5.7 17.4-1.7 4.5-1.8 6.3-2.1 7.8-1.3 2.7 1.4 4.7.8 17.7-5.5 7.2-3.5 10.3-5.3 8.6-5.3-1.4 0-2.5.3-2.5.7 0 .4-1.4 1.3-3 2-2.9 1.2-9.7 1-17.5-.5-2.2-.4-2.6-.3-1.5.5.8.5 2.7 1 4.3 1 1.5 0 2.7.5 2.7 1.1 0 .7-1.2 1-3 .7-1.6-.3-3-.1-3 .4 0 .4 1.4.8 3 .8 1.7 0 3 .4 3 .9 0 .4-1.8.5-4 .1s-4-.4-4 .1c0 .4 1.5 1 3.3 1.2 2.6.4 2.4.4-.8.3-3.9-.1-4-.2-3.8-3.6.1-3.3 0-3.4-1.3-1.6-1.1 1.5-1.4 1.6-1.4.4 0-.8.8-2.2 1.8-3 2.4-2.2 8.2-5 8.2-4.1 0 .5.5.1 1-.7.9-1.3 1.2-1.3 2.1.3.6.9 1.4 1.5 2 1.2.5-.4.9-.1.9.6s.8.5 2.1-.7c2.2-1.9 2.2-1.9 1.4.5-.5 1.6-.4 2.1.4 1.7.6-.4 1.1-1.4 1.1-2.2 0-.8.4-1.3.9-1 1.4.9 3.4-2.2 2.7-4-.5-1.4-.4-1.5.9-.4.8.7 1.5 1.1 1.6.9 0-.2.2-1.2.4-2.2.5-2.6.9-2.8 2.9-1.4.9.7 1.8 2.8 1.9 4.8.5 7.7 5.4 8.9 13.2 3.4 6.1-4.3 10.8-7.4 15.7-10.4l3.7-2.2 3.5 6.8c7.3 14 16.1 23.6 27.5 30.1l4.1 2.3V93c0-2.8.5-5 1.1-5 .5 0 .7.5.3 1.1-.5.8-.1.8 1.4 0 1.1-.6 3.3-1 4.9-1l2.8.1-3 .8-3 .8 3.3.1c2.2.1 3.2-.4 3.2-1.4 0-1-1-1.5-3-1.5-2.5 0-3-.4-3-2.5 0-1.9-.6-2.6-2.7-3.1-4.9-1-11.7-3.6-16.2-6.2-5.4-3.2-13.4-10.9-12.5-12.3.4-.6 1.1-.6 2 .2 2.3 1.9 3.7-.3 1.9-2.7-1.2-1.6-1.4-1.6-.9-.2 1 2.9-1 2-3.1-1.5-1.1-1.8-3-3.6-4.3-4.2-3.8-1.7-2.7-4.2 2.2-4.9 2.4-.4 4.9-1.2 5.4-1.9 1-1.2-.4-8.8-2.2-11.6-.5-.8-.4-1.6.5-2.2.7-.4 1-1.2.5-1.6-.5-.4-1.1-.2-1.3.4-.3.7-1.7 1.3-3.1 1.3-1.5.1-3.8.7-5.2 1.5-1.4.8-3.3 1.4-4.3 1.5-1.5 0-1.6-.3-.7-2 1.5-2.8 6.2-5 6.8-3.2.2.6.8 1.2 1.4 1.2.6 0 .8-.7.4-1.5-1.5-4 9.1.2 11.4 4.5 1.4 2.6.3 11.1-1.1 8.9-.7-1.1-.9-.9-.7.6V49c-.2 2-6.2 4.4-7.6 3-.6-.6-1.3-1-1.7-1-.3 0 .8 1.5 2.5 3.3 3.5 3.7 9.9 5.5 12.4 3.5 1.1-1 1.7-.8 2.8.7 1.8 2.4 1.8 4 0 2.3-.8-.7-1.1-1.7-.8-2.2.3-.5 0-.6-.7-.2-.9.6-.9 1.2.3 2.5.9 1 1.6 3 1.6 4.4 0 1.5.4 2.7.8 2.7 1.4 0 4.5-3.9 4.7-5.8 0-.9.4-1.9.8-2 .4-.2 4.8 1.2 9.8 3.2 9.6 3.9 22.9 6.6 19.3 3.9-1-.7-2.4-1.1-3.2-.8-.7.2-1.1.1-.8-.3.6-1-14.5-10.2-16.7-10.2-.9 0-1.9-.5-2.2-1-.4-.6.6-1 2.2-1 1.5 0 6.2-.6 10.3-1.4 4.1-.8 10.2-1.7 13.5-2.1 3.3-.4 5.5-.9 4.9-1.2-.6-.2-5.6.3-11 1.2-5.5.8-13.6 2-18.2 2.6-8.7 1.2-9.7 2.6-2.6 3.5 2.1.3 4.1.9 4.2 1.4.2.6.8.8 1.2.5.5-.3 3.5 1.1 6.7 3.1 7 4.5 6.8 4.3 6 5-.4.4-1.8-.1-3.1-1-1.4-.8-3.2-1.3-4.1-1-1 .4-1.5.2-1.3-.7.3-1.3-.2-1.5-4.5-1.8-1.1-.1-1.5-.6-1.1-1.2.4-.8-.1-.9-1.6-.4s-2 .4-1.6-.4c.4-.6.1-1.2-.6-1.2-1.4-.1-2.9-.5-4-.9-.5-.1-1.3-.3-1.8-.4-.6 0-1.4-.6-1.8-1.1-.8-1.2-4.8-3.5-5.9-3.5-.5 0 .3.8 1.7 1.8 1.4.9 2.7 2.6 2.8 3.7.2 1.1.9 2.3 1.5 2.7.9.6.8.8-.1.8-.7 0-1.1.3-.8.8.2.4-.3 1.6-1.1 2.7-1.4 1.9-1.4 1.7-.8-2.1.5-3.2.2-4.5-1.4-6.5-1.8-2.2-2.1-2.3-3.3-.7-1 1.4-2.2 1.6-5.1 1.1-2.6-.4-3.4-.9-2.5-1.4.7-.5 2.3-.6 3.4-.3 1.2.3 2.5.1 2.8-.5.5-.7.1-.8-1-.4-1.2.4-1.5.3-1-.5.4-.7 1.5-1.2 2.4-1.2 1.4 0 1.5-.2.2-1-.9-.6-1.7-.5-2.2.3-.4.7-.8.8-.8.3s-.6-.4-1.2.1c-1.9 1.5-4.8 2.3-4.8 1.5 0-.5 2.4-1.8 5.4-3.1 3-1.2 6.8-3.5 8.5-5.2 3.5-3.3 4.1-3.5 4.1-1.4 0 .8-.7 1.5-1.6 1.5-.8 0-1.2.4-.9 1 .3.5 0 1-.8 1-2.2 0-4.1 2.6-2.4 3.3 1.5.5 7.2-4.9 7.2-6.8 0-.6 1.7-2.7 3.6-4.7 3-3 4.6-3.7 9.3-4.3 3.1-.4 5.6-1 5.6-1.4 0-.4-2.5-.4-5.5-.1-4.4.5-5.5.3-5.1-.7.3-.7.1-1.3-.4-1.3-.6 0-1 .5-1 1.2 0 1.5-5.1 8.1-5.7 7.4-.3-.2.7-2 2.1-3.9 2.8-3.6 3.4-8.5 1.4-10.5-.9-.9-.9-1.2-.1-1.2.7 0 1.4.4 1.7.9.7 1 8.6-.7 8.6-1.9 0-.9-1.5-.7-4.3.5-.9.4-2.7.5-3.9.2-3.5-1-5.8.9-5.8 4.8 0 1.9.4 3.5 1 3.5.5 0 .7-1.3.4-3-.5-2.5-.3-3 1.2-2.9 1.1 0 1.4.3.7.5-.8.4-1 1.6-.6 3.5.5 2.4.2 2.9-1.4 2.9-1.1 0-2.5-1-3.1-2.4-.8-1.9-.7-3 .9-5.5 1-1.7 2.2-3.2 2.6-3.2 3.4-.6 5.2-.5 4.7.2-.3.5.2.9 1 .9.9 0 1.3-.6 1-1.5-.4-1 0-1.3 1.6-1 1.3.2 3.1 0 4.2-.6s4.4-1.1 7.3-1.2c2.9-.1 5.1-.5 4.9-.9-.3-.5.5-.9 1.8-.9 5.9-.4 9-.8 10.3-1.3.7-.2 1.9.1 2.5.9 1.2 1.4 4.4.9 3.5-.5-.3-.4.2-1.1 1.1-1.4 2.4-.9 3.6-.7 2.8.6-.5.7-.3.8.7.2.8-.5 2.1-.7 3.1-.6.9.2 1.9-.2 2.3-.8.7-1.2 13.5-1.4 13.5-.2 0 .4-.5 1.3-1.2 2-.9.9-.7 1.2 1.2 1.2 2.7 0 1.8 1.4-1.1 1.6-1 .1-2 .3-2.1.4-.2.1-3 .3-6.3.5-3.3.1-6.2.4-6.5.5-.3.1-.8.2-1.2.1-.5 0-.8.5-.8 1.2 0 .8-.4.7-1-.3-.7-1-1-1.1-1-.2 0 .8-1.1 1.1-3.5.8-1.9-.3-3.5-.1-3.5.4 0 .4-1.4.6-3 .5-1.7-.1-3.3.1-3.6.6-.3.5-1 .7-1.5.4-.5-.4-1.2 0-1.5.9-.3.8-1.3 1.2-2.2 1-1.4-.5-1.4-.4.1.6.9.6 1.5 1.7 1.1 2.3-.3.7.1.3 1-.7.8-1 1.4-2.2 1.1-2.5-.2-.4.9-.6 2.3-.5 1.5.1 2.7.3 2.7.4 0 .1 1.9.4 4.3.6 2.3.2 4.2 0 4.2-.5s-1.4-.7-3.2-.5c-3.5.4-3.2-.6.4-1.1 1.2-.2 4.3-.6 6.8-.9 2.4-.4 4.8-1.2 5.3-1.9.6-.9.7-.8.5.3-.3.8-1.5 1.7-2.9 2l-2.4.6 2.1 1.2c1.9 1 2.3.9 2.8-1.1.4-1.3.9-1.8 1.3-1.2.9 1.2 6.4 1.4 5.6.2-.2-.4-1.5-.7-2.9-.7-1.3 0-2.4-.4-2.4-.9 0-1 5-.2 6.5 1 .6.4 2 .6 3 .4 1.1-.2 2.6-.4 3.3-.4.6-.1 1.2-.6 1.2-1.1 0-.7-.8-.7-2.2.1-1.5.7-1.1 0 1.1-2l3.5-3.1-3-.1c-1.6 0-2.4-.3-1.7-.5.7-.3 1-1.1.7-1.8-.4-.9 1.5-1.2 7.5-1.2 4.4.1 8.3.4 8.7.9.4.4-.3 1.5-1.7 2.5-2.8 2-4.9 2.4-4.9 1.1 0-.6-.4-.8-.9-.5-.4.3-1.9-.3-3.1-1.4-3-2.6-3.8-2.6-1.5 0 1 1.1 2.6 2.2 3.6 2.5 1.1.4 1.7 1.1 1.4 1.6-.4.5-1.4.4-2.4-.3-1.1-.7-2.6-.8-3.7-.3-1.6.7-1.3.9 1.5 1.4 2.6.5 3.5 1.2 3.8 2.9.2 1.9 0 2.2-2.2 1.6-1.5-.4-2.5-.2-2.5.5 0 1.4 5.7 1.4 6.6 0 .3-.6 0-1.5-.7-2-1.2-.7-1.1-.9.1-.9 1 0 1.1-.3.4-.8-.9-.5-.8-1 .1-1.9 1.1-1 1.5-1 1.9 0 .3.9.7.9 1.4-.2.6-.8 1.2-.9 1.6-.3.3.6-.3 1.4-1.5 1.7-1.5.5-1.8.9-.9 1.5s.7 1.3-.8 2.8c-1.8 1.8-3.9 2.3-18.2 3.8-2.5.2-6.7.8-9.5 1.1l-5 .7 4 .7c2.2.4 4.5.3 5.1-.2.7-.6 1.6-.9 2-.8.5.1 2.9-.1 5.4-.4 2.5-.4 6.8-1 9.5-1.3 2.8-.4 6.8-1 9-1.4l4-.7-3.5-.3-3.5-.2 3.5-.8c1.9-.4 6.9-1 11-1.3 6.9-.5 7.1-.5 3 .5l-4.5 1.1 5.8 2.1c5.6 2 7.9 4.2 3.5 3.1-4.6-1.1-13.3-1.2-14.5-.2-.9.6-1.3.6-1.3-.1 0-1.1-1.8-1.1-3.7.1-.8.5-1.3.3-1.3-.5 0-1-.2-1-.9.1s-.9 1.1-1.3 0c-.3-.8-.7-.4-1.1 1-.4 1.8-.2 2.1 1.1 1.6.9-.4 4.2-.9 7.2-1.1 3-.3 6-.6 6.6-.8.6-.2 1.7 0 2.5.5 1.1.6.8.9-1.1 1.1-1.4.1-3.2.2-4 .3-.8 0-2.1.4-2.8.8-.7.5-1.2.3-1.2-.4 0-.9-.4-.9-1.5.1-.8.6-1.9.9-2.4.6-.5-.4-1.2-.2-1.5.2-.3.5-1.8 1-3.3 1-3.9.2-6.1.7-6.9 1.5-1.3 1.3-4.6.8-3.8-.6.5-.8.2-.8-.9.2-.9.7-1.7 1-1.7.5 0-.4-.5-.3-1.1.3-1.4 1.4-4.1.5-3.2-1.1.4-.6-.1-.4-1.1.4-1.8 1.4-1.8 1.5.5 2.1 2.9.8 1.9 1.1-4.1 1.1h-4.5l5 .7c3.8.6 5.2.5 5.8-.6.4-.7 1.3-1.3 1.8-1.3.6 0 .7.5.3 1.1-.4.8 0 .8 1.5 0 1.4-.8 2.1-.8 2.1-.1 0 .5.5 1 1.1 1 .5 0 .7-.5.3-1.1-.4-.8.1-.9 1.6-.4s2 .4 1.6-.4c-.4-.6-.3-1.1.3-1.1.5 0 1.4.8 2 1.7.8 1.5 1.2 1.6 3.4.4 1.6-.8 3.3-1 4.8-.5 3.1 1 3.5 1.1 5.9 1.3 1.1 0 2 .6 2 1.1 0 .6-1.1.8-2.5.4-1.5-.4-2.5-.2-2.5.5 0 .6-1.5 1.1-3.2 1-2.8 0-3-.2-1.3-1 2-.9 2-.9 0-.6-1.1.2-1.9.9-1.8 1.5.2.8-1.2 1.2-4 1.3-2.3.1-3.4.3-2.4.6 2.4.6 18.6-1.7 19.2-2.7.3-.5 1.3-.6 2.3-.4.9.2 3.1 0 4.7-.5 2.9-.9 2.9-.9-1.3-1-2.4-.1-6.9-.8-9.9-1.7-3-.9-7.2-1.4-9.4-1.2-2.1.2-3.9 0-3.9-.4 0-.5 1.3-.8 2.9-.8 1.7 0 3.2-.4 3.6-1 .3-.5 1.2-.7 2-.4.8.4 4.3.1 7.7-.5 3.5-.6 10.2-1.5 15.1-2 4.8-.6 9.5-1.5 10.5-2 1.3-.8.9-.9-1.6-.4-2.3.4-5.9-.2-10.9-1.8l-7.5-2.3 10.9-2.3C286 22 292 19.8 292 17.9c0-.6-1.2-.1-2.7 1-1.6 1.3-3.8 2.1-5.7 1.9-1.8-.1-3.7.2-4.4.6-.7.4-1.2.2-1.2-.3 0-.7-2.8-1.1-7.2-1.1-3.9 0-6.9-.2-6.6-.5.3-.3 5-1.6 10.4-3 10-2.4 17.4-5 17.4-6.1 0-.3-.7-.3-1.6 0-.9.3-1.2.2-.9-.5.4-.6 1.4-.8 2.2-.5.8.4 3.1-.3 5-1.5 4.1-2.6 3.8-3.5-.5-1.4-1.8 1-8.2 2-15.4 2.6-6.8.5-13 1.2-13.8 1.4-.8.3-8 .7-16 1-20.6.6-26.6 1.2-54.7 5-2.9.4-5 1.2-4.7 1.7.3.5-.5.6-1.8.3-3.2-.8-19.6 2.2-22.5 4.1-5.1 3.3-5.3 10.4-.3 12.2 1.9.7 1.5 1.3-4.2 6.8-3.5 3.4-7.4 6.6-8.7 7.4-2.2 1.1-2.3 1.1-1.6-.6 3.7-8.9 3.1-13.3-2.5-17-3.4-2.3-4.7-2.6-8.7-2-2.6.3-4.3.2-3.8-.2.6-.5 3.2-2.9 5.8-5.3 4.2-3.7 5-4.1 5.8-2.7 2.3 4.1 10.2 2.8 12.9-2.2 2.4-4.4-2-12.3-9-16.1-2.7-1.5-19-2.9-19-1.7zm152.1 9.5c-1.8.4-2.1.7-1.1 1.3.9.6.2 1.1-2.3 1.5-1.9.4-4 .4-4.6 0-.6-.3-1.1-.2-1.1.3 0 .6-1 .8-2.2.4-1.3-.3-1.9-.1-1.5.6.6.9-2.6 1.8-9.8 2.8-1.1.1-2.2.3-2.5.3-.3.1.2.6 1 1.1.8.5 1 1 .5 1-.6 0-2-.6-3.1-1.4-1.2-.9-2.6-1.1-3.4-.6-.7.4-2 .6-2.9.3-1.1-.4-1 0 .4 1.1 2 1.7 2 1.7-.2.6-2.7-1.3-2.9-2.5-.7-3.4.9-.4 1.4-1.3 1-2.1-.7-2 .3-1.9 2.7.2 1.9 1.7 2 1.7 1.4 0-.5-1.3-.1-1.7 1.8-1.8 7-.4 10.5 0 10.5 1.1 0 .5-1.2 1.1-2.7 1.1-2.6.2-2.6.2-.5.6 1.6.3 3.1-.3 4.5-1.8s1.6-2.1.6-1.7c-.9.3-2.2.2-3-.4-1-.7-.1-.8 2.8-.5 2.4.3 4.5.2 4.7-.1.2-.4 3-.8 6.3-.8 3.2-.1 4.7 0 3.4.3zM156 16.4c0 .2-.7.7-1.6 1-.8.3-1.2.2-.9-.4.6-1 2.5-1.4 2.5-.6zm54 .6c0 .5-.2 1-.4 1-.3 0-.8-.5-1.1-1-.3-.6-.1-1 .4-1 .6 0 1.1.4 1.1 1zm-62.9 1.5c-.1.5-.5 1-1 1-1.7 0-10.1 9.7-9.4 10.9.3.6.3.8-.2.4-1.3-1.2-5.4 4.7-4.8 7 .6 2.6.4 2.6 5 .7 1.9-.8 4.4-1.5 5.4-1.5 2.3 0 4.9 3.7 4.9 7.2 0 3.3-3 5.4-5 3.5-1-.9-1.1-.9-.6 0 .5.9 0 1.3-1.3 1.3-2.6 0-2.7-1.8-.3-3.7 1.5-1.3 1.5-1.3-.6-.3s-2.3.9-2-1.1c.2-1.2-.2-2.4-.9-2.6-.9-.3-1 .4-.3 2.6.5 1.9.5 3.1-.1 3.1-.5 0-.9-.5-.9-1 0-.6-.7-1-1.6-1-1.4 0-1.4.2.1 1.6 2 2 1.1 3.2-1 1.4-.8-.7-1.5-2.3-1.5-3.6 0-1.3-.5-2.4-1.1-2.4-.7 0-.9.9-.5 2.4.7 3-2 5.8-3.5 3.5-1.9-3.1-1-5.7 2.3-6.4 3-.7 3.1-.8 1.3-2.1-1-.8-2.4-1.4-2.9-1.3-.6 0-.5.3.2.6.6.2 1.2.9 1.2 1.5 0 .7-1.6.8-4.5.4-11.5-1.6-14-1.8-13.5-1.3.3.3 2.3.8 4.4 1.1 4.8.8 6 1.6 2.3 1.6-1.5 0-2.7.5-2.7 1.1 0 .7.9.9 2.3.5 7.1-2 7.9-2 7.5.4-.2 1.9-1.6 2.7-7.7 4.6-6.9 2.2-12.8 2.3-11.6.4.7-1.1-3.1-.6-6.5.7-1.9.8-3.2.7-5.5-.5-2.6-1.4-2.7-1.7-1-2 1-.2 2.1.1 2.3.8.3.9.7.9 1.3-.1.7-1.1.9-1.1.9-.1s.7.9 3.3-.1c1.7-.8 3.9-1.2 4.7-1 .8.2.5-.2-.7-.8-1.2-.7-3-.8-4-.4-1 .5-3.1.8-4.8.7-4.4-.2-8.3 1.7-8.7 4.1-.2 1.2-.7 2.1-1.3 2-.5-.1-1.3.7-1.7 1.8-.5 1.2-1.3 1.7-1.9 1.3-.8-.5-.9-.3-.4.6.5.8.3 1.1-.6.8-.8-.3-1.3-1.1-1.1-1.7.2-.8-.5-.7-1.9.3-1.7 1.1-2.7 1.2-4.2.4-1.4-.7-2.7-.7-4.4.1-2.7 1.2-6.3.6-6.3-1 0-.6.6-.7 1.3-.3.9.6.9.5 0-.8-1.1-1.2-.9-1.7 1-2.5 1.9-.9 2.4-.8 2.4.3 0 .9-.7 1.3-1.6.9-1.1-.3-1 0 .3 1 1.1.8 2.5 1.5 3 1.5.7 0 .7-.3 0-.8-1.4-.9-.9-4.2.8-5.3 2.4-1.5 3.8-.9 3.8 1.6 0 1.6-.6 2.5-1.6 2.5-.8 0-1.2-.5-.9-1 .3-.6.1-1-.5-1-2.1 0-.4 2.4 2.4 3.3 1.8.6 3.1.6 3.8-.1.8-.8.4-1-1.3-.6-1.3.2-1.9.2-1.3-.1.6-.3.9-2 .7-3.8-.2-1.7 0-2.6.3-2 .3.7 1 1.3 1.5 1.3.6 0 .8-.4.4-.9-.3-.5-.1-1.2.5-1.6.5-.3 1 .3 1 1.3 0 1.1.8 2.8 1.8 3.9.9 1 1.3 1.3.9.7-.4-.7-1-2.3-1.2-3.6-.5-2.5-.3-2.6 5-3.1 1.6-.1 3.9-1.2 5-2.5s3-2.4 4.3-2.5c1.2-.1 2.2-.5 2.2-.9s1.2-.8 2.6-.8c1.4 0 2.2.4 1.9 1-.3.6.1.7.9.4.9-.3 1.3-1 1-1.5-.3-.5-.2-.9.3-.8.4.1 1.9 0 3.3-.4 6.5-1.5 9.1-1.7 8.4-.4-.5.9-.4.9.7-.1 1.5-1.4 4.3-1.7 3.5-.3-.4.5.4.7 1.6.3 1.4-.3 1.9-.1 1.4.6-.4.7.3.8 2.5.2 1.7-.5 3.6-.8 4.3-.7.7.1 1-1.3.9-3.7 0-2.1.2-3.4.6-2.7.6.9 1.1.8 2-.3.7-.8 1-2 .6-2.5-.3-.6 0-.9.7-.6.7.3 3.6-2 6.3-5 4.5-5 7.7-6.7 7.6-4zm110.4.5c-.3.5-.1 1 .5 1s.9.3.7.7c-.3.5 3.5.8 8.4.7 5 0 9.2.3 9.5.8.3.4-.3.8-1.3.9-1 0-6.1.2-11.3.3-5.2.2-10.2.6-11.1 1-1 .5-1.9.2-2.2-.8-.7-1.7 1.6-2.8 4-1.9 1.2.5 1.5.2 1-1-.5-1.3.2-2.1 2.1-2.6.2-.1 0 .3-.3.9zm-24 3.1c-1 1.5-2.5 1-1.9-.6.4-.8 1-1.2 1.5-.9.5.3.7 1 .4 1.5zM135.8 24c-.7 1.1-1.7 2-2.2 2-.5 0-.1-.9.9-2s2-2 2.2-2c.2 0-.2.9-.9 2zm-16.6 5.6c3.5-.4 5 .5 3.8 2.4-.8 1.2-1 1.1-1-.5 0-1.2-.3-1.6-.8-.8s-1.9.8-5.7-.1c-2.7-.7-4.3-1.5-3.5-1.8.8-.3 2.2-.2 3.1.3.8.4 2.7.6 4.1.5zm156.5 2c-.3.3-1.2.4-1.9.1-.8-.3-.5-.6.6-.6 1.1-.1 1.7.2 1.3.5zM59.2 35c2.9 0 2 .6-1.9 1.3-2.6.5-3.3.3-3.3-.9 0-1.1.6-1.4 1.6-1 .9.3 2.5.6 3.6.6zM167 41.4c0 .3-.4.8-1 1.1-.5.3-1 .1-1-.4 0-.6.5-1.1 1-1.1.6 0 1 .2 1 .4zM24 47.5c-1.4.8-3.8 1.4-5.5 1.3-2.3-.1-2.5-.2-.7-.5 1.2-.2 2-.7 1.8-1.1-.2-.4 1.2-.8 3.3-.9 3.6-.2 3.6-.2 1.1 1.2zm68 2.6c1.4 1.1 1.9 1.8 1.3 1.4-.8-.4-1.3 0-1.3 1 0 .9.5 1.3 1 1 .6-.4 1.7-.1 2.5.5.8.7 2.6 1 4 .8 1.3-.3 2.6 0 2.9.6.3.7.8.6 1.5-.4.6-.8 1.1-1.1 1.1-.6 0 .5.6.4 1.3-.1 2.3-1.9 12.7-5.3 12.7-4.2 0 .6.7.3 1.6-.5 1.7-1.8 4-2.1 4.9-.7.3.5-.1 1.6-.9 2.4-.9.9-1.3 2.5-1 4.2.4 2.2.2 2.6-1.1 2.1-.9-.3-1.3-.2-1 .4.3.6 1.7.7 3.1.4 1.8-.5 2.4-.2 2.4.9 0 .9.5 1.9 1 2.2.7.4.8-.3.4-2.1-.6-2.2-.4-2.6.9-2.1.9.3 1.8.1 2.1-.6.3-.9.8-.8 1.5.3 1.5 2.2 1.3 3.3-.5 2.6-.8-.3-1.2-.2-.9.4.8 1.3-3 3.1-5.1 2.3-1.4-.5-1.6-.3-1.1 1 .5 1.5.3 1.6-1.3.7-2.4-1.3-7-1.3-7 0 0 .5 1.3.7 2.9.4 1.6-.3 3.1-.1 3.5.4.8 1.3-3.2 4.2-5.6 4.2-1 0-1.7.5-1.5 1.2.3 1.4-4 3.8-7 3.8-2.7 0-3.7-1.5-3.9-6-.1-3.3.2-3.7 5.7-6.5 5.4-2.7 7.4-4.5 4.9-4.5-.5 0-1 .4-1 .9 0 1-3 2.3-4.1 1.8-.4-.1-1.5.5-2.5 1.4-1.1.8-2.6 1.5-3.4 1.4-.8-.1-2.1-.3-2.7-.3-.7-.1-1.3-1.1-1.3-2.2 0-1.2.5-1.7 1.3-1.4.8.3 2-.3 2.8-1.3 1.3-1.7 1.3-1.7-.4-.4-1.1.9-2.1 1.1-2.5.5-.8-1-2.7-1.4-9.4-1.5-2.7 0-4.6-.5-4.3-.9.3-.4-.4-.6-1.5-.3-2.3.6-2.8-1.5-.5-2.3.8-.4 1.5-1.5 1.5-2.5 0-2.4.9-2.4 4 .2zm37.6-.9c-.3 2.3-1.7 3.8-2.8 3.2-.6-.4-.8-.2-.5.3.4.6 0 1.6-.7 2.2-2.4 2-1.3-1.5 1.4-4.4 2.7-2.9 2.9-3 2.6-1.3zm2.9.8c.3.5.1 1-.4 1-.6 0-1.1-.5-1.1-1 0-.6.2-1 .4-1 .3 0 .8.4 1.1 1zm5.5 2.5c0 .5-.5.3-1-.5s-1-2-1-2.5c0-.6.5-.3 1 .5s1 1.9 1 2.5zm-32.5-1.6c1.9.8 1.9.9-.5 1.6-2.9 1-8.8 1-9.7.2-.8-.8 3.6-2.6 6.2-2.6 1.1 0 2.9.4 4 .8zm28.7 1.3c-1.7 1.7-1.5 3.3.2 1.9s2.9.8 1.5 3c-.7 1.1-1.2 1-2.5-.9-1.2-1.8-1.9-2.1-3-1.1-.8.6-1.4.8-1.4.4s-.7-.2-1.5.5-1.5.8-1.5.2c0-1.2 3-3.8 3-2.6 0 .5.4.4.8-.1 1-1.3 4.6-3.4 5.1-2.9.3.3-.1 1-.7 1.6zm-89.1.8c.4 0 .6.6.3 1.4-.3.8 0 1.7.6 2.1.6.4.9.1.8-.7-.3-1.3 2.9-1.4 6.1-.2 2.3.8-2.8 3.1-8.7 3.9-4.5.6-5.2.4-6.1-1.4-.9-1.7-.8-2.4 1-4.2 1.1-1.1 2.7-1.8 3.6-1.5.8.3 1.9.6 2.4.6zm-19.7 3.3c-.2.7-1.5 1.2-2.9 1.2-2.9 0-2.9-.1-1.3-1.9 1.5-1.5 4.9-.9 4.2.7zm65.4.3c9.9.8 11.2 1.9 7 6.4-1.3 1.4-2.3 3.3-2.3 4.4 0 1.4-.8 2.1-2.5 2.2-1.4.1-3.5.5-4.7.8-1.8.4-2.3 0-2.3-1.4 0-2.3-1.2-2-8.2 2.2-2.7 1.5-4.8 2.3-4.8 1.8 0-.6 1.2-1.6 2.8-2.3 1.5-.6 2.9-1.4 3.2-1.7 1.1-1.3 6.9-3.2 7.9-2.6.6.4 2.3 0 3.8-.9 1.6-.9 2-1.4 1.1-1.1-5 1.6-4.8 1.4 1.1-1.4 7.8-3.8 7.5-5-.4-1.5-4.1 1.8-6.1 2.3-6.8 1.6-.8-.8-.4-1.1 1.4-1.1 1.3 0 3.1-.5 3.9-1.1 1.1-.8.4-.9-2.5-.3-2.2.4-5.8.6-8 .6-3.1-.1-3.6.1-2 .8 1.8.8 1.8.9.2.9-1 .1-2 .8-2.3 1.6-.4.8-1 1.2-1.6.9-.5-.3-.4-1.3.4-2.2 1.1-1.4.9-1.4-.8.1-2.1 1.7-3 5.2-1 3.9.6-.3 1.7-.7 2.5-.9.8-.1 1.7-.7 2.1-1.4.4-.6 1.3-.8 1.9-.5.6.4 1.1 0 1.1-.8 0-.9.5-1.6 1-1.6.6 0 1 .5 1 1.1 0 .5.4.8.9.4.5-.3 1.2-.1 1.6.5.3.5 0 1-.7 1s-3.5 1.2-6.3 2.5c-3.6 1.8-5.2 2.1-6.2 1.3-1.9-1.6-1.6-3.6 1.2-6.3 2-2.1 3.4-2.5 8.5-2.5 3.3 0 6-.4 6-1s-.3-1-.7-1.1c-.5 0-1.6-.2-2.5-.4-1-.2-2 .1-2.4.6-.7 1.1-6.4 1.2-6.4.1 0-1.7 1.3-2.1 3.2-.9 1.6 1 2.1.9 2.9-.6.6-.9 1.5-1.5 2-1.1.5.3 3.5.8 6.7 1zm48.8-.1c-1.5 1.1-1.6 1.5-.5 1.5.8 0 2.1-.6 2.9-1.3 1.1-.9 1.1-.8 0 .7-1.3 1.7-1.3 1.9 0 1.4.8-.3 2.1 0 2.7.8 1 1 .8 1.6-.9 2.8-3.3 2.3-4.7 1.9-1.8-.5 2.1-1.7 2.2-1.9.3-1-3.1 1.5-3.8 1.4-2.2-.6 1.2-1.5 1.2-1.6-.3-1.1-.9.4-1.9.1-2.1-.6-.6-1.5 1.1-3.6 2.8-3.6.5 0 .1.7-.9 1.5zm25.2 3c-.3.3-.9-.2-1.2-1.2-.6-1.4-.5-1.5.5-.6.7.7 1 1.5.7 1.8zm-150.3-.6c-.3.5-.1 1.2.5 1.6 1.7 1.1 1.1 2.5-1.1 2.5-1.5 0-1.9-.4-1.5-1.6.3-.9.6-2 .6-2.5s.5-.9 1.1-.9c.5 0 .8.4.4.9zm30.1 7.4c-.3 1.2.3 3.2 1.5 4.9l2 2.8-3.1-.4c-1.7-.2-3.4-.7-3.8-1.1-.4-.5.1-.5 1.1-.2 1.7.6 1.7.5.2-1.5-.8-1.3-1.5-3.4-1.5-4.8 0-2 .2-2.2 1-1 .8 1.3 1 1.2 1-.3 0-1.1.5-1.5 1.1-1.1.6.3.8 1.5.5 2.7zm16.4-.6c0 .5-1.8 1.8-4 3-2.8 1.5-4 1.8-4 .8 0-2 2.6-3.6 4.5-2.8 1.3.4 1.6.3 1.1-.5-.4-.7-.1-1.2.8-1.2s1.6.3 1.6.7zm83 .3c0 .5-.2 1-.4 1-.3 0-.8-.5-1.1-1-.3-.6-.1-1 .4-1 .6 0 1.1.4 1.1 1zm4.5 3c1.4 1.5 1.5 2 .4 2-.8 0-2-.9-2.7-2-.7-1.1-.8-2-.4-2 .5 0 1.7.9 2.7 2zM35.2 71.2c-.7.7-1.2.8-1.2.2 0-.6.3-1.4.7-1.7.3-.4.9-.5 1.2-.2.2.3-.1 1.1-.7 1.7zm111.3.8c.3.5.1 1-.4 1-.6 0-1.1-.5-1.1-1 0-.6.2-1 .4-1 .3 0 .8.4 1.1 1zm5.6 1.4c.8-.4.9-.3.5.4s-.1 1.2.6 1.3c1 0 1 .2 0 .6-.6.2-1 .9-.7 1.3.3.5.1 1.1-.5 1.5-.5.3-1.2-.6-1.6-2-.3-1.4-1-2.5-1.5-2.5s-.9-.5-.9-1.1c0-.8.4-.8 1.5.1.8.6 2 .8 2.6.4zm6.2 4.3c-.5 1.2-.3 1.4.7.8.8-.5 1.1-.4.7.1-.3.6-.2 1.6.3 2.4.7 1.1 1.1 1.1 2.4.1 1.6-1.3 3.6-.7 3.6 1.1 0 .6-.9.8-2 .5-1.1-.3-2-.1-2 .5 0 .5-.8.8-1.7.6-1-.2-1.8-1.2-1.8-2.2 0-2.8-1.8-3-3.4-.5-1.1 1.9-1.1 2.1.3 1.6 1.9-.7 3.2.9 1.4 1.7-.7.3.4.5 2.5.3 2-.2 3.7.1 3.7.5s-.3.9-.7.9c-3.7.7-5.3.3-7.8-1.7l-2.9-2.3 2.4-3.4c2.3-3.4 5.5-4.1 4.3-1zM19.4 79.9c1.6 1.8 1.5 1.9-2 2.5-3.8.8-5 .4-4-1.2.3-.5 1.8-.7 3.3-.5 2.7.5 2.7.5.8-1.1-1.1-.8-1.5-1.6-.9-1.6s1.9.8 2.8 1.9zm33.6-.4c0 .8.5 1.5 1.1 1.5.5 0 .8-.4.5-.9-.3-.5 1.6-.8 4.3-.8 4.6.1 4.8.2 2.9 1.7-1.8 1.4-1.9 1.7-.4 2.9 1.1.9 1.6 1 1.6.2 0-.6-.5-1.1-1.2-1.1-.8 0-.9-.3-.1-1.1 1-1 6.3-.2 6.3 1 0 .9-6.1 3.1-8.8 3.1-2.6 0-3.9-1.9-2.1-3.1.7-.4 1-1.1.7-1.4-1.3-1.3-3 .8-2.5 3.1.3 1.6 0 2.4-.9 2.4-.8 0-1.5-.7-1.5-1.5-.3-2.9-.4-3.3-1.3-4.2-.5-.5-.6.6-.2 2.6.6 3.3.5 3.3-1.2 1.8-1.3-1.2-2.1-1.4-2.9-.6-.6.6-1.9.8-2.9.5-1.1-.3-2.3-.5-2.7-.3-1.2.3-2.9-3.1-2.2-4.4C41.4 78 53 76.8 53 79.5zm37-.5c-2 1.3-6.3 1.3-5.5 0 .3-.6 2.1-1 3.8-1 2.4 0 2.8.3 1.7 1zm-22.3 1.6c-.3.3-1.2.4-1.9.1-.8-.3-.5-.6.6-.6 1.1-.1 1.7.2 1.3.5zm103 5.6c0 1.8-.4 2.8-1.3 2.8-.8 0-1.4-.9-1.4-2.1 0-1.9-.1-1.9-1.6-.5-1.8 1.9-2.8 2.1-1.8.4.4-.7.3-.8-.4-.4-.6.4-.9 1.3-.5 2.1.3.9-.1 1.5-1.1 1.5-.9 0-1.6-.5-1.6-1 0-1.5 3.8-5 5.5-5 .8 0 1.4-.3 1.4-.8-.3-1.8.2-2.2 1.4-1 .6.7 1.3 2.5 1.4 4zm4.4-1.7c.5-.4.9.1.9.9 0 .9-.7 1.6-1.5 1.6-1 0-1.5-.9-1.4-2.8.1-1.7.3-2 .6-.9.2.9.9 1.5 1.4 1.2zm-5.3 5.4c.6.1 1.2 1.1 1.2 2.3l-.1 2.3-1.9-2.4c-1.1-1.3-2-1.9-2-1.4s.5 1.4 1.2 2.1c1.6 1.6-.2 1.5-2.3-.1-2-1.5-1.4-3.6.9-3.2.9.2 2.3.4 3 .4z"/><path d="M130.9 33.7c-1.3 1.6-1.2 1.7.4.4 1.6-1.3 2.1-2.1 1.3-2.1-.2 0-1 .8-1.7 1.7zM106.5 39c-.4.6-1.2.8-1.8.4-.7-.3-.3.2.7 1 1.1.9 2.9 1.5 4 1.5 1.9-.2 1.9-.2-.1-.6-2.5-.5-3-1.8-1-2.6.9-.4.9-.6 0-.6-.6-.1-1.5.4-1.8.9zM143.4 39.5c.5 1.5.4 1.6-.9.5-.8-.7-1.5-1.1-1.6-.9-.7 3.4-.6 3.6 1.7 3.1 2.5-.5 3.2-2.6 1.2-3.8-.8-.5-.9-.2-.4 1.1zM102 41.4c0 .2.7.7 1.6 1 .8.3 1.2.2.9-.4-.6-1-2.5-1.4-2.5-.6zM94 43c0 .5.5 1 1.1 1 .5 0 .7-.5.4-1-.3-.6-.8-1-1.1-1-.2 0-.4.4-.4 1zM132.5 43c-.3.5-.1 1 .4 1 .6 0 1.1-.5 1.1-1 0-.6-.2-1-.4-1-.3 0-.8.4-1.1 1zM106.4 43.9c.4.6 1.3 1.1 2.1 1.1s1.9.8 2.4 1.7c.6 1 1 1.3 1.1.8 0-1.7-1.4-3.2-3.9-4-1.6-.5-2.1-.4-1.7.4zM119.8 43.7c-1 .2-1.8.8-1.8 1.2 0 .5-1.1.8-2.5.8-1.3 0-2.2-.3-1.9-.8.3-.5 0-.9-.5-.9-1.3 0-1.4 1-.2 2.8.9 1.5 1.7 1.5 4.6-.1 1.1-.6 2.3-1 2.8-.9.4.1.7-.3.7-.9 0-.5.5-.7 1-.4.6.3 1 .1 1-.4 0-1.1-.3-1.2-3.2-.4zM142.5 44c-.4.6-.4 1.4 0 1.8.4.4 1 .1 1.3-.7.4-1.1.6-1.1 1.4 0 .8 1.2.9 1.2.6 0-.5-1.9-2.4-2.5-3.3-1.1zM84 47.5c0 .8.2 1.5.4 1.5s.6-.7 1-1.5c.3-.8.1-1.5-.4-1.5-.6 0-1 .7-1 1.5zM82.2 49c0 1.4.2 1.9.5 1.2.2-.6.2-1.8 0-2.5-.3-.6-.5-.1-.5 1.3zM106 48c0 .5.5 1 1.1 1 .5 0 .7-.5.4-1-.3-.6-.8-1-1.1-1-.2 0-.4.4-.4 1zM75.5 51c.3.5 1.1 1 1.6 1 .6 0 .7-.5.4-1-.3-.6-1.1-1-1.6-1-.6 0-.7.4-.4 1zM108.5 56.7l-2.8 3.8 3.6-3.4c3.9-3.7 4.2-4.1 2.8-4.1-.5 0-2.1 1.7-3.6 3.7zM120 54c-.8.5-1.1 1.2-.7 1.6.4.4 1.3.2 1.9-.4 1.5-1.5.7-2.4-1.2-1.2zM112.1 56.7c-1.3 1.3-2 2.3-1.4 2.3 1.1 0 4.9-3.8 4.2-4.3-.2-.2-1.5.7-2.8 2zM118.8 58.8c1.1.7 1 1-.3 1.6-.9.3-2.3.6-3 .6-.8 0-3.1 1.2-5.2 2.6-5 3.3-5.5 4-1.7 2.1 3-1.6 3.2-1.5 3.7.3.4 1.7.1 1.9-1.9 1.6-1.3-.3-2.6-.1-2.9.4-.3.4 1.1.7 3 .6 1.9-.1 3.5.2 3.5.6 0 .5-1.1.8-2.5.8-1.6 0-2.5.6-2.5 1.6 0 1.1.6 1.4 2.3.9 3.5-1.1 4.3-2.3 2.9-4.5-.6-1.1-1.2-2.8-1.1-3.7 0-1.4.2-1.3.9.4.5 1.3 1.2 2.3 1.4 2.3.3 0 .3-.7-.1-1.6-.8-2.3 2.3-4.4 6.3-4.4 3.6 0 5.5-1.4 2.1-1.6-1.2 0-3.1-.4-4.2-.8-1.4-.6-1.6-.5-.7.2z"/><path d="M118.3 65.7c-.7.2-1.3.9-1.3 1.4 0 1.4 2.4 1.1 4.6-.6 1.9-1.4 1.9-1.4-.1-1.4-1.1 0-2.6.3-3.2.6zM41 57c0 .5.5 1 1 1 .6 0 1-.5 1-1 0-.6-.4-1-1-1-.5 0-1 .4-1 1zM91.8 58.7c.6.2 1.8.2 2.5 0 .6-.3.1-.5-1.3-.5-1.4 0-1.9.2-1.2.5zM93.1 67.3c-.8 1-.7 1.4.2 1.4.8 0 1.4-.6 1.4-1.4 0-.7-.1-1.3-.2-1.3-.2 0-.8.6-1.4 1.3zM54.5 68c-.3.6.1.7.9.4 1.8-.7 2.1-1.4.7-1.4-.6 0-1.3.4-1.6 1zM46.4 80.1c-.3.6-.1 1.6.6 2.2 1 .9 1.2.8.7-.5-.3-.9-.1-1.9.6-2.2.9-.3.9-.5 0-.5-.6-.1-1.5.4-1.9 1zM41.5 83c.3.5 1.1 1 1.6 1 .6 0 .7-.5.4-1-.3-.6-1.1-1-1.6-1-.6 0-.7.4-.4 1zM31.2 2.2c-1.4.5-1.3.7.5.7 1.2.1 2.5.5 2.8 1.1.3.5 1.4 1 2.3 1 1.5 0 1.5-.2.2-1-1.2-.8-1.2-1 .5-1.1 1.1 0 2.8-.2 3.8-.4.9-.2 1.7.1 1.7.6 0 .6.4.8.8.5C45.6 2.5 70 2.1 70 3.2c0 .7.4.7 1.3 0 1.7-1.4 14.9-.3 14 1.2-.5.8-.2.7.8 0C87.9 2.9 98 2.2 98 3.5c0 .5.4.5.8-.2s2.3-1 4.5-.8c2 .1 3.9 0 4.2-.5.6-.9-73.9-.8-76.3.2z"/><path d="M109 2.1c0 .6 1.6.8 4.4.4 4-.6 4.4-.5 4.1 1.1-.2 1.1-.4 2.1-.4 2.4-.1.3-.5 0-.9-.6-.5-.8-1.1-.7-2.2.4-1.3 1.4-1.2 1.5.3.9.9-.3 1.7-.2 1.7.3 0 1.1-.7 1.2-8.7 1.4-5.6.1-6.3-.3-3.8-2.4.8-.7 1.5-.8 1.5-.3s1.1.9 2.5.9 2.5-.4 2.5-.8.6-.8 1.4-.8c.8 0 1.7-.4 2.1-.9.3-.6-.8-.6-2.7 0-1.8.5-5 .7-7 .6-2.6-.2-3.5 0-2.8.8.5.6.5 1.7.1 2.4-.7 1-.9 1-1.3-.1-.5-1.1-4.6-1.6-6.8-.8-1.4.5-10.7-.4-13.2-1.4-4-1.4-4.9-1.5-4.3-.6.3.6 1.6 1 2.8 1 1.7 0 1.9.2.8.9-1 .6-2.3.5-3.5-.1-1.2-.6-2.3-1.2-2.6-1.2-.3-.1-.4-.5-.2-1s-.3-.5-1 .1-2 .9-2.9.8c-1.4-.3-1.8.9-1 3.2.1.1 1.2-.2 2.6-.7 1.4-.5 2.5-.6 2.5-.1 0 .4 5.6.7 12.5.7 6.9-.1 12.5.2 12.5.6 0 .4.9.5 2 .3s2 0 2 .6c0 .5.5.9 1.1.9.5 0 .8-.4.5-.9-.4-.5 1.9-.8 5.4-.7 3.3.2 6.3-.1 6.6-.6.3-.4 1-.6 1.5-.3s.6-.2.2-1.1c-.5-1.3-.3-1.5.7-.9.9.5 1.1.4.6-.3-.5-.8.5-1.2 3.3-1.2 2.2 0 4.2-.4 4.5-.8.3-.5-1.6-.7-4.1-.5-4.1.3-4.5.2-3.3-1.2 1.1-1.3.6-1.5-4.4-1.5-3.3 0-5.6.4-5.6 1.1z"/><path d="M121 1.8c0 .4 1.6.6 3.5.4 2.5-.3 3.5 0 3.5.9 0 1 .3 1.1.8.3.4-.7 1.6-1.4 2.7-1.7 1.1-.2-.8-.5-4.2-.6-3.5 0-6.3.3-6.3.7zM141.6 4.3c-1.6 1.2-1.6 1.4-.2 1.4.9 0 1.6-.4 1.6-.9 0-.4.5-.8 1.1-.8.5 0 .8.4.5.9-.3.4.7.6 2.2.3 2.4-.5 2.4-.6.7-1.3-2.9-1.1-3.9-1-5.9.4zM40 5c0 1.2 6.9 1.7 7.5.5.3-.6.7-.6 1.1.2.3.7 1.5 1.3 2.7 1.2 2.1 0 2.1-.1.2-.9-1.4-.5-.8-.7 2.2-.6 4.9.1 5.2.3 2.1 1.5-1.7.6-.6.9 4 1 6.3.1 7.4-.6 4.7-2.9-1.2-1-1.9-1-2.7-.2-.7.7-1.7.8-2.7.3C57.1 4 40 3.9 40 5zM41.5 8.9c-4.2.4-5.4.8-4 1.3 3.6 1.4 16.3 1.9 17 .8.4-.6.3-1-.2-.9-.4.1-2.4 0-4.3-.1l-3.5-.3L50 9c3.3-.7 3.3-.7.5-.7-1.6 0-5.7.3-9 .6zM63.4 11.1c-.3.5.6.9 2 .9 3.1 0 3.4-.6.6-1.3-1.1-.3-2.3-.1-2.6.4zM72.2 11.2c-2.3.9 6 .8 12.8-.2 5.2-.8 5-.8-2.8-.7-4.5.1-9 .5-10 .9zM92.3 10.7c.9.2 2.5.2 3.5 0 .9-.3.1-.5-1.8-.5-1.9 0-2.7.2-1.7.5zM56.8 12c-.9.6-5.1 1.3-9.2 1.7-8.4.7-9.1 1.2-2.4 1.8 2.3.2 7.4.6 11.1.9 4.7.5 6.6.3 6.2-.4-.4-.6-2.2-.8-4.5-.5-5.6.8-5.7-1-.2-2.8 2.6-.9 3.8-1.6 2.7-1.6-1.1 0-2.8.4-3.7.9zM91.5 12l-7 .6 8.5.4 8.5.4-9 .6c-8.6.6-8.4.6 5.2.8 12.9.2 14.1.4 13.8 1.9-.2 1-.4 2.2-.4 2.7-.1.6-.7.2-1.4-.7-.7-1-2.9-1.9-5-2-3.9-.4-4.2-.1-2.7 2.3.6 1 1 1.1 1 .2 0-.6.5-1.2 1.1-1.2.5 0 .7.5.3 1.1-.4.7.1.7 1.6-.1 1.9-1 2.4-1 3.2.4.7 1.2 2 1.5 5.8 1.2 2.8-.3 5.2-.1 5.4.3.3.4 2.7.7 5.5.7 3.9-.1 5.6-.7 7.8-2.7 1.5-1.5 3.5-2.9 4.3-3.2.8-.2-1-.8-4-1.2-3.7-.6-4.8-1-3.5-1.5 1.7-.6 1.7-.7.2-1.3-.9-.3-1.7-.2-1.7.3 0 .6-1.9 1.1-4.2 1.1-3.4.1-2.8.4 3 1.1 3.9.6 7.2 1.4 7.2 1.9s-1 .7-2.2.5c-6.1-1.2-10-1.7-19.7-2.3-6.8-.4-11-1.1-11.9-1.9-.7-.8-1.6-1.3-2-1.2-.4.1-3.8.4-7.7.8zm32.7 4.6c4.6.3 8.5.8 8.7 1 .3.2-.4 1.1-1.5 1.8-1.3 1-2.3 1.1-3.1.4-.7-.5-2-.7-3-.4-1 .3-3.1-.1-4.6-.9-1.9-.9-2.5-1-2.1-.2.5.9.3.9-.7-.1-1.6-1.4-3.9-1.6-3.9-.2 0 .5.7.6 1.7.3 1-.4 1.4-.2.9.5-.3.6-1.5 1-2.6.9-1.8-.1-1.9-.6-1.1-4.6.1-.2.7-.1 1.5.2.8.3 5.2.9 9.8 1.3z"/><path d="M104.3 12.2c-1 .4 1.8.7 6.2.6 4.4 0 8.9-.4 10-.8 1.2-.5-1.5-.7-6.2-.6-4.6 0-9.1.4-10 .8zM137.5 12.7c1.3 1.4 9.5 2.4 9.5 1.2 0-.5-1.5-.9-3.4-.9s-4.3-.3-5.3-.6c-1.2-.5-1.5-.4-.8.3zM61.7 13.7c1.8.2 5 .2 7 0 2.1-.2.7-.4-3.2-.4-3.8 0-5.5.2-3.8.4zM73.8 13.7c.7.3 1.6.2 1.9-.1.4-.3-.2-.6-1.3-.5-1.1 0-1.4.3-.6.6zM63.3 16.2c.3 1.5-4.2 2.5-11.7 2.7-9.9.2-6.5 1.2 9.4 2.8 5.9.6 6.9.8 4.5 1.4-1.6.4-5.5.8-8.5.9l-5.5.2 4.5 1.5c2.5.8 12.5 2.3 22.2 3.3 9.8 1.1 20.2 2.4 23 3 9.7 1.9 11.5 2 6.8.4-5.2-1.7-22.5-4.4-28.8-4.4-2.5 0-4.1-.4-3.7-1 .3-.5 1.3-.6 2.3-.3 1.3.5 1.4.3.6-.6-.9-1-1.7-1-3.2-.2-2.3 1.2-10.3 1.3-14.2.2l-2.5-.7 3-.6c1.7-.4 3.4-.2 3.9.3.6.5 1.9.9 3 .8 1.8-.1 1.7-.2-.4-.8l-2.5-.8 3-.6c2.7-.5 6.7-.4 13.5.6 1.4.2 3.1-.1 3.8-.6.8-.6 1.2-.5 1.2.3 0 .7.7 1 1.6.6.8-.3 1.2-.2.9.3-.4.8 3.1.8 5.5.1 2-.6-9.1-2.4-11.2-1.9-1.6.4-2.8.4-2.8 0s-.6-.8-1.2-.8c-4.7 0-17.2-1.5-19-2.3l-2.3-.9 2.5-.2c6.3-.5 14.8-.3 14.3.3-.2.5 0 .8.6.8.5 0 1.3-.5 1.6-1 .4-.6 1.1-.8 1.6-.4.5.3.6 1 .3 1.6-.4.7-.2.8.5.4.6-.4.9-1.1.6-1.6-.7-1.1 3.6 0 5.4 1.4 1.1.8 1.5.8 1.8-.2.3-.6.8-1 1.3-.7.5.3.7-.2.6-1-.3-1.8-1.6-3.2-1.6-1.7 0 1.4-3.6 1.6-4.4.3-.3-.5-3.9-.8-7.8-.7-4.1.2-7.9-.2-8.7-.8-1.2-.9-1.3-.8-.6.4.6 1.2.5 1.3-.6.2-1.7-1.5-3-1.6-2.6 0zM222.3 16.8c0 1.2.5 2.2.9 2.2 1.1 0 1-1.2-.2-3-.7-1.2-.9-1-.7.8zM225 16c0 .5.5 1 1 1 .6 0 1-.5 1-1 0-.6-.4-1-1-1-.5 0-1 .4-1 1zM91 17c0 .5.5 1 1.1 1 .5 0 .7-.5.4-1-.3-.6-.8-1-1.1-1-.2 0-.4.4-.4 1zM94.4 18.2c0 1.5.2 1.7 1.1.6.5-.8 1.9-1.2 3-1 1.1.2 1.6 0 1.2-.4-.4-.5-1.8-.9-3-.9-1.6-.1-2.3.4-2.3 1.7zM230.5 17c-.3.5-.1 1 .4 1 .6 0 1.1-.5 1.1-1 0-.6-.2-1-.4-1-.3 0-.8.4-1.1 1zM217.5 18c-.4.6-1 .8-1.5.5-.5-.3-1.1-.1-1.4.4-.3.5.5 1.1 1.8 1.3 1.7.4 2.3.1 1.9-.9-.4-.9 0-1.1 1.1-.7.9.3 1.6.1 1.6-.5 0-1.4-2.7-1.5-3.5-.1zM225 18.8c0 .5.7.9 1.5.9s1.5-.4 1.5-.9c0-.4-.7-.8-1.5-.8s-1.5.4-1.5.8z"/><path d="M98.4 19.9c-.5.5-2.7 1.1-4.9 1.4-3 .3-2.5.4 2.2.5 3.4.1 9.7.7 14 1.3 10.5 1.5 11.4 1.6 14.6 1.8 1.6 0 2.6.5 2.2 1-.3.5-.2 1.2.3 1.4.4.3 1.3-.6 2-2.1.7-1.6.8-2.2.1-1.5-.8.8-2.1.8-4.3.1-1.7-.5-6.2-1.1-10.1-1.4-3.8-.3-7.3-1.1-7.7-1.7-.5-.8-.8-.8-.8-.1 0 1.3-5.2.6-6.1-.7-.3-.5-.9-.5-1.5 0zM195.7 20.7c.4 1.9 1 2.2 3.2 1.7 4.5-1 5.1-1.3 5.1-2.6 0-.9-.2-1-.8-.2-1.1 1.9-5.6 2.1-6.9.4-1-1.3-1.1-1.1-.6.7zM205.7 19.7c-.4.3-.7 1.1-.7 1.7 0 .6.5.5 1.2-.2.6-.6.9-1.4.7-1.7-.3-.3-.9-.2-1.2.2zM209.5 20.1c-2 .9-2 .9 0 .7 1.1-.2 2.6.1 3.2.5.9.6 1.1.3.7-.7-.7-1.8-1.1-1.8-3.9-.5zM188.3 22.8c0 .7.7 1 1.4.7.8-.3 1.9-.5 2.4-.5s.9-.3.9-.8c0-.4-1-.7-2.3-.7-1.3 0-2.4.6-2.4 1.3zM184 23.2c0 .4.7.8 1.5.8s1.5-.4 1.5-.8c0-.5-.7-.9-1.5-.9s-1.5.4-1.5.9z"/><path d="M107.3 24.7c.9.2 2.3.2 3 0 .6-.3-.1-.5-1.8-.5-1.6 0-2.2.2-1.2.5zM192.5 25c-.3.5-1.2.7-2 .3-.9-.3-2.1 0-2.9.6-.7.6-1.6.9-2 .6-.3-.3-.3-.1.1.4.5.5 2.6.6 4.8.1 2.2-.4 3.6-.9 3-1-.5-.1-.1-.5 1-1 1.6-.7 1.7-.9.3-.9-.9-.1-1.9.3-2.3.9zM82.4 26.2c-.3.4.3.8 1.3.8s3.5.3 5.6.6c2.4.4 3.7.3 3.7-.4 0-.6-.7-.9-1.5-.6-.8.4-2.3.3-3.2-.1-2.7-1.1-5.3-1.3-5.9-.3zM95.4 26.4c-2.4 1.8-1.4 2.2 7.6 3 5.2.4 5.9.3 3.5-.5-1.6-.6-5-1-7.5-1-4.1.1-4.3 0-2.5-1.4 1.1-.8 1.7-1.5 1.4-1.5-.3 0-1.4.6-2.5 1.4z"/><path d="M99.7 25.7c-.3.5.2.9 1.1 1 .9.1 3.4.4 5.6.7 2.1.2 3.5.2 3.1-.2-.4-.4-1.6-.8-2.8-.9-1.2 0-3.2-.4-4.3-.8-1.2-.4-2.4-.3-2.7.2zM214.8 25.7c.7.3 1.6.2 1.9-.1.4-.3-.2-.6-1.3-.5-1.1 0-1.4.3-.6.6zM225.2 26.8c.2.8.7 1.3 1.1 1.3.4-.1 2.8-.1 5.4-.1 5.6 0 5.1-1.2-.7-1.5-2.4-.1-4 .2-4 .9 0 .6-.5.4-1.1-.4-.7-1-.9-1.1-.7-.2zM256 27c.9.6.9.9-.1 1.2-.8.3.2.5 2.1.5 1.9 0 2.6-.2 1.6-.4-1.4-.4-1.5-.7-.6-1.3.7-.5.2-.8-1.5-.8-1.6 0-2.2.4-1.5.8zM200 28c0 .5.5 1 1.1 1 .5 0 .7-.5.4-1-.3-.6-.8-1-1.1-1-.2 0-.4.4-.4 1zM216.7 27.7c-.4.3-1.7.7-2.9.8-1.3.1-3.4.7-4.8 1.3l-2.5 1.1h2.6c4 .1 13.2-1.8 14.4-3 .7-.7.1-.7-1.8 0-3.5 1.4-5 1.4-4.2.1.7-1.1.2-1.3-.8-.3zM180.2 28.5c.3.3 1.8.8 3.4 1.1 2.2.3 2.5.2 1.4-.6-1.5-1-5.8-1.4-4.8-.5zM189.4 29.2c-.4.6-.3.8.4.4.5-.3 1.3 0 1.5.6.4 1 .6 1 .6.1.1-.7.7-1 1.5-.7.8.3 1.7.1 2.1-.5.4-.7-.5-1.1-2.4-1.1-1.6 0-3.3.5-3.7 1.2zM176.3 30c1.1.7 3.3 1.4 5 1.6 1.8.3 3.8.7 4.5.9.6.2 1.2 0 1.2-.5 0-.6-.6-1-1.2-1.1-1.4-.1-3.6-.4-8.3-1.4-2.6-.5-2.7-.4-1.2.5zM198 31.4c-.5.5-2.9.8-5.4.8-2.5-.1-4.6.3-4.6.8 0 .6.7 1 1.6 1 3.4 0 15.4-2.3 15.4-3 0-1-5.9-.7-7 .4zM207.2 32.7c-1.2.2-2 .9-1.6 1.4.3.5 1 .7 1.5.4.5-.4.9.1.9 1s-.4 1.4-.9 1.1c-1.2-.7-4.1.3-4.1 1.4 0 1.6 4.4.1 6.5-2.1 1.1-1.2 1.4-1.9.8-1.5-.7.4-1.3.3-1.3-.3 0-.5 1.2-1.2 2.8-1.4 2.5-.4 2.5-.4.2-.4-1.4 0-3.5.2-4.8.4zM228.4 33.1c-.4.7-.3.9.4.5.6-.3 1.5.2 2.1 1.1.6 1 1.1 1.3 1.1.7 0-2-2.7-3.7-3.6-2.3zM232.8 32.7c.6.2 1.8.2 2.5 0 .6-.3.1-.5-1.3-.5-1.4 0-1.9.2-1.2.5zM199 34c-3.5.7-3.5.7-.5.9 1.7 0 3.7-.4 4.5-.9 1.7-1.1 1.1-1.1-4 0zM215 33.4c0 .2.7.6 1.5 1 .8.3 1.5.1 1.5-.4 0-.6-.7-1-1.5-1s-1.5.2-1.5.4zM240.7 33.7c-.4.3-2.3.6-4.3.5-4.7-.2-4 .6.9 1.1 2 .2 3.7 0 3.7-.5 0-.6.7-.8 1.5-.4.8.3 1.5.1 1.5-.4 0-1.1-2.3-1.3-3.3-.3zM192.8 35.7c.7.3 1.6.2 1.9-.1.4-.3-.2-.6-1.3-.5-1.1 0-1.4.3-.6.6zM179 36.9l-5.5.7 5.7.4c3.2.3 5.4.1 5.1-.4-.3-.5.5-.6 1.8-.3s3.1.2 3.9-.3c1.7-1.1-1.7-1.1-11-.1z"/><path d="M195.2 36.7c-.6.3-.9 1-.5 1.5.4.7-.2.9-1.5.6-1.2-.4-2-.2-1.6.3.7 1.1.1 1.1-3-.1-2-.7-2.4-.6-2 .5.3.8 1.5 1.5 2.7 1.7 1.3.2 2.3 1.1 2.5 2.3.2 1.1 0 1.6-.5 1-.4-.6-2.1-1.1-3.8-1.1-4.5-.2-5.9-.7-7.3-2.9-1-1.6-1.2-1.6-.8-.3.3 1 .3 1.8-.1 1.8-.3 0-1.2-.8-2-1.8-.8-.9-1.2-1.1-.8-.4.3.6-.1 1.5-.9 1.8-.9.3-1.6 1.5-1.6 2.5 0 2 1.5 2.6 2.5.9.4-.6 1.1-.7 1.7-.4.7.4.8.2.4-.5-.6-.8 0-1.1 2-.8 1.5.2 2.9.8 3.1 1.4.3.7-.5 1-1.9.7-2-.4-2-.3-.4.4 1.7.8 1.8.9.3 1.5-.9.3-1.9.2-2.2-.3-.4-.6-1.3-1-2.1-1-.9 0-1.2.5-.8 1.1.4.8-.1.9-1.7.4-1.3-.4-2.6-1.2-2.7-1.7-.2-.5-1.1-.1-2 .9-1 1-2.8 2.4-4.2 3.1-1.4.7-1.6 1-.5.7 1.1-.4 4.2-.8 7-1.1 8.8-.9 13.9-2.1 14.3-3.4.2-.5.8-1 1.3-1 .6 0 .7.5.3 1.1-.7 1.3 3.5.3 5-1.2.5-.4 1.7-.4 2.6.1 1.2.6 2.3.4 3.6-.6 1.1-.9 1.2-1.2.4-.8-1.2.5-1.2.4-.3-.6 1.1-1.3 3.7-.5 2.9.9-.7 1 3.2.7 4.1-.4.5-.4.3-.5-.4-.1-.7.3-1.4-.2-1.8-1.3-.5-1.7-1-1.8-4.1-1-1.9.6-3.9.7-4.4.4-.6-.3-1-.1-1 .4 0 .6.8 1.1 1.7 1.1.9 0 1.4.3 1 .6-1 1-4.8-.7-4.1-1.8.4-.7.2-.8-.4-.4-.7.4-1.2.2-1.2-.3 0-.6 1.1-1.1 2.5-1.1 1.9 0 2.3-.4 1.8-1.8-.6-1.5-.5-1.5 1-.3.9.7 1.7.9 1.7.3 0-1.2-2.1-2.1-3.8-1.5zM177 43.5c-.7.9-1.5 1.3-1.7 1.1-.7-.7.7-2.6 1.9-2.6.6 0 .6.6-.2 1.5zM219 37.4c-.7.9-1.6 1.4-2 1.1-.5-.3-1.1-.1-1.4.4-1 1.6 1.2 2.2 2.5.8.7-.7 2.3-1.2 3.5-.9 1.4.2 2.4-.2 2.8-1.4.5-1.3.4-1.4-.7-.6-.9.8-1.7.8-2.4.1-.7-.7-1.4-.5-2.3.5zM150.5 38.1c-1 1.5.3 2.5 1.6 1.2.7-.7.7-1.3.1-1.7-.6-.3-1.4-.1-1.7.5z"/><path d="M212.6 38.7c-.4.4-1.6.9-2.7.9-1 .1-2.6.2-3.5.3-.8 0-1.2.6-.9 1.1.5.7 1.1.8 1.9.1.7-.6 1.8-.6 2.5-.1.8.4 2.1.6 3 .3 1.4-.4 1.4-.3.1.5-.8.6-1.8.8-2.2.6-.4-.3-.8-.1-.8.5 0 .5.9.9 2 .8 1.1-.1 2-.4 2-.8 0-.3 1.1-.4 2.5-.1 1.5.2 2.5 0 2.5-.8 0-.7-.8-.9-2-.5-1.5.5-2.2.1-2.8-1.5-.4-1.1-1.1-1.7-1.6-1.3zM9 41.4c0 .9.7 1.6 1.6 1.6 1.7 0 1.4-2.2-.4-2.8-.7-.2-1.2.3-1.2 1.2zM183.8 40.7c.7.3 1.6.2 1.9-.1.4-.3-.2-.6-1.3-.5-1.1 0-1.4.3-.6.6zM169 43.7c-1.3 1.5-1.2 1.6.4 1 1-.4 2.2-.7 2.7-.7.6 0 .7-.5.4-1-.9-1.4-1.8-1.2-3.5.7zM228.6 43.1c-1.6.5-7.5 1.3-13 1.8-5.6.6-11.2 1.3-12.6 1.6-1.4.3-6.1.9-10.5 1.5-4.4.5-9.1 1.2-10.5 1.6-1.4.3-3.7.5-5.2.5-1.5-.1-2.9.3-3.3.9-.8 1.3 1.7 1.3 8.8-.1 13.6-2.5 31.2-4.7 32.1-4.1.6.4-.9 1-3.4 1.3-5.3.8 6.9 0 19-1.2 8.3-.7 8.2-.8-3-.4-7.5.2-10.3 0-8-.5 2.9-.7 16.5-1.8 24.3-2 .9 0 1.7-.3 1.7-.8 0-1-12.8-1.1-16.4-.1zm6.1.5c-.3.3-1.2.4-1.9.1-.8-.3-.5-.6.6-.6 1.1-.1 1.7.2 1.3.5zM16 45.1c0 .5.5.7 1 .4.6-.3 1-.8 1-1.1 0-.2-.4-.4-1-.4-.5 0-1 .5-1 1.1zM165 51.9c-2 .3-3 .9-2.4 1.3.6.4 3.1.1 5.5-.6 4.6-1.5 3-1.8-3.1-.7zM64.3 63.7c.9.2 2.5.2 3.5 0 .9-.3.1-.5-1.8-.5-1.9 0-2.7.2-1.7.5zM36 65.4c0 .2.7.9 1.5 1.6 1.3 1.1 1.4 1 .9-.4-.5-1.4-2.4-2.3-2.4-1.2zM66.1 66.6c-1.8 2.1-.6 3 1.4 1.1.8-.9 1.5-1.8 1.5-2.1 0-1.1-1.5-.5-2.9 1zM25.5 67c.3.5.8 1 1.1 1 .2 0 .4-.5.4-1 0-.6-.5-1-1.1-1-.5 0-.7.4-.4 1zM16.8 67.6c.6.3 1.2 1 1.2 1.5 0 .6-.4.8-.9.4-.5-.3-1.3 0-1.7.6-.4.8-.3.9.4.5s1.2-.2 1.2.3c0 .6-.6 1.1-1.3 1.1-.8 0-1.4.7-1.4 1.5 0 1.1 1.1.5 3.4-1.6 3.5-3.5 3.5-4.1 0-4.5-1.2-.2-1.6 0-.9.2zM101 68c0 .5.5 1 1 1 .6 0 1-.5 1-1 0-.6-.4-1-1-1-.5 0-1 .4-1 1zM21.7 69.6c-.4.4 1.4 2.3 3.8 4.2 5.8 4.5 5.1 5.4-.9 1.2-2.5-1.7-4.6-2.7-4.6-2.1 0 1.3 12.3 8.1 13.4 7.4.5-.4-.1-1.4-1.2-2.4-1.5-1.2-1.8-1.9-1-2.2 1-.4 1.1-.7.1-1.8-1.1-1.1-1.3-1-1.3.7 0 1.5-.7 1.2-3.5-1.9-3.6-3.9-3.8-4.1-4.8-3.1zM32.5 79c.3.6-.1.7-.9.4-1.8-.7-2.1-1.4-.7-1.4.6 0 1.3.4 1.6 1zM99 69.6c0 .2.9.8 2 1.4 1.1.6 2 .7 2 .2 0-.6-.9-1.2-2-1.5-1.1-.3-2-.3-2-.1zM28 71c0 .5.5 1 1.1 1 .5 0 .7-.5.4-1-.3-.6-.8-1-1.1-1-.2 0-.4.4-.4 1zM61 73c0 .5.7 1 1.5 1s1.5-.5 1.5-1c0-.6-.7-1-1.5-1s-1.5.4-1.5 1zM62 76c0 .5.5 1 1.1 1 .5 0 .7-.5.4-1-.3-.6-.8-1-1.1-1-.2 0-.4.4-.4 1zM19.1 76.4c.2.2 2 1.1 3.9 2l3.5 1.7-2.5-2C22.6 77 20.9 76 20.1 76c-.8 0-1.2.2-1 .4zM8.5 84c-1.6.7-1.7.9-.3.9.9.1 2-.4 2.3-.9.7-1.1.7-1.1-2 0zM178.5 83.9c-.4.7.5 1.1 2.2 1.1 1.5 0 3.7.7 4.7 1.5 1.1.8 2.5 1.5 3 1.5.6-.1 0-.7-1.4-1.5-2.5-1.4-1.6-2 1.4-.9 2.3.9 2 2.3-.6 3.3-2.1.7-2 .8 1 1.3 2.1.3 2.9.1 2.3-.5-.5-.5-.7-1.5-.4-2.2.6-1.7-2-3.1-7.3-4-2.6-.4-4.4-.2-4.9.4zM175 91.9c0 1.1-.5 2.1-1.2 2.3-.7.3-.6.7.5 1.1 1.4.5 1.7.1 1.7-2.3 0-1.7-.2-3-.5-3s-.5.9-.5 1.9zM178.8 91.7c.6.2 1.8.2 2.5 0 .6-.3.1-.5-1.3-.5-1.4 0-1.9.2-1.2.5zM186.1 91.4c.2.2 1.8.6 3.4 1 2.2.5 2.6.4 1.5-.4-1.4-.9-5.9-1.5-4.9-.6zM178.8 93.7c.7.3 1.6.2 1.9-.1.4-.3-.2-.6-1.3-.5-1.1 0-1.4.3-.6.6zM186.5 94c2.7 1.2 4.3 1.2 2.5 0-.8-.5-2.2-.9-3-.9-1 0-.8.3.5.9zM177.5 95.9c-.9 1.5 1.1 2.2 5.4 2 2.7-.2 3.7-.7 3.4-1.6-.3-.7-1.3-1.3-2.2-1.3-1.4 0-1.4.2-.1 1 1.2.8.9 1-1.3 1-1.6 0-2.6-.4-2.2-1 .3-.6-.1-1-.9-1s-1.7.4-2.1.9zM174.5 98c-.3.5-.1 1 .4 1 .6 0 1.1-.5 1.1-1 0-.6-.2-1-.4-1-.3 0-.8.4-1.1 1z"/>
  </symbol>
</svg>