<svg xmlns="http://www.w3.org/2000/svg">
  <symbol id="a" viewBox="0 0 260 308">
    <path d="M140.645.008c-2.375-.075-4.8.498-9.2 1.648-14.3 3.6-26.6 12.7-29.2 21.4-2.1 7.2-1.5 17.4 1.4 24.5 3.8 9.3 9 17.301 11.8 18.401l2.5.9-2.5 1.9c-1.4 1-4.3 3.4-6.4 5.3-5.8 5.2-8.1 6.3-10.8 4.9-1.3-.6-5.5-2.4-9.4-4-3.9-1.7-8.8-4.1-11-5.4-2.1-1.3-5.1-2.9-6.5-3.5-5-2.1-14.1-8.5-20.4-14.2-3.5-3.2-8.5-6.8-11-8-8.1-3.8-22.5-5.6-22.5-2.7 0 2.1 2 3.2 8 4.5 3 .7 6.9 1.8 8.5 2.5 1.7.8 3.9 1.8 5 2.2 1.8.8-14.2 1.9-30.7 2.3-5.3.1-5.8.3-7.2 3.2-1.5 2.9-1.4 3.3.4 5.3 1.1 1.1 2.6 3 3.4 4.1 1.4 1.9 2.5 2 21.2 1.8 10.9-.1 20.9-.4 22.2-.8l2.5-.6-.6 6.8c-.4 3.7-1.1 8.9-1.5 11.5-.5 2.6-.6 5.1-.3 5.6s3.9 1.2 8 1.6c8.1.7 19.6 4.2 26.9 8.2 15.2 8.1 19.8 10.4 21.4 10.4 1.5 0 1.2 1.4-2.1 10.7-5.6 15.5-7.8 21.1-11 27.3-1.6 3-3.4 7.3-4.1 9.5-.7 2.2-2.6 6.6-4.1 9.7-1.6 3.2-2.9 5.9-2.9 6.2 0 .2 2.1.7 4.6 1.1l4.7.7-.7 6.4-.7 6.4h2.9c3.2 0 5.2 1.6 5.2 4.2 0 2.5 3.3 8.9 5.8 11.1 1.9 1.7 2.1 3.1 2.1 13.5 0 6.5.2 12.7.5 13.9.6 3-.9 8.2-5.1 17.1-2.7 5.6-3.3 7.9-2.6 9.1 1.4 2.2 5.9 2.6 8.8.7 1.9-1.2 2.5-1.3 3.4-.2.8.9-.7 3.9-6 11.7-3.9 5.7-7.8 10.8-8.7 11.3-.9.5-3.6 2.6-5.8 4.8-3.9 3.7-4.1 4.3-3.3 7.2 1.2 4.2 1.1 11.3-.1 13.7-1 1.8-.7 1.9 6.7 1.9 4.3.1 12.1.1 17.3.2h17c4.1-.1 15.6 0 25.5.1 9.9.2 20.1.1 22.7-.1 4.6-.4 4.7-.5 4.6-3.6-.1-1.7.9-6.2 2.1-9.8l2.2-6.7-2.6-4.1c-1.4-2.2-4.8-5.4-7.4-7.1-2.7-1.6-6-4.4-7.4-6.2-1.4-1.8-5-5.7-8.1-8.7l-5.7-5.5 3.3-.8c4.5-1.2 5.7-2.4 8-7.7 1.7-3.7 1.9-5.7 1.3-12-.4-4.1-.9-10-1.1-13-.3-3-.7-6.1-.9-6.8-.3-.7-.4-15.1-.4-32 .1-16.9 0-34.9-.1-40-.1-5 .2-9.2.6-9.2.4 0 1.7.9 2.9 2s4.7 2.5 7.9 3.1c5.4 1 6.2.8 11.2-1.6 9.1-4.4 10.3-7 14.9-30.5 2.6-13.4 3.5-15.8 6.1-16.4 1.4-.4 2.7-1.9 3.5-4.1 1.1-3 2.2-3.8 6.9-5.6 7.7-2.9 14-7 14.6-9.6.4-1.4-.2-3.3-1.3-5-3.8-5.4-3.7-5.9 3.2-12.9 6.1-6.2 8.2-10.4 5.2-10.4-.7 0-6.2 5-12.2 11.1-6.1 6.1-11.8 11.5-12.7 12-1.6.8-1.7.6-1.1-2.3.3-1.8 1.4-5.6 2.3-8.4 1.2-3.4 1.5-5.6.8-6.7-.5-1-.6-2.2-.3-2.7s0-.7-.7-.5c-1.8.8-6.3 10.5-9.3 20-3.1 9.9-3 9.7-8.9 12.9-5.4 2.9-11.6 3.4-15.4 1.2-1.3-.7-6.1-5.7-10.6-11.2l-8.3-9.9 2.7-3.2c4.7-5.3 6.3-12.1 5.8-23.7-.6-12.1-2.5-17.1-9-23.4-3.2-3.1-6.5-5-11.7-6.7-4.2-1.45-6.525-2.174-8.9-2.25zm-.387 1.773c2.512.125 4.788.977 5.088 2.477.4 2.4 1.899 3.499 3.799 2.799 2.1-.8 1.5-2.5-.7-1.8-1.4.4-2 .2-2-.9 0-2.6 5.6-.5 12.2 4.6 3 2.4 3.6 3.3 2.8 4.7-1.1 2.1.5 4.2 2.5 3.4 3.4-1.2 6 11.4 4.7 22.4-.8 6.5-1.6 9.2-4.3 13.2-1.8 2.8-3.5 5.1-3.9 5.1-.3 0-2.2-.8-4.2-1.8l-3.5-1.8 3.3-2.3c7.1-4.9 10.4-15.3 6.5-20.2-2.5-3.2-4.6-3.6-26.6-4.9-14.8-.9-16.1-.8-17.8.8-1 1-1.9 3.4-2 5.3-.2 1.9-.8 4.4-1.5 5.6-1.7 3-1.5 4.6.8 7.6 1.6 2.1 1.8 3 1 5.2-.8 2.1-.7 3.5.5 5.8.8 1.6 1.5 4.1 1.5 5.4 0 1.2.5 2.3 1.2 2.3.9 0 .9.3.1 1.1-3.1 3.1-14.2-14.7-16.3-26-1.5-7.9-1.3-9.8 1-10.4 2.1-.5 2.9-4.7.9-4.7-1.7 0 .1-4.1 3.5-8.2 2.4-2.8 3.4-3.4 4.8-2.7 1.3.7 2 .4 2.8-1.1.6-1.1.9-2.4.6-2.9-.3-.5 2-2.1 5.1-3.6 3.6-1.7 5.9-2.3 6.1-1.6.6 1.8 3.6 1.3 5.5-1 1.25-1.4 4-2 6.513-1.876zm-8.713.977c.6 0 .7.4.4 1-.3.5-1.1 1-1.6 1-.6 0-.7-.5-.4-1 .3-.6 1.1-1 1.6-1zm11.6 7c-.9 0-.9.199.1.799.7.5 1 1.6.6 2.5-.4 1.2-.1 1.7 1 1.7.9 0 1.6-.3 1.6-.6 0-1.4-2.2-4.4-3.3-4.4zm-28.7 1c.6 0 1 .4 1 1 0 .5-.4 1-1 1-.5 0-1-.5-1-1 0-.6.5-1 1-1zm6.5 1c-.8 0-1.5.7-1.5 1.6 0 1.4.3 1.4 1.5.4.8-.7 1.5-1.402 1.5-1.602 0-.2-.7-.398-1.5-.398zm18 0c-1.8 0-2.5.498-2.5 1.898 0 2.4 1.3 3.3 3.4 2.5 2.7-1 2-4.398-.9-4.398zm-7.05.36c-.338.065-.9.438-1.35 1.038-1 1.1-.9 1.401.1 1.201 1.4-.2 2.3-1.5 1.5-2.2-.05-.05-.138-.062-.25-.04zm-5.75.64c-.8 0-1.7.299-2 .699-.4.3-.7 1.4-.7 2.4 0 .9-.4 1.9-.9 2.1-.4.1-.5 1.2 0 2.3.7 1.9.8 1.9.8-.2.1-1.2.9-2.4 2.1-2.8 2.2-.7 2.8-4.5.7-4.5zm12.3 0c.6 0 1 .4 1 1 0 .5-.4 1-1 1-.5 0-1-.5-1-1 0-.6.5-1 1-1zm25 1c.6 0 1 .4 1 1 0 .5-.4 1-1 1-.5 0-1-.5-1-1 0-.6.5-1 1-1zm-10.129.318c-.46-.003-1.01.119-1.572.381-2.1.8-1.499 4.3.701 4.3 1.1 0 2-.7 2-1.5s0-1.8.1-2.2c.062-.625-.461-.976-1.229-.98zm-9.271 1.682c-.2 0-.6.7-1 1.5-.3.8-.1 1.5.4 1.5.6 0 1-.7 1-1.5s-.2-1.5-.4-1.5zm-12 1c-.3 0-.8.4-1.1 1-.3.5-.1 1 .4 1 .6 0 1.1-.5 1.1-1 0-.6-.2-1-.4-1zm-13.5 1c-.6 0-1.3.4-1.6 1-.3.6.1.698.9.398 1.8-.7 2.1-1.398.7-1.398zm20.9 0c-.5 0-1 .4-1 1 0 .5.5 1 1 1 .6 0 1-.5 1-1 0-.6-.4-1-1-1zM114.57 19.82c-.55-.062-1.324.437-2.224 1.537-1 1.3-1 1.7.1 2.4 1.8 1.1 3 .3 3-2.1 0-1.15-.326-1.774-.876-1.837zm49.414 3.338c-.464.024-.913.398-1.138.998-.6 1.7.199 3.602 1.699 3.602 1.2 0 1.2-3.7-.1-4.5a.92.92 0 0 0-.46-.1zm-60.158 2.78c.069-.018.144.019.219.119.3.3.4 1.2.1 1.9-.3.8-.6.5-.6-.6-.075-.825.075-1.368.281-1.42zm21.211 1.955c.759-.064 1.496.19 1.908.865.4.6.3.899-.2.799-.4-.2-.9.1-1.1.7-.2.5-1.3 1.6-2.5 2.3l-2.2 1.3 2.3-.5c1.8-.3 2.2-.1 1.8 1-.3.8 0 1.4.7 1.4.8 0 .7.4-.3 1-.8.5-1.7.6-2 .2-.3-.4-1.4-1.4-2.4-2.2-1.8-1.4-1.9-1.4-.8.7 1 1.9.9 2.3-.9 2.8-1.1.4-2.3.4-2.6.1-.4-.3.1-.6 1-.6 1.3 0 1.6-.8 1.2-4-.3-3.7-.2-3.9 1.6-3 1.5.8 1.9.7 1.9-.4 0-1.375 1.327-2.359 2.592-2.464zm7.381.484c1.245.03 2.027 1.53 2.027 4.28 0 2.1.3 4.1.7 4.5.4.3.8 3.4.9 6.7.1 3.4.8 6.6 1.4 7.2 1 .9 1.2.8.7-.6-.4-1-.1-2.6.5-3.7 1.2-1.9 1-2.6-2.2-9.1-.6-1.1-.3-2.2.8-3.3 1.6-1.6 1.6-1.8 0-3-2.5-1.8-2.2-2.6.7-2.6 3 0 4.3 3.9 2.6 7.7l-1.2 2.6 4.7-.6c2.5-.2 5-1.1 5.5-1.8 1.5-2.5 1 .9-.6 4.1-.9 1.8-1.1 3.1-.5 3.5 1 .6 1.9-.9 2.4-3.9.1-.8.5-1.8.9-2.2.3-.4.1-1.6-.5-2.7-.9-1.8-1.2-1.9-2.2-.5-.6.8-2.5 1.7-4.1 2.1-3 .6-3 .5-3-4v-4.5l7.5.7c7.2.7 12.5 2.6 13.4 5 .2.6 0 3.1-.4 5.4-1.5 8.4-13.6 16.5-21.6 14.5-1.9-.5-2.5-.4-2 .5.4.6 2.5 1.1 4.7 1.1 2.1 0 3.9.2 3.9.4s.3 1.1.6 2c.5 1.4-.6 1.6-8 1.6h-8.6l-.1-5.3c-.1-2.8-.3-4.5-.6-3.7-.6 2.2-5.6 5.7-6.1 4.2-.2-.7-.8-1.2-1.4-1.2-.7 0-.6.5.1 1.4 1 1.1.8 1.6-.6 2.4-1 .6-1.4 1.4-.9 1.9.5.4 1.1.2 1.3-.5.3-.6 1.1-1.2 1.9-1.2.8 0 1.4-.5 1.4-1.1 0-.8.5-.8 1.5.1 1.3 1.1 1.3 1.5-.7 3.4-1.3 1.2-2.9 2-3.7 1.7-.9-.2-1.2 0-.7.7.3.6.2 1.3-.4 1.7-1.1.7-1.7-.5-2.4-5.3-.3-2.6-.1-3.2.9-2.8.9.3 1.2 0 .8-.9-.3-.8-.9-1.2-1.4-.9-1.9 1.1-2.8-.7-1.8-3.3.7-1.8.6-3-.1-3.7-1.5-1.5-1.2-3 .3-1.7 1 .8 1.4.7 1.4-.3 0-.8-.9-1.3-2.3-1.1-1.5.1-2.1-.2-1.7-1.1.3-.8.9-1.1 1.4-.8.5.3.6-.2.3-1-.4-1.1.4-1.7 3.1-2.2 4.2-.8 4.6-.5 5.1 3.4.3 2.6.1 2.9-2.4 2.5-2.3-.3-2.4-.2-.7.6 1.9.9 1.8 1.2-.4 1.5-1.5.2-2.5 1.6-1.2 1.6.7 0 .9.6.6 1.2-.4.7 0 .5.8-.5 2-2.4 2.8-2.1 2.5 1-.2 1.9.2 2.8 1.1 2.8 1.2 0 1.5-2.2 1.5-10.6.1-8.9.4-11 1.9-12.7 1.012-1.087 1.926-1.598 2.673-1.58zm-.3 1.43c-.34.103-.785.638-1.272 1.65-1.1 2.6-1.301 5.3-.301 5.3.5 0 .8.5.7 1.2-.2.6.5 1.4 1.5 1.6 1.6.3 1.7.1.7-1.8-.7-1.2-1-3.5-.8-5.1.312-2 .039-3.023-.528-2.85zm22.027 3.95c-.5 0-.7.9-.4 2 .3 1 .1 2-.3 2.2-.5.2-.2 1.4.5 2.8 1.4 2.4 1.4 2.3 1.3-2.3-.1-2.6-.6-4.7-1.1-4.7zm-45.584 1.007c-.569.083-1.141.556-1.516 1.494-.3.9.3 1.9 1.4 2.5 1.7.9 2 .7 2-1.5 0-1.688-.937-2.633-1.884-2.494zm48.601.336c-.411-.01-.717.831-.717 2.056 0 3.1.6 3.402 1.3.602.3-1.1.1-2.302-.4-2.602a.373.373 0 0 0-.183-.056zm-15.004 5.129c-.375-.047-.413.778-.113 2.728.4 2 .1 4.5-.6 5.7-.6 1.3-.9 2.5-.7 2.8.9.8 2.8-3.7 2.9-6.8.1-1.7-.4-3.5-1-4.1-.2-.2-.362-.313-.487-.328zm-10.213.628c-1.7.1-1.7.2-.2.6.9.2 1.5.8 1.2 1.3-.3.5-1.2.7-2 .4-1-.4-1.2 0-.8 1.5.3 1.2.9 2.1 1.4 2.1.5 0 .8.5.7 1.1-.2.6.2 1.3.7 1.5.6.2 1-1.5 1-4.1 0-3.9-.3-4.5-2-4.4zm-24.2.237a.954.954 0 0 0-.6.363c-.4.3-.7 1.1-.7 1.7 0 .6.5.5 1.2-.2.6-.6.9-1.4.7-1.7-.15-.15-.376-.2-.6-.163zm-85.907.23c.628.004 1.394.046 2.307.133 2.6.3 7.3 1.1 10.3 2 5.3 1.4 12.6 6 16.3 10.1 1.5 1.6 1.7 2.9 1.2 6.7l-.7 4.6-5.7-.2c-3.2-.1-6.3.1-7.1.6-1.9 1.2-30.2 1.2-32 0-1.1-.7 2.5-1.2 12-1.5l13.5-.6-13.7-.2c-7.8-.1-13.9-.6-14.3-1.2-.4-.6 4.4-1 13.8-1 11.9 0 14.4-.3 14.4-1.4 0-1.1-.5-1.2-1.7-.6-2.3 1.2-28.2.8-28.7-.5-.2-.6 4.8-1 13.7-.9 8.4 0 14.3-.3 14.7-.9.4-.7-3-.9-9.8-.5-10.5.5-19.7-.3-16.9-1.4.8-.4 9.4-.9 19-1.3l17.5-.6 2.3 3c1.2 1.7 2.7 3.1 3.3 3.1.5 0-.1-1.5-1.5-3.3-1.5-1.9-2.6-3.9-2.6-4.5 0-.6-1-1.4-2.2-1.8-1.3-.3-3-1.2-3.8-1.9-.8-.7-4.6-1.9-8.4-2.7-7.175-1.4-9.603-3.259-5.207-3.233zm143.168 1.93c-.382-.007-.711.353-.961 1.103-.4 1-.2 2.2.3 2.7.7.7 1.3.5 1.7-.7.4-1 .2-2.2-.3-2.7-.263-.263-.51-.399-.74-.403zm72.965 2.574c.256.142-.4 1.274-2.026 3.43-1.5 1.9-5.3 5.7-8.6 8.6-3.3 2.9-7.4 6.999-9.1 9.099-2.7 3.5-2.9 4.1-1.5 5.6.8.9 1.9 2.7 2.5 3.8 1.1 2 .7 2.3-4.7 4.3-3.2 1.1-6.8 2.1-7.9 2.1-2.2 0-4.7-3.4-3.7-5 .3-.6.8-1.8 1-2.7.8-4.3 6.8-20.9 7.7-21.4.5-.3.9-.9.9-1.3-.3-1.8 0-2.6.8-2.6 1.1 0 .6 5.1-.7 7.7-.5 1-1.2 4.3-1.6 7.3-.4 3-1.2 6-1.7 6.6-1.2 1.4-.1 6.4 1.3 6.4.5 0 .7-1.3.3-2.9-.6-2.8.3-3.9 12.6-16 8.869-8.868 13.86-13.341 14.426-13.029zm-127.125 3.93c-.9 0-1.401.699-1.201 1.699.5 2.5 2.8 2.8 2.8.4 0-1.2-.6-2.1-1.6-2.1zm38 5c.3 0 1.099.2 1.799.5.9.4 1.3 1.699 1.1 3.799-.2 2.4-.1 2.7.5 1.2.6-1.3 1.1 1.9 1.6 9.5.8 12.4 1.4 22.9 1.5 27.1.1 1.4 1.1 3.9 2.3 5.5 1.6 1.9 2.3 4.4 2.5 7.6.2 6.1 2.6 13.4 6.9 20.9 1.8 3.3 3 5.9 2.6 5.9-1.5-.1-5.3-4-4.8-4.9.4-.5.2-1.2-.3-1.5-.9-.6-3.3-7.4-4.6-13-.3-1.5-.8-2.6-1.1-2.3-.3.3.2 3.1 1.1 6.2 1.6 5.7 1.5 8.3-.3 4.8-.7-1.4-2.9-9-3.7-13.3-.1-.3-.4-1.9-.8-3.5-1-4.2-3.4-24.3-4.2-34.8-.8-10.5-2.3-11.7-1.8-1.5.6 12.7 5.6 44.6 7.8 50 .6 1.6-.2 1.8-8.6 2-5.2.1-11.3 0-13.6-.1-3.4-.2-4.3.1-4.3 1.3 0 .9-.4 1.6-1 1.6-.5 0-1-.5-1-1.1 0-1.4-5 2.2-11 8.1-5.6 5.5-6.4 4.4-2.3-3.1 2.1-3.9 3.2-4.9 5.2-5h2.6l-2.5-1c-3.8-1.5-7-5-7-7.5 0-2.2.1-2.2 3.3-.9 3.5 1.5 17.6 3.7 18.8 2.9.4-.2 3.7-.6 7.4-.8 6.2-.3 10.4-1.4 5.3-1.4-1.3.1-4.3-.2-6.8-.5-3-.4-3.8-.3-2.5.3 1.4.6 0 .9-4.7.9-4 .1-6.8-.3-6.8-.9 0-.6-1.1-.8-2.6-.4-2.5.6-12.4-3-12.4-4.6 0-.3 1.4-1.9 3-3.5 3.5-3.3 4.6-6.9 6-18.7 2-16.3 2-16.5 3.6-21.9.4-1.3.2-1.9-.4-1.5-1 .6-2.2 7.1-3.7 19.1-1.8 14-2.8 18.2-5 21-1.6 1.9-1.6 1.9-1-1 1.6-7.5 2-12.4 1.5-18s-.6-5.3-1.2 4.5c-.9 13.9-1.8 19.2-2.9 16.5-.7-1.9-.8-1.9-.8.2-.1 1.3-.6 2.3-1.1 2.3-.7 0-.8.6-.2 1.7.7 1.1.4 3-.9 6.1-1.1 2.4-4.4 12.4-7.4 22.1-3 9.7-6.1 19.6-7 22-1.3 3.9-2.1 11.6-.8 8.2.5-1.1.7-1.1 1.4 0 .6.9.8.4.6-1.5-.1-1.6.3-3.1.9-3.3.8-.3 1 1 .7 3.8-.4 3.1-.2 4 .7 3.4.7-.4 1-2 .8-3.6-.3-1.6-.1-2.9.3-2.9 1.4 0 2.2 2.2 2.1 5.7-.1 1.8.3 3.3.8 3.3.6 0 1-1.6 1-3.6 0-4.7 1.9-3.4 2.2 1.4.1 3.6.1 3.6.5.5.3-2.3.8-3 1.9-2.6 1.4.5 2-3.2 1.4-9.5-.3-3.8 6.3-9.6 12.2-10.7 2.4-.5 6.6 1.5 9.2 4.4 1.5 1.6 1.9 3.6 1.9 9.3-.1 9.5-.2 11-1.3 10.3-.5-.3-2.2 1.4-3.8 3.8-1.7 2.3-6.3 7.4-10.3 11.2-6.7 6.3-7.4 6.7-7.7 4.6-.2-1.2.3-3 1.1-3.9.8-.9 1.2-2.3.9-3.1-.2-.8 0-1.1.6-.7.6.3 1.7-.3 2.5-1.4.7-1.1 1.7-1.7 2-1.4.4.4-.7 2.4-2.3 4.4-5.1 6.5-3.3 5.4 2.2-1.2 2.9-3.5 5.4-6.5 5.7-6.8 1.5-1.3 7.9-9.7 8.9-11.7 1.6-2.9 1.5-3.4-.3-2.7-.8.4-1.2 1-.9 1.5.3.5.1.9-.4.9-.6 0-1.2 1-1.6 2.2-.7 2.9-9.9 14.3-10.4 12.9-.2-.5.6-2.8 1.7-5 1.2-2.2 2.1-4.4 2.1-4.8-.1-.4-.8.5-1.6 2.2-2.5 4.8-6.7 10.6-7.2 10-.3-.2.2-1.5 1-2.7.8-1.3 2.7-6.2 4.3-11.1 2.2-7.1 2.5-9 1.5-10.2-.7-.9-1.5-1.3-1.8-1-.3.2 0 1 .6 1.8.8 1 .5 3.3-1.3 9.1-1.3 4.3-2.7 8.1-3 8.5-.4.3-.6-2.1-.5-5.4.4-13.2.1-16.5-1.4-15.9-1.4.5-1.6 2.8-.3 4 1.1 1.2.8 4.9-.5 6.3-1.1 1.1-1 1.2.1.6s1.3.5.8 6.6c-.8 9.9-1.7 14.1-3.1 13.6-.6-.2-1-1.7-1-3.3.3-8.4.4-9.5 1.5-8.8.8.4.8.1.1-1.2-.5-1.1-.7-2.5-.5-3.2.3-.6 0-1.2-.5-1.2-1.1 0-2.4 14.7-1.8 20.3.3 2.1 0 5.2-.6 6.8-1 2.9-1.1 2.9-2.9 1.3-2-1.8-5.9-9.3-5.9-11.3 0-2.6 2.5.7 2.8 3.5.3 3.8 1.2 4.4 1.2.9 0-3.7 1.7-2.1 2.2 2l.4 3 .8-2.8c.7-2.4.4-3.3-2-5.8-1.6-1.6-5-3.7-7.7-4.7l-4.8-1.7.3-4.4c.2-2.6.9-4.6 1.6-4.9 1-.3 1.3.5 1.1 3.1-.2 2 0 3.9.4 4.3.4.4.7-.7.7-2.5 0-2.2.4-3.1 1.2-2.9.8.3 1.2 1.9.9 4.4-.1 2.1.1 3.5.6 3.1.4-.5.8-2 .8-3.3.1-1.3.5-2.3 1-2.2.6.2.9 1.8.7 3.5-.2 2 .1 3.3.8 3.3.6 0 1.1-1 1-2.3-.4-4.1.1-4.2 1.5-.2l1.3 4 .1-3.6c.1-2-.5-4.1-1.1-4.7-3.3-2.6-11-6.2-14.7-6.8-2.3-.4-4.4-1-4.6-1.5-.3-.4.5-3.2 1.9-6.1 6.6-14.8 14.6-34.1 16.6-40.3 1.2-3.9 2.7-7.5 3.3-8 .7-.7.8-.5.5.5-.3.8-1.3 4.2-2.2 7.5-.9 3.3-2.1 6.9-2.6 8-5.3 11.2-8.8 22.8-6 19.8 1.7-1.8 11.2-32.1 11.5-36.7.1-2.6.8-5.2 1.5-5.6 1.8-1.1.3-2.9-1.9-2.3-1 .2-2.6-.3-3.5-1.2-.9-.9-2.3-1.4-3.1-1.1-.8.3-1.5.1-1.5-.5 0-.5-1.3-1.5-3-2-2.6-.9-3-1.6-3.1-4.7-.1-2.8-.3-3.1-.6-1.2-.8 4.5-1.8 4-5.3-2.7-1.9-3.7-3.9-7.1-4.5-7.7-.5-.6-2.7-3.1-4.9-5.5-2.1-2.4-5.4-5.7-7.2-7.3l-3.4-3v2.8c0 2.3.2 2.6 1.1 1.4.8-1.2 1-1 .5 1-.4 2.2-.4 2.3.8.8.7-1 1.6-1.5 1.9-1.1.4.3.2 1.2-.4 2-.8.8-.8 1.3-.1 1.3.6 0 1.3-.6 1.5-1.3.4-.9.8-.9 1.6.3.5.8.7 1.9.4 2.5-.4.5-.3.7.1.3.4-.3 2.2 1 4.1 3 4.1 4.6 9.7 14.1 8.2 13.8-.7-.2-3.9-2.9-7.2-6.2-6.5-6.4-17.4-13.1-16.2-10 .4 1 .7 2.3.8 2.9 0 .7.4.3.9-.8.7-1.7.9-1.7.9-.3.1 1.2.6 1.5 1.7 1.1 1.4-.5 1.5-.3.5 1.8-1.1 2.2-1.1 2.3.3.5 1.4-1.8 1.6-1.8 4.3.2 1.5 1.1 4.4 3.7 6.3 5.7l3.5 3.6-3.5-1.5c-1.9-.8-3.5-1.9-3.5-2.4 0-.6-.4-1.4-.9-1.9s-.6-.3-.2.4c.9 1.6-.4 1.6-4.1.2-1.5-.6-4.4-1.2-6.3-1.4-1.9-.2-3.8-.4-4.2-.4-.8-.1-.3-16.7.8-23.7.5-3.8.8-4.2 2.1-2.8 1.3 1.3 1.3 2.3-.1 8.6-.9 3.9-1.4 7.3-1.1 7.6.6.6 1.1-1 2.4-8.2.6-3.3 1.3-6.1 1.6-6.4.2-.3 1.7.4 3.2 1.4 1.5 1 3.4 1.9 4 2 .7.1 3 1.3 5 2.5 2.1 1.3 6.5 3.7 9.8 5.4 5.4 2.7 6 3.3 5.8 6 0 1.6.1 2.5.4 1.8.2-.7 1.2-.9 2.1-.6 1 .3 1.3.2.6-.4-1.5-1.1-2.5-4.3-1.4-4.3.5 0 1.6 1 2.4 2.2.9 1.2 1.6 1.7 1.6 1 0-.6 1-1.1 2.2-.9 2.4.2 6.2 5.3 8.7 11.5.8 1.8 1.6 3.1 1.8 2.8.3-.2-.7-2.8-2.1-5.7-3-5.9-2.9-7.6.3-2.7 1.1 1.8 2.1 2.9 2.1 2.4 0-1.5-4.1-7.5-5.8-8.6-1.4-.8-1.5-1.1-.3-1.9.8-.5 2.1-.7 3-.4 1.2.4 1.3.3.3-.5-1-.7-.1-1.9 3.9-5.1 2.8-2.3 5.4-3.9 5.7-3.6.3.3-.3 1.2-1.4 2.1-1 .8-1.4 1.3-.7 1 .6-.4 1.4.2 1.6 1.1.3 1.3.5 1.2.6-.5.1-1.3.5-2 1.1-1.7.7.4.9-.2.5-1.8-.5-2-.2-2.8 1.5-3.7 1.2-.6 2.4-.9 2.7-.6.4.3 1.1-.4 1.7-1.7 1.1-2 1.9-2.2 11.9-2.5 9.7-.2 10.8-.1 10.5 1.4-.2.9.2 1.9.9 2.1.7.2 1-.3.8-1.4-1-4.9-1.4-8.3-1.1-8.3zm-110 2c-.2 0-.4.4-.4 1 0 .5.499 1 1.099 1 .5 0 .7-.5.4-1-.3-.6-.8-1-1.1-1zm115.875.162c.7-.263 2.123.686 4.523 2.736 3.9 3.3 3.901 6.101.201 7.301-2.1.6-1.9.7.9.4 3.3-.3 3.4-.2 1.5 1.3-2.4 2.1-2.9 4.2-.9 3.4 2.1-.7 3.6-3.8 2.9-5.7-1.2-3.1.6-1.5 6.2 5.6 5.3 6.6 5.8 7.7 6.4 13.7.7 6.2 1.2 5.6 1.4-1.7.1-1.7.6-3 1.1-2.9.6.2 1 2.5.9 5 0 2.6.3 4.7.8 4.7.4 0 .8-1.8.8-4 0-2.9.4-4 1.5-4 1.7 0 2 1.6.5 2.5-1.7 1.1-1.1 9.7 1.1 14.1 2.4 5 6.8 7.1 11.2 5.5l2.6-1-.5 5.2c-.3 2.9-.9 5.4-1.3 5.7-.3.3-.6 2.2-.7 4.2-.2 5-5.1 15.1-7.1 14.4-.8-.3-1.2-.2-.9.3 1 1.5-7.3 5.3-9.7 4.4-1.2-.4-2.7-.6-3.4-.5-2.1.4-3.4-3.6-2.8-9 .3-2.8.8-5.4 1-5.8.2-.3 1.1-6.2 2-13.1.8-6.8 1.8-13.5 2.1-14.7.2-1.3.1-2.1-.4-1.8-.5.3-1.2 3.7-1.6 7.6-.4 3.8-1.1 7-1.6 7-.4 0-.6.9-.3 1.9.3 1.1-.2 5.7-1.1 10.3-.9 4.6-1.7 9.6-1.9 11.3-.4 2.9-.4 2.9-.6-.5-.2-2.9-.4-3.2-1.1-1.5-.8 1.8-.9 1.7-.9-.8-.1-1.5-.5-2.7-.9-2.7-1.7 0-4.4-7.7-4.6-12.8-.1-1.2-.4-2.2-.8-2.2-.5 0-.8-.5-.8-1.1 0-.5.4-.8.9-.5.4.3.7-2.9.5-7.1-.2-4.1 0-8.2.5-9.1.6-1.1.2-2.1-1.3-3.4l-2.1-1.8 3 .5 3 .6-3.5-1.9c-3.2-1.7-5.7-2-3.5-.4.6.4 1.2 1.6 1.4 2.7.5 2.9 1 14.5.7 14.5-.2 0-1.1-1.2-2.1-2.6-.9-1.5-1.1-2.3-.4-1.9.8.6 1 .4.4-.5-.4-.7-.9-4.4-1.1-8.4-.9-15.6-1.6-24.3-2.3-28.9-.5-2.8-.524-4.275.176-4.537zm-100.809.201c.114-.033.259.012.434.137.6.3 1.1 1.3 1.1 2.1 0 1.1.6 1.3 2 .9 1.4-.5 2-.2 2 1s-.702 1.499-2.702 1.299c-2.2-.2-2.9-.9-3.1-3.2-.15-1.35-.074-2.137.268-2.236zm104.108 3.68c-.336.051-.575.357-.575.957 0 .5.6 1 1.3 1 .8 0 .7.3-.3 1-.8.5-1.2 1.098-.9 1.398 1 1.1 2.9-1.099 2.3-2.699-.437-1.125-1.266-1.742-1.825-1.656zm-15.25 1.256c-.225 0-.325.2-.325.6 0 .6.3 1.1.8 1.1.4 0 .5 2.5.4 5.5-.3 4.2-.8 5.8-2.3 6.5-1.6.9-1.9.7-1.9-.9 0-1.1-.4-2.3-1-2.6-.6-.4-.8.7-.5 2.7.4 2.6.3 2.9-.4 1.3-.7-1.4-1-1.5-1.1-.5 0 1.1-.3 1.1-1.1-.4-.9-1.4-.8-2.1.2-2.8 1.1-.8 1.1-.9-.1-.5-.9.2-1.4 1.4-1.3 2.8.3 2.2.2 2.2-1.1.7-.7-1-1.7-1.4-2.1-1-.4.4-.5-.7-.2-2.3.4-1.7.4-2.4.1-1.7-.3.6-1 1-1.5.6-2-1.2-.8 2.8 1.6 5.1 2.6 2.7 7.2 3.3 10.5 1.5 1-.6 2.1-.6 2.4-.1.7 1.1-2.1 3.5-6.4 5.5-3.4 1.6-3.4 1.6-.5 1 1.7-.3 4-1.5 5.3-2.6l2.2-2.1.1 3.9c.1 2.1.5 5.2.9 6.9.5 1.8.6.1.3-4.5-.3-4.1-.8-7.9-1.1-8.5-.6-.9-.4-8.1.3-11.6.2-1-.3-2.3-1.1-3-.5-.4-.85-.6-1.075-.6zm82.857.69c.522-.086.818.172.818.81 0 1.4-6.9 8.2-8.2 8.1-1 0-1-.2 0-.6.6-.2 1-.8.7-1.3-.2-.4.9-2.2 2.5-3.9 1.813-1.875 3.312-2.97 4.182-3.11zm-85.059.105a4.018 4.018 0 0 0-.722.005c-1.1 0-1.402.3-.602.6.7.3 1.6.2 1.9-.1.3-.225.038-.45-.576-.505zm-12.222.906c-.5 0-.9.599-.9 1.199 0 .7-.302 3.1-.702 5.3-.8 5.5.502 3.9 1.602-1.8.5-2.7.5-4.7 0-4.7zm-74.594.105c.36-.018.818.019 1.393.094 1.8.2 2.9 1 3.1 2.2.5 2.2-1.3 3.5-3.9 2.9-1.2-.4-1.9-1.4-1.9-3 0-1.575.224-2.137 1.307-2.194zm12.094 1.895c-.2 0-.101.7.199 1.5.4.8 1.1 1.5 1.6 1.5.6 0 .5-.6-.2-1.5-.7-.8-1.4-1.5-1.6-1.5zm161.24.146c.325-.014.522.329.86.854.7 1.1-5.8 8-7.5 8-1.6 0-1.201-.9 2.699-5 2.5-2.813 3.399-3.83 3.94-3.854zM71.67 68.957c-.175-.025.224.45 1.074 1.4.9 1.2 1.4 2.4 1 2.9-.5.4-.3.5.3.2 1.7-.9 11.702 10 14.802 16.1 2.6 5.1 4.198 7 2.898 3.4-2.1-5.8-12.2-18.6-17.7-22.4-1.45-1.05-2.2-1.575-2.374-1.6zm157.773.887c.637-.09 1.002.201 1.002.914 0 1.6-5.4 6.1-6.7 5.5-.7-.2-1.3.099-1.3.699s-.3.8-.7.4c-.4-.4.8-2.2 2.7-4.1 2.125-2.062 3.938-3.265 4.998-3.413zm-176.46.062c.412-.175 1.161.15 2.761.75 1.9.8 2.3 1.5 2 3.5-.3 1.6-1.2 2.602-2.2 2.602-2.5 0-3.9-1.802-3.3-4.602.25-1.4.326-2.075.738-2.25zm1.462 1.852c-.5 0-1 .4-1 1 0 .5.5 1 1 1 .6 0 1-.5 1-1 0-.6-.4-1-1-1zm112.1 2c-.5 0-1.3.4-1.6 1-.3.5-.2 1 .4 1 .5 0 1.3-.5 1.6-1 .3-.6.2-1-.4-1zm-51.678.281c-.253.056-.422.618-.422 1.518 0 1.2.4 2.2.9 2.2 1 0 .9-2.6-.2-3.6-.1-.1-.193-.137-.278-.118zm-3.021.719c-.2 0-.4.4-.4 1 0 .5.499 1 1.099 1 .5 0 .7-.5.4-1-.3-.6-.8-1-1.1-1zm14.6 0c-.3 0-1.101 3.499-1.801 7.799-1.4 8.8-1.5 10.8-.5 9.9.8-.9 3.1-17.7 2.3-17.7zm31.884.484c-.548-.005-.885.314-.885.914 0 .7.7 1.902 1.5 2.602s1.5 1.699 1.5 2.299c0 .5-1 .2-2.2-.9-2.5-2.2-1.6-.1 1.5 3.3 2.5 2.8 3.7 2.1 3.7-2.3 0-2.4-.5-3.4-1.5-3.4-.8 0-1.5-.4-1.5-.9s-.7-1.1-1.5-1.5a2.03 2.03 0 0 0-.615-.115zM53.297 77.334c1.69.004 3.697 1.473 3.947 3.723.3 2.3 0 2.7-2.1 2.7-3.1 0-4.8-2-4.1-4.7.338-1.2 1.239-1.725 2.253-1.723zm115.648.16c-.55-.012-1.1.813-1.2 2.463-.1 1.7-1 3.6-2 4.4-1 .7-1.6 1.4-1.3 1.5 2.8.9 5.4.2 8.2-2.3 1.8-1.6 2.7-2.6 2-2.3-.9.5-1.2.1-1-1 .2-1-.3-2-1-2.2-.9-.4-1.1.2-.7 2 .5 1.9.2 2.8-1.4 3.7-1.9 1-2.1.8-2.1-1.7 0-2.1.3-2.5 1-1.3s.9 1 .7-.7c-.1-1.7-.65-2.55-1.2-2.563zm-56.252.92c-.554.02-.836.193-.648.443.3.5 1.1.9 1.9.9.7 0 1.6.6 1.8 1.2.4.8.6.7.6-.3.1-1-.9-1.9-2.4-2.1a4.94 4.94 0 0 0-1.252-.143zm52.752.344c-.5 0-1 .9-1 2s.5 2 1 2c.6 0 1-.9 1-2s-.4-2-1-2zm-112.37.031c-.396-.096-.63.443-.63 1.568 0 .8.5 1.2 1 .9.6-.4.8-1.1.5-1.6-.337-.526-.633-.81-.87-.868zm146.247.018c.985-.144 2.086.763 2.524 2.45.5 1.8 1.5 2.7 3.6 3.2 4.6.9 3.2 5.3-1.6 5.3-3.9 0-7.5-5.7-6-9.5.337-.9.886-1.364 1.476-1.45zm-71.427.287c-.225-.038.05.463.65 1.463 1.2 1.9 3.8 3.7 4.4 3 .1-.2-1.1-1.4-2.7-2.7-1.4-1.15-2.125-1.726-2.35-1.763zm34.044.152c.061-.008.13.061.206.211.2.7.2 2.1 0 3-.3 1-.5.4-.5-1.2 0-1.274.112-1.987.294-2.01zm36.674 2.068c-.107.005-.168.08-.168.243 0 .8 1.3 2.7 2.9 4.3 2.1 2.1 3.5 2.7 4.8 2.1 1.5-.6 1.3-.8-.9-1-1.6-.2-2.8-.6-2.8-1-.087-1.225-3.084-4.671-3.832-4.643zm-4.699.336c1.8-.056 2.531.957 2.531 3.207 0 1.9 3.3 5.9 4.8 5.9.8 0 .7 1.2-.2 3.7-1.2 3.5-1.6 3.8-5.4 4.1-4 .3-4.1.2-6.2-4.4-3-6.4-2.2-10.8 2.3-12.1.85-.25 1.57-.388 2.17-.407zm-103.469.108c-.5 0-1 .5-1 1.1 0 .5.5.7 1 .4.6-.3 1-.802 1-1.102 0-.2-.4-.398-1-.398zm14.9 0c.6 0 1.1.4 1.1 1 0 .5-.2 1-.4 1-.3 0-.8-.5-1.1-1-.3-.6-.1-1 .4-1zm86.21.935c-.047-.03-.085-.01-.11.065-1.4 3.5.4 7.598 2.1 4.898.7-1.1.9-1.099.9.201 0 1.7 4 5.9 5.6 5.9.5 0 .1-.5-.8-1.1-1-.5-2.5-2.5-3.4-4.4-.9-1.9-2-3.3-2.4-3-.5.3-1.1-.3-1.3-1.2-.225-.75-.45-1.275-.59-1.364zm-4.813.436c.609-.242.615.766-.197 2.828-.5 1.4-.8 3.2-.7 3.9.9 4.4 1.9 6.8 2.7 6.3.5-.3.6.2.3 1-.8 2.1 3.2 3.9 7.2 3.3 4-.7 4.5.5.9 2.1-3 1.4-6.4 1.5-8.2.4-1.9-1.2-5.3-9.4-5.3-12.7 0-1.7.7-4.1 1.6-5.3.75-1.087 1.332-1.683 1.697-1.828zM52.06 84.179c.36.016.787.078 1.287.178 1.4.4 3 1 3.5 1.5 1.7 1.5-.301 3.9-3.301 3.9-3.1 0-4.1-1.3-3.3-4.2.224-1.05.73-1.424 1.814-1.377zm123 .967c-.316.039-1.389.5-2.614 1.112-1.4.8-3.4 1.5-4.5 1.5-1.6.1-1.7.299-.4.799.9.4 1.5 1.6 1.3 2.7-.2 1.1.1 2.2.6 2.5 1 .6-.6 10.5-2.2 13.7-.6 1.3-.8 2.6-.5 3 .4.3.7-.2.7-1.3 0-1.6.2-1.7 1-.4.7 1.1 1 .5 1-2.4s.3-3.7 1.5-3.3c.8.4 1.7.2 2-.3.4-.6-.2-1-1.2-1.1-1.1 0-1.3-.3-.5-.6 1-.4 1-.8.1-1.9-.9-1.1-.8-1.4.7-1.4 1.6 0 1.7-.2.4-1-1.3-.8-1.3-1 .1-1 1.2 0 1.8-1.3 2.2-5.2.4-2.8.5-5.3.4-5.4-.013-.013-.041-.016-.086-.01zm-121.98 1.012c-.352.024-.634.398-.634.998 0 .9.5 1.602 1 1.602.6 0 1-.4 1-.9 0-.6-.4-1.3-1-1.6a.632.632 0 0 0-.367-.1zm42.866.6c-.5 0-1.7.5-2.5 1s-1 1-.5 1c.6 0 1.7-.5 2.5-1s1.1-1 .5-1zm77.9 0c.4 0 .5.7.2 1.6-.3.9-.6 2.799-.6 4.199-.1 2.5-.2 2.5-1.4 1-.7-1-1.6-1.5-1.9-1.2-.3.3-.3-.5 0-1.8.6-2.3 2-3.8 3.7-3.8zm-33.062.226c-.243.03-.338.43-.338 1.274 0 1.7-.2 1.8-1 .5s-1-1.201-1 .199c0 2 .8 2.2 3 .8 1.2-.7 1.2-1.2.2-2.2-.394-.394-.673-.595-.862-.573zm-39.164.797c-.5-.05-1.024.176-1.474.676-1.2 1.2-.7 2.2 1.6 3.3 2 1 2 1 .5-.3-2.2-1.8-2.3-3.1-.2-2.3.8.3 1.2.2.9-.4-.35-.6-.826-.926-1.326-.976zm25.233 1.037c-.239.073-.613.865-1.006 2.44-1 3.9.298 7.199 3.898 9.699 4.4 3.2 10.702 3.1 14.102-.1 2.8-2.6 4.8-2.2 2.6.4-3.7 4.5-12.5 5.9-17 2.8-2.8-1.9-4.002-3.5-5.702-7.8-1-2.7-1.2-2.7-1.2-.7-.2 5.1 7.902 12.4 12.802 11.6 6.3-1.1 7.998-1.6 9.898-3.4 2-1.9 2.101-1.9 2.701 1.3 1.6 8 3.7 13.5 5.1 13 1.1-.4 1-1-.5-2.9-1.1-1.4-2.7-6.5-3.7-11.9-1-5.2-2.2-9.5-2.7-9.5s-.6.7-.3 1.7c.4 1-.1 2.3-1.4 3.5-1.3 1.2-2 1.4-2 .6 0-.9-.3-.9-1 .2-.5.8-1 1-1 .5 0-.6-.5-.3-1 .5-.8 1.2-1 1.2-1.1-.5 0-2 0-2-.9 0-.8 1.8-.9 1.8-1-.5-.2-1.7-.4-2-.7-.8-.6 2.3-3.7 1.8-6.3-1-1.7-1.8-1.9-2.6-1-4.4 1.1-2.3 1.1-2.3-.6-.3-1.6 1.9-1.6 1.9-1-1.3.394-2.137.313-3.232.007-3.139zm-15.192 1.696c-.057.006-.096.084-.115.244 0 .3.6 2.7 1.4 5.5.8 3 1.4 4 1.4 2.5 0-1.813-2.136-8.308-2.685-8.244zm81.092.047c-.188.053-.307.272-.307.697 0 .3.7 1.7 1.6 3 1.8 2.8 4.7 3.498 3.7.898-.4-1.2-.8-1.299-1.4-.299-.5.9-1 .5-1.4-1.4-.45-1.725-1.63-3.056-2.193-2.896zm-12.326 1.689c-.093.008-.188.076-.281.207-.4.6-.7 2.4-.6 4 .1 1.5-.2 3.6-.6 4.5-.4 1-.3 1.8.2 1.8 1.7 0 2.8-3.6 2.3-7.5-.243-1.95-.619-3.042-1.02-3.007zm-14.98 1.531c-.45 0-.901.226-1.301.676-1.1 1-.8 12.1.3 12.8.6.3 1-.4 1-1.7 0-1.8.2-2 1-.8.5.8 1 1 1 .4 0-.5-.6-1.6-1.2-2.3-1.1-1.1-1-1.4 0-1.8 1-.4.8-.9-.5-1.9-1.7-1.3-1.7-1.5-.1-2.7 1-.8 1.5-1.7 1.1-2-.4-.45-.85-.676-1.3-.676zm-63.5 2.014c-.276.062-.801.662-1.401 1.762-.8 1.5-.5 1.8 1.5 2 1.7.1 2.4-.3 2.3-1.6 0-1-.3-1.2-.6-.5-.2.7-.9 1.3-1.5 1.3s-.8-.7-.4-1.5c.4-1.05.375-1.525.1-1.462zm-7.442 1.525c-.16-.006-.284.037-.36.137-.4.3.2 1.3 1.4 2.1 2.6 1.8 3.201 1.2.901-1-.675-.75-1.463-1.218-1.941-1.237zm17.459.635c-.124.073-.219 1.084-.219 2.803 0 2.5.2 3.499.4 2.199.2-1.2.2-3.2 0-4.5-.062-.375-.125-.535-.181-.502zm-3.922 2.145c-.219-.01-.283.831-.195 2.056.2 1.5.598 2.901.898 3.201.3.4.5-.6.3-2-.1-1.4-.5-2.9-.9-3.2-.037-.038-.072-.056-.103-.057zm14.107.433c-.277-.061-.891 1.436-1.503 3.623-.6 2.5-2.1 5.502-3.2 6.602-2.6 2.6-2.6 3.399 0 1.799 2-1.3 5.5-9.9 4.8-11.9-.026-.076-.057-.115-.097-.124zm59.672.487c-.175-.038.226.587 1.026 1.837 1.5 2.4 3.4 3.7 8.1 5.5 1.9.7 1.8.8-.5 1.2-2.4.4-8.802-2.3-10.202-4.3-1.3-1.7-1.8 0-3.5 11.8-1.1 7.3-2 11.2-2.6 10.4-.6-.9-.7-.8-.4.3.2.8 1.002 1.4 1.602 1.2 1.4-.3 1.398 1.1-.102 2.6-.8.8-.799 1.5.201 2.7 1.6 2 4 1.9 4-.1 0-1.2.7-1.5 2.5-1.2 2.2.5 2.5.2 2-1.6-.6-2.1-.6-2.1.9-.2 1.4 1.7 1.6 1.8 1.6.3 0-.9.5-1.7 1.1-1.7.5 0 .7-.5.3-1.1-.4-.8-.9-.7-1.6.2-.6 1-.7.6-.2-1.1.3-1.4 1.5-3.7 2.5-5.2 2.4-3.3 2.4-4.5.2-2.7-1.6 1.3-1.7 1.2-.4-.3.7-1 1.7-1.5 2.2-1.3.9.6 7-9.5 6.4-10.6-.3-.3-2.5-.9-5.1-1.2-3.2-.3-5.5-1.3-7.6-3.3-1.5-1.4-2.25-2.1-2.425-2.137zm-76.884 2.949c-.291.039-.566.163-.791.388-1 1.1-.8 2.4.4 2.4.5 0 .7-.5.4-1-.3-.6-.2-1 .4-1 .5 0 1.2.5 1.4 1 .3.6.4.5.3-.2-.225-1.05-1.238-1.705-2.11-1.588zm52.308.226c-.415.062-.45 1.55-.1 4.262.8 6.3 1.301 6.7 1.301 1 0-2.5-.4-4.9-1-5.2-.075-.05-.141-.07-.2-.062zm38.52 3.336c.776-.1-.968 2.644-4.418 6.526-2.8 3.1-4.8 6.1-4.4 6.7 1.3 2.1-6.901 13-9.901 13-.2 0-.2-3 .1-6.8.2-3.7.4-7.8.4-9.1l-.1-2.5 2.4 2.3c1.7 1.6 3.1 2.1 4.3 1.6 1.6-.7 1.5-.9-.7-1.5-1.4-.5-2.1-.8-1.5-.9.5-.1-.1-.8-1.3-1.7-1.2-.8-2.2-2.5-2.2-3.8 0-3 1.3-4.1 2.1-1.9.4 1 1.3 2.4 2 3 2.6 2 5.5 2.3 7.5.7 1.8-1.5 1.8-1.5-.3-.5-2.7 1.3-3.6 1.4-2.9.2.4-.5-.4-.7-1.6-.3-1.3.3-1.9.1-1.5-.5.4-.6 0-1.3-.8-1.7-1.7-.6-2-2.6-.4-2.6.5 0 .8.4.5.9-.6 1 2.6 2.1 6.3 2.1 1.4 0 3.3-.7 4.3-1.7 1.125-1.013 1.815-1.487 2.119-1.526zm-30.994 1.764c-.125.162-.175 1.012-.225 2.662-.1 2.1.4 3.8.9 3.8 1.1 0 1.1-1.4 0-5-.35-1.1-.55-1.625-.675-1.462zm4.126 1.58c-.164-.019-.377.133-.652.383-.6.6.1 11.698.8 12.398.2.2.401-2.599.401-6.199 0-4.95-.056-6.526-.549-6.582zm-42.539.195c-.937-.012-1.962.437-2.312 1.387-.8 2-.8 2.3.5 2.3.5 0 .7-.5.3-1.1-.4-.7 0-.9 1.3-.5s2 .2 2-.7c0-.9-.85-1.374-1.788-1.387zm18.62.198c-.471-.05-.932.263-1.432.888-.9 1-.9 1.602-.1 2.102 1.7 1 3.7-1.2 2.4-2.5-.3-.3-.586-.461-.868-.49zm-8.631.49c-.5 0-.7.4-.4 1 .3.5.799 1 1.099 1 .2 0 .4-.5.4-1 0-.6-.5-1-1.1-1zm48.617 3.65c-.942-.07-1.169.099-.719.549.6.6 1.8.8 2.8.6 1.4-.3 1.2-.5-.9-1a15.042 15.042 0 0 0-1.181-.149zm-20.152 1.863c-.157.103-.079.924.234 2.487.3 1.9 1 3.898 1.5 4.398 1.1 1.2.1-4.299-1.2-6.299-.262-.45-.44-.647-.534-.586zm30.199.846c-.364.075-1.052 1.29-1.664 3.04-1 2.7-1.602 3.3-2.602 2.4-.9-.7-1.299-.7-1.299 0 0 .6.5 1.4 1 1.7.6.4.8 1.1.5 1.6-.4.5-.2.9.3.9 1.1 0 4.7-8.9 3.9-9.6a.14.14 0 0 0-.135-.04zm-83.846 1.338c.077-.061.138-.06.182.002.4.4 1.7 2 3 3.5l2.398 2.8-3 5.7c-1.7 3.2-3.399 7.1-3.799 8.8-.3 1.6-1.3 3.7-2 4.5-2.2 2.5-9.8 21.6-7.7 19.6.4-.4 1.5-2.6 2.5-4.9 1.5-3.6 1.7-3.7 1.3-1.2-.3 1.6-.8 4.2-1.2 5.7-.5 2.3-.3 2.8 1.1 2.8 1.5 0 1.6-.2.4-1.7-1.1-1.3-1.1-1.7-.1-2 .6-.3 1.2-1.8 1.2-3.4 0-1.6.6-2.9 1.3-3 .8 0 .8-.2.1-.5-1.3-.5 0-8.2 1.7-9.9 1.2-1.2 1.2 3.7-.2 10.9-.8 4.3-.7 6.1.2 7.2.8 1 .8 1.4 0 1.4-.7 0-.9.9-.5 2.5.7 3 .4 3-3.8.7-1.8-1-4.3-2.4-5.4-3-2.2-1.1-2.2-1.2-.4-7.4 6.75-23.532 11.567-38.186 12.72-39.102zm6.682.303c-.8 0-1.2.4-.9 1 .3.5 1.299 1 2.099 1 .8 0 1.2-.5.9-1-.3-.6-1.3-1-2.1-1zm61.228.031c-.395-.096-.629.443-.629 1.568 0 .8.5 1.2 1 .9.6-.4.8-1.1.5-1.6-.337-.526-.633-.81-.87-.868zm-37.728.969c-.6 0-.7.4-.4 1 .3.5 1.099 1 1.599 1 .6 0 .7-.5.4-1-.3-.6-1.1-1-1.6-1zm7 0c-.5 0-.7.4-.4 1 .3.5.799 1 1.099 1 .2 0 .4-.5.4-1 0-.6-.5-1-1.1-1zm36.824.623c-.551-.012-2.05 1.113-3.625 2.775-2 2.1-2.9 3.6-2.2 4 .6.4 1.1.202 1.1-.398 0-.6.5-.8 1.2-.4.8.5.9.2.5-1-.6-1.4-.3-1.702.9-1.202 1.1.4 1.5.201 1.1-.799-.3-.8-.1-1.7.6-1.9.7-.2.9-.7.6-1-.037-.05-.096-.074-.175-.076zm-74.662 1.4c-.138.05-.063.377.137.977.4 1.3-2.8 11.999-4.5 14.699-1.2 1.9-3.7 10.7-2.8 9.7.5-.5 2.9-6 5.3-12.2 3.9-9.8 4.3-11.4 3-12.5-.65-.5-1-.726-1.137-.676zm14.57.328c-.351-.07-.633.097-.633.547 0 .5.5 1.302 1 1.602.6.3 1 .2 1-.4 0-.5-.4-1.3-1-1.6a1.17 1.17 0 0 0-.367-.149zm7.477 2.551c1.212.024 3.416.985 4.29 2.297 1.4 1.9 1.6 2 1.6.5 0-1.4.4-1.6 1.9-.7 2.9 1.5 3.9 1.2 1.7-.5-1.8-1.4-1.3-1.5 5.3-1.5 7.6 0 7.7.1 4.2 4.5-.8 1.1 0 .6 1.9-1.1 3.2-2.9 3.6-3.1 5.1-1.5 1.8 1.8 3.5 6 3 7.6-.2.5-.3 5.9-.4 12-.1 6-.3 10.3-.5 9.3-.2-.9-1.1-1.9-2-2.3-1.4-.5-1.5-.4-.4.6 1.9 2 1.4 3.6-1.2 4.1-3.7.7-5-.5-4.3-4.3.5-3 .5-3.1-.5-1.2-.6 1.3-1.4 2.3-1.8 2.3-2.9 0-3.8-8.3-1.4-12.8.8-1.5 1.4-3.1 1.4-3.5 0-.5.9-2 2-3.4s2-3.1 2-3.7c-.1-2.8-7.6 11-8.3 15.4-.2.8-.8 2.4-1.4 3.5-2.4 4.4-4.1 9.5-3.2 9.5.5 0 .9-.8.9-1.8 0-1.1.6-.6 1.6 1.4 1.5 3 6 6.4 8.6 6.4.7 0-.3-1-2.2-2.1-4.5-2.8-5.9-4.8-6-8.4 0-4.6 1.6-6.4 2.4-2.8.8 3.5 4.5 7.3 7.2 7.5 1.1.1 3.1-.2 4.7-.5 1.5-.4 2.7-.5 2.7-.3 0 1-5.1 5.6-6.2 5.6-.6 0-.8.3-.5.6.4.4 1.8-.1 3.2-1l2.5-1.6-.1 4.2c0 2.4-.3 3.7-.6 3-.2-.6-.9-1.2-1.5-1.2s-.4.8.4 1.7c.9 1 1.8 4.5 2.1 7.8.4 3.9.3 5.4-.3 4.5-.8-1.2-1-1-1.1 1 0 2.3-.1 2.3-.9.5-.8-1.9-.9-1.9-.9.1-.1 3-3.8 3.9-4.4 1-.3-1.7-.5-1.5-.6.6-.2 3.9-2.1 3.5-2.3-.5l-.1-3.2-.4 3.1c-.3 2-1.1 3.4-2.1 3.6-2 .6-4.6-1.7-3.7-3.2.3-.5 0-.7-.8-.5-.7.3-1.9-.5-2.7-2-.7-1.4-1.6-2.3-1.8-2-.6.6 1.7 5.4 3.5 7.3.7.7 2.8 1.9 4.8 2.7 3.2 1.4 3.5 1.4 3.6-.2.1-1.7.2-1.7.6-.1.4 1.5.8 1.5 2.6.5 1.2-.7 3.4-2.3 5-3.6l2.7-2.5v3.1c0 3.4-4.2 7.8-8.6 8.9-1.3.3-2.4 1-2.4 1.5s1.3.3 3-.6c3.7-1.9 4-1.9 4.1.2.1 1.7.2 1.7.6 0 .5-1.9 2.3-2.3 2.3-.5 0 .7-.5 3-1.1 5.2-1.1 4.1-1.4 5.4-2.9 13-1.2 5.9-1.2 5.6 0 5.6.5 0 .6-.7.3-1.7-.4-.9-.2-1.4.3-1.1.5.3 1-1.3 1.1-3.6.1-2.2.8-6.1 1.6-8.6l1.4-4.5.1 6.5c.1 3.6.6 12.6 1.3 20 1 11.8 1 14-.4 17.2-1.6 3.8-2.8 4.4-8.4 3.9-1.2-.1-2.4.3-2.8.9-.5.8.7.9 3.7.6 3.9-.5 4.1-.4 2.4.9-4.3 3.2-8.5.7-10.6-6.3-.7-2.3-1.5-4-1.7-3.8-.3.2.2 2.7 1.1 5.5.9 3 1.1 4.9.5 4.5-.6-.3-2.8.2-4.9 1.1-2.7 1.2-5 1.5-7.4 1.1-3.6-.7-7-3.2-6.2-4.5.3-.4.7-4 1-8 .3-4 .8-8.9 1.1-10.9.5-3.6.4-3.6-.5-.7-.5 1.6-1.2 5.2-1.5 8-1.7 16.2-1.4 15.4-4.9 15.9-10.1 1.7-12.4 1.6-13 0-.4-1 .4-3.3 1.9-5.6 1.4-2.1 2.2-3.8 1.7-3.8-.4 0-1.6 1.6-2.7 3.6-2 3.8-6.9 8.4-8.8 8.4-3.5-.1-3.8-1.6-1.7-7.2 1.1-3.1 2.7-6.2 3.5-6.8 1.6-1.3 2.1-3.5.6-2.6-1 .6 1.5-4.5 5-10.4 6.3-10.4 19.9-40.7 19.9-44-.1-1.4-6.3 12.5-9.5 21.3-1.7 4.4-4.6 9.9-5.8 10.8-.5.3-.8.9-.7 1.3.3.9-6.1 12.8-6.6 12.4-.7-.8-.6-27.3.1-30.1.5-1.7 2-3.4 3.8-4.4 1.8-.9 5.5-4 8.4-6.9 2.9-2.9 5.3-5.1 5.3-4.8 0 1.3-8.3 15.1-9.7 16.1-.9.7-1.3 1.3-.9 1.3s.4.5.1 1c-.5.8-1.2.7-2.3-.2-1.3-1.1-1.5-1-.9.5.9 2.3-.2 4.7-2 4.7-1.3 0-1.4.8-.9 4.2.8 4.7 1.3 5.8 2.8 5.8.7 0 .7-.4.1-1.3-1.5-1.8-1.4-7.5.1-8.4 1.8-1.2 6.6-8.6 12.1-18.8 2.7-5 5.7-10.4 6.8-12 1.9-3 1.9-3 1.3-.3-.3 1.4-.8 3.4-1.1 4.5-.3 1 .4-.2 1.5-2.6 1.1-2.5 1.8-5.2 1.5-6-.3-.8-.3-1.2.1-.8.4.4 1.6-1.7 2.6-4.6 4.4-11.9 5.8-17.1 5-17.6-.5-.3-1.2-1.9-1.6-3.5-.8-3.3-6.7-9.6-8.7-9.5-1 0-1 .2-.2.5.7.3.9 1.3.6 2.2-.4 1.5-.3 1.5.6.2.9-1.2 1.1-1.1 1.1 1 0 2 .2 2.2 1.1 1 .9-1.2 1-1.1.6.7-.3 1.3-.1 2.3.4 2.3s.9-.8.9-1.8c0-1.2.4-1.1 1.4.8.9 1.8 1 2.9.2 3.9-.8 1.1-.8 1.3 0 .8 1.8-1.1 2.4 3.1 1.2 8.6-.7 3.5-1.3 4.5-1.9 3.6-.6-1-.9-.5-1 1.6 0 2.3-.4 1.7-1.4-2.5-1.4-5.8-4.7-9.4-9.6-10.5-3.2-.7-8.8 1.4-11.9 4.5-2.2 2.2-3.8 2.2-2.5 0 .4-.7.8-3.8.9-7 .1-5.6.3-6 5.2-10.7 8.9-8.5 10.3-9.6 12.6-9.8 3.8-.4 3.9-.5 3.3-1.5-.487-.787-.117-1.11.61-1.097zm-11.51 2.098c-.3 0-.8.4-1.1 1-.3.5-.1 1 .4 1 .6 0 1.1-.5 1.1-1 0-.6-.2-1-.4-1zm40.506.347c.206-.06.695.427 1.295 1.252.8 1 1.2 2.1 1 2.4-.6.5-2.4-2.1-2.4-3.4 0-.15.036-.231.105-.252zm-4.658.012c-.343.07-.923.466-1.448 1.14-.8.9-.8 1.5-.2 1.5 1.2 0 2.6-1.9 1.9-2.6-.05-.05-.138-.063-.252-.04zm-24.547.64c-.5 0-.7.4-.4 1 .3.5.799 1 1.099 1 .2 0 .4-.5.4-1 0-.6-.5-1-1.1-1zm-4.659.143c-.203.082-.517.457-1.042 1.057-.7.9-.6 1.7.4 2.6 1.2 1.1 1.3.8 1.2-1.3-.188-1.812-.219-2.492-.558-2.357zm62.286.278c-.31.06-.703.529-.928 1.279-.6 1.4-.5 1.5.5.6.7-.7 1-1.5.7-1.8a.287.287 0 0 0-.272-.08zm-43.428.58c-1.1 0-2.2.398-2.5.898-.3.4-1.7.601-3.1.301-2.1-.4-2.4-.1-1.8 1.4.4 1.1.8 1.3 1.1.6.2-.7.8-1.2 1.4-1.2.6 0 .7.8.4 1.7-.6 1.7-.5 1.7.8 0 1.6-2.1 2.7-2.2 2-.2-.9 2.3.2 1.8 2-1 1.6-2.4 1.5-2.5-.3-2.5zm-11.1 2.1c-.8 0-3.5 1.1-6 2.5s-3.7 2.3-2.7 2c1-.3 3.5-.602 5.5-.702 3.2-.1 3.4-.199 1.2-.799l-2.5-.7 3-1.1c1.7-.6 2.3-1.2 1.5-1.2zm14.7 1.199c-.2-.1-1.2.4-2.3 1.3-1 .8-1.3 1.3-.6.9 1.7-.9 1.5-.1-.7 3.6-1.7 2.8-2 2.9-2.5 1.2-.7-2.1-7.6-6-7.6-4.3 0 .6.5 1 1.1 1 .6 0 .9.8.7 1.7-.2 1 .1 2.3.7 2.9.7.9 1.3.6 2.3-1 1.2-2 1.3-1.9.9.9-.2 1.6-.2 2.4 0 1.7.3-.6.9-1.2 1.4-1.2 1.2 0 1.2.1-.6 4.3-2.9 7-1.4 5.1 3-3.7 2.5-4.9 4.3-9.1 4.2-9.3zm8.3.7c-.5 0-1.2.5-1.6 1.1-.8 1.4 1.1 3.3 2.5 2.5 1.1-.7.4-3.6-.9-3.6zm-34.136 3.089c-.214-.12-1.213.435-3.463 1.81-4 2.5-5 4-3.4 5.4 1 .9 1.199.801.699-.599-.6-1.6.7-2.5 1.6-1 .2.5.2.2.1-.5-.2-.6 0-1.2.4-1.2.5 0 1.4.6 2.1 1.2 1 1.1 1.1 1 .6-.5-.4-.9-.3-1.7.3-1.7s1.3.8 1.5 1.7c.4 1.7.5 1.7.6 0 0-.9.5-1.7 1-1.7s1.2.8 1.4 1.7c.4 1.4.5 1.2.6-.5.1-1.7-.4-2.2-2.5-2.2-1.4 0-2.3-.4-1.9-1 .338-.524.492-.84.364-.911zm30.435.912c-.4 0-.3.299 0 .699.4.3.1 1.3-.6 2.2-1.1 1.4-1 1.4.5.2 1.6-1.2 1.6-3.1.1-3.1zm-14.918.18c.069-.018.144.019.219.119.3.3.4 1.2.1 1.9-.3.8-.6.5-.6-.6-.075-.825.075-1.368.281-1.42zm15.863 4.632c-.101.02-.218.137-.343.387-.1.2-.3 1.3-.4 2.5-.2 1.9.099 2.1 1.599 1.2 1.1-.5 1.9-1.5 1.8-2.2 0-.9-.2-.9-.6 0-.2.7-.9 1.3-1.5 1.3s-.8-.7-.4-1.5c.3-.9.15-1.743-.156-1.687zm-41.632.336c-.413-.075-.861.451-1.711 1.551-1.2 1.5-1.201 1.6.199 1.1.9-.4 2.2-.1 2.9.5 1 1 1 .7.1-1.1-.7-1.3-1.076-1.976-1.488-2.05zm10.52 2.608a10.757 10.757 0 0 0-2.731.244c-3.7.8-10.4 4.7-10.4 6.1 0 .5 1.899-.4 4.199-2.1 6-4.4 11.5-4.2 15.7.5 1.7 2 3.3 4.799 3.7 6.299 1 4.5 1.2 4.8 1.3 1.9.1-3.3-1.3-6.3-4.4-9.4-2.175-2.25-4.688-3.43-7.369-3.543zm25.042.205c-.125-.013-.223.038-.273.138-.4 1.4-.501 7.2-.201 6.1.3-.6.8-1 1.2-.7.9.5.6-4.4-.3-5.3-.15-.15-.3-.226-.426-.238zm5.139 6.338c-.188.025-.313.15-.313.4 0 .4.5 1.5 1 2.3.8 1.3 1 1.3 1-.2 0-.9-.4-2-1-2.3-.25-.15-.5-.225-.687-.2zm-60.838 2.8c-.325.075-.725.5-1.375 1.3-1 1.2-.8 1.3.8.9 1.2-.3 1.8-.9 1.5-1.4-.35-.6-.6-.875-.925-.8zm26.514 1.233a4.6 4.6 0 0 0-2.088.668c-.6.4 0 .899 1.5 1.199 1.6.3 2.6.1 2.6-.7 0-.812-.9-1.234-2.012-1.167zm7.511.967c-1 0-1.4.6-1 1.4.3.8.5 1.8.5 2.1 0 .8 2-2 2-2.9 0-.3-.7-.6-1.5-.6zm-36.15 2.05c-.3-.025-.55.15-.75.55-.4.6-.4 1.1.1 1.1.4 0 .3.4-.3.8-.7.4-.8 1.5-.3 2.7.7 1.9.8 1.9.8-.2.1-1.2.7-2.3 1.4-2.6.9-.3.9-.8.1-1.7-.4-.4-.75-.625-1.05-.65zm27.1.1c-.275.05-.45.2-.45.45 0 .5.7 1.4 1.5 2.1 1.2 1 1.5 1 1.5-.3 0-.8-.7-1.7-1.5-2.1-.4-.15-.775-.2-1.05-.15zm5.855.477c-.186.048-.305.197-.305.472 0 .2.7.902 1.5 1.602 1.3 1.1 1.4 1 .9-.4-.374-1.05-1.537-1.82-2.095-1.674zm15.262 2.134c-.217.136-.573 1.252-.967 3.44-.4 1.9-2.2 8-4.1 13.6-2.1 6.4-2.8 9.598-1.9 8.798.8-.6 1.4-2.099 1.4-3.299 0-1.7.2-1.8 1-.6.7 1.1 1 .1 1.1-3.5.1-4.2.2-4.5.8-2 .6 2.7.8 2.4 1.3-2.5.4-3 .9-7.4 1.3-9.8.394-2.869.345-4.313.067-4.139zm-15.84 2.114c-.295.093-.352.525-.127 1.125.3.8-.2 3-1.1 4.7-.9 1.8-1.4 3.4-1.1 3.7.5.5 3.8-6.8 3.8-8.4 0-.4-.5-.9-1.1-1.1a.608.608 0 0 0-.373-.025zm-35.572.224c-.124-.023-.217.076-.254.301-.1.7-.201 1.9-.301 2.5-.1.7-.5 1.6-1 1.9-.4.4-.3.9.2 1.3 1.6 1 3.1-2.6 2.1-4.9-.25-.687-.54-1.063-.745-1.1zm56.746 1.602c-.4 0-.501.699-.201 1.699.4 1.1.3 1.4-.5.9-.7-.4-1.2-.2-1.2.3 0 1.2 2.3 1.5 3.3.5.8-.8-.3-3.4-1.4-3.4zm10.199 4c-.6 0-.7.799-.4 1.699.5 1.2.2 1.5-1 1-.9-.3-1.7-.2-1.7.4 0 .6.8.9 1.7.7 1.9-.3 3.1-3.8 1.4-3.8zm-13.3 8c-.4 0-.8 1.3-.8 3 0 1.6.2 3 .4 3s.6-1.4.8-3c.3-1.7.1-3-.4-3zm-2.419.18c-.206.051-.356.594-.281 1.42 0 1.1.3 1.399.6.599.3-.7.2-1.6-.1-1.9-.075-.1-.15-.137-.219-.12zm4.113 3.273c-.182-.047-.294.497-.294 1.547 0 1.4.2 1.899.5 1.199.2-.6.2-1.8 0-2.5-.075-.15-.145-.23-.206-.246zm2 1.38c-.182-.065-.294.742-.294 2.167 0 1.9.2 2.699.5 1.699.2-.9.2-2.5 0-3.5-.075-.225-.145-.343-.206-.365zm8.887 1.346c-.206.052-.356.595-.281 1.42 0 1.1.3 1.4.6.6.3-.7.2-1.6-.1-1.9-.075-.1-.15-.137-.219-.12zm-18.828 4.057c-.14-.037-.254 1.164-.254 3.264 0 2.7.2 3.799.4 2.199.2-1.5.2-3.7 0-5-.05-.3-.1-.45-.146-.463zm-4.453 1.764c-.5 0-1.2 1.199-1.6 2.699-1.1 4.4-11.4 26.1-15.7 33-1.1 1.8-1.6 3.3-1.1 3.3.4 0 2.1-2.4 3.7-5.3 1.6-2.8 3.2-5.4 3.6-5.7.3-.3 1.1-2.1 1.7-4 1-3.1 1.1-3.2 1.2-.9.1 2.8 3.1 6.1 5.8 6.5 2.2.3 7.3-2.3 7.3-3.8 0-.6-.9-.3-1.9.6-1.9 1.7-2 1.7-2.4-.6-.4-2.3-.4-2.3-.6-.1-.1 3-1.6 2.9-4.6-.2-2.9-2.8-3.1-5.8-.9-10 2.8-5.2 6.4-15.5 5.5-15.5zm6.826.504c-.37-.099-.489.645-.226 1.695.3 1.3 1 2.8 1.5 3.4.4.6.5 1.9.2 2.8-.9 2.4.6 20.6 1.8 20.6.5 0 .7-.3.5-.8-1.1-1.7-1.8-20.2-.9-20.2.6 0 1.2.4 1.4.9.2.5 1.6 1.3 3.2 1.7 2.1.5 2.7.4 2.2-.5-.4-.6-1.6-1.1-2.6-1.1-2 0-6-4.4-6-6.6 0-.7-.4-1.5-.9-1.8a.49.49 0 0 0-.174-.095zm20.78.6c-.352-.012-1.055.62-2.305 1.995-1.9 2.2-1.902 2.2.398.8 1.2-.8 2.201-1.7 2.201-2.1 0-.45-.084-.689-.295-.696zm.82 3.97c.325-.1.474.174.474.824 0 .5-.7 1.2-1.6 1.5-1.4.5-1.5.402-.4-.898.7-.85 1.2-1.326 1.526-1.426zm-23.227 1.926c-.5 0-.7 2.399-.5 5.199.5 9.5.902 10.4 1.102 2.5 0-4.2-.202-7.7-.602-7.7zm-23.486 2.125c-.263 0-1.213.625-2.813 1.875-1.4 1.1-2 2-1.4 2 .6 0 1.9-.9 2.9-2 1.15-1.25 1.575-1.875 1.313-1.875zm19.875.986c-.163-.087-.638.187-1.588.787-.8.5-.9 1.1-.3 1.5.5.3 1.2-.098 1.6-.898.3-.85.45-1.301.288-1.389zm22.912 1.889c-.3 0-.8.4-1.1 1-.3.5-.1 1 .4 1 .6 0 1.1-.5 1.1-1 0-.6-.2-1-.4-1zm-13.266 1.07c-.2.02-.334.453-.334 1.328 0 .8.4 1.7.9 2 .5.4.7-.298.4-1.398-.338-1.294-.707-1.955-.966-1.93zm6.766.93c-.5 0-1.1.9-1.4 2.1-.4 1.6-.3 1.798.9.798 1.6-1.3 1.9-2.898.5-2.898zm2.326 3.049c-.195.014-.532.35-.926 1.05-.4.6-.5 1.2-.2 1.5.2.3.7-.2 1-1.1.393-.955.377-1.469.126-1.45zm-36.664 3.05c-.237 0-.812.3-1.762.9-.9.6-1 1-.3 1 .6 0 1.5-.5 1.8-1 .4-.6.5-.9.262-.9zm32.518.934a2.353 2.353 0 0 0-1.88 1.166c-.4.7-.3.8.4.4s1.2-.2 1.2.3c0 .6.5 1.1 1 1.1.6 0 1-.7 1-1.5 0-1.012-.823-1.52-1.72-1.466zm-10.08 1.967c-.5 0-.8 1.6-.8 3.5.1 1.9.8 3.999 1.5 4.699 1.1 1.1 1.3.9.7-1.2-.3-1.4-.6-3.5-.6-4.8 0-1.2-.4-2.2-.8-2.2zm-25.077 3.094a4.018 4.018 0 0 0-.722.005c-1.1 0-1.402.3-.602.6.7.3 1.6.2 1.9-.1.3-.225.038-.45-.576-.505zm39 0a4.018 4.018 0 0 0-.722.005c-1.1 0-1.402.3-.602.6.7.3 1.6.2 1.9-.1.3-.225.038-.45-.576-.505zm-29.873 3.168c-.25-.063-.25.188-.05.738.2.8 1.4 1.9 2.6 2.5 2.9 1.3 2.3 2.898-4.5 13.398-3 4.6-5.2 8.501-5 8.701.6.6 10.3-14.5 11.6-17.9.6-1.5 1.9-3 2.8-3.3 5.1-1.6 5.4-2.1 1-1.6-3.7.4-5.2.1-6.9-1.4-.8-.7-1.3-1.075-1.55-1.137zm19.178 1.001c-.29.024-.327.511-.027 1.336.3 1.1 1 5.9 1.5 10.8.6 4.9 1.299 9.2 1.699 9.5.3.3.4-1.2 0-3.4-.3-2.2-.8-7-1.2-10.8-.3-3.7-1.1-7-1.6-7.3-.15-.1-.275-.143-.372-.136zm-31.305.83a4.018 4.018 0 0 0-.722.006c-1.1 0-1.402.3-.602.6.7.3 1.6.2 1.9-.1.3-.225.038-.45-.576-.505zm37.7.147a1.758 1.758 0 0 0-1.323.76c-.4.6-.4 1.399-.1 1.699.3.4.6.1.6-.5 0-.7.5-1.2 1.1-1.2.5 0 .7.4.4 1-.3.5-.1 1 .5 1 1.4 0 .8-2.2-.7-2.7-.15-.05-.312-.068-.477-.059zm-10.424 1.092c-.261.015-.137.305.3.867.9 1.1 2 7.6 4 24.3.3 2.2.9 4.4 1.4 5 1.2 1.3 1.2-.3-.5-8.8-.8-4-1.699-10.2-2.099-13.9-.5-4.7-1.1-6.8-2.2-7.2-.45-.187-.745-.277-.901-.267zm-28.1 1.004a.954.954 0 0 0-.6.363c-.4.3-.699 1.1-.699 1.7 0 .6.5.5 1.2-.2.6-.6.9-1.4.7-1.7-.15-.15-.376-.2-.6-.163zm46.082.844c-.206.051-.356.594-.281 1.42 0 1.1.3 1.399.6.599.3-.7.2-1.6-.1-1.9-.075-.1-.15-.137-.219-.12zm2.09.326c-.135-.087-.29.78-.57 2.693-.3 2.2-.102 3.4.398 2.9s.7-2.1.5-3.7c-.131-1.182-.223-1.826-.328-1.893zm-36.47.494c-.5 0-1 .398-1 .898 0 .6.5 1.302 1 1.602.6.3 1-.1 1-.9 0-.9-.4-1.6-1-1.6zm13.9 2c-.5 0-.7.4-.4 1 .3.5.799 1 1.099 1 .2 0 .4-.5.4-1 0-.6-.5-1-1.1-1zm19.699 1.199c-.3-.2-.9 1.3-1.5 3.4-.5 2.2-1.5 5.9-2.1 8.4-.7 2.5-1.7 5.1-2.2 5.7-1.3 1.6-.3 1.7 2.2.3 1.2-.7 1.6-1.7 1.3-3.1-.4-1.5-.3-2 .5-1.5.7.4 1.2.3 1.2-.3 0-.5-.4-1.1-.9-1.3-.6-.2-.4-2.6.5-5.7.7-3 1.2-5.6 1-5.9zm-6.5 1.8c-.6 0-1.3.4-1.6 1-.3.5-.1 1 .5 1s.8.5.4 1.2-.3.8.4.4c1.4-.9 1.6-3.6.3-3.6zm-30.467.352c-.351-.07-.633.097-.633.547 0 .5.5 1.302 1 1.602.6.3 1 .2 1-.4 0-.5-.4-1.3-1-1.6a1.17 1.17 0 0 0-.367-.149zm17.367 1.649c-.5 0-.7.7-.4 1.5.4.8 1 1.198 1.5.898 1.1-.6.2-2.398-1.1-2.398zm25.4 0c-.2 0-.4.4-.4 1 0 .5.5 1 1.1 1 .5 0 .7-.5.4-1-.3-.6-.8-1-1.1-1zm-4.038 1.023c-.038.1-.011 1.375.039 3.875.1 3.7.5 5.6 1.5 5.9.8.3 1.099.001.699-.599-.3-.6-.3-1.2.1-1.5.5-.2.3-.2-.4-.1-.8.2-1.3-1.4-1.6-4.4-.2-2.2-.3-3.276-.338-3.176zm-45.762.977c-.2 0-1.3 1.6-2.5 3.6-1.2 1.9-1.6 3.2-1.1 2.9 1.1-.7 4.3-6.5 3.6-6.5zm3.033 1.974c-.365-.005-.633.124-.633.424 0 .2.7.7 1.6 1 .8.3 1.2.202.9-.398-.375-.625-1.257-1.016-1.867-1.026zm47.268.026c-.5 0-.7.4-.4 1 .3.5.799 1 1.099 1 .2 0 .4-.5.4-1 0-.6-.5-1-1.1-1zm-35.9 1c-.5 0-1 .398-1 .898 0 .6.5 1.302 1 1.602.6.3 1-.1 1-.9 0-.9-.4-1.6-1-1.6zm9.622 1.422c-.404-.066-.798.064-1.023.476-.3.5.1 1.1.9 1.5.8.3 1.5.102 1.5-.398 0-.813-.703-1.469-1.377-1.578zm-24.623 2.578c-.5 0-.7.7-.4 1.5.4.8.8 1.5 1 1.5.2 0 .4-.7.4-1.5s-.4-1.5-1-1.5zm12.5 1c-.2 0-.7.4-1 1-.3.5.1 1 1 1s1.3-.5 1-1c-.3-.6-.8-1-1-1zm39.5 0c-.5 0-.7.7-.4 1.5.4.8.8 1.5 1 1.5.2 0 .4-.7.4-1.5s-.4-1.5-1-1.5zm-30.44 1.101c-.197.058-.26.867-.26 2.498 0 1.7.2 2.2.7 1.3.5-.6.6-1.8.3-2.6-.35-.832-.585-1.242-.74-1.198zm26.11.903c-.394.052-.745.283-.97.695-.2.5-.1 1.9.2 3.2.6 2.3.7 2.3 2.1.5.9-1 1-1.5.3-1-.8.4-1.3.1-1.3-.9s.5-1.3 1.2-.9.8.3.4-.4c-.5-.875-1.274-1.282-1.93-1.195zm-21.77.545c-.624 0-1.4.55-2 1.65-1.1 2-1 2.1.3 1.1.8-.7 1.8-1 2.1-.6.4.3.7.1.7-.5 0-1.1-.474-1.65-1.1-1.65zm-29.267 1.802c-.351-.07-.633.097-.633.547 0 .5.5 1.302 1 1.602.6.3 1 .2 1-.4 0-.5-.4-1.3-1-1.6a1.17 1.17 0 0 0-.367-.149zm13.99 1.07c-.404-.065-.798.065-1.023.477-.3.5.1 1.1.9 1.5.8.3 1.5.102 1.5-.398 0-.813-.703-1.469-1.377-1.578zm10.871 2.032c-.182-.047-.294.497-.294 1.547 0 1.4.2 1.899.5 1.199.2-.6.2-1.8 0-2.5-.075-.15-.145-.23-.206-.246zm-9.566 1.523c-.548.007-.928.26-.928.823 0 .5-1 .8-2.1.8-1.2-.1-2.3.5-2.5 1.2-.1.7 0 .8.3.2.3-.8.9-.8 1.8 0s1.7.6 2.9-.6c1.4-1.4 1.9-1.4 3.4-.2s1.6 1.1.3-.5c-.875-1.062-2.258-1.734-3.172-1.723zm-17.428.024c-.8 0-1.5.198-1.5.398s.7.6 1.5 1c.8.3 1.5.102 1.5-.398 0-.6-.7-1-1.5-1zm31.6 0c-.6 0-.9.898-.8 1.898 0 1.1.5 1.7.9 1.5 1.1-.7 1-3.398-.1-3.398zm3.9 0c-.5 0-.7.7-.4 1.5.4.8.8 1.5 1 1.5.2 0 .4-.7.4-1.5s-.4-1.5-1-1.5zm-26.4 2c-.3 0-.8.4-1.1 1-.3.5-.1 1 .4 1 .6 0 1.1-.5 1.1-1 0-.6-.2-1-.4-1zm-11.262.437a.817.817 0 0 0-.638.162c-1.1 1.1.3 2.4 2.6 2.3 1.5 0 1.7-.2.7-.6-.8-.3-1.8-1-2.1-1.5a.905.905 0 0 0-.562-.362zm26.737 1.674c.575-.012.925.289 1.525.889.6.6 2.7 1.099 4.7 1.199l3.7.1-.7 4.1c-.3 2.3-.7 4.3-.9 4.5-.2.2-2.5.6-5.2.9l-4.8.4-1.3-3.8c-.7-2.2-1.5-4.5-1.7-5.2-.3-.6.5-1.6 1.8-2.1 1.5-.65 2.3-.975 2.875-.988zm15.01.27c.69-.07 1.466-.031 2.316.119 1.6.3 3.4.5 4.1.5.8 0 1.5 2.1 2 5.6.7 5.6 1.699 8.699 6.199 18.199 1.3 3 2.2 5.6 1.9 5.9-.9.9-2.7-.8-3.7-3.5-1.8-4.9-7.3-13.2-9-13.7-1.5-.5-1.6-1.1-.7-3.6 1.2-3.5 0-5.6-2.6-4.6-2.1.8-2.1 2.7 0 2.7.9 0 1.2-.5.8-1.3-.5-.8-.4-.9.4-.2.6.6.9 2 .6 3.2-.5 1.8-1.2 2.2-3.8 2-3.2-.3-3.4-.7-2.2-8 .3-1.95 1.612-3.112 3.684-3.318zm-23.788 2.306c2.203.038 2.578.638 3.403 2.813.6 1.6 1.2 4.2 1.2 5.6.1 2.1-.6 2.9-3 3.9-3.4 1.4-5.6.3-4.6-2.4.7-1.8 2.7-2.2 2.7-.6 0 .5-.5 1-1.1 1-.5 0-.7.5-.4 1 .9 1.5 2.5.198 2.5-2.102 0-1.5-.6-1.999-2.2-1.699-1.8.2-2.3 1-2.4 3.3 0 1.7-.7 4.1-1.6 5.5-.9 1.4-2.6 4.9-3.8 7.7-1.2 2.9-2.6 5.3-3.1 5.3s-.9.7-.9 1.7c0 .9-.3 1.4-.6 1-.3-.3.2-2.8 1.1-5.4 1.9-5.3 3.3-11.9 4.1-20.5l.6-5.7 5.2-.3c1.226-.075 2.163-.124 2.897-.112zm33.479 1.912c.45.175 1.473 1.25 3.523 3.4 3.9 4 4.001 4.3 2.201 5.6-1.4 1.1-1.5 1.4-.4 1.4.8 0 2-.5 2.5-1 .8-.8 1.9.1 3.7 2.8 1.5 2.1 2.7 4.3 2.7 5 0 .6.6.9 1.3.7 1.8-.7 7.1 2.9 10.3 7l2.7 3.6-2.1 6.8c-1.2 3.7-2.2 7.7-2.2 8.9 0 1.8-.6 2.2-3.5 2.2-3.3 0-3.5-.2-3.5-3.5 0-2.5.4-3.3 1.4-2.9.8.3 1.7.1 2.1-.5.3-.6-.1-1.1-.9-1.1-1.6 0-2.1-2.1-1.7-6.7.1-1.2-.8-4.2-2.1-6.5-1.2-2.4-2.1-4.8-2-5.4.1-.6-.5-1.1-1.3-1.1s-1.5 1-1.6 2.1c0 1.5-.5 1-1.6-1.7-.8-2-1.9-3.7-2.4-3.7s-.3 1.3.6 3c.8 1.6 1.5 3.9 1.5 5.1 0 4.9-8-13.6-9.3-21.5-.25-1.45-.374-2.175.076-2zm-32.276.4c-.2 0-.7.4-1 1-.3.5.1 1 1 1s1.3-.5 1-1c-.3-.6-.8-1-1-1zm-6.312 1.013c-.463-.038-1.038.187-1.488.687-1.2 1.2-.7 2.2.8 1.7.8-.4 1.5-1 1.5-1.5 0-.55-.35-.85-.812-.887zm18.234.156c-.253-.038-.422.205-.422.73 0 .7-.5.9-1.2.5-.7-.5-.8-.3-.3.5.5.9 1 1.001 1.8.201.6-.6.8-1.4.4-1.8a.632.632 0 0 0-.278-.131zm-23.021.832c.2 0-.3 3.8-1 8.5-1.3 9.1-3.502 16.799-4.102 14.799-.2-.7.101-2.2.701-3.5.9-1.8.6-1.7-1.6.7-1.4 1.6-2.3 2.5-2 1.8.7-1.3-1-2.8-1.8-1.5-.6 1 4.3 8.2 5.7 8.2.5 0 1.9-1 3-2.3l2-2.2-.6 2.5c-.3 1.4-1.3 5.1-2.2 8.4-1.5 5.6-1.5 8.6.2 8.6.4 0 .9-2.8 1.1-6.2.4-9.2 2-9.5 1.9-.4l-.2 7.7-5.4-.3c-4.3-.2-5.5-.7-6.2-2.3-.7-1.9-.8-1.8-.8.4-.1 2.1-.4 2.3-3.2 1.7-1.7-.3-4.1-.6-5.3-.6-1.9 0-2.1-.5-2.1-6.2 0-3.5-.3-7.4-.7-8.8-.6-2.1-.1-3 3.3-5.8 4.1-3.5 9.2-5.4 6.9-2.7-.6.8-.8 2-.4 2.7 1 1.6.6 7.1-.7 10.6-1.6 4-2 9-.9 9.7.6.3 1-.5 1-1.9 0-1.3.4-3.6 1-5 1.6-4.3 2.2-11.4 1.1-13.4-.8-1.5-.7-2.1.4-2.6.8-.3 1.5-1.2 1.5-1.9 0-.8.7-2 1.5-2.7.8-.7 1.5-1.8 1.5-2.4 0-.6-1.2.1-2.5 1.6-3.5 4-3.9 3.4-.9-1.1 1.8-2.8 3.1-3.8 4.2-3.3 1.5.5 1.5.4.2-1.3-1.4-1.7-1.3-1.7 1-1.2 1.4.4 1.9.4 1.3.1-.7-.3-1.3-1-1.3-1.6 0-.9 3.8-6.8 4.4-6.8zm25.398 6.1c4.2-.1 4.4-.001 6.4 4.599 2.2 5.1 2.601 10.6 1.301 18.8-.4 2.7-.8 7.1-.9 9.7-.1 4.4-.3 4.8-2.6 4.9-7.3.2-11.2.1-11.7-.5-.4-.4-.6-2.6-.5-4.9.1-3.8 0-3.9-.9-1.7-.6 1.4-.8 3.8-.5 5.3l.6 2.8-6.3-.2c-3.4-.1-6.8-.6-7.5-1.2-.9-.7-1.1-3-.6-8.7.4-5.1.3-8.4-.5-9.8-.9-1.7-.8-2.8.5-5.4 5.2-10.1 11.9-13.6 14.9-7.8 1.7 3.3 2 14.4.5 18.4-.5 1.5-.6 2.8 0 3.1.9.5 1.4-1.6 2.4-10.5.7-5.4-.7-12-2.8-13.6-.9-.6-1.6-1.4-1.6-1.7 0-.7 4.1-1.4 9.8-1.6zm7.602.9c.7 0 2.1 1.1 3 2.5 1.5 2.3 1.5 2.5.1 2.5-.9 0-1.3.5-1 1 1 1.6 3.7-1.001 3-2.801-.9-2.5 2.399.7 4.099 3.9 2.1 4.2 1.7 4.9-.7 1-1.1-1.8-2.3-3.1-2.6-2.7-.3.3.2 1.4 1.1 2.5 2.2 2.4 4.6 11.3 4.6 17.1 0 7.3 1.1 11.9 2.9 12.3.9.3-1.6.5-5.6.6-9.5.1-9.9-.5-7.7-13.6 1.7-10.8 1.5-15-1-20.6-1.3-3-1.4-3.7-.2-3.7zm-5.172.047c-.617-.121-.492 1.027.57 3.152 1.9 3.8 2.001 13.8.201 23.7-.9 5.2-.9 6.6.2 7.7 1.1 1.1 1.4.2 1.7-5.4 1-14.4.6-25.9-.8-27.5-.863-1.05-1.5-1.58-1.871-1.652zm-5.649 2.054c-.436.024-.605.398-.38.998.2.7 1 1.5 1.7 1.7.8.3 1.2-.1.9-.9-.2-.7-1-1.5-1.7-1.7a1.308 1.308 0 0 0-.52-.098zm31.12.899c-.3 0-.4 1.1-.2 2.5.1 1.4.6 2.899 1 3.299.4.4.4-.4.1-1.8l-.7-2.5 1.5 2.5c.9 1.5 1.5 1.9 1.5 1 0-1.5-2.2-5-3.2-5zm-42.12 1.34a1.206 1.206 0 0 0-.98.359c-.3.3.1 1.1.9 1.7 2.9 2.1 3.4 10 1.4 19.4-1.8 7.9-1.8 8.7-.3 10.2 1.5 1.4 1.6 1.3 1-.6-.4-1.2.2-5.8 1.2-10.2 2-8.4 2-12.7.1-17.4-.824-2.025-2.213-3.375-3.32-3.46zm-15.923 4.091c-.406-.052-1.282.606-2.157 1.569-1 1.1-1.6 2.2-1.3 2.5.3.3 1.3-.4 2.3-1.5 1-1.1 1.6-2.2 1.3-2.5a.238.238 0 0 0-.143-.069zm29.244.868c-1.2-.1-1.902.3-1.602 1 .5 1.5 2.9 1.6 3.4.2.2-.6-.598-1.1-1.798-1.2zm38.302 1.773c-.13.028-.203.165-.203.428 0 .3.7 1.7 1.6 3.1 1.4 2 1.6 4.199 1.1 11.699-.6 10.3 1 8.8 2-1.9.4-4.5.1-6.8-1.1-9.1-1.219-2.438-2.834-4.348-3.397-4.227zm-6.765 2.941c1.286-.311 2.137 1.112 3.262 4.487.8 2.5.8 17.3 0 18.1-.1.2-2.3.6-4.8.9l-4.6.6.1-9.1c.1-8.7.3-9.402 3.1-12.602 1.238-1.387 2.166-2.198 2.938-2.385zm5.324.413c-.525-.052-.712.248-.562.773.5 1.5 2.8 2.3 2.8 1 0-.5-.7-1.3-1.6-1.6a2.41 2.41 0 0 0-.638-.173zm-16.162.574c.5 0 1.5 1.199 2.1 2.799 2 4.4 2.6 8.8 1.9 13.7-1.1 7.1-2.3 5.3-2.8-4.3-.3-4.8-.9-9.5-1.3-10.5-.4-.9-.3-1.7.1-1.7zm-63.275 2.148c-.175-.025-.375.151-.625.551-.9 1.4 1.7 4.8 3.1 3.9 1.7-1 1.5-2.6-.2-2.6-.8 0-1.6-.5-1.8-1.2-.15-.4-.3-.626-.475-.65zm10.076 2.889c-.15.012-.351.461-.701 1.361-.4 1-.5 2.1-.2 2.4.9.9 1.7-.6 1.3-2.5-.15-.85-.25-1.274-.4-1.261zm71.228.994c-.395-.096-.629.443-.629 1.568 0 .8.5 1.2 1 .9.6-.4.8-1.1.5-1.6-.337-.526-.633-.81-.87-.868zm-82.658 3.234c-.577-.042-.97.183-.97.633 0 1.7 2.998 2.501 4.298 1.201.8-.8.8-1.1 0-1.1-.6 0-1.8-.3-2.7-.6a2.609 2.609 0 0 0-.628-.134zm10.41.914c-.206.052-.356.595-.281 1.42 0 1.1.3 1.4.6.6.3-.7.2-1.6-.1-1.9-.075-.1-.15-.137-.219-.12zm-11.17 6.961c-.068.022-.111.135-.111.36 0 .5.4 1.7.9 2.5.7 1.2 1.2 1.199 2.2.199.9-.9.9-1.2-.4-1.2-.9 0-1.9-.6-2.1-1.3-.188-.375-.374-.594-.489-.559zm12.79.258c-1.3 0-1.6.4-1 1 .7.7 1.3.7 2 0 .6-.6.3-1-1-1zm69.4 1.602c-.2 0-.4.4-.4 1 0 .5.499 1 1.099 1 .5 0 .7-.5.4-1-.3-.6-.8-1-1.1-1z"/>
  </symbol>
</svg>
