<svg xmlns="http://www.w3.org/2000/svg">
  <symbol id="1" viewBox="0 0 1000 360">
    <path d="M803.68667101 42.8775705c-8.782472 4.391236-11.365552 15.240172-6.974316 30.222036 2.841388 9.557396 6.974316 15.756788 17.564944 25.572492l13.948632 12.657092-8.007548 16.531712c-4.649544 9.04078-11.107244 18.339868-14.723556 20.922948-7.490932 5.424468-21.439564 6.4577-31.771884 2.324772-6.974316-2.58308-6.974316-2.841388-3.099696-10.33232 2.066464-4.391236 2.841388-8.265856 1.549848-9.04078-1.29154-.774924-2.841388 0-3.616312 2.066464-.774924 1.808156-4.391236 4.132928-8.265856 5.16616-10.074012 2.58308-19.3731-4.132928-19.3731-13.948632 0-4.391236-.774924-7.74924-1.808156-7.74924-1.29154.258308-6.974316 4.649544-12.9154 9.815704-8.524164 7.490932-10.590628 10.848936-9.557396 15.49848 1.29154 4.391236 3.099696 5.424468 7.74924 4.649544 7.490932-1.549848 8.265856 2.324772 1.29154 4.391236-5.424468 1.29154-14.465248-6.199392-11.365552-9.299088 2.841388-3.099696-1.808156-2.066464-9.557396 2.066464-4.391236 2.324772-7.74924 5.682776-7.74924 7.74924 0 4.907852 10.848936 11.107244 12.398784 6.716008.516616-1.549848 2.066464-2.324772 3.358004-1.29154 1.29154.774924 2.324772 0 2.324772-1.29154 0-1.549848-1.033232-2.841388-2.324772-2.841388s-3.099696-2.066464-3.87462-4.391236c-1.29154-3.358004-.258308-3.099696 4.649544 1.549848 5.941084 5.424468 6.716008 13.173708 1.29154 13.173708-1.29154 0-2.324772 2.324772-2.324772 5.16616 0 5.941084 3.87462 6.4577 12.9154 1.29154 12.398784-6.974316 13.690324-5.424468 12.140476 13.432016-.774924 9.815704-.258308 19.3731.774924 21.697872 2.066464 3.616312-.516616 3.87462-24.022644 2.841388-25.572492-1.033232-26.605724-.774924-33.58004 5.682776-5.941084 5.424468-7.232624 8.524164-6.4577 16.531712 1.033232 11.107244 8.265856 13.690324 9.04078 3.099696.516616-5.424468.258308-5.682776-1.29154-1.549848-2.066464 4.649544-2.324772 4.649544-3.87462.516616-2.58308-6.4577-2.324772-6.716008 3.358004-6.716008 2.841388 0 5.16616-1.033232 5.16616-2.58308 0-1.29154-2.066464-1.808156-4.391236-.774924-3.87462 1.29154-4.132928 1.033232-1.29154-2.066464 3.87462-4.132928 23.764336-10.33232 23.764336-7.232624 0 1.033232 2.066464 1.549848 4.649544.516616 2.324772-.774924 3.616312-.516616 2.324772.516616-1.033232 1.29154-4.391236 2.324772-7.74924 2.58308-4.132928.258308-6.4577 2.841388-8.524164 9.04078-1.808156 5.424468-3.358004 7.232624-4.132928 4.907852-.774924-2.066464-.258308-5.941084 1.033232-8.782472 2.324772-5.16616 2.324772-5.16616-1.549848-.258308-2.324772 2.841388-4.132928 7.74924-4.132928 11.107244 0 5.16616.774924 5.682776 8.524164 4.132928 9.557396-1.808156 12.140476-4.649544 10.33232-11.107244-2.324772-9.299088 5.682776-8.524164 40.812664 2.58308 16.015096 5.16616 20.922948 8.007548 25.314184 14.981864l5.682776 8.524164-5.424468 12.140476c-6.716008 15.240172-5.16616 21.439564 6.4577 26.864032 8.265856 3.616312 9.04078 3.616312 9.04078-.258308 0-2.324772 1.808156-6.716008 3.87462-9.815704 3.616312-5.16616 3.616312-5.941084-1.29154-8.524164-3.87462-2.066464-5.16616-4.907852-4.649544-10.590628.258308-4.391236 1.549848-8.524164 2.58308-9.04078 1.033232-.774924-.516616-6.4577-3.099696-12.9154-5.424468-12.657092-3.616312-21.697872 4.132928-21.697872 19.3731 0 54.502988-39.521124 72.067932-81.883636l6.4577-14.981864-1.549848 20.66464c-1.808156 23.24772 1.29154 38.487892 9.557396 47.528672 4.649544 4.907852 6.974316 5.424468 16.273404 4.132928 5.682776-1.033232 10.848936-2.324772 11.365552-2.58308.516616-.516616-1.29154-5.16616-3.616312-10.590628-2.324772-5.682776-4.132928-11.107244-3.87462-12.140476.516616-2.58308-7.232624-5.424468-9.299088-3.358004-.774924.774924 0 3.099696 1.808156 5.424468 4.649544 5.682776.774924 4.907852-5.682776-1.29154-11.365552-10.590628-.516616-50.111752 16.273404-59.152532 4.907852-2.58308 18.339868-10.074012 30.222036-16.531712l21.181256-11.882168v7.490932c0 13.432016 5.424468 34.613272 11.882168 45.462208 7.232624 12.9154 15.240172 15.756788 28.672188 10.074012l9.299088-3.87462-5.16616-5.941084c-2.841388-3.099696-5.941084-7.74924-6.974316-10.590628-1.033232-3.099696-2.841388-4.132928-6.199392-2.841388-9.04078 3.616312-11.882168 2.58308-13.690324-5.16616-2.58308-11.882168-2.58308-42.879128 0-52.178216 2.841388-9.557396 1.033232-12.398784-4.649544-7.74924-9.04078 7.490932-36.679736 17.564944-45.978824 16.79002-8.524164-.774924-9.815704-1.808156-11.365552-9.299088-3.358004-16.531712-16.273404-23.764336-32.2885-18.598176-10.074012 3.358004-24.022644 20.148024-32.805116 39.262816-3.099696 6.716008-6.974316 12.398784-8.782472 12.398784-1.549848 0-8.265856-5.941084-14.981864-13.432016-9.557396-10.590628-11.62386-14.723556-11.107244-21.181256.516616-5.941084 2.324772-8.265856 6.716008-8.782472 6.716008-1.033232 9.815704 4.907852 6.199392 11.62386-3.099696 5.424468 1.033232 14.981864 9.815704 22.731104l5.941084 5.16616-1.549848-16.79002c-.774924-10.33232-.516616-14.723556.774924-11.62386 2.066464 4.649544 2.324772 4.649544 2.324772-1.29154.258308-6.4577-5.682776-17.306636-11.107244-21.181256-3.87462-2.841388-14.723556-2.324772-21.439564 1.033232zm6.974316 4.649544c0 1.29154-.516616 2.58308-1.033232 2.58308-.774924 0-2.066464-1.29154-2.841388-2.58308-.774924-1.549848-.258308-2.58308 1.033232-2.58308 1.549848 0 2.841388 1.033232 2.841388 2.58308zm16.79002 2.58308c2.58308 2.841388 3.87462 5.941084 3.099696 6.716008-1.033232 1.033232-2.324772-.258308-3.358004-2.58308-.774924-2.324772-4.391236-4.132928-7.74924-4.132928s-6.199392-1.29154-6.199392-2.58308c0-4.391236 9.299088-2.841388 14.20694 2.58308zm-24.53926 3.87462c-6.199392 7.490932 4.649544 28.41388 22.214488 41.587588 8.782472 6.716008 9.04078 6.716008 12.9154 2.066464 2.324772-2.58308 3.358004-3.358004 2.324772-1.808156-.774924 1.808156-.258308 3.358004 1.033232 3.358004 1.549848 0 2.841388-1.29154 2.841388-2.58308 0-1.549848 2.324772-2.58308 5.16616-2.58308 3.358004 0 5.16616 1.808156 5.16616 5.16616 0 2.841388 1.033232 5.16616 2.58308 5.16616 1.29154 0 1.808156-1.808156 1.033232-3.87462-1.033232-2.58308 0-3.87462 3.099696-4.132928 3.099696 0 2.066464-1.033232-2.841388-2.841388-13.432016-4.649544-14.465248-6.716008-8.524164-16.531712 6.974316-11.62386 15.756788-18.339868 23.24772-17.564944 3.358004.258308 7.74924.774924 10.074012.774924 2.324772.258308 4.907852 2.58308 5.682776 5.424468.774924 2.841388 2.324772 5.16616 3.616312 4.649544 1.033232-.258308 6.4577 1.033232 11.62386 3.099696 6.716008 2.324772 8.782472 4.391236 6.4577 5.682776-1.808156 1.29154 0 1.808156 4.649544 1.549848 8.524164-.516616 14.20694 1.808156 14.20694 5.941084 0 1.549848-1.549848 1.808156-3.099696.774924-3.358004-2.066464-12.398784-3.358004-12.398784-1.808156 0 .516616 2.58308 1.808156 5.682776 3.099696 4.907852 1.808156 3.87462 2.841388-9.04078 8.782472-7.74924 3.87462-15.756788 6.974316-17.048328 6.974316-1.549848 0-2.841388 1.033232-2.841388 2.324772 0 5.16616-19.631408 5.424468-35.904812.258308-9.299088-2.58308-17.048328-4.649544-17.564944-4.132928-.516616.516616 4.907852 3.358004 12.398784 6.4577 7.232624 3.099696 13.690324 5.16616 14.723556 4.391236.774924-.774924 3.87462 2.841388 7.232624 8.265856 4.132928 6.716008 5.424468 11.882168 4.391236 17.306636-2.066464 11.62386-6.199392 14.20694-5.424468 3.87462.774924-18.08156-.258308-20.66464-9.04078-24.53926-17.564944-7.232624-21.181256-7.232624-24.53926 0-2.58308 5.424468-2.324772 7.74924.516616 12.140476 3.616312 4.907852 3.358004 5.941084-2.841388 10.590628-4.907852 4.132928-6.974316 4.391236-8.524164 1.808156-3.616312-5.682776-6.199392 12.9154-2.58308 19.3731 2.58308 4.649544 4.907852 5.682776 11.365552 4.649544l8.007548-1.29154-5.941084 6.199392c-4.907852 5.16616-6.4577 5.424468-11.107244 2.58308-3.099696-2.066464-5.941084-2.841388-6.716008-2.066464-.774924.774924 1.549848 2.841388 5.16616 4.391236 7.490932 3.358004 6.716008 8.782472-1.033232 6.716008-2.58308-.774924-5.682776-.258308-6.4577 1.033232-.774924 1.29154 0 2.324772 1.29154 2.324772 1.549848 0 2.841388 1.808156 2.841388 4.132928 0 2.58308-1.549848 3.616312-3.616312 2.841388-2.066464-.774924-4.391236-.258308-5.16616 1.549848-.774924 1.808156-.774924-2.841388-.258308-9.815704.774924-7.232624 1.808156-18.08156 2.324772-24.53926 1.033232-11.882168 17.823252-50.111752 20.66464-47.270364.774924 1.033232 1.549848.516616 1.549848-1.033232s-1.808156-3.616312-4.132928-4.391236c-2.066464-.774924-3.099696-2.841388-2.324772-4.391236 1.033232-1.549848.258308-2.324772-2.066464-1.808156-2.324772.516616-4.132928-.258308-4.132928-1.29154s-3.87462-5.16616-8.265856-9.04078c-10.848936-9.04078-18.598176-26.605724-16.531712-36.938044 1.033232-4.132928 2.841388-6.716008 4.132928-5.941084 1.549848 1.033232 1.549848 2.841388-.258308 4.907852zm91.957648-2.324772c4.649544 3.616312 4.649544 3.616312-1.549848.774924-8.007548-3.616312-9.299088-4.907852-6.199392-4.907852 1.549848 0 4.907852 1.808156 7.74924 4.132928zm-1.033232 7.490932c5.682776 3.87462 9.557396 7.490932 8.782472 8.524164-1.033232.774924-5.16616-1.29154-9.557396-4.391236-4.132928-3.099696-11.882168-6.4577-16.531712-7.232624-4.907852-.774924-8.524164-2.324772-7.74924-3.358004 2.324772-3.616312 14.723556-.516616 25.055876 6.4577zm-67.16008 11.365552c.516616 4.391236.258308 7.232624-1.033232 6.4577-2.066464-1.29154-3.099696-13.948632-1.033232-13.948632.516616 0 1.549848 3.358004 2.066464 7.490932zm135.353392-3.358004c-.774924 2.324772-1.549848 9.557396-1.549848 16.015096l-.258308 12.140476-3.87462-8.782472c-2.58308-6.199392-2.841388-9.815704-1.033232-11.62386 5.682776-5.682776 2.066464-7.232624-3.87462-1.549848-3.616312 3.358004-6.4577 5.16616-6.4577 4.132928 0-1.29154-2.066464.258308-4.391236 3.358004l-4.649544 5.682776-4.907852-5.682776c-4.649544-5.682776-4.649544-5.682776.516616-4.391236 3.099696.774924 9.557396-1.549848 16.273404-5.941084 13.173708-8.265856 16.531712-9.04078 14.20694-3.358004zm-.258308 39.262816c0 4.649544.774924 8.265856 1.808156 8.265856 1.033232 0 1.29154 1.549848.516616 3.358004-.516616 1.808156 1.033232 5.424468 3.87462 8.265856 4.391236 3.616312 5.941084 3.87462 9.299088 1.29154 2.841388-2.324772 3.87462-2.324772 3.87462-.258308 0 1.808156 1.29154 2.324772 2.58308 1.549848 2.58308-1.549848 2.841388-1.29154 3.87462 7.74924.516616 4.391236-1.033232 5.16616-8.265856 4.907852-4.649544-.258308-9.557396-1.29154-10.590628-2.324772-1.033232-1.29154-.516616-1.29154 1.29154-.516616 1.549848 1.033232 4.391236.258308 6.4577-1.549848 1.808156-2.066464 5.16616-3.099696 7.232624-2.324772 2.066464.774924 3.099696.258308 2.066464-.774924-3.099696-3.358004-20.406332-3.87462-18.598176-.774924 1.033232 1.808156.516616 2.066464-1.29154 1.033232-1.549848-1.033232-2.324772-3.099696-1.549848-4.391236 1.033232-1.29154-.258308-4.907852-2.324772-7.74924-2.324772-3.616312-3.358004-8.524164-2.324772-13.432016 1.033232-4.907852.516616-7.232624-1.033232-6.199392-1.29154.774924-2.58308-.258308-2.58308-2.324772s1.29154-3.358004 2.841388-2.841388c1.549848.516616 2.841388 4.649544 2.841388 9.04078zm-76.20086 8.265856c0 1.29154-1.808156 2.58308-4.132928 2.58308-3.099696 0-3.87462 1.549848-2.841388 5.424468 1.033232 4.132928.774924 4.649544-2.324772 2.066464-5.424468-4.391236-4.391236-9.557396 2.324772-10.848936 3.099696-.516616 5.941084-1.29154 6.4577-1.549848.258308 0 .516616.774924.516616 2.324772zm-33.58004 5.424468c0 1.29154 1.549848 1.549848 3.616312.774924 2.066464-.774924 4.132928-.516616 4.907852.774924 1.808156 2.841388-11.107244 29.70542-15.756788 33.321732-2.324772 1.808156-3.099696 4.132928-1.808156 6.4577 1.29154 2.066464 1.29154 2.841388 0 1.808156-1.033232-1.033232-3.87462-.774924-6.199392.516616-2.58308 1.29154-5.941084 1.29154-8.265856-.258308-3.099696-1.808156-3.099696-2.324772.258308-2.58308 2.066464-.258308 4.649544-.258308 5.682776-.258308.774924.258308 2.324772-1.29154 3.099696-3.358004 1.549848-4.649544-1.29154-5.16616-5.424468-1.033232-3.099696 3.099696-8.524164 1.29154-8.524164-2.841388 0-3.616312 24.022644-18.339868 27.638956-17.048328 1.808156.774924 3.358004-.258308 3.358004-2.58308 0-2.841388-1.033232-3.099696-4.649544-1.29154-3.358004 1.808156-5.941084 1.549848-7.74924-.258308-3.099696-3.099696-4.132928-12.9154-1.549848-15.49848 1.808156-2.066464 11.365552.774924 11.365552 3.358004zm-113.65552 3.616312c0 2.066464-1.033232 3.87462-2.58308 3.87462-1.29154 0-1.808156-1.808156-1.033232-3.87462 1.033232-2.066464 2.066464-3.87462 2.58308-3.87462s1.033232 1.808156 1.033232 3.87462zm1.033232 14.465248c-2.066464 3.616312-6.199392 2.58308-6.199392-1.549848 0-2.324772 1.549848-3.099696 3.87462-2.324772 2.066464 1.033232 3.099696 2.58308 2.324772 3.87462zm-11.365552 1.549848c0-1.033232 2.841388 0 6.4577 2.324772 3.87462 2.58308 6.4577 3.099696 6.4577 1.29154 0-1.808156 2.066464-2.066464 6.4577-.258308 4.132928 1.549848 9.04078 1.549848 13.690324 0 6.199392-2.324772 6.4577-2.324772 2.324772 1.033232-4.132928 3.099696-3.099696 4.132928 9.815704 10.33232 11.365552 5.16616 15.49848 6.199392 19.3731 4.132928s5.16616-2.066464 5.16616.516616c0 1.808156 1.808156.516616 4.132928-2.58308 2.066464-3.099696 4.907852-5.682776 6.199392-5.682776 3.099696 0 1.549848 44.170668-1.808156 50.111752-1.29154 2.324772-6.716008 6.4577-11.882168 9.04078-8.782472 4.391236-9.815704 4.649544-12.140476.516616-2.066464-3.358004-2.324772-3.099696-2.58308 1.808156 0 3.358004-1.29154 8.524164-2.841388 11.365552-1.808156 3.616312-2.066464 5.941084-.258308 7.74924 1.549848 1.549848 2.066464 4.391236 1.29154 6.716008-1.033232 2.066464-.516616 3.358004.774924 2.324772 1.29154-.774924 2.841388 1.549848 3.099696 5.424468l.258308 6.974316-4.132928-7.74924c-2.58308-4.391236-4.132928-8.782472-3.87462-9.815704.516616-1.29154-1.549848-2.841388-4.132928-3.616312-2.841388-.516616-6.4577-4.132928-8.007548-7.490932s-4.649544-6.199392-6.716008-6.199392c-2.324772 0-3.358004-1.29154-2.58308-2.58308.774924-1.549848-.774924-2.58308-3.616312-2.58308-2.841388 0-5.682776-2.324772-6.716008-5.16616-1.808156-5.941084.516616-11.107244 4.132928-8.782472 1.29154.774924 1.549848 2.58308.774924 4.132928-1.033232 1.808156-.516616 2.066464 1.29154 1.033232 1.549848-1.033232 2.324772-3.099696 1.549848-4.391236-3.358004-5.16616 3.87462-2.066464 7.490932 3.358004 2.324772 3.099696 4.132928 4.649544 4.132928 3.099696 0-5.16616-9.299088-11.365552-14.981864-10.074012-3.099696.516616-6.199392 0-6.974316-1.549848-1.033232-1.29154-.516616-2.324772.774924-2.324772 2.58308 0 7.74924-10.074012 10.848936-21.439564 1.808156-5.941084 1.549848-6.974316-2.841388-6.974316-2.58308 0-4.907852-1.549848-4.907852-3.358004 0-1.808156-.774924-2.066464-2.066464-.516616-2.066464 3.099696-14.723556 3.358004-17.564944.516616-1.033232-1.033232-.516616-1.808156 1.29154-1.808156 1.808156 0 2.324772-1.29154 1.29154-3.358004-1.549848-2.066464-.774924-2.066464 2.324772.258308 2.58308 2.066464 5.682776 2.58308 8.007548 1.29154 3.099696-1.808156 2.58308-3.358004-2.58308-9.299088-3.358004-3.87462-6.199392-5.941084-6.199392-4.132928 0 2.066464-1.033232 2.066464-3.87462-.258308-2.066464-1.808156-3.099696-4.391236-2.324772-5.682776 1.033232-1.549848 2.58308-1.29154 3.87462.774924 1.29154 2.066464 2.324772 2.841388 2.324772 1.549848zm-21.95618 13.690324c.774924 1.29154.258308 2.58308-1.033232 2.58308-1.549848 0-2.841388-1.29154-2.841388-2.58308 0-1.549848.516616-2.58308 1.033232-2.58308.774924 0 2.066464 1.033232 2.841388 2.58308zm29.70542 0c0 1.29154-.516616 2.58308-1.033232 2.58308-.774924 0-2.066464-1.29154-2.841388-2.58308-.774924-1.549848-.258308-2.58308 1.033232-2.58308 1.549848 0 2.841388 1.033232 2.841388 2.58308zm138.453088 3.099696c-.258308 1.808156-1.29154 4.649544-2.066464 6.199392-2.066464 3.099696 11.107244 13.948632 16.79002 13.948632 2.066464 0 5.424468 2.066464 7.232624 4.391236 2.066464 2.324772 2.324772 3.616312.774924 2.58308-1.808156-1.033232-3.616312 0-4.649544 2.066464-2.066464 5.682776-11.107244 4.649544-15.756788-1.808156-2.066464-3.358004-2.841388-6.199392-1.29154-6.716008 1.29154-.516616.258308-3.358004-2.58308-6.4577-3.099696-3.358004-4.391236-6.199392-2.841388-7.74924 1.29154-1.29154 1.808156-4.132928 1.033232-5.941084-.774924-2.066464-.258308-3.616312 1.29154-3.616312s2.324772 1.549848 2.066464 3.099696zm-130.703848 21.95618c-2.841388 4.391236-2.841388 4.391236-1.549848 0 .774924-2.58308 1.808156-6.716008 1.808156-9.04078.258308-3.87462.516616-3.87462 1.549848 0 .516616 2.58308-.258308 6.4577-1.808156 9.04078zm3.616312 39.779432c4.132928 3.616312.774924 4.649544-8.782472 2.324772-5.424468-1.29154-6.974316-2.324772-3.87462-2.58308 5.16616-.258308 5.16616-.258308 0-2.841388-4.132928-1.808156-3.616312-2.066464 2.58308-.774924 4.391236.774924 8.782472 2.58308 10.074012 3.87462zm-44.945592 9.299088c-.258308 6.199392-.516616 6.716008-2.841388 2.58308-1.29154-2.324772-1.808156-5.682776-1.033232-6.974316 2.58308-4.391236 3.87462-2.841388 3.87462 4.391236zm57.602684-1.29154c1.29154 5.424468 1.29154 5.424468-1.808156 1.549848-1.808156-2.58308-4.391236-3.616312-5.424468-2.58308-1.29154 1.033232-1.29154.258308-.258308-1.549848 2.841388-4.907852 5.941084-3.616312 7.490932 2.58308zm26.605724 51.403292c-1.29154 1.033232-1.29154 3.099696-.516616 4.649544 1.29154 2.066464 0 2.066464-4.649544-.258308-6.716008-2.841388-8.007548-6.199392-5.16616-13.173708 1.033232-3.099696 2.324772-2.841388 6.974316 1.808156 3.099696 2.841388 4.649544 6.199392 3.358004 6.974316z"/><path d="M867.74705501 68.1917545c-2.066464 1.033232-.516616 2.324772 4.132928 3.358004 10.074012 2.066464 22.472796 6.974316 20.922948 8.265856-1.549848 1.808156-28.155572-6.199392-33.063424-9.815704-2.066464-1.549848-1.549848-.258308 1.549848 2.841388 3.616312 4.132928 10.590628 6.716008 22.472796 8.782472 9.557396 1.549848 17.306636 3.87462 17.306636 4.907852 0 3.099696-3.358004 2.841388-11.882168-.258308-4.907852-2.066464-7.74924-2.066464-9.815704 0-1.808156 1.808156-.516616 2.58308 4.132928 2.58308 3.87462 0 7.232624 1.549848 8.007548 3.099696.774924 2.58308 2.324772 2.58308 6.716008 0 6.199392-3.616312 8.007548-3.87462 8.007548-1.033232 0 2.58308-25.055876 10.33232-37.45466 11.62386-4.391236.516616-2.066464 1.29154 5.424468 1.549848 8.524164 0 18.08156-1.808156 26.605724-5.16616 14.20694-5.941084 16.273404-8.782472 7.74924-10.848936-3.616312-1.033232-4.649544-2.58308-3.358004-4.907852 1.033232-1.808156 1.033232-2.58308-.258308-1.549848-1.033232 1.033232-5.682776-1.033232-10.33232-4.649544-9.815704-7.490932-22.472796-11.62386-26.864032-8.782472z"/><path d="M847.59903101 84.4651585c-.774924 1.29154-.258308 1.808156 1.29154.774924 1.549848-.774924 5.424468-.516616 8.782472.774924 3.87462 1.549848 6.974316 1.29154 8.782472-.774924 2.066464-2.066464.258308-3.099696-7.232624-3.099696-5.424468-.258308-10.590628.774924-11.62386 2.324772zM879.88753101 95.8307105c1.549848.516616 4.649544.516616 6.4577 0 1.549848-.774924.258308-1.29154-3.358004-1.29154s-4.907852.516616-3.099696 1.29154zM848.11564701 99.1887145c-.774924 1.29154-.258308 2.58308 1.033232 2.58308 1.549848 0 2.841388-1.29154 2.841388-2.58308 0-1.549848-.516616-2.58308-1.033232-2.58308-.774924 0-2.066464 1.033232-2.841388 2.58308zM829.51747101 131.9938305c0 4.649544 1.29154 7.490932 2.324772 6.4577 1.29154-1.29154 1.033232-4.907852-.258308-8.524164-2.58308-5.941084-2.58308-5.682776-2.066464 2.066464zM848.89057101 126.8276705c1.808156.774924 4.132928.516616 4.907852-.258308 1.033232-.774924-.516616-1.549848-3.358004-1.29154-2.841388 0-3.616312.774924-1.549848 1.549848zM839.07486701 145.4258465c0 1.549848 1.033232 3.099696 2.066464 3.87462 1.29154.774924 2.324772-.258308 2.324772-2.324772s-1.033232-3.87462-2.324772-3.87462c-1.033232 0-2.066464 1.033232-2.066464 2.324772zM830.03408701 150.8503145c-.774924 1.549848.258308 1.808156 2.324772 1.033232 4.649544-1.808156 5.424468-3.616312 1.808156-3.616312-1.549848 0-3.358004 1.033232-4.132928 2.58308zM748.66706701 149.0421585c3.616312 1.549848 7.232624 4.132928 8.265856 5.682776 1.29154 1.549848 2.841388 1.549848 4.649544-.258308 2.324772-2.324772.774924-3.616312-5.424468-5.941084-10.590628-3.616312-15.756788-3.358004-7.490932.516616zM744.79244701 153.9500105c.774924 1.808156 4.907852 5.424468 9.299088 7.74924 9.557396 5.424468 7.74924 1.808156-2.841388-5.682776-4.391236-3.099696-7.232624-4.132928-6.4577-2.066464zM765.45708701 158.5995545c-.774924 1.29154.774924 2.58308 3.616312 2.58308 3.099696 0 5.424468-1.29154 5.424468-2.58308 0-1.549848-1.549848-2.58308-3.616312-2.58308-2.066464 0-4.649544 1.033232-5.424468 2.58308zM779.66402701 163.5074065c2.066464 1.549848 5.682776 2.841388 8.265856 2.841388 2.841388 0 3.87462 1.808156 3.099696 5.682776-1.033232 5.682776-1.033232 5.682776 1.549848-.258308 3.099696-7.490932 3.616312-6.974316-7.74924-9.04078-6.716008-1.29154-8.007548-1.033232-5.16616.774924zM798.00389501 168.1569505c0 2.841388.774924 3.358004 1.549848 1.29154.516616-1.549848 2.324772-2.58308 3.616312-1.549848 1.29154.774924 2.324772 0 2.324772-1.29154 0-1.549848-1.808156-2.841388-3.87462-2.841388s-3.87462 2.066464-3.616312 4.391236zM760.29092701 168.9318745c-4.649544 2.066464-4.391236 2.324772 2.066464 2.324772 3.87462.258308 6.974316-1.033232 6.974316-2.324772 0-3.099696-2.066464-3.099696-9.04078 0zM765.19877901 177.7143465c-4.907852 3.616312-4.907852 3.616312.258308 3.358004 2.841388-.258308 5.941084-1.549848 6.974316-3.099696 1.033232-1.29154 2.841388-1.549848 3.87462-.258308 1.033232 1.033232.258308 3.358004-2.066464 4.907852-2.58308 2.066464-3.358004 5.16616-2.066464 9.557396l1.808156 6.4577.258308-6.716008c.258308-3.616312 1.549848-7.74924 3.099696-9.299088 3.358004-3.358004 1.033232-8.524164-3.87462-8.524164-1.808156 0-5.424468 1.549848-8.265856 3.616312zM797.22897101 184.4303545c-.516616 5.682776-.258308 10.33232.774924 10.33232 2.324772 0 4.391236-18.08156 2.066464-19.631408-1.033232-.516616-2.324772 3.616312-2.841388 9.299088zM784.57187901 183.6554305c-3.358004 4.132928-3.099696 4.391236 1.033232 1.033232 3.099696-2.324772 4.391236-2.58308 4.391236-.516616 0 1.808156 1.29154 2.324772 2.58308 1.549848 2.841388-1.808156 1.033232-6.4577-2.324772-6.4577-1.29154 0-3.87462 2.066464-5.682776 4.391236z"/><path d="M752.28337901 188.3049745c-3.616312 2.841388-3.616312 3.358004-.774924 2.324772 4.649544-1.549848 15.240172 9.815704 15.240172 16.015096 0 5.682776 4.391236 6.4577 5.941084 1.033232.774924-2.841388.258308-4.649544-.774924-3.87462-1.29154.774924-3.616312-1.29154-5.424468-4.391236-1.808156-3.358004-4.907852-6.974316-7.232624-8.265856-3.358004-2.066464-3.358004-2.58308 1.033232-4.391236 3.616312-1.29154 4.132928-2.066464 1.033232-2.066464-2.066464-.258308-6.199392 1.549848-9.04078 3.616312zM778.37248701 191.6629785c-2.58308 2.58308-1.29154 13.432016 1.549848 13.432016 1.549848 0 2.324772-2.066464 1.549848-4.907852-1.033232-4.132928-.258308-4.391236 6.199392-2.066464 3.87462 1.549848 6.716008 3.87462 5.941084 4.907852-.774924 1.033232 0 2.066464 1.29154 2.066464 1.549848 0 2.841388-1.549848 2.841388-3.358004-.258308-3.358004-17.048328-12.398784-19.3731-10.074012zM753.05830301 206.6448425c-.774924 1.29154.258308 3.87462 2.324772 5.682776 4.132928 3.616312 4.649544 1.29154 1.29154-4.391236-1.29154-1.808156-2.841388-2.324772-3.616312-1.29154zM764.16554701 218.2687025c0 1.29154 1.29154 1.808156 3.099696.774924 2.066464-1.29154 2.324772-.516616 1.29154 2.324772-.774924 2.324772-.516616 4.907852.516616 5.682776 2.841388 1.549848 5.16616-3.87462 3.616312-8.524164-1.549848-3.87462-8.524164-4.132928-8.524164-.258308zM877.82106701 182.1055825c0 1.033232 1.808156 2.58308 4.132928 3.358004 5.424468 2.066464 5.424468 2.066464 5.424468-1.808156 0-1.808156-2.324772-3.358004-4.907852-3.358004-2.58308 0-4.649544.774924-4.649544 1.808156zM777.08094701 275.0964625c0 1.29154 1.29154 1.808156 2.58308 1.033232 1.549848-.774924 2.58308-2.066464 2.58308-2.841388 0-.516616-1.033232-1.033232-2.58308-1.033232-1.29154 0-2.58308 1.29154-2.58308 2.841388zM449.54640301 108.7461105c-4.132928 5.424468-9.557396 13.690324-12.398784 18.08156-2.58308 4.649544-5.424468 8.524164-6.199392 8.524164-.774924 0-4.649544-4.132928-8.782472-9.299088-6.4577-8.265856-26.864032-20.406332-29.447112-17.823252-.774924.516616 3.358004 8.007548 9.04078 16.273404l10.33232 15.49848-14.723556 1.29154c-9.557396.774924-23.506028 5.16616-39.004508 12.140476-51.403292 22.989412-73.876088 26.864032-115.721984 19.631408-31.771884-5.682776-54.24468-13.432016-98.15704-33.838348-50.37006-23.506028-58.635916-22.989412-88.083028 4.907852-18.339868 17.306636-24.022644 20.148024-32.805116 16.79002-13.173708-4.907852-17.564944-25.8308-6.199392-28.930496 6.974316-1.808156 9.04078.774924 3.87462 4.649544-3.616312 2.324772-3.616312 4.132928-1.29154 8.524164 5.424468 10.074012 18.339868 5.682776 18.339868-6.199392 0-5.424468-13.432016-21.697872-17.823252-21.697872-1.29154 0-5.941084 2.58308-10.848936 5.941084-7.74924 5.16616-8.782472 7.490932-9.557396 18.08156-1.29154 20.406332 11.365552 35.388196 30.222036 35.388196 4.132928 0 13.173708-4.391236 21.95618-10.33232 16.273404-11.62386 18.339868-12.398784 14.723556-5.941084-1.29154 2.324772-1.808156 12.657092-1.033232 22.731104 1.549848 24.53926-4.907852 36.938044-28.672188 52.694832-9.299088 6.4577-16.531712 11.882168-16.273404 12.140476.258308.516616 9.299088 2.58308 20.148024 4.649544 21.95618 4.649544 71.551316 20.66464 75.167628 24.280952 1.549848 1.549848 1.29154 4.649544-1.033232 8.265856-2.58308 4.649544-2.58308 6.199392 0 6.974316 1.549848.774924 3.099696 2.841388 3.099696 4.907852 0 2.066464 1.033232 3.616312 2.324772 3.616312s3.099696 2.58308 3.87462 5.941084c3.358004 12.398784 5.941084 13.690324 12.9154 6.974316 15.49848-14.20694 1.549848-38.487892-31.255268-54.24468-7.490932-3.616312-13.432016-7.490932-13.690324-8.782472 0-2.58308 34.613272-.516616 42.104204 2.324772 2.324772 1.033232 4.132928 3.358004 3.87462 4.907852-.516616 1.808156 3.099696 9.557396 7.74924 17.048328l8.524164 13.948632 6.199392-7.74924c8.782472-10.33232 8.265856-19.631408-1.29154-27.638956-11.107244-9.557396-34.096656-17.306636-51.144984-17.564944h-14.723556l10.33232-4.907852c5.682776-2.841388 20.66464-9.815704 33.063424-15.756788l22.989412-10.590628 29.963728 10.848936c16.531712 5.941084 33.063424 11.365552 36.679736 12.140476 3.616312.774924 24.53926 8.265856 46.49544 16.531712 22.214488 8.007548 44.428976 15.49848 49.853444 16.531712 7.232624 1.549848 10.074012 3.358004 11.107244 8.265856 1.29154 4.649544 2.841388 5.682776 5.941084 4.391236 17.306636-7.232624 54.761296-19.631408 56.052836-18.339868 1.033232.774924-2.066464 6.716008-6.4577 13.173708-5.682776 8.524164-6.716008 11.882168-4.132928 11.882168 2.066464 0 3.87462-1.549848 3.87462-3.616312 0-2.066464 1.29154-4.649544 3.099696-5.682776 2.066464-1.29154 2.324772 0 1.549848 3.616312-1.549848 5.424468-.516616 5.682776 12.140476 5.682776 18.339868 0 29.70542 2.58308 28.155572 6.199392-1.033232 2.58308 12.140476 17.048328 15.240172 17.048328.516616 0 1.033232-3.358004.774924-7.490932-.258308-4.907852-1.29154-6.716008-2.841388-5.16616-3.87462 3.87462-7.232624 2.58308-3.87462-1.549848 2.58308-3.099696 2.58308-4.907852.516616-6.974316-2.324772-2.324772-3.099696-2.066464-3.099696 1.033232 0 2.324772-1.033232 5.16616-2.58308 5.941084-1.549848.774924-1.808156-.258308-1.033232-2.58308 1.033232-2.066464.258308-5.682776-1.29154-7.490932-2.58308-2.841388-2.066464-3.87462 1.549848-4.907852 3.616312-1.033232 3.358004-1.29154-1.033232-1.549848-3.358004 0-5.941084 1.033232-5.941084 2.58308 0 1.29154-1.29154 1.808156-2.58308 1.033232-1.549848-1.033232-2.066464-2.841388-1.29154-4.132928 1.033232-1.29154-2.066464-2.324772-6.716008-2.324772-7.74924 0-8.007548-.258308-6.4577-8.007548 1.033232-6.199392.516616-9.04078-2.841388-11.62386-4.132928-3.099696-4.132928-3.87462-.774924-6.199392 2.066464-1.29154 5.682776-1.808156 7.74924-1.29154 2.324772.774924 6.974316-2.58308 11.107244-7.74924 4.132928-5.16616 8.265856-8.524164 9.557396-7.74924 1.29154.774924-1.033232 5.16616-5.424468 9.557396-7.490932 8.007548-7.490932 8.265856-2.324772 10.33232 6.974316 2.58308 9.04078 8.782472 5.424468 15.756788-2.841388 5.424468-2.841388 5.16616-1.549848-1.549848.774924-3.87462.258308-6.974316-1.033232-6.974316s-2.841388 2.841388-3.358004 6.4577c-1.033232 5.424468.774924 8.007548 3.87462 5.941084 1.808156-1.29154 12.140476 6.199392 11.107244 8.007548-.774924 1.29154.774924 4.132928 3.616312 6.716008 2.841388 2.58308 5.16616 3.87462 5.16616 2.58308 0-1.033232-2.066464-3.616312-4.391236-5.424468-2.58308-1.808156-3.358004-3.616312-1.808156-3.616312 5.941084 0 9.04078 6.716008 6.199392 13.948632-3.358004 9.299088-3.358004 10.590628 1.29154 6.716008 6.199392-5.16616 4.907852-16.79002-2.324772-21.697872-5.16616-3.358004-6.199392-5.941084-5.941084-15.49848.258308-8.007548-1.033232-12.9154-4.132928-16.531712-4.649544-5.16616-4.649544-5.424468 0-11.62386 3.87462-5.682776 20.66464-11.882168 17.306636-6.716008-1.29154 2.324772 10.074012 4.907852 22.214488 4.907852 16.273404-.258308 38.7462-3.099696 38.7462-4.907852 0-1.033232-3.358004-1.549848-7.74924-.774924-5.941084.774924-7.74924 0-7.74924-3.099696 0-2.58308 1.29154-3.616312 2.58308-2.841388 1.549848 1.033232 11.365552 1.808156 21.95618 1.808156s19.3731 1.033232 19.3731 2.324772c0 1.033232-2.324772 1.549848-5.16616 1.033232-3.358004-.516616-5.16616.516616-5.16616 2.841388 0 2.066464 1.29154 3.358004 2.841388 3.099696 1.549848-.516616 3.616312 1.033232 4.132928 3.099696.774924 2.324772.258308 2.841388-1.033232 1.29154-1.033232-1.549848-4.649544-2.58308-8.007548-2.324772-4.649544.258308-5.16616-.258308-2.841388-3.099696s2.066464-3.616312-1.29154-3.616312c-2.324772 0-4.132928 1.033232-4.132928 2.58308 0 1.29154-7.232624 2.841388-16.015096 2.841388l-16.273404.516616 19.889716 1.808156c27.380648 2.58308 33.063424 4.391236 33.063424 10.074012 0 4.132928 2.58308 4.907852 20.148024 5.941084 10.848936.516616 22.731104 2.841388 26.347416 4.649544 3.616312 2.066464 7.490932 3.358004 8.782472 3.099696 1.29154-.516616 1.549848 1.033232.516616 3.358004-.774924 2.324772-.516616 3.358004 1.033232 2.58308 4.649544-2.841388 2.841388-5.941084-6.974316-11.62386-6.716008-3.87462-14.20694-5.682776-27.12234-5.941084-12.398784-.258308-17.306636-1.549848-16.531712-3.616312.774924-1.549848 0-3.616312-1.808156-4.132928-1.808156-.516616-2.324772-1.808156-1.549848-2.841388 1.033232-1.033232 3.616312.258308 6.199392 2.58308 4.132928 4.132928 4.649544 4.132928 9.815704-2.58308 3.87462-4.907852 6.974316-6.4577 10.33232-5.424468 6.4577 2.58308 5.424468 6.199392-1.29154 4.907852-5.424468-1.033232-5.682776-1.033232-.774924 1.29154 6.974316 3.358004 12.398784 3.358004 10.33232 0-1.033232-1.549848 2.841388-.258308 8.782472 2.58308 5.941084 3.099696 10.590628 6.199392 10.590628 6.716008 0 .774924-3.358004-.258308-7.74924-2.58308-8.782472-4.391236-11.365552-4.907852-9.04078-1.29154.774924 1.29154 5.682776 4.391236 10.590628 6.716008 10.848936 5.16616 16.273404 14.723556 12.140476 21.181256-3.87462 6.4577-9.815704 5.424468-10.074012-1.549848-.516616-7.490932-4.907852-12.657092-7.490932-8.524164-1.29154 2.324772 7.74924 20.922948 10.074012 20.922948.516616 0 4.391236-1.29154 8.782472-2.841388 5.682776-2.066464 8.524164-4.907852 9.557396-10.590628 1.549848-6.974316.516616-9.299088-8.007548-17.564944-5.682776-5.424468-16.79002-13.432016-25.314184-17.823252-14.20694-7.74924-15.49848-8.007548-19.889716-3.87462-3.87462 3.616312-5.424468 3.87462-8.782472 1.033232-2.324772-1.808156-4.649544-2.58308-5.682776-1.549848-.774924.774924-.258308 1.549848 1.549848 1.549848 1.808156 0 2.58308 1.033232 1.549848 2.58308-2.324772 3.87462-9.557396-.258308-7.74924-4.649544.774924-2.066464.258308-5.16616-1.29154-6.974316-2.066464-2.324772-1.549848-3.616312 1.29154-4.649544 2.066464-1.033232 3.616312-.516616 3.099696 1.033232-.258308 1.549848 1.549848 4.132928 3.87462 5.682776 3.358004 2.324772 6.4577 1.808156 13.432016-1.549848 7.490932-3.358004 8.782472-3.616312 7.490932-.516616-2.324772 6.4577 1.549848 4.391236 10.33232-5.424468 9.557396-11.107244 15.240172-28.930496 12.140476-39.262816-2.066464-6.716008-2.066464-6.4577-2.324772 2.324772-.258308 6.199392-1.808156 10.074012-4.391236 11.107244-3.616312 1.29154-3.616312 2.324772-.774924 6.199392 3.358004 3.87462 3.099696 4.132928-.774924 1.033232-3.616312-2.841388-5.424468-2.841388-11.62386.516616l-7.232624 4.132928 9.04078-.516616c6.716008-.516616 9.04078.258308 9.04078 3.099696 0 2.066464-1.549848 3.616312-3.358004 3.099696-1.549848-.258308-2.841388.258308-2.841388 1.29154.774924 4.907852-.516616 8.524164-2.841388 8.524164-1.549848 0-2.58308-1.549848-2.324772-3.358004 1.033232-7.74924-.258308-10.33232-3.616312-7.490932-1.808156 1.549848-6.716008 3.358004-10.848936 4.132928-4.391236.516616-8.265856 1.29154-9.04078 1.549848-.774924.258308-2.324772.516616-3.616312.258308-1.29154-.258308-4.391236 1.549848-6.974316 3.87462-3.87462 3.358004-4.907852 3.616312-4.907852.774924 0-3.099696-.516616-3.099696-2.324772 0-3.358004 5.16616-10.848936-1.033232-8.782472-6.716008 1.29154-3.358004.516616-3.87462-3.87462-2.841388-5.941084 1.549848-12.9154-4.132928-8.524164-6.716008 1.29154-.774924 3.099696 0 3.616312 1.549848 1.033232 2.066464 1.549848 1.808156 1.549848-1.033232.258308-4.132928-.774924-4.391236-16.531712-2.324772-1.29154.258308-1.033232 1.29154 1.033232 2.58308 2.841388 1.808156 2.324772 2.58308-2.066464 4.132928-3.099696.774924-4.907852 2.841388-4.132928 4.132928 1.033232 1.29154 3.358004.516616 5.424468-1.549848 4.391236-4.391236 10.074012-5.424468 7.490932-1.29154-.774924 1.29154 0 2.58308 1.808156 2.58308s6.199392 2.324772 9.557396 4.907852l6.199392 4.649544-12.140476.258308c-6.716008.258308-11.365552-.774924-10.590628-2.066464.774924-1.29154 3.358004-1.549848 5.682776-.774924 2.841388 1.033232 3.616312.774924 2.324772-1.29154-2.58308-4.391236-8.524164-3.87462-10.33232 1.033232-1.033232 2.324772-3.358004 3.616312-5.424468 2.58308-3.358004-1.29154-3.616312-.516616-1.033232 3.87462 2.324772 4.907852 2.066464 5.16616-2.58308 3.616312-3.358004-1.033232-5.424468-.516616-5.424468 1.29154 0 2.066464-1.808156 2.324772-4.391236 1.29154s-6.199392-2.066464-7.74924-2.066464c-1.808156 0-3.358004-1.033232-3.358004-2.324772s-1.29154-1.549848-2.58308-.774924c-1.549848 1.033232-1.808156 3.099696-.774924 4.649544.774924 1.808156-.774924 1.033232-3.87462-1.808156-4.132928-3.358004-7.74924-4.391236-13.432016-3.099696-4.391236.774924-7.490932.516616-6.4577-.774924 1.549848-2.841388-5.682776-2.066464-8.265856 1.033232-1.033232 1.033232-.516616 1.29154 1.29154.258308 1.549848-1.033232 3.099696-.516616 3.099696.774924 0 1.549848-2.324772 2.841388-5.16616 2.841388-4.649544 0-4.907852-.774924-2.58308-5.16616 1.549848-2.841388 3.87462-5.16616 5.16616-5.16616 1.549848 0 2.58308-1.29154 2.58308-2.841388 0-1.29154-1.033232-2.066464-2.324772-1.29154-1.29154 1.033232-3.099696 0-3.87462-1.549848-1.29154-3.87462-11.882168 6.716008-11.882168 11.882168.258308 1.549848 2.066464-.258308 4.132928-4.391236 4.649544-8.782472 5.941084-8.782472 4.132928-.516616-.516616 3.358004-3.87462 9.299088-7.232624 12.9154-3.358004 3.616312-5.941084 7.490932-5.941084 8.524164 0 2.324772-64.577 9.299088-66.643464 7.232624-.774924-.774924 0-3.358004 1.808156-5.424468 2.841388-3.358004 7.490932-4.132928 22.472796-3.358004l18.856484.774924-.516616-9.557396c-.258308-10.33232 4.907852-25.314184 8.782472-25.314184 1.549848 0 2.066464 2.58308 1.29154 5.682776-1.549848 5.682776-1.549848 5.682776 2.066464 1.033232 2.841388-3.616312 3.099696-5.682776 1.033232-6.974316-1.808156-1.033232-1.033232-2.324772 2.58308-3.616312 2.841388-.774924 5.424468-2.841388 5.424468-4.132928s1.808156-2.324772 3.87462-2.324772c5.424468 0 4.907852 2.58308-3.099696 10.848936-5.16616 5.424468-5.941084 7.74924-3.87462 10.590628 1.549848 1.808156 2.324772 6.199392 1.549848 9.815704-.516616 3.358004 1.29154 1.033232 4.391236-5.424468 3.099696-6.4577 5.941084-13.948632 5.941084-16.79002.258308-3.616312 1.808156-4.907852 5.424468-4.391236 4.907852.774924 4.907852.516616-.516616-3.099696-5.424468-4.132928-19.631408-4.907852-17.306636-1.033232 1.549848 2.324772-7.490932 7.232624-12.9154 7.232624-5.682776 0-5.16616-4.132928 1.033232-10.33232 3.616312-3.616312 6.974316-4.649544 12.9154-3.616312 8.524164 1.808156 9.815704-.258308 3.616312-6.974316-2.066464-2.324772-5.682776-9.815704-7.490932-16.273404-3.099696-9.815704-3.099696-12.398784-.258308-14.981864 2.841388-2.841388 2.324772-4.649544-2.324772-11.107244-3.099696-4.132928-7.232624-10.33232-8.782472-13.690324-2.58308-4.649544-2.324772-5.682776 1.033232-5.682776 2.324772 0 3.616312 1.033232 2.841388 2.324772-.774924 1.29154.258308 3.87462 2.58308 5.682776 2.066464 1.808156 5.682776 6.716008 7.74924 10.848936 2.324772 4.132928 4.649544 6.716008 5.424468 5.941084.774924-.774924 0-3.616312-1.808156-5.941084-1.808156-2.58308-.258308-1.549848 3.358004 2.324772l6.4577 6.974316 8.265856-12.9154c9.557396-14.465248 13.948632-15.240172 5.424468-.774924-3.099696 5.16616-5.16616 10.074012-4.391236 10.590628 1.808156 2.066464 14.723556-25.055876 13.173708-27.638956-.774924-1.29154-.258308-2.841388 1.29154-3.87462 4.391236-2.841388 2.841388 5.424468-4.132928 21.439564-6.199392 14.20694-7.490932 15.756788-17.306636 18.339868-11.107244 2.841388-20.922948 8.007548-15.756788 8.007548 1.549848 0 6.974316-1.808156 12.140476-3.87462 4.907852-2.066464 9.557396-2.841388 10.33232-2.066464 1.033232.774924 3.358004 0 5.424468-1.549848 6.199392-5.16616 15.756788 6.716008 22.214488 27.12234 3.099696 9.815704 6.199392 19.114792 6.716008 20.922948.774924 1.808156-.516616 2.58308-3.358004 2.324772-2.58308-.516616-3.099696-.258308-1.29154.258308 1.808156.774924 2.324772 2.58308 1.29154 4.132928-1.033232 2.066464-.516616 2.066464 2.324772-.258308 3.099696-2.58308 4.649544-2.58308 7.232624.516616 3.616312 4.649544 1.29154 9.299088-4.391236 9.299088-3.358004 0-3.616312-.516616-.516616-4.391236 3.358004-4.132928 2.841388-4.132928-3.87462.258308-4.132928 2.58308-6.4577 3.358004-5.682776 1.808156 2.066464-3.099696-11.365552-21.95618-21.95618-30.480344-6.974316-5.941084-6.974316-5.941084-5.682776-.516616 1.29154 5.16616 1.033232 5.16616-4.649544 2.324772l-6.199392-3.099696 6.199392 5.682776c4.649544 4.649544 6.4577 5.16616 8.265856 2.324772 2.324772-4.132928 1.549848-4.649544 13.948632 11.62386 8.265856 10.848936 8.782472 12.398784 4.132928 11.107244-3.358004-.774924-5.424468 0-5.424468 1.808156 0 4.649544 24.797568 4.649544 28.672188 0 2.324772-2.841388 1.549848-5.682776-3.87462-13.432016-7.74924-11.365552-8.265856-13.432016-2.58308-13.432016 2.066464 0 3.358004 1.033232 2.324772 2.324772-1.549848 2.58308 5.424468 10.590628 9.04078 10.590628 1.29154 0 3.099696-1.29154 4.132928-3.099696 1.29154-2.066464.516616-2.324772-2.58308-1.29154-3.099696 1.29154-4.132928.774924-3.616312-1.29154 1.29154-4.132928 17.564944-5.941084 17.564944-2.324772 0 1.549848-1.29154 2.841388-2.841388 2.841388-4.391236 0-10.848936 18.339868-7.74924 21.439564 2.066464 2.066464 2.841388 1.033232 3.099696-3.616312.258308-3.358004.258308-6.974316 0-8.265856 0-1.033232 1.033232-1.808156 2.58308-1.808156 1.29154 0 2.066464-1.033232 1.29154-2.324772-2.066464-3.099696 12.657092-8.265856 27.897264-9.557396 11.107244-1.033232 12.140476-.516616 9.299088 2.841388-1.808156 2.324772-2.066464 3.87462-.516616 3.87462 1.29154 0 3.099696-1.549848 3.87462-3.616312.774924-2.066464 3.616312-3.099696 6.4577-2.58308 2.58308.774924 6.199392-.258308 8.007548-2.324772 3.358004-4.132928 13.173708-3.099696 16.273404 1.808156 2.841388 4.132928 2.58308-1.549848-.258308-5.941084-1.29154-2.066464-3.87462-2.58308-5.682776-1.549848-2.066464 1.033232-.774924-.516616 2.841388-3.358004 4.391236-3.616312 7.232624-4.391236 9.299088-2.841388 1.808156 1.29154 4.132928 2.066464 5.16616 1.808156 1.29154-.516616 2.324772.258308 2.324772 1.808156 0 2.841388-2.841388 2.841388-10.33232-.258308-4.649544-1.808156-4.649544-1.549848-1.549848 2.324772 4.391236 5.424468 13.948632 5.682776 18.08156.774924s2.58308-17.564944-2.066464-19.114792c-2.066464-.774924-2.841388 0-2.066464 1.29154 1.033232 1.549848-1.033232 2.066464-5.16616 1.29154-4.907852-.774924-6.199392-.258308-4.649544 1.808156 1.033232 1.808156 2.324772 2.58308 3.099696 1.808156 2.066464-2.066464 11.107244 3.358004 11.107244 6.716008 0 1.808156-1.033232 1.808156-3.358004-.258308-2.066464-1.549848-4.391236-1.808156-5.424468-.774924-2.841388 2.58308-9.299088-7.232624-9.299088-14.20694 0-4.132928-1.549848-5.941084-5.16616-5.941084-4.907852 0-4.907852-.516616-1.29154-5.941084 2.066464-3.358004 3.099696-6.974316 2.066464-8.007548s0-1.033232 2.324772-.258308c2.58308 1.033232 3.616312 3.616312 2.841388 7.232624-.774924 3.616312-.516616 4.649544 1.033232 2.58308s3.616312-2.324772 5.941084-.774924c5.16616 3.358004 11.107244 3.358004 9.04078 0-.774924-1.549848-3.87462-2.58308-6.716008-2.58308-2.58308 0-4.907852-1.808156-4.907852-3.87462 0-2.324772 2.324772-3.87462 5.941084-3.616312 5.424468 0 5.424468.258308.516616 2.324772-5.424468 2.324772-4.391236 2.841388 10.33232 3.87462 4.391236.258308 9.815704-.516616 12.140476-1.808156 3.099696-1.549848 5.16616-.774924 6.974316 2.324772 1.549848 2.841388 2.841388 3.358004 2.841388 1.29154 0-1.808156 1.29154-2.58308 3.099696-1.549848 5.424468 3.358004-5.16616 8.265856-14.20694 6.4577-5.682776-1.29154-9.04078-.774924-10.848936 1.808156-2.066464 2.58308-4.391236 2.841388-9.299088 1.033232-5.424468-2.066464-6.4577-1.808156-6.716008 2.324772-.258308 2.58308.774924 4.907852 2.066464 4.907852 1.549848 0 1.808156-1.29154 1.033232-2.58308-2.58308-4.132928 2.841388-3.099696 13.948632 2.841388 12.657092 6.4577 22.214488 5.682776 22.214488-1.549848 0-2.841388 2.066464-6.716008 4.391236-8.524164 2.324772-1.808156 3.87462-4.907852 3.099696-6.716008-2.324772-6.199392-13.948632-9.299088-35.388196-9.299088-13.690324 0-23.764336-1.29154-28.672188-3.87462-8.265856-4.391236-21.181256-5.16616-23.24772-1.549848-1.033232 1.29154 0 3.099696 1.549848 3.87462 1.808156.774924.774924.774924-2.066464.258308-6.199392-1.549848-10.848936 5.424468-6.4577 9.815704 1.808156 1.808156.774924 5.16616-2.58308 9.815704-2.841388 4.132928-4.649544 8.524164-3.87462 9.815704 3.099696 4.649544 14.981864 5.682776 21.181256 1.549848 3.358004-2.066464 6.974316-3.87462 7.74924-3.616312 1.033232 0 2.58308-1.033232 3.616312-2.58308 2.324772-4.132928 9.815704-.774924 11.62386 5.16616 2.066464 6.4577.516616 8.524164-9.557396 13.432016-11.62386 5.424468-39.521124 8.007548-65.610232 5.682776-20.66464-1.549848-21.697872-2.066464-23.24772-8.524164-3.099696-12.9154-11.62386-26.605724-17.564944-28.930496l-6.199392-2.324772 5.941084-12.398784c6.716008-14.465248 10.590628-31.771884 6.716008-31.771884-1.29154 0-5.682776 4.391236-10.074012 9.557396zm-35.388196 13.173708c-.774924.774924-2.841388 0-4.649544-1.808156-2.324772-2.58308-2.066464-2.841388 1.549848-1.29154 2.58308.774924 3.87462 2.324772 3.099696 3.099696zm-382.554148 9.04078c3.87462 5.424468 4.649544 8.265856 2.58308 11.365552-3.87462 6.199392-8.524164 6.974316-10.33232 2.066464-2.066464-5.16616 1.033232-8.782472 3.87462-4.132928 1.549848 2.324772 2.841388 2.58308 3.87462.516616 1.033232-1.549848.516616-2.841388-.774924-2.841388-1.549848 0-2.841388-2.324772-2.841388-4.907852 0-8.007548-4.391236-8.782472-12.9154-2.841388-6.974316 4.907852-7.74924 6.974316-7.232624 16.79002.516616 6.199392 1.549848 10.590628 2.324772 10.074012 1.033232-.516616 3.358004 1.033232 5.16616 3.358004 3.099696 3.87462 3.099696 4.132928-1.033232 2.58308-2.58308-1.033232-4.132928-.774924-3.358004.516616.774924 1.29154 6.4577 1.808156 12.398784 1.549848 11.62386-.774924 31.513576-7.232624 29.188804-9.557396-2.324772-2.066464 26.347416-27.897264 31.513576-28.155572 2.58308-.258308 7.232624-.774924 10.33232-1.033232 9.04078-1.033232 12.140476 2.324772 6.974316 7.74924-4.391236 4.391236-4.649544 4.391236-6.4577-.258308-1.549848-4.132928-2.066464-4.132928-2.066464-.516616-.258308 2.324772-3.616312 5.424468-7.74924 6.716008-4.132928 1.549848-13.173708 7.232624-20.148024 12.657092s-18.08156 12.657092-24.53926 16.273404c-11.62386 6.199392-12.398784 6.199392-21.181256 2.066464-17.048328-8.265856-21.697872-30.99696-9.04078-43.654052 6.716008-6.716008 14.723556-5.424468 21.439564 3.616312zm89.891184 1.033232c2.58308.774924 3.87462 2.324772 3.099696 3.616312-.774924 1.29154.774924 2.066464 3.358004 1.808156 7.490932-.774924 47.528672 19.3731 45.978824 22.989412-.774924 1.808156-2.066464 5.16616-2.841388 7.232624-.774924 2.066464-.258308 3.87462 1.29154 3.87462s2.841388-1.549848 2.841388-3.358004c0-5.941084 4.132928-9.815704 8.782472-8.007548 3.358004 1.29154 4.132928 3.358004 2.841388 8.265856l-1.549848 6.716008 5.16616-6.4577c2.841388-3.358004 5.16616-4.907852 5.424468-3.099696 0 1.549848-1.033232 3.87462-2.58308 4.649544-1.29154.774924-2.58308 3.616312-2.58308 5.941084.258308 2.841388 1.549848 2.066464 4.132928-2.841388s5.424468-6.974316 8.007548-5.941084c2.066464.774924 5.424468 1.549848 7.490932 1.549848s3.616312 1.29154 3.616312 2.841388-2.066464 2.066464-4.907852 1.033232c-7.490932-2.324772-14.20694 9.04078-12.140476 20.406332 1.29154 6.199392 4.649544 10.590628 11.882168 15.756788 5.682776 4.132928 11.107244 6.716008 11.62386 5.941084.774924-.516616-3.099696-4.132928-8.265856-7.490932-11.62386-7.490932-16.015096-17.306636-11.62386-26.605724 2.841388-6.4577 3.099696-6.4577 28.155572-5.16616 13.948632.516616 27.638956 1.808156 30.222036 2.58308 4.649544 1.549848 4.649544 1.808156.774924 4.132928-2.58308 1.29154-5.682776 1.549848-6.974316.774924-1.549848-.774924-2.58308-.258308-2.58308 1.033232 0 1.549848-1.29154 2.841388-2.841388 2.841388s-2.066464-1.808156-1.29154-4.132928c.774924-2.324772.516616-3.099696-1.29154-2.324772-1.29154 1.033232-2.324772 3.87462-1.808156 6.199392.516616 2.58308-1.033232 6.716008-3.099696 9.557396-3.616312 4.649544-3.616312 4.649544 1.29154 1.033232 2.841388-1.808156 6.4577-4.907852 7.74924-6.4577 4.132928-3.87462 19.3731-11.62386 23.506028-11.62386 5.424468 0 4.649544 14.723556-.774924 17.823252-2.58308 1.549848-3.358004 2.58308-2.066464 2.58308 1.549848 0 4.907852-1.549848 7.490932-3.616312 5.682776-4.391236 12.9154-5.16616 10.590628-1.29154-2.066464 3.358004.516616 3.099696 11.62386-1.29154 6.4577-2.58308 7.490932-3.616312 3.87462-3.87462-3.358004-.258308-1.549848-1.808156 5.16616-4.132928 5.682776-2.066464 12.140476-5.682776 14.20694-8.265856 4.132928-4.907852 30.738652-19.631408 32.546808-17.823252.516616.516616-3.87462 5.941084-9.815704 12.140476-7.232624 6.974316-9.04078 9.815704-5.16616 8.007548 3.358004-1.808156 9.04078-7.74924 12.9154-13.173708 9.299088-13.432016 15.240172-15.49848 7.490932-2.58308-7.490932 12.398784-19.114792 25.8308-22.472796 25.8308-1.549848 0-2.58308 1.29154-2.58308 2.841388 0 1.808156 2.58308 1.29154 6.4577-1.29154 6.716008-4.391236 8.782472-2.324772 3.358004 3.099696-1.808156 1.808156-2.58308 3.099696-1.808156 3.099696.774924 0 5.424468-4.907852 10.074012-10.848936 4.907852-5.941084 7.232624-9.815704 5.424468-8.524164-2.324772 1.29154-3.099696.774924-2.324772-1.549848.774924-2.066464 2.324772-3.616312 3.87462-3.616312 1.549848 0 5.16616-2.841388 8.265856-6.4577 2.841388-3.616312 5.16616-5.424468 5.424468-4.391236 0 2.841388-19.3731 30.99696-24.280952 35.129888-2.324772 1.808156-4.132928 4.649544-4.132928 6.199392 0 4.649544 9.815704-6.199392 21.181256-23.506028l11.107244-17.048328 1.549848 9.557396c.774924 5.16616 3.358004 11.62386 5.941084 14.20694 3.87462 4.649544 3.87462 5.16616-1.29154 9.815704-3.099696 2.58308-10.848936 12.9154-17.306636 22.989412l-11.882168 17.823252-3.358004-10.074012c-1.808156-5.682776-6.4577-13.948632-10.074012-18.08156l-6.4577-7.74924 6.4577 11.882168c3.616312 6.4577 7.490932 17.048328 8.265856 23.506028l1.549848 11.62386 12.140476-1.033232c6.4577-.774924 18.598176-2.066464 26.864032-3.099696 11.882168-1.549848 14.723556-1.29154 14.723556 1.808156 0 2.324772-1.808156 3.358004-5.16616 2.324772-2.841388-.774924-5.16616-.516616-5.16616.774924 0 1.033232-4.907852 1.549848-10.848936 1.29154-6.716008-.258308-8.007548 0-3.358004.516616 6.716008 1.29154 4.907852 2.324772-13.948632 8.782472-11.882168 4.132928-22.731104 6.716008-23.764336 5.941084-1.29154-.774924-2.324772.258308-2.324772 2.066464 0 4.132928-6.4577-5.16616-8.782472-12.9154-1.29154-3.358004-.774924-5.682776.774924-5.682776s3.099696 2.58308 3.099696 5.682776c.258308 3.87462.774924 4.391236 1.549848 1.808156.516616-2.066464-.516616-7.490932-2.066464-11.62386-1.808156-4.132928-2.841388-9.815704-2.58308-12.657092.258308-3.87462 0-4.391236-1.808156-1.549848-3.358004 4.907852-5.16616.258308-3.099696-8.782472l1.29154-7.74924 4.649544 11.365552c2.58308 6.4577 5.424468 17.306636 6.199392 24.022644 1.29154 11.62386 4.907852 15.240172 9.557396 10.33232 1.033232-1.033232 5.682776-3.358004 10.074012-5.16616l8.265856-3.099696-9.299088 1.29154-9.299088 1.29154-1.29154-11.107244c-1.29154-11.107244-11.107244-34.354964-15.756788-37.196352-1.033232-.774924 1.033232 4.907852 4.907852 12.140476 4.649544 9.04078 7.490932 18.598176 8.007548 28.155572l.774924 14.465248-3.616312-15.756788c-4.649544-19.889716-14.981864-39.779432-21.181256-39.779432-1.033232 0-.774924 1.29154 1.033232 3.099696 1.808156 1.808156 3.099696 7.232624 3.099696 12.140476 0 8.524164-.258308 8.782472-3.87462 3.87462-2.066464-2.58308-3.87462-6.4577-3.87462-8.265856 0-4.649544-7.490932-22.214488-9.04078-20.922948-2.066464 2.324772 6.974316 24.280952 15.49848 36.938044 4.649544 7.232624 8.007548 13.948632 7.232624 15.240172-1.29154 2.066464-21.439564-27.12234-21.439564-31.255268 0-3.616312-10.590628-19.114792-12.140476-17.823252-.774924.774924 1.033232 4.649544 4.132928 8.524164 2.841388 3.87462 5.424468 8.524164 5.424468 10.590628s2.841388 7.490932 6.199392 11.882168c3.358004 4.649544 8.524164 13.173708 11.62386 19.3731 4.391236 8.782472 4.907852 10.848936 1.808156 10.848936-4.649544 0-10.590628-9.815704-9.815704-15.756788.516616-2.324772-2.58308-6.974316-6.4577-10.33232-3.87462-3.358004-9.04078-11.365552-11.107244-17.823252-2.58308-7.74924-5.682776-11.882168-9.04078-12.398784-4.907852-1.033232-4.907852-.774924.774924 5.16616 3.099696 3.358004 5.682776 8.524164 5.682776 11.365552 0 2.841388 4.132928 9.04078 9.04078 13.948632 12.9154 12.398784 11.107244 15.240172-2.324772 4.132928-6.199392-5.16616-12.657092-9.299088-13.948632-9.299088-1.29154 0-3.87462-1.808156-5.682776-3.87462-3.616312-4.391236-12.9154-5.16616-12.9154-1.29154 0 1.29154 2.066464 2.58308 4.649544 2.58308 6.199392 0 25.8308 12.9154 35.388196 23.24772 7.232624 8.007548 7.490932 8.265856 1.29154 4.907852-3.616312-1.808156-8.007548-3.616312-9.557396-3.87462-10.074012-1.808156-39.262816-14.723556-40.554356-18.08156-2.841388-7.74924-1.549848-13.690324 5.16616-21.439564 4.132928-5.16616 5.16616-7.490932 2.58308-6.4577-2.324772 1.033232-4.132928.258308-4.132928-1.549848 0-4.649544-9.815704 4.391236-11.882168 10.848936-1.033232 3.616312-2.841388 4.391236-6.974316 3.099696-5.682776-1.549848-5.682776-1.549848-.516616 2.58308 5.424468 4.132928 4.391236 5.16616-2.324772 2.58308-5.941084-2.324772-5.16616-8.782472 1.033232-8.782472 2.841388 0 5.16616-1.033232 5.16616-2.58308 0-1.29154-1.808156-1.808156-3.87462-1.033232-2.066464 1.033232-3.87462.258308-3.87462-1.29154s2.841388-2.841388 6.199392-2.841388c3.616312 0 6.974316-1.033232 7.74924-2.324772 1.033232-1.29154-1.033232-1.808156-4.132928-1.033232-4.649544 1.29154-5.424468.774924-2.841388-1.808156 1.549848-1.808156 6.716008-3.616312 11.365552-4.132928 9.299088-1.033232 10.848936-2.066464 11.62386-7.490932.774924-5.16616 0-4.907852-13.432016 2.841388-14.981864 8.782472-21.697872 17.823252-21.697872 28.930496 0 7.74924-.516616 8.524164-4.132928 5.424468-2.58308-2.066464-3.358004-5.424468-2.324772-9.815704 2.841388-11.107244 3.358004-18.339868 1.033232-18.339868-1.29154 0-2.324772 1.033232-2.324772 2.324772 0 2.324772-17.823252 1.033232-20.66464-1.549848-.516616-.516616.516616-2.324772 2.58308-3.616312 3.358004-2.324772 3.358004-2.324772 0-1.808156-4.132928.774924-5.16616-.774924-5.16616-6.974316 0-3.099696 2.58308-3.616312 12.398784-2.58308 6.716008.516616 10.590628.516616 8.782472-.258308-1.549848-.774924-2.58308-2.58308-1.549848-3.87462 1.808156-3.358004-2.58308-2.841388-5.941084.516616-2.066464 2.066464-4.391236 2.066464-8.265856 0-4.649544-2.58308-5.941084-2.066464-8.265856 3.358004-4.132928 8.782472 2.58308 19.631408 12.140476 19.631408 4.132928 0 5.941084 1.033232 4.649544 2.841388-1.29154 2.066464.258308 2.58308 4.907852 1.549848 6.4577-1.808156 6.4577-1.549848 3.616312 7.232624-3.099696 10.33232-3.616312 10.33232-15.240172 5.424468-4.649544-1.808156-15.240172-5.682776-23.24772-8.007548-11.62386-3.616312-14.981864-5.941084-14.981864-9.815704 0-2.841388.774924-4.391236 1.808156-3.616312 2.324772 2.58308 8.524164-3.358004 8.524164-8.524164 0-9.04078-18.08156-18.08156-25.8308-12.657092-2.841388 2.066464-2.324772 2.324772 2.324772 1.033232 4.132928-1.29154 5.424468-1.033232 4.391236 1.033232-1.033232 1.549848-4.132928 2.841388-6.974316 2.841388-2.58308 0-4.907852 1.033232-4.907852 2.324772s2.58308 1.808156 5.941084 1.033232c5.682776-1.29154 5.682776-1.29154.516616 2.58308-3.616312 2.841388-6.199392 3.099696-8.265856 1.29154-4.391236-3.358004-4.391236 1.033232-.258308 5.16616 2.58308 2.58308 1.549848 2.58308-5.16616.258308l-8.524164-2.841388 8.524164-7.74924c10.848936-9.557396 5.682776-6.974316-18.598176 9.815704-22.472796 15.240172-56.052836 35.646504-63.027152 38.229584-2.58308.774924-4.132928 2.324772-3.358004 3.099696.774924.774924 4.907852-.516616 9.299088-2.841388 10.074012-5.16616 14.20694-2.841388 11.882168 6.199392-1.29154 5.941084-1.29154 6.199392 1.808156 2.58308 2.58308-3.358004 6.716008-4.132928 19.631408-3.099696 21.439564 1.808156 19.631408 6.716008-3.099696 9.04078-15.240172 1.549848-19.114792.774924-32.030192-4.907852-17.823252-7.74924-19.631408-10.33232-12.9154-17.306636 8.782472-9.04078 12.398784-21.181256 12.398784-41.070972 0-10.590628 1.29154-22.731104 2.841388-27.12234 2.841388-8.265856 15.240172-16.015096 25.314184-16.015096 3.616312 0 6.4577-2.324772 8.007548-6.716008 2.066464-4.907852 3.87462-6.199392 7.232624-4.907852 2.324772 1.033232 6.4577 2.58308 8.782472 3.099696zm443.773144 6.4577c0 1.29154-2.066464 2.066464-4.391236 1.549848-2.58308-.516616-4.391236.774924-3.87462 2.324772.258308 1.808156-.774924 3.358004-2.324772 3.358004-1.29154 0-1.808156 1.29154-1.033232 2.841388 1.29154 1.549848 3.099696 1.033232 5.16616-2.066464 1.808156-2.58308 4.391236-3.616312 5.682776-2.58308 2.841388 2.841388-7.232624 10.074012-11.62386 8.265856-1.808156-.516616-2.841388-.258308-2.066464 1.033232.774924 1.033232-1.033232 4.391236-3.87462 6.974316-4.649544 4.132928-4.907852 4.132928-3.358004.258308 1.29154-3.358004.516616-4.132928-3.099696-2.58308-3.358004 1.29154-3.87462.774924-2.324772-2.066464 1.808156-3.099696 1.29154-3.099696-1.549848-.258308-3.099696 2.841388-3.099696 3.616312.258308 5.682776 4.391236 2.841388 2.324772 3.358004-3.616312 1.033232-3.616312-1.29154-3.616312-2.324772 0-9.299088 2.324772-4.132928 3.358004-8.265856 2.58308-9.299088-.774924-.774924 1.033232-2.58308 4.391236-4.391236 6.716008-3.616312 25.055876-4.132928 25.055876-.774924zm-156.27634 16.015096c.774924 5.682776 3.87462 14.20694 6.974316 19.114792 5.424468 8.782472 5.424468 8.782472.258308 7.232624-6.199392-2.066464-17.823252 2.58308-18.339868 6.974316 0 1.808156-.516616 5.424468-1.033232 8.265856-.516616 2.841388.516616 4.907852 2.324772 4.649544 2.066464-.516616 1.808156 2.066464-.774924 8.782472-2.324772 5.16616-3.358004 11.365552-2.841388 13.948632 1.549848 5.682776-2.841388 7.490932-19.114792 7.490932h-12.657092l7.74924-12.657092c4.391236-6.974316 12.140476-17.048328 17.564944-21.95618 6.716008-6.716008 8.265856-9.299088 4.907852-9.299088-5.16616 0-10.848936-8.782472-12.9154-19.631408-1.29154-6.199392-.258308-9.299088 3.358004-12.657092 4.649544-4.391236 4.907852-4.132928 6.716008 2.841388 2.066464 9.299088 8.782472 22.472796 10.33232 20.922948.516616-.516616-.516616-4.391236-2.841388-8.524164-2.066464-4.132928-3.87462-11.882168-3.87462-17.048328 0-8.782472.774924-9.815704 6.199392-9.299088 5.16616.516616 6.4577 2.324772 8.007548 10.848936zm-27.380648-.516616c-3.358004 4.649544-6.4577 6.716008-6.974316 4.907852-.516616-1.808156-3.616312.258308-7.232624 5.16616-3.358004 4.649544-6.199392 7.232624-6.199392 5.424468 0-4.391236 15.756788-21.439564 18.08156-19.889716 1.29154.774924 2.841388.258308 3.87462-1.29154.774924-1.29154 2.066464-2.58308 2.841388-2.58308s-1.29154 3.616312-4.391236 8.265856zm229.89412 3.099696c2.324772 2.841388 2.324772 4.132928 0 5.682776-2.066464 1.033232-2.324772.774924-1.29154-1.29154 1.549848-2.066464 0-2.58308-4.649544-1.29154-4.391236 1.033232-6.716008.516616-6.716008-1.549848 0-1.549848-1.29154-2.066464-3.099696-1.033232-1.808156 1.033232-2.066464.774924-1.033232-1.033232 2.58308-4.391236 13.173708-3.87462 16.79002.516616zm-290.338192 19.631408c-.774924 1.29154-8.007548 4.391236-15.756788 6.974316-10.590628 3.358004-13.173708 4.907852-9.557396 6.199392 2.841388 1.033232.258308 1.549848-5.941084 1.29154-6.974316-.258308-10.590628-1.29154-10.33232-3.616312 1.033232-5.682776 5.16616-7.74924 19.3731-9.299088 7.74924-1.033232 14.723556-2.324772 15.49848-2.841388 2.324772-2.324772 8.265856-1.29154 6.716008 1.29154zm-147.493868 5.682776c-1.29154 2.066464-.516616 2.324772 2.324772 1.29154 8.265856-3.099696 4.391236.774924-6.199392 5.941084-5.941084 3.099696-10.074012 5.941084-9.557396 6.716008.516616.516616 5.682776-1.29154 11.107244-4.132928 11.107244-5.682776 13.432016-5.16616 9.299088 1.808156-1.549848 2.58308-2.841388 3.87462-2.841388 2.58308 0-1.033232-3.099696-.258308-6.974316 1.549848-4.132928 2.066464-8.524164 3.099696-10.33232 2.58308-1.549848-.516616-3.616312.258308-4.649544 1.549848-.774924 1.549848-3.87462 2.841388-6.4577 2.841388s-5.16616.774924-5.682776 1.808156c-.258308 1.29154-12.9154 7.490932-27.638956 14.465248-19.889716 8.782472-27.897264 11.365552-29.70542 9.299088-2.066464-2.066464-1.549848-3.616312 2.066464-5.941084 2.58308-1.549848 14.723556-9.299088 27.12234-17.306636 21.181256-13.948632 22.472796-14.465248 29.188804-11.107244 9.04078 4.649544 12.398784 4.649544 12.398784-.258308 0-2.066464 3.099696-5.424468 7.232624-7.490932 3.87462-2.324772 5.16616-3.87462 3.099696-4.132928-3.358004 0-3.358004-.258308 0-2.58308 5.424468-3.358004 8.524164-3.099696 6.199392.516616zm182.365448-2.066464c0 .516616-2.066464 2.58308-4.391236 4.391236-4.132928 3.358004-4.391236 3.099696-1.033232-1.033232s5.424468-5.424468 5.424468-3.358004zm-85.24164 10.33232c0 .516616-2.324772 1.549848-5.16616 2.324772s-4.649544.258308-3.616312-1.033232c1.29154-2.324772 8.782472-3.358004 8.782472-1.29154zm-98.15704 11.882168c0 1.29154-1.29154 2.58308-2.841388 2.58308-1.29154 0-1.808156-1.29154-1.033232-2.58308.774924-1.549848 2.066464-2.58308 2.841388-2.58308.516616 0 1.033232 1.033232 1.033232 2.58308zm253.14184 1.808156c-.258308 4.649544-4.649544 9.04078-6.199392 6.199392-1.033232-1.549848-1.033232-4.132928-.258308-5.424468 1.808156-3.099696 6.4577-3.358004 6.4577-.774924zm-164.02558 7.490932c-2.58308 3.87462-3.87462 9.815704-3.358004 14.20694 1.29154 8.782472.516616 9.04078-10.33232 3.358004-9.815704-4.907852-10.848936-6.974316-1.808156-3.616312 4.132928 1.549848 6.4577 1.549848 6.4577-.258308 0-5.424468 7.74924-20.406332 10.590628-20.406332 1.808156 0 1.29154 2.324772-1.549848 6.716008zm316.168992-2.841388c-2.066464 2.324772-6.4577 4.391236-9.557396 5.16616-3.099696.516616-6.974316 1.808156-8.265856 2.58308-1.549848.774924-2.58308-.258308-2.58308-2.324772 0-2.324772 2.324772-4.391236 5.16616-4.391236 8.524164-.516616 9.815704-1.033232 11.882168-3.099696 1.033232-1.033232 3.099696-1.808156 4.649544-1.808156s.774924 1.808156-1.29154 3.87462zm-525.140164 28.41388c1.033232 2.066464 3.099696 3.87462 4.907852 3.87462 1.808156 0 13.432016 4.649544 26.089108 10.33232 17.048328 8.007548 21.95618 11.107244 19.631408 13.432016-2.324772 2.324772-3.87462 2.066464-6.199392-.774924-3.616312-4.391236-30.480344-16.015096-32.546808-14.20694-.516616.774924 2.841388 3.099696 7.490932 5.424468 4.907852 2.066464 6.716008 3.358004 3.87462 2.58308-2.58308-.774924-10.074012-2.58308-16.273404-4.391236-6.4577-1.549848-12.140476-4.391236-12.9154-6.4577-1.033232-2.324772-2.066464-2.841388-3.099696-1.033232-1.033232 1.549848-4.391236 2.066464-7.490932 1.033232-5.682776-1.29154-5.682776-1.549848 2.58308-7.490932 10.074012-6.974316 12.140476-7.490932 13.948632-2.324772zm391.078312 18.339868c0 4.649544-1.033232 9.04078-2.324772 9.815704-1.033232.774924-1.549848-1.549848-.774924-5.16616.774924-4.391236-.774924-8.524164-4.391236-12.398784-6.4577-6.974316-4.132928-11.365552 2.841388-4.907852 2.58308 2.324772 4.649544 7.74924 4.649544 12.657092zm-312.55268-11.62386c0 1.29154 1.033232 1.808156 2.58308 1.033232 1.29154-.774924 6.974316 1.033232 12.9154 3.87462 9.04078 4.649544 10.33232 6.4577 10.33232 14.20694 0 4.649544-1.29154 9.557396-2.841388 10.33232-3.616312 2.58308-11.365552-8.782472-11.365552-16.79002 0-3.616312-1.033232-6.4577-2.58308-6.716008-11.882168-1.033232-23.24772-8.782472-12.9154-8.782472 2.066464 0 3.87462 1.29154 3.87462 2.841388zm280.005872 9.557396c1.808156 3.099696-1.29154 13.432016-4.132928 13.432016-1.29154 0-1.549848-2.58308-.774924-5.424468 1.549848-4.649544 1.29154-5.16616-1.549848-2.324772-3.87462 3.358004-5.682776 15.49848-2.58308 15.49848 1.033232 0 2.841388-1.033232 4.391236-2.324772 1.29154-1.549848 5.424468-1.033232 10.074012.774924 7.74924 3.358004 7.490932 3.358004-5.682776 3.358004-15.240172 0-17.823252-3.616312-12.140476-17.048328 3.099696-7.490932 9.557396-10.590628 12.398784-5.941084zm207.679632 8.524164c-.774924 5.16616-1.29154 4.907852-2.324772-2.324772-.774924-5.16616-.516616-7.490932 1.033232-5.941084 1.29154 1.29154 1.808156 4.907852 1.29154 8.265856zm-457.463468 11.365552c-2.841388 5.682776-5.682776 8.524164-7.490932 7.490932-2.066464-1.29154-1.549848-2.841388 1.29154-4.907852 2.58308-1.808156 4.391236-6.4577 4.391236-10.590628 0-5.682776.774924-6.4577 3.099696-4.132928 2.324772 2.324772 2.066464 5.16616-1.29154 12.140476zm-47.528672-7.490932c2.841388 2.841388-.774924 6.199392-4.649544 4.649544-2.066464-1.033232-3.099696-2.58308-2.324772-3.87462 1.549848-2.841388 4.649544-3.099696 6.974316-.774924zm15.49848 20.406332c0 7.232624-4.649544 13.690324-7.74924 10.848936-1.033232-1.033232-.258308-3.358004 1.29154-4.907852 1.808156-1.808156 3.099696-5.424468 2.841388-8.524164 0-4.907852-.258308-4.907852-2.324772.516616-1.29154 3.358004-3.87462 5.941084-5.424468 5.941084-2.066464 0-1.808156-1.29154.516616-4.132928 2.58308-3.099696 2.58308-5.16616.258308-8.782472-4.132928-6.716008-.258308-8.782472 5.424468-2.841388 2.841388 2.58308 5.16616 8.007548 5.16616 11.882168zm8.524164 20.406332c-4.391236 6.716008-9.299088 9.04078-9.299088 4.132928 0-1.549848 1.033232-2.58308 2.58308-2.58308 1.29154 0 3.616312-2.324772 5.16616-5.424468 2.324772-3.87462 2.066464-6.199392-.258308-9.299088-1.808156-2.066464-3.616312-6.4577-4.132928-9.299088-.258308-3.358004 1.808156-1.29154 4.907852 5.16616 5.16616 10.074012 5.16616 11.107244 1.033232 17.306636zm-6.4577-2.841388c-4.132928 4.132928-6.716008 0-2.58308-4.907852 2.324772-2.841388 3.87462-3.099696 4.391236-1.033232.516616 1.549848-.258308 4.391236-1.808156 5.941084z"/><path d="M58.72639901 150.0753905c-3.358004 4.132928-3.099696 4.391236 1.033232 1.033232 2.324772-1.808156 4.391236-3.87462 4.391236-4.391236 0-2.066464-2.066464-.774924-5.424468 3.358004zM109.87138301 134.5769105c-1.033232.774924-1.808156 2.841388-1.808156 4.391236 0 1.549848 1.29154 1.29154 3.099696-.516616 1.549848-1.549848 2.324772-3.616312 1.808156-4.391236-.774924-.774924-2.324772-.516616-3.099696.516616zM114.77923501 142.0678425c-3.87462 3.616312-5.682776 19.114792-2.841388 22.214488 1.808156 1.808156 29.70542-3.616312 29.70542-5.941084 0-1.033232-3.87462-.774924-8.265856.516616-15.756788 4.391236-22.472796 2.066464-7.490932-2.58308 12.9154-3.87462 13.432016-4.391236 9.04078-8.007548-2.58308-2.324772-3.87462-2.58308-2.58308-.774924 1.033232 2.066464.258308 3.358004-2.324772 3.358004-2.324772 0-3.616312-1.033232-2.841388-2.324772 1.033232-1.29154-.774924-1.808156-3.87462-1.033232-3.358004 1.033232-4.391236 2.066464-2.324772 3.358004 2.066464 1.29154 1.808156 2.324772-1.29154 3.616312-2.324772.774924-4.649544 1.549848-4.907852 1.549848-.258308 0-.516616-2.324772-.774924-5.16616-.258308-3.87462 1.808156-5.424468 9.04078-6.716008 8.007548-1.549848 8.524164-2.066464 4.391236-3.87462-7.490932-2.841388-8.265856-2.841388-12.657092 1.808156z"/><path d="M103.15537501 151.1086225c-.258308 5.941084 1.808156 11.882168 4.907852 16.015096 6.199392 8.007548 6.4577 9.04078.774924 15.756788-4.649544 5.424468-4.649544 5.424468.774924.774924 7.490932-6.199392 10.590628-5.424468 4.649544 1.29154-4.907852 5.941084-4.907852 5.941084.516616 1.29154 8.007548-6.716008 10.590628-5.16616 3.616312 2.066464-3.616312 3.87462-7.74924 5.941084-10.33232 5.16616-3.099696-1.29154-3.099696-1.033232-.774924 1.549848 2.324772 2.324772 5.16616 1.549848 12.657092-4.132928 9.299088-7.232624 9.557396-7.490932 4.132928-9.815704-7.232624-3.358004-16.531712-18.08156-18.856484-29.963728l-1.808156-9.299088-.258308 9.299088zM78.35780701 153.6917025c-2.324772 3.616312-.516616 5.16616 3.616312 2.58308 2.066464-1.549848 2.324772-2.841388.774924-3.87462-1.549848-.774924-3.616312-.258308-4.391236 1.29154zM151.45897101 153.6917025c-2.58308 1.29154-4.649544 5.16616-4.391236 8.265856 0 3.87462.516616 4.391236 1.549848 1.808156.774924-2.066464 3.099696-5.941084 5.424468-8.524164 4.391236-4.907852 3.87462-5.424468-2.58308-1.549848zM156.36682301 157.8246305c-2.841388 2.841388-2.066464 8.524164 1.29154 8.524164 1.549848 0 2.066464-.774924 1.29154-1.808156-1.033232-.774924-.516616-3.099696 1.033232-5.16616 2.841388-3.358004-.516616-4.907852-3.616312-1.549848zM82.74904301 175.3895745c0 12.140476.516616 16.015096 1.808156 11.62386 1.29154-3.616312 1.29154-11.62386.258308-18.08156-1.808156-10.590628-2.066464-10.074012-2.066464 6.4577z"/><path d="M74.74149501 174.0980345c-.258308 7.74924-1.549848 19.889716-2.58308 26.605724-1.033232 6.716008-1.033232 12.9154 0 13.690324 3.87462 2.324772 12.9154-5.16616 11.882168-9.815704-.774924-2.324772 1.549848-6.716008 4.907852-9.557396 3.358004-3.099696 6.199392-6.716008 6.199392-8.524164 0-1.549848 1.808156-.774924 4.132928 2.066464 2.066464 2.58308 3.099696 3.358004 2.324772 1.549848-1.033232-1.808156.258308-5.682776 2.58308-8.265856 4.649544-5.16616 3.358004-14.465248-1.29154-11.62386-1.29154.774924-2.58308-.258308-2.58308-2.324772s-1.29154-4.649544-3.099696-5.682776c-1.808156-1.29154-2.324772-.516616-1.29154 2.324772.774924 2.324772.258308 4.649544-1.549848 5.424468-2.841388 1.033232 4.391236 2.58308 9.299088 1.808156 3.099696-.516616 2.066464 3.616312-2.324772 9.04078-3.358004 4.132928-3.87462 4.132928-2.58308.516616.774924-2.58308.258308-5.16616-1.033232-5.941084-1.033232-.774924-2.841388 2.324772-3.87462 6.716008-1.033232 4.391236-2.324772 7.232624-3.099696 6.716008-2.841388-2.841388-11.62386 9.299088-10.33232 14.20694.774924 2.841388.774924 4.391236 0 3.616312s-3.099696.516616-4.907852 3.099696c-2.841388 3.616312-3.099696 2.841388-.774924-5.16616 1.29154-5.424468 2.066464-17.564944 1.549848-27.12234-.774924-17.564944-.774924-17.564944-1.549848-3.358004z"/><path d="M87.39858701 166.6071025c0 3.358004 1.29154 8.007548 2.58308 10.074012 1.808156 2.841388 2.066464 1.29154 1.033232-5.16616-2.066464-11.107244-3.616312-13.173708-3.616312-4.907852zM131.31094701 166.3487945l-6.4577 2.066464 6.4577.258308c4.391236.258308 5.424468 1.033232 3.358004 3.099696-3.358004 3.358004-14.465248.516616-12.398784-3.099696 1.033232-1.29154-.258308-2.324772-2.324772-2.324772-5.941084 0-2.066464 7.490932 4.649544 9.04078 6.716008 1.549848 21.439564.258308 23.764336-2.066464.774924-.774924-1.549848-2.324772-5.682776-3.358004-6.4577-1.549848-6.716008-2.066464-2.324772-3.87462 6.974316-2.58308-.516616-2.324772-9.04078.258308zM182.19762301 165.5738705c-1.033232.774924-1.808156 3.358004-1.808156 5.682776.258308 3.358004.774924 3.358004 2.841388-.516616 2.841388-4.907852 2.066464-8.524164-1.033232-5.16616zM326.59179501 177.9726545c-.774924 2.324772-5.16616 5.682776-9.815704 7.74924-6.4577 2.841388-7.232624 3.616312-3.099696 3.87462 5.424468 0 16.531712-8.524164 16.531712-12.9154 0-3.87462-1.808156-3.099696-3.616312 1.29154zM370.24584701 184.4303545c-2.58308 5.682776-6.199392 11.62386-8.265856 13.432016-2.324772 2.066464-2.58308 3.358004-.774924 4.649544 1.808156 1.033232.774924 4.132928-2.841388 8.782472-3.099696 3.87462-4.907852 7.490932-4.391236 8.265856 1.808156 1.549848 25.314184-29.447112 25.314184-33.063424 0-1.808156-3.099696 1.29154-6.716008 6.4577-3.616312 5.424468-7.232624 9.299088-8.007548 8.524164-.774924-.774924 1.033232-4.391236 3.87462-8.524164 4.907852-6.974316 9.557396-18.856484 7.490932-18.856484-.516616 0-3.099696 4.649544-5.682776 10.33232zM217.32751101 188.8215905c2.324772.516616 6.4577.516616 9.04078 0 2.324772-.774924.258308-1.29154-4.649544-1.29154s-6.974316.516616-4.391236 1.29154zM222.49367101 193.9877505c2.324772.516616 6.4577.516616 9.04078 0 2.324772-.774924.258308-1.29154-4.649544-1.29154s-6.974316.516616-4.391236 1.29154zM94.11459501 196.8291385c-1.033232 1.808156-2.841388 2.58308-4.132928 1.808156-1.29154-.774924-3.099696 0-4.132928 1.549848-1.29154 2.066464-.774924 2.324772 1.549848 1.033232 2.58308-1.549848 3.099696-1.033232 1.808156 2.066464-1.033232 2.841388-.516616 3.616312 2.066464 2.58308 2.066464-.774924 3.099696-2.58308 2.066464-4.132928s0-2.066464 2.324772-1.29154c2.066464 1.033232 5.424468.516616 7.490932-1.033232 2.841388-2.066464 2.841388-2.324772-.774924-1.29154-2.324772.774924-4.649544.258308-5.424468-1.549848-.516616-2.066464-1.29154-2.066464-2.841388.258308zM188.13870701 201.2203745c-4.907852 5.941084-2.066464 6.4577 3.616312 1.033232 2.841388-2.841388 3.87462-4.907852 2.324772-4.907852-1.549848 0-4.132928 1.808156-5.941084 3.87462zM277.25496701 199.9288345c-.774924 1.549848.258308 1.808156 2.324772 1.033232 4.649544-1.808156 5.424468-3.616312 1.808156-3.616312-1.549848 0-3.358004 1.033232-4.132928 2.58308zM88.69012701 211.5526945c-5.682776 3.358004-9.04078 6.199392-7.74924 6.199392 1.549848 0 7.232624-2.841388 12.9154-6.199392 5.682776-3.616312 9.299088-6.4577 7.74924-6.4577-1.29154 0-7.232624 2.841388-12.9154 6.4577zM193.30486701 207.6780745c0 1.29154 1.29154 2.58308 2.58308 2.58308 1.549848 0 2.58308-1.29154 2.58308-2.58308 0-1.549848-1.033232-2.58308-2.58308-2.58308-1.29154 0-2.58308 1.033232-2.58308 2.58308zM63.37594301 223.1765545c-4.391236 5.424468-3.616312 5.941084 3.87462 3.099696 2.841388-1.033232 3.616312-3.099696 2.58308-4.907852-1.549848-2.324772-3.099696-1.808156-6.4577 1.808156zM263.04802701 222.4016305c.258308 4.649544 4.649544 9.04078 6.199392 6.199392 1.033232-1.549848.516616-2.841388-1.033232-2.841388s-2.066464-1.29154-1.29154-2.58308c.774924-1.549848.258308-2.58308-1.033232-2.58308-1.549848 0-2.841388.774924-2.841388 1.808156zM274.41357901 230.4091785c1.033232 1.808156 3.616312 3.099696 5.682776 3.099696 2.066464 0 3.099696 1.033232 2.324772 2.58308-.774924 1.29154 0 1.808156 2.324772 1.033232 2.324772-.774924 5.16616.774924 7.232624 3.87462 3.358004 5.424468 7.232624 7.232624 7.232624 3.358004 0-2.066464-14.723556-12.398784-21.697872-14.981864-3.358004-1.29154-4.391236-1.033232-3.099696 1.033232zM71.90010701 237.1251865c0 .516616 1.808156 1.808156 4.132928 2.58308 2.066464.774924 3.099696.516616 2.324772-1.033232-1.549848-2.58308-6.4577-3.616312-6.4577-1.549848zM92.04813101 243.0662705c1.808156.774924 4.132928.516616 4.907852-.258308 1.033232-.774924-.516616-1.549848-3.358004-1.29154-2.841388 0-3.616312.774924-1.549848 1.549848zM545.12036301 139.7430705c-1.808156.516616-4.391236 3.358004-5.682776 5.941084-1.808156 3.616312-1.29154 4.907852 2.58308 5.941084 5.16616 1.29154 5.941084-3.099696 1.29154-6.4577-1.549848-1.29154-.774924-2.066464 1.808156-2.066464 2.324772 0 5.16616-1.29154 5.941084-2.58308 1.808156-2.841388-.516616-3.099696-5.941084-.774924zM400.20957501 153.9500105c-.258308 8.007548 4.649544 20.148024 8.265856 20.148024 1.29154 0 1.29154-1.549848-.516616-3.358004-1.549848-2.066464-3.87462-8.007548-5.16616-13.690324-1.808156-8.265856-2.324772-8.782472-2.58308-3.099696zM387.29417501 166.3487945c0 6.4577 4.907852 15.49848 8.782472 15.49848 1.033232 0 .516616-1.549848-1.033232-3.616312-1.808156-2.066464-4.132928-6.974316-5.424468-11.107244-2.066464-6.974316-2.066464-6.974316-2.324772-.774924zM282.67943501 184.1720465c-1.033232 1.29154.774924 1.808156 3.616312 1.033232 5.941084-1.549848 6.716008-3.358004 1.549848-3.358004-2.066464 0-4.391236 1.033232-5.16616 2.324772zM137.25203101 199.6705265c.258308 3.099696 1.808156 5.424468 3.616312 5.424468 4.391236 0 4.132928-3.87462-.258308-7.74924-3.099696-2.324772-3.87462-2.066464-3.358004 2.324772zM114.00431101 214.1357745c-7.490932 4.907852-13.690324 9.557396-13.690324 10.33232 0 .774924 4.649544-1.549848 10.074012-5.424468 6.199392-3.87462 11.62386-5.941084 13.690324-4.649544 1.808156 1.033232 2.58308 1.033232 1.549848-.258308-1.033232-1.033232 0-3.616312 2.58308-5.424468 9.299088-7.232624-1.29154-3.099696-14.20694 5.424468zM52.52700701 246.4242745c.774924 1.29154 2.066464 2.58308 2.841388 2.58308.516616 0 1.033232-1.29154 1.033232-2.58308 0-1.549848-1.29154-2.58308-2.841388-2.58308-1.29154 0-1.808156 1.033232-1.033232 2.58308zM146.03450301 258.0481345c-1.033232 6.716008 1.808156 8.782472 4.391236 3.099696 1.033232-1.549848 1.033232-.516616.516616 2.58308-.516616 3.358004 0 5.941084 1.29154 5.941084 3.616312 0 2.841388-10.33232-1.29154-14.20694-3.099696-3.099696-3.87462-2.841388-4.907852 2.58308zM431.20653501 156.7913985c-7.74924 2.841388-12.9154 5.682776-11.365552 6.199392 1.29154.516616 8.007548-1.29154 14.465248-4.132928 12.9154-5.682776 20.66464-4.907852 19.3731 2.066464-.774924 3.099696-3.616312 3.87462-13.173708 3.616312-7.74924-.516616-11.882168.258308-10.848936 1.808156 2.324772 3.616312 20.406332 3.099696 24.022644-.516616 2.066464-2.066464 3.099696-2.324772 3.099696-.258308 0 1.549848-1.808156 4.907852-4.132928 6.974316-3.358004 3.616312-3.358004 4.132928-.258308 4.132928 8.524164 0 7.74924-18.598176-.774924-23.24772-5.682776-3.099696-3.358004-3.358004-20.406332 3.358004z"/><path d="M443.86362701 161.1826345c0 1.29154 1.033232 2.58308 2.324772 2.58308 1.549848 0 3.358004-1.29154 4.132928-2.58308.774924-1.549848-.258308-2.58308-2.324772-2.58308-2.324772 0-4.132928 1.033232-4.132928 2.58308zM460.91195501 180.8140425c-1.033232 2.324772-1.033232 4.907852-.258308 5.682776.516616.774924 1.808156-.774924 2.841388-3.099696 1.033232-2.324772 1.033232-4.907852.258308-5.682776-.516616-.774924-1.808156.774924-2.841388 3.099696zM407.70050701 189.5965145c-2.066464 1.29154-3.099696 3.099696-2.324772 3.87462 1.033232.774924 3.099696-.258308 4.907852-2.58308 3.616312-4.391236 2.841388-4.907852-2.58308-1.29154zM529.10526701 194.2460585c0 3.616312 1.549848 5.682776 4.132928 5.682776 3.616312 0 3.87462-.774924.774924-4.649544-1.808156-2.324772-3.87462-4.907852-4.132928-5.424468-.516616-.516616-.774924 1.29154-.774924 4.391236zM553.12791101 193.4711345c-9.04078 3.87462-10.848936 7.490932-4.907852 9.815704 2.58308 1.033232 3.358004.258308 2.58308-2.066464-1.808156-4.649544 7.74924-7.490932 14.20694-4.132928 7.232624 4.132928 8.524164 3.616312 5.424468-2.324772-3.358004-5.941084-5.941084-6.199392-17.306636-1.29154zM439.21408301 196.3125225c-3.87462 4.132928-4.132928 3.87462 5.424468 5.16616 3.87462.258308 6.974316-.516616 6.974316-1.808156 0-1.549848-1.033232-2.066464-2.324772-1.033232-1.549848.774924-3.358004-.258308-4.649544-2.324772-1.808156-3.099696-2.58308-3.099696-5.424468 0zM539.43758701 200.9620665c0 2.066464-1.549848 4.391236-3.099696 4.907852-1.808156.774924-.774924 1.549848 2.324772 1.549848 4.132928.258308 5.16616-.774924 4.132928-4.907852-1.549848-5.941084-3.358004-6.716008-3.358004-1.549848zM404.34250301 214.6523905c-2.841388 2.841388-1.808156 12.140476 1.808156 17.048328 4.391236 5.682776 12.9154 3.099696 10.33232-3.099696-1.033232-2.324772-1.549848-6.716008-1.29154-10.074012 0-3.099696-1.033232-5.682776-2.324772-5.682776-1.549848 0-2.58308 1.033232-2.58308 2.58308 0 1.29154-1.29154 2.58308-2.841388 2.58308-1.29154 0-1.808156-1.29154-1.033232-2.58308 1.808156-2.841388.516616-3.358004-2.066464-.774924zm6.4577 14.20694c-2.324772 2.324772-3.099696 1.808156-3.099696-3.099696s.774924-5.424468 3.099696-3.099696c2.324772 2.324772 2.324772 3.87462 0 6.199392zM484.41798301 214.6523905c-2.841388 2.841388-2.066464 5.16616 1.808156 5.16616 2.066464 0 3.099696-1.549848 2.324772-3.616312-1.549848-3.87462-1.808156-3.87462-4.132928-1.549848zM420.61590701 253.9152065c0 2.841388-1.29154 5.941084-2.841388 6.974316-2.066464 1.033232-1.549848 2.58308 1.549848 4.391236 5.16616 2.841388 9.04078-1.549848 8.782472-9.815704-.258308-5.16616-.258308-5.16616-1.549848 0-2.324772 9.04078-6.199392 10.848936-4.391236 1.808156 1.033232-4.649544 1.033232-8.265856 0-8.265856-.774924 0-1.549848 2.324772-1.549848 4.907852zM606.59766701 264.5058345c-2.066464 1.29154-3.099696 2.841388-2.324772 3.616312.516616.774924 2.841388.258308 4.907852-1.033232 2.066464-1.29154 3.099696-2.841388 2.324772-3.616312-.516616-.774924-2.841388-.258308-4.907852 1.033232z"/>
  </symbol>
</svg>