<svg xmlns="http://www.w3.org/2000/svg">
  <symbol id="1" viewBox="0 0 420 245">
    <path d="M305.729 1.545c-.803.402-2.911 1.305-4.718 2.008-2.007.803-3.111 2.007-3.011 3.111.1 1.506.301 1.506 1.706.402 2.811-2.51 5.622-2.71 7.529-.602 1.003 1.204 1.305 2.007.602 2.007s-1.004 1.004-.703 2.61c.603 3.212-.2 5.42-2.108 5.42-.803 0-1.204.402-.903.904.301.401-.1 1.706-.903 2.71-1.305 1.706-1.406 1.706-.904.1.703-1.807-1.104-4.718-2.911-4.718-.602 0-.301.603.703 1.305 1.907 1.406 1.506 5.722-.502 5.722-.602 0-.703-.602-.401-1.305.401-.602 0-.402-.904.703-.903 1.104-2.007 1.505-2.81 1.003-1.105-.602-1.105-.502 0 .803 1.706 2.108.2 3.012-3.514 2.309-1.505-.301-2.308-.301-1.606.1 1.305.603.703 3.413-.702 3.413-.502 0-1.104-.803-1.305-1.807-.402-1.405-.502-1.405-.602.302 0 1.104-1.004 2.609-2.108 3.312-1.205.703-1.807 1.706-1.506 2.208.301.603-.301 1.004-1.405 1.004s-2.309.402-2.61 1.004c-.301.502-1.405 1.004-2.309.903-1.104 0-1.305-.201-.401-.602 1.706-.703 6.223-4.818 6.223-5.722 0-.401-.401-.501-.903-.2-.502.401-1.104 0-1.406-.603-.501-1.606 1.305-5.821 2.51-5.821 1.305 0 .903 1.806-.402 2.308-1.003.301-.903.904.402 2.209 1.606 1.706 1.706 1.706 1.104-.302-.301-1.405-.1-2.208.703-2.208.803 0 1.003-.803.702-2.108-.502-1.706-.301-1.807.904-.803 1.305 1.004 1.405.803.903-1.807-.301-2.208-.1-3.312 1.004-3.714.803-.301 1.505-1.304 1.505-2.107 0-1.004.502-1.305 1.305-.904.904.602.904.402-.1-.803-.803-1.004-.903-1.907-.301-2.208.502-.301 1.104 0 1.405.602.201.703.803.904 1.305.502.502-.402.301-1.205-.502-1.606-1.004-.703-.903-1.004.301-1.405.904-.402 1.606-.201 1.606.301 0 .602.402 1.004.904 1.004.602 0 .903-.904.803-2.008-.201-2.81-1.606-2.509-5.722 1.305-5.019 4.517-10.64 12.647-11.443 16.462-.401 1.706-1.405 3.714-2.208 4.416-.803.603-1.405 1.707-1.405 2.309 0 .703-1.004 2.309-2.209 3.513l-2.107 2.409 2.308 1.707c2.309 1.706 2.409 1.706 5.922-1.406 1.908-1.706 4.718-4.215 6.224-5.621 1.405-1.405 3.111-2.409 3.613-2.308.502.2 3.514-1.506 6.726-3.714 3.111-2.209 6.123-4.015 6.624-4.015.603 0 1.004-.502 1.004-1.205 0-.602 1.004-2.509 2.309-4.216 3.011-4.115 8.231-15.458 7.528-16.261-1.004-.903-7.227-1.204-8.833-.301zm5.32 2.008c-.602.602-.903 1.907-.602 2.81.401 1.205.301 1.305-.603.502-1.304-1.204-.501-4.417 1.205-4.417.803 0 .803.302 0 1.105z"/><path d="M240.785 2.549c-1.807.502-3.714 1.807-4.316 2.911-.602 1.104-1.606 2.007-2.208 2.007-1.205 0-7.83 7.027-7.83 8.332 0 .401 1.506-.302 3.313-1.707 1.907-1.505 4.015-2.61 4.818-2.61.803 0 2.007-.502 2.61-1.104 1.505-1.505 11.543-1.405 14.554.101 4.618 2.409 10.038 8.933 10.439 12.547 0 .502.402 3.111.803 5.621 1.807 10.539-2.81 21.48-12.145 29.009-5.922 4.717-19.072 17.465-22.183 21.48-1.205 1.606-2.51 2.61-2.811 2.309-1.205-1.204 1.706-7.327 5.22-11.142 5.821-6.324 14.554-20.477 16.16-26.098.803-2.81 1.707-6.022 2.008-7.026.502-1.405.301-1.707-.703-1.104-.803.502-1.104.401-.602-.301 1.204-1.908-1.405-2.409-4.718-.803-5.621 2.71-13.952 11.744-12.346 13.35.301.301-.101 1.104-.904 1.706-.903.602-1.706 2.71-1.907 4.617-.2 1.908-.602 4.216-1.003 5.019-.302.803-.703 3.614-.904 6.123-.502 5.421-1.405 7.227-3.312 6.525-.803-.301-1.406 0-1.406.502 0 .702 1.105.903 2.51.702 2.911-.602 3.112-.2 1.104 1.807-1.104 1.104-1.606 1.104-1.907.1-.301-.702-.602-.501-.602.502-.101 1.004.301 1.807.803 1.807 1.405 0 .1 7.227-1.707 9.235-1.907 2.308-3.413 1.305-2.309-1.506.502-1.204.502-3.212 0-4.517-.501-1.405-.501-2.208.201-2.208.603 0 .904-.703.603-1.506-.402-.803-.201-1.706.301-2.007.702-.402.602-1.305 0-2.61-.904-1.506-.703-1.907.502-1.907 3.814 0-.603-10.138-6.625-14.956-4.919-4.015-8.834-5.22-14.856-4.517-5.119.602-12.246 3.814-14.856 6.624-2.71 3.012.301 2.008 10.74-3.713 1.908-1.105 2.61-1.105 3.313-.201.702.903 1.004.903 1.305 0 .401-.904 1.305-.904 3.011-.201 3.614 1.305 4.216 1.104 1.907-.703-1.204-1.003-1.405-1.505-.502-1.204.803.301 2.008 1.506 2.61 2.71 1.004 2.008 3.313 2.71 2.61.803-.402-1.405 5.721 3.614 6.324 5.119 1.003 2.71-.402 2.61-3.012-.301-3.011-3.212-4.818-2.61-1.907.602 1.907 2.209 1.907 2.209-.301.803-1.305-.803-2.309-1.907-2.309-2.609 0-.703-.501-1.305-1.104-1.305-.502 0-.702.502-.401 1.104.401.602 0 .903-1.104.703-2.51-.402-4.317-2.108-3.614-3.313.301-.602-.201-.401-1.104.402-1.405 1.104-1.807 1.104-2.309-.302-.301-.903-1.505-1.606-2.509-1.606-3.212 0-2.108 2.008 1.907 3.614 2.007.803 5.119 2.108 6.725 2.911 1.707.703 4.316 1.706 5.822 2.007 1.506.402 2.61 1.004 2.309 1.205-.301.301.401 2.309 1.405 4.316 2.61 5.119 3.011 18.269.703 22.585-.803 1.706-1.807 4.818-2.209 6.826-.502 2.409-1.907 4.717-4.015 6.524-1.706 1.506-5.019 5.22-7.227 8.231-6.223 8.632-11.844 12.648-21.28 15.558-8.331 2.51-14.053 2.811-20.477 1.105-6.625-1.707-8.933-3.212-12.246-7.629-4.918-6.725-3.814-13.149 3.614-19.473 4.216-3.513 7.829-4.718 19.774-6.123 10.138-1.305 4.618-3.513-8.833-3.513-10.038 0-13.651 1.305-18.77 6.725-11.343 12.146-10.741 24.592 1.606 33.727 5.52 4.115 14.153 6.424 14.153 3.814 0-.703.502-.904 1.104-.602.602.401.502-.302-.301-1.406-1.004-1.706-1.406-1.806-1.606-.602-.201.803-.703 1.506-1.205 1.506-1.706 0-7.628-3.012-9.736-4.919-1.205-1.204-2.911-2.108-3.815-2.108-1.204 0-1.505-.602-1.003-1.907.301-1.104 0-2.308-.603-2.71-.803-.401-.903-.301-.502.402.402.702.302 1.204-.301 1.204-1.606 0-2.81-3.212-2.509-6.524.1-1.707.301-4.517.301-6.324.1-2.409 1.004-4.116 3.413-6.324 1.706-1.706 2.409-2.71 1.505-2.309-1.003.302-1.806.302-1.806 0 0-1.104 3.814-4.416 4.416-3.914.301.401.602.1.602-.502 0-.703.502-1.205 1.105-1.205.602 0 1.706-.702 2.609-1.505.803-.803 1.908-1.305 2.409-1.004.502.401.904.1.904-.602 0-.703.201-1.004.502-.703.803.803-.603 3.915-1.506 3.312-.502-.301-1.506.101-2.208.904-.803.702-2.409 1.606-3.513 2.007-1.305.402-2.008 1.305-1.707 2.008.301.703-.602 2.71-2.108 4.416-2.71 3.313-2.911 6.926-.502 9.034.803.803 1.004 1.105.302.803-.603-.401-1.406-.2-1.807.402-.301.502-.201 1.004.401 1.004.603 0 1.506.903 2.108 2.007.904 1.707.803 1.907-.702 1.305-1.506-.602-1.606-.502-.302.903.803.804 2.209 1.305 3.012 1.004 1.104-.401.903.201-.502 1.907-1.205 1.406-1.305 1.908-.402 1.105 1.305-1.004 2.108-.803 4.317.903 1.405 1.104 2.609 1.706 2.609 1.204 0-.401.603-.1 1.305.703.703.803 2.108 1.606 3.212 1.807 1.104.201 3.012 1.004 4.216 1.807 1.606 1.003 2.309 1.104 2.61.1.401-.903.602-.903.602 0 .101 1.606 3.714 1.706 4.618.201.401-.602 1.304-.803 2.107-.502.703.301 1.606.1 1.908-.301.301-.502 1.405-.703 2.509-.402 1.205.301 2.008 0 2.008-.702 0-.703.702-1.004 1.505-.603.803.302 1.506.101 1.506-.301 0-.502.703-1.204 1.606-1.505 1.305-.502 1.405-.402.602.702-1.907 2.309-.201 2.71 2.008.502 1.104-1.104 2.609-1.706 3.513-1.405 1.004.401 2.108-.201 3.011-1.405.803-1.105 2.108-2.008 2.911-2.008.904 0-.1 1.606-2.61 4.116-2.509 2.509-4.617 3.914-5.52 3.513-.904-.301-1.506.1-1.506 1.003 0 1.105-.602 1.406-2.208.904-1.908-.602-2.108-.502-1.004.602 1.807 2.008 1.506 2.71-1.807 3.413-1.606.401-3.312 1.104-3.613 1.706-.502.703-.201.803.702.301 1.104-.602 1.205-.501.201.502-1.004 1.104-1.506 1.104-2.811 0-1.003-.803-1.505-.903-1.505-.1 0 .602-.904 1.104-2.008 1.104-2.208 0-2.71 1.506-.702 2.309 1.003.401 1.003.602 0 .602-.703.1-1.606.1-1.908 0-.401 0-1.104.502-1.505 1.305-.703 1.104-1.104 1.004-1.807-.201-.502-.803-.803-1.706-.502-2.108.201-.401-.502-1.405-1.706-2.208-2.008-1.405-2.008-1.606-.201-2.61 2.309-1.305.803-1.405-1.807-.1-1.004.602-1.907 1.505-1.907 2.108 0 .602.301.803.803.502 1.204-.703 3.714 1.806 3.915 4.115.2 1.606-.603 2.71-2.811 3.915-3.915 2.007-5.019 1.104-1.907-1.606 2.61-2.209 1.907-4.116-.803-2.209-.903.603-5.722 3.313-10.74 5.822-4.919 2.61-9.335 5.12-9.737 5.722-.301.602-1.506 1.204-2.509 1.305-2.008.301-4.015.803-6.324 1.606-2.911 1.104-15.96 3.011-22.585 3.212-8.03.401-18.369-2.008-24.693-5.722-5.119-3.011-13.651-11.643-16.763-16.863-2.208-3.714-5.018-4.818-4.818-2.008 0 .904.703 2.108 1.506 2.711.803.602 1.204 1.806.903 2.609-.702 1.807.603 4.216 2.409 4.417.703.1 1.908.201 2.61.301.602 0 1.205.803 1.205 1.606s.702 1.506 1.505 1.506c.803 0 1.406.301 1.406.702-.402 2.409.401 3.313 2.71 3.313 2.007 0 2.509.401 2.007 1.606-.301.903-.2 1.204.502.903.502-.401 1.707-.1 2.51.603 1.003.903 1.204 1.405.401 1.907-.702.401.201 1.004 1.907 1.305 2.008.401 3.112 1.305 3.212 2.409 0 1.606.201 1.505.904-.201.903-2.008.903-2.008.903 0 .101 1.706.301 1.807 1.205.502.803-1.205 1.003-1.104.702.502-.401 2.108-3.814 2.81-5.018 1.003-.502-.602-.804-.501-.804.302 0 .702-.401 1.104-.903.702-.502-.301-1.204-.1-1.606.502-.301.502-1.204 1.004-1.807 1.004-.803 0-.803-.301.101-.904 1.003-.602.702-1.003-1.205-1.304-2.007-.402-2.61-.101-2.61 1.204 0 1.004-.702 2.008-1.505 2.409-.803.301-1.506.101-1.506-.401s-.703-.703-1.506-.402c-.903.402-1.806-.1-2.108-1.104-.903-2.208-3.513-1.506-11.844 3.212-10.54 6.123-15.86 11.343-20.176 19.774-2.308 4.618-3.613 8.332-3.212 9.536.301 1.205.201 2.108-.201 2.108-.401 0-.602 3.513-.501 7.829.401 12.949 5.821 21.782 16.963 27.504 4.818 2.409 7.729 3.212 14.254 3.613 8.03.402 17.365-1.104 17.365-2.81 0-.402 1.606-1.104 3.513-1.406 1.907-.401 3.513-1.003 3.513-1.505 0-.402 1.606-1.506 3.614-2.51 2.71-1.204 3.413-2.007 2.61-2.81-.803-.803-2.108-.803-4.919.1-6.424 2.008-14.755 3.012-15.558 1.807-.502-.803-1.405-.803-3.011-.1-2.811 1.305-7.529.401-11.945-2.309-3.413-1.907-8.934-8.934-8.633-10.841.101-.502-.502-.903-1.305-.803-.903.201-1.505-.602-1.606-2.007-.301-6.023-.903-8.733-2.108-8.733-.702 0-1.305-.502-1.305-1.104 0-.502.502-.703 1.004-.402 1.104.703 1.406-.803.301-1.807-.903-.903-1.003-5.721-.2-5.721.401 0 .502-.803.2-1.807-.602-2.509 4.116-10.539 8.532-14.354 2.008-1.807 3.614-4.015 3.413-4.818-.201-1.305-.1-1.305.603-.301.702 1.104 2.107.703 6.524-1.706 3.011-1.606 7.227-3.313 9.435-3.714 2.108-.301 4.417-1.104 5.019-1.606.803-.703 4.718-.703 10.54-.201 5.119.401 12.647.803 16.662.803 7.83.1 9.436 1.104 3.413 2.208-2.007.402-4.115 1.004-4.717 1.406-.502.401-2.209.803-3.614.803-2.71-.101-9.937 3.011-9.937 4.115 0 .401-1.606 1.305-3.514 2.008-5.219 1.806-13.952 10.338-16.963 16.461-1.406 3.012-2.61 5.923-2.61 6.525 0 1.405 5.32 1.606 7.829.301.904-.602 4.618-2.409 8.231-4.115 6.525-3.213 17.064-10.64 17.064-12.046 0-.401 2.711-3.413 6.023-6.625 3.312-3.312 6.023-6.725 6.023-7.729 0-1.907 1.505-2.308 2.509-.702.301.502.201 1.004-.402 1.004-.602 0-.803.602-.602 1.304.502 1.305-4.918 7.729-6.524 7.729-.603 0-.803.402-.502 1.004.301.502-.101 2.008-1.004 3.313-1.606 2.609-4.517 14.454-4.517 18.971 0 3.413 5.22 9.636 8.934 10.439 1.405.402 3.111 1.104 3.714 1.506.602.502 1.907 1.003 3.011 1.204 1.004.101 2.509.603 3.212 1.004.602.502 1.606.602 2.008.301.501-.301 3.613-.903 6.926-1.506 6.725-1.104 14.253-4.115 16.361-6.624 1.706-2.008.502-3.212-1.606-1.406-1.104.904-4.919 1.305-12.648 1.406h-11.141l-2.911-3.514c-2.711-3.212-3.012-4.215-3.112-11.342-.201-5.621.1-7.729 1.104-7.729.602 0 1.205-.803 1.205-1.807 0-.903 1.104-3.011 2.509-4.517 1.405-1.506 2.409-2.71 2.108-2.71-.201 0 2.108-2.811 5.22-6.123 6.725-7.227 14.755-13.651 21.781-17.265 5.019-2.509 7.83-4.115 26.098-14.153 5.521-3.112 15.559-10.54 19.373-14.454 3.714-3.815 4.116-4.618 3.011-6.023-1.204-1.506-1.104-1.606.502-.301 1.606 1.305 2.108 1.104 5.019-2.108 13.451-14.755 12.246-13.852 17.767-13.852 5.32 0 5.822.301 11.342 7.327 1.406 1.707 4.718 3.614 8.733 5.019 9.235 3.212 11.042 4.417 12.648 8.231 2.007 4.919 1.907 7.629-.301 6.826-1.004-.402-2.108-1.104-2.51-1.707-.401-.702-4.015-1.104-8.532-1.003-6.725.1-8.933.602-15.358 3.613-7.829 3.714-14.755 8.432-21.581 14.956-22.183 20.879-36.436 30.314-63.739 42.058-8.231 3.514-11.443 5.621-6.524 4.317 1.706-.402 4.115-.703 5.52-.603 12.949.603 15.86.402 21.079-1.706l5.521-2.108-3.111 2.811c-1.606 1.505-4.919 4.015-7.228 5.621-2.308 1.505-4.215 2.911-4.215 3.212 0 .502 3.111-.502 4.517-1.506.602-.502 4.617-1.907 9.033-3.312 4.417-1.406 8.934-2.911 9.938-3.313 1.807-.702 1.807-.502-.402 2.51-1.204 1.907-3.814 4.918-5.721 6.725-1.807 1.907-3.112 3.413-2.811 3.413 1.004 0 6.023-3.413 6.826-4.718.401-.703 1.706-1.305 2.81-1.305 1.105 0 3.112-.703 4.517-1.606 4.015-2.71 4.116-.703.101 3.413-4.517 4.617-4.818 6.123-.703 3.212 1.606-1.205 8.633-4.818 15.559-8.131 7.528-3.513 12.446-6.323 12.045-6.926-.402-.602-.101-1.907.702-2.81 1.205-1.606 1.105-1.606-1.204 0-1.405.903-2.409 2.108-2.309 2.71.201.602-.401.803-1.204.502-.803-.402-1.707.1-2.108 1.004-.301.903-1.707 1.606-3.112 1.606-1.305 0-2.108.401-1.807 1.003.301.603-.1.703-.903.402-.903-.301-1.606-.1-1.606.602 0 .602-.402.904-.803.602-.402-.2-1.405-.1-2.208.502-1.305.703-1.305.904 0 .904.803 0-.302.903-2.409 2.108-2.108 1.104-4.016 1.806-4.317 1.606-1.405-1.506 3.313-5.421 10.741-9.034 4.717-2.209 9.636-4.818 11.041-5.822 1.405-.903 5.922-3.814 10.038-6.424 4.115-2.71 12.045-7.83 17.566-11.443 5.52-3.614 11.242-7.328 12.647-8.131 5.521-3.212 6.424-3.914 5.822-4.517-.903-.803-6.926 2.71-24.693 14.655-21.882 14.555-23.488 15.559-21.781 12.849.301-.603-.803-.302-2.51.501-1.706.904-3.112 1.908-3.112 2.209 0 .201.904 0 2.108-.602 1.105-.703 2.309-.904 2.61-.603.904.803-9.837 5.822-11.443 5.22-.903-.402-1.104-.201-.702.602.501.803.2.903-1.004.502-1.004-.402-1.506-.301-1.104.301.602.904-13.652 8.231-14.455 7.428-1.304-1.205 4.517-6.424 11.042-9.837 4.115-2.108 10.74-6.123 14.755-8.733 4.015-2.71 7.729-4.918 8.131-4.918.502 0 1.104-.301 1.305-.803.2-.402 2.308-2.008 4.818-3.614 2.509-1.606 7.026-4.818 10.037-7.026 5.822-4.417 11.945-8.231 18.871-11.845 4.015-2.108 5.421-3.814 3.212-3.814-.602 0-3.814 1.706-7.126 3.714-6.826 4.316-6.525 4.115-29.511 19.774-17.265 11.744-30.515 19.072-41.155 22.685-7.628 2.61-9.536 2.61-6.123-.1 1.406-1.104 3.012-1.807 3.513-1.506 1.707 1.105 19.875-7.829 25.697-12.647.602-.502 2.108-1.707 3.413-2.811 1.305-1.104 3.312-2.208 4.517-2.609 1.104-.402 3.312-1.908 4.818-3.514 1.506-1.505 4.015-3.613 5.521-4.617 3.312-2.108 3.814-2.509 11.844-9.034 7.127-5.822 18.168-11.945 23.087-12.949 1.907-.301 3.513-1.104 3.513-1.606 0-3.212-16.261 3.915-25.094 11.042-2.51 2.007-4.919 4.015-5.521 4.517-.502.401-3.915 3.112-7.528 5.922-3.614 2.811-8.332 6.324-10.54 7.729-2.208 1.405-6.926 4.818-10.439 7.528-3.614 2.61-10.138 6.625-14.555 8.733-8.833 4.316-8.632 4.316-8.632 3.011 0-.501 2.61-2.208 5.721-3.713 5.12-2.309 20.979-12.548 22.384-14.354.302-.301 3.212-2.61 6.525-5.12 3.312-2.509 8.733-6.725 12.146-9.535 3.312-2.711 7.327-5.923 8.833-7.027 1.606-1.104 3.312-2.509 4.015-3.011 2.71-2.409 9.435-6.525 12.948-8.03 3.112-1.305 4.517-1.406 7.228-.502 4.516 1.506 5.52 3.011 4.918 7.227-.602 3.212-1.205 3.915-5.32 5.621-8.632 3.513-38.244 24.693-36.738 26.098.703.703 7.528-4.216 7.528-5.42 0-.602 1.506-1.907 3.413-3.012 1.807-1.003 6.023-3.713 9.235-5.922 7.227-4.818 9.435-6.123 16.462-9.636l5.52-2.811.703 2.209c1.305 4.416.803 5.32-3.915 7.729-2.71 1.204-7.026 3.714-9.837 5.521-2.71 1.806-10.338 6.424-16.863 10.138-6.424 3.814-11.343 7.026-10.941 7.227.502.1 4.216-1.707 8.331-4.116 4.116-2.409 11.142-6.524 15.759-9.134 4.517-2.71 8.231-5.22 8.231-5.721 0-.502.703-.904 1.506-.904.903 0 3.312-.903 5.521-2.007 2.208-1.105 4.216-2.008 4.517-2.008 1.305 0 .301 2.911-1.506 4.517-1.807 1.706-2.008 1.706-1.405.201.301-.904.401-1.707.1-1.707-.703 0-13.049 7.227-13.752 8.031-.301.301-1.606 1.104-3.011 1.706-9.736 4.718-28.105 15.659-27.603 16.462.301.401-.703 2.81-2.209 5.42l-2.61 4.718 2.409-.703c5.12-1.505 16.964-6.524 22.284-9.335l5.621-3.011-1.004 2.509c-1.606 4.316-3.111 6.725-5.721 9.536-3.413 3.614-1.104 3.614 3.714 0 2.007-1.506 5.621-3.814 8.13-5.119 5.622-3.012 17.667-11.744 19.373-14.053.602-1.004 2.51-3.312 4.015-5.119l2.811-3.313 2.71 2.008c3.614 2.61 9.235 5.521 9.235 4.718 0-.402.602-.101 1.405.502.703.602 4.718 1.405 9.034 1.706 5.22.502 7.629 1.104 7.629 2.007 0 .703.702 1.707 1.606 2.209 1.806 1.004 4.517 7.729 3.914 9.636-.2.602-.602 2.309-.903 3.814-.502 2.209-2.208 3.614-8.633 6.926-10.439 5.421-17.967 12.347-18.168 16.763-.1 1.807-.2 3.815-.301 4.417-.1.702.402 1.204 1.104 1.104.703-.201 1.004.401.603 1.204-.803 2.108 2.509 5.521 5.42 5.521 1.204 0 2.309-.502 2.309-1.004 0-.602-.904-1.003-1.908-1.003-1.104 0-2.81-1.506-4.015-3.614-3.111-5.22-2.609-6.223 1.205-2.61 3.212 3.112 7.026 4.216 8.231 2.309.301-.502-.904-1.104-2.71-1.305-3.212-.301-6.625-4.316-6.726-8.13-.1-2.61 1.205-2.008 3.112 1.304 2.008 3.514 4.417 4.819 6.123 3.112.803-.803.703-1.104-.502-1.104-2.007 0-4.818-3.714-4.818-6.324s4.216-1.807 5.521 1.004c1.104 2.71 2.308 2.911 3.212.703.401-1.004-.402-2.409-2.208-3.815l-2.811-2.308 4.517-2.108c2.409-1.205 4.918-2.209 5.621-2.209.602 0 1.506-.702 2.008-1.606.702-1.305 2.308-2.007 5.42-2.308.401-.101 1.004-3.112 1.405-6.926.402-4.417 1.707-8.934 3.815-13.15 2.71-5.52 3.613-6.625 7.026-7.829 3.613-1.205 4.115-1.205 6.123.703 2.61 2.409 7.629 4.015 12.848 4.015 3.614 0 3.714.1 3.112 2.81-.803 3.513-2.108 5.621-7.93 12.246-4.718 5.621-9.235 13.049-7.829 13.049.502 0 .401.402-.201.803-4.818 3.513-3.513 11.443 2.409 13.852 5.32 2.209 6.926 1.707 3.212-1.004-4.015-3.011-6.625-7.528-5.119-9.033.702-.703 1.606-.302 3.011 1.204 2.409 2.61 6.826 2.911 9.636.602 1.807-1.505 1.807-1.505-.301-.502-1.204.603-2.911 1.105-3.814 1.105-2.208 0-6.525-4.819-6.525-7.228 0-1.907.101-1.907 2.61.101 2.811 2.208 6.424 2.81 6.424 1.104 0-.502-.602-.703-1.204-.502-.703.301-2.409-.401-3.815-1.405-2.208-1.807-2.308-2.208-1.104-4.417 1.707-3.312 5.822-4.115 7.93-1.606 1.606 1.907 4.216 2.61 4.216 1.104-.101-2.007-2.108-3.513-5.521-4.115l-3.613-.602 5.219-6.525c2.811-3.613 5.722-6.926 6.324-7.528 3.413-2.911 3.814-4.316 2.208-7.428-.903-1.706-2.61-4.015-3.814-5.119-1.907-1.807-2.108-2.209-.803-3.012 3.212-2.107 11.644-4.015 17.465-4.015 7.027.101 10.64 1.908 19.172 9.637 12.146 11.141 13.15 11.744 16.763 9.836 5.923-3.111 8.231-10.74 6.726-22.885-.603-4.919-1.707-8.231-3.815-11.544-8.933-13.751-17.365-18.068-40.953-20.577-9.235-1.004-13.049-1.907-15.86-3.614-3.814-2.409-4.015-4.115-.201-2.308 4.718 2.409 8.934 3.312 10.64 2.409 1.405-.904 1.405-1.004-.401-1.606-1.104-.402-2.811-1.104-3.815-1.606-1.003-.502-2.208-.703-2.81-.402-1.405.904-18.168-5.019-22.685-7.93-2.108-1.405-5.32-3.011-7.027-3.714-1.807-.602-3.312-1.505-3.312-2.007 0-1.606.803-1.305 16.06 6.023 4.116 2.007 7.829 3.713 8.331 3.914.402.201.703-.1.703-.602 0-1.205-17.867-10.038-21.983-10.841-1.706-.401-3.613-1.305-4.215-2.007-.603-.803-1.807-1.406-2.51-1.406-1.706 0-4.818-1.706-8.231-4.517-4.517-3.613-4.918-4.316-5.621-8.632-.702-4.417 1.104-7.93 4.116-7.93.702 0 1.305-.502 1.305-1.003 0-1.305 8.23-4.919 10.338-4.618.803.101 2.51.904 3.815 1.807 2.509 1.606 2.509 1.807-1.104 8.833-.502 1.004-2.108 1.405-4.919 1.305-4.115-.301-5.119.602-2.81 2.509 1.104 1.004 9.134 1.305 8.23.302-.301-.201.302-1.406 1.406-2.51 1.104-1.204 2.208-3.714 2.61-5.621 2.007-11.041-12.447-10.841-23.689.301-3.614 3.614-4.919 6.023-6.926 12.447-4.116 13.25-4.216 12.346 1.505 16.964 5.32 4.316 8.532 5.922 8.532 4.416 0-.602-.502-1.004-1.104-1.004-1.907 0-9.335-7.227-10.038-9.636-.501-1.706-.301-2.108.703-1.706.803.301 1.405.903 1.405 1.305 0 .401 1.205 1.305 2.811 1.907 1.506.602 4.517 2.409 6.725 4.015 2.208 1.606 5.922 3.212 8.331 3.614 2.309.301 4.216 1.003 4.216 1.405 0 1.104 7.529 6.022 11.945 7.729l3.614 1.405-6.023-.502c-3.212-.301-7.127-.803-8.532-1.104-2.108-.502-2.309-.401-1.004.803.904.703 1.406 2.108 1.205 3.112-.201.903.1 1.706.702 1.706.603 0 1.105-.903 1.105-2.007s.501-2.008 1.003-2.008c1.606 0 1.205 4.015-.502 4.617-.803.402-1.505 1.004-1.505 1.506 0 .402.702.602 1.505.301.803-.401 1.506-.1 1.506.402 0 .602.903 1.305 1.907 1.706 3.112 1.004 3.212 3.212.101 6.424-3.112 3.513-3.714 3.614-6.324 1.707-1.807-1.406-1.807-1.606-.201-4.015 2.108-3.112 1.305-7.127-1.305-7.83-1.505-.401-1.807-1.204-1.405-3.714.301-2.409-.1-3.513-1.907-5.119-1.305-1.004-2.811-1.907-3.413-2.007-.502 0-.301.401.502 1.003.803.502 1.204 1.104 1.004 1.406-.703.702-17.064-7.127-17.064-8.131 0-.502-1.406-1.706-3.012-2.71-1.706-.904-2.81-2.008-2.61-2.409.201-.402.904-4.116 1.506-8.331 2.008-14.254 7.83-23.087 18.67-28.006 11.945-5.52 16.964-4.918 20.678 2.309 2.71 5.22 1.706 9.636-3.313 14.755-6.223 6.123-15.859 6.826-17.967 1.205-.903-2.309-.703-3.011 1.606-4.919 2.71-2.409 6.524-3.111 6.524-1.304 0 .501.502 1.003 1.004 1.003.603 0 1.004-.903 1.004-2.007 0-1.606-.703-2.008-3.413-2.008-5.119 0-8.632 3.313-8.632 8.131 0 4.216 1.305 5.219 8.431 6.625 1.606.401 5.521 2.208 8.532 4.216 8.131 5.219 8.934 5.721 16.362 9.836 3.613 2.108 6.524 4.016 6.223 4.417-.502.903 4.316 5.922 5.722 5.922.702 0 0-1.405-1.606-3.011-1.606-1.706-2.409-3.011-1.707-3.011.603 0 1.406.502 1.707 1.003.401.603 1.104.803 1.606.502.502-.401.903-.1.903.402 0 .602.703 1.104 1.506 1.104 3.011 0 1.405-1.807-3.413-3.915-2.71-1.104-5.42-2.108-6.023-2.108-.602 0-1.104-.502-1.104-1.003 0-.603-.702-1.004-1.505-1.004-.803 0-1.506-.402-1.506-.803 0-.502-1.807-1.606-3.915-2.51-2.208-1.003-5.52-2.911-7.628-4.215-2.008-1.406-3.915-2.51-4.317-2.51-.401 0-1.806-.903-3.111-1.907l-2.409-1.807 2.609-.702c3.915-.904 9.536-6.224 10.239-9.637.401-1.706.903-3.011 1.104-3.011.301 0 2.208.903 4.417 2.008 2.208 1.104 4.617 2.007 5.52 2.007.803 0 1.506.402 1.506.904 0 1.405 11.945 9.736 17.666 12.446 2.711 1.205 7.83 3.714 11.443 5.621 3.614 1.908 7.529 3.614 8.833 3.714 1.305.201 4.016 1.907 6.023 3.815 5.722 5.42 8.432 7.628 9.536 7.628.602 0 .803.201.602.502-.301.201-4.517-.702-9.435-2.108-5.019-1.405-10.339-2.911-12.045-3.312-2.711-.703-9.737-4.316-30.917-15.559-7.427-4.015-7.729-4.115-7.729-2.609 0 .602 1.004 1.505 2.309 2.007 1.205.502 5.42 2.811 9.235 5.019 3.914 2.208 9.736 5.32 13.149 6.926 3.814 1.907 6.926 4.216 8.432 6.424 1.305 1.907 2.911 3.313 3.613 3.011.603-.2 1.406.302 1.807 1.205.703 1.807 1.506 2.007-12.145-2.409-4.618-1.506-8.332-2.309-8.332-1.907 0 1.505 13.752 5.721 23.488 7.227 2.209.401 5.12.903 6.525 1.104 1.606.301 1.004-.201-1.706-1.506-6.123-2.81-10.339-6.022-9.637-7.126.301-.603 1.004-.603 1.707-.101.702.502 6.625 2.108 13.25 3.614 6.624 1.606 14.353 3.914 17.064 5.219 5.32 2.51 8.532 3.112 8.532 1.406 0-.603-.904-1.004-2.008-1.004-1.204 0-3.714-.903-5.822-1.907-5.42-2.811-17.766-12.146-16.06-12.146 2.71 0 8.933 3.011 8.331 4.015-.301.602.101.703 1.004.301 1.004-.301 2.108 0 2.61.803.502.803.903.904.903.402 0-.602 1.907-.904 4.517-.703 2.51.201 6.826-.301 9.536-1.204 2.71-.904 5.621-1.606 6.524-1.606 1.908 0 7.93-3.012 7.328-3.614-.301-.201-1.907.301-3.614 1.205-3.412 1.706-5.821 1.405-14.755-1.305-7.729-2.309-22.484-9.135-28.206-12.949-2.81-1.907-5.621-3.413-6.123-3.413-.602 0-1.706-.702-2.409-1.606-3.915-4.818-32.522-21.681-41.255-24.492-4.316-1.305-17.064-1.405-21.38-.2-7.227 2.208-14.856 6.725-17.968 10.639-5.119 6.324-8.632 15.057-8.732 22.083 0 2.309-.402 4.919-.803 5.923-.703 2.007-1.606 1.204-10.64-9.436-4.116-4.918-13.351-10.84-17.466-11.242-1.907-.201-4.617.201-6.023.903-1.405.803-3.312 1.406-4.215 1.406-.904 0-3.313 1.305-5.421 3.011-3.814 3.112-8.532 4.015-8.532 1.706 0-.602 1.707-3.111 3.814-5.42 5.32-6.023 11.745-13.45 13.953-16.06 1.004-1.305 3.915-3.313 6.524-4.618 2.61-1.305 4.417-2.81 4.015-3.212-.401-.502 0-.401.803.101.803.401 2.51.702 3.614.602 2.61-.402 8.833 4.818 11.042 8.934 1.706 3.412 1.806 8.933.2 12.446-2.81 6.123 3.112 2.61 7.428-4.416 1.506-2.309 2.108-4.818 1.907-7.428-.401-7.227-8.331-14.756-15.458-14.756-2.007 0-3.914-.401-4.216-1.003-1.003-1.707 9.436-8.432 14.856-9.536.904-.201 4.417-1.104 7.729-1.907 9.938-2.51 18.269-.803 21.079 4.416.603 1.104 1.406 4.216 1.707 6.826.401 3.714.201 5.219-1.205 6.524-.903.904-1.305 1.707-.803 1.707 1.606 0 5.32-3.112 5.32-4.417 0-.803.703-1.606 1.506-2.007 1.004-.402 1.506-1.908 1.506-4.818 0-5.019-2.61-9.637-4.417-7.83-.803.803-.703 1.305.401 2.008 2.41 1.505.603 2.007-2.007.602-1.405-.703-2.409-1.807-2.208-2.409.1-.703-.301-1.205-.904-1.205-.502 0-.702-.502-.401-1.104.502-.602 1.104-.401 1.907.703 1.204 1.606 3.613 1.305 3.613-.502 0-.502-1.706-2.008-3.713-3.413-4.116-2.71-11.945-4.015-18.671-3.011-3.011.502-3.513.803-2.609 2.007 1.003 1.105.803 1.205-.703.703-1.606-.502-1.706-.401-.301.502 1.104.703 2.509.703 4.718-.1 1.706-.703 3.412-.904 3.814-.502 1.104 1.104.201 1.505-5.019 2.208-3.614.502-5.119.301-5.721-.703-.703-1.003-.904-1.003-.904 0 0 .703-.401 1.004-1.004.703-.501-.301-1.003-.1-1.003.602 0 .602-.803.904-2.008.602-1.104-.301-1.807-.2-1.506.302.302.401-.2 1.003-1.003 1.405-.803.301-1.506 0-1.606-.703 0-.702-.402-.201-.904 1.004-1.104 2.61-2.509 3.011-3.312.903-.703-1.907 2.208-5.922 3.915-5.219.803.301 1.104 0 .803-.803-.302-.803-1.406-1.205-2.51-.904-1.004.302-1.907.101-1.907-.301.1-1.606 3.814-5.42 5.42-5.42 2.409 0 3.012-2.008 1.004-3.513-1.606-1.205-2.007-1.104-2.509.301-.402 1.204-.703 1.305-1.406.301-.401-.703-.301-1.606.301-2.008.603-.301 1.406-1.907 1.807-3.513.502-2.007.301-2.71-.401-2.208-.602.301-1.406.1-1.807-.502-.402-.803-.301-.903.401-.502.804.502 1.205 0 1.205-1.305 0-1.204-.602-2.108-1.205-2.108-1.003 0-.903-.301.101-.903.903-.602 1.004-1.104.201-1.506-.603-.401-.803-1.204-.502-1.806.401-.603.2-.803-.402-.402-1.505.903-2.61-3.212-1.204-4.918.602-.803.803-2.008.401-2.61-.502-.803-.301-.904.502-.402.703.402 1.004 1.606.803 2.71-.401 1.606-.301 1.707.904.703 1.104-.903 1.405-.803 1.405.502 0 1.004.502 1.405 1.104 1.004.602-.301.301.502-.602 2.007-1.004 1.406-1.305 2.61-.703 2.61 1.606 0 2.509 6.123 1.405 9.034-1.104 3.112-.502 5.019 1.506 5.019 2.509 0 1.204-17.968-1.506-21.782-7.227-10.038-17.766-14.253-28.005-11.242zm3.915 2.007c.301.803 1.104.803 2.71-.2 1.907-1.105 2.509-1.105 2.811-.101.301.602 1.003.904 1.606.502.602-.401.803 0 .401 1.104-.602 1.406-.301 1.506 1.305.603 1.606-.803 2.008-.803 1.807.2-.201.803.502 1.205 2.007 1.004 2.911-.401 5.019 1.706 5.019 5.019 0 1.807-.502 2.509-1.405 2.108-.803-.301-1.405-1.104-1.405-1.907 0-.703-1.105-1.606-2.409-2.008-1.406-.301-2.711-1.204-3.012-2.007-.301-.703-1.204-1.105-2.108-.803-1.003.401-1.505 0-1.505-1.105 0-1.104-.502-1.505-1.406-1.204-3.814 1.506-8.632 1.907-8.632.803 0-.703.502-.903 1.004-.602.602.301 1.004-.101 1.004-.904 0-1.807 1.606-2.208 2.208-.502zm1.104 35.735c-.502.2-.803 1.405-.602 2.609.401 2.711-1.907 7.328-3.513 6.926-.703-.1-1.205.703-1.205 1.908 0 2.308-2.409 5.219-3.513 4.115-.402-.402-.502-.201-.402.301.502 1.606-3.111 7.629-4.115 7.026-.602-.401-1.004.302-1.004 1.506 0 1.104-.703 2.309-1.506 2.61-.803.401-1.204 1.004-.903 1.506.301.501.1.903-.502.903-.502 0-.903-.903-.803-1.907 0-1.104.602-1.707 1.405-1.405.803.301 1.305-.302 1.305-1.807 0-2.008-.2-2.108-1.104-.904-.903 1.205-1.004 1.205-.502-.301.301-1.004.603-2.61.603-3.413 0-1.104.301-1.304 1.304-.501 1.004.803 1.305.602 1.305-.703 0-1.104-.602-1.707-1.204-1.405-.803.301-.502-1.004.702-3.313 1.004-2.108 1.908-4.617 1.908-5.521 0-.903 1.003-2.409 2.308-3.312 1.205-.903 1.606-1.405 1.004-1.104-1.706.803-1.606-.301.1-2.008.703-.803 1.606-1.104 2.008-.803.301.402.602.101.602-.602 0-.803.703-1.004 2.008-.602 1.104.401 2.007.201 2.007-.402 0-.602.803-.702 1.707-.401.903.401 1.204.803.602 1.004zm46.374 6.323c1.907 2.108 1.707 2.409-.903 1.406-.904-.302-1.305-1.004-1.004-1.506.301-.502.1-.903-.502-.903-.502 0-1.204.602-1.405 1.204-.301.803-.602.602-.602-.502-.101-2.309 2.208-2.208 4.416.301zm4.116-.602c2.007 2.108 1.706 2.811-.603 1.405-1.104-.702-2.007-1.606-2.007-2.007 0-1.205 1.004-.904 2.61.602zM255.541 58.66c0 .501-.502 1.003-1.105 1.003-.501 0-.702-.502-.401-1.003.301-.603.803-1.004 1.104-1.004.201 0 .402.401.402 1.004zm51.192.401c0 1.104-1.907 1.506-2.51.602-.301-.502.101-1.003.904-1.003.903 0 1.606.2 1.606.401zm-52.899 3.614c.803 1.104 1.707 1.706 2.008 1.304.401-.301.702.101.702 1.004 0 .904.502 1.707 1.104 1.707.502 0 .803-.402.402-1.004-.301-.502.703-.301 2.208.502 1.506.803 3.313 1.505 3.915 1.505 1.506 0 6.424 4.618 6.424 6.023 0 .502.803 1.104 1.807 1.104 1.506.101 1.506.201-.1.602-1.807.502-1.807.502 0 1.908 1.204 1.104 1.405 1.706.602 2.007-.703.301-.904 1.205-.602 2.108.501 1.205.301 1.405-.603.803-1.004-.602-1.104-.201-.602 1.506.401 1.405.301 2.007-.301 1.606-.502-.301-1.205-1.907-1.405-3.614-.302-2.208-.101-3.011 1.104-3.111 1.003 0 .803-.402-.603-.904-1.304-.502-2.308-1.706-2.308-2.509 0-.904-.402-1.406-.904-1.104-.401.301-.602-.603-.301-2.008.402-2.309.201-2.509-1.606-2.008-1.405.502-2.409.101-3.011-1.003-.703-1.305-2.509-1.807-7.127-1.907-3.413-.201-6.825-.803-7.628-1.506-1.406-1.104-1.205-1.506 1.204-3.112 3.614-2.308 3.915-2.308 5.621.101zm-35.433 1.003c0 .502-.502 1.004-1.104 1.004-.502 0-.703-.502-.402-1.004.302-.602.803-1.003 1.105-1.003.2 0 .401.401.401 1.003zm2.008 5.421c0 .502-.703.301-1.506-.402-.803-.702-1.205-1.706-.903-2.208.702-1.004 2.409.903 2.409 2.61zm25.194-.301c-2.911 2.71-4.416 2.409-2.509-.502.903-1.506 2.108-2.309 3.011-1.907 1.205.501 1.205.903-.502 2.409zm88.031 10.64c8.833 4.617 17.465 10.238 18.068 11.543.2.502 1.003.803 1.706.803.703 0 1.506.703 1.907 1.506.301.803 1.205 1.505 2.108 1.505.803 0 1.506.502 1.506 1.004 0 .602.301.903.803.803.401-.201 1.907.803 3.413 2.108 1.405 1.305 2.81 2.108 3.011 2.007.1-.2 1.706.603 3.513 1.908 1.707 1.204 3.614 2.208 4.216 2.208.602 0 1.104.401 1.104.803 0 .401 1.405 1.606 3.011 2.509 1.707 1.004 3.012 1.606 3.012 1.205 0-.301 1.606.1 3.513.903 2.007.904 3.915 1.606 4.316 1.707.402.1 3.112 1.305 6.123 2.609 3.011 1.305 6.725 2.711 8.331 3.012 4.517.903 3.212 1.907-2.81 2.208-8.934.301-22.886-4.316-44.568-14.956-9.636-4.718-11.342-5.722-17.967-10.54-5.621-4.216-13.149-8.732-13.149-7.929 0 .301-.904 0-1.908-.603-1.104-.502-2.308-2.409-2.609-4.216-.402-1.806-1.506-4.416-2.409-5.721l-1.506-2.409 4.216.703c2.308.301 8.231 2.71 13.049 5.32zm-95.659-3.714c-.302.501-1.205 1.003-1.807 1.003-.703 0-.602-.401.301-1.003 1.907-1.205 2.309-1.205 1.506 0zm-4.718 4.015c-1.405 2.208-2.409 1.907-1.506-.502.402-.803 1.104-1.506 1.707-1.506.602 0 .602.703-.201 2.008zm-5.822 5.922c0 2.108-.602 3.212-2.008 3.613-1.104.302-2.107 1.305-2.107 2.108-.101.803-.302 1.807-.402 2.409-.1.502-.301 1.305-.401 1.707-.101.502-.603.1-1.205-.703-.803-1.204-1.004-.903-.602 1.205.301 2.308-.101 2.911-2.61 3.814-1.706.502-3.212.903-3.312.703-.703-.603 1.907-8.733 2.81-8.733.502 0 .602-.502.201-1.205-.502-.702-.301-.803.602-.301 1.205.803 7.026-4.717 7.026-6.625 0-.502.502-.903 1.004-.903.603 0 1.004 1.305 1.004 2.911zm62.033 13.551c2.61 2.81 11.945 9.636 13.45 9.636.703 0 2.008.502 2.811 1.104 1.104.803.602.904-2.108.602-2.108-.301-5.019-1.706-6.524-3.111-8.633-7.529-10.44-8.833-10.44-7.328 0 1.506 10.741 10.339 13.953 11.443 4.818 1.707 12.848 5.722 15.659 7.93 1.806 1.405 5.018 2.81 7.227 3.112 2.108.301 4.216 1.204 4.617 2.007.402.703 1.205 1.305 1.706 1.305.502 0 2.108 1.104 3.614 2.509l2.71 2.51h-4.416c-4.417 0-14.154-2.811-14.756-4.316-.201-.402-.903-.703-1.606-.703-.702 0-2.61-1.104-4.216-2.509-1.606-1.406-3.212-2.51-3.613-2.51-.502 0-.803-.502-.803-1.104 0-.602 2.108.201 4.818 1.706 5.42 3.112 13.952 7.428 14.755 7.428.301 0 .502-.401.502-.903s-1.505-1.506-3.413-2.108c-1.907-.602-4.617-2.007-5.922-3.011-1.305-1.104-4.216-2.51-6.324-3.313-2.108-.803-4.818-1.806-5.922-2.208-1.606-.502-1.706-.502-.502.402 4.919 3.613-9.134-1.807-15.96-6.023-8.13-5.119-7.428-4.517-6.625-5.922.502-.803 1.606-.402 3.413 1.305 3.313 3.212 12.447 8.732 14.254 8.732 1.305 0-2.008-2.108-8.633-5.621-5.52-2.81-8.03-8.532-6.123-13.751 1.908-5.12 2.008-5.32 2.409-2.209.201 1.606 1.105 3.815 2.008 4.919zm-33.024-1.506c7.127 4.818 7.829 7.428 3.614 13.551-1.305 2.008-2.209 3.614-1.908 3.614.301 0-1.305 1.606-3.613 3.513-4.718 3.914-6.725 3.914-15.559 0-6.625-2.911-8.933-5.621-9.034-10.841-.301-6.926 3.012-11.644 9.536-13.651 5.722-1.707 10.339-.703 16.964 3.814zm-28.407 4.417c-.301 1.204-.602 3.212-.602 4.416 0 2.008-.301 2.108-3.112 1.104-1.606-.602-4.918-.702-7.126-.401-3.815.602-4.016.502-2.711-1.104 1.205-1.506 1.205-1.606-.401-1.004-1.004.402-2.208.703-2.71.703-.402 0-.603 1.003-.201 2.208.401 1.606.201 2.007-1.004 1.606-.803-.402-2.108-.201-2.911.301-1.104.703-1.004.904.402.904 1.305 0 .803 1.003-2.309 4.115-2.208 2.208-4.718 5.019-5.521 6.223-.803 1.205-1.505 1.606-1.505.904 0-.703 1.606-2.911 3.513-4.919 1.907-2.007 3.212-4.015 2.911-4.416-.301-.502 0-.904.502-.904.602 0 1.003-.502.903-1.204-.201-.603.602-1.606 1.807-2.209 1.104-.602 1.907-1.606 1.706-2.208-.602-1.706 9.837-5.621 16.562-6.223 2.108-.201 2.309.1 1.807 2.108zm45.571 15.257c0 4.417-4.015 8.432-12.547 12.547-5.621 2.71-5.822 2.911-2.71 3.011 1.707 0 3.212.302 3.212.803 0 1.205-3.011 5.22-4.015 5.22-1.104 0-3.112-7.026-2.309-8.331.302-.502-.501-2.209-1.706-3.915l-2.208-2.911 2.409-2.309c5.922-5.922 9.837-10.941 9.837-12.547 0-1.003.301-2.007.602-2.409 1.004-1.003 9.435 8.633 9.435 10.841zm7.127 2.108c1.707 2.108-.803 4.718-3.814 4.015-2.008-.602-2.208-.402-1.707 2.309.502 2.308.201 3.212-1.505 4.115-4.417 2.309-5.521-1.204-1.606-5.42 1.405-1.506 2.71-3.714 3.111-5.019.603-2.61 3.413-2.61 5.521 0zm5.019 3.413c2.811 1.606 2.309 2.911-1.506 4.517-5.52 2.308-9.034.1-4.115-2.51 1.405-.702 2.509-1.706 2.509-2.208 0-1.104.703-1.004 3.112.201zm7.026 3.011c1.606 0 .904 3.614-1.003 5.42-1.406 1.305-2.811 1.606-5.019 1.105-1.707-.402-3.112-.904-3.112-1.305 0-1.406 5.621-6.023 6.826-5.621.803.2 1.807.401 2.308.401zm8.231 4.015c1.406 1.305-1.104 4.718-3.914 5.42-3.915 1.004-5.019-.602-2.811-4.316 1.807-3.011 4.216-3.413 6.725-1.104zm-32.421.703c0 2.007-2.811 5.32-4.718 5.32-2.309 0-1.606-5.019 1.004-6.023 3.212-1.305 3.714-1.204 3.714.703zm13.049 1.305c0 1.104-1.205 2.609-3.012 3.513-3.914 2.007-4.015 2.007-4.015-1.305 0-3.614.602-4.216 4.216-4.216 2.108 0 2.811.502 2.811 2.008zm36.537 1.003c1.104 1.105.1 3.915-1.707 4.618-.702.201-2.609 0-4.115-.502-2.61-1.004-2.61-1.104-1.004-3.614 1.606-2.509 4.417-2.71 6.826-.502zm8.733.603c1.505 1.806.401 6.123-1.908 7.327-2.409 1.305-6.926-2.308-5.32-4.216.603-.803.803-1.706.502-2.007-.401-.301-.401-1.305-.1-2.008.703-1.706 5.119-1.104 6.826.904zm-54.304.602c0 1.305-.402 2.811-.803 3.413-1.004 1.606-4.818 3.413-5.621 2.71-1.205-1.205-.603-3.212 1.405-4.316 1.606-.904 1.807-.803 1.405.502-.401.803-.1 1.505.602 1.505.904 0 1.104-1.003.703-3.011-.502-2.208-.301-3.011.803-3.011.903 0 1.506.903 1.506 2.208zm71.368 1.004c1.305 2.007 1.104 4.617-.703 7.327-1.205 1.907-2.509 2.51-5.119 2.51-3.513 0-3.513 0-1.907-2.51 1.806-2.71 2.108-7.127.602-8.03-.502-.301-1.004-1.004-1.004-1.506 0-1.204 7.227.703 8.131 2.209zm-8.733.2c1.807 2.811 1.204 5.22-1.707 7.83-1.104 1.004-1.505 1.807-.903 1.807.602 0 2.309 1.204 3.714 2.609l2.509 2.51-2.208 4.015c-2.509 4.417-3.613 4.818-6.123 1.807-1.606-1.807-1.706-2.309-.401-3.714 2.509-3.012 2.609-4.919.301-7.127-1.205-1.204-2.811-2.108-3.614-2.108-.702 0-.1 1.104 1.405 2.51 2.209 2.007 2.51 2.81 1.606 4.517-1.806 3.412-4.918 4.416-7.126 2.409-1.707-1.506-1.807-1.908-.402-3.413.803-.904 1.506-2.409 1.506-3.313 0-2.208 5.32-7.327 7.327-6.926 1.105.201 1.707-.301 1.707-1.305 0-1.104-.502-1.505-1.405-1.204-.804.301-1.607-.201-1.908-1.405-.803-2.911 3.714-2.51 5.722.501zm17.265.302c-.301.803-.603 2.108-.603 2.911 0 1.706-3.011.803-4.717-1.406-2.209-2.81-1.506-3.814 2.308-3.413 2.61.302 3.413.803 3.012 1.908zm-100.98 2.308c3.614 1.807 3.614 1.907 4.819 11.744 1.304 10.038 3.814 18.972 6.123 21.782.702.803 1.104 2.008.903 2.51-.703 2.208-9.636 12.045-13.852 15.257-5.32 4.216-18.068 11.242-18.068 10.138 0-.502 1.707-3.312 3.814-6.324 2.61-3.714 4.417-5.32 5.822-5.219 1.004.1 1.305 0 .703-.302-1.807-.803-1.606-2.409.201-2.409.903 0 1.806-.702 2.208-1.606.301-.803 1.204-1.305 1.907-1.003.803.301 1.405-.101 1.405-.904 0-.702.402-1.706 1.004-2.007.602-.402.703.1.402 1.204-.502 1.506-.402 1.506.401.301.602-.803.803-1.806.602-2.208-.301-.502.302-1.104 1.305-1.506 2.911-1.003 7.629-6.123 7.127-7.528-.301-.703-.602-1.606-.703-2.007-.1-.402-1.003-2.811-2.107-5.22-1.305-3.011-1.807-6.424-1.707-10.439.101-3.313-.1-5.822-.502-5.621-.401.301-.602-.101-.301-.803.904-2.309-7.528-4.517-15.759-4.116-13.451.703-19.975 4.417-47.077 27.102-10.439 8.632-25.596 18.57-34.228 22.384-4.015 1.807-8.332 3.714-9.536 4.216-1.104.602-2.71.803-3.513.502-.703-.301.401-1.205 2.71-2.108 7.93-3.313 20.577-9.937 20.577-10.74 0-.502.602-.904 1.305-.904 2.008 0 19.172-12.145 25.998-18.369 3.513-3.212 7.227-6.625 8.331-7.629 1.104-.903 4.918-4.215 8.632-7.327 3.614-3.112 7.629-6.223 9.034-6.725 1.305-.603 3.112-1.506 3.915-2.008 3.915-2.208 9.837-4.416 12.848-4.617 1.807-.201 3.513-.502 3.815-.803.702-.703 7.227 1.204 11.442 3.312zm39.348-1.505c-.803 4.617-6.223 5.922-8.13 1.907-1.606-3.614-.603-4.618 4.216-4.216 3.613.301 4.215.602 3.914 2.309zm13.852 2.409c0 2.609-3.814 7.126-6.022 7.126-1.606 0-1.707-.602-1.205-4.316.602-4.818 2.811-7.026 5.42-5.621 1.004.502 1.807 1.807 1.807 2.811zm57.416-.402c-.101 1.606-.301 4.517-.402 6.224-.1 1.806-.502 3.312-.803 3.312-.401 0-1.706 3.513-3.011 7.729-2.71 8.833-3.413 9.937-7.227 10.841-3.313.803-3.714-.904-1.405-5.32.702-1.506 2.108-6.826 3.011-11.744.903-5.019 1.907-10.339 2.208-11.845.502-2.509.904-2.81 4.216-2.509 3.413.301 3.714.502 3.413 3.312zm6.825-.502c0-.903.302-1.003 1.305-.1.803.602 1.807.703 2.209.301.502-.401.401-.1 0 .703-.603 1.104-.402 1.305.903.803.903-.402 1.506-.301 1.305.1-.301.402 1.104 1.706 2.911 2.911 1.907 1.205 3.413 1.807 3.413 1.305s-1.205-1.606-2.71-2.409c-1.607-.803-2.309-1.506-1.807-1.506 2.208 0 11.242 6.525 10.339 7.428-.302.301-1.105-.1-1.807-1.004-.703-.803-1.807-1.505-2.409-1.505-.603 0 1.204 2.208 3.914 4.818 2.811 2.61 5.923 5.822 6.826 7.227 1.807 2.61 2.309 9.034.703 9.034-.502 0-1.004-.402-1.004-1.004 0-.502-1.907-2.208-4.216-3.814-2.409-1.606-6.424-4.919-8.933-7.328-2.51-2.409-6.726-5.42-9.335-6.725-5.22-2.509-5.622-2.61-5.622-1.305 0 .402 2.008 1.606 4.417 2.509 2.409.904 6.223 3.413 8.432 5.521 2.308 2.208 5.822 5.22 7.929 6.725 7.428 5.421 9.637 8.432 9.436 12.849-.101 2.308-.201 4.818-.402 5.621-.602 3.011-4.015 7.026-5.922 7.026-1.104 0-6.123-3.513-11.242-7.93-9.335-8.03-15.759-12.145-18.871-12.145-1.807 0-2.409-1.104-1.204-2.208.903-1.004 7.628 1.304 9.836 3.412 1.105 1.104 3.313 2.61 4.819 3.413 1.405.703 5.721 4.316 9.335 7.93 6.223 6.023 6.926 6.424 8.13 4.818 1.807-2.409 1.707-2.61-.703-5.42-1.204-1.305-2.609-3.112-3.312-3.915-2.208-3.011-14.253-12.748-17.666-14.454-2.108-1.004-4.517-1.406-6.224-1.104-1.505.401-2.81.501-2.81.301 0-.201.702-2.108 1.405-4.317 1.506-4.215 2.61-4.617 7.629-2.208 3.011 1.405 14.052 10.038 13.551 10.54-.201.201-2.811-1.506-5.822-3.714-2.911-2.309-6.123-4.116-7.027-4.116-.903 0-1.907-.502-2.208-1.003-.301-.603-1.606-1.004-2.811-1.004-1.405 0 .201 1.204 4.317 3.312 4.617 2.309 9.234 5.922 15.859 12.547 5.22 5.12 9.737 9.135 10.038 8.733.401-.401-2.509-3.513-6.324-7.026-3.914-3.614-6.424-6.424-5.721-6.525h2.007c.402 0 .703.402.703.904s.401 1.305.903 1.806c.603.502.603.201.101-.702-.502-.904-.502-1.205.1-.703.502.502.903 1.305.903 1.807s.302.803.603.602c1.104-.401 4.918 3.513 4.918 5.019 0 .703.502 1.305 1.004 1.305.602 0 1.004-.301 1.004-.703 0-1.706-4.618-7.227-7.93-9.435-1.907-1.305-4.216-3.112-5.119-3.915-4.718-4.617-10.941-8.933-14.053-9.736-3.011-.803-3.413-1.305-3.614-4.618-.2-2.911.101-3.714 1.406-3.714 3.212 0 6.223 1.205 5.52 2.309-.301.602-.1.703.603.301 1.305-.903 9.636 4.919 9.636 6.725 0 .703.602 1.305 1.305 1.305.602.101 1.706.201 2.308.301.502 0 .803.502.502.904-.301.502.803 2.208 2.409 3.714 1.707 1.606 3.012 2.509 3.012 2.007 0-.502.602 0 1.405 1.104.803 1.004 1.807 1.606 2.208 1.205 2.008-2.108-17.164-18.168-24.693-20.678-2.91-1.003-4.015-1.907-4.015-3.412 0-2.008.101-2.108 2.008-.302 1.305 1.205 2.007 1.406 2.007.502zm-104.392 1.406c0 2.609-3.513 7.628-5.42 7.628-2.108 0-1.706-5.219.602-7.528 3.012-3.011 4.818-3.011 4.818-.1zm16.763-.904c.302.904-.2 2.409-1.204 3.513-1.907 2.108-5.521 2.309-5.521.301 0-.702-.502-1.304-1.104-1.304-2.008 0-.301-2.409 2.208-3.112 3.915-1.104 4.919-1.004 5.621.602zm14.655.703c.603 2.208-1.505 6.825-3.111 6.825-1.807 0-5.22-1.304-5.22-2.007 0-1.205 5.421-6.826 6.625-6.926.703-.1 1.405.903 1.706 2.108zm23.589 1.706c2.61 2.208 2.811 4.818.602 7.93-1.907 2.71-3.613 2.811-5.822.301-1.706-1.807-1.706-2.208-.2-4.316.903-1.205 1.606-3.011 1.606-4.015 0-2.309 1.104-2.309 3.814.1zm32.221.602c.201.201-.201 2.711-.903 5.521l-1.205 5.119-3.011-3.011c-2.811-2.911-2.911-3.212-1.606-6.123 1.104-2.61 1.706-3.011 3.814-2.509 1.405.401 2.71.803 2.911 1.003zm-79.699.502c.903 1.506-.301 4.718-2.108 5.421-1.807.702-5.421-1.406-5.421-3.212 0-2.209 6.324-4.116 7.529-2.209zm12.848.803c1.606.703 1.606.904.201 3.012-1.707 2.308-4.919 2.911-6.023 1.104-.401-.502.101-1.907 1.104-3.011 1.907-2.108 2.008-2.108 4.718-1.105zm-47.478.603c0 .2-1.907 1.505-4.316 2.911-2.309 1.405-8.533 5.821-13.752 9.836-27.704 21.28-39.95 30.114-45.069 32.523-6.424 3.111-22.184 8.532-24.593 8.532-2.71 0-1.806-1.707 1.305-2.309 4.116-.903 11.644-4.517 18.068-8.733 2.911-1.907 7.428-4.918 10.038-6.524 4.115-2.61 10.64-7.529 14.554-11.042 7.428-6.725 13.551-11.543 14.455-11.543.702 0 1.204-.402 1.204-.803 0-.803 15.057-10.941 15.659-10.54.201.101 1.706-.301 3.312-1.003 2.711-1.105 9.135-2.008 9.135-1.305zm40.15 3.513c1.406 2.81-2.91 6.223-6.725 5.219-3.613-1.003-4.015-2.71-.803-3.513 1.405-.401 2.811-1.305 3.112-2.108.803-2.108 3.112-1.907 4.416.402zm-213.3.903c-.302.301-1.105 0-1.807-.702-.904-1.004-.803-1.105.602-.502 1.004.301 1.506.903 1.205 1.204zm200.954-.1c.703 1.807-4.216 6.725-5.822 5.822-1.204-.803-1.204-4.216.101-5.019.602-.301 1.003-.101 1.003.401 0 .603.502 1.105 1.105 1.105.602 0 .903-.603.602-1.406-.301-.803-.301-1.706 0-2.007 1.104-1.104 2.409-.603 3.011 1.104zm24.291-.803c1.004.702 1.104 1.305.201 3.011-1.204 2.108-5.119 2.811-8.532 1.506-2.309-.904-2.007-2.409.502-2.409 1.104 0 2.71-.703 3.513-1.506 1.807-1.706 2.409-1.807 4.316-.602zm8.131 5.922c-1.807 3.112-6.023 4.116-7.83 1.907-1.003-1.104-.903-1.706.302-2.71.803-.703 1.505-1.807 1.505-2.61 0-.702.803-1.706 1.807-2.308 1.305-.703 2.208-.502 3.714 1.003 1.807 1.807 1.907 2.108.502 4.718zm7.327-4.417c2.008 1.607 2.209 5.421.302 7.93-1.105 1.406-2.209 1.707-5.019 1.205l-3.514-.703 2.209-2.911c1.807-2.509 1.907-3.312.903-4.918-1.104-1.807-1.004-2.008 1.004-2.008 1.305 0 3.112.703 4.115 1.405zm39.649.803c2.71 3.012 4.417 7.629 3.714 9.938-.803 2.509-2.81 1.305-2.208-1.205.602-2.108-.301-2.509-2.008-.803-.903.904-1.806.803-3.814-.502-2.108-1.405-2.409-2.007-1.506-3.714.603-1.104.803-2.91.502-3.914-.903-2.811 2.51-2.61 5.32.2zm-30.916 1.807c0 .402-.903 1.004-2.108 1.305-1.204.301-1.907 1.104-1.706 1.707.401 1.304 2.409 1.204 2.108-.101-.201-.502.401-.903 1.204-.903 2.008 0 1.907 1.204-.602 4.416-1.104 1.406-3.112 2.61-4.316 2.61-3.112 0-3.915-1.104-2.008-2.409.904-.702 1.606-2.71 1.707-4.617.2-3.714 2.308-5.521 4.517-3.815.602.603 1.204 1.406 1.204 1.807zm-45.27 5.32c-.702 1.606-2.61 3.112-4.617 3.815-3.814 1.204-3.814 1.304-4.718-1.908-.602-1.907-.201-2.509 2.811-3.714 1.907-.803 3.814-2.007 4.115-2.609.502-.803 1.205-.703 2.208.301 1.105 1.204 1.205 2.007.201 4.115zm12.648-3.814c1.907 1.506 1.907 1.506-.201 3.613-1.305 1.406-3.513 2.209-6.023 2.309-3.212.101-3.814-.201-4.115-2.208-.301-1.807.1-2.208 2.108-2.208 1.405 0 3.011-.703 3.714-1.506 1.505-1.807 2.007-1.807 4.517 0zm41.054 5.32c-1.305 3.714-3.714 4.818-6.926 3.413-2.61-1.205-2.61-1.406-1.104-3.112.903-1.004 1.606-2.509 1.606-3.413 0-.903.803-2.007 1.706-2.61 2.71-1.505 5.922 2.309 4.718 5.722zm-171.243-2.51c-3.112 3.213-8.833 4.919-8.833 2.711 0-.603.301-.904.803-.803 1.505.301 6.223-1.506 7.327-2.811.703-.803 1.405-1.204 1.707-1.004.2.301-.201 1.104-1.004 1.907zm137.516-.1c2.71 2.71-.201 7.83-4.416 7.83-3.112 0-3.614-3.815-.904-6.726 2.309-2.61 3.614-2.81 5.32-1.104zm98.671.502c1.305 1.606 1.204 1.706-.301.401-1.707-1.304-2.209-2.107-1.406-2.107.201 0 1.004.803 1.707 1.706zm-58.52.502c1.907 1.907 1.405 3.915-1.506 7.026-3.613 3.815-1.505 3.614 2.409-.2 2.811-2.811 3.112-2.911 4.517-1.205 2.108 2.409 2.811 7.026 1.305 8.231-.903.803-2.308.602-4.617-.402-1.907-.803-4.216-1.706-5.119-2.007-1.004-.301-1.807-1.506-1.807-2.61 0-1.104-.402-2.007-1.004-2.007s-.602-.804-.1-2.309c.502-1.205 1.204-3.011 1.505-4.015.603-2.008 2.711-2.209 4.417-.502zm-31.92 4.718c-.1 3.212-2.509 5.018-6.324 4.818-2.208-.101-3.714-.703-3.714-1.506 0-.602.603-1.204 1.406-1.204.803 0 1.706-.603 1.907-1.305.401-.904.803-.803 1.606.301.502.803 1.405 1.104 1.807.602.401-.502.2-1.104-.402-1.305-.702-.301-1.305-1.104-1.305-1.807 0-.702.603-1.505 1.305-1.806 1.606-.603 3.714 1.204 3.714 3.212zm42.66-2.911c.301.502 1.506 1.003 2.61 1.003 1.205 0 2.309 1.004 2.911 2.61 1.305 3.313 1.305 5.722 0 4.919-.502-.301-1.004-.201-1.004.301 0 .602-1.305 1.505-3.011 2.007-2.911 1.105-2.911 1.004-2.811-2.509.101-2.61-.502-4.116-1.907-5.32-1.907-1.506-1.907-1.706-.401-2.811 2.108-1.405 2.81-1.405 3.613-.2zm-197.24 2.509c0 .201-.904.301-1.908.201-1.104 0-1.806-.502-1.505-.904.401-.602 3.413 0 3.413.703zm128.984 1.606c0 1.807-1.004 2.911-3.814 4.316-4.216 2.008-4.216 2.008-5.12-1.104-.602-1.907-.1-2.509 3.112-4.216 4.718-2.308 5.822-2.108 5.822 1.004zm33.225-1.204c1.204 1.606.803 4.115-.603 4.115-.501 0-1.204-.903-1.505-2.007-.301-1.105-1.104-2.008-1.606-2.008-1.405 0-1.104 2.811.401 3.312.603.302.201.603-1.003.603-1.205.1-2.51.602-2.911 1.204-.502.904.301 1.004 2.81.502 4.617-.803 6.725 1.205 4.919 5.019-1.004 2.309-3.112 2.509-3.112.301 0-.602.502-.703 1.004-.401.602.301 1.003-.101 1.003-.904 0-.903-.702-1.606-1.505-1.606-.803 0-1.506.904-1.506 2.008 0 3.212-1.807 2.308-3.513-1.707-1.004-2.409-1.205-3.914-.502-4.115.502-.201 1.004-1.707 1.004-3.313 0-2.509.301-2.911 2.81-2.71 1.506.101 3.212.904 3.815 1.707zm62.936-.302c8.03 4.216 25.195 21.481 21.18 21.481-.803 0-2.309-.803-3.212-1.706-1.606-1.606-1.606-1.606.301-.904 2.007.703 2.007.703 0-1.104-1.104-1.004-3.614-3.112-5.521-4.718-1.907-1.606-3.513-3.212-3.513-3.513 0-.301-.904-.502-2.108-.301-1.104.101-3.714-1.204-6.023-3.212-2.208-1.907-5.119-3.613-6.424-3.814-1.305-.101-2.509-.803-2.71-1.506-.703-1.907 3.814-.301 8.733 3.212 6.223 4.417 7.528 5.119 6.524 3.614-.401-.703-3.513-3.112-6.825-5.22-6.123-3.915-6.324-5.32-.402-2.309zm-87.227 2.309c0 3.112-2.309 4.617-5.923 3.714-2.108-.502-2.509-1.004-1.606-1.907.603-.602 1.104-1.907 1.104-3.011 0-1.506.603-1.807 3.212-1.506 2.711.201 3.313.703 3.213 2.71zm-144.142-.602c.402-.703 1.305-.904 2.108-.402 1.004.703.402 1.305-2.308 2.61-2.008 1.004-3.614 2.208-3.614 2.71 0 .603-.602.502-1.506-.2-.803-.703-1.505-1.707-1.505-2.309 0-.602.301-.703.702-.402.301.402 1.305-.301 2.108-1.405 1.205-1.706 1.606-1.807 2.309-.803.703 1.104 1.104 1.104 1.706.201zm177.768.1c.702.803 1.104 2.71.903 4.316-.201 2.309-.803 2.911-3.413 3.112-2.409.201-3.312-.201-4.115-2.007-2.309-5.019 3.212-9.536 6.625-5.421zm7.528 2.209c1.506 1.405 1.405 1.806-.903 4.617-1.406 1.606-2.51 3.814-2.51 4.918 0 1.004-.201 1.908-.401 1.908-.201 0-1.104.301-2.008.602-1.204.502-1.405-.101-.903-3.313.702-4.918 2.911-10.338 4.216-10.338.502 0 1.706.702 2.509 1.606zm-195.735 1.706c-.301.703.1.401.903-.602 1.305-1.606 1.506-1.606 2.108-.101 1.105 2.911.603 5.32-1.305 6.424-1.405.703-2.007.703-2.308-.1-.201-.703-.904-.502-1.707.502-1.204 1.405-1.204 1.606.302 1.004 1.907-.703 1.907-.402.702 2.911-.602 1.405-1.907 2.81-2.911 3.111-1.104.402-2.208 1.606-2.509 2.61-.301 1.104-.904 2.008-1.405 2.008-1.004 0-1.305-1.305-1.305-6.826 0-1.907-.703-3.513-1.506-3.814-.803-.402-1.506-1.305-1.506-2.108 0-1.104-.903-1.405-3.312-1.104-2.71.301-3.313 0-3.413-1.506-.201-1.506.301-1.706 2.71-1.205 1.606.302 3.112.201 3.513-.401.402-.803 1.205-.803 2.61-.1 1.807 1.003 2.911-.302 1.205-1.305-.502-.201-.301-.301.301-.101.602.101 2.61-.1 4.517-.502 3.915-.903 5.219-.501 4.316 1.205zm158.596-1.706c1.003.401 1.606 1.806 1.606 3.814 0 3.814-3.413 6.324-6.926 5.119-2.911-.903-2.711-3.915.401-5.32 1.405-.602 2.51-1.807 2.51-2.71 0-1.706.2-1.807 2.409-.903zm-190.014 1.405c.602 0 .803.401.502.903-.301.502 1.004 1.104 2.911 1.305 1.907.201 3.513.1 3.513-.301 0-.402.903-.502 2.008-.201 2.81.803 1.907 2.911-1.105 2.51-1.304-.101-4.416-.402-6.926-.502-3.914-.201-4.516-.502-4.617-2.51-.1-1.606.301-2.108 1.305-1.806.803.301 1.907.602 2.409.602zm179.374 2.208c1.305 1.305 1.606 5.42.502 6.123-.502.201-2.008.703-3.514 1.104-2.208.502-2.911.101-4.617-2.61l-2.108-3.212 3.212-1.204c4.316-1.606 5.119-1.606 6.525-.201zm22.283 1.707c.904 1.907.703 2.71-.602 4.215-.903 1.104-2.108 1.908-2.61 1.908-1.405 0-4.617-3.313-4.818-5.019-.502-3.112.101-3.614 3.413-3.614 2.71.1 3.814.703 4.617 2.51zm-41.255 2.71c-1.806 1.907-5.922 5.42-8.933 7.628-3.011 2.309-7.227 5.421-9.235 7.027-6.725 5.119-29.912 15.859-29.912 13.751 0-.502.502-.903 1.004-.903.602 0 1.003-.502 1.003-1.205 0-2.91 5.521-7.628 13.752-11.844 4.818-2.509 9.034-4.818 9.134-5.32.201-.402.803-.502 1.305-.1.502.301.904.1.904-.402s1.204-1.405 2.81-2.108c1.506-.702 5.119-2.81 8.03-4.818 2.911-1.907 5.722-3.312 6.224-3.112 1.204.402-12.648 10.54-19.072 13.953-2.509 1.305-4.617 2.71-4.818 3.111-.201.502-1.205.804-2.108.804-1.004 0-2.61.903-3.613 2.007-1.004 1.104-2.209 2.008-2.811 2.008-1.205 0-6.926 4.115-6.424 4.717.602.502 11.142-5.621 11.543-6.825.201-.502.904-.904 1.606-.904 1.104 0 16.663-8.733 17.667-9.937.301-.301 3.011-2.61 6.022-5.119 3.011-2.409 5.722-4.818 5.822-5.22.201-.502 1.104-.803 2.008-.803 1.104 0 .602 1.004-1.908 3.614zm74.48-1.606c2.208 1.204 4.216 2.71 4.617 3.513.302.803.904 1.305 1.305 1.004.402-.201 1.606.502 2.61 1.606 1.707 1.907 1.707 2.007-.201 1.405-1.706-.602-1.606-.402.402 1.305 2.509 2.308 3.312 5.32.803 3.212-.803-.602-2.309-1.004-3.313-.904-4.818.603-13.249-2.81-14.454-5.821-1.204-3.313-1.204-3.915.703-5.722 2.007-2.108 2.71-2.007 7.528.402zm-261.582 2.007c-1.104.301-3.714 1.405-5.722 2.309-2.108.903-4.617 1.706-5.721 1.706-1.405 0-1.807.502-1.405 2.008.702 2.509-1.305 2.61-2.61.201-1.104-2.108 1.204-4.116 4.115-3.614.904.1 1.907-.502 2.309-1.405.502-1.406.703-1.406 1.506-.201.702 1.004 1.003 1.104 1.003.201 0-.603.904-1.205 2.008-1.205s2.007-.401 2.007-.903 1.004-.602 2.309-.301c2.108.602 2.108.602.201 1.204zm244.92 2.008c0 2.71-.502 3.613-2.008 3.914-2.008.302-2.008.302-.201-1.706 1.104-1.204 1.606-2.61 1.205-3.212-1.004-1.606-3.012-.602-3.012 1.606 0 1.004-.803 2.008-1.706 2.208-1.204.201-1.807-.301-1.807-1.405 0-2.61 3.112-5.521 5.421-5.22 1.706.201 2.108 1.004 2.108 3.815zm-18.57 7.227c0 .502-2.209.803-4.818.803h-4.818l.1-4.316c0-2.309.502-4.517 1.004-4.919.903-.702 8.431 6.826 8.532 8.432zm-11.343-5.521c2.108 2.71.502 4.417-3.613 3.714-2.008-.401-4.417-1.104-5.421-1.606-1.706-.903-1.606-1.004.502-2.81 2.51-2.108 6.525-1.707 8.532.702zm20.176-.1c.201 1.204-.903 3.513-2.309 5.32-3.513 4.115-1.204 4.015 2.51-.101 1.606-1.706 3.212-3.011 3.413-2.71 1.104 1.104-.703 4.718-2.51 5.22-1.004.301-1.907 1.104-1.907 1.907 0 1.004.201 1.004 1.004-.201 1.104-1.807 2.308-.803 1.405 1.405-1.405 3.714-4.918 1.506-8.331-5.32l-2.209-4.316 2.209-1.907c2.911-2.509 6.323-2.108 6.725.703zm-194.731 1.104c-1.004.201-1.807 1.004-1.807 1.606 0 1.506-5.42 6.725-7.026 6.725-.803 0-1.004.803-.703 2.108.401 1.506.201 1.907-.903 1.506-1.506-.602-5.722 2.81-6.525 5.219-.201.703-1.807 1.406-3.413 1.506-2.208.201-2.911.703-2.71 2.008.201 1.003-.401 1.706-1.305 1.706-.903 0-1.405-.402-1.104-.903 1.205-1.908-1.907-3.012-3.915-1.406-2.007 1.506-2.007 1.506.201 1.004 1.506-.301 2.008-.1 1.606.903-.301.803-1.305 1.406-2.208 1.406-1.004 0-2.61.702-3.714 1.505-2.911 2.209-3.313 1.807-1.506-2.007.904-2.008 2.61-3.814 3.815-4.116 1.907-.501 2.107-.903 1.204-2.509-.803-1.606-.602-1.907 1.606-1.907 1.506 0 2.409-.402 2.008-1.004-.302-.602 0-1.706.803-2.409 1.104-1.104 1.706-1.205 2.71-.301 1.004 1.004 1.004.803.1-1.104-1.204-2.209-.401-2.71 4.618-2.51.702.101 1.003-.401.702-.903-.401-.602.201-.703 1.707-.301 2.107.702 2.208.602 1.104-.703s-.803-1.706 1.505-2.309c1.606-.501 3.212-.702 3.614-.702.401.1 1.807-.301 3.011-.803 1.205-.602.402.502-1.807 2.409-2.208 2.007-3.412 3.613-2.71 3.613.603 0 1.205-.401 1.205-.803 0-1.304 5.621-4.215 6.625-3.412.502.401.602.301.2-.201-1.104-1.305 1.105-3.614 3.112-3.513 1.305.1 1.305.2-.1.602zm-57.014 2.71c0 .803-.703 1.706-1.606 2.008-1.004.401-1.305 1.305-.904 2.609.502 1.406.201 2.008-.903 2.008-.904 0-1.606-.301-1.606-.803 0-.402-.301-1.706-.602-3.011-.502-1.807-.201-2.209 1.505-2.209 1.205 0 1.907-.502 1.606-1.003-.301-.603.101-1.004.904-1.004.903 0 1.606.602 1.606 1.405zm62.635 4.919c-.803.401-1.405 1.304-1.405 2.007 0 .703.401.602 1.003-.301.502-.803 1.205-1.104 1.606-.703.904.904-1.505 3.714-3.212 3.714-.702 0-1.606.502-1.907 1.004-.401.602-.1.903.703.803.803-.201 1.204.502 1.004 1.706-.101 1.105-.302 2.811-.402 3.815-.201 1.706-.401 1.706-1.907-.201-1.004-1.204-2.208-2.108-2.811-2.108-.602 0-1.104-.502-1.104-1.104 0-.602.904-.803 2.309-.402 1.405.402 1.807.302.903-.301-1.405-.903-.903-2.81 2.209-7.929 1.505-2.409 2.208-2.811 3.212-1.908.903.904.903 1.305-.201 1.908zm-68.457 4.918c-.201 1.004-1.506 2.911-2.811 4.316-1.305 1.406-1.907 2.51-1.405 2.51 1.104 0 .703 2.409-.703 4.115-.502.803-1.305 2.61-1.706 4.116-.502 2.107-.201 2.81 1.305 3.312 1.606.502 1.907 1.405 1.606 4.818-.101 2.309-.101 3.614.201 2.911.301-.602.903-.903 1.505-.602.703.502.904-.301.402-2.209-.502-2.107-.402-2.509.401-1.405.502.803.803 2.71.502 4.116-.401 1.706.101 3.412 1.506 5.119 1.204 1.606 1.606 2.911 1.004 3.312-1.406.904-1.205 2.51.301 2.008 2.007-.703 6.825 4.115 6.022 6.123-.502 1.305-.301 1.606 1.004 1.104.903-.301 1.706-.201 1.706.401 0 .603.402.804.904.402.502-.301 1.204-.1 1.606.402.301.602 1.305.702 2.208.401 1.205-.502 1.506-.201 1.004 1.004-.301.903-.1 1.907.502 2.308.703.502.803.201.301-.602-.602-1.004-.301-1.204 1.305-.803 1.204.402 2.208.201 2.208-.301s1.506-.602 3.313-.301c1.706.301 4.215.602 5.52.602 2.409 0 3.012 1.305.803 2.108-.702.301-1.907 0-2.509-.602-.803-.803-1.104-.602-1.205.903 0 1.104-.301 1.406-.602.602-.401-1.003-.803-1.003-2.108 0-1.204 1.004-1.405 1.004-.803 0 .502-.803.101-1.204-1.305-1.204-1.104 0-2.308.502-2.609 1.004-.402.602-1.305.702-2.309.1-.904-.502-2.811-.703-4.116-.502-1.907.402-2.208.201-1.204-1.004.903-1.104.803-1.505-.402-2.007-.903-.301-1.505 0-1.505.903 0 .803-.402 1.506-1.004 1.506-.502 0-1.004-.402-1.004-1.004 0-.502-.702-.702-1.505-.401-1.004.401-1.807-.301-2.51-2.008-.502-1.405-1.204-2.61-1.506-2.61-.401 0-.401.402 0 .904.302.502.101 1.204-.401 1.505-.502.402-1.907-.702-3.112-2.409-1.204-1.606-2.81-3.011-3.613-3.011-.803 0-1.406-.201-1.406-.401 0-.201-.301-1.205-.702-2.209-.502-1.305-.301-1.505.803-.903 1.104.602 1.104.502.201-.502-.603-.703-.904-2.008-.603-2.911.301-1.104.201-1.204-.401-.401-1.104 1.505-3.815 0-2.911-1.607.401-.602 1.606-1.104 2.71-1.104 1.104 0 1.807-.401 1.506-.903-.301-.502-1.406-.703-2.51-.402-1.104.302-2.108-.2-2.509-1.204-.402-1.104-.201-1.405.702-.903.603.401.101-.502-1.204-1.908-2.309-2.509-2.309-2.71-.502-2.71 1.606 0 1.706-.201.402-1.004-.803-.501-1.004-1.003-.402-1.003s1.004-1.104.903-2.51c-.2-1.405.201-2.509.803-2.509.803 0 .703-.402-.1-1.205-1.506-1.505-1.606-2.911-.1-2.61.602.201 1.405-.301 1.606-1.003.301-.803-.101-1.004-1.406-.502-1.706.602-1.706.502.101-1.506 1.004-1.204 1.606-2.81 1.305-3.714-1.004-2.409.301-1.807 1.305.703.903 2.007 1.003 1.907.702-1.004-.2-1.706.101-3.212.603-3.212.602 0 .702-.301.401-.602-.401-.402.301-2.008 1.506-3.614l2.007-2.911 1.205 2.309c.702 1.305 1.004 3.112.803 4.015zm49.987 1.807c0 .502-.501 1.004-1.104 1.004-.502 0-.702-.502-.401-1.004.301-.602.803-1.004 1.104-1.004.201 0 .401.402.401 1.004zm13.25 5.922c.803 1.004 2.209 2.108 2.911 2.409 1.205.402 1.104.703-.1 1.606-1.004.703-1.104 1.104-.301 1.104.803 0 1.104 1.004.702 2.811-.401 1.907-.1 3.212 1.004 4.115.903.703 1.305 1.707 1.004 2.209-.301.501 0 .903.702.903 1.607 0 5.923 4.015 5.923 5.42 0 .502-.603.201-1.305-.803-1.305-1.806-1.405-1.806-2.108-.1-.602 1.706-.803 1.706-3.011-.402-1.205-1.104-2.51-1.907-2.811-1.505-1.204 1.104-5.721-2.71-5.119-4.316.502-1.105.301-1.406-.602-.803-1.004.602-1.105.301-.201-1.305.803-1.506.803-2.209-.201-2.51-.903-.401-.903-.702.1-1.807.603-.702 1.205-1.806 1.205-2.409 0-.501-.502-.301-1.004.502-1.104 1.707-1.305.502-.401-3.914.702-3.614 1.405-3.815 3.613-1.205zm-67.754 7.829c-.301 1.004-.502.402-.502-1.204 0-1.706.201-2.409.502-1.807.201.703.201 2.108 0 3.011zm82.61 11.745c0 .803-.401 1.806-1.004 2.107-.502.302-1.004-.301-1.004-1.405 0-1.204.502-2.108 1.004-2.108.603 0 1.004.603 1.004 1.406zm11.041-.402c0 .502-.803 1.004-1.706 1.004-1.506 0-1.606-.201-.301-1.004 1.907-1.204 2.007-1.204 2.007 0z"/><path d="M240.986 46.614c-.301.502-.201 1.004.401 1.004.502 0 1.305-.502 1.606-1.004.302-.602.201-1.003-.401-1.003-.502 0-1.305.401-1.606 1.003zm81.205 33.426c1.004.702 5.219 3.312 9.335 5.922 4.015 2.71 7.729 4.818 8.231 4.818.401 0 2.61 1.205 4.718 2.811 2.107 1.505 5.319 3.412 6.926 4.216 1.706.803 4.818 2.609 7.026 3.914 2.208 1.405 6.223 3.614 9.034 4.919 2.71 1.305 5.721 3.011 6.625 3.814 1.405 1.305 6.926 2.811 14.454 4.015l3.011.502-2.509-1.405c-1.405-.803-4.617-1.707-7.227-2.108-2.61-.402-5.722-1.506-7.027-2.51-1.305-1.003-5.019-3.212-8.331-5.018-3.312-1.807-8.231-4.517-11.041-6.023-5.923-3.313-14.254-8.231-24.292-14.555-4.015-2.61-8.13-4.617-9.034-4.517-1.706 0-1.606.101.101 1.205zm-78.696 15.859c0 .603.904.904 2.008.603 1.004-.302 2.108 0 2.309.702.2.603.803.803 1.204.402.402-.402.402-1.104 0-1.707-.803-1.505-5.521-1.405-5.521 0zm-.301 2.61c-4.617 1.205-7.93 8.231-5.42 11.443.602.803 2.61 2.008 4.316 2.61 2.811 1.004 3.714.803 6.826-1.305 4.717-3.212 4.918-6.926.602-10.74-1.606-1.506-3.312-2.61-3.714-2.61-.502.1-1.606.301-2.61.602zm5.019 3.513c1.305 1.205 2.309 2.811 2.309 3.614 0 2.208-3.012 5.22-5.22 5.22-5.922 0-7.729-5.32-3.212-8.934 3.312-2.61 3.312-2.61 6.123.1z"/><path d="M242.793 103.93c-1.606 1.606-.502 3.914 1.706 3.914 2.309 0 3.212-1.305 2.409-3.413-.702-1.907-2.509-2.108-4.115-.501zm-9.837-3.112c-1.205 1.907-1.506 6.022-.502 6.022.502 0 1.004-.903 1.004-1.907 0-1.104.502-2.308 1.003-2.61 1.305-.803 1.305-2.509.101-2.509-.602 0-1.305.502-1.606 1.004zm21.581.903c0 .602.401 1.305 1.004 1.606.602.402.301 2.108-.703 4.618-1.506 4.015-1.305 5.721.602 4.517 1.405-.904 2.409-7.027 1.606-9.536-.602-2.108-2.509-2.911-2.509-1.205zm-17.064 11.945c0 1.305 2.81 4.216 4.015 4.216.502 0 1.204-.502 1.505-1.004.302-.602.101-1.004-.602-1.004-.702 0-2.108-.702-3.112-1.706-1.003-.903-1.806-1.104-1.806-.502zm-20.578-9.736c-1.003 1.505.101 2.308 2.008 1.505.903-.301 1.305-1.004 1.004-1.606-.803-1.305-2.209-1.305-3.012.101zm6.525.401c0 .803.502 1.506 1.004 1.506.602 0 1.003-.703 1.003-1.506s-.401-1.506-1.003-1.506c-.502 0-1.004.703-1.004 1.506zm42.158 10.038c0 2.81-.702 4.416-3.111 6.625-1.707 1.606-4.016 2.911-5.019 2.911-1.004 0-1.907.401-1.907 1.003 0 .502 1.204 1.004 2.609 1.004 4.015 0 9.436-5.922 9.436-10.339 0-2.007-.402-3.914-1.004-4.216-.602-.401-1.004.904-1.004 3.012zm-8.03 20.577c0 .502.502 1.004 1.004 1.004.602 0 1.004-.502 1.004-1.004 0-.602-.402-1.004-1.004-1.004-.502 0-1.004.402-1.004 1.004zm19.072-14.153c0 .602.502 1.305 1.003 1.606.603.301 1.004-.101 1.004-.904 0-.903-.401-1.606-1.004-1.606-.501 0-1.003.402-1.003.904zm-5.019 6.725c0 .903.502 1.405 1.204 1.205 1.807-.603 2.108-2.811.402-2.811-.903 0-1.606.703-1.606 1.606zm11.041-2.61c0 .502.502 1.004 1.004 1.004.602 0 1.004-.502 1.004-1.004 0-.602-.402-1.003-1.004-1.003-.502 0-1.004.401-1.004 1.003zm6.023 3.413c0 .903.703 1.606 1.606 1.606 1.706 0 1.405-2.208-.402-2.81-.702-.201-1.204.301-1.204 1.204zm7.026 3.614c0 .502.703 1.003 1.506 1.003s1.506-.501 1.506-1.003c0-.603-.703-1.004-1.506-1.004s-1.506.401-1.506 1.004zm-31.518.502c-.301.903 0 1.505.903 1.505.803 0 1.506-.702 1.506-1.505 0-.803-.401-1.506-.903-1.506s-1.105.703-1.506 1.506zm11.443.501c0 .502.903 1.004 2.007 1.004 1.105 0 2.008-.502 2.008-1.004 0-.602-.903-1.003-2.008-1.003-1.104 0-2.007.401-2.007 1.003zm37.139 1.004c0 .502.703 1.004 1.506 1.004s1.506-.502 1.506-1.004c0-.602-.703-1.004-1.506-1.004s-1.506.402-1.506 1.004zm9.034.402c0 1.806 1.707 2.911 3.012 2.108.803-.502.702-1.105-.101-2.108-1.505-1.807-2.911-1.807-2.911 0zm17.064 4.717c0 2.409 2.309 2.108 2.811-.401.201-1.004-.301-1.706-1.205-1.706-1.003 0-1.606.903-1.606 2.107zm-13.651 8.332c-.803 2.208.301 3.312 1.807 1.806.903-.903.903-1.505 0-2.409-.903-.903-1.305-.702-1.807.603zm7.629 5.119c0 .803.702 1.506 1.505 1.506.803 0 1.506-.703 1.506-1.506s-.703-1.506-1.506-1.506-1.505.703-1.505 1.506zm16.06-16.562c0 .502.502 1.004 1.004 1.004.602 0 1.004-.502 1.004-1.004 0-.603-.402-1.004-1.004-1.004-.502 0-1.004.401-1.004 1.004zm-94.354 42.76c-7.83 9.235-8.231 9.636-11.443 12.246-1.606 1.205-2.71 2.409-2.51 2.71.803.803 9.837-5.922 10.44-7.829.401-.903 2.609-3.915 5.018-6.524 2.51-2.61 4.517-5.32 4.517-6.023 0-1.706.101-1.807-6.022 5.42zm31.619-42.66c-.402.602-.502 1.305-.201 1.606.702.703 2.71-.602 2.71-1.807 0-1.204-1.706-1.204-2.509.201zm13.249 3.313c-.301.803-.301 1.706 0 2.007.904.903 3.413-1.506 2.71-2.509-.803-1.305-2.107-1.104-2.71.502zm57.115-1.406c-1.406 5.521-3.815 16.663-4.015 18.57-.101 1.104-.803 3.011-1.406 4.216-1.405 2.61-1.505 4.316-.301 4.316 1.305 0 3.413-6.023 4.718-14.053.301-1.405.903-4.818 1.606-7.628 1.104-5.22.602-10.138-.602-5.421zm-96.964 4.618c0 .903.502 1.405 1.204 1.204 1.807-.602 2.108-2.81.402-2.81-.904 0-1.606.702-1.606 1.606zm16.562-2.711c-.301.502-.101 1.205.502 1.606 1.204.703 3.011-.2 3.011-1.606 0-1.204-2.71-1.204-3.513 0zm15.558 2.108c0 .502.402 1.004.904 1.004.602 0 1.305-.502 1.606-1.004.301-.602-.101-1.003-.904-1.003-.903 0-1.606.401-1.606 1.003zm25.596 1.205c-.903 2.208.402 4.316 1.707 3.011.702-.702.702-1.606 0-2.911-1.004-1.706-1.104-1.706-1.707-.1zm30.214.502c-.904.903-.703 3.312.301 3.312 1.204 0 2.208-2.81 1.204-3.413-.501-.301-1.104-.301-1.505.101zm-79.699.401c.2.603.803 1.004 1.304 1.004.502 0 1.105-.401 1.305-1.004.201-.602-.401-1.104-1.305-1.104-.903 0-1.505.502-1.304 1.104zm13.852.904c0 .502.501 1.003 1.003 1.003.603 0 1.004-.501 1.004-1.003 0-.603-.401-1.004-1.004-1.004-.502 0-1.003.401-1.003 1.004zm-69.261 12.145c0 .502.502.703 1.004.402.603-.301 1.004-.803 1.004-1.104 0-.201-.401-.402-1.004-.402-.502 0-1.004.502-1.004 1.104zm-19.071 14.956c-.904.603-1.004 1.004-.301 1.004.602 0 1.505-.502 1.807-1.004.803-1.204.401-1.204-1.506 0zm79.9-23.588c-.301.803-.1 1.506.401 1.506 1.305 0 2.209-1.807 1.105-2.41-.502-.301-1.105.101-1.506.904zm12.748.201c-1.807.702-1.606 2.308.201 2.308.803 0 1.505-.702 1.505-1.505 0-.803-.1-1.506-.201-1.406-.2 0-.903.301-1.505.603zm7.327 1.003c-1.204 1.205-.602 3.313.904 3.313.803 0 1.505-.602 1.505-1.405 0-1.707-1.405-2.811-2.409-1.908zm8.833 2.911c.302.803.201 1.205-.401.904-.602-.301-1.004-.101-1.004.401 0 .602.703 1.104 1.506 1.104s1.505-.903 1.505-2.007-.501-2.008-1.104-2.008c-.602 0-.803.703-.502 1.606zm39.147-.502c-1.003 1.707 1.305 3.614 2.711 2.209 1.204-1.205.401-3.313-1.105-3.313-.501 0-1.204.502-1.606 1.104zm-79.197 3.815c-.301.502-.1 1.204.502 1.606 1.204.702 3.011-.201 3.011-1.606 0-1.205-2.71-1.205-3.513 0zm13.049-1.004c-.301.502-.1 1.204.502 1.606 1.204.703 3.011-.201 3.011-1.606 0-1.205-2.71-1.205-3.513 0zm41.656 2.61c-1.003 1.305-.903 1.505.904 1.505 1.204 0 2.108-.602 2.108-1.505 0-.803-.402-1.506-.904-1.506-.501 0-1.405.703-2.108 1.506zm-32.12.502c0 .502.703 1.003 1.506 1.003s1.505-.501 1.505-1.003c0-.603-.702-1.004-1.505-1.004-.803 0-1.506.401-1.506 1.004zm40.653 1.003c-.703 1.205.2 3.012 1.606 3.012.501 0 .903-.904.903-2.008 0-2.108-1.506-2.71-2.509-1.004zm4.516 6.525c0 1.706.201 1.807 2.41.903 2.308-.903 2.007-2.409-.402-2.409-1.104 0-2.008.703-2.008 1.506zm10.038-3.112c0 .803.402 1.707.904 2.008 1.003.702 2.308-1.907 1.405-2.811-1.104-1.104-2.309-.602-2.309.803zm-74.279 1.205c0 .903.502 1.405 1.205 1.204 1.807-.602 2.108-2.81.401-2.81-.903 0-1.606.702-1.606 1.606zm9.536.502c-.903 1.405-.201 2.007 1.405 1.003.803-.602.904-1.104.301-1.505-.602-.301-1.405-.101-1.706.502zm33.827.502c.1.903.903 1.907 1.606 2.208.903.301 1.305-.201 1.004-1.405-.101-.904-.904-1.908-1.606-2.209-.904-.301-1.305.201-1.004 1.406zm8.532 2.107c-1.305 1.305-.703 3.213.803 2.711.803-.402 1.506-1.205 1.506-2.008 0-1.506-1.205-1.907-2.309-.703zm-198.445.302c0 .501.502 1.003 1.104 1.003.502 0 .703-.502.402-1.003-.302-.603-.803-1.004-1.105-1.004-.2 0-.401.401-.401 1.004zm-1.004 2.409c0 .301.904 1.003 2.008 1.606 1.104.602 2.007.803 2.007.602 0-.301-.903-1.004-2.007-1.606-1.104-.602-2.008-.803-2.008-.602zm1.606 8.231c-.401 1.003-.1 1.405.602 1.204 1.506-.502 2.309-2.81 1.004-2.81-.502 0-1.305.702-1.606 1.606zm161.707-8.934c-1.204 1.104-.803 2.309.803 2.309.803 0 1.506-.703 1.506-1.506 0-1.606-1.204-2.008-2.309-.803zm-13.55 3.513c.501 1.506 2.81 1.807 2.91.301 0-.602-.702-1.204-1.706-1.305-1.004-.301-1.506.101-1.204 1.004zm22.986-1.305c-1.004.703-1.004 1.004-.101 1.606.603.402 1.607.301 2.209-.301 1.305-1.305-.402-2.308-2.108-1.305zm34.028 3.513c0 1.607 2.409 2.811 4.316 2.008 1.505-.502 1.907-3.413.502-3.413-.402 0-.803.502-.803 1.205 0 .903-.301.903-1.205 0-1.606-1.606-2.81-1.506-2.81.2zm-38.144 5.521c0 1.205 2.811 2.208 3.514 1.205.301-.502-.201-1.205-1.105-1.506-2.107-.803-2.409-.803-2.409.301zm-9.034-1.907c0 .502.703 1.004 1.607 1.004.803 0 1.204-.502.903-1.004-.301-.602-1.004-1.004-1.606-1.004-.502 0-.904.402-.904 1.004zm20.076 0c0 1.907 1.104 2.61 2.309 1.405.803-.803-.302-3.412-1.406-3.412-.502 0-.903.903-.903 2.007zm-207.68 11.644c0 1.104.301 1.405.602.602.301-.703.201-1.606-.1-1.907-.301-.402-.602.201-.502 1.305zm-4.015 1.305c-.803.502-.903 1.104-.301 1.505.502.301 1.204-.1 1.606-.903.602-1.706.602-1.807-1.305-.602zm-45.069.301c-.703.702-1.205 1.606-1.205 2.108s.703.1 1.606-.803c.904-.904 1.405-1.807 1.205-2.008-.201-.301-1.004.101-1.606.703zm-2.409 8.532c.702.301 1.606.201 1.907-.101.401-.301-.201-.602-1.305-.501-1.104 0-1.405.301-.602.602zm2.208 21.782c0 .2.703.602 1.506 1.003.803.302 1.505.101 1.505-.401 0-.602-.702-1.004-1.505-1.004-.803 0-1.506.201-1.506.402zm3.814 6.825c.502.502 1.606.803 2.309.603.803-.302.301-.703-1.004-1.105-1.706-.401-2.108-.301-1.305.502zm1.004 3.513c.703.302 1.606.201 1.907-.1.402-.301-.201-.602-1.305-.502-1.104 0-1.405.301-.602.602zm4.216.402c0 .502.502.703 1.004.401.602-.301 1.003-.803 1.003-1.104 0-.2-.401-.401-1.003-.401-.502 0-1.004.502-1.004 1.104zm.502 3.915c-.301.602.1.702.903.401 1.807-.702 2.108-1.405.703-1.405-.602 0-1.305.401-1.606 1.004zM304.023 7.267c-.603.401-1.707 2.107-2.309 3.713l-1.104 3.012 2.007-2.209c1.205-1.204 2.108-2.609 2.108-3.212 0-.501.603-1.204 1.305-1.405.602-.301.803-.602.201-.602-.502 0-1.506.301-2.208.703zm-.101 6.323c-.702 1.004-.803 1.907-.301 1.907 1.305 0 3.313-2.81 2.309-3.312-.402-.301-1.305.301-2.008 1.405zm-56.211 19.072c.201.602.803 1.004 1.305 1.004.502 0 1.104-.402 1.305-1.004.201-.602-.402-1.104-1.305-1.104-.903 0-1.506.502-1.305 1.104zm19.774 9.636c-1.304 1.606-1.204 1.706.402.402 1.606-1.305 2.108-2.108 1.305-2.108-.201 0-1.004.803-1.707 1.706zm3.815-.201c-.402.803-.201 1.707.301 2.008.602.401 1.004.401 1.004.1 0-.201.301-1.104.602-2.007.301-.904.201-1.606-.402-1.606-.501 0-1.204.702-1.505 1.505zm48.683 50.791c.501 1.506 5.621 4.718 7.628 4.818.703.101 3.112 1.305 5.32 2.71 7.027 4.417 33.325 17.667 36.838 18.47 1.807.401 3.514.401 3.815-.101.301-.502-.301-.903-1.305-.903-1.706 0-20.075-8.934-32.924-16.06-3.312-1.807-8.231-4.417-11.041-5.822-2.71-1.305-5.822-2.911-6.926-3.413-1.305-.703-1.707-.602-1.405.301zm-1.707 5.822c3.112 2.108 6.525 2.81 6.525 1.204 0-.501-1.004-1.104-2.209-1.405-1.305-.301-3.412-.803-4.818-1.204-2.308-.603-2.308-.603.502 1.405zm-4.517 4.316c4.818 2.911 40.352 20.879 41.355 20.879.402 0 .803-.502.803-1.004 0-.603-.903-1.004-1.907-1.004-1.104 0-2.308-.502-2.609-1.004-.402-.602-4.618-2.911-9.336-5.119-4.818-2.309-10.037-4.818-11.744-5.722-1.606-.903-4.818-2.509-7.126-3.713-2.309-1.205-5.22-2.911-6.525-3.815-1.305-1.004-3.312-1.706-4.416-1.706-1.607 0-1.205.502 1.505 2.208zm-244.92-.301c-4.115 1.305-10.539 4.818-13.852 7.629-2.107 1.706-3.713 4.617-5.219 9.134-1.807 5.721-1.907 7.327-1.004 12.547 1.004 5.521 3.714 11.945 6.123 14.454.703.603 1.305.502 1.907-.502 1.606-2.509 1.205-3.914-1.204-3.212-1.707.402-2.008.201-1.506-1.104.301-.903.1-1.807-.602-2.108-.703-.2-.101-.803 1.305-1.204l2.509-.803-2.509-.602c-1.406-.302-2.61-1.406-2.811-2.51-.301-1.907-.201-1.907 1.205-.201 1.003 1.305 1.505 1.506 1.806.502.302-.702-.501-1.807-1.606-2.308-1.505-.703-2.308-2.409-2.71-5.22-.602-4.517.301-5.621 3.815-4.718 1.706.502 1.907 1.406 1.907 7.027-.101 5.42.201 6.524 1.706 7.026 2.71.803 3.112-.1 1.305-2.811-1.807-2.81-1.305-9.435 1.104-12.045.904-1.004 1.305-1.807.803-1.807-.401 0-.201-.602.402-1.405.602-.702.803-2.208.401-3.112-.401-1.204-.301-1.606.502-1.204.602.401 2.71-.201 4.718-1.405 2.81-1.707 4.617-2.008 7.93-1.606 2.81.401 5.219.1 7.026-.803 2.409-1.305 3.112-1.305 4.918 0 1.807 1.305 1.908 1.505.402 1.505-.903 0-1.706.502-1.706 1.104 0 .502-.502.703-1.004.402-.602-.402-.703-1.205-.402-1.807.502-.903.402-.903-.602 0-.703.602-1.907.904-2.61.602-.803-.301-1.405 0-1.405.603 0 .602.401 1.104.803 1.104.401 0 3.915 2.108 7.729 4.617 3.915 2.51 9.837 6.023 13.25 7.629 5.42 2.61 7.127 3.011 12.346 2.61 4.517-.302 6.625-1.004 8.532-2.811 1.405-1.305 2.208-2.61 1.907-2.911-.301-.301-2.911-.602-5.721-.703-2.911 0-5.922-.301-6.725-.702-.803-.301-2.61-.803-4.016-1.104-2.509-.502-5.319-2.309-17.967-11.142-3.614-2.51-7.327-4.517-8.331-4.517-1.004 0-1.807-.402-1.807-.803 0-.502-.602-.904-1.205-.904-.702-.1-2.609-.401-4.316-.702-1.606-.301-4.115-.101-5.521.301zm6.023 2.61c0 .803-.401 1.505-1.004 1.505-.502 0-.702.603-.401 1.406.401 1.003-.101 1.204-1.907.903-1.406-.301-3.012.201-3.915 1.104-2.008 2.008-6.826 3.212-6.826 1.707 0-.603-.803-1.104-1.706-1.104-1.305 0-1.004-.603 1.104-1.908 3.212-2.208 5.42-1.806 3.513.502-.602.803-1.003 1.707-.702 2.008.301.301 1.505-1.205 2.71-3.212 1.204-2.008 2.509-3.313 2.911-2.911.401.401.1 1.004-.502 1.204-.703.301-1.305.904-1.305 1.506s.803.401 1.807-.502c1.004-1.004 2.71-1.706 3.814-1.706 1.606 0 1.706-.201.402-1.004-1.305-.803-1.205-1.004.301-1.004.903 0 1.706.703 1.706 1.506zm3.112 1.907c.502-.301.903 0 .903.703 0 .903.301.903 1.405 0 1.004-.904 1.506-.803 2.008.401.402 1.205-.201 1.405-2.911 1.205-2.81-.101-3.513-.603-3.413-2.209 0-1.104.301-1.405.603-.702.2.602.903 1.003 1.405.602zm-21.882 5.32c-.502 1.506-.302 1.606.803.502.702-.602 1.606-1.205 2.007-1.205.904 0 .402 3.413-.803 5.32-.401.603-.602 1.907-.502 2.71.301 2.008-3.312 2.309-4.918.402-.904-1.104-.904-2.008 0-3.714.602-1.205.903-1.405.702-.502-.301 1.104 0 1.807.803 1.807s1.205-1.004 1.004-2.71c-.301-2.51.201-4.316 1.104-4.316.302 0 .201.803-.2 1.706zm36.236 1.807c.301.803 1.305 1.505 2.208 1.505 1.004 0 1.405.502 1.004 1.506-.402 1.104.1 1.506 1.907 1.506 1.305 0 3.011.702 3.915 1.505.803.803 2.108 1.506 2.81 1.506.803 0 1.405.903 1.506 2.108.201 1.606-.101 1.807-1.104 1.004-.703-.603-1.606-.904-1.907-.603-.402.302-.502.201-.201-.2.301-.301-.502-1.105-1.807-1.807-1.205-.703-4.115-2.208-6.424-3.413-2.409-1.305-4.015-2.811-3.614-3.413.301-.502.101-.702-.401-.401-.602.401-1.606 0-2.309-.803-1.004-1.305-.803-1.506 1.305-1.506 1.405 0 2.71.703 3.112 1.506zm18.068 10.037c.401 1.205 1.003 1.305 2.509.603 1.405-.803 2.007-.703 2.509.401.402 1.104-.2 1.405-2.71 1.104-1.807-.2-3.714-.401-4.416-.502-.703 0-1.004-.803-.703-1.606.803-1.907 2.008-1.907 2.811 0z"/><path d="M53.482 124.607c-.301.502.1 1.907.903 3.313l1.405 2.509-.602-3.011c-.803-3.513-1.004-3.915-1.706-2.811zm119.147 13.15c.301.501 0 1.304-.602 1.505-.803.301-.602.602.502.602 1.907.101 2.309-1.405.502-2.509-.603-.401-.803-.301-.402.402zm-45.069.903c-6.826 1.104-13.25 2.71-15.057 3.714-3.212 1.807-9.535 6.725-9.535 7.528 0 .402 1.505 1.506 3.212 2.61 5.922 3.413 17.566 2.108 35.433-4.015 2.208-.803 6.725-1.907 9.937-2.409 6.826-1.205 6.926-1.305 6.023-3.413-.904-2.309-2.911-2.811-15.258-3.312-6.323-.201-11.744-.502-12.045-.703-.401-.201-1.606-.201-2.71 0zm1.706 4.316c-.301 1.104 0 1.104 1.205 0 .903-.703 1.606-1.004 1.606-.602 0 .301 1.204.1 2.61-.402 1.807-.702 2.308-.702 1.807.101-.402.702 0 .903 1.405.502 1.104-.402 2.308-.201 2.71.401.301.602 1.104.803 1.606.402.502-.302.602-1.004.301-1.606-.401-.603-.201-.803.402-.402 1.706 1.004 1.003 4.417-1.004 4.919-1.004.301-1.807.2-1.807-.302 0-.401-.803-1.003-1.706-1.405-1.004-.301-2.409-.903-3.012-1.204-.803-.302-1.305.1-1.305 1.003 0 1.004.603 1.305 1.506 1.004.803-.401 1.506-.201 1.506.301 0 1.205-5.019 3.614-5.822 2.811-.301-.301 0-.502.703-.502.702 0 .903-.502.602-1.104-.502-.703-1.405-.301-2.71 1.104-1.707 1.807-2.209 1.907-3.614.803-1.004-.803-1.305-.903-.903-.1 1.104 1.806-1.004 2.609-7.629 3.011-5.22.401-5.922.201-6.424-1.606-.301-1.205-1.004-1.807-1.706-1.606-.603.301-.201 0 .803-.703 1.104-.702 2.71-2.007 3.613-2.81 3.614-3.313 5.42-4.618 4.517-3.112-.602 1.104-.401 1.305 1.004.803.903-.402 2.309-.301 2.911.201.702.602 1.706.602 2.61.1 1.204-.803 1.204-1.004-.302-1.004-1.003 0-1.606-.401-1.304-.903.903-1.405 6.223.401 5.821 1.907zm19.172.502c0 .602-.702 1.104-1.606 1.305-1.204.301-1.505-.1-1.104-1.305.703-1.706 2.51-1.706 2.71 0zm7.729-.301c0 .401-.401.803-.903.803-.602 0-1.205-.402-1.506-.803-.301-.502.101-.904.904-.904s1.505.402 1.505.904z"/><path d="M119.028 144.984c0 .502.703.702 1.506.401.803-.401 1.505-.803 1.505-1.004 0-.2-.702-.401-1.505-.401-.803 0-1.506.401-1.506 1.004zm-2.008 4.015c1.807 1.204 4.718 1.305 5.32.2.302-.401-1.104-.803-3.111-.903-2.61-.1-3.212.1-2.209.703zm50.59-9.938c-.401.703-.301.904.402.502.502-.301 1.305 0 1.506.603.401.903.602 1.003.602.1.1-1.706-1.606-2.509-2.51-1.205zm-2.911.904c-.301.502-.1 1.004.402 1.004.602 0 1.104-.502 1.104-1.004 0-.602-.201-1.004-.401-1.004-.302 0-.803.402-1.105 1.004zm143.74 1.405c-.602 1.506.101 2.61 1.506 2.61.401 0 .803-.904.803-2.008 0-2.308-1.506-2.71-2.309-.602zm-289.788 7.127c-3.011.702-7.528 2.007-9.937 2.911-2.409.903-5.22 1.606-6.224 1.606-1.003 0-2.007.401-2.409.903-.803 1.506 4.517 6.525 8.532 8.03 1.908.703 4.919 1.807 6.525 2.51 3.814 1.706 22.384 4.717 25.094 4.115 3.011-.702 9.134-1.405 18.369-2.108 5.922-.502 8.231-.401 8.231.502 0 .602.903 1.104 2.007 1.104 1.105 0 2.008-.502 2.008-1.104 0-.502-.502-.702-1.204-.301-.804.502-.904 0-.502-1.506.502-1.907.301-2.007-1.105-.903-1.304 1.104-1.505 1.104-.903-.401.502-1.406-.401-2.209-3.814-3.815-2.409-1.104-4.718-2.007-5.019-2.007-.402 0-2.911-1.104-5.621-2.51-2.71-1.305-4.919-2.208-4.919-1.907 0 .201-2.308-.703-5.219-2.208-2.811-1.405-6.926-2.71-9.034-2.811-2.108 0-3.815-.401-3.815-.903 0-1.004-4.617-.703-11.041.803zm11.142 2.61c2.309 1.104 3.814 1.606 3.413 1.003-1.004-1.706 1.505-1.304 7.227 1.105 2.911 1.204 4.918 2.609 4.617 3.111-.401.603.101.803 1.104.402 1.004-.402 2.51.1 3.815 1.305 1.204 1.104 2.509 1.706 3.011 1.405.502-.301 1.606.201 2.309 1.204 1.907 2.51 1.907 3.815.1 3.112-.803-.301-1.706-.1-1.907.602-.301.904-.904.803-2.208-.301-1.004-.803-1.606-1.003-1.205-.401.402.702-.201 1.204-1.606 1.204-1.205.101-3.112.301-4.216.402-1.506.201-1.907-.201-1.706-1.707.2-1.204 0-1.606-.502-.903-.402.703-1.707 1.405-2.811 1.706-1.806.402-1.706.502.301.603 1.305 0 2.108.502 1.807 1.003-.602.904-6.424 0-8.632-1.405-.904-.502-1.104-.401-.602.301.401.703.1 1.205-.803 1.205-.904 0-1.607-.703-1.607-1.506 0-1.305-.401-1.405-2.107-.401-1.506.803-1.908.803-1.506 0 .401-.703-.201-1.205-1.606-1.305-2.409-.101-5.42-.402-7.629-.703-.903-.1-1.104-.803-.602-2.309.602-2.107.602-2.107-1.004-.501-1.907 1.806-3.111 2.308-2.208.803.301-.502-.1-1.105-.903-1.506-.803-.301-1.506 0-1.506.703 0 .803-.301.803-.904-.201-.501-.703-1.304-1.104-1.907-.703-.602.402-.803-.201-.502-1.405.402-1.305 1.707-2.309 3.413-2.71 1.707-.301 2.61-1.004 2.209-1.707-.402-.803-.201-.803.702 0 .904.904 1.707.703 3.112-.702 2.208-2.209 4.115-2.51 3.312-.603-.301.803.502 1.305 2.108 1.506 1.406.1 2.51-.301 2.51-.803 0-.602-.703-1.004-1.606-1.004-.803 0-1.205-.502-.904-1.003.904-1.506 3.212-1.205 7.629 1.104zm29.41 10.539c.803 2.108-.702 1.707-2.108-.602-1.104-1.606-1.003-1.807.101-1.405.803.301 1.706 1.204 2.007 2.007zm2.51-.201c.702.803.803 1.707.301 2.008-.602.301-1.205-.301-1.506-1.405-.602-2.409-.401-2.51 1.205-.603z"/><path d="M29.391 153.917c-.301 1.305-.1 1.807.904 1.405.702-.2 1.004-1.104.702-1.907-.702-1.907-1.003-1.806-1.606.502zm5.32.101c-.903.602-1.003 1.003-.301 1.003.602 0 1.506-.502 1.807-1.003.803-1.205.402-1.205-1.506 0zm-21.079 2.007c0 .502.502 1.004 1.104 1.004.502 0 .703-.502.402-1.004-.301-.602-.803-1.004-1.104-1.004-.201 0-.402.402-.402 1.004zm22.786-.301c-.402.301-.703 1.104-.703 1.706 0 .603.502.502 1.205-.2.602-.603.903-1.406.702-1.707-.301-.301-.903-.201-1.204.201zm3.914.803c2.51 1.907 4.016 1.907 2.409 0-.702-.803-2.007-1.506-2.81-1.506-1.305 0-1.205.301.401 1.506zm-21.179 3.614c-.402.602-.502 1.204-.201 1.505.201.301.703-.201 1.004-1.104.703-1.706.1-2.007-.803-.401zm15.257 4.015c.703.702 1.506 1.003 1.807.702.301-.301-.201-.903-1.205-1.204-1.405-.602-1.505-.502-.602.502zm21.882-16.061c-.602.904 4.618 6.625 11.443 12.447l2.409 2.008-1.104-2.108c-.602-1.205-.803-2.51-.401-2.911.401-.502.1-.502-.502-.101-.904.502-1.305 0-1.305-1.305 0-1.204-.502-2.107-1.104-2.107-.703 0-2.51-1.606-4.216-3.514-3.112-3.714-4.216-4.215-5.22-2.409zm8.532 2.911c0 .502.502 1.004 1.105 1.004.501 0 .702-.502.401-1.004-.301-.602-.803-1.003-1.104-1.003-.201 0-.402.401-.402 1.003zm7.027 12.046c1.807 1.204 3.011 1.304 3.011.2 0-.401-1.004-.903-2.208-.903-1.807-.201-2.008 0-.803.703zm307.153 21.982c0 1.004 2.911 3.614 3.413 3.011.1-.2-.602-1.204-1.606-2.208-1.004-.903-1.807-1.305-1.807-.803zm-184.693 7.127c-.904.602-1.004 1.004-.301 1.004.602 0 1.505-.502 1.806-1.004.803-1.205.402-1.205-1.505 0zm-12.748 5.621c-1.807.803-3.313 1.606-3.313 1.907 0 .703 6.023-1.606 6.625-2.61.602-1.104.703-1.104-3.312.703zm147.755 29.511c-.302.502-.101 1.004.401 1.004.602 0 1.104-.502 1.104-1.004 0-.603-.201-1.004-.401-1.004-.301 0-.803.401-1.104 1.004z"/>
  </symbol>
</svg>