<svg xmlns="http://www.w3.org/2000/svg" viewBox="0 0 300 300"><path fill="#ff8000" d="M140.25 63.1c-1.5 2.2-4 5.55-5.5 7.35-12.5 15.05-1.6 38.6 23.25 50.25 6.35 2.95 12.95 6.1 14.75 7 1.75.85 5.95 4.45 9.3 7.95 7.55 7.85 7.45 7.85 10.05-.75 5-16.5-.35-26.8-20-38.45-13.9-8.25-22.45-19.2-25.15-32.2-1.35-6.45-3-6.7-6.7-1.15zm.7 14.7C143.5 87.95 152.6 98.25 166 106c13.75 7.95 20.15 15.05 21.5 23.75.8 5.05-.65 5.65-2.55 1.1-2.3-5.55-10.85-13.1-20.85-18.35-19-10-27.05-21.7-27.1-39.35 0-3.9 2.6-.85 3.95 4.65z"/><path fill="#0062ff" d="M224.9 144.5c-8.2 1.65-14 4.55-27.85 14-14.55 9.85-20.5 11.8-37.35 12.05-15.05.25-15.8.6-8.5 3.95 17.85 8.15 36 5.85 57.2-7.35 19.55-12.2 38.7-14.05 52.7-5.1 6.8 4.4 9.3 2.95 5.25-3.1-8.5-12.7-23.65-18-41.45-14.45z"/><path fill="tomato" d="M119.65 91.75c-5.95 9.6 6.1 32.35 22.05 41.7 8.85 5.2 17 8.15 27.4 9.85 9 1.55 9.6 2.9 2.2 5.2-7.85 2.5-16.65 1.05-28.3-4.7-13.95-6.8-19-12.75-27.3-32.05-2.15-4.9-4-1.95-3.95 6.25.2 28.05 38.2 51.35 63.05 38.65 11.85-6.1 4.7-18.8-14.75-26.25-19.55-7.45-31.6-19.15-35.5-34.4-1.1-4.2-3.6-6.35-4.9-4.25z"/><path fill="#0062ff" d="M75.5 153c-17.75 3.25-37.05 17.15-45.25 32.65-6.55 12.35-3.9 13.8 6.4 3.6 26.2-25.9 55.35-29.85 86.45-11.7 41.9 24.45 61.7 26.35 97.9 9.4 19.25-9 31.8-10.1 43.65-3.85 6.85 3.55 7.35 3.6 7.35.15-.05-16.95-29.7-20.7-56.9-7.2-30.8 15.25-47.2 13.75-81.8-7.65-23.6-14.6-39.25-18.75-57.8-15.4z"/><path fill="#2994ff" d="M74.2 181.1c-18.25 3.05-43.6 24.15-45.85 38.25-1 6.1 2.3 4.7 12.25-5.15 23.5-23.2 48.65-26.15 81.75-9.55 42.05 21.05 66.4 22.6 100.5 6.25 17.45-8.35 27.85-10.4 37.75-7.4 6.55 1.95 7.1 1.9 9-1 3.95-6.05-5.95-11.85-20.1-11.85-9.8.05-11.95.7-32.5 9.65-31.1 13.6-51.05 11.8-90.3-8.15-23.05-11.75-34.15-14.1-52.5-11.05z"/><path fill="#2994ff" d="M70 208.45c-12.2 3.4-22.3 10.75-21.8 15.95.45 4.45 2.95 5.45 7.5 2.9 18.95-10.6 37.05-8.95 67.3 6.2 45.8 22.95 89.25 19.95 116-7.95 7.7-8.05-1.55-12.75-11.05-5.6-26.25 19.7-60.35 19.25-103.25-1.45-23.3-11.2-39.75-14.25-54.7-10.05z"/><style>@media (prefers-color-scheme:dark){:root{filter:contrast(.3846153846153846) brightness(4.5)}}</style></svg>
