<?xml version="1.0" encoding="UTF-8" standalone="no"?>
<svg
   viewBox="0 0 300 300"
   version="1.1"
   id="svg6"
   sodipodi:docname="favicon.svg"
   inkscape:version="1.3.1 (9b9bdc1480, 2023-11-25, custom)"
   xmlns:inkscape="http://www.inkscape.org/namespaces/inkscape"
   xmlns:sodipodi="http://sodipodi.sourceforge.net/DTD/sodipodi-0.dtd"
   xmlns="http://www.w3.org/2000/svg"
   xmlns:svg="http://www.w3.org/2000/svg">
  <defs
     id="defs6" />
  <sodipodi:namedview
     id="namedview6"
     pagecolor="#505050"
     bordercolor="#ffffff"
     borderopacity="1"
     inkscape:showpageshadow="0"
     inkscape:pageopacity="0"
     inkscape:pagecheckerboard="1"
     inkscape:deskcolor="#505050"
     inkscape:zoom="1.3808888"
     inkscape:cx="149.90345"
     inkscape:cy="149.90345"
     inkscape:window-width="2560"
     inkscape:window-height="1371"
     inkscape:window-x="0"
     inkscape:window-y="0"
     inkscape:window-maximized="1"
     inkscape:current-layer="svg6" />
  <path
     fill="#ff8000"
     d="m 145.52645,62.043507 c -1.5,2.2 -4,5.55 -5.5,7.35 -12.5,15.05 -1.6,38.600003 23.25,50.250003 6.35,2.95 12.95,6.1 14.75,7 1.75,0.85 5.95,4.45 9.3,7.95 7.55,7.85 7.45,7.85 10.05,-0.75 5,-16.5 -0.35,-26.8 -20,-38.450003 -13.9,-8.25 -22.45,-19.2 -25.15,-32.2 -1.35,-6.45 -3,-6.7 -6.7,-1.15 z m 0.7,14.7 c 2.55,10.15 11.65,20.45 25.05,28.200003 13.75,7.95 20.15,15.05 21.5,23.75 0.8,5.05 -0.65,5.65 -2.55,1.1 -2.3,-5.55 -10.85,-13.1 -20.85,-18.35 -19,-10 -27.05,-21.700003 -27.1,-39.350003 0,-3.9 2.6,-0.85 3.95,4.65 z"
     id="path1" />
  <path
     fill="#0062ff"
     d="m 230.17645,143.44351 c -8.2,1.65 -14,4.55 -27.85,14 -14.55,9.85 -20.5,11.8 -37.35,12.05 -15.05,0.25 -15.8,0.6 -8.5,3.95 17.85,8.15 36,5.85 57.2,-7.35 19.55,-12.2 38.7,-14.05 52.7,-5.1 6.8,4.4 9.3,2.95 5.25,-3.1 -8.5,-12.7 -23.65,-18 -41.45,-14.45 z"
     id="path2"
     style="fill:#80b3ff" />
  <path
     fill="#ff6347"
     d="m 124.92645,90.693507 c -5.95,9.600003 6.1,32.350003 22.05,41.700003 8.85,5.2 17,8.15 27.4,9.85 9,1.55 9.6,2.9 2.2,5.2 -7.85,2.5 -16.65,1.05 -28.3,-4.7 -13.95,-6.8 -19,-12.75 -27.3,-32.05 -2.15,-4.9 -4,-1.95 -3.95,6.25 0.2,28.05 38.2,51.35 63.05,38.65 11.85,-6.1 4.7,-18.8 -14.75,-26.25 -19.55,-7.45 -31.6,-19.15 -35.5,-34.400003 -1.1,-4.2 -3.6,-6.35 -4.9,-4.25 z"
     id="path3"
     style="fill:#ff6600" />
  <path
     fill="#0062ff"
     d="m 80.776447,151.94351 c -17.75,3.25 -37.05,17.15 -45.25,32.65 -6.55,12.35 -3.9,13.8 6.4,3.6 26.2,-25.9 55.35,-29.85 86.450003,-11.7 41.9,24.45 61.7,26.35 97.9,9.4 19.25,-9 31.8,-10.1 43.65,-3.85 6.85,3.55 7.35,3.6 7.35,0.15 -0.05,-16.95 -29.7,-20.7 -56.9,-7.2 -30.8,15.25 -47.2,13.75 -81.8,-7.65 -23.6,-14.6 -39.250003,-18.75 -57.800003,-15.4 z"
     id="path4"
     style="fill:#5599ff" />
  <path
     fill="#2994ff"
     d="m 79.476447,180.04351 c -18.25,3.05 -43.6,24.15 -45.85,38.25 -1,6.1 2.3,4.7 12.25,-5.15 23.5,-23.2 48.65,-26.15 81.750003,-9.55 42.05,21.05 66.4,22.6 100.5,6.25 17.45,-8.35 27.85,-10.4 37.75,-7.4 6.55,1.95 7.1,1.9 9,-1 3.95,-6.05 -5.95,-11.85 -20.1,-11.85 -9.8,0.05 -11.95,0.7 -32.5,9.65 -31.1,13.6 -51.05,11.8 -90.3,-8.15 -23.05,-11.75 -34.150003,-14.1 -52.500003,-11.05 z"
     id="path5"
     style="fill:#0066ff;fill-opacity:1" />
  <path
     fill="#2994ff"
     d="m 75.276447,207.39351 c -12.2,3.4 -22.3,10.75 -21.8,15.95 0.45,4.45 2.95,5.45 7.5,2.9 18.95,-10.6 37.05,-8.95 67.300003,6.2 45.8,22.95 89.25,19.95 116,-7.95 7.7,-8.05 -1.55,-12.75 -11.05,-5.6 -26.25,19.7 -60.35,19.25 -103.25,-1.45 -23.3,-11.2 -39.750003,-14.25 -54.700003,-10.05 z"
     id="path6"
     style="fill:#0044aa" />
  <style
     id="style6">@media (prefers-color-scheme:dark){:root{filter:contrast(.3846153846153846) brightness(4.5)}}</style>
</svg>
