<svg xmlns="http://www.w3.org/2000/svg" width="141" height="157">
<path d="M16.4,90.7c0-1.6,.5-3.1,1.4-4.5l21.6-32.5c4.1-6,9.1-9,14.9-9h32.5c5.8,0
10.8,3,14.9,9l21.6,32.5c.9,1.4,1.4,2.8,1.4,4.5c0,2.3-.8,4.2-2.4,5.7c-1.6,1.6-3.5
2.4-5.7,2.4c-2.9,0-5.1-1.2-6.8-3.6L90.5,66.3h-3.8v11.2l20.9,34.7c.5,.8,.8,1.8,.8
2.8c0,1.5-.5,2.7-1.6,3.8c-1.1,1.1-2.3,1.6-3.8,1.6H86.7v23c0,2.6-.9,4.8-2.8,6.7c-1.9
1.9-4.1,2.8-6.7,2.8H63.7c-2.6,0-4.8-.9-6.7-2.8c-1.9-1.9-2.8-4.1-2.8-6.7v-23H38c-1.5
0-2.7-.5-3.8-1.6c-1.1-1.1-1.6-2.3-1.6-3.8c0-1,.3-1.9,.8-2.8l20.9-34.7V66.3h-3.8L31.3
95.2c-1.6,2.4-3.9,3.6-6.8,3.6c-2.3,0-4.2-.8-5.7-2.4C17.2,94.8,16.4,92.9,16.4,90.7z
M70,3a20,20 0 1,0 2,0z"/></svg>
