<svg xmlns="http://www.w3.org/2000/svg" viewBox="0 0 1024 1024"><path d="M804.571429 402.285714v237.714286q0 22.857143-16 38.857143t-38.857143 16-38.857143-16-16-38.857143V438.857143h-36.571429v521.142857q0 26.285714-18.857143 45.142857t-45.142857 18.857143-45.142857-18.857143-18.857143-45.142857v-265.142857h-36.571428v265.142857q0 26.285714-18.857143 45.142857t-45.142857 18.857143-45.142857-18.857143-18.857143-45.142857V438.857143h-36.571429v201.142857q0 22.857143-16 38.857143t-38.857143 16-38.857143-16-16-38.857143V402.285714q0-45.714286 32-77.714285t77.714286-32h365.714286q45.714286 0 77.714286 32t32 77.714285z m-164.571429-256q0 53.142857-37.428571 90.571429T512 274.285714t-90.571429-37.428571T384 146.285714t37.428571-90.571428T512 18.285714t90.571429 37.428572T640 146.285714z"/></svg>
