<svg xmlns="http://www.w3.org/2000/svg" width="1000" height="1000"><path d="M503.5 1000q57.5 0 82.5-36.25t25-71.25q0-25-13.75-52.5t-30-68.75Q551 730 534.75 668.75T513.5 515q82.5 52.5 130 105t80 92.5q32.5 40 57.5 65t65 25q52.5 0 78.75-33.75T951 697.5q0-35-15-56.25t-37.5-33.75q-17.5-10-46.25-11.25t-73.75-8.75q-45-7.5-108.75-26.25T518.5 500q87.5-42.5 151.25-61.25T778.5 412.5q45-7.5 73.75-8.75t46.25-11.25Q921 380 936 358.75t15-56.25q0-37.5-26.25-71.25T846 197.5q-40 0-65 25t-57.5 65q-32.5 40-80 92.5t-130 105q5-92.5 21.25-153.75t33.75-102.5Q586 187.5 599.75 160t13.75-52.5q0-35-25-71.25T506 0q-57.5 0-82.5 36.25t-25 71.25q0 25 13.75 52.5t30 68.75q16.25 41.25 32.5 102.5T496 485q-82.5-52.5-130-105t-80-92.5q-32.5-40-57.5-65t-65-25q-52.5 0-78.75 33.75T58.5 302.5q0 35 15 56.25T111 392.5q17.5 10 45 11.25t72.5 8.75q45 7.5 110 26.25T491 500q-90 42.5-153.75 61.25T228.5 587.5q-45 7.5-73.75 8.75T108.5 607.5Q86 620 71 641.25T56 697.5q0 37.5 26.25 71.25T161 802.5q40 0 65-25t57.5-65q32.5-40 80-92.5t130-105q-5 92.5-20 153.75T441 771.25Q423.5 812.5 409.75 840T396 892.5q0 35 25 71.25t82.5 36.25z" opacity=".3"/></svg>