<svg xmlns="http://www.w3.org/2000/svg" width="300" height="300" fill="#aaa"><path d="M49.576 0C73.246-.1 99.95 26.33 100 50c.05 23.57-26.43 50-50 50S.05 73.57 0 50C-.05 26.53 26.106.1 49.576 0z"/><path d="M150 0c23.57 0 50 26.43 50 50s-26.43 50-50 50-50-26.43-50-50 26.43-50 50-50zm100 0c23.57 0 50 26.43 50 50s-26.43 50-50 50-50-26.43-50-50 26.43-50 50-50zM50 100c23.57 0 50 26.43 50 50s-26.43 50-50 50-50-26.43-50-50 26.43-50 50-50zm200 0c23.57 0 50 26.43 50 50s-26.43 50-50 50-50-26.43-50-50 26.43-50 50-50zM50 200c23.57 0 50 26.43 50 50s-26.43 50-50 50-50-26.43-50-50 26.43-50 50-50zm100 0c23.57 0 50 26.43 50 50s-26.43 50-50 50-50-26.43-50-50 26.43-50 50-50zm100 0c23.57 0 50 26.43 50 50s-26.43 50-50 50-50-26.43-50-50 26.43-50 50-50z"/></svg>