<svg xmlns="http://www.w3.org/2000/svg" width="300" height="300" fill="#ddd"><path d="M90 181.538h123.846v45.385H90zM80.085 86.44H213.56v111.864H80.085zM200 200h100c.487 100.46.37 100-100 100zm-100 0h100v100s-14.154-1.388-20-5c-13.07-8.08-14.634-35-30-35s-16.93 26.92-30 35c-5.846 3.612-20 5-20 5zM0 200h100v100c-99.74.486-100 .368-100-100zm200-100h100s-1.387 14.153-5 20c-8.078 13.07-35 14.633-35 30s26.922 16.928 35 30c3.613 5.845 5 20 5 20H200zM0 100h100v100H0s1.387-14.155 5-20c8.078-13.072 35-14.635 35-30s-26.922-16.93-35-30c-3.613-5.847-5-20-5-20zM200 0c99.022-.488 100-.37 100 100H200zM100 0s11.64-1.648 20 5c9.848 7.827 17.433 34.425 30 35 14.164.646 18.336-26.94 30-35 7.72-5.336 20-5 20-5v100H100zm0 0v100H0C1.173-.188 2.054.066 100 0z"/></svg>