<svg xmlns="http://www.w3.org/2000/svg" width="300" height="300" fill="#456"><path d="M49.576 0L100 50l-50 50L0 50zM150 0c23.57 0 50 26.43 50 50s-26.43 50-50 50-50-26.43-50-50 26.43-50 50-50zm100 0l50 50-50 50-50-50zM50 100c23.57 0 50 26.43 50 50s-26.43 50-50 50-50-26.43-50-50 26.43-50 50-50zm200 0c23.57 0 50 26.43 50 50s-26.43 50-50 50-50-26.43-50-50 26.43-50 50-50zM50 200l50 50-50 50-50-50zm100 0c23.57 0 50 26.43 50 50s-26.43 50-50 50-50-26.43-50-50 26.43-50 50-50zm100 0l50 50-50 50-50-50z"/></svg>