<svg xmlns="http://www.w3.org/2000/svg" width="300" height="300" fill="#fff"><path d="M109.455 166.787h82.398v30.59h-82.398zm-6.596-64.095h88.8v75.396h-88.8zm79.78 76.54h66.53c.325 67.708.247 67.398-66.532 67.398zm-66.534 0h66.532v67.398s-9.417-.936-13.307-3.37c-8.695-5.446-9.735-23.59-19.96-23.59-10.222 0-11.262 18.144-19.96 23.59-3.89 2.434-13.305 3.37-13.305 3.37zm-66.532 0h66.532v67.398c-66.36.327-66.532.248-66.532-67.4zm133.065-67.4h66.532s-.923 9.54-3.327 13.48c-5.374 8.808-23.286 9.862-23.286 20.22 0 10.356 17.91 11.408 23.285 20.22 2.404 3.938 3.327 13.48 3.327 13.48H182.64zm-133.065 0h66.532v67.4h-66.53s.922-9.542 3.326-13.48c5.374-8.812 23.286-9.865 23.286-20.22 0-10.357-17.915-11.412-23.29-20.22-2.403-3.94-3.326-13.48-3.326-13.48zm133.065-67.4c65.883-.328 66.534-.25 66.534 67.4H182.64zm-66.53 0s7.744-1.11 13.306 3.37c6.552 5.276 11.598 23.203 19.96 23.59 9.423.436 12.2-18.157 19.96-23.59 5.135-3.596 13.305-3.37 13.305-3.37v67.4h-66.53zm0 0v67.4H49.575c.78-67.526 1.367-67.355 66.532-67.4z"/></svg>