<svg xmlns="http://www.w3.org/2000/svg" width="512" height="512" viewBox="0 0 512 512"><path fill="#e38182" d="M256 13.915c-110.066 0-199.295 88.176-199.295 196.95C56.705 383.197 256 506.29 256 506.29s199.296-120.014 199.296-295.428c0-108.773-89.23-196.95-199.296-196.95zm0 281.358c-51.793 0-93.786-41.993-93.786-93.786S204.207 107.7 256 107.7s93.786 41.994 93.786 93.787-41.993 93.786-93.786 93.786z"/><path fill="#d4383a" d="M256 13.915v93.787c51.793 0 93.786 41.993 93.786 93.786S307.793 295.273 256 295.273v211.02s199.296-120.015 199.296-295.43c0-108.772-89.23-196.948-199.296-196.948z"/></svg>