<svg xmlns="http://www.w3.org/2000/svg" width="1000" height="1000" viewBox="0 0 32 32"><path d="M21.807 10.22l-2.03-2.03-10.15 10.15c-1.682 1.68-1.682 4.407 0 6.088s4.408 1.68 6.09 0l12.18-12.178a7.173 7.173 0 0 0 0-10.148 7.177 7.177 0 0 0-10.15 0L4.96 14.89l-.027.025c-3.91 3.91-3.91 10.245 0 14.153 3.908 3.908 10.246 3.908 14.156 0l.023-.027v.004l8.73-8.728-2.03-2.03-8.73 8.728-.026.026c-2.785 2.782-7.313 2.782-10.097 0a7.147 7.147 0 0 1 0-10.094l.03-.026v-.003L19.78 4.13c1.678-1.678 4.41-1.678 6.09 0s1.678 4.412 0 6.09L13.69 22.398a1.436 1.436 0 1 1-2.03-2.03L21.81 10.22z" fill="#777"/></svg>