<svg xmlns="http://www.w3.org/2000/svg" width="1000" height="1000" viewBox="0 0 512 512"><path d="M194.54 381.405V135.602l199.98 122.903-199.98 122.9zM280.854 0C362.57 7.976 436.15 54.944 477.706 127.09c41.555 72.144 45.34 159.5 11.374 234.42l-43.317-25.07c25.245-59.36 21.56-127.728-11.106-184.438-32.663-56.71-89.892-94.092-153.8-101.86V0zM464.23 404.665C416.483 471.612 339.113 512 256 512S95.52 471.612 47.768 404.665l43.322-25.07c38.666 51.594 99.58 82.58 164.91 82.58s126.242-30.986 164.908-82.58l43.325 25.07zM22.92 361.51c-33.966-74.92-30.18-162.275 11.374-234.42C75.848 54.945 149.43 7.977 231.146 0v50.142c-63.91 7.767-121.138 45.15-153.802 101.86-32.666 56.71-36.352 125.08-11.106 184.44L22.92 361.51z" fill="#fff" opacity=".7"/></svg>