<svg xmlns="http://www.w3.org/2000/svg" viewBox="0 0 5000 3000"><path d="M0 0v3000h5000v-3000z" fill="#d7e3f4"/><path d="M1168.194 1429.889l-11.813 13.071-10.445 10.915 18.813 20.063-.219 18.781-26.125-3.719 28.219 30.75-32 7.531 21.344 40.781-37.031 25.719 37.625 18.25-11.796 19.488 1.955 20.235-18.357-1.97-36.582 13.666 13.392-22.056 26.856-27.458-39.969-.625 15.469-18.719-18.687-6.438 16.125-16.781-39.344-38.031-24.5 29.656 19.344 20.625-.219 19.313-26.875-3.813 29.031 31.594-32.906 7.719 21.188 40.5-36 12.938-24.406-5.313 26.719-36.375-35.25-.563 13.625-16.469-16.469-5.688 14.219-14.781-34.688-33.531-21.594 26.156 17.063 18.188-.188 17-23.688-3.375 25.594 27.844-20.5 4.813.625-.844-35.25-.563 13.625-16.469-16.469-5.688 14.219-14.781-34.688-33.531-21.594 26.156 17.063 18.188-.188 17-16.438-2.344 8.563-11.688-17.25-.281 6.688-8.094-8.063-2.781 6.938-7.219-16.969-16.438-10.594 12.813 8.375 8.906-.094 8.313-11.594-1.625 12.5 13.625-9.563 2.25-42.125-32.438 27.674-23.023-44.205-1.133 27-36.75-35.594-.563 13.781-16.656-16.656-5.75 2.344-22.906-5.031-27.875-25.813 24.406 9.219 22.375-6.188 17.188-23.906-3.406 17.813 26.125-21.281 18.906 31.531 15.313-44.563 34.625-18.75-18.125-13.5 16.344 10.656 11.375-.125 10.625-14.781-2.094 15.969 17.406-17.656 4.156-14.531-14.063-21.813 26.406 17.219 18.375-.188 17.188-23.938-3.406.25.281-20.625-4.5 27-36.75-35.625-.563 13.781-16.656-16.656-5.75 14.375-14.906-35.031-33.875-21.813 26.406 17.219 18.375-.188 17.188-23.938-3.406 25.844 28.125-29.281 6.906 2.531 4.844-13.5-.219 8.531-10.313-10.313-3.563 8.875-9.219-21.656-20.969-13.5 16.344 10.656 11.375-.125 10.625-14.813-2.094 16 17.406-18.125 4.25 3.781 7.219-19.188-4.188 17.531-23.875-23.125-.375 8.969-10.813-10.844-3.719 9.344-9.688-22.75-22.031-14.188 17.156 11.188 11.938-.125 11.188-15.531-2.219 16.781 18.281-19.031 4.469 12.688 24.25-2.625 1.813-27.656-6 16.688-22.75-22.031-.344 8.531-10.313-10.313-3.531 8.906-9.25-21.688-20.969-13.5 16.344 10.656 11.375-.125 10.625-14.781-2.094 15.969 17.406-18.094 4.25 3.844 7.344-21.469-.344 8.5-10.313-10.281-3.563 8.875-9.219-21.656-20.969-13.5 16.344 10.656 11.375-.125 10.625-14.813-2.094 16 17.406-18.125 4.25 12.063 23.094-20.938 14.563 21.281 10.344-29.375 29.875 15.125-20.531-22.031-.375 8.531-10.281-10.313-3.563 8.875-9.25-21.656-20.938-13.5 16.344 10.656 11.344-.125 10.625-10.969-1.563 6.5-8.844-24.188-.406 9.375-11.313-11.313-3.875 9.75-10.156-136.069 53.754-5.542 12.31 114.705-58.657-.156 11.688-9.781-1.406-18.5-18.469-91.296 67.466-6.207-11.023 20.907-4.697-20.301-28.715 13.225 2.492-6.512-11.936-1.965-41.274-16.136-.493 6.242-13.854-7.537-4.782 6.498-12.438-15.867-28.222-9.882 22.003 7.805 15.312-.093 14.304-10.839-2.831 11.702 23.439-13.265 5.726 8.844 31.096-15.342 19.601 15.599 13.918 2.106-27.78-11.281-3.875 9.75-10.156-23.781 49.832-14.813-54.894 11.688 12.469-.125 11.688-6.938-1-23.125-22.344-14.844 17.938 11.719 12.469-.156 11.688-16.219-2.313 17.531 19.094-19.875 4.688 13.25 25.344c-24.812 16.122-25.626 14.691.375 27.344l-20.219 20.531c28.261 357.345 12.219 759.965 16.228 1088.222h5000l-21.353-1402.503 21.353-5.906-15.791-33.063 15.791-12.156-31.635-11 25.875-35.25-34.125-.531 13.219-15.969-15.969-5.5 13.75-14.313-33.563-32.5-20.938 25.344 16.531 17.594-.187 16.469-22.938-3.25 24.781 26.969-28.094 6.625 1.719 3.313-22.969-22.219-20.906 25.313 16.5 17.625-.188 16.469-22.938-3.25 24.781 26.969-28.063 6.594 18.719 35.781-7.406 5.125-58.031-44.719 35.438-4.313-31.375-24.156 25.438-8.844-37-8.063 18.906-25.719-24.906-.406 9.625-11.656-11.656-4 10.063-10.469-24.531-23.688-15.281 18.469 12.063 12.875-.125 12-16.75-2.375 18.094 19.719-20.5 4.813 13.656 26.125-23.719 16.469 24.094 11.719-12.844 13.375-38.25-8.313 25.875-35.25-34.125-.531 13.219-15.969-15.969-5.5 13.75-14.313-33.563-32.5-20.938 25.344 16.531 17.594-.187 16.469-22.938-3.25 24.781 26.969-28.094 6.625 18.719 35.781-29.156 20.281-27.812-.469 13.219-15.969-15.969-5.5 13.75-14.313-33.563-32.469-20.937 25.313 16.531 17.625-.188 16.469-22.938-3.25 24.75 26.969-28.063 6.594 18.719 35.781-28.781 20.031-30.5-23.125 48.5-5.906-42.938-33.063 34.813-12.125-50.656-11.031 25.875-35.219-34.125-.563 13.219-15.969-15.969-5.5 13.75-14.313-33.563-32.469-20.937 25.313 16.531 17.625-.188 16.469-22.938-3.25 24.75 26.969-28.063 6.594 18.719 35.781-32.469 22.594 33 16-47.563 48.375-5.063-1.094 18.906-25.719-24.906-.406 9.625-11.656-11.656-4.031 10.063-10.438-24.531-23.719-15.281 18.5 12.063 12.844-.125 12.031-16.75-2.375 18.094 19.688-20.5 4.844 11.063 21.156-34.594 8.813-38.656-29.313 48.5-5.906-42.938-33.063 34.813-12.156-50.656-11 25.875-35.25-34.125-.531 13.219-15.969-15.969-5.5 13.75-14.313-33.563-32.5-20.937 25.344 16.531 17.594-.188 16.469-22.938-3.25 24.75 26.969-28.063 6.625 18.719 35.781-32.469 22.563 33 16.031-25.625 26.063-27-5.875 18.906-25.719-24.906-.406 9.625-11.656-11.656-4.031 10.063-10.438-24.531-23.719-15.281 18.469 12.063 12.875-.125 12.031-16.75-2.375 18.094 19.688-20.5 4.813 13.656 26.125-23.313 16.219-46.156-10.063 25.875-35.219-34.125-.563 13.219-15.969-15.969-5.5 13.75-14.313-33.563-32.469-20.938 25.313 16.531 17.625-.187 16.469-22.938-3.25 24.781 26.969-28.094 6.594 18.719 35.781-32.469 22.594 33 16-1.125 1.156-66.188 10.156-34.156-25.906 48.5-5.906-42.938-33.063 34.813-12.156-50.656-11 25.875-35.219-34.125-.563 13.219-15.969-15.969-5.5 13.75-14.313-33.563-32.469-20.937 25.313 16.531 17.625-.188 16.469-22.938-3.281 24.75 27-28.063 6.594 18.719 35.781-32.469 22.563 33 16.031-47.844 48.656-15.094 2.313-26.063-19.75 48.531-5.906-42.969-33.063 34.813-12.125-50.625-11.031 25.875-35.219-34.156-.563 13.219-15.969-15.969-5.5 13.781-14.313-33.594-32.469-20.906 25.313 16.5 17.625-.188 16.469-22.938-3.25 24.781 26.969-28.063 6.594 18.719 35.781-32.5 22.594 33 16-2.219 2.25-47.031-10.219 25.875-35.219-34.125-.563 13.219-15.969-15.969-5.5 13.75-14.313-33.563-32.469-20.938 25.313 16.531 17.625-.187 16.469-22.938-3.281 24.781 27-28.094 6.594 6.406 12.25-23.844-.375 13.219-15.969-15.969-5.5 13.781-14.313-33.594-32.5-20.906 25.344 16.5 17.594-.188 16.469-16.844-2.375.844-.313-50.656-11 25.875-35.219-34.125-.563 13.219-15.969-15.969-5.5 13.75-14.313-33.563-32.469-20.937 25.313 16.531 17.625-.188 16.469-22.938-3.281 24.75 27-28.063 6.594 18.719 35.781-25.875 17.969-15.375-.25 15.25-18.406-18.437-6.344 15.875-16.5-38.719-37.469-24.125 29.219 19.031 20.313-.219 18.969-26.438-3.75 28.563 31.125-28.938 6.813 8.094-9.781-13.094-4.531 11.281-11.719-27.531-26.656-17.188 20.781 13.563 14.438-.156 13.531-18.813-2.688 20.313 22.125-23.031 5.438 4.906 9.344-17.5-.281 17.625-21.281-21.281-7.344 18.344-19.094-44.781-43.313-20.531 24.875-1.024-6.969-30.928-21.407 34.327-25.562-45.5-.75 17.625-21.281-21.281-7.344 18.344-19.094-26.715-14.131 15.378-17.04-15.451-17.185-8.729-34.872-9.587 29.288-11.771 15.843 7.008 25.258-22.788 3.308 22 23.5-.25 21.938-30.563-4.344 33.031 35.969-37.438 8.813 28.744 21.64-22.812 12.257 25.832 26.638-31.648-.833 13.874 29.683-55.302-11.758 17.625-21.281-21.281-7.344 18.344-19.094-44.781-43.281-27.875 33.75 22 23.5-.25 21.938-30.563-4.344 33.031 35.969-28.031 6.594-22-.344 11.375-13.75-13.75-4.719 11.844-12.344-28.875-27.938-18 21.781 14.188 15.156-.156 14.188-19.719-2.813 21.312 23.219-24.156 5.688 12.781 24.469-36.812-8 22.25-30.313-29.375-.469 11.375-13.75-13.75-4.719 11.844-12.313-28.875-27.938-18 21.781 3.906 4.156-53.031-11.531 29.5-40.156-38.906-.625 15.063-18.188-18.188-6.281 15.688-16.313-38.281-37.031-23.844 28.875 18.812 20.063-.219 18.781-26.125-3.719 28.219 30.75-32 7.531 21.344 40.781-37.031 25.719 37.625 18.281-20.406 20.781-27.625-6.031 20.156-27.406-26.563-.438 10.281-12.406-12.438-4.313 10.719-11.125-26.125-25.281-16.281 19.719 12.844 13.688-.156 12.844-17.844-2.563 9.594 10.469-34.656-7.531 17.812-24.25-23.5-.375 9.094-11-10.969-3.781 9.469-9.875-23.125-22.344-14.406 17.438 11.375 12.125-.063 6.531-40.594-8.813 21.813-29.688-28.781-.469 11.156-13.469-13.469-4.625 11.594-12.063-28.281-27.375-17.656 21.344 13.938 14.844-.156 13.875-19.344-2.75 11.5 12.531-33.844-.531 13.5-16.313-16.312-5.625 14.062-14.625-34.281-33.188-21.375 25.875 16.875 18-.219 16.813-23.406-3.313 25.313 27.563-28.688 6.75 8.094 15.438-32.625-7.094 26.437-35.969-34.875-.563 13.5-16.313-16.312-5.625 14.062-14.625-34.281-33.188-21.375 25.875 16.875 18-.219 16.813-23.406-3.313 25.313 27.563-28.688 6.75 19.125 36.531-25.13-6.35-24.121 19.867 2.622-23.319-21.724-1.928 20.535-15.939-41.222-13.778 20.817-6.999-16.178-18.038 25.207-14.775-35.247-12.406 27.731-14.706-21.809-12.921 6.779-17.864-24.508-.563 13.5-16.313-14.585-12.536 12.335-7.714-20.571-20.01-6.831-27.001-10.211 29.546-18.076 10.151 16.875 18-.188 16.813-23.438-3.313 25.313 27.563-28.656 6.75 24.277 31.347-27.973 2.329 30.232 25.014-29.221.751-2.997 32.723-1.662 11.209-17.875-13.75 23.969-8.344-34.875-7.594 17.812-24.25-23.5-.375 9.094-11-10.969-3.781 9.469-9.844-23.125-22.375-14.406 17.438 11.375 12.125-.125 11.344-15.781-2.25 17.031 18.563-19.313 4.563 3 5.719-32.312-7.031 26.437-36-34.875-.563 13.5-16.313-16.312-5.625 14.062-14.625-34.281-33.156-21.375 25.844 16.875 18-.219 16.844-19.875-2.844.094-.031-35.563-7.719 18.156-24.719-23.938-.406 9.281-11.188-11.219-3.875 9.656-10.031-23.563-22.813-14.688 17.781 11.594 12.375-.125 11.531-16.094-2.281 17.375 18.938-19.688 4.625 13.125 25.125-22.781 15.844 23.156 11.25-22.969 23.344-23.406-17.75 34.063-4.125-30.156-23.219 24.437-8.531-35.531-7.719 18.156-24.719-23.969-.375 9.281-11.219-11.219-3.844 9.656-10.063-23.562-22.781-14.656 17.75 11.563 12.375-.125 11.563-16.094-2.281 17.406 18.906-16.781 3.969.875-.313-35.531-7.719 18.156-24.719-23.969-.375 9.281-11.219-11.219-3.844 9.656-10.063-23.562-22.781-14.656 17.75 11.563 12.375-.125 11.563-8.656-1.219 5.656-7.688-34.875-.563 13.5-16.313-16.313-5.625 14.063-14.625-34.313-33.156-21.375 25.844 16.875 18-.188 16.844-16.938-2.406.375-.5-4.281-.063-2.594-.375.313.344-28.281-.469 13.5-16.313-16.313-5.625 14.063-14.625-34.313-33.156-14 16.906-16.406-.25 9.25-11.219-11.188-3.844 9.656-10.063-23.563-22.781-14.687 17.75 11.594 12.375-.125 11.563-16.094-2.281 3.437 3.719-31.5-.5 13.5-16.281-16.312-5.625 14.062-14.625-21.516-.316 9.687-19.55-22.452-13.322-21.375 25.875 16.875 18-.219 16.813-23.406-3.313 4.656 5.094-14.625-.25 16.469-19.906-19.906-6.875 17.156-17.844-31.165-11.419-10.71-29.081-26.094 31.563 20.594 21.969 13.729-6.676-40.736 2.544 5.363-16.41-15.271-6.362-24.928-11.003 41.688-5.094-44.352-12.046 7.446-16.329 29.906-10.438-43.5-9.469 22.219-30.25-29.313-.469 11.344-13.719-13.719-4.719 11.844-12.281-28.844-27.906-17.969 21.75 14.188 15.125-.156 14.156-19.719-2.813 21.281 23.188-24.094 5.656 16.063 30.75-27.906 19.375 28.344 13.75-26.86 18.547 26.026 13.898-46.291 15.523 38.844 18.308-35.65 5.314 10.203 25.993-28.678-15.615-11.281 13.656-21.5-.344 15.5-18.719-18.719-6.438 16.125-16.75-39.344-38.063-24.5 29.656 19.344 20.656-.219 19.281-26.875-3.813 29.031 31.594-20.625 4.844-29.438-5 1.656-2.25 3 .188-2.031-1.531 8.844-12.031-19.813-.313 7.656-9.281-9.25-3.188 8-8.313-19.5-18.844-12.125 14.719 9.563 10.219-.063 6.781-37.778-19.456 7.188-15.916-39.004-17.348 34.578-17.117-28.235-27.321 39.688-13.844-57.719-12.531 29.5-40.156-38.906-.625 15.063-18.219-18.219-14.25 15.687-18.313-22.479-13.876-10.868-34.804zm3747.462 108.267l9.781 18.688-14.563 10.094 10.375-12.5-15.969-5.5 10.375-10.781zm9.031 56.656l1.281.625-3.594 2.469zm-178.219 15.688l-7.563 7.875-4.687-3.594zm-97.594 28.031l27.094 13.156-22.438 22.844-26.812-5.844zm-3086.68 6.063l11.383 20.2-13.396-5.689-11.87-8.23zm-870.383 1.469l30.281 14.688-31.063 31.594-.906-.188 16.688-22.75-22.031-.344 8.531-10.313-10.313-3.563 8.813-9.125zm120.799-.626l17.202 28.439-16.438 11.406 16.688 8.094-5.469 5.594-47.563-36.063zm907.827 14.376l12.031 13.094-19.719 4.656 11.813 22.531-29.094-6.313 24.969-33.969zm-867.219.906l3.094 3.344-4.781-1.031 1.688-2.313zm803.031 6.313l4.938 5.375-10.75 2.531 5.813-7.906zm-791.75 5.969l9.875 10.719-2.406.563-12.438-9.563zm899.5 3.719l12.156 12.969-.031 2.281-20.094-4.375zm-834.438.656l16.375 31.344-5.063 3.531-31.844-6.938 20.531-27.938zm709.125 13.594l2.313 4.406-4.813-1.031zm137.344 9.75l-.062 5.813-6.563-.938-2.281-1.75zm-367.969 3.469l3.844 4.094-6.094-1.031zm-879.094 15.688l10.969 20.969-22.75-4.938zm1306.719.156l21.313 23.219-28.656 6.75 3.312 6.375-19.5-4.25zm2735.219 2.219l13.406 6.5-2.063 2.094-11.344-8.594zm-2794.156 7.313l1.094 1.188-11.563 2.719-3.031-2.281 13.5-1.625zm-1409.844 9.031l8 15.313-13.469 9.375-10.906-2.375zm1542.313 1.625l12.844 13.938-19.719 4.656 4.844 9.25-15.875-3.438zm-1424.25.875l4.531 8.656-5.844 4.063-10.938-8.438 12.25-4.281zm135.5.313l12.906 14.063-14.594 3.438-15.125-11.656 16.813-5.844zm-78.438 4.344l-11.156 7.75-3.469-2.656zm-119.969 6.031l-7.031 4.906-2.188-1.688 9.219-3.219zm3803.188 3.313l-4.375 4.438-2.625-2zm-3793.125 14.75l1.156.563-.188.188-.969-.75zm48.813.469l8.906 4.344-7.313 7.438-13.563-10.313 11.969-1.469zm1358.781 1.469l7.719 14.781-2.656 1.844-16.469-12.656zm-1474.094 2.375l9.625 4.656-4.594 4.656-9.906-7.625 4.875-1.688zm3788.875.031l21.219 10.281-15.688 15.969-14.281 3.656-24.031-18.5zm-3628.844 3.188l17.25 8.375-1.25 1.281-2.781.344zm1451.844.469l12.969 24.813-5.75 4-28-21.563zm-1551.844.313l-8.125 8.25-8.281-6.25zm3793.438 7.219l-4.25 1.094-.656-.5zm-2308.125 1.656l-2.656 1.875-.844-.656zm226.125 4.969l24.094 26.25-16.844 3.969-29.281-22.531zm-2066.688 1.875l-8.125 10.719h-.75zm-38.563 8.469l11.75 12.781-10.688 2.5 4.656-5.594-11.313-3.875 5.594-5.813zm225.031 1.031l13.656 14.844-9.781 2.313-14.219-3.094zm1724.5 5.594l-13.688 9.531 23.156 11.25-3.063 3.125-12.562-3.469-22.406-16.969 28.563-3.469zm1609.875 5.75l22.719 24.719-26.125 6.156-26.531-20.406 29.938-10.469zm-1453.688 9.094l-5.063 1.188 15.781 30.188-37.125-28.156 26.406-3.219zm1529.906 9.438l7.969 15.25-19.656 13.656-8.219-1.781zm94.875 7.125l-17.594 17.906-10.531-8.094 28.125-9.813zm-1140.875 3.438l8.781 9.594-19.125 4.5zm674.219 4.438l12.313 13.156-.125 11.156 9.026 13.173-21.213-37.485zm194.656 7.656l12.719 6.188-22.219 22.594-10.031-2.188zm-1257.719.031l5.031 9.625-12.094 8.406-13.906-10.719 20.969-7.313zm1360.375 3.688l11.625 22.219-13.344 9.25-35.531-26.938zm-984.844 2.313l11.813 22.563-24.5-5.313zm792.594 6.094l.25.469h-.625zm-455.531 12l8.437 9-.187 14.156-19.719-2.813 21.313 23.219-5.188 1.219-41.531-31.938 36.875-12.844zm-246.094 1.031l-.031 3.594-7.313-1.031zm967.313 1.406l7.75 3.75-5.938 1.063-4.875-3.75zm-980.25 3.094l14.156 15.406-11.406 2.688-17.031-13.125zm486.223 34.539l18.455 1.03-17.24 12.588-24.906-5.406zm-627.035-30.913l6.25 11.938-11.344 7.875-16.125-12.406 21.219-7.406zm867.156 1.344l5 9.563-10.375-2.25zm-114.219 11.5l11.906 12.969-16.75 3.938-11.652-12.335 16.495-4.572zm-609.313 18.688l4.906 9.438-9.25 6.438-17.437-13.219 21.781-2.656zm383.875.625l11 21.063-22.844-4.969zm-314.656 1.625l9.594 10.469-21.844 5.156 1.437 2.75-13.031-10.031zm174.906 10.563l13.875 26.531-7.813 5.438-37.156-28.188zm424.094 6.25l4.406 2.125-6.063 1.094-.594-.125 2.25-3.094zm-268.156 12.531l2.406 4.625-9.094 6.344-7.719-5.938 14.406-5.031zm-66.594.5l1.625 3.094-17.781 12.344-8.75-6.75zm-267.813 2.375l5.875 11.25-8.219 5.688-3.5-.156-18.281-13.844zm56.875 10.719l-3.281 3.344-1.969-1.5z" fill="#7aa6a5"/><path d="M4995.563 1525.563l-21.375 25.844 16.875 18-.188 16.844-23.438-3.344 25.313 27.563-28.688 6.75 19.125 36.563-33.188 23.031 3.625 1.75-21.313-4.625 26.438-36-34.875-.563 13.5-16.313-16.313-5.594 14.063-14.625-34.281-33.188-21.375 25.875 16.875 18-.219 16.813-23.406-3.344 25.312 27.563-28.687 6.75 19.125 36.563-32.406 22.531-33.875-26.094 35.563-12.375-51.75-11.25 26.438-36-34.875-.563 13.5-16.313-16.313-5.625 14.063-14.625-34.313-33.188-21.344 25.875 16.844 18-.188 16.813-23.406-3.313 25.281 27.563-28.656 6.75 19.125 36.531-18.844 13.094-11.719-4.031 14.062-14.625-34.312-33.156-21.344 25.844 16.844 18-.188 16.844-23.406-3.344 25.281 27.563-14.625 3.438 1.688-2.281-34.875-.563 13.5-16.313-16.313-5.594 14.063-14.625-34.313-33.188-21.344 25.875 16.875 18-.219 16.813-23.406-3.344 25.313 27.563-28.688 6.75 2.563 4.906-32.219-.531 13.469-16.281-16.281-5.625 14.031-14.625-34.281-33.188-21.375 25.875 16.875 18-.188 16.813-23.437-3.313 25.312 27.531-28.687 6.75 12.031 23-38.531-8.375 26.437-36-34.875-.563 13.5-16.281-16.312-5.625 14.062-14.625-34.281-33.188-21.375 25.875 16.875 18-.219 16.813-23.406-3.313 25.313 27.531-15.594 3.656-39.594-8.594 26.438-36-34.875-.563 13.5-16.313-16.313-5.594 14.063-14.625-34.313-33.188-21.344 25.875 16.844 18-.188 16.813-23.406-3.344 20 21.781-44.625-9.688 26.438-36-34.844-.563 13.469-16.281-16.281-5.625 14.031-14.625-34.281-33.188-21.375 25.875 16.875 18-.188 16.813-23.438-3.313 25.313 27.531-28.688 6.75 19.094 36.5-32.969-.531 13.5-16.313-16.313-5.625 14.063-14.625-34.313-33.156-21.375 25.844 16.875 18-.188 16.844-23.438-3.344 25.313 27.563-28.688 6.75-7.031 10.844 1.406-1.719-6.563-2.25-7.469-5.75 10.437-10.844 18.688-6.531-29.219-6.344-15.25-14.781 19.156-26.094-34.844-.563 13.5-16.313-16.313-5.625 14.063-14.625-34.313-33.188-21.375 25.875 16.875 18-.188 16.813-23.438-3.313 25.313 27.563-13.031 3.063-23.531-5.125 13.094-17.844-15.281-.25 15.281-20.781-34.875-.563 13.5-16.313-4.813-1.656-7.937-7.688 10.5-10.906-34.313-33.188-21.375 25.875 9.25 9.875-9.25 11.188 1.875 2-15.344-.25 13.5-16.313-16.313-5.625 14.063-14.625-34.313-33.188-21.344 25.875 16.844 18-.188 16.813-23.406-3.313 16.656 18.188-33.906-.563 13.5-16.313-16.312-5.625 14.062-14.594-34.312-33.188-21.375 25.875 16.875 18-.188 16.813-23.437-3.344 25.312 27.563-12.125 2.844 1.875-1.938-34.312-33.188-21.375 25.875 16.875 18-.188 16.813-23.437-3.313 25.312 27.531-24 5.656.219-.281-16.313-5.625 14.063-14.625-34.313-33.188-21.375 25.875 16.875 18-.188 16.813-23.438-3.313 25.313 27.531-22.281 5.25-17-16.469-21.125 25.563-21-20.313-21.344 25.875 16.844 18-.188 16.813-23.406-3.313 16.656 18.188-33.906-.563 13.5-16.313-16.313-5.625 14.063-14.625-34.313-33.156-21.375 25.875 16.875 17.969-.188 16.844-23.438-3.344 25.313 27.563-28.688 6.75 19.125 36.563-25.125 17.469-21.688-20.969 5.563-1.938-9.781-2.125-5.031-4.875-2.656 3.219-34.25-7.469 26.437-35.969-34.875-.563 13.5-16.313-16.312-5.625 14.062-14.625-34.312-33.188-21.375 25.875 16.875 18-.188 16.813-23.437-3.313 25.312 27.563-26.094 6.125-16.469-.281 13.5-16.313-16.313-5.625 14.063-14.594-34.313-33.188-21.344 25.875 16.875 18-.219 16.813-23.406-3.344 25.313 27.563-28.688 6.75 19.125 36.563-21.875 15.188h-.594l13.5-16.313-16.313-5.625 14.063-14.625-34.313-33.156-21.375 25.875 16.875 17.969-.187 16.844-23.438-3.344 25.313 27.563-28.688 6.75 2.375 4.563-10.969-.188 13.5-16.313-16.313-5.625 14.063-14.594-34.313-33.188-21.375 25.875 16.875 18-.188 16.813-12.844-1.844 4.469-4.625-34.313-33.156-21.375 25.844 16.875 18-.188 16.844-23.438-3.344 25.313 27.563-26.781 6.312-26.281-.437 13.469-16.313-16.281-5.625 14.031-14.625-34.281-33.188-8.688 10.5-22.594-17.406 35.563-12.406-51.75-11.25 26.437-35.969-34.875-.563 13.5-16.313-16.312-5.625 14.062-14.625-34.312-33.188-21.344 25.875 16.844 18-.188 16.813-23.406-3.313 25.281 27.563-28.656 6.75 19.094 36.531-33.156 23.063 33.719 16.375-7.344 7.469-12.406-11.969-14.281 17.281-10.031-.156 13.5-16.313-16.313-5.625 14.063-14.625-34.313-33.188-21.375 25.875 16.875 18-.187 16.813-23.438-3.313 25.313 27.531-27.313 6.438 3.844-5.25-34.875-.563 13.5-16.313-16.313-5.625 14.063-14.625-34.313-33.188-21.344 25.875 16.844 18-.188 16.813-9.375-1.313 3.563-4.844-34.844-.563 13.5-16.313-16.313-5.625 14.063-14.625-34.313-33.188-21.375 25.875 5.719 6.094-21.281-4.625 26.437-36-34.875-.563 13.5-16.313-16.312-5.625 14.062-14.594-34.312-33.188-21.344 25.875 16.844 17.969-.188 16.844-23.406-3.344 25.281 27.563-28.656 6.75 19.094 36.563-33.156 23.063 33.719 16.344-36.562 37.187-25.406-19.281 49.563-6.031-43.906-33.781 35.562-12.406-51.719-11.25 26.438-35.969-34.875-.563 13.5-16.313-16.313-5.625 14.063-14.625-34.313-33.188-21.375 25.875 16.875 18-.188 16.813-23.438-3.313 25.313 27.531-28.688 6.75 19.125 36.563-33.188 23.062 33.719 16.375-24.313 24.75-1.219-.156-57.469-43.563 49.562-6.031-43.906-33.781 35.594-12.406-51.75-11.219 26.437-36-34.875-.563 13.5-16.313-16.312-5.625 14.062-14.625-34.312-33.188-21.375 25.875 16.875 18-.188 16.813-23.437-3.313 25.312 27.563-28.687 6.75 19.125 36.531-33.156 23.063 33.688 16.375-13.344 13.594 4.156-5.688-34.844-.563 13.5-16.313-16.313-5.625 14.063-14.594-34.313-33.188-21.375 25.875 16.875 17.969-.187 16.844-23.438-3.344 25.313 27.563-28.688 6.75 19.125 36.563-32.125 22.313-13.094-10.094 35.563-12.375-51.75-11.25 26.438-36-34.875-.562 13.5-16.313-16.313-5.625 14.063-14.625-34.313-33.156-21.344 25.844 16.844 18-.188 16.844-18.469-2.625-14.469-5 14.063-14.625-34.313-33.188-21.375 25.875 16.875 18-.188 16.813-23.438-3.313 25.313 27.531-28.688 6.75 12.031 23-38.531-8.375 26.438-35.969-34.875-.563 13.5-16.313-16.313-5.625 14.063-14.625-34.281-33.188-21.375 25.875 16.875 18-.187 16.813-23.438-3.313 25.313 27.531-28.688 6.75 19.125 36.563-3.906 2.719-4.781-4.625-14.188 17.188-4.875-.094 13.5-16.281-16.312-5.625 14.062-14.625-34.281-33.188-18.844 22.813-26.531-.438 13.5-16.313-16.313-5.625 14.063-14.625-34.313-33.188-21.375 25.875 16.875 18-.188 16.813-23.438-3.313 5.719 6.219-15.25-5.25 14.063-14.625-34.313-33.187-21.344 25.875 16.875 18-.219 16.812-23.406-3.312 25.313 27.531-28.688 6.75 19.125 36.563-15.656 10.875-29.969-6.5 26.438-35.969-34.875-.563 13.5-16.312-16.313-5.625 14.063-14.625-34.313-33.188-21.344 25.875 16.844 18-.188 15.844-7.844-.125-15.562-2.219 1.812 1.969-8.531-.125 13.469-16.313-16.281-5.625 14.031-14.625-34.281-33.188-21.375 25.875 16.875 18-.188 16.813-21.75-3.063-5.156-5-21.375 25.875 16.875 18-.188 16.813-23.437-3.313 11.312 12.313-1.812 2.188-83.031-45.313 79.094 4.719-88.094-66.781 49.594-6.031-43.906-33.781 35.563-12.406-51.719-11.25 26.437-35.969-34.875-.563 13.5-16.313-16.312-5.625 14.062-14.625-13.205-12.773-55.664 46.97 22.891-53.264-9.709 11.753 16.875 18-.188 16.813-23.437-3.313 25.312 27.531-20.969 4.938 2.75-3.75-34.875-.563 13.5-16.313-16.313-5.625 14.063-14.625-34.281-33.188-21.375 25.875 16.875 18-.187 16.813-23.438-3.313 25.313 27.563-28.688 6.75 19.125 36.531-33.187 23.063 33.719 16.375-15.063 15.313-20.469-19.813-21.375 25.875 16.875 18v1.344l-13.375 13.594-7.937-1.125-21.563-20.844-21.375 25.875 16.875 18-.187 16.813-23.438-3.313 6.875 7.5-23.125-.375-.625-.5 13.125-15.844-16.312-5.594 8.844-9.219 9.844-1.188-5-3.844.375-.375-32.844-31.813 29.156-10.156-51.75-11.25 26.437-36-34.875-.563 13.5-16.313-16.312-5.625 14.062-14.594-34.312-33.188-21.344 25.875 16.844 17.969-.094 7.219-58.688-44.469 49.594-6.063-43.906-33.75 35.563-12.406-51.719-11.25 26.437-36-34.875-.563 13.5-16.313-16.312-5.625 14.062-14.625-34.312-33.156-21.375 25.875 16.875 17.969-.188 16.844-23.437-3.344 25.312 27.563-28.687 6.75 19.125 36.563-33.188 23.063 33.719 16.344-48.219 49.094-23.844-18.375 35.563-12.406-51.75-11.25 26.438-35.969-34.875-.563 13.5-16.313-16.313-5.625 14.063-14.625-34.313-33.188-21.344 25.875 16.844 18-.188 16.813-23.406-3.313 25.281 27.563-28.656 6.75 7.156 13.688-44.188-9.594 26.438-36-34.875-.563 13.5-16.313-16.313-5.625 14.063-14.625-34.313-33.188-21.344 25.875 16.844 18-.188 16.813-23.406-3.313 25.281 27.563-28.656 6.75 19.125 36.531-33.187 23.063 33.719 16.375-17.438 17.75-24 2.531-41.188-31.688 35.563-12.375-51.719-11.25 26.438-36-34.875-.563 13.5-16.313-16.313-5.625 14.063-14.625-34.313-33.188-21.375 25.875 16.875 18-.188 16.813-23.438-3.313 25.313 27.563-28.688 6.75 19.125 36.531-33.188 23.062 11.75 5.688-21.688-2.531-10.25-9.906 15.188-1.844-43.875-33.781 35.563-12.406-51.75-11.25 26.438-36-34.844-.563 13.469-16.313-16.281-5.625 14.031-14.594-34.281-33.188-21.375 25.875 16.875 17.969-.188 16.844-23.438-3.344 25.313 27.563-28.688 6.75 19.125 36.563-33.188 23.063 23.656 11.469-34.625-4.063-17.156-16.594-4.219 5.094-32.75-24.813 49.563-6.031-43.875-33.781 35.563-12.406-51.75-11.25 26.438-36-34.875-.563 13.5-16.281-16.313-5.625 14.063-14.625-34.313-33.188-21.344 25.875 16.875 18-.219 16.813-23.406-3.313 25.313 27.531-28.688 6.75 19.125 36.563-33.188 23.063 33.719 16.344-25.563 26-10.781-3.719 14.063-14.625-34.313-33.188-21.375 25.875 16.875 18-.094 8.625-6.531-.125-35.938-27.688 35.563-12.406-51.75-11.25 26.438-36-34.875-.563 13.5-16.281-16.313-5.625 14.063-14.625-34.313-33.188-21.344 25.875 16.844 18-.188 16.813-23.406-3.313 25.281 27.531-28.656 6.75 19.125 36.563-33.188 23.063 8 3.875-9.063-.188-43-32.594 49.594-6.031-43.906-33.781 35.563-12.406-51.719-11.25 26.406-35.969-34.844-.563 13.5-16.313-16.313-5.625 14.063-14.625-34.313-33.188-21.375 25.875 16.875 18-.188 16.813-23.438-3.313 25.313 27.563-27.094 6.344-31.25-.5 13.5-16.313-16.313-5.625 14.063-14.594-34.313-33.188-21.375 25.875 16.875 18-.188 16.813-23.438-3.344 25.313 27.563-28.688 6.75 19.125 36.563-29.688 20.656-26.438-5.75 26.438-36-34.875-.563 13.5-16.313-16.313-5.625 14.063-14.594-34.313-33.188-21.375 25.875 16.875 17.969-.188 16.844-23.438-3.344 25.313 27.563-26.906 6.344-1.844-1.781-2.125 2.594-39.688-30.563 35.563-12.406-51.75-11.25 26.438-35.969-34.875-.563 13.5-16.313-16.313-5.625 14.063-14.625-34.313-33.188-21.344 25.875 16.875 18-.219 16.813-23.406-3.313 25.313 27.563-28.688 6.75 4.75 9.094-16.188-5.594 14.063-14.625-8.789-33.188v1179.748h5000l-4.463-1474.466zm-1031.938 149.781l8.063 8.813-17.594 4.156zm1010.656 13.25l9.438 4.594-17.625 17.938-17.594-13.531 25.781-9zm-957.656 2.469l9.906 10.813-16.156-2.313zm-69.781 7.125l8.625 16.469-17.875-3.875zm61.187 4.594l3.688 4-5.719-1.25zm-128.906 2l.125.25-.281-.094zm858.406 13.031l8.156 3.969-11.281-.188zm-850.312 2.5l1.687 3.219-2.406-2.344zm972.062.563l29.719 14.406-29.188 29.688-43.313-32.844 49.563-6.031zm-769.656 26l3.75 7.156-11.656-2.531-1.656-1.281 9.563-3.344zm279.563 2.969l2.5 2.719-28.656 6.75 4.688 8.938-9.75-7.5 31.219-10.906zm-540.5 1.719l6.469 12.406-16.531-.281 10.063-12.125zm856 1.219l14.281 27.313-.344.25-29.469-6.406 15.531-21.156zm-585.719 11.906l.031.125-.094-.094zm510.875 1.625l15.469 29.563-14.406 10-25.937-5.625 24.875-33.938zm-766.969 12.406l3.469 6.625-17.031 11.844 13.563-18.469zm593.312 14.001l13.75 26.25-27.75-21.375zm-691.438 14.313l4.219 4.5-.188 16.813-2.25-.313 1.375-1.688-16.312-5.625 13.156-13.688zm32.812 4.406l3.406 6.531-7.25-2.5zm759.75 3.531l3.781 7.219-16.656 11.563-12.781-9.844zm64.531 8.688l16.812 8.156-5.75 1.156-11.781-9.063.719-.25zm-864.063 14.906l3.875 4.219-7.25-.125zm-37.344 10.469l8.094 8.813-17.594 4.156zm-16.75 22.844l8.594 16.469-17.844-3.875zm-3672.688 1.906l8.688 16.594-22.125-.344 13.438-16.25zm302.5 5.281l17.063 32.594-8.656 6-31.688-6.875zm3169.719 12.563l10.5 20.031-4.906 3.406-19.656-4.281 14.063-19.156zm-3458.156 9l.25.5-1.25.875zm3535.344 10.438l-3.75 4.531-2.906-2.219 6.656-2.313zm43.25 21.438l6.188 3.031-15.031 6.188 8.844-9.219zm-3482.062 5.063l-15.813 19.125 16.875 18v.563l-43-32.594zm201.188 9.5l8.313 4.031-1.313 1.344zm1354.469 6.782l16.469 31.5-1.625 1.125-33.469-7.281zm-525.156 1.719l10.062 19.25-15 10.406-24.969-19.219 29.906-10.438zm-923.188 7.844h.031l17.938 8.719-15.063 15.344-4.094.25-21.344-16.438 22.531-7.875zm2646.344 2.219l-.156 15.344-4.25-.594-11.813-9.094zm419.125 2.625l9.125 9.906-14-4.813 4.875-5.094zm-2985 4.937l-4.281 4.375-4.375-3.313 8.656-1.063zm2863.875 3.875l12.563 13.406-.156 13.531-3.562-2.719.406-.437-22.875-22.125 13.625-1.656zm131.813 2.813l8.75 9.531-20.656 4.875zm-376.344 22.937l16.656 18.188-28.656 6.75-5.438-1.188zm-1789.188.188l14.281 6.938-27.938 2.969-9.375-7.094 23.031-2.813zm-288.781 5.844l-3.688 4.469-14.031-1.656-.75-.562 18.469-2.25zm507.156 1.187l37.813 2.25 12.812 13.969-28.656 6.75 2.5 4.813-9.563-.156-7.688-11.937 3.844-4.656-8.813-3.031-4-6.187 1.75-1.813zm1643.469 2.813l18.656 35.656-2.875 2-37.469-8.125zm-650.813.906l12.375 13.5-23.25-.375zm891.438 11.594l14.875 28.437-7.375 5.125-27.719-6.031 5.469-7.438 14.188.844-9.5-7.219 10.063-13.719zm-872.531 9l2.219 2.437-4.844 1.156 2.625-3.594zm-691.75 7.282l-4.25 4.313-4.344-3.281 8.594-1.031zm-292 2.594l13.25 25.344-5.063 3.531-7.469-14.344-5.313-8.25 4.594-6.281zm688.156 3.594l15 16.344-28.156-.469zm854.438 2.094l.844 1.625-1.719-1.312zm-577.094 9.281l2.875 5.531-5.969-1.313 3.094-4.219zm-203.719 2.719l12 12.781-.219 16.813-23.406-3.313 3.969 4.313-12.781-2.781 20.438-27.813zm-54.844 6.344l.094.125-.219.063zm-630.844 2.063l-1.563 1.906-1.219-.938 2.781-.969zm838.656 7.813l3.781 7.219-16.656 11.562-12.781-9.844 25.656-8.938zm-226.594 15.719l4.375 8.375-9.094-1.969zm-137.188 1.906l8.688 9.438-18.906 4.438 10.219-13.875zm-371.719 12.188l8.094 8.813-7.531 6.938-2.5.594-10.375-3.562 12.313-12.781zm590.219 1.25l6 6.531-11.438 2.687-6.531-5.031 11.969-4.188zm-696.688 1.281l1 1.062-.063 4.188-6.094-4.625 5.156-.625zm58.719 33.875l11.906 13-.875.812-9.781 2.313-8.406-6.375zm482.437 4.562l26.188 12.688-6.563 6.656-23.437-18.031zm-496.625 26.687l3.75.219.344.656zm495.906 13.375l-4.344 4.406-4.406-3.344z" fill="#477278"/><path d="M4844.732 1787.386l-5.92 38.998-11.968 14.491 16.844 18-.188 16.844-23.406-3.344 25.281 27.563-28.656 6.75 19.094 36.563-33.156 23.031 33.719 16.375-20.469 20.813-9.812-9.5-21.375 25.875 7.375 7.875-11.813 12 21.281 1.281-.156 13.656-23.437-3.312 25.312 27.531-16.437 3.875 2.094-2.188-18.813-18.188-11.688 14.188 9.219 9.875-.094 9.219-12.844-1.812 13.875 15.094-.781.188-40.75-8.875 26.438-36-34.875-.563 13.5-16.281-16.313-5.625 14.063-14.625-34.313-33.187-21.375 25.875 16.875 18-.188 16.812-15.563-2.187-6.063-5.875-14.813 17.937-32.25-24.844 35.563-12.406-51.75-11.25 26.438-35.969-34.875-.563 13.5-16.313-16.313-5.625 14.063-14.625-34.313-33.188-21.344 25.875 16.844 18-.188 16.813-23.406-3.313 25.281 27.563-28.656 6.75 19.125 36.531-33.187 23.062 33.719 16.375-7.719 7.844-31.094-.5 13.5-16.313-16.313-5.625 14.063-14.625-34.281-33.156-21.375 25.844 16.875 18-.219 16.844-23.406-3.344 25.312 27.563-28.687 6.75 12.719 24.281-44.469-9.656 26.437-36-34.875-.563 13.5-16.313-16.312-5.625 14.062-14.625-34.312-33.156-21.375 25.844 16.875 18-.188 16.844-23.437-3.344 25.312 27.563-28.687 6.75 19.125 36.563-33.188 23.063 33.719 16.344-15.063 15.313-20.469-19.781-21.375 25.875 16.875 17.969v1.375l-13.344 13.594-10.281-1.469 24.625 26.813-.719 1.094-27.281 6.406 2.031 3.906-23.25-5.063 26.438-36-34.875-.563 13.5-16.313-16.313-5.625 14.063-14.625-34.313-33.188-21.344 25.875 16.844 18-.156 13.469-42.406-32.656 35.563-12.406-51.719-11.25 26.406-35.969-34.844-.563 13.5-16.313-16.313-5.625 14.063-14.625-34.313-33.188-21.375 25.875 16.875 18-.187 16.813-23.438-3.313 25.313 27.531-28.688 6.75 19.125 36.563-17.719 12.312 9.063-12.344-34.875-.563 13.5-16.313-16.313-5.625 14.063-14.625-34.281-33.156-21.375 25.844 16.875 18-.219 16.844-23.406-3.344 25.312 27.563-28.687 6.75 19.125 36.563-29.719 20.656-26.438-5.75 26.438-36-34.875-.562 13.5-16.313-16.313-5.625 14.063-14.625-34.281-33.156-21.375 25.844 16.875 18-.219 16.844-23.406-3.344 25.312 27.562-28.687 6.75 19.125 36.563-6.281 4.375-5.344-4.063 5.656-5.875-34.313-33.187-8.813 10.687-12.344-9.375 49.563-6.031-43.906-33.781 35.594-12.406-51.75-11.25 26.438-35.969-34.875-.563 13.5-16.312-16.313-5.625 14.063-14.625-34.313-33.188-21.375 25.875 16.875 18-.187 16.813-23.406-3.313 25.281 27.563-28.656 6.75 19.094 36.531-33.156 23.063 33.688 16.375-9.75 9.906-25.781-24.906-16.094 19.5-7.969-1.75-7.5-7.25-3.938 4.781-17.187-3.75 26.406-36-34.844-.563 13.469-16.281-16.281-5.625 14.031-14.625-34.281-33.188-21.375 25.875 16.875 18-.188 16.813-23.437-3.313 25.312 27.531-28.687 6.75 19.125 36.562-25.563 17.75-9.437-9.125-21.375 25.875 16.875 18-.188 16.813-23.437-3.344 2.094 2.281-24.594-.406 13.5-16.313-16.313-5.625 14.063-14.625-34.313-33.188-21.375 25.875 16.875 18-.187 16.813-23.438-3.313 25.313 27.531-13.063 3.063-36.844-8 26.438-36-34.875-.563 13.5-16.281-16.313-5.625 14.063-14.625-34.313-33.188-21.344 25.875 16.844 18-.188 16.813-23.406-3.313 25.281 27.531-27.156 6.406-28-6.094 26.437-35.969-34.875-.563 13.5-16.313-16.312-5.625 14.062-14.625-34.312-33.188-21.375 25.875 16.875 18-.188 16.813-23.437-3.313 25.312 27.563-28.687 6.75 19.125 36.531-33.156 23.062 3.25 1.594-21.188 25.625 3.563 3.813-34.906-7.594 26.438-36-34.875-.563 13.5-16.312-16.313-5.625 14.063-14.625-34.313-33.156-21.375 25.875 16.875 17.969-.187 16.844-23.438-3.344 25.313 27.563-28.688 6.75 19.125 36.562-33.187 23.063 33.719 16.344-33.281 33.875-10.75-.188 13.469-16.313-16.281-5.625 14.031-14.625-34.281-33.188-14.063 17.031-11.062-.187 16.5-19.938-19.938-6.875 17.188-17.875-41.938-40.562-26.125 31.625 20.625 22-.25 20.562-28.625-4.062 30.938 33.687-35.063 8.25 23.375 44.688-34.687 24.094-7.406-7.156-21.375 25.844 16.875 18-.188 16.844-23.438-3.344 12.625 13.75-31.969-6.938 26.437-35.969-34.875-.563 13.5-16.312-16.312-5.625 14.062-14.625-34.281-33.188-21.375 25.875 16.875 18-.219 16.813-23.406-3.313 25.313 27.563-22.125 5.219-22.438-21.719-21.375 25.875 11.75 12.531-28.469-.469 21.625-26.094-26.125-9 22.531-23.406-54.938-53.125-34.188 41.406 27 28.813-.313 26.938-37.5-5.344 40.5 44.125-45.906 10.812 30.625 58.5-34.281 23.813 23.813-32.469-34.844-.563 13.469-16.281-16.281-5.625 14.031-14.625-34.281-33.187-21.375 25.875 16.875 18-.188 16.812-23.437-3.312 25.312 27.531-13.656 3.219-20.375-19.719-11.438 13.844-44.656-9.688 31.156-42.375-41.094-.687 15.906-19.188-19.219-6.625 16.563-17.219-40.406-39.094-25.156 30.469 19.875 21.188-.25 19.844-27.594-3.938 29.813 32.469-33.781 7.938 22.531 43.063-39.094 27.156 36.5 17.719.563.594-.031 3.719-11.313 11.5-12.25-1.719 6.719 7.344-10.406 10.594-18.844-.312 13.5-16.313-16.313-5.625 14.063-14.625-34.313-33.187-21.344 25.875 16.875 18-.219 16.812-20.688-2.937-32.5-31.406-21.375 25.844 16.875 18-.187 16.844-17.469-2.5 3.813-3.969-34.281-33.187-21.375 25.875 11.906 12.687-27.469-5.969 26.437-35.969-34.875-.563 13.5-16.312-16.312-5.625 14.062-14.625-34.312-33.188-21.375 25.875 16.875 18-.188 16.813-23.437-3.313 25.312 27.563-28.687 6.75c37.461 172.482-104.9 177.404-94.534 235.409h2667.318l-4.537-1015.533 4.537-31.556-12.975-5.007 13.5-16.313-16.312-5.625 14.062-14.625-34.281-33.156-21.375 25.875 16.875 17.969-.219 16.844-23.406-3.344 25.313 27.563-28.688 6.75 2.875 5.531-39.531-30.406 35.594-12.406-51.75-11.25 26.438-36-34.875-.563 13.5-16.313-16.313-5.625 14.063-14.625-16.836-16.271zm92.581 191.645l14.313 27.375-17.094 11.875-.219-.062-6.125-4.656 12.219-12.719-20.375-19.719zm-45.156 5.5l-.875 1.063-1.094-.813zm-63.406 58.094l45.625 2.719-12.125 18.875-33.094-.531 13.5-16.281zm56.906 3.375l12.281.75 5.344 5.813-2.031.469zm-235.062 29.344l14.156 15.125-.188 16.812-6.969-1 .844-1-14.531-5-1.375-1.062 13.656-14.188-9.531-9.187zm199.406 8l-11.031 17.219-1.375-.313zm-59.375 32.937l3 5.719-6.219-1.344zm-34.25 3.031l6.969 13.344-4.594 3.188-15.531-11.938zm-272.5 15.156l4.594 8.781-19.406 13.5-15.313-11.781zm107.563 5.031l12.781.781-13.844 3.25 3.594 6.875-9.75-3.375zm-33.313 2.125l1.375 1.469-.125 10.219-10.875-8.344zm39.094 15.031l6.594 12.594-16.781-.281zm159.437 4.75l-9.469 9.625-4.563-3.469 9.844-3.438-6.531-1.438zm-272.406 18.938l4.75 2.312-18.656 19-22.281-16.875zm75.594 2.344l1.344 1.469-14.656 3.438-3.719-2.813zm-420.031 28.438l28.125 13.656-3.469 3.531-32.156-7zm130.031 9.906l-.031 2.031-7.75-1.094zm-20.031 2.438l21.875 23.844-17.531 4.125-.406-.313-25.844-25zm-178.781 50.469l17.969 8.719-16.969 17.25-23.531-18.125zm-237.937 2.906l-.063 4.562-2.187 2.25-2.469-1.906zm315.844 7.187l22 1.313-19.5 5.969-8.625-6.531zm187.438 3.344l1.094 2.063-6.375 9.75-8.906-6.875zm-91.219 2.406l5.719.344-5.938-.094zm-510.969 5.063l7.438 3.594-1.813 1.844zm95.656 10.125l.781.875-1.469-.031zm-144 28.594l10.25 11.188-10.563 10.75 4.188.25-15.125 3.563 3.781 7.25-14.469-3.156zm-163.125.438l13.094 25.031-2.25 1.563-27.188-20.906zm82.687 23.406l9.375 17.938-18.937-14.594zm142.969 1.844l2.375.156-4.375 2.563zm-331.125 3.75l29.625 14.406-7.188 7.313zm90.344 15.656l-4.156 2.906-2.719-2.063zm-.813 5.438l29.594 14.344-4.563 4.625zm180.938.312l6 11.469-1.156.813-12.5-9.625zm-282.156 14.813l6.563 7.031-.062 6.594-8.875 9-6.469-.938-16.656-12.781zm194.25.187l-5.813 4.031-3.813-2.875zm-106.688 41.156l1.75.094-7.125 7.25h-.719zm-82.781 2.969l3.469 3.781-28.688 6.75 1.75 3.344-12.5-9.469zm-161.406 13.75l-.156 13.156-8.625-1.219zm207.25.406l3.719 4.031-8.125 2zm-162.813 46.906l33.844 2.031-10.906 13.219 3.531 3.781-34.875-7.594zm19.5 31l-3.094 4.125-2.719-2.094zm-148.094.531l20.906 10.156-17.813 18.156-4.688-1.625 14.063-14.625zm143.344 5.813l-1.469 2-2.062-1.563zm-265.75 41.5l4.844 9.25-10.344-3.563zm92.844 11.188l1.437 1.563-5.844 5.938-15.375 3.625-3.781-2.906zm-85.031 3.75l1.438 2.75-8.75 6.063zm-43.75 19.844l7.375 8.031-10.844 2.563-3.438-1.188zm-210.688 70.562l16.375 17.469-.156 13.094-32.375-24.938zm111.094 39.531l15.844 7.688-2.531 2.563zm-102.094 9.125l5.594 6.125-2.438 1.688 4.781 2.313-24.063 5.688-4.219-3.219 9.313-11.25zm-191.969 22.656l22.094 24.062-28.344 6.656 9.813-11.844-16.313-5.625zm-57.812 26.406l22 23.969-25.094 5.906-1.688-.031 13.5-16.313-16.313-5.625zm51.312 4.625l2.25 4.25-5.687-.094zm-83.687 6.063l-.125 10.094-12.656-1.781-3.438-2.656zm159.5 11.156l9.969.594.906 1.781zm-61.281 10.5l4.5 8.594-8.188 5.688-5.844-1.281zm71.75 7.812l-5.5 3.813-1.719-1.313zm-129.094 19.625l3.937 7.5-1.094.75-7.688-1.656z" fill="#2d585e"/><path d="M114 1563.813l-21.375 25.875 16.875 18-.219 16.813-23.406-3.313 25.313 27.563-28.688 6.75 19.125 36.531-33.188 23.063 33.719 16.375-56.094 57.031 32.781 1.969 3.375 3.594-.188 16.813-23.438-3.313 12.938 14.063-48.781-10.594 26.438-36-34.875-.563 13.5-16.313-16.313-5.625 14.063-14.625-34.313-33.156 8.751 1295.249h5000l.031-529.873-8.437-36.563-2.813-21.938-20.25-47.813-21.375 25.875 16.875 18-.187 16.813-23.438-3.313 25.313 27.563-22.875 5.375-31.188-24 35.563-12.406-51.75-11.25 18.969-25.813 25.063 1.5-50.969-38.625 9.75-10.156-21.719-21.031 24.438-3-43.906-33.781 35.562-12.375-51.719-11.25 26.438-36-34.875-.563 13.5-16.313-16.313-5.625 14.063-14.625-34.313-33.156-21.375 25.844 16.875 18-.188 16.844-23.438-3.344 25.313 27.563-28.688 6.75 19.125 36.563-33.156 23.031 32.313 15.719-3.594 4.344.656.687-3.406 3.469-12.25-11.844-21.375 25.875 9.688 10.344-24.406 24.813 12 .719 21.281 23.156-28.219 6.625-5.344-5.156-21.375 25.844 16.875 18-.156 14.094-31.688-30.688-14.125 17.125-9.375-9.094 24.906-8.656-51.75-11.25 26.438-36-34.875-.562 13.5-16.313-16.313-5.625 14.063-14.625-34.281-33.156-21.375 25.844 16.875 18-.219 16.844-23.406-3.344 25.312 27.562-14.062 3.313-19.188-.313 13.5-16.312-16.312-5.625 14.062-14.625-34.281-33.188-21.375 25.875 16.875 18-.219 16.813-23.406-3.313 25.313 27.563-14.531 3.406-43.469-32.938 30.406-10.594-51.75-11.25.875-1.219 41-5-23.844-18.344 8.406-11.406-23.75-.375-2.281-1.75 2.719.156-3.438-2.625 33.875-11.812-41.906-9.125 11.156-11.594-8.219-7.938 13.656-18.594-33.438-.531-.812-.813 12.875-15.531-16.313-5.625 3.75-3.906 28.813 1.719-26.063-19.75-26.75-25.844-2.844 3.438-28.375-21.531 2.875-3.906 42.625-5.219-43.875-33.781 35.563-12.375-51.75-11.25 26.438-36-34.844-.563 13.469-16.313-16.281-5.625 14.031-14.625-16.786-16.235-10.583-51.477-19.295 49.529-8.992 10.871 16.875 18-.187 16.844-23.438-3.344 25.313 27.563-2.219.531-13.156-12.719-21.375 25.875 16.875 18-.188 16.813-23.437-3.344 12.187 13.25-11.437 7.937 16.844 8.188-20.969 4.937 14.25 27.25-32.5 33.031 6.312.375 13.5 6.531 4.438 4.75-1.875 1.312 4.687 2.281-.125 11.594-4 4.063-19.5-2.75 10.75 11.687-32.375 32.906 24.406 1.469 2 3.813-8.219 8.344 13 .781 6.187 11.844-13.406 9.313-10.594-10.25-9.812 11.906-31.094-30.094-21.375 25.875 16.875 18-.188 16.813-13.313-1.875-43.406-33.438 35.562-12.375-51.75-11.25 26.438-36-34.875-.563 13.5-16.313-16.313-5.625 14.063-14.625-34.313-33.156-21.344 25.844 16.844 18-.187 16.844-23.406-3.344 25.281 27.563-28.656 6.75 19.125 36.563-12.094 8.375-34.969-7.594 26.438-36-34.875-.562 13.5-16.313-16.313-5.594 14.063-14.625-34.313-33.188-21.375 25.875 16.875 18-.188 16.813-23.406-3.344 25.281 27.562-28.656 6.75 19.094 36.563-16.031 11.156-12.5-12.094-7.875 9.5-15.031-14.531 8.125-11.063-34.875-.563 10.313-12.438 21.813-2.656-23.844-18.344 2.969-3.094-15.469-14.969 28.031-9.781-51.75-11.25 26.438-35.969-34.875-.563 13.5-16.313-16.313-5.625 14.063-14.625-34.313-33.188-21.375 25.875 16.875 18-.188 16.813-23.406-3.313 25.281 27.531-28.656 6.75 19.094 36.562-33.156 23.063 33.719 16.375-12.375 12.594-3.063-2.969-21.375 25.875.938 1-20.219 20.531 36.094 2.156-.156 11.125-23.406-3.344 25.313 27.563-28.688 6.75 8.688 16.594-22.656-21.906-21.375 25.875 16.875 18-.187 16.813-23.438-3.313 13.594 14.781-31.25-6.781 26.438-35.969-34.875-.563 13.5-16.312-16.313-5.625 14.063-14.625-34.313-33.188-21.375 25.875 16.875 18-.188 16.813-23.406-3.313 25.281 27.563-28.656 6.75 19.094 36.531-33.156 23.063 33.719 16.375-15.938 16.219-31-.5 13.5-16.312-16.313-5.625 14.063-14.625-34.313-33.156-21.375 25.844 16.875 18-.188 16.844-23.438-3.344 25.313 27.563-28.688 6.75 8.844 16.906-18.25-17.656-20.25 24.5-20.656-19.969-10.688 12.938-30.563-6.656 26.438-35.969-34.875-.563 13.5-16.313-16.281-5.625 14.031-14.625-34.281-33.188-21.375 25.875 16.875 18-.187 16.813-23.438-3.313 25.313 27.563-28.688 6.75 3.563 6.781-26.625-25.719-21.375 25.844 16.875 18-.188 16.844-23.437-3.344 25.312 27.562-28.687 6.75 19.125 36.531-9.563 6.656-67.906-51.469 49.594-6.031-43.906-33.781 35.563-12.406-51.719-11.25 26.438-36-34.875-.562 13.5-16.313-16.313-5.594 14.063-14.625-34.313-33.188-21.375 25.875 16.875 18-.187 16.813-23.438-3.344 25.313 27.562-28.688 6.75 19.125 36.563-33.187 23.062 33.719 16.344-9.875 10.031-19.188-18.562-21.375 25.875 16.313 17.375-14.969 15.25-2.969-.438-22.469-21.719-21.344 25.875 16.844 18-.187 16.813-23.406-3.313.125.156-1.781-.625 14.063-14.625-34.313-33.188-19.781 24-39.625-8.625 26.438-35.969-34.875-.563 13.5-16.313-16.313-5.625 14.063-14.625-34.312-33.188-21.375 25.875 16.875 18-.188 16.813-23.406-3.313 25.281 27.563-28.656 6.75 19.094 36.531-21.375 14.875-43.844-9.531 26.438-36-34.875-.563 13.5-16.281-16.313-5.625 14.063-14.625-34.313-33.188-21.344 25.875 16.844 18-.187 16.813-14.969-2.125-37.219-28.625 35.563-12.406-51.719-11.25 26.438-36-34.875-.563 13.5-16.281-4.625-1.594 48.125 2.875-88.094-66.781 49.594-6.031-43.906-33.781 35.563-12.406-51.719-11.25 26.406-36-34.844-.563 13.5-16.313-16.313-5.625 14.063-14.594-34.313-33.187-21.375 25.875 16.875 17.969-.188 16.844-23.438-3.344 25.313 27.563-28.688 6.75 14.469 27.625-1.156-1.094-21.375 25.844 1.75 1.875-7.75 5.375 22.875 11.094-.188 16.469v.031l-23.438-3.344 12.906 14.063-34.5 35.094 26.812 1.594 6.813 13.031-18.719 22.688-10.719 7.437 27.375 13.313-.094 9.594-4.063 4.125-19.438-2.75 10.625 11.594-39.969-30.344.844-.875-29.063-28.156 40.875-4.969-43.906-33.781 35.562-12.375-51.719-11.25 5.969-8.125 33.531 2-22.5-17.031 9.438-12.844-26.906-.437-4.969-3.75 10.5-12.688-16.313-5.625 14.063-14.625-5.563-5.375 3.719-.437-20.469-15.75-12-11.594-1.188 1.438-10.25-7.875 35.594-12.406-51.75-11.25 26.437-36-34.875-.562 13.5-16.313-16.312-5.594 14.062-14.625-34.312-33.188-21.375 25.875 16.875 18-.188 16.813-23.437-3.344 25.312 27.562-28.687 6.75 19.125 36.563-33.156 23.062 13.406 6.5-7.406 9 13.906 14.875-16.875 17.156-3.781-.531 2.094 2.281-23.719 24.125 41.219 2.469-22.969 5.406 19.125 36.563-33.188 23.063 2.531 1.25-19.281 23.344 16.875 18-.094 8-7.594 7.75-15.906-2.25 8.75 9.531-7.656 7.781 15.656.937 8.531 9.281-28.188 6.625-5.344-5.156-16.875 20.406-12.875-4.438 14.031-14.625-34.281-33.188-11.687 14.125-22.063-16.719-20.812-20.125-1.75 2.125-1.219-.031-18.688-14.156 49.563-6.031-43.875-33.781 35.563-12.406-2.281-.5 21.844 1.313-51.5-39.031 6.625-9.031-18.906-.313-9.906-7.5 7.469-9.031-9.719-3.344 37.438-4.563-43.906-33.781 35.562-12.406-51.719-11.25 26.438-35.969-34.875-.562 13.5-16.313-16.313-5.625 14.063-14.625-34.313-33.187-21.375 25.875 16.875 18-.188 16.812-23.438-3.312 25.313 27.531-28.688 6.75 19.125 36.563-33.156 23.063 33.688 16.375-36.813 37.438-4.594-1 24.813-33.781-12.313-.187 3.219-4.375-22.187-.344 9.906-11.969-10-3.437.906-1.125-6.187-2.125 13.031-13.563-34.281-33.187-1.969 2.375-7.125-6.906-21.375 25.844 16.875 18-.219 16.844-23.406-3.344 25.313 27.563-28.688 6.75 19.125 36.562-29.969 20.781-56.594-42.906 49.563-6.031-43.875-33.781 35.563-12.406-51.75-11.25 26.438-35.969-34.875-.563 13.5-16.312-16.313-5.625 14.063-14.625-34.281-33.188-21.375 25.875 16.875 18-.219 16.813-7.438-1.063 3.688-.437-43.875-33.781 35.563-12.406-51.75-11.25 18.969-25.812 25.063 1.5-50.969-38.625 9.75-10.156-21.75-21.063 24.469-2.969-43.906-33.781 35.563-12.406-51.719-11.219 26.438-36-34.875-.563 13.5-16.313-16.313-5.625 14.063-14.625-34.313-33.188-21.375 25.875 16.875 18-.187 16.813-23.438-3.313 25.313 27.563-28.688 6.75 19.125 36.531-33.187 23.063 33.719 16.375-19.156 19.5-.812-.781-8.25 10-27.844 28.313 27.938 1.688 3.656 3.875-.156 14.219-50.219-10.906 26.437-35.969-34.875-.562 13.5-16.313-16.312-5.625 14.062-14.625-34.312-33.187-21.375 25.875 16.875 18-.188 16.812-23.437-3.312 25.312 27.531-28.687 6.75 19.125 36.563-33.156 23.063 33.688 16.375-14.594 14.844-5.375-5.219-21.375 25.875 3.156 3.344-8.688 8.844-9.125-.156 13.5-16.312-16.313-5.625 14.063-14.625-34.313-33.156-21.375 25.844 16.875 18-.188 16.844-23.438-3.344 25.313 27.563-28.688 6.75 8.656 16.562-20.406-19.75 16.625-2.031-43.906-33.781 35.594-12.406-51.75-11.25 26.438-36-34.875-.563 13.5-16.281-16.313-5.625 14.063-14.625-34.313-33.188-21.375 25.875 16.875 18-.188 16.813-23.406-3.313 25.281 27.531-28.656 6.75 19.094 36.563-33.156 23.063 33.719 16.344-19.402 16.383-25.661-4.07 35.563-12.406-51.719-11.25 26.406-36-34.844-.563 13.5-16.281-16.312-5.625 14.062-14.625-34.312-33.188-21.375 25.875 16.875 18-.188 16.813-23.437-3.313 9.642 24.003-22.424-31.38-14.188 17.188-13.094-12.656-2.281 2.781-34.625-26.25-1.625-2.375 48.25-5.875-43.875-33.781 35.563-12.406-51.719-11.25 26.406-36-34.844-.562 13.5-16.313-16.312-5.594 14.062-14.625-34.312-33.188-21.375 25.875 16.875 18-.188 16.813-23.437-3.344 25.312 27.562-25.906 6.094-52.031-39.438 49.562-6.031-43.875-33.781 35.563-12.406-51.75-11.25 26.437-35.969-34.875-.563 13.5-16.313-16.312-5.625 14.062-14.625-34.281-33.188-21.375 25.875 16.875 18-.219 16.813-23.406-3.313 3.469 3.75-29.563-.469 13.5-16.313-16.312-5.625 14.062-14.625-34.312-33.187-21.375 25.875 16.875 18-.188 16.812-23.437-3.312 25.312 27.531-28.687 6.75 19.125 36.563-26.906 18.688-6.188-6-14.063 17.031-22.281-21.562-15.156 18.375-70.156-53.188 49.594-6.031-43.906-33.781 35.563-12.406-51.719-11.25 26.406-35.969-34.844-.563 13.5-16.312-16.313-5.625 14.063-14.625-34.313-33.188-21.375 25.875 16.875 18-.188 16.813-23.438-3.313 25.313 27.563-28.688 6.75 19.125 36.531-33.188 23.063 33.719 16.375-30.219 30.75-14.969-5.125 14.063-14.625-34.313-33.188-21.375 25.875 16.875 18-.094 7.406-71.594-54.25 49.563-6.062-43.875-33.781 35.563-12.375-51.75-11.25 26.438-36-34.875-.563 13.5-16.313-16.313-5.625 14.063-14.625-34.313-33.156-21.344 25.844 16.844 18-.188 16.844-23.406-3.344 25.281 27.563-28.656 6.75 19.125 36.563-33.188 23.031 33.719 16.375-24.625 25.031-11.5-3.969 14.063-14.625-34.281-33.156-21.375 25.844 16.875 18-.031 3.594-26.969-.438 13.5-16.313-16.313-5.625 14.063-14.625-34.313-33.188-13.969 16.906-62.219-47.156 49.563-6.031-43.906-33.781 35.594-12.406-51.75-11.219 26.438-36-34.875-.563 13.5-16.313-16.313-5.625 14.063-14.625-34.313-33.188-21.375 25.875 16.875 18-.188 16.813-23.406-3.313 25.281 27.563-28.656 6.75 19.094 36.531-33.156 23.063 33.719 16.375-25.531 25.969-17.094-16.531 1.313-.469-2.281-.5-8.219-7.938-4.313 5.219-36.938-8.031 26.438-35.969-34.875-.563 13.5-16.313-16.281-5.625 14.031-14.625-34.281-33.188-21.375 25.875 16.875 18-.188 16.813-23.438-3.313 25.313 27.563-28.688 6.75 19.125 36.531-33.188 23.063 33.719 16.375-30.25 30.75-14.938-5.125 14.063-14.625-1.375-1.313 1.688.094-7.281-5.5-27.344-26.469-2.906 3.531-17.406-13.219 26.281-9.156-51.75-11.25 4.563-6.219 25.969-3.156 54.406 3.25-62.125-47.062 10.75-3.75-21.969-4.75-11.406-8.656.344-.375 16.219.969-6.344-4.813 36-4.375-39.625-30.5 55.438 3.313-24.75-18.75.625-.219-1.281-.281-37.594-28.469 13.563-18.5-34.844-.563.406-.469 45.344-5.563-36.688-28.25 2.188-2.281-4.969-4.781 31.156-10.844-51.75-11.25 3.156-4.313 45.438 2.719-30.469-23.094 8.313-11.313-23.75-.375-6.938-5.281 9.313-11.219-16.313-5.625 14.063-14.625-.375-.344 7.625-.938-43.875-33.781 35.563-12.406-51.75-11.219 26.438-36-34.875-.563 13.5-16.313-16.313-5.625 14.063-14.625zm-1.719 228.656l1.563.094v.125zm1.625 22.5l1.813 1.969-4.281 1zm-41.219 7.938l11.219 12.188-28.688 6.75 4.688 8.969-21-16.156zm-2.75 47.094l4.406 8.406-18.719 13.031-22.375-16.969zm343.656 179l-6.25 7.531-4.781-3.687zm9.375 40.469l-.031 3.219-12.188-1.719zm-21.031 2.562l13.5 14.688-18.563-14.063zm-140.813 7.438l12 12.781-.156 12.719-30.625-23.219zm343.75 13.969l-.094 9.656-6.906-2.375zm587.438 1.125l18.875 20.531-28.688 6.75 5.094 9.75-19.375-4.219zm-533 30.531l-.031 2.156-1.406-.188zm-332.094 4.906l4.938.281-.063 5.656-6.969-3.063zm322.156 8.625l11.813 12.844-6.75 1.594-13.5-2.938zm546.313 8.469l5.938 11.312-4.031 2.813-13.219-10.188zm-385.688 11.937l3.313.188-1.219 1.5zm15.844.938l.281.031 2.281 2.469zm287.031 22.969l12 5.813-2.906 2.969zm-88.469 4.531l13.75.812 12.25 13.031-.062 4.438zm161.531 2.5l16.219 7.875-6.094 6.187-17.375-13.187zm-105.219 9.5l6.031 6.406-.031 3.375-11.563-4zm3343.344 9.031l1.938.125 1.656 1.781v.844zm-2463.563 5.063h.062l-.031.031zm-873.875 3.125l-.062 6-4.375-.625zm795.437 72.469l-.031 1.719-3.469-.5zm-16.656 5.813l18.5 20.125-13.5 3.187-22.406-17.25zm2397.531 31.532l2.719 2.938-4.156-1.437zm-173.688 1.688l31.094 15.094-5.156 5.25-26.281-20.219zm-2225.438 10.031l5.375 10.312-6.438 7.781-20.406-15.469zm2410.125.062l3.719 3.969-.094 7.906-13.25-.219zm-58.25 2.031l22.75 24.781-1.875.437-25.469-24.656zm-7.906.969l-11.125 13.5-10.344-.187-5.219-3.938 5.625-6.781zm596.969 12.813l4.969.312 1.469 1.594-9.969 2.344zm52.719 6.969l3.719 4.031-8.094 1.906zm-2809.031 3l21.844 23.781-22.281 5.25-32.938-24.969zm1979.844 1.375l1.156.563-7.688 7.844-1.156-.406zm69.344.938l-7.125 7.25-7.25-5.5zm-101.875 10.344l-.031 5.094-4.125-.062zm-2236.125 20.688l4.344.25-.094 8.813-5.281-.75 2.75 3-9.063-1.313zm2843.594 1.219l7.25 13.813-15-3.25zm-85.375 1.781l3.406.219-1.219 1.438zm7.844.469l10.438.625 10.063 19.219zm-16.281 1.469l9.906.594-8.844 10.719-6.906-5.219zm-2847.594 3.219l-12.75 15.438-15.813-11.969zm85.875 8.094l12.25 13.313-19-4.125zm897.156 4.156l7.094 7.594-9.594-7.281zm-635.031 11.5l49.281 2.938-23.688 16.469zm1839.313 1.563l2.5 4.813-9.969 6.938-2.875-1zm-2154.563 9.094l2.5 4.812-8.688 6.031-2.469-1.844zm3247.719 5.562l13.875 26.5-10.969 7.625-39.219-29.719zm-214.937 2.906l4.031 4.438-6.219-2.156zm-26.969 1.719l-.031 2.969-6.344-2.188zm-31.875 3.906l-.031 2.969-3.406-2.562zm69.688 6.219l.25.281-.594.156zm-926.125 14.5l3.656 3.969-24.594 5.781-2.219-1.687zm-1532.75 23.25l35.969 2.156 9.063 17.313-16.938 11.75-36.656-28.219zm1525.781 21.969l1 1.938-.375.406-11.938 8.281-10.531-7.969zm-1618.875 6.594l15.844 7.687-2.438 2.469zm110 10.469l-5.063 3.5 33.719 16.344-4.344 4.406-7.375-1.031 4.063 4.406-8.844 9-21.875-16.594 2.688-2.813-15.031-14.531zm252.344 9.281l21.781 10.562-5.313 5.375zm308.969 9.062l1.594 1.719-2.031-1.563zm624.656 15.063l10.344 19.75-17.25 12 11.625-14.063-16.312-5.625zm76.031 19.5l14.906 15.906-.031 1.875-20.531-15.813zm-704.656 5.187l1.625 3.094-3.75-2.844zm756.531 1.969l3.937 4.188-.156 14.031-16-5.531zm3.781 18.688l-.031 2.344-1.719-.25zm-1178.75 8.094l2.5.156 12.781 13.625-.031 3.594-26.969-.437 13.5-16.313zm1055.813 4.719l2.125 1.031-11.219 11.375zm112.25.094l2.844 3.125-5.344-.094zm-43.719 1.5l15.344 16.719-6.031 1.406-21.906-16.594zm-1163.813.281v1.281l-2.625-.375zm54.594 21.844l-.031 2.156-1.406-.188zm35.625 1.656l9.219 9.844-17.125-.281zm474.938.031l18.531 20.156-18.563 4.375 10.25-10.656-13.906-13.437zm-520.531 11.875l11.813 12.844-6.688 1.563-13.562-2.938zm861.313 10.219l22.656 1.344-.094.094-23.469-.375zm-38.094 3.938l11.313 12.313-12.031 2.844-10.375-3.594zm-763.219 1.125l-.062 5.156-3.375-.469zm664.438 1.75l12.937 13.844-.187 16.813-12.75-1.813-25.813-19.844zm-675.625 13.469l4.937 5.375-7.656-1.656zm724.906 15.625l10.031 10.938-18.812-.313zm-167.813 1.469l33.25 16.156-15.531 15.781-34.062-26.219zm123.5 13.813l9.656 10.531-14.938 3.5-18.906-.281-8.094-6.156 3.375-4.062zm-115.563 28.063l-14.844 15.125-15.125-11.469z" fill="#1f2e35"/><path d="M4064.126 2551.505l-21.375 25.875 16.875 17.969-.188 16.844-23.437-3.344 25.312 27.563-28.687 6.75 19.125 36.563-33.156 23.063 15.813 7.688-7.438 9 12.188 13-9.531 9.688-.281-.031.156.188-8.594 8.75-.688-.094.375.406-24.375 24.813 16.531.969-16.656 20.156 16.875 17.969-.188 16.844-23.438-3.344 25.313 27.563-28.688 6.75 17.063 32.656-13.469 13.719 1.313.094-18.938 13.156 3.938 1.906-11.969-.187 13.5-16.313-16.313-5.625 14.063-14.625-34.313-33.156-19.344 23.406-17.313-16.719-21.375 25.875 16.875 17.969-.187 16.844-23.438-3.344 17.938 19.531-30.063-.5 13.5-16.313-16.312-5.625 14.062-14.625-34.312-33.156-20.313 24.594-38.156-8.281 26.438-36-34.875-.562 13.5-16.313-16.313-5.625 14.063-14.625-34.313-33.156-21.375 25.875 16.875 17.969-.188 16.844-23.438-3.344 25.313 27.562-28.688 6.75 19.125 36.563-33.156 23.062 4.344 2.125-22.406-.375 13.5-16.312-16.312-5.625 14.062-14.625-34.312-33.156-21.375 25.875 16.875 17.969-.188 16.844-23.437-3.344 25.312 27.563-28.687 6.75 19.125 36.562-14.875 10.344 1363 .021-.877-266.021-6.75 31.469-3.375 34.312 7.5 44.657 1.969-2.688-34.875-.563 13.5-16.313-16.313-5.625 14.063-14.625-34.313-33.156-21.375 25.844 16.875 17.969-.188 16.844-23.438-3.344 25.313 27.594-28.688 6.75 19.125 36.531-16.844 11.719-14.375-.219 13.5-16.312-16.312-5.625 14.062-14.625-34.312-33.156-21.375 25.875 16.875 17.969-.031 3.063-32.406-.531 13.5-16.313-16.312-5.625 14.062-14.625-34.312-33.156-21.375 25.875 16.875 17.969-.188 16.844-23.437-3.344 25.312 27.563-28.687 6.75 19.125 36.563-3.344 2.313-10.938-10.563-13.313 16.094-.719-.687 8.656-11.781-21.188-.344-3.406-3.281-2.625 3.188-7.656-.125 13.5-16.313-16.313-5.625 5.188-5.406 14.688.875-8.969-6.812 3.156-3.281-34.313-33.156-6.531 7.906-6.594-5 7.406-10.094-21.187-.344-8.5-6.469 8.312-10.031-4.344-1.5 33.031-4.031-43.906-33.75 35.594-12.406-51.75-11.25 26.438-36-34.875-.563 13.5-16.313-16.313-5.625 14.063-14.625-34.313-33.156-21.375 25.875 16.875 17.969-.187 16.844-23.438-3.344 25.313 27.563-28.688 6.75 19.125 36.563-33.156 23.063 15.813 7.688-7.438 9 12.188 13-16.625 16.938-11.719-11.313-16.625 20.125-23.625-.375 13.5-16.313-16.313-5.625 14.063-14.625-34.313-33.156-21.375 25.875 16.875 17.969-.187 16.844-23.438-3.344 2.5 2.719-18.656-18.031 1.906-2.594-4.687-.063-6.25-6.062-4.844 5.875-5.406-.094-8.5-6.469 8.312-10.031-4.344-1.5 33.031-4.031-43.906-33.75 35.594-12.406-51.75-11.25 26.438-36-34.875-.563 13.5-16.313-16.313-5.625 14.063-14.625-34.313-33.156-21.375 25.875 16.875 17.969-.187 16.844-23.438-3.344 25.313 27.563-28.688 6.75 19.125 36.563-33.156 23.063 15.813 7.688-7.438 9 12.188 13-18.25 18.594-.688-.094.375.406-3.344 3.406-16.687-.281 13.5-16.312-16.313-5.625 14.063-14.625-34.313-33.156-21.375 25.875 16.875 17.969-.187 16.844-23.438-3.344 25.313 27.563-28.688 6.75 19.125 36.562-33.156 23.063 15.813 7.687-7.438 9 1.219 1.313-24.063-3.375 21.281-28.969-34.875-.563 13.5-16.313-16.313-5.625 14.063-14.625-33.531-32.406 9.156-3.188-51.75-11.25 26.438-36-34.875-.562 13.5-16.313-16.313-5.625 6.25-6.5 8.281-2.875 25.344 1.5-53.25-40.344 7.406-10.094-21.188-.344-8.5-6.469 8.313-10.031-4.344-1.5 33.031-4.031-43.906-33.75 35.594-12.406-51.75-11.25 26.437-36-34.875-.563 13.5-16.313-16.312-5.625 14.062-14.625zm-40.031 226.344l2.688.156 2.281 4.375-.219.063zm105.344 28.406l-.031 2.531-5.125-.719zm-84.844 5.813l.5.937-4.219 2.938zm81.969 15.812l3.125 3.375-3.125-.062-1.687-1.281zm856.156 35.281l8.063 3.906-7.438 9 4.844 5.156-16.156-3.5zm-776.5 6.344l-13.813 16.719-9.094-7 .719-.25-1.469-.313-.812-.625zm291.719 12.125l16.563 18.031-.219.062-19.5-14.813zm371.375 10.125l-.125 10.344-6.75-.969zm-523.812 2.406l24.469 1.469-26.563 6.25-3.75 6.688-4.094-.875zm-410 3.531l.844.875-.156 14.687-11.75-4.062zm630.437.031l2.5 2.656-2.406 2.438 4.969.312 5.125 5.438-.188 16.844-20.375-2.906-6.75-1.469zm-741.625 1.344l12.063 12.844-.188 16.844-13.094-1.875-24.531-18.844zm1031.688 10.844l15.062 16.406-8 1.875-17.687-3.844zm-366.063 4.406l1.875 3.531-4.75-.062zm-287.062.25l-.156 14.187-13.625-1.937 1.188-1.438 2.063-.25-1.125-.875 5.75-6.937-4.344-1.5zm241.937.562l16.375 17.844-28.687 6.75 12.344 23.625-25.969-5.656 26.437-36-34.875-.563 3.281-3.969zm274.531 4.719l-.125 12.219-23.438-3.344 21.344 23.25-29.688-6.469 4.156-4.312-4.188-4.063 9.188-12.531 11.313-.75zm-346.188 4.031l11.406 12.438-20.187 4.75-12.656-9.719zm-444.5 5.531l1.625 1.781-3.031-.063zm-209.625 6.594l2.156 1.063-7.437 9 12.187 13-12.281 12.531-17.906-3.906zm177.656 5.219l4.688 5.094-10.188 2.406zm607.813.875l.437.875-2.219 1.531zm66.75.406l6.562 7.125-4.906 1.156-7.938-6.094zm-741.969.906l8.781 9.563-28.687 6.75.531 1-4.438-3.375 8.313-10.031-4.344-1.5zm155.438.719l7.781 8.281-8.406 8.563-6.875-6.625zm923.188.094l4.75 5.063-7.281-1.594zm-1028.844 21.031l6.219 11.906-12.906-2.813zm490.031 3.094l5.906 11.281-9.25 6.438-7.125-5.406 8.312-10.031-4.344-1.5zm82.219 7.313l.313.625-12.156 8.469-4.438-3.406zm-3736.104-544.125l-21.375 25.875 16.875 17.969-.188 16.844-23.438-3.344 25.313 27.563-28.688 6.75 19.125 36.562-33.156 23.063 15.813 7.687-7.438 9 12.188 13-18.25 18.594-.688-.094.375.406-24.375 24.813 47.188 2.813-26.563 6.25 19.125 36.563-32.406 22.531-33.875-26.062 35.563-12.406-48.938-10.656.031-.031-1.875-1.813 25.469-34.75-34.844-.563 13.5-16.313-16.313-5.625 14.063-14.625-34.313-33.156-21.375 25.844 16.875 18-.188 16.844-23.438-3.344 21.906 23.844-4.625 5.594-20.656 4.875 19.125 36.563-6.063 4.188-9.688-1.375 4.563 4.969-22 15.25 24.125 11.719-10.063 2.375 7.594 14.531-23.875 24.313-20.656-20-21.344 25.875 1.469 1.594-1.156-1.125-19.594 23.688-1.75.094 16.094-21.906-34.875-.563 13.5-16.313-16.313-5.625 14.063-14.625-34.281-33.188-18.094 21.906-23.719-18.281 35.563-12.406-51.75-11.25 26.438-36-34.875-.563 13.5-16.281-16.313-5.625 14.063-14.625-34.313-33.188-21.344 25.875 16.875 18-.219 16.813-23.406-3.313 25.313 27.531-20.219 4.75-14.625-5 14.063-14.625-34.313-33.188-21.375 25.875 16.875 18-.125 9.906-69.188-52.469 49.563-6.031-43.875-33.781 35.563-12.375-51.75-11.25 26.438-36-34.875-.562 13.5-16.313-16.313-5.625 14.063-14.625-34.281-33.187-21.375 25.875 16.875 18-.219 16.812-23.406-3.312 25.313 27.562-28.688 6.75 19.125 36.531-33.188 23.063 33.719 16.375-25.406 25.844-25.906-25.063-18.969 22.938-28.531-21.625 49.562-6.031-43.875-33.781 35.563-12.375-51.75-11.25 26.438-36-34.875-.562 13.5-16.313-16.313-5.625 14.063-14.625-34.313-33.187-4.688 60.687.01 486.742h1738.053l-70.844 3.383 23.781-2.875-43.906-33.781 35.563-12.406-51.719-11.25 26.437-35.969-34.875-.563 13.5-16.313-16.312-5.625 14.062-14.625-34.312-33.188-12.5 15.156 2-2.75-34.875-.563 13.5-16.312-16.313-5.625 14.063-14.625-34.313-33.156-21.344 25.844 16.875 18-.219 16.844-23.406-3.344 25.313 27.563-17.906 4.219-16.469-15.938 3.063-3.188-34.313-33.188-21.188 25.656-15.656-15.125-18.719 22.656-23.375-22.656-17.844 21.594-2.625-2 2.125-2.188-34.313-33.188-5.562 6.75-8.625-6.531 14.219-19.406-34.844-.563 6.25-7.563 30.656-3.719-28.688-22.094 3.031-3.156-11.313-10.938 28.656-9.969-50.25-10.938-1.031-.969 25.969-35.344-34.875-.563 13.5-16.313-16.313-5.625 14.063-14.625-34.313-33.188-21.375 25.875 13.281 14.156-34.094-7.406 26.438-36-34.875-.563 13.5-16.313-16.313-5.625 14.063-14.625-34.313-33.156-21.344 25.844 16.844 18-.188 16.844-23.406-3.344 25.281 27.563-28.656 6.75 19.125 36.563-.75.5-7.937-7.688-21.375 25.875 1.25 1.313-4.375 3.031 13.219 6.406 6.781 7.25-.188 16.813-23.437-3.313 12.906 14.063-31.656 32.188 22.312 1.344 12.188 23.25-9.844 6.844-19.906-19.25-11.688 14.156-14.625-14.156-10.156 12.281-29.938-.469 13.5-16.313-16.313-5.594 14.063-14.625-34.313-33.188-21.375 25.875 16.875 18-.188 16.813-23.438-3.344 25.313 27.563-18.156 4.281-10.594-10.25-16.375 19.812-20.469-19.812-18.875 22.844-12.719-12.313-11.844 14.344-3.938-3.813-11.438 13.844-30.656-29.625-10.531 12.75-3.781-3.594-24.063-12.219-30.75-23.313 83.406 5-88.094-66.781 49.563-6.031-43.906-33.781 30.781-10.719 25.344 1.5-53.25-40.344 7.406-10.094-21.188-.344-8.5-6.469 8.313-10.031-4.344-1.5 33.031-4.031-43.906-33.75 35.594-12.406-51.75-11.25 26.438-36-34.875-.563 13.5-16.312-16.313-5.625 14.063-14.625-34.313-33.156zm521.75 232.969l-.125 11.906-19.063-2.688-2.25-1.75zm-933.968 17.969l4.438 8.438-11.25-.188zm14.375 27.438l1.281 2.469-6.313 4.375zm894.844 1.625l1.813 3.438-4.188-3.156zm-554.344 15.313l29.719 14.438-29.188 29.656-10.906-8.25 8.844-3.094-18.125-3.938-23.125-17.531 49.563-6.062zm-246.656 22.406l4.781 5.094-.188 16.813-23.438-3.313 2.281 2.469-21.656-16.406zm779.938 22.938l17.656 1.031 10.406 5.063zm35.406 9.656l3.156 1.531-20.594 20.938-14.656-11.281zm-696.156 12.844l7.594 3.687-11.781.688zm530.094 13.812l13.375 14.25-.125 10.406-27.031-5.875zm39.656 16.594l-.031 2.125-1.5-.531zm25.313 1.031l5.219 2.531-5.75-1.969zm-150.438 13.313l4.125 4.375-.094 8.094-12-4.156 7.969-8.312zm225.875 2.594l17.969 1.063-11.781 3.625zm23.25 1.406l34.656 2.062 1.937 3.719-10.625 7.375zm-343.438 6.281l3.125 3.313-3.313-3.125zm442 .531l3.813 4.094v1l-5.75-4.406zm-259.188.469l2.313 2.5-2.969-2.281zm-121.313.531l-.094 9.313-6.656-2.281 6.75-7.031zm415.625.188l4.781.281-.344.406 16.875 18-.094 8.75-13.25-12.844 1.75-2.125-6.156-2.125-4.063-3.938-1.625 1.969-4.469-1.531 6.594-6.844zm-378.844 7.219l-.031 1.969-1.438-.219zm479.063 2.844l-.156 14.906-8.656-1.219-3.25-1.125zm-43.531 1.469l6.719 7.156-.187 16.813-6.156-.875 5.281-6.375-16.281-5.625zm164.094.281l16.313 17.406-.125 11.563-17.219-3.75-4.469-4.313-2.344 2.844-8.281-1.812zm-639.656 16.156l.781.844-1.469-.031zm118.469 11.313l.156.313-.375-.281.219-.031zm394.562 1.438l3.594 3.969-6.781-.125zm-125.5 1.344l1.719 1.875-1.063.25-1.813-.937zm81.281 1.188l1.25 1.344-2.313-.031 1.063-1.312zm105.219 1.594l.094.188-.188-.062.094-.125z" fill="#101d04"/><text style="text-align:start;line-height:125%;-inkscape-font-specification:Libre Baskerville" x="1777.345" y="1530.83" font-size="360.351" fill="#596176" font-family="Libre Baskerville"><tspan x="1777.345" y="1530.83" fill="#596176">Scriptura</tspan></text></svg>