<svg version="1.0" xmlns="http://www.w3.org/2000/svg" viewBox="0 0 300 300"><path d="M63 4c-10 7-10 9-3 18l5 6-1 20a1246 1246 0 0 1-3 45l-3 2c-3 0-6 2-8 3-1 2-5 4-7 5l-10 8-6 6v7c1 9 2 11 8 14 4 2 6 2 18 2l13-1v64l-1 8 9 1h12c7-2 54-1 56 1v84l11 1 26 1a1059 1059 0 0 0 46-1h19v-4a389 389 0 0 0 3-45c2-8 1-9-7-9l-9-1c-5-2-6 0-4 7l1 20v14h-9l-10-1c-1-1 0-17 3-28l2-10c0-3 0-3-4-2l-7 1-5-2-4-1 1 12v20c0 11 0 10-8 11l-4 1v-15a761 761 0 0 1-1-29h-12c-7-2-7-2-6 7a1023 1023 0 0 1 1 36c-1 2-5 2-7 0-1-1 1-74 2-80v-4H98c-7 1-11 1-14-1v-55l4-1c7-1 9-3 9-6-1-2 0-3 1-4l2-3 1-7c2-4 2-5 1-7-2-1-2-2 0-4l1-4 1-3c2-1 3-7 2-9s-2-2-9-2H81V56c0-29 0-35 2-37V7c-1-2-2-3-5-4-6-3-11-2-15 1zm16 2c2 3 3 7 0 12-2 5-7 6-13 3-5-2-7-8-5-12l3-2 5-1c4-3 7-3 10 0zm-1 52v33l-7 1c-5 0-6 0-6-2l1-20 1-31 1-14h4l5-1 1 34zm25 37c1 2-1 2-4 1-2-2-3-2-3-1l2 2c4 1 2 3-3 3-14 0-22 2-27 4-3 2-5 2-7 2-3-1-4 0-2 1s-4 9-7 11c-2 2-3 3 0 3l5-5c3-2 5-4 6-3v16l-1 5v3h-9c-15 0-21-2-23-8s-1-9 3-13l7-6 6-5 6-4c8-6 18-8 39-8 9 0 11 1 12 2zm-4 10c0 3-2 4-15 5l-13 2-1-3c-1-4 1-5 15-6 11-1 14 0 14 2zm-30 4c0 3-1 5-3 3-2-1-2-2-1-3 1-3 3-3 3 0zm27 5v5c-2 1-25 2-27 1-3-1-5-4-3-5s3-1 4 1l1 1 1-1c-1-1 1-2 10-3 13-1 14-1 14 1zm-26 10c1 3 1 4-2 4-1 0-2-1-2-3 0-4 3-4 4-1zm26 0c-1 3-2 4-13 4l-11 1v-6h7c19-1 18-1 17 1zm-3 8c1 4-2 5-13 6l-13-1c-3-2-3-2-2-4 1-3 4-2 5 1l1 3 1-3c0-3 1-3 3-3h11l7 1zm-12 15v40c0 8-1 9-3 7h-1l3 3c6 4 8 13 3 13l-4-3c-1-3-2-4-2-1 1 3 0 3-3 3-5 1-6-1-6-6 0-4 0-4 3-3l2-1-3-1c-2 0-3-2 0-5v-52l5-1h6v7zm51 52h2l3-1c3 0 3 0 3 6 0 4-1 6-2 6l-6-6-1-1c-1 0-1 2 1 4 1 2-1 2-22 2H87v-3l-1-5-2-3h17c16-1 30-1 31 1zm22 1 1 2v-2l1-1c1 1 0 8-2 10s-6 2-9 0c-2-1-3-2-3-5l1-5 6-1c4 0 5 0 5 2zm1 27-1 31a384 384 0 0 0 1 29c3 4 3 5 2 6v1c2-1 2-4 1-9l-1-3 3 1h16l28-1c10 0 10 0 12 2l2 6c0 2 0 3 1 2v-7c-4-2 1-3 11-3h12v6l-1 7-19 1a3092 3092 0 0 0-56 0l-11-1c-2 0-3-1-5-3 0-2-1-3-2-3v3c2 1 0 3-2 2-2 0-2-1-1-4v-9a1219 1219 0 0 1 1-56c0-2 0-3 3-2l5-1-2-1c-4 1-7-1-7-6v-3h11l-1 15zm21 14h4l-1 19c0 19 0 21-4 21v-34c-1 0-2 2-2 5 0 25 0 29-2 29l-2-8v-20c-1-12-1-13 1-12h6zm29 1 5 1-1 2-1 5-1 6-1 13-1 10-4 2h-4l1-4v-36l7 1zm36 1h4v6l-1 9c-1 15-2 22-3 22l-5 1-4-1-1-16-1-19-1-3h4l8 1z"/><path d="M70 11c-2 2-1 4 2 4 2 0 3-1 3-4-1-2-3-3-5 0zM69 69l1 6v2c-1 1-1 3 1 2V65c-1-4-2-2-2 4zM69 86c-2 1-2 2-1 2 1 1 3-1 3-3l-2 1zM73 144l1 4c2 3 2 3 3 2l-2-7-2 1zM73 157c0 6 1 9 2 7v-4l1-6c1-1 1-2-1-2l-1-1-1 6zM116 201l-3 1 2 1 5-1c4 0 4 0 3-1h-7zM92 203c-1 0 1 3 3 3l3-2v-2l-2 1h-1c0-1-2-2-3 0zM150 229c0 5 2 7 2 3 1-3 0-6-1-6l-1 3zM151 238l-1 3v9c0 5 1 8 2 9s1 1 1-1l-1-12v-10l-1 2zM149 270l1 3 1-2v-4l-1-1-1 4zM228 286v7c3 0 4-7 1-8-1-1-1-1-1 1zM166 287l1 3 2-1 1 1c-1 1-1 1 1 1l1-1v-2c1-1 1-1-1-1h-5zM206 289c3 3 4 3 4 0l-1-1-3-1c-2 0-1 1 0 2zM178 290c-1 1 0 1 2 1l8-1h-10zM192 291l3 1 3-1-3-1c-3 0-4 0-3 1zM204 248l-1 28 1-12a146 146 0 0 1 1-17l-2 1zM237 249v24c1 0 2-1 2-4l1-13-1-8-2 1zM178 46v5l-2 17c-2 15-2 15-1 24l1 8-5-3c-4-3-8-5-29-14-15-6-23-11-26-17-1-3-2-1-1 3l5 7 6 6a109 109 0 0 0 37 34l-5 1c-6 0-18 4-26 8l-8 4-8 4-11 5c-5 1-7 4-2 4l5-2c3-2 5-2 8-1h23a98 98 0 0 0 26-5l-4 5c-5 5-9 11-13 20-6 13-11 21-20 29-2 3-2 4 0 4 1 1 2 0 3-1 1-2 5-4 9-6 11-6 26-17 34-25l7-7v5c2 9 8 26 12 33 3 3 6 9 6 12l3 7 2 2c2 0 2-1-1-10v-9c2-9 2-32 1-38v-6l4 3 18 13a250 250 0 0 1 37 19c3 3 4 4 7 4h4l-3-1-5-5c0-2-3-6-6-8l-8-11-10-10-12-12-12-8-6-3 10-1c10-1 19-3 29-7 6-2 9-3 15-1l4-1-10-4-19-4c-6-2-12-3-19-3l-9-1 6-8c8-11 11-18 11-34 1-9 0-12-1-6l-4 4c-4 2-12 12-26 32l-3 4v-6c-2-10-7-23-12-31-2-3-3-4-3-9l-1-7c0-2-2-3-2-1zm7 26 2 5c3 7 6 21 6 28l-1 7-2-1h-5c-3 1-3 1-5-3-2-6-3-24-1-35l1-8 3 3 2 4zm43-3c-2 8-5 20-7 21l-2 2v2l-6 10-3 5-13 5c-2 0 0-12 1-12l5-5a205 205 0 0 1 23-30c2-3 3-2 2 2zm-88 16 24 11 5 3c1 2 3 2 4 2l1 1 1 3c2 1 3 5 2 8 0 2-1 3-4 3-5 1-11-2-21-11-12-11-27-26-23-25l11 5zm97 28 16 5-11 4c-10 3-13 4-25 4h-17c-3-1-3-1-3-5s2-6 10-8 20-2 30 0zm-44 2c3 4-1 12-7 12-5 0-8-4-8-9 1-3 1-3 4-5 4-1 9-1 11 2zm-16 9 3 5-8 2-30 5h-25l5-2c1-2 4-3 5-3l8-3c9-5 22-8 30-9h9l3 5zm19 11a172 172 0 0 1 4 20c2 9 1 38-1 37l-2-3c1-2 0-2-3-7-2-1-4-4-4-6l-6-20a88 88 0 0 1 2-25l7-4 3 8zm9-6 6 3 3 2 9 6a146 146 0 0 1 33 34l-8-3a117 117 0 0 0-20-9l-6-4-12-8c-7-6-8-7-11-14l-3-8 3 1h6zm-23 3-1 6v8c0 5-15 20-33 31-8 6-11 7-8 3l2-3 2-3 6-10c8-16 19-30 26-32l4-2c2-1 3 1 2 2z"/><path d="M182 77c-1 1 2 28 2 30 2 2 3 1 3-2l-1-12c-1-14-2-20-4-16zM214 85l-5 9-5 9c-2 2-3 4-2 5s5-5 8-12a79 79 0 0 1 8-13c0-2-2-1-4 2zM149 96c-1 1 6 7 17 16 3 2 5 3 5 0l-1-1c-2 0-8-4-9-7l-6-6-6-2zM237 117c-1 1-9 2-28 2l-6 2 5 1a436 436 0 0 1 31-3c2-1 0-3-2-2zM186 118c-1 0-2 1-2 3s1 2 3 2 3-1 3-2c0-2-2-4-4-3zM166 124l-10 1-17 5 13-2 10-1 6-1c2-2 2-2 0-2l-2-1zM190 139v5l2 4v-11c-2-2-3-1-2 2zM192 150v8l1 2c0 2 3 6 4 5l-1-5-2-8c0-3-1-4-2-2zM193 167l1 6h3l1-4-1-1c0 3-1 2-3 0l-1-1zM208 137c-1 1 0 4 4 7l5 4 3 2 2 1 15 12c2 0 1-2-1-4l-1-2 1-1-2-1-5-3-5-3c-2 0-5-2-11-8-2-3-5-5-5-4zM170 145l-5 8c0 1-2 4-5 6-4 5-5 7-3 7 1 0 7-6 12-13 2-4 5-9 7-10 2-3 2-4-1-4l-5 6z"/></svg>