<svg version="1.0" xmlns="http://www.w3.org/2000/svg" viewBox="0 0 300 300"><path d="M69 1c-4 1-12 7-13 10s0 6 5 12l4 5-1 19c-3 50-2 47-7 48l-6 3-8 5c-11 7-15 12-16 19-1 14 4 17 25 17h15l-1 29v36l-1 8 26-1c26 0 48 1 50 2l1 20a1026 1026 0 0 0 0 60v4h10l23 2h29l21-1h19v-5l1-6c-1-3 1-34 2-38 2-8 1-9-5-8l-10-1c-6-2-7-2-5 6l1 19v15h-8c-14 0-15-2-8-28 3-14 3-14-5-13-5 1-7 1-9-1-4-2-4-1-3 11v30l-4 1-6 1c-2 0-2 2-2-24v-20h-16l-3-1v8l2 21c1 15 1 18-5 16l-3-1v-34a638 638 0 0 1 1-49c-1-2-54-2-65-1-11 2-11 3-10-29v-27l4-1c6-1 9-3 8-6l1-4c3-1 6-16 4-18v-3l2-4c0-2 1-3 2-3l1-6-1-4-8-1H81V56l1-37c3-5 2-14-3-16s-8-3-11-2zm9 6c5 4 1 15-6 15-5 0-10-3-10-5l-1-3c-2-2 1-6 4-6l4-2c3-2 7-1 9 1zm16 87 2 1 2 2c5 1 1 3-8 3-11 1-19 2-23 4l-5 2-3 1c0 2-5 10-6 10l-2 4c1 1 7-3 7-5l4-3 1 3v11l-1 7v3h-9c-17 0-23-3-24-12 0-4 0-5 4-9a281 281 0 0 0 13-11l6-4c7-6 32-10 42-7zm8 1c1 1 1 1-2 1l-3-2c0-2 4-1 5 1zm-4 11c0 3 0 3-4 3l-23 3c-1 0-2-6-1-7 6-3 27-2 28 1zm-30 4c1 1 0 2-1 2-2 0-3-2-1-3 1-1 3-1 3 1zm28 4c1 3-1 6-3 6a308 308 0 0 0-22 0l-3-1-2-2c0-2 3-3 4 0 1 1 1 1 2-1 0-1 1-2 5-3h6c7-2 13-1 13 1zm-1 11c0 2-2 2-15 4h-8v-3c1-4 22-6 23-1zm-26 0c1 3-2 3-3 0 0-2 0-2 2-2l2 2zm23 7c3 1-1 4-6 5-13 2-18 0-13-5 1-2 14-2 19 0zm-23 1c1 2 0 4-2 4-2-1-3-6-1-6l3 2zm85 69c2 7-4 12-9 7-2-2-3-3-2-7v-4h5c4 0 5 0 6 4zm22 40-1 1-1 1v2c-1 0-2 3-1 6 0 6-1 8-2 7v-9c-4-3-1-9 3-9l2 1zm31 6-1 8c-1 1-1 0-1-4v-5c-2 0-3 2-3 6l-1 3h-1c-1 1-1 0-1-2v-4c-2-1-1-6 1-6l1-1 3-1h4l-1 6zm-29 0v15c0 9-2 7-2-4l2-16 1 5zm66-3v3l-2 18c0 13-1 14-6 14h-3l-1-14v-23c1-1 12 1 12 2zm-42 27c-1 5-4 6-3 1 0-3 2-5 3-4v3z"/><path d="M70 10c-2 3-1 5 2 5 2 0 3-1 3-3 0-3-3-4-5-2zM236 248v8l1 3v15c3-1 5-27 2-27l-3 1zM178 52l-2 18-1 21c1 9 1 9-5 5-4-3-14-7-26-12-15-6-26-13-27-17l-2-1c-2 1 1 7 5 10l6 7c4 7 20 23 31 29 6 4 6 5-1 5-5 0-16 4-26 10l-9 4-4 1-9 4-7 4h8c2-2 4-2 7-1l11 1 32-4c5-2 5-1 1 4-7 8-8 11-12 20-5 12-10 18-16 25-5 5-6 6-4 7 1 1 1 1 3-1 1-2 5-4 9-6 10-6 28-19 35-26l6-6v5c2 9 8 26 13 33 2 4 5 9 6 14 3 11 7 10 4-2l-1-11 1-25v-18l3 2c7 6 18 13 21 14 13 5 32 15 35 19 3 3 4 4 7 4 2 0 2 0 0-1l-4-5-7-9-8-10c-4-7-26-27-32-30-7-3-7-4-1-4 9 0 22-3 32-6 8-3 9-4 14-3h6a569 569 0 0 1-48-12h-9l7-10c7-9 10-19 10-31 0-8 0-9-1-7l-3 4c-3 1-10 8-20 22l-9 13-1-5c-2-10-8-25-13-32l-2-8c0-5-1-8-2-8l-1 6zm48 27-3 9-1 2-6 8-2 4-1 1c0 4-14 13-16 10-2-1 0-9 2-11a374 374 0 0 0 11-16l10-11c9-11 10-10 6 4zm-39-2a87 87 0 0 1 5 20v14h-5c-6 0-6 0-7-4-3-7-3-30 1-39 0-2 3 1 6 9zm-48 8 7 3c5 1 13 5 20 10l6 3c3 1 6 9 5 12s-8 4-11 2l-4-3c-8-4-31-26-31-29 0-1 3-1 8 2zm97 28c13 3 16 5 11 7-15 8-49 10-50 3-1-10 20-16 39-10zm-45 0c4 4 1 14-5 14-3 0-6-3-7-7s-1-5 5-7h7zm-14 11 2 5c-3 2-25 6-39 7h-17l-3-1 2-2c2-2 17-8 20-8l8-2c9-3 11-4 19-4h6l2 5zm18 9 3 12 2 12c2 9 1 27-2 27-11 0-20-53-10-55 4-1 5 0 7 4zm15-1 4 2c3 0 27 22 26 23l-5-2-5-2-2-2-4-2c-2 0-5-2-10-7-4-4-5-5-6-4s2 5 9 10c12 8 23 19 16 15l-8-4c-8-4-14-8-18-12l-3-3-4-8-3-7h5c3 0 6 1 8 3zm-28 6c0 10-1 12-12 23-8 7-26 20-28 20-1 0 1-6 3-8l5-9a127 127 0 0 1 8-15c0-5 17-19 23-19l1 8zm65 25c3 7 3 7-2 5-6-2-8-3-7-6s7-2 9 1z"/><path d="m213 85-4 9-5 9-2 4c1 0 5-5 8-11l5-9c2-3 3-5 1-5l-3 3zM182 77c-1 2 1 27 2 30 1 1 3 0 3-1l-1-12c-1-14-2-19-4-17zM149 97l12 11 9 6c2 0 1-2-3-5l-5-3c0-2-6-7-9-8-3-2-4-2-4-1zM232 118c-6 1-4 3 2 2 5 0 6-1 6-2h-8zM207 120l7 1 11-1h-18zM186 118c-4 1-2 5 1 5s3 0 3-2c0-3-1-4-4-3zM153 126a748 748 0 0 0 8 1l8-1c2-3-3-2-16 0zM191 151l1 2 1 5 2 5v-3l-1-6-1-4-2 1zM193 169c-1 2 1 5 3 4 3 0 3 0 2-3l-1-1h-2c-2-2-2-2-2 0zM170 146l-4 7-4 5c-6 6-7 10-2 5l5-6 7-10c5-5 5-8 3-8l-5 7z"/></svg>