<svg version="1.0" xmlns="http://www.w3.org/2000/svg" viewBox="0 0 300 231"><path d="m226 2 1 1c-2-1-6 0-6 2l-1 1 1 1 2 2h-5V8h-1c-3 3 1 9 5 6 1-1 2-1 3 1 2 2 7 1 8-1 0-2-1-6-3-6l1 1-1 1h-5l1-1c3 0 5-4 2-7l-3-2 1 2zM51 2l-1 1h6-1l-3 1-2 1-1 1c1 1 0 2-1 2l-2 4c-1 3 2 5 6 4h4c6 2 9-4 5-8l-2-3c0-3-4-5-8-3zM98 2c-1 2-2 5 0 7h-4l-1 1v5l9 1h7v-4l-1-4-2-2c0-4-5-7-8-4zM139 2l-1 3-1 2v1l1 1-1 1c-3-1-6 3-4 5 7 4 19-1 15-6h-1l-1 1h-5l2-2c2 0 2-1 2-3-1-4-3-5-6-3zM184 3c1 1 0 2-3 1l-3 1-2 3c-2 1-3 2-3 5s3 5 6 3h5c6 2 9-2 5-6l-3-5-2-3v1zM262 18c-3 2-5 6-5 12 0 9 3 9-80 8-53-1-80 2-106 12-4 2-6 2-9 1-4-1-10 0-12 2l-6 1-7 3-7 4c-4 1-8 5-11 9 0 2-2 3-2 3-2 0-11 9-13 13-5 8-5 17 0 22l3 6c1 3 6 4 10 2 1-1 2-1 3 2 3 7 13 10 20 7 4-3 4-2 3 5-1 6 0 12 2 18 1 2-7 6-15 7-7 2-11 10-7 14 1 2 1 2-1 5-3 4-3 9 1 10 2 1 3 2 2 4l2 4c4 4 10 2 17-9 6-9 7-8 3 2-4 9-5 13-3 16 1 2 6 3 8 1 0-1 1-1 3 1 3 3 7 3 9-1l2-1c6 6 12-4 9-12l-6-24c0-5 2-5 6 1 3 5 3 7 0 9-6 5 1 17 8 13l2-2 2 4c2 3 2 4-3 6-2 0-3 1-2 2l-1 1c-1-1-1 0-2 1l-1 1-1 1v3c-3 2-3 6-1 6 2 1 2 1 0 5-2 3-2 3 0 4 1 2 0 8-1 7l1 2c6 5 13-2 14-14 0-11 4-17 12-17 6 0 12-4 15-10 1-3 3-4 6-6l4-2 3 3 2 2-2 2c-3 2-3 6-1 9 3 4 8 4 10-1l1-2 3 2c11 7 25 10 38 8l7-1-6-6c-8-8-22-14-32-14l-2-2c0-4-2-6-5-6s-7 3-7 5l-1 1c-2 0-2-3 0-6l2-4 10 1 18-1c8-2 8-2 10 0l4 2 5 3c4 3 7 4 9 2l3-2c3 0 5 0 5-2l2-1v-2c-1-1-1-2 1-3 2-2 3-3 2-4s0-2 2-4c2-3 2-4-3-5-4-2-10 1-15 6l-5 3 3-4c14-13 16-19 16-35 0-18-10-35-24-40-4-2-4-2 0-11 5-13 6-14 9-14 8 2 18 2 21 1 3-2 8-2 32-2 30 0 33 0 34-5l3-5 3-4c-1-1 1-3 2-2s1-2-1-5l1-2c2 1 2 0 0-2-2-3-7-3-9-2-3 1-3 1-3-1l1-2c1 0 1-1-1-4v-3c4-3-5-5-10-3zm7 12c2 0 3 3 1 3l-1-1-1-1-2-1h3zm13 3h-1l-4 1h-4c0-1 8-3 9-1zm-1 4c1 1 0 2-2 1l-3 1-2 1c-2 0 3-4 5-4l2 1zm-87 2-11 1-12-1h23zm63 1c-2 3-1 4 1 3h8l-3 1h-6l-7 2-3 1 11-1h1c0 3-52 3-63 0l-3-1 2-3 2-3 11 1c14 1 44 1 47-1l3-1-1 2zm-89 1c0 2-1 2-14 1l-14-1c-10-1-2-2 12-2 15 0 16 0 16 2zm23 1c2 2-2 4-9 3l-9-1-2-2c0-1 19-2 20 0zm-80 1h-5l5-1h3l-3 1zm21 6 5 18 4 14c1 1-7 7-9 7l-7-14-12-21c-6-9-5-9 12-10h6l1 6zm-35-4a197 197 0 0 0-27 9c-1-1 8-5 12-6l10-2 8-2-3 1zm65 3a854 854 0 0 0 38 5c-1 2-2 2-13 2h-18l-6 1 8-1 11 1h-2l-12 1h-6l-1-1v1l-1 1c-1-1-10 0-10 1 1 1-2 2-5 2h-4l4-1 3-1h-4c-5-1-6-2-7-9l-1-4h9l17 2zm-53 5 9 15 5 10-2 2c-21 24-16 62 9 73 5 1 5 1 5 5-1 6-1 6-9 2-29-14-38-46-21-75l3-7c-5 1-9-7-7-14 1-3-6-3-15 0l-4 2-5-5c-6-5-5-6 7-9 19-6 20-6 25 1zm133-1zM64 55l11 8 5 5-6-6c-10-7-18-10-23-8-1 1-1 0 0 0 3-3 7-2 13 1zm185-2zm-11 3h-9l4-1c5 0 8 0 5 1zM54 59l17 12a163 163 0 0 0 20 15c-2 0-9-5-18-12-19-15-28-19-34-16-2 2-3 1 0-1s9-1 15 2zm146-2c5 1 5 1 1 1l-8-1h7zm-17 2-3 7c-5 9-17 40-17 42 0 4-2 3-4-2l-2-5 5-17 5-20c0-3 1-4 6-4l10-1zm-22 12-2 7-4 1-7 1c-1 1-2 0-3-3-3-5-2-6 1-7 4-2 4-3 4-5l5-2 6-1c2-1 2 0 0 9zM44 65a407 407 0 0 1 19 12c-15-9-21-13-25-13-6 0-9 0-13 3l-4 2 3-2c5-6 12-6 20-2zm55-1-7 1a161 161 0 0 0-8 2c3-2 16-5 15-3zm49 1c0 2-3 3-6 3l-1-2c-1-2 0-2 3-2l4 1zm-54 8v4l-4-3c-4-3-4-4-1-5 4-2 5-1 5 4zm-58 1c4 2 8 6 8 9s-4 3-9 0c-7-6-14-8-18-5-1 1-1 1 4 1 6 0 19 7 15 8h-4c-5 1-10 6-13 13s-3 7-9 8-10-9-6-17c6-14 22-23 32-17zm55 3 6 5-7-5-6-5 7 5zM65 89l5 2-4 1c-4 1-8-2-11-7-2-4-1-5 2-2l8 6zm87-6-6 2-4 1 10-4v1zm-23 7c0 4-11 16-14 14-1-1 3-10 7-15l3-5 2 2 2 4zm-32-5-2 6-4 9c0 5-1 5-3 1l-6-5-4-3 4-1 6-2 5-3 4-2zm60 1c0 2-1 4-3 4l-2 1c-1 1-2 2-3 1-2 0-2 0-1 1l-1 1c-1-1-4 0-3 1l-1 1c-5-3-12 14-9 21 3 6 3 11 0 17l-2 7c-1 4-10-2-14-8-3-6-1-13 4-19l6-9c4-8 9-13 16-17 7-3 13-4 13-2zM42 89c-1 1-3 2-7 1-4 0-5 0-9 2l-4 3 3-3c3-2 4-3 10-3l7-1 2-1-2 2zm140 2c24 13 22 53-4 68l-4 3 2-1 2-1c2 0-2 2-4 3h-1l-2-1-4 2-3 1h-3l-2 1h-4c-3 0-4 0-2 1v1l-4-1-5-2c-4 0-4 0-3-5l1-4 6 1c25 4 46-12 45-35-1-9-4-19-7-18v-1c0-2-6-8-9-8-2 0-4-3-4-5 1-2 3-2 9 1zm8 4 5 4-6-5-7-6 2 1 6 6zM52 95l3 1-7 6c-4 3-6 5-6 3l2-8c0-8 1-9 3-6l5 4zm-18 0-2 2-5 3c-4 4-5 3-3-1 3-5 10-7 10-4zm38 0 5 2c11 4 13 24 5 46-4 9-5 16-3 20 1 4-1 4-3 1l-3-3c-4-2-4-5-1-9 10-12 10-36 1-40-8-4-17 4-10 9h4c5-2 7 3 3 10-2 4-2 4-6 2s-9-2-13-1c-5 2-3-7 5-18 4-6-3-7-9-1-5 6-9 8-13 8h-4l3-2c2 0 3-2 3-3l1-1 9-8c10-10 20-15 26-12zm79 3 1 3 1-1v-1l1 2v2l1 4h1l1 1c-1 1 0 4 1 3l1 1c-1 2 2 9 3 8l1 1c-1 1 4 11 5 10l1 1 3 7 3 7-3 2c-5 3-8 1-13-10l-16-29-2-4 2-3 9-6-1 2zm-118 2c-3 4-2 6 0 3l2-3-1 3c-2 3-2 6-1 10 2 3 0 6-2 5-2-2-1-4 1-3 1 0 2-2 0-3l-1-4-2-4c-3-2-3-3 1-4 4-3 4-2 3 0zm140 0c9 5 15 15 14 26-1 6-4 15-6 16-2 0-17-24-17-27l7-16 2 1zm-156 9-7 1c1-1 5-2 6-1h1zm38 2-2 1-6 4c-9 8-16 10-21 5-1-1-1-1 0 0l2-1v-1l1 2c-1 2 4 2 8 1l10-6c6-6 7-7 8-5zm19 3v2l-2-1-5-1h-3c0-2 7-1 10 0zm78 24v5l5 5 2 3h-7c-10-1-11-1-7-12l3-10c0-4 1-4 4 0 2 4 2 5 0 9zm-59-4 4 9c5 7 5 7 2 6l-5 1c-5 2-6-2-4-14 0-6 2-6 3-2zm-31 1 3 2-3-1c-2-2-6-3-11-2l-3 1 3-2c3-1 9-1 11 2zm-1 2c2 2 1 3-6 7l-4 2-1-2c-1-4-1-5 1-6 3-2 7-2 10-1zm114 3c2 4 3 7 0 4l-4-8 4 4zm-34-2c2 2 0 5-2 4v-3c0-2 2-2 2-1zm19 7 2 4-2-3c-4-3-7-7-4-5l4 4zm-101 2c0 2-2 4-13 11l-8 6-1-3-2-4c-1-1-1-1 1-2l12-5c11-6 11-6 11-3zm41 4-3 1-5 1-3 1c0-1 6-4 9-4l2 1zm-14 6v6c-2 4-1 6 3 7 2 0 3 3 1 5-2 1-2 1-4-2-1-2-1-3-4-3-1 1-2 1 0 0 2 0 2 0 1-3-3-5-3-14 0-13l3 3zm-32-1c-3 3-10 7-9 5l11-7-2 2zm68 3 3 3-10-6-2-2 2 1 7 4zm83-4c2 1 1 1-3 2l-5-1h2l2-1h4zm-90 6c4 3 2 6-3 5-4-1-4-1-3-4s3-4 6-1zm-86 1c4 3 2 7-3 7-2 0-4-4-2-7 1-2 3-3 5 0zm29-1-7 9-8 11c-1 2-1 2-2 0l-3-2c-2-1-1-2 8-10 10-9 12-10 12-8zm10 11 3 13-1 2-3 1c-2 0-2-1-2-14l1-14 2 12zm38-11c1 1-2 5-5 5-4 1-4-2 0-4s5-2 5-1zm97 3h-1l-4-1h-3 1l2-1c1-1 5 0 5 2zm-72 5-3 4c-2 0-7-5-7-7v-2l5 2 5 3zm52-4h3l3-1c1 2-5 3-7 2h-2l-3 1 1-2h5zM56 177l-2 10h-6l3-8c4-14 7-14 5-2zm56-4c0 1-1 4-8 12l-5 7-4-3 4-5 5-8c2-4 6-6 7-3zm-84 3c3 2 3 5 0 6-5 2-8-1-5-6 1-2 2-2 5 0zm69 4c1 1 1 2-1 4-3 2-4 3-4 0 0-5 2-6 5-4zm-63 5c3 2 2 5-1 6-5 2-9-4-4-7 2-1 2-1 5 1zm77 1c0 2-5 6-7 6s-2 0 1-4 6-5 6-2zm41-2-5 1h-3l8-1zm12 3 4 1-2 3-3 6v4c-7 0-11-5-9-10 3-6 4-7 10-4zm15 8 5 5-3 1c-10 2-15-1-11-8 3-3 3-3 9 2zm-105 0c1 2-1 6-3 6s-5-3-5-5c0-4 7-5 8-1zm-24-1c3 1 2 6 0 7-3 2-6-2-6-5 1-3 3-4 6-2zm11 1c3 2 2 9-2 9-3 0-5-7-2-9h4zm30 9c-4 5-5 4-1-1l3-4-2 5z"/><path d="M10 93c-5 4-7 8-3 11 4 5 9 0 8-7v-7c2-3 1-3-5 3zM279 69c-12 3-16 10-15 23 2 8 13 14 20 9 1-1 1-1-2-1-10 0-14-18-6-27 3-4 9-4 13-1l2 4h5l4-2-2-2c-5-4-9-5-19-3zM218 70h-3l2 3c3 2 4 8 2 28-1 12-1 13 2 11h9l-2-3c-2-3-3-13-1-13l10 3 13 2 3-1 1-11V74c1-5 0-6-7-5-4 1-4 1-2 3v25c-2 1-11-2-14-5l-3-3V69h-4l-6 1z"/><path d="M292 89c-3 0-3 0-3 4l-1 5c-3 2-2 2 2 1 3-2 6-5 6-8 1-2 1-3-4-2z"/></svg>