<svg version="1.0" xmlns="http://www.w3.org/2000/svg" viewBox="0 0 300 443"><path d="m150 3-1 6-4 12c-5 9-5 9-1 5l4-5 1-6 2-5v7c1 9 2 10 4 10l1-2-3-12c-1-9-2-13-3-10zM178 5c-1 0-2 2-2 8l-1 11-2 4h5l7 1c1 0 2 0 2-2 0-3 0-3-2-2h-7l1-5 1-8 2-5c1-3 0-4-4-2zM105 6c-2 1-2 1 0 3 2 1 3 1 3-1s-1-3-3-2zM114 8c-2 2-2 4 2 8 2 2 1 7-2 7-2 1-2 1-1 2 4 4 8-6 5-12-3-3-3-6 0-5l1-1c0-3-3-2-5 1zM128 7v18c-1 3-1 3 2 3s3 0 2-2c-2-5-1-8 3-8 7 0 11-7 6-11-3-3-15-3-13 0zm12 4c0 4-3 7-6 5-3-1-3-6 0-9 2-1 5 1 6 4zM158 7l3 9c1 9 2 11 5 11l-1-4-2-9-3-8h-2zM170 15l-1 10 1 2c1 0 3-11 3-18 0-9-3-5-3 6zM188 6v3l2 9c0 8 1 9 5 10h4l1-10 1-11c-1 0-2 3-3 10-2 16-6 11-6-8 0-2-4-4-5-3zM87 9c-3 4-3 4 1 9 3 4 2 8-1 8-3-1-3 2-1 3 5 1 8-8 5-13-3-4-3-7 0-7l3-1c1-2-4-1-7 1zM207 10c-1 3-1 5 1 9 3 5 2 8-1 7l-2 1c0 2 3 2 6 1s3-6 0-10-3-7 0-7l2-2c0-2-5-1-6 1zM100 12c-4 7-1 15 5 15l2-2-2-1c-3 1-5-8-3-13 2-4-1-2-2 1zM163 42c-6 1-10 2-16 7l-6 4c-2 1-6 8-7 13 0 4-1 4-4 4-2 0-3 0-3 2-1 3 0 4 4 4 3 0 4 0 6 2l4 3-2 4c-5 9-10 12-26 18a46 46 0 0 0-11 5l-14 7h-1c-2-1-15 7-16 10l-3 4c-1 2-1 6 1 9l-3 7a291 291 0 0 0-17 30l-13 26a240 240 0 0 1-18 32 79 79 0 0 0-9 15l-1 2c-1 1 0 2 1 2l4 2 3 2c1 0 4 4 6 9l6 8 1 3c1 3 0 3-5 5-14 5-19 14-11 21 3 3 4 4 2 6-2 3 2 11 6 11 1 0 1 1-1 8l-4 12a123 123 0 0 1-9 25l-2 1-1 2c1 4 1 4 7 4 6 1 7 2 7 6-3 10-4 32-2 30h3l4 1c4 0 5 4 5 20 0 13 0 14 2 13l5-1a160 160 0 0 0 41-16l9-4 14 5h3l8 1c10 3 70-2 70-5l9 2c7 3 8 3 12 1l4-3c1-3 4-2 12 0 10 4 11 4 14 0l3-4c3-3-2-5-13-5-5 0-6 0-9-4-3-2-7-5-11-6l-6-2 3-6c14-28 23-75 17-88l-2-8c0-8-11-16-24-16a99 99 0 0 1-27-6c-4 0-6-4-5-6l1-7c2-10 2-10 7-5 3 2 5 5 4 5l2 1 3 2c2 2 7 0 15-5l12-7 6-3 1 3 2 4 2 4 4 8c2 6 2 6 2 20-1 18 0 20 8 20 4 0 4 1 3 5-6 16-7 26-1 27 7 1 7 1 8 6 0 5 3 7 8 6 3 0 9-4 8-6l2-3 3-2-2 2-1 3 2-1 2-3c1-1 2-2 1-3-1-4 11-10 12-6h1c0-3 2-3 4-2h1l-1-1a153 153 0 0 1 0-35l4-1c6 1 9 0 8-2l-1-1c1 0 0-2-2-3l-2-6v-1c0 1-4-3-4-5l-2-4-2-3-4-5-5-7-3-3c-4-3 0-8 6-6 9 3 19-5 18-14-1-6-1-6 1-6 9 0 9-14 1-23-1-1 0-2 4-4l4-1 1 1-1-6v-7l-1-10-2-15-6-23-3-8-2-10-1-4h-9l-10 1-4 2-6 1c-7 2-8 1-10-4l-11-24c0-4-3-6-5-5-1 2 4 17 9 28 4 8 4 8 1 8l-10 2-12 2c-12 2-21 5-23 7-1 1 0 12 2 13v5l-1-3c-2-5-7-10-14-14l-6-4-2-1c-3 0-7-4-7-6s0-2 1 0c2 4 11 1 10-3v-5l-1-5c-1-1 1-2 3-1l1-2 1-2c1-1 5-9 6-15l5-13c6-11 7-19 4-27-1-3-3-5-4-5l-1-2-1-1h-2c-3-4-16-6-23-5zm18 6h-3c-2 0-3 0-2 1v3c-1 3-1 3 1 3 1-1 1-1 0 0l-1 3c1 0 4-4 4-6 1-4 10-1 10 4h-1c-1-3-3-3-3 0-1 2 1 4 3 3 1-2 2-1 3 5 0 5-1 7-3 4 0-1-5-1-11 1-3 0-8-3-8-6h-2l-1-1h-3c-4-2-8 0-11 4-2 4 3 9 9 9 2 0 3 0 2-1-1 0-1-1 1-2h3l2 1c3-3-6-8-12-7h-2c3-4 9-3 15 2l4 2c3 0 3 2 0 5-2 2-1 5 2 5v1l-1 7c0 3 0 3-1 2l-3-1c-2 0-2 0-1-2 0-2 1-2 2-2l2-1-1-1-1-1c0-2-1-2-3 1-3 4-4 7 0 8 4 0 3 4-2 4-6 0-12 6-11 11l1 2v-1l1-2 2-1-2-1c-2 1-1 0 2-3 3-4 15-4 17-1 1 2-1 6-3 6l-1 1c1 1 0 2-1 3-3 3-5 8-5 9l-2 6v-2l1-4c-1-3-1-3-1-1-1 3-3 2-3-1 0-2 0-3 2-3 2 1 3 0 3-1l2-1 1-4v-2c-1-2 0-3 3-3l2-1-2-1-5-1-4 1c0 1 1 2 2 1 2 0 3 4 1 6l-1 3-1 2c-1 0-1-4 1-5v-2l-2 1-1 2 1 2-2 1c-1 0-1-4 1-7l-1-2c-2 0-3 9-2 11l1 6v3l1 2c0 4-3-1-3-6l-2-5c-2 0-3-1-3-3 1-3-2-6-4-4l-1 3h2c1-2 1-2 2-1v1l-1 1c0 2-1 2-3 0-2-1-3-4-1-4l1-1-2-1c-2 1-2 0-1-1l-1-2c-1 1-1 0-1-3l1-16c1-15 1-16 5-22 3-4 15-13 19-13 3-1 10 0 11 1zm-29 9-4 3-1 2c1 1-2 3-4 2-1-1-1-1 2-3 4-2 4-3 4-5h1l2-2 2-1-2 4zm10 13-1 2h-1c-3-1-2-4 0-4s2 0 2 2zm-18 3-1 4-1-1v-3l-2-1-1-1 3-2 2 4zm42-3c2 1 2 1 0 1s-2 3 1 6c1 2 1 2-2 7l-4 8c0 3-1 4-2 4h-1c1 2 1 2-1 1l-3-2 3-3c3-1 4-4 3-11-1-5-1-6 2-4l4 2-3-3c-4-2-4-3-1-6h4zm-43 16 1 2c1-1 1 0 0 0l-1 2c-2-2 0 17 1 19l1 1c0 1 3 6 5 6v-1h1c1 1 2 2 1 3 0 2 0 2 1 1l3 3 3 2v2l-2 1-8-2c-11-2-25-8-25-10l4-3c4-2 9-11 9-16l2-6c4-8 5-9 4-4zm-16 16-27 13a391 391 0 0 0-29 14c-1-2 8-9 14-11a42 42 0 0 0 11-4c1-1 2-1 1-2l1-1c1 1 2 1 20-8 11-5 13-5 9-1zm5 0-7 9c-5 5-11 15-14 22l-2 8c-1 9-2 9-2 1l4-14c3-7 3-8-1-3-3 4-5 12-5 17v3l-5-3-5-3-6-1h-5c0-5 13-16 26-23 8-4 12-6 17-11 6-6 7-7 5-2zm-8 17-1 6-1 6h-7l7-14 2 2zm-32 5c-9 8-15 22-19 45a100 100 0 0 1-11 29c0 2-11 16-22 27l-10 12c-2 5-15 15-17 13-2-1-2-1 1-3s3-2 2-3c-2-1-2-1-1-2l2-2 2-4c4-3 17-22 23-33l16-28a284 284 0 0 0 25-48c1-2 3-3 7-5 8-4 8-4 2 2zm40 1c0 1 1 2 2 1v-2l3 1c2 1 3 7 1 8-1 1-1 4 1 4l1-2 1-2 1-4c-1-4-1-5 2-3 4 2 5 3 4 5-1 3 0 6 1 6l1-2 2-2c2 0 1-3-1-5-1-1-1-1 1-1l3 2c2 2 3 3 3 0l1-1c1 0 3 7 2 10l1 2v-2l2 1c2 3-1 5-5 4v1c1 2-5 1-7-1l-4-2c-1 0-2 1-1 2l-1 2c-2 0-2-1-2-3l-3-2c-5-1-7-2-7-4l-1-2-2-2-1-3-1 3c0 2-2 3-3 0-1-2-1-3 1-2v-1l-1-2-1-2h3c2-2 3-2 4 0zm142 2c-2 4-5 5-6 3v1l-13 3-7 1c-1 0-2-1-2-3v-4h6c-2 1-3 2-2 3h11c4 0 4-1 4-3 0-3 1-3 3-3l2-1 3-1h3l-2 4zm6 2 2 7 2 8 1 4v5c2 1 2 2 1 2v1c2 1 2 3 2 9l1 6 1 2v3l2 4v10c1 8 1 11-2 10a361 361 0 0 0-15-63c-1-4-1-7 2-11 2-2 3-1 3 3zM75 139a736 736 0 0 0-24 43 1208 1208 0 0 0-12 17 243 243 0 0 1 12-22l3-4v-1a175 175 0 0 1 18-33c4-8 8-13 9-12l-6 12zm168-8 1 4 1 2v1l-3-1h-13l-25 6c-6 1-7 1-5-1 0-2 1-2 3-2v-1a2233 2233 0 0 1 35-9c4-2 4-3 6 1zm-70 9c2 1 1 3-4 5-2 0-6 3-8 5-5 5-4 4 1-3l5-4v-4l-4-4-1-3 4 3 7 5zm-52-6 9 5 6 3 6 6c0 2-3 1-4-1l-1-1-1 3v3l-5 17c0 3 0 3-1 1-1-3-1-9 1-15v-5c-3 0-5 18-2 24 0 2 0 2-3 0l-11-8-1-16c0-16-1-16-3-4l-1 6 1-7c0-12 1-13 10-11zm153 10 3 13 2 9 2 6 1 3a1319 1319 0 0 0 2 24l-11 3c-10 3-15 4-13 2s1-4-1-4c-3 0-5 4-5 10l-1 4-1-3c1-3 0-4-2-6s-2-2-1-3v-3c-1-2-1-2-3-1-2 3-3 7-1 9l1 4c0 3 0 3 1 2v-6c-2-3-2-4-1-5s1-1 1 1l2 3 1 6c0 2 0 4-1 3h-1c-1 2-3 0-3-3l-2-5-1-4v-3c-2-1-6 2-6 5l-3 1c-2-1-3-1-4 2l-4 3h-7c-4 1-8-4-8-10l-1-7c-2-6 0-9 2-4l1 2v-2l-1-2v-1l1-3c0-2 4-6 6-6s2 20 0 20l1 1c4 1 5 0 4-2v-3l-1-2c-3-4-1-15 4-18l4-5c0-4 3-4 6 0 4 4 11 4 10-1h-1l-1-1c1-1 0-2-1-2 0-1-1-1 0 0l-1 1-1-1-1-2v-2c1-2 0-3-2-4l-3-2c-4-2-3-4 1-2h6v1c-1 1 0 1 5 3 5 1 6 2 7 4 0 2 2 4 3 5 2 2 3 3 2 5 0 3-2 4-2 1s-5-7-7-5l-1 9v1l-2 1c-2-1-3 1-2 3l-1 1c-1-1-3 0-4 1h-7l-2 4-1 1v-2c-2 0-1-2 1-4s1-5-1-3v-3l-1-3-1 2-1 3v17c0 3 2 1 3-3 1-1 2-2 3-1l1-1c-1-1 0-2 3-1 4 0 6-1 7-3l1-3 1 3c0 2 5 2 6 0h3v-1l2 1c1 3 2 2 2-3 0-4-2-6-3-2-1 2-1 2-4 2-3-1-3 0-3 1 1 1 0 2-1 2l-1-1c0-2 2-4 3-3 1 0 2-2 2-6l1-7 1 3c0 4 5 6 6 2 0-2 1-2 3 0 2 1 6 0 6-2l1-2c1-3-2-6-5-4l-1 2c0 3-2 0-5-6s-3-6-1-8c1-1 2-2 1-3h-5c-2 0-2 0-1-1 3-2 2-4 0-7l-3-4-1-1h-1c-1-2 21-6 23-4l3 10zm-43-4-1 2c-5 3-12 10-7 8l15-1 8 2 7 2h2l-2 1c-2 1-4 1-6-1-6-3-20-3-19 0l-1 1c-3-1-2 2 1 2l9 4-4-1h-5l2 1 4 2h-2c-2 0-3 0-2 1 2 1-5 10-8 10v-4c2-6 0-8-2-4l-1 4c2 1 0 5-3 7-4 3-4 3-3-1l1-5 1-1 1-1 1-2c2 0 2 0 1-2l-2-1-2 1-2 4-1 5v4c1 4-6 4-8-1-1-4 20-35 25-35l1-1h2zm17 4c5 4 3 4-3-1l-2-3 5 4zm-153-2 2 1-5 3c-6 3-14 11-14 13 0 3 1 2 3-1 2-4 8-9 13-11h2a83 83 0 0 1-14 11l-2 5c-3 5-3 7 0 3 15-21 23-24 29-12 3 8 3 12-3 14-5 1-8 3-10 7-1 3-1 5 1 3h2v-1c0-2 1-3 3-5 5-4 5-4 2 1l-3 8c0 2 0 2 3-3 2-4 7-10 9-10s16 10 16 12h1c3-1 12 6 11 9v1l1-1c0-2 3-1 4 1 3 3-8 11-23 18l-8 4-6-6-8-6c-11 0-28-20-26-30 2-13 5-22 7-20h1c1-9 3-11 12-8zm146 0h-6l4 2c4 0 12 5 11 6l-5-2c-4-2-10-3-15-1l-1 1h1-2c-2 0 1-5 4-5l1-1h8zm-20 1-5 5c-3 3-7 9-9 14-4 7-7 10-7 6l1-1-2-4-3-12c1-1 4 10 3 11l1 1c1 0 0-7-2-11-2-5-2-6 10-8 9-2 13-2 13-1zm-39 3c5 2 9 8 7 10-7 5-15 16-22 31l-5 9c0 3-1 3-5-1l-8-6c-5-3-6-4-4-6l3-5c3-7 18-27 20-25l1-1 1-3c1-4-20 18-24 25l-1 2 2-5 2-4h1l7-10-2 1-2 2 1-2 3-3 4-3c7-7 15-9 21-6zm-26 2 1-1c2-1 2-1 0 2l-2 2-1-1v2l-7 14-7 15c-1 3-5-1-5-5 0-13 4-26 9-26l6-2c6-2 6-2 6 0zm33 11c-6 7-14 19-19 29l-6 10 6-14c6-11 18-28 21-28l-2 3zm5 3 3 7 2 6-4 4a96 96 0 0 1-21 13l-6 4c0-3 15-27 18-30l-4 7c-4 7-8 18-7 17l7-12 8-15c1-1 2-3 1-4l1 1 2 2zm-60 8-2 7 1-9c2-11 2-9 1 2zm133 0v3h-2v-2l1-2v-2c1-2 2 1 1 3zm-66 10c1 2 3 3 5 3 3 1 3 1 1 2l-2 3c-2 6-17 22-19 21l-3 1 2 1v1l-4 2c-2 1-5-1-4-2l-1-1c-1 1-1 0-2-1 0-2-1-3-2-3v2l1 5v1h3c5 3-9 10-17 8h-6v-7c-1 1-3-3-3-4 1-1 0-1 0 0-2 2-2 3-1 5 2 4 1 4-6 1l-7-2 9-4 11-7 6-3 8-4c16-10 19-12 18-10l-1 5v12c2 0 3-5 2-11 0-6 0-7 3-9l3-3v8l2-5c-1-1-1-4 1-6s2-2 3 1zM84 193c5 4 14 9 16 9s13 9 11 10l-5-3-6-4c-7 0-28-17-28-22 0-4 1-4 5 1l7 9zm3 8 10 5 7 3c2 2 1 2-13-3l-8-2 3 1 7 4 8 3 2 1H82h6l-3-2c-3-2-4-3-6-2-2 0-2 0-1-1s1-2-3-5c-6-6-7-10-6-14l1-3 6 6c3 3 8 8 11 9zm68-5c4 4 4 4-10 11-11 6-12 6-15 5-4-2-3-2 4-6 4-2 9-5 11-8 6-5 6-5 10-2zm50-1 1 2c1 2 1 2-1 2l-3 1h3c2 1 2 1 0 6l-1 8v4l-9 1-24 5 6-4c8-5 15-12 22-20 4-5 8-8 6-5zM76 209c3 3 4 5 3 5l-10-2c-10 0-10 0-6-9l4-7 2 4c1 3 4 7 7 9zm213-8c1 3-14 9-19 8h-3l-1 2-4 1c-2 0-2 0-2-2s1-3 6-4l14-4c8-2 8-2 9-1zm-47 7c1 2 2 4 1 5 0 4-2 4-2 0l-1-5-2-3c0-2 3 0 4 3zm16 2c2 2-2 7-5 7-2 0-1-1 1-3 2-3 3-4 2-7 0-2 0-3 1-2l1 5zm-50 9v14l-4 2-9 7c-11 13-20 21-11 11l5-7c7-10 14-16 14-13l1 1 1-9c0-8 2-20 3-20v14zm80-6c5 10 4 15-2 15-2 0-2 0 1-2 3-4-2-13-10-15-3 0-1-2 3-2l3-1c0-3 3 0 5 5zm-255 0a207 207 0 0 0-7 11l4-8 5-7-2 4zm23 1-4 6-2 3-2 8c-5 9-7 18-7 25v5l-2-3-2-10c0-8-1-10-2-3-1 4 1 13 4 17s3 6 0 3c-3-2-7-10-8-16 0-4 0-4-1-2-1 3 1 12 3 15l5 5 7 11 5 8-3-1c-8-2-15-7-15-10l-2-4-5-9-6-8c-2-2-2-2 1-4 3-3 4-3 2 0l7-6 21-21-10 9-10 9 4-5c7-7 18-19 21-24 3-4 4-3 1 2zm160 3 3-1c-1-1 2-2 3-2l-2 5-2 9c-2 8-7 14-15 18a118 118 0 0 0-24 17l-2 1-2-1h1l11-10c12-13 19-18 21-18s2-1 2-13l-1-13 2 5c2 3 2 4 5 3zm-88-5 2 2-3 1c-19 7-34 10-45 10-2 0-1-1 6-2l13-4 7-2 2-1 1-1c1 1 5 0 8-2 7-2 6-2 9-1zm109 3-1 3v-2l-1-2c-1 1-2-1-1-2 0-2 3 1 3 3zm41-1 6 4c1 1-1 1-3-1l-9-4-3-1c2-1 3-1 9 2zm-205 1 9 2-15-2h-8l-1-1 3-1 12 2zm159-1 1 3c-1 0-4-1-4-3-1-1 1-1 3 1zm42 2c4 2 7 6 6 10v2c2 0 4 12 2 15-1 2-2 2-5 2-5-1-7-3-6-5s1-2 3 0c3 4 5 4 5 0 0-3-9-20-13-24l-2-3h3l7 3zm-48-1-10 26-7 7c-9 5-9 3 0-3 5-3 8-9 11-20l3-9c1-2 3-3 3-1zm38 1c2 1 9 14 8 14l-4-5-5-7-3-3c0-2 2-1 4 1zm-35 4-3 13a109 109 0 0 0 1 47l1 5-2-3-4-6-3-5-1-3v-4l2-1v-4l-2 1-2 2-3-5c-3-6-3-8 0-9s8-12 11-24c3-9 6-11 5-4zm-162-2c6 1 23 1 29-1l2 1-37 8-7 1c-2 1-2 0 0-5s3-6 5-6l8 2zm69 0c0 1-2 3-4 3l-8 3c-9 4-36 8-39 6H65l-7-2h5l17-2c23 0 38-3 50-8 3-2 6-2 6 0zm115 3-6 4c-3 1-5 4-4 5l5-4c8-7 8-5 0 3l-5 6-1 2-1-3-1-8-1-6c-1-2-1-2 2-2h15l-3 3zm7 0-3 7c-5 12-9 26-7 25l2 2 3 5c5 6 3 4-3-2l-5-6 3-8 3-10 4-8c2-7 3-9 4-9l-1 4zm-21 17a610 610 0 0 0-2-2l-2-10v4a293 293 0 0 0 5 53l3 22 1 16c-1-1-1-2-2-1-1 0-7-8-8-12-1-2-1-2-2-1l-2 1-4-1c-6 0-2-11 6-14 2-1 2-5 0-13-4-15 0-66 4-61l3 19zm-95-17 9 3 6 2 2 7c3 9 9 18 13 21 5 3 5 2 1-3-5-5-9-11-12-18l-3-7c-2-5 4 2 8 8 5 11 12 21 13 20l-1-3-3-5-1-2-8-14 5-1a692 692 0 0 0 20-1c-7 4-18 12-17 13l7-4c6-5 13-9 17-10l-2 2-5 3-1 1c-1-1-6 3-10 7-4 3-4 3-2 3l4-3 3-2 16-10c5-5 1 1-6 8l-12 14-7 8-4 3-5-5-8-8-1-1-8-8-11-13c-4-4-5-5-3-6s3-1 6 1zm61 1-3 1h-6a490 490 0 0 0-29 3l5-1 11-1c24-5 23-5 22-2zm64 5 3 5 2 3-3 4-5 6-4 6-2 3 4 5 5 7 1 1 3 4 12 19-4-4-5-5-3-4-4-5a214 214 0 0 0-15-19l-2-2c-1-1 0-6 2-6 3 0 3-2 2-4s-1-4 1-8c2-2 3-6 4-9 2-5 2-5 4-2l4 5zm-136 5c0 6 0 6-1 2v-9l1 7zm12 2 8 10c5 3-5 34-12 42l-3 4c0 2 2 1 4-2 1-2 2-3 4-3v-1l2-4c3-6 6-15 7-22l1-6-1 12c-2 14-6 22-14 30l-4 6 13-14c2-3 2-3-1 7-2 5-6 10-9 10-2 0-4 2-4 3 0 2 2 1 4-1 3-3 4-2 3 1-2 3-2 6-1 6l-1 3-1 3-1-3-4-7-2-7c-1-3-1-4-9-12-2-3-3-4-2-5 6-2 15-11 18-18 0-2 1-3 2-3v-2c0-3-2-2-4 2-1 4-6 13-8 14l1-4c3-8 5-16 4-24 0-7 0-8 1-7 2 0 3-3 1-5l-1-7c-1-8 0-7 9 4zm106 2c-6 14-7 17-4 19 6 4 6 6 5 27-1 19-1 32 1 30l1 4v6c2 2-1 13-6 22-5 11-7 11-2-1a98 98 0 0 0 6-18c1-6-2-3-3 3-4 14-9 24-9 19 0-4-2-7-5-7l-1-1h-1c-3 2-3 0 0-4 4-5 8-8 12-9 2 0 3-1 3-2 1-5 0-20-1-30a477 477 0 0 1-6-44v-10l6-6 6-9c3-3 2 0-2 11zm-120 4c0 13-1 19-6 30l-4 11 11-19-1 6c-3 9-5 12-9 14-3 2-6 0-4-2 5-7 10-27 10-43 1-14 2-12 3 4zm-5 0c-1 15-2 19-6 31-4 9-4 9-6 8l-3-8c-1-3-1-3 1-1l2 2-1-3-2-9c-2-6-8-15-14-22l-5-6h4l11-2 12-2c8-3 7-4 7 12zm-60-9c8 1 9 2 11 5l2 3-4-1-9 3c-5 2-11 8-8 7 2-1 2 0 2 2v3l2-2c4-7 17-12 19-8l2 3c4 5 7 14 3 11-4-4-14-5-20-3-4 2-4 2-3 0l-1-1-1 2-4 3-6 4c-2 2-1 3 3 0 3-2 3-1 0 3s-5 10-3 13c1 1 1 1 1-2 0-5 2-10 6-13 4-5 6-5 2 0l-4 9v8c-1 6 1 3 2-4 3-15 9-21 21-17l7 2 2 2c2 0 9 5 9 6l-4 3c-8 2-18 13-17 18 1 2 1 2 2-1 3-7 11-14 17-16 2-1 2-1 1 1l-3 1c-1 0-9 11-9 13l2-1 2-1 1-1c-1-1 4-8 8-11l4-2 4 3a174 174 0 0 1 22 25c7 8 14 25 9 22l-1-3v-2l-1 1c0 3-4 7-7 7-4 0-6-1-14-10-8-7-17-12-33-16s-33-18-31-25v-8a221 221 0 0 1 6-32c-1-1-4 10-5 18a84 84 0 0 1-2 12l-2 3c-2 2-1-15 1-22 2-6 2-5 1 2-2 14-2 15-1 15l1-5 5-24v-1c-2 3-2 2-1-1 1-2 2-2 3-2l11 2zm15 3h2c4 0 28 36 26 39-2 1-15-14-16-18-2-7-5-14-9-18-3-3-2-3 2 7l6 13c0 3 0 3-1 1a255 255 0 0 0-12-25l2 1zm11 2c7 7 14 18 14 22l-4-4c-1-3-7-12-12-17l-4-5 6 4zm-21 6-7 4c-2 3-3 3-3 2 0-3 8-8 12-8l-2 2zm8 14h-5c-4 0-5 0-3-1s7 0 8 1zm31 11-2-2-2-5 4 7zm155 7 9 9c10 10 10 11 5 11l-4 2c0 2-11 18-14 21-5 3-5 3-4-1l3-16a346 346 0 0 1 1-15c-2-1-2 5-3 16l-2 8v-4l1-32v-7l3 2 5 5zm-93 8 6 1-4 2c-12 7-37 38-33 42l2-1c3-9 24-28 40-38 7-4 7-4 4 4l-11 31-4 13a655 655 0 0 0-10 30c-1 0-1-5 1-14l2-9c-2-1-3 2-4 8-2 9-2 10-6 5-8-12-11-20-8-19l8-1a259 259 0 0 1 16-3l-1-1c-2 1-3 0 0-1 2-1 2-1-3-1l-18 3h-1a361 361 0 0 1 22-10l-5 2h-1l-7 3-10 4c-4 2-4 2-5 0-2-5-2-13 0-15l2-2 3-5 6-12a882 882 0 0 1-4 6l-4 4 2-5 5-12c3-6 4-9 7-10 3-2 3-2 13 1zm57 4c3 2 3 3-3 9l-5 5 1-5 1-11v-5l2 3 4 4zm-192-4c2 2 3 3 1 3l-10 4-10 4c-2 0-3 3-2 4h4l10-6-10 11c-2 0-6-4-6-7 0-5 4-9 17-14 3-1 3-1 6 1zm146 3c-5 3-18 12-25 19l-5 5 3-5c6-7 17-16 25-19h2zm15 10c-1 12-2 15-7 28-4 11-5 11-1-1l7-31c1-11 1-8 1 4zm-147-8c4 2 4 2-6 8a177 177 0 0 0-26 16c0-2 4-8 5-8l1-1c-1-2 10-14 14-15 5-2 6-2 12 0zm137 12a526 526 0 0 1-21 67l-2 5v-3l1-6a874 874 0 0 0 22-63zm7-8c-2 16-9 39-16 52-5 11-5 13 1 14 8 2 15 14 8 13-4-1-7 1-7 3l-8 8-3-4-3-3 2-5 2-6 1-4 7-24a665 665 0 0 0 16-44zm9-3 5 6c5 5 5 6 1 8l-12 11 3-1 11-8-2 2a266 266 0 0 0-15 11c3-5 5-17 5-24 0-9 1-9 4-5zm50 11c0 3-1 1-1-5l1-5v10zm-184 0 4 13a185 185 0 0 0 9 32c1 4 4 8 5 7l-2-5c-4-10-12-37-11-39l2 4a396 396 0 0 0 18 45c0-1 3 0 5 3 15 12 23 16 34 17l11 1h13c8-1 9-1 9 1l-14 1a94 94 0 0 1-30-4c-4 0-18-6-20-9l-3-1-1-1-1-1c-5 0-22-15-22-19l-1-1c-1 1-7-6-10-12-4-6-7-20-8-31v-9l6 3 7 5zm-20-2a210 210 0 0 0-8 15 1654 1654 0 0 0-25 41c-1-1 5-19 8-26l2-6c0-4 3-13 4-14a427 427 0 0 1 19-10zm1 4-4 7 4-8 4-6-4 7zm4 7-1 3-4 10-2 13-11 42c-1 7-2 7-10 0l-9-7c-6-1-7-2-5-5 0-2 2-3 2-3v2c-2 4-1 4 2 1a142 142 0 0 0 17-27c7-11 10-15 9-16l2-5 6-10 4-7v9zm25-6c2 1 3 3 4 8 2 9 5 14 10 19l6 7c5 7 3 1-3-7-7-11-10-17-11-22-1-3 0-2 3 4 7 15 31 34 47 37 6 0 6 2 1 3-9 2-14 2-25 1H99l-5-4c-7-8-9-12-16-34l-3-12h3zm11 4 4 7c10 16 32 31 45 31 3 0 2-1-3-2-16-5-27-13-36-25l-6-9c1-1 23 16 23 17 0 6 14 6 17 0 2-3 5 3 5 11l2 3 4 8c0 2-19-4-26-9-9-6-14-9-19-14-9-8-17-23-10-18zm183 10-1 12-3-3c-2-2-4-2-8-3-2 0-4 0-3 1 11 4 15 8 8 8-4 0-5 1-7 5l-7 9-5 5 3-6 4-11 2-6v-1c-2-3 0-6 3-7 4-2 7-5 11-10l2-4 1 11zm-59-8c3 7-1 15-21 32l-6 6c1 1 18-14 23-20 6-8 7-5 0 3-6 9-20 19-23 17l-6 4-4 3 3-5c5-7 9-15 11-20a1095 1095 0 0 0 16-17c5-5 6-6 7-3zm-189 4c-2 4-3 5-5 3-1-2-1-2 1-3l2-1 2-1 2-1-2 3zm31 2a768 768 0 0 0-18 70v-7a624 624 0 0 0 17-65l1 2zm187 9 2 1-1 1-5 1-3 1-2 2c-1 1-1 1-1-3v-2l-1 5c-1 3-4 9-5 8l4-17 1-5 5 4 6 4zm-204-1a360 360 0 0 1-18 27l6-10a297 297 0 0 1 12-17zm18 0-1 19c-1 25-2 38-3 37a478 478 0 0 1-7 27 375 375 0 0 0 5-51 1552 1552 0 0 0 6-32zm2 19a176 176 0 0 1-2 15 424 424 0 0 0 2-15zm156-7-1 7-5-1c-6 0-6-1-2-4l5-6c4-5 4-5 3 4zm-31 6-4 5 3-6 3-5-2 6zm-113 4 5 8-6 20c-3 7-2 9 1 3l1-2c0 5-3 9-4 8l-3 2c0 2-2 3-3 3v3c0 3 2 2 2 0l1-2 1 1 1 1 2 1h2c1-1 1-1 4 2l3 3-5 2-8 4-5 2v-9c-2-2 0-35 3-55 0-5 0-5 8 5zm138-2c1 1 0 1-3 1s-5 0-4-1h7zm0 4-7 5-6 4v-4l1-5h12zm-16 8c-2 10-2 12-4 8s-3-5-7-6c-5-1-5-2 4-6 9-5 8-5 7 4zm18-3-4 11c-1 5-2 8-1 9 1 3-8-3-11-6-2-3 0-8 4-10l8-5c5-3 4-3 4 1zm-108 7 16 10 9 5c-2 2-31-17-34-21 0-2 0-2 9 6zm47-2a525 525 0 0 1 10 14c5 5 4 5-8 5-17-1-33-7-46-18l-3-3h14l17-1h4c-1 2-12 4-21 3-9 0-9 0-5 1 7 3 22 2 30-3 6-4 5-4 8 2zm-64 3 3 2 1 7c0 8 0 8-2 8-3-1-7 1-7 2l-8 4c-1-1 5-20 6-20l-1 7-1 5 4-9c2-9 2-9 5-6zm10 7-1 22-2 24-2 1v-2l1-11a414 414 0 0 1 4-34zm-49 5-3 17c-1 2-7 2-8 1h-1l-2 1-8 5-5 5-1-3 1-7 1-3v-11l3 2c5 4 11 7 13 7l3 1c1 3 2 1 2-2l2-8 1-7c0-3 1-2 2 2zm61 1 8 4c2 0 3 1 2 2l-6 15c-1 6 1 3 4-5 5-13 5-12 4 7v19H98l1-11 1-34 7 3zm87 0c5 2 5 3 1 4l-6 2c-4 1-5 1-5-4 0-3 0-3 3-3l4-1 3 2zm-97 17v20c0 4 0 5-2 5-1 0-2-1-1-6l1-17 3-18-1 16zm87-4v4l-4-1c-6-1-11-6-6-6 2 0 5-4 7-7 0-2 1-2 1 1l2 9zm-94-5-1 8-1 7v2c0 2-3 5-4 3h-3l-1-1c1-1 0-1-1-1-3 0-2 3 1 4l2 2 3-1c3-1 3-2 2 5v5l-3-1-4-2-4-1c-5-1-5-11 0-11 3 0 5-4 5-8 0-10 2-13 7-13 2 0 2 0 2 3zm103 1-5 4 11-6c3-3 4 0 1 2v2l-1 1-2 3c0 2-1 2-2 2l-2 1 2 1v5l-3 5c-1 2-1 3-2 2l-1-2c1-1-4-6-6-6l-3-3-2-2h2c3 0 4 1 3 3l1-1c3-2 3-2 2-8-1-3 1-4 7-6 5-2 5-1 0 3zm-70 14c0 15 2 25 2 14v-5l1 4c0 3 0 4 1 3l1-17v-15l13 1 17 1 5-1-8 4-21 10c-1 2 1 2 4 0l25-12-9 6c-8 5-20 14-17 14l25-17c5-4 5-4 8 1 2 3 2 3 0 4l-10 7 6-3 6-3c2 0 7 3 7 5-1 1 0 1 1 1h1l-5 1-9 1-7 2-4 1h4l8-1 4-1-4 1-5 3-3 1-1 1 11-2c13-4 18-3 11 2-4 2-6 2-16 3-10 0-15 0-22 2a76 76 0 0 1-19 3l-3 1v-8l2-29v17zm-43-13-1 6c0 4 0 4-2 2l-5-3c-4-2-4-3 1-4 5-2 7-2 7-1zm-28 12v13c-1 3 0 4 4 4l10 2c-2 6-30 27-30 23 0-2 3-4 5-4 5 0 7-3 7-11a192 192 0 0 1 4-38v11zm-8 8-3 18c0 4-3 2-7-4-4-5-9-12-10-11l-6-2 1-1 7-5c5-4 7-5 11-6l6-2c3-3 3-3 1 13zm82-6c0 2-1 1-1-3l1-3v6zm-69 5c0 3 0 4-2 4l-1-2 1-7c0-6 2-2 2 5zm12 3c-1 3-2 3-6 3-5 0-5-1 1-4 5-2 5-2 5 1zm131 2c0 2 2 3 3 2l-1-1-1-1c0-2 2-1 3 1 0 2 2 3 4 3l3 2 11 6 4 1h-4l-7-1-5-2c-8 0-19-8-17-13 1-3 7 0 7 3zm-5 5 7 7c2 1 1 3-2 3l-2-2c0-3-2-6-4-6v2c2 2 3 7 1 6l-2-3c-1-4-3-7-4-5h-5c-4 0-4 0-4 3v-1c-2-3-5-5-4-2 1 2-1 2-3 1-2-2-1-3 3-4l8-3c3-3 4-3 11 4zm-123-2 6 3c15 6 44 7 72 1 12-2 16-3 18 0l6 4 5 2h-4l-6 1-3-1h-5c-1-1-7 0-7 2h-13l-1 1v-1h-1l-5 1h-4c-1 2-10 2-17 1a211 211 0 0 0-15-3l-5-1-5-1-5-1-11-4-12-3-3-1h15zm-2 6c0 1-12 12-15 13l6-6c7-8 9-9 9-7zm120 4c0 2 0 2-2 0v-4c1-2 3 1 2 4zm-111 0c0 1-7 5-8 4l-3 2-3 2h-1l-17 8c-6 2 0-2 6-4 4-1 6-3 12-8l7-8 4 2 3 2zm-36 7c4 0 2 3-2 4-3 1-6 2-7 4l-3 2v-4l1-10v-4l5 4 6 4zm2-4c0 2 0 3-1 2l-1-3 1-2 1 3z"/><path d="M169 50c0 3 3 4 5 3 2-2 1-3-1-3h-2l-1-1-1 1zM165 53l-1 4 2-1 1-4c0-1-1-1-2 1zM181 54c-1 3 0 4 1 2h1c0 2 3-2 3-4s-4-1-5 2zM179 59l-1 2c0 1 1 2 2 1h9l-3-2c-4-2-7-2-7-1zM151 81l-2 1-1 2 1 2 2-1h3c3 0 1 2-2 2-2 0-3 1-3 3l-1 4-1 2c0 1 2 0 3-3 2-4 3-4 8-4 2 0 3-1 4-3 0-2 2-3 2-3l2-2c0-2 0-2-1 0h-4l-2 1-1 1c1 2 0 3-2 1-1-1-2-2-3-1-2 0-2 0-1-1l1-2-2 1z"/><path d="M151 95c-2 3-2 4-1 4l4-7-3 3zM154 95c-2 4-2 5-1 5l1-1 2-3 1-3c0-1-2 0-3 2zM158 96l-4 5c-2 2-2 3-1 3l2-2 4-5 3-4-4 3zM52 194v5l1-1c1-1 0-5-1-4zM157 134l-1 5c0 3 0 3 1 1 2-3 3-6 1-7-1-1-1-1-1 1zM263 153v2h2c2-2 2-4 0-4l-2 2zM271 154h-2l-1 1 1 1c1 1 4 0 4-2h-2zM245 174c-4 1-4 3-1 2 3 0 4-2 4-3l-3 1zM263 179c-2 2-3 4 0 4 2-1 4-4 2-5l-2 1zM272 190l-4 3h-2l-2 1c0 1 7 2 10 1 2-1 3 0 3 1h1l-2-3c-2-1-2-1-1-2 2-1 1-2-3-1zM120 184c-3 4-3 6 0 6 4 0 10-7 7-7-4-1-4-1-7 1zM109 190l-1 3h-2l-2-2v1l1 2v1c2-1 5 1 4 2-2 1 0 3 2 2h4c4 0 4 0 1-3l-3-2c-1 1-3 0-3-2h1l1-1-1-1h-2zM120 192v4c0 4 1 4 3 2l1-1c-1 0-2-1-2-3 1-2 0-3-1-3-2 0-2 0-1 1zM160 172l-2 4c-3 3-1 3 2 0 3-2 3-2 4-1 2 2 2 2 2-1l-4-3-2 1zM181 196l-1 3-2 3v1l2 1 2 3c2 1 2 2 1-7-2-6-2-6-3-4zM191 196c0 2 1 3 2 3 3 1 3 1 1-2l-2-3-1 2zM160 210l-2 4 1 4 3 4c2 1 3 0 1-2s-2-10-1-11v-1l-2 2zM165 213c-1 1-1 1 1 3s3 3 3 0-2-5-4-3zM135 244l2 6v-4c0-3 0-4-2-2zM103 235c-2 1-3 1-2 2 2 1 5-1 5-3v-1l-3 2zM111 244v4c2 2 3 0 2-3l-1-3-1 2zM63 282c1 3 3 4 3 2 1-1 0-2-2-3s-2-1-1 1zM92 288l1 1c3 1 13 5 13 7l5 1 4 2h1l-1-2-3-2-4-2-4-1c-6-4-12-6-12-4zM105 301c-1 2-1 2 1 3l3 1 3 1c3 0 3 0 0-3s-6-3-7-2zM122 307c-2 1-1 4 1 4 1 0 2-1 1-2v-3l-2 1zM265 287l-1 3v6c2-1 2-3 2-6l-1-3zM170 303c0 3 0 3 2 2l2-1-2-2c-2-1-2-1-2 1zM158 311c-1 2 0 8 2 8l1-1-1-1c-1 1-1 1 0 0l-2-6zM60 313l1 2 3 6 1 4 3 4c0 2 1 3 2 3l-4-9-1-3-2-6c-2-2-3-3-3-1zM35 347c-5 7-6 11-3 7l7-13-4 6zM23 365c-2 1 0 2 3 1l3 1c0 1 1 1 1-1 1-2 1-2-2-2h-2c0-1-1-1-3 1zM136 363c0 1 6 4 7 3l-1-1-2-2c1-1 0-1-1-1l-3 1zM83 390c1 4 4 6 4 2l-2-2-1-1c-1-1-1-1-1 1zM35 404c-1 4-1 5 2 3v-3c0-4-2-4-2 0zM25 54v7c2 5 2 9-1 9l-2 1c0 2 4 1 5-1 2-3 2-8 0-11v-6l2-1c1-2-3-1-4 2zM96 60c-2 1-2 3-1 7l-1 5-1 1 2 1c2 0 3-5 2-9v-4l2-2c0-2-1-1-3 1zM46 63l-1 3c0 2 0 2-4 1h-4l-1 1c-2 0-3 3-2 5s3 1 2-2c0-2 0-2 2-2l2 2c0 2 1 2 4 2h4v-5c0-6-1-7-2-5zM68 64v10c1 0 2-3 2-7 0-3-1-5-2-3zM125 67c-2 3-5 11-4 12 2 1 3-1 4-6l3-5c1 0 2-2 0-2l-3 1zM107 67l-2 3-1 5 1 2 2-3c0-3 4-5 4-1l2 1c1 0 2 0 1 2l1 2 2-2 2-2c2 0 3-3 2-5-2-2-5-1-6 2l-1 2-1-2c2-4-1-6-6-4zM51 68c-2 2-1 6 1 6s2 0 1-2c-2-2-1-3 2-2 1 0 2 1 1 3 0 2 3 3 4 1v-1l-1-2 2-1 1-1-3-1-4-1-4 1zM72 72l1 2 1-2-1-3c-1 0-2 1-1 3zM76 70l-1 3 1 2c2 0 2-1 2-3l-1-3-1 1zM81 71c-2 2-2 3 0 4 2 0 2 0 2-2v-2l2-1c0-2-3-1-4 1zM99 71c-1 2-1 3 1 3 3 0 3-1 1-3s-2-2-2 0z"/></svg>