<svg version="1.0" xmlns="http://www.w3.org/2000/svg" viewBox="0 0 300 443"><path d="M149 6c0 5-3 14-6 18-3 5-3 6 1 2 3-3 5-7 5-11 1-5 3-3 3 3 0 5 2 9 3 9v-2l-2-12-3-10-1 3zM179 5l-2 1v10a29 29 0 0 1-4 12h4l7 1c2 1 3 0 3-3 0-2 0-2-1-1h-8a323 323 0 0 1 4-21l-3 1zM115 7c-3 2-2 4 0 8 3 3 2 7-1 8l-2 1 2 1c5 1 7-7 3-12-2-3-2-6 0-6l2-1c0-2-2-1-4 1zM127 6l1 2c1 1 1 14-1 18 0 2 0 2 2 2 3 0 3 0 2-5v-5h3l6-2c2-1 3-2 3-5 0-4-3-6-10-6l-6 1zm13 5c0 4-3 7-6 5-3-1-3-1-2-4 0-4 2-6 5-5 2 0 3 2 3 4zM159 7l2 8c1 7 3 12 4 12 2 0 2-1 1-3l-3-9-3-8c-2-2-2-2-1 0zM170 9l-1 11c0 10 2 9 3-1V5c-1 0-2 1-2 4zM105 7c-1 1 0 2 2 2l1-2c0-1-2-2-3 0zM187 7l2 2 1 8c0 8 1 10 6 11h3l1-8 2-10-1-3-2 3c-1 9-2 16-4 16s-2-2-3-11c0-8-1-8-3-9h-2zM88 10c-4 3-4 3 0 7 3 4 3 8-1 8-3 0-4 2-1 3 2 1 5-1 6-4 2-3 1-5-2-8-3-4-2-7 1-7 2 0 3-1 1-2l-4 3zM208 10c-2 2-2 5 0 9l2 5c0 3 0 3-2 2l-3 1c0 2 4 2 6 1 3-2 2-6 0-10-3-4-3-8 0-8l2-1c0-2-3-1-5 1zM100 13l-2 6 1 3c0 3 8 7 8 4 0-1-1-2-2-1l-3-2V9l-2 4zM149 36l2 1c2 1 2 1 1-1h-3zM162 42c-6 1-9 3-15 7l-6 4c-2 1-6 8-7 13 0 4 0 4-3 4s-4 0-4 2c-1 3 1 4 4 4 2 0 4 0 6 2l4 3-2 4c-4 7-9 11-18 15-18 7-32 14-32 15v1l6-3 1-1h1l1-1a255 255 0 0 0 33-14l-11 9c-3 1-5 3-5 4l-2 2v-2l-16 6-7 4-19 11h2l-1 2-1 3-1-2v-4c1-3 7-9 12-11 4-2 6-4 4-4l-13 7c-5 4-7 12-4 15 1 2 0 3-4 10l-8 14-8 14-7 14a294 294 0 0 1-23 43 102 102 0 0 0-10 16l-1 2c-1 1 0 2 1 2l4 2 4 2 5 7 5 9 2 3 1 3-5 2c-14 5-20 16-11 23 3 2 3 2 2 4-3 3-2 6 0 8l2 3 2 1c3 0 3 0 0 9l-5 14c-4 13-8 25-9 24-1-2-2-1-1 2l1 3c12 1 12 1 11 6l-1 30h3l4 1 4 3c2 2 2 3 2 17-1 13-1 14 1 13l6-1c16-4 31-10 41-17l7-3 15 5h4l8 1a302 302 0 0 0 69-5l8 2c6 2 10 2 13 1l4-4c2-2 5-1 13 2 7 2 8 2 11 1l3-3 2-3c2-3 0-4-10-5-8 0-9-1-12-3l-10-7-7-3 2-4c9-16 20-56 21-74 0-8-1-10-3-15l-2-7c0-3-2-7-6-11-6-5-9-6-18-6a77 77 0 0 1-27-6c-3 0-6-3-5-5l2-9 1-8c1 0 10 8 9 9l2 1 3 2h6l9-5 18-10 1 3 3 5 2 4 3 7c3 5 3 6 2 21-1 16 0 19 8 19l3 1-2 9a198 198 0 0 0-3 15c-1 4 0 6 4 6 7 2 7 2 8 7 0 3 1 5 2 5 4 3 9 1 12-2l1-1-2 1 3-5c5-4 8-6 4-2l-2 4 2-1 2-3c1-1 2-2 1-3l2-4c2-2 3-3 6-3l4 1h1c0-3 2-3 4-2h1l-1-1-1-16-1-16 1-1 1-1c0-2 1-2 4-2 9 0 9 0 8-2v-1l-2-3-3-5v-2c0 1-4-4-4-6l-2-4-2-2-4-5-5-7-3-3v-6h6c3 1 4 1 9-1 5-3 8-5 7-6l1-1 1-6c-1-6 0-6 1-6 8 0 9-8 4-18l-3-7 4-2 4-1 1 1-1-6-1-8v-7l-2-14-6-26a115 115 0 0 1-5-18l-1-4h-9a52 52 0 0 0-14 2l-8 2-6 2-2-5-5-11c-1-4-3-6-3-5l-1-2c0-4-4-12-5-12-3 0-3 1-1 8l3 5v1c0 2 5 16 8 19 1 2 1 2-12 5a241 241 0 0 1-23 4l-8 2c-5 1-5 7-2 14l1 7v2l-4-9c-1-2-6-7-12-10l-6-4-6-1-1-1-1-3-2-2-1-4c-2-1-3-3-2-4l-1-2c-1 1-6-4-4-5 1-1 1-5-1-7h-2l-2 3h2c1-2 1-2 2-1v1l-1 2c0 2 0 2-3-1s-3-4-2-4c3 0 2-2 0-2s-2 0-3-3l1-7c2-4 3-5 1-3V80c0-9 0-12 2-16 2-5 10-12 16-15 5-3 7-3 11-3 7 1 13 5 15 9 1 4 2 14 0 14l-2-1h-8l-6 1-3-3-3-3-4-1c-5-1-5-1-8 1l-4 4c-1 2-1 3 2 5l7 3h4l-4-1c-4-2-6-5-4-6h4v3c-1 1-1 1 0 0l1 1h7c1 0 0-2-2-3-3-2-9-3-12-2h-1c3-4 5-4 9-3 2 1 5 2 6 4l5 2c2 0 2 0 2 5v11l-1 3-1 1-4-1c-2 0-3-1-1-3 2-1 3-6 2-6l-1 1-2 3c-3 3-2 6 1 7 2 0 2 1 2 2 0 2-1 2-4 2l-5 1c-4 3-7 7-6 9 1 1 4 0 4-1l-1-1c-3 1-2 0 1-4 3-3 7-3 14-1 3 1 4 5 1 8-6 6-7 8-7 13l-1 5c-2 0-1 6 1 7l2-2 1-1c2 0 4-2 3-4v-5l-1-3c-2-1-2 0-2 2v2l-1-3c-1-3 1-4 5-3l2-2 2-3 1-3 2-3 1-4c0-4 3-12 7-20 3-5 4-7 4-13l-1-12-2-4h-1c-1 0-2 0-2-2l-1-1-3-1-5-2-4-1c-3-1-8-2-14-1zm12 2-8 1 4-1h4zm-9 2c0 1-8 6-10 5l-2-1v1c3 0 2 3-2 7l-3 4-1 2c-1 1-1 2-2 1v-2h-1l-3 1 2 2c3 2 3 2 1 2s-2 0-1 1l1 9 1 9-1 3c-1 1-2 9 0 13l-1 2v1l1 3v-2l1 1 1 3 1 2 2 3v-2h2c2 1 2 2 2 4v1c1-1 2 0 3 3l3 2 1 1c-1 2 1 8 3 13l2 3c-2 2-5 3-6 2l-1 1c1 1 0 1-1 1l-2 2c0 2 1 2 2 0 3-2 4-1 1 2s-11 16-15 26l-3 7-3-1c-3-1-3-1 0-18l2-10c1-1 4-3 7-3 7-2 8-3 6-6h-1v2l-4 1-3 1-2-3-1-3h-1c0 1-6-3-7-6l-2-2v-1l-1-2v5l-3-2c-2-1-3-2-3-5l1-6v-2l2 2 1 2 1-2 1-2 1 2 2 2v-1c-1-2 2-1 4 1l2 4 1 2 1-3c-1-4 0-4 5-1 3 2 3 2 3 5v4l1-2c0-3 1-4 2-2h1l-2-3-1-2c1-1 6 1 6 3l1 1v-4l-5-1c-10-2-21-5-24-8l-3-1-1-2 3-3c4-2 9-11 9-13v-1l1-2 3-8c2-4 3-6 2-7l-1-3-3-6c-2 2-1-2 1-4v-2c-2 1-2 0-2-2l2-3c1-1 2-2 1-3l3-2c3-1 3-1 2 1v2l-1 1-2 1 1 1 6-4-1-1-1-1 2-1 4-2h-3c-5 2-4-1 3-5 4-3 10-4 12-2zm23 24c2 0 3 1 3 3s0 2-2 2h-3v1l2 1v1l-1 3c-3 4-5 9-4 10l-1 1-1 2-1 2c-2-1-2-1-1 1s1 2-1 1l-3-2c-2 0-1-3 2-4s4-5 3-10c-1-6-1-7 2-5l3 2c2 0-3-4-5-4-1 0-1-2 1-4s2-2 7-1zm-57 2c0 1-1 2-2 1l1-2 1 1zm4 1-1 1c-2 0-2-1-1-2l2 1zm-3 28c-1 3-3 7-7 10-7 8-15 22-16 29-1 8-2 10-2 2l4-13 2-7c-2 0-7 12-8 17v6l-6-3c-7-4-10-4-13-3s-2 0 1-5c3-7 10-12 23-19 9-5 12-7 17-12l7-6-2 4zm-21 11-7 4c-11 5-17 11-21 20-5 10-8 22-10 31-1 9-8 27-10 31a575 575 0 0 1-51 53l-2-1 2-4 5-8c13-16 18-23 22-30a865 865 0 0 1 30-51 351 351 0 0 1 14-30c1-2 3-4 10-7a260 260 0 0 1 18-8zm126 4c1 4 0 3-2-1v-3l2 4zm-113 2v6c-1 2-2 6-1 7l-1 2-5-2-2-1 7-13 2 1zm123 10c10-2 11-2 12 0 0 3 2 3 2 0l-1-2-1-1 17-2-4 8-8 1-12 2c-5 1-8 0-6-1 1 0 1-1-1-3-2-1-5-8-5-10l2 3c2 5 3 5 5 5zm34 0 3 12 3 15 4 19a163 163 0 0 1 3 24c1 2 1 3-1 3-3 2-6-3-6-9l-9-44c-4-17-4-16-2-21l3-4 2 5zM72 146a538 538 0 0 1-38 62 300 300 0 0 0 16-31 316 316 0 0 0 16-29l7-13c4-5 6-8 9-9l-10 20zm172-13c2 5 2 7-1 4l-6-1c-4 1-7 2-4 2l2 1h-4c-1-1-3-2-4-1l-10 2-14 3-7 2-1-4c-1-3-1-3 7-4a404 404 0 0 1 28-6l11-3 3 5zm-110 7 8 7c0 3-3 2-4 0s-1-2-2-1l1 3v3c-2 2-6 13-6 18 0 3 0 3-1 1v-16c2-5 1-7-1-2-2 6-2 13-1 18l1 5-5-4-7-4c-4-2-4-5-4-20v-11l-1 9-1 6c-2 2 0-15 1-18 2-2 2-2 8 0 3 0 9 3 14 6zm39 2-4 3c-2 0-5 2-6 4-4 3-13 16-12 16l5-7c6-8 9-10 13-11l5-3c2-1 11 2 14 6l3 4-6 5-10 12-13 27c0 2-1 1-7-4l-9-6c-3-2-3-2-2-4l4-7c4-7 11-17 17-22l5-6c0-4-20 19-25 28l-3 5 5-11 2-3c1-4 9-17 13-22l5-3c2 0 1-1-2-6l-3-5a36 36 0 0 1 12 10zm100-5 1 5 1 1 1 1h-1c-1 0-1 3 2 10l2 8 1 5v2l3 14 2 14-6 3-21 6 2-2v-3c-3-3-6 2-6 9l-1 4-1-3c1-3 0-4-2-6s-2-2-1-3v-3h-3c-2 2-3 5-1 8l1 4c0 3 0 3 1 2v-5c-2-5-2-7-1-7l1 2 2 3 1 8c0 2-1 2-5 2l-4-2-1-5-2-5 6 8c1 2 1 2 1 0l-2-5-1-4v-3l-5 2-1 3-1 4v1l-2-3c0-3-3-2-4 3-1 2-5 3-5 1h-3c-5 2-7 1-9-3l-3-8-1-6c-2-3-1-6 2-7l2-2c0-3 0-4 7-7 8-4 11-7 11-9 0-3 3-3 6-1 2 4 9 5 10 2 1-2 0-2-3-1-3 0-4 0-6-2l-1-3-1-1-4-1c-2 0-2 0-1 1 3 2-9 12-19 16-5 2-9 0-9-3l13-22 15-15c2 1 1 2-4 6s-7 7-3 6c1-1 7-2 16-2h4l7 3c5 2 5 2 3 3-2 0-4 0-7-2-6-3-8-3-14-2-3 1-4 1-3 2s1 1-1 1l-3 1 3 1c3 0 9 3 9 4l-4-1h-5l2 1 7 4 6 4-1-2-2-2v-6l-2-1-4-2-3-3h3l4 1 3 1h1v1l6 2h3l3 5 4 5c2 1 2 2 2 3v2l3 2h4v-1c-2 1-3-1-2-2v-2l1-2c1-2 2 1 1 3v1c3 0 3-3 2-5-2-2-5-1-5 2-1 3-3 2-3-3l-3-4-1-2c0-2 0-2-1-1v-7l1 1 2 1v-2l-4-1c-3 1-3 1-2-2 0-2 0-2 1-1 1 2 1 2 1 0l-2-4-3-4h-1l-1 1v-2a384 384 0 0 0 12-3l11-2 2 4zm-25 6c3 3 5 4 3 1-1-1-1-1 0 0 2 0 2 1 1 3-1 1-2 0-5-3l-7-4-3-1c1-1 7 1 11 4zm-25-2v2c-3 0-11 9-15 18-6 10-7 11-8 7l-3-10-1-11c0 2 0 2 1 1 2-2 6-4 13-4a95 95 0 0 0 11-3l2-1v1zm-127 2-4 3c-5 2-10 7-13 11-2 5-1 4 2 0s13-11 16-11l-3 3c-7 5-10 8-13 13-4 6-4 8 1 2 4-7 10-12 15-16 5-2 5-2 7 0 4 3 7 9 7 14 0 4 0 4-3 5l-9 4-4 8 2-1c1-4 10-11 12-10l-1 1c-2 0-7 9-7 12 0 2 0 2 2-3l6-7c3-3 3-3 6-2 5 2 14 9 14 10l1 1 9 4 3 3 4 2c2 2 2 2 0 5-5 5-15 11-27 16l-4 2-6-6-8-6c-3 0-12-5-16-10l-8-9c-4-6-3-8 0-22l3-10c0-3 2-6 2-3v3c0 2 0 2 1 1v-3l1-4c1-2 1-2 6-2l6 2zm149 2 5 5-4-2-9-2-8 2 2 1-3-1h-2l2-3 4-2 1-1 4-1 8 4zm33 7c0 3-1 2-1-2v-1l1 3zm14 11v5l-2-5-1-8v-3l1 3 2 8zm-156-4-2 11-2 8h-1l4-20c1-3 2-3 1 1zm56-2 1 4c7 16 7 14 2 18-4 4-14 10-25 15l-5 4-2 1 6-14 14-21c6-7 9-10 9-7zm10 23c0 2 1 3 3 3s2 0 1-1-1-1 1-1c3 0 3 0 2 2l-4 5c-9 14-18 23-27 29-12 7-14 8-22 6-2 0-3-1-5-5v-6h-1v8c1 2 0 1-7-1l-7-3 8-5 13-7c2-2 4-3 5-2l3-1 9-6a151 151 0 0 0 13-8v16l-1 2 2-2c2-2 2-4 1-10l-1-7 6-4 6-5 2 3zM84 192c5 5 14 10 16 10s13 10 11 10l-6-3-8-5c-6-2-14-7-20-14-6-6-6-7-5-10l1-2 3 5 8 9zm-9-1c6 7 15 13 25 16l7 6-2-1-9-4c-11-5-13-5-13-4l3 2 8 3 7 3c6 1 2 2-9 2l-23-1-10-1 4-9c4-8 5-9 5-6 0 2 5 11 7 11 2 2 2 0-1-3l-3-3 4 3c5 5 5 2 0-2-5-6-7-10-6-14l2-3 4 5zm80 5c3 3 3 3 2 5l-13 7c-11 5-11 5-15 4l-3-2 8-4 12-8 5-4 4 2zm51 0v1l1 1-3 1-1 1 2 1c2-1 4 4 3 7l1 2 2 3 2 4 1 1 1-2v-1l1-1 5-1c2 1 2 1 0 5-1 2-3 6-3 10-2 6-5 12-8 15l-8 4-13 9-8 5 8-10c9-10 17-16 19-16 1 0 2-1 1-7 0-16 0-18-1-16v21l-5 3-9 8a325 325 0 0 1-16 17l2 1h1l14-9h1l9-5c7-5 9-7 11-12l3-7 2-8 4-7c2 0 2 0 1 3l-5 12-6 14c-2 2-14 10-32 19l-6 3-3-3a69 69 0 0 1-16-15l-5-5c-18-21-25-26-10-8 10 13 10 12 7 25-2 12-5 19-10 25l-4 7 2-1 5-6h1l1-3c3-5 6-14 7-24l3-10v6l-1 5-1 4c0 5-3 15-6 21l-8 11-4 6 13-14c1-1 1-2 2-1l-2 5-2 5c0 2-3 6-5 7l-7 4 1 1 2-1 3-2 3-2-2 3-2 7-1 5c-1 1-1 1-1-1l-4-7c-2-4-3-6-2-8l-6-9-6-7 3-2c5-3 11-9 15-16 2-4 3-6 2-7s-1-1-2 1c-1 4-5 12-8 14l-2 2 2-5c3-5 5-16 4-17v-8l1-7v-8c-1-9-1-10 2-12 2-1 3-1 8 1l7 3 4 1 3 6c4 10 13 25 17 25 2 0 1-2-2-4-3-3-9-12-12-19l-3-6c0-1 0-2 2-1l5 6 12 21 2 2-2 3-3 4 13-13c1-3 14-18 15-18l1 2 1 1 1-12a294 294 0 0 1 0-15l-1 8c0 3 0 3-6 3a116 116 0 0 0-28 7 170 170 0 0 1 30-5c4-1 4-1 3 1l-6 3a533 533 0 0 0-33 4c-1-1 1-2 5-4 9-4 21-13 30-24 4-6 8-8 7-4zm83 5c1 2 0 3-8 6-6 2-9 3-12 2l-1 1-4 1c-4 1-4 1-4-1-1-2 1-3 19-8 9-2 8-2 10-1zm-32 4 1 4c3 2-1 8-6 8l1-3c2-1 3-3 3-6l1-6v3zm-200 7-6 8c-1 1-2 4 0 3l-3 8c-5 9-7 18-7 25v6l-2-3-2-11c0-8-1-10-2-3-1 5 1 12 4 18 3 5 2 5-2 1l-5-12-2-5c-1 7 2 15 8 20l5 7 5 8 2 4-7-2c-6-2-11-6-12-9l-5-9-4-8-3-3-3-2 3-3c4-3 6-4 3-1-1 2 0 1 2-1l6-5 20-20-10 9c-12 12-15 13-5 2 14-14 18-19 21-24 5-7 5-5 1 2zm232 2 3 8c0 3-3 6-6 6-4 1-4 0-1-2 6-2 2-10-6-14l-4-1 3-2h4l1-1c0-3 3 0 6 6zm-55-3c3 1 3 2 3 4-1 2 0 3 1 3h11l5 1-4 2-9 8 5-3 5-4c1 0-1 3-4 5l-6 9-2 3v-4l-1-3-1-5c1-3 0-5-1-7-1-1-1-1-1 2l1 14a330 330 0 0 0 5 37l1 18a929 929 0 0 1-2-6l-3-26-3-23a236 236 0 0 0 1 29l2 17a730 730 0 0 0 6 43c-4 0-10 4-13 8l-4 3 4-19 1-3 5 4 5 5c1 0 0-2-3-5l-7-9-1-2-1 1v1l-2-1h-3c-4 0-5-3-1-8 1-3 4-5 6-6 2-2 3-3 2-6l-1-7a329 329 0 0 1 0-53l2-6v-2l1-2c3 0 2-2-1-6-2-3-2-4 2-1zm6 3c0 3-2 2-2-2-1-2 0-3 1-2l1 4zm-112-2 1 2c-20 8-36 11-46 11-4 0-4 0 4-2a175 175 0 0 0 28-8l6-3c3-1 4-1 7 1zm147 0c5 3 11 8 11 10l-1-1-3-3c-3-2-11-5-14-5l8 4c2 0 4 5 4 8v3c2 0 4 14 2 16h-10l-3-2 2-2 1-2 3 2c2 4 4 4 4 1s-9-22-13-25l-2-3 3-1h8zm-196 3c11 2 11 2 4 2l-25-3 5-1 16 2zm31-1a215 215 0 0 1-56 13h-2l5-10h8c12 3 39 0 42-3h3zm122 0c2 2 1 3-2 2-2-1-2-1-1 1l-2 11a112 112 0 0 0 1 55v1c-1 0-7-8-7-10l-1-2-5-9-2-6c-3-5-3-7 0-9s5-7 9-19l7-16 3 2zm32 2c2 2 12 19 12 22 2 3 0 2-2-2a94 94 0 0 0-14-21c0-2 3-1 4 1zm-138 1-7 2 9-3-2 1zm10 0c0 1-1 3-3 3l-5 2c-10 4-15 6-29 7-10 2-12 2-14 1H65l-9-2h7l11-2 4-1a99 99 0 0 0 29-1c2 0 15-3 21-6 7-2 7-2 8-1zm123 2-4 9-8 24 2-3 3-4c3 0 3-2 2-4s-1-3 2-9l4-9 1-4 11 16-12 16c-2 2-2 3 0 5 5 5 17 23 23 34 2 3 2 3 0 4l-5 1c-4 0-4 0-7 5l-3 5-2 2-6 8-4 5c2 0 9-7 12-11l4-5v12c0 12-1 15-3 11-1-2-7-5-10-5h-4l4 1 7 4 4 3-5 1c-4 0-5 1-7 5-2 5-11 15-11 14l2-7c2-3 4-8 4-11l2-5v-1c-1-2-2-1-4 5-2 7-7 19-9 21-3 2-2 1 2-8a96 96 0 0 0 6-19l-1-3-2 5-5 14-3 9-1-3c-2-5-3-6-6-6l-4-1c0-1 6-10 8-10l1-1 4-2 4-2c2-1 1-16 0-27a773 773 0 0 1-6-52c0-6 0-6 7-14l7-8-4 12c-6 15-7 18-4 19l4 4c2 3 2 3 1 24v25c1 5 1 5 1-2a396 396 0 0 1 1-1l1 17c2 0 2-1 1-3v-1l4-22 1-10-1-1-2 12c-2 13-4 19-3 8a646 646 0 0 0 3-39l4 4c6 8 22 23 23 23l-4-6a215 215 0 0 0-21-26l-6-7c-1-3-3-4-3-3l5 10 3 3c0 1-3-1-6-5-7-8-8-5 4-35l4-8v3zm24 6h-1v-3c0-2 2 2 1 3zm-152 7c1 8 0 10-1 2v-11l1 9zm-2 9c0 13-1 18-6 29l-4 10 7-12 6-10-7 20c-3 4-8 6-9 4v-3a85 85 0 0 0 10-47v-7c1-3 2 4 3 16zm74-14-2 3-19 21-2 4-2-2-7-13-6-11h5l21-4c1-1 11 1 12 2zm-79 10c0 13-2 22-6 32-4 11-4 11-6 9l-4-6c-4-13-14-30-22-37-3-2-3-3-2-3 3 0 9 7 14 13l7 15c5 12 8 15 5 5l-3-8c-1-4-8-15-14-21l-4-4h5l12-2 10-2c8-3 8-3 8 9zm-60-6c8 1 9 2 11 4l2 3h-4c-3 0-5 0-9 3l-9 7 5-3c4-3 8-5 11-5 2 0 1 1-3 2l-6 5-3 1h-1v5l1-1c0-2 5-6 10-9 6-2 9-3 10 0l1 2 7 13-5-3-8-2-10 2-2 1c-1 0-2-1-1-2l-1-1-1 2-4 3-6 4-2 2-1 3c-2 6-3 2-3-6s2-20 4-21l-1 5-1 17 1-4c0-6 3-19 5-23s1-5-1-1c-2 3-3 2 0-2 1-3 2-3 3-3l11 2zm16 5c4 5 10 21 10 23-1 1-1 1-2-1a221 221 0 0 0-12-26l4 4zm3-1a104 104 0 0 1 24 39c-1 0-1 1 1 2 1 2 1 2-1 0-2-1-3-3-2-4l-1-1-1 1h-1v-1c1-1-4-7-8-9l-3-5c-1-6-5-15-9-20-3-4-3-6 1-2zm144 7h-1l1-4c0-3 0-3 1 0l-1 4zm43 3 3 1 2 1-2 1c-3 0-6-2-6-3h3zm-112 9-3 15 1-6v-9l1-3 1 3zm-78 3 4 2-5-2-9-1c-4 0-4 0-2-1 4-1 6-1 12 2zm-3 1 13 7 6 4-4 2c-8 3-19 15-18 20l3-4c3-5 6-9 10-11l9-5-4 4-6 6c-1 2-3 3-4 2v4l2-1 4-5 7-7 4-2 4 3c19 18 32 36 33 48l1 8 2 5v1c2 1 6 10 5 10-1 1-12-2-18-4-14-7-31-21-37-30-3-7-4-8-2-8 1 0 4 3 6 7 6 10 13 17 22 23 10 6 15 8 21 8l6 1-7-2c-8-2-14-5-23-12-7-5-10-9-16-18-4-5-5-7-2-5l3 2 3 3 6 4 10 9 7 5c3 0 7-2 4-2l1-2c2-2 2-2-3-2h-6l-7-7-13-10c-7-4-8-4-21-8-7-2-18-7-22-10l-4-5c-3-3-3-4-2-10s3-10 7-14c5-3 5-2 2 3-4 5-4 7-5 16-1 7 1 4 2-3 1-9 5-15 10-17 4-2 4-2 11-1zm-24 4-2 4c-2 2-2 4-2 8s-1 5-2 3v-11l4-3 2-1zm44 5c4 3 2 3-2 0l-2-4 4 4zm55 12c-2 6-2 4 0-2l2-3-2 5zm13 1 7 2c5 0 5 1 1 3-8 3-27 23-25 26l-1 1-5 8c-4 7-3 8 1 2l6-8 18-17c5-3 18-12 20-12l-2 7a485 485 0 0 0-20 61c-3 12-4 14-5 14-1-1-1-7 1-15s2-11 0-8l-3 9c-1 8-1 8-3 6l-4-7-3-4-3-5c-3-5-3-7 0-6l8-1 10-2c4 0 6 0 5-1s-8 0-17 2c-2 0-2 0-1-1l11-2 9-2-20 2-5 2 22-8c3-1 5-2 4-3a134 134 0 0 0-30 11c-2-1-3-8-3-11l2-6 2-2 2-5 7-12 5-12 1-4c-1 0-5 6-5 8 0 3-7 17-9 20l-3 1 1-2c2-2 8-15 10-22 3-7 7-9 14-6zm62 6c3 1 2 5-2 8l-5 5v-1l1-19 3 3 4 4zm-192-4c3 2 4 3 1 3l-5 2-11 4c-7 4-7 4-5 6 1 1 3 2 3 0-1-1 10-7 11-7 0 1-10 12-12 12s-5-4-5-8 4-9 13-12c7-2 6-2 10 0zm150 1-4 3c-5 2-19 12-24 17-6 6-8 7-4 2s9-10 14-13c7-5 18-10 18-9zm7 7c-1 16-10 46-14 51-2 2-5 10-5 13 0 1 1 2 5 3l5 2 4 5c3 4 3 6 0 6l-1 1h8c2 1 4 2 5 1l2 1c1 1 0 1 0 0l-2 1-5 2-7 2c-3 2-3 2-3-4l-1-5s-4 3-5 6l-5 5c-2 1-2 1-6-3-3-3-3-4-1-6l1-5 2-4 1-4 8-27a524 524 0 0 0-13 36l-2 5v-4l1-6 12-37 14-41c2-2 3 0 2 6zm4 5-2 14a220 220 0 0 1-16 40c1 0 8-12 10-19l7-10c7-7 15-14 17-14 1 0 2 2 2 5 1 4 1 5-2 8-3 5-12 14-20 21l-6 6 9-7c8-6 11-9 18-18l2-3-1 3c-2 9-24 28-28 25l-3 2-4 3c-2 1-2 1-1-1l-1-1-1 3c0 2 1 2 3 1 1-2 13-7 14-7l-3 19-3-4c-2-3-4-4-7-5-4 0-5-1-5-3l2-6c7-10 16-37 17-57 1-11 3-7 2 5zm-146-8 3 2-2 1-10 6-7 5 4-2 2-1-2 2c-1 1-3 2-4 1-2 0-16 9-16 11l4-1 5-3-2 4-2 4h-3c-4-3-4-7 0-11l3-4 4-6c8-9 13-11 23-8zm154 2c4 3 7 8 7 10l-3 4c-4 1-12 9-12 10l5-3 10-7c2 0 1 2-1 3-2 0-6 4-10 7l-8 7 2-4c2-5 4-17 4-25l1-6 5 4zm-80 4 6 8c0 1-1 1-1-1l-7-8c-4-3-6-6-5-6l7 7zm-59 4 5 2 1 9a67 67 0 0 0 3 14l1 5 3 8 7 16-1-6c-4-8-8-21-10-32-4-15-3-14-2-14l1 4 1 4 1 4a342 342 0 0 0 17 46v-2c0-2 0-2 3 0 4 4 12 11 18 14 5 3 17 7 17 6l-1-1h-1l8 1 17 2c11 0 13 0 13 3l-8 6-11 6-11 10a302 302 0 0 0 31-20l3 4c2 3 2 3 0 4l-10 7 6-3 6-4 3 2c3 2 4 3 3 4h2l2 1-6 1c-5 0-22 4-18 4l6-1 19-2-10 2-10 2-3 2 9-1 16-2-4 4c-4 2-6 2-15 3-14 0-12 0-21 2l-13 2-5 1-3 1h-3v-15l1-19c1-6 1-6 1 14l1 18 1-17v-18l1 16 1 16 1-16-1-16 6 1a208 208 0 0 0 28 2l-9 4-16 8c-3 3-2 4 2 1l14-7 12-7-10-1c-11 0-24-1-33-3a69 69 0 0 1-23-11l-1-1-3-1c-2-1-2 0-2 4v5l-1-5v-5l-3-3c-5-3-20-19-24-26-5-8-8-20-9-33v-9l3 2 7 4zm-15-3-7 12a797 797 0 0 1 1 2l9-14-3 6a695 695 0 0 0-17 32l-9 13a234 234 0 0 1-12 20 174 174 0 0 0 32-50l5-9c3-7 3-7 4-4v6c0 2 0 3 1 2 1 0 1 1-1 8a167 167 0 0 0-4 20l-2 7a337 337 0 0 1-10 39c-2 0-2-1 1-11a291 291 0 0 0 10-42c2-8 4-15 3-16l1-2v-1l-2 2-1 5-2 7-1 7-2 6a370 370 0 0 1-9 36l-1 8-3-2-8-6c-4-4-5-5-10-6l-5-1 3-5 3-7a505 505 0 0 0 16-50v-1l1-1c1 1 5-1 14-7l5-3zm28 8c2 1 3 2 4 8 2 8 7 17 10 20l6 5 3 4-4-7c-6-9-13-21-14-25 0-4 1-3 3 2 2 6 9 14 14 19 11 9 26 18 34 19 7 2 6 3-2 4-7 2-11 2-19 2-11-1-15 0-4 1 9 1 24 0 30-3 6-2 6-1-1 3-6 2-7 2-19 2s-12 0-8 2l9 1c8 0 21-4 24-7 2-2 2-1 7 7l8 10c5 7 6 6-8 6-13-1-19-2-27-7a105 105 0 0 1-24-16c-2 0-8-7-12-12-3-4-6-11-11-28l-3-10h4zm29 13c2 2 3 3 1 2l-2-2-3-2-1-2 5 4zm-50 8c1-3 1 5 1 13a351 351 0 0 0-2 26v-37c-1 1-2 13-3 45a347 347 0 0 1-1 39l4 2 10 2c0 2-13 14-19 18l-5 5 4-2 5-3 7-2 13-13c0-1-2 0-3 2-4 4-15 13-17 13l18-17 7 2 5 3-4 3-6 2-1 1c-2 3-25 12-34 13l-4 1 3-4 6-3 4-2c3-2 3-3 3-12l2-20 1-21-2 10-2 12a268 268 0 0 0-4 26v-2a913 913 0 0 0 6-66 704 704 0 0 0 7-37l1 4zm157 11c-1 7-2 8-3 7l-5-1-4-1 3-3 7-7 3-4-1 9zm-154 2c-1 1-1 0-1-2s0-3 1-2v4zm4 0 11 14-4 14-4 15 5-12 5-14a199 199 0 0 1-10 29h-1l-1 2-2 1c-2 1-3 2-2 4l1 2 1-2c-1-2 0-2 1-2s2 0 1 1l1 1h4l3 2 3 2 1 1-2 2-3 1-5 2-11 6-2 1v-5l1-10c1-9 2-8 2 1v10l1-3 1-4v-2a217 217 0 0 1 5-57zm146 7v1l-7-1c-3 0-4 0-3-1 2-1 9-1 10 1zm-6 2 6 1-5 2-9 7 7-3 7-4v3c-3 11-3 14-5 16v4c0 2 0 2-2 1l-7-5c-3-3-3-4-3-6l2-9c0-6 1-9 3-7h6zm-100 15 14 7 9 6-14-6c-9-5-24-18-24-21l6 5 9 9zm-26 6-3 10c1 0 3-4 4-11l3-8 3 2c3 1 4 4 4 12 0 5 0 5-3 5l-6 2-7 3c-2 1-2 1-1-5l8-21-2 11zm-32-7v12a52 52 0 0 1-3 16c1 1-5 3-9 3s-5 1-10 5l-6 5v-6l1-11 1-7 4 2c4 4 10 8 12 7l3 1c1 2 1 2 1-1a412 412 0 0 1 6-26zm11 10c-1 5-2 5-2-1 0-4 0-4 1-3s2 2 1 4zm38 2-1 17a700 700 0 0 1 3-15v41h-4c-3 0-4-1-3-3a849 849 0 0 0 4-46l1 6zm101-2 2 3-6-5c0-2 1-1 4 2zm-89 3 8 3 3 1-3 7c-3 8-5 14-3 13l1-2 7-17v11l-1 19v8h-10l-11-1v-10l1-23 1-12 7 3zm76 13 1 4-4-1c-6-1-11-6-6-6 2 0 5-3 6-7l1-4 1 5 1 9zm13-6c-7 4-10 6-8 6l8-4 7-4-3 6-3 7-3 8c-3 5-3 6-4 5-2-1-2-2-1-2 1-1-4-6-6-6l-6-6 6 2v2l1-1c2-2 3-3 3-5-2-5-2-6 2-7 8-4 15-5 7-1zm-107 3a559 559 0 0 0-1 16c0 2-4 4-5 2h-4c0-2-2-3-2-1s3 4 7 4l4-1v5l-1 5c-1 1-3 0-5-1l-7-2c-2-1-3-4-3-8l4-3c4-2 5-3 5-13 1-5 1-6 3-7 5-2 6-2 5 4zm-10 5v6l-2-2c-1-2-3-3-5-3-5-1-5-3-1-4a239 239 0 0 0 9-4l-1 7zm-35 12a209 209 0 0 0-3 24l-10-10-2-3c-2-3-5-4-9-4-3-1-2-4 2-7l7-5c1-2 3-2 7-3l7-2 3-2-2 12zm27 6c0 1-1 1-1-2 0-2 0-3 1-2v4zm-2-1c0 3-1 3-6 3l-5-1 11-5v3zm131-1 11 8c6 5 9 6 12 6s3 0 3 2c-1 1 0 2 1 2 2 1 2 1 0 1s-3-1-3-2h-2l-5-1-8-2c-4 0-8-2-13-7-4-4-4-5-3-7l2-2 5 2zm-10 3h-1l-1 1 2 1 6 4 6 6c2 1 2 1 1 2-1 2-5 1-5-1s-3-6-4-6v2l2 4 1 4h-1c-1-1-3-3-3-5-1-5-3-6-4-5h-3c-2 0-2 0-1 2 1 3 1 6-1 4l-1-4-2-2v4c-1 3-1 2-2-2l-2-3-1 1c1 3-1 2-3 0s-2-2 2-3c4 0 8-2 10-4 1-2 5-2 5 0zm-125 3c7 0 8 0 13 2 14 7 41 7 70 2l17-3 5 3 6 4 2 1c0 1-20 5-27 5l-12 1c-5 1-23 0-34-1-8-1-14-3-18-5l-4-1-9-3-12-4-5-1h-2l-1-1h3l8 1zm163 5c2 0 3 0 3 2l-3 4v-3c1-1-1-1-3-1l-6-1c-1-2-1-2 9-1zm-37 3c1 7 1 6-2 4-2-2-3-5-1-6 1-2 2-1 3 2zm-148 9c2 0 2 1 2 2s-2 2-5 2c-2 1-5 2-6 4l-3 3v-3l1-9v-7l5 4 6 4z"/><path d="M156 48h6l-3-1-4 1zM139 114l2 1 1-1-2-1c-1 0-2 0-1 1zM138 135l1 1 1-2-1-1-1 2zM157 138c-1 2 0 3 1 1v-2c0-1-1-1-1 1zM142 158c-1 2-1 2 1 0l1-2-2 2zM185 72c0 1 1 2 2 1v-1h-2zM99 133c-1 3-1 4 1 2v-4c-1-1-1-1-1 2zM62 182l-3 1-1 1c1 1 5 0 5-2 1-2 1-2-1 0zM52 194l-1 3c0 2 0 2 1 1l1-3-1-1zM253 129l-1 2 4-2h-3zM215 165l-1 1c-1-1-2 0-1 2l-2 5c-1 2 0 4 1 3l1-1v-2l1-2c-1-1 0-3 2-5s3-3 1-3l-2 2zM220 165v8l3-8c-1-3-3-3-3 0zM250 168v7l1 2v1-10l4 2c3 1 3 1 1-1-3-4-4-4-6-1z"/><path d="M254 173c-1 1 0 2 2 3 2 0 4 0 4-2h-1c-1 1-1 1-3-1s-2-2-2 0zM246 173l-3 2-1 1h2c3 0 4-2 4-3h-2zM229 174v3l1-3h-1zM263 180c-3 3-2 4 1 1 1-1 2-2 1-3l-2 2zM227 181l1 2c1 1 2 0 1-1l-1-3c-1-1-1 0-1 1zM220 181v9l1-2v-8c-1-1-1-1-1 1zM230 180l2 1 1-1-1-1-2 1zM256 181l2 7v-4c1-3 0-5-1-5l-1 2zM245 182l1 2 1-2c1-1 0-2-1-2l-1 2zM242 184c0 2-1 3-3 1h-1l-1 2-1-2h-2v3h7l2-2 1-2-1-2-1 2zM228 188h-1l-1 3 1 5h1c2-2 2-8 1-9l-1 1zM220 195c1 4 2 6 4 4l-1-1-1-2v-4c-2-1-2-1-2 3zM271 194c-1 1 0 1 3 1l3 1 1-1-3-1-3-1-1 1zM211 197c0 2 1 2 3 2 2-1 2-1 0-2h-3zM250 198l2 1 2-1-1-1-3 1zM197 151l2 7c2 5 2 5 1 1 0-4-3-11-3-9zM203 154c0 2 0 2 1 1v-3c0-2-1-1-1 2zM81 173c-1 2 0 3 1 1v-1h-2zM121 185c-1 2-1 2 1 1l4-1-1-1h-2c-1-1-2-1-2 1zM237 143l4 1v-1l-4-1c-2 0-2 0 0 1zM189 160c-1 1-2 2-1 3l-1 1-6 6-14 25 6-9 13-20-4 8c-5 8-8 17-6 15l1-1a236 236 0 0 1 14-28c0-2 0-2-2 0zM196 184l-1 5v1l2-2-1-5c-1-1-1-1-1 1zM181 196c-1 2-1 6 1 9v-4c0-7 0-8-1-5zM192 198l2 1v-1l-1-2-1 2zM160 210l-1 3v4c1 3 2 5 4 5l-1-3c-2-1-2-9 0-10v-1l-2 2zM174 213c0 1 3 3 4 2l-2-2h-2zM166 215l2 3 1-2c-1-3-3-4-3-1zM79 209c-2 0-2 1-1 3h8c0-2-5-4-7-3zM217 216l1 1 1-1v-2l-2 1zM136 244c-1 1 0 6 1 6v-5c0-2-1-3-2-1zM219 246v9l1-4v-5h-1zM218 260l-1 3 2-2 1-3-2 2zM265 287v8l1-4c0-5 0-6-1-4zM189 229c-6 3-15 11-15 12l6-3c2-3 7-6 11-8 8-5 7-5-2-1zM196 229l-6 4c0 1-1 1 0 0l-11 7c-3 3-3 3-1 3l4-3 3-2 17-11c1-2-1-1-6 1zM103 235c-3 1-3 1-1 2 2 0 5-1 4-3l-3 1zM117 244c-1 2 1 2 3 0v-2l-3 2zM111 246c-1 2 0 3 1 2v-4l-1 2zM51 237l-4 23 3-12 3-14-2 3zM69 248v1c2 0 3-3 2-3l-2 2zM68 276l2 1 1-1-1-1-2 1zM63 282c1 2 3 2 3 1l-2-1h-1zM97 289l3 3c4 2 6 2 6 1l-2-1-3-2-2-1h-2zM108 295l1 1c2 1 3 1 2-1h-3zM122 308l1 2 1-1c0-3-1-4-2-1zM132 319l-2 3c0 2 0 2 1 1v2c-2 3-1 4 1 2l1-5v-5l-1 2zM60 312l2 3 2 6 1 4 3 4c0 2 1 3 2 3 0-1-2-8-4-8l-1-4c0-2-5-10-5-8zM70 334c-1 1-1 2 1 2l1-2h-2zM34 340c-3 6-4 7-2 5 3-2 6-9 5-9l-3 4zM34 348l-4 8 4-5 5-9-5 6zM24 364l-2 1c-1 1 0 1 1 1 3 0 4-1 2-3l-1 1zM63 396l2 1c2 0 2 0 1-1h-3zM102 408c1 2 3 2 3 1l-2-2-1 1zM83 390l3 4c1 0 0-3-2-5-1-1-1-1-1 1zM35 403l-1 4 1 1 1-7-1 2zM170 50c-1 1-1 2 1 3s2 1 3-1 1-2-1-2h-3zM27 52c-1 1 0 2 1 1v-2l-2 1zM165 53l-1 4c0 1 1 1 2-1l1-4c0-1-1-1-2 1zM176 53c-1 2 0 2 1 2v2l-2 2 2-2 3-4c0-2 0-2-1-1h-1c0-2-2-1-2 1zM181 54l-1 3 2-2 2-3v4c3-3 2-4 0-4-1-1-2 0-3 2zM24 56l2 6c2 5 1 8-2 8l-2 1c0 2 4 1 5-1 2-3 2-9 1-10l-2-3c0-3-2-4-2-1zM186 56c-1 2 2 5 3 3l-2-5-1 2zM158 56l1 2c1 1 1 1 1-1l-1-2-1 1zM96 60c-2 2-2 4-1 8 1 1 0 2-1 3v3l2-2c2-2 2-3 1-9v-2c2 0 3-1 1-2l-2 1zM179 60c-1 3 0 4 1 2l1-1h2l3 1h3l-3-2c-5-2-7-2-7 0zM46 64v3c0 1-1 1-7-1l-2 1c0 2 1 2 2 2 2-1 2-1 2 1-1 3 1 5 2 3v-1l-1-1 2-2c2 0 2 1 1 3l1 2c1 0 2-3 2-8 0-4-1-5-2-2zM67 69l1 5 1-1v-9c-2 0-2 1-2 5zM125 67c-2 3-5 11-4 12s3-1 4-6l3-5v-2l-3 1zM107 67c-1 1-2 2-2 5v5c0 1 2-2 2-5 0-1 1-2 3-2s2 0 1 2 0 3 3 2l1 2v2l2-2 2-2c2-1 3-4 2-5-2-1-5-1-6 1v2c0 2-2 1-2-1 1-5-1-6-6-4zM53 68l2 1c2 0 2 0 2 2-1 2-1 3 1 4l2-1-1-1c-1 0 0-3 2-3l1-1-3-1-4-1-2 1zM102 68c-1 1-1 2 1 2l1-1-2-1zM34 70c-1 2 0 4 2 4 1 0 2-2 0-2v-2l-1-2-1 2zM51 69l-1 3 2 2c2 0 2 0 1-1l-1-3-1-1zM72 72l1 2 1-2-1-3c-1 0-2 1-1 3zM76 72v3c2-1 2-6 1-6l-1 3zM81 71c-2 1-1 4 1 4l1-2v-2l2-1c0-1-2-1-4 1zM99 71c-1 1 0 3 2 3v-3h-3zM148 76l1 3 1-3-1-3-1 3zM100 79h3c1-1 1-1-1-1l-2 1zM165 81h-3c1 2 4 2 4 0 0-3-1-3-1 0zM159 85v1l-2 2h1l1-1c3 0 3-2 1-2h-1zM150 89l-1 5-2 3 3-3c2-3 2-7 0-7v2zM152 93l-2 6 4-7-2 1zM154 96l-2 4 3-4 2-4-3 4zM157 97l-3 5h-1l-1 1 2 1 1-1 4-6 2-4-4 4zM165 100c0 1 1 2 2 1 2 0 2 0 2 3l-1 3-1-2-1-1c-1 1 1 5 3 5 0-1 1-1 0 0l1 1 1-3c-1-2-1-2 1-1l-1-1v-3h3l2-1-2-1-5-1-4 1zM162 105l-1 11 5 12-1-6c-2-6-2-9-1-9 1 1 2-4 1-6-1-1-1-1-1 1l-1 4-1-3 2-5-1-2-1 3zM157 114v1h1l1 1h1c0-2-1-3-3-2z"/><path d="m165 117 1 3c1 2 1 2 1-1 0-4-1-5-2-2z"/></svg>