<svg version="1.0" xmlns="http://www.w3.org/2000/svg" viewBox="0 0 300 302"><path d="M142 1c-12 1-21 5-31 13a64 64 0 0 0-23 32c-3 9-3 25-1 34 2 8 2 8-3 6l-16-1c-10 0-14 0-20 2-12 3-20 8-28 16a67 67 0 0 0-15 69c2 7 3 9 10 18 12 14 26 22 45 24 12 1 21 1 25-2 3-2 4-2 3 0l-1 3c-2 2-4 14-4 21 0 11 3 22 8 31 6 9 16 19 27 24 8 4 12 6 25 9a63 63 0 0 0 27-2c13-3 23-10 32-22 9-13 13-26 13-41 0-14-1-19-6-20-1 0-2 0-1 1 1 0 2 1 1 4 0 3 0 4 1 3 1-2 3-2 3-1l-1 2v2c2 1 2 1 0 1h-2l-1 1 1 1c1 0 1 3-1 4s-2 1-2-2l-1-7-1-6v-1c-1 1-5-9-4-10l-1-1c0 1-2 0-3-2-3-3-4-5-2-5l2-3 2-1 2 1 1 2c-1 3 0 3 2 2 1 0 2 0 1 1l1 2 2 1v2c1 1 1 0 1-3-1-4-1-5-4-6-5-2-7-5-6-7l-1-1-1-1c0-2 2-1 3 1l7 6v-1l-2-2v-2c1-1 1-1 3 1l2 3c-1 1 0 2 2 3 1 2 2 2 2 1 0-3 0-5 1-4l1 2c-1 1 0 2 1 3h1l-1-1v-2l1-4v-3l1 3c-1 3 0 4 1 4l2 2h1l2-1h2c1-2 1-2-1-2-3 0-6-2-6-4l-2-5c-2-3-2-3 0-4h1v3l1 2h2l1-1c-1-1 3-5 5-5l1 1 1 1v-1l1-1c2-1 0-4-2-4l-3 1s0 2-2 3l-2 2c0 2-1 1-2 0l3-5 2-3-1-3 1-2 3-1h2l-2 1c-1 1 0 1 1 1l3-1h1c1 0-1 4-3 4v-1l-1-1c-2 0-1 3 1 3h3l1-2v1l1 1 2 1-1 1-1 1c0 1 1 1 2-1 2-2 2-2 1-3l-1-2 3 1c1 1 1 1 0 0l-4-4-4-1c-2-2-3-2-4-1h-1v-1l-3-1c-1-2-1-2 1-2l2 1h3v-1l-4-1h-2l-1-2c1-3 1-3-1-1v16l-4 5-5 7c1 1 0 2-1 3h-1l-2-2c-2-1-2-1 0-5l3-5 1-1-1-3-2-4v3l-1-3c0-2-3-6-4-4 0 1-3 0-3-3l-1-1c-2 0-5-5-5-8l1-4 3-3c3-2 3-2 7-1 6 1 12 1 15-1h4v2l1-1 1-1-1 2-2 2h2c3-1 4-4 2-5v-5h3v2h2l-2 1-1 3c0 2 1 2 2 2 1-1 2 1 2 4l-1 2h-2c0 2 4 1 4-2 2-3 1-6 0-5-2 0-3-2-1-3 1-2 1-4-2-5s-3-1-5 1l-1 3-2 1-2-1-2-1-3-1-2-1-1-1-1-3c-5-5-6-14-4-22 1-2 2-4 1-5h1l3-2 5-5 3-3h4c3-2 14-1 18 1 7 4 11 7 13 11 2 5 3 15 1 15l-1-4c0-2 0-3-1-2 0 2-3 1-4-1-1-3-5-8-7-8v1l-2 2c-3 0-1 2 2 2 4 0 7 2 5 4l-3 1-1 1h3c3-1 4-1 5 1 2 2 1 3-3 4l-3 1h3c3 0 7 1 7 3v1h-1l2 1 2 2 6 8c4 5 5 7 5 10 0 5-2 10-5 14-2 3-3 14-1 16 1 2 4-1 11-11l5-5 2-1c1-1 1-1 0 0h-2l3-2 1-1-1-2h-2v1l-6 6-2-1c-1-2 0-2 2-2 3-1 3-1 2-3v-1c3 0 2-3-1-7l-5-5c-1-1-1-1 0 0 4 3 2-1-4-7l-7-8-1-3c-1-1-2-2-1-4v-19c1-2 8 3 7 5l-1 2v-1l-1-1-2-1 1-1h1c-1-2-3-1-3 1l2 3 2 2v1l1-1 5 5 6 7-4-6-5-9c0-3 0-3 1-1l2 3 3 4c1 2 3 3 4 2v4h1l2 2c2 0 2 1 1 1l-1 1 1 2 1 2 1 3v7l-1-2-3-6-2-5v-1l-2-1c-2 0 4 12 9 18 2 3 3 4 1 4l-10-14c-4-8-9-16-11-17s-2-1 1 2c5 6 8 13 7 14s7 15 9 16h3v7c-1 0-6-6-6-8l-9-12 3 6 3 5c-3-1-2 1 1 3 2 0 3 2 4 4l1 1 3 2 2 2 1-2v-16l-1-2v-2l-1-4-1-5-1-6-1-5-1 1c1 1 0 1-1 1l-5-4-5-6-5-4-3-3-8-4-2-3 1 3c0 2 0 2-2 1l-2-2-2-1-5-2c-7-2-16-2-24 1l-7 3-7 4-6 4-1 1-1-2c1-1 0-2-1-3l-2-2h2c1 0 3 0 3-2l3-2-1-1-3 2-4 2-1 2 1 2 2 2c1 3-1 5-3 5 0-1-1-1 0 0l-3 4-10 17c-3 9-3 23-1 23 1 0 2-4 1-6-1-4 1-14 4-21l4-6c1 1 1 0 0 0 0-3 16-18 19-18l1 2c0 3 0 3-2 2s-3-1-6 2l-5 6c0 2-2 3-2 2l-1 1c1 1 0 4-1 3l-1 1c1 1-2 7-4 8-2 0-3 2-1 2 1 0 8-7 8-9s6-11 9-14c2-2 6-2 5 1-2 3-2 10-1 16 1 5 7 13 11 14 3 1 3 3 0 3-3 1-8-3-9-7l-2-4-2-4-2-7v-7l1-3-3 6-4 8-3 5c-1 3-1 3-3 2-1-1-1-1 0 0 1 2 1 3-2 10-3 6-4 8-3 9s1 1 1-1l2-7 2-3c1 1 1 0 2-1v-2h-1l10-16 1 6 2 7 2 3 2 3c1 1 2 3 0 3l-2-1c-1-1-2-2-4-1-1 1-1 1 0 0l1-4c0-2 0-2-2 1l-5 6-3 3 1-2v-4c-1-1-1-1-1 1a106 106 0 0 1-2 5c2-1 2 1 1 2l-2 2h3l-1 2-1 5v5l-3 6 2 1 1 1c0 1 1 2 3 1 3 0 4 1 6 3l3 2c2 0 2 3 0 4v-1c1-1 1-1 0 0-2 2-2 2-1 4v4c-1 1-1 1-2-1l-1-1-1-3-2-1-3-1 2-1c3 1 3 1 2-1v-2c1 1 2-1 1-3h-1l-2 1-2 1v6l1 3c0 1-1 1-2-1l-1-3-1-1-2-2-1-2-1-2v-2h1l2 1-1-2-3-1c-1 1-1 1-2-3v-9c-1-1-1-1-1 1s0 3-1 2l2-7c1 1 2-1 1-2s-1-1-2 1l-3 3 1 8 2 9 2 3c2 1 0 3-2 3-2-1-3 4 0 6 1 1 1 1 0 0l2-4 2-2 2 2v4l3 1-1 1-3 2c-2 2-2 2-7-2l-6-3-2-1-14-6h-16l5 1c6 0 9 1 6 2v1l1 1-5-1-7-2c-2 1-2 0-2-1 1-2 0-2-3-2l-4 1-4 1c-2-1-5 0-6 1l-1 1c2 0 2 0 1 1l-3 2c-2 0-7 9-6 10h-2l-4 1c-2 1-2 1 0-1l3-1 1-1c-1 0 0-2 2-3l2-3c-1-1-2 0-4 2-2 3-4 4-4 3l-1 1h-3c-3-1-3-3 0-6 4-3 8-8 11-13 2-6 3-7 0-7h-1l-1 5c-2 5-4 6-5 4h-1l-2 3v1c3 0 2 2 0 2l-3 1 1 1c1 0 0 3-2 5-9 7-19 11-23 9l-2-1c0-2 0-2-2-1-3 1-3 3 0 3 3-1 4 2 0 2-4 1-7 0-7-2l-1-1c-1 1-2 0-3-1-2-2-2-3-1-6s1-3 1 0 2 5 4 5c1 0 1-1-1-2-3-3-2-8 1-11 2 0 2-1 1-1-2 0-1-3 1-3 2-1 2-1 2 1-1 0-1 1 0 0v3c0 2 0 2 1 1l1-8c-2 0-1 0 3-4l5-5 11-6v-1l-2 1c-2 1-3 2-4 1l-2 1-4 1-5 1h-3c-2-1-5 3-5 5s0 2 2 1l8-5 5-2-4 3-5 4-3 1-3 2c-2 0-2-1-2-4 1-4-1-5-2-1s1 7 4 6c2 0 2 0 1 2-2 3-3 3-4 1l-2-2c-1 1 0 2 1 4s1 2-1 4c-1 1-2 3-2 8 0 4 1 6 2 7l1 2c0 1-6 2-7 0l-10-1-2-1-1-1c-3 0-7-2-6-3l-1-1-4-1c-2-2-2-2-1-4v-3l-2-3h-1l2 3c1 3 1 3-1 2l-1-1-1-1c-1 1-4-2-3-3l-1-1-2-1 1-1h1l-2-1h-1l2-3 2-7 3-10c1-3 1-3 1-1-2 7-2 14-1 14l1-5c1-7 3-10 5-9 1 2 5 3 5 2l-2-1-3-2h-3c-1 1-1 1-1-1l-1-4c-1-1-1 0-2 3 0 2-1 5-3 6l-2 5c0 4-2 11-3 10l1-11c2-8 3-9 3-7 1 2 1 1 1-4 0-8-1-9-2-2l-3 8-2 7c0 3 0 3-1 2-2-2-1-3 2-12l3-12c0-3-1-2-1 1l-5 14v-2l3-11 3-12c2-3 2-4 0-2-2 3-3 2-2 0l5-10 4-10 2-4-2 3-3 4-1 2c0 1-2 5-4 6v4c-1-1-2 2-2 9l-3 14c-2 8-2 8-3 5-1-4-1-14 1-16v-3l1-2c1 0 2-1 1-2-1-3 8-19 15-24l6-4 4-3 3-2 1 2c1 2-3 6-4 5s-1 0-1 2v4l-1 5c0 3-2 4-3 2-2-2-2-6-1-7 1-2 2 0 1 2v3l2-2v-5h-1c-1-2-1-2-6 8l-3 7 5 2h4c2-1 2-1 2 1l1 2v-2c0-2 0-2 2-2h1l2-2h-2l-4-1 4-2h7l3 5 2 3-1 7-1 7-1-1-1-1c-1 1-2 0-1-1l-1-1h-1c-1-2-6-2-8-1v-7c-2-1-6 0-6 1l-1 2v1l2 1c1 1 1 0 1-1-1-3 1-5 2-3v2l-1 5c0 4 1 6 2 5l4 2 4 2c2 0 2 0 0-4l-2-2c-2 2-5 1-5-1 1-2 8-2 8 0s5 4 9 4l4 2h1c-1-1-1-1 0 0 2 3 3 1 1-2l-1-1h-1v-2c1-2 4 1 3 2h1c1-1 1-1-1-3-3-2-4-3-4-1 1 1-3 5-4 4l-1-5 1-5 2-2c1-2 5-2 5-1s-1 2-2 1c-2 0-2 0-1 1 2 0 2 1 1 2l-3 1c-1 1 1 1 13 5l5 3c0 2 3 3 3 1h-1c-3 1 1-4 4-7 4-2 6-3 4-1l1 1 1-2c-1-1 0-1 1-2l4-2c0-2 1-2 1 1l1 3v-3l2-5 1-6c-1-6-1-6-2-5l-1 3v3l-1 2c0 1 1 2 2 1v1c0 1-1 2-3 2-3 0-3 0-2-2l2-11v-8l3 1c2 1 3 1 2-1l-1-1-1-2-2 1c-2 2-2 2-4 0v-3l-1-1-4-3c-2-2-3-3-1-3l4 2 2 2 1 1h1l4 2c3 2 6 5 12 16l5 6v1c-1 1-1 2 2 6 3 5 3 5 2 2v-4l-1-1h-2c-1-2-1-2 1-2 2 1 3 2 3 7l2 7v9l-3-3c-3-3-6-3-3 0l2 1 1 1c-1 2 0 2 1 2s2 0 2 2 0 3-2 2v7c0 3 0 3 1 2 2-3 4-11 3-19 0-12-2-18-8-27-3-6-3-6-1-6s1-2-1-3l-1-1c0-2 0-3-3-2-1 0-2 0-1-1l-1-1-2 2h-1l-2-2-3-2-9-5c-5-4-7-5-6-6v-1l-1 1h-1l-1 1 2 1c3 2 0 2-3 1l-2-2H66l-11 1c-8 2-17 6-17 7l-2 1c-3 0-14 13-18 21a80 80 0 0 0-6 15c-1 4-2 13-1 17 3 15 8 24 15 32 12 12 20 16 36 17a74 74 0 0 0 26-3l3-1 1-1h1l4-3 5-4 3 2c2 2 2 2 1 3-3 2-6 9-4 8 1-1-4 32-6 37 0 2-2 4-4 5l-3 1 3 4 4 4 1 1 1 3c6 7 6 8 5 8l-2-2-1-1-2-1h-4c-2 0-3-1-3-2l-1-2-1-1c1-1 0-2-1-3-2-2-1-3 1-2 2 0 2 0 0-2l-2-2-1-1v-4c-2-2-2-5 0-4v-16l1-4 1-1v-1l1-1c-1-1 0-4 2-8l3-6-2 2-7 4c-6 2-19 3-30 1-8-1-24-8-23-10h-1c-2 0-17-14-21-21a63 63 0 0 1-7-40c1-3 1-4 3-4l2-1-2-1H4c0-2 1-3 3-2l1-1H7l-1-2 2-2 1-2c-1-3 2-8 4-7 2 0 2 0 1-1-2-1-1-4 1-4 1 0 2 0 2-2 0-3 5-8 5-6l1 1 1-1c-1-1 1-4 4-4l1-2c-1-2 2-3 4-2s2 1 2-1h-1l-1-1 4-1h3l2-1 2-2 2-2c1 0 2 0 1 1v2l2-2c0-2 4-3 4-1h1c0-2 3-3 5-1l1 1v-1c-1-1 0-2 4-2l3 1v1l1-1 3-1 2 2h8c0-1 6 1 8 3s2 1 1-3v-6l-1-3v-2l-2-6c0-4 0-5 2-6v-1c-2 1-2 1-2-3l2-7c1-3 2-4 1-5v-3l2-5c0-3 2-5 4-5l2-2h-1l-1 1c-1-1 3-5 3-5h2l-1-1h-1l14-14 1-1 3-1 2-1 2-2 3-1 1-1 2-1h4c-1-1 1-2 9-4 6-1 18-1 18 1h2c2 0 10 2 9 3l1 1c1-1 13 4 12 5h2l1 1v1h2v2l2 1c1-1 2 0 4 1v2c1 2 1 2-1 3v1l2-2h3c-1 1 0 2 1 3v1c-2 0 0 2 2 2s6 5 5 7l1 2 5 10 1 3c2 2 2 2 1 4l-1 2 1-1 1 4v7l-2-1c-1-1-1-1 0 0l1 2 1 3-1 4v6l-1 1h-1c0 1 0 2 1 1v1c0 3-1 2-3 0 0-2-1-2-1-1h-1l-1 1h2v4h1c2-3 2 0 0 3l-3 3h-1l3 1c2 0 3-1 3-2l4-1 6-2c2-2 4-1 3 2l1 2 1-2v-2c-1-1 2-1 9-1l10 1h4l5 1h1l1 1 2 1c3 0 9 3 9 5 1 2 1 2 2 1h2l2 1-2 1-2 1 2 1 2-1c0-2 8 5 9 8l3 4 2 4 1 2 1 1v2l1 2v2l2 7v9c2 17 2 20 1 23-2 2-2 3-1 4v4l-1 2v1l-4 8-2 3-1 4v-1l-1-1-1 2-2 3-1 2-5 5-3 1-1 1c0 2-2 2-2 1l-2-1v1l2 2h-4l-1-1v3h-1c-2-1-2-1-2 1l-1 2-6 1-6 2 2-2 3-1 2-1-3-1-1-1c1-1 0-1-1-1l-1 2c1 3-3 5-11 5h-11c-3 0-4 0-3-1l2-1c2 1 2 0 1-1 0-1 0-2 2-2l2-2 1-1 1 1h4c-1-1 1-1 11-1l2-1 3-1h1c-1-1-1-1 1-1h2c-1-1 2-3 5-5a78 78 0 0 0 14-10l3-3 2-3 2-1 1-3 1-3v-1c-1-1-1-1 1-1l2-1 1-1v-2l1-2c1 1 1 1 1-1-1-1 0-2 1-3v-2l1-1 1-1c0-2-2 0-6 6-7 11-10 15-9 16l-1 1-2 1-2 1v2l-1 2h-1l-2 3-5 3-4 3-1 1h-1l-1 1c-1 2-4 1-6-1v1l2 2-4 2-15 1c-8 0-11 0-16-3-8-3-10-2-3 1l5 3-1 1h-1 8c3 0 3 1 2 1h-3l-1 1v1l-3 2-3 2c-2 0-2 0-1-2h2c1 0 1-1-1-2l-1-4-2-1c-2 0-2 0-1 1v2l-2 1-2 1c0-1-1-1 0 0l-1 1-1-1h-3c-1 1-1 1 0 0l4 3 2 1 8 1c6 3 24 3 32 1a61 61 0 0 0 42-35l1-6 2-21c0-25-4-37-16-49-7-7-8-8-16-12-9-5-16-6-29-6-9 0-13 0-17 2-6 2-7 1-4-3l1-3v-1c1-1 2-4 2-15-1-13-1-14-4-21a70 70 0 0 0-71-45zM78 98c11 5 16 18 12 28-2 5-3 5-6 4s-3-1-2-4c1-2 1-3-2-6l-2-5-1-1h-3l-1-1c1-2-6-6-9-5l-4 1c-4 0-6 1-8 5-1 4-2 5-6 6-5 1-5 1-5-2l3-9c2-4 4-7 7-9l5-3 1-1h2c4-1 15-1 19 2zm138 5c-4 2-6 3-4 0l6-3-2 3zm43 1 2 2c-1 1-5-1-5-2h3zm-151 6c2 2 3 3 1 2l-2 1c0 2-2 2-3-1v-1c3 2 4 1 2-2l2 1zm-39 0c1 1 2 3 1 4 0 2 0 2 3 2 1 0 3 0 4 2 2 3 2 3 1 6l-1 3 2-3 2-2v3c1 3-3 5-9 5h-8c-3 0-6-2-5-3h1v-7l-1 2h-2l-2 1 1 1c1-1 2 1 1 3-2 1-5-3-6-7 0-2 2-3 2-1h1v-2l-1-1h1l1-1c-1-2 2-5 4-5h3c0-2 4-1 7 0zm43 10-2 1v-1l-1-2-1-2c0-2 0-2 2 0l2 4zm-78 3c0 4 0 5-3 2-2-1-2-1 0-1s2 0 1-1c-2 0-2 0-1-2 2-4 3-3 3 2zm4 2c-1 3-3 4-3 1 0-2 1-3 2-3l1 2zm35 6 5 1-1 1v3c-4 3-2 3 1 0l6-2c2 2 2 2-1 3l-2 1h-1l-2 3c0 2 0 2-2 2l-13-5c-3 0-4-1-2-1l2-1 1-3c1-3 1-3 3-2h6zm12 1c0 1-3 1-4-1h2l2 1zm7 0c0 1-5 3-6 2l1-2h5zm191 13 1 3c-2-2-7-10-5-9l4 6zm-7 8c3 0 2 2 0 1v1c1 1 3 2 4 1v1c-3 1-6 0-6-3l1-2 1 1zm-73 14 4 2 1 1v2l1 4v3l-5-3c-2-2-5-3-7-3l-4-1c-2-2-2-2 0-2v-2c-1-1 0-1 1-1h3l-1 1-1 2c0 1 1 2 3 1 2 0 3 0 6 3l3 3-2-3-3-4c-3-1-8-9-8-11s1-1 3 2l6 6zm73-6c-2 3-3 2-2 0l2-2v2zm-1 6c1 1 2 2 1 3l-1 3-2 1-1 1c0 2-4 4-5 4l1-1v-3l1-2v-4l1-1c-1-1 1-4 3-4l2 3zm-113 15c7 2 7 2 6 3v4c2 6 2 8 0 10l-3 2 3-1c3 0 3 0 2 1-2 2-2 2-1 5 1 2 1 3-1 2l-1 1h1c2-1 1 2-1 3l-3 5c-1 4-5 9-8 9h-3l3-2 3-1 2-2h-1v-2l2-2c3 0 4-18 2-23-1-1-2-3-1-4l-1-2-1-3v-2l-1 4-1 1-2 2 1 1 2 3 3 4v4c2 8-4 19-11 22-3 1-4 1-5-1-3-2-2-6 0-5 6 1 6 0 7-2l-3-3-2-3v-1l-2-2c-1-2-1-2-2 0-1 3-1 3 1 3h2c-1 1 0 2 2 4l2 2h-3l-6 1c-3 1-3 1-2-1 1-1 0-2-1-2l-1 2-1 2v-1h-5v1c1 1 1 1-1 1-3 0-3 0-3-2h-1l-6 1-3 1 2 1 4-1c2 0 2 0 1 1l-5 3-3 3 5-2c4-3 6-3 10-3h5l3-2 3-1-2 2v2l-1 2-1 2 2-1c2-2 3-2 3-1v6l2-3h5l7 2c2 0 8 2 11 5h1c-2-2-1-3 1-2 4 2 8 10 8 15 1 5 0 6-2 9l-2 5v1c-2 0-1-3 1-7 2-2 3-4 2-5l-1 1-1 1 1-4c1-2 1-3-1-6-2-4-3-5-2-1v12l-1 1c1 1 0 5-1 4v3l1 4 1 1c2 0 2 1 2 4v5l1 2v3h2v-5c-1 1-2-5 0-6v-3l1-2 1-1v-2l-3 2-1 2h-1v-4l3-4c2-2 2-3 2-9 0-5-1-7-4-11-5-6-4-8 1-2l5 4-2-5-3-6 4 5 8 9a557 557 0 0 0-4-15c0 3 7 13 11 18 5 5 5 5 4 8l-3 6-2 2 1-2c0-2 0-2-1-1v3l-1 2-1 4-2 1-2 1h-1l-1 2c1 2 1 3-1 3l-2 3h-2v-1l-1-1v3l-1 2c-1-1-2 1-2 4-1 2-1 3-4 3h-4l2-3 1-4 1 3 1 3v-2l-2-5-4-6-6-7-4-3-2-1-4-3v-2l-4 3c-2 2-4 3-5 2l-4-1-1-1-1-1h-2l-4-1-4-1h-2l-2 1c-1 0-1-1 1-3l2-5 3-5c5-5 6-13 2-15-2-1-2 1-1 2s2 2 1 4c-1 3-4 5-5 4v1l-1 4c-2 2-2 2-1 3s1 1-1 1v1l1 1h-1l-1 1c1 1 0 3-2 5-2 3-2 4-2 9v7c1 2 2 3 1 5v2l2-2 1-3v-1c-2 1-2 0-2-7v-7l3-1 5 2c0 1 1 1 0 0l1-1 2 1h1l7 1 6 2c3 1 5 2 5 4 1 1 0 2-1 1l-1 1v1h-2l-1 1c-1-1-7 5-6 6l3-2c2-2 7-5 7-3l-10 11-2 2h1l1-1c1 0 2 1 1 2 0 1-4 1-5-1l-1-1h-5c-4 0-6-2-5-3 1-2-2-1-3 0h-1l-2-2-3-1 2-1 1-2c0-3-2-2-3 1l-3 3c-2 0-1-2 1-5s2-3 1-7l-2-8-1-6-2-7v-7l1-4 2-5c2-4 2-4 0-3l-2 1c1 1-1 2-2 2l3-6v-1l1-2 1-1 1-2c1-1 2-2 1-3l2-1c2 0 2 0 0-3-3-2-4-4-3-4l4 2 3 3-1-2-1-1-2-2-3-4-1-1c-2 1-1-2 1-7s7-10 11-12c5-2 17-1 22 1 4 2 5 2 7 1v-3c-1-1 0-2 1-2l4 1zm12 5c5 5 6 7 5 9-1 1-1 1 0 0 2-2 3-1 3 0v2c1 0 2 0 3 2v2l1 2c0 2 1 3 2 2l4 4c4 3 4 3-2-5l-7-11c-3-3-3-4 0-2l4 2 1 1c-1 1 6 10 7 10l5 8c3 7 4 10 4 16v5l-2-2c0-2-9-20-11-20l-1-2c-1-1-1-1-1 1l3 5 3 4c0 1-1 1-1-1-1-2-1-2-1 0s1 2 2 2l1 2v1l4 6c3 7 7 11 7 7l1-2 2-1 2-1c2-1 3 0 1 1l-1 3-1 2-1 1c1 1 0 2-1 3v1c1 0 3-2 2-3h1v4c2 1 0 4-2 4-2-1-3 0-2 2l-2 4v1c1-1 2 0 1 2l-1 4v1c1-1 1-1 0 0l-1 2c-1 0-2 1-1 3 0 3 0 3-1 2s-1-1-2 1l-1 1c0-2-4-1-4 0l2 2c3-1 2 2-3 8l-6 4-2-1v2l-2 1h-1l-1 1c1 2 1 2-1 2h-1c0 2-5 3-8 2v1c1 1 0 1-3 2l-5 1h-7c0 2-3 2-2 0 0-2 0-2-1 0s-1 2-3 0h-1c0 2-1 2-6 1l-6-1-1-1h-4c-3 0-4-3-2-4v-1l-2 2h-5l-3-2-2-1-2-1-1-1 2-1c1 1 2 0 2-1l-2-1-1 1-3 1c-2 0-2 0-1-1v-1h-2l-1-2c1-2 7-1 13 1l11 4c6 1 7 2 7 4l-1 2c-2 0-2 0-2-2 1-2 1-2-1-1-3 2-3 4 0 4h4c2 1 3 1 4-1s1-2-1-1l-1-1v-2c-1-1-1-1 1-1 5 2 15 1 20 0 4-2 5-2 5 0h3c2-1 6 0 6 2-1 0-1 1 0 0l1-1c-1-1 0-3 1-4v-3l1-2 5-4 5-3 1-2v-2l2-2h4l-1-1c-1-1-1-2 1-4l6-13 1-3-1-1c-1 1-2 0-3-1l-2-2c-3 1-12-13-14-21 0-2-4-5-5-3l3 7 3 8c1 3-4-2-7-7-1-3-3-5-4-5l-2-5c-2-4-2-5-3-4s0 3 1 5c3 4 2 5-1 1l-2-1 2 3 2 4v5l-4-4c0-2-1-5-3-5-1 0-1 1 1 3l1 2 1 1v2l-6-1c-5 0-5-1-2-3l5-6 2-5v-1l1-1c1 1 1 0 1-1l2-12c0-3 1-3 2-1 5 3 13 16 13 20 1 3 2 5 3 4v1l5 11 5 8-1-3-3-6 3 4 3 4 1 1 1 2h2c1-2 1-4-1-4-3-1-7-6-12-16a225 225 0 0 0-9-18v-1c-1 1-13-12-15-15-2-5 1-7 5-3zm42 3c0 2-1 2-3 3v-1l1-2 1-1 1 1zm-21 1c2 1 2 4 0 6l-2 2-3-2c-1-2-2-4-1-5 0-2 2-1 2 1s2 4 3 2 0-4-1-3l-1-1h3zm-82 11 1 11c2 5 2 5 0 7-1 3-4 4-4 2h1v-2l-3-3c-2-1-4-5-2-7v-2c0-1-1-1-2 1h-1l1-2 1-3 2-4 1 1v5l-1-1h-1l2 1 1-3c0-5 0-6 3-6 1 0 2 1 1 5zm4 10v2c-1 2-2-2-2-7v-3l1 4 1 4zm-13 14-1 7-2 3h2l4 1c0 2-4 5-5 4l2-2 1-2-3 1-1 2c-1 3 0 7 3 7l1 2-2-1-2-1-2 3v2l2 1v2c1 2-1 4-2 4-2 0-2-16-1-20l2-6h1v-2l1-4 1-2c0-2 0-2-1-1-1 2-1 2-1 0l2-7v-5l2 4c1 3 1 5-1 10zm3 1c0 2 0 3 1 2l1-2v-2l1-1c1 0 2 1 1 2l-2 5c-1 3-2 4-3 3-2 0-2 0-1-8 1-5 2-4 2 1zm69-2 1 1h1c1 1 0 4-2 3s-3-4-2-5c0-3 1-3 2 1zm-66 18c0 5 0 8 2 11s1 4-2 1-4-9-3-13l2-6 1 7zm-14 11-1-1-1-2c-1 1-1 0-1-1l-1-1v-1c2-1 2-1 3 2l1 4zm10-1-1 2v2l2-2 2 1 3 2c2 1 2 1 1 2v6l2 3c-1 0-1 1 0 0l1 1c0 1-1 2-2 1v1c2 1 2 2-1 5-1 3-3 5-4 5-2 0-5-3-4-4l-1-1c-2 2-11-9-10-11 1-1 5 0 7 2v6c2 0 4-6 3-8l-3-3v-3c2-2 3-7 1-8l-1-2c0-1 4 1 5 3zm105 3-2 2v-2c2-2 3-2 2 0zm-54 7 5 4-1 1c-1 1-4 0-8-4l-2-3c2-1 2-1 6 2zm7 7-5 2-5 2c-1 1-1 0-1-1l1-2h3l-1-1c-1 1-1 1 0 0h5c2-2 4-2 3 0zm4 4-1 4c1 2-4 6-5 5v-2c2-3 3-8 2-8l-1 1h-2v-1l3-2c2-2 3-2 4-1v4zm-7 3 1 1v1c-2 3-4 4-5 3l1-1 1-1h-3l-2 1 1 1h1c0 1 0 2 1 1l1 1h1c0-2 2-1 2 0 0 2-4 4-5 4h-10l-1-1 3-1s2 0 3-2l1-2h-3c-1-2-1-2 2-4l4-2 1 2v1c1 0 2-2 1-3v-2c1-1 4 0 4 3zm11 1c2 4-1 8-6 8l-3 2c-2 1-3 0-1-2l4-2h4c1-1 0-4-1-5v-2c2-3 2-3 3 1zm-23 6-2 1-1-1 2-1c1 0 2 0 1 1z"/><path d="m63 99-1 3v1c2 0 1 2-1 2v1l3-2h3c1-2 0-2-1-2-2 0-2-1-2-2v-3l-1 2zm14 6c-1 1-1 1 2 1s3 0 2-1c-1-2-1-2-4 0zm-7-1 2 2h1l-1-2h-2zm-23 6h3c1-1 1-1-1-1-3 0-3 0-2 1zm28 1h2l1-1-1-1-2 2zm9 3 1 2 1 1v-2l-1-3-1 2zm-25-2v1h-2c-2 0-1 0 0 2l2 3v1c3 0 3-1 1-3-1-1-1-1 1-1 1 1 2 0 3-1 2-3 4-3 4 0v3c1 0 2-5 1-6-2-1-6 1-6 2l-1 2v-1l-1-2h-2zm12 7-2 1c-3 0-7 2-7 5l2-1c2-3 5-4 6-1 0 1 1 2 3 1 3 0 4-3 1-5h-3zm4 2-2 2c-2 0-2 0-1-2h3z"/><path d="M65 125v2l1-1v-1l2-1c0-2-3-1-3 0zm98 60c-1 2 0 3 1 1v-1h-2zm-33 1v3l1 1 2 2c1 3 1 4-2 4l-10 10 3 2c2 0 3 1 2 3l3-1c4-2 4-3 1-5-3-1-3-1-3 1 0 1 1 2 2 1v1h-3l-2-2 1-1 1-1 1-2c3 0 4-1 2-1l-1-1 2-1 2-1c1-2 2-2 5-2l5 1 3 3c1-1 4 1 3 2h2v1c0 2 2 3 3 1 1-3 2-1 2 4v6h1l1-6c0-5 0-5-3-6l-4-3-4-2c-2 1-3 0-3-1l-1-5-3-1-2-1c-2-2-7-4-7-3zm6 4v5l-3-7c0-1 2 0 3 2zm8-2c1 1 2 2 1 3l1 2h2c-2-1-2-2-1-4v-2h-2l-1-1v2zm5 0 1 2c1 1 1 1 1-1l-1-2-1 1z"/><path d="M135 200c0 1 0 2-1 1l-3 1v2l2 1c1 1 1 1 2-1l2-2v2l-2 5v3c1 0 2-1 1-2l2-3 3-2-1-1-1-1v-3l1-1h-2l-2-2c-2 0-2 1-1 3zm8 3 2 3v-2l-2-2c-2-1-2-1 0 1zm-2 4v2c-1 2-1 2 1 1v-2l-1-1zm-19 9c-2 1-2 1 0 1s5-1 3-2l-3 1zm6 8c-3 2-2 3 1 1 2 0 3-1 3-2l-4 1zm2 3c-5 2-9 3-6 1v-1l-1 2-2 1-3 3c-1 2-1 3 1 2l1-4h3l6-2 6-4-5 2zm21 2c0 1 5 4 6 3l-1-1h-1l-1-1-2-1h-1zm-24 5c-2 0-2 0-1 1v2c-1 1-1 1 0 0h-1l-1 4c0 3 0 3 1 1l4-8h-2zm21 3-1 2v1l-3 1v1h2c2-1 2-1 2 1l2-2c1-3 1-4-1-5-1-1-1-1-1 1zm10 4c-2 0-2 2-3 4 0 5 2 5 3 1 0-3 1-4 4-4l3-1 3-1-3-1-7 2zm26 1 5 2-3-2h-2zm-34 6-3 7c-1 2-1 2 1 1l2 1 1 1 1-4v-10l-2 4zm-29-1c-5 5-5 6-3 6l1-1 2-3h1v2l2-6-3 2zm24 0c-2 2-3 6-1 5l1-2 1-2 1-1h-2zm23 6-1 1c-1-1-2 2 0 4 1 1 1 1 1-2l1-1v-2h-1zm17 1v2h3l-1-1-1-1h-1z"/><path d="M146 259h-2v1h3c2-2 1-3-1-1zm44 0v8l1-1 1-3v-1c-2 0-2 0-1-2v-2l-1 1zm-61 18v3l2-2c1-1 0-2-1-2-2 0-2 0-1 1zm17 1-1 1h-2l-3 1h-4v2h1l4-1c4 0 7-2 6-4l-1 1zm31-74 1 1 1 2h-1l2 5c3 4 6 8 5 5a417 417 0 0 0-8-13zm-3 4v2l2 6c5 8 5 8 3 0-3-8-5-11-6-11l1 3zm20 67v3c1 1 1 1-1 1l-2 1 1 1c3-1 5-3 3-4v-2c0-1-1-2-2 0zm-32 21v1l2-1v-2l-2 2zm-52-28-1 2c0 2 0 2-1 0h-2l2 2v2l-3-2h-1l3 4c2 2 2 3 1 3v1c2 2 2 0 1-2-1-3 0-4 1-4l1 1 1 2 1-2-1-2c-1 0-2-1-2-3v-3 1zM144 6h2V5h-1l-2-1 1 2zm11 1 1 1c2 1 2 1 1-1h-2zm-11 2c-8 1-13 2-21 8l-8 4-1 1c0 2 0 2 2 1 3-3 6-3 7-1 1 3 1 3-1 3v1c2 1 2 1 0 3-3 2-5 2-7-1-1-3-6-5-7-3h1c3 0 2 1 0 4-4 4-10 12-11 16-3 9-3 9-6 9l-2 1h3c3 0 3 0 2 2l-1 8-3 8c-1 2-1 2 1 2 2 1 4 6 2 7-2 0-1 2 0 2s3 2 4 5c3 5 4 6 2 5l-1 1 2 1 4 4 5 5h1l1 2 2 2 1 1 4 2c8 9 32 12 49 7 6-2 23-14 22-15l3-4c6-4 11-17 13-28v-5c2-5-1-17-5-25-4-9-18-24-21-23 0 1-1 1 0 0 0-1-9-6-10-5l-4-1-7-3-7-1h-8zm13 3c5 1 10 7 12 12 2 4 1 12-1 17-4 8-19 13-28 8-3-2-4-2-3-4l11-5c7-1 11-1 12 1 1 1 1 1 1-1 1-3 1-3-1-3h-1l-3-1c-2 0-2 0 0 1 1 1 1 1-2 1-4 0-4 0-3-1 2-2 7-3 9-2h1l-2-2-2-2c-1-3-5-4-9-4-5 1-8 3-14 9-4 4-4 4-4 2 0-3-6-17-7-18s0-2 5-4l3-2h3l3-2-3 4-3 2h-1v3h-1l1 1h-2c-3-2-3-2-2 0l2 1 1 3v3l1-1c0-4 4-11 8-14l5-3 14 1zm15 5 2 2c2 0 2 0 1 1s-1 1 1 1l7 2c4 2 5 3 5 5 0 3 0 3-4-3l-3-2 1 2 5 10 4 11 4 10 3 12 2 5-7-11-2-7a191 191 0 0 1-4-10c-1 1 1 9 3 13l1 5 1 4v1l2 6 1 6 2 4c2 2 3 3 2 5l-3 1v1c1 0 2 3 0 3l-2 3c-2 2-3 3-5 3s-2 0-1 1c2 0 2 0-1 3-4 4-13 10-16 9v2l-1 1-2 1-9 1h-25l-2-1-1-1c-2 1-3 0-2-1s1-1-1-1l-2-1-1-1c-3 1-4 0-3-3l-1-1-1 2-2-1-2-1-1-1v-2l-1-1-2-3-2-1h-1l-1-2-1-1c-1 1-4-3-4-4v-2c-3-2-5-9-4-10l6-10-2 3-4 5-3 2-1-3c-1-3 0-4 4-8l6-4v-4l7-14-5 9c-3 5-6 10-8 11-3 4-4 3-1-1a93 93 0 0 0 13-22c2-2 1-5-1-5s-2 0 0 2v1l-2 1h-1l-1 1-1 1-3 2h1l4-1c2-2 2 0 0 2l-3 4-8 15c-2 0 2-19 5-26 4-6 7-11 10-13 2-1 2-1 4 1 2 3 4 3 7 0l2-2v10a50 50 0 0 1-3 21l-2 3-1 9c-1 6-1 7 2 9l2 4c0 2 0 3 2 5s2 2 1 0c0-2 2-4 4-2 1 2 1 6-1 6h-1l2 1c2 1 2 1 2 3-1 1 0 2 1 2 1 1 2 0 2-1l1-1-1-1c-3-1-4-3-1-3h3l-3-1c-1 0-2-1-2-3l-1-3-1-1h3l1 1c-1 1 0 2 3 4s4 3 4 5c-1 2 0 3 1 2 2 0 2-1 1-2v-5l-1-1 4-2h6c2 0 3 0 4 2l4 5c3 3 3 4 3 6h2l-6-9-1-3-3-7c-4-8-4-9-3-10s1-1 0 0c-2 1-2 1-2-2v-2c-2 1-1 5 2 12l3 7h-5l-6-2 1-1c2 0 3 0 3-2s0-2-1-1c-1 2-2 2-3 2l-1 2-2 1c0 1-1 1 0 0 1-2-1-1-2 1-2 1-2 2 0 2 2-1 2 0 3 2 0 2-1 2-5-1-2-2-2-2 1-5l2-2h-4l-1 1-2 1v-1l-3-1c-4 1-9-2-8-5 0-2 0-2-1-1-1 2-1 1-1-4 1-7 3-13 3-8 0 2 0 2 1 1v-3c-1-1 0-2 1-5 2-2 2-3 1-3v-1l2-2c1-1 1-1 0 0h-1l2-3 1-1h-1c-2 1-3 0-2-2h1c1 1 6-2 6-4s6-7 7-6v-1l1-2c2-1 2-1 1 1l2-1c4-4 7-4 9-2s2 2 0 4l-3 3-7 3-7 4-5 10c0 1 1 1 1-1 1-1 1 0 1 3-1 4 0 6 2 11 2 3 3 8 3 10 0 3 0 3 1 1 0-5 3-3 2 2h2v-2l-1-7-2-8c-1-2 0-6 3-8l7-2c6 0 12-2 16-6 5-5 6-8 6-16l1-8-1-1c-2 0-5-6-4-6 2-1 4 0 4 1zm22 16 4 7v1c2 0 5 9 5 13l1 4v6l1 1v1c-1 1-2 6-2 13l-1 4v2l-2-2-3-5-1-2-2-4 1-3c1 0 5 8 4 9h2v-9l-3-5-2-7c-1-1-1-2 1-2l1 1 1 1 2-2h-1l-3-2c-2-1-3-4-1-2l1-1-2-1c-1 0-6-11-6-14l-1-2c-1-1 1-5 2-5l4 5zm-66 2 1 4c1 3 0 5-2 4l-1-6c1-4 2-6 2-2zm12 16c3 1 3 1 2 3h-5l-2-2c-1-3 1-3 5-1zm-2 9 1 4v2l1 2v4l-3-4-4-9c0-2 1-1 2 2l1 2c-2-8-2-8 1-7 1 1 2 2 1 4zm-11 25h-3l2-1c2 0 2 0 1 1z"/><path d="m148 23-1 2 4-3c0-2-1-1-3 1zm10 1v1c2-1 2-1 2 1l1 2c1 0 1-4-1-4h-2zm20 2 4 7c4 7 4 9 0 4l-2-3 2 3 3 5c1 2 1 2 1 0l3 4c3 7 3 5 0-3l-3-6c-1-4-8-14-8-11zm-28 6c-1 1 0 1 1 1l2-1c-1-2-3-2-3 0zm-39 2-1 4-1 1c5 1 6 1 7-2s1-6-1-5l-1 3v1l1 1-2 1v-2l-1-4-1 2zm66-2v3l-1 3c-1 0-3 2-3 4-1 4-1 4-2 2-1-1-1-1-1 1l-2 3-5 3c-3 3-4 3-10 4-7 0-7 1-5 2l3 4 2 2-2-4v-3c1 0 2 1 2 3 1 1 1 2 2 1l-1-3v-1l3 3c1 2 1 2 0 0 0-2 0-2 3 1l4 3-1-1v-1c0-1 3 0 5 2v4c1 1 2 0 1-1l1-1 2 1 1 2v-1l1-2v-2l1-1 1 3c-1 1 0 3 1 4 2 2 6 8 6 10v6c0 5 0 5 1 2 1-6-1-12-4-16l-2-4c2 1 2 0 0-3-1-2-2-3-3-2l-5-2-8-3c-3-1-4-2-2-2l3-1c1-1 1-1 2 1 1 1 7 5 8 4l-3-4-1-1c0 2-1 3-3 0-2-2-2-2 0-3l4-2 3-3 4-8c2-3 2-4 1-5l-1-2zm-41 7h-1l-1 1h3l2-1h1l-2-1c-1-1-2 0-2 1zm-18 2-1 3c-2 1-4 5-3 5l5-7v-2l-1 1z"/><path d="M180 44c0 4 2 9 5 11l2 2-4-10-1-3-2-3v3zm-61 1-3 6 5-7-2 1zm56 3c0 2 4 8 6 8 1 0 1-1-1-4l-2-5-1-1-2 2zm-55 2-1 4 2-3c1-2 1-2-1-1zm52 0c-2 0-2 0 0 3 1 3 5 6 6 5l-2-5-4-3zm-60 2c-2 3-2 4-1 4l2-2c1-2 1-2 1 0v2c2-1 2-2 1-3-1-2-1-2-3-1zm15 3v7l1-1v-4c1-3 1-4-1-2zm-19 6-1 2-1 3-2 4 1-1h1c2 0 4-4 5-10 0-3 0-3-3 2zm9-2-1 4 3-5c-1-1-1 0-2 1zm28-1v2h-1c-1-1-1 0-1 1l1 4c2 1 1 2-1 1v1c2 3 2 6 1 6v1c2-1 3-6 2-9-1-2-1-3 1-2l1 1 1 1-1-3-1-1v-2l-2-2v1zm37 7 1 8 2 4 3 4-1-5-3-9-2-8-1 6zm-24 0 1 2v-2l-1-3v3zm-27-1 1 6 2 5-1 1c-1-1-2 0-2 1 0 2 2 2 3 0s1-4-1-8l-2-5zm-21 3-5 9c-4 6-4 8 0 3 4-4 7-13 7-14l-2 2zm5-2c1 1 0 4-1 2h-1v1l1 2-1 5 1-1 1-2 1-4v-3h-1z"/><path d="M156 66c1 3 1 3-1 3l-1 1v1c-1 1 0 1 1 1l2-1v-1l3 3 3 3v-2l-1-1v-9l2 3c1 3 1 3 1 1-1-5-4-5-4 0 0 3-2 2-4-1-1-3-2-4-1-1zm-27 3v3c0 1 1 1 1-1v-2h-1zm40 2c-1 2-1 10 1 14 1 4 3 7 5 7v1l1 1h1l1 1v-1l1-1c2 1 2 1 0-2s-4-4-2-1v2l-3-10v-2 9l1 2c-2 0-5-8-5-11 0-5 0-6 1-5v-5c0-2 0-1-2 1zm3-1 2 4c1 3 1 3 1 1 0-1-3-7-3-5zm-63 6-2 4 5-9-3 5zm82 0v4l-2-3 1 3c2 6 4 9 5 8s-2-8-3-7v-3l-1-5c-1-1-1-1-1 2zm-33-2h-1l1 2c3 2 4 2 2-1l-2-1z"/><path d="M176 78c-1 0 0 1 0 0v7l1 2v-3l1-4h1v5l4 9v-3l-2-5-1-6-1-3c0-1-3-1-3 1zm-13 0c-1 1-2 2-1 3l5 10 1 4h1l1-2h1l-2-1c-1 1-1 0-1-1l-2-6-2-6 3 3 2 5-4-10-2 1zm-52 1 1 1h-1c-1 0-4 2-4 4l-1 1-1 1h3c3 0 3-1 3-2h-3c1-1 1-2 6-2 2 0 2 0 1-1l-2-2-1-1c-1 0-2 0-1 1zm48 2 2 4c2 1 2 2 1 4-1 1-1 2 2 2h2l-3-5-4-6v1z"/><path d="m112 83 3 1h3l-4-1h-2zm-3 6 2 3c2 1 2 1 2-1l-1-1-2-1h-1zm-3 1 2 2c1 1 1 1 0 0v-2l-1-1-1 1zm12 2-1 3h1l1-1 1 1v1l1-2 1-2 3 2c2 3 3 4 0 4l-1-1v-1c-1-1-1 0-1 4l2 5v2l-2 1 1 1h2c1-1 1-1 2 1h2l-2-3-2-3h5c3-1 3-1 0-1l-3-1 2-1h1l-2-1-1-2c1-2-5-7-6-6s-2 1-2-1c0-1-1-1-2 1zm28-1 1 3c-1 2 0 3 1 4s1 1 0 0v-6l-2-2v1zm17 2 4 6v-3l-1-3h-3zm-12 2 3 3 2 2-2-3c-2-3-3-4-3-2z"/><path d="m117 98 1 1 1 1c1 1 2 1 2-1s-3-2-4-1zm18 1c1 1 0 2-1 2l-2 1h9l-2-1-3-2h-1zm45 0 1 2v-1l1-1h1l-1-1-2 1zm-38 1 4 1c4 0 9 2 9 3l-4 1c-2 0-3 0-2 1h5c3 0 3 0 2 1v2c2 2 2 2 3 0l2-3 1-3 1 1c0 1 1 2 3 1l2-1 2-2h5l-2-2h-2l-2 1-2 2h-8v5c-1 3-2 2-2-1v-2l-1-2c0-1-1-2-6-3h-8z"/><path d="m146 103 4 1h3l-3-1-4-1c-2 0-2 0 0 1zm-12 2v1l-1 1c-2 0-2 1 0 2h2v-1l1-1v-2l1 1c1 1 2 2 3 1 3 0 3 0 2 2l1 2v-1l2-3c1-2 1-2-1-2l-5-1-5 1zm31 2-2 1c-1-1-1 0-1 1 0 2 0 2 1 1h2c1 1 1 1 0 0v-3l1-1-2 1zm-18 1v3c0 3 0 3-1 1h-1c0 2 2 3 3 2h5l1-2 1-1-1-1-1-1h-1v3c-3 1-4 0-4-3 1-2 0-3-1-1zm9 6v2l1-1v-2l-1 1zm35-81 4 4v-2l-2-2-1-1-1 1zm2 7c0 1 1 2 3 1 2-2 1-3-1-3l-2 1zm-26-30 2 2-1-2-2-2 1 2zm-58 11-2 1 3-1 2-2-3 2zm90 11c2 2 3 2 3 1v-1l-2-1-1-1c-2 0-1 0 0 2zm46 62v2-1l1-1h2-3zm-7 9h-2l-1 1h-2v1h3l3-1c1 1 1 1 1-1s-1-3-2 0zm-11 2v1c1-1 2 0 3 1 2 2 3 1 1-1s-2-2-4-1zm-36 3h-2l-1 2c0 2 2 4 3 3l-1-2v-1h2l4-2c0-2-3-2-5 0zm23 4c-1 1 0 2 2 1 2 0 3-1 1-1h-3zm10 1c-4 2-8 7-8 8l4-3c3-3 8-5 14-5l5-1c0-2-11-1-15 1zm-126 0c-1 2 0 3 3 7l4 6v2h1c0-2 3 1 5 7 4 6 4 6 1 5l-1-2-1-1v3l2 1 1 1 2 2 2 1c2 2 2 2 2 0l-3-5-2-4v-1c-1 1-1 0-1-1l-3-5-2-4v-1l-2-1-1-2-2-1c-2-1-2-2-1-3v-2l-1-2h-3zm182 0v3h1l1-2v-1l-1-1-2 1z"/><path d="m221 119-1 3 1-1 3-1 2-1h2c2 1 2 1 0 2-1 1-1 1 1 1l4-2 3-1 1-1-2-1-2 1c1 1 0 1-1 1l-4-1c-1-2-6-1-7 1zm23 0v2-1l1-1 3-1 3-1h-4c-2 0-3 1-3 2zm-117 4-2 2c-2 0-2 1-1 1v1l1 1 4 8 1 1v3c-1 5-1 6 1 3 1-2 1-2 1 0l-2 3-1 2v6l-1-1h-1l1 1 1 3c0 2 0 2 1 1v-3l1-1 1 2c0 2 2 2 7-1 4-1 6 0 6 2l-2 4c0 2 0 2 1 1l1 1v1c1 1 2 0 2-2v-2c-1 1-1 0-1-1v-1l1-3c-1-4-2-4-9-2-5 2-5 2-5 0v-2l1-4c-1-4-2-4 9-3l2 1 2 2 2-1-1-1-1-7v-8l4 1h5l-1 8-1 8 8-1 8-1v5c0 3 0 4 1 3l1 3 2 6 1-2-2-6c0-9-1-9-3-11-3-2-5-3-4-1v2c-1 0-3-2-2-3l-1-1v2h-1c-1-1-2-2-3-1-2 0-2-2-1-4l1-3h1l2-1c1-1 0-2-1-2h-1c1 2-2 1-4-1-1-1-1-1 2-1l11-1c1-2-1-2-6-1l-14 1-8 1c1 1-2 1-4 1v2h1c0-2 2-1 1 1 0 2 0 2 2 0l2-1 1 2c2 2 3 5 1 7l-1-1c1-1 0-1 0 0-2 2-2 2-2 0h-1l-2 1h-3c0 2-2 1-3-1v-1l-1-1-1-5-1-2-2-2c-1-1 0-2 2-2s2 0 0 2l-1 1 4 1v1c1 0 2-1 1-2 0-1 1-2 3-1 2 0 3 0 2-1l-5-2c-5 0-6-1-6-2v-2l-1 1zm49 0-2 4-1 7-1 4 2-4 2-5 1 1c-2 2-4 12-4 13 1 1 1 0 2-3l5-16v-2l-4 1zm38 1c-3 3-3 5 0 7 2 2 3 2 8 2l6 1-3 1c-3 0-3 0-1 2l2 2v-1c-1-1 0-1 2-2 7-1 2-4-6-4-5 0-6 0-6-2 1-2 0-4-1-2l-2 1 2-4c1-2 2-2 2-1 2 2 3 1 2-1-2-2-3-1-5 1zm36 0 2 1 2-1h-4zm18 1c-1 1 0 3 2 4 2 4 3 3 0-2l-2-2z"/><path d="m215 126 7 3-1-1-1-1-1-1-4-1zm49 0v1l1 3c-1 1 3 6 4 6l-1-2c-2-3-3-5-1-3l3 1-3-3c-2-1-3-3-2-3v-1l-1 1zm-162 3c-1 1 0 2 1 3v-1l-1-2 3 2c3 3 4 3 3 0l-2-2-2-1c-2-1-2-1-2 1zm97 4-2 5 2-2 2-4v-3l-2 4zm-173-3-1 2 2-1c2-1 1-2-1-1zm5 0 3 1c2-1 2-1-1-1h-2zm136 1c-1 2-1 2 1 1 3 0 4-2 2-2l-3 1zm-66 2-2 1h-1l-1 1v2l-1 4c-1 2-1 2 1 0l2-4c0-2 1 0 2 2v9c-1-1-1-1-1 1v2l-1 1v4l-1 1h5c0-2 0-2 3 0 3 3 3 2 0-1-2-2-3-3-4-2-2 2-1-1 1-3 2-3 3-5 1-3l-1-4v-4l-1-3c0-2 1-3 2-1l3 1-1-2-2-1-3-1h-1zm99 5v4c1 0 4-6 3-8l-3 4zm55-3-1 5-1 3v-6l-2-1c-1-1-1-1 0 0v3l-1 1 1 2h1c1 2 5 3 5 1h-1v-3c0-2 1-2 3-1 3 0 3 0 2-2l-1-3v1l-1 2-1-1-2-2c-1-1-1-1-1 1zm-68 6-3 9c2-1 7-14 6-15l-3 6zm-162-4-1 1v4l2-3v-4l-1 2zm211 0h4c1-1 0-1-2-1s-3 0-2 1zm-204 8c0 6 0 7 2 7s4-2 2-2h-1c-1 1-1-2-1-6 0-9-1-9-2 0zm55-4-5 4 8-6c3-3 2-3-3 2zm154-2-3 1 7-1h-4zm-215 4c-1 3-1 3 1 2l1-3 1-1h1l-1-1c-1-1-2 0-3 3z"/><path d="m35 143 1 4v-3c0-5-1-6-1-1zm134-3 1 2c1 0 4-2 2-3l-1 1h-2zm76 1 2 2c1 1 2 3 0 3l-1-1-1-2c-2 0 0 4 3 5 1 1 2 0 3-1l-1-2v-1h-1l-1-2c1-1 0-2-1-2l-2 1zm-138 4v1l-1 1h2l2 2-1 1c-1-1-1-1 0 0l3 3c3 2 4 1 2-1l-4-6c-2-4-4-5-3-1zm131 1c0 4 2 6 5 5v-4l-1-1v-1l-1-2c-2 0-1 5 1 6v1c-2 0-3-1-3-4l-1-3v3zm-209-1c-1 2 0 4 1 3l1-2v-1l-1-1c-1-1-1 0-1 1zm38 0v2c1 1 2 0 1-2h-2zm2-1 3 2c3 1 3 1 2-1l-5-1zm28 3-2 4-2 2c0 1 0 2-2 2l-2 2c-1 1-2 2-3 1l-10-1 5 2 6 1h2c0-1 1-3 3-3l2-2 1-1 4-9-2 2zm-47 1 1 1c1-1 6 4 6 6l-3 1c-6-2-13-1-13 0l1 1c1-1 1 0 0 0l1 2 2 1 2-2v-2l1 3 1 1 1-2 1-1c1-1 1-1 0 0l1 1c3-1 8 1 9 4 1 2 4 3 4 1l-1-1-6-7c0-4-2-6-5-7-4-2-4-2-3 0z"/><path d="M93 148c-2 2-5 3-6 2h-1c0 3 2 3 6 0l3-4-2 2zm-55 1 1 1 1-1-1-2-1 1zm42-1 3 3 1 1h1l-2-3c-2-2-3-3-3-1zm122 3-3 4 4-3 3-4-4 3zm-125 0-3 1c-2 0-3 2-1 2l3-1h3l3 1v-1l-4-3h-1zm29-1c-1 2 0 5 1 5l3 2 4 2c2-1 1-3-2-3-1 0-3-1-4-4l-2-2zm158 0c-1 1 0 3 2 4v-1l-1-3v-1l-1 1zm-204 1 1 1 1 3 2 2 3 2c2 1 2 1 1-1l-8-7zm188 1 2 4 2 5v1l1 3-1 2 2-2c2-3 3-1 1 2v2c0 1 1 1 1-1 1-1 1-1 1 2l-1 3-15-4c-2-2-3-2-4-1l1 1 3 3c2 2 3 3 4 2h1l4 1c2 0 3 0 3 2l1 2v-2h1l3 2c1-1 2 2 1 3l-2-1c-2-1-2-1 0 1 3 4 5 1 4-7l-1-3c-1 1-2 0-1-2 0-3-2-8-4-8l-1-1c1-1 0-3-1-4l-2-4c0-3-3-4-3-1zm11 24h-1l-2-2h2l1 2zm-106-22c0 2 1 3 2 3l1-1 3-1c2 0 3 1 3 2l1 1v-2h3c3 1 4 2 5 7l1 6v1c1-1 2 0 3 1l2 3v-3l-1-3-1-2c0-2 0-2-1-1-1 2-2-1-2-5l-1-4c-1-1-7-3-13-3l-4-1c-1-1-1 0-1 2zm36 1c-2 3-3 11-2 11l3-7-2 1c-1 1-1 1 0 0s2-2 3-1v-7c-1-1-1-1-2 3zm36-1c-4 1-7 6-8 10l1 4 1-3c0-5 3-9 6-9l3-2h-3zm-189 2h2l1 1v1l1-1c-1-2-4-3-4-1zm35 4 1 2c2 0 2-2 1-3-2-1-2-1-2 1z"/><path d="M155 160c-1 2 0 8 2 10v2l-1-1h-1l-1-1c1-1 0-1-2-1l-4 1-2 1v-3l-3-4-1 2h1l1 1-7 3-6 3-1 2v-2l-2 2c0 1 1 2 3 1l3-2 2-1h25l2 1 1 1c-1 1 0 1 1 1 2 0 1-2-3-4l-3-1 3 1 5 2c2 3 10 7 12 6v-3l-2-1c0 2 0 2-2 2l-7-5c0-1-1-2-5-2-4-1-5-2-6-4l-1-5v-2l1-1c0-2-2-1-2 1zm-103 0 2 1c1 0 3 3 2 4h1c2 0 2 1 2 4l-1 5-1 4v3l-1-2c0-2-2-1-2 1-1 1 0 1 3 2 3 0 3 0 3-4v-4l2-4v-4c-1 1-1 0-2-1l-2-2v-1l1-1-4-1h-3zm45 0v1l2 1h2c1-2 2-2 3-1h1c-1-2-6-2-8-1zm34 0-1 2c0 1 0 2-1 1v1l-1 3-2 2h-1v1l-2 5-2 4 5-2 1-1v-3l1-3 1-2 2-4v-4z"/><path d="m161 161 1 2c1 2 1 2 1 0l-1-2h-1zm-127 3c-1 2-1 2 1 2l2-3c0-3-1-3-3 1zm142-1 1 2 1-2-1-2-1 2zm-73 1v2c-1-1-2-1-1 1l1 2v4l-1 1h-1c2 1-3 5-7 6l-5 1 2 1h1l-2 1-2 1h-1c0-1-1-1-1 1-1 2-1 2 2 1 2-1 2-1 0 1l-2 2 2-1c2 0 2 0 2 3-1 3 0 3 2 2l2-2h-1l-1-1 4-2 4-1-1-1-3-1c-2-2-2-2-1-3h2l1 1 1-1 2-3c3-2 4-6 4-11l1-4v-1h-2l-2-1 1 2zm-7 22c0 1-1 2-2 1-2 0-2 0-1-1h3zm-43-22v2c0 1 0 2 1 1 1 0 1-3-1-4v1zm57 1v3l1-3-1-1zm121 0 1 1h3v-1h-4zm-135 3c-1 1-3 2-2 0l-1-1-5 5 1-1c3-2 5-3 3-1-2 3-1 3 3 0l3-4-2 2zm-16 4c-3 3-3 3-2 5l2 3 2-2v-2c-1 1-2 0-2-1v-2 1h2l2-4v-1l-4 3zm93 1h-3l6 3-1-2c0-3-2-4-2-1zm44 1c0 4 1 4 3 1 1-2 1-3-1-3-1-1-1 0-2 2zm60 1-3 5 3-4c3-4 3-6 0-1z"/><path d="M89 176v1h2v-1h-2zm197 0v4c1 0 2-4 1-5l-1 1zm-170 2v2c1 1 2 0 2-1 0-2 0-2-2-1zm-32 1h3c1-1 1-1-1-1l-2 1zm-40 3-2 3-1 1h1l1-1 2-2c1-2 1-3-1-1zm227 0-1 3c0 2 1 1 2-1l2-3-3 1zm-10 1-2 4v2c1 0 2-1 1-2 0-2 3-1 5 2 1 2 2 2 3 1 2-3 1-6-2-6l-3-1h-2zm-208 1-1 1v1l-1 1v3l-1 2v-1h-1v2h2l2 1-1 1h-2l1 1 2 1c1 2 3 3 3 2l-1-2c-2-2-2-2 0-1v-1c-3-3-2-9 2-11 2-1 2-1-1-1l-3 1zm48 0v3c2 0 2-1 1-3h-1zm-32 2c-1 3 0 7 3 8h5l1-1h-6c-2-1-2-1-2-5 1-4 1-5-1-2zm7 0c-1 1 1 2 2 0l1-1-1 2-1 2s2 0 3-2l3-2-3-1c-3 0-4 1-4 2zm153-1-3 1-2 1h2l2 1h2l2-3h-3zm-119 2 1 2c2 0 1-2-1-3v1zm-73 1 1 1v2l1 2c2 2 4 3 2 0l-1-3-2-2h-1zm209 0-2 2c-1 1-1 1 1 1l2-2c1-2 0-3-1-1zm-24 1c-1 1 1 3 3 2 2 0 2 0 1 1-2 0-1 2 1 2l2-2c0-2-1-2-3-2l-3-1h-1zm10 0 1 1v3l1 2v1c2 0 2-1 1-3v-1c2 1 2 0 1-1-1-2-4-4-4-2zm-126 1 1 1c1 1 4 0 3-1h-4zm-26 2c-1 1 0 1 3 1l3-1-3-1c-1-1-2-1-3 1zm178 1v3h1l1-1v-3l-2 1zm17 0-1 1c-3-1-3 1-1 2l2 1-1-5v1zm-45 2c-1 1-1 2 1 2l1 1 1 1c2 0 3 0 3 2s-1 3-3 1l-2-1c-1 1 0 2 3 3 3 0 3 0 3-2 0-3-1-5-2-5l-3-1-2-1zm14 3c-1 2-3 3-3 2l-1 1v1c-2 1-1 2 2 2l3-1 1-3c2-2 2-2 1-3v-2l-3 3zm-44 5c-1 1-1 2 1 2l1 1h1c2-3-1-6-3-3zm-102 7c-4 10-7 26-5 29v3h-1v-2h-1l-1 2c-2 0-4 4-3 4l4-1c4-2 4-2 4-7 0-12 3-28 5-30v-2l-2 4zm-5 48v2h1l2 2 2 2-3-4-2-2z"/></svg>