<svg version="1.0" xmlns="http://www.w3.org/2000/svg" viewBox="0 0 900 906"><path d="m447 3-12 1a167 167 0 0 0-100 37l-13 10-6 5-6 6a153 153 0 0 0-20 22l-4 8-7 11c-2 2-5 7-6 11a89 89 0 0 0-9 21l-4 15-1 4-2 11-2 17a112 112 0 0 0 1 40v3l1 8c0 5 0 7 2 8l1 6 1 5 2 11c-1 1-8-1-9-3l-4-1-6-1c-6-2-28-4-43-4a204 204 0 0 0-67 10l-5 2a230 230 0 0 0-56 30l-4 4a176 176 0 0 0-35 40 383 383 0 0 0-27 60l-1 3-4 32v31a142 142 0 0 0 8 45 139 139 0 0 0 34 59l5 6 5 6a383 383 0 0 1 18 18l19 13a352 352 0 0 0 53 24c12 3 17 4 18 3l5 1 15 2a408 408 0 0 0 66-2l16-8 2-1-1 2-1 3-3 6c-3 5-6 14-8 21l-1 5-1 5-1 5-2 30v16c0 7 1 12 2 13l1 7a109 109 0 0 0 14 42l3 5 1 3 3 5 3 5a108 108 0 0 0 15 21c5 7 13 14 20 21l10 7a150 150 0 0 0 29 19 183 183 0 0 0 58 23c3 2 14 3 17 2 1-1 2 0 4 2l5 2a1165 1165 0 0 1 39 0c5-2 6-2 8-1 4 2 6 1 8-1l7-1 7-1 7-3 6-2 6-1 8-2a158 158 0 0 1 18-9l10-6a134 134 0 0 0 35-30l11-13 1-2 4-7 5-6 7-13 2-3 1-3 3-4 3-7 2-4 1-3 2-3 1-4 1-5 2-7 2-5 1-6 2-9c1-3 2-6 1-10l1-12c2-9 2-21 0-40-2-11-3-18-6-22l-1-5-2-5c-3-2-3-2-4-1-1 2-2 2-3 1-1-2-6-2-8 0-1 1 3 3 5 3l2 1-1 1c-3 0-2 5 0 6s2 2 0 4c-2 3-2 13-1 13l2-4c1-5 2-7 4-4h2l1-2c1-2 3 0 3 2l-2 5c-3 3-3 3-2 5l4 2 2 2c0 3-2 4-4 1-2-1-2-1-4 1-2 1-2 1-3-1-2-1-2-1-3 1v4l3 1c2 1 2 2 1 3v3c2 1 1 2-4 5s-5 3-6 1 0-7 1-7c2 0 1-3 0-4s-2-3-2-7l-1-6-4-16-1-5-2-3-1-3-2-3-5-11-1-3-1-4-2-3-1-3c-3-1-14-15-16-19l-4-4-4-3-5-6c-2-2-4-4-4-6-1-3-1-4 1-7 4-5 7-5 6 0v4c-1 2 3 8 6 7l4-3c2-3 2-3 1-6-2-4-4-4-5-3-2 1-2 1-3-1l-1-4c1-1 7-1 7 1l5 3c3 1 4 4 2 6v3c3 2 2 4-1 5s-7 7-6 9c2 1 6-1 6-3l3-4 2-5 1-3c2-1 3 0 3 3s0 3 3 3c3-1 4 0 6 5 1 4 1 4-1 6l-2 3c1 0 2 0 2-2 2-1 2-1 4 1h4c3-2 4-1 4 4l-1 5h4l4 1-1 1c-2 0-3 2-1 2 1 1 5-4 5-7l1-6c0-2 0-3-3-5-2-2-3-2-5-1-1 1-1 1-1-1l-1-3-4-1-5-3c-3-1-11-8-11-10l-2-1c-2-1-2-1-1-3l1-4c0-2 0-2-2-1l-3-1v-4c2-4 4-4 5-1l2 4 2 2c0 2 6 9 7 9l13 8 3 1c2-1 2-3 0-4l-3-3c0-3 0-3-2-2-4 1-5-1-4-5l-1-4c-1 0-2 1-1 3l-1 2-3-1-2-2v-4c1-2 1-3-1-4l-2 1c-2 2-3 1-3-1l-1-4c-2-2-6-3-6-1h-1v-6l-1 1c0 3-2 3-4 2-1-1-1-1-1 1l2 6c0 4-2 4-5 1-2-2-2-3-1-4v-2l-7-6c-4-3-5-5-5-7s-1-4-3-5c-3-2-3-2-2-5 1-2 1-3-1-4-4-3-4-5-1-9 2-1 3-4 3-5 0-2 0-2-3 1l-5 4c-1 0-4-10-3-11l-1-4c-2-4-3-10-1-10l2-2 1-5c2-3 2-5 0-5l-1-3-1-2c-1-1-2 4-2 9l-1 4c-3 2-4-12-1-16l2-4c0-2 3-6 5-6l2 2v-3c0-4 0-4 2-4 2 1 2 1 2-1l2-5c2-2 2-2 1-4-2-3-2-4-1-6l2-3 2-3 1-3 2-3 1-3c0-3 2-4 4-1 1 1 1 1 3-1 3-3 4-7 2-7l-2-1c-1-1 5-13 7-16l1-2 3-5 3-6 5-9 4-7 5-5 2 3c2 2 2 4 3 14 0 12 1 19 3 19l1 2 4 3c3 1 3 2 3 7 0 4 0 5 3 8l5 4c1 0 3 3 2 4h-8l-2-1c-2 1-3-1-2-4 0-3-3-3-4 0 0 2-1 2-3 2h-4c-2 2-1 0 1-3s2-4 1-6-1-3 1-4v-5c-1-1-1 0-2 1l-2 5-1 5-1 2-1 4-5 5c-3 1-7 5-10 8l-6 5-5 5c-5 6-8 11-8 16 0 3-2 5-4 3l2-10 1-3 2-4-1-2c-2 0-4 5-11 19l-3 6v6c1 0 8-6 8-8 1-2 3-3 3 0 1 1 0 3-1 3-2 0-7 6-8 9l-1 4-2 5c1 2 1 2 4 0l3-4c-1-1 3-9 5-9l1-3 2-3c2-1 2-3 3-8l2-6 1-2c0-2 14-16 16-16l3-3 5-3 4-2c3-3 8-3 12 0 2 1 4 2 6 1l4 1c2 2 6 2 16 2h13l5-3 6-3 2-2c2-2 5-1 6 1 1 1 1 2-1 3-2 2-1 4 1 4l3-4c2-2 2-3 4-3l2 1 1 2c0 2-7 7-11 7-2 0-2 0-2 2l5 1 8-2c3-1 3-2 3-7s0-5-3-6c-4-1-4-4 1-6 3-2 3-3-1-3l-2-2c0-1-4-2-5 0l-5 4-5 3-2-3c-2-2-3-2-5-2-3 1-8-1-9-4s-1-3-5-3c-4 1-5 0-3-3 1-1 0-2-3-6a41 41 0 0 1-9-11c-2-2-4-8-5-13l-2-6-1-2 1-13c1-12 2-22 5-24l1-4 1-4v-3c-3-2-2-7 0-7l2 4 1 3 4-5c4-6 12-14 16-16 12-8 12-7 12-11 0-2-1-3-3-4s-3-1-13 4l-6 2-5 2c-1 2-2 4-4 4a240 240 0 0 1-20 11l-7 4-8 6-4 4c-2 0-4 2-6 4-5 5-8 6-9 2-1-2 1-6 4-7v-2l-1-4c0-1-1-2-5-3s-4-1-7 1l-2 4c0 1-5 3-6 2-2 0-3 1-4 7l1 4 3 2c3 3 7 2 5-2l-2-2c-3 0-4-3-1-5 2-2 2-2 4 0 1 2 3 2 5 2 3 0 4 1 4 2l2 5c1 2 1 2-1 4l-3 1-2 2-7 9-7 9c0 2-1 3-2 3l-3 6-4 9c-4 4-6 7-6 10 0 2-1 6-5 13l-2 10a46 46 0 0 1-1 10l-2 11v3c2 2 1 6-1 8s-2 3-1 4l1 4 1 5c1 2 2 3 1 6 0 2 0 3 2 3 3 1 4 0 4-4l1-5 5-8 2-3 1-2 2-3 3-6 3-6 2-5c0-2 1-5 3-7l2-5 1-3c2-1 2-2 0-3l-1-4c0-4-2-2-4 3l-5 12-1 4-3 6-2 5-2 5-2 5c0 3-3 8-5 8-1-1-2-10-1-11l1-9a82 82 0 0 1 3-21l2-7 2-5 1-3 1-4c2-5 8-17 10-18l2-3c1-2 3-3 3-1l1 1v-3c0-3 1-6 7-12a178 178 0 0 1 37-33l4-3 6-3c2-3 5-2 5 0 1 3-1 12-3 18l-3 6-2 3v18c-1 6-1 10 1 13l2 8 1 8 1 3 3 5 5 8c4 8 15 17 24 21 8 3 6 6-5 8-5 1-5 1-7-2-2-2-3-2-5-2-3 1-3 1-3-1l-4-6c-3-3-4-5-4-8 0-2 0-3-2-3l-1-2c0-4-3-9-6-10s-4-3-2-6v-2l-1-9c0-8 0-9-3-12-2-2-3-5-3-7s-1-3-2-3l-1-3-1-4 1-3 2-3 3-6 2-6c-1-1-5 2-5 4l-2 3-1 1-1 4-4 9a126 126 0 0 1-16 32l-5 10-1 2-2 3-1 3-2 4-1 4-2 3-1 3-2 3-1 3-2 3-1 3-1 3c-2 1-5 11-4 12 2 2 1 3-1 2-1-2-3 0-3 2l-1 3-2 3-3 5-4 7c0 2-5 2-5 0l-2-1v11l1 3 2 6 2 6 1 8c2 2 2 4 1 7 0 3 0 4 2 4l2 3 1 3c2 2 2 6 0 6a2 2 0 0 0 2 3l4 2c3 3 3 8 0 8l-2 2c0 2-5 1-5-1-1-2-3-1-3 2l-1 3-2 5c-1 4-1 4 2 7l3 4c0 2 3 1 4-1l-2-3c-3-2-3-5-1-5s9-7 9-9c0-1 1-1 3 1 6 5 9 8 9 10l1 3c3 1 6 6 5 8h-4c-3 0-4 0-6 3l-4 3-2 2c-2 4-5 4-9-1l-6-4-2-2-3-1-6-4c-6-5-7-6-9-5s-5-1-6-4l-3-2c-2 0-3-1-3-2l-2-1-13-5-3-1-16-5h-5l-2 1-7-2-6-2-12-1c-13 0-18 1-19 3 0 3 5 4 8 3h12c5-1 13 0 16 4 2 2 2 2 3 1 1-3 9-3 12 0l6 2 3 1 6 1c3 1 7 2 9 4l7 2c2 0 3 1 5 3l4 4 4 4 2 2c1 0 8 7 12 13 1 3 3 5 4 5l4 6 5 6 2 2 6 10c2 0 3 2 3 4l4 6 4 5c0 1 13 14 15 14s1-2-3-7l-11-13c0-1-6-12-9-15l-6-8-10-13c-6-7-9-12-8-12 2 0 12 7 15 10 2 2 3 2 5 2 3-1 4 0 1 1-2 1-1 4 2 5l7 8c0 2 4 7 13 15 6 7 11 15 11 18l3 6 3 5 1 1 3 5 4 6 1 5 1 5 2 2c-1 2 1 22 2 25l1 10v8c-2 1-3 0-3-2 0-1-1-4-3-5l-2-5-9-19c-3-4-4-8-4-9l-1-2-2-4-1-3-1-3-4-6-2-5c0-2-5-8-7-8l-1-2-2-1c-2 1-4-1-4-4l-1-2c-2 1-1 7 2 11l3 7c1 3 2 3 4 0v1c0 3 0 3 2 4 3 1 4 4 2 4l-1 4 1 4 1-4 1-4 2 3 3 9 3 8 3 6 3 5 3 6 3 5 3 5 4 7 2 2c5 2 5 2 4 3l-3 2-2 2-3-3c-9-10-15-18-18-24l-6-10-2-6-1-2-5-10-6-12-3-5-3-5-2-4-1-3-4-5-6-10-7-10c-3-5-12-13-21-21-6-5-10-9-10-11l-2-2-1-3-1-3c-2 0-2-7 0-8 2 0 1-2-1-4h-3l-3 2c-2 0-1 2 0 3l2 2 1 4c2 3 3 8 3 12l1 7c1 3 1 3-1 5l-3 4-1 2c-2 0-7 4-6 4l3 1c1 1 2 0 3-2s2-2 4-2l4 1c1 1-3 5-6 7-3 1-4 4-2 8l2 4 2 3 2 4c0 2-3 1-3-1-1-3-4-2-6 1-1 3 0 5 2 3s3-1 3 1-6 8-10 10c-3 2-3 2-3-1l1-4c1-2 2-6 2-21v-10c-1-5-1-7 1-7 1-1 1-1-1-4l-4-7-3-6-2-3c-2-2-1-7 1-7 2-1 1-5-2-6-1 0-2-1-2-3l-1-5c-1-2-1-3 1-4v-3c-2-2-4 0-5 3l-1 3v4c3 4 2 6-4 5-4 0-5 1-2 3l2 4 1 1c1 0 4 5 5 10l2 2 1 2c0 2 4 7 6 8 3 1 3 4 0 3-2 0-2 0-2 2l2 7 2 6v3l-1 4c1 3-2 21-5 23l-5 8-6 8c-3 4-6 7-6 9l-4 2-4 2c-4 3-4 3-6 2h-4c-3 3-6 1-11-4-3-4-4-5-4-9 0-6 1-8 5-8 2-1 8 2 9 4s9 1 11-1c3-2 3-3 2-6 0-3 0-4 2-6l3-2 2-10 1-4 1-9c0-7 0-8-3-10l-5-3-1-1-5-1c-4-1-5-1-6-5-1-5-3-6-4-4-1 1-2 0-4-2s-2-2-5-1l-3 1-3 1-3 2 1 2c1 3 4 4 5 2h7c2-2 4-3 4-1l-2 1c-3 1-3 5 0 4 1 0 2 0 3 2 1 1 2 2 3 1l2 1-1 2-1 3c-1 4 3 4 7 0l6-3c2 1 3 5 0 9v4l2 2c2 0 1 3-2 6-2 2-2 2-1 5 1 2 0 6-1 6l-14-7 1-3c2-3 2-3-1-5-2 0-3-2-4-3h-2c-1 2-1 2-2 1s0-2 1-3c1-2 1-5-1-5l-1 2-1 3c-2 1-4 8-3 9 0 2 6 1 7-1 2-1 2-1 2 1l-1 3c-2 1 0 3 2 3l2 2 4 3c4 2 6 4 6 6-1 3-7 2-10 0s-3-2-7-1l-5 3-3 1c-8 3-10 4-11 3v-2c3-3 6-8 5-9l-2 1-3 1c-3-1-4 1-3 5 0 2 0 3-2 4h-4l2-2 2-2c0-2-4-1-8 3-5 5-6 5-9 4h-8l-4-2c-1-4-4-4-5-2s-3 2-12 2-11 0-13-2-2-3-1-5c1-3 4-4 8-2 4 1 4 3 0 3-3 1-3 1-2 2 2 1 9 0 10-1l4-1c3-1 3-3 1-4h-4c-2 2-2 2-4 0l-4-2c-1 0-10-9-10-11l-2-2c-1-1-1-4 1-5l6 5c9 9 16 12 17 8 0-2-1-2-3-2-3 0-6-2-6-5 0-2-1-3-5-4l-6-4-3-4-2-4c0-4-1-4-3-2l-2 1v-15l2-4 1-3 2-3 2-3 1-3c-1-1 0-3 1-4l2-4a95 95 0 0 1 23-20l8-3c4-2 6-3 28-3l27 2 4 4h3l4 1 5 3 7 3c2 2 2 2 2 0 0-3 2-5 4-6 3-1 2-3 0-3l-2-2-2-1v5c-1 1-9-2-11-4l-4-1c-1 1-3 0-5-1l-4-2-3-2h-11l-3 1v-8c3-1 2-3-3-3-3-1-5-1-8 1-4 2-7 2-9 1-1-1-1-1-2 1-1 1-2 2-3 1l-2 1-6 1-6 1c-1 1-1 1-1-2v-3l-4 1c-3 2-4 4-1 3l2 1c1 1 0 1-2 1l-4 1h-5l-4 1c0 2 4 3 6 2h2c1 1 0 2-3 5-4 4-5 4-9 4-5-1-5-1-7 2l-2 6-2 5-3 5-2 2-1 4-2 3v3c1 1 0 2-3 1l-6-1-4 1-3 1c-3 1-3 1-3-1l2-2c3 0 6-2 17-13l3-1c1 0 6-5 6-7l-2-3-1-3-1-1-1 2c0 1-1 2-3 2l-2 1-2 2-1 3c1 1 3 1 3-1l1-1c2 0 2 1 0 4-2 2-2 2-4 1s-2-1-3 1l-2 3-3 4c-2 2-2 2-4 1s-2-1-2 2c-1 3-3 4-5 1l-3-1-5-3c-4-5-4-6-1-9l3-5 3-2 4-3 3-5 3-5c0-2 0-3 2-3l4-1 9-14 2-2 1-2 3-6 3-7 1-4c2-3 2-9 1-9-2 0-6 2-6 4l-4 11-4 7c-2 8-4 10-7 10s-4-1-5-3l-1-4-2 4-5 6c-4 2-4 5 0 5 5-2 7 3 3 7-3 3-3 4-6 1-3-2-3-2-5 0-2 3-2 5 2 5 2 0 2 0 0 1s-2 1-1 5c0 4 0 4-3 5l-6 5a127 127 0 0 1-48 27l-5 1c-3-1-4 0-5 1 0 3-2 2-4 0-2-4-6-6-7-4-2 1-2 1 0 4v3l-8 2h-16c-5 0-6-1-5-2 0-4-2-7-4-7l-4 1c0 1-5-4-5-6l-3-1c-3 0-3 0-2 4l2 5 2 5 1 4h-10c-10-1-10-1-14-4-2-3-3-4-2-5s0-2-2-4c-5-4-5-5-2-6 3 0 2-1-2-4s-4-4-4-8 1-7 4-12c3-7 5-9 10-11 4 0 4-4 0-4l-2 1h-3c-3 0-7 2-10 5l-2 1c-2-1-3 1-2 3 2 1 0 4-2 3v15h-3v-6c-1-1-1-1-2 1l-2 2c-2 2-1 4 4 7 2 2 3 2 4 0l1-1c2 0 1 2-2 5l-2 3c0 2 2 1 4-2 3-2 4-3 4-1l1 2c1 0 1 1 0 0-5 0 0 10 5 12 2 0 3 2 3 2 0 2-1 2-3 1h-2c0 2-4 3-4 1l-3-1-5-3c-1-1-5-1-9 1l-3-2c0-2-2-2-5-3-5 0-19-7-19-8 0-2-5-5-10-6l-3-3c0-2-1-2-2-2-2 1-2 0-3-2l1-3v-3c-2-2-3-3-4 0-1 1-1 1-3-2l-13-12c-2 0-2-3 0-5v-2h-2l-2 2c-1 0-4-3-4-5l-1-2c-1-1-2-2-2-5 1-3 1-5 4-7 4-3 7-10 7-21 1-8 3-17 7-26l1-4 2-1 1 8-2 12c-2 7-1 18 0 18 3 0 4-3 4-10l1-7 2-6 3-11 3-6c0-4 2-5 3-1 2 4 5 7 9 7l3 1c0 2 2 2 4 1 3-2 2-6-1-5l-10-2-4-6c-3-3-3-3-4-1l-1 2-2 2-2 2-1-5-1-8c0-3-3-9-4-8l-4 16c0 4-6 15-8 16-3 1-5 5-7 14-2 18-3 19-4 21l-2 5c-1 6-2 6-5 1-2-5-3-6-1-8l2-7 2-8 3-9 3-14 2-11c1-5 3-1 3 6l1 7c3-1 3-20 1-30v-6l1-4c0-2-1-2-2-2-3 1-4 3-4 11l-2 9-1 7-3 8-3 5-1 2-2 5-3 20h-5l-1-4-1-4 2-8 2-8 1-3 2-6c0-3 0-4 2-4s2-1 2-4c-1-5-3-5-4 0l-2 4-1 4c0 3-1 4-2 5-3 1-4 1-4-1l1-2 1-3 3-3 1-5c0-5 3-20 5-23l1-5a139 139 0 0 1 6-28l3-5 3-5 1-1 2-2c0-2-2-1-7 3-2 3-5 5-6 5-2 1-3 4-3 12l-1 6c-1 1-2 3-2 13l-2 4-1 5-1 3-1 6-2 7a354 354 0 0 1-6 15c-3 0-5-41-2-44 1 0 2-2 1-5 0-5 0-5 3-8l2-4-2-5c0-4 0-5 2-5h6v-4l-2-1c-1-2 1-10 2-10l1-2 3-7 3-8 3-4 3-5 3-5 3-5c0-2 13-18 14-18v4l-3 4-3 5-3 6c0 2-1 5-3 6l-1 4-3 6c-2 0-5 3-3 4v8l-1-1-2-1-1 4c1 4 1 5-1 5-1 1-2 1-1 3 0 1 0 2-2 1-2 0-2 0-2 2s3 5 5 5 10-16 10-20l1-3 5-11 1-3 3-8 3-8 2-3 1-3c2 0 3-6 1-6l-1-1h1c2 1 3 0 2-3 0-2 1-3 3-1 1 1 1 1 1-1-1-1 0-2 2-4l14-10 3-3 1-3 11-3 3-3c2-2 8-6 9-5v4l1 4c2 2 1 4-2 5l-2 2-2 4-4 4-2 2v-3c0-2 0-3-2-3s-2 4-2 15c0 3-2 4-3 2l-2-1v2l3 3v8l-1 9c0 6 0 6-3 7h-4c-2 1-7-7-7-12l-1-6c0-3-1-3-2-2l-1 4-3 5c-3 3-6 9-6 11l-2 2-1 3c0 2 3 4 8 3h3v-1l-4-1c-4 1-5-1-3-4l2-3 1-2 2-4c0-3 2-3 4 0 2 2 2 5 2 13l-1 12c-1 0-8-4-8-6l-3-1c-1 1-2 0-3-1-1-2-3-1-3 2l-2 3v2h2c1-3 7-2 10 1 4 4 9 6 13 5 3 0 3 0 1-1s-3-1-3-6c0-8 1-10 5-10s5 1 5 9c1 6 1 8-1 9v3c2 2 2 3 0 3-2 1-2 1 0 4 0 2 1 3 2 3l1 3h-3c-2 0-2 0-1 1v33c3-2 6-2 10-1l3 3 4 4c2 2 5 3 9 3 9 1 10 0 6-3-3-2-4-3-5-8l-2-7c0-2-3-1-5 2-2 2-2 2-8 1-5 0-6-1-4-3v-1l-1-2c0-2 3-5 5-5l1-2c0-2-5-2-6 0l-1 2-1-7 3-15 1-1-2-1-2-1 1-1c2 0 3-2 2-3-2-2-1-10 1-10l5 2h4l-2-1c-2 0-4-3-2-4 0-1 3-2 7-2 6 0 6 0 6-3l-5-1a316 316 0 0 0-13 3c-3 0-6-1-6-3 0-3 3-5 9-6 24-4 25-4 25 1 0 4 0 5 8 12l5 7c1 1 1 2 2 1l1 1-1 1c-2 1-4 12-5 26 0 10-1 16-3 16-1 0-3-4-2-5 0-2-2-1-4 1l-3 1c-1-1-1-1 1-2 2 0 2 0 1-3-1-2-2-2-4-1-1 0-2 0-4-3-2-5-3-6-4-3 0 2-1 2-4 2-4 0-4 0-2 1l5 1c3-1 3-1 5 1 3 3 3 7 0 8-3 2-2 2 4 2l6 1 2 2 4 2 4 2 3 1c2 2 6 3 6 2l-3-4-4-3 1-15v-15l5 1c4 0 4 0 4-3l2-6c2-2 2-2 5-2h5c2-2 4 0 2 2v2l1 2c0 4 3 2 3-2l2-4 1-2c1-2 3-3 5-1l5 3 4 1h13l7-2c7 0 8 1 3 5l-3 4h1c2-2 3-1 3 1l-1 2-1 2-4 4-3 3 1 2h1c2 0 7-5 9-8 1-2 10-9 10-7l8 4 5 1-9 5-4 3-4 2v-2l1-3-4 3c-4 3-4 4-4 7 1 3 1 4-1 6s-5 3-6 1-11-6-17-7l-11-4c-3-1-6-2-7-1-2 0-4 0-10-4-3-1-11 0-10 1h2l3 2 8 3 11 4 7 2 7 1 3 2 3 1 5 1c3 1 4 2 6 6s3 6 5 6c3 0 7-3 5-5h-6a122 122 0 0 1 23-22l10-5 3-1 5-3c2-1 4-2 6-6 2-5 2-5 4-3v8l1 6 3-4c2-3 2-5 1-9 0-3 0-4 2-6 5-4 6-12 3-17v-8c2-1 2-7 1-8l-1-3c0-4-2-4-5-1s-3 9-1 11l1 5c0 2-1 2-3 2s-3 2-1 3 1 4-1 7c-2 1-2 2-1 3s2 0 5-2c4-4 5-4 3-1l-1 5c-1 4 0 4-15 3l-3-1 3-6c4-5 4-6 4-11l2-14v-13l-1-7-1-4-1-3c0-2 1-3 4-2l5 1h3c2-2 6 0 5 3h3c1-2-3-9-5-9s-2-1-2-2l-3-6-1 2-4 3-5 4h-3c-2-2-7-12-5-13l1-2 1-2 2-3c0-2-2-1-4 3l-2 4-3-4c-3-4-8-8-10-8l-8-8c1-2 5-1 12 2l10 6 3 1 3 1 2 2c2 0 2 0 1 2 0 2 0 2 2 2 3 0 10 3 12 5l2 2c3 0 11 10 15 19l4 5 1 1 4 7c3 3 5 6 5 8l1 3 2 2 2 3 2 3 10 16 4 2 1 2 1-1 2-2 5 5 2 3c1 1 2 3 1 5 0 2 0 4 2 5l2 2-2 2c-3 3-4 2-3-1l-1-2-1-3-2-3c-2-2-3-3-1-3l2-1h-3c-3 0-3 0-4-2l-2-2-2-2h-2c-1 1 5 9 6 10l4 5 4 6 1 3 1 2 2 2 1 3 2 3 2 5c2 5 3 12 2 15-2 2-2 8 0 10v3c-1 2-4 0-8-4l-9-10-5-5-2 3c-1 3-1 3 1 6 5 5 7 7 8 6l-1-1-1-2c1-2 6 2 6 5l-1 2c-2 2 0 3 2 2s3-1 6 1c2 2 2 3 2 9l-1 7-3-2c-2-2-6-3-6-1l1 2 2 1 2 5 3 5c0 3 2 7 4 7l1-7 1-8 2-12 1-6v-10a159 159 0 0 0-4-42c0-7 0-7-4-16l-4-10-2-5-3-5-4-5-1-3-4-6-4-6c0-1-1-2-3-2-4-2-2-5 4-7 3 0 5-2 5-5 0-1-1-2-4-2-7-1-10-6-4-6 2 0 2 0 0-1-3-1-4-4-2-5 1-1 3 0 5 1s3 2 4 5c1 4 2 5 3 4 2-1 5 1 18 13l7 5 6 3 6 3 2 2c1 1 2 2 3 1l6 2 8 1h3l4 1 16 4h25l15-1 12-1a493 493 0 0 1 21-5l5-2c6 0 13-3 15-6l3-2 7-3c3-2 7-3 7-2l2-2 7-6 16-11 7-4c3-2 4-2 2-5v-3l9-8 11-9 3-4 1-3 2-3 2-3 2-3 1-5 4-6 2-4 1-3 2-3 1-5 1-6 2-6 1-8 2-5 1-4v-10l2-8 2-13c1-8 1-8-1-10-2-1-2-2-1-4 1-4 0-16-2-23l-2-7-3-7-2-4c1-1 0-3-1-4l-2-4-1-3c-2-1-8-12-8-13l-2-3-1-3-3-4c-2-1-4-3-5-6-1-4-2-6-4-6s-3-1-3-3l-2-3a265 265 0 0 0-53-40l-7-3c-4-2-6-3-7-2h-5l-3-2-16-4c-5-3-11-4-16-5-4 0-7-1-7-2l-7-2h-6c-1 2-1 2-3 1h-26l-6 1-4 2c-3 0-10 2-14 5l-4 1-9 4-5 3-7 4-6 4-7 3-5 3-4 2c-2 2-4 3-5 2l-2 1c1 2 0 3-1 4v4c1 3 3 4 3 2s9-10 12-10l2-1c2-2 7-1 7 1l2 3 4 9c-1 1-2 2-5 2l-6 1 5 1 6 1-2 3c-2 0-3 2-3 3h1c3-2 4 0 4 4v9a728 728 0 0 0-1 48l-1 5-3 8-3 6-2 6-1 5c1 3-3 12-6 14l-2 14-1 14-1 8v7l6 6 8 7c2 1 2 2 1 6l-1 6c-2 2-1 3 1 3s4 3 7 6c1 2 1 2 1 0 0-3 2-6 4-6l3-2c1-1 2-1 4 2l4 3v12l1 2c-1 3-5 2-6 0-2-3-5-2-3 1l4 2 4 1c2 3 4 2 4 0s1-2 4-2c4 0 9-2 9-3l-5-1c-8 0-8 0-8-7 0-6 0-7-3-9-4-3-4-7-1-7 2 0 2 0 1 2l1 3 2-2c0-2 1-2 4-1l1 2-2 3 2 3 6 5 7 5 4 2 3 1c1 0 2 2 1 3v2c1 1 1 7-1 8-1 2-2 5 0 5l3-2 4-1c5 1 6 0 1-3-2-3-3-4-3-7s1-4 3-6l3-4-3-1c-3 0-4-2-2-3 2 0 2-2 1-2-2 0-4 3-3 5l1 3c-1 2-1 2-4 1l-5-3-3-1-1-2-5-3c-2-1-3-2-3-4s0-2 3-2 3 0 3-4c0-2 0-3 2-3l6-3 5-4-1-1-6 2c-4 2-5 2-7 1-3-1-3-1-7 2l-5 3v-4c2-1-4-3-5-1-3 2-12 1-18-2l-10-8c-4-4-5-6-5-9l2-18v-11l3-8 3-6c1 0 2 6 1 8v5c1 1 2 1 4-1 3-3 3-7 1-10l-3-4c-2-1 1-8 3-9l3-4 2-3c2-1 1-6-1-6l-2-1 2-1c3 0 4-1 6-5 4-4 5-7 4-7 0-1-4 3-4 5l-2 3c-3 3-5 1-3-2l2-4 5-4 6-3c0-3-3-3-6-1-2 3-4 4-4 2l8-8c2 0 10-9 12-13 2-6 4-9 6-10l2-2 2-2c1-1 3-2 3-4l3-3 2-1c0-1 11-6 12-5l2-1 1-1 5-3c3-2 5-3 8-3l5-1h3l4 2 2 1 2 2 2 2 1 2 2 2c0 2-5 5-8 5l-4 3c-2 2-3 3-5 3-2-1-3 0-3 3 0 4-2 5-7 5l-5 2-4 2-2 1-8 3c-5 2-9 4-10 6l-5 6-6 9-2 2-1 4-2 4-1 5c0 5 2 5 3 0l1-4c2 0 3 14 0 16-2 2-1 10 0 12l2 5 2 5 3 5 1 4 4 6 3 6c1 2 2 5 2 13 1 13 2 15 3 4l1-7c1-2-1-8-7-20l-3-8-1-2c-2-1-5-7-5-9l-1-3-2-7c0-5 0-5 1-4l2 3 5 11 1 4c1 3 7 10 10 10l1 1 2 3c2 1 2 3 1 5h-2l-1-1v1l1 7 1 8 3 6c1 6 2 9 4 9s3-1 3-3c0-3 0-3-2-3-3 0-3 0-3-6l-2-8c-1-2-1-6 1-8l1-5c-2-8-2-11-4-12-3-4-4-9-3-15l2-5 2-3 3-3 3-3c3-4 6-5 22-6 15 0 15 0 27-6l8-3 4-3 3-3c1 0 5-3 8-7l8-7c2 0 1 8-1 8l-1 3c1 2-1 4-3 2-2-1-7 2-13 9l-5 4-3 2-3 3-7 2c-3 1-5 2-11 2-18-1-24 0-24 1 0 2 5 5 7 5 1 0 3 1 3 3l4 3 1 4c1 4 3 7 5 7s1-1-3-10l-5-7-1-1c0-2 2-2 4-1h6c3-1 4-1 7 1 2 2 3 3 2 5l1 2 2 2c0 3 2 3 2 1 1-1 0-2-1-3-1 0-2-4-1-5s6 3 6 5l5 5c2 0 1-3-1-5v-2c3 0 5 3 5 5 0 3 2 4 3 1 0-2 3-1 3 1 1 2 2 2 4 2 5-1 8 1 8 5l1 3c1 0 1 1-1 3l-3 3c-1-1-1 0-1 1 0 3 6 3 6 0 1-3 5-5 7-5 3 1 3 2 3 5 0 7 2 6 4-2 1-3 4-2 5 0 0 3 4 10 6 10l3 4c1 2 1 3 3 3 3 0 3 0 2 2 0 1 0 2 2 3l2 4 1 4 2 3 1 4v6c2 1 2 4 2 12 0 13 0 16 2 20 2 3 2 4 4 3 1 0 1-1-1-2-2-2-2-3-2-12l2-11v-4l-5-19-3-7-3-5-4-5-6-7c-1-1-1-1 2-1 5 1 5 0 2-2-3-3-3-4-5-12 0-3-1-4-2-4-3 0-5 3-3 6 1 3 1 5-1 5l-1-2c0-3-9-9-24-17a629 629 0 0 0-21-11l7-3 4-3 5 8 5 4 3 1c3 2 12 5 13 4l-6-9-1-2-1-3-2-3c-1-3-2-3-3 1l1 3c2 1 2 5 0 5s-12-9-12-11l1-1 3-3c2-3 3-4 8-5l8-2c2 0 3 0 3-2l1-4c2-1 5-9 5-13s2-7 5-7c2 0 7-7 8-11 2-6 2-9 0-11l-1-4c0-3-1-3-4 1-2 2-3 4-1 4 3 1 1 15-2 15h-3l-1 3c0 2 0 3-2 3l-3 6-2 6-1 3-1 2-1-4c1-3 1-4-1-5-3-2-3-9 0-9s3-3 2-9c-1-4-1-5 1-8s2-5 1-17l-1-14c-1-1 0-1 1-1 2 0 2-1 2-3 0-1 0-2-3-2-6 0-6 0-6-2l-3-7-5-8c0-1 4 0 6 2 2 1 2 1 3-1l-1-2v-1c2 0 6 3 6 4s1 3 3 3l4 3 3 1c3 0 2 1 0 3-3 2-3 2 1 2l5-1c1-2 2-2 3 0l1 2h2l4 1 4 2c2 0 7 3 11 7l5 3 2 2 1 3v4c0 4 1 5 2 2s6-2 8 1l5 7 5 6 3 3 1 2 1 2c2 0 1 5-1 5l-1 2c0 3-2 2-5 0-3-3-3-2-3 2 0 5 1 6 2 4 2-3 4-3 4 0 0 4 4 1 7-4 1-2 1-2 1 0l-1 2-1 3 2 1c3-1 7 2 8 8l1 5 4 7c0 3 2 6 3 7s2 8 1 10v8l1 2c2 0 3 4 3 12 0 5 0 5-2 4-2 0-4 2-2 3 2 0 2 2 0 4v1l2 2c2 3 2 4 0 11v9c0 1-3 10-5 12v3l1 2h-3l-1-2-2-4c-2-4-2-8 1-8v-4l1-3 1-1h-1c-2 2-3 1-3-1 1-1 0-3-1-5l-2-4-2-3-1-5-1-4-2-7c-1-7-3-13-5-14-3 0-3 4 0 16 2 7 10 27 12 28l1 4v3c-2 0-8-8-11-14l-3-5-4-7c-2-4-3-7-3-11l-3-9-3-6-2-2-1-5-2-4-1-4-2-3-1-5c0-3-1-4-2-5l-1-2-2-2-1 2 1 3 2 4 1 5 2 4 1 3c1 0 2 2 2 6 0 5 0 7 3 11l3 5 2 2c1 2 1 2-1 2-2 1-2 2-1 5l2 11 1 1 2 3 2 1h-2c-2 1-3 6-1 8l2 4 1 4 2 4 2 7 2 5 1 1 1 2c0 3-2 4-4 2s-2 0 0 4c3 5 9 11 13 14 4 1 4 3 0 6l-4 5-4 2-4 2c-1 2-1 2 2 1h4c2 2 1 5-3 8-2 2-4 4-4 6l-5 5-3 4c0 3-3 4-7 4l-5-1h-2c-2 1 0 3 3 3 3 1 5 2 3 2l-1 2-3 2c-2 0-3 1-3 3s-1 3-3 4l-2 3-5 4a293 293 0 0 0-17 9l-4 3c-7 6-14 9-14 5l-2-1c-3 0-3 2 0 3 2 1 2 3-1 3l-4 1c-5 3-9 4-11 3l-2 1c0 1-1 2-3 2l-4 1-9 1-9 2-26 1c-28-1-31-1-37-5-3-1-5-1-6 1h-4l-3-2c0-1-1-2-3-1-3 0-6-1-12-6l-5-3-3-3-3-2c-1 1-4 0-6-1l-5-4c0-3-5-9-7-9l-5-4-4-3c-3 1-3-1-2-3 2-1 2-2-1-5l-5-3-2-2-3-1c-3 1-7-4-6-8 0-2 0-2-2-1s-3 1-6-3c-6-7-9-13-6-11 3 1 2-3-2-6-4-4-6-7-9-14l-3-8c-3-2-3-3 2-7 5-6 9-10 12-16l4-7c3-3 3-8 0-8-2 0-4 4-4 8l-2 2-1 2-5 7c-10 11-13 13-13 9l-4-15c-2-3-1-3 5-7 4-2 8-6 13-11l7-10c0-2 2-2 4 0 1 1 1 1 1-2-1-3-1-5 2-9l4-6 1-1 1-3 2-5 2-3 1-3 2-5c0-3 0-3-2-2l-3 4c0 2-1 3-2 3l-1 3-2 3-1 3-1 2-3 6a86 86 0 0 1-8 14l-3 3c0 2-13 14-15 14-3 0 0-7 4-9 4-1 7-6 13-18l7-12 2-4 1-3 2-2 1-1 2-2 1-4 2-3 2-4c2-2 4-7 2-8l-8 5c-5 6-6 7-7 11l-2 6-1 4-1 3-4 6-3 5-1 2-6 13-3 5-5 2c-1-1 0-16 1-18l1-7 1-6c1-1 2-2 2-6l1-6 2-6 1-6 2-6c1-5 5-15 9-21l3-6 4-4 2-4 3-4 3-6c1-3 16-15 18-15l2 3c1 4 8 9 13 9 4 0 5 0 8-3 4-4 5-6 3-6l-3 3c-3 3-8 4-9 1 0-1-1-2-2-1-1 0-2 0-3-2l-3-4-3-6c0-2-1-3-4-2-2 1-6-1-6-3s-2-2-6-1l-4 2h4l5 2 2 2-2 3c-1 2-2 4-4 4-1 1-3 2-3 4l-4 4-2 3-4 4-3 5-3 4-2 4-1 1-3 4-3 6c-3 4-7 16-8 19l-2 6-1 4c0 6-8 11-15 9-3 0-3 0-3 2 0 3 1 3 3 1 2-1 2-1 4 1 2 3 4 4 6 1 1-2 3-3 4-1 1 1 0 1-1 2-2 0-2 1-2 3 1 2 1 2-1 3-1 0-2 1-1 8v10c1 1 0 2-1 4-2 2-2 2-1 4v6l-1 6c0 2-1 4-5 7l-5 4 1 1 5 2c4 0 4 0 8 10 3 7 3 9-1 10-6 2-5 6 2 6h4l5 11 7 12 2 5 7 12 6 10c0 1 8 6 9 5l4-2c4 0 6 1 4 4-1 2-2 2-4 1l-3 1c-2 2-1 3 2 3l4 1c2 1 2 1 0 3-1 1-2 2-4 1l-4 1c-2 3-6 2-6 0l1-3c3-1 2-2 0-2-4-1-6 2-6 6 1 3 1 3-1 3l-2-2c0-3-4-6-8-7l-9-7-7-6-15-8-10-5-8-5-3-2-5-3c-2-2-3-2-4-1-2 1 0 3 2 3l3 2 2 2c2 0 1 3-1 3l-3-1-9-3c-4-1-7-3-7-4l-3-1c-2-1-4-1-6 1-3 2-4 2-7 0-2-1-4-2-13-2a117 117 0 0 0-30 4c-3 1-7 3-11 3l-6 2-4 1-4 1-8 3a69 69 0 0 0-12 5l-3 2-2 1-4 2-5 4c-8 1-17 9-37 35l-9 10a166 166 0 0 0-21 45c-2 4-2 5-1 7v2l-2 3-2 4-4 26a78 78 0 0 0 5 42l1 6 1 8 2 5 1 6 4 8 5 10 4 9 3 6 4 6 5 5 5 6 5 6s2 1 2 3l4 3c1 0 8 6 9 9l7 5a255 255 0 0 1 19 14c11 5 17 8 23 9l9 3c2 3 10 4 17 3 3-1 4 0 6 1l16 1h33l4-2 7-1c5 0 15-2 22-5l10-1 6-1-2-1c-2 0-1-3 1-4l4-1c3-2 6-1 4 1v2c1 0 2-1 2-3l2-3 2-2 3-1 3-2 5-3 6-5 5-5 6 6 4 2 3 4c1 3 1 3-3 5-2 0-3 2-4 4l-2 3-1 1-4 6-3 7c0 3 2 4 3 1l2-2v3l-2 9-2 11-1 9-2 10-2 13a217 217 0 0 1-11 63c0 5-1 6-7 9l-6 3-6 2-3 1 2 2c2 0 8 8 8 10l1 2 4 4c4 5 5 6 6 4 1-4 2-2 3 3 0 7 1 9 4 10l3 4 11 14c4 3 4 6 0 6-3 0-6-3-6-6l-2-3c-3-1-6-5-8-8l-4-5-3-4-2-2-1-3-2-2c-1-1-1 0-1 1l1 3 1 3c0 1-1 2-3 2l-2 1 2 2c2 0 3-1 3-2 1-2 4-1 4 1l1 3c2 0 7 6 7 9 0 2 0 2-1 1-2-2-8-5-10-4h-5c-3 0-3-1-3-3 0-4-3-8-5-8s-2-3-1-5c2-3 2-4-1-4-2 0-5-6-5-9 0-2 0-2 2-2l8 2c0-2-4-7-6-8-3-1-3-2-3-4v-2l-1 1-2 1c-2 0-3-2-1-4 2-1 1-6-2-8l-2-5-2-4c-1-1-1-1 1-3 3-3 4-6 2-14v-10c-1-1 0-2 1-4v-5c-1-2-1-6 1-9l1-9c0-7 0-9 2-11 2-1 2-2 1-5l1-2c3 1 4 0 3-2-2-3-1-6 1-8l1-2c0-3 6-15 8-15l1-2c0-3 2-7 4-8l2-2 1-4v-2c-2 0-6 2-8 6s-6 7-10 8l-4 2c-1 1-11 4-15 4l-4 2-7 2-8 1h-39l-11-2-10-2a204 204 0 0 0-15-2l-5-1-9-3-11-4-8-4-11-5-10-6-5-3-16-11-5-4-9-9a353 353 0 0 0-28-33l-3-5a139 139 0 0 1-22-56l-2-13-1-11-1-10v-10c1-1 2-3 2-7l1-7v-15l2-4 1-8c0-4 0-5 2-8 2-2 3-3 2-5 0-3 3-7 6-8 4 0 5-5 3-6-3-1-2-6 0-9l2-4 1-1 2-3 2-4c2-3 2-3 3-2 2 2 8 1 8-1h-3c-3 0-3 0-3-2l1-4v-3l-1-1h4c1 2 2 1 6-2 3-3 3-4 4-8 0-5 1-6 6-12l6-7 2-1 1 3c-1 3-1 4 1 4 3 0 4-2 2-4-2-1-2-1-1-4 1-2 2-3 3-2 2 0 2 0 1-1 0-2 2-4 9-4 6-1 6-1 7 1l1 1-1-2-1-3-3-3c-3 0-2-2 2-4l4-3c2-2 5-1 9 1 4 3 6 2 6-2l-2-4-2-1h8c2 1 9 0 9-2s4-4 6-3c5 2 8-1 4-4-3-3-2-4 3-4h2c-2 0-3-3-1-4l2 2h4c1-2 5-3 6-1 0 1 1 1 1-1 1-2 2-2 5-2l6-1c2 0 2 0 2 3l1 2 1-1v-4c-1-1 0-2 6-2h8c1 1 2 1 3-1 2-2 4-2 13-2s13 1 9 2v2c1 2 4 0 4-2-1-3 12-4 15 0l2 1 3 1c1 2 7 2 7 1l3-1 2-1 2-1c2 0 2 1 2 3l1 2 1-2c0-2 3-3 5-1l6 3c9 2 10 2 11 4l2 2 4 2c4 5 6-1 2-7-2-3-3-7-4-13 0-5 0-6 3-3h3v-4l-4-1c-2 1-2 1-2-2l-1-4-3-14-1-6-1-12 1-31 1-5 1-5 2-4 1-4c1-1 2-2 1-3l1-3c2-2 2-2-1-5-3-4-3-6 0-7l2-3 2-5c1-2 2-5 1-6l1-4 2-4 3-8c4-4 4-5 7-4 6 1 6 1 7-3l-1-4-1 1-3 3-3 1 1-2 1-4 2-3c2 0 5-3 5-5s9-15 11-15l7-6 2-2 1-2 2-4 3-3 4-3c2 0 5-3 8-6l6-4c1 1 2 0 2-1l2-2 3-2c0-1 6-3 8-2 2 0 2 0 2-2-1-3-1-3 4-5l5-2 4-1 2-2c1-2 1-2 4-2 2 1 3 1 3-1l2-2 3-2 4-1h3l2-1 8-3 6-2 12-2 12-2 2-1c1-2 17-2 19 0l8 1 15 1 1 2c0 2 0 2 4 1h8c4 0 12 3 13 5h5c4 0 5 0 5 2l3 2 2 2h8l3 3 3 1 4 2 5 2 4 3 7 3 9 5 5 3c2 0 0 2-2 3-2 0-2 1 0 2 1 1 3 2 6 1 3 0 4 1 7 4 4 4 5 4 2 4l-1 1 3 1c3-1 3-1 3 2l-2 4-1 2-3 3-2 1h4l3-2 2-2 1-1 2-1 2-1c2 0 3 1 5 4s2 3 1 4c-2 1-1 4 1 4h2l-2 2c-2 0-3 2-1 2l2 2c1 2 1 2 3 1 3-1 6 1 9 5l4 6 3 5 2 2v5c0 3 0 4 2 4 3 1 7 7 7 9l2 5 5 15c0 1 4 11 8 17v6l1 9 1 10v10c3 5 2 8-1 9-4 0-5 0-5 2l4 3c3 2 3 2 2 5v5l-1 4-2 6-2 6v11l-2-1c-1-2-2 0-3 3 0 4 1 6 4 4 1-2 3-1 1 1l-1 4c-1 3-3 4-4 1l-2-1c-1 1-1 0-1-1 0-2-1-3-3-1h-4v3c-1 2 0 8 2 9s3 0 4-4c1-3 5-3 5 0l-2 3-1 2c0 4-2 8-6 12s-6 5-7 2l-1-2c-2 1-2 4-1 4l5 2c2 1 3 0 4-1l2-1 5-3c3-3 3-3 14-4l12-1 4-1c2 0 3-1 4-3 1-3 5-5 7-3h19l17-2 5 1c3 2 5 2 8 1h13c1 1 2 2 4 1l7 2c6 3 6 3 9 2 5-3 7-2 8 1 1 2 1 2 2 1h3c2 3 9 5 14 5l8 4c5 4 7 5 9 4 3 0 4 1 4 6 0 4 2 7 3 7s2-1 2-3l1-3 2 3c0 3 1 4 2 1 1-2 3-1 5 1 3 3 1 5-3 3-3-1-4-1-5 1-2 2-3 5-1 5l2-2h4c3 1 5 1 5-2l1-1 1 1 10 8a69 69 0 0 1 16 18l2 4 4 4 2 3 1 3 2 3 1 4c2 1 2 6 1 6l-3-1h-4c-3 1-3 3 0 3l2 2c-1 2-7 2-10 0-4-2-8-7-8-10l-2-3c-2 0-7-4-7-6l-3-2-1-3c0-2-1-3-2-3l-6-4-6-4c-2 0-11-10-11-12 0-3-3-4-3-1-1 3-2 3-7-3l-4-2-8-3c-5-2-6-3-6-6-1-4-2-5-5-5v3c2 2 3 5 1 6-1 1-5 0-6-2l-3-3c-3 0-3-1-3-2v-2l-2 1c0 1-6-1-8-4l-4-1c-3 1-5 0-4-5 0-4 1-4 5-3l2-1c0-2-1-2-4-2l-4 1-3 2c-2 0-2 0-1 1 3 1 2 3 0 4l-6-2-8-2-4-1c0-2-4-1-5 0s-4 2-11 1a55 55 0 0 0-16 2c-4 0-10 2-11 3v2l1 4c0 2 2 3 5 1 4-4 16-5 35-5 10 0 13 1 25 6l18 12 3 3 5 2c4 3 7 8 7 10l1 3c3 0 6 7 6 10l1 6c3 5 2 32 0 32l-4-2c-3-1-3-2-3-7l1-5c3-1 2-6 0-6-1 0-2 1-1 3 0 3 0 3-3 2-4 0-6 1-4 2l1 3 1 4c2 1 2 5 1 5l-4-3c-2-2-3-3-6-2-5 0-10 4-8 5h5c3-2 3-2 7 0 4 3 4 4 0 4-12-1-15 0-14 5h2c2-2 18-3 22 0l3 1c1 0 2 1 2 3l2 3 2 2c0 1-5 1-5-1-1-1-5-2-5 0l2 2c2 0 3 1 3 2l3 1c4-1 7 0 7 2l7 15 12 14a76 76 0 0 1 14 18c2 3 2 24-1 27l-1 5-2 3-1 3c0 3-8 15-12 19l-3 3v13l-1 15c-2 3 0 12 2 13 5 3 7 2 14-5s12-14 12-17l1-2 4-4 21-26 2-3c3-4 5-4 5-1 1 2 4 3 4 0l-1-5c-2-6-6-4-16 9l-7 7c-3 2-3 2-7 0-3-1-6-6-5-7h6c5 0 6-1 6-2l1-1c3 0 3-2 1-4-4-3-4-5 0-5 4 1 6-2 6-7 0-4-1-6-2-3l-3 1c-3-1-3-2 0-3 3 0 2-2-1-3-1 0-2-1-2-3l-2-3-4-2-2-1c-2 0-5-3-7-8l-2-5-1-1 2 1c2 0 3 2 3 2 0 2 6 7 8 7l7 4c5 4 8 9 9 15 1 3 1 3 2 1h4l3 1c0-1-3-6-6-7l-3-3c0-2-2-4-3-5l-3-5c0-3-4-11-5-11l-3-4-4-5c-2-1-8-12-8-13 0-2-3-5-4-4l-3-2c-2-2-2-2-3-1l1 3 3 5 6 9 7 9 4 6c3 2 4 5 2 5s-8-5-8-6c0-2-5-8-8-10-7-5-26-26-30-34l-1-5c1-2 1-3-3-4s-6-5-4-7l1-6 2-6c2-3 1-28-1-31l-1-5-1-3-3-6c0-3 0-4 3-7 5-4 6-4 7-1l4 3c4 2 14 11 14 13l-1 2-2 2-1 3c-2 1-3 1-4-1l-3-2c-1 0-4-4-4-6 0-3 2-4 4-2 1 2 1 2 1 0s-2-4-5-4c-2 0-3 1-3 6 0 6 0 7 7 10 3 2 4 3 4 5v2c3 1 3 0 4-2 1-5 4-2 9 7 0 2 2 3 3 4l4 7 4 4 1 1c0 2 6 9 10 11 3 2 5 2 5 1s-6-8-8-8l-3-4-4-5-2-4-9-14-3-6-1-4v-5c1-2 1-2 3-1l1 4 1 3 2 3c0 1 1 2 3 2s3 1 3 3 1 4 3 5c3 2 3 3 3 5v3l4 3c3 2 3 2 5 1 3-2 5-1 5 1l-1 4v3l2 4c1 3 2 3 6 4 5 2 5 3 2 4-2 1-3 2-3 4 0 3 1 3 3 3 3 0 6 2 6 5l-2 3c-2 1-1 4 1 10l3 6 1 3v7l-1 5c-2 0-4-3-5-6l-3-6-2-4-2-2-1-2-1-2-4-6c0-3-2-6-3-7-2-1-1-4 2-5l2-2-4-1c-3 1-4 0-5-1-1-2-5-3-6-1l3 3c1 1 3 3 3 5l1 2 2 3c0 3 7 16 8 16l1 1c0 2 7 13 10 16l2 4 4 4 4 7c0 4 0 4-2 4-3 0-8-6-12-13l-4-7-2-3-2-2-1-3-3-5c-3-4-6-10-6-13l-2-3-1-3-2-2-1-3-3-5-6-9-1-2-1-1-11-18-5-2-3-1-2-1-1 1 1 2c2 0 9 8 14 16l6 9 1 2c2 0 2 1 7 11a297 297 0 0 0 6 14l-2-1c-1-2-2-2-4-1-3 1-3 3 1 6l3 4 5 9 6 10 11 18 3-1c1-1 0-2-2-5l-2-4-1-2c-2-1-3-3-7-11l-5-9-2-5 2 1 5 7 2 3 2 4 5 9c3 6 8 12 12 12 2 1 3 2 3 5-1 2-1 4-3 5-3 2-3 5 0 5 3 2 2 4-3 7l4 6c5 2 6 1 6-4-1-3 0-4 2-6 2-1 2-2 1-4-2-3-3-10-2-11l1-7c0-5-1-8-2-9-2-3-3-8-1-11 1-2 1-3-1-5-4-2-4-4 0-4 2 0 2 0 2-2 0-1 0-2-2-2s-2-1-3-5l-2-8v-4c3-2 2-6 0-8-3-2-4-5-4-16 0-9 1-14 4-15 3-2 4-1 5 2 1 2 1 3-1 5s-2 2 0 4c2 1 3 3 2 4l1 3c1 0 2 1 2 3l2 3c2 0 2 1 2 5l-1 5 1 3 1 5v7c-2 3-2 4 1 8 2 6 2 7 1 9-2 1-2 9 1 14v8c-2 2-1 5 2 6l2 10-1 8-1 9-1 10-1 4v2c-2 1-6 11-6 13h3c2 0 2 0 0 4-2 2-2 3-1 7 1 6 0 8-2 7-2 0-2 0-2 2l1 4v3l-3 5-2 5-2 2c0 3-2 5-5 6-2 1-2 2-2 5l-2 5-1 4c0 4-2 7-5 7l-2-1-1-1-2 10c0 1-1 3-4 4-2 1-3 1-2 3 0 1 0 2-2 3-3 1-6 5-7 7l-3 2-3 1-2 1c-2 0-4 1-5 3l-4 3c-1-1-2 0-2 2-1 3-11 10-14 9l-2 1-1 2-1-2-1-3c-1-2-1-2-3 0-2 3-2 7 1 7l1 1c0 1-6 0-8-2s-3 0-2 3c0 4-2 6-6 5l-3 1-3 1-4 2c-1 1-2 2-3 1-2-1-7 0-8 1l-2 1-3 1c-2 2-7 3-8 1l3-1c3 0 5-3 6-7 1-3 3-4 3-1 0 2 2 3 2 2l5-1c3 0 3 0 1-2l-6-2c-5 0-8-3-4-5l2-2-4-1c-5 1-6 3-4 11v2l-9 7c-3 3-9 5-10 3-1-1-28 0-30 1-1 1-2 0-4-1l-4-2c-4 0-6-2-6-5l-2-3c-4-1-1-7 4-7 3 0 6-4 6-8s2-4 3-1c0 3 0 3 3 2h3c1 2 4 2 6 0h7c3 2 3 2 5 0l9-1 8-1 7-3c10-2 12-2 14-4l5-2 5-2 3-1 1-2h1c2 1 3 1 5-3l3-3 8-4 3-1c3-1 5-2 12-9l5-3 2-1 4-4c7-5 11-9 11-11s0-2 2-2c2 1 3 1 3-1l1-3 3-3c1-2 3-3 5-3l3-4c0-2 2-4 5-6 4-3 4-4 4-8 0-3 0-4 2-6 4-4 4-6 0-6l-2-1c0-3 1-3 3-2h3l3-1 2-2 1-3c2-1 4-7 3-10 0-2 1-3 2-1l2 1v-8c-1 0 0-2 3-5s4-5 4-7c-1-2-1-2 1-3l3-3c-1-3-4-3-5 0l-2 3-1 2-1 3c-3 0-9 8-13 17-1 3-4 6-7 8s-4 4-6 8l-4 9-3 5-8 10-1 3-1 1-2 4c-1 3-3 5-4 5l-3-4-5-4-3-1c-3 0-3 3-1 5l2 4c0 2 0 2 1 0 1-3 3-3 5 1 3 5 3 8-1 8l-4 3c0 2-10 10-12 10l-2 2c0 2-2 3-3 3l-1 1-4 3-5 4-5 2c-2-1-2 0-3 2-1 1-2 2-3 1l-7 3c-3 2-4 3-5 2s-2 0-4 1c-1 1-1 1 1 2l2 2-10 1-4 2-6 1-7 1-6 2h-14c-1-1-3 0-6 1-3 2-5 2-6 1-3-2-4-2-6-1h-4l-5-1c-3 1-15 0-19-2l-8-3c-10-2-14-4-15-6l-3-1-5-2h-4c-3 0-1 3 3 5 6 2 12 5 13 7l3 1c4 0 6 2 4 5-1 1-1 1 1 1 2-1 2-1 1 1l1 3c1 0 3-2 3-4s5-3 7-1 11 3 13 2h3c1 2 1 2-1 3l-3 3c0 2-5 1-7-1-1-1-1-1-1 2v3l-6 2c-3 1-4 2-3 3l-2 4c-2 2-3 2-8 1l-5-1 1-2c1-3 5-4 7-3l2-1c1-1 0-1-1-1 0 0-2-1-2-3l-3-2c-3 0-4-3-3-9 0-3 0-3-2-3l-4-2c-2-1-5-1-5 1l3 5c3 4 2 5-3 5-3 0-3 0-3 3 0 2 0 2-3 2l-4 1c0 1-1 2-3 2l-2 2 1 2v2c0 2 0 3 4 3 3 1 4 1 5-1s6-3 7-1l3 2 4 1 2 2 4 1c4 2 12 4 28 5l18 2c4 1 15 1 30-1l13-1 6-2 5-1 4-1 6-2 7-2 2-1 3-1 4-2c1 0 7-2 11-5l10-4c1 0 4-2 6-5l6-4 4-3 4-3a543 543 0 0 1 35-34l5-7c2-2 3-3 2-4 0-2 0-2 2-3 2 0 5-5 5-8s4-10 7-12c2-2 2-2 1-4v-7l3-6 1-6a179 179 0 0 1 3-22l2-7 1-31a115 115 0 0 0-3-41l-1-11a207 207 0 0 1-3-20l-1-4-2-7-2-8c-1-6-3-11-6-15l-4-7-3-7-2-4-1-1-2-2c0-2-3-5-5-7l-4-6a213 213 0 0 0-46-40l-5-2a111 111 0 0 0-27-13l-11-3-4-1-4-1-4-1-20-3-16-1c-15-1-19 0-22 1l-6 1c-2-1-7 0-11 1a232 232 0 0 1-17 3l-5 2-9 4c-4 2-5 2-6 1-1-2 0-6 3-10 4-5 5-9 5-13-1-1-1-2 1-4 2-1 3-2 3-5l1-4 1-4 1-5v-23a157 157 0 0 0-12-68l-3-7-3-6-3-7-2-2-1-3-7-12-4-6-7-10-5-7a265 265 0 0 0-52-44 790 790 0 0 0-48-22l-5-1-5-1-9-2-10-1a1596 1596 0 0 1-27-3zm-16 30c0 2 1 2 4 1l5-1h6l10 2c17 2 21 3 29 7 4 3 9 7 9 9l3 5c4 5 9 13 9 16l1 4 2 14-1 17-2 6-1 6-2 4-1 3-2 4c0 2-7 8-9 8l-2 2-14 9-9 2c-10 3-12 4-23 3-12 0-14 0-21-4l-3-2-6-3-5-3c-2 0-1-3 2-5l8-6 6-3 10-4 8-2 25-4h9l2 4c2 5 3 5 4-1l2-7v-3h-8c-1-1-9-3-12-2-3 0-2 3 2 3l3 1c0 1-4 2-10 2l-10-1c0-2 4-5 6-5l1-1 4-2 5-2c3-2 9-1 13 3s6 4 4-2c0-2-7-6-10-6-1 0-5-6-5-8s-6-6-10-8c-6-2-21 0-28 3-11 6-24 17-32 28l-4 5-2 1c-2 0-2-1-3-8 0-9-2-14-4-15l-2-3-1-4c-2-2-1-8 1-8l1 2c0 4 0 5 2 5s3-1 3-3l1-4 1-3 1-4 2-7 4-7 1-3 13-13 6-3 8-4c3-1 3-2 3-4s2-3 3-1zm-21 6c0 2-1 3-3 4-3 2-10 8-10 10l-2 3-3 5-1 3-2 3-1 2-2 4c0 5-1 8-2 8l-1-2-1-3c-1-1-3 1-3 3l-2 3c-2 1-2 1-1-2v-3l-1-5c0-4-4-9-8-11-1-1-2-2-1-3s6-5 9-5l6-4c5-4 10-6 12-5h3l6-4 5-2 1-1 2 2zm-32 53-1 2c-1 0-2-1-2-3 0-3 2-2 3 1zm4 11 1 6 2 8c3 4 4 8 2 10l-2 3c0 3-4 0-6-4-2-5-3-12-1-14l1-6 1-5 2 2zm-3 32c0 3-3 7-4 6-1 0-1-3 1-6s3-3 3 0zm25 14c0 2 1 3 2 3l1-3c0-3 1-3 6 1l8 5 5 2 2 2-2 1-2 2c0 2-4 5-5 4l-1-2c0-4 0-4-2-3-2 2-2 2-4 0-3-2-3-2-4-1-3 4-5 1-4-5l-1-3-1-3 1-2 1 2zm-137 6-1 2-2-2 2-1 1 1zm137 12 4 3c2 2 4 3 5 2l3-1c1 1 1 4-2 7l-1 7c0 4 1 6 3 9 3 3 3 4 2 5h-2l-6-10-2-3-1-2-1-4-2-5-2-5-1-3h3zm105 22c2 1 3 5 1 5-1 0-4-3-4-5s1-3 3 0zm108 9h-2l-1-2h2l1 2zm-31 13 5 8c4 8 8 14 10 15l4 3c2 2 2 2 1 3-2 2-2 4 0 4s1 2-1 3l-1 5c0 4-1 5-3 2l-5-5-4-4-1-3-3-7-3-7-1-4c0-5-2-12-4-12v-4c1-1 5 1 6 3zm-204 43c3 0 2 2-1 2l-5 2c-2 3-5 2-6-1-1-5 1-6 12-3zm-282 34c0 2-4 3-4 1 0-1 3-3 4-2v1zm117 0 6 1 4 1 4 2 2 1 5 3 6 4 3 3c2 0 10 8 10 9l2 3c3 2 11 20 10 21l1 5c3 5 3 26 0 32-4 11-7 17-9 19-3 3-3 3-4 1l-4-2-12-4 2-2c2-3 5-9 5-12 1-4 0-7-7-13l-8-9-5-5-2-2c0-1-7-3-9-2v-1c1-2 1-3-3-7-4-6-6-7-13-10-4-2-7-2-8-1l-6 1-6 2h-3c-3-1-4-1-8 1-7 4-12 9-14 16l-3 6-1 3-2 4c-2 2-3 3-6 3l-17 3c-5 1-6 0-5-8 0-4 1-9 3-12l2-7 2-4 2-4 1-3 4-7c4-6 7-10 14-14l7-4 8-4c1-1 2-2 1-3 0-3 2-4 4-1h3l12-4c7-1 27 0 32 1zm-64 5c0 1-2 3-4 3-3 0-1-4 2-4l2 1zm-6 3c0 1-5 3-6 2v-2h6zm-8 10-2 2v-3l2-4c2-1 3 3 0 5zm514-4-4 3-4 5c0 1-1 2-3 2l-4 3c-1 2-3 3-5 1-1-2 1-4 5-7l4-3 10-5 1 1zm118 8 2 2 8 5-2 3c-2 2-2 2-3 1l-5-4c-3-2-4-4-4-6s2-3 4-1zm-425 14-4-2h2l2 2zm-26 2 6 6c4 3 5 6 3 8-2 1-3 0-9-6l-7-9 3-1 4 2zm-117 4 3 3 1 1 4 2v4l-2 5c0 3 0 4 2 4l4-2c3-3 6-2 10 2l7 8c4 5 5 7 2 9l-1 3-1 3c-2 2-4 8-3 9 1 2 4 0 4-2l1-3c1 0 2-1 2-3l2-5c2-2 3-2 4-1 3 2 2 4 0 4-1 0-3 1-3 3-2 2-2 3 0 3 4-1 4 3 0 7s-6 5-13 6l-11 2h-6l-4-1-4-1c-2-2-2-2-6-1l-9 3c-4 0-4 0-8-4-4-3-4-4-3-6 2-3 3-3 5-1s1 0-1-6l-2-5 2-4c2-5 2-5 0-5-2-1-4 0-4 2l-3 6c-2 3-3 6-1 7l2 2h-7v4l-1 3-1-1v-4c0-1 0-2-2-2l-3-2-2-3c-2-1-4-7-3-9v-4l-2-3c0-3 5-2 6 0 0 4 2 4 3 1 2-4 2-6 0-6s-4-3-3-5c1-1 2-1 3 1h3c1-1 1-2-1-4l-2-3 2-3 6-5c5-3 11-3 7 1v3c0 1 2 0 5-3 8-7 14-8 22-4zm114 7c3 2 4 6 3 7s-9-6-9-9l-1-1-1-2c0-1 2 0 8 5zm-272-1-2 1 1-2 3-2-2 3zm291-1c0 1-2 3-3 2s0-3 1-3l2 1zm-9 10 1 4c0 2 1 3 2 3l4 4 2 3c5 1-2 6-6 5-3-1-4-2-2-4l-2-3-2-5-1-3c-2-3 1-7 4-4zm525 24c1 2 0 3-2 3l-1-3c0-3 2-3 3 0zm-511 0-2 1-1-1 1-1 2 1zm5 6v4c-1 2-4-1-3-5 0-3 2-2 3 1zm-96 19c3 1 5 4 3 6-1 3-11-2-11-6 0-3 1-3 3-2l5 2zm23 2c3 2 2 3-3 5l-6 3c-2 1-8-1-8-3 0-1 3-4 5-4l3-1 7-2 2 2zm-35 1-1 3-1-3 1-2 1 2zm119 13-2 2-1-2 1-1 2 1zm221 14c0 2-1 3-2 3l-1-3 1-2 2 2zm-461 2-1 2h-2c-1-2 0-3 1-3l2 1zm566-1-2 3c-2 2-3 2-3 1-1-1-1-1 1-3l4-1zm144 33 2 2c2 0 3 2 3 3 0 2 0 2-3 1l-8-6 3-1 3 1zm-1 7c3 1 10 7 10 9l-3 1-3-1-4-3c-4-2-5-3-4-6h4zM88 475c-1 1-1 1-1-2 0-2 0-3 1-2v4zm753 1c1 1-1 2-2 1l1-2 1 1zm-20 4c0 1 0 2-1 1l-1-3 1-2 1 4zm7-2c2 2 2 2 0 3s-1 3 2 3c1-1 6 3 6 5l-4 1c-3 0-4 0-5-3-2-3-3-3-4 1 0 3-1 3-3 3-3-1-4-4-1-4 1 0 4-4 5-8s2-4 4-1zm-7 16 1 5c1 3 3 4 5 4 2 1 3 1 3 3 0 3-1 5-4 5-1 0-2 0-2 2v4l-1 2-2 3-1 2-1 1-1-2c0-1-3-2-3 0v4c0 3-2 5-4 4l-1 1c0 2-5 6-7 6s-2-2 0-3c2 0 3-3 0-3-2-1-1-3 1-3v-4c0-3 0-4 2-5s2-1 1-4l-3-5c-1-2 0-3 1-7l4-4 2-4c2-4 2-4 6-4 3 0 4 0 4 2zm59 11c0 2-2 4-3 3l1-3c0-3 2-3 2 0zm-36 29c1 2 1 3-1 3h-1l-1-2c0-2 1-3 3-1zm-510 2-4 5c-2 0-1-3 1-5h3zm196 27-1 2-2-2c0-1 3-1 3 1zm58 6c0 2-2 3-4 2-1-1 0-4 2-4l2 2zm-66 25 6 5 1 2 5 6 5 6 2 3 5 7 5 7 3 5 3 7c4 6 5 11 4 14v5c2 4 4 4 4 0s3-4 4 0c1 2 1 3-1 4s-3 4-1 6l2 4 1 2 5 9 7 13 2 5 1 2 1 3 2 3 2 3 3 6 4 7 1 1c2 0 0-8-3-11l-2-5-2-4c-1-1-2-5 0-5l4 5 5 8 3 5 2 2 1 2c0 2 4 9 6 10 2 0 2 2 0 2l-1 3c0 3-3 1-7-5-3-6-4-6-5-4l-2 2-4-5c-3-4-6-9-12-14l-4-7-5-7-3-5-1-3-2-5-5-11-5-13c0-4-2-6-6-6-3 0-3 2 0 5 2 2 3 3 3 5s1 6 3 8l4 8 4 10 2 3 3 6 3 5 4 7 4 7 5 5 5 7 2 1 5 5 7 6c3 2 4 3 4 5l-2 5-1 4-1 3-2 5-3 5-3 5-2 2c-1 0-2-3-1-5v-2c-1-1-2 0-2 1l-2 5-1 4 2-1 2-1-2 6-4 7v2l-1 3v4c1 1 7-2 6-4l1-2 2-5c1-3 4-8 9-13 2-2 2-3 2-6l1-4 1-3 2-3c2-2 4-6 3-9l1-3 1-5 1-4v-3l3-7c3-5 3-6 2-8l-4-3c-3-1-3-5 1-4 2 0 3-2 3-6-1-4 0-5 4-5l5-3c0-2 1-3 4-3l6-2c1-1 1-1 2 1l-3 4-3 5-2 4v2c2 1 2 4 1 4h-4c-3-1-3-1-2 1 1 4 2 4 4 3h2c0 3-4 6-7 7-2 0-3 1-3 2 0 3 4 3 5 0l2-2 3-2c1-2 2-2 3-2 2 1 2 4 0 5l-3 3c-2 1-2 2-1 3l3 3v4l-2 3h-10c-4 1-5 6-3 10 3 3 2 7-1 6-2 0-3 1-4 3-1 3-1 3 1 3l2-1h5l-3 3c-2 3-3 4 0 6 1 2 1 2-2 6l-5 5c-1 1-1 3 2 3l1-1 1-2c3 0 2 3 0 4-1 0-2 1-2 3s-1 2-3 2c-5 0-7 1-4 3s4 5 2 7l-1 2v5c-2 1-2 1-3-1 0-3-1-3-3-1-2 0-2 2-2 3 1 2-1 6-2 6l-1-3-1-2c-2-1-12 0-12 1l1 1c2 0 2 1 0 3v2c0 2 4 1 5-1 2-2 5 0 7 4 1 2 1 2-2 5l-3 4c0 3-8 10-10 10l-1-2c0-3 0-3-5-3s-8 2-8 5l1 1 4-2c4-2 4-2 6 0l2 2-5 5-6 6c0 2-4 6-5 6l-1-3c1-2 1-3-2-4s-4-1-5 1c-1 1-1 1 1 4l4 2v1h-2c-3-2-6-1-7 2s-4 4-5 2l-3-1c-1 1-1 1 1 3 3 2 3 4 0 5l-3-1c-1-2-4-3-4-1l1 2v4c-1 2-1 2-5 2h-6l-4 2-7 3-8 3-10 3c-6 2-8 2-9 1 0-2-1-1-3 1-3 3-6 3-10 0-3-3-3-3-5-1l-2 3-4 2-5-1 1-1c1 0 3-7 2-8-1-2-2-1-4 5-1 3-3 5-4 5l-2-4c-2-5-5-5-5 0 0 4 0 4-4 4-6 0-9 0-14-2h-13c-4-1-5-1-5-3s0-2-3-1c-2 0-3 0-5-2-2-3-5-4-7-1h-4c-5-2-6-3-5-7 0-3 0-3-2-3l-2 3c0 3-2 3-7 2l-5-3-2-2-3-2-5-2c-12-2-12-2-9-3 2-1 2-1-2-2-4 0-5-1-3-4 2-1 0-3-2-2l-3-1-3-1c-2 1-5 0-5-1l-3-3c-4-2-6-5-4-7l2-3c0-2 3-3 4-1l7 1h13c3-1 3-1 5 2l6 3 5 3 3 1c1-1 2 0 3 1 3 3 11 6 16 5l4 1c2 2 10 4 18 5l8 2c1 1 1 1 2-1 1-1 2-2 5-1l5 2 3 1h17c1 1 2 2 3 1l7-1 18-1 6-2 5-1 5-1 4-2 1-1c1 0 2 1 2 3 0 4 4 5 6 3 0-2 2-2 3-1l3-1c1-1 5-1 6 1s9 1 10-2l4-7c4-5 5-7 2-9-2-2-1-5 2-6l3-1 2-2c3-1 16-12 16-14l1-1 4-2c2-2 3-3 5-2 3 0 3 0 2-3-2-4 0-8 3-8 2 0 3-1 3-3 0-3 0-3-5-3-6 0-8 2-8 5 0 2 0 3-2 1-1-3-2-2-2 1-1 3-1 3 1 4 3 0 2 4-1 6l-3 3c-1 2-2 2-4 2-3 0-4 0-3 2l-2 3-2 1c0 2-3 1-4 0v-3l1-3c0-1-1-1-3 1s-3 4-1 5c2 0 3 7 1 7l-3-1c-1-2-3 0-2 2l-1 2c-2 0-3-3-1-5l1-5c0-5 0-5-2-5s-2 0-2-3l-2-8c-1-4-1-4 1-6 2-3 3-6 0-6l-2-3c0-3 0-3 2-3s3 1 3 3c0 3 2 3 3 0l-1-3c-2-2-3-4-1-5h1c1 2 3 1 3-1l1-2 3-3c2-4 2-4 0-5s-2 0-4 4-2 4-7 4h-5v4c1 4 1 4-3 1-2-1-3-7-1-7l3-2c1-2-1-3-3 0-2 2-3 1-3-6-1-4-1-6 1-7l3-5 3-5 3-5 2-2c1-2 1-2-1-4l-2-2v3c-1 4-3 5-4 2s1-7 2-7c1 1 2 0 2-3v-12l-3-5-4-9-3-5h-4l1 3 2 6 3 6c1 3 1 32-1 33l-1 3-2 6-2 4-1 2c-2 1-2 6-1 6l3 4 2 3-1 3c-2 4-1 5 3 5l4 1 1 5-1 9c-2 5 0 9 2 9l2 2-1 1c-2 0-1 4 2 6 4 1 3 5-1 4-2-1-4 1-2 2l2 3 3 3c2 0 3 3 1 4-1 0-1 1 1 1 3 1 3 5-1 9-3 4-8 6-10 4-1-1-7 0-9 1-3 3-4-2-2-5l5-8c5-9 6-9 6 2 0 6 0 7 2 7 2-1 2-3 1-6v-6c-1-4-1-4-4-5l-3-3c0-2-1-4-4-7-3-2-4-4-4-6l-2-4-1-2-2-3-1-4-3-3-5-4-4-3-5-5-7-5-3-2-3-3-2-1c0-3-3-4-4-2l-2 1 2-3 2-3-5-3-6-4c-1-2-5-3-6 0-1 2-2 1-3-2l-2-5c-2-2-2-3-1-9l2-11 2-4c2-3 2-8 0-9l-4-1c-3 0-3 0-3 6l-2 8-1 7c0 4-2 10-4 13-3 2-2 3 0 3 3-1 7 1 7 3l2 3c4 1 4 6 1 6-2 0-4 2-7 5-4 4-6 5-8 3l-5-2-4-2-4-1c-5 0-6-2-3-4l1-2h-4c0 4-6 3-7 0l-5-2-5-2-4-1c-3 1-6 0-7-1-2-2-4-2-4-1l-3 3h-9l3-4 3-4 1-2 4-7c4-16 4-17 10-22l7-6 2-6c2-2 3-6 3-8l2-7v-5l-2-6c0-2-6-8-9-8s-5 5-2 6c2 0 3 2 5 4 1 2 2 3 1 8l-3 5-1 3-2 3c-2 0-3 2-3 3l-2 4c-2 0-2 1-1 2 0 2 0 3-3 4l-3 3c0 2-1 3-2 3l-1 2-2 2-2 3c0 2 0 2 3 1 2-1 2-1 2 1s0 2-3 2c-4-1-5 1-2 3l2 3-6 12-3 3-5 8c-3 4-3 5-3 16-1 12 0 13 2 16 3 3 2 5-2 5-3-1-4 1 0 5l3 5 2 3-1 3-1 4-4 5c-4 3-7 4-8 1 0-3 4-7 6-7h1v-5c1-3 1-5-2-5-2 0-3 1-3 4l-3 5-2 3c0 4-2 6-6 6-2 0-3-1-2-5 0-3 0-5 2-7l3-4 3-4c3-2 4-7 1-9l-1-5c0-3-1-5-3-8-3-4-3-5-3-10 0-15 0-20-2-24l-3-5-1-4-2-6v-18c0-7-1-9-2-9s-1-1 1-3c1-3 2-5 1-6l1-4 1-4 1-5 2-5 1-3 2-2c0-2 3-5 5-6l2-2h-5l-3 2c-3 1-3 1-3 3s-4 7-7 7l-1 2-2 6c-2 4-3 4-3 3l1-3 2-4 1-4 1-3 1-4 5-11c1-2 2-2 3-2 3 1 4 0 2-2-1-1-1-2 1-4l3-3h2v-6c2-4 5-5 8-1 4 4 7 4 10 1 2-2 12-3 13 0 0 1-5 6-7 6l-6 3a143 143 0 0 1-11 6l-3 1c-2 0-3 3-1 5 2 1 3 1 6-2l4-3 7-4 8-4 3-2c2-2 11-3 14-1h17c1 1 1 1 1-1l3-3 3-2 4-1c4 0 5 0 5 2l-2 2-2 3 2 1c3-1 3 2-1 5l-2 2-2 4c-5 6 0 5 7-1l6-6c2 0 4 4 4 7l-2 6-2 5-2 2c-1 1-2 4 0 4 3 0 9-7 9-10l1-4h8l3 3 3 1 4 1 7 2c2 2 4 2 10 2s8 0 9 2l5 1 6 2 9 5 3-1c0-2 2-3 5-2 2 0 13 10 14 13l1 2 3 4 5 7 3 5 1 5c1 3 1 6-1 11l1 6c4 8 2 13-8 24-7 7-7 7-5 9 2 1 2 1 4-1l2-2c2 0 5-4 8-9l4-4c2-1 2-1 1-2l-1-16c1-18 0-20-7-30a213 213 0 0 1-8-12l-3-4-3-5-1-4c0-4 3-2 7 4l7 7 2 4 2 3 5 5c2 3 7 4 7 2l-8-14-7-13-1-4-2-2c-2 0-2 1-2 3 0 3-1 4-3 2l-3-2-4-4c-1-3-3-5-4-5v-5c2-2 2-4 0-9l-13-13-1 3c0 3 1 4 6 9l7 8-2 2c-2 1-2 5 0 5l1 2 2 5 3 5c0 1-5 0-7-2l-9-9 1-1 1-1-1-2-1-2-1-4-2-4c0-2-1-3-3-3l-2 1-2 1v2l6 7c3 3 4 4 3 5v3l3 3 1 3c0 3 0 3-5 0-2-2-4-2-5-1h-3l-8-2c-8 0-12-1-12-3l2-2 10-8 1-3 2-3 3-5 3-5 2-7 2-6h2c2-1 2-1 2-3-1-1 0-2 1-2 2 1 2 0 3-4l2-6v-9l-2-4c-1-3 0-4 2-7 4-4 4-4 4-11l1-8 6 5zm-182-1c1 2 1 4-1 7l-1 9v9l2 13 1 7c0 3 2 7 5 11 2 2 2 8-1 9l-1 1c0 3-9 11-11 11-3 0-5-5-3-6l1-4c-1-3-1-4-5-6-6-2-9-6-9-8 1-1 0-3-1-4-3-2-3-7 1-11l4-4-3-4c-5-3-6-8-3-16 1-5 2-6 4-6s2 1 2 4l1 7c2 6 7 9 7 5l-1-1c-2 0-3-11-2-17 1-7 9-10 14-6zm272 2c2 3 2 4-2 4-3 0-3-1-2-4 0-4 2-4 4 0zm-409 10c0 1-2 2-3 1-2 0-3-4-1-5l4 4zm419-2-1 1-1-2 1-1 1 2zm-274 20 1 8 1 2 1 3c3 2 2 8 0 9-3 0-4-1-4-4l-1-5c-2-4-3-18-2-20 2-2 3 1 4 7zm-34 1c0 2-3 6-4 6l-2-5c1-2 5-3 6-1zm334 11-3 3c-2 0-1-3 1-5 4-1 4-1 2 2zm-11 0-2 1-2-1 3-1 1 1zm-326 9 3 8c4 5 5 13 2 15l-2 4-1 4c-1 1-3 8-4 23-1 7-1 8-3 8h-3l-7 5 1-5 2-7c1-4 2-4 4 1l1 4v-4l-1-6v-7c-1-3 0-6 3-6 1 0 2-9 0-10-1-1-1 0-1 2l-1 5a515 515 0 0 0 5-40c1-2 2 1 2 6zm367-2c2 3 0 4-7 4-6-1-7-1-5-4s9-3 12 0zm-186 11-2 6-4 7-4 6-3 2-4 3c-1 1-12 3-14 2-2 0-1-3 1-3l11-7c2-3 2-3 4-1h1l1-1c2 0 6-5 5-6l-2 1c-2 2-6 4-6 2l3-4 3-5 2-2 3-2 3-5c2-2 2-2 3 0 1 1 1 3-1 7zm143-1c0 5-3 7-5 3l1-4c3-2 4-2 4 1zm-309 10-1 3-1-3 1-4 1 4zm246 7-2 1c-1 0-2-2 0-3l2 2zm-252 1 1 6v15l1-4c0-3 1-4 3-5l2-2c-2-1-1-7 0-8 4-1 9 5 6 7l-4 7-2 7-1 3-2 4-1 4c0 3-2 4-3 1l-4-2c-4 0-5-1-4-3l2-12c1-13 3-20 5-20l1 2zm258 9c3 5 3 7 2 8l-1-3-3-3c-1-1-2-5 0-5l2 3zm-259 34c1 3 1 5-1 7-4 4-5 5-7 5l-2 1-3 1c-2 0-3-2-1-4 1-2 9-7 11-8s2-3 0-3l-4 2c-2 1-3 2-4 1-2-1-6 3-6 7l-2 5c-2 2-1 5 2 9l4 5 3 1 4 2c2 2 3 6 2 6l-1-1-2-1c-1 0-4-1-5-3-5-4-9-4-8 1l-3 6c-4 5-3 6 1 5 3 0 4 0 5 3l2 5v4c1 2-2 6-4 6l-2 2c-2 2-4 1-4-2 0-5-1-12-3-15-1-3-2-18 0-21l1-11c1-7 1-8 4-10l3-5 4-1 4-1c0-1 5-3 9-3 3 0 3 0 3 5zm10-4v12l-1 3v3c2 1 2 2 1 3l-1 6 2 10 1 9 2 4 4 7c3 4 3 6 1 6s-15-13-15-14l-2-3-1-6-1-7c-3-4-3-12-1-12 1-1 2-2 2-5l1-5 2-4 1-4 2-3h3zm312 4-1 2h-2c-1-1 0-3 1-3l2 1zm-241 8c0 2-4 5-5 5l1-2 1-2c1-2 3-3 3-1zm-87 13c0 5-1 7-3 4l-2-2-2-4 2-1 3-1c1-3 2-2 2 4zm-29 14 1 5 1 6c0 5-2 5-3 0 0-3 0-4-1-3-3 2-5 0-4-2 2-3 1-5-1-6l-3-1 3-1 3-3c2-2 3 0 4 5zm22 2 3 1 4 3 3 3c1 1 1 8-1 8l-1 3-1 1-1 1c0 1 1 2 3 2 3 0 4-1 4-2l1-4 1-3 2 3 3 4c0 1 4 4 6 4s7 3 7 5c1 2 0 5-2 5l-1 2 2 1 2 1-2 2c-2 2-3 6-1 5 1-1 2 0 2 1l1 3c2 1 6 9 6 13 1 4 1 5-1 6v5l-3 5-3 3c-2 0-2-1-2-5s0-5-2-5c-2 1-5-2-5-6-2-7-1-10 0-11v-1c-1 0-3 2-3 7-2 6-2 7-6 2l-4-4c-2 0-1 2 1 4 2 1 3 4 3 5l2 3c2 0 2 1 0 3-2 1-5 0-8-3l-3-4c-2-3-2-9 2-9v-3l-1-3-2-4c0-2-1-4-3-4l-4-4-3-3-1-2c-1-2 2-6 5-6l2-2 1-2v-8c0-7 0-8-3-11-5-3-5-7-2-7 2 0 3 1 3 2zm331 5v1l-2 3c-1 2-2 3-5 1-2-1-2-1 1-4 3-2 5-3 6-1zm-5 12c0 3-1 4-3 6-4 3-6 2-3-2l2-5c0-2 2-4 3-3l1 4zm-257 12 7 1c6-1 7-1 8 1 0 2 1 2 1 1 2-2 8-1 12 1l7 2 7 2 6 3 6 1c3 0 4 1 4 2l4 1 4 1 4-2c2-2 3-3 3-1v2l-1 1h2c1-1 2-1 5 2l4 7 2 4c2 2 1 2-3 1h-5c-1 1-1 1 1 2l2 2h-8c1 3-2 4-4 2-1-1-2 0-3 1l-9 6c-1 0-2 1-2 3l-4 5-2 4 1 3c0 3 4 1 5-2l3-4 1-1 7-7 1-1c1-1 2-2 5-2 4 0 5 0 6-2l3-2c2 2 1 5-2 8l-3 5-2 3-4 5c-1 3-4 7-6 7l-4 3-5 4-1 1c0 1-1 2-3 2l-3 1-3 2c-4 1-4 1-1 3l3 3c-1 1-7-2-7-3 0-3-2-3-5-1-2 2-2 2-2 0l-1-3c0-2 0-2-3 0l-2 3-6-2-9-2-3-2-4-3c-2-1-2-1-1-2 1-2 1-4-1-4l-2 2h-3l-6-2c-4 0-5-2-2-3l3-2 3-5c2-3 2-3 1-6l-3-7c-1-4-1-4 1-7v-6c-1-2-2-4-1-15l2-14h5zm86 5 5 3 1 1c0 1 1 2 3 2l6 5 6 5c5 2 5 4 2 6-4 3-7 3-9 1l-2-2-17-12c-6-5-6-7-3-10s4-3 8 1zm-174 14c1 2 2 2 4 1 3-1 3-1 5 1l5 6c4 4 4 7 0 10-2 1-3 4-1 7 1 2 0 4-2 4s-4-6-3-7v-3c-1-1-1-1-2 1-1 1-1 1-3-1l-4-5-2-4-2-3c-1-2-1-2 1-5 1-3 2-4 4-2zm203 7 2 2c0 2-5 7-7 7l-4 2-7 2-5 1c-1 2-9 3-11 2-2-2-1-5 2-6l3-3h5l-1 2c-2 0-2 2-1 2 2 0 4-3 3-5v-2c2-2 5-1 4 2 0 3 4 4 6 2l2-2 4-3c4-4 3-4 5-3zm12 7c5 5 5 6 3 9l-2 4-1 2-3 6 1 5c3 0 3 0 3-2 0-3 7-10 8-8l2 2c2 1 2 6 0 7s0 6 2 7 3 6 1 6l-1 3-2 3-3 1c0 2-3 3-8 4l-4 1-3-1c0-3-2-2-6 2s-8 5-8 3l4-5c4-6 4-7 1-9s-4-1-4 3c0 3-1 5-2 5l-5 3c-3 2-4 2-7 1s-3-1-6 1c-1 2-3 3-5 3s-2 0-2-2-1-3-3-4c-2 0-3 0-5 2-2 3-2 3-5 2l-7-1c-3 0-4-1-4-2l2-1 4-2c2-1 6-1 6 1 1 2 3 1 3-2-1-2 0-3 1-4 3-2-1-1-4 1-6 2-9 0-6-4 2-2 3-2 7-2 6 0 6-1 3-4s-4-5-2-5l5-4c2-3 3-5 5-5 1 0 3 0 3-2l4-2c3 0 5-1 8-4l4-4 4 3c3 3 4 4 4 7l1 4v3l-1 5-2 5c-3 1-4 3-2 3s7-4 7-6l3-4c2-2 3-3 3-5v-4l3-10-3-1c-2 0-3-2-3-5l1-1 5-3 4-2 4 3zm-191 6 2 4 1 4 1 2c1 0 4 2 6 5 5 4 6 6 2 6-3-1-3 1 0 3 2 2 2 2 5 1l3-2-2-3c-4-6-6-10-4-13l4-2c3 0 3 0 3 2-1 3 1 7 4 7l1 3c0 3-2 6-3 6l-4 4c-4 4-8 4-10 1l-2-2c-2 1-4-1-4-3l-3-5-4-4-2-1c-2 0-3-1-3-4l1-3 4-4c2-6 4-6 5-2zm175 3v4l-7-3c0-1 3-2 5-1h2zm-25 5h-2v-2h1v2zm27 7-1 1-2-1 2-1 1 1zm-57 23c1 1 0 2-1 3l-1 3c0 3-4 2-5-1-2-4-2-4 1-4h3c0-2 3-2 3-1zm129 10-2 1-2-1 2-1 2 1zm-82 32h-2v-3c2-1 3 0 2 3z"/><path d="m437 45 3 1c3-1 3-1 3 1 0 3 2 3 3 0s0-4-5-4c-3 0-4 0-4 2zm-12 2c0 2 4 4 5 4l-4-5-1 1zm10 2c-2 1-1 4 1 5 3 2 4 2 4-2 0-2-4-5-5-3zm15 1-1 2 6-2h-5zm-30 7c-1 1 1 4 2 3l-1-3h-1zm8 0 2 1 1-1-1-1-2 1zm12 2c-2 1-1 2 1 2l2-1c-1-2-2-2-3-1zm7 0c-2 1-1 2 1 2l2-1c-1-2-2-2-3-1zm8 1 2 1 1-1-1-2-2 2zm8 1-1 2c1 2 4 1 5-1s-1-3-4-1zm16 0 2 2 1-2-2-2-1 2zm-65 1c0 1 1 2 3 2l2-1-2-2c-2-1-3 0-3 1zm-4 5 1 1c2-1 2-3 1-3l-2 2zm36 0c0 2 5 5 6 2 1-2-1-4-3-4s-3 0-3 2zm-8 0c-1 2 0 3 1 2v-3l-1 1zm-13 2-3 1c-2 0-4 2-2 3 1 1 6 0 6-2l2-1v-2c-1-1-2-1-3 1zm36 1v3l1 2 1-1c0-2 3-5 5-4l1-1-7-2-1 3zm27-1 1 1 1-1-1-2-1 2zm-45 3-3 1c-3 1-3 2 0 3l4-2c1-2 1-4-1-2zm9 1c-1 1 5 3 6 2s1-1-1-2h-5zm18 1c-1 1 0 1 2 1 3 0 3 0 1-1h-3zm11 0-2 2-1 3c-2 1-2 3-1 3l3 1 4 2c1 1 2 0 2-1l-3-2c-2 0-3-2 0-5 1-2 0-4-2-3zm13 15c-2 1-2 1 0 1l2-1c0-2 0-2-2 0zm-53 41c-3 0-4 1-2 2 1 1 12 0 12-1s-5-2-10-1zm-10 4c-3 0-4 1-3 3h3c4-2 4-4-1-3zm37 0c0 2 2 5 4 5 3 0 2-3-1-5h-3zm-80-80c-2 2-1 4 1 4s2-1 2-3-1-3-3-1zm-4 7-1 2 1 1c2 0 4-2 4-3h-4zm-6 5c0 3 2 4 5 3 2 0 2-2-1-2l-3-2c-1-1-1-1-1 1zm218 170c-1 1 1 2 2 1l-1-2-1 1zm-408 64-1 7c-6 1-6 1-2 3l3 3c0 3 0 3-4 3l-5 1c0 2 1 2 4 2 4-1 9-4 9-8l1-2c3 0 4 2 3 5 0 2 0 2 2 2s2-1 2-3l2-4c1-1 1-1-1-2h-5c-3 2-4 1-4-4-1-3-1-4 1-5 3-1 2-2-1-4-4-2-5-1-4 6zm35 9c-1 1-1 1 2 1l3-1-2-2-3 2zm-12 4c-2 2-1 4 3 6s4 2 3-2c0-4-3-5-6-4zm19 2c-3 2-2 3 1 4h7c2 1 5 1 6-1l-1-3h-13zm-8 6 4 4c3 0 3-2 1-3l-3-1h-2zm35 2 1 2c1 1 2-2 1-2-1-2-2-1-2 0zm-12 5c0 2 2 4 3 3l-2-5-1 2zm-95 0-6 1c-6 0-7 0-5 3 1 2 4 3 7 0l4-2 2-2h-2zm78 1c-4 1-6 3-4 6h4l3-2c2-1 3-4 1-4h-4zm-81 9c0 2 0 3 1 2v-4c-1-1-1 0-1 2zm105-1c-2 1-3 2 0 5l2 5c0 4 1 5 3 5s3-1 1-3l-2-4c0-10 0-10-4-8zm-111 2s-1 2-3 2c-4 2-4 5 0 5 3 0 3 0 3-4v-4 1zm119 18 2 3c2 0 2 0 1-3 0-3-3-3-3 0zm-68-21c-3 2-4 3-4 5l-2 4-3 3 3 1 2-1 2-2 1-3 1-2 2-2 5-1c3-1 4 0 3 3l-1 5c-2 2 0 5 2 5 2-1 3-1 3-6 0-4 1-5 2-5 2 0 1-2-1-4-3-3-10-2-15 0zm-21 2-4 2c-2 1-2 1-1 2s4 0 4-1l1-1 2-1c0-2-2-2-3-1zm7 3c-2 4-2 5 2 5 2 0 5-3 5-6 0-4-4-3-7 1zm-4 8c-1 1 0 2 1 3v3c-1 2-1 2 1 3 3 1 2 1 6-2l4-3-4-1c-2 0-4-2-5-3-2-2-3-2-3 0zm18 4 1 3h3l1-3c-1-2-4-2-5 0zm21 3c-1 1 0 1 1 2 3 1 3 4-1 4h-3l-8-1c-5 0-7 0-10 3-4 3-7 9-6 12l1 2 4-6 2-2-1 4c-1 4-1 4 2 7 2 3 3 3 4 2 0-2-1-4-3-4-3 0 0-2 3-3 3 0 4-1 4-3 0-1 0-2-2-2l-3-1c-2-2-2-2-1-3 2-3 5-4 7-3 3 2 6 5 6 8l1 3h2c0-1 1-2 6-1 5 0 5 0 6-2l2-2c5-2 1-12-4-12l-4-1c-3-2-5-2-5-1zm10 9c0 4-2 6-4 5h-4c-3 0-3 0-3-2l3-2 3-2c0-2 2-3 5-2v3zm-65-1c0 2 0 5 2 6l1-3c0-3-2-5-3-3zm8 6-1 2c1 1 5-1 4-3l-3 1zm19 16c0 1 3 2 5 1l1-1h-6zm30 1 1 1c2-1 2-3 1-3l-2 2zm600 114 2 4c3 2 4 2 2-1l-1-3c-1-3-3-3-3 0zm-9 5 2 2c1 0 1-2-1-3l-1 1zM530 612c1 3 3 7 5 8v9l2 3c0 3 11 19 14 22 3 2 3-1 0-6l-7-13-3-7-2-4-1-5-2-3c0-1-4-6-6-6v2zm-14 7 2 3 2 3 2 3c2 2 1 3-1 3s-3 2-1 3l1 2c0 3 13 27 18 31l2 1a304 304 0 0 0-10-31l-2-5-2-4-3-4-3-5c-1-2-5-3-5-1zm-4 21-1 3-2 1 2 3 1 3 1 2 3 4 3 4 2 4 1 2c2-1 2-5 1-6l-1-3-2-6-2-5-1-3-2-2c-1-3-3-4-3-1zm3 6c-2 2-3 1-2-1l1-1 1 2zm29 11v6l1-2 1-3 1-1h-3z"/><path d="M545 668c0 3 1 6 3 8l3 8 3 8 3 6 3 4c1 2 1 5-1 5l-4-3-4-6-9-13-3-5-6-10c-1-1-2-2-5-2s-3 0-2 1l1 4c-1 2 4 11 5 11 2 0 1-3-1-4v-3h1l2 2 2 3 2 4 4 4 1 3 2 2 5 7 4 7c0 2 15 18 17 18 1 0 1-4-1-7l-1-3-2-2-1-4-2-4-1-3-1-2-1-4-3-8-2-5-3-6-2-6-1-2-1-4c0-2-1-3-2-3-2 0-2 1-2 4zm-155 3-5 3c-1 2-3 3-5 3-3 0-4 0-4 2 0 3 4 3 8-1l5-3 5-4h-4zm104 5 2 2 1-2-1-3c-1 0-2 1-2 3z"/><path d="M400 676c-3 3-11 6-13 6l-3 2-4 1-4 2c-1 1-6 1-7-1l2-2c3-1 4-3 2-3s-7 5-6 7c0 2-4 3-5 1-1-1-2-1-4 2-2 1-3 3-3 5 0 4-2 8-4 10-3 2-3 3 0 3l2-1 2-3c4 0 6-5 5-9l1-4 1 3c0 3 3 3 7 0 2-3 15-8 21-9 3-1 14-7 15-9 2-4-1-4-5-1zm43 12c-2 1-2 2 0 5s2 4 1 6c-1 3 0 5 2 3s2-9 0-11l-1-3c2-2-1-2-2 0zm14 4-1 1 4 2c2 2 4 1 4-2 0-2-2-3-7-1zm-77 3v1h2c1-1 0-2-2-1zm3 6c-2 2-2 2-5 2-3-1-4 0-3 3h2c2-2 3 0 2 3 0 2-3 3-3 1 0-1-5 2-6 4-2 1-1 5 1 7 1 2 2 3 1 4l-1 4c-1 4 2 5 3 2l2-4c1-1 3-3 3-6l6-12 1-2v-4c0-4-1-5-3-2zm126 0c0 2 3 5 5 5s1-2-1-4-4-3-4-1zm-54 5c0 3 1 4 3 3 3 0 3-2 0-3h-3zm-13 3 1 5 2 5 1 3c0 2-2 3-4 1h-1l1 1 1 2v4c2 3 4 1 4-3v-3l2-3 2-4c1-3 1-3-1-5-5-7-7-7-8-3zm51-2c-2 0 0 2 2 2l2-1c-1-2-2-2-4-1zm15 6 3 1v-1h-3zm7 1 2 1 1-1-1-2-2 2zm-167 0c-2 1-1 4 1 4l1-2c0-2-1-3-2-2zm141 6c-3 2-3 2-4 0 0-3-4-3-9 1-2 2-5 4-6 3-2 0-6 4-6 7l1 3v2c-2 1-2 1-1 3 1 1 2 2 1 6 0 4 0 4 2 4s3-1 4-3v-3c-2 0-2-3 0-5 2-1 3-3 3-5 0-3 4-7 8-7h9c3 1 4 0 4-2-1-3 2-4 6-3s9 1 9-1-9-3-11-2l-1 1-3-1c-2-1-4 0-6 2zm23 0 2 1 2-1c1-1 0-1-1-1l-3 1zm-93 2-1 2-2 4c-3 3-2 4 1 2l2-3s1-2 3-2l3-3h-6zm16 3-4 1c-2-1-2-1 0 2 1 3 3 3 3 0 0-2 1-2 3-1l3-1c0-2-3-2-5-1zm116 1c0 2 0 2 5 3h4l-3-2-3-2c-2-2-3-1-3 1zm25 3-1 1c-2 0-3 2-2 3 1 2 4-1 4-4h-1z"/><path d="m483 732 2 1 2-1-2-2-2 2zm79-1 1 2h2v-2h-3zm-193 5-1 2-1 2-2 1-3 1c-2 0-3 1-6 5l-3 4-1 2c0 3-1 5-3 5l5 2c2 0 2-1 2-3l2-5 1-2c0-2 7-5 8-4 1 0 0 2-2 3-3 3-4 7-1 7 2 0 5-3 5-6l1-3v-4c-2-3-2-3 0-4 1 0 2-3 0-3h-1zm43 1c-1 2-1 2 1 1l1-1h-3zm147 0c1 2 3 2 3 1l-2-2-1 1zm-122 3-4 4c-3 2-4 2-3 4v4c-3 4-2 5 1 2 2-2 3-3 3-6s0-3 3-3l3-3-1-3c-1-1-1-1-2 1zm132 1-1 4 1 2 1 2 1-4c-1-2-1-3 1-3 2-1 2-1 1-3-2-2-3-1-4 2zm57-2v2c1 2 2 1 2-1 0-1-1-2-2-1zm-282 2 2 2 1-2-1-2-2 2zm163 3 1 2 1-2-1-2c-1-1-1 0-1 2zm5-1-1 3c0 3 3 2 4 0 0-3-1-4-3-3zm39 3c0 3 1 4 2 2v-2h-2zm10 1-3 3c-3 1-4 4-1 4l2-1 2-3c2-1 2-2 1-3h-1zm26 1v2c2 1 2 1 2-2h-2zm7 1c-1 2 0 3 1 1v-1h-1zm-24 4c0 3 3 4 4 2v-3c-3-2-4-1-4 1zm12-1c-1 1 0 2 1 1v-2l-1 1zm-113 1v4l1-1 1-2c0-2-1-3-2-1zm-64 2c-1 1 2 3 4 3 4-1 3-3-1-4l-3 1zm68 2 2 2 1-2-1-3c-2 0-2 1-2 3zm31 3c0 2-3 3-4 1-1-1-1-1-3 3-3 7-3 7 1 7 3 0 4 0 1 7 0 3 0 3 2 1 1-2 2-3 1-5 0-1 0-2 2-2 3-1 4-3 0-4-3-1-2-1 3-3 2 0 1-3-1-5-2-3-3-2-3 0zm57-1c0 2 2 4 4 4 2-2 1-5-1-5l-3 1zm-156 2c-1 1 0 2 1 1v-2l-2 1zm148 0v6c2 3 4 3 4 0v-3l1-3c0-1-3-2-5 0zm20 0-1 2 3-2h-2zm16 2c1 2 3 3 3 2 2-1 1-2-1-2l-3-2 1 2zm-119 0c0 2 3 4 3 3v-3h-3zm-120 1c-1 1 0 1 1 1l2 2-1 3-1 1c1 1 6-2 6-4 0 0-1-2-3-2l-4-1zm230 0c-2 0 0 2 2 2l2-1c-1-2-2-2-4-1zm-122 2c-1 1 0 3 2 3v-2c0-2-2-2-2-1zm61 0v2l1-1c1-2 0-2-1-1zm57 1c-1 1-1 2 1 2l1-1c0-2-1-2-2-1zm-104 4 1 2 2 1c2 0 1-4-1-4-2-1-2 0-2 1zm-117 1 1 3h2l-1-3h-2zm75 1c-1 2 0 3 1 1v-1h-1zm121 3c-1 3-1 5 2 5l1-4c-1-4-3-5-3-1zm26 0c1 2 3 2 4 0l-2-1-2-1-1-1 1 3zm-7 0-1 4-1 2c-2 0-2 3 0 5l1 3c0 1 1 2 3 2l2-1 2-1c2 0 4-2 2-3h-3c-1 1-2 1-4-1-2-1-3-4 0-5 1 0 2-4 0-6-1-1-1-1-1 1zm39-1v2h1v-2h-1zm-45 2-3 1c-2 0-2 2 0 3 2 0 5-4 4-5l-1 1zm-136 2c-1 1 0 2 2 2l2 1c0 1 3 2 5 1l2-2c0-2-3-2-5-1h-2c-1-2-3-2-4-1zm76 4-3 1c-3 0-3 1 0 4 4 4 5 4 3 1s-1-5 2-5l2-1-1-2-3 2zm103-1c-1 1 2 2 3 2l1-2h-4zm-26 5c-1 2-1 2 1 2h1l1-2c1-3-2-2-3 0zm-26 1c0 2 5 5 6 4l-5-6-1 2zm11 6 2 1 1-1-2-1-1 1zm12 2c-1 1 1 2 2 2 1-1 0-4-1-4l-1 2zm-26 1c-2 1-1 7 1 7 1 1 1 0 1-2 0-3-1-6-2-5zm8 0 1 2 1-1c0-2-1-2-2-1zm8 2c-2 2-2 4 1 4 2 0 3-2 3-5 0-2-1-1-4 1zm34 0c1 1 3 1 3-1l-2-1c-2 0-2 0-1 2zm-8 4-1 3 1 2 2-1 1-2-1-2h-2zm4 0c0 1 3 2 4 1s1-1-1-1h-3zm-53 5 1 6 1 4v-5c0-4-1-7-2-7l-1 2zm7 1 1 2 1-1c0-2-1-2-2-1zm6 10 1 2 1-3-1-1-1 2zm-10 0 2 4v-4h-2zm32 8c-3 3-4 4-1 4 2 0 5-3 5-5 0-3-1-2-4 1zm13 1 1 1 1-1-1-2-1 2zm-24 3 1 3c0 2 0 2 1 1 2-2 1-5 0-5l-2 1zm13 3 1 3 3 1 2-1-5-5-1 2zm-19 10c-1 2 0 5 2 5l1-2c0-3-1-4-3-3zm3 8c1 2 2 2 3 0l-1-2-2 2zm-209 3c-2 0-3 1-3 3s0 3 3 3l2-2 1-1v-3h-3zm-17 2c-1 1 0 2 2 2l2-1c0-2-3-3-4-1zm25 3c0 1 1 2 3 2 4 0 4-2 0-3l-3 1zm-5 3c-1 1 1 2 2 1l-1-2-1 1zm5 3 2 2 1-1-2-2-1 1zm5 1c-1 3-1 3 1 3s3-1 3-3c0-3-2-3-4 0zm166 4-3 4v1l2-1 3-1c2-1 3-3 1-5-2-1-2-1-3 2zm-154 0c-2 2-2 5 0 6l1-1c0-2 1-2 3-2 3 1 3 0 0-3-1-2-2-2-4 0zm122-1c-1 1 0 3 2 3l1-2c0-2-2-2-3-1zm20 3c-2 2-2 3 0 3 1 0 4-4 2-4l-2 1zm-110 1-4 2-4 2v1l1 2 1 3c2 2 7-2 7-4l2-3c3-2 3-5 0-5l-4 2zm14 0v3c1 1 0 2-1 4-3 3-3 3-6 2-2-1-5 0-3 2l4 1c3-1 3-1 6 2 2 2 2 2 5 1 3-2 4-8 2-8l-3-1c-1-1-1-2 1-3v-3c-2-2-5-2-5 0zm7 11-2 1-2-2c0-1 3-1 4 1zm-42-10c0 2 0 2 2 2l2-1c2 0-2-3-3-3l-1 2zm52 1c-2 0-3 3-2 4l3-2 1-2h-2zm-7 2c0 2 1 3 2 1l-1-3-1 2zm17 0c-1 1 1 2 2 1l-1-2-1 1zm61 2c-1 1 1 3 3 3s1-3-1-4l-3 1zm-6 2v1c2-1 3-3 1-3l-1 2zm-115 0 2 1 1-1-1-1-2 1zm94 3-5 3c-3 1-2 4 0 4s4-1 5-3c1-3 3-4 4-4l2-1c-1-2-2-2-6 1zm-47 5c0 3 1 5 3 5s2 0 2-3-4-4-5-2zM318 615v3h1v-3h-1zm2 5 3 3c2 0 2-2 1-3h-4zm0 22c0 1 5 5 7 5s2 0 1-1l-3-2-2-1-1-2-2 1zm14 2c-1 1-1 1 1 1 2 1 3 0 3-1h-4zm-11 138v4c1 0 3-3 2-4h-2zm-3 18 2 1 2-1-2-1-2 1zm21 10 1 1 1-1-1-2-1 2zm-2 5c-1 1 0 2 2 2l2-1c-1-2-3-2-4-1zm90-21 4 4-2-3c-1-2-2-2-2-1zm-7 5 1 3c1 1 2-3 1-4-1-2-2-1-2 1zm-26 2h3c3 0 3-1-1-1l-2 1zm54 1c-2 0-2 1-1 2 2 1 6 0 5-2h-4zm-16 1c0 2 3 2 5 2v-2h-5zm-45 4 2 1 1-1-1-1-2 1zm10 2c-2 0-3 1-1 2l1 4c1 1 1 1 2-1 2-4 1-6-2-5zm18 13-3 5v1l2-1c2-2 3-9 2-9l-1 4zm-45 1c-2 1-1 3 2 3s3-2 0-3h-2zm28 5c-2 3-1 5 1 5h3l2 1-1-2-1-3c-1-3-2-4-4-1zm-15 2c-1 1-1 1 1 1 3 0 4 0 2-1h-3zm6 1-1 4v4l2-4 1-4v-1l-2 1zm46 5-1 2-2 2c0 2 1 1 4-2 2-2 3-5 1-5-1 0-2 1-2 3zm-38-1c-1 1-1 2 1 2l1-1c0-2-1-2-2-1zm-15 3 2 2h2l-2-2h-2zm28 1c-2 4-2 5 10 5 8 0 11-1 11-2l-1-1-2-1h-1l-4 1h-2l-2 1-4-2c-2-3-3-4-5-1zm-8 2 1 2c1 1 1 1 1-1s0-3-2-1zm3 7 1 2 2-2-2-3-1 3zm12-1c-2 1-1 2 3 2l3-1c-1-2-4-2-6-1zm-23 1c-1 1 0 1 1 2l2 2c1 2 1 2 1-1 0-2-1-3-2-3h-3zm-109-44 2 2c2 0 2-3 0-4-2 0-2 0-2 2zm7 3 1 1 1 2c0 1 2 2 2 0l-2-2-2-1zm173 22 3 4c2 2 2 2 3 0v-1l-3-2c-1-2-3-3-3-1zm-2 7c-1 1 3 3 4 2l1-2c0-1-4-2-5 0zm8 5-2 3h5c2 0 2 0 2-2s-2-4-3-4-2 1-2 3zm30-1-2 1c-2-1-3 0-4 3-2 5-3 6-5 6-3 0-3 2 0 4l4 3 2 1 1-3 1-3c2 0 2 0 1-3 0-2 0-3 2-4 2-2 2-2 3-1 1 3 2 2 2-1s0-4-2-4l-3 1zm-40 3-1 3c1 1 5-1 5-3 0-3-1-3-4 0zm5 5c-1 4 0 4 2 2s3-4 0-4c-2-1-2-1-2 2z"/><path d="m504 847-1 3c1 1 2-1 2-3h-2zm6 0-1 2-1 2-1 1c1 1 7-4 6-5h-3zm-58 2-2 3c0 3 2 2 3 0l3-2 2-1h-6zm8 3-1 3 1-1 2-1 2-2c-1-2-3-1-4 1zm13 1v2c1 1 3-1 3-3s-2-1-3 0zm-163-20c0 2 1 3 3 2 1-1 1-4-1-4l-2 2zM426 14c-2 1-1 2 2 2 3-1 3-1 3 3 0 2 3 2 6 1s4-3 1-3l-1 1c0 2-2 1-3-1s-2-3-5-3h-4zm21 0c-2 1-1 4 1 5 2 2 5 3 3 1l-1-4c0-2-2-4-3-2zm38 4c0 1 3 3 5 3l-1-2c-2-2-4-3-4-1zm-22 4c-3 3-2 3 1 3l4 1 5 1-8-8-2 3zm-45 1 2 1 1-1-1-1-2 1zm88 1 2 1 1-1-1-1-2 1zm-27 2c-1 0 3 4 5 4l2 2h2c1 0-1-4-5-6h-4zm18 1 5 6 1 1 3 2h2l-2-2-2-4-2-2c-3-2-5-3-5-1zm-6 3c0 2 4 4 5 3l-4-4-1 1zm-129 9 2 1 1-1-1-2-2 2zm184 2v2h2c1-2 0-3-1-3l-1 1zM329 60l-5 4-4 3c0 3 1 2 5-1l5-3 2-2c2-2 2-2 0-3s-2-1-3 2zm4 8 3 1 2-1-2-1-3 1zm239 0 2 1 1-1-1-1-2 1zm-223 5c-3 3-3 4-2 5 2 2 3 2 3 0l2-4v-3c0-1-2 0-3 2zm191-2c-1 1 0 3 2 3s4 2 6 5l4 6 1 3 5 12 1 2 1 4 2 4 1 4 2 5 1 4c0 2 1 3 2 3l1 3 2 3 1 2 2 3 1 4 2 5 1 4 2 4 1 6c0 7 1 9 4 6h2c2 1 6 0 6-1l-4-4c-3-3-4-4-4-6 0-3 0-3 2-3 3 1 3-1 1-4l-3-1c-1 2-3 1-3-1l-1-3-2-4c-1-2-2-5-4-6l-2-4-3-7a59 59 0 0 1-5-18l-2-7c-1-1-2-2-1-3l-2-4c-2-2-3-4-2-6l-1-2-3-3c0-2-2-3-3-4-2 0-3-1-3-2 0-2-1-3-4-3l-4 1z"/><path d="M536 76c-3 2-2 9 2 13l1 2 1 2 3 5c0 2 2 4 3 5l2 2 3 6 3 6 2 4 2 3 1 2 1 3 7 16c6 10 7 12 7 10l-1-4-1-4-2-7-2-5-1-3-2-3-1-3-2-3-1-2c-2 0-3-4-2-6s1-2-1-3l-2-3-4-8-4-7-2-5-4-8c-3-6-4-7-6-5zm-182 1c-1 1 0 3 1 3v-3h-1zm-47 3 1 2 2 1c0-2-3-4-3-3zm14 1-1 2c0 3 2 2 3-1 0-2-1-3-2-1zm34 1 1 4c1 4 3 3 4-2 0-3 0-3-2-3l-3 1zm227 3c-1 1-1 2 1 2l1-2c0-1-1-2-2 0zm-58 2 1 1 1-1-1-2-1 2zm-73 4-2 3-1 3c-2 2 0 3 6 3l5-1c0-1-2-6-4-7-2-2-2-2-4-1zm141 0c-2 1-1 3 1 3l3 1 2 1c3 0 3-4 0-4l-4-1h-2zm-73 1 1 1v7l-1 2c1 2 0 3-1 3-3 1-3 2 1 5l4 1v-3c-2-1-2-3-1-4l1-4 1-4v-2c-2-2-5-3-5-2zm-180 2v4l1-3c0-2 0-2-1-1zm-7 3 1 3c1 1 1 2-1 3v4c1 4 0 8-3 8s-3 1-1 4c2 2 2 2 3 1l1-2c0-2 2-1 3 1 1 1 0 2-2 4h-5c-4-2-5-2-5-1 0 3 4 6 7 5 2 0 2 0 2 2l-5 1c-3 0-4 1-4 3s-2 3-4 1h-1v1l2 2-2 2-2 2c-1 1-3 1-3-2l-1-1v-7l-2 4-6 11 2 3 1-2c0-2 3-4 4-2 2 2 4 1 8-3l5-4c1 0 2-1 2-3 1-3 1-3 2 0l-1 3v4c1 0 4-4 4-7l1-2 2-4 4-8h3c2 0 2-1 2-2 0-3-1-3-4-4-5 0-6-4-3-7 2-3 2-3 0-9-2-4-3-5-4-2zm106 1c-2 1-2 2-1 3 3 3 5 3 6 0v-4c-2-1-2-1-5 1zm-13 1-2 2c-1 1-1 1 1 1s5-2 4-4c-1-1-3-1-3 1zm146 0c0 2 1 3 3 4l4 6c0 4 1 5 3 3l3-1c3 1 4-1 1-2-2-1-6-6-7-9l-2-2-3-1c-2 0-2 0-2 2zm29 1c0 2 1 2 3 2s5-3 4-3l-4-1c-3-1-3-1-3 2zm-258-1-1 4 1 4 1 1 1 3c0 3 1 4 2 4l1-3 2-4c2-1 1-4-1-7l-3-3-3 1zm5 7-1 2c-2 0-3-4-1-5 1-1 2 0 2 3z"/><path d="m338 111 1 1c2-1 2-3 1-3l-2 2zm91-1c-1 1-1 2 1 2l1-2c0-1-1-2-2 0zm140 0v1c1 1 3 0 3-1h-3zm-24 4 2 3 1-2-2-3-1 2zm61-1v1c1 1 5 0 4-1h-4zm-255 2 1 2 1-2-1-2-1 2zm56 1c0 3-1 3-3 3s-3 1-1 3h4c0-2 7-4 9-3s3 0 2-2l1-2c1-2 1-2-2-1h-6c-3-2-4-1-4 2zm141 4 2 2 1 3 2 2 1-2-1-4-2-2-1-1-2 2zm-195 2v4c0 3 0 3-2 2-2 0-2 0-2 2l-2 3-3 3-5 9-1 2c0 3 5 1 8-3l4-5 3-4 2-4c-1-1 0-2 1-2 2 0 2-2 1-5-1-4-3-5-4-2zm-5 2c0 3 0 3 1 1v-3c-1-1-1-1-1 2zm261-2-1 2 3-2h-2zm-96 1c-1 3 0 6 1 4v-3l-1-1zm-224 2 2 1 1-1-1-1-2 1zm-8 1c0 1 2 3 4 3l-1-2c-1-2-3-3-3-1zm258 8c0 6 0 9 2 10l1 4c0 5 6 15 12 19l5 4c2 0 2-3 1-4l-6-12-1-4-3-7c0-4-1-5-2-4-1 3-3 2-3 0l-1-6-1-6-2-3c-2 0-2 2-2 9zm16-5c-1 3 0 6 1 4v-3l-1-1zm-217 1c0 3 1 4 2 2v-2h-2zm187 3c-1 2 0 4 1 4v-5l-1 1zm-168 4c-4 4-10 15-9 16h2c3-2 12-16 12-18s-2-1-5 2zm-21 1v4c1 1 1 0 1-3 0-5 0-5-1-1zm194 2c-1 2-1 2-3 1-2-2-2-2-2 0-1 4-1 7 2 11l3 6 6 9c1 1 6 2 9 1l-1-3-3-4-3-4-2-5-2-5-1-4c0-5-2-7-3-3zm3 11-1 2c-1 1-2-3-1-4 0-2 2 0 2 2zm54-11c-1 1-1 1 2 2h4c1-2 0-2-2-3-3-1-3-1-4 1zm28 3 1 2 1-2-1-3-1 3zm-336 3-3 2-1 1 1 1 2-1 4-1 2-2-1-1-2-1-2 2zm54 0-1 2c0 3 2 2 3-1 0-2-1-3-2-1zm27 4c-3 3-7 13-6 14s5-2 5-3l2-3 1-4 1-2 1-3c0-3-1-3-4 1zm157 0-4 2h-3c0 1 2 7 4 9l1 2 2 3 3 4c2 2 7 4 11 4 2 0 1-3-1-6l-5-8-3-5-2-5-1-3-2 2zm3 8c3 5 1 7-3 2-2-2-3-5-1-6 1-1 2 0 4 4zm-190-6v5c1 0 2-4 1-5h-1zm6 4-5 11c-1 2-1 2 1 2s5-4 7-9l1-3c1-1 0-3-1-3l-3 2zm258 1c-1 2-1 2 1 3h4c1-1 1-2-1-3-3-2-4-3-4 0zm-252 3-2 5c-2 4-3 8-1 8l5-5c3-4 3-4 1-6l-2-3c-1-1-1-1-1 1zm290 0v2c1 2 3 0 2-3-1-1-1-1-2 1zm-7 4-3 3h3c3 0 5-2 3-4l-3 1zm-242 2-4 3c-2 2-2 3-2 12l1 10 3-2c2-3 3-9 1-9-1-1 1-11 2-13 2-2 1-3-1-1zm216-1-3 1c-3 0-2 3 1 5 4 3 5 2 5-3-1-4-2-5-3-3zm-252 6-3 5-1 2v3l4-4c3-2 4-4 4-7 0-4-1-4-4 1zm289-3-1 3c1 1 2-1 2-3h-2zm-45 4 1 1 1-1-1-2-1 2zm-239 3-2 6-1 3c-2 0-3 4-2 5s6-4 6-6l1-3 1-8-3 3zm106 0c0 3 4 11 5 9 2-2 1-6-1-9-3-4-4-4-4 0zm-130 0-3 6-4 6-1 1-2 2v3c1 2 0 6-2 9-2 1-2 2 0 3l1 3h2c3-1 4-2 4-6 0-2 1-3 2-3l1-3 1-4 1-4 2-4c2 0 3-4 1-4v-1c1-2 0-6-1-6l-2 2zm-5 16-1 2-2-2 2-1 1 1zm111-14c2 3 2 4 1 6-1 3-3 3-4 0l-2-4c-2-2-3-2-2 1l2 5 1 5v3c1 0 4 7 3 8s-1 1-2-1c-3-4-3 0 0 4 3 5 4 11 3 14l-3 1c-3 0-2 3 1 4l3-2c2-4 4-17 3-20l-1-7-1-4v-4l2 2c2 2 5 3 5 1l-1-2c-2-1-2-2-1-3l-1-5-2-5-3-1h-3l2 4zm103 0 1 4 1-1c0-2 2-1 3 2l1 5c2 3 2 13 0 14-1 2-1 5 1 7l1 4 4 9c3 4 4 6 3 8l1 3 1 2 3 4 4 5 1 2c2 0 4-1 4-3 0-3 2-1 4 4l2 5c0 1 7 10 10 12 4 4 6 1 3-3l-2-4-1-3-2-3c0-2 0-2-1-1-3 2-5 0-3-2s2-5 1-6l-2 1c-2 1-2 1-3-1l-2-2-2-3-1-3-1 2c1 3 0 5-2 5l-1-2-1-4-2-5c0-3 0-4 2-4l1-1-1-1-2 1-1 1c-1 0-2-1-2-3l-1-4-2-4-2-7v-7c2-2 2-2 1-4l-2-3-2-4-1-5c0-2-4-7-6-7l-3-2-2-3v5zm24-1c0 1 3 7 4 6v-5c-1-3-3-4-4-1zm39 1 1 2v-3c-1-1-1-1-1 1zm9 1 1 1 1-1-1-2-1 2zm-5 5c-2 2-2 4-1 4l1-1 3-2 2-2c-1-2-3-1-5 1zm-269 4c-2 1-2 2-1 3 2 2 4 0 4-2 0-4-1-4-3-1zm259-1 2 3c3 1 3 0 0-3l-2-3v3zm-111 0c0 2 4 5 6 5l1-2c0-2-1-2-2-2l-3-1-1-1-1 1zm-11 1v5l1 6c0 2 1 3 3 3s2 0 1-1l-1-6c0-6-3-10-4-7zm85 0 1 3h2l-1-3h-2zm-60 3c0 2 1 3 2 3s1-5-1-6l-1 3zm-104 1c-2 1-1 10 1 11l1 4 1 5 1 3 2 5c3 6 2 10-1 10l-3-2-2-1c-2 0-2 0-2 3 1 4 4 9 6 9l2-5 3-4 2-4-1-5c-2 0-2-2-2-3 1-1 0-3-1-5l-2-7-1-3-2-4c0-5-1-8-2-7z"/><path d="m537 191 2 4 2 1v-4c-3-2-4-3-4-1zm-94 2c0 3 2 5 3 3l-2-5-1 2zm-111 2-2 4-1 4c0 3-3 9-6 13l-3 5-4 5-4 7-6 8c-3 3-4 5-3 5h5l3-4c3-2 5-3 6-7l4-7 6-11 4-6 1-4 2-7c1-4 2-7 0-8l-2 3zm132-1 1 2 2 3c0 3 3 9 4 10l2 2c0 2 1 3 2 3l4 4 3 3c1 0 2 2 0 2v3c2 2 7 4 7 3 2-1 1-3-1-4l-1-1c1 0 2-4 0-4s-4-5-3-6c1-2 0-18-1-18l-1 2-1 14-6-5c-4-4-5-6-5-8l-2-5c-3-2-3-2-4-1zm-199 0v1c2 1 4 0 4-1h-4zm296 4c0 2 0 3 2 3s3-3 1-5c-2-3-3-2-3 1zm-174-2c-2 4-2 5-1 5s2-2 2-5h-1zm104 0c-3 0-4 5-2 7l2 4c1 4 3 4 3-1l-1-4v-7l-2 1zm-40 1c0 3 2 8 3 8v-8c0-2-3-1-3 0zm181 0c-1 1 0 1 1 2l2 2 2 2c2 0 1-2-1-5-3-2-4-3-4-1zm-285 2-3 4-2 5-2 4-1 3-2 8c-4 6-4 8-1 7l2-4 1-3c2-1 4-5 5-9 1-6 4-11 5-12v-5l-2 2zm-7 0-1 3c0 2 0 2 1 1l1-3-1-1zm106 1-2 2c-1 2-2 17 0 18l2 4 6 15 4 9 4 10h-25c-3 0-4-1-2-3v-2c-2 0-3-3-1-3l3 1h4c1-2 2-3 1-7 0-5-3-7-3-3 0 3-2 5-4 6l-2 2c0 2-3 1-3-1l-2-1-1 1 2 2 1 1 2 2 1 1-2 1-3-1v2c0 2 0 2-3 1l-4-2-2-1 1 2c2 1 1 2-2 1-2 0-3 0-5 2l-3 3v3c1 1 1 0 2-1 0-2 1-2 4-2l6 2h2c0-2 2-2 11-2l11-1c1-1 1-1 1 1 0 3 3 4 7 1 3-2 9-1 10 2l3 5c2 1 4 5 5 8l6 6 2 2 2 3 6 7 3 4-3 1c-1 1-2 1-1 2l9-2-12-18-3-4-2-2-4-3-3-8-3-8c0-2-2-6-5-9l-1-3-4-11c-6-11-7-16-6-18 0-2 0-2-1-1-3 2-4 0-4-7 0-4 0-6 2-7l2-3c-1-2-3-1-4 1zm-74 2v2c1 1 2-1 1-2h-1zm183 1v4c1 0 2-3 1-4h-1zm9 2v3l2 4 2 3c3 0 3-4 0-7l-2-3h-2zm-186 1-1 6 1 6c2 0 2-1 2-3 0-3 1-4 2-4 1-1 1-1-1-4-1-2-3-3-3-1zm10 0v2l-2 2-2 4c0 4 1 6 4 6 2-1 4-10 2-13l-2-1zm-76 1c-2 1-1 4 1 4l2-1-3-3zm314 0c-1 1 0 1 1 1l2-1-2-1-1 1zm-258 3c-2 4-1 11 2 10l2-6v-6c-2-2-3-1-4 2zm94-1 1 1c2 2 1 5-2 4l-2 1c0 2 1 2 6 2l6-2-2-1-2-2-1-1-2-2c0-1-1-2-2 0zm47 0c-2 4-2 4-2 2-1-2-3-3-4-1l-3 2c-3 0-3 2 0 5l6 9 1 2 2-2c1-2 2-2 3-1l2 2c2 0 1-2-2-7-3-4-4-6-2-6 1 0 2-3 1-5 0-1-2-2-3 0zm48 2c0 3 2 5 2 3 1-1 0-5-1-5l-1 2zm-241 2 1 2h1l1-2-2-2-1 2zm112 0 1 2c1 1 2-2 1-3-1-2-2-1-2 1zm88 0 1 3 1 3 2 4v3l1 4c1 1 2 1 3-2s1-3-2-10c-4-7-5-8-6-5zm116 1 1 3 1-2-1-3-1 2zm-301 3-2 6-1 3c-1 0-2 1-2 3l-3 5-5 9c2 2 11-10 11-15l2-3 1-3 2-2c1-1 2-6 0-6l-3 3zm229 0c-1 1 0 3 1 3l1-2c0-2-1-3-2-1zm10 0c-1 2 0 6 1 6l1 3-1 3-1 2 1 1 1 3c0 2 0 3 2 3s2 0 2-7a46 46 0 0 0-3-12c-1-3-3-4-4-2zm-36 1 1 2c1 1 1 0 1-1l-1-2-1 1zm-43 1 2 3 2 4 1 2 1 1c0 2 2 3 3 2l-1-3c-1-1-2-3-1-4l-2-4c-3-2-5-3-5-1zm37 0c-1 1-1 3 1 6 3 3 4 2 1-3l-2-3zm-55 5-2 3 4 4c5 4 5 5 6 2 1-1-1-6-4-7l-1-3c0-2-2-2-3 1z"/><path d="M437 223c-1 1 0 8 2 10 3 4 5 2 3-4l-2-5c0-2-2-3-3-1zm30 2 2 1 1-1-1-2-2 2zm-107 2v5c1 2 1 2 1-2 0-5-1-6-2-3zm20 0 1 2c1 1 1 1 1-1s0-3-2-1zm184 0v5l1-3c0-3 0-4-1-2zm-199 2c0 1 3 6 5 6l2-4-3-2c-3-2-3-2-4-1zm162 2c0 2 1 3 2 3 2 1 1 4-1 7-3 4-4 10-2 12l1 5c1 7 2 3 3-5l1-10 2-3c0-2 1-3 2-3v6c-1 1-1 2 1 5 3 3 3 3 2 4-3 3 0 16 4 22 2 1 3 4 4 6l2 3c3 0 2-4 0-7l-3-4-1-3-1-3v-10l-1-4-2-6c-1-2-2-4-1-5 0-2 0-3-3-4l-5-5c-3-4-4-4-4-1zm-98 1h2l1-1-1-1-2 2z"/><path d="M504 231c-1 1-1 5 1 6l1 5c0 3-1 4-2 5-4 3-4 2-4-1l-1-4-3-6-4-4c-1 0-1 3 1 4l1 2 1 3 2 4 5 11 2-3v-3l1 3v3l-1 3c0 2 0 3 1 2l1-2c0-3 2-2 3 2v4c-2 0-1 2 3 4l3 2 2 4c2 2 3 3 6 3l4 1-2 2v1h1c2-2 4-1 4 2s0 3 4 2c2-1 2-1 1-2-2-2-1-3 3-3 4 1 4-1 1-3s-6-7-6-11c0-3-2-3-4-2v4l3 4 1 2c0 4-2 4-5 0-2-3-3-3-5-3h-1c3-2 3-10 1-13l-2-8 1-8c2-1 2-1 0-1h-3c-1 1 0 21 1 22v6c-1 1-5-5-5-8l-3-7c-3-5-3-7-3-13 0-5 0-8-2-10-1-2-2-3-3-1zm-101 3 1 4c0 3 3 2 3-2 1-4 1-5-2-5-2 0-2 0-2 3zm227-1 1 1 1-2-1-1-1 2zm-363 1-1 3c1 1 2-1 2-3h-2zm64 2c-2 1-1 2 1 2l2-2c0-1-2-2-3 0zm247 0c-1 1 0 3 2 3l1-2c-1-2-3-3-3-1zm-90 1-4 1c-3 0-3 1 1 4 5 6 6 7 6 11l1 5 2 3 2 4 2 3 1 3c2 2 2 3-3 5-2 0-3 2-3 3 0 2-1 2-3 0-1-1-1-1-1 1l1 2 1 2 2 4 2 4 1 4 2 2c1 2 2 1 2-3v-3l-2-2-2-3-1-1 1-2 1 1 1 1 2-1 1-2c1 0 2 1 2 3 0 3 1 5 4 5 1 0 0-7-2-9-2-3-3-10-1-11l-3-8-4-8-1-1c-2-2-5-10-5-14l-1-4-3 1zm12 43-1 2-1-2 1-3 1 3zm-165-38c0 4-2 4-4 1-3-3-4-2-5 1l-2 3c-2 1-3 2-3 5-1 5-2 5-4 2-2-2-4-1-2 2v3l-1 2 2 1h3c0 2 3 1 4-1s2-3 5-3c4 0 5-2 2-6-3-2-4-3-4 0-1 3-2 3-3 0 0-1 0-2 2-3l3-2h4c0 2 3 5 8 5 3 1 3 1 3-1s-1-3-3-1c-1 1-4 0-4-1l5-2c1 1 7-1 6-2l-2-1-5-2c-5-4-5-4-5 0z"/><path d="m474 242 2 2c1 0 2 3 0 3l-1 2 1 1c2 0 12 11 12 13l2 2 1 4 2 2 1 2 2 1 1-1-1-2c-1 0-2-1-2-3l-1-3-2-2-2-4-2-3c0-2-6-11-7-11l-1-2c-1-2-5-3-5-1zm141 4 1 2 1-2-1-2-1 2zm-169 2c0 3 1 3 3 2 3 0 2-3-1-4s-3-1-2 2zm178 0c-1 4-1 5 1 5v-5c-1-2-1-2-1 0zm-276 3 3 6 2-1c1-1 1-1-1-3-3-3-4-4-4-2zm9 3c-1 1-2 7-1 8 1 2 3-1 4-4 2-6 0-8-3-5zm-9 7v2c1 2 2 0 1-2s-1-2-1 0zm207 0 1 1 1-1-1-2-1 2zm57 0 1 1 1-1-1-2-1 2zm-436 5c1 2 5 2 5 1 0-2-1-2-3-2l-2 1zm136 0v1c2 1 3 0 1-1h-1zm50 1v4c3 3 5-1 3-4-1-2-2-2-3 0zm-36 3c0 2 0 3 2 3l6 3c3 3 3 3 3 1l-1-2v-6l-2 1-3 1c-2 0-2-1-2-2l-1-3c-1 0-2 1-2 4zm159-3 1 2c1 1 1 0 1-1l-1-2-1 1zm-254 2-2 2c-2 3 0 5 3 3 2-1 2-1 1-3-2-3-2-4-2-2zm-35 2 3 2c1-1-2-4-4-4l1 2zm122 0c-1 3 1 6 3 6l2 2 2 1-4-7v-2c1-2 1-2-1-2l-2 2zm294-1c1 2 4 2 4 0l-2-1-2 1zm-178 1c-1 1 1 3 3 3 3 0 4 9 1 14-1 3-1 3 2 6 2 3 4 4 5 4l-2-3-3-4c0-3 5-8 8-8s2-2-2-4l-3-4c0-2-1-3-3-3l-4-2-2 1zm-296 1v2c1 3 5 2 6-1 0-2 0-2-2-2l-4 1zm219 0-2 2-2 3-2 4c-2 1-3 6 0 7 2 1 3 0 3-3l2-2c2 0 3 2 0 3v3c1 1 2 0 4-1l2-4 2-3 1-3c0-2 2-1 3 1l1 2 12 12c0 2-3 3-6 2-3 0-3-1-3-3 1-3 1-3-2-3l-3-1v-1 4l1 11c0 5 1 7 2 8l1 2c0 4 2 5 3 2h4c3 2 3 2 4 0 2-1 9-2 11-1s7 0 7-2l-13-1c-5-1-6-2-3-4 2-2 5-3 5-1s3 2 4 1h2l5 1 5 1h2c2-2 13-1 14 0 1 2 4 3 4 1s-5-5-7-5a120 120 0 0 1-30-3c-5 0-5 0-5-4-1-4-1-4 1-5l2-1c0-2-5-5-9-7l-3-2c0-2-6-8-7-8l-4 3c-3 4-5 3-5-3l-1-2zm23 26c2 3 1 4-3 4-4-1-6-3-4-4h7zm0 8c2 4-2 6-6 4-2-1-2-1 1-4s4-3 5 0zm-6-34 2 2 1-1-2-2-1 1zm84 0c-1 2-1 2 1 2l2 1 1 1-1-3c-1-2-2-2-3-1zm25 0c-1 1-1 2 1 2l1-2c0-1-1-2-2 0zm92 1 1 2c1 1 1 0 1-1l-1-3-1 2zm101-1c-3 1-4 3-4 6s0 4 2 4 3-3 1-4c-2-2-1-4 1-4l3-2h-3zm55 0v2h2c1-3-1-4-2-2zm-515 1 2 1 3-1-2-1-3 1zm350 1-3 4-2 5c0 2 0 2 1 0l2-3c3 0 7-6 7-7-1-2-4-1-5 1zm-320 1-1 3c1 1 1 1 3-1l2-3c-1-1-2-1-4 1zm-83 1c-2 1-2 2-1 2 1 1 4-1 4-3s-1-1-3 1zm182-1c0 1 4 2 5 1l-2-1h-3zm-117 2c-1 1-1 2 1 2l1-2c0-1-1-2-2 0zm5 1 2 1c1 0 2 0 1-1l-2-1-1 1zm426 0c1 2 3 2 3 1l-2-2-1 1zm-150 3c2 3 4 3 2-1l-2-2c-2 0-2 0 0 3zm132 2c-3 3-2 3 2 2l3-3c0-3-3-2-5 1zm82-2 6 2v-1c-1-2-6-3-6-1zm-153 1c-2 0-3 1-3 2 0 2 1 2 4 2s4 0 4-2c0-3-1-3-5-2zm-274 2 2 2c1 0 1-2-1-3l-1 1zm32 2-1 2c1 1 4 0 4-2s-2-2-3 0zm124 0 3 3 2 1c0 2 7 10 9 10v-1l-2-3c-3-5-9-12-12-12v2zm-110 0c-1 1 2 5 3 5l1-1c1-2-4-6-4-4zm435 1v7l2-2c1-2 3-3 6-1l3 1c1-1-2-4-4-4l-4-1h-3z"/><path d="m392 289-2 2c-1 2-2 6 0 7l4 1h7c1-1 2 0 5 2l3 2 1-3c2-3 1-3-4-3s-7-3-5-5l4-1 1-1c0-1-3-2-6-1l-4-1c-1-1-3-1-4 1zm244 0 1 2 1-2-1-2-1 2zm-358 2 2 1c2-1 2-2 0-3l-2 1zm267 0 2 1c2-1 2-2 0-3l-2 1zm99 0c0 2 2 2 2 0l-1-1-1 1zm-41 2-4 4c-4 2-4 4 0 4 2-1 3-1 3 1h3v-4c-2-3 0-4 4-3 3 0 3-2 0-3-4-1-4-1-6 1zm-266 0-1 2h2c3-2 3-4-1-2zm15 2v4l1-2c0-3 2-2 3 1 0 3 2 3 2 0s-2-6-3-6l-3 3zm182 2c-1 3 0 5 1 5v-8l-1 3zm18-1c0 2 0 2 1 1v-2c-1-1-1-1-1 1zm-47 0c-1 1 1 4 3 4s1-4-1-5l-2 1zm35 0-1 4c0 4 3 4 4 0v-2l2 2 2 2v-3c0-2 0-3-2-3h-5zm-17 2 3 2c1-1 0-1-1-2h-2zm-105 1c-1 1 2 2 3 2l1-2h-4zm7 0c0 1 5 4 6 3l3 1 9 1 10 2 6 3c4 1 6 4 4 6l-10 1c-7 0-9 0-9 2l2 1 4 1c2 2 7 2 8 1l4-2c3-1 4-1 7 1h4c2-2 1-3-2-4l-3-3-1-4-1-3c-1-2-2-2-5-2l-6-1c-1-2-9-4-11-3h-5c-3-2-14-3-14-1zm88 1-1 2c0 2-3 3-5 2-3-1-7 1-7 3 0 5-9 6-10 2-1-2-4-2-6 0s-3 4-1 4l2-1 2-1c2 0 2 1 2 4s1 4 2 1l5-1 5 2v-6l4-2c1-1 3-2 4-1l3-2c2-3 6-3 9 1 2 2 2 2 3 1l-1-4-2-2-2-1-4-2-2 1zm272 1 2 2c1 0 1-2-1-3l-1 1zm-96 1c-1 1 0 4 2 5s9 0 9-1l-5-2-2-1c-1-2-3-2-4-1zm106 0 1 2v3c-1 2-1 2 1 2 1 0 2-1 2-3v-4h-4zm-436 2-2 4c-2 2-1 5 2 5l1-6v-5l-1 2zm235 0-5 1c-5 0-6 2-4 5 2 1 2 2 1 3v2l4 3c2 2 3 3 3 6s1 4 3 1l2-4c1-2 1-5-2-5-1 1-7-3-7-6-1-3 2-4 6-3 3 2 4 1 2 0l-1-3c0-2-2-3-2 0zm-116 1 2 1 2-1-2-1-2 1zm236 0c-2 2-1 5 1 5 1 0 2 1 2 3l1 4 1-4v-6c2-2-2-4-5-2zm-413 1 1 1 2-1-1-1-2 1z"/><path d="m473 308 2 3 1 3 2 2 2 1-2 4-2 5-3 4-2 4c1 1 7-4 8-6l3-5v-4l-1-3-3-4-2-4-2-2-1 2zm139 0-1 2c1 1 6-1 6-2-1-2-4-2-5 0zm-179 0c-1 1 3 3 5 2l2 1c1 2 2 2 7 2 10 0 13-2 4-3l-8-2c-3-1-10-2-10 0zm95 2 1 2 1-2-1-2c-1-1-1 0-1 2zm-403 2c-1 3 0 4 2 4l2-5c-1-2-3-1-4 1zm428-1 1 2c1 2 3 0 3-2h-4zm151 0c0 2 0 3 2 4 2 2 2 2 4 0l2-3c0-2 0-2-1-1l-2 2-3-2h-2zm-159 3c-1 2-1 2 2 2 2 0 2 0 2-2-1-2-4-2-4 0zm138 0c0 1-1 2-3 2-3 0-4 3-1 4 1 0 3 0 4-2 2-1 2-1 3 1l3 3c3 0 3 0 4-3l-1-3-4-2-3-2-2 2zm-278 0c-1 1 0 1 1 2l4 3c1 3 1 3 3 2h10l6 1c0 1-2 4-4 4v2l1 5 3 3v-1c-2-2-1-10 2-10v-2c-2-2-1-3 3-3 3 0 4-1 4-3s0-2-7-1l-7-1-4-1h-16zm291 0c0 2 4 5 6 5 1-1 2-3 0-5h-6zm30 0 1 2 1 3c-1 2-1 2 1 2 1 0 2-1 2-3l1-2 1-2h-1c-2 2-3 2-4 0h-2zm-214 2v2c2 1 3 0 3-1 0-3-2-3-3-1zm303-1 3 4c5 4 8 4 8 1s0-3-2-2c-1 1-2 1-4-1-3-3-5-4-5-2zm-415 2-1 2c1 2 0 3-3 3-4 2-4 3-1 3 2 0 3 1 3 2h2l4-2c3-1 4-3 1-6s-3-3-5-2zm253 1 2 1 1-1-1-1-2 1zm100 1-1 3c-1 1-1 3 1 3s3-2 2-3l-1-4c-1-1-1-1-1 1zm-253 1c-1 1-1 2 1 3 3 2 4 3 4 1l-1-1-1-2c0-3-1-3-3-1zm17-1c-2 1-3 5-2 6l5-6h-3zm198 0c-3 1-4 2-2 3 3 1 6 0 6-2s0-2-4-1zm-222 2c-2 1-3 4 0 4l1-2 2-2c2 0 2-1 1-1-1-1-3 0-4 1zm166-1 2 1 1-1-2-1-1 1zm-281 2c0 2-3 3-4 0-2-1-2-1-2 1s-1 2-2 2l-3 1c0 2 3 2 5 1 1-1 1-1 3 3 1 4 2 3 2-2v-4c2 0 5 5 5 7 0 3 3 4 4 1l1-3h4l-1-1-2-1-5-4c-4-2-5-2-5-1zm270 1c-2 1-1 2 4 3 4 0 4 0 4-2s-1-3-4-3l-4 2zm-285 0 2 2 1-1-2-2-1 1zm77 0 3 2c2 2 2 2 2 0s-1-3-3-3l-2 1zm26 0c-2 0-2 1 0 5 3 5 4 5 4 1 1-6 0-8-4-6zm227 0c-1 1 2 3 4 2l1-2c0-1-4-2-5 0zm-208 3c-1 3-1 6 1 7 1 1 1 1 2-1l1-3c1-2 1-3-1-4-2-2-2-2-3 0zm13-1c-1 2-1 3 1 3 2 1 2 2 2 5v3l3-3c2-4 2-6-1-5l-3-2c0-2-1-2-2-1zm118 0-3 2c-1 3-1 3 1 3l3-1c1-2 3-1 3 1 1 2 1 2 4 1s3-1 3-3l-3-1-4-2h-4zm53 0c-1 1 0 2 2 4 2 3 4 2 2-2-1-3-2-4-4-2zm48 0c-2 1-1 3 1 3l1-1c0-2-1-3-2-2zm15 1c0 2 0 2 1 1v-2c-1-1-1-1-1 1zm-372 0v6c0 2 5 3 6 1l-1-1-1-1c0-2-3-6-4-5zm77 0 1 3c4 7 4 10 1 13-2 2-3 4-1 4l4-3c3-3 4-6 2-8l-1-4-1-3-3-2c0-1-2-2-2 0zm271 1 2 1c2-1 2-2 0-3l-2 1zm-254 0c-2 1-3 5-1 6 2 2 4 0 4-4v-3l-3 1zm379 1c-1 1 1 2 2 2 2-1 1-4 0-4l-2 2zm-89 0c-1 1-1 2 1 2l1-1-2-1zm-332 1c1 2 4 2 4 1l-2-2-2 1zm79 0 2 2c1 0 1-2-1-3l-1 1zm232 0 1 1 2 2c1 1 1 2 3 2 2-1 3-3 0-3l-3-1c0-2-3-3-3-1zm102 2 1 2 1-1-1-2-1 1zm-759 2c0 2 0 2 1 0v-3l-1 3zm39 0c-1 3 0 4 2 3 2 0 3-4 2-5-1-2-3-1-4 2zm503-1-2 2c-2 0-13 13-13 15l-8 13-2 3-2 7-3 5-5 7c-3 4-5 6-4 7 0 2 0 2-3 2l-3 1-3 3c-2 0-3 2-3 3 0 4 4 2 11-3l7-6 3-4 3-3c2 0 2 0 1-1v-4l2-4 2-4 1-3 13-22 10-11c2-3 2-5 0-5l-2 2zm-202 0 2 1 1-1-1-1-2 1zm328 0 2 2 2 2-2 2c-2 2-3 2-7 2-5 0-7 2-3 3l2 1c1 1 4 2 10 2 9 1 10 1 13 4s3 3 1 6c-1 3-4 5-9 5l-3 1-1 2c-2 0-3 2-3 4 0 1 3 0 4-2 0-2 1-2 6-2l6-1 5-2c4 0 5-2 3-3l-2-4c0-2-1-4-4-7l-5-7c0-3-3-6-6-7l-4-1h-5zm10 7c3 2 2 4-3 4s-6-2-3-4 3-2 6 0zm-283-6c-3 2-2 4 1 3s4-1 2-3h-3zm33 1 1 1 1-1-1-2-1 1zm62 0c-1 3-1 3 1 3s2-1 2-2c0-3-1-4-3-1zm162 1c0 2 1 2 3 2 4 0 5-1 1-3-3-1-4-1-4 1zm-328 0c-2 1-1 2 1 2l2-1c-1-2-2-2-3-1zm291 0-2 2c-6 1-19 8-22 11-6 7-8 9-8 12v3l1 1 3-3c1-4 11-14 14-15a311 311 0 0 0 20-7 489 489 0 0 0 30 0c1-4-2-4-19-5l-17 1zm-284 1-1 3 3-2c3-2 2-3-2-1zm37 0c-1 1-1 4 1 5 1 1 1 1 1-2 0-4-1-5-2-3zm209 1c-3 2-2 3 4 2l5-1c0-2-6-3-9-1zm-355 0c-1 1 0 3 1 3l1-2c0-2-1-3-2-1zm162 3c-6 3-5 7 1 7 2 0 2-1 1-4l1-4 2 3c0 4 2 4 3 0l-1-4c-3-1-3-1-7 2zm37-2 3 1 2-1-2-1-3 1zm352 1-2 3 2 1c2 1 2 1 1 4-2 4-2 4 0 4l2-2c1-2 2-3 4-3 2-1 3-1 3-3s0-2-3 0l-3 1v-4c1-1 0-3-1-3l-3 2zm-737 1c0 2 0 2 1 1v-3l-1 2zm9 1-3 4-2 4v2c-2 2-1 3 1 3l4-4 3-5v-4c-2-4-3-4-3 0zm185-1-4 2-2 2c0 2 3 8 6 9l5 5 4 7 3 4 3 2 3 4 5 6 7 10 4 6 4 8 3 7 1 3 2 3 1 3 2 3 1 2 2 3 2 3 1 1 1 2 2 4 2 1v-5c1-3 1-4-1-7l-4-5c-5-3-10-14-7-14l1-2h-1l-2 2-3-8c0-2-2-5-5-8l-6-7-4-6-2-3-3-3-3-5-3-3-3-4-3-3-2-5v-1l-2-1 2-2 2 1 2 1c2 0 3-2 1-3l-2-2-1-2c-1 0-2-1-2-3 1-3 0-3-3-4-3 0-4 0-4 2zm119-1c-2 1-3 6-1 7s4-2 5-5c0-3-1-4-4-2zm53 2c0 2 1 3 3 1v-2c-2-3-3-2-3 1zm82 1v3c3 2 6 0 4-3-1-3-4-3-4 0zm-149 1v3c2 2 8 3 8 2l-2-1c-2 0-3-1-3-2 0-4-2-5-3-2zm64 1c-1 2 0 4 2 4 1 0 2-1 1-2 0-3-1-3-3-2zm179 1v3c1 1 1 1 3-1 1-2 1-4-1-4l-2 2zm-259 0h2c1-1 1-1-1-1s-2 0-1 1zm332 0 4 4c2 0 1-2-1-4h-3zm-434 4c-2 0-2 3 0 4l2-4h-2zm151 1c-1 1-1 2 1 2l1-2c0-1-1-2-2 0z"/><path d="M688 350c1 2 7 5 7 4 0-2-4-5-6-5l-1 1zm-332 2c0 3 1 5 2 4v-5c-2-2-2-2-2 1zm100 0 2 1c3-1 4-3 1-3-2 0-3 1-3 2zm257 0 2 2 1-2c0-1 0-2-2-2l-1 2zm-42 0-5 2-2 1-2 2-3 4c-3 5-2 6 1 6 2 0 3-1 3-3s3-4 4-2l-1 1c-2 1-2 2 0 5 1 1 2 2 5 2l6-1v-2l-5-1-4-1 4-1 4-1 9-5 1 1 2 2c3 2 2 3-2 3-5 0-8 1-7 3 1 1 9 0 11-1l5-1 5-4c2-3 0-4-7-3l-7-1-1-2-3-2c-2-1-6-2-11-1zm27 0c-2 0-1 3 2 4h9c0-2 0-3-4-4h-7zm39 0c-3 0-4 1-7 4-3 5-4 7-1 8 2 0 2 0 2-3v-3l3-2 2-2 2 2c2 2 2 2 5 1l4-3c5-1-3-3-10-2zm-208 1-3 3c1 3 3 4 4 1 0-1 1-2 3-2l2-2h-6zm190 0 2 3c4 2 4 1 1-2l-3-1zm-176 1v4c2 2 5 0 5-3 1-2 0-2-2-2l-3 1zm94 1-2 2 3 1c4 2 6 2 4 0l-1-3c1-2-1-2-4 0zm-23 1 1 4 1-2c0-3-1-4-2-2zm-579 2c0 3 1 4 2 2v-2h-2zm324 2c0 1 3 1 4-1l-2-1c-2 0-3 0-2 2zm164 3-2 3c0 1 4 2 6 1 1-1 2-2 1-4-2-2-3-2-5 0zm-493 2v5c2 0 4-4 3-6 0-2-3-1-3 1zm324 1 2 1 2-1-3-1-2 1zm179 2-2 3-3 1-4 1c-3 0-3 1-4 11 0 11 1 14 3 14s1 9-1 16l-3 7c-1 2-2 12-1 13 0 2 3-1 3-4l1-3 2-6 2-7 1-8 2-6 1-3 2-2 1-4c-1-4 5-17 8-19l1-4c0-1-1-2-5-2-3 0-4 1-4 2zm-3 9-2 2-2 1c0 2-2 1-3-1s5-4 6-2zm-1 12-4 7c-1 0-2-4-1-6s5-3 5-1zm116-21c-4 2-9 9-11 15-1 4-1 4 2 7l4 5 5 4c4 4 4 4 7 3l23-2c6 0 9 2 8 5l-8 1h-9c-2 0-1 2 3 6 2 3 4 4 8 5l4-1c0-1-3-2-4-1l-2-1c0-2 1-2 3-2l7-1 5-3c4-1 4-3-2-7-7-6-9-6-24-5-13 2-17 1-17-2l2-3 1-2-1-3-2-3c0-2 4-1 6 0l4 2 2 1c0 2 3 3 5 2s1-2-1-3c-3-1-4-2-2-4 1-1 1-1-1-1l-5-2-6-1c-4 0-4 0-3 2l-1 2-2 4c1 3 0 3-2 3s-3 0-3-2l1-4 2-4 3-5 4-3 4 3c4 3 6 4 7 2 1 0 0-2-2-3l-5-4c-1-2-3-2-7 0zm-265 3-5 3-5 1c-2 0-1 4 1 5l2 2 3 5 4 5 2 2 1 2 2 3 1 3 1 4v6l1 8c1 5 0 7-1 9-2 1-2 3-1 5 0 4 2 3 3-1l1-4c1 0 2-1 2-3 2-4 3-2 2 4 0 7-1 9-4 9l-2 2-2 2-2 1 1 1c3 0 5 10 3 17 0 1-1 2-2 1-2 0-3 2-1 3l1 6c0 6 2 7 4 2 1-3 2-4 0-6-1-3-1-4 1-4 4 0 5 1 4 6l1 5 13-5 5-1c4 0 6-1 7-4 1-2 5-3 7-1l4 1c2 0 2 0 2 2l-2 4-1 5c1 5 0 9-2 9s-2 1-1 3c1 1 2 1 3-1 2-2 2-1 2 1-1 3 0 4 2 5l4 2 1-5c0-4 1-6 2-7l1-2-3 1c-1 2-4 2-4 0l2-3c2-1 3-4 0-5v-2c2-1 1-7-1-8s-1-3 1-3 4-2 2-4c-1-1-3-1-10 1l-13 2-9 2-7 2c-3 1-3 1-3-3l-1-5c-1-1-1-1 1-1s2 0 2-3v-14c-2-3-2-8 0-6l5-1h12l9 1c8 0 10 1 7 5-2 3 0 4 6 5 5 0 6-1 7-2 2-3 1-4-2-2s-4 0-4-7c-1-6-1-7 1-9s2-3 2-12l-2-13c-2-6 0-8 7-4 3 2 5 2 12 1 8 0 8 0 8 2l-1 5c-2 2-2 8-3 17 0 12-1 15-2 18-3 4-2 6 3 6l6-2 18-2 17-1 2-2 1 14v14c2 2 3 1 4-3l1-4 1 5c1 6 0 11-2 11l-1-3c-1-3-1-4-3-3l-4-1c0-1-4-2-9-2l-12-2-13-1h-9l-1-3c0-2-1-3-2-3-2 0-2 5-1 7s2 4 1 6c0 4 1 5 6 4 1 0 2-1 1-2 0-2 3-3 13-2h9c3 0 4 1 1 2l-1 2c0 1 3 1 4-1l3-1 4 1 4 2c2 0 3 1 4 4l3 7 1 4 1 6 1 6c3 0 2 12 0 13v1c2 0 4-1 5-4 2-5 5-1 5 6l-2-1h-2l-1 5c1 4-1 5-5 1-2-3-2-3-4-1-1 2-1 3 2 3l4 2 10 5v-5l-1-5v-4l2 3c3 2 4 2 4 0l-1-3c-2-2-2-5 0-5l2-1c0-1-4-4-6-4l-1-4v-6c0-2-2-1-3 2l-2 3-4-18v-5l1-4 1 5 4 8h3c1-1 0-1-1-4-3-2-3-3-2-6 0-2 0-3-2-5v-2c2-2 2-5 1-9-2-3-2-12-1-14s0-2-1-4l-2-4c1-2-1-4-5-6-4-1-8-5-9-7-1-1-5 0-5 1l2 2c2 1 2 1-2 3-5 2-7 2-7-1 0-2 0-2-1-1-3 2-5 1-6-3-2-4-5-6-5-3s-3 3-5 1c-3-3-4-7-2-9l2-3 3-4c2-4 2-4 1-5v-2h3c3 3 8 2 5-2-1-1-1-1 1-3 2-1 2-1-1-2l-4-2v1l1 3c0 2 0 2-5 2-6-1-8-2-8-5l-3-3-4-1 5-1h6l5-1 11-1c9 0 16-1 17-3 0-3-4-5-6-3-1 1-4 2-13 1-9 0-11 0-10 2l-1 1a320 320 0 0 1-53 0c-3 1-3 3 1 4 4 2 2 3-5 3-6 0-9 2-3 3 3 0 4 2 2 3s-3 7-2 9c2 2 3 1 3-2-1-2-1-3 2-4l2-2c0-2 3-4 4-3v1c-2 2-2 5 1 5 3 1 9 11 9 15 0 3-4 9-6 7l1-2 1-2h-2l-2 2-1 4c-1 2-1 2-3 1v-5l-1-2c-1 0-2 1-2 3-1 4-3 5-8 1-3-2-3-2-5-1-1 2-1 2-1 0-1-2-1-2-2-1v3c1 2 1 2-1 2-3 0-9-6-9-9l-1-5-1-3-2-4-1-5v-6h-1c0 2-3 5-3 3l-1-3-5-11c1-2 3-2 5-1 1 2 2 2 3 1 1-2 5-1 5 1l-2 1c-2 0-3 1-5 3-2 3-1 4 1 1h3l4 2 4 3c3 2 5 2 3 0-2-3 4-6 11-6l6-1-2-4c-1-2-2-2-3-1-2 1-9 0-11-1h-2l-5-2-4-1c-1 1-4 0-6-1-4-2-4-2-3-4 2-2 2-2 1-4-2-2-4-1-4 1zm24 17c0 1-2 2-2 0-1-1 0-3 1-2l1 2zm32 2c0 1-3 3-5 2-2-2-1-3 2-3l3 1zm40 41-3 3c-5 2-7 1-5-3 1-3 1-3 4-2l4 2zm45 72-1 2-2-2 1-2 2 2zm-16-132v4c1 0 3-1 4-4s1-3-1-3l-3 3zm-470 0v1c2 1 3 0 3-1h-3z"/><path d="M459 374c0 3 3 7 4 5 1-1-2-7-3-7l-1 2zm-430 0c-2 1 0 4 3 4 2 0 2 0 0-2-2-3-2-3-3-2zm114 1 2 1 1-1-1-2-2 2zm178-1 4 2-1-2h-3zm83 0 2 2c3 1 5 0 4-2h-6zm10 1c0 1 3 4 4 3l-1-3c-1-1-3-2-3 0zm389 1c0 2-1 3-2 3l-1 2c1 2 3 1 3 0l2-2 1 2-1 1c-2 0-1 3 1 4l1 3 2 3 3 3 2 2c2-1 2-4 0-7l-3-4-2-2v-1l-1-4-2-3c-1-3-3-2-3 0zm-380 0c-1 1 0 3 2 3v-3h-2zm21 0-1 3c0 1 1 2 3 2 3 0 3 0 3-2s-1-3-2-3h-3zm261 0c-2 1-1 3 1 3l1-1c0-2-1-3-2-2zm-645 1c-1 1-1 2 1 2l1-2c0-1-1-2-2 0zm488 1 1 1c2-1 2-3 1-3l-2 2zm-238 1c0 2 6 8 7 8l-2-4-1-2-2-2h-2zm404 0-2 3c-1 2-1 2 1 2s3 0 2-3c0-3-1-4-1-2zm-204 2 2 2c2 1 2 1 2-1s-3-3-4-1zm-206 2c0 2 12 14 16 15 2 2 5 2 6 2 1-1 0-2-3-7-4-4-5-5-6-3l-2 1-7-8-2-1-2 1zm487 1 1 1 7 7 4 4c3 2 4 2 5 1 2-1-1-6-3-6l-5-3-4-3-2-1-1-2-2 2zm-646 1c-2 1-3 3-1 3l4-4c0-2-2-1-3 1zm533 0c-1 2 1 4 2 2v-2h-2zm-78 3-3 5-1 5-1 5-2 4-1 4c-2 2-2 4-1 4 2 0 6-5 9-10 2-6 3-8 1-8l-2-3c0-2 2-1 3 1l1 2c2-1 2-5 1-6l-2-3c0-3-2-3-3 0zm100-2c-2 0 0 2 2 2l2-1c-1-2-2-2-4-1zm-673 2c1 3 3 5 4 5 2-2 1-5-1-6-3-2-4-1-4 1zm62 0 1 3 2 2 7 1 8-2-7-1-8-3h-3zm-11 3c-3 2-4 5-1 5h3l2-4c3-4 0-5-4-1zm225-2c-1 1 2 7 4 8l1 2 2 1 1 1c0 3-3 2-7-2l-5-2v2l2 3 4 2 8 6c4 3 11 4 11 2l-8-9-8-9c0-2-5-6-5-5zm411 0c-1 1-1 1 1 1 2 1 4 1 4-1h-5zm-308 3 3 2 2-1-3-2-2 1zm99 0c-4 1-5 2-5 3l-2 2c-2 1-2 1-1 3h3c1-2 3-2 6-2s4 0 3-1l1-3 2-2h-7zm-486 1c-2 1-2 3 1 5 1 1 2 0 2-3v-3l-3 1zm776 0-2 2c-2 0-2 0 0 2 2 0 3 2 3 3 0 2 8 9 10 9l2-1-11-11-1-3-1-1zm-217 2c-1 1 1 2 2 1l-1-2-1 1zm176 0c-2 1-1 2 1 1l1-1h-2zm-31 1c-1 1 0 2 5 4 5 1 6 1 6-1s-1-2-3-2l-4-1h-4zm-631 2v2c1 2 2 2 4 1 3-1 3-3 0-3h-4zm9 1v4c2 2 1 3-3 3-5 1-5 3 0 3l6-2c3-3 4-4 1-4-2 0-1-2 2-3 2 0 3-2 0-2-2-2-5-1-6 1zm97-1 1 3c1 3 3 4 4 2 1-1 0-3-2-3l-2-1-1-1zm501 0c-1 1 2 2 3 2v-2h-4zm146 1 1 2 2-3c-1-2-3-1-3 1zm-327 1-1 3-1 2-2 9c-1 8-2 10-4 10-1 0-2 0-2-3-1-3-2-4-3-1-1 2 0 3 2 6l5 3c1 0 3-2 3-4l2-3v-4c-1-1 0-5 2-9 3-6 2-14-1-9zm88 4-2 5-3 4-5 8c-4 7-4 8 2 6 2-1 4-3 7-10 4-7 5-10 4-11l-2-4c-1-3-1-3-2 2zm134-2-3 1-3 1c0 2 5 3 6 1l2-2 1-1c0-2-2-2-3 0zm-655 1c-2 1-2 2-1 4 0 2 1 2 2 1l3-2v-4c-1-1-2 0-4 1zm41-1c-2 2-2 6-1 7 2 1 2 0 2-2l1-5c0-1-2-2-2 0zm54 0h3c1-1 0-1-2-1-4 0-4 0-1 1zm393 1c3 4 4 4 4 1 0-2-1-3-3-3h-3l2 2zm192 3c1 5 1 6-1 10l-3 8c0 3-1 5-3 3-1-1-1-4 1-9v-8c-1 3-2 3-5-1-2-3-5-4-5-2l3 4c2 2 3 3 3 5h-3c-3-3-4-2-3 4 0 6 2 9 3 6l2-1 1 2c-1 1 0 2 1 4 3 3 11 3 13 0 3-4 2-7-2-3-2 1-2 1-2-2l3-12 5 2c4 2 7 2 12 0l-1-1-2-4c0-4-3-5-4-1 0 2 0 2-2 1-1-2-2-2-3 0h-2l1-2c2 0 1-3-1-4l-3-2-2-1-1-1v5zm-748-1-3 3 2 1c3 1 6 0 7-2v-4c-2-2-3-1-6 2zm384-2v4c1 4 3 3 3-2 0-3-3-4-3-2z"/><path d="m776 403 1 2c1 1 1 1 1-1s0-3-2-1zm-482 2-4 1c-2 0-2 3 0 5 1 2 1 3-1 4l-1 3v2l-1 4-2 4v2l1 5c0 2 1 3 2 3 2 0 3-5 1-6s-2-4-1-4 3-2 4-5l3-6 1-5c0-3 2-5 3-3 2 2 2 11 1 12-2 0-1 4 1 4 3 0 4 3 2 5v8l3 7-1 3c-2 1-2 1-3-2 0-3-1-5-3-3-1 2 0 7 2 8 2 2 1 4-1 3-3-1-4 1-3 3v3l-1 1 1 2v3c0 1 0 2 3 5l4 4 3-2 2-4v-3c1-1 1-1 1 1s1 3 2 3l3 2c2 1 1-3-2-8l-3-5-4 3-3 4v-3l1-4 1-2c0-2 2-4 5-7l5-6c0-2-3-1-3 0l-3 2-1-10 1-12c1-1 1-2-1-2s-2-1-2-6 0-6-3-9c-3-4-6-5-9-2zm80-1-1 2-1 3c-1 3 2 3 4-1v-5l-2 1zm281 1c-2 3-2 4 3 4 2 0 3 0 3-2s-2-4-3-4l-3 2zm-472 2c-4 3-4 5 1 5 3-1 4-1 4-3 0-5-1-5-5-2zm-107 0c-4 3-7 18-4 19l2-2 3-8c4-9 4-13-1-9zm167 2 1 1 1-1-1-2-1 2zm466 0c-4 0-5 2-1 2l6 1c4 1 9 0 9-2-1-2-10-2-14-1zm-565 2c-1 3 0 4 2 3 2 0 3-2 1-4s-3-1-3 1zm-47 1v5l-1 7v20c-1 14-1 14 11 11 5-2 5-3 2-5-4-1-4-2-4 2l-2 3c-1-1-2-6-2-21v-22h-4zm-14 1 1 2c1 1 1 1 1-1s0-3-2-1zm177 1 1 1 1-1-1-2-1 1zm429-1-5 2c-2 1-2 2-1 4h3l3-1 3-2c2-1 2-1 4 1l2 4c0 1 4 2 7 0 4-2 4-3 0-3l-4-2-3-2-2-1h-7zm-418 1-14 10-4 4-8 7c0 2 3 1 9-4 12-8 26-22 17-17zm57 1c-2 1-2 3 1 3l2-4h-3zm-202 1c0 2 0 2 1 1v-2c-1-1-1-1-1 1zm254 1-1 3c1 0 3-1 3-3s-2-2-2 0zm349 0c-1 1-3 2-4 1l-5 1-6 2-2 2c0 2 6 2 8 0l5-2c4-1 8-3 8-5 0-1-1-1-4 1z"/><path d="M105 423v10l1 4v-20l-1 6zm226-5v5l2-1h1v1c-2 2-1 3 2 2 2 0 2 0 2 2s2 3 3 0l-3-5-4-4h-3zm-284 1v3c0 3 0 3-2 3-3-1-5 1-3 2h2l4-1c1 0 2 0 2-4l-1-4-2 1zm18 0 1 2c1 1 1 1 1-1s0-3-2-1zm105 1c-2 1 1 7 4 7 2 0 3-3 1-4-1 0-2-1-1-2 0-2-2-3-4-1zm-90 2c-4 11-6 16-5 17 2 0 5-3 6-6l1-3c1 0 3-8 2-10-2-2-3-1-4 2zm101 0c-1 1 2 5 5 6 6 3 10 8 10 11 0 4 4 7 8 5 2-2 3-4 1-6l-1-2c0-2-2-3-4-2-1 1-2 0-7-4l-7-6-1-1c0-2-3-3-4-1zm69 0-1 1 3-1h-2zm485 1c-2 2-2 3-1 4h3c1-2 2-1 3 2l2 5c1 1 1 5-1 5s-5-4-5-6v-3h-3c-2 3-3 7 0 7l1 2c0 3 4 6 8 6l4 1c1 2 2 1 4-1 3-3 3-7 0-8s-4-3-2-4v-4l-2 2c-3 5-4 0-1-8 0-2 0-2-2-1h-2c-2-2-5-1-6 1zm14 17-1 2-1-2c1-1 2-1 2 1zm-56-17 2 1h2l-2-2-2 1zm-244 4c0 3 0 4 3 2 2-1 3-3 0-4-2-1-2-1-3 2zm-204 0c-2 1-2 2-1 2l3-2c1-2 1-2-2 0zm460-1-1 1-3 1-3 2c-2 1-2 1-3-1l-1-2c-2 0-2 3-2 6 1 2 1 2 3 1 1-2 2-2 3-1l-1 3c-2 1-3 4-1 5l3-1c3-1 3-1 3-6v-4l3-2 1-3-1 1zm5 2 1 3 2 5c0 13 3 18 10 18 4 0 5 0 6-2 1-3 0-3-2-5-2-3-2-3-1-5 2-3 1-3-1-2-2 0-3 0-3-2l2-3c2-3 1-5-1-5-3 0-4 2-4 7l1 7c1 3 1 3 4 4s3 2 2 2h-7l-2-3-1-8-1-9-2-1c0-3-2-3-3-1zm-530 0c-1 2 0 3 1 1v-1h-2zm140 1c0 4 3 12 6 15l3 5h-2l-3-1c-1 0-1 3 1 4l1 2 3 4c3 3 3 3 5 2s3-1 5 2c3 3 5 4 5 1l-6-8c-5-5-6-6-6-8 1-3 0-4-2-6l-3-4c0-2-5-10-6-10l-1 2zm12 23-1 2-1-2c1-2 2-1 2 0zm252-23-2 2-1 2c1 1-1 8-2 8l-3 6h5c2 2 4 0 2-3-1-1-1-1 1-1 1 1 2 0 3-3 3-6 3-8 1-10-2-3-4-4-4-2zm57 0 2 1 1-1-1-2-2 2zm-600 1c-1 1 0 4 2 4l3-1c2-1 2-1 0-3h-5zm44 3c-3 6-2 9 1 12 2 2 2 2 4 1l2-4 2-5c2-3 0-5-2-3s-2 2-2 0l-1-3c0-3-2-2-4 2zm3 7-1 2v-5c1-2 2 0 1 3zm-25-7v6c1 4 2 2 2-4s-2-7-2-2zm114-1-3 3c-4 2-4 4 1 4 4 0 5 1 4 3 0 2 1 3 3 1h2v1c-2 2-1 3 1 3 1-1 2 0 2 1 0 2 2 4 3 4l1-1 2-3c2-1 3-3 1-3l-4-2c-3-2-3-3-2-5 1-3 1-3-1-4l-2 1c-1 4-4 3-6-1-1-3-2-3-2-2zm397 2c-2 3-3 6-1 6l3-3c3-4 1-6-2-3zm-368 1 3 1 4 1 4 2 4 2 2 1c2-1 1-3 0-3l-3-2-2-1-3-2-5-1c-3 0-4 0-4 2zm88 1-1 3-2 3c-2 1-2 2-2 4 1 3 0 4-1 6l-5 2c-3 0-3 1 0 4l3 2 1 1 2 2 1-3c-1-2 0-4 1-8l3-7 1-3 1-7-2 1zm490 0 3 1 2-1-2-2c-2 0-3 1-3 2zm-365 1c-1 1 2 2 4 2v-2h-4zm-314 2c-1 2 1 6 3 6l2-1v-2l-2-1-1-3c-1-1-2-1-2 1zm41 0 2 3c2 1 2 2 1 3v2h3c3-3 18 13 18 19 0 4-1 4-6 2l-10-2a1394 1394 0 0 1-21-1l-7 1-4 2c-1 1-1 1 1 3 2 1 2 2 2 4v3c2 1 6-1 6-3l2-2 1 2c-1 1 0 2 1 2 2 0 4-3 3-6l2-1 2 2c0 2 1 3 3 4h4l-2-2c0-2 6-5 8-4 2 0 1 2-1 2-2 1-2 1-1 2 2 1 5 1 6-1 2-2 5-1 5 1l4 2c5 0 10 3 13 8 2 5 6 9 10 10s4-2 0-5l-5-7c-2-5-6-9-9-10l-2-3v-4l-1-4-3-5c-2-3-2-4-1-5 1-2 0-3-2-3l-6-3-14-7c-3-1-3-1-2 1zm279-1 3 1 3-1-4-1-2 1zm280 1c-4 2-5 4-2 7 2 2 2 3 2 6-1 6-2 8-7 10-2 1-3 3-2 3l8-4 1-1c3 0 5-7 5-15l-1-7-4 1zm87 2c0 3 0 3 2 1l2-3-2-1c-2 0-2 1-2 3zm-336 1v2l1-1v-2l-1 1zm-411 1v2c1 1 1 1 1-1 0-3 0-4-1-1zm194 0c-1 1 0 2 2 5l4 6c0 2 2 4 3 2 0-3 1-2 3 1s3 3 3-2c-1-4-1-5-3-5s-3-1-3-2l-4-4c-3-3-4-3-5-2zm-178 0-1 3-1 6c-2 6-2 11-1 11l4-12 1-3c2-1 1-5-1-6l-1 1zm52 4 1 5 8-5c0-2-5-5-8-5-2 0-2 0-1 5zm163-2-4 3-1 1-5 2c-4 2-4 2-6 0l-2-2c-2 0-1 6 1 9 1 2 5 3 5 1l5-4c7-5 13-11 11-12l-4 2z"/><path d="M321 443v2h1c1-2-1-4-1-2zm294 1-1 2-2 2c-3 1-9 7-11 10l-4 5c-1 1-1 6 1 5l1-2a67 67 0 0 1 17-18c2-2 2-2 1-4h-2zm177 5-2 3c-2 0-2 0-1 2l2 4c0 3 2 5 3 3h3l2 1-3-4c-3-4-4-6-1-7 1-1 2-1 1-2-1-3-3-2-4 0zm-562 0-1 2c0 2-3 5-8 5-5 1-10 4-9 6h5l4 1c0 2 2 3 3 2v-4l3-1 1-1 3-1 9 3 4 2 3-1c0-2-1-2-2-2-2 1-12-7-12-10 0-2-2-3-3-1zm87 2-1 3v5l1 3c1 3 2 4 4 2h1v2c-2 2 0 4 1 2 2-2 3-1 3 1 1 2 2 3 4 3s2 1 2 3c0 1 1 2 4 2 4 1 4 1 3-2v-3l2 1 2 1c1 0 1-1-1-3s-3-2-5-1c-2 0-4 0-6-2-3-2-11-15-11-18l-2-2-1 3zm137-1 2 1c1 1 2 0 2-1l-2-1-2 1zm68 2c-1 1 1 2 2 2 2-1 1-4 0-4l-2 2zm248 1c-2 2-2 4 1 3l1-4c0-3 0-3-2 1z"/><path d="M744 456c-1 4-1 5 2 10l5 7c2 2 3 4 3 8l2 6c2 1 3 10 1 11l-1 3c0 2 4-1 6-5l3-5c1-1 2 4 1 6l-2 6c-2 4-2 5-1 6 2 2 4 1 4-3 1-4 3-4 2 1v9c0 4 0 4-5 4-3 1-4 1-5-1l-8-2-9-2-5-1-3-1-5-2-4-2-5-3-4-3-1-1c-2 0-4 2-4 4s0 2 1 1c2-3 4-2 4 1s0 3-3 3l-5-2-4-2h-3l-3-2h-3l-3-2-3-2c0-2-3-3-4-1h-2c-1-2-2-2-4-1-4 2-5 1-8-4l-2-4h3l6-1 1 3v1c0-2 4-1 4 1h2c1-1-2-5-6-6l-4-3c-2-2-2-2-4-1-4 3-5-2-1-7 2-5 3-6 1-6-3 0-5 3-7 8s-3 19 0 25l1 13c0 8 0 8-3 13l-6 5-3 3-3 4a183 183 0 0 0-12 16c-1 3 3 8 7 9 2 0 3 2 3 4 1 4-1 8-2 8-3 0-5-3-5-5 0-6-3-8-5-3-2 6-6 3-5-3 0-4 0-4-3-3-2 0-3 0-5-2-3-2-4-5-2-5l2-2 3-6 3-5 1-3 2-4 3-4c1 0 2-1 1-2l-1-5-3-6c-1-2-2-5-1-7l-1-3-1 2-1 2-1-4-2-7-2-3c0-2-5-6-7-6-1 0-2-1-2-3-1-3-5-6-6-4-1 3 1 7 3 7 2 1 4 4 2 5l-3-2-3-3c-1 0-3-3-3-6l-3-3c-2 0-4-2-5-4l-5-6c-3-2-3-3-4-9l1-7c2-2 5-9 4-9s-6 5-9 10-4 7-4 14c-1 4 0 9 1 13l1 5-3 2c-2 1-3 6-1 6 5 1 9 0 9-1 1-2 3-1 3 1l-1 2c-2 0-3 3-2 6l-1 2c-1 1-1 4 1 4l1-1c0-1 6-2 11-1 3 0 5 1 9 5l4 5c0 2 6 8 8 8 3 0 2-1-1-4l-4-7c-3-4-5-6-10-9l-5-4-10-14c-5-5-9-13-9-19 0-3 0-4 2-4s2 1 2 3l1 3 1 4c1 3 13 15 20 20 8 6 14 11 14 13l4 6c4 5 4 8 0 11l-2 2 3 1c3 1 4 5 2 6-3 1-14-6-17-10l-7-7c-4-3-5-3-9-3l-13-1c-2-1-2-1-3 2-1 4 0 6 2 4 2-1 7-1 8 1h1c1-2 8-2 11 0l2 4c0 3-3 3-4-1 0-3-2-4-2-1l-2 4c-3 3-3 3-5 2-3-3-4-2-4 1 1 3 0 4-2 8-1 3-2 5-1 7v3l2-3c1-3 3-4 5-1h3c1-2 4-3 4 0l2 1 1-1-1-2-2-2 7-13c2-1 4-1 5 1l6 6c2 0 3 2 3 2l2 3c1 1 1 2-1 4-1 2-4 3-4 1 0-1-2-1-4 1l-2 5c0 4 5 11 11 14 8 4 13 14 8 16l-2 1c0 2 5 6 8 6l4 3c3 3 3 3 4 1v-4c-2 0-2-2-1-4l1-4c0-3-1-3-3-3-2-1-3-1-2-3s6 1 7 4l3 2c2 0 1 2-1 5-3 2-2 4 3 8 3 4 4 4 5 3l-1-4c-3-4-4-6-3-8 2-2 4-3 4 0l3 1h3l4 1c3 0 3 0 3 4s2 4 5-1c1-4 3-4 4-1 0 3 0 3 4-1l3-4h-3c-2 1-5 0-6-1l-6-1c-5-1-7-4-7-11l-3-8-2-3-3-5c-5-5-5-7-1-9l3-4c2-3 2 0 1 3v5l3 2 2 2c1 3 5 6 8 6 2-1 1-4-1-5-1-1-1-1 1-3l9-11h5c3 0 4 1 4 3 0 1 1 3 2 2 3 0 3 0 2-2-2-1-2-2-1-3l3-1 2-2c2-2 2-2-1-5s-4-4-6-2c-2 1-3 1-6-1-4-1-4-1-4 1l2 1 1 1c0 2-3 5-5 5-1 0-3 1-3 3l-4 3-1 2-1 3-2 2h-2c-2-1-2-2-3-5l2-6 1-3c0-3 2-5 6-5 2 0 3-1 2-4 0-4 0-4 3-3 3 0 3 0 1-1s-4-9-1-10v-3c-2-1-3-6-1-6l2 2h5l4-1 3-2c1-3 3-2 4 2 1 3 2 5 4 5l1-3 1-2 4 3c0 2-7 12-9 12s-4-2-3-4c0-2 0-2-2-2l-2 2-1 3c-2 1 0 3 3 3l3 1 5 1c5 1 5 1 3-4 0-2 0-2 2-3 1 0 2-1 2-3s2-3 3 0c1 2 0 3-2 3l-1 3c0 3 1 4 3 1 2-1 5-1 5 2l1 3h3c3-2 3-6 0-7s-7-4-5-5c1-1 7 0 7 1l2 1 3 1 1 1c1 0 0-2-3-5l-2-3c0-2 3-3 3 0l4 2c3 1 3 2 3 3-1 2 0 3 2 5l2 2 2-2 2-4h2l3 4 3 2 2-2c2-2 5-3 6-1l3 1 5 1v10l2 3 1-1c2 0 2 0 0-1-2-2-1-6 1-7l2 2c2 5 4 6 9 5 4 0 4-1 4 9l-1 6c-3 1-1 3 1 1 3-2 4-1 4 3 0 2 0 4 2 5l2 3 2-3c2-2 2-2 4-1v3c0 3 3 6 6 6 2-1 2-1 1 1l-1 5c1 1 2 1 5-3 3-3 4-5 3-6v-4c2-5 0-7-8-7-6-1-7-1-8-4-1-2-2-2-4-2-2 1-2 0-2-4l1-6v-6l-2-9c0-4-1-5-3-6s-2-1-3 1c0 2-1 3-2 1-1-1 0-6 2-6l1-2-1-2c-3 0-3-3-2-4v-2l-1-2-1-4c-1-1-2-3-1-5 0-1 0-2-2-3l-2-2h-3c-2 0-2 0-2-5 1-5 0-7-1-7l-5-3c-2-2-3-4-3-7l-2-4c-2-1-3-6 0-7l1-2-1-1-2 2c0 1-1 1-3-1-2-1-2-1-2 4zm-73 44-1 2-1-2 1-1 1 1zm-52 2-1 2-1-2c1-2 2-1 2 0zm-24 6c0 2 0 2-1 1v-3l1 2zm136 8-2 1c-2 0-3-1-1-2 1-1 2-1 3 1zm46 10-1 5c-1 1-1 1-4-2l-5-3h-1c0-2 3-3 7-3 3 0 3 1 4 3zm-90 13c2 0 2 0 1 1-2 2-5 1-5 0 0-2 2-2 5-1zm-73 13c-1 2-3 3-3 0l2-2 1 2zm188 4 1 4c0 3 0 3-3 3l-3-2c-1-3 1-6 3-6l2 1zm-155 3c1 3 0 4-2 3-3-1-4-1-2-3 3-2 4-2 4 0zm9 14v11l-1 2-2-2-1-2v-12c2-2 4-1 4 3zm-18 12c0 2-3 4-5 4l-1-5c3-2 6-1 6 1zM178 453c-1 1 1 4 9 12l14 13c5 2 5 2 1-3l-22-23-2 1zm196 3c0 2 3 3 3 1 1-2 0-3-2-3l-1 2z"/><path d="M623 455c-2 1-1 2 1 2 3-1 4-3 1-3l-2 1zm-180 2c-2 3-2 4 0 5 2 3 3 2 3-1 1-3-1-6-3-4zm-165 1 1 2c3 1 0 4-4 5-5 0-10 2-10 4l-1 5c-2 3-1 3-10 0l-12-3-9-2c-2 0-3 0-4 2-3 2-2 2 8 4l10 2 3 1 8 3c6 3 8 2 9-2 0-3 3-6 8-9 3-1 5-3 5-4 1-2 3-3 4-1h2v-1l-2-2-5-5-1 1zm103 0-1 2 1 2c2 0 2-1 1-3 0-2-1-2-1-1zm235 0c-1 2 2 3 4 2l1-2h-5zm-89 2 1 3h2c2-1 2-2 1-3h-4zm235 1c1 2 4 2 7 1l-3-2c-4-1-4-1-4 1zm42 0c0 2 0 2 1 1v-2c-1-1-1-1-1 1zm-703 0v3c1 1 7 0 7-3 0-1-6-2-7 0zm575 1-6 2c-2 0-6 4-10 8l-8 11-1 4-1 6v9c0 3 2 5 4 3v-3c-2-1-2-2-1-3l3-8c1-11 11-24 15-22 2 1 3 1 4-1l5-3 3-3c0-2-2-2-7 0zm47 0-1 3c1 1 2-1 2-3h-2zm-390 2 1 1 1-1-1-2-1 2zm-39 0c-2 1-1 2 0 2l2-1c0-2-1-2-2-1zm312 2 2 1c2-1 3-3 0-3l-2 2zm-78 0-1 3c1 1 2-1 2-3h-2zm-420 1-1 3c0 2 2 3 4 0l3-1 1-1c-1-2-6-3-7-1zm512 1 1 2c1 1 1 0 1-1l-1-2-1 1zm12 0 4 4c2 0 2-2 0-3-2-2-4-2-4-1zm-517 3c-2 2-2 4 0 4s4-2 4-4c0-3-2-3-4 0zm676-1v3l2 2 1-2 1-3h-4zm-605 1 2 3c1 3 3 2 3 0l-1-2-2-1-2-1v1zm190 2c-3 3-2 6 1 4h4c1 1 1 1 1-1 0-4-3-6-6-3zm-58 0c-1 0-1 1 1 3l4 2v-3c-1-3-2-3-5-2zm156 2c0 4 1 6 3 6 3 0 3-2 0-3-1-1-1-1 1-3l2-3h-3c-3 0-3 0-3 3zm17 1c0 3 1 5 2 2v-2h-2zm-279 3v4h-1c-1 5 1 5 7 2 4-2 4-2 2-4l-2-3-3-2c-3 0-3 0-3 3zm253 0v2l2 1c2 0 2 0 2-3 0-2 0-3-2-3-1 0-2 1-2 3zm-310-1c-1 2-1 2 1 4 1 3 2 3 5 3l5 2c2 2 4 2 6 1 6-1 2-5-7-6l-6-3c-1-2-2-3-4-1zm37 1c0 2 0 2 1 1v-2c-1-1-1-1-1 1zm102-1-2 1-3 2c-2 2-2 2 0 3h3c2-2 5-1 5 1l-1 3 1 2 1-1 1-2 4-4 4-3 2 2 2 4c1 3 3 2 3-1 0-5-3-7-11-7h-9zm98 1c0 2-1 3-2 3l-1 5c0 6-1 6-3 4h-2l1 3v2c0 2-1 2-1 1h-4l2 2c3 1 2 2-2 3-3 1-3 2-3 4l-1 5-2 4c0 3-1 5-3 7l-3 4-3 4c-2 2-3 3-3 6 0 4 1 4 7 1l6-2c2 0 3-2 0-4-1-1-1-1 1-2l5-3 4-2c2 0 1 2-1 4-3 3-1 5 3 3l6-3 4-4 5-1c5 0 7-1 5-3-1-1-1-2 1-2 2-1 5 0 5 1 0 2 7 1 10 0l8-2c11 0 13 0 15 3l3 2 2-2 3-1 3-1c3-1 3-1 5 1s3 2 7 1l8 1c3 1 4 2 5 1h2l4 1c2 0 3 2 0 4-2 1-1 2 4 1 3 0 4-1 5-2 0-2 4-3 5 0s5 7 7 6l4 1 4 2 2 2 2 1 4 2 3 1 2 2c0 1 1 2 3 0l4-1c4-1 4-3-1-8-3-3-4-4-3-5v-3c-2-2-3 0-3 4 0 6-2 6-14 1-10-5-15-10-12-11 2-1-2-5-6-5l-7-2-9-2c-5 0-7-1-8-2l-4-12-2-8-1-3-2-3c-5-3-7 5-2 10l1 3c-1 1 0 4 1 8l1 6-4-1h-19l-1 2c-1 2-2 2-4 2h-3l2-1c4-2 4-3 1-3-3-1-4-3-1-5 2-3 1-4-3-6l-4-3-1-2c-2 0-5 5-4 6l1 2c0 3 0 3 1 0l2-2c2 1 2 4 1 5l-2 3c-1 2-2 2-3 2-1-1-2 0-3 1l-3 1-6 2-8 1-5 2-4 1-5 2-4 1-4 2c0 1-3 2-4 0-1-1 1-6 3-6l1-3c0-4 1-7 3-7s3-1 3-5l2-5 1-4 2-6c2-4 2-9 0-9l-2 2zm66 33c0 2-1 2-4 2l-5-1 3-1h3c1-2 3-1 3 0zm13 1c5 2 3 5-2 4l-2-4 1-2 3 2zm-49 2c0 2-3 3-5 1-3-1-1-2 2-2 2 0 3 1 3 2zm66 0 5 2c3 0 4 1 4 3l-1 3-10-5c-1-1-3-2-4-1l-7-2h13zm-96 10-1 1c-2 0-3-1-2-2 1-2 3-1 3 1zm399-47-1 3-1 3c-2 0-2 1-1 2 2 1 2 1 5-1 1-2 2-3 1-4-1-4-1-4-3-3zm-648 2 1 1 1-1-1-2-1 1z"/><path d="m278 479-13 11-1-1c-1-3-5-2-8 1-2 3-6 4-8 1h-4l-5 2-6 2-4 1-3 2-3 1-1 1c0 2-6 7-8 6-3-1 0-7 5-8 1-1 1-1-1-1l-6 3c-3 2-4 3-5 9l-2 8c0 2 3 1 4-2l3-2 6-3 12-8 9-5 3-1c2 0 3-1 3-2l2-1 1 1-1 2-4 3-7 6-7 5-6 3c-2 0-3 1-4 3-1 3-7 7-14 8-5 0-5 0-5-11l1-9c2-2 2-6 0-4h-4c-2 0-3 0-3 2l-1 6c-2 6-2 11 0 12l1 2c0 3 1 4 4 6 3 1 5 1 9-1l5-1c1 1 1 2-3 5l-4 5-3 3-4 2v-3c0-2-5-9-7-9l-1 2c-1 3 1 8 2 8l1 2c0 2 1 3 2 3 3 2 0 8-6 10l-3 6-1 13v12l1 3 1-2 2-6 2-7c0-5 2-9 3-6v10c0 5 1 6 5 9l8 3c4 0 4-2 1-3l-6-5c-4-5-6-13-3-17l1-3 4-7c2-4 4-5 5-5 3 1 2-1-1-3-2 0-3-2-3-3 0-2 8-9 10-9 3 0 5-3 4-5v-3h3l4-4c4-6 10-11 12-11 0 0 3-2 4-5 4-4 5-5 7-3h2l5-3 4-2 16-8 2-1 3-2c3-1 4-3 1-3s-3-2-2-3l1-2h-3zm-15 12c0 1-1 2-2 1l1-2 1 1zm-65 24c1 2-2 4-3 3s-1-4 1-4l1 1zm5 33-1 2c-1 1-2-1-2-2h3zm-5 8c1 2-1 5-3 5l-1-2c0-4 2-5 4-3zm435-77c-1 1 0 2 1 1v-2l-1 1zm217 1v4l3-4h-3zm-612 2c-1 1 0 1 2 1l2-1-2-1-2 1zm9 0c-2 1-1 4 1 4s3-2 2-4h-3zm235 2 2 5 2 3 1 3c1 0 0-9-2-12s-3-3-3 1zm-377 1-2 6-3 6c-1 1-1 1 2 2 2 0 3 0 4-2l3-2v-2c-2-2-2-5-1-7v-2c-2-1-2-1-3 1zm87-1c-2 1-1 3 1 3l2-1-3-2zm138 0c-1 1-1 2 1 3 2 2 3 2 4 0 0-3-3-4-5-3zm161 0 2 3c3 2 4 2 4 0 0-3-4-5-6-3zm138 0-1 2 3-2h-2zm-401 1 3 2 3-1-3-2-3 1zm114 0-1 4c-1 3-1 3 1 3 3 0 3 0 3-2s1-3 2-3l1-2h-6zm27 1c-3 3-2 5 4 5 2 0 2 0 2-3-1-4-3-5-6-2zm160-1v7c-2 2-1 3 2 3 2 0 3-2 0-4v-4c3-1 1-4-2-2zm-403 3c0 2 0 2 1 0v-3l-1 3zm17-1c2 3 4 4 4 2l2-3c1-1 1-1-3-1s-4 0-3 2zm-9 2c1 2 2 2 3 0l-1-2-2 2zm169-1 4 4 3 5h-3c-4-2-5-1-2 2l1 7v11l1 6-4 4c-8 8-14 12-16 11l-4 1-8 2-6 3-2 1 1 1h5c4-1 4-1 3 2 0 3 0 3-5 3l-6-2c-1 0-3 2-3 4l-1 2v-2l-2-2c-1-1-1 0-1 3s0 4-3 5l-2 2c1 2 5 1 7-1l3-2 3-1 2-1c2 0 2 0-2 4-2 3-5 5-6 5l-2 2c0 2 4 1 7-1 4-3 5-3 5 2l-1 7-2 5-1 3c2 0 8-4 8-6l3-1c2 1 3 1 4-2s0-5-3-3c-2 2-2 2-3 1-1-4 3-8 5-5 1 2 5 2 7 0h5l4 1c2 0 5-4 5-6-1-2-1-2 3-1 4 0 4 0 4-2l-2-3-2-3c0-2-1-2-3 1l-6 6c-3 1-3 1-6-2l-2-3c0-1-1-2-3-2-3-2-3-6 0-9 4-2 6-1 6 3 0 2 0 3 2 3 3 0 5-2 3-3-2-2-1-4 1-3 2 0 3-1 4-3l5-6 3-3 1-3 3-5c3-13 4-15 3-21s-1-7 2-9l2-3c0-2-3-1-4 1-2 3-3 3-3 0l-3-3c-2-2-6-2-6-1zm-27 65c1 2-3 4-4 3s1-4 3-4l1 1zm11 7c0 4-1 5-2 3l-5-2-4-1 3-1 6-2c2 0 2 1 2 4zm66-69-2 5 2 2c2 1 2 1 4-1 2-1 3-7 1-7l-3-2c-1-1-1-1-2 3zm57-3-1 2h2l2-2h-3zm-235 2-2 3c-2 2-2 2 0 3l2 4 2 4c1 2 1 8-1 9l-1 3-1 4c-2 1-4 6-5 11 0 3 0 4 3 8s5 5 7 2v-3c-6-5-6-5-5-7 1-1 1-1 2 1 2 2 2 2 3 1l-1-4c-3-2-2-5 1-7 1 0 2-1 2-3l6-17c1-2 1-2-2-2-2 1-3 1-3-1l-1-3-2-4c-1-4-3-5-4-2zm567-1v1l2-1v-1l-2 1zm-544 2v3c0 1 5 2 7 1 3-1 2-2-1-2l-5-3c-1-1-1-1-1 1zm20 0c-1 1 2 2 3 2l1-2h-4zm6 0 2 1 1-1-1-1-2 1zm-68 1 1 1 3-1-2-1-2 1zm531 0 2 1c2 0 2 0 2 2v3h7l-3-3c-3-3-8-5-8-3zm54 1v3h2c2-2 2-2 0-3h-2zm-338 1c-2 1-3 5-1 5s5-4 5-5h-4zm-75 3c-2 3-2 4-1 5v4l1 2c1 0 4-5 3-6l1-2c2-1 1-5 0-5-1-1-3 0-4 2zm-160-1v1c2 1 3 0 1-1h-1zm-48 2c0 2 1 2 3 2 3 1 2-3-1-4-2 0-2 0-2 2zm39 3c0 4 1 5 3 2 2-2 2-2 0-4l-3-3v5zm-20 0 2 1c1 1 2 0 2-1 0-2 0-2-2-2l-2 2zm427 0 1 1 1-2-1-1-1 2z"/><path d="m290 502-4 2-3 2c0 1-1 2-3 2l-5 4-3 2-1 3c1 2 5 3 5 1l4-5 4-4 2-1c1 0 7-5 7-7s-3-1-3 0zm-13 1-4 2c-4 2-7 5-7 6 0 3 2 3 4 1 4-4 9-7 11-7l1-2c-1-2-2-2-5-1zm296 2-2 4c-3 2-2 6 0 7 3 2 8 1 8 0 0-2-1-2-4-2-2 0-3 0-3-2l3-1c3 0 6-3 5-5l-2-2h-2c-1-3-3-2-3 1zm-471 1c-2 1-1 3 1 3l1-2c0-2-1-3-2-1zm20 1-4 2c-2 0-2 0-1 1 1 2 8 0 8-2 2-3-1-4-3-1zm219 1c-2 2-2 3 0 2l2-2c0-2 0-2-2 0zm222 0c0 2 0 2 1 1v-3l-1 2zm-316 3-4 3-2 2-2 2-2 2h2l4-3 2-2c0-1 3-1 3 1 1 1 4 2 4 0l-2-2c-3 0-3-2 0-3l2-1c-1-2-3-2-5 1zm155-2c-1 1 3 2 4 1v-1h-4zm249 1c0 2 0 2 2 1l2-2-2-1-2 2zm192-1c-1 1 0 2 1 1v-2l-1 1zm-708 3v2c1 1 2-1 1-2h-1zm546 1c0 2 0 2 1 1l4-1c2 0 2 0 1-1l-4-1-2 2zm-321 0c0 2 2 3 3 2 2-1 1-3-1-3l-2 1zm26 1-1 2h5c0-2-2-3-4-2zm-363 1 2 4c2 3 6 4 5 1l-1-2c0-1-3-4-5-4l-1 1zm93 0c1 2 3 2 3 1l-2-2-1 1zm417 1 2 1 2-1-2-1-2 1zm5 0 2 1 1-1-1-1-2 1zm118 1-2 3-2 5-3 6c0 1 3 2 5 1l4-9 2-3v-3h-4zm178 4-4 6-3 4c-5 7-7 10-6 11l6-6 2-3 1-3 2-1 1-3 1-2c1 0 5-7 4-8l-4 5zm-740-3c1 2 3 2 3 1l-2-2-1 1zm41 1 2 1 3-1 2-1-3-1-4 2zm32 0 2 1c2-1 2-2 0-3l-2 1zm92-1 2 2 2-2-2-1-2 1zm-113 3 1 2 1-2-1-3-1 3zm-44 0c-1 1 1 3 2 2l1-2h-3z"/><path d="m241 522-2 3-2 1-1-3c0-3-1-3-5 1-2 3-2 3-1 4 2 2 6 9 6 12 0 2 3 1 4-1 0-2 2-4 4-5 5-3 5-5 2-6-2 0-3 0-4 2s-4 1-3-2l1-2 5-5c0-2-2-1-4 1zm199 0 1 1 1-1-1-2-1 2zm94-1c-1 2 2 4 3 2 1-1 1-3-1-3l-2 1zm257 3 1 3c1 0 2-4 1-5-1-3-2-2-2 2zm-225-2 2 2 3 2h4l-2-2-4-2h-3zm-206 3c0 2 0 2 3 1 2-1 2-3-1-3l-2 2zm-246 2v1h3l-3-1zm163 1h-9l-3 2c-2 0-2 1 0 4 2 1 2 1 5-1l4-2 3-1 3-1 4-2c0-2-6-1-7 1zm169-1c-3 2-2 3 1 2l2-2h-3zm13 2 2 2c3 0 2-2 0-3l-2 1zm270 0c-2 1-1 3 1 3 3 1 4-1 2-2-1-2-2-2-3-1zm59 1 2 3v-5l-2 2zm-209 1 1 1 1-2-1-1-1 2zm162 1c-3 2-3 7 0 7l2-1h3l3-2-3-1c-3 1-4-2-1-3l2-2c-1-1-3-1-6 2zm-645 0c-1 1 0 3 1 3v-4l-1 1zm609 0 1 3c-1 2-1 2 1 1 3-3 4-4 1-5s-4-1-3 1zm-618 1c-1 1-1 2 1 2l1-1c0-2-1-2-2-1zm56 1c-3 2-2 4 1 4 2 0 2 0 2-2 0-3-1-3-3-2zm6 0c0 2 4 6 5 5v-1l-2-3-1-2-2 1zm198 2c-2 4-3 5 0 5l3 2 1 1v-5c-2-2-1-4 1-5 3-1 3-1 0-1-2 0-3 1-5 3zm510 0c-2 3-2 6 1 6 2 0 3-5 1-7 0-1-1-1-2 1zm-603-1c-3 0-3 1-3 3 0 3 0 3 2 3l6-2c3 0 5-2 5-4h-10zm478 1 1 2c2 0 2-2 0-3-1-1-1-1-1 1zm-620 1 2 1 1-1-1-1-2 1zm50 0c-1 2 0 7 2 7l3 2 3 2c3-1 2-2 0-4-2-1-3-3-3-5l-3-3-3 1zm63 0-1 2-2 4c-2 3-4 11-3 12 1 2 5-3 5-8l2-5 1-3c0-2-1-3-2-2zm494 0c-2 2-3 7-1 7l1-3 1-3 1-1h-2zm-674 2c-1 1 0 2 1 1v-2l-1 1zm24 1c0 2 2 4 4 4s1-2-1-4h-3zm120 4c0 4 0 4 2 3v-4c-1-4-2-3-2 1zm27-2-1 2 3-2h-2zm486 1 1 2 1-3c-1-2-2-1-2 1zm62 0 1 1 4 3 3 2v-2l-3-2c-1-3-5-4-5-2zm-57 2 2 2 1-2c-1-2-3-3-3 0zm112-1c-1 1 0 3 1 3v-4l-1 1zm-723 1c-1 1 0 2 1 1v-2l-1 1zm224 0 2 1 1-1-1-1-2 1zm133 1 3 1 2-1-2-2c-2 0-3 1-3 2zm-320 2-2 3-2 1c-3 0-4 2-1 4 1 1 2 0 4-2s5-8 4-9l-3 3zm26-1h2l1-2h-1l-2 2zm183 0c-4 0-4 1-1 3s6 1 6-2c0-2-1-2-5-1zm-220 2 2 2c2 0 2 0 2-2l-2-2c-2 0-2 0-2 2zm236-1v3c0 3 4 2 4-1s-2-3-4-2zm-269 4 3 6 3 3 6 6-2-7-1-3c-1-2-2-2-3-1-3 0-3 0-3-4-1-5-3-5-3-1zm651-1c0 2 1 3 4 2 3 0 3-1 0-3-2-1-3-1-4 1zm9 0 1 2c1 1 1 1 1-1s0-3-2-1zm95 1c-3 2-2 4 2 3 1 0 2-1 2-3s-2-3-4 0zm-136 1v2h1v-2h-1zm-500 1-1 2-1 4c-2 3-2 5-1 11 1 9 4 12 11 12l6 1c2 2 5 0 5-3l2-1c1 0 2-2 0-2h-2c-1 3-9 3-14 0-4-3-4-3-4-9l2-8c2-5 1-10-3-7zm21 0-2 3-2 2c-1 1-1 3 1 3l5-3 6-3 2-1c0-2-7-2-10-1zm259 1-2 4c-1 2-1 2 1 2l4-2c2-1 2-2 0-4-1-2-2-2-3 0zm-245 0-4 2-2 2-5 4c-4 3-4 3-3 6 2 3 3 3 4 0 2-4 5-7 7-7l3-1 2-2 1-5-3 1zm444 0-2 1-3 2-6 2c-6 0-6 1-5 3h2l6-1c5 0 5 0 5 2-1 3-1 3 1 3s2 0 1-3c0-2 1-3 2-1h5c0-1-1-3-3-3l-2-2h5c2 2 3 1 3-2 1-1 0-2-4-2l-5 1zm48 1-3 3c-6 3-8 4-8 6s3 1 4-1l4-2 2-1 2-2c1-1 2-5 0-5l-1 2zm-615 0v3l4-2c0-1-2-2-4-1zm510 1c-1 1 0 2 1 1v-2l-1 1zm-243 1c-1 2 0 3 4 6l4 7 1 3 1 3 2 5 1 4c0 2 0 2 4 3l6 1c1 2 11 3 13 1 1-1 1-1 1 1s0 3 2 3c3 0 4-3 2-8-1-3-2-5-1-7l-2-6c-3-3-6-4-9-1-1 1-1 1-3-1-3-4-5-7-9-9l-5-3c-3-3-10-4-12-2zm20 13c3 5 5 14 3 16-3 1-9-5-9-11l-1-6c-4-6 2-5 7 1zm13 11c0 6-1 8-4 7-3 0-3-2-2-4l2-4 4-4v5zm-94-23 2 2c2 1 2 2 2 4s0 3 2 3c4 0 5-2 2-6s-8-6-8-3zm102 0c-1 2-1 2 2 3l3 3 2 4v1l-1 4c0 4 1 5 3 5 1 0 2 0 1-4l2-8 2-4-2-2-2-2v2c0 2 0 3-2 3l-2-2c0-4-4-5-6-3zm131 0c-1 2 0 3 2 3l1-2c0-2-1-3-3-1zm207 0-1 2 4-2h-3zm-589 1c-1 1 0 4 2 5h2c0-2-4-6-4-5zm390 0c-1 1 0 1 1 2h3c0-2-4-3-4-2zm209 0v2c1 2 1 2 2 1v-4l-2 1zm-70 0 2 2h1l-1-2h-2zm41 2 3 2c1-1-2-4-4-4l1 2zm-637 3c0 2 1 3 3 3s3 1 3 2c0 2 1 3 3 2 3-1 0-6-3-6l-3-2c-2-3-3-2-3 1zm336-1c0 2 0 3 2 4l2 3 1 2-1-10c-2-1-3-1-4 1zm213 0c0 1 2 1 3-1l-1-1-2 2zm80 0-2 3c0 2-2 3-4 3-6 2-5 3 1 4h5l2-6 1-6-3 2zm17 0 1 1 1-1-1-2-1 2zm90-1 4 5c1-1-1-6-3-6l-1 1zm-777 2h2l1-2h-1l-2 2zm741 0-1 3c1 1 2-1 2-3h-2zm-300 1 3 1c2 0 2 0 1-1h-4zm156 0c0 1-1 2-3 2l-2 1 3 2 4 4c2 2 2 2 3 1s2-2 5-1 3 1 1 1l-3 3c-1 3-1 4 1 4h7l3-1-1-2-1-2 1-2c2-2 1-5-1-5h-8c-6 1-8 0-7-4l-1-2-1 1zm30 0c-3 2-2 4 1 4s3 0 3 2 1 3 3 4c3 0 3 0 3-4 1-3 1-3-3-5-5-2-5-2-7-1zm89 1 2 2c2 0 2-3 0-4-2 0-2 0-2 2zm-465 1c-4 1-4 2 0 6 2 3 5 3 9 0l2-1-4-4-3-3-4 2zm516 3v3c1 0 3-2 3-4s-2-1-3 1zm-48 1 3 2c2 1 4 0 3-2h-6zm-547 3c-3 4-3 5 1 5h10l5-1-3-2-3-2-3-1-4-1-3 2zm-131 0 1 2c1 2 4 0 4-2-1-2-4-3-5 0zm412 1 2 2v-2c-1-3-2-2-2 0zm228 1c0 2 0 2 2 1l1-3c-2-2-3-1-3 2zm-622 1v2c2 1 5-1 4-3-1-1-3-1-4 1zm703-1c-1 2 0 3 1 1v-1h-1zm-137 1 3 3c3 2 3 3 2 5v3c1 1 2 1 4-2 3-3 3-3 1-5l-2-3-4-2-4 1zm43 1c-3 3-2 4 1 4s5-2 4-4c0-3-3-2-5 0zm39-1c-3 0-4 1-4 2l1 2 3-1 3-2 2-1h-5zm10 1 2 1c2 0 3-1 0-2-2-1-2-1-2 1zm36 0c0 1 2 4 3 3 2 0 1-1-1-3h-2zm16 1-2 2h3c2 0 3 0 3-2s-1-2-4 0zm-719 2c-1 4 0 5 4 4 3 0 3-2 0-4-2-3-4-2-4 0zm250-1c-1 1-1 2 1 2l1-1c0-2-1-2-2-1zm71 1 3 1 2-2-2-1c-2 0-3 0-3 2zm21-1 1 2c1 1 1 1 1-1s0-3-2-1zm67 0c-1 1 0 2 2 2l2-1c-1-2-3-2-4-1zm232 0v5l2-2c3-3 1-5-2-3zm55 1-2 3 5 3 3 1c0 1 1 2 3 2s2 0 1-2l-1-3-3-3c-2 0-3-1-3-2s-1-1-3 1zm-88 1-1 2h4c1-1-1-3-3-2zm-350 2 1 1c2-1 2-3 1-3l-2 2zm77-1 2 1 1-1-1-1-2 1zm323 0c-1 1 0 2 2 2l2-1c-1-2-3-2-4-1zm-600 3-4 3-1 1c0 2 4 1 7-2 3-2 3-3 2-4l-4 2zm511-2c-2 1-2 5-1 7h4c4 0 5-2 2-3l-2-3c0-2-1-2-3-1zm-461 4-5 3c-2 0-1 4 1 5s3 1 7-2l5-4-3-5-5 3zm68-1c-2 2-2 4-1 4 2 1 4-1 4-4 0-2-1-3-3 0zm444-1c-1 1 2 2 3 2v-2h-4zm32 0c0 1 2 2 3 1v-1h-3zm-237 2c0 2 1 3 3 1v-3l-3 2zm-171 2 1 1c3 0 3-2 1-2-2-1-2-1-2 1zm26-1-3 3-2 2-1 1c0 1-1 2-3 2l-4 4-2 4c-1 0-4 2-6 5l-4 6c-4 3-2 6 2 6l4 2h4c3-1 3-3 0-3-2 0-4-3-2-4h2c2 3 3 2 3 0l-2-3c-3 0-2-2 1-5 2-2 2-2 4-1 2 2 3 2 3 0l3-2 3-1-4-1c-4-1-4-1-3-4 1-2 7-3 7-1s3 1 4-1c1-1 2-3 1-4l1-3 2-2h-8zm346 0v3l-1 2c-2 0-7 4-8 7-1 2-4 3-4 0l-1-1c-3 0-2 3 0 4l5 1c2-1 3 0 3 2s0 2-3 3l-3 1h6c5 0 6-3 2-6s-4-4 0-4c3 1 4 1 7-2 5-4 5-8 2-8l-4-2h-1zm-1 9-1 2-1-1 1-2 1 1zm42-8 2 1c2-1 2-2 0-3l-2 1zm-183 1c-2 1-1 5 1 5 2 1 2 1 2-2s-2-5-3-3zm67 0-2 3c-2 2-1 3 1 2 2 0 3-4 2-5h-1zm110 1c-1 1-1 1 1 2 1 0 4-1 3-3-1-1-2-1-4 1zm40-1c-2 1-1 4 1 4s2-1 2-2c0-2-2-4-3-2zm-451 1c-2 1-1 2 1 2l2-1c0-2-2-3-3-1zm48 0h-3c-1 0-2 0-2 2l-2 2c-1 0-1 1 1 3l3 4c0 2 2 3 5 3l6-4c3-3 4-4 3-6 0-2-2-2-2 1 0 2-2 3-3 0s-5-6-6-5zm290 0-1 3c0 2 0 2 1 1h6c4 0 4 0 4 4 0 5-1 9-3 9l-2 1c-1 1 1 1 3 1 4 0 4 0 4-3l2-6c1-2 1-2-1-4l-3-5c0-2-2-3-3 0l-1 1-2-1c-1-2-2-2-4-1zm56 7c-1 3 0 5 1 3v-3l-1-3v3zm-9 2 1 4h3v-2l-2-1-1-2-1 1zm-61 2c-2 3-1 3 2 0 2-1 2-2 1-2l-3 2zm117-1 4 4v-4h-4zm-405 4-2 2c-2 0-4 2-3 4 1 3 8 0 8-4l2-2c1-2 1-3-2-3-2 0-3 1-3 3z"/><path d="M693 605c-2 2 0 4 4 4s4-1 1-3-5-2-5-1zm-577 1c0 2 1 4 2 2v-2h-2zm435 0 3 5 3 6 1 1c2 0 0-7-3-10l-4-2zm166 1-2 3c-1 2 0 2 3 1 4-2 4-5 1-5l-2 1zm-316 3-2 5c-2 2-2 2-1 3 3 2 7-6 6-10-1-2-3-1-3 2zm24-2 3 5 3 4 2 1 1-5-1-5-4-1-4 1zm176 0c-5 1-6 1-4 5 0 2 1 2 3 2 4 0 7-3 7-5 0-3-1-3-6-2zm-187 1-2 2c-3 1-9 15-7 20 0 2 0 3-2 5l-2 3c0 1 3 1 3-1l3-1c2 0 3-2 1-3l-1-5c0-4 0-4 3-5h4c2 0 3 0 3-3l3-2c1 0 3-4 2-5s-2-1-3 1c-2 1-2 1-2-1v-4c0-2-3-3-3-1zm-123 2v2h2l-1-2h-2zm500 2 4 2 3 2 4 1c0-2-4-5-8-6-5-1-6-1-3 1zm-15 0-1 3c-1 1-1 2 1 3 1 0 4-2 4-5 0-1-2-2-4-1zm-396 2c-1 3 0 4 2 4l1 1-1 2c-2 0-5 4-5 6 1 3 8 7 9 5l5-4c5-4 6-7 0-10l-6-2-2-2-2-2-1 2zm9 9c0 1-2 3-5 3-4 1-4 0-1-2s6-3 6-1zm218-9c-2 2-3 4-1 5 1 1 4-4 4-6l-3 1zm-389 2v2c1 1 6 0 6-1-1-2-6-2-6-1zm405 2-1 3-4 1-1 1c1 1 6-1 7-3 2-2 2-5 0-5l-1 3zm133-1 1 1 2-1c1-1 0-1-1-1l-2 1zm-458 2-4 7-3 5-1 2-1 5-2 7-1 3c-1 1-2 2-2 5l-2 7-1 5c1 1 0 4-1 5l-3 12a2474 2474 0 0 0 0 34l2 2c0 3 2 8 3 8 2 0 3-5 2-12l-1-11v-11c0-5 0-6 2-6s2 0 0-3v-11l1-2 1-5 1-7 2-6 2-6 2-6 1-7c7-14 8-16 5-16l-2 2zm332 0c-1 1-1 1 1 1l2-1-1-2-2 2zm-148 4 1 1 1-2-1-1-1 2zm-286 0 3 2 2-2-2-1-3 1zm226 1c-2 1-2 2-1 4v3l-1 1c0 2 6-2 7-5v-4c-2-1-3-1-5 1zm342 1v6c0 3 1 3 3 0l1-3-1-2c-1-2-2-3-3-1zm-151 2-2 3v2c2 0 5-3 5-5s-2-2-3 0zm160-1c-1 2 0 5 1 5 2-1 2-6 1-6l-3 1zm-537 3 2 1c2-1 2-2 0-3l-2 1z"/><path d="M413 629v2c2 0 4-1 3-2h-3zm310 0c0 1 3 2 4 1l1-1h-5zm11 0v1c1 1 3 0 3-1h-3zm-114 1-1 1-2 2c0 2 4 1 5-1v-3l-2 1zm-336 1-3 2c-4 0-5 3-3 6 1 1 1 1 4-1 3-1 4-2 4-5s0-4-2-2zm416 2v1l3-2-3 1zm-12 1-1 2h2c2-2 1-3-1-2zm-311 1c-1 1 0 3 1 3l1-2c0-2-1-3-2-1zm351 1c-1 2-1 4 2 4 2 0 2-2 1-4h-3zm-31 5 2 1 2-1-2-2-2 2zm-85 1c0 2 1 3 3 3s2 0 1-1l-2-3-1-1-1 2zm-184 0c-1 1 0 5 1 5 1 1 3 0 4-1l2-2-3-1-4-1zm40 5c-1 1-1 2 1 2l1-1c0-2-1-2-2-1zm-81 3c-1 1 0 1 1 1l2-1-1-1-2 1zm8 3c-1 2 1 3 4 1v-2c-2-1-3-1-4 1zm-120 2 1 2 1-2-1-2-1 2zm172 13v2h2l-1-2h-2zm-186 3 1 2 1-3-1-1-1 2zm324 1c-1 3 0 4 1 4v-6l-1 2zm-322 10 1 1 1-1-1-2-1 2zm-4 11h3l-2-1c-2 0-2 0-1 1zm2 23v4l3-4h-3zm10 4c2 1 1 5-1 6l-4 2c-1-1-8 7-8 9s2 3 4 4c3 2 3 2 4 0 0-2 10-7 16-8l3-1-3-2-3-1c-2 2-5 1-5 0l2-3c1-1 1-1-1-4l-4-3v1zm-6 14v1c-2 1-3 0-2-1h2z"/></svg>