<?xml version="1.0" standalone="no"?>
<!DOCTYPE svg PUBLIC "-//W3C//DTD SVG 20010904//EN"
 "http://www.w3.org/TR/2001/REC-SVG-20010904/DTD/svg10.dtd">
<svg version="1.0" xmlns="http://www.w3.org/2000/svg"
 width="700.000000pt" height="700.000000pt" viewBox="0 0 700.000000 700.000000"
 preserveAspectRatio="xMidYMid meet">
<metadata>
Created by potrace 1.14, written by Peter Selinger 2001-2017
</metadata>
<g transform="translate(0.000000,700.000000) scale(0.100000,-0.100000)"
fill="#000000" stroke="none">
<path d="M3249 6156 c-2 -2 -29 -6 -60 -9 -30 -4 -62 -8 -70 -11 -8 -3 -27 -7
-44 -9 -140 -21 -271 -81 -301 -139 -23 -44 -2 -101 73 -202 102 -139 124
-194 97 -248 -15 -29 -64 -68 -87 -68 -8 0 -29 30 -47 67 -42 84 -151 195
-235 240 -242 128 -540 88 -725 -97 -36 -36 -77 -85 -92 -110 -62 -107 -88
-255 -67 -377 8 -46 7 -64 -4 -86 -10 -19 -12 -40 -7 -67 17 -94 3 -156 -69
-305 -66 -136 -79 -174 -74 -229 7 -78 39 -125 183 -266 153 -150 175 -182
167 -244 -18 -133 -62 -205 -162 -261 -106 -60 -138 -111 -139 -225 -2 -160
64 -253 194 -276 14 -3 33 -7 42 -10 10 -3 30 -8 45 -10 15 -3 50 -17 77 -32
66 -36 99 -97 98 -180 0 -54 -38 -192 -77 -276 -55 -122 -86 -262 -71 -322 9
-34 90 -113 171 -166 76 -50 151 -71 227 -66 46 3 58 1 54 -9 -13 -34 -155
-337 -191 -407 -36 -73 -44 -81 -80 -91 -119 -35 -277 -141 -358 -241 -213
-261 -182 -587 80 -835 68 -65 220 -141 348 -174 406 -106 846 78 994 415 52
118 58 270 17 387 -14 41 -13 47 35 220 74 267 106 382 125 448 10 33 18 65
20 70 13 60 45 168 53 182 5 10 19 19 31 20 64 5 135 29 196 65 54 32 71 38
83 29 9 -6 33 -20 54 -31 54 -30 64 -57 44 -127 -8 -32 -13 -61 -11 -65 3 -5
20 -14 38 -22 26 -11 34 -22 43 -57 6 -24 20 -78 32 -119 69 -256 112 -437
127 -530 3 -19 6 -37 7 -40 0 -3 -5 -38 -12 -79 -52 -296 148 -588 485 -705
177 -62 340 -71 544 -31 63 12 163 50 233 88 232 128 363 327 362 552 -1 245
-155 459 -420 581 -72 33 -73 34 -139 140 -37 59 -63 110 -59 114 4 4 44 10
88 14 139 11 206 21 340 53 257 60 482 165 660 307 56 45 195 183 195 194 0 4
10 18 23 32 84 90 199 361 223 522 27 191 23 424 -10 603 -4 17 -8 41 -11 55
-2 14 -10 44 -16 67 l-12 43 46 47 c95 98 128 168 133 276 7 184 -137 412
-389 615 -134 107 -258 183 -348 214 -73 25 -79 10 -26 -59 25 -33 59 -86 75
-119 77 -154 76 -247 -6 -464 -77 -205 -65 -278 60 -372 29 -22 99 -62 155
-89 l102 -50 21 -56 c106 -285 113 -590 17 -844 -150 -397 -515 -685 -972
-764 -71 -13 -367 -13 -438 -1 l-67 11 -58 93 c-31 50 -86 138 -121 195 -34
56 -72 114 -82 130 -28 40 -13 34 69 -27 201 -150 372 -179 501 -86 85 62 123
208 68 256 -21 18 -32 21 -61 14 -53 -12 -118 -4 -172 21 -100 47 -207 185
-217 282 -5 45 22 93 60 108 58 22 104 13 185 -35 181 -110 359 -148 458 -98
48 25 81 91 79 157 -3 68 -43 193 -77 241 -37 50 -98 103 -237 201 -143 102
-192 171 -122 171 204 2 699 453 593 541 -32 27 -116 22 -251 -15 -153 -42
-224 -43 -268 -5 -19 18 -30 39 -33 66 -5 39 -4 42 87 130 93 91 200 222 253
311 17 27 30 51 31 54 0 3 12 30 27 60 65 136 74 289 25 386 -14 28 -32 54
-40 57 -23 9 -76 -24 -105 -64 -15 -21 -29 -39 -32 -39 -3 0 -6 28 -7 62 -9
264 -191 480 -458 545 -11 2 -60 6 -110 8 -81 4 -156 -6 -232 -30 -21 -7 -23
-4 -23 34 0 72 -43 142 -105 173 -74 37 -219 49 -320 26 -22 -6 -47 -11 -55
-13 -8 -2 -47 -14 -86 -28 -120 -42 -193 -97 -234 -176 -30 -60 -31 -123 -4
-251 4 -19 8 -57 8 -83 1 -51 -9 -63 -63 -79 -19 -6 -30 -1 -51 22 -28 30 -48
94 -74 235 -36 189 -45 223 -82 302 -37 79 -95 137 -146 147 -33 7 -132 8
-139 2z"/>
</g>
</svg>
