<svg xmlns="http://www.w3.org/2000/svg" viewBox="0 0 300 343"><title>Silos 126r-d1</title><path d="M277 5.2c0 3.7-2.2 11.3-4.2 15.1-2.8 5.2-18.5 23.5-25.2 29.4-13.7 12-23.9 19.7-31.5 23.8-2.8 1.6-5.1 3.2-5.1 3.6 0 .7-13.3 12.5-27.3 24.3-3.2 2.7-7.6 7.3-9.8 10.2-4.2 5.7-5.2 8.9-1.9 5.9 2.4-2.2 2.6-1.3.4 2-.9 1.4-1.2 2.5-.7 2.5 1.3 0 4.5-6.9 3.7-8.1-.3-.5 0-.8.8-.7.7.2 1.2-.5 1.2-1.4-.1-1 .3-1.6 1-1.5.6.1 1-.4.9-1-.2-.7.3-1.2 1-1 .6.1 1.1-.3 1-.9-.1-.7.7-2 1.9-3 1.2-1.1 1.8-1.3 1.4-.7-1.5 2.6 1 1.1 3.3-2 2.5-3.2 12.7-12.2 16.2-14.3 1-.6 1.6-1.4 1.2-1.7-.3-.4.8-1.2 2.5-1.8 1.8-.6 3-1.4 2.7-1.8-.7-1.2 4.5-5.6 11-9.2 6.6-3.7 21.6-15.4 20.8-16.2-.3-.3.8-1.2 2.4-2 3.4-1.8 14.5-13.3 19.7-20.5 2.8-3.9 4.1-5 5.1-4.2.6.5 1.5.7 1.9.3.8-.9-.9 3.8-2.5 6.8-.5 1.1-1.4 1.7-1.8 1.5-.5-.3-1.7.4-2.7 1.7l-1.9 2.2 2.3-1.9c1.2-1.1 2.2-1.6 2.2-1.2 0 1-5.9 9.7-7.9 11.7-.9.8-2.7 2.8-4.1 4.5-4.7 5.4-17.2 14.8-18 13.4-.6-.9-.9-.9-1.5 0-.4.6-.4 1.4-.1 1.7.7.8-1.3 3.3-2.6 3.3-.6 0-.4-.8.3-1.8 1.1-1.4 1-1.4-.8.2-1.3 1-2.1 2.2-1.8 2.6.2.4-1.4 1.7-3.6 3-2.3 1.2-7.8 5.5-12.3 9.4-4.5 3.9-12.1 10.2-16.9 14-4.8 3.8-8.7 7.3-8.7 7.8s-.5.6-1.2.2c-.6-.4-.8-.3-.5.3.8 1.3-1.7 3.6-2.7 2.6-.4-.4-.4.1 0 1.1.5 1.4.4 1.7-.5 1.2-.6-.4-1-.4-.9.1.2.4-.2.9-.7 1.1-1.7.6-4.5 3.4-4.5 4.6 0 .6.7.2 1.5-.8.8-1.1 1.5-1.5 1.5-.8 0 .6-.8 1.7-1.9 2.4-2.3 1.6-5.4 7.5-4.6 8.8.3.6.2 1-.2 1-.8 0-3.3 5.6-3.3 7.3 0 .4 1.8-.4 3.9-1.9 2.2-1.4 6.1-3.2 8.8-4l4.8-1.4-4.9.4c-2.8.2-6 1.2-7.7 2.5-1.6 1.2-2.9 1.8-2.9 1.4 0-1.2 2.8-5.3 5.8-8.6 1.4-1.5 2-2.7 1.3-2.7-1.5 0 6.7-10.7 13.2-17.2 2.6-2.6 5.3-4.8 5.9-4.8 1.2 0-.7 2.4-6.3 7.9-2 2-5.1 5.4-6.9 7.6-1.8 2.2 1.1-.4 6.4-5.9 5.3-5.4 9.3-10.2 9-10.7-.3-.5 0-.9.5-.9 2.1 0 2.6-.2 3.8-1.2.7-.6 1.1-1.4.8-1.8-.7-1.1 5-5.1 6-4.2.5.4.5.2.2-.4-.8-1.5 2.8-4.8 4.3-3.9.6.3.9.1.8-.6-.2-.6 2-2.9 4.7-5 5.2-4.1 7.7-5.1 5.4-2.2-1.3 1.5-1.2 1.5.6.6 2.3-1.3 6.2-5.3 5.1-5.3-1.4 0 5.4-5.2 7.1-5.4 1-.2 1.8-.9 1.8-1.7 0-.8.6-1.4 1.3-1.4 1.8 0 17.6-16.7 22.2-23.4 3.4-5 10-12 10-10.6 0 1.4-5.7 11.8-10.5 19-8.4 12.6-28.9 31.9-32.7 30.7-.5-.1-.7.2-.3.8.3.5.1 1.1-.4 1.1-.6.1-1.7.2-2.3.3-.7.1-1.2.8-1 1.4.1.8-.5 1.2-1.5 1-1-.2-1.7.2-1.6.9.2.7-.9 2-2.5 3-1.5 1-4.7 3.8-7.2 6.3s-8.5 8.2-13.4 12.5C190.9 121.1 189 122.9 189 124c0 .6.2 1 .5 1s5.5-4.8 11.6-10.8c10.4-10.1 16.3-14.8 10.9-8.6l-2.5 2.9 2.5-2c1.4-1.1 2.6-2.1 2.8-2.1.2-.1.4-.9.6-1.7.4-3.2 4-6.8 13.4-13.6 5.5-3.9 10.3-7.1 10.8-7.1 1.3 0-7.8 7.9-9.8 8.6-1.8.5-2.5 2.4-1 2.4 1.3 0 12.2-10.2 11.7-11-.3-.4 2-2.8 4.9-5.2 3-2.5 7.2-6.6 9.3-9.1 4.3-5.2 5.5-5.8 4.9-2.3-.3 1.7 0 2.3.7 2 1.4-.5 4.1-4.5 3-4.3-1.9.3-3.3-.2-3.3-1.2 0-.6.7-.9 1.5-.6.8.4 1.7.1 2.1-.5.4-.7.3-.8-.4-.4-2.2 1.3-1.2-.6 4.3-8.4 4.8-6.8 11.1-12.7 12.3-11.5.9.8-9.6 18.9-14.3 24.9-13.6 17-20.6 24.2-33.2 33.8-12.2 9.4-25.3 20.8-25.3 22 0 1.2 2.6-.6 5.2-3.7.9-1.1 2-1.7 2.4-1.2.4.4-.1 1.4-1.2 2.3-1.8 1.5-1.8 1.5.2.5 2.3-1.1 5.1-4.1 3.8-4.1-1.3 0 5.6-6.8 12.8-12.6 7.3-5.9 9.5-6.9 5.7-2.7l-2.4 2.8 2.7-2.4c1.6-1.4 2.6-2.6 2.3-2.9-.2-.2 1.8-2.2 4.5-4.3 2.7-2.1 5.3-4.6 5.9-5.6.9-1.5 1.2-1.6 2-.4.6 1 0 2.4-2.3 4.9-5.4 6.2-7.8 8.2-9 7.5-.6-.3-.8-.2-.3.2 1 1.1-3.3 5.6-4.6 4.8-.6-.3-.7-.1-.3.5.7 1.1-6.4 7.2-8.9 7.6-2 .3-2.8 1.3-3.2 3.8l-.3 2.2 2.2-2c1.3-1.2 3.1-2.7 4.1-3.5 1-.8 7-6.5 13.3-12.7 6.5-6.3 12-10.9 12.6-10.6.7.5.8.2.3-.5-.5-.8.8-2.9 3.5-5.6 2.3-2.4 3.9-4.8 3.6-5.4-.4-.6-.2-.9.6-.6.7.3 2.3-1 3.5-2.8 1.2-1.7 3.9-5.2 6-7.7 4.3-5.1 2-3.7-4.6 2.8-2.4 2.3-4.1 4.6-3.7 4.9.3.3-.4 1.1-1.7 1.8-1.2.6-2.1 1.9-2.1 2.8.1.9-.2 1.4-.7 1.1-.5-.3-1.2.2-1.6 1.1-.3 1-1.6 2.8-2.8 4.1-2 2.1-2.4 2.2-2.9.8-.4-1.1.8-3.2 3.6-6.4 2.4-2.5 6.7-7.4 9.6-10.8 3.2-3.7 7.2-7.1 10.2-8.6 2.8-1.4 5-2.3 5-1.9 0 .7-7.2 10.6-8.3 11.4-.5.3-.9 1-.9 1.5s-.4.8-.9.7c-.4-.2-2 1.7-3.5 4.2-1.4 2.5-2.9 4.5-3.3 4.5-.4 0-1.4 1.1-2.1 2.5-.7 1.4-2 2.5-2.7 2.5-.8 0-1.1.4-.8 1 .3.5.1 1-.4 1-.6 0-1.1.7-1.1 1.5s-.4 1.5-.8 1.5c-.5 0-4.9 3.9-9.8 8.7-5 4.9-11.7 11.1-15 14-3.2 2.8-9 8.1-12.8 11.7-3.7 3.6-7.7 6.8-8.7 7.1-1 .4-1.9 1-1.9 1.6 0 1.7 7.9-3.6 14.5-9.9 3.6-3.4 7-6 7.5-5.7.5.3 1.2 0 1.6-.6.4-.8.3-.9-.4-.5-1.8 1.1-1.4 0 .5-1.5 1.1-1 1.4-1 .9-.2-.4.7-.2 1.3.3 1.3.6 0 1.1-.4 1.1-.9s1.5-1.8 3.3-3c3.4-2.2 3-2.9-.6-1-2.1 1.1-2.1 1 .2-1.5 1.7-1.8 3.5-2.6 5.7-2.6 3.8 0 4 2.2.5 5.2-2.6 2-4.6 2.4-3.5.6.4-.7.3-.8-.5-.4-.6.4-.9 1.1-.6 1.6.6 1-3.5 4.1-4.5 3.5-.4-.3-1.4.3-2.1 1.2-1 1.2-1 1.4-.1.9.6-.4 1.2-.4 1.2.1-.1.4-1.9 2.1-4.2 3.6-15.1 10.5-23 15.7-23.7 15.7-.5 0-1.1.6-1.4 1.2-.2.7-.8-.5-1.2-2.7-.6-2.7-.4-4 .4-4.3.7-.2 2-1.2 2.9-2.2.9-.9 3-2.5 4.5-3.5s2.6-2.3 2.4-2.9c-.3-.6.3-2 1.2-3.1 1.6-2 1.6-2-.6-.1-1.3 1-2 2.2-1.8 2.6.3.4-.8 1.6-2.3 2.6-1.5.9-3.2 2.4-3.8 3.2-.7.9-1.6 1.2-2.5.7-.8-.5-1.1-.5-.7 0 1 1.1-1.2 3.6-2.4 2.9-.6-.4-.5.2.1 1.4 1.3 2.4 1.5 8.2.3 8.2-.5 0-1.3-1-1.9-2.3-.7-1.4-2-2.3-3.8-2.5-3.7-.3-5.1-1.2-3.4-2.3 1-.6.7-.9-1-.9s-2.2.4-1.7 1.6c.5 1.4 0 1.5-3.1 1.2-4.1-.5-6.6.7-11.5 5.5-3.8 3.9-5 2.6-1.2-1.4 4-4.2 8.5-6.8 13.6-7.9l4.3-.9-4.5.3c-7.7.5-13.6 5.1-20.4 15.5-3.2 5-6.1 9.1-6.6 9.1-1.2 0-5.6-3.9-4.5-4 1.6 0 9.3-7.7 10.9-10.8 2.3-4.5 5.9-17.5 5.7-20.7-.4-8-4.4-14.1-10.9-16.8-3.8-1.5-14.2-3.7-17.7-3.7-4.3 0-15.5 4.4-18.4 7.2-2.9 2.9-3.2 3.8-4.3 16-.3 2.6-.4 2.6-6.8-3.3-7.1-6.5-12.4-10.3-24-16.9-4.1-2.4-11.1-6.5-15.5-9.2-4.3-2.6-8.3-4.8-8.7-4.8-.9 0-13.5-7-22.3-12.4-13.2-8-24.9-23-28.6-36.4-1.2-4.2-2.5-8.6-3-9.7-.8-2-.8-2-.8 0-.1 1.1.4 3.6 1 5.5.5 1.9 1.4 7.2 1.8 11.7.9 8.7 4 16.6 8.8 22.3 3.1 3.7 2.5 3.8-3 .3-7-4.4-10.5-8.3-12.8-14.1-1.3-3.1-2.5-5-2.7-4.4-.2.7 1.7 5.6 4.3 10.9 5.3 10.9 14 21.9 20.9 26.5.6.4.8.9.6 1.1-.3.3-3.2-.9-6.5-2.4C15.5 88 3.7 78 2.8 75c-.3-.8-.9-1.2-1.3-.8-1 .9 2.1 5.7 5.2 8.1 1.3 1 4.8 5.1 7.8 9.2 3.1 4 8 9.8 11 12.8s5.5 5.7 5.5 6c0 .3-4.5-2.2-10-5.5-9.1-5.5-14.1-9.7-15.3-13-.2-.7-.8-1-1.2-.6-.9.8 4 8.8 5.4 8.8.5 0 3.4 3 6.6 6.7 3.1 3.8 8.7 9.4 12.3 12.6 6.9 6 22.4 16 30.2 19.7 4.4 2 4.4 2 1 1.5-12.1-1.9-27.7-6-34.6-9-3.3-1.4-7.8-4.5-10.1-6.8-4.3-4.1-5.7-4.1-2.7.1 2 2.9 7.9 6.7 14.7 9.3 2.8 1.1 7.2 3.5 9.7 5.3 2.5 1.7 6.1 4.1 8.1 5.3 4.5 2.6 27.3 11.8 31.7 12.8 2.2.4 3.7 1.6 4.7 3.6 1.6 3 6.1 5.9 9.2 5.9 1.5 0 1.8-.9 1.8-6s.4-6.3 2.7-8.7c5-4.9 14.4-3.4 23.1 3.8l3.7 3.1-3.4 4c-1.9 2.2-4.2 5.7-5.2 7.7-.9 2-2.7 5.2-4 7.2-2.4 3.8-2.8 5.9-2.6 12.1.2 3 1.1 4.7 4.2 7.8 2.3 2.3 3.5 4.2 2.9 4.6-.7.4-.8 2.3-.5 4.8.8 5.1.8 7.1 0 12.3-.5 3.5-.3 4.4 1.5 5.4 1.8 1.2 1.9 1.5.5 3-1.3 1.4-1.3 2.4-.5 5.6 1.4 4.8 1.4 29.7 0 38.3-.5 3.6-1.2 9-1.5 12-.6 6.2-4.9 29.6-5.9 32.2-.4 1.1-.3 1.8.4 1.8.6 0 1.1-.4 1.1-.8s1.6-.6 3.5-.4c3.9.5 4 .5 2.3 6.7-1.8 6.7-.3 7.8 10.3 7.6 8.1-.2 8.5-.1 18.6 4.9 11 5.5 13.8 5.9 13.8 2 0-1.9-1.5-3.3-8-7.1-4.4-2.6-10.2-6.1-12.8-7.9-6.6-4.3-7.1-3.1-.8 1.6 3.3 2.4 4.9 4.4 4.6 5.3-.4 1.1-.3 1.1.9.2 1.2-1 2.2-.9 4.8.6 4.2 2.3 5 3.4 3.6 5-1.3 1.7-2 1.6-4.4-.2-1.8-1.3-1.8-1.4.6-.8 1.4.3 2.2.3 1.9-.1-.4-.4-1.7-.8-3-1-1.3-.1-4.5-1.3-7.2-2.5-2.6-1.2-5.2-1.9-5.9-1.5-.7.4-.8.3-.4-.4s.2-1.2-.3-1.2c-.6 0-1.1-.7-1.1-1.5s.7-1.5 1.7-1.5c1.4 0 1.4-.2-.2-2-1-1.1-2.3-2-2.9-2-.6 0-.3.7.7 1.4 1 .8 1.4 1.7.9 2-.5.3-1.5-.6-2.2-1.9-1.1-2.1-2-2.5-5.4-2.4-3.4.2-3.6.3-1.1.6 3.6.6 5.7 2.1 4.8 3.6-.3.6-.1.7.5.3 1.1-.7 1.4-.3 1.6 2.6.1.6-.8 1.2-1.9 1.3-1.1.2-3.4.5-5.1.9-4.3.8-5.8-1.1-4.8-6.1.5-2.1.7-4.1.6-4.6-.3-.9 10.2-.9 11.2.1.4.4 6.7.7 13.9.7h13.2l.1 5.9c.1 3.7.6 6.1 1.5 6.7.7.4 4.7.5 8.9.2 6.7-.5 8.3-.2 15 2.4 10.7 4.3 12.8 4.7 15.6 2.8 1.3-.8 2.4-2.1 2.4-2.8 0-.6-3.5-2.7-7.8-4.6-12.9-5.7-20.9-10.8-22.1-14.3-1.7-4.9-5.1-29.3-5.1-36.9 0-4.4.4-6.9 1.1-6.9.8 0 .8-.4 0-1.4-2.2-2.6-2.6-6.1-2.6-23.2 0-14.9-.2-17.4-1.7-19.1-1.6-1.7-1.6-2.1-.3-3.4 1.9-1.9 3.5-11.1 3.5-20.9l.1-7.5 8.5-5.5c8.6-5.5 14.6-10.6 17.4-14.7 1.4-2.2 1.8-2.2 8.5-1.3 3.8.6 9.5.8 12.6.4 5.1-.6 5.8-.4 7.2 1.6 1.1 1.6 1.3 2.8.7 4.1-1.2 2.1-1.3 3.2-.2 2.6.4-.3.3 8.6-.1 19.6-.4 11.1-.6 23.2-.5 26.9.3 4.5 0 6.8-.7 6.8-1.2 0-4.5 3.3-6 5.9-.5.9-.4 1.2.3.7.7-.4 1.2-.4 1.2.1 0 .4-2.1 1.9-4.6 3.3-2.6 1.3-5.2 2.9-5.8 3.5-5.4 4.9-5.4 4.9.5-12.7 3.2-9.5 5.9-18.3 5.9-19.5 0-2.5 2-7.3 2.9-7.3.4 0 .8-1.5.9-3.3.2-1.7.7-4.6 1.2-6.2 3.5-11.7 4.1-16.1 2.7-20.5-.7-2-.6-2.2.3-1 1 1.3 1.1 1.2.6-.3-.3-1-.6-2.4-.6-3-.1-2.7-2.2 2.5-5.6 13.3-1.9 6.3-4.1 13.2-4.9 15.2-.8 2-2.8 9.2-4.5 15.9-1.7 6.7-4.4 15-5.9 18.4-1.6 3.5-4.1 10-5.6 14.6s-3.2 9.5-3.9 10.9c-1.4 2.7-2.2 16.7-1.1 19.9.5 1.6 1.1 1.8 2.7 1.2 1.9-.7 2.7.1 6.1 5 3.6 5.5 11 12.9 12.9 12.9 1.1 0-.1 4.7-2.5 9.3-1.1 2.2-2.5 3.6-3.2 3.3-2-.7-2.6 2.1-.8 3.5 1.2 1.1 1.6 1 2.4-.2.7-1.3 3.4-1.5 17.6-1.3 10.7.2 16.9.7 17.1 1.3.5 1.4 3.2 1.4 3.2.1 0-1.8-.5-2.5-1.9-2.5-.8 0-2.3-2.5-3.4-5.7l-2.1-5.8 8-8.2c5.5-5.8 8.6-8.3 10.3-8.3 1.8 0 2.7-.8 3.6-3.6 1.4-3.8 2.6-17.5 1.6-18.4-2-2-13.1-36.7-16.3-51-1.4-6.1-4.2-17.7-6.3-25.8l-3.9-14.8 2.7-2.2c2.1-1.8 2.7-3.3 3.1-8 .6-5.7.5-5.9-3.4-9.9-3.5-3.7-4.5-4.2-8.8-4.2-3.6-.1-5.8.6-8.8 2.5-2.1 1.4-7 3.3-10.9 4.3-3.8 1-9 2.6-11.4 3.7-2.8 1.2-6.5 1.9-10.5 1.9-6.9-.1-20.8-3.1-21.3-4.7-.4-1.1 10.2-11.8 15.9-16.3 3.3-2.5 8.3-3.5 13.2-2.6 3.9.8 7.9 4.3 7.2 6.3-.8 1.9.4 1.6 2.2-.8 1-1.1 5-3.1 9-4.5 8.9-3 17.7-7.4 21.6-10.8 14.9-13.1 27.7-25.2 28.1-26.5.3-.9 2.6-2.7 5.2-4.1 8.4-4.4 19.1-11.8 20.3-13.9 1.6-3 .3-2.6-4 1.3-6.3 5.7-17.8 11.8-29.4 15.8l-11.1 3.7 5.5-4.7c12.2-10.3 24.3-24.2 33.6-38.5 2.9-4.3 7-9.2 9.3-10.9 4-2.9 10.1-10.6 10.1-12.7 0-2.2-1.8-1-3 1.9-1.6 4-10.5 11.9-17.2 15.3-2.8 1.5-5.4 2.5-5.6 2.2-.2-.2.5-1.7 1.7-3.4 1.2-1.6 3.6-6 5.3-9.8 2.1-4.6 5.5-9.3 10.5-14.5 4-4.3 7.3-8.6 7.2-9.5 0-1.5-.3-1.3-1.7.7-4.3 6.3-17.5 18-20.2 18-1.7 0 5.9-13.6 9.5-17 5.9-5.7 10.6-15 7.5-15-.5 0-1 .7-1 1.7 0 2.7-5.5 10.4-12.5 17.3-3.6 3.5-6.5 6.1-6.5 5.7 0-.4.8-2.4 1.9-4.5 2.4-4.9 3.9-11.1 4.6-20 .4-4.7.2-7.2-.5-7.2-.5 0-1 1.5-1 3.2zm-3.4 20.5c-.4 1-.7 2-.6 2.2.1.2-.4.7-1.1 1.2-1.5.9-2.9.3-2.9-1.2 0-.6.5-.7 1-.4.6.3 1.5-.6 2-2.1.6-1.5 1.3-2.4 1.7-2.1.3.3.2 1.4-.1 2.4zM17.5 59c2.6 5.2 12.7 15.5 19.8 20.3 6.3 4.2 13.6 8.7 14.5 8.8.4 0 1.5.8 2.4 1.6 1 .9 1.8 1.3 1.8.9s.7 0 1.6.8c.8.9 2 1.4 2.5 1.1.5-.4.9-.2.9.3 0 .9 4.7 3.5 6.7 3.6.7.1 1.9 1 2.8 2.1.9 1.1 1.3 1.4.9.6-.9-1.7.5-1 5.6 2.8 1.9 1.4 3.7 2.6 4 2.6.3.1 3.1 1.6 6.3 3.5 3.3 1.9 7.4 4.4 9.3 5.5 1.8 1.1 4.2 2.7 5.2 3.6 1 .9 4.3 3.4 7.3 5.6 3 2.2 6.4 5.2 7.7 6.6 2.6 2.7 7.5 16 6.1 16.5-1 .4 0 3.2 1.3 3.2.5 0 .6-.5.2-1.2-.4-.7-.3-.8.4-.4 1.8 1.1 1.4 3.5-.5 3.2-1-.2-2.4-1.6-3.3-3.1-.9-1.6-2.2-3-3-3.2-.9-.3-.8 0 .3.7 2.3 1.5 2.3 3.4 0 2.2-1-.5-3.8-1.2-6.3-1.5-3.6-.5-4-.4-2.1.4 1.4.5 3.3 1.1 4.3 1.2.9.2 2.1.6 2.4 1 .4.4 1.5.7 2.5.7 2.2 0 4.1 3.3 3.2 5.6-.4 1.2-.2 1.5.8 1.2.8-.3 1.3-1.4 1.2-2.6-.2-1.4.3-1.9 1.4-1.8 2.6.4 2.6 2-.1 4.5l-2.4 2.2-2.5-2.3c-5-4.6-8.3-6.5-12-7.2-2.4-.4-3.5-1.1-3.1-1.8.4-.7.2-.8-.5-.4s-3 .9-5.2 1.1c-4.1.3-7.9 3.3-7.9 6.2 0 .7-.9 2.1-2 3-1.1 1-2 2.4-1.9 3.3 0 1 .3.9.8-.5.7-1.5.9-1.1.9 1.7 0 2.6-.5 3.8-1.4 3.8-2 0-5.5-4.1-6.1-7.3-.3-1.6-.9-2.4-1.3-1.8-.4.8-2.5.5-6.6-1-15.6-5.7-20.5-7.8-21.6-9.4-.4-.5-.8-.6-.8-.2 0 .8-2.5-.3-8.3-4-4.1-2.6-4.5-4.3-.6-2.2 1.3.7 3.7 1.4 5.4 1.5 10.2 1.1 18.6 2.9 16.9 3.6-1.3.6-1 .7.9.3 2.1-.4 2.7-.2 2.1.6-.4.7-.3.9.3.6.6-.4 3.7.4 6.8 1.8 3.5 1.6 5.5 2.1 5.3 1.3-.3-.7-4-2.7-8.3-4.4-4.3-1.7-8.3-3.8-8.9-4.6-1.1-1.5-1.7-1.8-3.7-1.8-.5 0-.7-.5-.3-1.2.5-.8.2-.9-.9-.5-1 .3-1.7.2-1.7-.3 0-.6-.6-1-1.3-1-.7 0-2.2-.8-3.3-1.9-1.1-1-3-2.2-4.2-2.5-1.2-.4-2.2-1.2-2.2-1.7s-.7-.9-1.5-.9-1.5-.5-1.5-1.1c0-.5-.4-.8-.9-.5-.5.4-2-.3-3.3-1.4-1.2-1.1-4.4-3.6-7-5.5-2.7-2-4.8-4-4.8-4.6 0-.6.5-.7 1.2-.3.7.5.8.3.4-.5-.5-.7-1.5-1-2.4-.6-.9.3-1.4.3-1 0 .3-.4-1-2.2-3-4.1l-3.7-3.5 3.2 1.5c1.7.9 3.5 2 3.8 2.6.3.5 1.5 1 2.6 1s1.7.4 1.4 1c-.3.6.1.7.9.4 1.5-.6 13.4 6.5 18.1 10.6 3.9 3.5 18.5 10.7 18.5 9.2 0-.4-1.5-1.3-3.2-2-4.9-1.8-19-11.1-18.4-12.1.3-.5-.2-.8-1.2-.7-.9 0-1.6-.4-1.5-1.1.2-.7-.3-1-1-.7-1.4.5-9.7-5.2-9.7-6.7 0-.6.5-.7 1.2-.3.6.4-2.4-2.8-6.7-7.2-4.3-4.3-8.5-8.8-9.4-9.8-1.4-1.8-1.2-1.7 1.9.2 1.9 1.2 3.4 2.6 3.3 3.2-.2.5.4.7 1.2.4 1.6-.6 4.9 1.4 5.3 3.3.4 2.1-1.4 1.5-3.1-1-.9-1.2-1.6-1.7-1.6-1-.1.6 3.2 4 7.3 7.5 10.5 9.1 11.6 9.9 11.6 8.9 0-.5-1.5-1.8-3.3-3-3.5-2.2-10.6-9.1-9.3-9.1.5 0 .3-.7-.4-1.4-1-1.3-.7-1.4 1.7-1.2 1.5.1 2.7.8 2.5 1.4-.1.7.4 1.1 1 1 .7-.2 1.2.2 1.1.9-.2.7.4 1 1.3.6.9-.3 1.4 0 1.2.8-.2.7.3 1.4 1 1.5.6.1 1.7.2 2.3.3.5 0 .8.5.4 1-.6 1 4.9 5.4 5.7 4.5.9-.8 9.8 5.2 9 6.1-.4.5-.1.5.6.1.6-.4 1.2-.2 1.2.3 0 .6.7 1.1 1.6 1.1 1.8 0 7.5 3.7 8.7 5.7.5.7 1.3 1.1 1.8.7 1.2-.7 18.5 8.1 21.4 10.9l2 1.9-2.5-.6-2.5-.7 2.5 1.5c1.4.8 2.8 1.2 3.2 1 .4-.3 1.8.2 3 1 3.8 2.4 14.3 4.2 17 2.8 2-1 1.9-1.1-1.4-.6-2.1.4-4.6.3-5.5-.2-2.3-1-2.9-1.1-5-1.3-1-.1-4.3-2-7.3-4.3s-10.8-6.8-17.3-10-11.5-6.2-11.2-6.8c.3-.5-.4-1.4-1.6-2-1.5-.8-1.9-.9-1.5-.1.4.6.4 1.1-.1 1.1-1.5 0-3.8-1.9-3.8-3.1 0-.7-1-1.3-2.2-1.4-2.6-.2-10.5-5.4-9.8-6.5.3-.4-.3-1.4-1.3-2.1-1.5-1.3-1.6-1.2-.3.3.7 1 1 1.8.6 1.8-1.4 0-7.7-5.2-7.1-5.8.3-.3 1.6.3 2.8 1.4l2.3 1.9-1.9-2.2c-1.8-2.2-1.8-2.2 1-2 1.7.1 2.9.8 2.9 1.6 0 .7 1.6 2.5 3.4 4 1.9 1.4 3.2 2 2.7 1.3-1-1.7.6-1.5 3 .4 1.6 1.3 1.6 1.5.2 1-2.8-.9-2.1 0 1.8 2.3 1.9 1.2 3.3 1.7 2.9 1.2-.3-.6.4-.9 1.5-.8 1.1.1 2 .6 2 1.1 0 .6.5.5 1.2-.2 1.4-1.4 1.8-1.1-6.2-4.7-3.5-1.7-9.3-5.1-12.7-7.7-3.5-2.6-6.3-4.5-6.3-4.2 0 .8-5.5-3.7-5.5-4.4-.1-1.6-1.7-3.2-2.7-2.6-.5.3-2.3-.7-4-2.2l-3.1-2.9 1.7 2.7c1 1.5 3.3 3.8 5.1 5.3 1.9 1.4 4.8 3.8 6.5 5.4 2.7 2.4 2.9 2.9 1.4 3.5-1.7.7-4.7-1.1-3.9-2.4.2-.4-.5-1.6-1.8-2.6l-2.2-1.9 1.9 2.2c1.1 1.3 1.5 2.3.9 2.3-1.2 0-6.3-5.3-6.3-6.6 0-1.3-4.7-5.4-5.3-4.7-.3.2-1.1-.5-1.7-1.8-.7-1.2-3.1-4.3-5.4-6.8-2.2-2.5-3.2-3.8-2-2.9 1.1 1 2.4 1.8 2.9 1.8.4 0 .1-.8-.6-1.8-1.3-1.6-1.2-1.6.6-.1 1.1.9 3.1 2 4.5 2.4 1.4.4 4.1 2.4 6.1 4.4 4.7 4.7 14.6 12.4 18.7 14.5 1.9 1 3 2.1 2.6 2.8-.4.7-.3.8.5.4.6-.4 2.6.3 4.3 1.6 1.8 1.3 7.9 4.6 13.6 7.4 5.6 2.7 10 5.3 9.7 5.6-.4.3.2.5 1.2.5.9-.1 1.8.3 1.8 1 0 .6.4 1.5.9 2s.6.3.2-.5c-1.2-2 1-1.4 7.7 2.3 5.7 3.1 11.6 8 11 9.1-.2.2 0 .4.5.5.4 0 1.4.6 2.2 1.3 2.2 2 8.7 2.9 9.6 1.5.4-.7.3-.9-.3-.6-2.4 1.5-11.5-3.2-11-5.6.1-.6-.2-1.1-.8-1.2-.5 0-2.6-1.2-4.5-2.6-1.9-1.5-5.5-3.7-8-4.9-2.5-1.3-4.7-2.5-5-2.9-.3-.3-.9-.7-1.5-.8-2.5-.4-12.3-6.2-11.7-6.9.4-.4.2-.4-.5 0-1.4.8-6.4-1.4-5.7-2.5.3-.5-.3-.6-1.2-.2-1.3.5-1.5.3-.9-.7.5-.9.4-1.1-.4-.6-1.2.8-4.5-.9-7.5-3.9-.9-.9-1.6-1.4-1.6-1.1 0 .3-2.3-.8-5-2.5-2.8-1.7-4.8-3.5-4.5-3.9.7-1.1-3.5-4.1-4.7-3.4-.4.3-.8 0-.8-.5 0-.6-.4-1-.8-.8-1.1.3-6.9-4.9-10.9-9.8-3.3-4-4.4-6.7-2-4.6.8.6 1.7.8 2.1.4.4-.4.5-.1.2.7-.4 1 1.5 3.3 5.1 6.5 3.2 2.7 5.4 4.4 5 3.7-1.1-1.6.2-1.5 2.2.2C40 85.2 49 90.3 49 89.7c0-.2-3.4-2.8-7.5-5.6-4.1-2.9-7.5-4.7-7.5-4 0 .6-1.2-.1-2.7-1.7-1.5-1.6-2.7-3.2-2.6-3.5.4-1.3-3.9-4.4-6-4.4-1.1 0-2.2-.6-2.5-1.4-.3-.9 0-1.1.9-.7.8.4.7.1-.2-.6-2.1-1.7-5.4-7.5-6.3-11.1-1-4.1.1-3.3 2.9 2.3zM232 77.5c-.7.8-1.8 1.5-2.4 1.5-.6 0-.2-.7.8-1.5 2.5-1.9 3.2-1.9 1.6 0zM42 90.6c0 .2-.9 0-2-.6s-2-1.3-2-1.6c0-.2.9 0 2 .6s2 1.3 2 1.6zm-7.5-.6c.3.5.1 1-.4 1-.6 0-1.1-.5-1.1-1 0-.6.2-1 .4-1 .3 0 .8.4 1.1 1zm-3.4 6.7c1.3 1.5 1.2 1.5-.8.4-2.4-1.2-2.9-2.1-1.4-2.1.5 0 1.5.7 2.2 1.7zM43.5 98c1 1.1 1.6 2 1.3 2-.3 0-1.3-.9-2.3-2-1-1.1-1.6-2-1.3-2 .3 0 1.3.9 2.3 2zm9.1 7.1c.4.8.1.8-1.4 0-1.2-.6-2.4-1.6-2.8-2.2-.4-.8-.1-.8 1.4 0 1.2.6 2.4 1.6 2.8 2.2zm202.9.2c-.8 1.3-3.4 3.8-5.8 5.5-2.3 1.7-7.3 6-11.2 9.6-3.8 3.6-7.6 6.6-8.3 6.6-.7 0-1.1.4-.8.9.8 1.2-10 8.5-11.3 7.7-.6-.4-1.1-.3-1.1.2s-.9 1.2-2 1.5c-2.8.7-2.5-.8.5-2.1 1.4-.6 2.5-1.6 2.5-2.2 0-.5.7-1 1.6-1 1.4 0 1.4.3.3 1.7-1.1 1.6-1.1 1.6.1.5.8-.7 1.5-1.8 1.5-2.4 0-.6.6-1.3 1.4-1.6.9-.3 1.1 0 .6.8-.5.9-.4 1.1.4.6.9-.6.9-1.1-.1-2.4-.9-1.2-1-1.4-.1-.8 1.4.8 1.3.8 9.4-6.1 10.7-9.2 12.4-10.6 14.7-12.1 1.2-.8 2.2-1.9 2.2-2.5 0-.5-.8-.3-1.8.6-2.3 2.1-2.9 2.1-2.9.2 0-.9 2.2-2.3 5.1-3.4 6.6-2.6 6.9-2.6 5.1.2zm-104.6.8c11.9 2.1 16 6 17 16.1.5 4.7.2 7.5-1.1 11.1-2.4 6.9-6.6 13.6-11.1 17.9-3.8 3.8-3.8 3.8-7 2.1-2.4-1.2-2.8-1.8-1.7-2.2 5.8-2.2 10.7-11.1 11.7-20.8.3-3.2 1-6.1 1.5-6.4.6-.3 1.1-2.2 1.3-4.2.4-4.7-1.3-6.1-6.9-5.5-2.4.3-5.1.1-5.9-.4-1.1-.5-2.9-.3-5.1.6-2.1.9-3.8 1.1-4.1.5-1.3-2-5.6-.8-9.4 2.6-4.5 4.1-5.3 7-3.4 11.6 1.8 4.3 1.9 8.9.4 11.8-1.7 3-.7 5.1 2.4 5.1 2.6 0 2.9.7 1.9 3.4-1.8 4.6-6.1-1.3-8.9-12.1-2-7.3-1.8-20.9.3-24.1 1.7-2.6 5.7-4.9 11.7-6.8 5.1-1.6 8.3-1.7 16.4-.3zm-104.3 2.1l1.9 2.1-2.7-1.8c-2.9-1.8-3.4-2.5-2-2.5.5 0 1.7 1 2.8 2.2zm13.7 1.2c.4 1 .1 1.3-.8.9-.8-.3-1.2-.9-.9-1.4.7-1.2 1.1-1.1 1.7.5zm173.7 4c0 .3-.4.8-1 1.1-.5.3-1 .1-1-.4 0-.6.5-1.1 1-1.1.6 0 1 .2 1 .4zm-77 4.8c0 .9-.3.9-1.1.1s-2-.8-4.3-.1c-6 2-5.4 3 1.6 2.6 3.7-.2 6.3-.1 5.8.2-.9.5-1.8 4.5-1.9 8.7-.1 2-.6 2.3-4.2 2.3s-4-.2-3.7-2.2c.3-2.4 2.8-3.8 2.8-1.5 0 1.6 2.4 3 3.4 2 .3-.4.6-1.5.6-2.6 0-1.6-.6-1.9-3.5-1.5-1.9.2-3.5 0-3.5-.4 0-.9 2.1-1.2 6-.9 2.4.1 2.4.1.5-1.4-1.1-.9-2.6-1.3-3.5-.9-.8.3-2.1.7-2.7.7-.9 0-1.3 2.4-1.3 8.7 0 7.9-.2 8.6-2 8.7-1.1.1-2-.3-2-.8 0-.6-.4-.8-.9-.5-.5.4-1.1 0-1.4-.6-.2-.7-.8-1-1.2-.6-.5.4.4 1.7 1.8 2.9 2.3 1.8 4 5.8 2 4.6-.5-.3-1.7-.1-2.8.4-1.5.6-1 .8 2.2.8 2.3.1 4.5-.3 4.8-.9.3-.6-.1-.7-.9-.4-1.1.4-1.6 0-1.6-1.5 0-1.2.6-2 1.3-1.9.8.2 1.3-1.3 1.5-4.2.3-4.5.3-4.5 4.1-4.6 3.8-.1 3.8-.1 3.1 3-1.2 5.6-4.2 10.7-7.1 12.1-3.2 1.7-9.5 2-10.4.5-.8-1.2-2.5-1.3-2.5-.1 0 .4 1.9 1.4 4.3 2 3.4 1 4.6 1.9 5.5 4.4 1.1 2.7 1 3.4-.5 4.4-1.9 1.4-4.5 1.6-9.1.7l-3.1-.6V143l-.1-16.9 2.9-1.4c2.4-1.2 3.5-1.2 6.5-.2 3.2 1.1 3.8 1.1 4.3-.1.3-.8.3-1.8-.1-2.1-.3-.4-.6-.1-.6.7 0 1-.3 1-1.5 0-1.5-1.2-5.3-1-8.7.5-1 .4-1.8.3-1.8-.2 0-1.5 4.7-3.3 8.5-3.3 1.9 0 3.5-.5 3.5-1 0-.6 1.1-1 2.4-1 1.3 0 2.9-.7 3.6-1.5 1.4-1.6 5-.4 5 1.7zm-18.2-1.3c1.1.7 1 .9-.3 1.4-.9.4-1.3.3-1-.3.3-.6.1-1-.4-1-.6 0-1.1.4-1.1.8s-1 .8-2.2.9c-2.2.2-2.2.1.2-1.2 3-1.7 3.1-1.7 4.8-.6zm20.6.7c.3.8.2 1.2-.4.9-.6-.3-1-1-1-1.6 0-1.4.7-1.1 1.4.7zm-14.4.6c0 .4-.6.8-1.4.8-.8 0-1.7-.4-2-.8-.2-.4.4-.8 1.5-.8 1 0 1.9.4 1.9.8zm-12 2.8c0 .5-.7 1-1.5 1s-1.5-.5-1.5-1c0-.6.7-1 1.5-1s1.5.4 1.5 1zm-2.4 2c1 0 1.4 1.2 1.4 4.1 0 2.5-.4 3.8-1 3.4-.6-.4-.9-1.4-.8-2.3.2-1.1-.5-1.8-2-2-1.2-.2-2-.8-1.6-1.3.3-.5 1-.6 1.6-.3.6.4.8-.2.4-1.7-.3-1.3-.3-1.8 0-1.2.3.7 1.2 1.3 2 1.3zm48.4 2c0 .5-.4 1-1 1-.5 0-1-.5-1-1 0-.6.5-1 1-1 .6 0 1 .4 1 1zm-47.1 43.1c.1 11.6.6 17.1 1.6 19.6 1.7 4 1.9 6.3.7 6.3-1.4 0-3.1-9.8-3.8-22-.3-6.3-.8-13.1-.9-15-.3-2.8.6-4.8 2.1-5 .1 0 .2 7.2.3 16.1zm91.7-14.2c-.3.5-1.6.7-2.9.5-2-.4-2-.4-.2.4 1.1.5 3.4 1.4 5 1.9 2.7.8 3 1.2 2.9 4.8-.1 2.2-1.2 6.9-2.5 10.4l-2.3 6.4-1.2-4.9c-.6-2.7-1.6-6.2-2.3-7.7-1.5-3.7-1.5-3.7 1.3-3.7 3.4 0 5.6-1 5.6-2.5 0-1.7-3.5-2.8-8.2-2.7-2.2.1-3.8-.3-3.8-.9 0-.6.7-.8 1.6-.5.8.3 1.3.2.9-.3-.6-1.1 1.1-1.9 4.3-2 1.3-.1 2.1.3 1.8.8zm6.1.6c1.3.9 2 2.2 1.6 3.1-.4 1.2-.8 1.1-2-.6-.8-1.1-2.1-2-2.9-2-.8 0-1.4-.5-1.4-1 0-1.5 2.2-1.2 4.7.5zm-74.1 7.1c2.1 5 1.7 7.1-1.6 9.6-1.9 1.4-2.7 2.5-2.1 3.1.6.6 1.9-.1 3.5-1.9 2.7-3.1 3.4-8.1 1.6-11.5-1-1.7-.9-1.8 1.5-.7 2.1 1 2.5 1.8 2.5 5.7 0 3.5-.5 5-2 6.1-2.6 1.8-2.6 3.4-.1 2 2.3-1.2 4.5-7.2 3.6-10-.6-1.8-.3-1.9 2.7-1.3 7.1 1.3 7.6 2.2 5.7 9.9-1.1 4.1-1.5 4.6-5.5 5.6-2.4.7-4.4 1.6-4.4 2 0 .4-.9.8-2.1.8-1.1 0-1.8-.4-1.5-.8.3-.5-.8-.7-2.3-.4-1.6.2-3.2-.1-3.6-.8-.5-.9-.1-1 1.6-.6 2.2.6 2.2.6-.2-.8-1.5-.9-3.2-2.9-3.7-4.6-.6-1.6-1.4-3-1.7-3-1 0 .6 4.3 2.4 6.4 1.3 1.6 1.3 1.8.1 1.4-2.1-.6-4.1-4.8-3.7-7.5.2-1.2 0-2-.4-1.7-.5.3-.9 1.9-.9 3.5 0 3.6 4.7 8.3 9.4 9.4 2.8.7 2.9.8.8 1.2-1.3.3-4.1-.3-6.3-1.1-4.6-1.9-4.9-1.9-4.9-.7 0 .5 1.5 1.3 3.3 1.7l3.2.7-3 1.2c-4.4 1.9-9.9 2.9-9.2 1.8.7-1.2 1.5-5.2 3.1-15.7.6-4.6 1.6-8.1 2.4-8.4.9-.3 1 .3.2 2.2-.6 1.7-.6 2.6 0 2.6.9 0 1.5-3 1.1-5.3-.1-.5.8-1.1 1.9-1.4 1.3-.3 1.9-1.1 1.6-1.9-.3-.8-.9-2.1-1.2-2.9-.5-1.2.3-1 3.1.6 2.1 1.3 4.3 3.7 5.1 5.5zm-27.9-4.8c-1 1-1.7 2.4-1.7 3 0 2.6-2.4 6-4.1 5.9-2.9-.2-2.3-1.7 2.3-6.4 4.2-4.2 6.7-6 3.5-2.5zm94.8 2.3c.3.4 1.3.6 2.3.3 1.4-.5 1.4-.4.2.4-.8.5-5 1.2-9.2 1.5-6.9.5-8.2.9-11.7 3.9-2.2 1.8-3.8 3.5-3.5 3.7.2.3.9 0 1.6-.7.8-.8 1.8-.8 3.7.2 1.4.7 4.2 1.6 6.3 2 4.7.9 5.9 3.4 1.5 3.2-1.8-.1-3.9-.6-4.6-1-1-.6-1.2-.5-.7.2.8 1.4-5.1 1.6-12.6.6l-4.5-.6.8-3.6c.4-2 .7-4 .6-4.5-.1-.5.4-1.2 1.2-1.5.9-.3 1.1 0 .6.8-.4.7-.2 1.6.6 2.1 1 .6 1.6.2 1.9-1.3.3-1.2 1.2-2.4 1.9-2.6 1-.3 1.1 0 .5.9-.6 1.1-.3 1 1.2-.1 1-.8 2.3-2 2.7-2.5.6-.7 1-.6 1.3.2.4.8 1.1.6 2.5-.8 1.5-1.5 3.2-1.9 8.4-1.8 3.6.1 6.8.5 7 1zm10.2 2.6c-.2 2.1-.6 4.2-.8 4.8-.2.5 0 1 .6 1 .5 0 1-.6 1.2-1.3.2-1.7 1.1-2.7 1.8-2 .3.3.1 1.8-.5 3.3-.7 1.8-1.5 2.5-2.5 2.1-.8-.3-1.5 0-1.5.7 0 3.6-2.2 8.7-3.8 8.7-1.1 0-1.3.3-.5.8.6.4.9 1.9.6 3.5-.4 2.2-1.1 2.7-3.3 2.7-2.5 0-2.8-.4-3.2-4.3-.3-2.3-.3-4.4-.1-4.7.8-.9 2.3 2.6 2.4 5.5 0 2 .8.2 2.5-5.5 1.4-4.7 3.2-9 3.9-9.6.8-.6 1.2-1.4.9-1.7-.7-.6 1.4-7.7 2.3-7.7.3 0 .3 1.7 0 3.7zm-104.6-.4c-.6.6-1.1 2.2-1.1 3.5 0 1.3-.4 2-1 1.7-.5-.3-1 .1-1 .9 0 2.5 2.4 1.4 3.1-1.4.4-1.5.5-.8.3 1.5-.2 2.2-.7 8.7-1 14.5-.5 8.7-.3 10.8 1 12.5 1.5 1.9 1.5 1.9.6-1-.7-2-.7-6.1-.1-12l1-9-.3 9.4c-.3 6.4.1 10.5 1 12.7 1.9 4.6.1 5.3-4 1.6-1.9-1.7-5-3.5-7-4.2-3.9-1.3-4.5-2.4-2-3.8.9-.5 1.5-1.1 1.4-1.3-.1-.2.3-1.5.8-2.9 3.9-9.7 5.2-13.4 5.1-14.4 0-.6-.7.2-1.4 1.9-.8 1.6-1.4 2.5-1.5 1.8 0-.7 1.1-3.7 2.5-6.7s2.5-6 2.5-6.6c0-.6.5-.8 1.1-.4.8.4.8.9 0 1.7zm107.1.9c-.9.9-1.2.7-1.2-1.2s.3-2.1 1.2-1.2c.9.9.9 1.5 0 2.4zm-96.4.3c2.1.6 2.3 1.1 1.7 4.8-1.4 10.3-4 21.7-4.8 21.7-.5 0-.7-.6-.4-1.3.2-.6-.3-1.7-1.2-2.4-1.4-1.1-1.4-1.2.2-1.3 1.4 0 1.6-.6 1.2-2.8-.3-1.5-.6-6.2-.6-10.5 0-4.2-.4-7.7-1-7.7-.5 0-.9-.5-.9-1.1 0-.6.8-.8 1.8-.5.9.2 2.7.7 4 1.1zm78 .7c-.6 1.8-2.5 2-3.1.3-.5-1 0-1.5 1.4-1.5 1.2 0 1.9.5 1.7 1.2zm-3.8 2.4c.6 1.4 1 2.7 1 3 0 .8-3.3.4-6.6-.8l-3.2-1.1 2.1-1.8c3.1-2.6 5.6-2.3 6.7.7zm-33.3 7.1c.1 4.7-.2 7-.7 5.8-.4-1.1-.6-2.3-.3-2.8.2-.4 0-.7-.4-.7-.5 0-.9 1.8-.8 3.9 0 3.1.3 3.7 1.3 2.9.7-.6 1.5-.9 1.7-.6.9.9-.7 3.8-2.1 3.8-.7 0-1.7.6-2.1 1.3-.4.7-3.2 2.7-6 4.5L165 194v-2.4c0-1.4.9-4.6 2-7.2 1.1-2.6 1.9-4.9 1.7-5.1-.7-.6-4.7 9.4-4.7 11.6 0 1.2-.6 2.1-1.2 2.1-1 0-1 .2 0 .9 1 .6.7 1.4-1.5 3.2-1.5 1.4-5 4.9-7.8 7.9-2.7 3-5.3 5.5-5.7 5.5-.3 0-1 .4-1.5.9s-.3.6.5.2c2-1.2 1.4.7-1.1 3.4-1.3 1.4-2.6 3.3-2.9 4.2-1 2.5-6.9 3.3-10.6 1.4-3.3-1.7-5.8-5.2-5.4-7.4.3-1.5-1.3-1.6-4-.1-1.1.6-2.3.7-2.7.3-.3-.5-1.3-.9-2.1-.9-2.1 0-3.9-4.2-3.1-7.3.6-2.2 1.5-2.8 4.7-3.2l3.9-.6-4.2-.8c-4.2-.8-9.3-3.9-9.3-5.6 0-1.3 3 0 5.3 2.3 1.2 1.2 2.6 1.7 4.2 1.3 1.3-.3 2.7-.1 3.1.5 1.2 2 9.4 5.1 16.1 6 5.3.7 7.1.6 9.9-.7 1.9-.9 3.4-1.9 3.4-2.3 0-.3 1.1-1.9 2.5-3.5 2.6-3.1 3.1-4.6 1.5-4.6-.5 0-1-.5-1-1.1 0-.8.5-.7 1.5.1.9.7 1.9 1 2.2.6 1-1-1.9-2.7-3.4-2.1-.7.2-1.3 0-1.3-.5 0-1.1-9.1-1.1-13.5 0-3.9 1-2.7 1.2 6.3 1 4.2-.1 7.2.3 7.2.9 0 .5-1.4.8-3.2.5-1.8-.3-4.4-.1-5.8.5-2.3 1-2.3 1.1.8.5 3.7-.7 9.2.3 9.2 1.7 0 .5-2.3.7-5.2.3-4.7-.5-5.4-.3-6.6 1.6-.8 1.2-.9 1.9-.4 1.6.5-.3 2.7.1 4.8.8l3.9 1.4-7-.3c-6.8-.4-6.8-.4-1.7.4 2.9.5 5.6 1.2 5.9 1.5 1.2 1.2-11.2.6-15.6-.8-4-1.1-4.3-1.4-2.5-2.4 1.5-.8 2.3-.7 3.6.5 1 .9 1.8 1.1 1.8.5 0-.6-.7-1.5-1.5-1.9-1.4-.8-4.9-9.2-4.1-10 .4-.5 3 5.8 2.7 6.9 0 .5.3.8.8.8s1.7-2 2.6-4.3c.9-2.4 2.2-4.4 2.8-4.4 3.3-.1 26.3-7.7 28.2-9.3.7-.5 1.5-.7 1.8-.3 1.1 1 3.7-6.3 3.7-10.2 0-3.3.2-3.5 3.4-3.5h3.3v7.7zm10.8-4.5c-1 5.6-6.7 15-8.2 13.5-.8-.9-1-13.2-.2-14.8.4-.9 2.4-1.6 4.8-1.7l4.1-.3-.5 3.3zm29.4.9c.7 2.3 1.5 4.7 1.8 5.5.3.8-.1 1.4-.9 1.4s-2.4-2.1-3.7-4.7c-1.8-3.7-2-4.8-.9-5.4 2.1-1.4 2.4-1.1 3.7 3.2zm-97.5-.2c-.4.9-.8 3-.9 4.7-.1 2.7-5.8 16.4-6.8 16.4-.2 0-1.8-.5-3.6-1.1-3.1-1.1-4.3-4.1-2.1-5.4.6-.3.7.1.4 1.2-.5 1.7-.5 1.7.6 0 .6-.9.9-2.1.5-2.6-.8-1.4 1.6-6.1 3.1-6.1s2.8-3.5 1.9-5.1c-.5-.6 0-.9 1.2-.7 1.1.2 1.9-.2 1.9-.7-.1-.6-.4-.9-.8-.8-.4.2-.5-.3-.2-1.1s1.5-1.1 3-.8c1.9.3 2.3.9 1.8 2.1zm111.6 2.5c0 .3-.4.8-1 1.1-.5.3-1 .1-1-.4 0-.6.5-1.1 1-1.1.6 0 1 .2 1 .4zm-3.4 11c-.3 1.4-.1 2.8.4 3.1.6.4.8 1.6.4 2.7-.4 1.4-.2 1.8.5 1.4.6-.4 1.1 0 1.1.9 0 2.4-2.3 1.3-3.2-1.6-.4-1.3-.5-.1-.2 2.8s.1 6-.6 7.2c-.7 1.4-.7 2.1 0 2.1.5 0 1-.8 1-1.8.1-3.2 1.6.9 3 7.8.7 3.6 1.9 9 2.7 12 4 14.9 5.1 18.7 6 20.5.6 1.1 1.5 4.2 2.2 7 .7 2.7 1.4 5.8 1.7 6.8.4 1.1-1.8 0-6-3.2-3.5-2.7-7.4-5.2-8.5-5.6-1.6-.5-2-1.2-1.5-3 .5-1.9.1-2.7-1.9-3.6-2-.9-2.4-1.7-2.1-4.7.4-6 1.4-30.2 1.5-36.7.1-5.1.7-9.1 2.5-15.3.7-2.3 1.6-1.2 1 1.2zM217 185c0 .5-.5 1-1.1 1-.5 0-.8.4-.5.9.3.5-.2 4.3-1.1 8.5-1.2 5.5-2.1 7.6-3.2 7.6-1.4 0-1.4.2-.1 1 1.8 1.1.6 2.5-1.5 1.6-1.1-.4-1.3-1-.6-2.3 1.3-2.5 5.7-17.6 5.4-18.5-.2-.5.4-.8 1.2-.8.8 0 1.5.4 1.5 1zm9.2 3.2c-1.7 1.7-5.2 2-5.2.4 0-.8 1.2-1.3 3.1-1.4 2.4-.1 2.9.2 2.1 1zm-113.5 3.3c1.9.8 4.4 1.5 5.4 1.5 1.1 0 1.9.4 1.9.8 0 1.1 6 5.5 6.6 4.9.3-.2-1-1.4-2.8-2.6-1.8-1.1-2.8-2.1-2.1-2.1 1.5 0 7.3 4.9 7.3 6.2 0 1.3-3.9-.1-7.5-2.7-1.6-1.3-4.1-2.6-5.5-3.1-1.4-.4-2.7-.9-3-1l-2.7-.9c-1.3-.4-2.3-1.1-2.3-1.6 0-1.2.5-1.1 4.7.6zm112.9 3.2c-.1 2.1-.3 6.2-.4 9-.2 4.5-.5 5.3-2.1 5.3-2.9 0-3.2-1.1-2.5-9.9.6-7.5.9-8.1 2.9-8.1 1.9 0 2.2.5 2.1 3.7zm8.4-.7c0 .5-.7 1-1.5 1s-1.5-.5-1.5-1c0-.6.7-1 1.5-1s1.5.4 1.5 1zm-115 3.2c0 .5-.9.4-2-.2-1.1-.6-2-1.2-2-1.4 0-.2.9-.2 2 .1 1.1.3 2 .9 2 1.5zm115.5 2c-.5 2.5-.4 3 .5 1.8.8-1.1.9-.5.5 2.5-.4 2.6-.3 3.5.3 2.7.7-1.1 1.1-.8 1.5.9.7 2.7.3 3.3-1.6 2.6-.8-.3-1.7-2.5-2-4.9-.4-2.3-1-5.3-1.3-6.6-.5-1.6-.2-2.2 1.1-2.2s1.5.6 1 3.2zm-83.7-1.5c1.4.3 1.9.9 1.3 1.3-1.5.9-7.1 0-7.1-1.1 0-1 2.5-1.1 5.8-.2zM162 210c-.6 7.6-1.5 11.8-2.5 13-.8.9-1.2 1.9-.9 2.3.3.3-1.1 1.3-3.1 2.1-4.5 1.9-4.8 1.9-3.9.3.5-.8.2-.7-.9.2-1 .8-1.5 1.6-1.3 1.8.2.3-1.2 2.6-3.1 5.1-2 2.6-4.1 5.8-4.7 7.2-4.5 10.2-16.8 27.2-22.3 30.9-4.1 2.6-4.2 1.3-.5-3.1 3.8-4.4 9.5-13.4 11.9-18.9 2.6-5.8 3.7-10.3 2.3-9.4-.5.3-1 1.3-1 2.1 0 1.5-5.5 13.3-6.8 14.6-.6.6-1.3-5.9-1.6-15.5-.1-2.8-1.6-3.9-1.6-1.1 0 1.1-.6 1.4-1.7 1-1.1-.4-.9.1.6 1.3 1.8 1.4 2.1 2 1 2.5s-1.1.7-.1 1.2c.8.4 1.2 3 1.2 7.8 0 6.5-.3 7.5-2.9 10.6l-3 3.5.5-11.5c.3-6.3.1-15.2-.3-19.7-1-9.1-.4-11.3 3.1-11.3 1.2 0 3.1-.7 4.2-1.5 1.7-1.3 1.5-1.3-2.1-.4-3.6 1-4.1.9-6.2-1.5-1.9-2.2-2-3-1.2-5.6 1.1-2.9 2.1-3.4 6.7-3 1.2.1 2.2-.3 2.2-.9 0-.6.4-1.1.8-1.1.5 0 .9.6.9 1.4 0 2.1 4.5 7.2 7.3 8.3 1.4.5 3.7.6 5.2.2 2.4-.6 2.6-.5 1.8 1.5-.5 1.1-1.1 2.9-1.4 4-.5 1.5-.9 1.6-2.1.6-1.1-.9-1.5-.9-1.5-.1 0 .6.6 1.4 1.4 1.7.8.3 1.3 1.1 1 1.8-.8 2.1-5.2 3.6-10.6 3.6-4.3 0-4.9.2-3.8 1.5.9 1.1 1.7 1.2 3 .5 2.6-1.4 3-1.3 3.1.7.1 1.6.2 1.6.6.2.2-.9 1.4-1.9 2.7-2.1 1.9-.4 2.2-.1 1.8 1.4-.2 1-.2 1.8.1 1.8.8 0 3.5-5.5 5.9-12 1.2-3 3.3-7.2 4.7-9.4 1.4-2.1 3.4-5 4.3-6.5 2.1-3.1 13-14.2 13.5-13.7.2.1-.1 5.4-.7 11.6zm49-2.2c0 1.7-4.4 13.2-5.1 13.2-1.6 0-2-2.1-.9-6.1 2-7.4 2.8-8.9 4.5-8.3.8.3 1.5.9 1.5 1.2zm14 3.4c0 .5-1 1.3-2.2 1.9l-2.3 1 2.3-.5c2.2-.4 2.3-.3 2 8.2-.4 10.9-2.3 12.2-2.2 1.5l.1-7.8-.4 7.2c-.6 10.9-2.3 8.9-2.3-2.6 0-9.8 0-9.9 2.5-9.9 1.4 0 2.5.5 2.5 1zm13.5.8c-.3.5-1.3 1-2.1 1s-1.4-.5-1.4-1c0-.6.9-1 2.1-1 1.1 0 1.7.4 1.4 1zm0 5.2c-.4 2.4-.3 2.8.3 1.3.8-1.7 1-1.4 1.6 1.8.4 2 .4 4.2.1 4.7-.3.6-.1 1 .4 1 .6 0 1.1.4 1.1 1 0 .5-.6 1-1.4 1-.8 0-2-2.4-3-6.5-1.9-7.8-1.9-7.5-.1-7.5 1.1 0 1.3.8 1 3.2zm-32.2 6.4c-.7 1.8-2.7 1.3-3.1-.9-.2-1.1.2-1.4 1.7-1 1.2.3 1.7 1.1 1.4 1.9zm-3.2 10.7c-2 5.8-3.3 8.3-4.6 8.6-1.3.2-1.5.5-.5 1.1 1 .6.8 2.2-1.1 7.7-2.5 7.2-4.2 8.6-4.7 4-.5-3.8 5.3-16.1 7-15.1 1 .6 1 .5.1-.7-1.7-2.1 2.6-14.7 4.9-14.1 1.4.3 1.3 1.3-1.1 8.5zm-48.7.8c-3.9 10.6-5.8 16.1-9.3 27.4l-3.7 12 3.1.2c2.7.2 2.8.1 1.3-1.1-2.9-2.1-2.3-3.7 1-2.6 2.7 1 2.7 1 .5-.6-1.3-.9-2.3-2.3-2.3-3.1 0-1.3.3-1.3 1.5-.3.9.7 1.8 1 2.2.6.4-.3-.1-1.2-1-1.9-1.4-1-1.5-1.8-.8-4.2 2.9-9.2 7-21.6 8.6-26 1-2.8 2-5.6 2.2-6.4.3-1.1.6-1.1 1.9 0 1.4 1.1 1.5 2.7 1 10.4-.4 4.9-1.1 9.4-1.7 10-1.1 1.1-1.2 6.2 0 6.9.5.3 1.2 2.7 1.6 5.3.4 2.7 1.2 5.7 1.7 6.8.8 1.4.8 2-.1 2.3-.6.2-.9.8-.6 1.3.5.7-2.7 20.5-4.1 25.2-.4 1.3-1.2 1.7-2.6 1.4-1.2-.4-1.8-.1-1.5.6.2.7 1.1 1.1 2 1.1 1-.1 1.3.4 1 1.3-.3.8-1.4 1.3-2.4 1-2-.5-2.6.7-.9 1.8.6.4.7 1.2.3 1.8-1.1 1.7-3.2 10.1-2.7 10.6.2.3 1-.1 1.6-.7.7-.7 2.1-1.3 3.2-1.3 1.7-.1 1.8-.2.4-.6-1-.2-1.8-.9-1.8-1.4 0-.6 1-.8 2.3-.4 2 .6 2.1.5.5-.8-1-.8-1.5-1.7-1.1-2 .3-.4.1-.7-.5-.7-.7 0-1.2.8-1.3 1.7 0 1-.3 1.3-.5.7-.3-.7.2-2.7 1-4.5.9-1.9 1.3-2.3 1-1-.4 1.4-.2 2.1.4 1.7.5-.3 2-6.2 3.2-13.1 1.3-6.9 2.6-12.5 2.9-12.5.3 0 .4 3.7.2 8.2-.3 6.5-.6 7.7-1.2 5.3-.7-2.5-.8-2.3-.5 1.3.2 2.3.1 4-.2 3.8-.4-.2-.8 3.5-1 8.2-.2 7.4 0 8.4 1 6.6.7-1.2 1.8-1.9 2.4-1.7.6.2 1.4-.3 1.8-1.2.4-1.3.1-1.5-1.4-1-1.2.4-2 .2-2-.5 0-.6.4-.9.8-.6.4.2 1.4.1 2.2-.5 1.2-.7 1-.9-.7-.9-1.3 0-2.3-.4-2.3-1 0-.5.8-.7 1.8-.4 1.5.5 1.5.4.2-.8-1.3-1.1-1.3-2.3-.4-7.8l1.2-6.5.1 5.7c.1 5.8 1.6 13.9 3.2 17 .7 1.4-.1 1.7-5.9 2.2-11.8 1-18.2.6-18.2-1.1 0-.8-.7-2.1-1.5-2.9-1.5-1.6-2.1-4.9-.7-4 .4.2 1.4.1 2.2-.5 1.3-.7 1.3-.9 0-1-.8-.1-1.9-.1-2.4 0s-.3-.6.5-1.5c.9-1.2.9-1.5.2-1-1.4.8-1.7-.3-.7-2.8.3-.9 1.4-1.6 2.4-1.6 2.5 0 3.4-1.6 1.4-2.4-.9-.4-1.3-.2-.8.5.4.7.1 1-.7.7-.8-.3-1.5-1.2-1.7-2.1-.3-1.3.4-1.5 3.5-1.1l3.8.5-3.2-1.5c-3.9-1.8-3.9-2-1.2-7.1 3.2-6.1 4.8-7.6 7-6.5 1.2.7 2 .7 2.4 0 .3-.5-.1-1-.9-1-1 0-1.6-.9-1.6-2.3 0-1.8.2-1.9 1-.7.7 1 1 1.1 1.1.2.3-2.4.4-2.8 1.7-4.2 7.1-8.3 6.9-9.4-.3-1.7-3 3.2-5.5 5.3-5.5 4.7 0-.6-.5-.8-1.1-.4-.8.4-.7.9.2 1.5 1.1.6.9 1.2-.5 2.8-1 1.1-2.2 1.8-2.7 1.6-.4-.3-1.1 0-1.5.6-.5.8-.3.9.6.4 1.3-.8 1.3-.7-1 3.8-1.2 2.5-4.5 3.6-3.8 1.2.2-.6.5-.9.8-.8.3.1.5-1.3.6-3 0-1.8.3-4.6.8-6.2l.7-3-1.5 2.5c-.8 1.4-1.5 3.7-1.6 5.2 0 1.8-.5 2.8-1.5 2.8-.9 0-1.2.6-.8 1.7.5 1.2.3 1.4-.8.7-.8-.5-2.7-.9-4.2-1-1.5-.1-3.7-1-4.9-2-2-1.7-2.1-1.7-1.5-.2.6 1.8-.4 2.2-5.8 2.1-4-.1-4.5-.3-4.5-2.3 0-1.1.6-2 1.3-2 .9 0 .9-.2 0-.8-2-1.3-.3-5.6 3.3-8 1.8-1.2 6.1-5.6 9.4-9.8 5.7-7.2 7.2-9.5 13.7-21.9 3.1-5.8 12.6-15.5 13.1-13.3.2.9-.5 3.5-1.4 5.9zm88.4-4.2c.3.8-.1 1.2-.9.9-.7-.2-1.5-1-1.7-1.7-.3-.8.1-1.2.9-.9.7.2 1.5 1 1.7 1.7zm-18.5 2.8c-.3.8-1.2 1.2-2 .9-.8-.3-1.7-.6-1.9-.6-.2 0-.4-.6-.4-1.4 0-.9.8-1.2 2.4-.9 1.6.4 2.3 1 1.9 2zm19.1 1.7c-.1.9.2 1.6.6 1.6.9 0 3 5.5 3 7.6 0 .8-.5 1.4-1.1 1.4-.6 0-.9-.7-.5-1.5.3-.8.1-1.5-.5-1.5s-.8-.7-.5-1.6c.3-.8.2-1.3-.3-1-.5.3-1.2-.5-1.5-1.8-.3-1.3-.9-3.2-1.3-4.1-.4-1.3-.2-1.6.8-1.3.8.3 1.3 1.3 1.3 2.2zm-19.4 3.2c0 2.8-1.6 3.2-2.4.6-.3-.9-.4-.4-.2 1.1s-.1 2.6-.6 2.5c-.5-.2-.9-.7-.9-1.1.1-.4.1-2 .1-3.6 0-2.4.3-2.8 2-2.4 1.3.3 2 1.4 2 2.9zm-6.3 1.8c-.3.8.1 1.7.9 2 1 .4 1.4 2.2 1.4 6.1 0 3 .5 5.5 1 5.5.6 0 1-2.2 1-4.9 0-3.1.5-5.3 1.5-6.1.8-.7 1.5-1.9 1.5-2.6 0-.8.7-1.4 1.5-1.4 2.2 0 1.8 2.6-.7 5.1-1.9 1.8-2 2.1-.5 1.5 2.5-.8 10.9 3.5 17.4 9 3.8 3.2 5.7 5.9 7.1 9.7 1.1 2.8 1.8 5.4 1.7 5.6-.2.2-5.7.2-12.1.2-9.5-.2-12-.5-12.9-1.8-.9-1.1-1.4-1.3-1.9-.5-.4.7-.2 1.2.3 1.2.6 0 1.1.3 1.1.7 0 .5-1.7.7-3.7.6-2.1-.1-10-.2-17.5-.2-16-.1-16.2-.3-10.5-8.7 3.8-5.7 19.1-16.7 22-15.8.9.3 1.7.1 1.7-.5s-.6-1.1-1.4-1.1c-2.2 0-3-1.9-1.6-3.5 1.6-1.9 3.4-1.9 2.7-.1zm30.7 8.1c.3.9 0 1.5-.9 1.5-.8 0-1.5-.7-1.5-1.5s.4-1.5.9-1.5 1.1.7 1.5 1.5zm.8 5.9c-.2 1.6.1 2.5.7 2.2 1-.7 5.2 9.4 4.4 10.6-1.1 2-2.1.4-2.7-4.4-.5-3.2-1-4.7-1.5-3.9-.9 1.4-1.5.4-3.2-5.2-.7-2.4-.5-2.8.9-2.5 1.2.3 1.6 1.2 1.4 3.2zm-56.5 5.2c.4 1.2-2.3 5.1-3 4.4-.9-.9.5-6.1 1.6-5.7.6.2 1.2.8 1.4 1.3zm-3.3 8.7c-1 2.6-2.2 2-1.6-.9.3-1.5.8-2.2 1.4-1.6.5.5.6 1.6.2 2.5zm66.1.7c.3.5-.1 1-1 1s-1.3-.5-1-1c.3-.6.8-1 1-1 .2 0 .7.4 1 1zm-63.1 3c1.4.5 2.6.6 2.6.2 0-.4 13.7-.7 30.5-.7s30.5.3 30.5.7c0 .5-.8.8-1.7.9-1.5 0-1.5.2.2.9 1.3.6 1.5.9.5.9-.8.1-2.6.4-4 .7-1.9.4-2.1.3-1.1-.4s-3.3-.9-13.5-.7c-8.2.1-13.3-.1-11.4-.5 2.8-.6 2-.7-3.5-.7-5.6 0-6.3.1-3.5.7 2.4.5.3.8-6.7.8-6.3 0-10.3-.4-10.3-1 0-.7-.4-.7-1.2 0-.7.5-3.9 1.2-7.1 1.4-5.4.3-5.7.2-5.7-2 0-2.4 1.4-2.7 5.4-1.2zm58.5 5.6c.3.2-.4 3-1.4 6.2-1.4 4.5-3.2 7.1-8.4 12.5l-6.7 6.9-12.2.5-12.1.6-3.8-2.8c-5.7-4.3-10.1-9.4-12.7-15-4.2-8.6-4.2-9.3-.4-9.7 4.3-.5 57.2.2 57.7.8zm-62.2.9c-.4.8-.2 1.7.3 2 .6.4 1 1.3 1 2.1 0 1.7-3 1.9-3.1.1 0-.6-.2-2.2-.3-3.5-.2-1.4.3-2.2 1.2-2.2.8 0 1.2.6.9 1.5zm66.7 0c-.4.8-1 1.2-1.5.9-1.4-.8-1-2.4.6-2.4.9 0 1.2.6.9 1.5zm-92.7 1.7c-.3.8-.6.5-.6-.6-.1-1.1.2-1.7.5-1.3.3.3.4 1.2.1 1.9zm92.3 1.5c0 1.3-1.4 2.8-2.7 3-1.5.3-1.5.1-.7-2.1.6-1.6 3.4-2.3 3.4-.9zm-2 5.3c0 .5-.5 1-1.1 1-.5 0-.7-.5-.4-1 .3-.6.8-1 1.1-1 .2 0 .4.4.4 1zm-116.2 3.3c3.9 1 5.1 2.4 3.6 4-.4.3-.7 2.6-.9 5.1-.1 2.5-.8 5.3-1.6 6.2-1 1.2-1.1 1.8-.2 2.1.8.3.7 1.1-.3 3.1-.8 1.5-1.3 3.6-1.3 4.7.1 1.7.2 1.6.9-.5.8-2.5.8-2.5.9.4l.1 2.9-6.1-.7c-3.4-.3-7.3-.6-8.5-.6-1.5 0-2.4-.6-2.4-1.5 0-1.1.7-1.4 2.5-.9 1.5.4 2.5.2 2.5-.5 0-.6-.8-.8-1.7-.5-1.3.4-1.4.3-.6-.3 1.5-1.1.8-4-3.1-12.7-1.4-3.3-2.4-6.1-2.1-6.4.6-.6 4.7 8.6 7 15.9 1.4 4.6 2.1 5.5 3.9 5.4 1.1-.1 2.2-.9 2.4-1.8.4-1.9-1.3-2.3-2.4-.6-.4.7-1.2-.1-2-2.1-1.6-3.7-1.1-5 1.7-5 1.1 0 1.8.4 1.5.9-.3.4 1 .1 2.8-.8 1.9-.9 3.2-1.8 3-2-.2-.2.4-1 1.4-1.8.9-.8-.2-.5-2.5.7-4.9 2.3-8.6 2.6-10.2.6-1-1.2-.6-1.3 2.7-.9 3.5.5 10.2-1.7 10.2-3.3 0-.2-1.3.2-3 1.1-4.1 2.1-12 1.7-12-.7 0-.5.9-.4 2.1.3 1.2.6 3.6.8 5.6.4 2.9-.5 3.3-.9 2.8-2.8-.5-2-.5-2 .7-.5 1 1.1 1.9 1.3 3.1.7 1.6-.9 1.3-3.9-.4-3.9-.4 0-.6.7-.3 1.5.4.8.1 1.5-.5 1.5s-1.1-.5-1.1-1c0-.6-.7-1-1.6-1-1.2 0-1.5.6-1.1 2.2.6 2.2.5 2.2-.8.4-.8-1.1-1.8-1.7-2.1-1.3-.4.4-.1 1.5.7 2.4 1.3 1.6 1.2 1.7-.3.4-1-.7-1.8-1-1.8-.6s-.7.2-1.5-.5c-1.2-1-1.8-1-3 0-1 .9-1.5.9-1.6.1-.1-.6-.2-1.5-.3-1.9 0-.5-.9-1.6-1.8-2.6-1.3-1.2-1.8-1.4-1.8-.4-.1.7-.7.2-1.5-1.2-1.3-2.5-1.3-2.5 2.8-3.1 5-.8 11.6-.3 17.5 1.4zm-21.2 8.7c.1 4.5-.2 6.8-.8 6.4-.6-.4-.9-.1-.6.6.9 2.8 2.8 2.2 2.8-.8 0-1.7.3-3.8.7-4.8.3-1 .2-1.5-.3-1.2-.5.4-1-.5-1-1.8-.1-1.3 0-2.4.3-2.4.7 0 5.4 11.2 4.9 11.8-.3.3 0 1.2.7 2 .9 1.3.9 1.4 0 .8-.7-.4-1.3-.2-1.3.3 0 .6.8 1.1 1.8 1.1 1.5.1 1.5.2-.3 1.6-1.9 1.4-2 1.3-2.7-1.3-.6-2.3-.7-2.2-.4 1l.2 3.8-3.5-.5c-2-.3-4.1-.5-4.6-.6-.7 0-.4-4.2.9-12 1.1-6.6 2.2-11.7 2.5-11.5.2.3.6 3.7.7 7.5zm99 6.8c-.2.4-.1 1.4.5 2.2.7 1.2.9 1 .9-.8 0-2.1.4-2.2 7.9-2.2h7.9l2.1 6.2c1.1 3.4 2 6.3 1.8 6.4-.1.1-3.2 0-6.9-.3-5.8-.5-6.8-.9-6.8-2.4 0-1.1-.5-1.9-1.1-1.9-.6 0-.8.9-.4 2 .6 1.9.2 2-7.9 2h-8.5l2.4-4.3c1.4-2.3 2.5-5 2.5-6 0-1.2.8-1.7 3.1-1.7 1.6 0 2.8.4 2.5.8zm-73.6 8.7c.7 1.4 1 2.8.7 3.2-.4.3-.7 0-.7-.8 0-1.2-.2-1.2-.9 0-.6.9-1 .4-1.3-1.8-.5-3.7.4-4 2.2-.6zm27 4.5c0 .5 1.6 1.6 3.5 2.4 1.9.8 3.5 2 3.5 2.6 0 .6-.6.8-1.2.4-1-.6-1-.4 0 .7.6.7 1.2 2.1 1.2 3.1s.4 1.8.9 1.8c.4 0 .7-1.1.6-2.5-.2-1.4.1-2.5.6-2.5 1.2 0 3.1 3.9 2.4 5-.6 1 1.3 2.5 2.1 1.7.3-.3.1-1.5-.6-2.6-.6-1.2-.7-2.1-.3-2.1 1.3.1 4.4 2.7 4.2 3.6-.3 2 .2 3.4 1.2 3.4.8 0 .8-.4 0-1.4-.9-1-.9-1.6-.1-2.1 1.5-.9 4.1 1.4 3.8 3.3-.2.8.2 1.7.9 1.9.7.3.9-.3.6-1.6-.3-1.2-.1-2.1.6-2.1 1.4 0 2.4 2.3 1.9 4.3-.2 1.2-2.5.6-11.3-2.7-10.9-4.1-11-4.1-11-7.3.1-1.8-.1-3-.3-2.8-.2.2-1.3-.5-2.5-1.6-1.1-1-3-1.9-4.1-1.8-1.6 0-1.4.4 1.1 1.5 3.6 1.5 5.6 4.5 4.7 6.8-.9 2.2-2.4 2-2.4-.3 0-1.1-.7-2.7-1.6-3.5-1.6-1.7-5.6-1.6-6.1.1-.5 1.4 2.6 4.5 3.8 3.8 1.4-1 1-2.5-.5-1.9-.8.3-1.7.1-2-.4-.9-1.5 2.5-2.4 4-1.1 1.9 1.5 1.8 4.5-.2 5.3-5.3 2-10-.6-7.7-4.3.5-.9.6-2.8.2-4.3-.7-2.6-.5-2.7 3.5-3.1 2.2-.2 4.7-.4 5.4-.5.6-.1 1.2.2 1.2.8zm-14.4 17.6c-.3.8-.1 1.4.4 1.4.6 0 1-.5 1-1.1 0-.5.5-.7 1.1-.3 1.9 1.1-.8 2.7-3.5 2-2.3-.6-2.5-.9-1.6-2.7 1.2-2.1 3.5-1.6 2.6.7zM197 335c0 .5-.4 1-1 1-.5 0-1-.5-1-1 0-.6.5-1 1-1 .6 0 1 .4 1 1z"/><path d="M22 81.4c0 .2.8 1 1.8 1.7 1.5 1.3 1.6 1.2.3-.4S22 80.6 22 81.4zM50.7 91.1c1.8 2.2 9.3 6.2 9.3 5 0-.6-2.4-2.3-5.2-3.7-2.9-1.5-4.7-2-4.1-1.3z"/><path d="M47 91.4c0 .8 9 6.3 17 10.3 9.1 4.6 10.5 5.1 7.4 2.8-2.5-1.9-1.5-1.9 3 0 3.9 1.7 4.9 3.1 1.5 2.2-3.4-.9-1.1.7 7.1 4.9 4.1 2.1 11 6.3 15.3 9.2 6.8 4.7 8.9 5.8 11.9 6.1.4.1.5.9.2 1.8-.4 1.4-.3 1.5.4.5.7-1.1 1.7-.5 4.2 2.5 3.1 3.7 3.2 3.7 1.6.6-1.4-2.8-5.2-6.4-9.5-8.8-.9-.5-1.2-.4-.7.3 1 1.6-.5 1.5-2.7-.2-1.3-1-1.4-1.5-.6-1.8 1.4-.5-3.9-4.6-13.1-10.4-3.5-2.2-6.1-3.2-7.3-2.8-1.2.4-1.7.2-1.3-.4.4-.6-.3-.8-1.6-.5-1.5.3-1.9.2-1.1-.4 1.8-1.3-11.1-8.6-13.7-7.8-2 .6-8.5-2.2-13.7-6.1-3-2.3-4.3-2.9-4.3-2zm21.6 10.1c1 .8 1.4 1.5.8 1.5-.5 0-1.9-.7-3-1.5-1-.8-1.4-1.5-.8-1.5.5 0 1.9.7 3 1.5zm23.5 12.6c4.4 2.8 7.8 5.4 7.5 5.6-.3.3-3.6-1.6-7.4-4.1-3.8-2.5-7.5-4.6-8.1-4.6-.6 0-1.1-.5-1.1-1 0-1.6.7-1.3 9.1 4.1z"/><path d="M61 96.8c0 .5.7 1.3 1.6 1.6 1 .4 1.4.1 1.2-.6-.5-1.5-2.8-2.3-2.8-1zM33 102.5c.8 1 3.8 3.5 6.7 5.7 3.5 2.5 5 4.3 4.7 5.3-.4.8-.2 1.5.3 1.5s4.7 2.5 9.3 5.5c4.7 3 9 5.5 9.5 5.5.6-.1.2-.5-.7-1.1-1-.5-1.5-1.7-1.2-2.7.5-1.3.4-1.4-.4-.3-.7 1-1.4 1.1-3.1.2-2.7-1.5-2.7-2.4-.1-1.6 3.5 1.1 2.2-.3-3.2-3.4-2.9-1.6-9.3-6-14.3-9.7-4.9-3.7-8.3-5.9-7.5-4.9zm17.4 13.1c2.5 1.4 4.9 3.1 5.3 3.7.6 1.1-8.2-3.7-10.1-5.4-1.8-1.6.1-.9 4.8 1.7zM37 111.4c0 .2.8 1 1.8 1.7 1.5 1.3 1.6 1.2.3-.4s-2.1-2.1-2.1-1.3zM68.4 113.8c.2 2 1.4 3.3 4.4 5 3.3 1.8 4.1 2 3.6.8-.3-.9-1.4-1.6-2.3-1.6-1.7 0-4.1-1.8-4.1-3.1 0-.4.9-.5 1.9-.2 2.5.6 8.9 6.3 7.1 6.3-1.7 0 2.1 2.9 9.9 7.4 4.6 2.7 6.6 3.4 7.2 2.5.5-.8.8-.7 1.2.5.4 1.4.5 1.4.3-.1-.1-1.1-.9-1.7-1.8-1.5-.9.1-2-.3-2.4-.9-.5-.8-.2-1 .7-.5.8.4.3-.2-1.1-1.3-1.4-1.1-2.9-2.1-3.4-2.1-.6 0-.1.7 1 1.5 1.8 1.4 1.8 1.5-.6.6-1.4-.5-2.4-1.4-2.3-2 .2-.6-1.6-2.3-4-3.8-2.3-1.5-4.4-3-4.7-3.3-.3-.3-2.8-2-5.7-3.7l-5.2-3.2.3 2.7zm17.5 11.1c-.6.2-2.1-.7-3.3-1.9l-2.1-2.3 3.3 1.9c1.8 1 2.8 2 2.1 2.3zM83.7 119.1c.7.7 1.5 1 1.8.7.3-.3-.2-.9-1.2-1.2-1.4-.6-1.5-.5-.6.5zM43.9 125.1c5.1 3.3 11.1 7 13.4 8 2.3 1.1 7.1 3.6 10.7 5.5 3.5 1.9 7 3.4 7.7 3.4.7 0 1.3.4 1.3 1 0 .5.5 1 1 1 4.1 0-6.4-6.5-12.4-7.7-1.1-.2-2.7-1-3.5-1.7-.9-.8-3.8-2.6-6.6-4.1-2.7-1.4-8.1-4.6-12-7.1-3.8-2.4-7.4-4.4-7.9-4.4s3.2 2.7 8.3 6.1zM87 120.9c0 .6.5 1.1 1.1 1.1.6 0 2.2.9 3.6 2s3.1 2 3.7 2c.6 0 .2-.6-.9-1.3-5.8-4-7.5-4.8-7.5-3.8zM63.5 123c.3.5.8 1 1.1 1 .2 0 .4-.5.4-1 0-.6-.5-1-1.1-1-.5 0-.7.4-.4 1zM65.4 125.2c-.5.7-.2.9.9.5.9-.3 1.8 0 2.1.9.3.8 1.1 1.4 1.7 1.4.7 0 .5-.8-.6-2-2.1-2.3-3.1-2.5-4.1-.8zM72 129c-1.4.9-1 1.1 1.5 1 .3-.1 1.3.6 2.1 1.5.9.8 2 1.5 2.6 1.5.6 0 .9-.1.7-.3-.2-.1-1.5-1.2-2.9-2.4-1.8-1.6-3-1.9-4-1.3z"/><path d="M68.6 131.6c-.6 1.6 1.8 4.3 3.7 4.4.5 0 2 .9 3.4 2s3.4 2 4.3 2c1 0 2.4.8 3.1 1.7 1.2 1.5 1.2 1.6-.7 1.1-1.3-.3-2.1 0-2.1.8 0 1.7.3 1.7 2.6.4 1-.5 2.2-1.7 2.5-2.7.4-1 .4-1.5.1-1.1-.4.4-4.2-1.2-8.5-3.3-5.6-2.8-7.7-4.4-7.3-5.5.3-.8.3-1.4 0-1.4s-.8.7-1.1 1.6zM98.7 133.3c-.4 1 .7 2 3.7 3.1 5.2 2 7 2 3.3 0-1.5-.8-2.5-1.9-2.2-2.4.3-.6-.1-.7-1-.3-1 .3-2 0-2.5-.6-.5-1-.9-.9-1.3.2zM80.5 134c.3.5 1.9 1.5 3.5 2.4 1.7.8 2.8 1.1 2.5.6-.3-.5-1.9-1.5-3.5-2.4-1.7-.8-2.8-1.1-2.5-.6zM85.6 134.5c1 .8 2.3 1.5 2.8 1.5.6 0 .1-.7-1-1.5-1-.8-2.3-1.5-2.8-1.5-.6 0-.1.7 1 1.5zM113 134c0 .5.5 1 1.1 1 .5 0 .7-.5.4-1-.3-.6-.8-1-1.1-1-.2 0-.4.4-.4 1zM105 134.4c0 .2.7.7 1.6 1 .8.3 1.2.2.9-.4-.6-1-2.5-1.4-2.5-.6zM109 135.6c0 .2.9.8 2 1.4 1.5.8 1.8.8 1.4-.3-.4-1.1-3.4-2.1-3.4-1.1zM119.7 140c.9 2.2 1.8 3.8 2 3.6.5-.5-2.4-7.6-3.1-7.6-.2 0 .3 1.8 1.1 4zM87.8 140.2c0 1.3-.1 2.8-.1 3.5 0 .6-.5.9-1.3.6-.8-.3-2.1 1.1-3.3 3.6-3 5.7-2.6 7.4.5 2.3 1.4-2.3 2.7-4.2 3-4.2.3 0 .2.6-.2 1.2-.4.7.6-.2 2.3-2 3.5-3.7 4.2-3.8 6.9-1.6 1.8 1.5 1.8 1.5 0 1-2.5-.8-6.9 2.1-6.2 4 .3.8.2 1.2-.4.9-1.1-.7-2.5 1.9-3.4 6.5-.4 2.5-.3 3.1.4 2 .5-.8 1-2.3 1-3.3s1.6-3.2 3.6-5c2.8-2.4 5.2-3.5 10.3-4.3 4.1-.7 5.4-1.2 3.4-1.3-1.7 0-3.5-.6-3.8-1.1-.4-.6-1.6-.8-2.7-.4-1.4.4-1.8.2-1.4-.5.5-.7.1-.9-.8-.5-.9.3-1.6.1-1.6-.5 0-.7-.9-.6-2.4.5-2.4 1.5-2.5 1.5-2.3-.5.1-1.4.6-2 1.5-1.6.7.2 1 0 .7-.5-1.1-1.8-3.5-1-3.7 1.2zM109.7 139.1c.7.7 1.5 1 1.8.7.3-.3-.2-.9-1.2-1.2-1.4-.6-1.5-.5-.6.5zM117.6 140.3c.3 1 .9 1.5 1.2 1.2.3-.3 0-1.1-.7-1.8-1-.9-1.1-.8-.5.6zM51.5 143c1.1.5 2.7.9 3.5.9.9 0 .8-.4-.5-.9-1.1-.5-2.7-.9-3.5-.9-.9 0-.8.4.5.9zM60.6 145.8c.5.5 4.1 1.9 8.1 3.2 3.9 1.3 7 2.7 6.7 3.1-.2.4.1 1.1.7 1.5.8.5.9.3.4-.6-.6-1-.4-1.2 1.1-.6 1.4.5 1.6.4.8-.4-1.1-1.1-16.1-7-17.8-7-.6 0-.6.3 0 .8zM58.5 147.2c2.1 1.5 9.6 4 10.3 3.4.1-.2-1.6-1.1-4-1.9-2.4-.8-5.2-1.8-6.3-2.2-2-.7-2-.7 0 .7zM117 151.4c0 .2.7.7 1.6 1 .8.3 1.2.2.9-.4-.6-1-2.5-1.4-2.5-.6zM87.5 163c.3.5.8 1 1.1 1 .2 0 .4-.5.4-1 0-.6-.5-1-1.1-1-.5 0-.7.4-.4 1zM139.4 109.1c-.3.6-.2 1.5.4 2.1 1.3 1.3 3.2.2 3.2-1.8 0-1.6-2.6-1.9-3.6-.3zM150.5 108.9c-.3.5-.1 1.2.4 1.5 1.3.8 4.2-.4 3.5-1.5-.7-1.2-3.1-1.2-3.9 0zM127.1 112.4c-.9 1-.9 1.6-.1 2.1 1.3.8 4.2-1.4 3.4-2.6-.8-1.3-2-1.1-3.3.5zM162.5 113c-.4.6-.3 1.6.3 2.2.6.6 1.2.6 1.7-.2.4-.6.3-1.6-.3-2.2-.6-.6-1.2-.6-1.7.2zM122.5 124.3c-.4 1-.5 2.1-.1 2.4 1 1 1.8-.4 1.3-2.4-.4-1.7-.4-1.7-1.2 0zM162.7 127.4c-.7 1.6.1 2.6 2 2.6.7 0 1.3-.9 1.3-2 0-2.3-2.5-2.7-3.3-.6zM124 137.2c0 2.3 1.7 3.1 2.4 1.2.4-.9.4-1.9.1-2.2-.3-.3-.5.1-.5.9 0 1.1-.2 1.1-1-.1-.8-1.3-1-1.3-1 .2zM160.3 137.5c-.3.9-.3 1.8 0 2.1.9.9 2.7-.6 2.7-2.2 0-1.9-1.9-1.8-2.7.1zM155.7 145.7c-1.2 1.1-.8 2.3.8 2.3.8 0 1.5-.7 1.5-1.5 0-1.6-1.2-2-2.3-.8zM136 127.1c-1.2.8-1 .9.9.4 1.6-.5 2.1-.4 1.7.4-1 1.6 2.2 2.5 3.9 1.1.8-.6 2-.9 2.7-.5.7.4.4-.1-.6-.9-2.3-1.8-6.4-2.1-8.6-.5zM136.7 132.1c2.1 1.3 3.9 1.8 5.7 1.3 4.1-1 3.8-2-.4-1.6-2.1.2-4.1-.1-4.4-.7-.4-.6-1.5-1.1-2.4-1.1-1.1 0-.6.7 1.5 2.1zM153 137.3c-1.5 1.2-2.3 4.7-1.1 4.7.4 0 1.2-1.4 1.8-3 .6-1.7 1.1-3 1-3-.1 0-.9.6-1.7 1.3zM135 141.3c0 .2.6 1 1.4 1.6 1.1.9 1.6.9 2.2-.1.4-.7.4-1-.1-.6-.4.4-1.4.3-2.2-.3-.7-.6-1.3-.9-1.3-.6zM150.5 162c.3.5.8 1 1.1 1 .2 0 .4-.5.4-1 0-.6-.5-1-1.1-1-.5 0-.7.4-.4 1zM154.2 166c0 1.9.2 2.7.5 1.7.2-.9.2-2.5 0-3.5-.3-.9-.5-.1-.5 1.8zM149.6 166.8c-.3.5.1.9.9.9s1.2-.4.9-.9c-.3-.4-.7-.8-.9-.8-.2 0-.6.4-.9.8zM166.3 168c-1.3.5-2.3 1.5-2.2 2.2 0 1 .2 1 .6 0 .2-.6 1.3-1.2 2.4-1.2 1 0 1.9-.5 1.9-1 0-.6-.1-1-.2-.9-.2 0-1.3.4-2.5.9zM142.8 170.3c-.3 1.9-.2 2.5.4 1.9.6-.6.8-1.8.6-2.8-.3-1.4-.5-1.2-1 .9zM149.5 170c.3.5 1.1 1 1.6 1 .6 0 .7-.5.4-1-.3-.6-1.1-1-1.6-1-.6 0-.7.4-.4 1zM163.8 173.7c.7.3 1.6.2 1.9-.1.4-.3-.2-.6-1.3-.5-1.1 0-1.4.3-.6.6zM142.1 175.6c0 1.1.3 1.4.6.6.3-.7.2-1.6-.1-1.9-.3-.4-.6.2-.5 1.3zM161.5 176c-.3.5.1 1 .9 1 .9 0 1.6-.5 1.6-1 0-.6-.4-1-.9-1-.6 0-1.3.4-1.6 1zM141.7 178.7c-.4.3-.7 2-.6 3.7l.1 3.1.8-3.5c.9-3.6.8-4.5-.3-3.3zM194.5 168.9c-.6 1.1 1.3 2.6 2.2 1.7.3-.3 1.5.1 2.7.9 3.6 2.6 4.2 1.6.6-1-3.7-2.7-4.6-3-5.5-1.6zM203.5 171.6c.9.9 1.8 1.4 2.1 1.1.9-.9-.6-2.7-2.2-2.7-1.3 0-1.3.2.1 1.6zM228.2 173c-.5 2.2-.6 4-.2 4 .7 0 2.2-7.1 1.6-7.7-.2-.2-.8 1.4-1.4 3.7zM125 176.2c-.8 4-2 7.8-2.8 8.4-1.3.9-1.2 1.1.2 1.1 1.7 0 3.1-4 4.2-12.1 1-7.2-.1-5.4-1.6 2.6zM120.4 188.2c-.4.7-.3.8.4.4s1.2-.2 1.2.4c0 .6.5.8 1 .5.6-.3 1-1 1-1.6 0-1.3-2.7-1.1-3.6.3zM137.2 164.7c-.6.2-1 .9-.6 1.4.8 1.4 2.1 1.1 2.1-.6 0-.8-.1-1.5-.1-1.4-.1 0-.7.3-1.4.6zM136 170c0 .5.7 1 1.5 1s1.5-.5 1.5-1c0-.6-.7-1-1.5-1s-1.5.4-1.5 1zM136 175c0 .5.5 1 1.1 1 .5 0 .7-.5.4-1-.3-.6-.8-1-1.1-1-.2 0-.4.4-.4 1zM174.4 171.6c-.4 2.2-1.8 5.9-3.1 8.4-1.4 2.5-1.7 3.6-.8 2.5.9-1.1 2-2 2.5-2 .4 0 1.2-.4 1.7-.9.5-.6.2-.6-.6-.1-1.1.6-1.3.4-.6-1.1.4-1 1-3.1 1.3-4.7.5-3 2.2-3.7 2.3-1 0 1.1.3 1.3.6.6.2-.7-.2-2.2-1.1-3.4-1.4-2.1-1.5-2.1-2.2 1.7zM172.5 184c.3.5-.2 1-1.1 1-1.3 0-1.5.3-.7 1.1.6.6 1.6.8 2.2.5 1.4-.9 1.4-3.6 0-3.6-.5 0-.7.4-.4 1zM160 184.7c-.8.4-4.9 1.4-9 2.4-4.1.9-6.7 1.8-5.8 1.8.9.1 4.7-.6 8.4-1.5 3.7-.8 7.3-1.3 8.1-1 .8.3 1.2.2.8-.3-.3-.5.1-1.2.7-1.4.9-.4.8-.5-.2-.5-.8 0-2.2.2-3 .5zM159.8 188.7c.7.3 1.6.2 1.9-.1.4-.3-.2-.6-1.3-.5-1.1 0-1.4.3-.6.6zM166.6 189.7c-.6 1.4-.5 1.5.5.6.7-.7 1-1.5.7-1.8-.3-.3-.9.2-1.2 1.2zM116.5 204c-.3.5-.1 1 .4 1 .6 0 1.1-.5 1.1-1 0-.6-.2-1-.4-1-.3 0-.8.4-1.1 1zM124.2 206.1c-1.3.5-2 1.4-1.6 2 .5.8.9.8 1.4-.1.4-.6 1.1-1.1 1.6-1 .5.1 1-.3 1.2-.9.4-1.3.4-1.3-2.6 0zM118.4 208c0 1 .6 1.6 1.3 1.3.7-.3 1.3-.9 1.3-1.3s-.6-1-1.3-1.3c-.7-.3-1.3.3-1.3 1.3zM132.2 207.2c-2.1 2.1-1.3 2.6 3.1 2.5 2.3-.1 4.1-.5 4-1-.2-.4-.3-1-.3-1.5 0-.4-.4-.2-.8.5s-1.7 1-3 .6c-1.2-.3-1.9-.9-1.6-1.4.8-1.3 0-1.1-1.4.3zM127.6 208.6c-.8 2.1-.8 2.1.7 2.1.7 0 1.4-.9 1.4-1.9.2-2.2-1.3-2.4-2.1-.2zM142.8 208.7c.6.2 1 .9.6 1.4-.9 1.5.2 1 1.6-.6 1-1.3.9-1.5-1.1-1.4-1.3 0-1.8.3-1.1.6zM132.3 212.6c-.3.9.3 2.5 1.6 3.7l2.1 2.1 1.6-2.2c.8-1.2 2.3-2.2 3.2-2.1 1 0 1.2.3.5.6-.7.2-1.3.9-1.3 1.5 0 .7.5.6 1.4-.2 2.1-1.6.9-3.9-1.7-3.3-1.8.4-1.9.3-.7-.6.8-.6 1-1.1.4-1.1-.5 0-1.9.7-3 1.5-1.6 1.3-1.6 1.4-.1.9 2-.7 2.4 1.1.3 1.9-1.8.7-3.6-1.1-2.9-2.9.3-.8.2-1.4-.1-1.4-.4 0-.9.7-1.3 1.6z"/><path d="M138 218.1c0 .5.9.9 2 .9s2-.2 2-.4-.9-.6-2-.9c-1.1-.3-2-.1-2 .4zM185.5 167c-.4.6-.2 1.7.4 2.3 1.5 1.5 2.5.2 1.3-1.9-.7-1.2-1.1-1.3-1.7-.4zM184 171.8c0 .5.7 1.6 1.6 2.3 1.4 1.2 1.6 1.1 1.3-.5-.4-2-2.9-3.5-2.9-1.8zM183 177c0 .5.7 1 1.6 1 .8 0 1.2-.5.9-1-.3-.6-1-1-1.6-1-.5 0-.9.4-.9 1zM217.1 167c0 .8.4 2.2.9 3 1.2 1.8 1.2.2 0-2.5-.6-1.3-.9-1.5-.9-.5zM119.3 175.8c-.3 1.2-.8 2-1.2 1.8-.4-.3-1.3-.1-2.1.5-1.2.7-1.2.9.3.9 1 0 1.6.4 1.2 1-.3.5-1.1.8-1.8.6-.7-.1-.9-.1-.4.1 1.8 1.1.6 3.1-1.5 2.6-2.3-.5-2.3-.5-.3 1 1.9 1.5 2.1 1.3 4.8-4 1.6-3 2.6-5.8 2.2-6.1-.3-.3-.8.4-1.2 1.6zM112.1 179.7c-1 2.6-1 2.7.4.9.8-1.1 1.5-2.3 1.5-2.8 0-1.5-.7-.8-1.9 1.9zM229 207.4c0 3.1.4 5.6.9 5.6 1.5 0 2.1-3.1 1-5.2-.6-1.1-.8-2.6-.5-3.3.3-.8.1-1.7-.4-2-.6-.4-1 1.7-1 4.9zM228.7 216.1c.7.7 1.5 1 1.8.7.3-.3-.2-.9-1.2-1.2-1.4-.6-1.5-.5-.6.5zM229 219.1c0 .5.5.7 1 .4.6-.3 1-.8 1-1.1 0-.2-.4-.4-1-.4-.5 0-1 .5-1 1.1zM230.2 221.2c-1.4 1.4-1.7 12.8-.3 12.8.4 0 .7-1.2.5-2.6-.2-2 0-2.4.9-1.5 1.9 1.9 2.7 1.2 1.5-1.4-.6-1.3-1.6-2.2-2.2-1.8-.6.3 0-.5 1.3-2 3-3.3 1.4-6.6-1.7-3.5zM232.5 233c-.8 1.3.3 3 2 3 1.4 0 2.7-2.4 1.8-3.4-1-.9-3.1-.7-3.8.4zM237 238.8c0 .5.7.9 1.5.9s1.2-.4.9-.9c-.3-.4-.9-.8-1.5-.8-.5 0-.9.4-.9.8zM233.8 239.7c1.7.7 1.5 2.3-.3 2.3-.8 0-1.5.5-1.5 1 0 .7.6.7 2 0 2.5-1.3 2.6-4 .3-3.9-1.1 0-1.3.3-.5.6zM238 241.7c0 .3.7 1.1 1.7 1.8s1.3 1.7.8 2.5c-.6 1-1.1.9-2.1-.4-.6-.9-1.4-1.3-1.7-.9-.8 1.3 2.8 3.2 4.2 2.3 1.6-.9.6-4.6-1.4-5.4-.8-.3-1.5-.3-1.5.1zM212.1 196.6c0 1.1.3 1.4.6.6.3-.7.2-1.6-.1-1.9-.3-.4-.6.2-.5 1.3zM211.1 200.6c0 1.1.3 1.4.6.6.3-.7.2-1.6-.1-1.9-.3-.4-.6.2-.5 1.3zM223.1 193.5c-.8 5-.8 14.6.1 13.7.5-.5.7-4.2.5-8.3-.1-4.1-.5-6.5-.6-5.4zM157.7 208.1c.7.7 1.5 1 1.8.7.3-.3-.2-.9-1.2-1.2-1.4-.6-1.5-.5-.6.5zM154 212.5c0 .8.5 1.7 1.2 2.1.7.5.8.3.3-.6-.6-1-.4-1.2.8-.7 1 .3 1.7.2 1.7-.3s.8-.7 1.8-.3c.9.3 1.4.3 1.1-.1-.4-.4-2.1-.9-3.8-1.1-2.2-.3-3.1 0-3.1 1zM150.7 214.1c.7.7 1.5 1 1.8.7.3-.3-.2-.9-1.2-1.2-1.4-.6-1.5-.5-.6.5zM156.4 216.1c-.3.6-1.5.9-2.5.6-2.2-.6-2.6.8-.4 1.7 1.2.4 4.5-1.7 4.5-3 0-.8-.9-.4-1.6.7zM116.6 216.9c-.4.7-.5 1.5-.2 1.8.9.9 1.9-.4 1.4-1.8-.4-1.1-.6-1.1-1.2 0zM119 217.3c0 .9.4 1.8.9 2.1.5.4.8-.1.7-.9-.3-2.1-1.6-3.1-1.6-1.2zM124 217c0 1.7 1.7 4.7 2.3 4 .2-.3-.2-1.6-1-3-.7-1.4-1.3-1.8-1.3-1zM150.1 220.6c-.1 1.7.6 2.3 3.2 2.6 2.6.3 3.3 0 3.3-1.4 0-1.2-.4-1.4-1-.8-1.6 1.6-4.4 1.2-4.9-.8-.4-1.3-.5-1.2-.6.4zM158 220.5c0 .8.2 1.5.4 1.5s.6-.7 1-1.5c.3-.8.1-1.5-.4-1.5-.6 0-1 .7-1 1.5zM121.7 222.1c.7.7 1.5 1 1.8.7.3-.3-.2-.9-1.2-1.2-1.4-.6-1.5-.5-.6.5zM145 221.9c0 .5-.3 1.8-.6 2.8-.5 1.6-.4 1.6 1-.1 1.8-2.3 2-3.6.6-3.6-.5 0-1 .4-1 .9zM128.3 224c-.1 1.1.3 2.2.8 2.5.5.4.7 1 .4 1.5-.3.4.2 1.1 1.1 1.4 1.2.4 1.4.1.9-1.3-.4-1.3 0-2.1 1.2-2.5 1.1-.3.8-.4-.7-.3-1.4.1-2.5-.3-2.5-1 0-2-1.1-2.3-1.2-.3zM148 225.4c0 .9.5 1.6 1 1.6.6 0 1-.4 1-.9 0-.6-.4-1.3-1-1.6-.5-.3-1 .1-1 .9zM142.1 229.6c0 1.1.3 1.4.6.6.3-.7.2-1.6-.1-1.9-.3-.4-.6.2-.5 1.3zM123.2 230.4c.4 2.3 4.8 3.8 8.9 2.9 4.6-.9 3.3-1.9-2.1-1.7-3.8.2-5.2-.2-6-1.4-1-1.5-1-1.5-.8.2zM145.9 230.7c-1.3 1.6-1.2 1.7.4.4 1.6-1.3 2.1-2.1 1.3-2.1-.2 0-1 .8-1.7 1.7zM119 237c0 1.1.4 2 .9 2s.7-.9.4-2c-.3-1.1-.7-2-.9-2-.2 0-.4.9-.4 2zM138.6 236.5c-.9 2.6-.7 3.2.5 1.2.6-1 .9-2.1.6-2.3-.2-.3-.7.2-1.1 1.1zM139.1 241.7c-1.4 2.7-2.6 4.2-2.9 3.5-.2-.8.1-1.9.7-2.5.6-.6 1.1-1.6 1.1-2.1 0-.6-.6-.2-1.4.9-.7 1.1-1.3 3.5-1.3 5.3v3.2l1.8-2.7c1-1.5 2.4-4 3-5.5.6-1.6 1.5-2.8 2-2.8s.9-.5.9-1c0-2.3-1.8-.7-3.9 3.7zM128 243.5c.1 2.6.2 2.8 1.1 1.2.8-1.4.8-2.2 0-3-.8-.8-1.1-.3-1.1 1.8zM126.2 247c0 1.9.2 2.7.5 1.7.2-.9.2-2.5 0-3.5-.3-.9-.5-.1-.5 1.8zM119.1 255.6c0 6.6.3 8.3 1 6.5.8-2.1.3-14-.7-15-.2-.2-.4 3.6-.3 8.5zM131.1 255.7c-1 2.6-1 2.7.4.9.8-1.1 1.5-2.3 1.5-2.8 0-1.5-.7-.8-1.9 1.9zM207.6 211.6c-.4 1.4-.5 2.8-.3 3.1.3.2.8-.8 1.1-2.3.4-1.4.5-2.8.3-3.1-.3-.2-.8.8-1.1 2.3zM206.1 217.6c0 1.1.3 1.4.6.6.3-.7.2-1.6-.1-1.9-.3-.4-.6.2-.5 1.3zM239.1 222.6c0 1.1.3 1.4.6.6.3-.7.2-1.6-.1-1.9-.3-.4-.6.2-.5 1.3zM202.3 229.5c-.3.9-.3 1.8-.1 2.1.3.3.8-.4 1.1-1.6.6-2.3-.1-2.7-1-.5zM200.6 234.5c-.3.9-.6 2.2-.5 2.8 0 .7.5.1 1-1.2s.8-2.6.5-2.8c-.2-.2-.6.3-1 1.2zM194.6 249.5c-.9 2.1-1.6 4.5-1.5 5.4 0 .9.9-.6 2-3.3 1.1-2.7 1.8-5.1 1.5-5.3-.3-.3-1.2 1.2-2 3.2zM147.3 237.7c-.9 1.6-2.2 3.5-2.7 4.3-.9 1.2-.8 1.3.4.3 1.7-1.3 5.4-7.3 4.6-7.3-.3 0-1.3 1.2-2.3 2.7zM150 239c-.6 1.2-.9 2.4-.7 2.7.3.2 1.1-.5 1.7-1.7.6-1.2.9-2.4.7-2.7-.3-.2-1.1.5-1.7 1.7zM155.5 241.7c-.4 1-.8 3.4-1 5.3-1.7 17.4-1.6 22 .6 22 .4 0 .5-.8.2-1.7-.5-1.2-.2-1.5 1-1 .9.3 1.7.2 1.7-.3 0-.6-.9-1-2-1s-2-.5-2-1.1c0-.6.9-.8 2-.4s2 .2 2-.4c0-.6-.9-1.1-2-1.1-1.3 0-1.8-.5-1.4-1.4.3-.8 1.2-1.2 2-.9.8.3 1.4 0 1.4-.6s-.7-1.1-1.5-1.1c-1.1 0-1.3-1.2-.9-6.3.3-3.4.7-7.4.9-9 .5-3.1 0-3.5-1-1zM145.5 246c.3.5.1 1-.5 1s-.8.4-.5 1c1 1.7 2.5 1.1 2.5-1 0-1.1-.5-2-1.1-2-.5 0-.7.4-.4 1zM136.6 256.5c-.4 1.1-.4 1.6 0 1.2.4-.4 1.5 0 2.5.9 1.1 1 1.9 1.2 2.4.5.3-.6.1-1.1-.5-1.1-.7 0-.9-.7-.6-1.6.5-1.4.4-1.5-.8-.5-1.1.9-1.5.9-1.8-.1-.3-.7-.7-.5-1.2.7zM143.6 259.6c-.4 1.4-.5 2.8-.3 3.1.3.2.8-.8 1.1-2.3.4-1.4.5-2.8.3-3.1-.3-.2-.8.8-1.1 2.3zM133.1 262.2c-1.3 2.2-1.3 2.3.6.5 1.9-1.6 2.1-1.6 3.8.3 1 1.1 2.3 2 2.9 2 1 0-4.3-4.9-5.4-5-.3 0-1.1 1-1.9 2.2z"/><path d="M134.3 265.1c-.6.6-.9 1.8-.6 2.5.6 1.6 3.3 1.9 3.3.4 0-.6-.4-1-1-1-.5 0-1-.5-1-1.1 0-.5.5-.7 1-.4.6.3 1 .1 1-.4 0-1.4-1.3-1.4-2.7 0zM139 268.9c0 .6.4 1.3 1 1.6.6.3.7-.1.4-.9-.7-1.8-1.4-2.1-1.4-.7zM150.5 269c.3.5 1.1 1 1.6 1 .6 0 .7-.5.4-1-.3-.6-1.1-1-1.6-1-.6 0-.7.4-.4 1zM124.9 271.2c-.5 1.8-.6 3.8-.1 3.4.7-.8 1.2-3.6.6-3.6-.2 0-.4.1-.5.2zM129.6 272.6c-.3.8-.2 1.2.3.9.5-.3 1.2-.1 1.6.5.3.6-.4 1-1.6 1-1.6 0-2 .3-1.3 1 1.2 1.2 4.4.3 4.4-1.2 0-.5-.6-1.6-1.4-2.3-1.2-1.2-1.5-1.2-2 .1zM137.9 274.3c.5.5.7 1.7.4 2.6-.4.9-.3 1.3.1 1 1.4-1.3 1.4-4.6 0-4.6-.9 0-1.1.4-.5 1zM159.7 273.7c-.4.3-.7 1.7-.7 3.1 0 2.1-.2 2.3-1.5 1.2-1.8-1.5-4.2.1-3 1.9.9 1.5 2.7.3 1.9-1.2-.4-.7-.3-.8.2-.4 1.1 1.1 1.5 6.8.3 6.2-.4-.3-1.1 1.1-1.4 3.2-.4 2.1-.9 5-1.1 6.5-.3 1.4 0 2.9.5 3.3.6.3 1.1.3 1.1-.2 0-.4 1.1-6 2.4-12.3 2.4-11.5 2.5-12.6 1.3-11.3zM134.8 275.3c.7.8.8 1.8.4 2.2-.4.5-.1.5.6.1 1.7-1 1.5-2.3-.4-3-1.3-.5-1.4-.4-.6.7zM119.7 278.5c-1.5 1.4-2.4 2.5-1.9 2.5s1.9-1.1 3.2-2.5c3-3.2 2.3-3.2-1.3 0zM125.4 279.2c-.4.6-.3.8.4.4.6-.3 1.7 0 2.5.8s1.7 1.2 2.1.9c.3-.4.6-.2.6.3 0 .6-.4 1.4-.9 1.9-.6.6 0 1.1 1.6 1.2 2 .1 2.3-.1 1.2-.9-1.1-.7-1.1-1.1-.1-1.5.6-.2 1.2-1.2 1.2-2.1 0-1.3-.2-1.4-.9-.4-.7 1.2-1.4 1.1-3.9-.2-2.3-1.2-3.3-1.3-3.8-.4zM143.3 279.5c0 .8.4 1.2.9.9.5-.3.6-1 .3-1.5-.9-1.3-1.2-1.1-1.2.6zM120.4 281.1c-.3.6 0 1.7.8 2.5 1.3 1.3 1.6 1.3 2.7 0 .7-.8 1-2 .6-2.6-.8-1.3-3.2-1.3-4.1.1zm2.7 1.2c-.1 1.2-1.5.9-1.9-.4-.3-.6.1-1 .8-.8.6.3 1.1.8 1.1 1.2zM136.5 281.8c-1 .7-1.8 3.2-1 3.2.2 0 .9-.9 1.5-2 1.2-2.2 1.1-2.4-.5-1.2zM150.7 285.7c-1.3 1.2-.7 3.3.8 3.3.8 0 1.5-.9 1.5-2 0-2-1.1-2.6-2.3-1.3zM145.1 289.7c-.1.6-.4 2-.7 3-.5 1.7-.5 1.7.6 0 .6-1 .9-2.3.6-3-.3-.9-.5-.9-.5 0zM148.2 294.2c.6 1.8 2.8 2.1 2.8.4 0-.9-.7-1.6-1.6-1.6-.9 0-1.4.5-1.2 1.2zM145 305.6c0 1.7 2.2 1.4 2.8-.4.2-.7-.3-1.2-1.2-1.2-.9 0-1.6.7-1.6 1.6zM144 313.6c0 1.7 2.2 1.4 2.8-.4.2-.7-.3-1.2-1.2-1.2-.9 0-1.6.7-1.6 1.6zM229.7 251.1c.7.7 1.5 1 1.8.7.3-.3-.2-.9-1.2-1.2-1.4-.6-1.5-.5-.6.5zM211.6 252.3c.3 1 .9 1.5 1.2 1.2.3-.3 0-1.1-.7-1.8-1-.9-1.1-.8-.5.6zM208.3 253.5c-.3.9-.3 1.8-.1 2.1.3.3.8-.4 1.1-1.6.6-2.3-.1-2.7-1-.5zM229.8 255.7c-.2 1.5-.8 2.8-1.5 2.8-.6 0-1.5.3-1.9.7-.4.5.2.8 1.4.8 1.6 0 2.2.6 2.2 2.1 0 1.1.4 1.8.8 1.5.9-.5.7-9.4-.2-10.3-.2-.3-.6.8-.8 2.4zM210 259.5c0 .8.4 1.5.8 1.5.5 0 .9-.7.9-1.5s-.4-1.5-.9-1.5c-.4 0-.8.7-.8 1.5zM216 259.2c0 1 2.7 1 3.4 0 .2-.4-.4-.8-1.5-.8-1 0-1.9.4-1.9.8zM222 259c0 .5.5 1 1 1 .6 0 1-.5 1-1 0-.6-.4-1-1-1-.5 0-1 .4-1 1zM241 260c0 .5.5 1 1.1 1 .5 0 .7-.5.4-1-.3-.6-.8-1-1.1-1-.2 0-.4.4-.4 1zM220.8 263.5c-.3 1.4-.1 2.5.3 2.5.5 0 .9-1.1.9-2.5s-.2-2.5-.4-2.5-.6 1.1-.8 2.5zM209.3 263.6c.3.3.2 1.7-.3 3-.6 1.5-.6 2.4 0 2.4s1-.9 1-2 .5-2 1.1-2c.5 0 .7-.5.4-1-.3-.6-1.1-1-1.7-1-.6 0-.9.3-.5.6zM213 279c0 .5.5 1 1 1 .6 0 1-.5 1-1 0-.6-.4-1-1-1-.5 0-1 .4-1 1zM209.5 282c-1 1.1-1.4 2-.9 2 .5 0 1.5-.9 2.2-2 .7-1.1 1.1-2 .9-2-.2 0-1.2.9-2.2 2zM199.6 284.7c-.4.9-.4 1.8-.1 2.1.3.3.5 0 .5-.6s.8-1.2 1.8-1.4c1.5-.3 1.6-.4 0-1-1-.4-1.9-.1-2.2.9zM241.7 284.7c.3.7.6 1.3.8 1.3.2 0 .5-.6.8-1.3.3-.8-.1-1.4-.8-1.4-.7 0-1.1.6-.8 1.4zM228.4 288.5c.9 3 1.2 3.2 1.4 1.5.2-1.3-.3-2.9-1.1-3.7-1.3-1.3-1.3-1-.3 2.2zM238 286.1c0 .5-.4.7-1 .4-1.5-.9-1.2.1.4 1.4 1.1.9 1.5.7 1.9-.9.3-1.1.1-2-.4-2s-.9.5-.9 1.1zM212.5 288c-.3.5-.1 1 .4 1 .6 0 1.1-.5 1.1-1 0-.6-.2-1-.4-1-.3 0-.8.4-1.1 1zM220 287.8c0 1.2 1.4 2.7 2.8 2.9 1.7.4 1.5 0-.8-2-1.1-.9-2-1.3-2-.9zM234 290c0 .6.7 1 1.5 1s1.5-.2 1.5-.4-.7-.6-1.5-1c-.8-.3-1.5-.1-1.5.4zM200.1 291.6c0 1.1.3 1.4.6.6.3-.7.2-1.6-.1-1.9-.3-.4-.6.2-.5 1.3zM238.6 292.8c-.3.5.1.9.9.9s1.2-.4.9-.9c-.3-.4-.7-.8-.9-.8-.2 0-.6.4-.9.8zM207.1 294.5c0 .5.6 2.1 1.4 3.5.8 1.4 1.4 2 1.4 1.5 0-.6-.6-2.1-1.4-3.5-.8-1.4-1.4-2.1-1.4-1.5zM212.5 295c.3.5.8 1 1.1 1 .2 0 .4-.5.4-1 0-.6-.5-1-1.1-1-.5 0-.7.4-.4 1zM123.1 290.9c-.7.5-1.1 1.4-.7 1.9.9 1.5 3.6.4 3.6-1.4 0-1.6-.9-1.8-2.9-.5zM132 291c-1.2.8-1.2 1 .3 1.6 2.1.8 3.5-.2 2.1-1.6-.5-.5-1.5-.6-2.4 0zM133.5 307.9c-.6 1.1.9 2.3 1.9 1.4.9-.9.7-2.3-.3-2.3-.6 0-1.2.4-1.6.9zM118.2 305c0 1.9.2 2.7.5 1.7.2-.9.2-2.5 0-3.5-.3-.9-.5-.1-.5 1.8zM115.3 309.7c.9.2 1.7.8 1.7 1.3s-.7.7-1.5.4c-2.2-.9-1.8.4.5 1.6 1.8.9 2 .8 2-1.5 0-2-.5-2.5-2.2-2.4-1.7.1-1.9.2-.5.6zM210.6 307.4c.3.9 1.1 1.6 1.6 1.6 1.3 0 .5-2.3-1-2.8-.7-.2-1 .2-.6 1.2zM218.6 307.5c.4.8 1 1.5 1.5 1.5.4 0 .6-.7.3-1.5-.4-.8-1-1.5-1.5-1.5-.4 0-.6.7-.3 1.5zM222 306.9c0 .5.5 1.3 1 1.6.6.3 1 .2 1-.4 0-.5-.4-1.3-1-1.6-.5-.3-1-.2-1 .4zM226 307.4c0 .9.5 1.6 1 1.6.6 0 1-.4 1-.9 0-.6-.4-1.3-1-1.6-.5-.3-1 .1-1 .9zM230 307.4c0 .9.5 1.6 1 1.6.6 0 1-.4 1-.9 0-.6-.4-1.3-1-1.6-.5-.3-1 .1-1 .9zM210 311.6c0 .8.5 1.2 1 .9.6-.4.8-1.1.5-1.6-.9-1.4-1.5-1.1-1.5.7zM220.5 311c.3.5.8 1 1.1 1 .2 0 .4-.5.4-1 0-.6-.5-1-1.1-1-.5 0-.7.4-.4 1zM226 311.5c0 .8-.4 1.5-1 1.5-.5 0-.7.7-.4 1.5 1 2.5 2.1 1.7 2.2-1.5 0-1.7-.1-3-.4-3-.2 0-.4.7-.4 1.5zM215.7 313c.3 1.1.9 2 1.3 2 .5 0 .6-.9.3-2s-.9-2-1.3-2c-.5 0-.6.9-.3 2zM212 314.4c0 .9.5 1.6 1 1.6.6 0 1-.4 1-.9 0-.6-.4-1.3-1-1.6-.5-.3-1 .1-1 .9zM228 313.9c0 .5.5 1.3 1 1.6.6.3 1 .2 1-.4 0-.5-.4-1.3-1-1.6-.5-.3-1-.2-1 .4zM231.6 314.5c.4.8 1 1.5 1.5 1.5.4 0 .6-.7.3-1.5-.4-.8-1-1.5-1.5-1.5-.4 0-.6.7-.3 1.5zM207.5 315c.3.5.8 1 1.1 1 .2 0 .4-.5.4-1 0-.6-.5-1-1.1-1-.5 0-.7.4-.4 1zM159.8 320.7c.7.3 1.6.2 1.9-.1.4-.3-.2-.6-1.3-.5-1.1 0-1.4.3-.6.6zM267.6 31.8c-.3.5.1.9.9.9s1.2-.4.9-.9c-.3-.4-.7-.8-.9-.8-.2 0-.6.4-.9.8zM262.4 39.2l-1.9 2.3 2.3-1.9c2.1-1.8 2.7-2.6 1.9-2.6-.2 0-1.2 1-2.3 2.2zM270.5 40.6c-.9 1.5-1.2 2.3-.6 2 1.1-.7 3.5-4.6 2.8-4.6-.3 0-1.2 1.2-2.2 2.6zM260.2 42.9c-.8.4-1.4 1.2-1.5 1.7-.1.5-.5.8-.9.7-.4-.2-.4.5-.1 1.4.4 1.1.3 1.4-.6.9-.8-.5-2.9.9-5.7 3.7-5.9 6-14.6 13.4-21.9 18.7-6 4.3-9.3 7-6.7 5.6.6-.4 1.2-.2 1.2.4 0 1.2 19.9-15.8 27.2-23.2 2.6-2.7 5.2-4.7 5.8-4.6.5.2 2-1.2 3.1-3 2.2-3.4 2.2-3.7.1-2.3zM272.2 49.2c-3.8 5.1-7.2 10.9-7.2 12.5 0 .6 2.1-2.4 10.3-15 2.9-4.5 1.2-3.1-3.1 2.5zM262.6 51.6c-1.6 2-2.4 3.5-1.7 3.3 1.1-.4 5.8-6.9 4.9-6.9-.1 0-1.6 1.6-3.2 3.6zM254.6 51.6c-1.1.7-1.7 1.6-1.5 1.9.3.3 1.4-.2 2.5-.9 1-.8 1.7-1.7 1.4-1.9-.3-.3-1.4.1-2.4.9zM249 57.5c-1.1 1.3-1 1.4.4.9.9-.3 1.6-1 1.6-1.5 0-1.3-.6-1.1-2 .6zM257.5 58c-1 1.1-1.3 2-.8 2 1.3 0 3.8-2.9 3.1-3.5-.3-.3-1.3.4-2.3 1.5zM240.9 64.6l-3.4 3.7 3.2-2.3c1.8-1.3 3.4-2.9 3.7-3.7.8-2 .3-1.7-3.5 2.3z"/><path d="M250.9 64.9c-2.4 2.1-4.2 4.1-3.9 4.4.3.3 2.5-1.5 5-3.9 5.6-5.4 4.8-5.8-1.1-.5zM255.7 72.4c-1.6 2-2.6 3.6-2.3 3.6 1.3 0 5.8-5 5.4-6.1-.2-.6-1.6.5-3.1 2.5zM243.3 72.2c-1.1 1.3-2.3 3-2.8 3.8-.4.8.5 0 2-1.8s3.1-2.9 3.7-2.6c.7.4.8.2.4-.4-.9-1.6-.9-1.6-3.3 1zM252.1 73.4l-2.4 3.1 2.8-2.7c1.6-1.5 2.7-2.9 2.4-3.1-.2-.3-1.5 1-2.8 2.7zM234.9 77.7c-1.3 1.6-1.2 1.7.4.4 1.6-1.3 2.1-2.1 1.3-2.1-.2 0-1 .8-1.7 1.7zM214.2 81.8c-2.3 2.2-4.2 3.7-4.2 3.5 0-.9-17.2 13.7-23.6 20.1-6.4 6.3-10.6 12.7-13.4 20.2-1.8 4.6-.2 2.4 2.8-3.9 2.1-4.5 5.4-8.7 12.4-15.7 5.3-5.3 10.8-10.1 12.3-10.8 1.5-.7 2.9-2.1 3.2-3.2.3-1.1 1.6-2.3 2.9-2.6 1.3-.3 2.1-1 1.8-1.5-.3-.5.2-.9 1-.9s3.2-1.5 5.2-3.4c2.1-1.9 4.2-3.3 4.6-3 .4.3.8.1.8-.5 0-.5.8-1.2 1.8-1.4 1.1-.3.8-.5-.9-.6-1.7-.1-4 1.2-6.7 3.7zM247.6 79.7c.4 1.5-7.7 9.6-8.5 8.7-.3-.3 1-2 2.9-3.6 1.9-1.7 2.6-2.6 1.5-2-2.4 1.2-9.2 8.2-8.1 8.2.5 0 .2.8-.5 1.7-1.1 1.6-1.1 1.6.1.5.8-.7 1.5-1.8 1.5-2.4 0-.6.6-1.3 1.4-1.6.8-.3 1.1 0 .7.7-1.2 1.8.1 1.3 3.1-1.4 4.9-4.3 7.4-6.9 8.5-9 1-1.8.9-1.8-.4-.7-.9.7-1.8.9-2 .5-.3-.4-.3-.2-.2.4zM242.9 80.7c-1.3 1.6-1.2 1.7.4.4.9-.7 1.7-1.5 1.7-1.7 0-.8-.8-.3-2.1 1.3zM229 83.1l-3.5 3 3.8-2.6c3.3-2.4 4.3-3.5 3.4-3.5-.1 0-1.8 1.4-3.7 3.1zM221.5 85.5c-3.9 3.2-2.8 3.2 1.5 0 1.9-1.4 3-2.5 2.4-2.5-.5 0-2.2 1.1-3.9 2.5zM219.3 90.2c-1 1.3-2.5 2.4-3.2 2.6-3 .6-22.6 19.5-32.6 31.3-4.2 4.9 7.5-6 19-17.8 6.5-6.8 12.5-12.1 13.2-11.9.7.3 2.1-.6 3.1-1.9 1.1-1.3 2.1-2.2 2.4-2 .3.3.5-.2.5-1 0-2-.2-1.9-2.4.7zM225.5 94c-.3.5-.1 1 .4 1 .6 0 1.1-.5 1.1-1 0-.6-.2-1-.4-1-.3 0-.8.4-1.1 1zM231.3 93.7c.4.5-.3 2-1.5 3.3-1.2 1.2-1.5 2.1-.8 1.8 2.3-.7 4.3-4.5 2.9-5.4-.7-.4-1-.3-.6.3zM226 97.2c-1.9 1.6-2.6 2.6-1.5 2 1.8-.9 6.4-5.3 5.4-5.2-.2.1-2 1.5-3.9 3.2z"/><path d="M211.9 98.6c-2.3 2.5-2.3 2.6-.2 1.3 1.3-.7 2.5-1.9 2.7-2.6.8-1.9.2-1.6-2.5 1.3zM217.9 100.7c-1.3 1.6-1.2 1.7.4.4.9-.7 1.7-1.5 1.7-1.7 0-.8-.8-.3-2.1 1.3zM221.5 104.2c-3.7 3.9-3.7 4-.6 1.3 5.8-5 6.3-5.5 5.4-5.5-.5 0-2.7 1.9-4.8 4.2zM216 105.1c-2.5 2.2-5.8 5-7.4 6.2-6.8 5.3-17.6 15-17.6 15.9 0 .5 2.6-1.3 5.8-4.1 12.6-10.9 17.7-15.1 18.7-15.1 1 .1-.5 1.5-9.5 9.4-5.5 4.8-2.3 2.8 5.3-3.4 3.1-2.5 5.4-5 5.3-5.5-.2-.6 1-2.5 2.7-4.3 4.3-4.5 2.1-3.9-3.3.9zM228.9 105.7l-2.4 2.8 2.8-2.4c2.5-2.3 3.2-3.1 2.4-3.1-.2 0-1.4 1.2-2.8 2.7zM240 110.1c0 .5.5.7 1 .4.6-.3 1-.8 1-1.1 0-.2-.4-.4-1-.4-.5 0-1 .5-1 1.1zM218.9 116.5c-.1.3-.2 1-.3 1.6 0 .6-.8 1.6-1.6 2.2-.8.7-2.2 2.1-3 3.1-1.4 1.8-1.4 1.9.8.7 1.2-.6 2.2-1.6 2.2-2 0-.5.9-1.1 2-1.4 2.1-.5 2.8-2.7.9-2.7-.5 0-.7-.5-.4-1 .3-.6.4-1 .1-1-.3 0-.7.2-.7.5zM202.3 124.8c-2.5 2-3 3.1-2.3 4.2.5.8 1 1.2 1.1.7.1-.4.2-1 .3-1.5.4-2.1 2-3.2 3.9-2.7 1.2.2 1.7.2 1-.1-.7-.3-.9-1.2-.6-2 .7-1.9.3-1.8-3.4 1.4zM186.1 124.4c-.8.9-.9 1.6-.3 1.6.6 0 1.9.3 2.9.6 1.1.4 1.4.3.7-.3-.6-.4-1.3-1.4-1.5-2.2-.4-1-.7-1-1.8.3z"/><path d="M194.7 126.7c-2.5 2.5-2.8 2.6-6.6 1.3-3.5-1.1-4.4-1.1-7.5.4-2 .9-3.6 2.1-3.6 2.6 0 1 5.1-.9 6.1-2.3.5-.7 6.5.9 14.4 3.9 1.8.7 1.8.6.6-.9-.7-.9-2.3-1.7-3.5-1.7-1.9-.1-1.9-.3.9-2.5 1.6-1.3 2.7-2.6 2.4-2.9-.3-.3-1.7.7-3.2 2.1zM170.6 130.1c-1.3 3.7-2.5 9.3-2.1 9.7.2.2 1.1-2 1.9-4.9.9-2.9 1.4-5.5 1.1-5.7-.2-.3-.7.1-.9.9zM203.1 134.9c-1 .7-1.1 1.3-.2 2.7.6 1.1 1.1 1.4 1.1.9.1-.6.3-1.8.5-2.8.4-2 .4-1.9-1.4-.8zM183.5 137c-1.6.7-1.7.9-.3.9.9.1 2-.4 2.3-.9.7-1.1.7-1.1-2 0zM197.1 137.7c.7 1.2 1.5 2 1.8 1.7.3-.2-.3-1.2-1.3-2.2-1.7-1.6-1.8-1.6-.5.5zM166.6 142.7c-.6 1.4-.5 1.5.5.6.7-.7 1-1.5.7-1.8-.3-.3-.9.2-1.2 1.2zM216 198.5c.1 2.6.2 2.8 1.1 1.2.8-1.4.8-2.2 0-3-.8-.8-1.1-.3-1.1 1.8zM214 208.7c0 2.2 1.9 5.4 2.1 3.5.4-3.7.3-4.6-.8-5-.7-.2-1.3.4-1.3 1.5zM210.7 218.7c-.4.3-.7 1.1-.7 1.7 0 .6.5.5 1.2-.2.6-.6.9-1.4.7-1.7-.3-.3-.9-.2-1.2.2zM214 218.9c0 .5.5 1.3 1 1.6.6.3 1 .2 1-.4 0-.5-.4-1.3-1-1.6-.5-.3-1-.2-1 .4zM210.7 222.4c-1.6 1.2-1.6 1.4-.1 2 2.6 1 3.4.7 3.4-1.4 0-2.3-.8-2.5-3.3-.6zM209.1 226.6c0 1.1.3 1.4.6.6.3-.7.2-1.6-.1-1.9-.3-.4-.6.2-.5 1.3zM212 230.2v3.3l1.4-2.5c1.3-2.6 1.2-4-.5-4-.5 0-.9 1.5-.9 3.2zM207 232.1c0 .5.5.7 1 .4.6-.3 1-.8 1-1.1 0-.2-.4-.4-1-.4-.5 0-1 .5-1 1.1zM214.3 233.5c-.3.9-.3 1.8-.1 2.1.3.3.8-.4 1.1-1.6.6-2.3-.1-2.7-1-.5zM207 235.5c0 .8.5 1.5 1.1 1.5.5 0 .7-.5.4-1-.3-.6.1-1 1-1s1.4.4 1.1.8c-.3.5.1.9.9.9 1.1 0 1.2-.4.4-1.4-1.5-1.8-4.9-1.7-4.9.2zM205 239c0 .5.5 1 1 1 .6 0 1-.5 1-1 0-.6-.4-1-1-1-.5 0-1 .4-1 1zM208.6 238.9c-.3.5 0 1.1.8 1.4.8.3 1.7-.1 2-.9.6-1.5-1.9-2-2.8-.5zM205.2 242.7c-1.5.3-2.2 1-2 2.1.5 2.4 2.9 2.1 3.9-.6.5-1.2.7-2.1.6-2.1-.1.1-1.2.4-2.5.6zM118 325.4c0 2.1 2 3 3.3 1.7.8-.8.6-1.1-.7-1.1-.9 0-1.4-.5-1.1-1 .3-.6.1-1-.4-1-.6 0-1.1.6-1.1 1.4zM132.8 326.7c.7.3 1.6.2 1.9-.1.4-.3-.2-.6-1.3-.5-1.1 0-1.4.3-.6.6z"/></svg>