<svg xmlns="http://www.w3.org/2000/svg" viewBox="0 0 300 350"><title>Silos 126v-d1</title><path d="M240.4382 3.7621c.305 2.1352 1.0168 6.609 1.5252 9.9644.9151 5.3889 1.4235 9.456 1.8302 13.4214 0 .7117.61 1.3218 1.1184 1.3218 1.1185 0 .8134-2.847-1.0168-12.2013-.8134-3.9654-1.6268-10.3711-1.9318-15.0483C241.8617.6101 241.455 0 240.9466 0c-.6101 0-.8134 1.7285-.5084 3.7621z"/><path d="M288.1249 27.7579c-.5084 1.3219-1.4235 1.7286-2.9486 1.3219-1.3218-.3051-3.5587.305-5.4906 1.4234-1.7285 1.1185-4.2705 2.2369-5.4906 2.4403-3.5587.7117-5.8973 1.7285-5.8973 2.7453 0 .5084-.5084.9151-1.0167.9151-1.1185 0-6.8124 5.5922-13.1164 12.8113-2.0336 2.3386-3.6604 3.4571-3.9655 2.6437-.7117-2.237-4.2704-1.4235-4.2704 1.0167 0 2.0336-.305 1.9319-3.0503-1.3218-3.152-3.9654-5.5923-5.1855-14.0315-7.0157-4.0671-.9151-5.7956-.9151-6.609-.1017-.6101.6101-1.6269 1.1185-2.3386 1.1185-1.2202 0-5.4906-11.0829-5.4906-14.4382 0-1.0168-.4067-1.8302-1.0168-1.8302-1.4235 0-1.2201 1.7285.6101 7.0157 2.2369 6.5074.5084 7.3208-4.5755 1.9319-2.2369-2.3386-4.1688-3.9654-4.1688-3.3554 0 .5084 1.5252 2.6436 3.3554 4.5755 1.8302 1.9319 4.2704 4.7788 5.2872 6.4057 1.7285 2.6436 1.7285 2.847 0 4.7788-1.0168 1.1185-2.1352 1.8302-2.4402 1.6269-.4068-.3051-.7118.5083-.7118 1.7285-.1017 10.066-.305 10.7778-3.152 11.0828-2.2369.2034-2.847.8134-2.847 2.847 0 1.8302-.9151 2.9486-3.0503 3.9654-1.6268.7117-4.9822 2.9486-7.3208 4.7788-4.6771 3.8638-4.9821 3.8638-22.064-.61-9.0492-2.2369-10.1677-2.4403-9.3543-1.1185.3051.5084 2.3386 1.2202 4.3722 1.5252 7.6258 1.3218 13.523 3.0503 13.523 3.9654 0 .5084-.7117.7117-1.5251.4067-.8134-.4067-1.7285-.2033-2.1352.4067-.3051.6101-1.6269.9151-2.7453.8134-4.1688-.305-8.1342.1017-7.5242.8135.4068.305 4.7789.7117 9.7611.7117 4.9822.1017 9.3543.4067 9.761.8134.4067.3051-.1017 1.8302-1.0168 3.2537-1.1184 1.6268-1.7285 4.9822-1.8302 8.9476-.2033 5.4906.2034 7.1174 2.9487 11.4896 4.5755 7.5241 9.761 10.7778 17.4885 10.9811 4.1688.1017 6.5074.7118 6.8124 1.5252.305 1.0168 1.4235 1.2201 3.6604.7117l3.152-.7117-.5084 8.0325c-.5084 8.7443-3.9654 18.607-6.5074 18.607-.9151 0-1.3218.61-.9151 1.5251.3051.8135-.2033 1.8302-1.0167 2.3386-.9151.5084-1.5252 1.1185-1.4235 1.3218.305.9151-1.3218 3.9654-2.2369 3.9654-.5084 0-.8134-.8134-.6101-1.8302.7118-4.1687-6.4057-9.0492-15.8617-10.7778-9.0493-1.7285-13.4214-6.304-15.4549-16.4717-1.2202-5.999-9.6594-12.608-16.2684-12.608-1.4235 0-3.7621.9151-5.2872 2.0335l-2.542 2.0336-2.2369-3.7621c-2.7453-4.6771-12.4046-14.7432-13.1164-13.6247-.305.4067-.8134 4.8805-1.1184 9.9643-.5084 7.4225-.3051 9.5577.9151 10.7778 1.3218 1.3219.61 1.6269-6.4057 2.7453-14.2348 2.2369-25.216.5084-40.0609-6.4056-7.5241-3.4571-15.5567-10.3711-16.4717-14.2349-1.6269-6.2023 3.9654-15.4549 8.8459-14.7432 1.8302.2034 2.3386.9151 2.3386 3.3554 0 2.2369-.5084 3.152-2.0336 3.3553-1.6268.2034-1.7285.1017-.5084-.7117 1.2202-.8135 1.2202-1.3218.2034-2.3386-1.6269-1.6269-3.7621.4067-2.9487 2.6436 1.3218 3.457 8.846.8134 8.846-3.0503 0-2.0336-4.6772-5.4906-7.4225-5.4906-2.1352 0-8.8459 7.7275-8.8459 10.1677 0 2.847-1.3218 2.542-2.7453-.8134-2.1352-4.7788-3.2537-11.7946-2.5419-15.9633.61-3.4571 1.1184-4.0671 3.5587-4.3722 2.3386-.305 2.7453 0 2.7453 2.2369 0 1.4235-.4067 2.6436-1.0168 2.6436-.5084 0-1.0168-.7117-1.0168-1.5251 0-.8134-.4067-1.5252-1.0168-1.5252-1.5251 0-1.2201 4.0671.4068 4.6772 2.1352.8134 5.6939-1.4235 5.6939-3.5587 0-2.6436-2.3386-4.2705-6.5074-4.5755-3.152-.305-3.5587 0-4.0671 2.7453-.305 1.6268-.61 4.1688-.61 5.5922v2.6437l-3.2537-3.152c-3.457-3.3554-11.3879-5.8973-14.5399-4.7789-.9151.4067-1.5251 1.5252-1.3218 2.7453.4067 2.7453 2.847 3.5587 2.847 1.0168 0-2.9487.7117-3.2537 5.0839-2.1352 4.5754 1.2201 12.2012 8.6425 12.2012 11.9979 0 1.0168 1.1185 4.3721 2.4403 7.3208 3.0503 6.7107 4.3721 11.0828 5.1856 17.5902.305 2.7452 1.5251 7.0157 2.5419 9.456 2.6436 5.8972 8.8459 13.3197 11.7946 14.0314 4.5755 1.1185 2.4402 2.2369-2.3386 1.2202-12.8114-2.6436-25.7244-12.2013-29.7915-22.064-1.9319-4.7789-2.0335-5.5923-.7117-6.9141 1.8302-1.8302 3.9654-.9151 3.0503 1.3218-.4067 1.2201-.1017 1.5252 1.3218 1.2201 1.0168-.2033 2.0335-1.1184 2.2369-2.1352.5084-2.3386-4.0671-4.0671-7.4225-2.7453-3.3553 1.2202-3.2536 4.1688.1017 10.5745 1.4235 2.6436 2.3386 5.0838 2.1352 5.3889-.305.2033-2.6436-1.6269-5.1855-4.2705-4.5755-4.5755-5.7956-7.1174-3.5587-7.8291 1.4235-.5084 0-3.8638-1.7285-3.8638-.9151 0-1.4235 1.2202-1.4235 3.5587 0 3.2537-.2034 3.4571-2.3386 2.6436-7.8292-2.9486-18.5053-1.9318-17.7935 1.6269.5083 2.6436 3.8637 2.9486 3.8637.4067 0-1.3218.7117-2.1352 1.8302-2.2369 4.7788-.305 9.2526.4067 12.913 2.1352 5.3889 2.4403 16.1667 13.3198 20.2338 20.2338 3.2537 5.7956 11.3879 13.4214 14.5399 13.8282 3.3554.305 11.4896 2.9486 11.4896 3.6603 0 .4068 2.4402 1.0168 5.3889 1.4235 2.8469.4067 6.7107.9151 8.3375 1.1185 13.0147 2.1352 22.8774 2.9486 22.5724 2.0335-.4067-1.1184-14.6416-3.457-25.216-4.0671-3.152-.2033-6.1007-.61-6.609-.8134-.5084-.305-2.4403-.9151-4.1688-1.3218-2.1352-.4067-3.3554-1.3218-3.457-2.3386 0-1.0168-.3051-1.2201-.5084-.5084-1.2202 2.847-12.9131-4.7788-19.1154-12.4046-4.8805-5.999-6.304-9.456-2.3386-5.8973 3.5587 3.3554 12.0996 8.4392 13.0147 7.8292.5084-.3051.9151-.1017.9151.4067 0 .61 1.0168.8134 2.2369.5084 1.7286-.3051 1.9319-.2034 1.0168.5083-1.1184.7118-1.0168 1.0168.305 1.6269 2.6437 1.0168 4.2705.7117 2.542-.5084-1.1185-.8134-.4067-.9151 2.5419-.4067 2.2369.4067 4.9822.8134 6.1007.9151 1.1184.2033 3.457 1.0168 5.0838 1.8302 1.7285.9151 5.999 1.8302 9.6594 2.1352 11.7946 1.0168 18.3019 2.0336 18.8103 2.7453.7117 1.2201 4.8805 0 6.4057-1.8302.61-.9151 1.2201-2.6436 1.2201-3.9654 0-1.3218.4067-2.3386 1.0168-2.3386.6101 0 .6101-.9151 0-2.5419-.6101-1.5252-1.1185-4.6772-1.2201-7.0158-.2034-2.4402-.6101-4.2704-1.0168-3.9654-.5084.2034-.8134-.2034-.8134-1.0168 0-1.0167 1.2201-1.5251 3.8637-1.5251 2.2369 0 7.9308-1.8302 13.3197-4.1688 9.9644-4.4738 15.455-5.1856 18.912-2.5419 1.6269 1.2201 1.7286 1.6268.6101 2.3385-1.7285 1.1185-.5084 3.2537 1.4235 2.4403.8134-.305 1.5252 0 1.5252.6101 0 2.4402-3.2537 2.4402-5.3889-.1017-3.7621-4.2705-5.3889-5.0839-5.3889-2.7453 0 1.4235.5083 1.7285 1.8301 1.3218 1.7286-.5084 2.4403 1.0168 1.9319 3.8637 0 .5084.4067.8135 1.1185.8135.9151 0 .9151.305 0 1.2201s-1.7285.9151-3.6604-.1017c-2.1352-1.2201-2.847-1.1184-5.4906.8134-3.2537 2.3386-5.2872 2.7453-5.2872 1.1185 0-.6101-.7118-1.0168-1.5252-1.0168-.8134 0-1.5251-.5084-1.5251-1.0168 0-.61 1.4234-1.0167 3.152-1.0167 2.4402 0 3.0503-.4067 2.5419-1.5252-.305-.8134 0-1.5252.6101-1.5252.61 0 .8134-.305.5083-.7117-.4067-.305-1.5251.1017-2.4402.9151-1.0168.9151-2.847 1.9319-4.0671 2.2369-1.3218.4067-2.3386 1.2201-2.3386 1.8302 0 .5084-.7117.8134-1.5252.4067-.8134-.305-1.5251-.1017-1.5251.4067 0 .6101.5084 1.0168 1.1184 1.0168.6101 0 .9151.7117.6101 1.5251-.4067.8135-.2034 1.7286.305 2.0336.9151.5084 1.5252-1.5252 1.1185-3.8637-.2034-1.2202 1.3218-.7118 3.762 1.2201 2.9487 2.5419 2.847 2.7453-.8134 3.457-1.6268.4067-3.0503 1.2201-3.0503 1.8302 0 .8134.4067.8134 1.5252-.1017 1.1184-.9151 1.5251-.9151 1.5251-.1016 0 .7117.4067.915 1.0168.61.6101-.305.7117.1017.4067.9151-.305.9151-1.6268 1.6269-2.847 1.6269-3.152 0-6.7107 1.1184-6.7107 2.1352 0 .5084 1.5252.61 3.3554.2033l3.2537-.61-2.0336 2.3385c-1.1184 1.2202-4.4738 3.6604-7.3208 5.2873-2.9486 1.7285-5.3889 3.6604-5.3889 4.4738 0 .7117-.9151 1.8302-1.9318 2.4402-2.6436 1.3218-3.4571 1.3218-2.542-.305.6101-1.0168.4067-1.0168-.7117 0-.9151 1.0168-1.0168 1.6268-.2034 2.4403.8135.8134 1.3218.8134 1.7286 0 .4067-.6101 1.7285-1.1185 2.8469-1.1185 1.2201 0 1.8302-.305 1.5252-.7117-.4067-.3051 1.0168-1.5252 3.0503-2.542 3.3554-1.6268 2.3386-1.6268-1.4235-.1016-.7117.305-1.3218.1016-1.3218-.5084 0-.6101 1.4235-1.3218 3.0503-1.7285 1.7286-.4068 3.0504-1.0168 3.0504-1.4235 0-.4067 1.6268-1.5252 3.5587-2.4403 1.8302-.9151 4.2704-2.847 5.1855-4.2704 1.0168-1.5252 2.3386-2.4403 3.152-2.1353.8134.3051 1.1185.2034.8134-.4067-.7117-1.1184 6.2024-8.1342 8.1342-8.1342.8134 0 3.7621-1.4235 6.6091-3.0503l5.1855-3.0503 1.4235 3.5587c.8134 1.9319 1.5252 4.0671 1.5252 4.6772 0 .7117 1.1184 2.7452 2.5419 4.5754 2.5419 3.3554 8.8459 6.1007 16.1667 7.1175 7.9308 1.1184 13.3197 8.5409 9.151 12.608-2.3386 2.3385-8.1342 3.2536-7.7275 1.2201.1017-.8134-.2034-1.1185-.7118-.7118-.61.3051-1.5251-.4067-2.1352-1.5251-.9151-1.6269-.8134-2.5419.1017-3.7621 1.1184-1.3218 1.0168-1.5251-.6101-1.2201-2.7453.6101-3.2536 4.7788-.8134 6.5073 1.7285 1.3219 1.5252 1.4235-1.5252 1.5252-4.2704 0-18.7086 5.5923-20.9455 8.0325-1.6268 1.7285-1.5252 1.9319 1.9319 3.5587 2.4402 1.2202 4.8805 3.7621 7.3207 7.5242 1.9319 3.152 4.4739 7.1174 5.5923 8.6425l1.9319 2.847-3.6604-1.5251c-1.9319-.8135-5.7956-1.6269-8.4392-1.8302-11.1846-.5084-22.6741-6.7108-19.6238-10.3711 1.9319-2.2369 0-2.542-3.5587-.5084-4.1688 2.2369-10.7778 3.457-13.3197 2.4402-1.8302-.8134-2.847-1.1184-5.0839-1.3218-.7117-.1017-1.3218-.8134-1.3218-1.6268s-1.3218-2.4403-3.0503-3.6604c-2.1353-1.5252-2.847-1.7285-2.4403-.6101.305.8135 1.2201 1.7286 2.0336 2.0336 1.3218.5084 1.3218.9151 0 3.3553-2.542 4.9822-9.8627 12.5064-16.0651 16.6751-3.3553 2.1353-6.4056 3.9655-6.8124 3.9655-.5083 0-3.3553 1.1184-6.4056 2.4402-4.4738 1.9319-6.8124 2.3386-13.0147 2.1352-4.1688-.1016-8.7443-.7117-10.1678-1.2201-1.4235-.5084-4.1688-1.6268-6.1006-2.3386l-3.5587-1.4235 4.5754-.9151c2.542-.5083 6.9141-.915 9.6594-.915 4.3721 0 4.6772-.1017 2.0335-.8135-3.0503-.8134-2.8469-1.0167 1.0168-1.5251 1.1185-.2034 2.847-.6101 3.8638-1.0168 1.4234-.6101 1.8302-.4067 1.5251 1.0168-.2033 1.0167.3051 1.9318 1.0168 2.1352.7117.1017.8134 0 .305-.2034-1.2201-.61-.305-3.457 1.1185-3.457.5084 0 3.3553-1.5252 6.304-3.457 2.9486-1.8302 6.4057-3.7621 7.8291-4.1688 1.3218-.4067 4.4738-1.8302 6.9141-3.152 2.4403-1.3218 4.9822-2.0335 5.4906-1.7285.6101.305.7117.1017.305-.6101-.4067-.61 0-1.4235.8134-1.7285 2.2369-.8134 2.0336-3.152-.4067-4.4738-1.4235-.7117-2.0335-.7117-2.0335 0 0 .5084.5084 1.0168 1.0168 1.0168.61 0 1.0167.5084 1.0167 1.1184 0 .5084-.4067.8134-.9151.5084-.5084-.305-.8134 0-.7117.7118 0 .61-.305 1.2201-.9151 1.2201-.5084 0-.9151-.5084-.7117-1.0168.1016-.6101-.4068-.2033-1.1185.7118-1.6268 2.1352-12.0996 6.914-14.9466 6.914-1.1184 0-2.0335.6101-2.0335 1.3218 0 1.2202-3.2537 3.152-9.456 5.694-2.1353.8134-4.4738.8134-9.456-.1017-3.5587-.6101-6.5074-1.4235-6.4057-1.7285 0-.3051 1.3218-1.6269 2.9486-2.9487 2.3386-1.8302 3.3554-2.0335 5.5923-1.2201 1.4235.5084 5.6939 1.0168 9.456 1.0168 5.999 0 6.5074-.1017 4.6772-1.4235-1.0168-.8134-2.1353-1.1185-2.4403-.6101-1.1185 1.7285-12.0996-1.2201-21.0472-5.5922-11.1845-5.4906-12.8114-7.1175-5.7956-5.8973 6.609 1.1184 19.217.7117 24.8093-.8135 2.5419-.61 7.0157-1.2201 9.9643-1.2201 4.0671-.1017 4.9822-.305 3.5587-1.0168-2.5419-1.5251-9.761-1.4234-11.2861.1017-1.0168.9151-4.5755 1.1185-14.2349.6101-7.1174-.305-14.6415-.6101-16.6751-.7118-2.1352-.1016-3.3553-.4067-2.7453-.8134 1.0168-.61-1.6268-1.6268-6.2023-2.5419-1.8302-.4067-5.0839-4.4738-4.9822-6.5074 0-1.2201.2034-1.2201 1.3218.2034 1.6269 2.2369 2.6436 2.3386 2.6436.4067 0-2.1352-6.2023-5.0839-7.2191-3.457-.8134 1.2201.4067 4.2704 2.847 7.0157 1.2201 1.5252.6101 1.7285-6.8124 2.3386-4.4738.305-9.151.4067-10.4728.1017-2.9486-.8135-7.8291 1.0167-7.8291 2.9486 0 .7118.7117 1.9319 1.5251 2.6436 1.3218 1.1185 1.5252.8134 1.5252-1.4235 0-2.5419.305-2.6436 5.0839-2.6436 5.1855 0 17.2851 2.9487 17.2851 4.1688 0 .4067-1.0167 1.0168-2.3385 1.3218-4.1688 1.1185-5.2873 2.3386-3.8638 4.0671 1.8302 2.2369 3.0503 2.0336 2.4403-.305-.5084-2.1353.8134-2.847 8.1342-4.2705 4.7788-.8134 5.1855-.7117 9.1509 2.542 2.3386 1.8302 6.5074 4.3721 9.151 5.6939 2.6436 1.2201 4.6772 2.7453 4.4738 3.457-.6101 2.2369-7.8292 4.7789-15.1499 5.3889-4.1688.4067-6.5074.9151-5.4906 1.3218 1.1184.3051 4.6772.2034 8.1342-.2033 6.1006-.9151 18.3019.7117 17.3868 2.3386-.5084.7117-10.5744 2.4402-12.2013 2.0335-1.5251-.4067-13.9298 2.0336-18.4036 3.5587-2.3386.8134-4.6771 2.542-5.4906 3.9654-1.3218 2.542-.8134 5.5923.9151 5.5923.6101 0 .8135-.6101.5084-1.4235-1.3218-3.5587 2.1352-6.609 9.5577-8.2359l3.457-.7117-1.7285 3.2537c-1.5251 2.9486-1.5251 3.457 0 5.6939 1.6269 2.4403 3.5587 3.2537 3.5587 1.4235 0-.6101-.4067-1.0168-1.0167-1.0168-1.8302 0-1.1185-4.9822 1.0167-7.1174 2.4403-2.4403 4.6772-2.6436 5.4906-.5084.305.8134 1.6268 1.5252 3.0503 1.5252s2.847.4067 3.152 1.0168c.3051.5083 1.5252 1.0167 2.6436 1.0167 1.0168 0 1.9319.5084 1.9319 1.1185 0 2.0335 17.8952.5084 24.911-2.1352 6.304-2.4403 18.8103-9.7611 18.8103-11.0829 0-.4067 1.1185-1.3218 2.5419-1.9319 1.4235-.7117 3.0504-2.3385 3.7621-3.762 1.9319-4.1688 2.847-2.9487 2.2369 3.0503-.305 3.152-.1017 5.5923.4067 5.5923 1.5252 0 2.0336-2.0336 2.0336-8.4393 0-3.152.2033-5.7956.61-5.7956h1.5252c.5084 0 .7117 2.542.5084 5.7956-.6101 6.4057.8134 5.694 2.0335-1.0167.5084-2.4403 1.2202-3.7621 2.3386-3.7621 1.3218 0 1.4235.8134.8134 4.6772-.4067 3.2536-.305 4.4738.4067 3.9654.6101-.3051 1.1185-1.5252 1.1185-2.6436 0-2.542 1.7285-5.999 3.0503-5.999.5084 0 .4067 1.4235-.2033 3.2537-.5084 1.8302-1.2202 4.1687-1.5252 5.0838-.4067 1.2202 0 1.8302 1.1184 1.8302 1.0168 0 1.6269-.9151 1.6269-2.4402 0-3.2537 1.7285-7.7275 2.9486-7.7275.5084 0 .3051 2.2369-.4067 5.0839-.8134 2.9486-.9151 5.2872-.4067 5.6939 1.0168.6101 1.3218 0 2.9487-7.5241.7117-2.847 1.6268-5.2873 2.0335-5.2873 1.5252 0 2.3386 4.2705 1.0168 5.0839-.7118.4067-.9151 1.3218-.6101 1.9319.4067.6101.2034 1.1184-.4067 1.1184s-1.0168 1.2202-.8134 2.7453c.4067 3.4571 2.8469 4.3722 2.8469 1.1185 0-1.3218.3051-3.3554.6101-4.5755.6101-2.2369.7118-2.2369 3.8638-.6101 3.6603 1.9319 7.0157 2.7453 18.912 4.9822 4.7788.8134 9.6593 2.1353 10.8794 2.9487 4.2705 2.8469 10.7778 14.4382 12.9131 23.1824.61 2.6436.5084 2.7453-1.9319 2.1352-2.2369-.5083-2.6436-.305-2.3386 1.2202.2034 1.6268-.4067 2.0335-4.1688 2.2369-4.5754.305-12.3029 4.6771-14.1331 8.0325-.8134 1.3218-2.1352 1.5252-7.4225 1.0168-3.6604-.3051-7.3207-.9151-8.3375-1.2202-.9151-.4067-1.7285-.305-1.7285.3051 0 .5084 2.7453 1.3218 5.9989 1.7285 4.6772.5084 5.8973 1.0168 5.7956 2.3386-.2033 1.1184-1.5251 1.7285-4.2704 1.9318-4.5755.4067-8.7443 2.2369-7.9308 3.5587.305.4068 1.4234.3051 2.5419-.305 2.6436-1.3218 11.9979-2.847 12.608-2.0335.2033.4067.5084 3.0503.7117 5.9989.2034 2.9487.6101 5.2873 1.1185 5.2873.4067 0 .7117.61.7117 1.4234 0 .7118 1.5252 3.0504 3.4571 4.9822l3.457 3.7621-2.5419 2.0336-2.6437 2.0335 3.2537 1.1185c2.542.915 3.0503 1.5251 2.4403 2.8469-.4067.9151-.7118 4.6772-.6101 8.3376.1017 6.5073 0 6.7107-3.0503 8.3375-1.8302.9151-5.1856 2.2369-7.5241 2.9487-2.4403.7117-4.3722 1.6268-4.3722 2.0335 0 1.2201 1.0168 1.0168 7.0158-1.2201 5.2872-1.9319 7.2191-1.9319 7.2191 0 0 .5084-1.5252 1.8302-3.4571 2.9486-3.6603 2.3386-7.3207 7.0158-6.2023 8.0325.4067.4068 1.9319-.7117 3.3554-2.4402 1.5251-1.7285 4.4738-4.4738 6.609-5.999l3.7621-2.7453 2.0335 2.4403c3.152 4.0671 8.6426 6.304 12.303 4.9822 2.1352-.7118 2.9486-.7118 2.9486.2033 0 .7118.4067 1.8302.9151 2.6436.8134 1.2202 1.2202 1.3219 2.542.1017.9151-.7117 1.8302-1.1184 1.9318-.9151.2034.2034 3.152 6.1007 6.6091 13.1164 6.304 12.913 14.3365 23.5892 20.9455 28.063 5.3889 3.5587 19.1154 10.7778 19.6238 10.2694.2033-.305-1.2202-1.7285-3.152-3.2537-2.0336-1.5251-3.6604-3.3553-3.6604-4.0671 0-.61-1.0168-2.4402-2.3386-3.8637-1.2201-1.5252-2.4403-3.8638-2.5419-5.1856-.1017-1.4234-.8135-4.4738-1.7286-6.914-.8134-2.4403-1.5251-5.999-1.5251-8.0325 0-1.9319-.6101-4.1688-1.2202-4.8806-.8134-.9151-.915-1.1184-.1016-.7117.8134.4067 1.0167-.5084.7117-3.2537-.2033-2.0335-.4067-14.5399-.5084-27.6562-.1017-13.1164-.4067-24.1993-.61-24.7077-.2034-.4067-.6101-4.067-.8135-8.1341-.5083-12.5064-1.9318-20.1322-5.0838-28.1647-.8134-1.9319-1.9319-5.3889-2.4403-7.6258-1.1184-4.3721-6.9141-12.7097-8.7442-12.7097-1.4235 0-7.6259-5.6939-7.6259-7.1174 0-.5084-1.5251-1.9319-3.2536-3.0503-1.8302-1.1185-2.847-2.0336-2.3386-2.0336.6101 0 2.0335.7118 3.2537 1.5252 1.2201.9151 2.6436 1.5252 3.0503 1.3218 1.5252-.305 8.4392 1.4235 9.0493 2.3386.305.5084-.2034.6101-1.1185.305-.9151-.4067-1.5251-.305-1.4235.2034.4068 2.3386-.305 2.4402-2.0335.305-2.4403-2.9486-2.3386-.4067 0 3.152l1.5252 2.4403 2.2369-2.2369c2.0335-2.0336 2.3385-2.1353 6.4056-.6101 3.4571 1.1184 4.4738 1.2201 5.0839.2034.7118-1.0168 1.1185-1.0168 2.1352.1016 1.0168 1.0168 1.0168 1.2202.1017.7118-.7117-.4067-1.3218-.3051-1.3218.1016 0 1.3219 10.8795 4.4739 12.913 3.7621 1.3218-.4067 1.5252-.305.5084.4067-1.1184.7118-1.0167 1.1185.4067 1.6269 1.0168.4067 2.1353.2033 2.4403-.5084.6101-.8134.9151-.8134 1.4235 0 .4067.61.305 1.1184-.1017 1.1184-1.4235 0-1.4235 5.0839 0 5.694 1.0168.305 1.2201 2.0335.9151 5.7956-.305 4.0671.1017 6.5073 1.9319 10.2694 1.9318 4.1688 3.0503 5.2872 7.7275 7.3208 4.9821 2.2369 5.6939 2.3385 9.3543 1.0167 10.5744-3.5587 15.76-13.5231 12.8113-24.3009-.4067-1.5251-.305-1.8302.3051-.8134 1.2201 1.7285 5.4905-.305 4.6771-2.3386-.305-.9151.5084-1.5251 2.542-1.9318 3.0503-.6101 5.3889-3.6604 7.8291-10.3711 1.5252-4.1688 0-10.4728-3.5587-14.2349-1.6268-1.7285-2.6436-3.6604-2.3386-4.4738.2034-.8134-.305-2.0335-1.3218-2.7453-1.6268-1.2201-1.7285-1.8302-.7117-5.2872 1.6268-5.3889 1.5251-8.7442-.5084-15.2516-1.4235-4.3721-2.9487-6.609-7.3208-10.4728-4.5755-4.0671-5.9989-4.7788-8.1342-4.2704-8.1342 1.9318-14.8449 8.8459-15.8617 16.4717-.5083 3.6604-.305 5.6939.6101 6.8124 1.0168 1.3218 1.0168 1.7285-.1017 2.4403-1.1184.7117-1.1184 1.2201-.2033 2.3385 1.0168 1.2202.9151 1.6269-.4067 2.1353-.9151.305-2.0336.4067-2.542 0-.5084-.3051-.9151 0-.9151.61 0 .6101-.8134 1.0168-1.7285.8134-1.0168-.1016-2.3386.1017-2.9486.4068-2.2369 1.4234-30.91 2.9486-30.91 1.6268 0-.4067 1.1185-.8134 2.542-.8134 3.152 0 3.2537-1.4235.305-2.7453l-2.3386-1.0168 2.2369-1.2201c2.0336-1.0168 2.2369-.9151 1.6269.61-.6101 1.6269-.5084 1.7286 1.2201.3051 1.1185-.8134 2.6436-2.0336 3.457-2.542 2.4403-1.7285 15.3533-15.1499 15.3533-15.9633 0-.4067 1.5252-2.5419 3.3554-4.5755 1.9318-2.1352 4.0671-5.2872 4.9822-6.9141.8134-1.7285 1.9318-3.9654 2.5419-5.0838.6101-1.1185 2.4403-5.2873 3.9654-9.151 1.4235-3.9654 3.4571-8.9476 4.4738-11.1845 1.0168-2.2369 2.542-7.3208 3.4571-11.1845 1.0167-3.9654 2.6436-10.0661 3.762-13.7265 1.1185-3.5587 2.1353-7.9308 2.4403-9.6593.4067-2.9487 9.2526-29.6898 13.7264-41.4844 1.2202-3.152 2.0336-6.6091 1.7286-7.6258-.4068-1.6269-.4068-1.6269-1.2202.1016zm-4.9822 11.4896c-3.3553 9.6594-6.304 19.6237-7.2191 23.4875-.305 1.8302-1.1184 3.3553-1.6268 3.3553-.6101 0-.8134.4067-.4067.9151.305.5084.1017 1.2202-.5084 1.6269-.6101.4067-.7117 1.2201-.4067 1.8302.5084.8134.4067.9151-.4067.2033-.8134-.7117-.8134-2.3386.1017-5.8973.7117-2.7453 1.5251-4.6771 1.8302-4.3721.305.305.4067-.7117.1016-2.3386-.2033-1.5251.4067-4.3721 1.3218-6.2023.9151-1.7285 1.4235-3.457 1.1185-3.7621-2.1352-2.2369-9.8627 29.9949-11.0829 46.67-.1016.9151-.4067 1.5251-.8134 1.2201-.9151-.5084-3.8637 7.3208-4.2704 11.5912-.2034 1.7285-.7118 3.5587-1.0168 3.9654-.4067.3051-.7117 1.6269-.7117 2.7453 0 11.998-24.7077 45.9582-34.672 47.8901-1.3218.305-2.7453 1.0168-3.3554 1.6268-.8134.9151-.7117 1.0168.4067.4067 1.3218-.8134 1.3218-.7117 0 .9151-.8134 1.0168-1.6268 1.4235-1.8302.8135-.2033-.6101-1.8302-.1017-3.762 1.2201-1.9319 1.3218-5.8973 3.152-8.846 4.0671-2.9486.9151-6.1006 2.0335-6.914 2.3386-2.542 1.1184-12.608.2033-13.7265-1.1185-1.4235-1.8302-5.2872-2.9486-5.999-1.8302-.7117 1.2202 4.2705 3.6604 13.0147 6.304 3.6604 1.2202 6.7108 2.3386 6.7108 2.6436 0 .9151-7.6258-.1016-8.3376-1.0167-.4067-.6101-1.4235-.4067-2.4402.5083-1.6269 1.2202-1.7286 1.2202-1.1185-.305.4067-1.2201 0-1.9319-1.4235-2.3386-3.2537-1.0167-3.152-.2033.2034 3.4571 1.7285 1.9318 3.762 4.4738 4.5755 5.7956 1.0167 1.4235 2.1352 2.1352 3.152 1.7285 1.9318-.8134 12.0996 2.7453 14.6415 5.0839 2.0336 1.9318 2.6436 4.3721.7117 3.152-.7117-.4067-.8134-.3051-.4067.5084.4067.61 1.1185.9151 1.5252.7117 1.0168-.7117 8.1342 6.9141 11.5912 12.2013 4.6772 7.4224 9.7611 21.759 7.7275 21.759-.5084 0-.9151-.8135-1.0168-1.8302 0-1.2202-.2033-1.3218-.61-.3051-.3051.8134.2033 2.0336 1.1184 2.6436.9151.7118 1.9319 3.0504 2.1352 5.1856.3051 2.2369.7118 5.5922 1.1185 7.5241.305 1.9319.8134 17.4885 1.0168 34.5703.2033 17.0818.5084 32.6385.8134 34.5704.8134 7.1174 2.9486 16.7767 3.9654 18.0985.6101.7118 1.1185 2.3386 1.2201 3.5588.1017 1.2201.5084 3.0503 1.0168 3.9654 1.2201 3.0503-1.0168 2.0335-5.7956-2.542-6.2023-5.8973-8.9476-10.5744-13.4214-22.5724-3.7621-9.8627-3.8638-10.4727-3.4571-20.8438.5084-10.5745 1.1185-12.9131 4.7789-18.8103 1.1184-1.7286 2.0335-4.3722 2.0335-5.999.1017-2.9487.1017-2.9487-1.8302-1.0168-1.0167 1.0168-1.7285 2.2369-1.5251 2.6436.5084.7118-2.542 6.7107-4.3721 8.7443-.7118.7117-1.3219 1.8302-1.3219 2.3386 0 .61-.4067.7117-1.0167.4067-.5084-.3051-1.0168 0-1.0168.8134s-.7117 1.7285-1.5252 2.1352c-.8134.3051-1.5251 1.3218-1.5251 2.1352 0 .9151.5084 1.3219 1.0167 1.0168.6101-.4067.8135-1.1184.5084-1.6268-.4067-.5084-.1016-.9151.6101-.9151s2.1352-.7118 3.152-1.7285c1.7285-1.5252 1.8302-1.5252.7117 1.5251-.61 1.8302-1.5251 3.0504-1.9318 2.7453-.4067-.305-.4067 1.1185 0 3.0503.5084 2.0336.4067 3.3554-.1017 2.9487-.5084-.305-.9151.2033-.9151 1.0168 0 .9151.4067 1.6268.9151 1.6268s.8134 1.2201.6101 2.7453c-.1017 1.6268-.8135 2.7453-1.4235 2.6436-.5084-.2034-.8134.4067-.4067 1.3218.4067 1.2201.8134 1.3218 1.4234.305.5084-.9151 1.0168-.4067 1.5252 1.4235.305 1.6269.4067 3.152 0 3.4571-.305.4067 0 1.3218.7118 2.2369.8134.9151 2.2369 3.6603 3.152 6.1006 1.0167 2.5419 2.6436 5.7956 3.762 7.4225 1.1185 1.5251 1.6269 2.8469 1.0168 2.8469-1.6268 0-5.8973-6.2023-7.6258-11.1845-.8134-2.5419-2.0336-4.6772-2.6436-4.8805-.5084-.2034-1.0168-1.0168-1.0168-1.7285 0-.7118-1.1185-3.7621-2.5419-6.8124-1.4235-2.9487-2.542-6.8124-2.6437-8.4392 0-1.7286-.305-2.3386-.61-1.5252-.8134 2.2369-3.3554 3.9654-4.9822 3.3554-2.1352-.8135-1.7285-2.3386.7117-2.3386 1.1185 0 1.8302-.4067 1.4235-.9151-.305-.5084.305-1.2201 1.4235-1.6269 1.1185-.305 2.2369-1.2201 2.5419-2.0335.8135-2.2369-.4067-1.8302-3.3553.9151-3.3554 2.9486-10.9812 5.999-11.7946 4.6772-.4067-.6101-1.1185-.8135-1.6268-.4068-.5084.3051-2.542-1.0167-4.3722-2.8469-2.4402-2.4403-3.762-4.9822-4.5755-8.846-1.5251-7.2191-.5083-12.0996 3.2537-16.1667 2.6436-2.7453 3.8638-3.2536 7.9309-3.2536 4.8805 0 12.0996-3.152 12.0996-5.2873 0-.5084.4067-.7117.8134-.4067 1.4235.8134 6.9141-4.6771 9.456-9.5577 1.3218-2.5419 2.7453-4.7788 3.152-5.0838.7117-.6101 1.2201-4.3722 1.0168-7.9309-.2034-1.5251-.8134-2.2369-2.3386-2.2369-1.1185 0-1.7285.5084-1.4235 1.0168.4067.6101 1.1185.7117 1.7285.4067.5084-.4067.4067.4067-.305 1.7285l-1.3218 2.4403-.8134-3.3554c-.6101-2.3386-.5084-4.1687.4067-6.1006 1.2201-2.3386 1.1184-3.3554-.2034-7.1174-.9151-2.3386-2.4402-5.0839-3.457-6.1007-1.6269-1.6268-1.6269-1.6268-.2034 1.3218 1.1185 2.0336 1.6269 5.8973 1.6269 11.6929 0 11.2862-1.9319 15.455-9.9644 21.9624-3.3554 2.7452-6.2023 5.5922-6.2023 6.304-.1017.8134-1.6269 1.2201-4.7789 1.0167-3.5587-.1017-5.6939-.9151-9.1509-3.5587-2.4403-1.8302-4.8806-4.1688-5.3889-5.1855-1.2202-2.3386-1.2202-12.2013 0-12.9131.5083-.4067.915-1.4234.915-2.3385 0-1.1185-.7117-.5084-2.0335 1.6268-3.3554 5.4906-1.9319 14.4382 3.0503 19.6237 4.2705 4.4738 15.3533 5.5923 18.5053 1.9319.9151-1.1184 2.3386-2.0335 3.2537-2.0335.8134 0 2.2369-1.2202 3.0503-2.847.8134-1.5252 1.7285-2.6436 2.0336-2.4403.61.2034 5.7956-4.4738 5.6939-5.0838-.1017-.2034.6101-1.9319 1.4235-3.8638s1.5251-3.152 1.6268-2.6436c0 .5084.7118.305 1.5252-.4067.9151-.7117 1.8302-1.1185 2.0335-.8134.6101.61-2.5419 6.2023-5.0838 9.1509-1.1185 1.3219-3.0504 3.6604-4.3722 5.2873-1.2201 1.6268-2.2369 2.5419-2.2369 2.1352 0-.4067-.9151.305-2.0335 1.6268-1.0168 1.3218-1.9319 2.0336-2.0336 1.6269 0-.5084-1.5251 0-3.2536 1.1184-5.0839 3.0503-13.0148 3.8638-17.1835 1.6269-4.0671-2.0336-5.4906-3.5587-8.0325-9.0493-5.7957-12.0996 1.2201-23.9959 14.1331-23.6909 3.457.1017 5.5923.6101 5.8973 1.5252.305.7117.9151 1.0168 1.5252.7117.5084-.305.2033-1.4234-.8135-2.5419-1.3218-1.5252-1.5251-2.2369-.61-3.152 1.1184-1.1184 1.2201-1.1184 2.7453 3.7621.2033.8134 0 1.7285-.6101 2.1352-.6101.305-.8134 1.3218-.5084 2.1352.3051.8134.2034 1.1185-.305.8134-.5084-.305-1.3218 2.0336-1.6269 5.0839-.8134 6.2023-2.0335 7.2191-3.0503 2.5419-.7117-3.2536.2034-7.2191 1.9319-8.3375.6101-.4067.8134-1.0168.4067-1.3218-1.1184-1.1185-6.9141-.9151-8.1342.305-.8134.8134-.305 1.1185 1.8302.9151 2.4403-.2033 2.847.1017 2.6436 1.8302-.5084 2.9487-.61 10.6761-.1017 11.0829.2034.2033 1.4235.61 2.542 1.0167 3.3553 1.0168 5.4906-1.6268 4.9822-6.304-.4067-3.457-.4067-3.5587.4067-.7117.61 2.1352.9151 2.4402 1.0168 1.0168.1016-1.1185.4067-3.152.7117-4.5755.4067-1.9319.305-2.1353-.4067-1.1185-.8134 1.1185-.9151.4067-.5084-2.5419.6101-4.6772-1.0168-14.2348-3.3554-19.5221-8.1341-18.8103-14.5398-27.7579-27.8596-38.9424-1.4235-1.1185-1.9318-1.8302-1.2201-1.4235.6101.305 1.5252-.1017 1.8302-.9151.305-.9151 1.4235-1.6268 2.4403-1.6268 1.0167 0 3.8637-.8135 6.304-1.8302 6.304-2.7453 10.4727-3.3554 13.9298-2.1353 2.6436.9151 3.9654.6101 9.456-2.1352 3.5587-1.8302 7.2191-3.9654 8.2358-4.8805 1.9319-1.7285 2.4403-3.7621.5084-2.6436-.7117.4067-.8134.305-.4067-.4067.4067-.6101 1.2201-.9151 1.9319-.6101 1.5251.5084 5.6939-6.304 6.304-10.4728.305-1.5251 1.3218-6.4056 2.3386-10.8795 1.4234-6.2023 1.6268-9.1509.9151-13.218-1.9319-10.3711-2.9487-13.2181-5.8973-16.065-2.3386-2.4403-3.6604-2.9487-6.7107-2.6437-3.0504.2034-3.8638.8135-4.4738 3.0504-.5084 2.0335-.2034 3.457 1.3218 5.3889 1.1184 1.4234 2.5419 2.5419 3.152 2.5419.9151 0 .9151-.2034 0-.8134-1.2202-.8134-3.3554-5.5923-3.3554-7.5241 0-1.7286 6.1006 5.5922 6.7107 8.1341.5084 1.8302.9151 2.1353 1.5252 1.0168.5084-.7117.9151-.8134.9151-.2033 0 .5084-1.2202 1.9318-2.7453 3.152-3.2537 2.3385-10.4728 4.0671-10.4728 2.4402 0-.61.7117-.8134 1.5252-.5084.8134.4067 1.5251.1017 1.5251-.5084 0-.7117-1.9318-1.0167-5.0838-.915-4.0671.2033-5.4906-.2034-7.6258-2.237-1.4235-1.3218-2.542-2.8469-2.542-3.3553s1.0168.2033 2.1352 1.7285c1.2202 1.5252 2.4403 2.5419 2.7453 2.1352.3051-.305-.4067-1.5251-1.5251-2.8469-3.2537-3.3554-4.5755-12.4047-2.6436-17.1835.8134-2.0336 1.3218-4.3721 1.0167-5.0839-.305-.9151-.7117-.6101-1.2201.7118-.4067 1.1184-1.2201 3.0503-1.8302 4.2704-.7117 1.6268-.7117 4.0671 0 8.1342.6101 3.2537.9151 6.1006.7118 6.304-.8135.8134-1.7286-.9151-2.237-4.1688-2.1352-13.9298 4.8806-25.1143 17.997-28.2663 3.8637-1.0168 15.9633 2.4403 22.064 6.1006 3.6603 2.3386 10.7778 14.3366 8.7442 15.0483-.6101.2034-.7117 1.3218-.1017 3.0503 1.9319 6.4057 2.542 14.0315 1.3218 19.5221-1.3218 6.304-5.0838 22.5724-6.1006 26.4361-.7117 2.3386-.5084 2.3386 2.847-1.0168 3.457-3.3553 4.3721-6.609 1.1184-3.9654-1.3218 1.1185-1.4235.8134-.7117-2.7453.305-2.1352 1.0167-4.6771 1.5251-5.5922.5084-.9151.5084-1.9319.2034-2.3386-.305-.305-.1017-.6101.5084-.6101.7117 0 1.1184-.305 1.0167-.8134-.1016-.4067.2034-3.152.6101-6.2023 1.0168-6.4057 1.0168-12.5063.1017-15.3533-.4067-1.4235-.2034-2.0335.8134-2.0335.9151 0 1.4235 1.3218 1.5252 4.1687.1016 2.2369.4067 4.5755.7117 4.9822.305.5084.1017 1.1185-.4067 1.5252-.5084.305-.9151 1.3218-.9151 2.3386.1017.9151-.2033 5.2872-.6101 9.5576-.4067 4.7789-.2033 7.9309.3051 7.9309 1.2201 0 2.0335-2.542 2.3386-7.1174.1016-1.9319.4067-3.9655.7117-4.5755.305-.5084.6101-2.3386.6101-4.0671.1016-1.6269.305-4.5755.305-6.4057.1017-1.9319.6101-3.152 1.2201-2.7453.6101.4067.8134-.5084.5084-2.2369-.2033-1.5252-.7117-5.4906-1.0168-8.7442-.305-3.2537-1.2201-7.4225-1.9318-9.2527-1.5252-3.7621-4.6772-7.7275-5.999-7.7275-1.0168 0 .1017 4.1688 1.6268 5.5923.7118.7117.7118.5084.2034-.5084-.8134-1.3218-.7118-1.3218.9151-.1017 1.1184 1.0168 1.3218 1.6269.6101 2.1352-.8135.5084-.6101 1.3218.61 2.542 1.5252 1.5251 3.152 11.6929 1.9319 11.6929-.2034 0-.9151-1.9319-1.6269-4.3721-1.5251-5.999-6.4056-14.2349-10.5744-17.7936-1.8302-1.7285-3.152-3.3554-2.847-3.6604.4067-.305 0-.61-.8134-.61s-2.4402-.7118-3.457-1.5252c-1.1185-.8134-3.6604-2.5419-5.5923-3.8638-3.3553-2.1352-3.5587-2.7452-3.8637-8.2358-.3051-5.3889 0-6.5074 3.0503-10.9812 3.457-5.0839 8.6426-7.7275 12.4046-6.304 2.542 1.0168 1.9319 2.2369-.9151 1.6269-1.5251-.2034-2.5419 0-2.5419.7117 0 .6101-.9151 1.1184-2.0335 1.1184-1.2202 0-3.2537 1.7286-5.0839 4.1688-2.6436 3.7621-2.9487 4.8805-2.5419 9.2527.305 2.7453.7117 5.3889 1.0167 5.8973.3051.4067 3.0504 2.2369 6.1007 3.9654s6.2023 4.0671 6.8124 5.1855c.7117 1.1185 1.8302 2.0336 2.5419 2.0336s1.2201.305 1.1185.7117c-.2034.5084.2033.9151.7117 1.0168.6101.2033 1.0168-.1017 1.0168-.6101 0-1.0167-8.4393-10.2694-9.456-10.2694-1.3218 0-7.2191-6.1006-7.8292-8.2359-1.8302-5.4905 3.3554-12.0996 9.456-12.0996 2.1352 0 4.7788.7118 5.8973 1.5252 3.2537 2.4402 3.9654 1.7285.9151-1.1185-1.5252-1.4235-2.4403-2.8469-2.0336-3.2536.4068-.4068 1.0168-.1017 1.2202.5083.305.7118 1.1184 1.3218 1.8302 1.3218 1.6268 0 10.6761 8.0326 10.6761 9.3544 0 .5084.6101 1.6268 1.4235 2.3386 1.9319 2.0335 6.1006 13.7264 8.2359 23.2841 1.5251 6.5073 1.6268 8.9476.7117 12.7097-.6101 2.5419-1.0168 5.5922-1.0168 6.7107.1017 1.1184 0 3.6604-.1017 5.5922-.2033 2.9487-.4067 3.2537-1.1184 1.5252-.5084-1.1185-.9151-3.8638-.9151-6.1007-.1017-6.4056-4.9822-28.673-7.2191-33.0451-5.0839-10.0661-13.6248-19.3187-17.6919-19.3187-1.3218 0-3.5587.9151-5.0838 2.1352-3.9655 3.152-3.4571 6.609 1.7285 11.2862 2.3386 2.1352 4.6771 4.2704 5.0838 4.6772.4068.4067 3.9655 4.1687 7.8292 8.3375 4.5755 4.9822 6.8124 6.8124 6.4057 5.2872-.3051-1.2201-.1017-2.2369.5084-2.2369.7117 0 .61-1.1184-.2034-3.2537-1.7285-4.0671-4.1688-5.2872-2.6436-1.3218 2.1352 5.5923.6101 5.8973-2.2369.5084-1.6268-3.0503-12.2013-13.218-13.8281-13.218-1.5252 0-3.2537-3.3554-3.2537-6.1007 0-1.4235 1.0168-2.5419 3.2537-3.5587 1.8302-.7117 3.5587-1.0168 3.8637-.5084.305.4067 1.5252 1.0168 2.7453 1.4235 1.5252.5084 2.0335 1.2201 1.7285 2.4403-.5084 1.4234-.4067 1.5251.5084.2033.9151-1.3218 1.1185-1.3218 1.2201 0 .1017.8134.1017 1.9319 0 2.3386-.1016.5084.3051.6101.9151.2034.5084-.3051 1.0168-.1017 1.0168.5083 0 .6101 1.1185 2.6437 2.5419 4.4738 2.4403 3.2537 6.4057 11.2862 7.1175 14.6416 1.5251 6.9141 1.6268 8.8459.5083 7.0157-1.2201-1.9318-3.0503-1.4234-3.0503.8135 0 .8134.6101 1.2201 1.3218 1.0167 3.3554-1.2201 4.5755 2.3386 5.4906 16.5734.4067 6.6091.9151 8.3376 1.9319 7.9309 2.0335-.8134.7117 4.3721-1.8302 7.1174-1.0168 1.2201-3.2537 4.7788-4.8805 8.1342-3.0504 6.304-12.0996 17.3868-16.2684 20.0305-1.4235.915-4.2705 3.2536-6.304 5.1855-2.1352 1.9319-3.8638 3.152-3.8638 2.6436s-1.1184-.4067-2.5419.2034c-1.4235.61-2.5419 1.6268-2.5419 2.1352 0 .5084.7117.4067 1.5251-.305.9151-.7118 1.8302-1.0168 2.1353-.7118.305.3051-.4068 1.0168-1.5252 1.7285-1.2201.6101-2.1352.8135-2.1352.5084 0-.305-3.3554 1.2202-7.3208 3.4571-5.4906 2.8469-9.2526 4.0671-14.3365 4.5754-3.7621.4067-6.6091 1.2202-6.304 1.7286 1.6268 2.4402 15.1499-.8135 26.6395-6.304 5.4905-2.6437 9.3543-5.7957 19.1153-15.6584 15.76-15.8616 21.6573-26.0294 24.8093-42.6028.4067-2.5419.5084-4.3721.1017-4.1688-.4067.3051-1.1185-.2033-1.4235-1.1184-.305-.8135-.2034-1.3218.305-1.0168 1.2202.8134 3.3554-6.609 2.847-9.5577-.305-1.4235-1.0168-3.8637-1.6268-5.3889-.6101-1.6268-1.1185-3.6604-1.1185-4.6771 0-1.0168-.8134-3.6604-1.7285-5.7957-.9151-2.2369-1.7285-4.4738-1.8302-4.9822-.1017-.61-.305-1.2201-.4067-1.5251-.5084-.9151-1.3218-4.5755-1.8302-7.6258-.305-2.3386.305-4.0671 2.6436-7.4225 1.7285-2.3386 3.6604-4.2704 4.1688-4.2704 1.3218 0 1.3218.305-.4067 4.2704-2.4403 5.8973-3.4571 9.9644-2.6436 9.9644.5084 0 .61 1.5252.4067 3.2537-.3051 1.8302.2033 5.1855 1.0167 7.4224l1.6269 4.0671-.5084-4.0671c-.305-2.2369-.1017-7.9308.5084-12.7096.6101-4.7789 1.3218-9.6594 1.4235-10.9812.305-2.6436 5.6939-8.5409 10.6761-11.5912 3.5587-2.2369 14.6415-7.0158 15.0483-6.5074.2033.1017-.8135 3.4571-2.1353 7.3208zm-65.6836 6.609c0 .6101-.4067.7118-1.0168.4067-.5083-.305-1.0167-1.1184-1.0167-1.6268 0-.6101.5084-.7117 1.0167-.4067.6101.305 1.0168 1.1184 1.0168 1.6268zm32.0284 9.0493c-.305.5084-.1017 1.0168.6101 1.0168.8134 0 .9151.305 0 1.3218-.6101.8134-.8134 1.7285-.4067 2.0335.305.4068.2033.7118-.4067.7118-.6101 0-1.6269-.7118-2.3386-1.5252-1.0168-1.2201-1.0168-1.8302 0-3.0503 1.4235-1.7285 3.5587-2.1352 2.5419-.5084zm-37.824 13.3198c-.5084 2.6436-5.8973 6.8123-7.2191 5.5922-.305-.4067.305-.9151 1.5252-1.2201 1.6268-.5084 2.0335-1.2201 1.7285-3.0503-.305-1.9319 0-2.4403 1.6268-2.4403 1.1185 0 2.0336-.5084 2.0336-1.2201 0-.6101.2033-.9151.4067-.7118.2033.2034.2033 1.6269-.1017 3.0504zm1.6268 4.0671c-1.1184.7117-1.0167.9151.4068.9151.9151 0 1.7285.5083 1.7285 1.1184 0 .9151-3.7621.4067-4.9822-.7117-.8134-.7118 2.2369-3.4571 3.152-2.847.61.4067.5084 1.0168-.3051 1.5252zm57.7528 3.5587c-.61 2.0335-1.3218 3.2536-1.4235 2.7453-.4067-1.1185 1.4235-6.4057 2.1353-6.4057.2033 0-.1017 1.6268-.7118 3.6604zM238.303 96.5936c-.305.5083-.1017 1.9318.5084 3.0503.61 1.2201.9151 2.6436.7117 3.3553-.305.7118-1.0168-.1016-1.6268-1.7285-1.1185-2.8469-.9151-5.6939.4067-5.6939.4067 0 .305.4067 0 1.0168zm-22.6741 6.914c1.9319 1.9319 6.304 17.7936 5.5923 19.8271-.305.7118-.6101.2034-.6101-1.1184-.1017-1.2202-.4067-2.1353-.8134-2.0336-1.6268.3051-4.3721-1.5251-4.3721-2.8469 0-.8135-.4067-1.4235-1.0168-1.4235-.5084 0-.7117.7117-.4067 1.5251.7117 1.6269-1.1185 2.1353-2.1352.6101-.3051-.5084.5083-1.7285 1.7285-2.5419 2.1352-1.5252 2.3386-1.5252 3.6604.9151 2.0335 3.8637 2.3385 3.0503.61-1.7286-1.8302-5.1855-3.8637-8.4392-7.4224-11.7945l-2.6436-2.542 3.0503.7118c1.7285.4067 3.8637 1.5251 4.7788 2.4402zm-77.4782 5.7956c.7118.8135 1.7285 1.2202 2.4403.8135.6101-.3051.8134-.3051.5084.1016-.4067.4067.4067 1.9319 1.7285 3.3554 2.9486 3.2537 3.152 5.999.4067 7.4224-1.8302.9151-2.0335.8135-2.0335-1.5251 0-3.3554-1.7286-6.6091-3.4571-6.6091-1.1184 0-1.0168.9151.2034 4.4739 1.7285 4.7788 1.3218 6.304-1.3218 5.3889-1.1185-.5084-1.5252-2.3386-1.5252-7.8292 0-7.1174.7118-8.4392 3.0503-5.5923zm-56.1259 9.5577c1.7285.7118 3.2537 1.7285 3.2537 2.2369s.9151.9151 1.9318.9151c3.3554 0 5.1856 1.1185 5.2873 3.457.1017 1.6269.2033 1.7286.61.4068.4067-1.8302 3.152-1.4235 4.5755.61.5084.8134.8134.7118.8134-.1017 0-.9151 1.0168-.8134 3.6604.3051 2.1353.9151 5.4906 1.6268 7.6258 1.7285 2.2369.1017 3.9655.5084 3.9655 1.0168s.7117.1016 1.6268-.7118c.9151-.9151 2.9486-1.5251 4.5755-1.4235 2.4402.2034 2.8469.6101 2.2369 2.3386-3.152 9.9644-3.4571 11.8963-1.9319 16.4718.6101 1.8302.4067 2.0335-1.3218 1.6268-1.3218-.305-1.8302-1.1184-1.6268-2.5419.305-1.2202.1016-1.7285-.3051-1.4235-.4067.4067-.7117 1.2201-.7117 1.7285 0 1.2201-.4067 1.2201-7.9308.4067-18.8104-2.0335-33.8586-14.5399-35.7905-29.9948l-.7117-5.5923 3.3553 3.5587c1.9319 2.0336 4.9822 4.2705 6.8124 4.9822zm46.0599 11.998c1.2201 3.2536 1.6268 14.6415.5084 16.37-1.2202 2.0336-4.2705 1.3218-5.694-1.2201-1.4235-2.6436-.9151-8.5409 1.2201-14.6416 1.5252-3.9654 2.542-4.1687 3.9655-.5083zm31.4183.4067c0 .5083-1.1185.8134-2.4403.7117-2.9486-.305-2.7453-1.3218.3051-1.5252 1.2201-.1016 2.1352.2034 2.1352.8135zm-5.6939 1.8302c.305.5083-.3051 1.1184-1.5252 1.4234-1.6268.4067-1.8302.3051-.8134-.9151 1.3218-1.6268 1.6268-1.7285 2.3386-.5083zm129.1303 13.0147c4.3721 4.2704 6.7107 9.761 6.304 14.2348-.9151 9.2526-1.9319 12.5063-5.0839 15.8617-5.2872 5.7956-23.8942 11.8962-24.0975 7.8291 0-1.0167-.2034-1.1184-.6101-.2033-.305.9151-.9151 1.0168-1.7285.305-.6101-.5084-2.1352-.8134-3.152-.7117-1.1185.2033-2.6436-.1017-3.4571-.7118-1.0167-.9151-1.3218-.7117-1.0167.8135.2033 1.0167 1.5251 2.2369 2.9486 2.6436 3.9654 1.1184 18.0986 1.0167 18.8103-.1017.3051-.6101 1.4235-1.0168 2.3386-1.0168s4.0671-1.2201 7.0158-2.847c3.8637-1.9318 5.6939-3.6603 6.4056-5.7956.9151-2.4402 1.3218-2.7453 2.0336-1.5251.5084.8134.6101 1.7285.2033 2.0335-1.0167.7118-1.3218 3.0503-.4067 2.9487 2.0336-.3051 3.2537.2033 3.2537 1.6268 0 .8134.6101 1.5252 1.3218 1.5252 2.1352 0 3.8638 4.7788 3.152 9.0493-.7117 4.6771-5.4906 10.1677-9.5577 10.9811-1.8302.3051-3.0503 1.3218-3.457 2.7453-.5084 2.0336-.7117 1.9319-2.2369-.9151-.8134-1.6268-2.2369-3.7621-3.0503-4.6771-1.8302-2.0336-1.8302-3.3554-.1017-4.8806 1.1185-.8134 2.0336-.4067 4.1688 1.9319 1.6268 1.9319 3.152 2.847 3.9654 2.3386.9151-.5084.7117-.8134-.5084-1.1185-.9151-.2033-1.5252-.9151-1.2201-1.6268.305-.8134-.4067-1.6268-1.7285-1.9319-1.3218-.4067-2.0336-1.1184-1.6269-2.0335.3051-.7118 0-1.4235-.61-1.4235-.7118 0-3.0504-.305-5.2873-.6101-2.2369-.4067-3.2536-.4067-2.2369-.1016.9151.305 1.7285.915 1.7285 1.4234 0 .4067 1.0168.6101 2.1353.3051 2.1352-.6101 2.1352-.5084.305 1.5251-1.8302 2.2369-2.6436 2.1353-5.999-.9151-2.3385-2.0335-10.2694-4.9822-11.1845-4.1687-.305.305 2.1352 1.8302 5.4906 3.457 3.5587 1.6268 6.304 3.6604 6.7107 4.8805.305 1.1185 1.0168 2.0336 1.4235 2.0336.305 0 1.5252 1.4234 2.5419 3.0503.9151 1.7285 2.2369 2.8469 2.7453 2.5419.5084-.4067.9151 0 1.0168.7118 0 .7117.2034 2.4402.4067 3.8637.8134 6.1006.7117 10.8795-.305 13.2181-1.7285 4.1687-7.3208 9.1509-10.2694 9.1509-3.9655 0-10.1678-1.9318-12.4047-3.8637-2.3386-2.0336-2.6436-4.0671-.2033-2.1352 1.0167.8134.7117.1016-.6101-1.8302-2.0336-2.6436-2.3386-4.0671-1.9319-8.4393.3051-2.8469 1.2201-5.8972 2.0336-6.7107 1.3218-1.3218 2.0335-1.0167 5.6939 2.2369 4.8805 4.2705 4.9822 6.1007.2034 2.0336-1.7286-1.4235-3.7621-2.6436-4.3722-2.542-.7117 0-.2033.5084 1.0168 1.1185 1.3218.6101 3.152 2.847 4.0671 4.9822 2.3386 4.8805 4.1688 5.6939 5.3889 2.3386 1.7285-4.3722-3.9654-14.6416-8.0325-14.6416-1.1185.1017-.7118.7118 1.2201 2.1353 1.5252 1.2201 3.2537 3.152 3.8638 4.2704 1.0167 2.1352 1.0167 2.1352-.5084.305-.9151-1.1184-1.6269-1.6268-1.6269-1.2201 0 .4067-1.7285-.6101-3.762-2.3386-5.2873-4.3721-5.4906-4.5755-8.9476-6.4057-3.152-1.7285-12.8114-5.0838-20.8439-7.3207-2.6436-.8134-3.9654-1.5252-3.0503-1.8302.8134-.3051.5083-.3051-.8135-.1017-2.4402.4067-9.0492-1.3218-21.0472-5.4906-3.8637-1.4235-8.3375-2.7453-9.9644-3.0503-2.3386-.4067-2.6436-.305-2.0335 1.2201.4067 1.3218.305 1.6269-.6101 1.1185-.7117-.5084-.9151-1.6269-.5084-2.9487.9151-2.9486.8134-2.9486 3.5587-1.8302 6.6091 2.6437 5.8973 2.4403 26.6395 7.0158 4.8805 1.1184 8.846 1.6268 8.846 1.2201 0-.5084-.6101-1.1184-1.2202-1.4235-.7117-.305.1017-.305 1.9319 0 1.7285.3051 3.457 0 3.8637-.5084.4068-.7117-.5083-1.1184-2.4402-1.1184-1.6269 0-3.7621-.305-4.7789-.7118-1.4234-.5083-1.6268-.305-1.1184 1.3219.7117 1.8301.6101 1.8301-.7117.1016-1.1185-1.4235-2.4403-1.7285-5.5923-1.4235-2.3386.2034-4.1688 0-4.1688-.4067 0-.7117-7.3208-2.1352-15.4549-2.8469-1.2202-.1017-.9151-3.152.2033-3.152.6101 0 1.0168.4067 1.0168.8134 0 .9151 14.4382 3.152 23.8942 3.6604 12.608.7117 46.6699-7.5242 46.7716-11.3879 0-.4067.8134-1.8302 1.7285-3.2537 1.7285-2.6436 2.1352-4.6771 1.9319-9.456-.1017-2.2369-.8134-3.152-3.3554-4.1687-2.8469-1.2202-3.457-1.2202-4.5755.305-1.1184 1.4235-1.2201 1.4235-1.3218 0 0-.8134.6101-2.3386 1.3218-3.2537 1.1185-1.6268 1.5252-1.6268 5.3889.305 3.4571 1.7286 4.4738 2.847 5.2873 6.2024 1.5251 5.9989-.9151 12.5063-5.7956 15.5566-4.5755 2.847-9.6594 5.2872-14.3366 6.609l-3.5587 1.1185 3.8638-.4067c6.2023-.8134 16.8784-6.7107 20.2338-11.2862 2.5419-3.457 2.9486-4.6772 2.3386-8.1342-1.6269-10.1677-6.9141-16.2684-11.7946-13.6248-4.1688 2.1352-5.3889 9.456-2.1353 12.2013 1.9319 1.5252 1.9319 1.6269-1.5251 3.9654-2.6436 1.8302-3.6604 2.1353-4.6772 1.1185-.9151-1.0168-.8134-1.1185.6101-.6101 1.0168.5084 1.7285.2034 1.7285-.5084 0-.7117-.8134-1.9318-1.7285-2.6436-1.6268-1.1184-1.3218-1.2201 1.7285-.4067 3.2537.9151 3.3554.8134 1.6268-.5084-1.1184-.8134-2.3385-1.5251-2.8469-1.5251-.4067 0-.8134-2.0336-.8134-4.4738 0-3.7621.61-5.0839 3.9654-8.7443 3.152-3.5587 4.4738-4.2705 6.609-3.8637 1.4235.305 2.6436.1016 2.6436-.4068 0-1.3218 3.152.6101 6.5074 3.9655zm-65.6836-.6101c-.6101 1.6268-1.2202 2.9486-1.3218 2.7453-.6101-.6101.8134-5.8973 1.6268-5.8973.4067 0 .305 1.4235-.305 3.152zm59.1762 4.9822c0 .5084-.4067 1.0168-.9151 1.0168-.61 0-1.3218-.5084-1.6268-1.0168-.305-.6101.1017-1.0168.9151-1.0168.9151 0 1.6268.4067 1.6268 1.0168zm-.7117 9.2526c1.0168 3.6604-1.6269 9.151-5.3889 11.6929-4.1688 2.847-18.2003 7.5242-22.2674 7.5242-1.4235 0-5.9989.7117-10.066 1.5251-6.1007 1.3218-9.6594 1.4235-19.0137.6101-6.304-.6101-13.2181-1.7285-15.2516-2.5419-2.1353-.9151-4.7789-1.6269-5.999-1.7286-1.9319 0-1.9319-.1016.4067-1.1184 1.4235-.6101 12.2013-1.1185 25.4194-1.3218 23.7925-.2034 28.2663-.8134 40.5693-5.4906 3.0503-1.1184 5.7956-1.9319 5.9989-1.6268.3051.2033-.305.7117-1.2201 1.1184-.9151.3051-1.6268 1.1185-1.6268 1.6269 0 1.3218 2.8469-1.0168 3.9654-3.152.5084-.9151 1.1184-2.847 1.5251-4.3722.5084-2.1352.3051-2.6436-.8134-2.2369-1.8302.7118-3.2537-1.6268-1.6268-2.6436 1.9318-1.2201 4.8805 0 5.3889 2.1352zM49.183 170.1063l3.0503 1.6269-3.2537.1017c-3.762 0-12.5063-2.1353-12.5063-3.0504 0-1.3218 9.761-.305 12.7097 1.3218zm170.6147 1.3218c-1.6268 2.6437-2.847 3.0504-3.8637 1.4235-.4068-.61-1.1185-.8134-1.6269-.5084-.5084.4067-.9151.1017-.9151-.4067 0-.61.5084-1.1184 1.1185-1.1184.61 0 1.7285-.7118 2.5419-1.5252.8134-.8134 2.1352-1.2201 2.9487-.9151 1.2201.5084 1.2201.9151-.2034 3.0503zm-28.063 10.1678c-.9151.9151-2.8469-.6101-2.1352-1.8302.4067-.6101 1.0168-.6101 1.7285.1017.6101.61.8134 1.3218.4067 1.7285zm-9.3543 4.4738c.305.5084.1017 1.0168-.4067 1.0168-.6101 0-1.1185-.5084-1.1185-1.0168 0-.6101.2034-1.0168.4068-1.0168.305 0 .8134.4067 1.1184 1.0168zm42.9079.6101c-.3051.305-1.2201.4067-1.9319.1016-.8134-.305-.5084-.61.6101-.61 1.1184-.1017 1.7285.2033 1.3218.5084zm-39.3492 5.2872c-.7117.305-1.6268-.2034-2.1352-.9151-1.6268-2.542-.9151-3.2537 1.2201-1.3218 1.3218 1.2201 1.6269 2.0335.9151 2.2369zm71.0725 14.3365c.2034.1017-.2033.8134-.9151 1.6268-1.4234 1.6269-3.0503 1.1185-3.0503-1.0167 0-1.1185.7118-1.2202 3.9654-.6101zm-69.0389 55.0075c1.0167 0 .61.8134-1.2202 2.5419-3.2536 2.9487-3.8637 3.152-3.8637.9151 0-.8134-.4067-1.2201-1.0168-.9151-.5084.305-1.0168.1017-1.0168-.4067 0-.6101.5084-1.1184 1.1185-1.1184.5084 0 .7117-.5084.305-1.2202-.5084-.8134 0-.9151 1.7285-.5084 1.3219.4067 3.152.7118 3.9655.7118z"/><path d="M275.9236 37.824c-4.4738 2.6436-10.5744 9.3543-12.608 13.9298-2.2369 5.2872-4.2704 26.3345-2.4402 25.216.61-.4067 1.1184-4.3721 1.2201-8.8459.305-13.1164 2.1352-17.6919 10.0661-25.216 6.8124-6.4057 7.4224-7.2191 3.762-5.0839z"/><path d="M275.9236 42.7045c-.305.6101 0 1.0168.7118 1.0168.9151 0 .9151.305-.2034 1.0168-1.3218.8134-1.3218 1.0168.2034 1.0168 2.3386 0 2.9486-1.2202 1.2201-2.7453-.8134-.8135-1.5252-.9151-1.9319-.3051zM271.5515 47.0767c-1.2201 1.3218-2.2369 2.7452-2.2369 3.3553-.1017.5084-.9151 2.7453-2.0335 4.9822-1.1185 2.3386-1.9319 6.304-2.0336 9.456 0 2.9487-.7117 9.6594-1.5252 15.0483-.9151 5.3889-1.4234 10.2694-1.2201 10.9811.2034.6101 1.0168-2.3386 1.6269-6.5073.7117-4.1688 1.7285-9.0493 2.2369-10.6762.5083-1.7285 1.1184-5.6939 1.4234-8.9476.7118-6.609 2.847-13.5231 5.1856-16.065 2.5419-2.847 1.2201-4.3721-1.4235-1.6268zM239.5231 57.1427c4.7789 5.3889 8.9476 13.0147 10.9812 20.0305 1.2201 4.1687 2.5419 7.0157 2.8469 6.5073 1.0168-1.6268-4.8805-17.2851-7.8291-20.6405-1.4235-1.8302-2.4403-3.6604-2.0336-4.1688.3051-.5083-.1016-.9151-.9151-.9151-.8134 0-1.7285-.7117-2.1352-1.5251-.305-.8134-1.1184-1.5252-1.7285-1.5252-.7117 0-.4067.9151.8134 2.2369zM225.5933 58.6679c0 1.2201.5084 2.5419 1.0168 2.847 1.3218.8134 1.3218-1.5252 0-3.5588-.8134-1.2201-1.0168-1.1184-1.0168.7118zM227.6269 57.9561c0 .5084.5083 1.0168 1.1184 1.0168.5084 0 .7118-.5084.4067-1.0168-.305-.61-.8134-1.0167-1.1184-1.0167-.2034 0-.4067.4067-.4067 1.0167zM231.7956 61.6165c0 1.1185.3051 1.4235.6101.6101.305-.7117.2034-1.6268-.1017-1.9319-.305-.4067-.61.2034-.5084 1.3218zM233.2191 67.1071c1.1185.5084 1.6269.9151 1.1185.9151-1.1185.1017 5.3889 6.2023 6.7107 6.2023.5084 0 .8134-.61.61-1.3218-.305-.61-1.1184-1.2201-1.9318-1.2201-.8134 0-1.5252-1.0168-1.7285-2.3386-.3051-1.9319-.6101-2.1352-1.8302-1.1184-1.2202 1.0167-1.3218.9151-.8135-.5084.5084-1.2202 0-1.6269-1.7285-1.5252-2.3386 0-2.3386.1017-.4067.9151zM207.5964 77.7832c-1.0168 1.1185-.305 1.4235 4.5755 1.3218 4.6772 0 5.2872-.2033 3.3553-.9151-1.4234-.61-3.152-.7117-3.8637-.5083-.7117.305-1.3218.1016-1.3218-.4067 0-1.4235-1.3218-1.2202-2.7453.5083zM200.6823 79.9185l-4.0671 1.3218 4.0671-.5084c4.0671-.6101 5.2873-1.1185 4.4739-1.8302-.2034-.2034-2.237.305-4.4739 1.0168zM219.2893 80.0201c.7118.3051 1.6269.2034 1.9319-.1016.4067-.3051-.2034-.6101-1.3218-.5084-1.1185 0-1.4235.305-.6101.61zM260.2653 81.952c0 1.1185.305 1.4235.6101.6101.305-.7118.2033-1.6269-.1017-1.9319-.305-.4067-.6101.2034-.5084 1.3218zM193.5649 83.3755c-1.0167 1.1184-1.6268 2.2369-1.3218 2.5419.3051.3051 1.3218-.4067 2.3386-1.5251 1.0168-1.1185 1.6268-2.2369 1.3218-2.542-.305-.305-1.3218.4067-2.3386 1.5252zM204.5461 82.3587c-1.8302.4067-3.3554.5084-3.3554.3051 0-.2034-1.3218.5083-2.8469 1.5251-1.9319 1.4235-3.3554 3.9654-4.6772 8.2359-2.1352 7.1174-1.6268 11.3879 1.7285 16.4717 2.0336 3.0504 2.9487 3.4571 7.1174 3.7621 2.7453.2033 4.5755.7117 4.2705 1.3218-.4067.5084.1017.9151.9151.9151 2.9486 0 2.5419-1.8302-.7118-3.0503-3.152-1.2202-3.762-1.4235-6.8123-2.1353-2.3386-.61-3.8638-2.3385-3.3554-3.6603.305-.7118 0-1.3218-.7117-1.3218-.6101 0-.8135-.5084-.5084-1.0168.305-.6101.2033-1.0168-.3051-1.0168-1.3218 0 .2034-8.6426 2.0336-11.3879.9151-1.2201 2.5419-3.3553 3.6604-4.4738 1.2201-1.2201 1.8302-2.5419 1.5251-2.8469-.4067-.3051.1017-.6101 1.0168-.6101.8134 0 1.7285.6101 2.0336 1.2201.305.9151.9151.7118 1.9318-.61 1.3218-1.7286 1.5252-1.7286 3.152-.1017 1.5252 1.4235 1.7285 1.5251 1.7285.1017 0-2.1353 1.0168-2.0336 2.542 0 .9151 1.4234 1.6268 1.4234 3.3553.5083 1.3218-.7117 2.2369-.8134 2.2369-.2033 0 .5084.9151 1.3218 2.0336 1.6268 1.1184.3051 2.0335 1.3218 2.0335 2.1353 0 .8134 1.0168 1.4234 2.3386 1.4234 2.1352 0 2.0336-.1016-.8134-2.5419-6.609-5.3889-12.8114-6.7107-21.5556-4.5755zm-6.4057 5.5923c-.7117.9151-1.5252 1.3218-1.7285 1.1184-.7117-.7117.7117-2.6436 1.9319-2.6436.61 0 .61.6101-.2034 1.5252z"/><path d="M208.1048 87.1376c.6101.2033 1.8302.2033 2.5419 0 .6101-.3051.1017-.5084-1.3218-.5084s-1.9318.2033-1.2201.5084zM214.1038 88.1543c.305.7118.61 1.3218.8134 1.3218.2033 0 .5084-.61.8134-1.3218.305-.8134-.1017-1.4234-.8134-1.4234-.7118 0-1.1185.61-.8134 1.4234zM220.5094 87.4426c0 .6101.7118 1.0168 1.5252 1.0168.8134 0 1.5252-.2034 1.5252-.4067 0-.2034-.7118-.6101-1.5252-1.0168-.8134-.305-1.5252-.1017-1.5252.4067zM253.758 91.103c.305 2.7453.7117 5.1855.9151 5.3889.8134.9151.305-7.6258-.5084-8.9476-.5084-.8134-.7118.5084-.4067 3.5587zM216.9507 88.4594c-.305.61.1017.7117.9151.4067 1.8302-.7118 2.1353-1.4235.7118-1.4235-.6101 0-1.3218.4067-1.6269 1.0168zM205.9696 89.6795c.2033.5084 1.5251.8134 2.9486.8134 1.3218 0 2.4403-.305 2.4403-.8134 0-.4067-1.3218-.7117-2.9487-.7117-1.6268 0-2.7453.305-2.4402.7117zM220.2044 92.2214c.305.7118.9151 1.3218 1.5252 1.3218 1.0167 0 5.2872 4.6772 8.1342 9.0493 1.0167 1.4235 1.6268 3.5587 1.3218 4.6772-.3051 1.1184-.2034 1.4235.1016.7117 1.0168-2.1352 2.4403-1.3218 2.4403 1.4235 0 1.4235-.4067 2.3386-.9151 2.0336-.4067-.3051-.8134 2.5419-.9151 6.304 0 6.7107-2.1352 16.8784-4.7788 23.2841-.9151 2.0335-1.0168 3.3553-.3051 3.5587 1.1185.4067-1.0167 5.8973-2.4402 5.8973-.5084 0-.4067-.9151.2033-2.0336 1.8302-3.3553.3051-2.3385-1.9318 1.4235-2.9487 4.6772-2.6436 5.1856 1.2201 2.542 4.1688-2.9487 5.7956-4.5755 5.2872-5.1856-.5084-.5084 1.2202-9.2526 4.5755-23.6908 1.6268-6.9141 1.9319-10.7778 1.5252-15.8617-.7118-6.8124-2.542-11.9979-2.542-7.1174 0 1.9319-.305 2.1352-1.4235 1.2201-1.8301-1.5252-2.7452-4.9822-1.4234-5.7956.61-.4067 1.4234 0 1.9318.7117.4067.7118 1.0168 1.1185 1.3218.9151.2034-.305-.2033-1.4234-1.0167-2.5419-1.4235-1.9319-1.6269-1.9319-2.847-.305-.7117 1.0167-1.7285 1.8302-2.2369 1.8302-1.2201 0-3.6604-3.9655-3.0503-4.8806.2033-.4067-.6101-.7117-1.9319-.7117-1.4235 0-2.1352.5084-1.8302 1.2201zM246.3355 93.5432c1.4235 7.9309 1.7285 18.912.6101 22.7758-.6101 2.4402-1.0168 5.4906-.8134 6.8124.8134 4.6771 3.2536-9.5577 3.152-17.8953-.2034-12.3029-.2034-12.913-1.2202-12.3029-.5084.4067-1.2201 0-1.5251-.6101-.3051-.7117-.4067-.2033-.2034 1.2201zM202.4109 93.2382c-1.6269.305-2.2369.9151-1.8302 1.9319.305.9151.1016 1.2201-.4067.9151-.6101-.4067-1.0168.7117-1.0168 2.5419 0 1.7285.4067 2.9487.9151 2.6436.4067-.305.61.5084.4067 1.7285-.2034 1.2202.2033 3.152 1.0168 4.1688 1.3218 1.8302 1.4234 1.5252 1.0167-3.0503-.61-6.304 1.0168-7.5241 8.6426-6.5074 2.9487.3051 5.5923.3051 5.8973-.1016.7118-1.2202-1.4235-2.1353-4.4738-1.9319-1.5252.1017-3.6604.2033-4.6772.1017-1.9318-.1017-1.9318-.2034-.2033-1.4235 1.6268-1.2201 1.5251-1.3218-.6101-1.3218-1.3218-.1017-3.3553.1017-4.6771.305z"/><path d="M210.7484 93.6449c-.5084.8134.1017 1.0168 1.9319.5084 1.4235-.305 2.9486-.1017 3.2537.4067.4067.6101 1.1184.7118 1.7285.4067 1.4235-.9151-1.1185-2.4402-3.9654-2.4402-1.2202 0-2.542.5084-2.9487 1.1184zM220.5094 96.5936c0 .5083.5084 1.0167 1.1185 1.0167.5084 0 .7117-.5084.4067-1.0167-.305-.6101-.8134-1.0168-1.1184-1.0168-.2034 0-.4068.4067-.4068 1.0168zM217.9675 97.712c-.4067.6101.305 2.1352 1.5252 3.457 1.5251 1.6269 2.6436 5.0839 3.762 11.4896 1.3218 7.4224 2.0336 9.151 3.3554 9.0493.9151 0 1.7285-.7118 1.7285-1.4235 0-.8134-.6101-1.2201-1.3218-.9151-.8134.305-1.0168-.2034-.6101-1.6268.4067-1.5252.7118-1.7286 1.3218-.6101.6101.8134.9151.1017.9151-2.2369 0-2.5419-.305-3.152-1.0167-2.0336-.8135 1.2202-1.0168 1.2202-1.5252-.2033-.4067-.9151-.7117-2.2369-.9151-3.0503-.1017-.7118-.4067-1.8302-.7117-2.3386-.4067-.6101-.9151-2.2369-1.3218-3.8638-.3051-1.5251-1.1185-2.7452-1.6269-2.7452-.61 0-1.0168-.6101-1.0168-1.4235 0-1.9319-1.7285-2.9487-2.5419-1.5252zM224.0682 100.6607c-.4068.61 0 1.7285.8134 2.3385.8134.7118 1.7285 1.9319 2.0335 2.7453.4067 1.1185.6101.9151.6101-.5084.1017-2.7452-2.542-6.1006-3.457-4.5754z"/><path d="M226.6101 108.6932c0 .5084.5084 1.3218 1.0168 1.6268.61.305 1.0167.2034 1.0167-.4067 0-.5084-.4067-1.3218-1.0167-1.6268-.5084-.3051-1.0168-.2034-1.0168.4067zM225.0849 124.2498c-.2033.7118-.61 2.9487-.9151 4.8805-1.2201 7.4225-1.5251 9.456-2.1352 11.2862-.4067 1.0168-.2034 1.9319.4067 1.9319s1.3218-1.2201 1.7285-2.847c.3051-1.5251 1.2202-4.3721 1.9319-6.304 2.5419-6.4056 2.9486-10.1677 1.0168-10.1677-.8134 0-1.7285.6101-2.0336 1.2201zM220.5094 145.297c-1.2201 2.4403-1.3218 3.4571-.1016 2.7453.9151-.61 2.2369-4.6771 1.5251-4.6771-.2033 0-.8134.9151-1.4235 1.9318zM239.5231 146.2121c-1.9319 2.0336-2.3386 3.7621-.7117 2.7453 1.0168-.61 3.3553-4.5755 2.7453-4.5755-.2034 0-1.1185.8135-2.0336 1.8302zM216.0356 154.6514c-3.5587 4.6771-11.0828 9.456-17.8952 11.2862-.8134.305-1.0168.7117-.4067 1.1184 2.1352 1.3218 13.1164-5.0839 18.5053-10.7778 2.847-3.152 5.2872-5.8973 5.2872-6.2023 0-1.6269-1.9319 0-5.4906 4.5755zM230.1688 155.6681c-3.3554 3.3554-5.7956 5.999-5.4906 5.999 1.0168 0 12.608-10.9812 12.0996-11.4895-.305-.2034-3.2536 2.2369-6.609 5.4905zM182.4821 166.5476c-.2034.4067 1.1184.6101 3.0503.4067 1.9319-.2033 3.457-.61 3.457-.8134 0-.8134-5.9989-.4067-6.5073.4067zM192.8532 167.4627c.61.2034 1.8302.2034 2.5419 0 .6101-.305.1017-.5084-1.3218-.5084s-1.9319.2034-1.2201.5084zM172.9244 170.513c-1.7285.7118-.5084 2.3386 1.8302 2.3386 1.0168 0 3.3554 1.9319 5.1856 4.2705 1.9318 2.4402 4.4738 5.5922 5.7956 7.0157 1.3218 1.4235 5.1855 7.8292 8.5409 14.2349 3.3553 6.4056 6.5073 11.6929 6.914 11.8962.4067.2034.6101 1.3218.3051 2.542-.4067 1.8301-.3051 1.9318.61.7117s1.0168-.6101.6101 2.6436c-.305 2.2369-.1017 5.2872.4067 6.609.9151 2.2369 1.0168 2.2369 1.2201.4067.1017-1.1184.1017-3.8637 0-6.1006-.1016-3.152.1017-3.7621.9151-2.5419.9151 1.2201 1.0168 1.0167.4067-1.0168-.4067-1.3218-1.3218-3.0503-2.0335-3.8637-.8134-.7118-1.4235-2.0336-1.4235-2.847 0-.8134-.4067-1.3218-.9151-.9151-.5084.305-1.2201.1017-1.6268-.5084-.3051-.5084-.1017-1.0168.5084-1.0168.61 0 .8134-.5084.5083-1.0167-.4067-.6101-1.1184-.7118-1.7285-.4068-.7117.5084-.9151-.1016-.5084-1.7285.3051-1.3218.2034-3.152-.305-3.9654-.9151-1.3218-1.0168-1.3218-1.0168 0-.1016 1.2201-.305 1.1185-1.1184-.2033-.5084-1.0168-.9151-2.0336-.9151-2.3386.1017-.4067-1.0168-2.1353-2.4403-4.0671-1.4235-1.8302-2.6436-3.6604-2.6436-4.0671 0-.3051-1.0168-1.6269-2.2369-2.9487-1.3218-1.3218-4.5755-4.9822-7.2191-8.1342-4.9822-5.6939-5.2872-5.9989-7.6258-4.9822z"/><path d="M194.0733 188.815c.1017 1.4235 7.8292 9.456 9.0493 9.456.7117 0 1.0168.4067.6101.9151-.3051.5084.2033 1.7285 1.1184 2.6436 1.3218 1.2201 1.9319 1.3218 2.4403.4067.61-.8134 1.1184-.6101 1.9318.8134.5084 1.1185.7118 2.3386.4068 2.7453-.3051.305 0 .6101.8134.6101 2.0335 0 4.6771 3.3553 4.1688 5.0838-.3051.8135-.1017 1.2202.305.7118 1.3218-1.1185 4.5755 2.4402 4.5755 4.9822 0 1.3218.5084 2.6436 1.1184 3.0503.6101.305.9151 1.4235.6101 2.4403-.305 1.0167.4067 2.8469 1.5251 3.9654 1.0168 1.2201 1.6269 2.1352 1.2202 2.1352-.3051 0-.2034.6101.305 1.2201.5084.7118 1.0168 3.7621 1.1185 6.7107 0 3.0504.61 5.999 1.1184 6.7108.6101.7117.8134 1.6268.4067 1.9318-.305.4067.2034 1.6269 1.2201 2.847 1.7286 1.7285 1.7286 2.2369.5084 2.9486-.8134.6101-1.1184 1.0168-.61 1.0168.5084 0 .305.6101-.3051 1.3218-.61.8134-.9151 1.6269-.7117 1.8302 1.1184 1.0168 1.7285 12.2013 1.8302 30.1982.1017 19.9288 1.1184 28.368 4.4738 36.7056 2.2369 5.6939 3.0503 4.5754 1.1184-1.6269-2.4402-7.7275-3.6603-20.6405-3.6603-40.4676-.1017-22.5724-.6101-35.4854-1.6269-37.1123-.4067-.7117-.9151-2.9486-1.0168-4.9822-.5083-6.304-5.3889-19.7254-9.6593-25.9277-6.304-9.6593-24.5043-26.9445-24.4026-23.2841zM204.2411 191.5603c0 .305.9151 1.0167 2.0335 1.6268 1.1185.6101 2.0336.8134 2.0336.6101 0-.3051-.9151-1.0168-2.0336-1.6269-1.1184-.61-2.0335-.8134-2.0335-.61zM211.3585 198.6777c0 .2033.7117.9151 1.5251 1.6268.9151.7118 1.5252.8134 1.5252.2034 0-.5084-.7117-1.2201-1.5252-1.6269-.8134-.305-1.5251-.4067-1.5251-.2033zM216.3407 204.1683c.61 1.2201 1.6268 2.4402 2.2369 2.8469.8134.4067.8134.1017 0-1.4234-.6101-1.2202-1.6269-2.4403-2.2369-2.847-.8135-.4067-.8135-.1017 0 1.4235z"/><path d="M208.3082 208.7438c0 .8134.61 1.8301 1.3218 2.1352.9151.5084.9151.7117 0 1.2201-.9151.4067-.9151 1.2201-.2034 3.2537 1.6268 4.1688 1.4235 15.2516-.5084 21.759-1.8302 6.4056-8.7442 14.4381-13.3197 15.6583-3.0503.7117-8.7443-1.3218-6.9141-2.4403.8134-.5084.9151-1.3218.305-2.2369-1.5251-2.3386-1.2201-3.457.6101-1.9319.8134.7118 1.3218 2.1353 1.1185 3.152-.3051 1.1185 0 1.8302.8134 1.8302s1.6268-.8134 1.8302-1.8302c.4067-1.6268.5084-1.6268.61 0 .2034 2.847 3.7621 2.1353 6.1007-1.1184 1.2201-1.6268 2.1352-3.3554 2.1352-3.7621 0-.4067.6101-1.5251 1.4235-2.3386 1.4235-1.8301 3.6604-9.761 3.6604-13.5231 0-1.5251-.6101-2.4402-1.8302-2.5419-1.4235-.1017-1.6269.6101-1.4235 4.0671.2034 2.3386-.5084 7.0158-1.6268 10.3711-1.8302 5.7956-2.1353 6.1007-5.4906 6.4057-2.9487.305-4.0671-.2034-6.304-2.847-1.4235-1.8302-2.3386-3.6604-2.0336-4.2704.9151-1.5252 1.1185-7.8292.2034-7.3208-.4067.2033-1.2201 3.0503-1.8302 6.2023-.9151 4.1688-.9151 6.304-.1017 8.1342 1.3218 2.9487 1.4235 3.3554.1017 3.3554s-4.0671-5.4906-4.0671-8.3376c0-1.3218.9151-4.0671 2.0335-6.2023 2.2369-4.1688 1.0168-5.1856-1.6268-1.2201-2.4403 3.762-2.0335 11.0828.8134 14.6415 3.3554 4.2705 11.998 8.0325 11.998 5.3889 0-.5084.9151-1.3218 1.9318-1.8302 4.5755-2.1352 11.6929-9.2526 13.5231-13.5231 1.5252-3.6604 1.8302-5.8973 1.3218-11.6929-.4067-3.9654-1.1184-8.8459-1.6268-10.7778-.5084-2.0335-.5084-3.6604 0-4.0671.5084-.305.1017-1.6268-1.0168-2.9486-1.3218-1.6269-1.9318-1.9319-1.9318-.8134zM223.2547 215.2511c1.9319 3.7621 3.2537 7.3208 2.9487 8.0325-.3051.7118.2033 1.8302 1.0168 2.4403 1.8301 1.5251 1.8301 1.3218-.1017-4.1688-2.0336-5.6939-5.7956-13.1164-6.6091-13.1164-.4067 0 .9151 3.0503 2.7453 6.8124z"/><path d="M206.2746 219.6232c0 .5084.5084 1.0168 1.1185 1.0168.5083 0 .7117-.5084.4067-1.0168-.3051-.61-.8135-1.0167-1.1185-1.0167-.2033 0-.4067.4067-.4067 1.0167zM184.9223 228.7742c-.9151.6101-1.0167 1.0168-.305 1.0168.6101 0 1.5252-.5084 1.8302-1.0168.8134-1.2201.4067-1.2201-1.5252 0zM229.7621 234.4681c0 1.1185.305 1.4235.6101.6101.305-.7117.2033-1.6268-.1017-1.9319-.3051-.4067-.6101.2034-.5084 1.3218zM219.391 249.313c-2.1352 4.2705-8.4392 9.5577-22.064 18.2003-10.1678 6.5074-8.2359 23.2841 2.3386 20.6405 1.4235-.305 2.5419-1.2201 2.5419-1.8302 0-1.6268 7.6258-8.7442 9.2527-8.7442.7117 0 .915-.3051.61-.6101-.4067-.4067.6101-2.3386 2.2369-4.3721 3.8638-4.7789 6.9141-14.0315 5.2872-15.6584-.8134-.8134-1.1184-.7117-1.1184.3051 0 .8134-1.7285 3.3553-3.6604 5.5922-2.3386 2.542-3.152 4.1688-2.3386 4.4738.7118.2034 1.8302-.4067 2.6436-1.5251 1.2202-1.7285 1.3218-1.7285 1.3218.4067 0 1.2201-.5083 2.2369-1.1184 2.2369-.5084 0-.7117.5084-.305 1.2201.5083.8134.2033.9151-.9151.5084-.9151-.305-1.6269-.305-1.6269.1017.3051 1.9319-.2033 3.3553-1.1184 2.7453-.5084-.3051-.7118-1.2201-.3051-2.0336.3051-.8134.1017-1.5251-.4067-1.5251-.9151 0-1.1184.61-1.5251 4.9822-.1017 1.1184-.5084 1.8302-.9151 1.5251-.3051-.2033-1.7285 1.0168-3.0503 2.7453-1.3219 1.7285-3.6604 4.0671-5.1856 5.0839-2.7453 2.0335-2.847 2.0335-5.3889.2033-1.8302-1.3218-2.4403-2.8469-2.5419-5.2872 0-2.9486.8134-4.3721 5.2872-8.3375 2.847-2.7453 5.5922-4.6772 5.999-4.3722.4067.2034 1.3218-.5083 1.9318-1.6268.6101-1.1185 1.5252-1.8302 2.1353-1.5252.5083.4067 1.2201-.1016 1.5251-1.0167.4067-.9151 2.3386-2.542 4.4738-3.5587 4.1688-2.1353 8.5409-8.0326 7.9309-10.7779-.2034-1.2201-.8135-.61-1.9319 1.8302z"/><path d="M222.0346 253.1768c-.305.5084-.1017 1.9319.5084 3.0503 1.3218 2.5419-.305 9.6594-2.5419 10.5745-.8135.305-1.2202 1.1184-1.0168 1.8302.7117 1.8301-8.1342 13.7264-10.7778 14.5398-1.0168.4067-1.9319 1.1185-1.9319 1.6269 0 .5083-.7117.9151-1.5252.9151-.8134 0-1.2201.61-1.0167 1.3218.8134 1.9318-4.5755 3.762-8.9476 3.0503-4.6772-.7118-6.4057-3.152-6.7108-9.2527-.2033-5.2872 3.152-13.0147 6.1007-13.9298 1.9319-.61 2.7453-2.5419 1.0168-2.5419-1.5252 0-7.7275 6.609-8.0326 8.6426-.2033 1.1184-.8134 2.5419-1.3218 3.152-1.4234 1.7285-.2033 7.5241 2.6437 11.6929 2.2369 3.5587 3.0503 3.9654 6.7107 3.9654 4.3721 0 7.3207-1.1184 10.5744-4.1688 1.1185-1.0167 3.9654-3.457 6.304-5.4906 2.4403-2.1352 5.4906-6.304 7.1174-9.456 1.5252-3.2536 3.6604-7.0157 4.6772-8.4392 1.5252-2.1352 1.8302-3.6604 1.2201-6.914-.7117-4.2705-1.9318-5.999-3.0503-4.1688z"/><path d="M205.2578 267.5133c0 .5084.5084.7117 1.0168.4067.6101-.305 1.0168-.8134 1.0168-1.1184 0-.2034-.4067-.4068-1.0168-.4068-.5084 0-1.0168.5084-1.0168 1.1185zM205.9696 269.9536c-1.0168.7117-1.4235 1.6268-.9151 1.9318.5084.3051 1.5251-.1016 2.2369-.9151 1.7285-2.1352.9151-2.7453-1.3218-1.0167zM199.3605 271.4787c-3.0503 2.847-5.3889 7.7275-4.6771 9.5577.9151 2.4403 1.8302 2.0335 5.9989-2.6436l3.8638-4.1688-2.4403-1.0168c-2.0335-.8134-2.1352-1.1184-.61-1.4234.9151-.3051 1.7285-.9151 1.7285-1.4235 0-1.5252-1.5252-1.0168-3.8638 1.1184zm1.4235 3.4571c1.5252 1.6268.2034 3.2536-1.6268 2.1352-.5084-.3051-1.0168-.1017-1.0168.4067 0 .6101-.4067 1.1184-1.0168 1.1184-.61 0-.5084-1.0167.2034-2.5419 1.3218-2.9486 1.5252-3.0503 3.457-1.1184zM222.9497 281.2398c-.9151 2.1352-1.5252 7.1174-1.6268 12.913 0 8.0325.4067 10.6761 3.152 18.5053 3.0503 8.8459 10.3711 21.2506 13.1163 22.369 1.6269.6101-.1016-2.847-2.9486-5.8973-2.1352-2.3386-6.609-11.5912-7.6258-15.6583-.4067-1.6268-1.3218-3.7621-2.0336-4.8805-1.9318-2.7453-1.7285-4.3722.2034-1.9319 1.5252 1.8302 1.5252 1.8302 1.0168-.6101-.3051-1.4234-.6101-3.0503-.6101-3.762 0-.7118-.6101-1.0168-1.4235-.7118-1.1184.4067-1.3218 0-.9151-1.6268.4067-1.4235.8135-1.8302 1.3218-1.0168.4067.7118.6101-3.2537.5084-8.8459-.1017-5.4906.2034-10.5745.8134-11.2862.6101-.8134.6101-1.2201-.2033-1.2201-.7118 0-1.9319 1.6268-2.7453 3.6604zM211.4602 295.5763c0 .4067.4067 1.7285.915 2.8469.8135 1.9319.9151 1.9319.9151-.2033.1017-1.2201-.305-2.542-.9151-2.847-.5083-.305-1.0167-.305-.915.2034zM76.1275 120.9961c0 .5084.5084 1.0168 1.0168 1.0168.61 0 1.0168-.5084 1.0168-1.0168 0-.61-.4068-1.0167-1.0168-1.0167-.5084 0-1.0168.4067-1.0168 1.0167zM86.2953 123.9448c-2.4403.7117-2.4403.7117-.3051 1.3218 1.4235.4067 2.4403.1017 2.7453-.8134.305-.8134.4067-1.4235.305-1.3218-.1016.1016-1.3218.4067-2.7452.8134zM81.2114 125.9783c0 1.2202 4.0671 4.0671 11.2862 7.7275 4.0671 2.0336 5.5922 3.4571 5.2872 4.5755-.4067 1.3218-.4067 1.3218.6101 0 .9151-1.3218 1.5251-1.3218 4.3721-.2034 1.8302.8135 4.2704 1.6269 5.3889 1.9319 2.0335.4067 2.0335.4067.1017-1.1184-1.1185-.9151-2.847-1.6269-3.9654-1.6269-1.0168 0-1.6269-.305-1.4235-.8134.305-.4067-.8134-.7117-2.4403-.8134-3.3553-.1017-9.2526-3.5587-7.2191-4.2705.7118-.2033 2.2369.4067 3.2537 1.3218 1.8302 1.6269 1.8302 1.6269 1.3218-.4067-.5084-2.1352-1.7285-2.5419-5.8973-2.2369-1.2201.1017-3.8637-1.0167-5.8973-2.4402-4.2704-2.847-4.7788-2.9487-4.7788-1.6269zM98.5982 128.0119c-1.0168.61-.9151 1.0168.3051 1.4235.8134.305 1.8301.2033 2.1352-.3051.8134-1.3218-.9151-2.0335-2.4403-1.1184zM118.3236 131.0622c.3051.5084-.305 1.2201-1.2201 1.4235-1.4235.4067-1.3218.5084.5084.6101 1.3218.1016 2.2369-.5084 2.2369-1.4235 0-.8134-.5084-1.5252-1.1185-1.5252-.5083 0-.8134.4067-.4067.9151zM99.7167 131.6723c.2033.2033 2.9486.8134 6.2023 1.4235 4.5755.8134 6.304.8134 7.2191-.2034 1.0168-.9151-.305-1.2201-6.2023-1.3218-4.1688-.1017-7.4225 0-7.2191.1017zM112.8331 136.8578c0 1.1185.305 1.4235.61.6101.3051-.7118.2034-1.6269-.1017-1.9319-.305-.4067-.61.2034-.5083 1.3218zM102.5636 141.84c-.7117.9151-.8134 1.5252-.2033 1.5252.5084 0 1.2201-.7118 1.6268-1.5252.3051-.8134.4067-1.5251.2034-1.5251-.2034 0-.9151.7117-1.6269 1.5251zM99.0049 142.3484c.3051.5084.8134 1.0168 1.1185 1.0168.2033 0 .4067-.5084.4067-1.0168 0-.6101-.5084-1.0168-1.1185-1.0168-.5083 0-.7117.4067-.4067 1.0168zM124.831 134.9259c-.6101 3.4571-.7118 6.2024-.305 7.6259 1.0167 3.3553 1.9318 1.8301 2.2369-3.2537.2033-3.0503-.1017-5.0839-.7118-5.0839-.61 0-1.2201.305-1.2201.7117zM271.1448 145.0937c.7117.305 1.6268.2033 1.9319-.1017.4067-.305-.2034-.6101-1.3218-.5084-1.1185 0-1.4235.3051-.6101.6101zM277.0421 145.297c-.4067.5084.6101 1.7286 2.2369 2.542 3.457 1.7285 4.9822 4.8805 5.8973 11.8962.5084 3.7621.9151 4.7789 1.6268 3.6604.5084-.9151.5084-2.9486.1017-4.4738-.4067-1.5251-.8134-3.0503-.9151-3.3553-.7117-3.152-3.8637-8.3376-5.2872-8.846-.9151-.4067-2.0336-1.1184-2.3386-1.6268-.4067-.5084-.9151-.5084-1.3218.2033zM283.5494 170.8181c0 2.9486-13.3197 11.1845-20.3354 12.5063-2.4403.4067-2.4403.4067.305.6101 1.6268 0 5.3889-1.0168 8.4392-2.4403 3.0503-1.4235 5.7956-2.5419 6.1007-2.5419.8134 0 2.6436-2.0336 5.3889-5.8973 1.2201-1.7285 1.8302-3.2537 1.2201-3.2537-.6101 0-1.1185.4067-1.1185 1.0168zM245.4204 183.0194c-.4067.61-.4067 1.0167-.1017 1.0167.2034 0 1.1185.3051 2.0336.6101.9151.305 1.6268.2034 1.6268-.4067 0-1.4235-2.8469-2.3386-3.5587-1.2201zM286.0914 183.0194c-.4067.61.61 1.0167 2.2369 1.0167 2.2369 0 2.5419-.2033 1.3218-1.0167-1.9319-1.2202-2.7453-1.2202-3.5587 0zM239.8282 185.0529c-1.2202.8134-1.0168 1.0168 1.0167 1.0168 1.4235 0 3.6604.305 5.0839.6101 1.8302.4067 1.6268.1016-.9151-1.0168-3.9654-1.9319-3.3554-1.8302-5.1855-.6101zM279.0756 186.5781c-1.3218 1.0168-2.4402 1.1184-3.762.5084-1.1185-.7118-2.0336-.7118-2.4403-.1017-.6101 1.1184 4.5755 2.1352 9.3543 1.8302 1.7286-.1017 2.9487-.5084 2.6436-1.0168-.7117-1.2201 1.2202-.8134 2.7453.5084 1.2202 1.1184 1.2202 1.0168.2034-.4067-1.0168-1.3218-1.0168-1.7285 0-2.1352.9151-.4068.8134-.6101-.2034-.6101-.9151-.1017-2.2369.5084-2.9486 1.1184-1.1185 1.0168-1.4235 1.0168-1.8302 0-.6101-1.5251-1.3218-1.5251-3.7621.3051zM291.4803 189.3234c-.3051 1.5251-.2034 3.2536.2033 3.8637 1.0168 1.7285 1.9319-2.1352 1.0168-4.5755-.6101-1.7285-.7117-1.6268-1.2201.7118zM243.1835 188.815c.9151.2033 2.3386.2033 3.0503 0 .6101-.3051-.1016-.5084-1.8302-.5084-1.6268 0-2.2369.2033-1.2201.5084zM252.3345 189.2217c.9151.5084 2.2369.7117 2.9486.305.6101-.4067.8134-.305.4067.4067-.61 1.1185 4.3722 5.2873 6.4057 5.2873.6101 0 1.1185.5083 1.1185 1.1184 0 .5084.5083.7118 1.2201.305.7117-.4067.8134-.305.4067.4068-.4067.8134 0 1.2201 1.1184 1.2201 1.5252 0 1.6269.2033.3051 1.0168-1.1185.7117-1.9319.5083-3.0503-.8135-.9151-1.0167-2.1353-1.7285-2.847-1.4234-.6101.2033-1.2201-.2034-1.2201-.8135 0-.7117-.6101-1.0167-1.4235-.7117-.8134.305-3.2537-.7118-5.4906-2.3386-3.7621-2.7453-5.2872-2.9486-5.2872-.8134 0 .4067.4067.8134.9151.8134s4.8805 2.3386 9.6593 5.0839c7.9309 4.6771 9.8627 6.4057 13.6248 11.7946 1.0168 1.6268 1.1184 1.5251.1017-.6101-.6101-1.4235-2.3386-3.7621-3.7621-5.2872-1.4235-1.5252-2.2369-3.152-1.8302-3.5587 2.1352-2.1353 9.9644 11.8962 10.4728 18.6069.2033 3.6604-.1017 4.6772-2.2369 6.304-1.4235 1.1185-2.5419 2.542-2.5419 3.2537 0 .6101 1.4234-.305 3.2536-2.0335 4.8805-4.9822 5.4906-11.3879 1.6269-19.1154-2.542-5.1855-10.0661-13.3197-12.4047-13.4214-.4067 0-2.5419-1.4235-4.6771-3.0503-2.1353-1.7286-4.8806-3.0504-6.2024-3.0504-2.1352.1017-2.2369.2034-.61 1.1185zM237.7946 190.0351c0 .6101.6101 1.1185 1.3218 1.1185.6101 0 2.3386.305 3.7621.61 1.8302.4067 2.1352.3051 1.0167-.4067-2.7452-1.7285-6.1006-2.4402-6.1006-1.3218zM284.5662 192.7804c2.1352 2.4403 4.7789 3.5587 4.7789 1.9319 0-.7118-.6101-1.1185-1.4235-.8134-.7118.305-1.3218-.2034-1.3218-1.1185s-.7118-1.6268-1.6269-1.6268c-1.4235 0-1.4235.305-.4067 1.6268z"/><path d="M238.303 194.1022c6.8124 1.7285 15.3533 5.6939 19.1153 9.0493 1.0168.9151 1.7286 1.1184 1.7286.4067 0-1.2201-7.3208-6.304-9.0493-6.304-.5084 0-1.4235-.6101-2.0336-1.4235-.7117-.8134-4.0671-1.9318-7.6258-2.5419-9.2526-1.6269-10.3711-1.2201-2.1352.8134zM280.7025 199.7961c1.5251 1.4235 3.5587 2.542 4.5755 2.4403 1.6268 0 1.5251-.1017-.2034-.9151-1.2201-.4067-2.7453-1.5252-3.457-2.4403-.7118-.9151-1.8302-1.6268-2.542-1.6268-.61 0 .1017 1.1185 1.6269 2.5419zM271.9582 213.3192c-.305.6101-.2033 1.3218.4067 1.7286.5084.305 1.1185 1.6268 1.1185 2.8469.1017 1.4235.305 1.6269.61.6101.5084-2.1352-1.2201-6.609-2.1352-5.1856zM258.6385 216.6746c-1.0168 2.9486 1.2201 7.5241 4.3721 9.151 4.3721 2.1352 4.8805 2.2369 2.7453.5083-1.9319-1.6268-1.9319-1.6268.8134-1.0167 2.847.61 6.8124-1.6269 6.8124-3.9654 0-.6101-.9151-.2034-1.9319.7117-3.8637 3.5587-10.2694.1017-10.2694-5.3889 0-2.7453-1.7285-2.7453-2.5419 0zm3.3553 6.5073c.4067.6101-.1016.2034-1.0167-.8134-1.0168-1.1184-1.8302-2.7453-1.7286-3.6604 0-1.0167.4067-.7117 1.0168.8135.5084 1.4234 1.3218 3.0503 1.7285 3.6603zM260.1636 227.1474c0 .305.9151 1.0167 2.0336 1.6268 1.1184.6101 2.0335.8134 2.0335.6101 0-.3051-.9151-1.0168-2.0335-1.6269-1.1185-.61-2.0336-.8134-2.0336-.61zM256.91 172.8516c-3.152 1.1185-9.5577 2.4403-14.2349 3.152-8.3375 1.1185-28.1646 1.6269-29.8931.7118-.5084-.2034-2.542-.1017-4.4738.2033l-3.5588.6101 3.6604.7117c5.4906 1.1185 27.5546 1.0168 30.5033-.1016 1.4234-.6101 5.1855-1.3219 8.3375-1.7286 3.152-.4067 8.5409-1.8302 12.0996-3.152 7.6258-2.7453 5.8973-3.0503-2.4402-.4067zM153.4023 30.8083c0 .4067 15.3533 11.0828 21.8607 15.1499 2.847 1.7285 6.1006 4.0671 7.4224 5.1856 1.3218 1.2201 2.2369 1.6268 2.2369.8134 0-.6101-3.5587-3.4571-7.8291-6.2023-4.3721-2.7453-11.1845-7.3208-15.15-10.0661-6.5073-4.6772-8.5409-5.7956-8.5409-4.8805zM240.8449 33.0452c0 3.0503 1.6269 3.3553 2.3386.5084.4067-1.7286 1.1185-1.9319 3.152-1.4235 1.6268.4067 2.6436.2033 2.6436-.5084 0-.6101-1.7285-1.1185-4.0671-1.1185-3.6604 0-4.0671.2034-4.0671 2.542zM250.5043 35.5871c-.3051.5084-.2034 1.0168.4067 1.0168.5084 0 1.3218-.5084 1.6268-1.0168.3051-.6101.2034-1.0168-.4067-1.0168-.5084 0-1.3218.4067-1.6268 1.0168zM245.2171 36.8072c-2.3386.6101-3.3554 1.5252-3.3554 2.847 0 2.3386 1.8302 2.7453 2.6436.5084.4067-.8134 1.2201-1.5252 1.9319-1.5252 1.3218 0 3.152-1.8302 2.4402-2.4402-.2033-.2034-1.9318.1017-3.6603.61zM244.4036 43.7213c-1.1184 1.3218-1.5251 2.5419-1.0167 3.7621.8134 1.7285.8134 1.7285 1.2201 0 .5084-1.8302 3.8637-2.3386 4.8805-.7118.305.5084 1.0168 1.0168 1.5252 1.0168 1.5251 0 .1016-2.4403-2.4403-4.2705-2.2369-1.6268-2.5419-1.6268-4.1688.2034zM188.2777 52.5672c-1.5252.6101-1.7285 3.9655-.305 4.8806.61.305 1.0167-.1017 1.0167-1.0168 0-.9151.9151-1.9319 2.0336-2.2369 1.1184-.3051 1.7285-.9151 1.4235-1.4235-.6101-1.0168-2.1353-1.0168-4.1688-.2034zM193.0565 56.9394c-1.1184 1.1184-1.7285 2.6436-1.4234 3.5587.9151 2.1352 2.1352 1.9318 2.7452-.6101.3051-1.1184 1.5252-2.3386 2.6437-2.6436 1.2201-.305 2.1352-.9151 2.1352-1.4235 0-1.6268-4.0671-.9151-6.1007 1.1185zM199.3605 60.5998c-2.6436 1.8301-2.9486 4.6771-.5083 6.609 1.5251 1.2201 1.6268 1.2201 1.0167-.4067-.9151-2.542.9151-5.7956 3.3554-5.7956 1.1184 0 2.0335-.5084 2.0335-1.0168 0-1.5252-3.3553-1.2201-5.8973.6101zM173.7378 121.4029c0 .915.5084 1.6268 1.0168 1.6268.6101 0 1.0168-.4067 1.0168-.9151 0-.6101-.4067-1.3218-1.0168-1.6268-.5084-.3051-1.0168.1016-1.0168.9151zM153.4023 123.3347c0 .8134.7118 1.7285 1.5252 2.1352.8134.3051 1.5252.2034 1.5252-.305s-.7118-1.4235-1.5252-2.1352c-1.2201-1.0168-1.5252-1.0168-1.5252.305zM211.8669 125.1649c-.4067.6101-1.8302.8134-3.3554.4067-2.2369-.5084-2.4403-.4067-1.3218.9151.8134.9151 2.1352 1.6269 3.152 1.6269 2.2369 0 4.5755-2.6437 3.152-3.4571-.5084-.4067-1.3218-.1016-1.6268.5084zM157.4694 125.8767c0 1.2201 1.9319 2.6436 2.6437 1.9318.2033-.2033-.2034-1.0167-1.1185-1.7285-.9151-.8134-1.5252-.8134-1.5252-.2033zM179.8385 129.1303c0 .5084.5084 1.0168 1.0167 1.0168.6101 0 1.0168-.5084 1.0168-1.0168 0-.61-.4067-1.0167-1.0168-1.0167-.5083 0-1.0167.4067-1.0167 1.0167zM132.0501 130.1471c0 .5084.7117 1.0168 1.5251 1.0168.8135 0 1.5252-.5084 1.5252-1.0168 0-.6101-.7117-1.0168-1.5252-1.0168-.8134 0-1.5251.4067-1.5251 1.0168zM176.4831 129.8421c-1.2201 1.1184-.8134 2.3386.8134 2.3386.8135 0 1.5252-.7118 1.5252-1.5252 0-1.6268-1.2201-2.0336-2.3386-.8134zM204.4444 130.1471c.7118 2.1352 6.9141 2.6436 6.9141.6101 0-1.9319-1.1185-2.1353-2.847-.4067-.8134.8134-1.5252.8134-2.847-.3051-1.5251-1.2201-1.7285-1.2201-1.2201.1017zM36.7783 135.3327c-.4067 1.6268-1.1184 1.9318-2.9486 1.5251-1.2201-.305-8.1342-.9151-15.3533-1.2201-13.2181-.6101-19.217.305-18.4036 2.847.6101 1.8302 2.847 2.2369 2.847.5083 0-1.8301 3.0503-2.7452 9.6593-2.7452 4.1688 0 6.1007.7117 10.7778 3.8637 3.152 2.0335 6.6091 4.2704 7.6258 4.8805 1.6269 1.0168 1.4235 1.1185-1.2201.7118-3.2537-.5084-5.1855.8134-3.9654 2.7452.5084.8135 1.1184.7118 2.1352-.1016.8134-.7118 4.3721-1.1185 8.6426-1.0168l7.1174.1017 7.3208 6.4056c12.0996 10.5745 23.5891 15.9634 33.7569 15.8617h4.0671l-3.0503-1.3218c-1.6269-.7117-3.3554-1.1184-3.7621-.9151-.8134.4067-11.4895-2.9486-15.76-5.0838-1.2201-.5084-2.0335-1.4235-1.7285-1.8302.305-.5084-.1017-.6101-.9151-.3051-1.3218.5084-13.5231-8.5409-12.608-9.3543.6101-.6101 6.8124 1.7285 6.7107 2.4403-.1017.4067-.1017 1.4234 0 2.2369.1017 1.2201.5084 1.1184 1.6268-.4067.9151-1.2202 2.0336-1.6269 3.2537-1.2202 2.3386.9151 14.0315 1.8302 13.2181 1.0168-.3051-.305-4.8805-1.4235-10.1678-2.4403-5.2872-1.0167-12.3029-2.9486-15.5566-4.2704-5.2872-2.0336-6.304-2.9487-8.7443-7.4225-1.9318-3.6603-2.3385-5.2872-1.5251-5.7956 2.3386-1.5251 4.0671-.9151 3.457 1.2202-.6101 2.2369.9151 2.6436 3.3554 1.0167 1.3218-.9151 1.2201-1.2201-.4068-2.5419-1.1184-.8134-3.5587-1.5252-5.4905-1.5252-2.6436 0-3.5587.5084-3.9655 2.1353zm-2.8469 2.9486c1.5251 0 3.152 1.3218 4.9822 4.0671l2.6436 4.0671h-2.5419c-3.0504 0-8.6426-2.7453-13.7265-6.609l-3.5587-2.7453 4.9822.61c2.7453.3051 5.999.6101 7.2191.6101zM133.0669 134.2142c0 .5084.5083 1.0168 1.1184 1.0168.5084 0 .7118-.5084.4067-1.0168-.305-.6101-.8134-1.0168-1.1184-1.0168-.2034 0-.4067.4067-.4067 1.0168zM154.0124 142.5518c-6.304 6.4056-8.2359 8.9476-6.8124 8.9476 1.1185 0 3.0503-1.3218 4.3722-2.847 2.3385-2.7453 4.5754-3.152 6.1006-.9151 1.0168 1.5252 5.7956-1.9319 6.4057-4.6772.2033-1.2201.4067-3.0503.2033-4.1687-.1016-1.3218.8134-2.2369 3.0504-3.0504 5.0838-1.8301 5.1855-2.7452.2033-2.4402-4.3721.305-5.2872.9151-13.5231 9.151zM139.4725 135.9427c-1.8302.7118-1.6268 2.3386.2034 2.3386.8134 0 1.5252-.7117 1.5252-1.5252 0-.8134-.1017-1.5251-.2034-1.4234-.2034 0-.9151.305-1.5252.61zM206.5796 135.9427c-.7117.3051-1.3218 1.1185-1.3218 1.8302 0 .8134-.8134 1.8302-1.7285 2.4403-1.0168.5084-1.5251 1.3218-1.1184 1.6268 1.3218 1.3218 3.8637-.4067 4.8805-3.152 1.2201-3.0503 1.1184-3.3553-.7118-2.7453zM172.7211 142.7551c0 2.5419-7.3208 9.0493-13.1164 11.6929-5.999 2.847-6.8124 4.6772-1.7285 3.8638 4.7788-.8135 11.1845-5.0839 14.3365-9.5577 2.7453-4.0671 3.152-5.8973 1.5251-6.9141-.5084-.305-1.0167.1017-1.0167.9151zM74.1956 144.7887c1.1185 1.0167 8.0326 3.457 8.0326 2.7452 0-.4067-1.5252-1.2201-3.3554-1.9318-3.3554-1.2202-5.4906-1.6269-4.6772-.8134zM137.6423 145.3987c-.305.5084-.2033 1.0168.4068 1.0168.5083 0 1.3218-.5084 1.6268-1.0168.305-.61.2033-1.0168-.4067-1.0168-.5084 0-1.3218.4068-1.6269 1.0168zM85.5835 148.5507c1.4235.8134 1.6268 1.4235.6101 2.542-.7118.8134-.7118 1.4234-.1017 1.4234.5084 0 1.3218-.8134 1.6268-1.7285.6101-1.6268-.9151-3.3553-2.9486-3.3553-.5084.1016-.2034.5084.8134 1.1184zM183.9056 148.9574c0 .8135.4067 1.5252 1.0167 1.5252.5084 0 .7118-.7117.4068-1.5252-.4068-.8134-.8135-1.5251-1.0168-1.5251-.2034 0-.4067.7117-.4067 1.5251zM90.8707 149.6692c1.1185.61 2.3386 1.6268 2.7453 2.2369.5084.8134.8134.7117.8134-.1017 0-.7117-.9151-1.7285-1.9318-2.3386-2.7453-1.4235-4.1688-1.2201-1.6269.2034zM186.9559 149.5675c0 .5084.5084.7117 1.0168.4067.61-.305 1.0167-.8134 1.0167-1.1184 0-.2034-.4067-.4068-1.0167-.4068-.5084 0-1.0168.5084-1.0168 1.1185zM96.463 151.8044c0 .9151.4067 1.9319 1.0168 2.2369.61.4067.7117-.1017.305-1.1184-.5084-1.3219-.305-1.5252 1.3218-.6101 2.1352 1.1184 12.4047 2.7453 11.4896 1.8302-.3051-.3051-2.847-1.0168-5.5923-1.5252s-5.7956-1.3218-6.7107-1.6268c-1.3218-.5084-1.8302-.2034-1.8302.8134zM141.4044 151.9061c-3.6604 2.1352-3.8637 2.7453-.4067 1.5251 1.8302-.61 3.2537-1.5251 3.2537-2.0335 0-.5084-.1017-.9151-.2034-.8134-.2033.1016-1.3218.7117-2.6436 1.3218zM152.894 151.4994c-.3051.5084-.1017 1.0167.4067 1.0167.61 0 1.1184-.5083 1.1184-1.0167 0-.6101-.2033-1.0168-.4067-1.0168-.305 0-.8134.4067-1.1184 1.0168zM179.0251 152.1094c-3.6604 2.542-2.4403 8.5409 1.8301 8.5409 1.0168 0 1.1185-.305.3051-.8134-.8134-.5084-.8134-1.1184.1017-2.4402.7117-1.0168 1.5251-1.6269 1.7285-1.3218.305.2033.5084-.8135.61-2.3386.2034-2.6436.2034-2.6436-.8134-.4067-.5084 1.4234-1.3218 2.0335-2.1352 1.6268-.8134-.5084-.9151-.2034-.5084.9151.305.9151.2034 1.9319-.4067 2.2369-.5084.4067-1.2201-.1017-1.5252-.9151-.7117-1.8302 1.4235-4.9822 2.7453-4.0671.5084.305.9151-.2033.9151-1.0168 0-2.0335 0-2.0335-2.8469 0zM174.2462 152.5161c-.305.5084-.1017 1.0168.4067 1.0168.6101 0 1.1185-.5084 1.1185-1.0168 0-.61-.2034-1.0167-.4067-1.0167-.3051 0-.8135.4067-1.1185 1.0167zM195.3951 153.7363c.2034.7117-.2033 2.1352-1.1184 3.0503-1.7285 2.1352-.3051 2.4403 2.9486.8134 2.4403-1.4235 2.4403-2.2369-.2033-3.8637-1.8302-1.1185-2.0336-1.1185-1.6269 0zM117.6119 154.3463c-1.0168.2034-1.8302.8135-1.8302 1.3218 0 .6101.5084.7118 1.2201.3051.7118-.5084 2.542-.7118 4.0671-.6101 1.5252.1017 2.847.1017 2.847-.2033 0-.6101-4.4738-1.2202-6.304-.8135zM143.8447 155.1598c-.5084 1.4234-.4067 1.5251.9151.4067 1.3218-1.0168 1.5251-.9151 1.5251.7117 0 1.0168-.61 2.5419-1.2201 3.2537-1.1185 1.0168-.8134 1.0168 1.2201.305 1.8302-.7117 3.152-.5084 4.7789.5084 4.4738 2.9486 4.2704.7117-.3051-3.0503-5.3889-4.2705-5.9989-4.4738-6.914-2.1352zM170.4842 154.8547c-.7118.8134-2.0336 1.6269-2.847 2.0336-1.3218.4067-1.2201.61.1017.61.9151.1017 2.4402-.8134 3.457-1.9318 2.0335-2.2369 1.4235-2.847-.7117-.7118z"/><path d="M77.4493 156.7866c0 1.3218.1017 1.7285.4067 1.0168.3051-.6101 2.1353-1.2202 4.1688-1.2202 4.3721 0 4.0671-.5083-.8134-1.4234-3.2537-.5084-3.6604-.4068-3.7621 1.6268zM140.1843 156.0749c0 .8134.4067 1.5251 1.0168 1.5251.5083 0 .7117-.7117.4067-1.5251-.4067-.8135-.8135-1.5252-1.0168-1.5252-.2034 0-.4067.7117-.4067 1.5252zM66.9765 156.6849c0 .5084.5084.7118 1.0168.4067.6101-.305 1.0168-.8134 1.0168-1.1184 0-.2034-.4067-.4067-1.0168-.4067-.5084 0-1.0168.5084-1.0168 1.1184zM133.5752 156.5832c-1.9318.8135-1.9318.9151.2034.9151 1.2201.1017 2.5419-.4067 2.847-.9151.7117-1.2201-.2034-1.2201-3.0504 0zM70.0269 157.7017c0 .4067 1.3218 1.0168 3.0503 1.4235 1.6268.4067 3.2537 1.1184 3.5587 1.6268.4067.5084 1.2201.9151 1.8302.9151.7117 0-.1017-.9151-1.6268-1.9319-1.9319-1.2201-2.4403-2.0335-1.5252-2.3385.7117-.3051-.2034-.5084-1.9319-.5084-1.8302 0-3.3553.4067-3.3553.8134zM88.3288 159.6336c.8134.5083 2.0335 1.0167 2.5419 1.0167.6101 0 .3051-.5084-.5084-1.0167-.8134-.5084-1.9318-1.0168-2.5419-1.0168-.5084 0-.305.5084.5084 1.0168zM172.2127 159.6336c-.3051.5083-.1017 1.0167.4067 1.0167.61 0 1.1184-.5084 1.1184-1.0167 0-.6101-.2033-1.0168-.4067-1.0168-.305 0-.8134.4067-1.1184 1.0168zM183.3972 159.6336c-.305.5083-.1017 1.0167.4067 1.0167.6101 0 1.1184-.5084 1.1184-1.0167 0-.6101-.2033-1.0168-.4067-1.0168-.305 0-.8134.4067-1.1184 1.0168zM97.6831 161.057c.7118.8135 1.5252 1.2202 1.7285 1.1185.5084-.6101-1.0167-2.5419-2.0335-2.5419-.5084 0-.4067.61.305 1.4234zM126.9662 160.6503c0 .5084.5084 1.0168 1.0168 1.0168.6101 0 1.0168-.5084 1.0168-1.0168 0-.61-.4067-1.0167-1.0168-1.0167-.5084 0-1.0168.4067-1.0168 1.0167zM160.5198 160.0403c0 .2033.7117.7117 1.6268 1.0167.8134.3051 1.2201.2034.9151-.4067-.6101-1.0167-2.5419-1.4234-2.5419-.61zM86.8036 162.6839c6.2024 2.0335 10.5745 2.6436 9.2527 1.2201-.4067-.4067-1.1185-.7117-1.4235-.8134-.4067 0-2.2369-.305-3.9654-.7117-7.8292-1.6269-9.5577-1.5252-3.8638.305zM104.5972 161.5654c0 1.0168 1.9319 2.542 2.5419 2.0336.1017-.2034-.305-1.0168-1.1184-1.7285-.8134-.7118-1.4235-.8135-1.4235-.3051zM108.6643 162.7856c0 .5083.8134.9151 1.8302 1.0167 1.5251 0 1.5251.1017-.2034.8135-1.8302.7117-1.8302.8134-.2033 1.4234 2.3385.9151 2.2369 1.0168 2.3385-1.2201.1017-1.1184-.61-2.1352-1.8301-2.4402-1.0168-.3051-1.9319-.1017-1.9319.4067zM253.0462 163.1923c-1.3218 1.6268-.7117 4.5755 1.0168 4.5755.5084 0 1.0168-.8135 1.0168-1.8302 0-1.0168.5084-2.3386 1.2201-3.0504.9151-.9151.8134-1.2201-.4067-1.2201-.8134 0-2.1352.7118-2.847 1.5252zM101.5469 164.209c0 .8135.7117 1.5252 1.6268 1.5252 1.4235 0 1.4235-.305.4067-1.5252-.7117-.8134-1.4235-1.5251-1.6268-1.5251-.2034 0-.4067.7117-.4067 1.5251zM150.352 163.7007c.8134.5083 2.3386 1.0167 3.2537 1.0167.9151 0 1.9319.6101 2.1352 1.2202.4067 1.0167.6101 1.0167.6101.1016.1017-1.4234-.5084-1.8302-4.4738-2.7453-2.2369-.5083-2.6436-.4067-1.5252.4068zM97.4798 165.2258c0 .9151.61 1.2201 1.5251.9151.8134-.4067 1.5252-.7117 1.5252-.9151 0-.2033-.7118-.5084-1.5252-.9151-.9151-.305-1.5251 0-1.5251.9151zM115.7817 165.4292c0 .61-.6101 1.4235-1.2201 1.6268-.8134.305-.6101.6101.5084.6101.9151.1017 1.7285-.3051 1.7285-.7118 0-.5084 1.0167-1.4234 2.3386-1.9318 2.1352-1.0168 2.1352-1.1185-.5084-.9151-1.6269 0-2.847.61-2.847 1.3218zM132.0501 164.5141c0 .5084.7117 1.5251 1.5251 2.2369.8135.7117 1.5252.9151 1.5252.61 0-.4067-.7117-1.4234-1.5252-2.2369-.8134-.9151-1.5251-1.1184-1.5251-.61zM160.5198 164.8191c0 .5084.5084.7118 1.0167.4067.6101-.305 1.0168-.8134 1.0168-1.1184 0-.2034-.4067-.4067-1.0168-.4067-.5083 0-1.0167.5083-1.0167 1.1184z"/><path d="M126.9662 165.4292c0 .5084.7118 2.4402 1.5252 4.0671 1.4235 2.8469 3.6604 4.2704 9.3543 5.8973 4.8805 1.3218 14.2348-2.2369 11.7946-4.6772-.8134-.8134-1.3218-.8134-1.7285 0-1.1185 1.8302-2.6436 1.3218-2.6436-.9151 0-1.1184-.4068-2.0335-1.0168-2.0335-1.2202 0-1.2202.2033 0 3.5587.7117 1.9318.7117 2.4402-.1017 1.9318-.6101-.305-1.5252 0-2.0335.7118-.6101.9151-.7118.2033-.3051-1.8302.7118-3.8638-.1017-6.8124-1.6268-5.8973-.7118.4067-.7118 1.1184-.2034 1.8302.5084.7117.6101 2.3386.3051 3.6604-.6101 2.1352-.8135 2.2369-2.0336.7117-.7117-.9151-1.1184-2.7453-.9151-4.1688.7118-3.5587-.7117-3.152-2.2369.5084-1.3218 3.2537-4.6772 3.8638-4.4738 1.0168 0-.8134-.7117-2.4403-1.8302-3.457-1.0168-1.1185-1.8302-1.5252-1.8302-.9151zm10.1678 7.6258c0 .5084-.4068.8134-1.0168.8134-.5084 0-1.0168-1.0168-1.0168-2.3386 0-1.8302.2034-1.9319 1.0168-.7117.5084.8134 1.0168 1.8302 1.0168 2.2369zM105.614 166.751c0 .61.7117 1.0168 1.5251 1.0168.8134 0 1.5252-.2034 1.5252-.4068 0-.2033-.7118-.61-1.5252-1.0167-.8134-.3051-1.5251-.1017-1.5251.4067zM119.8488 166.751c-2.3386.7117-2.3386.8134-.305.9151 1.2201.1017 2.5419-.4067 2.8469-.9151.3051-.6101.5084-1.0168.3051-.9151-.2034.1017-1.4235.5084-2.847.9151zM145.2682 166.751c0 .5084.5083 1.0168 1.0167 1.0168.6101 0 1.0168-.5084 1.0168-1.0168 0-.6101-.4067-1.0168-1.0168-1.0168-.5084 0-1.0167.4067-1.0167 1.0168zM230.9822 167.1577c1.1185.9151 1.5252 2.0335 1.0168 3.2537-.6101 1.7285-.5084 1.7285 1.0168.5084 2.1352-1.7286 2.2369-3.7621.1016-4.5755-2.7452-1.0168-4.0671-.6101-2.1352.8134zM100.0217 167.7678c-.305.5083-.1017 1.0167.4067 1.0167.6101 0 1.1185-.5084 1.1185-1.0167 0-.6101-.2034-1.0168-.4067-1.0168-.3051 0-.8135.4067-1.1185 1.0168zM157.9778 169.8013c-.305.5084-.1016 1.0168.4067 1.0168.6101 0 1.1185-.5084 1.1185-1.0168 0-.6101-.2034-1.0168-.4067-1.0168-.3051 0-.8134.4067-1.1185 1.0168zM294.6323 170.4114c1.6268 1.2201 2.2369 2.3385 1.8302 4.0671-.4067 2.4402 1.5251 3.457 2.8469 1.4234.7118-1.1184-1.2201-5.1855-2.9486-6.304-2.4403-1.6268-4.0671-.8134-1.7285.8135zM102.5636 170.8181c0 .61 3.0504 1.0168 7.4225.9151 4.9822 0 6.7107-.3051 5.2872-.9151-2.847-1.2202-12.7097-1.2202-12.7097 0zM95.7513 173.5634c-2.6437.9151-1.2202 2.3385 2.1352 2.0335 1.9318-.1017 3.2537-.61 2.9486-1.0168-.305-.5083-1.1184-.61-1.8302-.305-.8134.305-1.5251.1017-1.7285-.305-.2033-.4067-.9151-.6101-1.5251-.4067zM107.1391 174.8852c-.305.5084-.1017 1.8302.4067 2.7453.9151 1.5251 1.0168 1.4234.9151-1.0168-.305-3.0503-.4067-3.2537-1.3218-1.7285zM81.008 175.5969c.6101.2034 1.8302.2034 2.542 0 .61-.305.1016-.5084-1.3218-.5084-1.4235 0-1.9319.2034-1.2202.5084zM118.4253 177.6305c-1.1184 1.4234-1.4235 2.3385-.8134 1.9318.7117-.4067 1.2201-.2033 1.2201.6101.1017 1.3218 2.9487-3.0503 3.0503-4.5755 0-1.5251-1.6268-.61-3.457 2.0336zM160.9265 176.6137c0 1.0168 1.0167 3.0503 2.1352 4.5755 2.1352 2.8469 6.609 4.7788 6.609 2.9486 0-.61-.5084-1.1184-1.1184-1.1184-.5084 0-.7118-.5084-.3051-1.2202.5084-.8134 0-.9151-1.4234-.61-1.3218.4067-2.0336.2033-1.6269-.4067.3051-.5084-.305-1.2202-1.5251-1.5252-1.2202-.305-2.1353-1.0168-2.1353-1.5252 0-.5083.5084-.61 1.1185-.2033.7117.4067 1.0168.1017.7117-.6101-.7117-2.1352-2.5419-2.3386-2.4402-.305zM67.4849 177.0204c1.7285.6101 5.0839 1.2201 7.6258 1.4235 2.542.1017 5.4906.61 6.6091 1.0168 1.7285.7117 1.8302.61.7117-.6101-.7117-.8134-3.457-1.5252-6.1006-1.6268-2.6436 0-6.4057-.4068-8.3376-.7118l-3.5587-.6101 3.0503 1.1185zM87.8204 176.817c-1.1184.5084-2.7453.6101-3.5587.3051-1.3218-.5084-1.3218-.3051-.2034 1.0168 1.0168 1.3218 1.9319 1.4234 4.7789.5083 1.9319-.61 3.5587-1.4234 3.5587-1.9318 0-1.0168-1.8302-.9151-4.5755.1016zM169.264 177.2238c.3051 1.0167.9151 1.5251 1.2202 1.2201.305-.305 0-1.1185-.7118-1.8302-1.0168-.9151-1.1184-.8134-.5084.6101zM101.5469 178.0372c0 .7117.305.9151.7117.61.305-.4067 1.3218-.1016 2.1352.6101 1.3218 1.0168 1.4235.9151 1.0168-.305-.6101-1.9319-3.8637-2.6436-3.8637-.9151zM95.2429 178.6472c.7117.3051 1.6268.2034 1.9318-.1016.4067-.3051-.2033-.6101-1.3218-.5084-1.1184 0-1.4235.305-.61.61zM98.8016 179.4607c-1.0168 1.6268-8.4393 2.8469-8.4393 1.3218 0-.5084-.5083-.6101-1.1184-.3051-.6101.5084-.2034 1.3218 1.2201 2.3386 1.6269 1.1185 2.4403 1.2201 2.7453.4067.2034-.61.9151-.9151 1.6269-.61 1.5251.61 6.5073-3.152 5.4905-4.1688-.305-.4067-1.0167.1017-1.5251 1.0168zM115.7817 181.4942c-.1017.5084-.2034 1.3218-.1017 1.7285 0 .4067-.61.5084-1.4235.2034-1.7285-.7118-1.9318.4067-.61 2.5419.7117 1.1185 1.1184.9151 2.1352-.8134.6101-1.2201.9151-2.7453.6101-3.457-.2034-.7118-.5084-.8135-.6101-.2034zM84.0583 183.7311c.7118.305 1.6269.2034 1.9319-.1017.4067-.305-.2033-.61-1.3218-.5084-1.1184 0-1.4235.3051-.6101.6101zM160.3164 184.7479c.7118.305 1.6268.2033 1.9319-.1017.4067-.305-.2034-.6101-1.3218-.5084-1.1185 0-1.4235.3051-.6101.6101zM170.6875 186.0697c0 .5084.5084 1.0168 1.1185 1.0168.5083 0 .7117-.5084.4067-1.0168-.3051-.6101-.8135-1.0168-1.1185-1.0168-.2033 0-.4067.4067-.4067 1.0168zM110.6978 187.7982c0 1.5252-.2033 1.6268-1.0167.305-.5084-.8134-1.0168-1.0167-1.0168-.4067 0 .7118-.9151 1.4235-1.9319 1.7285-1.2201.3051-1.9319 1.3219-1.8302 2.542 0 1.1184.5084 1.9319.9151 1.6268.4067-.305.4067-1.2201.1017-2.1352-.5084-1.3218-.2034-1.5252 1.5252-1.1185 2.4402.7118 6.2023-2.5419 4.3721-3.762-.6101-.3051-1.1185.2033-1.1185 1.2201zM34.9482 192.3737c-8.846 1.0168-10.3711 1.7285-9.151 4.5755.7117 1.7285.8134 1.6268 1.7285-.4067.9151-1.9319 2.2369-2.3386 9.3543-3.0504 4.4738-.4067 8.846-.7117 9.5577-.61.6101 0 1.2201-.3051 1.2201-.8134 0-1.0168-1.4235-1.0168-12.7096.305zM99.5133 193.6955c-1.4235.8134-2.0335 1.4235-1.5251 1.4235.61 0 2.1352-.6101 3.5587-1.4235 1.4234-.8134 2.1352-1.4235 1.5251-1.4235-.5084 0-2.1352.6101-3.5587 1.4235zM94.6328 198.3727c-3.5587 1.6268-7.0157 2.6436-7.6258 2.3385-.9151-.5083-.9151-.4067-.1017.5084s2.4403.5084 6.9141-1.4235c3.152-1.4234 6.4057-2.5419 7.2191-2.5419.7117 0 1.7285-.5084 2.0335-1.0168 1.0168-1.7285-1.7285-1.0167-8.4392 2.1353zM90.3623 197.4576c0 .4067.4068.8134.9151.8134.6101 0 1.2202-.4067 1.5252-.8134.305-.5084-.1017-.9151-.9151-.9151s-1.5252.4067-1.5252.9151zM71.0436 198.7794c-1.6268 1.9318-.1016 1.9318 2.4403 0 1.6268-1.2202 1.7285-1.5252.4067-1.5252-.8134 0-2.1352.7117-2.847 1.5252zM83.2449 199.2878c0 .5083.5084 1.0167 1.1185 1.0167.5084 0 .7117-.5084.4067-1.0167-.305-.6101-.8134-1.0168-1.1185-1.0168-.2033 0-.4067.4067-.4067 1.0168zM225.8983 201.3213c0 1.8302.6101 3.0503 1.4235 3.0503 1.4235 0 1.7285-1.8302.7118-4.4738-1.0168-2.6436-2.1353-1.8302-2.1353 1.4235zM74.9074 199.9995c.7117.305 1.6268.2034 1.9319-.1017.4067-.305-.2034-.61-1.3219-.5084-1.1184 0-1.4234.3051-.61.6101zM78.2627 200.9146c0 1.1184.3051 1.4235.6101.6101.305-.7118.2034-1.6269-.1017-1.9319-.305-.4067-.61.2033-.5084 1.3218zM245.2171 205.0834c-1.6269.61-1.7286 4.5755-.1017 6.2023 1.8302 1.8302 3.3553 1.5252 1.7285-.4067-1.0168-1.2201-1.0168-2.0336-.1017-3.4571 1.2201-2.0335.5084-3.0503-1.5251-2.3385zM148.1151 207.9303c-1.5251 1.5252.3051 2.3386 3.3554 1.5252 4.6771-1.3218 23.1824.5084 24.6059 2.4403 1.1185 1.3218 1.4235 1.2201 3.0503-1.0168 1.5252-2.0336 1.5252-2.4403.3051-2.4403-.8135 0-1.8302.5084-2.1353 1.0168-.4067.6101-1.3218.7117-2.4402.1017-2.2369-1.2202-25.8261-2.6436-26.7412-1.6269zM292.3954 209.0488c-.4067.4067-.7118 1.6268-.7118 2.6436 0 1.3218-1.0167 2.0335-3.152 2.5419-2.0335.4067-2.7453.9151-2.0335 1.6269 1.4235 1.4235 5.999 0 7.2191-2.3386 1.1184-2.1352 0-5.7956-1.3218-4.4738zM181.872 211.9974c-1.3218 1.6269-.7117 4.5755.9151 4.5755.6101 0 .8134-.7117.5084-1.5251-.4067-.8135.1017-1.7286 1.0168-2.1353.9151-.305 1.6268-1.0167 1.6268-1.5251 0-1.4235-2.6436-1.0168-4.0671.61zM186.2442 215.6578c-1.4235 1.4235-.6101 3.9654 1.3218 3.9654.8134 0 1.1184-.61.8134-1.5251-.4067-.9151.2033-1.8302 1.7285-2.4403l2.4403-1.0168h-2.542c-1.5251-.1016-3.152.4068-3.762 1.0168zM171.9076 260.2942c-2.8469 4.6772.5084 10.6761 4.6772 8.2359 1.5252-.9151 1.4235-1.0168-.5084-1.1185-2.9486 0-4.5755-3.0503-2.847-5.3889.6101-.9151 1.7286-1.7285 2.4403-1.7285.6101 0 1.1185-.5084 1.1185-1.0168 0-1.8302-3.5588-1.1184-4.8806 1.0168zM164.5869 263.3445c-1.6269 3.0503.4067 6.1007 3.8637 5.999 2.1352-.1017 2.2369-.2034.7117-.6101-2.6436-.7117-3.5587-2.3386-2.8469-5.0838.7117-2.847-.3051-3.0504-1.7285-.3051zM158.1812 264.0563c-1.2201 1.1184-.8134 4.0671.8134 5.3889 1.3218 1.1184 1.4235.8134.9151-2.1353-.8134-4.0671-.9151-4.1687-1.7285-3.2536zM148.6235 268.4284c-2.9486 1.0168-7.8292 2.2369-10.8795 2.5419-3.152.4067-5.6939 1.1185-5.6939 1.6269 0 1.1184.7117 1.1184 7.3208-.2034 6.7107-1.3218 15.2516-3.9654 16.5734-5.0839 1.5251-1.4234-1.5252-.9151-7.3208 1.1185zM197.1236 301.0668c0 4.1688 7.4225 7.0158 8.846 3.4571.8134-2.4403-.4067-3.0503-2.3386-1.1185-1.9319 2.0336-4.4738.6101-4.4738-2.5419 0-1.1185-.4067-1.9319-1.0168-1.9319-.5084 0-1.0168 1.0168-1.0168 2.1352zM194.0733 308.6927c2.1352 2.5419 4.8805 3.5587 7.6258 2.8469 3.7621-.9151 3.0503-2.4402-.8134-1.7285-2.3386.305-3.7621 0-4.6772-1.1184-.7117-.9151-1.8302-1.6269-2.3385-1.6269-.6101 0-.5084.7118.2033 1.6269zM192.0398 313.6748c0 1.5252 5.1855 3.5588 7.5241 2.9487 3.9654-.9151 3.2537-2.6436-.8134-1.9319-2.0336.4067-3.6604.2034-4.0671-.4067-.7118-1.1184-2.6436-1.5251-2.6436-.6101zM192.9549 323.5376c-.6101 2.4402-2.847 8.6425-4.9822 13.7264-2.1353 5.1856-3.5587 9.6594-3.0504 9.9644.8135.5084 4.5755-8.2359 8.7443-20.2338 2.847-8.1342 2.7453-7.7275 1.4235-7.7275-.5084 0-1.4235 1.9319-2.1352 4.2705z"/></svg>