<svg xmlns="http://www.w3.org/2000/svg" version="1.0" viewBox="0 0 450 521"><path d="M77.5 2.5c-8.2 1.6-17.8 4.8-21.4 7.2-1.5 1-3.2 1.8-3.9 1.9-.7.1-3.2 1.4-5.7 2.8-3 1.8-4.2 3.1-3.8 4.1.3 1 .1 1.3-.8 1-1.7-.6-6.4 5.1-8.9 10.8-3.8 8.9-3.2 26.4 1.7 46.2.8 3.3 1.6 8 1.8 10.5.4 6.4 5.3 14.4 15.3 24.7 1.2 1.3 2.2 2.9 2.2 3.4 0 .6-2 3.3-4.5 6.1-2.4 2.7-5.9 8-7.7 11.6-3.1 6.3-12.6 21.1-15.6 24.1-2.1 2.2-8.2 14.9-8.2 17.1 0 1.1-1.9 5.7-4.1 10.3-5.6 11-6.9 16.3-6.9 28.4 0 17.8 4.3 25.1 18.9 31.9l7.8 3.7-3.3 5.6c-2.6 4.5-3.5 7.4-4.4 15-.7 5.8-1.9 10.8-3.3 13.5-1.9 3.7-2.1 5.5-2.1 19.1.1 17.4 1.9 25.4 8 34.2 4.8 6.9 15.6 17.1 23.3 21.8 5.8 3.6 6 3.9 4.1 5.2-1.1.8-2 2.4-2 3.7 0 1.2-2.5 6.4-5.6 11.6-3 5.2-7.3 12.9-9.6 17.2-2.2 4.3-6 10-8.3 12.6-2.3 2.6-5.4 6.5-6.8 8.7-4.3 6.5-7 9.3-9.9 10-1.4.4-4.7 2.7-7.3 5.2-4.7 4.4-4.7 4.6-4.2 9.5.7 6 4.6 12.4 9.5 15.6 2.8 1.8 3.7 2 4.3 1 .7-1 .9-.9.9.4 0 2 2 2.5 2 .5 0-.9.3-.8.9.2.5.7 3.1 2.1 5.8 3.1 6.6 2.3 13.2 6.6 16.8 10.8 3.2 3.8 8.6 9.2 15.5 15.7 6.2 5.8 10 11.3 10 14.7 0 3.4 5 8.8 8.1 8.8 1 0 3.9 1 6.5 2.2l4.6 2.3 1.9-2.4c3.1-3.8 2.4-7.5-3.2-15.7-4.1-6.2-5.3-7.3-6.5-6.3-.9.7-1.4.8-1.4.1 0-.6.4-1.3 1-1.7 1.3-.8-.4-5-3.6-8.9-1.4-1.7-5.7-7.6-9.6-13.1-3.9-5.5-8.1-11.2-9.5-12.6-1.3-1.4-2.1-3.2-1.8-4 .3-.8-1-3.1-3-5.3-1.9-2.1-3.5-4.4-3.5-5.1 0-.7-.9-2.4-2-3.8s-2-2.9-2-3.4c0-1.6 30.8 5.9 37.5 9.1 4.1 2 19.2 6.6 21.6 6.6 1.1 0 3 .6 4.2 1.2 1.2.7 5.4 1.6 9.2 1.9 3.9.4 10.6 1.6 15 2.8 4.4 1.1 9.4 2 11.1 2.1 1.6 0 3.4.4 4 .9.5.5 3.4 1.4 6.4 2 3 .6 9 2.1 13.2 3.2l7.7 2.1-.6 4.7c-.3 2.5-1.7 7.5-3.1 11.1-1.3 3.6-2.5 8.7-2.5 11.4-.2 4.5.1 5.1 3.7 8.2 3.4 2.9 4.6 3.4 8.7 3.3 3.7-.2 4.6-.6 4.4-1.8-.2-1.5-1.7-2-7.5-2.2-4.2-.2-4.9-1.5-4.4-8.2 1-11.3 1.2-13.2 1.4-13.2.1 0 .3-.9.5-2s.9-2.1 1.4-2.3c.6-.2 1.1-2.4 1.1-4.8V466l3.5.5c2 .2 4 .7 4.5 1 .8.5 13.6 2.4 19.5 2.8 1 .1 2.6.9 3.5 1.7.8.8 3.9 2.6 6.7 4 4.5 2.1 5.3 2.9 5.4 5.5.5 6.8-.6 11.5-2.6 11.5-.8 0-1.5.4-1.5.9 0 .4 1.1.6 2.4.4 2.2-.5 4.1-3.4 3.7-5.7-.5-2.5 1.2-6.5 3-6.9 1.2-.3 1.9 0 1.9.8 0 .7 1.3 1.6 2.9 2 2.5.5 3 1.2 3.6 5.1.5 3.6.3 5-1.1 6.5-.9 1-1.4 2.2-1.1 2.6.4.3.7 0 .7-.7s.3-1 .7-.7c.3.4 1.4 0 2.4-.9 1.3-1.2 1.6-2.5 1.2-4.6-.6-2.8-.4-3 1.8-2.3 4 1.2 5.9 3.6 5.9 7.2 0 2.7.4 3.4 1.8 3.1 1.2-.2 1.6-1.1 1.4-3.1-.2-1.5-.1-2.7.3-2.7 1.8 0 5.5 3.5 6.4 6.1.5 1.6 1.7 2.9 2.5 2.9 1.9 0 1.8.3.6-3.8-.8-2.9-.7-3.2.5-2.2.8.7 1.3 1.6 1 2-.3.5.8 1.4 2.5 2.1 2.4 1.1 2.8 1.8 2.3 3.9-.3 1.4-1 2.7-1.5 2.8-.4.2-.8 1-.8 1.8 0 1.2.4 1.2 2.5-.2 1.4-.9 2.5-2.5 2.5-3.6 0-1.2.5-1.8 1.3-1.5.6.2 3.8 1.3 7 2.3 3.1 1 5.7 2.3 5.7 2.9 0 .7-2.1 2-4.7 3-2.7 1-5.8 2.5-7.1 3.3-1.2.8-2.5 1.2-2.9.9-.3-.4-1.8 0-3.4.9-1.6.8-2.9 1-2.9.5 0-1.1-8.4-5.1-10.6-5.1-.7 0-1.6-.5-1.9-1-.4-.7.2-.9 1.9-.4 1.7.4 2.6.2 2.6-.6 0-.6-.4-.9-.9-.5-.9.5-2.5 0-10.6-3.1-1.1-.4-2.6-.6-3.4-.5-.8.1-1.7-.1-2-.6-.3-.4-1.6-1.6-2.8-2.7-1.9-1.5-2.5-1.7-3.8-.6-1.3 1.1-1.4 1-.9-.3.4-1.3-.1-1.5-3.3-1.2-2.1.2-4.5-.3-5.3-1-2.3-1.9-5.7-2.7-6.5-1.5-.5.8-1.1.8-2.1-.1-1-.8-1.2-2.5-.8-6.5.7-5.3-1.4-12.4-3.6-12.4-1.1 0-.2 7.3 1 8 1.6 1-1.7 10.8-3.8 11.4-.9.3-3.8.8-6.4 1.2-5.3.7-6.4-.8-2.9-4 1.1-1 1.7-2.5 1.4-3.7-.7-2.7-2-2.4-2.8.8-.8 3.4-3.3 6.3-5.3 6.3-.9 0-1.2.6-.8 1.6.3.9.6 1.6.6 1.7 0 .1 5.1-.2 11.3-.7 13.2-1.1 22.8.2 29.9 3.9 2.6 1.4 5.5 2.5 6.3 2.5.8 0 2.3.4 3.3 1 .9.5 5.1 2.3 9.2 4.1 4.1 1.7 9 4.1 10.9 5.2 2.1 1.2 3.6 1.7 3.8 1 .2-.5 1.5-.8 2.9-.5 2.9.5 10.6-2.6 9.8-4-.3-.5 0-.8.7-.7.8.2 3.7-.4 6.4-1.3 2.8-.9 6.5-2 8.3-2.3 2.2-.5 3.2-1.2 3.2-2.5 0-2.3-1.9-3-4.3-1.8-1.4.7-3.9 0-10-3-12.1-6-32.5-15.2-33.5-15.2-.4 0-3.7-2-7.3-4.5-3.6-2.5-7.5-4.5-9-4.5-1.8 0-2.8-.6-3.2-2-.3-1.3-3.7-3.5-10.1-6.5-8.7-4.2-9.6-4.8-10-7.8-.6-3.5-1.5-17.2-1.7-25.2-.1-2.8-.3-4.2-.6-3.3-.2 1-.9 1.8-1.4 1.8-.5 0-.9.7-.9 1.6 0 .8-.4 1.2-1 .9-.5-.3-1 .3-1 1.4 0 1.5.5 1.9 1.6 1.4 1.4-.5 1.6-.1 1.2 2-.3 1.4-.1 3.1.3 3.9.4.7.4 1.7-.1 2.3-.5.6-.3 4.2.6 8.5.8 4.1 1.4 7.9 1.4 8.3 0 .8-8.6.1-10.1-.9-.9-.5-4.5-1.2-13.4-2.3-3.3-.4-7-1.2-8.2-1.9-1.2-.7-3.5-1.1-5-1-1.5.1-5.1-1-7.9-2.3-4.6-2.2-5.3-2.3-6.3-.9-.9 1.3-1.1 1.2-.8-.5.2-1.8-.4-2-6.3-2.2-3.6-.1-8.1-.6-10-1.1-6.7-2-17.8-4.2-20.6-4.2-1.6 0-4.8-.7-7.2-1.5-2.4-.9-4.7-1.3-5.2-1-.5.3-1.1.1-1.5-.5-.3-.5-1.5-1-2.6-1s-2.2-.7-2.5-1.5c-.4-.8-1.3-1.5-2.1-1.5s-1.1.5-.7 1.1c.8 1.4-5.3.5-9.2-1.3-2.9-1.4-3.1-2.4-.4-3.1 1.2-.3 2 0 2 .7 0 .8 2.1 1.2 6.5 1.1 3.9 0 6.4-.4 6.2-1-.2-.6-.9-1-1.4-1-2.4 0-2.2-1.3.2-1.7 1.4-.3 2.8-.1 3.1.3.9 1.5 2.4 1 1.8-.6-.7-1.6 2.1-2.2 3-.6.4.5 2.1.5 4.3 0 2.1-.5 6.5-1.2 9.8-1.4 5.7-.5 10.5-1.6 15-3.5 1.1-.4 3.6-1.3 5.5-2 9.1-3.1 15-6.1 15-7.6 0-1-1.7-.5-5.7 1.6-7.6 3.9-20.8 8.8-25.8 9.6-4 .6-4 .6-1.7-1.1 1.3-1 3.6-1.9 5-2 4.5-.4 13.2-4.2 13.2-5.7 0-1.2-1.3-1-3.6.7-1.8 1.2-10.4 4-18.9 6.2-1.1.2-2.7.7-3.5 1-2 .8-5.1 1.3-7.5 1.4-1.1.1-3.3.5-5 .9-1.6.5-4.3 1.1-5.8 1.4-1.5.4-2.5 1-2.3 1.5.3.5-.7 1.1-2.2 1.4-1.5.3-2.8.1-3-.4-.2-.5-3.4-.9-7-.9-13.5 0-14.8-2.5-2.6-5 8.1-1.7 13.5-3.3 19.1-5.7 1.7-.7 4-1.3 5.1-1.3 1.1 0 2.2-.5 2.4-1 .2-.6 1.4-1.2 2.8-1.4 3.3-.3 17-6.7 17-7.9 0-.5-.6-.7-1.3-.4-.6.3-4.6 2-8.7 3.7-4.1 1.7-8.4 3.5-9.5 4-8 3.4-26.1 8.5-33.7 9.5-2.7.3-4.8 1-4.8 1.4 0 1.1-10.7.2-17-1.5-8.1-2.2-12.2-4.3-11.6-6 .3-.7.2-1.3-.2-1.2-.4.1-2.4-.6-4.6-1.5-2.1-.9-4.4-1.7-5-1.6-.6 0 .8.9 3.2 1.9 2.3 1.1 4.2 2.1 4.2 2.3 0 1-10-1.9-10.5-3-.7-2 8.6-15.1 11.2-15.7 2.9-.8 8 2.3 9.4 5.7.6 1.5.9 3 .6 3.4-.4.3-1-.3-1.3-1.3-1-2.7-5.1-6.7-5.8-5.6-.3.5.8 2.2 2.5 3.8 2.7 2.5 2.9 3.3 2.3 6.8-.8 5.2 1.6 4.5 3.2-1 1.9-6.9-2-13.4-8.1-13.4-.8 0-1.5-.2-1.5-.5 0-1.6 4.2-8.5 5.1-8.5.6 0 .9-.7.5-1.5-.8-2.2 5.3-1 8 1.6 1.1 1 2.6 1.9 3.2 1.9 2.2 0 1.2-1.5-1.8-2.9-3.3-1.4-3.5-3.4-.4-3.9 1.4-.2 1.6-.1.6.6-1.1.7-.8 1.1 1 1.5 3.8 1 7.7 5.8 7.9 9.7.2 4.4-1.8 11.9-3.9 14.3-.8.9-1.2 2-.9 2.4.4.4 1.4-.2 2.2-1.3 6.7-8.5 6.1-18.1-1.5-25-2.3-2.2-4.7-4.2-5.3-4.5-1.1-.8-.9-1.3 3.3-8.4 1.6-2.8 2.9-5.7 3-6.5 0-1.9-1.3-.4-3.7 4-1 1.9-2.6 4.7-3.6 6.1-.9 1.4-1.6 3.7-1.5 5 .3 2.1-.2 2.4-3.5 2.7l-3.7.3 4.5-6.4c2.5-3.6 4.5-7.2 4.5-8.1 0-.9.4-1.6.9-1.6 1.1 0 4.1-5.6 4.1-7.7 0-.7.5-1.3 1.1-1.3.6 0 .8-.8.4-1.9-.4-1.4 0-2.3 1.5-3.1 1.1-.6 2-.7 2-.1 0 .5-.5 1.1-1.2 1.3-.8.3-.4 1.3 1.1 2.9 1.9 1.9 2.3 2 1.7.5-.5-1.6-.4-1.7.9-.6.9.7 1.4 1.8 1.2 2.4-.8 2.3 11.6 11.5 14.6 10.8.4-.1 1.6.7 2.7 1.8 1.2 1.2 2.5 1.8 3 1.5.5-.3 1.8-.2 2.7.4 2.3 1.2 22.3 2.5 20.5 1.3-.7-.5-4.1-1-7.4-1.1-3.3-.1-6.9-.6-8-1.2-1-.5-2.2-.8-2.7-.5-1.2.8-7.1-1.4-7.1-2.5 0-.5 1.2-.4 2.7.2 2.2.8 16.6 2.7 23.9 3.2 1.4.1 2 .6 1.7 1.4-.4 1.1.5 1.3 4.3.8 2.7-.3 6.2-1.1 7.7-1.7 1.5-.6 3-.8 3.3-.5.9.9 12.4-6.1 12.4-7.6 0-1.2-1.7-.8-3 .8-.7.8-1.6 1.2-2.1.9-1.2-.7-1.1-11.8.2-16.8 2.1-8.2 4.3-14.6 5-14.6.4 0 1.2-1.5 1.9-3.3.7-1.7 2.1-4.1 3.1-5.2.9-1.1 2.7-3.9 3.9-6.3 1.2-2.3 2.6-4.5 3.1-4.8.5-.3.9-1.4.9-2.5 0-1.3-.7-1.9-2.4-1.9-1.9 0-2.3.4-1.9 1.9.3 1-.7 3.7-2.1 6-1.4 2.2-2.6 4.3-2.6 4.6 0 .4-1.1 2.1-2.5 3.9-1.4 1.8-2.5 3.7-2.5 4.3 0 1-2.1 5.9-4.1 9.5-.5 1-.9 2.4-.9 3.1 0 .8-.7 2.7-1.4 4.3-1.6 3.2-2.1 9.9-1.2 15.6.7 4.1 1 3.9-8.9 5.9-6.1 1.2-12.2.7-33.5-2.3-4.1-.6-8.2-1.1-9.1-1.1-.9-.1-1.5-.6-1.2-1.2.2-.6-.9-1.7-2.4-2.3-2.6-1.1-2.7-1.1-.9.3 2.3 1.7 1.4 2-1.5.4-1.1-.5-1.7-1.5-1.3-2.2.4-.7.4-.9-.1-.5-1.2 1.1-4.9-1.2-3.8-2.3.6-.6 2.6-.4 5.4.6 2.4.9 6.6 2.1 9.2 2.5 2.6.5 5.8 1.2 7 1.6 3.6 1.2 7.7 1.2 7.7 0 0-.6-1.9-1.2-4.3-1.3-2.3-.2-5.3-.7-6.7-1.3-1.4-.5-3.6-1.1-5-1.3-5.7-1-9-2-10.1-3.3-.9-1.1-.7-1.4 1-1.4 1.1 0 2.1-.5 2.1-1.1 0-.5-.8-.9-1.7-.8-3.2.5-6.2-1.2-8.3-4.5-3.2-5.3-4.7-6.2-4.6-2.7.1 1.8.5 2.7 1.3 2.4.7-.3 1.3 0 1.3.6 0 2.2-2.6 1-5.3-2.4-1.5-1.9-3.2-3.5-3.8-3.5-1.5 0-11.9-8.7-15.7-13.1-1.8-2.1-3-4.3-2.7-4.9.4-.6 1.1-.8 1.6-.4.5.3.6 1 .3 1.6-.4.6-.1.9.5.7 1.7-.6 1.6-1.4-1-5.7-1.3-2.3-2.4-3.2-2.7-2.4-.2.8.1 1.9.7 2.5 1.5 1.5 1.4 2.7-.4 2.7-.8 0-1.9-1.5-2.4-3.3-.5-1.7-1-2.6-1-1.9-.1.7-.5 1-1.1.7-1.8-1.1-1 1 1 2.8 1.1.9 2 2.1 2 2.7 0 1.9-1.6 1-3.3-1.9-1.3-2.3-1.5-3.5-.7-5.6.9-2.3.7-3-1-4.5-1.1-.9-2-2.2-2-2.9 0-.6-.4-1.1-.8-1.1s-.9-1.6-1-3.6c-.2-2.3.1-3.3.8-2.9.5.3 1-.2 1-1.2s-.9-2.4-2-3.1c-1.6-1-1.8-1.6-1-3.8.6-1.5.8-3.5.5-4.5-.4-1.1.2-3.1 1.5-5 1.2-1.6 1.9-3.3 1.6-3.7-.4-.3-1.1 0-1.6.8s-1.2 1.1-1.5.8c-.9-.9.3-2.8 1.8-2.8.9 0 1.1-1.3.9-4.1-.3-3.1 0-4.5 1.7-6 2.1-2 3-4.5 1.1-3.4-.5.3-1 .1-1-.4 0-.6.3-1.1.8-1.1.4 0 .7-2.8.8-6.3 0-3.4.4-7.9.8-10 .6-3.4.8-3.6 2.3-2.2 1.4 1.4 1.3 2-.4 6.3-1.2 2.9-1.8 6.1-1.5 8 .7 4.9 2.2 3.8 2.2-1.6 0-2.6.4-5.2.9-5.8.4-.5 1.3-2.9 2-5.4 1.3-4.8 4.5-9.9 5.6-8.8.3.3 0 2.1-.8 3.9-.8 2-1 4.4-.6 5.9.6 2.3.8 2.2 1.3-.5.9-5.3 2.1-7.7 4.3-8.6 1.4-.5 3.1-.5 4.1 0 1.7.9 5 .1 11.9-3 2.4-1 5-1.9 5.9-1.9.8 0 2.2-.7 3.1-1.6.9-.8 2.2-1.3 2.9-1 .8.3 1.4 0 1.4-.8 0-1.3 7.2-7.6 8.8-7.6 1.7 0 8.1-10.8 8.2-13.8 0-.7.9-3.1 1.9-5.5 1.1-2.3 2.2-6.5 2.5-9.2.3-2.8.7-5.9 1-7 1.8-7.5 1.8-8.5.5-8.5-1.1-.1-1-.4.2-1.3s1.8-4.6 2.7-16.7c.5-8.5.8-16.9.6-18.5-.3-1.7-.6-7.5-.8-13.1-.1-5.5-.6-10.6-1-11.2-1.3-2.1 2.5-1.3 7.1 1.4 2.4 1.4 4.3 3.1 4.2 3.7-.1.7.3 2.4.9 4 1.6 3.8 4.3 19.3 5.7 32.2.3 2.7 1 5.1 1.5 5.3 1.3.5 1.3 4.2 0 4.2-.5 0-1 1.2-1 2.6 0 2.5-.1 2.6-5 1.9-4.3-.6-5-.5-5 1 0 1.3.6 1.6 2.3 1.2 3.5-.7 7.2.7 6.9 2.6-.2.9.2 2.6.8 3.7 1.3 2.4-.3 2.8-2.5.6-1-1-1.1-1.6-.2-2.5.8-.8.8-1.1 0-1.1-.7 0-1.5.5-1.8 1-.4.6-1.6 1-2.7.8-1.2-.2-2.3.3-2.5.9-.3.8.5 1.3 2.1 1.3 1.3 0 2.8.4 3.1 1 .3.5 1.5 1 2.6 1 2 0 2.5 2.4 1.1 4.7-.6 1-1.6 1-4.5.1s-4-.9-4.9 0c-.9.9-.5 1.2 1.9 1.2 3.3 0 5.1 1.4 3.3 2.5-2.1 1.3-.9 2.6 1.9 2 1.7-.3 3.2-.2 3.6.4 1.4 2.3 2.3.9 1.9-3-.2-2.2-.6-4.4-.9-4.9-.3-.5 0-1.2.6-1.5 1.3-.8.2-8.3-1.5-10.4-.8-1.1-.8-1.3.1-.8.6.4 1.5.2 1.9-.4.3-.6.1-1.4-.5-1.8-.9-.6-.8-1.5.2-3.5 1.1-2.1 1.6-2.3 2-1.1.4.8.2 1.5-.3 1.5-.6 0-1 .5-1 1.1 0 .5.5.7 1.2.3.7-.5.9-.2.6.7-.3.8-.2 3.9.2 6.9.4 3 .4 5.9-.1 6.4-.5.6-.9 1.9-.9 3 0 1.7.2 1.8 1 .6.9-1.3 1-1.3 1 .1 0 .8-.4 1.9-.9 2.5-.4.5-1.1 3-1.5 5.6-.4 3.8-.3 4.8.9 4.8 2.1 0 2.5-1.1 2.7-9.4.2-7.1.4-7.6 2.3-7 2.8.9 6.4 3.7 6.5 5 0 .6-1.1 1.7-2.5 2.4-3.7 2-3.1 2.8 1.8 2.6 2.4-.1 4.1-.6 4-1.3-.1-.6-.4-3.9-.7-7.3-.2-3.4-.8-6.6-1.4-7.2-.7-.7-.7-1.8.1-3.5.8-1.9.8-2.6-.2-3.2-.7-.5-1.2-1.1-1.2-1.5.5-3.3-.2-6.7-1.5-8.1-1.9-1.8-3.2-1.2-1.6.8.6.7 1.4 4.4 1.7 8.2.3 3.9.8 8.2 1 9.7.3 2 0 2.8-1 2.8-.8 0-1.5-.7-1.5-1.6 0-.9-.6-1.4-1.2-1.1-5 2-4.8 2.1-5-2.4V186c.4-2.8-2-17-2.9-17.6-1.2-.7-1.1 1.3 0 5.3.5 1.8.6 3.5.1 3.8-1.1.7-1.9-1.8-2.5-8-.3-3.6-.2-4.6.6-3.5.7 1.1.8-.1.3-4-.3-3-1.1-6.1-1.7-6.8-.5-.7-1.1-3-1.3-5.2-.1-2.2-.5-4.4-.9-5-.3-.5-.1-1.8.5-2.9 1.7-3.4 5.5-2 10.1 3.7 2.4 2.9 4.6 5.2 5.1 5.2.4 0 .8.9.8 2.1 0 1.1.4 1.8.9 1.5.5-.4 1.7 1.5 2.7 4.1.9 2.7 2.3 5.5 2.9 6.3.7.8 1.6 2.8 2 4.5.5 2 1 2.4 1.2 1.4.5-2 4.3-1.4 4.3.7 0 .8.6 1.4 1.3 1.4 1.5 0 4.2 6.4 4.1 9.7 0 1.6.6 2.3 1.8 2.3 1 0 1.8-.4 1.8-.9 0-.8-8.5-19.4-11.1-24.3-.5-1-.6-2.5-.2-3.5.4-1.2.3-1.5-.5-.8-2 1.9-1.8 6.3.3 7.9 1.1.9 1.4 1.6.8 1.6-.7 0-1.3.5-1.3 1 0 .6.5.9 1.1.8.6-.2 1.3.2 1.6.9.3.7-.3.9-1.7.6-1.2-.3-2.4-1.3-2.8-2.2-.3-.9-.9-1.8-1.2-2.1-1.2-.9-2.2-6.2-1-5.5.5.3 1 0 1-.7s.3-2.3.6-3.6c.4-1.3.2-2.2-.5-2.2-.6 0-1.1 1.1-1.1 2.5 0 3.3-1.3 3.2-3-.3-.8-1.5-2.1-3.5-2.9-4.5-1.3-1.6-1.3-1.7.2-1.1.9.3 1.7 1.1 1.7 1.6 0 .6.8.7 1.8.3 5.4-2.3 15.2-3.9 15.2-2.5 0 .6-.7 1-1.5 1-1.8 0-2 1.6-.2 2.3.9.4.9.7-.1 1.5-1.8 1.2-.3 4.4 6.5 14.5 5.5 8.1 6.2 10.4 4.1 12.6-1.1 1-.9 1.2.7.9 1.1-.2 2.6-1.6 3.3-3.1.7-1.5 1.7-2.7 2.3-2.7 1.8 0 .8-1.5-2.1-3.2-3-1.7-4.3-4.5-1.5-3.4.8.3 2.2.9 3 1.2.8.3 1.5.1 1.5-.5s-1.1-1.6-2.5-2.1-2.8-1.8-3.1-2.7c-.3-1-1-2.7-1.5-3.8-.4-1.1-1.1-4.8-1.4-8.2-.5-5.8-.4-6.2 1.7-6.9 1.3-.4 3.5-.8 5.1-.9 2.5-.2 2.7.1 2.7 3.9 0 2.9-.3 3.7-.9 2.6-.6-.8-.8-1.7-.5-2.1.2-.4 0-1-.6-1.4-1.4-.9-1.2 1.5.3 4.5.8 1.4 1.2 4.2.9 6.3-.3 2.5 0 3.7.8 3.7s1-.9.6-2.5c-.8-3 .4-3.2 2.8-.6 1.7 1.9 1.7 2.1-.2 4.1-1.2 1.3-2.3 4.3-2.7 7.4-1.6 12.6-9.5 30.2-24 53.2-1.1 1.7-3.3 5.3-4.9 8-1.6 2.7-4.4 7.3-6.2 10.1-4.3 6.7-4.4 9-.2 3.2 12.4-17.1 34.8-55.3 34.8-59.3 0-.8 1.6-6.4 3.6-12.4l3.6-11.1 4.1 1.6c3 1.2 8.4 1.7 19.2 1.9l15 .2-.2 22.4c-.1 12.3-.5 30.7-.9 40.9-.3 10.6-.2 18.9.3 19.2 1 .7 20.3.9 28.3.3 16.6-1.1 50.2-.9 55 .4l3.8 1 .7 8.9c.4 4.8.3 15.1-.1 22.7-.5 7.7-.8 15.7-.7 17.9.5 14 .3 35.8-.2 40.5-.8 6.8.6 8.8 4.9 6.8 2.1-.9 4.9-.9 12.9.1 5.6.6 15.8 1.2 22.7 1.2 6.9 0 14.8 0 17.5.1 9.7.3 13.5 0 14.9-1.1 1.1-.9 7-1.1 22.2-.8 11.5.3 21.4.3 22.1 0 .7-.3 1.3-1.7 1.3-3.2 0-1.5.5-3.2 1.2-3.9.9-.9.8-1.2-.5-1.2-.9 0-1.7-.5-1.7-1.1 0-.5.4-.8.9-.5 1.6 1 2.2-5.6.7-7.3-1.2-1.3-1.2-3.1-.4-10.1.6-4.7 1.1-11.9 1.3-16 .1-4.1.8-8.8 1.4-10.5.7-1.6.9-4.6.6-6.7-.4-2.1-.8-4.9-1-6.3-.1-1.4-.4-2.7-.6-2.9-.2-.2-4.8-.6-10.2-.9-9.5-.6-9.9-.6-12.2 1.7-2.4 2.4-2.4 2.6-1 7.3 1.7 5.8 2.6 21.6 1.8 32.5l-.6 7.7-4.1.7c-6.2 1-12.6.7-15.4-.7-2.4-1.3-2.4-1.5-2-11.9.4-8.2 1.2-12.6 3.7-20.2 1.8-5.4 3.1-11 2.9-12.5-.3-2.5-.8-2.9-5.3-3.6-6.1-1-15-.1-16.5 1.8-.8.9-1.1 6.3-.9 16.7.2 8.4.1 18.7 0 22.9l-.3 7.6-6.7 1c-3.6.6-6.7 1-6.8.9-.1-.1-.3-5.8-.3-12.9 0-.9 0-2.3-.1-3 0-1.6.8-18 1.5-27.9l.5-7.6-3.1-1.1c-4-1.4-10.6-1.4-14.7 0l-3.1 1.1-.1 10.1c-.1 5.6 0 10.6.1 11.2.4 2.3.7 28.1.3 29.2-.3.7-1.3 1.3-2.3 1.3-2.4 0-8-2.9-8.1-4.3-.4-3.8.2-18.6 1.1-27.6.7-7.3.7-10.8-.1-11.7-.6-.7-.8-2.1-.5-3.1.3-1 .8-10.8 1.1-21.8.3-11 1-21.8 1.5-24 .5-2.2.7-4.1.5-4.4-.6-.5-33.6-2.1-46-2.2-4.9 0-15.1.5-22.6 1.2-10.6.9-14.4 1-16.5 0l-2.9-1.1.1-21.6c.2-18.8.4-21.7 1.8-22.7 1.7-1.3 1.3-4.7-.5-4.7-1 0-1.2-9.3-.3-12.8.5-1.6 1.4-2.2 3.4-2.2 1.5 0 4.1-.5 5.9-1.1 3.1-1.1 3.7-2.7 3.2-8-.1-.9 1-2.4 2.4-3.3 2.7-1.8 3.2-4.5 1.3-6.5-1.1-1-1-1.4.5-2.2 1.9-1.1 2.5-8.3.7-9.4-.6-.4-.2-1.7 1.1-3.3 1.6-2.1 1.9-3.5 1.4-6.9-.5-3.8-.4-4.2 1.7-4.5 1.3-.2 2.8-1.5 3.6-3.1 1.2-2.4 1.1-3.1-.3-5.3l-1.6-2.5-13.9.5-14 .5V70c0-38.2.1-40.1 2-43.2 2.7-4.5 2.7-12.6 0-16-3.6-4.7-14.1-5.7-21.1-2.2-3.3 1.7-7.7 6.8-8.5 10-.7 2.8 4 11.1 6.9 12 .9.3 1.7 1.3 1.7 2.3 0 .9.4 2.1.8 2.7 1.2 1.3-1.9 72.9-3.3 77.1-.2.6-1.8 1.4-3.5 1.8-1.7.4-4.3 1.7-5.8 2.9-1.5 1.3-4.3 3.1-6.2 4.1-1.9 1-8.2 5.9-14 11l-10.5 9.1-8.7 1.3c-4.8.6-12.2 2-16.4 3.1l-7.6 2-3.2-2.2c-1.7-1.2-4.4-3.3-6.1-4.8-1.6-1.5-6-4.8-9.7-7.2l-6.8-4.5 2.5-2.1c1.4-1.2 2.9-2.2 3.3-2.2 2.2 0 18.4-21.5 22.7-30 .9-1.9 2.6-4.5 3.7-5.7 1.1-1.2 2.2-3.6 2.4-5.5.2-1.8 1.4-6 2.6-9.3 2-5.3 2.3-7.8 2.2-20.5 0-12.9-.3-15.1-2.3-19.7-1.3-3-3.8-6.3-5.7-7.8-1.9-1.4-3.4-3.1-3.4-3.8 0-1.3-6.3-6.7-7.7-6.7-.5 0-2.6-1.8-4.7-3.9-2.9-3-4.8-4-8-4.4-2.2-.2-6.7-1.4-9.9-2.6-3.3-1.2-8-2.4-10.5-2.6-2.6-.3-6.5-.7-8.7-.9-2.2-.3-7.1.1-11 .9zM102 6.3c1.4.8 3.4 1.3 4.3 1.1.9-.1 1.7.1 1.7.6 0 .8 3.7 2 7.8 2.5 3.5.5 8.9 3.3 9.5 5 .4.8 2.1 2.1 3.9 2.8 5.4 2.3 14.3 13.7 16.8 21.4 1.9 6 1.7 28.9-.3 30.9-.4.4-.7 1.8-.7 3 0 1.3-.6 3.8-1.4 5.6-5.1 11.5-6.8 14.8-7.7 14.8-.6 0-.9-.6-.6-1.4.7-1.7-1.8-5.4-2.9-4.3-.4.4-.3 1.7.3 3 2.9 5.8 2.3 8.2-3.7 14.7-1.8 1.9-4.3 5.1-5.6 7-1.8 2.7-8.7 8.7-13.2 11.6-.2.1-.5 1-.6 2.1-.2 1-.7 1.6-1.2 1.4-.5-.2-2-.8-3.3-1.3-1.3-.5-3-1.6-3.7-2.6-.8-1.1-1.3-1.2-1.4-.5 0 .7-.7 1.3-1.5 1.3-.9 0-1.5 1-1.5 2.6 0 1.4-.4 2.3-1 1.9-.5-.3-1-.2-1 .4 0 .5.5 1.3 1 1.6.6.3 1 3 1 5.9v5.4l-4.2 1c-4.3 1.1-21.8.5-21.8-.7 0-.4-.8-.7-1.7-.8-4.4-.5-8.3-1.6-8.3-2.4 0-.5.4-.9.9-.9.8 0 2-5.2 2.7-12 .2-1.9.7-4.1 1-5 .4-.8.9-2.9 1-4.5 1.4-12.5 1.5-14.5.6-14.5-.6 0-.7-1.4-.1-3.8.4-2 .9-9 1.1-15.4.2-6.5.6-11.8 1.1-11.8.4 0 .7-2 .7-4.5 0-2.4.5-5.4 1.1-6.7C72.7 57.4 86.7 49 90.8 49c1 0 2.3-.5 3-1.2.9-.9 1.2-.9 1.2.1 0 1.1 1.3 1.2 5.5.8 3-.3 5.3-.2 5 .3-.6 1 3.5 3.7 7.1 4.6 1.6.3 5 1.6 7.6 2.8 4.7 2.1 4.7 2.1 4.6 6.8-.1 3.7-.5 4.8-1.8 4.8-.9 0-2.1-.5-2.7-1.1-2.3-2.3-10.5-3.6-15.1-2.4-2.1.5-2.3.3-2-2.2.5-4.2 5.3-4.3 12.4-.3 3.1 1.7 6.3 2.9 7.2 2.7 1.4-.3 1.4-.5-.4-1.3-1.2-.5-3.4-2.4-4.9-4.2-3-3.6-2.6-3.5-13-1.9-.5.1-.8-.9-.7-2.3.4-2.1.2-2.2-1.2-1.1-.9.7-1.6 2.2-1.6 3.2s-.4 2-.9 2.3c-.5.3-.5 2.1-.1 4s.6 5 .3 7c-.2 2.2.1 3.6.7 3.6s.8.5.4 1.2-.7 5.6-.6 10.9c.1 5.6-.2 10-.8 10.4-1.8 1.1-1.1 2.3 1 1.8 1.8-.5 2-1.4 2-9.9V79l2.7 1.1c3.6 1.3 11.3.9 14-.7 1.2-.8 2.5-1.4 2.8-1.4 1 0 .5 3.8-1 7.3-.8 2-1.5 4.7-1.5 6 0 2.6-5.5 13.8-9.7 19.6-1.5 2.2-5.2 5.4-8.1 7.2-4.4 2.6-6.2 3.2-10.5 3-7.5-.2-12.3-1.8-14.6-4.7-2.7-3.4-4.5-2.2-2.3 1.6 1.7 3 5.1 4.2 14.7 5.4 2.2.3 4.1.5 4.3.6.1 0 .2.6.2 1.4 0 .8.5 1.8 1 2.1.7.4.8-.3.4-2.1-.6-2.2-.4-2.6.9-2.1.9.3 3.2-.5 5.2-1.9 2-1.3 3.9-2.4 4.3-2.4 1.9 0 11.2-11.6 11.2-14 0-.6 1-2.7 2.3-4.8 2.8-4.5 5.5-13.6 6.3-22 .4-3.4 1.1-6.2 1.5-6.2.5 0 .9.8 1 1.7 0 1.2.2 1.3.6.5.3-.7 0-1.9-.7-2.7-.8-1-.8-2.4 0-5.5.6-2.3.9-4.5.6-4.8-.3-.3 0-1.2.6-1.9 1.7-2.1 1.8-13 .2-14.4-.8-.6-1.4-1.7-1.4-2.3 0-1.9-3.6-4.4-7.7-5.5-2.1-.5-8.4-1.2-14.1-1.6-5.7-.3-11.4-1-12.8-1.5-1.6-.7-2.4-.6-2.4.1s-.9.9-2.1.6c-3.2-.8-17.7 4.1-19 6.5-.7 1.3-1.6 1.7-3 1.3-1.3-.4-1.9-.2-1.9.8 0 .8-.6 1.5-1.2 1.4-.7 0-2.2.1-3.2.1-1.8.2-1.8.3-.1 2.2 1.6 1.8 1.6 2 .2 2-2.3 0-4.7 5.1-4.7 9.8 0 2.1-.5 4.3-1.1 4.9-.8.8-.8 2.1.1 4.9.8 2.4 1.2 7.6 1 13.8-.2 5.6-.4 12-.4 14.3-.1 2.4-.4 4.3-.7 4.3-.4 0-.9 1.3-1.1 3-.3 2.1.1 3.5 1.7 5 2.2 2.1 7.5 2.8 7.5.9 0-.5.5-.7 1-.4 1.8 1.1 1 2.3-2 3-1.6.4-3.2 1.1-3.5 1.6-.9 1.3-2.5 1.1-2.5-.4 0-.7-1.3-2.6-2.9-4.1-1.6-1.5-4.4-5.7-6.1-9.2-1.8-3.5-3.7-6.4-4.1-6.4-.8 0-1.6-3.3-2.3-10-.2-1.9-1.1-5.5-2-8-1.5-4.3-3.9-19.3-4-25.3-.1-1.5-.5-2.7-.9-2.7-.5 0-.6-1.2-.3-2.8.4-1.5.8-4.1 1-5.7.9-6.9 4.8-16.5 6.6-16.5.4 0 2.3-1.5 4.2-3.3 1.9-1.7 5.3-4.1 7.4-5.2 2.1-1 4.6-2.5 5.4-3.1.8-.7 6-2.4 11.5-3.9 5.4-1.4 10.1-2.7 10.3-3 1-.9 19.7.6 22.2 1.8zm126.6 5.4c2 1.3 2.4 2.3 2.4 6.9 0 2.9-.5 5.6-1 5.9-.6.4-.8 1-.5 1.5.3.5-.8 1.9-2.5 3.2-3.3 2.4-8.7 2.6-12.5.5-1.1-.7-2.7-1.2-3.5-1.2-.8 0-1.7-1.1-1.8-2.5-.2-1.4-.8-3.1-1.4-3.7-1.8-2.2 0-7.9 2.8-9.1 3.3-1.6 3.5-1.5 2.7.5-.4 1.2.5.8 2.5-1.1 1.8-1.7 3.2-2.6 3.2-2.1s.6.3 1.2-.3c1.5-1.5 4.9-.9 8.4 1.5zm-1.3 26.4c-.5 4.6-.3 6.3.8 7 1 .6 1 .9.2.9-.7 0-1.3.7-1.3 1.5s.6 1.5 1.3 1.5c.7 0 .8.3.2.8-.5.4-1 3.1-1 5.9 0 2.9-.3 5.3-.7 5.3-.5 0-.8.7-.8 1.5s.4 1.5.9 1.5c.6 0 .7 1.6.4 3.5-.4 2.2-.1 4.1.8 5.2.9 1.1 1 1.4.2.9-1-.5-1.3.3-1.3 2.9 0 2.2.4 3.4 1 3 .6-.3 1-.1 1 .4 0 .6-.4 1.1-1 1.1-1.5 0-1.2 7.7.3 8.3.9.4.8.8-.3 1.6-1 .7-1.1 1.1-.2 1.1.6 0 1.2.6 1.2 1.4 0 .8-.6 1.6-1.2 1.9-1 .3-1 .9 0 2.6 1.4 2.4 1.7 6.5.3 4.2-.6-.9-.9.1-.9 2.8-.1 2.9.3 3.9 1.1 3.5.7-.4.5.1-.4 1-1 1.1-3.9 1.9-8.7 2.3l-7 .6-.4-8.7c-.2-4.7-.1-8.6.3-8.6.3 0 .5-1 .6-2.3 0-1.2.3-5.4.6-9.2 1-11.4 2.6-41.7 2.4-46l-.2-4 6-.6c3.3-.3 6.1-.6 6.2-.7 0-.1-.1 2.5-.4 5.9zM93 36c0 .5 1.2 1 2.6 1 2.4 0 2.5.2 1.3 1.7-1.3 1.7-1.3 1.7.7 0 2.6-2.1 4.1-2.2 6.2 0 1.6 1.6 1.7 1.6 2 0 .4-2.1 1.6-2.2 3.3-.1 1 1.2 2.4 1.4 6.5.9 3.3-.4 5.4-.2 5.9.5.3.5 1 .8 1.5.5.5-.3 1.6.8 2.5 2.4 1.7 3.3 2 5.5.6 4.7-.8-.5-.5 3.2.5 6.4.5 1.3.6 1.3 1.5 0 .8-1.1.9-.8.3 1-.9 3.4-1.1 3.5-2.9 1.7-.8-.9-3.1-2.2-5.1-2.9-2.8-1-3.4-1.7-3-3.3.5-1.9.4-1.9-.8-.3-1.6 2.1-2.6 2.3-2.6.5 0-.7.9-1.8 2-2.5s2-1.9 2-2.8c0-1.4-.2-1.4-1.6 0-.9.9-2.1 1.3-2.7.9-2.2-1.5-13.1-.9-14.4.7-1.1 1.3-1.2 1.3-1.3-.2 0-1.2-.5-1.5-1.7-1.1-1.1.5-1.4.3-.8-.6.6-1 .2-1.1-1.6-.6-1.3.4-2.7 1.2-3 1.7-.3.5-1.3.6-2.2.2-1-.4-1.7-.1-1.7.6s-.7 1-1.6.6c-.8-.3-1.3-.2-1 .3.3.5-1.3 1.6-3.7 2.5-2.3.9-5.6 2.9-7.2 4.4-1.7 1.6-3.6 2.7-4.4 2.4-.9-.3-1.1.2-.7 1.6.4 1.3-.1 3.7-1.3 6.1-1.8 3.8-2.1 9.6-.6 12 .3.6 0 2.1-.6 3.3-.8 1.5-1.2 6.9-1.2 15.1 0 7-.2 12.5-.5 12.3-.2-.3-1.1.1-1.9.9-1.7 1.7-3.3 1.9-3.3.5 0-.6.4-1 .9-1s.9-1 .9-2.3c0-1.5-.6-2.3-1.8-2.3-1.1 0-1.5.6-1.2 1.8.2 1-.1 1.8-.8 1.8-.9 0-1-.9-.5-3.3.4-1.7.8-4.2.7-5.5 0-1.2.3-2.2.7-2.2.4 0 1.3-1.1 1.9-2.5.7-1.5.8-2.5.2-2.5-.6 0-1 .6-1 1.4 0 .8-.4 1.7-.9 2.1-.8.4-.8-3.3-.1-5.5.1-.3.3-1.9.4-3.5.2-1.7.4-3.7.4-4.7.2-1.1.8-1.5 2.5-1.1 1.3.4 1.9.2 1.4-.3s-1.4-.9-2-.9c-1.6 0-3.6-9.1-3-13.9.3-2.2.5-4.9.5-5.9-.1-.9.4-1.7.9-1.7.6 0 .7.4.4 1-.3.5-.1 1 .4 1 1.4 0 1.4-2.3 0-3.7-.8-.8-.5-1.7 1-3.2 1.2-1.2 2.1-3 2.1-4.1 0-1.1.5-2 1-2 .6 0 1 .4 1 1 0 .5.9.1 2-1s2.5-2 3-2c.6 0 1.9-.9 3.1-2.1 2-2 2.1-2 3.4-.2.7 1 1.7 1.5 2.1 1 .4-.4.2-.7-.4-.7-4 0 1.7-4 7.6-5.3 1.8-.4 2.2-.2 1.8 1-.5 1.3-.4 1.4.8.4 1.1-.9 1.5-.9 1.9.1.3.7.6.3.6-1C91 35.1 93 33.9 93 36zm20.5 2c-.3.5-1 1-1.6 1-.5 0-.9-.5-.9-1 0-.6.7-1 1.6-1 .8 0 1.2.4.9 1zm.5 9.9c-.1 1.5-2 3.5-2.7 2.8-.4-.5-.1-1.3.7-1.8 1.1-.8 1-.9-.7-.4-2.7.7-5.2-.3-3.3-1.5 1.3-.8 6-.1 6 .9zm15 2c0 .6-.4 1.3-1 1.6-.5.3-1-.1-1-.9 0-.9.5-1.6 1-1.6.6 0 1 .4 1 .9zm-17 17c0 .6-.4 1.2-.9 1.5-1.6 1 .1 4.7 2.7 5.7 3.1 1.2 5.9.3 7.2-2.2 1.5-2.7 3-2.4 3 .6 0 2.1-.9 3-4.2 4.5-5 2.3-8.8 2.5-13.5.8-3.1-1.1-3.3-1.5-3.3-5.9 0-2.9.5-4.9 1.3-5.2 2.2-.9 7.7-.7 7.7.2zm6.7 2.7c.8 2.2-1.7 3.6-3.4 1.8-.8-.8-1.1-1.8-.8-2.4 1-1.5 3.5-1.2 4.2.6zM43.5 95.9c.3.5.1 1.2-.5 1.6-.5.3-1-.1-1-.9 0-1.8.6-2.1 1.5-.7zM248 114.7c0 .8 1.4 1.9 3.1 2.5 4.9 1.7 1.9 3.1-7.3 3.4-12.5.4-23.9 2.3-27.6 4.6-2.5 1.5-4.4 1.9-7.3 1.5-2.8-.4-3.9-.2-3.6.6.3.7 1 1.1 1.6.9 1.5-.3-.1 2.9-2.3 4.8-.9.7-1.6 1.8-1.6 2.5s-1.8 2.9-4.1 5c-4.1 3.7-4.6 5.2-1.2 4.1 1.8-.6 4.2-2.8 8.6-7.8 3-3.5 5.2-2.4 4.2 2.1-.4 2-.2 3.7.5 4.6.7.8.9 2.3.5 3.2-.8 2-1.8 10.4-1.7 14.4.1 2.6.1 2.6-8.8 2.8-11.2.2-21.6-2-25.9-5.7-2.8-2.4-3.2-3.4-3.6-8.7l-.5-6 7.8-7.3c4.2-4.1 10.9-9.5 14.7-12 3.9-2.6 7.2-5 7.3-5.4.2-.5.9-.8 1.6-.8.7 0 2.7-.7 4.3-1.5 2.6-1.3 18.8-3.7 31.3-4.7 4.6-.4 10 1.2 10 2.9zm8.8-.5c.4 2.1-2.7 2.4-5.9.8-3.1-1.7-2.2-3.1 1.8-2.8 2.7.2 3.9.8 4.1 2zm-192.5 1.4c0 .5-.9 5.6-1.8 11.4-.9 5.8-2 10.9-2.6 11.5-2 2-.7 3.4 4.9 5.1 10.1 3.1 23.9 4.4 29.8 2.9 1.9-.4 2.3.1 2.9 3.2.4 2.5.3 3.9-.5 4.1-.8.3-.8.8.1 1.8.9 1.2.9 4.4 0 14.7-1 10.3-1 13.2-.1 13.5.9.3.9.6.1 1.1-.6.4-1.8 5.8-2.6 12-.8 6.3-1.9 11.9-2.4 12.5-1 1.4-2.4 6.2-2.6 9.8-.2 1.5-.6 3.5-.9 4.5-.6 1.4-.9 1.5-1.6.4-.6-1.1-1.4-.2-3 3.2-1.2 2.5-1.9 5.1-1.5 5.7.3.5-.2 1-1.3 1-1 0-2.8 1.1-4 2.5-2.2 2.5-4.2 3.3-4.2 1.6 0-.5.7-1.4 1.5-2.1.9-.7 1.4-1.9 1.1-2.7-.3-.7 0-3.7.6-6.6.9-4.3 1.9-18.1 1.9-27.2 0-6-3.1-19.5-5.7-24.8-.8-1.6-1.4-3.5-1.4-4.2 0-2.1-2.2-6.5-3.3-6.5-.5 0-.7 1-.4 2.1.4 1.4-.2 3-1.9 4.8-2.6 2.8-1.4 4.3 1.5 1.7 2.9-2.7 3.3-.4.4 2.6-3.1 3.3-2.4 4.8 1.2 2.4 2.4-1.6 2.6-1.6 3.1.1.3 1 .9 2.5 1.4 3.4.4.8 1.1 5 1.5 9.2.4 4.2 1 7.7 1.4 7.7 1.6 0-1.4 33.9-3.5 39.9-1.2 3.4-1.4 3.6-6.1 3.7-6.9.2-15-3-20-7.9-2.4-2.3-4.3-4.9-4.3-5.9s-.4-1.8-1-1.8c-.5 0-1 1-1 2.3 0 4.1 9.6 12.7 14.9 13.3 1.4.2 4.4.8 6.6 1.2l4 .9-4.8 2.1C58 247 55 248 54 248c-2.7 0-13.4-7-15.6-10.2-1.1-1.6-2.3-2.8-2.7-2.8-.5 0-1.5-.7-2.4-1.5-2.9-3-2.3-.8.7 2.5 1.6 1.8 3 3.6 3 4 0 .5 2.4 2.4 5.4 4.1 5.4 3.2 6.3 4.9 2.7 4.9-3.8 0-14.1-4-18.8-7.3-2.7-1.9-5.9-3.8-7.1-4.1-1.2-.4-2.2-1.3-2.2-1.9 0-.7-.8-2-1.7-2.9-4-3.7-3.9-3.5-4.6-15.8-.2-3.6-.6-7.1-1.1-7.8-.4-.6-.3-1.2.2-1.2s1.3-2.5 1.7-5.5c.4-3.1 1.1-5.5 1.8-5.5.9 0 .9-.2 0-.8-1.4-.9-1.2-2.8.5-5.9.7-1.2 1.2-2.9 1.2-3.7 0-.9.5-1.6 1.1-1.6 1 0 3.5-5.8 3.1-7.3-.1-.4.3-.7.9-.7.7 0 .9-.9.6-2.3-.4-1.2-.2-2.9.4-3.7.8-1.1.9-.9.3 1-.3 1.4-.4 2.3-.2 2 1-1 7.8-14.1 7.8-15 0-1.5 6.1-10 7.1-10 .6 0 .7-.5.4-1-.3-.6.1-1.3.9-1.6.9-.3 1.4-1 1.1-1.4-.2-.4.4-1.5 1.5-2.5s2.4-3.3 3-5.1c.7-1.9 1.6-3.4 2.2-3.4.7 0 .7-.5-.1-1.4-.9-1-.7-1.7.6-2.7 1.6-1.3 1.7-1.2.5.3-.7.9-.9 1.8-.4 2 .5.1 1.2 1.6 1.6 3.2.6 2.3.4 2.7-.8 2.3-1.8-.7-2.2 1.3-.6 2.9.5.5 1.1 2.6 1.2 4.7.2 2 .7 3.6 1.2 3.4 1-.3 1-10.7 0-16.2s10.6-19.3 15.1-18c.6.1.9.6.8 1.1zm186.8 9.1c.1 1.9-.2 5.7-.5 6-.1.1-6.7.9-14.8 1.7-8.1.9-15.3 1.7-16 1.8-.8.2-1.2-.5-1-2 .2-1.3-.2-2.9-.8-3.7-.9-1.1-.7-1.6.9-2.4 2.6-1.5 13.7-2.8 23.9-3 7.1-.1 8.2.1 8.3 1.6zm-34.5 5.7c.9 3.9-.6 5.5-3.6 3.6-1.2-.7-1.2-1.2 0-3.4 1.7-3.3 2.8-3.3 3.6-.2zm32.7 7.8c.5 4.5 0 4.8-10.8 5.5-18.8 1.2-24.8.2-25.3-4-.3-2.3 0-2.7 2.2-2.7 2.1 0 2.6.5 2.6 2.6 0 1.4.4 2.3 1 1.9.6-.3 1-1.5 1-2.6s.6-2.2 1.3-2.5c2.3-.9 26.2-3.1 26.9-2.5.4.3.9 2.3 1.1 4.3zm-132.6.2c-.6 1.9-3.4 1.8-3.9-.2-.4-1.5-.1-1.8 1.9-1.4 1.3.2 2.2 1 2 1.6zm133.3 8.8c0 .6-.8.4-1.7-.3-1.2-1-1.5-1-.9-.1.4.7.5 2.1.1 3.1-.5 1.6-2 2-9.8 2.5-5.1.4-10.9.9-12.9 1.2l-3.7.6.2-3.8.2-3.7 8-.3c4.4-.2 9.6-.3 11.5-.3 1.9-.1 4.2-.5 5-1 1.5-1 4 .3 4 2.1zm-92.2 4.8c0 3 .5 6.8 1.2 8.5.6 1.6 1.1 3.2 1 3.4-.1.2.4.7 1.1 1.2 1 .6 1 1.1.1 2.2-.7.7-1 1.7-.7 2 .3.4.3.6.1.4-.3-.1-1.7-2-3.2-4.2-1.4-2.2-1.9-3.3-1-2.6 2.7 2.3 2.8.6.1-2.3-1.4-1.5-2.5-3-2.6-3.4-.6-3.8-.8-8.9-.4-9.9.2-.6 1.3-1.1 2.3-1 1.7.1 2 .9 2 5.7zm61-3.6c1.2 2.7 0 4.6-3 4.6-1.4 0-1.8-.8-1.8-3.5s.4-3.5 1.8-3.5c1.1 0 2.4 1.1 3 2.4zm25.5 6.8c1.6 1.2 1.6 1.5-.2 4.4-1.6 2.7-2.7 3.2-7.2 3.7-3 .4-8 .7-11.1.7-3.2 0-5.8.4-5.8 1s2.6 1 5.8 1h5.9l-.3 4.2c-.2 2.4-.6 5.2-.9 6.4-.5 1.5 0 2.5 2 3.8 1.4.9 2.3 2.1 1.9 2.7-.4.6-1 .7-1.8 0-.9-.7-1.1 4.6-1.1 22.6 0 13.6-.4 23.7-.9 24.1-.6.3-1.2 0-1.4-.6-.4-1.4-3.2-1.6-3.2-.3 0 .5.9 1.2 2 1.6 2.3.7 8 7.7 8 9.8 0 .9.5 1.9 1.2 2.3 2.1 1.3 0-5.5-2.9-9.3l-2.8-3.7 2.8 1.9c3.1 2 11.5 2.9 13.3 1.4.6-.5 2.2-.9 3.5-.8 1.3 0 8.9-.2 16.9-.5 17.7-.7 22.3-.1 21.5 2.5-.7 2.3-.2 2.4 1.8.5 1.3-1.3 3.7-2 6.4-1.7.8.1 1 1.7.7 5.2-.2 3.4.1 5.7 1.2 7.4 1.5 2.3 1.4 2.3-.8 1.8-3.7-.8-6.8-2.5-6.8-3.8 0-1.7-3.7-4.8-4.4-3.7-.3.5.4 1.9 1.5 3.1 1.1 1.2 1.8 2.5 1.5 2.9-.2.4-5.1.4-10.8.1-5.6-.4-17.4-.4-26-.1-11.5.4-15.8.2-15.8-.7 0-.6-.4-1.1-1-1.1-.5 0-1 .7-1 1.5 0 3.6-7 2.3-7-1.3 0-.9-.8-2.6-1.7-3.7-1.5-1.9-1.5-1.9-.9.7.3 1.4.9 3.3 1.2 4.2.5 1.3-.2 1.6-4.5 1.6-4.2 0-5.2-.4-6.3-2.3-.7-1.2-1.1-2.7-.9-3.2.2-.6.3-4.1.2-7.9l-.2-6.9 3.5.6c2 .3 3.8.2 4.1-.3.3-.4-1.2-1.1-3.3-1.5l-3.8-.6.2-9.6c.2-5.2.4-11.9.5-14.9.2-2.9 0-5.6-.3-5.9-.3-.3-.2-2.3.2-4.3s.8-8 .9-13.2c.1-10.2.2-11.1 1.9-15.2.6-1.5.9-3.4.6-4.1-.6-1.8 9.4-3 17.6-2.2 3.9.4 5.1.3 4-.4-.8-.6-1-1.1-.4-1.1.5 0 1.8.6 2.7 1.2zm-26.5 5.1c.3 4-.9 4.7-4.1 2.3-1.1-.9-1.7-2.4-1.5-4.3.2-2.7.5-2.9 2.8-2.3 2 .5 2.6 1.3 2.8 4.3zM9.7 202.2c-.3.8-.6.5-.6-.6-.1-1.1.2-1.7.5-1.3.3.3.4 1.2.1 1.9zm107.5 3c-.6.6-1.5.8-1.9.4-.4-.4-.1-1.1.7-1.6 1.9-1.2 2.7-.3 1.2 1.2zM87 227c0 .5-.5 1-1.1 1-.5 0-.7-.5-.4-1 .3-.6.8-1 1.1-1 .2 0 .4.4.4 1zm230.4 5.6c1 .4 1.4 1.4 1.2 2.8-.3 1.1-.8 3.8-1.1 5.9-.5 3-1.3 4.1-4 5.4-3.1 1.5-3.7 1.5-7.9-.1l-4.6-1.8.3-5.6c.2-5.4.3-5.7 3.2-6.3 4.1-.9 11-1 12.9-.3zm0 21.1c-.4 3.2-.6 6.6-.5 7.5.2 3.3.2 5.3-.3 23.3-.3 9.9-1 23.1-1.6 29.4-1 11.8-.8 13.1 1.6 13.1.8 0 1.4.4 1.4.9 0 2.1 6.1 2.9 15.6 2 5.3-.5 10.1-.6 10.7-.2 1.5.9 8.7 1.3 8.7.5 0-1.1 4.4-1 5.1.1.8 1.1 16-1.4 15.3-2.5-.3-.5-2.6-.6-5.1-.2l-4.6.7.8-4.4c.4-2.4.9-7.3 1.1-10.9.2-3.6.6-7 .8-7.6.2-.6 0-3.1-.5-5.5-1.5-6.3-2.8-19-2.2-20.6.4-.9 2.8-1.3 8.6-1.3 6 0 7.8.3 7 1.1-.7.7-3.6 1-7.7.7-7.7-.5-8.6 1.2-1.3 2.6 3.7.6 5.2.5 7.2-.8 2.5-1.7 4.4-.5 2.8 1.7-.5.7-.8 2.2-.7 3.4 0 1.3-.3 2.3-.7 2.3-.5 0-.9-.7-.9-1.5s-.4-1.5-1-1.5c-.5 0-.9 1.1-.8 2.4.1 1.5.7 2.2 1.5 1.9.7-.3 1.3 0 1.3.6s-.4 1.1-1 1.1c-.5 0-1 1.3-1 2.8 0 1.5-.5 3.3-1.1 3.9-.6.6-1.3 4.4-1.5 8.5-.2 4-.6 8.4-.9 9.6-.4 1.5-.2 2.1.5 1.7 1.4-.9 1.3 4.8-.1 6.2-1.4 1.4 2.5 3.7 5.2 3 1-.3 1.7-.1 1.4.3-.3.5.3.9 1.2.9 1 0 4.8 0 8.6-.1 3.7 0 7.9 0 9.5.1 1.5 0 5.8 0 9.6.1 6.3 0 6.8.2 6.3 2-.3 1.1-.1 2.3.4 2.6.5.3.9-.2.9-1 0-.9.5-1.6 1-1.6 2 0 1 4.2-1.1 4.7-1.8.5-2 1.1-1.6 4 .8 4.8-.9 5.2-23 5.1-11.3-.1-19.6.3-20.8.9-2 1-11.4 1-41-.2-18.8-.8-18.4-.7-20.1-4.1-2-3.8-3-4.8-3.8-3.6-.3.6.1 1.7.9 2.5 2.3 2.4 1.8 3.7-1.4 3.7-3.7 0-4.4-2-2.6-7.4.9-2.6 1.3-6.1.9-8.7-.3-2.4-.5-5.1-.5-5.9.2-14.8-.1-19.5-1.1-20.1-.9-.6-.9-1.4 0-3.3.6-1.4.8-2.6.4-2.6-1.1 0-.9-6.4.3-7.2.6-.5.5-.8-.4-.8-1.1 0-1.1-.3-.1-1.5.6-.8.9-2.3.5-3.4-.3-1-.2-2.2.2-2.4.5-.3.8-5.1.8-10.6 0-7.2.3-10.1 1.2-10.1.6 0 1.5.4 1.8 1 .9 1.5 5.1 1.2 6.5-.5 1-1.2.7-1.3-2.2-.9-4.6.7-7-1.3-7.5-6.5l-.4-4.2 4.9.7c3.2.4 5.2.2 5.6-.5.4-.6 1.4-1.1 2.2-1.1 1.3 0 1.4 1 .8 5.7zM37 249.5c0 .3-.9 2.2-2 4.3-1.9 3.4-2 3.5-1.8 1 .1-1.5.8-3 1.6-3.3.7-.3 1-.9.7-1.5-.3-.5-.1-1 .4-1 .6 0 1.1.2 1.1.5zM332.5 277c.3.5-.1 1-1 1s-1.3-.5-1-1c.3-.6.8-1 1-1 .2 0 .7.4 1 1zm10.5-.1c0 1-3.4 2.1-6.7 2.1-1.4 0-2.3-.6-2.3-1.5 0-1.1 1.2-1.5 4.5-1.5 2.5 0 4.5.4 4.5.9zm4 1.1c0 .5-.5 1-1.1 1-.5 0-.7-.5-.4-1 .3-.6.8-1 1.1-1 .2 0 .4.4.4 1zm59.5-.1c1.5 1.1 7.6 1.3 8.9.2.7-.6 1.5-.4 2.3.4 2 2.2-.9 3.7-6.5 3.2-2.7-.2-5.3-.6-5.8-.9-.5-.3-2.2-.8-3.7-1.2-1.5-.4-2.6-1-2.3-1.4.6-1 5.9-1.2 7.1-.3zm-63.9 3.4c3.9-.4 4.3-.2 3.7 1.4-.4 1-1.3 2.3-2.1 2.9-1.1.8-1.2 1.3-.4 1.8.7.4.9 2.9.5 7.1-.4 4.6-.2 6.5.6 6.5.6 0 1.1.5 1.1 1.1 0 .5-.4.8-.9.5-1.3-.9-1.9 8.7-.7 10.3.8 1 .8 1.5-.1 1.8-1.9.7-1.7 7.3.2 7.3 1 0 1.5.9 1.4 2.7 0 2.1-.2 2.4-.7 1-.7-1.6-.9-1.6-2.5.3-3.9 4.5-6 1.5-4.6-6.8.4-2.8.9-10.8 1-17.9.2-9.8-.1-12.8-1-12.8-1.2 0-2 11.6-2.4 33.7 0 4.8-.4 5.8-1.8 5.8-2.2 0-3-2.2-2.2-6 .4-2.2.2-3-.8-3-1.1-.1-1-.3.2-1 1-.6 1.4-2 1.2-4.2-.7-8.6-1.4-19-1.7-25.9l-.2-7.6 3.9.8c2.2.4 5.9.5 8.3.2zm60.7.9c.2.9 2.7 1.2 8.5 1.1l8.2-.2-.4 3.2c-.2 1.8-.7 3.9-1 4.7-.3.8-.7 4.3-.9 7.7-.4 4.9-.2 6 .9 5.6.8-.3 1.4 0 1.4.6s-.7 1.1-1.5 1.1c-1 0-1.5 1.1-1.6 3.7-.1 2.1-.1 4.2 0 4.6.1.5-.4 3.5-1 6.7-1.2 6.4-2 7-8.4 6.4-4.6-.4-4.8-.6-4.8-4.7 0-1.7-.4-3.7-.9-4.3-.5-.8-.3-1.4.7-1.7.9-.4 1.2-1.3.8-2.2-.5-1.4-.8-1.4-1.5-.3-.6.8-.7-.1-.2-2.7 1.3-6.5 1.2-20.7-.1-24.5-1.2-3.6-1-6 .5-6 .5 0 1 .6 1.3 1.2zm-1.7 11.5c-1 1-1.9-.5-1-1.8.6-1.1.8-1.1 1.2 0 .2.7.1 1.5-.2 1.8zm-38.9 19.5c-.3.8-.6.5-.6-.6-.1-1.1.2-1.7.5-1.3.3.3.4 1.2.1 1.9zm0 7.5c-.3 1-.5.4-.5-1.2 0-1.7.2-2.4.5-1.8.2.7.2 2.1 0 3zM27.5 327c-.3.5-1 1-1.6 1-.5 0-.9-.5-.9-1 0-.6.7-1 1.6-1 .8 0 1.2.4.9 1zm37.9 37.5c.3.8 1.3 1.5 2.3 1.5 1.5 0 1.5.2.4.9-.9.6-1.9.4-2.8-.5-.8-.8-1.9-1.4-2.4-1.4s-.9-.5-.9-1c0-1.6 2.7-1.2 3.4.5zm-41.7 63.2c2.4 1.1 3.7 1.3 4.1.6.5-.8 2-.7 4.7.4 2.2.8 4.8 1.7 5.8 2 1 .3 1.6 1.2 1.3 1.9-.3.8 0 1.1.9.8.9-.4 1.2 0 .9 1.3-.3 1.1.2 2.5 1 3.2.9.8 1.6 2.1 1.6 3 0 .9.7 2.6 1.5 3.8 1.1 1.6 1.3 2.8.5 4.8-.5 1.4-.9 2.9-.9 3.3.4 2.2-.5 3.5-4.3 6.2-2.2 1.6-3.5 3-2.7 3 1.9 0 7.9-3.7 7.9-4.9 0-.5 1.1-1.6 2.5-2.5 2.4-1.6 2.5-1.5 4 1.4 1.9 3.8 1.1 9.6-1.6 11.1-1.1.5-1.9 1.4-1.9 1.8 0 1.6 4-.1 5.5-2.2s6.2-3.7 4.9-1.6c-.3.6 0 1.5.7 2 .8.4 1.5 1.3 1.5 1.9.1.5.2 1.4.3 2 0 .5.8 1 1.6 1 1 0 .6.8-1.1 2.7-2.6 2.8-4.8 6.3-4 6.3.8 0 5.7-2.8 5.5-3.1-.1-.2.4-1.5 1.1-2.9 1.2-2.3 1.4-2.4 2.1-.5.4 1.1.5 3 .2 4.2-.3 1.2 0 3 .7 4 .9 1.5 1 1.2.5-1.5-.7-3.5.9-4.5 1.8-1.1.8 2.8-.9 6.9-2.8 6.9-.8 0-1.5.4-1.5 1 0 1.3 1.2 1.3 4.7-.1 2.4-.9 3-.7 4.6 1.2 1.1 1.3 1.5 3 1.1 4.2-.3 1.1-.2 1.7.3 1.4 1.1-.7 5.8 2.4 5.8 3.8 0 2.4 3.1 7.5 4.3 7 .9-.3 1 .3.6 2.3-1 3.9-1.5 4.5-2.7 3.3-.6-.6-2.1-1.1-3.4-1.1-2.6 0-9.3-5.5-9.3-7.7 0-.7-.7-1.6-1.5-1.9-.8-.4-1.5-1.5-1.5-2.5 0-2.4-2.9-7.1-4-6.4-.4.3-1.4-.5-2.3-1.8-1.6-2.5-17.3-18.7-18.1-18.7-.3 0-2-1.6-3.9-3.5s-3.9-3.5-4.6-3.5c-.6 0-2-.8-3-1.8-3.9-3.5-4.8-3.9-9.4-4.6-2.6-.4-4.7-1.1-4.7-1.6s1.3-2.2 3-3.8c3.2-3.2 4-8.4 2-12.3-1.5-2.7-9.2-2.7-12 .1-2.4 2.4-2.5 3.4-.3 6 2.1 2.4 5.6 2.6 7.3.5 1-1.3.9-1.9-.5-3.5-1.3-1.4-2.2-1.7-2.9-1-1.4 1.4-2.6 1.2-2.6-.4 0-2.2 3-2.7 7-1.3 3.4 1.1 3.5 1.3 2.3 3.7-.7 1.4-1.3 3.4-1.3 4.5 0 2.8-4.8 6.7-7.4 5.9-4.1-1.2-8.6-7.9-8.6-12.8 0-2.3 4.6-7.5 5.8-6.6.4.3.8-.5 1-1.8.2-1.4 1-2.2 2.2-2.2 1.1 0 2.7-1.1 3.7-2.5 2.2-2.9 1.7-2.9 6-.8zm25.9 23.5c-1.5 1-1.6.6-.9-2.2.6-2.2.7-2.2 1.3-.4.4 1 .2 2.2-.4 2.6zM57 461c0 .5-.4 1-1 1-.5 0-1-.5-1-1 0-.6.5-1 1-1 .6 0 1 .4 1 1zm19.4 25.9c-.4.3-.9 0-1.1-.7-.3-.6-1.1-1.2-1.9-1.2-.8 0-1.4-.8-1.4-1.7 0-1.4.4-1.2 2.5.7 1.4 1.3 2.2 2.6 1.9 2.9zm94.6 6.5c0 .3-.4.8-1 1.1-.5.3-1 .1-1-.4 0-.6.5-1.1 1-1.1.6 0 1 .2 1 .4zm96 8c0 .3-.4.8-1 1.1-.5.3-1 .1-1-.4 0-.6.5-1.1 1-1.1.6 0 1 .2 1 .4z"/><path d="M76.5 10c.3.5.8 1 1.1 1 .2 0 .4-.5.4-1 0-.6-.5-1-1.1-1-.5 0-.7.4-.4 1zM67 12.5c0 .8.4 1.5 1 1.5.5 0 .7-.7.4-1.5-.4-.8-.8-1.5-1-1.5-.2 0-.4.7-.4 1.5zM62.5 13c.3.5.8 1 1.1 1 .2 0 .4-.5.4-1 0-.6-.5-1-1.1-1-.5 0-.7.4-.4 1zM72.5 12.9c-.3.5-.1 1.2.5 1.6.5.3 1-.1 1-.9 0-1.8-.6-2.1-1.5-.7zM82 13c0 .5.5 1 1 1 .6 0 1-.5 1-1 0-.6-.4-1-1-1-.5 0-1 .4-1 1zM75 14c0 .5.4 1 .9 1 .6 0 1.3-.5 1.6-1 .3-.6-.1-1-.9-1-.9 0-1.6.4-1.6 1zM88.3 15.1C86 15.9 85 20 87.1 20c.5 0 .7.5.3 1.1-.3.6 0 1.5.7 2 1.4.8 4.9-2 4.9-4.1 0-.5.5-1 1.1-1 1.7 0 .5-2.2-1.7-3-1-.4-2.9-.4-4.1.1zm2.7 2.4c0 .8-.4 1.5-1 1.5-.5 0-1-.7-1-1.5s.5-1.5 1-1.5c.6 0 1 .7 1 1.5zM99 14.9c0 1 1.9 2.5 2.5 2 .1-.2-.3-1-1.1-1.7s-1.4-.8-1.4-.3zM60.6 17.6c-.8 2-.8 2.4.2 2.4.4 0 .8-.9.9-2 .2-2.4-.3-2.6-1.1-.4zM109 18c0 .5.5 1 1 1 .6 0 1-.5 1-1 0-.6-.4-1-1-1-.5 0-1 .4-1 1zM118.3 19.7c-3.2 2.1-3 5.7.4 7.2 2.2 1 2.8 1 3.5-.3 1-1.8 3.8-2.2 3.8-.5 0 .5.5.7 1 .4 1.4-.9-.4-3.9-3.7-6.3-2.5-1.8-3-1.8-5-.5zm5.7 3c.7.6-2.3 2.3-4.2 2.3-1.8 0-2.4-2-1.1-3.3.6-.7 4.2 0 5.3 1zM68 21.7c0 .5.5 1.5 1 2.3.8 1.2 1 1.1 1-.8 0-1.2-.4-2.2-1-2.2-.5 0-1 .3-1 .7zM102.1 23.6c0 1.1.3 1.4.6.6.3-.7.2-1.6-.1-1.9-.3-.4-.6.2-.5 1.3zM98 23.9c0 .5-.7 1.7-1.6 2.6-.9.9-1.3 1.9-.9 2.3.4.4 1 .1 1.2-.6.3-.7 1.1-1.9 1.9-2.6 1.6-1.7 1.8-2.6.4-2.6-.5 0-1 .4-1 .9zM55.4 25.8c-2 1.9-1.4 6.6.8 7 2.6.5 6.7-3 6.8-5.6 0-1.2-.3-2.3-.7-2.3-3.7-.7-5.6-.4-6.9.9zm5.6 1.5c0 1.4-2.7 3.7-4.4 3.7-.9 0-1.6-.5-1.6-1.1 0-.5.5-.7 1.2-.3.7.5.9.2.5-.8-.3-.9-.4-1.8-.2-2 .8-.7 4.5-.4 4.5.5zM104 25c0 .5.5 1 1.1 1 .5 0 .7-.5.4-1-.3-.6-.8-1-1.1-1-.2 0-.4.4-.4 1zM47 28.5c0 .8.4 1.5 1 1.5.5 0 .7-.7.4-1.5-.4-.8-.8-1.5-1-1.5-.2 0-.4.7-.4 1.5zM45 30.9c0 .6.4 1.3 1 1.6.6.3.7-.1.4-.9-.7-1.8-1.4-2.1-1.4-.7zM48 32.4c0 .2.7.7 1.6 1 .8.3 1.2.2.9-.4-.6-1-2.5-1.4-2.5-.6zM64 32.9c0 .6.5 1.3 1 1.6.6.3 1 .1 1-.5s.5-.8 1.2-.4.8.3.4-.4c-.9-1.4-3.6-1.6-3.6-.3zM50 38c0 .5.5 1 1 1 .6 0 1-.5 1-1 0-.6-.4-1-1-1-.5 0-1 .4-1 1zM64.5 38c-.3.5-.1 1 .4 1 .6 0 1.1-.5 1.1-1 0-.6-.2-1-.4-1-.3 0-.8.4-1.1 1zM52 42c0 .5.5 1 1.1 1 .5 0 .7-.5.4-1-.3-.6-.8-1-1.1-1-.2 0-.4.4-.4 1zM47.5 43c-.3.5-.1 1 .4 1 .6 0 1.1-.5 1.1-1 0-.6-.2-1-.4-1-.3 0-.8.4-1.1 1zM54 46.4c0 .2.7.7 1.6 1 .8.3 1.2.2.9-.4-.6-1-2.5-1.4-2.5-.6zM134 48.5c0 .8.2 1.5.4 1.5s.6-.7 1-1.5c.3-.8.1-1.5-.4-1.5-.6 0-1 .7-1 1.5zM42.8 51.6c-1.8.9-2.8 2.3-2.8 3.7 0 5.3 5.4 6.3 8.8 1.7 1.8-2.4 2-3.4 1.2-5-1.3-2.4-3.5-2.5-7.2-.4zm5 2.5c-.4 3.1-4.4 4.4-5.1 1.8-.4-1.4.1-2.3 1.6-2.9 3.4-1.3 3.9-1.2 3.5 1.1zM53 51c0 .5.7.7 1.5.4.8-.4 1.5-.8 1.5-1 0-.2-.7-.4-1.5-.4s-1.5.4-1.5 1zM90.1 52.6c0 1.1.3 1.4.6.6.3-.7.2-1.6-.1-1.9-.3-.4-.6.2-.5 1.3zM86 53.1c0 .5.5.7 1 .4.6-.3 1-.8 1-1.1 0-.2-.4-.4-1-.4-.5 0-1 .5-1 1.1zM94 54.9c0 1.7.5 3.3 1 3.6.6.4 1-.8 1-2.9 0-2-.4-3.6-1-3.6-.5 0-1 1.3-1 2.9zM81.9 56.8c-1.9.9-3.8 2-4.4 2.4-.5.5-2.1 1.7-3.5 2.7-1.4 1.1-2.1 2.3-1.7 2.7.4.5 1.1.3 1.5-.3 1.1-1.6 8.1-4.3 11.4-4.3 2.1 0 3.9 1 5.9 3.1 3.2 3.4 3.5 3.5 4.1.4.2-1.4-.3-2.1-1.7-2.3-1.1-.2-2.5-1.2-3-2.4-1.5-3.1-4.6-3.9-8.6-2zM135.4 60.5c-.7 4.2-.7 4.3 3.5 5.5 2.6.7 3.3.5 4.6-1.3 3-4.3 1.2-7.7-4.2-7.7-2.9 0-3.3.3-3.9 3.5zm7.3.1c.7 2-2.2 4.5-4.3 3.7-1.4-.5-1.9-3.5-.7-4.6 1.2-1.3 4.4-.7 5 .9zM45.3 63.5c-.3.9-.3 1.9.1 2.2.3.4.6-.1.6-1 0-.8.6-1.8 1.3-2 .9-.4.9-.6-.1-.6-.7-.1-1.5.6-1.9 1.4z"/><path d="M76.6 68.2c-2.8 1.4-3.6 2.2-2.8 3 .9.9 1.7.7 3-.6 1.1-.9 3.3-2.1 5.1-2.6 2.9-.8 3.1-.7 2.5 1.5-.3 1.3-.3 3.3.1 4.5.6 1.9 1.2 2.2 4.7 1.7 4.6-.6 8.5-3.9 6.5-5.5-5.6-4.5-12.7-5.2-19.1-2zm14.7 1.7c1.3.2.7 2.1-.8 2.7-1.7.7-4.8-1.4-4-2.6.3-.5 1.3-.7 2.3-.5.9.2 2 .4 2.5.4zM97.5 68c-.3.5-.1 1 .4 1 .6 0 1.1-.5 1.1-1 0-.6-.2-1-.4-1-.3 0-.8.4-1.1 1zM41 72c0 .5.5 1 1.1 1 .5 0 .7-.5.4-1-.3-.6-.8-1-1.1-1-.2 0-.4.4-.4 1zM135 74.2c0 .9.5 2 1 2.3 1.3.8 1.3-.5 0-2.5-.8-1.3-1-1.3-1 .2zM73.5 76.9C72.6 78.4 83 83 87.3 83c2.4 0 7.7-2.8 7.7-4 0-1.5-1.9-1.2-3.6.5-2.2 2.2-6.2 1.8-11.8-1-5.7-2.9-5.3-2.8-6.1-1.6zM47.8 81.2c-2.6.9-4.5 3.9-3.4 5.6.7 1.2 7.4 1.4 8.1.2.4-.6.1-1.7-.5-2.5s-.9-1.9-.6-2.4c1-1.5-.6-1.9-3.6-.9zm1.8 2.6c0 1-.8 1.8-1.7 1.8-1.4 0-1.5-.4-.8-1.8.5-1 1.3-1.8 1.7-1.8.4 0 .8.8.8 1.8zM81.2 86.2c-1.5 1.5-1.6 2.8-.2 2.8 1.2 0 5 3.7 5 4.8 0 1.8 3.8 4.2 6.1 4 2.8-.3 3.7 2.7 1.9 6.1-1.2 2.4-4 2.8-4 .6 0-.8-.4-1.5-.9-1.5s-1.1.7-1.5 1.5c-.3.8-1.5 1.5-2.6 1.5s-2 .6-2 1.4c0 .7-.7 1.9-1.5 2.6-2.1 1.7-1.9 2.9.4 2.3 1-.2 2.3-1.5 2.9-2.7.9-1.9 1.7-2.2 5.4-2 8 .6 13.2 1.5 14.6 2.6.9.8 1.6.8 2.4 0 .8-.8.7-1.3-.5-1.8-.9-.3-1.7-1.3-1.7-2.1 0-1-.6-1.2-2-.8-1.4.5-2 .2-2-.9 0-.9-.4-1.6-1-1.6-.5 0-1 .7-1 1.6 0 .9-.6 1.4-1.2 1.1-.9-.2-1.2-1.9-1-4.6.2-2.3-.1-4.8-.8-5.6-.6-.8-.9-1.9-.5-2.5.3-.5 0-1-.8-1s-1.7.9-2 2.1c-.4 1.3-1.2 1.9-2.4 1.7-1.9-.4-2.2-2.8-.8-6.1.5-1.2.3-1.7-.8-1.7-.8 0-1.8.8-2.1 1.7-.6 1.5-.8 1.5-2.3 0-1.3-1.3-1.4-1.9-.3-3.1 1-1.3 1-1.6-.2-1.6-.8 0-1.9.5-2.6 1.2zM134 86c0 .5.5 1 1.1 1 .5 0 .7-.5.4-1-.3-.6-.8-1-1.1-1-.2 0-.4.4-.4 1zM128.3 89.6c-.4 1.1-.8 3-.8 4.4 0 2 .5 2.5 3 2.6 3 .2 3 .2.8-1.3-1.7-1.1-2-1.9-1.3-3.2.5-.9.5-2.3 0-3-.6-1.1-1-1-1.7.5zM111.5 90.9c-.3.5-.1 1.2.4 1.5.5.3 1.1-.1 1.5-.9.6-1.6-.9-2.1-1.9-.6zM72.5 94c-1.9.8-1.9.9.2.9 1.2.1 2.5-.4 2.8-.9.7-1.2-.2-1.2-3 0z"/><path d="M84.5 99c-.3.5-.1 1 .4 1 .6 0 1.1-.5 1.1-1 0-.6-.2-1-.4-1-.3 0-.8.4-1.1 1zM107.7 99.5c-.4.8-.2 1.7.3 2 .6.4 1-.3 1-1.4 0-2.5-.6-2.7-1.3-.6zM80.5 103c.3.5.8 1 1.1 1 .2 0 .4-.5.4-1 0-.6-.5-1-1.1-1-.5 0-.7.4-.4 1zM71 104c0 .5.5 1 1 1 .6 0 1-.5 1-1 0-.6-.4-1-1-1-.5 0-1 .4-1 1zM76 108.9c0 .5.5 1.3 1 1.6.6.3 1 .2 1-.4 0-.5-.4-1.3-1-1.6-.5-.3-1-.2-1 .4zM90.8 111.7c-.9 1-1.3 2.4-1.1 3 .6 1.5 3.3 1.7 3.3.3 0-.6.7-1 1.5-1 1.8 0 1.9-1.2.3-2.8-1.6-1.6-2.2-1.5-4 .5zM81.5 115c-.3.5-.1 1 .4 1 .6 0 1.1-.5 1.1-1 0-.6-.2-1-.4-1-.3 0-.8.4-1.1 1zM69.7 126.4c-.6 1.6.2 2.8 1.4 2 1.2-.7 1.1-3.4 0-3.4-.5 0-1.1.6-1.4 1.4zM79 129c0 .5.5 1 1.1 1 .5 0 .7-.5.4-1-.3-.6-.8-1-1.1-1-.2 0-.4.4-.4 1zM74.5 131c-.3.5-.1 1 .4 1 .6 0 1.1-.5 1.1-1 0-.6-.2-1-.4-1-.3 0-.8.4-1.1 1zM81.5 131c-.3.5-.1 1 .4 1 .6 0 1.1-.5 1.1-1 0-.6-.2-1-.4-1-.3 0-.8.4-1.1 1zM76.5 133c-.3.5-.1 1 .4 1 .6 0 1.1-.5 1.1-1 0-.6-.2-1-.4-1-.3 0-.8.4-1.1 1zM88.5 133c-.3.5-.1 1 .4 1 .6 0 1.1-.5 1.1-1 0-.6-.2-1-.4-1-.3 0-.8.4-1.1 1zM84.3 134.7c-1.6.6-1.7 3.3-.1 3.3.6 0 .8-.3.5-.7-.4-.3-.2-1.2.4-2 1.2-1.4 1.1-1.4-.8-.6zM75 138.1c0 .5.5.7 1 .4.6-.3 1-.8 1-1.1 0-.2-.4-.4-1-.4-.5 0-1 .5-1 1.1zM219.6 16.3c-2.2 1.6-1.7 5 .8 5.5 2.6.5 4-1.2 3.2-4.2-.7-2.9-1.4-3.2-4-1.3zM222 19c0 .5-.4 1-1 1-.5 0-1-.5-1-1 0-.6.5-1 1-1 .6 0 1 .4 1 1zM227 16.4c0 .8.4 1.7.9 2 .5.4.7-.3.4-1.4-.6-2.3-1.3-2.6-1.3-.6zM211 22.5c0 1.5 1.8 4 2.4 3.4.3-.3-.1-1.4-.9-2.5-.8-1-1.4-1.5-1.5-.9zM217.6 25.5c.9 1.4 1.9 2.4 2.1 2.1.6-.6-2-4.6-3-4.6-.4 0 0 1.1.9 2.5zM224.6 25.5c.4.8.8 1.5 1 1.5.2 0 .4-.7.4-1.5s-.4-1.5-1-1.5c-.5 0-.7.7-.4 1.5zM220.2 38.7c-.5 1-1.2 4.2-1.4 7.1-.4 4.1-.2 5.5.9 5.9 1.1.4 1.2.8.2 1.3-.6.4-1.4 3.2-1.6 6.1l-.4 5.4 1.6-2.8c.9-1.6 1.8-3.9 1.9-5.1.1-1.2.5-2.6.9-3.2.3-.6-.1-2.3-.9-3.8-1.8-3.6-1.8-5.7.1-3.2 1.4 1.8 1.5 1.6 1.5-3.1 0-5.5-1.3-7.5-2.8-4.6zm1 4.5c-.9.9-1.2.7-1.2-1.2s.3-2.1 1.2-1.2c.9.9.9 1.5 0 2.4zM221 50c0 .5-.5 1-1.1 1-.5 0-.7-.5-.4-1 .3-.6.8-1 1.1-1 .2 0 .4.4.4 1zm-.9 7.7c-.8 1.5-1 1.5-1.1.2 0-1.7 1-3.2 1.8-2.5.2.3-.1 1.3-.7 2.3zM219.4 64.8c-.7 1-1.2 5.1-1.3 9.2 0 4-.3 7.6-.6 7.8-.3.3.3 1.1 1.3 1.9.9.8 1.1 1.2.5.8-.7-.3-1.3-.5-1.3-.3-.5 3.3-.8 13-.4 12 .3-.6 1-1 1.5-.7 1.5 1 2.3-4.6.8-5.6-1.1-.7-1.2-1.1-.1-1.7 1.5-1 1.3-7.8-.2-10.6-.8-1.3-.8-2-.1-2.2.6-.2.9-2.2.7-4.3-.2-2.1.1-4.8.7-6 1.4-2.6 0-2.8-1.5-.3zm.3 27.7c0 .8-.4 1.5-.9 1.5-.4 0-.8-.7-.8-1.5s.4-1.5.8-1.5c.5 0 .9.7.9 1.5zM217.1 103.6c-1.9 2.1-2 2.8-1 3.5.8.5 1.7.9 2 .9.6 0 1.9-6.2 1.5-6.7-.2-.2-1.3.9-2.5 2.3zM89.5 41c.3.5.8 1 1.1 1 .2 0 .4-.5.4-1 0-.6-.5-1-1.1-1-.5 0-.7.4-.4 1zM108 43.1c0 .5.5.7 1 .4.6-.3 1-.8 1-1.1 0-.2-.4-.4-1-.4-.5 0-1 .5-1 1.1zM111 42.4c0 1 2.8 1.3 4.1.5 1-.6.7-.9-1.3-.9-1.6 0-2.8.2-2.8.4zM122.5 50c.3.5.8 1 1.1 1 .2 0 .4-.5.4-1 0-.6-.5-1-1.1-1-.5 0-.7.4-.4 1zM63.6 53.4c.3.8 1.3 1.7 2.2 2.1 1.3.5 1.3.2-.3-1.5-2.1-2.4-2.6-2.5-1.9-.6zM63.5 58c-.4.6-.3 1.6.3 2.2 1.3 1.3 2.3-.4 1.3-2.1-.7-1-1-1-1.6-.1zM60 61c0 .5.5 1 1.1 1 .5 0 .7-.5.4-1-.3-.6-.8-1-1.1-1-.2 0-.4.4-.4 1zM60.5 95.1c-.9 1.4-.2 2 1.4 1 .8-.6.9-1.1.3-1.5-.6-.3-1.4-.1-1.7.5zM60.2 100.4c.7.8 1.5 1.2 1.7 1.1.5-.6-1-2.5-2-2.5-.5 0-.4.6.3 1.4zM116.5 70c-.3.5-.1 1 .4 1 .6 0 1.1-.5 1.1-1 0-.6-.2-1-.4-1-.3 0-.8.4-1.1 1zM219 118.6c0 .8.5 1.2 1 .9.6-.4.8-1.1.5-1.6-.9-1.4-1.5-1.1-1.5.7zM192.7 130.7c-.4.3-.7 1.1-.7 1.7 0 .6.5.5 1.2-.2.6-.6.9-1.4.7-1.7-.3-.3-.9-.2-1.2.2zM197.6 131.7c-.6 1.4-.5 1.5.5.6.7-.7 1-1.5.7-1.8-.3-.3-.9.2-1.2 1.2zM186 139.6c0 1.1-.5 1.4-1.7 1-1.5-.6-1.5-.4.2 1.4 1 1.1 1.9 2 2 2 .1 0 .2-1.4.3-3 0-1.7-.1-3-.4-3-.2 0-.4.7-.4 1.6zM189.7 138.7c-.4.3-.7 1.3-.7 2.2.1 1.3.3 1.3 1.1-.2 1.1-1.9.8-3.3-.4-2zM179.5 142.9c-.6 1.1.9 2.3 1.9 1.4.9-.9.7-2.3-.3-2.3-.6 0-1.2.4-1.6.9zM190.5 144c-.3.5-.1 1 .4 1 .6 0 1.1-.5 1.1-1 0-.6-.2-1-.4-1-.3 0-.8.4-1.1 1zM184 147.1c0 .5.5.7 1 .4.6-.3 1-.8 1-1.1 0-.2-.4-.4-1-.4-.5 0-1 .5-1 1.1zM201.5 148c.3.5.8 1 1.1 1 .2 0 .4-.5.4-1 0-.6-.5-1-1.1-1-.5 0-.7.4-.4 1zM177.1 151.6c0 1.1.3 1.4.6.6.3-.7.2-1.6-.1-1.9-.3-.4-.6.2-.5 1.3zM202.2 155.1c.2.7 1 1.5 1.7 1.7.8.3 1.2-.1.9-.9-.2-.7-1-1.5-1.7-1.7-.8-.3-1.2.1-.9.9zM194 155.8c0 .5.7 1.3 1.6 1.6 1 .4 1.4.1 1.2-.6-.5-1.5-2.8-2.3-2.8-1zM199.5 157c-.3.5-.1 1 .4 1 .6 0 1.1-.5 1.1-1 0-.6-.2-1-.4-1-.3 0-.8.4-1.1 1zM58.3 121.2c-2.2 2.8-2.7 4.1-1.2 3.3.8-.5.7 0-.3 1.2-2 2.1-2.4 3.8-.8 2.8.6-.3 1 .3 1 1.4 0 2.6-1.7 3.7-2.2 1.4-.3-1.3-.5-1.1-.9.8-.5 2.2-.3 2.5 1.3 2.1 1-.2 2.1-1.6 2.4-3.1.3-1.4 1-4.3 1.6-6.5 1-4.1.7-5.4-.9-3.4zM52.9 139.4c-.6 4.2 1.5 7.6 4.6 7.6 1.2 0 1.3-.5.3-2.8-.7-1.5-1.7-3.2-2.4-3.7-.6-.6-1.4-1.9-1.6-3-.3-1.2-.6-.5-.9 1.9zm3.1 3.1c0 .8-.4 1.5-.9 1.5-1.3 0-2.2-1.6-1.4-2.4 1.1-1.1 2.3-.6 2.3.9zM42.5 143.2c-1.9 5.7-4.7 19.6-5.1 25.7-.3 4.1-.8 8.1-1.3 9-.4.9-.8 3.4-1 5.6-.1 2.2-.6 6.2-1.1 9-.6 2.7-1.2 7-1.4 9.5-.2 2.5-.8 6-1.2 7.9-.7 3.2-.6 3.3 1.7 2.6 3.3-1.1 3.9-2.3 2.7-5.8-.8-2.1-.7-5.4.1-11.1.6-4.4 1.3-10.4 1.6-13.1 1.4-14.2 4.9-33.6 7-38.8.4-1 .3-1.7-.4-1.7s-1.4.6-1.6 1.2zM64.6 146.8c-.2.4.4.9 1.5.9 1.1.1 1.7-.2 1.4-.8-.7-1.1-2.2-1.2-2.9-.1zM69.8 148.7c.7.3 1.6.2 1.9-.1.4-.3-.2-.6-1.3-.5-1.1 0-1.4.3-.6.6zM49.2 150.9c-1.2 1-1.9 2-1.6 2.4.3.3 0 2.4-.6 4.7-.6 2.2-1.1 6.8-1.1 10.2 0 3.3-.4 6.9-.8 8-1.4 3.8 2.6 30.6 5.2 34.6 1.2 1.8 2.9.4 2.2-1.9-.6-1.8-.3-2 3.3-2.3.7-.1 1.7-.8 2.2-1.6.5-.8 1.3-1.5 1.7-1.6 1.7-.2 4.3-1.7 4.3-2.5 0-1-5.1 1-6.5 2.6-.6.8-1.8.9-3.2.4-3-1.1-3.9-2.9-1.4-2.9 2.2 0 6.1-2.8 6.1-4.4 0-.5-.8-.2-1.8.7-2.3 2.1-5.6 2.2-7.6.1-3.8-3.8-1.7-46.8 2.2-46.2.8.2 1.7-.3 1.9-1 .7-1.8-2.1-1.5-4.5.7zM52 205c0 .5-.4 1-1 1-.5 0-1-.5-1-1 0-.6.5-1 1-1 .6 0 1 .4 1 1zM55.7 149.7c-.3.5 3.3 1.5 8.1 2.2 4.8.7 9.4 1.7 10.2 2.1.8.4 4.2 1 7.5 1.4l6 .6-4-1.6c-2.2-.9-5.1-1.8-6.5-2-1.4-.2-4.7-.8-7.5-1.3-9.7-2-13.2-2.3-13.8-1.4zM81.8 150.7c.7.3 1.6.2 1.9-.1.4-.3-.2-.6-1.3-.5-1.1 0-1.4.3-.6.6zM86.4 151.5c1.1.8 2.5 1.5 3 1.5 1.5 0 4.3-1.9 3.1-2.1-7.4-.9-8-.9-6.1.6zM33 156c-1.8 4.3-.7 4.7 1.2.5.8-1.9 1.2-3.5.8-3.5-.4 0-1.3 1.4-2 3zM92 154c0 .5.5 1 1 1 .6 0 1-.5 1-1 0-.6-.4-1-1-1-.5 0-1 .4-1 1zM72.6 157.9c.3.9.9 2.4 1.1 3.3.8 2.8 2.1 2.1 1.5-.8-.3-1.9-.1-2.5.7-2 .6.4 1.1.3 1.1-.2s-1.2-1.2-2.6-1.5c-2-.4-2.4-.1-1.8 1.2z"/><path d="M52.7 158.7c-.2.5.2 1.9.9 3.3 1 1.7 1.4 2 1.4.8 0-.9.3-2.3.6-3.2.6-1.6-2.1-2.4-2.9-.9zM42.4 160.5c-.3.8-.4 2-.2 2.7.3.7.7.1 1-1.5.6-2.9.1-3.6-.8-1.2zM34 161.1c0 .5.5.7 1 .4.6-.3 1-.8 1-1.1 0-.2-.4-.4-1-.4-.5 0-1 .5-1 1.1zM89.5 160.9c-.3.5-.1 1.2.5 1.6.5.3 1-.1 1-.9 0-1.8-.6-2.1-1.5-.7zM51.5 164c0 1.5.3 2.6.7 2.3 1-.6 1-4 0-4.7-.4-.2-.8.8-.7 2.4zM92.7 162.9c.3 1.2.9 2.1 1.4 2.1 1.4 0 1.1-1.6-.5-2.9-1.2-1-1.3-.8-.9.8zM80 162.3c0 .2.8 2.8 1.9 5.8 2.1 6.3 3 13.1 3.6 28.1.2 5.9.6 11.2 1 11.8.3.5.2 1-.2 1-.5 0-.8 1.8-.8 3.9 0 2.2.3 3.8.6 3.5.6-.3 1.9-6.3 1.9-8.9.1-3-1-25.8-1.4-30.3-.5-5.3-4.2-15.2-5.8-15.2-.4 0-.8.2-.8.3zM30.3 163.7c-.7.2-1.3 1.5-1.3 2.7 0 1.2-.7 3.2-1.6 4.4-.8 1.2-1.4 2.8-1.1 3.5.2.6.1 1.9-.4 2.7-1.3 2.6-1.9 10.9-.9 11.5.6.3 1-.3 1-1.5 0-1.1.9-5.3 2.1-9.3 1.2-3.9 2.3-8.3 2.6-9.7.3-1.4 1-3.1 1.6-3.8 1-1.2.2-1.4-2-.5zM33.2 168c0 1.4.2 1.9.5 1.2.2-.6.2-1.8 0-2.5-.3-.6-.5-.1-.5 1.3zM92.3 169.5c-.9 2.4.1 2.7 1.5.5.8-1.3.8-2 .2-2-.6 0-1.3.7-1.7 1.5zM41 170.4c0 .8.4 1.7.9 2.1.6.3.9-.4.8-1.5-.1-2.3-1.7-2.8-1.7-.6zM77.7 170.1c-.9.6-1.7 1.7-1.7 2.4 0 1.1.6.9 2.1-.6 2.4-2.4 2.2-3.2-.4-1.8zM51.7 174.7c-.4.3-.7 1.1-.7 1.7 0 .6.5.4 1.1-.4.8-1.1.9-.8.4 1.5-.4 1.6-1.1 3.3-1.7 3.6-.6.4-.2 1.5 1 2.7l2.1 2.1v-6c-.1-5.5-.6-6.8-2.2-5.2zM30.1 179.7c-1.4 4.8-1.4 6-.1 6.8.6.4 1-.5.9-2.2-.1-1.5.2-4 .6-5.6.4-1.5.5-2.7.2-2.7-.4 0-1.1 1.7-1.6 3.7zM77.2 180c0 1.4.2 1.9.5 1.2.2-.6.2-1.8 0-2.5-.3-.6-.5-.1-.5 1.3zM57 180c0 .5.5 1 1.1 1 .5 0 .7-.5.4-1-.3-.6-.8-1-1.1-1-.2 0-.4.4-.4 1zM39.3 186c0 2.5.2 3.5.4 2.2.2-1.2.2-3.2 0-4.5-.2-1.2-.4-.2-.4 2.3zM91.5 182.9c-.6 1.1.9 2.3 1.9 1.4.9-.9.7-2.3-.3-2.3-.6 0-1.2.4-1.6.9zM57.5 184c.3.5.8 1 1.1 1 .2 0 .4-.5.4-1 0-.6-.5-1-1.1-1-.5 0-.7.4-.4 1zM68 185c0 1.1.4 2 .9 2s.7-.9.4-2c-.3-1.1-.7-2-.9-2-.2 0-.4.9-.4 2zM41.8 186.5c-.3 1.4-.1 2.5.3 2.5.5 0 .9-1.1.9-2.5s-.2-2.5-.4-2.5-.6 1.1-.8 2.5zM19.2 188.9c-.6 1.7-.7 3.3-.3 3.6.9.5 2.5-5.5 1.7-6.2-.2-.2-.8 1-1.4 2.6zM16.1 188.6c0 1.1.3 1.4.6.6.3-.7.2-1.6-.1-1.9-.3-.4-.6.2-.5 1.3zM52.3 188.7c-3.3.6-2.8 2.3.7 2.3 2 0 3-.5 3-1.5 0-.8-.3-1.4-.7-1.4-.5.1-1.8.4-3 .6zM28.7 190.4c-.4 1-.5 2.1-.2 2.4.9.9 1.7-.6 1.3-2.5-.3-1.7-.4-1.7-1.1.1zM68.2 190.6c-.9 1.6-.4 7.4.7 7.4.3 0 .6-2 .6-4.5 0-5 0-5.1-1.3-2.9zM22 191c0 .5.5 1 1 1 .6 0 1-.5 1-1 0-.6-.4-1-1-1-.5 0-1 .4-1 1zM39 194.7c0 1.7.6 3.3 1.4 3.6 1 .4 1.2-.1.9-1.6-.4-1.8-.3-1.9.6-.7.6.8 1.1 1 1.1.4s-.9-1.9-2-2.9c-2-1.8-2-1.7-2 1.2zM61.3 192.7c-1.4.5-1.8 2.3-.5 2.3.5 0 1.7-.7 2.8-1.5 1.4-1.1 1.5-1.4.4-1.4-.8 0-2.1.3-2.7.6zM21.1 196.7c-.1 2.3-.4 4.9-.7 5.7-.5 1.2-.2 1.5 1 1 1.7-.7 2.1-5.5.6-8.9-.7-1.6-.9-1.1-.9 2.2zM71.2 195c0 1.4.2 1.9.5 1.2.2-.6.2-1.8 0-2.5-.3-.6-.5-.1-.5 1.3zM17.5 195c.3.5.8 1 1.1 1 .2 0 .4-.5.4-1 0-.6-.5-1-1.1-1-.5 0-.7.4-.4 1zM26.9 194.7c-.1.4-.2 2.4-.4 4.3-.1 1.9-.5 5.4-.9 7.7-.4 2.4-.6 4.3-.3 4.3s1.4-1.9 2.6-4.2c1.4-2.9 1.7-4.5 1-5.4-.5-.7-.7-2.3-.4-3.7.4-1.4.2-2.8-.4-3.1-.6-.4-1.2-.4-1.2.1zM52.3 195.1c1.1.7 2.3.7 3.5 0 1.4-.9 1.1-1-1.8-1-2.9 0-3.2.1-1.7 1zM16 198.9c0 1-.3 4-.7 6.6-.5 3.7-.3 4.6.6 4 .7-.4 1.1-1.8.8-3.1-.2-1.3 0-2.4.6-2.4.5 0 .7-1.3.5-2.9-.2-1.7-.1-2.8.4-2.5.4.3.8 0 .8-.5 0-.6-.7-1.1-1.5-1.1s-1.5.8-1.5 1.9zM69.1 200.6c0 1.1.3 1.4.6.6.3-.7.2-1.6-.1-1.9-.3-.4-.6.2-.5 1.3zM72 200.6c0 .8.5 1.2 1 .9.6-.4.8-1.1.5-1.6-.9-1.4-1.5-1.1-1.5.7zM39.2 202.5c-.1 1.4.3 2.5.8 2.5.6 0 1-1.1 1-2.5s-.4-2.5-.8-2.5-.9 1.1-1 2.5zM42.6 202.6c-.4 1.4-.5 2.9-.2 3.1.3.3.8-.7 1.2-2.1.3-1.5.4-2.9.1-3.2-.2-.3-.8.7-1.1 2.2zM69.1 205.5c-.1 1.1-.4 3.6-.6 5.5-.4 2.8-.2 3.1.6 1.7.6-.9.8-3.4.6-5.5-.2-2-.5-2.8-.6-1.7zM80.7 205.2c.6.7 1.3 2 1.6 2.8.4 1 .6.8.6-.6.1-1.2-.6-2.5-1.5-2.8-1.3-.5-1.4-.3-.7.6zM20.7 205.7c-.9 1.4-2 8.3-1.3 8.3 1.2 0 3.6-7.4 2.7-8.3-.5-.5-1.1-.5-1.4 0zM28.4 207.2c-.4.6-.7 3.1-.7 5.5s-.4 4.3-.9 4.3-.6.5-.2 1.1c1.2 2 2.2-.5 2.6-6.4.3-6.1.3-6.3-.8-4.5zM44.5 210.1c-.4.6-1.3.8-2.1.5-1.8-.7-1.8.8.1 4.4 1.5 3 4.5 3.2 4.5.4 0-.8-.6-1.1-1.5-.8-1.8.7-1.8.4-.5-3 1-2.6.7-3.5-.5-1.5zM81 212c0 .5.5 1 1 1 .6 0 1-.5 1-1 0-.6-.4-1-1-1-.5 0-1 .4-1 1zM72 213c0 .5.5 1 1.1 1 .5 0 .7-.5.4-1-.3-.6-.8-1-1.1-1-.2 0-.4.4-.4 1zM82.1 214.9c-.7.5-1.2 1.4-1 2 .2.6 1 .2 1.7-.9 1.4-2.2 1.3-2.3-.7-1.1zM16 217c0 1.1.7 2 1.5 2 1.7 0 2 1.6.5 2.5-.5.3-.7 1.2-.4 2 .4.8 1.1 1.2 1.7.8.6-.4.8 0 .4 1-1.1 2.9 5.6 12.9 7.9 12 1-.4 1.4.4 1.5 2.3 0 1.6.3 2.3.6 1.6.2-.6 1.2-1.2 2-1.2 1.8 0-2.6-4.6-6.2-6.6-1.1-.6-1.9-1.7-1.7-2.4.2-.7-.1-1.6-.5-1.9-1.4-1-3.3-6.1-3.3-8.9 0-1.5-.4-3.2-.8-3.7-1.3-1.8-3.2-1.5-3.2.5zM67.6 219.7c.3 1-.2 4.2-.9 7-.8 2.9-1 5.3-.6 5.3.5 0 .9-.9.9-2.1 0-1.8.4-2 2.5-1.5 1.8.5 2.5.2 2.5-.8 0-.7-.8-1.3-1.7-1.2-1.4.1-1.7-.7-1.4-4.2.1-2.3-.2-4.2-.7-4.2-.6 0-.8.8-.6 1.7zM85 220c0 1.9.3 2.1 1.2 1.2.9-.9.9-1.5 0-2.4-.9-.9-1.2-.7-1.2 1.2zM80.7 221.3c-.4 1-.7 2.8-.6 4 0 2.1.1 2.1 1-.2.5-1.4.8-3.2.7-4-.3-1.3-.5-1.3-1.1.2zM43.1 222.6c-.1.6.2 1.4.7 1.8.7.7.8 1.2 1.1 3.8.1.9.4.9 1.2.1 1.2-1.2.2-5.6-1.1-4.8-.5.3-1.1-.1-1.3-.7-.3-.7-.6-.8-.6-.2zM48.6 229.3c.3 1 .9 1.5 1.2 1.2.3-.3 0-1.1-.7-1.8-1-.9-1.1-.8-.5.6zM68.7 232.7c-.4.3-.7 1.1-.7 1.7 0 .6.5.5 1.2-.2.6-.6.9-1.4.7-1.7-.3-.3-.9-.2-1.2.2zM54.7 235c-.6 2.2 4.1 4.4 6.4 2.9 1-.6.4-.9-1.8-.9-3.2 0-4.5-1.4-2.1-2.2.8-.3.6-.6-.4-1-1.1-.5-1.8 0-2.1 1.2zM62.7 233.7c-1.2 1.2-.7 2.2.8 1.7.8-.4 1.5-1 1.5-1.5 0-1.1-1.4-1.2-2.3-.2zM51 235c0 .5.4 1 .9 1 .6 0 1.3-.5 1.6-1 .3-.6-.1-1-.9-1-.9 0-1.6.4-1.6 1zM66.5 237.1c-1.1 1.7.1 2.1 1.5.4.8-.9.8-1.5.2-1.5-.6 0-1.4.5-1.7 1.1zM236.5 129c-.3.5-.1 1 .4 1 .6 0 1.1-.5 1.1-1 0-.6-.2-1-.4-1-.3 0-.8.4-1.1 1zM239 139c0 .5.7.7 1.5.4.8-.4 1.5-.8 1.5-1 0-.2-.7-.4-1.5-.4s-1.5.4-1.5 1zM155.2 154c0 1.4.2 1.9.5 1.2.2-.6.2-1.8 0-2.5-.3-.6-.5-.1-.5 1.3zM222.6 169.7c-1 1-.7 5.3.4 5.3.5 0 .7-.7.4-1.5-.4-.8-.1-1.5.5-1.5s1.1 1.9 1.1 4.5c0 2.5-.4 4.5-1 4.5-.5 0-.9-.3-.9-.8.1-.4 0-1.6-.1-2.7-.2-1.1-.6.7-1 4-.4 3.4-.3 6.5.3 7.2.6.9.6 1.8-.2 2.6-.8 1.1-.6 1.8 1.1 3.3l2.1 1.9-.6-6.2c-.4-3.4-.3-6.4.2-6.7 1-.7 2-9.1 1.4-11.6-.5-2-2.7-3.3-3.7-2.3zM221.3 200.7c-.7.3-1.3 1.3-1.3 2.4 0 1.6.3 1.8 1.9 1 3.7-2 3.2-4.6-.6-3.4zM222.3 205.7c-.7.2-1.3 1.2-1.3 2.1 0 1.5.2 1.5 1 .2.8-1.2 1-1.2 1.1.5 0 2 0 2 .9 0 1.5-3.5 1.2-4-1.7-2.8zM220 213.8c0 1.8.5 3.2 1 3.2.6 0 .8-1.1.4-2.8-1-3.9-1.4-4-1.4-.4zM223.3 215.9c0 1.1.5 1.7.9 1.5 1.1-.7 1-3.4-.1-3.4-.6 0-.9.9-.8 1.9zM222.2 230.7c-1.7.7-.5 2.3 1.9 2.3 1.2 0 1.9.7 1.9 2 0 1.1.6 2 1.4 2 .8 0 1.6 1 1.8 2.2.3 2.2.4 2.2.9.2.5-1.5-.3-3.1-2.6-5.7-1.8-2-3.5-3.7-3.7-3.6-.1 0-.9.3-1.6.6zM217.6 233.9c-.6.9 3.5 2.4 4.3 1.5.6-.5-1.8-2.4-3.1-2.4-.4 0-.9.4-1.2.9zM272.8 235.6c-.6.6-3.2 1.2-5.8 1.3-1.3.1-1.3.3-.1 1 .8.5 2.4.6 3.5.2 1.2-.5 5.4-.6 9.4-.4 4.1.2 7.2 0 7.2-.5s-1.5-.9-3.2-.9c-1.8 0-4.9-.2-6.9-.6-1.9-.4-3.8-.5-4.1-.1zM243.3 238.6c-.7 2 2.2 4.5 4.3 3.7 1.9-.7 1.8-2.3-.1-2.3-.8 0-1.5-.5-1.5-1 0-1.3 1.3-1.3 2.7.1.6.6 1.7.8 2.5.3.9-.6.6-1-1.2-1.5-4.2-1.2-6-1-6.7.7zM255.5 238c.3.5 1.2 1 2 1s1.7-.5 2-1c.4-.6-.5-1-2-1s-2.4.4-2 1zM220.2 241.1c.2.7 1 1.5 1.7 1.7.8.3 1.2-.1.9-.9-.2-.7-1-1.5-1.7-1.7-.8-.3-1.2.1-.9.9zM231 241.6c0 .8.5 1.2 1 .9.6-.3 1-1 1-1.6 0-.5-.4-.9-1-.9-.5 0-1 .7-1 1.6zM314 234.9c0 .5.6 1.4 1.4 2 1.2 1 1.3.8.9-.8-.5-2.1-2.3-3-2.3-1.2zM309 239.2c0 .8.9 1.4 2.1 1.5 1.2.1 1.9-.3 1.6-1-.5-1.7-3.7-2.1-3.7-.5zM311 244c0 .5.5 1 1.1 1 .5 0 .7-.5.4-1-.3-.6-.8-1-1.1-1-.2 0-.4.4-.4 1zM308 253.4c0 1.8 3 3 4.3 1.7.5-.5.6-1.4.3-2-1-1.6-4.6-1.3-4.6.3zM310.2 268.2c-.1 2.3.4 4.8.9 5.5.6.6.8 2.1.4 3.3-.4 1.2-.2 2 .5 2s1-2 .7-6c-.3-3.3-.1-6.3.4-6.6 1.2-.7.1-2.4-1.5-2.4-.9 0-1.4 1.4-1.4 4.2zM309.5 281c-.3.5-.4 1.4-.1 1.9 1.2 1.9 1.5 9.4.5 11.3-.8 1.5-.8 1.9 0 1.3.8-.4 1.1.3 1 2.2-.1 1.5.3 3.9.9 5.3.8 1.9 1-.5.9-10.2-.2-9.1-.5-12.8-1.4-12.8-.6 0-1.5.4-1.8 1zM367 285.1c0 .5.5.7 1 .4.6-.3 1-.8 1-1.1 0-.2-.4-.4-1-.4-.5 0-1 .5-1 1.1zM367 289.6c0 .8.5 1.2 1 .9.6-.4.8-1.1.5-1.6-.9-1.4-1.5-1.1-1.5.7zM370.9 292.7c-.2 10.5-.9 26.1-1.2 28.5-.5 3.3 1 3.8 1.8.5.3-1.2.7-7.6.9-14.2.3-6.6.8-13.5 1.2-15.3.5-2.6.3-3.2-1-3.2-1.2 0-1.6 1-1.7 3.7zM309.6 308.2c-1.6 9.7-1.6 10.4.4 10.4 1.2 0 1.6-.4 1-1.1-.4-.5-.6-3.8-.3-7.3.5-7.1-.1-8.2-1.1-2z"/><path d="M311 315c0 .5.5 1 1 1 .6 0 1-.5 1-1 0-.6-.4-1-1-1-.5 0-1 .4-1 1zM314.8 329.6c-.3.3-2.4.5-4.7.6-2.4 0-3.8.4-3.5 1 .4.5 1.7.8 3.1.5 1.3-.2 3 .2 3.9 1 1.2 1.3 1.4 1.2 1.4-.2 0-.9.5-1.3 1.1-1 .6.4.8 1.4.4 2.2-.3.9.2 2.7 1 4 1.4 2 1.4 2.7.3 4-1.1 1.4-1.1 1.5.2 1.1 1.1-.4 1.4-1.8 1.3-4.9-.3-6-2.6-10.2-4.5-8.3zM386 332c0 .5.5 1 1.1 1 .7 0 1 1.5.7 4-.4 4.2 0 4.8 2 2.8 1.8-1.8 1.5-5.9-.5-7.4-2.2-1.6-3.3-1.7-3.3-.4zM399 331.5c0 .4.5 1.5 1.1 2.6.8 1.6.6 2.8-.9 5.3-2 3.3-2 3.4 0 2.8 3.8-.9 5.1-8.4 1.8-10.2-1.1-.6-2-.8-2-.5zM350 334.1c0 .5.5.7 1 .4.6-.3 1-.8 1-1.1 0-.2-.4-.4-1-.4-.5 0-1 .5-1 1.1zM353 334c0 .5.5 1 1 1 .6 0 1-.5 1-1 0-.6-.4-1-1-1-.5 0-1 .4-1 1zM356.5 334c.3.5 1.3 1 2.1 1s1.4-.5 1.4-1c0-.6-.9-1-2.1-1-1.1 0-1.7.4-1.4 1z"/><path d="M396.3 335.2c.5 1.9.2 2.8-1 3.2-.9.4-1.4.9-1.1 1.1.3.3 1.3.3 2.2-.1 1.8-.7 2.2-4.9.5-6-.8-.5-1 .1-.6 1.8zM328 334.8c0 .5.7 1.7 1.5 2.8 1.5 1.9 2 .8.9-2-.6-1.7-2.4-2.2-2.4-.8zM365.7 334.7c-.9.2-1.5.8-1.2 1.3.6 1 4.5.1 4.5-1.1 0-.9-.4-1-3.3-.2zM371 335c0 .7 2.4 2 3.6 2 1.3 0 .1-1.9-1.6-2.3-1.1-.3-2-.2-2 .3zM405.4 337.1c-.1 2 .2 2.6.7 1.7 1.1-1.6 1.2-4.8.2-4.8-.5 0-.8 1.4-.9 3.1zM311.5 336c.3.5 1 1 1.6 1 .5 0 .9-.5.9-1 0-.6-.7-1-1.6-1-.8 0-1.2.4-.9 1zM333.9 335.5c-.1.3-.2.8-.3 1.2-.1.5-.5 1.4-.9 2-.5.9-.3 1.3.7 1.3.9 0 1.6-.8 1.6-1.9 0-1.1.6-2.2 1.3-2.4.7-.3.5-.6-.5-.6-1-.1-1.9.1-1.9.4zM375.5 336.7c-.8 2.3 1.3 4.2 2.5 2.3 1.3-2.1 1.2-2.7-.4-3.3-.8-.3-1.7.1-2.1 1zM336.3 338.4c-.4.5.4.7 1.5.4 1.2-.4 2.2-.1 2.2.4 0 1.3 13.8.4 15.1-.9.4-.4-3.5-.8-8.7-.8-5.3 0-9.8.4-10.1.9zM312 339.1c0 .5.9.9 2 .9s2-.2 2-.4-.9-.6-2-.9c-1.1-.3-2-.1-2 .4zM358.2 339.7c.6.8 1.8 1.1 2.7.8.9-.2 4-.6 6.9-.7 8.3-.4 6-1.6-2.7-1.5-6.5.1-7.8.4-6.9 1.4zM373.8 341.7c.7.3 1.6.2 1.9-.1.4-.3-.2-.6-1.3-.5-1.1 0-1.4.3-.6.6zM409.1 290.4c-1 1.1-.8 1.6.5 2.4 1.3.7 1.6 1.8 1.1 4.5-.3 2.2-.1 3.7.5 3.9.8.3.8 1 .1 2.3-.6 1.1-1.3 5-1.6 8.7-.4 5.5-.3 6.8.9 6.8 1.1 0 1.3-1.1 1-4.7-.2-2.6 0-5.4.6-6.1 1.2-1.4 1.5-14.3.4-16.1-.4-.6-.2-1.1.3-1.1.6 0 1.1-.5 1.1-1 0-1.5-3.6-1.2-4.9.4zM408 323.9c0 .5 1.2.8 2.6.8 1.8 0 2.2-.2 1.3-.8-1.8-1.1-3.9-1.1-3.9 0zM32 431.4c1.9 1.3 4.1 2.1 4.9 1.8.8-.3-.1-1.2-2.5-2.4-5.3-2.5-6.5-2.3-2.4.6zM20 433c0 .5.5 1 1.1 1 .5 0 .7-.5.4-1-.3-.6-.8-1-1.1-1-.2 0-.4.4-.4 1zM23.6 435.5c.4.8.8 1.5 1 1.5.2 0 .4-.7.4-1.5s-.4-1.5-1-1.5c-.5 0-.7.7-.4 1.5zM26.6 439.7c-.6 1.4-.5 1.5.5.6.7-.7 1-1.5.7-1.8-.3-.3-.9.2-1.2 1.2zM32.7 438.7c-.3.5 0 2.7.6 5 1 3.7.8 4.8-1.1 8.6-2.7 5.4-2.7 6.1-.3 4.8 2.2-1.2 5.4-8.7 4.4-10.4-.3-.6-.7-2.6-.7-4.5-.1-3.3-1.8-5.3-2.9-3.5zM29.5 445c-.3.5-.1 1 .4 1 .6 0 1.1-.5 1.1-1 0-.6-.2-1-.4-1-.3 0-.8.4-1.1 1zM40.5 448c-.3.5-.2 1 .4 1 .5 0 1.3-.5 1.6-1 .3-.6.2-1-.4-1-.5 0-1.3.4-1.6 1zM47.7 465.7c-.4.3-.7 1.1-.7 1.7 0 .6.5.5 1.2-.2.6-.6.9-1.4.7-1.7-.3-.3-.9-.2-1.2.2zM56 469.4c0 .8-.6 1.6-1.2 1.9-.7.2-1 .7-.7 1.1.3.3 1.4-.2 2.3-1.3 1.1-1.2 1.4-2.1.7-2.6-.6-.3-1.1 0-1.1.9zM79 499.5c1.3 1.4 2.5 2.5 2.7 2.5.2 0-.4-1.1-1.3-2.5s-2.1-2.5-2.7-2.5c-.6 0 0 1.1 1.3 2.5zM75 502.5c0 .9.5 1.5 1.1 1.3.6-.2 1.1-.8 1.1-1.3s-.5-1.1-1.1-1.3c-.6-.2-1.1.4-1.1 1.3zM78.5 505c-.3.5-.1 1 .4 1 .6 0 1.1-.5 1.1-1 0-.6-.2-1-.4-1-.3 0-.8.4-1.1 1zM342.9 58c-.1.8-.1 1.8-.1 2.1.5 4.8 0 13.7-1.5 23.4-1.2 7.8-1.7 16.3-1.5 24.3l.2 12.3-2.2-1.2c-1.3-.7-5-2.9-8.3-4.9-8.8-5.4-17.3-10-18.5-10-1.1 0-4.1-1.3-21.6-9.6-8.4-3.9-11.5-6.3-18.2-14-3.3-3.7-3.6-2.5-.8 3.7 1.6 3.6 3.5 6 5.6 7.3 1.7 1 4.8 4.3 6.7 7.5 7.4 11.7 27.9 31.3 38.3 36.7l5.5 2.8-9.4 1.7c-10 1.9-18.4 4.4-21.6 6.5-1.1.7-5.1 2.4-8.8 3.8-3.7 1.4-8.7 3.9-11 5.5-2.3 1.6-8.6 4.6-13.9 6.7-10.3 4-12.1 6.5-2.8 3.8 4.1-1.2 9.1-1.6 19.5-1.4 15.7.2 36.8-2.1 46.4-5l6.2-1.8-4.1 3.6c-6.6 6-15.3 18.6-18.4 26.4-1.5 4-3.5 8.1-4.4 9.1-1.4 1.6-1.4 1.9-.2 2.7 2.2 1.4 3 1.2 3-.6 0-.9.9-2.7 2-4.1 1.1-1.4 2-3.3 2.1-4.2 0-.9 1.4-3.6 3-6.1 1.6-2.5 3.6-6 4.4-7.8.8-1.7 2-3.2 2.5-3.2.6 0 1-.5 1-1.1 0-1.6 7.5-9.9 12.3-13.6 2.3-1.8 5.4-3.3 6.9-3.3 2.6 0 4.6-1.6 3.4-2.7-.7-.7-13.5 2.8-14.2 3.9-.3.4-2.1.8-3.9.8-1.9 0-5.4.4-7.7 1-12.5 2.8-47.8 4.9-47.8 2.8 0-.4.6-.8 1.3-.8.8 0 2.7-1.1 4.2-2.5 1.6-1.3 6.5-3.8 10.9-5.6 4.5-1.7 8.6-3.5 9.1-3.9.6-.4 3-1.1 5.4-1.5 2.4-.4 6.8-1.8 9.8-3.1 3-1.4 6.9-2.5 8.6-2.5 1.8 0 6.6-.2 10.8-.5l7.6-.5 2.6 5.5c1.5 3 3.5 6 4.7 6.6 1.9 1 2.9 5 1.3 5-.5 0-.9 3.8-.9 8.4-.1 7.1-.5 9-2.5 11.8-3.4 4.8-18.6 19.1-25.5 24-3.2 2.3-6 4.6-6.2 5-.2.4-.9.8-1.7.8-.7 0-1.8.7-2.5 1.5-.7.9-2.8 2.3-4.6 3.1-1.9.9-3.4 2-3.4 2.5s-.7.9-1.5.9c-1.9 0-2-2.9 0-3.6.8-.3 1.9-2.1 2.5-3.9.6-1.8 1.8-3.9 2.6-4.5 1.8-1.6 1.8-3-.1-3-.9 0-1.9 1-2.4 2.2-1.3 3.5-9.5 14-14.5 18.6-5.2 4.8-4.3 6.7 1.2 2.5 2-1.6 6.6-4.4 10.2-6.2 15.2-7.9 42.7-29.4 46.5-36.5.8-1.4 1.5.3 3.2 8.7 2.5 12.3 8.2 27.3 12.9 33.9 5.3 7.5 8.5 14.7 8.7 19.4.2 4.6.4 4.9 2.4 3.6.9-.6.9-2.2-.3-7.2-1.4-5.9-1.4-7.7.1-19.5 1.7-13 1.7-36.2-.1-42.9l-.7-2.9 2.9 2.1c1.6 1.1 5 4 7.5 6.4 4.4 4.1 18.8 12 24.6 13.4 1.5.4 8.2 3.3 14.8 6.5 9 4.3 13.4 7.1 17.6 11.2 5.5 5.3 9.4 7.4 10.5 5.6.3-.5-.2-.9-1-.9-.9 0-2.8-1.9-4.3-4.3-1.5-2.3-5.3-7.4-8.4-11.2-3.1-3.9-7.9-10.4-10.7-14.6-3.5-5.2-7.9-10.1-13.9-15.1-14.8-12.4-21.8-17.5-25.1-18.3-4.6-1-4.9-2.5-.5-2.6 2.1 0 5.4-.2 7.3-.4 1.9-.2 5.9-.7 8.8-1 6.3-.6 23.3-5.9 28.1-8.6 3-1.8 4.1-1.9 10.8-.9 4.1.5 7.6 1 7.9 1 .2 0 .4-.6.4-1.4 0-.9-2-1.5-6.6-1.9-7.3-.7-11.9-1.9-17.9-4.9-2.2-1-6.2-2.3-9-2.8-2.7-.5-8.6-1.5-13-2.4-5-.9-10.3-1.3-14-.9l-6 .6 2.6-3.4c2.9-3.9 12.8-21.3 13.1-23.1.2-.7.5-1.5.8-1.8 2.8-2.6 6.3-30 3.8-30-.4 0-.8.9-.8 2 0 1-1.2 3.2-2.7 4.7-8.1 8.3-23.6 26.8-28.1 33.5-2.9 4.2-5.6 7.9-6.1 8.3-.6.3-1.3-1.1-1.6-3.2-2.7-15.8-9.7-35.2-14.9-41.4-2.3-2.7-2.6-3.8-2.3-9.4.1-4.1-.3-6.8-1-7.6-1.1-1.1-1.3-1-1.4.1zm4.6 21c-.8 1.3 1.9 5.2 3 4.2.5-.4.5-.2.2.4-.9 1.6.9 6.9 2.2 6.6.7-.1 1 .2.6.8-.3.6.3 3.5 1.4 6.4 1.1 3 2.3 7.8 2.7 10.8.4 2.9 1.1 5.8 1.6 6.5.5.7.7 3.5.3 6.5-.8 5.9-.8 7.6-.3 9.8.3 1.6-3.4 1.6-4-.1-.2-.5-1.6-.2-3.2.6-4.4 2.3-5.5 1.9-7.4-2.6-1.5-3.3-1.9-7.5-2.2-20.2-.3-9.3 0-16.5.5-17.1.6-.7 1.1-3.6 1.3-6.6.2-3.7.8-5.7 1.8-6.2 2.1-.9 2.2-.9 1.5.2zm53 1.7c-.9 3.2-1.6 7.6-1.8 11.5-.1 1.6-.6 2.8-1.1 2.8-.4 0-.6.9-.3 2 .3 1 0 1.8-.5 1.7-.6-.1-1.6 1.7-2.3 4.1-.7 2.4-2.1 4.9-3.1 5.6-.9.7-1.4 1.8-1 2.4.4.7.2 1.2-.4 1.2-.6 0-1.8 1.5-2.6 3.2-.7 1.8-2.5 5.1-3.9 7.3s-2.8 4.8-3.1 5.7c-.5 1.3-14.6 7.8-17 7.8-.2 0-.4-1.6-.4-3.5 0-4.6 2.2-11.5 3.6-11.5.7 0 1.5-.7 1.8-1.6 1.1-2.9 8.8-14.4 9.7-14.4.4 0 1-.8 1.3-1.8.4-.9 2.1-3.3 3.9-5.3 8.5-9.6 14.3-16.4 15.5-18 1.9-2.7 2.5-2.3 1.7.8zm-105.8 19.8c2.7 1 5.7 2.4 6.8 3.2 1.1.7 2.5 1.3 3.3 1.3.7 0 3.2.9 5.4 2 2.3 1.1 4.8 2 5.5 2 .7 0 1.3.4 1.3 1 0 .5.5 1 1.1 1 .7 0 4 1.8 7.5 4s6.6 4 7 4c.4 0 1.3.8 2 1.7.8 1.1 1.3 1.3 1.4.5 0-2 2-1.3 2 .8 0 1 .6 2.3 1.3 2.7 2 1.2 3.8 7.1 2.7 9.1-.5.9-1.1 2.5-1.4 3.4-.9 3.1-8.8 2.4-13.8-1.2-2.2-1.7-4.6-3-5.2-3-.6 0-3.3-2-6.1-4.5-2.7-2.5-5.3-4.5-5.7-4.5-.4 0-.8-.6-.8-1.4 0-.8-.8-1.3-1.7-1.2-1.2.1-1.7-.5-1.5-1.8.2-1-.1-1.5-.7-1.2-1 .7-6.7-5-10.6-10.5-1.1-1.6-3.2-3.3-4.7-4-1.5-.6-2.5-1.6-2.2-2.3.3-.7-.2-1.9-1.1-2.6-.8-.7-1.5-2.1-1.5-3.1 0-1.6.3-1.6 2.5.5 1.4 1.3 4.6 3.1 7.2 4.1zm115.1 32.9c2.9.8 5.3 1.4 5.5 1.4 1.2 0 6.6 1.8 8.5 2.8 1.4.7 3.1 1 3.8.7.8-.3 1.4.1 1.4 1 0 1.6-.8 1.9-14.3 6.6-13.8 4.8-43.2 6.6-49.7 3.1-1.5-.8-1.7-1.8-1.3-5.2.6-5.2 2.1-6.4 11.7-9.9 6.3-2.3 8.3-2.6 18.1-2.3 6.1.1 13.4.9 16.3 1.8zm-53.1.7c2.6.8 3.1 1.7 3.6 5.1.7 5.3-.5 8.3-4.2 10.3-6.8 3.5-12.1.5-13.3-7.6-.8-4.8 0-5.7 5.8-7.3 2.7-.7 4.9-1.4 5-1.5.1 0 1.5.4 3.1 1zm4.3 18.8c0 1.1.4 2.2.9 2.5.8.5 3.6 14.8 3.4 17.3 0 .7.3 1.3.7 1.3.5 0 .6.9.3 2s0 2.6.6 3.3c.6.8 1.4 5.2 1.7 10 .4 4.8 1.1 8.4 1.5 8.1 1.3-.7 1.1 2-.1 3.2-.6.6-1.3 6.7-1.6 13.5-.7 14.9-1 16.2-2.9 12.9-.8-1.4-1.9-3.7-2.6-5.3-.6-1.5-1.4-2.7-1.8-2.7-.3 0-1.2-.9-1.9-2.1-1.2-1.9-1.1-2 .7-1.4 2.3.7 2.9-1 .7-1.8-.8-.3-2.3-1.8-3.2-3.2-2.4-3.7-8.3-24.1-7.7-26.5.3-1.1 0-2.7-.7-3.5-.7-.8-.9-2.2-.5-3.2s.8-5 1-8.8c.3-11.3 1.4-15.5 3.9-15.5 1.1 0 2.8-.5 3.6-1 2.4-1.5 4-1.2 4 .9zm10.8 0c2.7.4 6.2 1.7 7.8 2.8 1.6 1.1 5.5 3.2 8.7 4.7 3.1 1.4 5.7 3.2 5.7 4 0 1.3 2.7 2.8 5.5 3.1.6 0 .9.6.8 1.3-.4 1.5 6.3 6.5 7.7 5.7.5-.3 1 0 1 .7 0 1.6 7.3 9 8.6 8.7 2.1-.4 2.6.2 1.4 1.6-1.4 1.6-.5 3.6 1.3 2.9.7-.2 1.8.9 2.5 2.6.8 1.8 1.8 2.7 2.5 2.3.7-.3.9-.3.5.1-.6.8 1.3 4 6.6 10.9 3.1 4.1 3.1 5.8 0 2.9-3.3-3.1-7.4-5.5-7.4-4.3 0 .5-.7.8-1.6.4-1.2-.4-1.3-.8-.3-1.3 1.3-.9-3.8-4-6.6-4-.8 0-1.5-.4-1.5-.8 0-.5-4-2.1-9-3.7-4.9-1.6-9-3.3-9-3.8s.7-.6 1.6-.3c.9.3 1.2.2.9-.4-.4-.6-1.9-.9-3.3-.8-1.8.2-2.6-.1-2.4-1 .1-.8-.2-1.1-.8-.7-1.4.8-9-3.5-9-5.2 0-.7-.5-1.3-1-1.3-.6 0-2.9-1.8-5.1-4-2.3-2.2-4.9-4.5-6-5.1-1-.5-1.9-1.8-1.9-2.7 0-1-.4-2.2-.9-2.8-.5-.5-1.4-2.7-2.1-4.9-.7-2.2-1.9-4.9-2.6-6-1.9-2.7-1.7-3.7.6-3 1 .3 4.1 1 6.8 1.4zm-5.4 10.7c.3.8.2 1.2-.4.9-.6-.3-1-1-1-1.6 0-1.4.7-1.1 1.4.7zm2.6 7.5c0 .5-.4.9-1 .9-.5 0-1-.7-1-1.6 0-.8.5-1.2 1-.9.6.3 1 1 1 1.6zm1 2.9c0 .5-.4 1-1 1-.5 0-1-.5-1-1 0-.6.5-1 1-1 .6 0 1 .4 1 1zm-21 8.4c0 .3-.4.8-1 1.1-.5.3-1 .1-1-.4 0-.6.5-1.1 1-1.1.6 0 1 .2 1 .4zm23 5.4c0 .7-.4 1-1 .7-.5-.3-1-1.6-1-2.8 0-1.8.2-1.9 1-.7.5.8 1 2.1 1 2.8zm-1.3 24.4c-.3.8-.6.5-.6-.6-.1-1.1.2-1.7.5-1.3.3.3.4 1.2.1 1.9zm68.7-.7c.4 1.3.2 1.4-1.4.5-2.3-1.3-2.6-2-.6-2 .8 0 1.6.7 2 1.5z"/><path d="M347 93c-.6 1.1-.8 2.5-.5 3 .7 1.1 1.6 14.2 1.5 20.8-.1 5.6 1.7 11.2 3.6 11.2.9 0 1.3-.4 1-.8-.3-.5-.8-4.6-1.1-9.2-.3-4.6-.8-8.7-1.1-9.1-.3-.5 0-1.7.5-2.8.8-1.4.6-3.2-.5-6.5-.9-2.6-1.4-5.6-1.1-6.6.7-2.6-.9-2.6-2.3 0zM383.7 101.8c-1.4 2.1-4.2 7.2-6.2 11.3-2.1 4.1-4.8 8.9-6.2 10.7-1.4 1.8-2.2 3.6-1.9 3.9 1.1 1.1 5.8-4.1 7.7-8.6 1.1-2.4 2.9-5.6 4-7.3 1.2-1.6 1.9-3.5 1.6-4.2-.3-.7.4-1.9 1.5-2.7 1.1-.8 2.6-2.6 3.4-4.2 2.3-4.4-.8-3.5-3.9 1.1zM311.5 112c.3.5.8 1 1.1 1 .2 0 .4-.5.4-1 0-.6-.5-1-1.1-1-.5 0-.7.4-.4 1zM307 114.7c0 1.3 14.4 13.3 15.9 13.3.6 0 1.1.6 1.1 1.3 0 .8 1.6 2.2 3.5 3.3 1.9 1 3.5 2.2 3.5 2.6 0 1.1 2.8 1 3.5-.2.3-.5-1.7-2.4-4.5-4.1-2.8-1.7-5.7-4.4-6.5-5.9-1.6-3.1-7-8-8.9-8-.6 0-1.7-.5-2.4-1.2-1.1-1.1-5.2-1.9-5.2-1.1zm12 6.7c2.2 2.7-.5 1.7-3.1-1-2.1-2.4-2.2-2.6-.3-1.6 1.1.6 2.6 1.8 3.4 2.6zM386.5 138c-.3.5-.1 1 .4 1 .6 0 1.1-.5 1.1-1 0-.6-.2-1-.4-1-.3 0-.8.4-1.1 1zM409.5 139c-1.1.5-4.2.9-6.8.9-7.3.1-5.6 2.6 1.9 2.8 6 .1 8.4-.8 8.4-3.3 0-1.6-.6-1.6-3.5-.4zM377.3 141.8c-4.1.2-6.3.7-6.3 1.5 0 .9 3 1 13 .3 7.1-.5 13-1.3 13-1.7 0-.8-4.4-.8-19.7-.1zM351.2 140.3c-3.5 1.6-2.6 5.1 1.6 5.5 2.8.3 3.2 0 3.2-2.1 0-3.4-1.9-4.7-4.8-3.4zm2.8 2.7c0 .5-.7 1-1.6 1-.8 0-1.2-.5-.9-1 .3-.6 1-1 1.6-1 .5 0 .9.4.9 1zM345 143c0 .5.5 1 1 1 .6 0 1-.5 1-1 0-.6-.4-1-1-1-.5 0-1 .4-1 1zM355.4 162.6c.3.9.6 2.5.6 3.5 0 1.4.4 1.8 1.3 1.3.8-.5.8-.2-.2.9-1.2 1.5-1.1 1.7.2 1.7.9 0 1.7-.8 1.9-1.8.6-2.6-1.2-7.2-2.9-7.2-1 0-1.3.6-.9 1.6zM357 172.4c0 .8.5 1.8 1 2.1.6.3 1-.3 1-1.4 0-1.2-.4-2.1-1-2.1-.5 0-1 .6-1 1.4zM358.5 176.6c-1.3.5-.7 8.4.6 8.4.5 0 .9 1.4.9 3 0 1.8.6 3.3 1.5 3.6.8.4 1.5 1.2 1.5 2s.5 1.4 1 1.4c1.5 0 1.2-1.1-1-4.8-1.1-1.8-2-4.2-2-5.3 0-1.1-.4-1.7-1-1.4-.5.3-1 .1-1-.4 0-.6.5-1.1 1-1.1 1.2 0 1.4-4.7.3-5.3-.5-.2-1.3-.3-1.8-.1zM359 197.6c0 4.7 1.2 6.4 4.2 6.4 2.7 0 2.9-.3 2.6-3.2-.2-1.7-.8-3.3-1.5-3.5-.7-.3-1 .4-.6 1.9.5 2.1.4 2.1-2.1-.6-2.2-2.5-2.6-2.6-2.6-1zM363.5 220c-.3.5-.1 1 .4 1 .6 0 1.1-.5 1.1-1 0-.6-.2-1-.4-1-.3 0-.8.4-1.1 1zM376 162.8c0 2 7.2 9.3 10.3 10.5.9.3 1.7 1.1 1.7 1.7 0 .5.7 1 1.5 1 .9 0 3.3 1.5 5.3 3.4s5.5 4.8 7.7 6.4c2.2 1.6 4.6 3.6 5.4 4.5.7.9 2 1.7 2.8 1.7 2.5 0-.3-3.6-5.2-6.6-2.5-1.6-4.5-3.3-4.5-3.8 0-.4 1.1-.1 2.5.8 1.3.9 3 1.6 3.8 1.6.7 0 2.3 1.2 3.6 2.6 2 2.2 5.7 3.1 5.3 1.1-.1-.4-.3-.6-.4-.5-.2.1-2.1-1-4.3-2.3-2.2-1.4-5.9-3.3-8.2-4.3-2.3-1-4.4-2.5-4.7-3.2-.3-.8-1.4-1.4-2.3-1.4-1 0-2.8-.7-3.9-1.5-1.2-.8-2.4-1.1-2.8-.8-.4.4-.9-.2-1.2-1.3-.3-1-2-3-3.9-4.3-1.9-1.2-4.1-3.4-5-4.7-1.8-2.9-3.5-3.1-3.5-.6zM403 191c0 .5.5 1 1.1 1 .5 0 .7-.5.4-1-.3-.6-.8-1-1.1-1-.2 0-.4.4-.4 1zM421.1 192.5c0 .5.6 1.9 1.4 2.9.8 1.1 1.5 1.5 1.5 1 0-.6-.7-1.9-1.5-3-.8-1-1.4-1.5-1.4-.9zM101.1 135.5c.1 1.9 1.8 5.1 1.8 3.5 0-.8-.4-2.2-.9-3-.5-.8-.9-1.1-.9-.5zM102 143.6c0 .8.5 1.2 1 .9.6-.3 1-1 1-1.6 0-.5-.4-.9-1-.9-.5 0-1 .7-1 1.6zM117.5 144c.3.5.8 1 1.1 1 .2 0 .4-.5.4-1 0-.6-.5-1-1.1-1-.5 0-.7.4-.4 1zM120 146.7c0 2 2.7 8.1 4.1 9.3.6.5 1.4 3.4 3 11.6.9 4.6 1.4 5.3 3.9 5.8s3 1.1 4 6.1c.6 3 1.6 5.5 2.1 5.5 1.1 0 1.2-3.7 0-4.4-.4-.3-1.1-2.7-1.5-5.2-.3-2.6-1.2-5.5-2-6.3-1.5-1.7-4.6-10.2-4.6-12.7 0-1.4-4.8-9.4-5.6-9.4-.3 0 .7 2.3 2.2 5.1 1.4 2.8 2 4.8 1.4 4.4-.6-.3-2.4-3.2-4-6.3-2-3.9-2.9-5-3-3.5zm10.6 22.8c.1 1.4-.2 2.2-.7 1.9-1.1-.6-1.2-4.4-.1-4.4.4 0 .8 1.1.8 2.5zm2.1 2.7c-.3.8-.6.5-.6-.6-.1-1.1.2-1.7.5-1.3.3.3.4 1.2.1 1.9zM323.5 147.7c-5.2.8-19.8 4.2-23.9 5.6-6.5 2.2-2.7 2.7 5.4.6 4.1-1 11.8-2.4 17-3 5.6-.6 10.1-1.6 11-2.5 1.2-1.2.9-1.4-2.5-1.3-2.2.1-5.3.4-7 .6zM284.8 161.2c.6.6 1.8.8 2.8.6 1.4-.3 1.2-.5-.9-1-1.9-.3-2.5-.2-1.9.4zM292.8 160.7c.7.3 1.6.2 1.9-.1.4-.3-.2-.6-1.3-.5-1.1 0-1.4.3-.6.6zM339.8 160.7c.7.3 1.6.2 1.9-.1.4-.3-.2-.6-1.3-.5-1.1 0-1.4.3-.6.6zM148 162c0 .5.5 1 1 1 .6 0 1-.5 1-1 0-.6-.4-1-1-1-.5 0-1 .4-1 1zM337.8 165.5c-.7.7-3.1 4.3-5.3 8-4.4 7.4-11.2 16.6-13.2 17.8-1.2.8-1.9 4.7-.8 4.7.9 0 7.9-8.1 10-11.5 4.7-7.6 9.4-14.1 11.4-15.9 1.1-1.1 2.1-2.2 2.1-2.6 0-1.5-3-1.9-4.2-.5zM150 166.5c0 .8.4 1.5 1 1.5.5 0 .7-.7.4-1.5-.4-.8-.8-1.5-1-1.5-.2 0-.4.7-.4 1.5zM332 168.1c0 .5.5.7 1 .4.6-.3 1-.8 1-1.1 0-.2-.4-.4-1-.4-.5 0-1 .5-1 1.1zM154 171.5c0 .8.2 1.5.4 1.5s.6-.7 1-1.5c.3-.8.1-1.5-.4-1.5-.6 0-1 .7-1 1.5zM143 172.8c0 .7 1.2 3.8 2.6 6.7 1.4 3 2.3 5.9 1.9 6.5-.3.5-.2 1 .4 1 1.8 0 2.1-1.8.9-4.7-.6-1.5-1.2-3.6-1.3-4.6-.3-2.2-4.5-6.8-4.5-4.9zM340.5 173c-.3.5-.1 1 .4 1 .6 0 1.1-.5 1.1-1 0-.6-.2-1-.4-1-.3 0-.8.4-1.1 1zM160.7 183.4c-.9.7-1.7 2-1.7 2.9 0 2.4-2 3.1-3.4 1.1-1.8-2.5-2.8-.3-1.5 3.5 1.1 3.2-.3 10.1-2.2 10.1-.5 0-.9.6-.9 1.4 0 .7-1.3 4-3 7.2-1.6 3.2-3 6.2-3 6.6 0 1.5 2.1.8 2.7-1 .4-.9 1.5-2.6 2.5-3.7s2.1-3.1 2.4-4.5c.7-3.2 2.3-6.7 4.6-10.2 1-1.4 1.8-4 1.8-5.7 0-2 .5-3.1 1.4-3.1.7 0 1.6-1.2 1.9-2.8.6-3.3.6-3.3-1.6-1.8zM136.7 186.6c-1.3 1.3-.8 2.4 1.6 3.4 1.7.7 1.8.9.5.9-1.2.1-1.8.9-1.8 2.3 0 1.7.3 1.9.9 1 .6-1 1-.8 1.4.9.4 1.3.2 2.6-.4 3-1.5.9 0 12.9 1.6 12.9 1.8 0 3-5.7 1.5-7.5-.6-.7-1-2.4-.9-3.7.5-5.4-.2-9.7-1.9-11.8-.9-1.2-2.1-1.8-2.5-1.4z"/><path d="M148.6 187.9c-.4.5 0 1.2.6 1.5.7.3-.2.3-1.9 0-2.6-.4-3.3-.2-3.3 1.1 0 .9.6 1.5 1.3 1.4 2.6-.3 3.7.2 3.7 1.6 0 .9.9 1.5 2.1 1.5 1.8 0 2-.4 1.4-3.3-.4-1.7-.9-3.5-1.2-4-.6-1-2.1-.9-2.7.2zM107 198c0 1.2 3.7 2.3 5 1.5 1.9-1.2 1-2.2-2-2.3-1.6 0-3 .3-3 .8zM145 198c0 .5.5 1 1.1 1 .5 0 .7-.5.4-1-.3-.6-.8-1-1.1-1-.2 0-.4.4-.4 1zM313.1 200.6c0 1.1.3 1.4.6.6.3-.7.2-1.6-.1-1.9-.3-.4-.6.2-.5 1.3zM98.6 207.9c-.4.7-.5 1.5-.2 1.8.9.9 1.9-.4 1.4-1.8-.4-1.1-.6-1.1-1.2 0zM104 208.4c0 .2.7.9 1.5 1.6.9.7 1.5.8 1.5.2 0-.5-.7-1.2-1.5-1.6-.8-.3-1.5-.4-1.5-.2zM107 214.5c-1.2 1.5-1.1 1.6 1 1.9 1.3.1 1.3 1.2 0 3.4-.9 1.6-1.1 1.6-2-.1-1.2-1.8-4-2.4-4-.7 0 .5-.9 1-2 1-2.4 0-2.6 1.3-.4 3.5 1.5 1.5 1.5 1.7-.6 3.2-1.3.9-3 2.4-3.9 3.5-.8 1-2.1 1.8-2.8 1.8-.7 0-1.3.3-1.3.8 0 .4-1.8 1.8-4 3.2-2.2 1.4-4 2.8-4 3.2 0 .3-1.4.9-3.1 1.3-1.7.4-3.3 1.3-3.6 2.1-.2.7-1.3 1.6-2.4 1.9-1 .4-1.9 1.1-1.9 1.6 0 .6.9.7 2.3.3 1.2-.4 4.8-.7 8-.6 3.1 0 5.7-.3 5.7-.8 0-.4.7-1 1.4-1.3 1-.4 1.3-.1.9.9-.4 1.1 0 1.3 1.8.6 2.2-.8 3.8-.8 10.7-.4 1.2.1 2.2.9 2.2 1.7 0 .8.8 1.9 1.8 2.4.9.5 2.5 2.3 3.4 3.9l1.8 3-9.9 6.6c-5.5 3.6-10.6 6.8-11.3 7.1-1.9.7-4.7-2.5-6.3-7.2-.7-2.1-1.8-3.9-2.4-3.9-2.2-.3-2.3-.4-1.1-1.9 1.6-2 .8-2.8-5.2-5-6.5-2.4-8.3-1.3-2.4 1.6 3.8 1.9 5.1 3.2 6 6 .7 1.9 1.1 4 .9 4.6-.2.6 1.1 2.6 3 4.5 3 3.1 3.8 5.8 1.7 5.8-.5 0-4.5 2.3-9 5-7.9 4.9-10 5.4-10 2.5 0-.7-1-1.7-2.2-2.1-1.3-.3-3.5-1.5-5-2.6-1.6-1.1-3.3-1.6-3.9-1.2-.7.4-.9.3-.5-.4 1-1.7-1.5-6.2-3.6-6.2-5 0 .2 7.8 7.1 10.6 2.3.9 4.1 2 4.1 2.5s.7.9 1.5.9c3.3 0-1 6.1-5.6 8-1.6.7-2.9 2.1-3.1 3.3-.2 1.4-.9 2.1-2 1.9-.9-.1-2.4.8-3.2 2-1.1 1.5-1.6 1.8-1.7.8 0-.8-.2-2.9-.5-4.5-1.2-8.8-1.8-26.5-.9-27.9 1-1.6 0-3.4-1.2-2.2-.8.8-2.4 15.4-2.5 22.1 0 10.8.3 12.3 2.5 12.9 1.9.6 2 .8.6 1.9-1.6 1.3-2.1 11.8-.6 13.3.4.4.7-.3.7-1.5 0-1.3.4-1.9 1-1.6.6.4.8 1.5.5 2.6-.4 1-.2 1.9.4 1.9 1.5 0 2.5 8.4 1.2 10.8-1.2 2.2.9 12.4 2.7 13 .5.1.8 1.1.5 2.1-.3 1 0 2.2.6 2.5.6.4 1.1-.1 1.2-1.1 0-1.1.5-.5 1.2 1.4.7 1.7 1.5 3.5 2 3.9 1.1 1.1.9 3.6-.3 2.9-.5-.3-1-.2-1 .3 0 1.4 1.1 2.1 2.6 1.5 1.6-.6 1.9-3.4.4-4.9-1.6-1.6-7-19.5-7-23.4 0-2-.7-6-1.6-8.9-.8-2.9-1.3-5.8-1.1-6.4.2-.7.1-2.4-.4-3.9-.5-2-.3-3.1 1.1-4.3 1-.9 1.6-2.3 1.3-3.1-.3-.8 0-1.4.6-1.4s1.1.4 1.1 1c0 1.6 2.5 1.1 5-1 1.7-1.5 2.6-1.7 3.1-.9.5.8.9.6 1.2-.7.4-1.6.5-1.6.6.3.1 2.1 1.8 4 2.7 3 1.2-1.2-.9-5.7-2.6-5.7-2.9 0-3.2-1.6-.5-3 1.4-.7 2.7-2.2 3.1-3.2.3-1.1 1.2-1.7 1.9-1.4.8.3 2.4-.3 3.7-1.3 1.3-1 3.3-2.1 4.6-2.5 1.2-.4 2.2-1.2 2.2-1.7s.4-.9.9-.9c1.8 0 8-4.5 8.6-6.3.4-.9 1.6-1.7 2.8-1.7 1.2 0 4.6-1.6 7.4-3.5 2.9-1.9 5.4-3.5 5.7-3.5.5 0 4.7-3.4 8.3-6.8 1.3-1.2 3.1-2.2 3.9-2.2 2.2 0 7.7-2.7 10.2-5 1.1-1 2.3-1.6 2.6-1.2.4.3.4-.2 0-1.1-.4-1.2.7-3.7 3.3-7.5 4.2-5.9 7.2-12.9 3.8-8.7-3.4 4.2-8.5 13-8.5 14.6 0 1.7-6.3 6-10.7 7.3-1.8.6-2.5.2-3.2-1.7-.5-1.3-2.3-3.8-4-5.5-1.7-1.7-3.1-3.3-3.1-3.5 0-.3 1.8-.8 4.1-1.2 2.2-.4 5.3-1.3 6.7-2.1 1.5-.8 3.4-1.2 4.2-.9 1.5.5 7.6-4.3 6.6-5.2-.9-.9-4.6.9-4 1.9.4.6.2.8-.4.4-.6-.3-1.3-.2-1.7.4-.3.5-1.4 1-2.3 1-.9 0-3 .7-4.6 1.5-1.5.8-3.2 1.5-3.7 1.5-1.8 0-.8-2.1 1.4-3 1.2-.6 3.7-1.9 5.5-3 1.7-1.1 3.2-1.5 3.2-1s1-.1 2.3-1.4c1.3-1.3 2.9-2.5 3.7-2.8.8-.2 1-.9.6-1.6-.5-.9-1.5-.7-3.7.9-2.9 2-7.5 4.7-14.4 8.2-6.5 3.3-10.7 4.7-14.3 4.7-2 0-4.9.7-6.4 1.4-3.8 2-10.3 2.6-8.2.7 1.5-1.3 11.4-4.2 12.4-3.6.6.4 1 .1 1-.4 0-.6.9-1.1 2-1.1s2-.5 2-1c0-.6 1-1 2.1-1 2.1 0 8.8-2.7 13.9-5.7 1.4-.8 3.3-1.7 4.2-2 2.4-.7 3-3 1.3-4.7-1.9-1.9-1.9-2.6 0-2.6.8 0 1.5-.5 1.5-1.1 0-2.2-5.1.2-13.3 6.2-4.5 3.3-9.3 6.9-10.6 8-3.1 2.6-6.1 4.2-6.8 3.5-.8-.8 1.7-3.6 3.3-3.6.7 0 1.6-.9 1.9-2 .3-1.1 1.2-2 1.8-2 .7-.1 2.5-1.2 4.2-2.5 2.9-2.4 2.9-2.5 1-4-1.7-1.3-1.8-1.6-.5-2.4 1.1-.8 1.7-.5 2.2.9 1.1 2.9 4.6 2.6 5.4-.5.3-1.4 1.2-2.5 2-2.5 2.2 0 1.6-2.3-1-4.2-2.1-1.5-2.6-1.6-3.6-.3zm9.6 12.2c-.3.3-1.3 0-2.2-.8-1.5-1.2-1.4-1.4.3-2 1.7-.6 3.2 1.5 1.9 2.8zm-3.1 1.3c.3.6-.2 1.3-1.2 1.6-1 .4-4.1 1.7-7 3-2.8 1.3-5.8 2.4-6.5 2.3-.7 0-.2-.6 1.2-1.2s2.7-1.4 3-1.7c1.1-1.3 7.6-5 8.7-5 .6 0 1.5.5 1.8 1zm-6.5 12.4c0 .2-.7.6-1.5 1-.8.3-1.5.1-1.5-.4 0-.6.7-1 1.5-1s1.5.2 1.5.4zM60.5 293c.3.5 0 1-.9 1-.8 0-1.6.6-1.9 1.2-.2.7-.8 1-1.2.6-.8-.8 1.2-3.8 2.6-3.8.4 0 1.1.4 1.4 1zM47 307.1c0 1.6-.4 2.8-.9 2.5-.8-.5-.3-5.6.5-5.6.2 0 .4 1.4.4 3.1z"/><path d="M114.7 215c.3 1.1.7 2 .9 2 .2 0 .4-.9.4-2s-.4-2-.9-2-.7.9-.4 2zM140.3 223.2c-1.8 2.9-3 5.4-2.8 5.7.8.7 4.5-3.1 4.5-4.6 0-.7.6-1.6 1.4-1.9 1.8-.7 2.8-4.4 1.2-4.4-.6 0-2.6 2.3-4.3 5.2zM132 219.5c0 .5.5 1.7 1 2.5s1 1 1 .5c0-.6-.5-1.7-1-2.5s-1-1.1-1-.5zM133 248.9c0 .4 1.1.6 2.4.4 1.3-.3 2.7.1 3.1.8.6.9-.3 1.1-3.7.7-4.5-.5-4.6-.5-5.8 3.2-.7 2.1-3.3 6-5.7 8.6-2.5 2.7-5.1 6.3-5.8 8-.8 1.7-2.1 3.6-2.9 4.4-.9.7-1.6 1.9-1.6 2.6 0 .8-.6 1.4-1.2 1.4-.7 0-2.9 2.3-4.8 5s-3.8 5-4.2 5c-.5 0-.8.6-.8 1.4 0 .8-.6 1.6-1.3 1.9-.7.3-2.6 2.4-4.2 4.8-3.6 5.1-7.2 8.9-8.6 8.9-.6 0-.8.4-.4.9.7 1.3-4.3 5.1-6.8 5.1-1.3 0-4.6 2.6-8.5 6.7-3.5 3.8-6.1 6.2-5.8 5.5.4-.6.5-1.2.2-1.2-.7 0-4.6 3.8-4.6 4.4 0 .3-1.1 1.7-2.4 3.1-2.4 2.6-4 7.5-2.5 7.5.5 0 1.5-1.3 2.3-2.8 2.3-4.4 6.9-9.2 8.8-9.2 1 0 1.8-.3 1.8-.8.1-2.2 8.9-11.4 10.2-10.6.5.3 2-.2 3.4-1.1 2.6-1.7 7.4-1.4 7.4.5 0 .5.7.7 1.5.4 2.3-.9 1.8-2.3-1-3-2.6-.6-3.3-2.8-1.4-4 1.5-.9 6.1 1.7 5.5 3.2-.5 1.2 1.2 3.4 2.6 3.4 1.5 0 .8-1.9-.9-2.3-1.4-.4-1.2-.5.5-.6 3.2-.2 2.7-1.5-1.3-3.7-1.9-1-3.5-2.3-3.5-2.9 0-.5 1.2-2.4 2.8-4 4.7-5.2 12.2-14.7 12.2-15.5 0-.4 1.7-2.5 3.8-4.6 2-2.2 4.6-5.2 5.7-6.7 3-4.4 6.8-9.1 8.7-11 .9-1 1.9-2.6 2.3-3.6.3-1.1 1.2-2.2 2-2.5.8-.3 1.5-1.2 1.5-2.1 0-1.8 3.6-2 7.7-.4 1.5.5 5 1.2 7.8 1.5 2.7.2 7.3 1.6 10.1 2.9 2.8 1.4 5.6 2.5 6.3 2.5 2 0 16.5 15.9 17.7 19.3.6 1.7 1.4 3 1.9 2.9 1.2-.5 2.7 2.6 2 3.8-1.1 1.7 1.8 11.1 3.6 12 1.3.7 1.6 1.9 1.2 5.3-.3 2.6.1 5.7 1.1 8 .8 2.1 1.6 3.9 1.6 4.2.1.3.6 1.9 1.1 3.7 1.7 5.7 2.8 19.6 3.5 44 .5 16.9.4 23.8-.4 23.8-1.4 0-1.9-6.4-.9-11.3.4-2.1.4-4.4 0-5-.5-.7-.9-5.3-1-10.2-.2-5-.4-10.6-.7-12.5-.2-1.9-.4-4.8-.5-6.3-.1-1.9-.5-2.6-1.3-2.1s-.9.2-.4-1.2c2.1-4.9 2.3-8.5.9-13.1-1.9-6.2-5.2-15.4-6.3-17.4-.5-1-.4-2.1.2-2.7 1.2-1.2.3-4.6-1.1-3.8-.5.3-1.1-.1-1.5-.9-.3-.8-.1-1.5.4-1.5.6 0 .6-.9.1-2.3-.5-1.2-1.4-2.1-2-2-.5.2-.9-.7-.8-2 .3-3.4-3.8-9.8-5.9-9-1.4.5-1.6.2-1-2.1.7-2.9-.8-6.7-2.6-6.3-.7.1-1.4-.7-1.6-1.8-.4-2.3-5.8-7.5-7.8-7.5-.8 0-1.4-.5-1.4-1.1 0-1.2-6.3-4-10.5-4.6-1.6-.2-4-.6-5.2-.8-2.1-.5-12 3.1-11.1 4 .3.3 2.4-.2 4.8-1 5.4-1.9 8.7-1.9 12.4 0 1.5.8 3.6 1.5 4.5 1.5.9 0 2.1.8 2.8 1.9.6 1 2.4 2.2 4 2.6 3.8.9 5.3 2.3 5.3 4.9 0 1.1 1.4 4.1 3 6.5 1.7 2.4 3 5 3 5.8 0 .7.9 1.3 2.1 1.3 1.5 0 1.9.4 1.5 1.6-.3.9.7 4.4 2.4 7.8 5 10.2 10.1 27.2 10.5 34.7.4 7.8-.8 9-2.6 2.6-.6-2.3-1.7-5.4-2.5-6.9-.8-1.4-1.4-3.5-1.4-4.7 0-1.1-1.1-4.1-2.5-6.7-1.4-2.6-2.5-5.3-2.5-6 0-2-3.2-8.4-4.2-8.4-.5 0-.6-.4-.3-1 .5-.8-1-4.3-4.4-10-.5-.8-1.7-3.4-2.7-5.8-1.5-3.7-3.4-5.6-3.4-3.4 0 .5-1.5 1.7-3.4 2.7-1.9 1.1-3.3 2.3-3 2.7.3.4.3.8 0 .8s-1-.9-1.6-2c-.9-1.7-.7-2.2 1.7-3.2 1.5-.6 3-1.2 3.3-1.3 1.6-.3 5-2.7 5-3.4 0-2.2-3.2-1.7-6.7 1l-3.8 3.1-.6-3.2c-.7-3.1-3.3-5.9-5.6-6-2.2 0-1.4 2.8.9 3.2 1.4.2 2.4 1.3 2.9 3 .4 1.6.3 2.8-.2 2.8s0 1.5 1.1 3.2c1.1 1.8 2.3 4 2.7 4.8.4.8 2.8 4.9 5.4 9 2.6 4.2 5.7 10 6.9 12.8 1.6 3.6 2.7 5.1 3.7 4.8.8-.3 1.3 0 1.2.7-.1.6-.1 2.3 0 3.7.1 2 .3 2.2 1.1 1 1.1-1.6 1.1-1.5 1.5 1.7.4 3.5 2.6 8.3 3.6 7.7.5-.3.6.2.3 1.1-.4.9 0 2.3.9 3.3.8.9 1.8 2.7 2.2 4 .4 1.3.9 2.2 1.1 1.9.3-.2-.1-1.7-.7-3.3-.7-1.6-1.1-3.5-1-4.3.4-2-2-6.1-3.2-5.4-.5.3-.6-.3-.2-1.6.5-1.6.2-2.1-1.2-2.1-1.2 0-1.4-.3-.6-.8 1.5-.9-3.7-12.4-5.3-11.8-.7.3-.9-.5-.6-2 .5-2.8-1.7-6.2-2.8-4.4-.5.8-.9.6-1.3-.5-.4-.9-.3-1.3.3-1 2 1.3.9-1.7-2.6-6.6-3.7-5.4-3.9-7.3-.5-8.2 2.5-.6 5.4 4.2 10.2 17 1.8 4.9 3.9 9.7 4.6 10.8.7 1.1 1.3 2.9 1.3 4s.9 3.8 2 6 2 4.6 2 5.5c0 .8.6 2.7 1.4 4.2.8 1.5 1.7 4.1 2.1 5.8.4 1.7 1.3 3.4 2 3.7.8.2 1.1 1.1.8 1.8-.2.8-.1 1.9.3 2.6 1.1 1.8 1.4 10.9.4 10.9-.5 0-1.2-1.1-1.6-2.5-.3-1.4-1-2.5-1.5-2.5-1 0 1.1 5.2 2.6 6.2 1.3.9 1.4 14.9.1 14.5-1.3-.4-2.6-5.1-3-10.8-.3-4-2-8.9-3-8.9-.3 0-.2 1.3 0 3 1.2 7.2-2.7 1.1-6.3-10-1-3-2-5.7-2.3-6-1.2-1.2-3-5.1-3-6.4 0-.8-.9-2.1-2-2.9-1.1-.8-2.2-2.4-2.5-3.6-.6-3.2-1.5-4.3-3.1-3.7-.9.3-1.8-.2-2.1-1.2-.4-.9-1.4-2.2-2.2-2.9-1.4-1.1-1.4-1.2.1-1.3 1.1 0 2 1 2.4 2.6.4 1.7.9 2.2 1.4 1.4.9-1.5-3-7.9-4.8-8-.7 0-1-.5-.6-1.1.3-.6-.5-2.3-1.8-3.7-1.4-1.5-2.8-3.5-3.1-4.5-.4-.9-1.1-1.7-1.7-1.7-.7 0-.7.6 0 2.1 1.1 1.9 1 2-.9.9-1.2-.6-2.1-1.4-2.1-1.8 0-.4-1.4-1.6-3-2.6-1.7-.9-2.8-2.1-2.6-2.5.3-.4-.6-1.4-2-2.2-1.5-.7-3-2.4-3.5-3.6-.5-1.3-1.5-2.3-2.4-2.3-.8 0-1.5-.7-1.5-1.5 0-2.3 1.9-1.8 5.1 1.4 1.6 1.7 2.9 2.4 2.9 1.6 0-1.5-11.6-13.5-13.1-13.5-1.9 0-.8 2 2.9 5 3.5 2.9 3.6 3.1 1.5 3.6-1.3.4-2.1 1-1.8 1.4.8 1.2-1.6 7.3-3.8 9.7-1.1 1.3-1.7 2.6-1.4 3 .8.7 5.5-4.4 6.3-7 .9-2.8 2.5-1.9 1.8 1-1 3.8-3.4 7.3-5 7.3-.8 0-1.4.6-1.4 1.4 0 2.4 5.9-1.1 6.6-3.9.7-2.8 3.1-4 5-2.4 2 1.6 1.7 4.2-.7 8.3-2.7 4.6-.8 4.7 2.8.2 1.5-1.9 3.1-3.2 3.5-3 1.6 1 .8 4.3-1.2 4.9-1.7.5-2.9 2.5-1.5 2.5 1 0 6.1-2.5 6.7-3.4.7-1 3.8 1.6 3.8 3.2 0 .5.9 1.9 2 3.2 1.1 1.3 2 2.8 2 3.5 0 .6 1.4 3.3 3.1 5.9 2.3 3.5 3.4 4.4 4.4 3.6.9-.8 1.1-.5.8 1.2-.2 1.3.3 3.4 1.1 4.8s2.4 4.5 3.7 7c1.2 2.5 2.9 4.9 3.6 5.3.7.4 1.3 1.4 1.3 2.1 0 .8.7 1.7 1.6 2 1 .4 1.3 1.3.9 2.5-.4 1.3.7 4.1 3.4 8.4 2.3 3.5 4.1 7.2 4.1 8.1 0 .9.9 3.3 2 5.3 1.1 2.1 2 4.6 2 5.5 0 1 .4 1.8 1 1.8.5 0 .8 1.9.6 4.2-.2 2.4-.1 4.7.3 5.3.6.9.9 5.5 1 13.2 0 1.7.5 3.4 1.1 3.8.5.3 1 1.1 1 1.6 0 .6-.5.7-1.1.3-.8-.5-.8-.1 0 1.4 1.3 2.5 1.5 6.2.2 6.2-.4 0-1.1 1.8-1.4 3.9-.3 2.2-1.2 5.4-2.1 7.2-.9 1.8-1.4 3.4-1.2 3.6.6.6 4.6-2 4.6-2.9 0-.5.5-.8 1-.8 3 0-.6 4.7-4.2 5.6-2.3.5-2.8.3-2.8-1.1 0-1.5-.4-1.4-2.5.7-3.1 3.1-8.1 4.6-14.4 4.4-4-.1-4.7.1-3.9 1.2.7.8 2.1 1.1 3.5.7 1.3-.3 2.3-.1 2.3.4 0 1.2-5.6 1.9-7.4.9-.8-.5-1.7-.4-2 .1-.3.5.1 1.2 1 1.5 2.4.9 9.5-.5 10.1-2 .3-.8.9-1.4 1.5-1.4.5 0 .6.5.2 1.1-.8 1.3 3.5.3 5.1-1.2.5-.5 1.7-.9 2.6-.9 1 0 3.4-1 5.4-2.1 6.8-4 4.7-1.1-2.7 3.7-8.9 5.8-8.2 5.3-7.6 6 1.4 1.3 16.1-9.2 15.5-11-.4-1.2 1.6-3.6 3.1-3.6 1.8 0 2.2-6.5 1.2-19-.5-6.9-1.5-28.5-2-48-1-35.7-4.1-69.2-7.1-78-1.5-4.1-9.8-17.3-15.6-24.6-4.3-5.3-10.3-9-13.1-7.9-.9.3-1.3.3-.9-.1 1.3-1.4-5-4.2-12.1-5.4-3.9-.6-8.2-2-9.6-3.1-2.4-1.9-7.6-2.6-7.6-1zm33.6 36.3c.4.6-.1 1.7-1.2 2.5-1 .7-2.6 2-3.5 2.7-1.5 1.2-1.6 1.1-1.6-1 0-1.4.7-2.6 1.8-2.9 1.1-.4 1.9-1.1 1.9-1.6 0-1.3 1.7-1.1 2.6.3zm23.5 4.2c.1 1.7.6 4.2 1.4 6.5.5 1.6.2 2.1-1 2.1-1.3 0-1.6-.6-1.2-2.2.3-1.1-.1-3.7-.9-5.6-.7-1.9-1.4-4-1.4-4.6.1-1.3 3 2.3 3.1 3.8zm8.3 103.2c.9 3.6-.1 4.3-1.4 1-1.2-3.3-1.2-3.6-.1-3.6.5 0 1.2 1.2 1.5 2.6zm.5 9.1c0 3.6-.3 4.3-.9 2.8-1.2-2.8-1.2-7.5 0-7.5.6 0 1 2.1.9 4.7zm.1 7.3c0 .5-.5 1-1.1 1-.5 0-.7-.5-.4-1 .3-.6.8-1 1.1-1 .2 0 .4.4.4 1zm.7 9.2c-.3.8-.6.5-.6-.6-.1-1.1.2-1.7.5-1.3.3.3.4 1.2.1 1.9zm.3 10.2c-.7.7-1 .3-1-1.1 0-1.2-.5-2.3-1.2-2.5-.6-.2-.8-1-.4-1.7.6-.9 1.2-.5 2.2 1.5 1 1.9 1.1 3.1.4 3.8zm-2 1.1c0 .8-.4 1.5-1 1.5-.5 0-1-.7-1-1.5s.5-1.5 1-1.5c.6 0 1 .7 1 1.5zM121.8 254.3c-6.4 4.9-13.2 9.4-14.1 9.5-.5 0-2.3 1.2-4.2 2.6-1.8 1.4-3.7 2.6-4.1 2.6-.4 0-2.1 1.1-3.8 2.4-1.7 1.3-5 3.3-7.3 4.5-2.4 1.2-4.3 2.6-4.3 3.1s-1.1 1.2-2.5 1.6c-1.4.3-2.5 1-2.5 1.4 0 .5-.9 1.2-2.1 1.5-1.6.5-8.4 4.7-11.7 7.1-.2.1.9 1.9 2.4 3.8 3.4 4.3 5.7 3.2 2.5-1.2l-2.1-2.9 4.8-2.5c2.6-1.3 6.7-3.8 9.1-5.4 6.4-4.2 11.3-7.2 13.9-8.3 1.2-.6 2.2-1.5 2.2-2.1 0-.5.9-1 2-1s2-.5 2-1.2c0-.6.3-.9.6-.5.3.3 1.3-.1 2.2-.9 1-.8 5.1-3.7 9.2-6.4 8.7-5.8 15-10.9 13.3-11-.6 0-3.1 1.5-5.5 3.3zM46.1 253.3c-1.4.6-2.6 1.8-2.7 2.5-.1.7 0 .8.3.2.2-.5.9-.8 1.4-.5 1.1.7 4.9-1.2 4.9-2.5s-1-1.2-3.9.3zM95.3 253.4c-2.8 1.3-2.9 3.2-.4 4.6 2.5 1.3 6.1 1.3 6.1 0 0-.6-.6-1-1.2-.9-3.2.4-3.9-.1-2.8-2 1.1-2.2 5-1.8 5 .5 0 .8.5 1.4 1 1.4.6 0 1-1.1 1-2.5 0-2.2-.4-2.5-3.2-2.4-1.8.1-4.3.6-5.5 1.3z"/><path d="M131.5 258c-1 1.1-1.3 2-.8 2 1.3 0 3.8-2.9 3.1-3.5-.3-.3-1.3.4-2.3 1.5zM117.6 262c-8.1 5.7-9.2 6.7-8.3 7.6.6.6 9.8-6.3 10.5-7.9.2-.4.8-.7 1.3-.7.6 0 1.9-.9 3.1-2 3.8-3.5.5-2-6.6 3zM44.1 261.1c-1.1 1.9-1.1 2.1.4 1.5.9-.3 1.9-.6 2.1-.6.2 0 .4-.7.4-1.5 0-2.1-1.3-1.9-2.9.6zM95 261c0 .5.5 1 1.1 1 .5 0 .7-.5.4-1-.3-.6-.8-1-1.1-1-.2 0-.4.4-.4 1zM127.2 264c-1.2 1.6-2.2 3.3-2.2 3.7 0 .4-1.5 2.4-3.3 4.5-1.7 2-4.5 5.3-6.2 7.4-1.6 2.1-3.7 4.5-4.7 5.3-1.4 1.4-4 4.6-13.8 17.3-1.7 2.2-1.8 2.8-.6 2.8.8 0 1.8-.5 2.1-1.1.4-.6 1.3-.8 2.1-.5.7.3 1.6.1 1.9-.4.4-.6.2-1-.4-1-1.7 0 .4-5 3.9-9.2 1.9-2.2 6.6-7.5 10.3-11.7 6.5-7.2 14.4-18.7 13.5-19.6-.2-.3-1.4.9-2.6 2.5zM36.7 265.2c-1.7 1.8-1.7 1.8.7 1.2 2.9-.7 3.4.6 3.7 8.3.2 2.9.7 5.3 1.2 5.3 1.6 0-.3-13.1-2.1-15-1.6-1.6-1.8-1.5-3.5.2zM65 266.4c-1.3 1.5-2 3.2-1.7 4 1 2.5 5.3 1.9 7.6-1l2.1-2.7-2.6-1.3c-3.2-1.7-2.6-1.8-5.4 1zm4.6 1.2c-.3.9-.6 1.8-.6 2 0 .2-1 .4-2.2.4-2.1 0-2.1 0-.2-1.9 2.3-2.4 3.8-2.7 3-.5zM56 267.1c0 .5.5.7 1 .4.6-.3 1-.8 1-1.1 0-.2-.4-.4-1-.4-.5 0-1 .5-1 1.1zM153 267c0 .5.5 1 1.1 1 .5 0 .7-.5.4-1-.3-.6-.8-1-1.1-1-.2 0-.4.4-.4 1zM116.1 267.5c-.1.6-3.3 4.4-7.2 8.4-3.8 4.1-8.7 9.5-10.7 12s-4.9 5.7-6.4 7.1c-1.6 1.3-2.8 3.3-2.8 4.3 0 1.3-.5 1.7-1.6 1.3-.9-.3-1.8-.6-2-.6-.2 0-.4-.7-.4-1.5s-.9-1.5-2-1.5-2 .4-2 .9.9 1.1 2 1.4c1.2.3 2 1.4 2 2.7 0 1.2.3 2 .8 1.8 5-2.4 6.2-3.3 5.9-4.1-.1-.5 1.4-2.8 3.5-5.1 2.1-2.2 3.8-4.4 3.8-4.8 0-.3 2.8-3.6 6.3-7.2 8.2-8.7 10.7-11.6 9.9-11.6-.4 0-.1-.4.7-.9.7-.5 1.1-1.5.8-2.2-.3-.8-.6-.9-.6-.4zM149.1 268.6c0 1.1.3 1.4.6.6.3-.7.2-1.6-.1-1.9-.3-.4-.6.2-.5 1.3z"/><path d="M37 269.5c0 .8-.4 1.5-.9 1.5-2.3 0 .3 44.2 2.7 46 1 .7 1.5 2.9 1.7 6.5.1 1.6.4 3.7.7 4.5.3.8 1.4 3.7 2.3 6.5 1 2.7 2.2 5.5 2.7 6.2.5.7.7 1.7.3 2.4-.4.6-.3 1.4.2 1.8.6.3 2.2 2.3 3.6 4.4 1.4 2.1 2.8 3.3 3.2 2.7.8-1.3-2.6-7-4.2-7-.7 0-1.2-1.2-1.2-2.8 0-1.5-1.3-6.5-2.9-11.2-1.6-4.7-3.2-10.5-3.6-13-.3-2.5-1-7.5-1.5-11.2-.5-3.7-1.5-8.9-2.2-11.6-.9-3.7-1-7.8-.3-16.1.5-6.1.6-11.1.2-11.1-.5 0-.8.7-.8 1.5zM105 272c-1.1 1.1-2.3 2-2.6 2-1.1 0-7.7 5.9-31.1 27.9-2.4 2.2-4.3 4.7-4.3 5.6 0 .8-.8 1.9-1.9 2.3-1.3.5-1.6 1.2-1.1 2.7.7 1.9.8 1.8 2-.8.7-1.5 2.1-2.7 3.1-2.7 1.2 0 1.6-.5 1.3-1.5-.7-1.7 1.6-2.1 3.2-.6 1.3 1.4 6.4 2.2 6.4 1 0-.5-.5-.9-1.1-.9-.5 0-.7-.5-.3-1.2.4-.7.3-.8-.5-.4-1.6 1-5.1-.3-5.1-1.8 0-3.2 2.5-3.4 5.4-.5 3 2.9 4.6 3.6 4.6 2 0-1.1-2.4-3.7-4.7-5-1.9-1-3.3.5 12.3-13.6 6.1-5.5 12.1-10.7 13.3-11.5 5.1-3.4 5.4-3.7 4.3-4.4-.6-.4-2 .2-3.2 1.4zM145 271.1c0 .5.5.7 1 .4.6-.3 1-.8 1-1.1 0-.2-.4-.4-1-.4-.5 0-1 .5-1 1.1zM133.8 276.9c-2.7 2.4-3 3.1-1.9 4.4 2 2.5 5.7.6 5.3-2.7-.2-1.4.1-2.6.7-2.6s1.1.9 1.1 2 .5 2 1 2c1.1 0 1.3-2 .4-4.4-.9-2.4-3-2-6.6 1.3zm1.8 2.8c-1 1-1.9-.5-1-1.8.6-1.1.8-1.1 1.2 0 .2.7.1 1.5-.2 1.8zM125.5 275.9c-.3.5-.2 1.2.3 1.5.5.3.9-.1.9-.9 0-1.7-.3-1.9-1.2-.6zM29.7 278c.3 1.1.7 2 .9 2 .2 0 .4-.9.4-2s-.4-2-.9-2-.7.9-.4 2zM88 281.5c-1.3 1.4-1.9 2.5-1.4 2.5.8-.1 5-5 4.1-5-.2 0-1.4 1.1-2.7 2.5zM28.6 284.1c-1 5.5-1.3 18.9-.6 19.4.4.2 1-4.6 1.3-10.7.7-11.1.3-15-.7-8.7z"/><path d="M97.5 283.1c-.4.6-.5 1.2-.2 1.5.2.3.7-.2 1-1.1.7-1.7.1-2-.8-.4zM126 284.1c0 .6.7.8 1.6.5 1.4-.5 1.5-.4.4.9-.7.8-1.6 1.2-2.1.9-.5-.3-.9-.1-.9.5 0 2.1 1.9 2 3.4-.1 2.1-3 2-3.8-.4-3.8-1.1 0-2 .5-2 1.1zM148 285c-.6 1.1-1.7 2-2.5 2s-1.5.7-1.5 1.5c0 1.8.5 1.9 2.9.3 2.1-1.3 5.6-.4 4.6 1.2-.4.6-1.4 1-2.3.8-2.3-.3-4.2 1-4.2 2.9 0 1.2.6 1.4 2.8.8 1.5-.3 2.9-1.1 3-1.6.5-1.3 2.9-1.1 3.8.2.4.7-.1 1.6-1 2.1-2.5 1.4-1.9 2.9.9 2.2 2-.5 2.7-.1 3.7 2.2.7 1.6 2.5 4.8 4 7.1s2.8 4.6 2.8 5.2c0 .6.5 1.1 1 1.1.6 0 1.3.8 1.7 1.7.5 1.7 7.7 17.2 11.1 24.2.9 1.9 1.7 3.7 1.7 4 .2 2.3 4.8 14.1 5.6 14.1 1.2 0 1.2.3-1-6.6-1-3.2-2.2-7.4-2.6-9.2-.4-1.7-1.1-3.2-1.6-3.2s-.9-.5-.9-1.1c0-2-12.8-26.9-17.6-34.1-1.3-2.1-2.4-4-2.4-4.2 0-.3-1.8-3.2-4-6.5s-4-6.7-4-7.6c0-2.2-2.7-1.9-4 .5zM51.5 294c-.3.5-.1 1 .4 1 .6 0 1.1-.5 1.1-1 0-.6-.2-1-.4-1-.3 0-.8.4-1.1 1zM117.6 295.9c-2.3 2.6-2.1 4.9.2 2.8 2.3-2.1 4.2-2.2 4.2-.2 0 .8-.9 1.5-2 1.5-2.2 0-2.7 1.5-.7 2.3.7.3 2.4-.3 3.8-1.3 1.8-1.5 2.1-2.2 1.2-3.1-.6-.6-.9-1.7-.7-2.3.7-1.8-4.3-1.5-6 .3zM106 297c0 .5.5 1 1.1 1 .5 0 .7-.5.4-1-.3-.6-.8-1-1.1-1-.2 0-.4.4-.4 1z"/><path d="M147 301c0 .5.9 1.4 2 2 1.1.6 2 1.7 2 2.5s.5 1.5 1 1.5c1.4 0 1.3-.7-.6-3.5-1.6-2.5-4.4-4.1-4.4-2.5zM63.1 304.6c0 1.1.3 1.4.6.6.3-.7.2-1.6-.1-1.9-.3-.4-.6.2-.5 1.3zM23 305.9c0 1.1.5 2.3 1 2.6.6.4 1-.5 1-1.9s-.4-2.6-1-2.6c-.5 0-1 .9-1 1.9zM139 305.8c0 1-1.3 3.3-3 5.2-3.3 4-3.6 5-1.5 5 .8 0 1.5-.6 1.5-1.3 0-.6 1.2-2.3 2.5-3.6 2.5-2.3 3.5-7.1 1.5-7.1-.5 0-1 .8-1 1.8zM28.5 309c.3 2.4 1.5 5.8 2.6 7.5 1.2 1.6 1.9 2.3 1.6 1.5-3.5-11.7-4.9-14.7-4.2-9zM118.7 305.7c-1 1-.8 3.3.2 3.3.6 0 .9-.9.8-2-.1-2.3-.1-2.2-1-1.3zM53.5 308c-.3.5-.1 1 .4 1 .6 0 1.1-.5 1.1-1 0-.6-.2-1-.4-1-.3 0-.8.4-1.1 1zM82.7 307.7c-.4.3-.7 1.1-.7 1.7 0 .6.5.5 1.2-.2.6-.6.9-1.4.7-1.7-.3-.3-.9-.2-1.2.2zM32 312.6c0 .8.5 1.2 1 .9.6-.3 1-1 1-1.6 0-.5-.4-.9-1-.9-.5 0-1 .7-1 1.6zM59.8 311.7c.7.3 1.6.2 1.9-.1.4-.3-.2-.6-1.3-.5-1.1 0-1.4.3-.6.6zM112.2 316.2c-3.9 5.2-7.5 13.5-7.4 17 0 1-.3 1.8-.7 1.8-1.3 0 .9 10.3 2.4 11.4 2.2 1.7 3.6 9.3 1.9 10-.8.3-1.3 1.1-1.2 1.8.2.6-.6 1.4-1.7 1.6-1.1.2-2.4.9-3 1.6-.6.7-4.4 1-10.8.8-8.8-.3-9.8-.5-9.1-2 1.6-3.8 1.6-7.7-.1-14.4-2-8.1-1.4-15.8 1.5-22.6 1.5-3.2 1.6-4.2.6-4.2-3.7 0-7.5 23-4.5 26.6.6.7.8 2.2.4 3.3-.3 1-.1 2.2.5 2.6 1.8 1.1 1.1 6.7-1.1 8.6-2.1 1.8-5.4 1.4-10.2-1.2-2.5-1.3-3.5-.3-1.6 1.6 1.8 1.8 13.3 3.4 25.4 3.5 6.8.1 8.4.4 6.6 1.1-1.3.5-5.1 1-8.3 1-3.9.1-5.8.5-5.5 1.2.2.7 2 1.1 4.3.9 7.1-.6 20.7-3.2 21.9-4.2.7-.6 2-.8 2.9-.4 2.1.8 3.4-2.5 1.5-3.7-1.1-.7-1.1-1.1-.2-1.7.7-.5.9-1.3.3-2.2-.7-1.1-1.4-1.2-3.3-.3-2.4 1.1-2.5 1-3.1-3-.4-2.3-.7-4.3-.6-4.5 0-.1-.6-1.5-1.5-3.1-3.5-6.8-1.4-19.4 4.4-27 4.7-6.1 5.4-7.1 4.3-7.1-.5 0-2.8 2.4-5 5.2zm2.1 43.8c-.3 1.1-1 1.7-1.6 1.3-.5-.3-1.6.2-2.4 1.2-.7 1.1-1.3 1.6-1.3 1.2 0-.4-1.1-.2-2.5.3-1.3.5-2.7.5-3 .1-.4-.8.5-1.5 3-2.1.6-.1 2.3-1.3 4-2.6 3.3-2.5 4.6-2.4 3.8.6zM34.5 315c-.3.5-.1 1 .4 1 .6 0 1.1-.5 1.1-1 0-.6-.2-1-.4-1-.3 0-.8.4-1.1 1zM72.7 314.7c-.4.3-.7 1.1-.7 1.7 0 .6.5.5 1.2-.2.6-.6.9-1.4.7-1.7-.3-.3-.9-.2-1.2.2zM24.7 316.4c-.6 1.5.1 2.6 1.5 2.6.4 0 .8-.9.8-2 0-2.3-1.5-2.7-2.3-.6z"/><path d="M88.8 317.5c.4 2.5 1.3 3.1 2.5 1.9.6-.7-1.4-4.4-2.4-4.4-.3 0-.4 1.1-.1 2.5zM148.6 316.6c-.6 1.5.3 1.8 2.8.8 2.2-.8 2-1.9-.3-2.1-1.1-.1-2.2.5-2.5 1.3zM96 316.9c0 .5-.3 1.8-.6 2.8-.5 1.7-.5 1.7.6 0 .6-.9 1.5-1.5 2.1-1.2.5.4.9-.1.9-.9 0-.9-.7-1.6-1.5-1.6s-1.5.4-1.5.9zM29 317.9c0 .5.5 1.3 1 1.6.6.3 1 .2 1-.4 0-.5-.4-1.3-1-1.6-.5-.3-1-.2-1 .4zM132.5 319c-.3.5-.1 1 .4 1 .6 0 1.1-.5 1.1-1 0-.6-.2-1-.4-1-.3 0-.8.4-1.1 1zM68 320c0 .5.5 1 1 1 .6 0 1-.5 1-1 0-.6-.4-1-1-1-.5 0-1 .4-1 1zM140.5 320.7c.5 1.7.2 2.3-.9 2.3-.9 0-1.6.5-1.6 1.1 0 1.5 2.1.6 3.4-1.4.8-1.2.7-2-.3-2.9-1.1-1.1-1.2-.9-.6.9zM35.7 320.7c-.4.3-.7 1.1-.7 1.7 0 .6.5.5 1.2-.2.6-.6.9-1.4.7-1.7-.3-.3-.9-.2-1.2.2zM135 321c0 .5.4 1 .9 1 .6 0 1.3-.5 1.6-1 .3-.6-.1-1-.9-1-.9 0-1.6.4-1.6 1zM29.5 323c.3.5.8 1 1.1 1 .2 0 .4-.5.4-1 0-.6-.5-1-1.1-1-.5 0-.7.4-.4 1zM32.5 325.1c-1.1 1.7.1 2.1 1.5.4.8-.9.8-1.5.2-1.5-.6 0-1.4.5-1.7 1.1zM56 326c0 1.1.5 2 1 2 .6 0 1-.9 1-2s-.4-2-1-2c-.5 0-1 .9-1 2zM115.5 325c.3.5.8 1 1.1 1 .2 0 .4-.5.4-1 0-.6-.5-1-1.1-1-.5 0-.7.4-.4 1zM93 326.1c0 .5.5.7 1 .4.6-.3 1-.8 1-1.1 0-.2-.4-.4-1-.4-.5 0-1 .5-1 1.1zM133.1 327.6c0 1.1.3 1.4.6.6.3-.7.2-1.6-.1-1.9-.3-.4-.6.2-.5 1.3zM141.5 327c-.3.5-.1 1 .4 1 .6 0 1.1-.5 1.1-1 0-.6-.2-1-.4-1-.3 0-.8.4-1.1 1zM156.5 327c.3.5.8 1 1.1 1 .2 0 .4-.5.4-1 0-.6-.5-1-1.1-1-.5 0-.7.4-.4 1zM121.3 328.8c2.5 2.7 2.1 4-1.5 5-4.2 1.1-3.8 2.8.4 2.3 4-.4 6.2-2.9 4.5-5-1-1.2-.9-1.3.3-.6.9.5.8 0-.4-1.3-1.1-1.2-2.6-2.2-3.4-2.2-1.3 0-1.3.3.1 1.8zM90 330.5c0 .8-.8 1.5-1.7 1.5-1.2 0-1.4.3-.6 1.1 1.4 1.4 5.3-.9 4.6-2.8-.7-1.8-2.3-1.7-2.3.2zM94.2 331c1.1 1.7 1 2.2-.1 2.9-1 .6-1.1 1.3-.3 2.7 1 1.8 1.1 1.8 1.7-.1.4-1.1 1.1-2.8 1.6-3.7.6-1.3.4-2-1-2.8-2.9-1.5-3.3-1.2-1.9 1z"/><path d="M116 330.4c0 .8.7 1.7 1.6 2 2.8 1.1 3.5.7 2.4-1.4-1.2-2.3-4-2.7-4-.6zM66.5 331.4c-2.7 2-.7 6.2 3.4 7.1 4 .8 5.1 0 5.1-3.6 0-2.2-.5-2.9-1.9-2.9-1.1 0-2.3-.5-2.6-1-.8-1.3-1.8-1.3-4 .4zm6.4 2.2c.6.5-.8 3.4-1.7 3.4-1.8 0-4.5-2.7-3.8-3.9.7-1 4.1-.7 5.5.5zM38.5 332c.3.5.8 1 1.1 1 .2 0 .4-.5.4-1 0-.6-.5-1-1.1-1-.5 0-.7.4-.4 1zM151.5 334.9c-.3.5-.1 1.2.5 1.6.5.3 1-.1 1-.9 0-1.8-.6-2.1-1.5-.7zM162.4 339.5c1.7 6.3 1.4 13.5-.5 16-1.1 1.3-1.9 2.8-1.9 3.3s-.7 1.2-1.5 1.6c-.8.3-1.5 1.2-1.5 2s-.6 2.1-1.4 2.9c-.8.7-2.8 4.1-4.5 7.5-2.4 4.8-4.3 7-8.5 9.7-2.9 2-7 3.8-9.2 4.2-2.1.3-4.7 1-5.6 1.4-1.7.9-12 2.6-21.9 3.6-4.7.4-7.2 0-14.5-2.5-4.9-1.7-10.1-3.3-11.7-3.6-6.9-1.2-12.2-4.4-16.9-10.3-1.6-2.1-3.1-3.9-3.2-4-.1-.1-.2.9-.1 2.2 0 1.3.6 3 1.2 3.7 1.8 1.7 1.6 3.8-.3 3.8-.8 0-1.2.4-.9 1 .4.6 1.3.5 2.4-.2 1.5-.9 2.6-.6 5.9 1.8 2.3 1.6 4.4 3.6 4.8 4.4 1.2 2.9 1.3 8.5.2 12-.7 1.9-1.1 4.3-.9 5.3.1 1-.2 2.4-.8 3.1-1.1 1.3-1.3 7.1-.4 11.9.5 2.7 5.8 6.6 7.1 5.2.7-.6-2-3.1-4.1-3.8-1.9-.6-1.1-16.8 1.2-23 .4-1.2.6-4.3.4-7-.2-2.6 0-4.7.4-4.7 1.7 0 11 2.8 13 3.8 3.5 1.9 6.5 12.1 7.5 25.2 0 .8.5 2.1 1.1 2.8.6.8.6 1.6.1 2.1-1.6 1.5-13.6 5.2-21.4 6.7-9.2 1.8-26.5 1.7-28-.1-1.2-1.5-9-1.8-9-.4 0 .5.8.9 1.9.9 1 0 3.8.7 6.2 1.6 7.5 2.6 22.1 2 35.4-1.6 10-2.7 26.7-8.6 34-12 1.1-.5 4.4-1.9 7.4-3 3-1.2 6.7-3 8.2-4.1 1.5-1 3.2-1.9 3.8-1.9.6 0 1.1-.5 1.1-1 0-1.6-1.9-1.2-5 1-1.6 1.1-4.8 2.7-7.2 3.5-2.4.8-5.2 1.9-6.3 2.5-6 2.8-16.5 7-17.8 7-1.1 0-2.5-4.3-3.2-9.7-.9-8.7-1.7-12.3-2.5-12.3-.4 0-1-1.3-1.2-2.9-.4-2.8-.4-2.8 3-1.9 3 .8 9.2.7 21.7-.6 6.9-.7 25.6-7.4 27.1-9.7.3-.6 1.3-.7 2.3-.4 1.4.4 2.1-.6 3.5-5.4 1-3.3 2.6-6.7 3.7-7.7 1-.9 1.9-2.2 1.9-2.7 0-.6 1.1-2.5 2.5-4.3 1.4-1.8 2.5-3.7 2.5-4.3 0-.5.7-1.4 1.6-1.9 3.5-2 3.3-14.4-.3-18-1.5-1.5-1.6-1.4-.9 1.3zM84.6 340.7c-.6 1.4-.5 1.5.5.6.7-.7 1-1.5.7-1.8-.3-.3-.9.2-1.2 1.2zM64.1 342.6c0 1.1.3 1.4.6.6.3-.7.2-1.6-.1-1.9-.3-.4-.6.2-.5 1.3zM69 343c-.8.5-1.2 1.1-.9 1.4.2.3 1.1.1 1.9-.4.8-.5 1.2-1.1.9-1.4-.2-.3-1.1-.1-1.9.4zM95 343.5c0 .8.5 1.5 1 1.5.6 0 1-.7 1-1.5s-.4-1.5-1-1.5c-.5 0-1 .7-1 1.5zM115.5 345c.3.5.8 1 1.1 1 .2 0 .4-.5.4-1 0-.6-.5-1-1.1-1-.5 0-.7.4-.4 1zM131 345.6c0 .8.5 1.2 1 .9.6-.4.8-1.1.5-1.6-.9-1.4-1.5-1.1-1.5.7z"/><path d="M145.3 345.7c-.4 1-1.1 2.1-1.7 2.5-1.4 1 1.2 5.6 3.7 6.4 2.6.8 6.7-1.5 6.7-3.8 0-1-.4-1.8-1-1.8-.5 0-1 .7-1 1.5 0 1-1 1.5-3 1.5-2.3 0-3-.4-3-2 0-1.1.7-2 1.6-2 .8 0 1.2.4.9 1-.3.5-.1 1 .5 1s1.3-.6 1.6-1.4c.3-.8 1.2-1.2 2-.9.8.3 1.4 0 1.4-.7s-.8-1-1.9-.7c-1.1.3-2.9-.2-4-1-1.9-1.3-2.2-1.2-2.8.4zM186 345.3c0 .9.4 1.8.9 2.1.5.4.8-.1.7-.9-.3-2.1-1.6-3.1-1.6-1.2zM187.6 351.3c.3 1 .9 1.5 1.2 1.2.3-.3 0-1.1-.7-1.8-1-.9-1.1-.8-.5.6zM126.5 352c-.3.5-.1 1 .4 1 .6 0 1.1-.5 1.1-1 0-.6-.2-1-.4-1-.3 0-.8.4-1.1 1zM67.9 353.7c-1.3 1.6-1.2 1.7.4.4.9-.7 1.7-1.5 1.7-1.7 0-.8-.8-.3-2.1 1.3zM94.5 353c-.7 1.2.2 1.2 3 0 1.9-.8 1.9-.9-.2-.9-1.2-.1-2.5.3-2.8.9zM75.5 356c-.3.5-.1 1 .4 1 .6 0 1.1-.5 1.1-1 0-.6-.2-1-.4-1-.3 0-.8.4-1.1 1zM169.5 356c-.3.5-.1 1 .4 1 .6 0 1.1-.5 1.1-1 0-.6-.2-1-.4-1-.3 0-.8.4-1.1 1zM102 357.1c0 .5.5.7 1 .4.6-.3 1-.8 1-1.1 0-.2-.4-.4-1-.4-.5 0-1 .5-1 1.1zM124.7 358.4c-.4 1-.5 2.1-.2 2.4.9.9 1.7-.6 1.3-2.5-.3-1.7-.4-1.7-1.1.1zM148 359c0 .5.5 1 1 1 .6 0 1-.5 1-1 0-.6-.4-1-1-1-.5 0-1 .4-1 1zM152.4 362.4c-.9 1.9-.9 2.3.1 1.9 1.4-.5 2.8-4.3 1.7-4.3-.4 0-1.2 1.1-1.8 2.4zM175 360.7c.1.4.7 1.9 1.5 3.3 3.4 5.9.9 16.4-6.2 25.8-1.3 1.8-2.3 3.7-2.1 4.3.5 1.5 5.2-4.7 8.8-11.6 4.2-7.9 4.6-11.3 2.1-16.8-1.9-4.2-4.1-7-4.1-5zM143.6 362.5c-.3.9 0 1.5.9 1.5s1.2-.6.9-1.5c-.4-.8-.7-1.5-.9-1.5-.2 0-.5.7-.9 1.5zM163.6 362c-1.1.3-1.5.9-1 1.3 1 .6 4.2-.9 3.4-1.6-.3-.3-1.4-.1-2.4.3zM136 364c0 .5.5 1 1.1 1 .5 0 .7-.5.4-1-.3-.6-.8-1-1.1-1-.2 0-.4.4-.4 1zM75 366c0 .5.8 1 1.8 1s2.3.5 3 1.2c.8.8 1.2.9 1.2.1 0-.6.9-.9 2-.6 1.1.3 2 .1 2-.5 0-.5-1.7-1.2-3.7-1.6-5.2-.8-6.3-.8-6.3.4zM113.5 368c-2.7 1.1-5.8 2-6.7 2-1 0-1.7.5-1.5 1.2.1.6-.7 1.4-1.8 1.6-1.6.4-1.7.2-.7-1.1 1.1-1.3.2-1.5-6.9-1.6-4.4-.1-7.8.2-7.5.7.3.5 2.4.8 4.7.7 2.9-.2 4.6.3 5.8 1.6 1.4 1.6 2.6 1.8 6.4 1.3 2.8-.4 4.7-1.2 4.7-2 0-.7 2.2-2 5-2.9 2.7-.9 5.2-2.1 5.5-2.6.9-1.4-1.5-1-7 1.1zM120.2 369.5c-.7.8-2.4 1.5-3.7 1.5-1.4 0-2.5.4-2.5 1 0 .5.7 1 1.5 1 2 0 8.5-3.2 8.5-4.2 0-1.3-2.4-.8-3.8.7zM161.6 372.3c-2.8 2-1.6 4.9 2.3 6 4.3 1.1 5.4-.1 4-4.1-1.2-3.4-3.3-4.1-6.3-1.9zm4.4 2.8c0 1.5-.4 1.9-1.6 1.5-.9-.3-1.8-.6-2-.6-.2 0-.4-.7-.4-1.5s.9-1.5 2-1.5c1.4 0 2 .7 2 2.1zM125.6 374.5c-1.6 1.2-1.7 1.5-.4 1.5.9 0 1.8-.7 2.2-1.5.7-1.8.6-1.8-1.8 0zM143 375.9c0 1 1.9 2.5 2.5 2 .1-.2-.3-1-1.1-1.7s-1.4-.8-1.4-.3zM182 377c0 1.1.4 2 .9 2s.7-.9.4-2c-.3-1.1-.7-2-.9-2-.2 0-.4.9-.4 2zM109 378.2c0 .4.4.8.9.8.6 0 1.2-.4 1.5-.8.3-.5-.1-.9-.9-.9s-1.5.4-1.5.9zM139.2 379.6c-.7.8-.8 1.4-.3 1.4 1 0 2.5-1.9 2-2.5-.2-.1-1 .3-1.7 1.1z"/><path d="M172.5 379c.3.5.8 1 1.1 1 .2 0 .4-.5.4-1 0-.6-.5-1-1.1-1-.5 0-.7.4-.4 1zM184 380.8c0 1.2 1.9 2.6 2.6 1.9.2-.2-.2-1-1.1-1.7-.9-.8-1.5-.8-1.5-.2zM165.6 383.6c-.8 2.1-.8 2.4.3 2.4.5 0 1.1-.9 1.4-2 .6-2.4-.8-2.7-1.7-.4zM125.5 386c-.3.5-.1 1 .4 1 .6 0 1.1-.5 1.1-1 0-.6-.2-1-.4-1-.3 0-.8.4-1.1 1zM68 387.4c0 .8.4 1.7.9 2 .5.4.7-.3.4-1.4-.6-2.3-1.3-2.6-1.3-.6zM142.1 389.1c-1.3 1-1.8 1.9-1.1 1.9 1.2 0 4.5-2.9 3.9-3.5-.2-.2-1.5.5-2.8 1.6zM55.2 388.9c.4 1.3 1.8 1.6 1.9.4 0-.4-.5-.9-1.1-1.2-.7-.2-1.1.2-.8.8zM78 391.5c0 .8.4 1.5 1 1.5.5 0 .7-.7.4-1.5-.4-.8-.8-1.5-1-1.5-.2 0-.4.7-.4 1.5zM135 392.5c-1.1 1.3-1 1.4.4.9.9-.3 1.6-1 1.6-1.5 0-1.3-.6-1.1-2 .6zM155.7 391.6c-.9 1 .4 3.4 1.9 3.4 1.6 0 1.6-.2.8-2.4-.6-1.7-1.6-2-2.7-1zM163 392c0 .5.4 1 .9 1 .6 0 1.3-.5 1.6-1 .3-.6-.1-1-.9-1-.9 0-1.6.4-1.6 1zM148 394c0 1.1.6 2 1.4 2 .8 0 1.6.5 1.8 1.2.6 1.7 2.8 0 2.8-2.2 0-1-.4-2.2-1-2.5-.5-.3-1-.1-1 .6 0 1-.3 1-1.2.1-1.8-1.8-2.8-1.5-2.8.8zM180 393.1c0 .5.5.7 1 .4.6-.3 1-.8 1-1.1 0-.2-.4-.4-1-.4-.5 0-1 .5-1 1.1zM162.1 397.9c-3.7 4.6-4.1 6.7-1.1 5.1 1.1-.6 2-2 2-3.1s.6-2.2 1.4-2.5c1.7-.6 3-3.4 1.7-3.4-.5 0-2.3 1.8-4 3.9zM81 396.1c0 .5.5.7 1 .4.6-.3 1-.8 1-1.1 0-.2-.4-.4-1-.4-.5 0-1 .5-1 1.1zM123.5 396c.3.5.8 1 1.1 1 .2 0 .4-.5.4-1 0-.6-.5-1-1.1-1-.5 0-.7.4-.4 1zM136.2 397c-.7 1.1-.8 2-.3 2 .9 0 2.4-3 1.8-3.6-.1-.2-.8.6-1.5 1.6zM144 396c0 .6-.5 1-1 1-.6 0-2.1.7-3.4 1.5-2.6 1.7-2.5 4.9.1 5.9 1.2.5 1.3 0 .8-2.4-.7-3.1.8-4.3 1.9-1.5.8 2.3 2.5 1.8 1.9-.5-.4-1.6-.2-1.9 1.1-1.4 1 .4 1.6.1 1.6-.9 0-.8-.7-1.7-1.5-2.1-.8-.3-1.5-.1-1.5.4zM189 396.5c-.8.9-.8 1.5-.2 1.5 1.2 0 2.6-1.9 1.9-2.6-.2-.2-1 .2-1.7 1.1zM114 396.4c0 .2.6.9 1.3 1.5 1 .8 1.4.7 1.4-.4 0-.8-.6-1.5-1.4-1.5-.7 0-1.3.2-1.3.4zM173.1 397.6c0 1.1.3 1.4.6.6.3-.7.2-1.6-.1-1.9-.3-.4-.6.2-.5 1.3zM179.5 398.4c-1.8 2.8-1.8 2.8.6 4.7 3.3 2.5 4.8 2.4 5.9-.7 1.4-3.6 1.2-4.7-.6-4-1 .4-2.2-.1-2.9-1.1-1.1-1.5-1.4-1.4-3 1.1zm4.4 1.5c.7.5 1.1 1.4.7 1.9-.9 1.5-3.6.4-3.6-1.4 0-1.6.9-1.8 2.9-.5zM129.2 398.2c.2.6 1 1.4 1.6 1.6.7.2 1-.2.6-1.2-.7-1.8-2.8-2.2-2.2-.4z"/><path d="M153.2 398.6c-.8.8-2.2 1.2-3.2.9-1.3-.4-2 0-2.5 1.5-.3 1.1-1 2-1.5 2-.4 0-3 1.5-5.7 3.3-2.7 1.8-6.4 3.9-8.3 4.7-3.5 1.4-8.2 5-6.4 5 2.3-.1 32.4-16.9 32.4-18.1 0-1.4-3.4-1-4.8.7zM56.3 401.5c-.1 1.9.3 3.5.8 3.5 1 0 1.1-.3 1.3-3.9 0-1.3-.3-2.6-.9-2.8-.5-.1-1.1 1.3-1.2 3.2zM68.5 399c-.3.5-.1 1 .4 1 .6 0 1.1-.5 1.1-1 0-.6-.2-1-.4-1-.3 0-.8.4-1.1 1zM103.9 399.6c-1.1 1.3-1.1 1.8-.1 2.1.6.3.9 1 .5 1.6-.4.6 0 .8 1 .4 1.1-.4 1.7-.1 1.7.8 0 2 3.4 1.9 5 0 1-1.2 1-2.1.2-4-1.4-3-2.8-3.2-3.5-.5-.3 1.3 0 2 1 2 .8 0 1.1.5.8 1-.8 1.4-3.4-.6-4.4-3.3-.7-1.8-.8-1.8-2.2-.1zM190.6 398.9c-.4.7-.5 1.5-.2 1.8.9.9 1.9-.4 1.4-1.8-.4-1.1-.6-1.1-1.2 0zM117.5 400c-.3.5-.1 1 .4 1 .6 0 1.1-.5 1.1-1 0-.6-.2-1-.4-1-.3 0-.8.4-1.1 1zM77.5 402c.4.6 1.1.8 1.6.5 1.4-.9 1.1-1.5-.7-1.5-.8 0-1.2.5-.9 1zM156.1 402.9c-1 .6-1.2 1.9-.7 4.5.6 2.9.4 3.6-.8 3.6-1.3 0-1.4.4-.4 2.5.6 1.4.9 2.7.7 2.8-.2.2-3.8 2-7.9 4.1-6.7 3.3-7.1 3.6-3.5 3 2.2-.3 4.2-1 4.5-1.5.3-.4 2.8-1.8 5.5-3 2.6-1.2 5.8-3 6.9-4 1.1-1.1 2.8-1.9 3.7-1.9 1 0 2-.4 2.4-1 .3-.5 1.3-.6 2.1-.3 1.4.5 1.5.1.9-2.7-.4-1.7-1.5-4-2.5-5-1.6-1.6-2-1.6-3-.5-1.4 1.7-.3 3.8 1.5 3.1 2.2-.8 2.6.6.6 2.1-1.1.7-2.7 1-3.7.6-1.4-.5-1.6-.3-1.1 1.1.5 1.2-.1 2-1.8 2.8-2.8 1.3-4.1.6-2.9-1.4.7-1.1 1.7-9.8 1.1-9.8-.1 0-.8.4-1.6.9zM80 404c0 .5-.9 1-2.1 1-1.5 0-1.9.4-1.5 1.6.3.9.6 2.2.6 3.1 0 .9.8 1.3 2.2 1.1 2.8-.4 3.6-2.8.9-2.8-1.2 0-2.1-.5-2.1-1 0-.6 1.2-1 2.6-1 1.7 0 2.8.6 3.1 2 .6 2.2 1.8 2.6 2.9.8.4-.6-.5-2.1-2.2-3.5-3.1-2.5-4.4-2.9-4.4-1.3zM173.5 405c.3.5.8 1 1.1 1 .2 0 .4-.5.4-1 0-.6-.5-1-1.1-1-.5 0-.7.4-.4 1zM57.6 406.9c-1 1.1-1.6 2.8-1.4 3.8.2 1-.3 2.3-1.2 3-1.6 1.2-.8 2.9.8 1.9 1.1-.6 4.4-9.7 3.9-10.3-.2-.2-1.2.6-2.1 1.6z"/><path d="M149.5 407.6c-1.1.8-7.2 4-13.5 7.1-6.3 3.1-12.2 6.2-13 6.9-3.5 2.9-31.8 12.4-37.2 12.5-1.8 0-4.2.4-5.3.9-1.4.7-.4.8 3.2.5 4.3-.4 5.1-.2 4.7 1-.8 2 1.3 1.9 2.3 0 .5-.8 4.5-2.5 8.8-3.8 9.4-2.7 9.1-2.6 13.2-4.4 1.8-.7 3.9-1.3 4.8-1.3.8 0 1.5-.5 1.5-1 0-.6.9-1 1.9-1 1.1 0 2.3-.4 2.6-1 .3-.5 3.6-2.3 7.3-4 3.7-1.7 7.4-3.5 8.2-4 .8-.5 4-2.2 7-3.7 5.3-2.6 7-3.9 7-5.6 0-1.1-1.3-.8-3.5.9zM158.5 408c-.3.5.1 1 .9 1s1.8-.5 2.1-1c.3-.6-.1-1-.9-1s-1.8.4-2.1 1zM91.1 411.6c0 1.1.3 1.4.6.6.3-.7.2-1.6-.1-1.9-.3-.4-.6.2-.5 1.3zM170.5 413.6c-2.7 1.9-5.9 3.7-7 4-4.3 1.2-7.5 2.7-7.5 3.5 0 1.4 2.1 1 6.5-1.1 2.2-1.1 4.6-1.9 5.3-2 .6 0 1.2-.4 1.2-.9s.8-1.2 1.8-1.6c.9-.3 3.1-1.7 4.7-3 4.5-3.8.8-2.9-5 1.1zM91.2 416.6c-.7.8-.8 1.4-.3 1.4 1 0 2.5-1.9 2-2.5-.2-.1-1 .3-1.7 1.1zM78.5 417c.3.5.8 1 1.1 1 .2 0 .4-.5.4-1 0-.6-.5-1-1.1-1-.5 0-.7.4-.4 1zM35.1 418.6c0 1.1.3 1.4.6.6.3-.7.2-1.6-.1-1.9-.3-.4-.6.2-.5 1.3zM85 418c0 .5.5 1 1.1 1 .5 0 .7-.5.4-1-.3-.6-.8-1-1.1-1-.2 0-.4.4-.4 1zM187 418c0 .5.5 1 1.1 1 .5 0 .7-.5.4-1-.3-.6-.8-1-1.1-1-.2 0-.4.4-.4 1zM174 420.4c0 2.8 1.7 4.3 3.2 2.8.7-.7.6-1.7-.1-3.1-1.6-2.8-3.1-2.7-3.1.3zM190.5 420.6c-6.5 4.9-7.9 6-9.2 7.2-1.4 1.4-1.8 3.2-.7 3.2 1.7 0 11.4-7.3 11.4-8.6 0-.7.5-1.4 1-1.4.6 0 1-.5 1-1 0-1.4-1.2-1.2-3.5.6zM181 421c0 .5.5 1 1 1 .6 0 1-.5 1-1 0-.6-.4-1-1-1-.5 0-1 .4-1 1zM64.1 422.6c0 1.1.3 1.4.6.6.3-.7.2-1.6-.1-1.9-.3-.4-.6.2-.5 1.3zM167.7 421.7c-.4.3-.7 1.7-.7 3 0 1.8-.5 2.3-2.5 2.3-1.4 0-2.5.4-2.5 1 0 .5-.7 1-1.5 1s-1.5.4-1.5.9 1.1.8 2.5.7c1.4 0 2.5-.7 2.5-1.4s1.4-1.2 3.6-1.2c1.9 0 4.2-.6 5-1.4 2-2 1.7-2.9-.6-2.3-1.5.4-2 0-2-1.4 0-1.9-1.1-2.5-2.3-1.2zM161.6 424.5c-.3.8-.1 1.5.4 1.5.6 0 1-.7 1-1.5s-.2-1.5-.4-1.5-.6.7-1 1.5zM129.8 424.7c.7.3 1.6.2 1.9-.1.4-.3-.2-.6-1.3-.5-1.1 0-1.4.3-.6.6zM175 432.5c-.7.8-1.9 1.5-2.6 1.5-2.5 0-14.4 4.3-14.4 5.1 0 1.2 2.7 1.2 3.4 0 .3-.5 2.6-1.2 5.1-1.5 2.5-.4 4.5-1.1 4.5-1.6s.7-.7 1.4-.4c1.5.6 6.5-2.4 6.6-3.9 0-1.3-2.7-.8-4 .8zM150.5 433c.3.5.8 1 1.1 1 .2 0 .4-.5.4-1 0-.6-.5-1-1.1-1-.5 0-.7.4-.4 1zM146 434c0 .5.7 1 1.6 1 .8 0 1.2-.5.9-1-.3-.6-1-1-1.6-1-.5 0-.9.4-.9 1zM154 434.6c0 .8.5 1.2 1 .9.6-.4.8-1.1.5-1.6-.9-1.4-1.5-1.1-1.5.7zM141.1 435.1c-1.3.5-4.2 1-6.5 1.1-2.2 0-4.5.4-5.1.8-.5.4-4.8 1.1-9.5 1.5-18.4 1.6-21.5 2-19.7 2.7 1 .4 5 .3 9-.3s10.1-1.3 13.7-1.5c3.6-.2 9.2-.9 12.5-1.5 3.3-.6 7-1.1 8.3-1.1 1.8 0 2-.3 1.1-1.4-.6-.8-1.2-1.4-1.3-1.3 0 0-1.2.5-2.5 1zM74.8 435.7c.6.2 1.8.2 2.5 0 .6-.3.1-.5-1.3-.5-1.4 0-1.9.2-1.2.5zM147 441.2c-5.8 1.4-11.5 1.9-25 2-18.4.1-19.6 1.3-2.1 2.2 5.3.2 12.6 1.2 16.1 2.1 3.6.9 9.2 1.8 12.5 2 6.8.4 13.8 2.2 17.5 4.7 1.4.9 3.6 1.9 5 2.2 6.6 1.7 10.7 2.9 12.5 3.7 2.8 1.1 15.5 1.9 15.5.9 0-1.2-2.8-2-7.5-2-2.4 0-7.6-1.1-11.7-2.5-4-1.4-8.3-2.5-9.4-2.5-1.2 0-2.4-.6-2.7-1.3-.8-2-11.3-4.9-19.2-5.2-12.2-.5-12.7-2.7-1-4.6 7-1.1 9.6-2.2 7.8-3.2-.5-.2-4.2.5-8.3 1.5zm-9.7 4.5c-.7.2-1.9.2-2.5 0-.7-.3-.2-.5 1.2-.5s1.9.2 1.3.5zM99.8 444.2c.9.9 1.5.9 2.4 0 .9-.9.7-1.2-1.2-1.2s-2.1.3-1.2 1.2z"/><path d="M193.9 448.1c-4.7 4.4-7.6 5.9-11.5 5.9-1.3 0-2.4.5-2.4 1.1 0 .8 1.3.9 4.1.5 4.3-.7 8.6-3 10.7-5.8.7-.9 2-2.4 2.8-3.3.9-.9 1.4-1.8 1.2-2-.3-.3-2.5 1.3-4.9 3.6zM172.5 450c-.3.5-.2 1 .4 1 .5 0 1.3-.5 1.6-1 .3-.6.2-1-.4-1-.5 0-1.3.4-1.6 1zM132 450.5c0 .7 3 1.3 3.4.7.3-.4-.4-.9-1.5-.9-1-.1-1.9 0-1.9.2zM177 452c0 .5.5 1 1 1 .6 0 1-.5 1-1 0-.6-.4-1-1-1-.5 0-1 .4-1 1zM194.7 451.7c-1.1 1-.8 4.3.3 4.3.6 0 1-.4 1-.9s.3-1.6.6-2.5c.6-1.6-.7-2.2-1.9-.9zM164 458c0 .5.5 1 1 1 .6 0 1-.5 1-1 0-.6-.4-1-1-1-.5 0-1 .4-1 1zM185 475.1c0 .5.5.7 1 .4.6-.3 1-.8 1-1.1 0-.2-.4-.4-1-.4-.5 0-1 .5-1 1.1zM182.1 478.7c0 2.5.1 2.6.9.8 1.2-2.7 1.2-3.5 0-3.5-.5 0-1 1.2-.9 2.7zM190.5 479c-.3.5-.1 1 .4 1 .6 0 1.1-.5 1.1-1 0-.6-.2-1-.4-1-.3 0-.8.4-1.1 1zM199.6 478.7c-.7.7 1.3 3.3 2.5 3.3.5 0 .9-.6.9-1.4 0-1.5-2.4-2.8-3.4-1.9zM185.2 482.9c-1.3.9-4.2 5.4-4.2 6.6 0 .5.4.4.9-.4 1.1-1.7 3.2-.5 2.4 1.4-.3.8 0 1.5.6 1.5s1.1-1.6 1.1-3.5c0-4 1.2-4.4 3.7-1.5 1 1.1 2.3 2 3 2 .6 0 1.7.8 2.2 1.7.6 1 1.1 1.3 1.1.6 0-2.4-1.2-4.2-2.6-3.6-1.6.6-1.9-1.3-.3-2.2.6-.4.1-1.2-1.3-1.9-2.6-1.4-5.2-1.6-6.6-.7zM214.5 486c-.3.5-.2 1 .4 1 .5 0 1.3-.5 1.6-1 .3-.6.2-1-.4-1-.5 0-1.3.4-1.6 1z"/><path d="M187 491c0 .5.5 1 1 1 .6 0 1-.5 1-1 0-.6-.4-1-1-1-.5 0-1 .4-1 1zM177.6 494.5c-.3.9.1 1.8 1 2.2 2.1.8 2.5.1.9-2-1.1-1.5-1.3-1.6-1.9-.2zM235.2 500c0 1.4.2 1.9.5 1.2.2-.6.2-1.8 0-2.5-.3-.6-.5-.1-.5 1.3zM249 501.1c0 .5.5.7 1 .4.6-.3 1-.8 1-1.1 0-.2-.4-.4-1-.4-.5 0-1 .5-1 1.1zM244 503.1c0 .5.5.7 1 .4.6-.3 1-.8 1-1.1 0-.2-.4-.4-1-.4-.5 0-1 .5-1 1.1zM253 505.5c-1.7 2.1-.5 3.1 1.5 1.2.8-.9 1.5-1.8 1.5-2.1 0-1.1-1.8-.6-3 .9zM255.8 514.1c2.4 1.1 4.6 1.8 4.9 1.5.6-.6-2.4-1.9-6.7-3-1.4-.3-.5.4 1.8 1.5z"/></svg>