<svg version="1.0" xmlns="http://www.w3.org/2000/svg" width="400" height="484" viewBox="0 0 300 363"><path d="M43 6c-10 7-10 11-1 22l5 6v6a1058 1058 0 0 0-5 72l-4 3c-2 0-7 2-9 4l-10 6-17 16-1 10c1 9 3 12 10 16 3 2 5 2 20 2h17l1 32a2594 2594 0 0 1-1 55h51c9-1 39 1 40 2l1 23a709 709 0 0 0 0 69l-1 7c0 3 0 3 5 2l14 1 27 2h24l8-1 19-1h28v-12l1-15 1-19 2-15v-7c-1-2-1-2-8-1l-12-1c-6-3-7-2-6 4l2 24v20h-24v-8c1-11 3-19 5-25l2-11v-6h-3c-12 2-13 2-16 0-5-3-6-1-5 7l2 13v12l-1 12v6h-5l-8 2h-2v-25l1-27c1-2 1-2-4-2h-15l-5-1v8l2 13 2 19c0 13 0 13-2 14s-4 2-6 1c-3 0-3-1-3-5a1362 1362 0 0 1 2-97 426 426 0 0 0-89-1l-3-1v-25l1-33v-9h5c7-1 10-4 10-9 0-2 0-3 2-4l2-3 2-8v-9c-2-2-2-3 0-5l2-5 2-4 2-6c0-7 0-7-11-7H66V68c0-39 0-41 2-44 2-4 2-10 1-15-2-4-6-7-14-8-5 0-6 0-12 5zm19 1c2 0 3 2 3 3v14l-3 1-6 3-9-3h-2c-1 0-2 0-2-2l-1-4c-2-3-2-4-1-6 1-4 7-7 10-6l1-1c-1-1 7-1 10 1zm1 23v20l-1 6v3l-1 2 1 1h1l-1 2c-1 1 0 7 1 7l1 1h-1l-1 4c0 3 0 3 1 2h1l-1 2-1 4 1 4 1 4-1 3-1 2 1 1 1 4-1 3-1 2 1 1 1 1c0 1-5 3-12 3l-6 1V99l1-17c2-12 3-48 3-50-1-2-1-2 5-2l7-1c2-3 2-2 1 1zm-15 0-1 1-1-2 1-1 1 2zm16 38h-1l1-2v2zm17 45 3 2 3 3c6 2 2 3-8 4-12 0-24 2-28 4l-9 2c-2 0-4 0-3 1h2v2l-4 6-6 6c-3 3-2 5 1 3 3-1 6-4 6-5 0-2 4-5 6-5v5l1 5 1 2-2 16v3l-11-1a192 192 0 0 1-14 0c-9-1-15-6-16-15v-5l4-5c11-10 14-12 25-19l3-3c1-2 16-5 26-5l10-1h10zm10 0 2 2c0 2 0 2-3 2-3-1-5-2-5-4l2-1 4 1zm-4 13v4c0 2-7 4-20 4l-11 2c-3 0-3 0-3-3l-1-4c-3-2 12-5 26-5 7 0 8 0 9 2zm-36 8c0 2-1 2-3 1-2 0-2-2 0-4s3-1 3 3zm34 3 1 4c0 2-1 3-3 4l-4 1c-4 1-26 0-29-1-3-2-4-5-1-6s4 0 4 4h1l1-3c-2-2 0-2 19-4a436 436 0 0 0 11 1zm4-1-1 1v-1l1-1v1zm-2 14c0 2-1 1-3-1h-1v4c-1 1-1 2-18 3H55l1-3v-3l14-1 13-2c0-1 4 1 4 3zm-34 0c1 3 0 5-3 5-2 0-2-1-2-3 0-3 0-4 2-4l3 2zm-1 11c1 2 0 6-1 6-2 0-4-3-4-6 0-4 0-4 2-3l3 3zm28-3 2 2c1 0 1 1 0 0l-2 2-2 4-12 1-12 1-1-2 2-5v-3l3 1h4l2-1h16zm-13 13-1 4v4c-2 0-1 4 1 5v27l-1 25-3-1-2-1c0 1 0 2 2 2 5 3 12 14 9 15l-1 1c0 3-2 3-4 2l-3-3-2-4-2-3 1 5 2 5h-6c-6 0-7-1-7-11 1-11 0-10 5-10h4l-4-1-4-1 1-24a2093 2093 0 0 1 0-36c1-2 2-2 9-2 6 0 7 0 6 1zm11 69h9c8-1 35-2 38-1 2 0 3 1 3 2-1 2-1 2 3 0l5-2 1 6 1 8 1 2c-1 1-8-2-8-3 0-2-3-6-4-6-2 0-1 3 1 5s3 2-10 2H75c-1 0-2-1-2-3 0-4-1-7-4-11l-2-2 3 1 8 2zm79 0c1 0 2 1 1 2v6l-1 4c-5 4-6 4-9 3l-6-2c-2-1-2-2-2-7l1-7 16 1zm1 18-1 15v2l-1 4v6a455 455 0 0 0 0 33 442 442 0 0 0 0 21l3 2 8 1h40l8-1 1-1h-9l1-6a682 682 0 0 0 0-22l-2-20c-1-1 1-2 2-1 2 1 11 2 14 1 2-1 2-1 2 1l-1 7c-1 3-1 4-2 3-1-2-1-2-1 1l-2 7v8l-1 6v4l1 5c0 5 0 5 2 6 5 1 15 2 20 1h6l7 1h8v7c0 6 0 7-2 8l-22 1-22 1c-3 1-39 0-56-2h-6l-2-1-2-4c-2-3-2-3-3-2 0 2 0 3 2 3l1 3h-6v-9l1-7-1-14-1-14v-8l1-8v-6l1-8v-11c0-3 1-4 3-2h8l-4-1c-5 0-7-2-8-7v-4h10c4-1 5-1 5 1zm-15 21-1 1v-1l1-1v1zm37 12c6 0 7 0 7 2l-1 2v17l-1 4v10c-1 2-1 8 1 8v2l-1 3h-3c-3 1-4-1-3-8a184 184 0 0 0 0-33l-1 15a131 131 0 0 1-1 22c0 4-1 5-2 5-2 0-2-2-3-16l-1-32c-1-3-1-3 1-2l8 1zm77 3h8v3l-1 5v15c-1 1-2 4-2 12l-2 10-5 1c-6 0-8-1-8-7 0-3 0-4-1-3l-1-1 2-1c1 1 2-1 1-4-1-2-1-2-1 0l-1 2v-3c2-4 2-20 0-25-1-5-1-8 2-6l9 1z"/><path d="M47 9v1l3-1V8c0-2-1-1-3 1zM53 13c-2 2-1 5 2 5s4-1 3-4-3-4-5-2zm3 2h-1v-1h1v1zM45 20l2 2v-2l-2-2v2zM51 20l1 1 1-1-2-1-1 1zM59 21l1 1 1-1-2-1v1zM52 22l2 2c1 1 1 1 0 0 0-2-2-3-2-2zM54 36v6-1l1-4c1-1 1-1 1 2v4l1-4v-4c-1-2-2-1-3 1zM53 47c0 2 0 3 1 2v-4c-1-1-1 0-1 2z"/><path d="m55 48-1 3c-1 1-2 4-2 15l-1 15 1 1c2-1 2 0 2 1s0 2-1 1c-1 0-3 7-2 8l2-3 1-2c1 2 1 1 1-6l-1-4c-1-1-2-4 0-4l1-3V60l-1 2v1c-1 0-1-5 1-6 1-1 2-9 1-10s-1-1-1 1zm0 8c-1 1-2-1-1-2h1v2zM54 91l-1 2c-2 0-3 4-2 6l1 1v-1c-1-2-1-4 2-4l1-3v-3l-1 2zM54 99h1l1-1c-1-2-2-1-2 1zM51 104c-2 2-2 2 0 3l2 1 1-7-3 3zM62 103h1v-2l-1 2zM60 116v1l1-1v-1l-1 1zM53 118l2 2v-1l-1-1h-1zM30 132l1 2 1-2-1-2-1 2zM26 132l-1 2h1l1-2h-1zM22 142h1l1-1-1-1-1 2zM17 144l2 1-1-2c-2-1-2-1-1 1zM12 144l1 2c1 1 1 1 1-1s0-3-2-1zM36 157l1 2 2 1-1-3h-2zM27 158l2 2h1c0-2-3-4-3-2zM72 131v1l2-1-1-1-2 1zM75 140v1l2-1h-2zM75 151h1l1-1h-1l-1 1zM76 159h2c1-1 0-1-1-1s-2 0-1 1zM74 162v1l1-1v-1l-2 1zM57 174v11l1-3c0-3 0-3 1-1s0 6-2 6l-1 1 1 1 1 1h-1l-1 1 1 2v5c1 2 2 3 1 5l-2 3h-1v2l2 1c2 0 3-1 3-2l-1-1v-2l1-10 1-12c1-5 0-9-3-9l-1 1zm3 3-1 1-1-2h1l1 1z"/><path d="M58 213v9c0 5 1 1 1-5 1-7-1-10-1-4zM55 213l1 1 1-1-1-2-1 2zM55 218v1l1-1v-2l-1 2zM55 222h1v-2l-1 2zM57 238l2 1c2 1 2 2 2 3-1 1 0 2 1 2s2 0 2 2l1 1c1-1 0-3-2-6-3-4-5-5-6-3zM53 240l-1 1 4 1c1-1-3-3-3-2zM67 248v2l1-2v-2l-1 2zM54 248l2 1c2 1 2 1 1-1 0-1-3-2-3 0zM100 242h2l-2-1v1zM109 243h-3l-1 1c0 1 20 1 20-1l-1-1-1 1v1l-2-1h-12zM79 245v3l3 2 5-5h-8zm6 1-1 1-2-1 2-1 1 1zM93 245h3c1-1 1-1-2-1s-3 0-1 1zM132 246l-1 2 1-1 1-1h1-2zM154 242l2 2v-1c-1-2-2-3-2-1zM146 244v1l1-1v-1l-2 1zM149 246c-1 1 0 2 2 2 1 0 2 0 1-1 0-2-2-2-3-1zM146 250l1 1v-1l-1-1v1zM151 252h1l1-1c-1-1-2-1-2 1zM147 261c0 1 3 3 5 3 2-1 0-4-3-4l-2 1zM151 273a33 33 0 0 0-1 11h1l1 2v2-16l-1 1zM150 299v12l2 5v-9a388 388 0 0 1-2-8zM210 295l1 1 1-2h-1l-1 1zM220 297v2c1 1 2 0 1-2h-1zM210 300h1v-2l-1 2zM215 300l-2 15v21c1 0 2-5 2-17a195 195 0 0 1 1-20l-2 1zM211 312h1v-2l-1 2zM149 317l1 3v-6l-1 3zM149 323c-2 3-1 7 0 7 2 0 2 0 1-3v-5c-1-1-1-1-1 1zM151 327l1 1 1-2c-1-2-2-1-2 1zM155 341l-4 1-5 1 4 1c2-1 3-1 4 1l1 1v-2l1-1 1 3 1 4v4l-1 1h2l2-2-1-4-2-6v-1l-2-1h-1zM230 344l1 1 1 5c-1 4 0 5 2 2s1-5-1-7-3-2-3-1zM244 347v5l-1 3c1 1 4-2 5-5 0-3 0-4-2-5-2-2-3-1-2 2zM188 346v1l1-1h-1zM192 346v1l1-1v-1l-2 1zM195 346v1h7l-2-1h-5zM241 347v4h1v-4c-1-3-2-2-1 0zM254 346h2l-2-1v1zM169 347l1 3 2 1v-2l-1-1-1-2-1 1z"/><path d="M151 349c0 2 1 3 3 3h3l-3-1c-2-1-2-1-1-2l1-1c-3-1-3-1-3 1zM175 349l-1 2v1l2-3v-2l-1 2zM207 348l4 1h12l-13-2-3 1zM251 349l1 1v-1l-1-2v2zM258 349c0 1 0 2 1 1v-2c-1-1-1 0-1 1zM193 350l-5 1c-2-1-6 0-6 1l15-1c2-1 0-2-4-1zM178 351h2c1-1 0-1-1-1s-2 0-1 1zM211 351c-3 1-1 2 3 1l2-1h-5zM219 352c0 1 2 2 2 0v-1c-1-1-2 0-2 1zM200 352h8l-5-1c-3 0-4 0-3 1zM255 353l-1 1 2-1c3-1 1-2-1 0zM259 298l1 1 1-1-2-1v1zM255 301v3c2-1 2 0 1 5v6c-1 4-2 15 0 16l1-5c-1-4 0-6 1-8v-15c-2 0-1-2 1-2 1-1 1-1-1-1l-3 1zM251 316h1v-2l-1 2zM254 335c-1 2 0 3 1 1v-1h-2zM184 56v7l-4 33v11l1 11v3l-6-4-13-7c-17-7-38-17-46-22l-6-5c0-3-3-5-4-4l2 5c1 4 2 6 6 8l6 7c3 9 31 35 45 41l-6 1c-9 1-22 5-31 11l-11 5-8 4-11 5c-5 1-8 3-8 4 0 2 5 1 10-1 3-2 4-2 10 0 7 1 16 1 21-1h7c4 0 21-2 26-4s5-1 2 1a89 89 0 0 0-21 32c0 3-11 20-17 27l-8 8c3 2 5 2 7-1l9-7c13-6 35-22 45-33l6-6v3l1 6 5 16c3 10 6 15 10 21 4 7 7 13 9 22 0 2 1 3 3 3s2 1 0-9l-2-11a194 194 0 0 0 1-56l12 8c9 7 14 10 24 14a277 277 0 0 1 27 13c3 1 6 3 7 5 5 6 7 7 11 8 5 0 6-1 1-2-2-1-4-2-5-5l-8-10-10-13a173 173 0 0 0-48-41l12-1c12-1 22-3 34-8 9-3 14-4 20-2 4 1 4 1 4-1a409 409 0 0 1-29-8c-16-5-25-6-34-6l-7 1 3-5 7-9c8-10 12-23 12-39 0-10-1-12-2-6l-4 4-9 8c-6 6-24 31-25 34s-2 1-2-6c-1-11-8-29-15-38-3-3-3-4-3-10l-1-8c0-2-2-3-2-1zm6 25 2 3v2c0 3 0 3 2 4l3 1h-2l1 7 4 13 1 5c1 0 1 10-1 13l1 2 1 2c0 2-2 3-4 1h-4c-8 4-10-1-11-25l1-18 1-7 2-6 3 3zm54 4-1 8-1 2-1 2v2c-1 0-2 1-2 5l-3 6h-1v3c-2 0-4 2-4 5l-1 1-1 2-1 2-3 5c-3 4-3 5-11 7l-9 4v-4l1-6 1-4 1-2 5-7a80 80 0 0 1 10-12l10-13a240 240 0 0 0 12-13l-1 7zm-16 9-1 1h-1l1-1h1zm-102 3 12 6a269 269 0 0 1 41 20c-1 1 0 2 1 3 2 1 5 9 3 10l-1 2c0 2-1 3-6 3-4 0-6 0-9-3l-5-3-5-3-4-4c-2 0-9-6-18-17l-8-7-3-1 1-1c1-1 1-1-1-3s-3-4-1-4l3 2zm125 39 8 1 7 2 7 2c4 0 2 3-2 5l-6 1c-8 3-11 4-19 5l-10 1-7 1c-7 1-21-1-23-2l1-6c0-4 1-5 3-6 4-3 11-5 16-6h5c1-1 15 0 20 2zm-51 1c2 0 3 6 2 11 0 3-5 6-10 6-3 0-8-5-8-8v-4c-1-2 1-4 4-5l5-1h4l3 1zm-19 7c0 3 2 8 6 11 2 3 3 5 2 6l-1 3v12c0 2-3 7-8 12l-4 5-7 5c-3 4-8 8-12 10l-6 5-1 1-7 4-6 4c-2 0-1-3 1-4l2-3 3-5 4-7 2-4 4-7 3-7 3-4c0-2 2-3 2-3l1-1 4-5 3-4 5-5c4-3 7-4 9-4 3 0 5-2 4-3l-15 4-6 1-6 1-20 2-12 2h-16c-2 1-4 0-4-1l3-1 3-1c1-2 7-6 9-6l7-3 9-3c2 0 3 0 2-1l2-1 9-2 10-3h19zm23 8h-1l1-2v2zm-1 4 2 3 1 1v6l2 10c0 7 2 10 3 8v16c1 3 1 4 2 3v3c-2 3-2 6-2 20l-1 9-5-6-4-6-1-1 2-1 1 1h1l-2-2-6-12c-5-14-5-17-5-19l-1-1v-5l1-11 1-10 1-4c0-2 1-2 2-2 1 1 3 0 4-1 2-2 4-1 4 1zm13 0 7 3 9 5 6 4 4 3 3 2c-1 0 1 3 4 5l9 7 5 4c2 1 2 1 1 2v3l2 1 1-1 1 1 2 3 2 2c-1 0 2 5 6 9l3 4c0 2-2 1-6-2l-4-2h-2v-1c2 0 0-2-4-3l-5-3-6-2-13-5h2l1-1-4-1-2-1h-1c-2 0-7-3-7-5h-2c0-1-7-8-13-11l-4-7c0-2-2-7-4-9l-2-5h4l7 1zm-5 16v4c-2 1-2 0-2-2l1-3 1 1zm1 6v2l-1-2v-1l1 1zm54 15v1l-1-1v-1l1 1z"/><path d="m189 93-1 4 1 15c1 15 2 18 4 18l1-3-1-13-1-13-1-6v-5l-2 3zM230 99l-11 17c-2 6-5 11-6 11-2 2-2 3-1 3l4-3 10-18 3-4 2-4 1-1 1-1h-3zM146 116a140 140 0 0 0 17 14l1 1 4 4 3 2c0 2 3 2 4 1s0-3-5-5l-7-6c0-2-7-9-9-9l-3-1-5-1zm11 5 3 3c1 2 1 2-2 0s-6-5-4-5l2 2zM239 138l1 1v-1l-1-1v1zM214 142l1 1v-1l-1-1v1zM254 142l-6 1h-6l-15 1-14 2c-1 0 2 2 3 1l31-1c9 0 11-1 11-4h-4zM264 142v1l1-1v-1l-1 1zM196 139h1v-2l-1 2zM192 143c-1 1-2 2-1 3 0 3 1 3 4 3s3 0 3-3c0-2-1-3-2-3l-1-1-3 1zm4 3-1 1c-2 0-2-1-1-2l2 1zM186 146l1 1 1-1-1-1-1 1zM168 150l-10 1-15 4-8 2v1l9-1 18-3 13-3-7-1zM147 161h2l-2-1v1zM122 164l4 1h3l-3-1h-4zM175 166l1 1v-1l-1-1v1zM174 176l-5 9-5 7c-5 5-7 9-5 9 1 0 18-22 18-25l3-3c3-3 3-3 2-4l-2-1-6 8zM182 177v1h1c0-2-1-3-1-1zM153 205l-1 2c1 1 2-1 2-2h-1zM197 166l1 4 1 1 1 1-1 1-1 1c0 1 3 0 3-2 1-2-1-8-3-8l-1 2zM200 176c-2 1-1 3 1 3l1-2c0-2-1-3-2-1zM200 186c0 4 1 7 1 3l1-2 1-3c0-2 0-3-2-3-1 0-2 1-2 5zM202 191c0 5 1 8 2 7h1l1 2v-4l-2-3v-2l-1-2c-1-1-1 0-1 2zM201 204c0 3 2 6 5 6s3-1 2-5c0-4-2-4-1 0v3l-3-3-1-3-1-1-1 3zM205 224h1l1-1h-1l-1 1zM206 227l1 2v-1c0-2-1-3-1-1zM217 162c-1 2-1 2 1 1l1-3-2 2zM219 167c0 2 9 11 11 11l1 1 3 2 5 3 16 13c2 1 2 1 1-1-1-3-5-6-6-6l-3-2c-2-2-2-2 2 0l7 4c2 2 6 3 6 1l-3-2-5-2-6-4-6-3-2-2c-1 1-8-2-8-4l-1-1-6-5c-5-5-6-6-6-3zM229 183l1 1v-1l-1-2v2zM247 196l2 1c0 1 1 1 0 0l-2-1zM266 198l3 4c2 4 3 4 0-2-1-3-3-4-3-2zM171 230c-1 1-1 1 0 0l1-2-1 2z"/></svg>