<svg xmlns="http://www.w3.org/2000/svg" viewBox="0 0 385 254"><path d="M148.178944 9.945148c.3 9.9 1.7 13.4 7.1 18.1l2.1 1.8-2.5-.7c-5-1.3-12.6-5.7-15.7-9.1-4-4.2-4.3-2.6-.5 3.4 4.9 8 10.3 14.4 11.4 13.7.7-.4.8-.3.4.5-.4.6 0 1.3 1.1 1.7 1 .3 2.6 1 3.5 1.5 1 .5 2.6.9 3.5.9 1.4 0 1.5.2.4.9-1.9 1.2-5.8-.1-15.7-5-7.7-3.7-15.4-10.3-15.4-12.9 0-.6-.4-1-1-1-1.8 0-1 2.6 2 6 1.6 1.9 2.9 4.5 3 5.6 0 1.2.7 3.4 1.5 5s1.1 3.1.6 3.4c-1.1.8-8.4 10.9-10.9 15.3-3.8 6.5-6.2 15.3-6.9 24.8-.5 7.9-1 9.7-3.7 13.8-4.3 6.5-5.3 8.2-7.1 11.6-.8 1.6-2.3 4-3.3 5.2l-1.7 2.3-6.5-2.6c-3.6-1.3-7.3-2.9-8.2-3.4-1-.6-2.2-1-2.8-1-.5 0-5.3-2.1-10.7-4.8-21.6-10.5-34.6-14.4-45.4-13.8-9.7.6-14.6 2.3-19.1 6.5-3.6 3.3-4.2 4.5-5.4 11.2-1.8 10-1.7 10.3.3 9.3 2.5-1.1 11.3-1.3 11.3-.3 0 .5 2.1.6 4.8.4 2.6-.2 5-.4 5.4-.5.4 0 1.6-1.7 2.7-3.8 1.1-2.1 3.6-5.1 5.6-6.6 3.2-2.5 4.2-2.7 9.3-2.2 3.1.3 5.9.6 6.2.6.3.1-2.8.8-6.9 1.5-11.3 2.1-14.6 6.5-15.3 20.5-.3 5.2-.2 5.5 2 5.3 1.2-.2 2.2.2 2.2.8 0 .8 1.4 1 3.9.6 2.2-.2 4.3-.1 4.8.3 1.3 1.4 12 2.3 12.7 1.2.3-.6 1.1-3.4 1.6-6.4 1.3-6.9 3.9-9.1 9.9-8.3 2.4.3 4.9.9 5.5 1.3.6.5 3.1 1.4 5.4 2.1 2.4.7 6.5 2.8 9.2 4.7 2.6 1.9 5.2 3.4 5.7 3.4s2 1.1 3.3 2.5c1.3 1.4 2.7 2.5 3.1 2.5 1.4 0 10.8 9.2 11.4 11.1.8 2.5 2.2 1.6 3.9-2.6 1.8-4.3 9.3-12.5 11.5-12.5.9 0 5 1.4 9.1 3 6.7 2.8 9.8 3.7 18 5.4 1.4.3 5 1.2 8 2.1 14.1 4.2 47.2 9.1 71 10.6 8.5.5 16.2 1.2 17.2 1.5.9.3 3 3.9 4.8 8.2 1.8 4.2 5.3 11.8 8 16.8l4.7 9.2-5.1 1.5c-8.8 2.7-19 6.4-24.1 8.9-2.8 1.3-6.9 3-9.2 3.7-2.4.8-4.3 1.8-4.3 2.3 0 .5 1 .6 2.2.3 1.7-.6 2-.4 1.4 1-.3 1-.1 2.4.5 3.2 1.4 1.6 1.2 1.9-2.1 2.8-2.1.5-2.6.2-2.6-1.4 0-1.1.4-1.7.8-1.5.4.3.8-.2.8-1 0-1-.6-1.3-1.7-.9s-1.4.3-.9-.5c1.3-2.1-1.6-1.3-6.5 1.9-10.5 6.7-17.7 17.6-16.5 25.1.9 5.4 8 19.1 8.4 16.1.2-1.3 1.9-3.2 4-4.4 4.4-2.7 9.1-7.8 9.2-9.9 0-.9-.7-2.6-1.7-3.9-.9-1.4-1.6-4.2-1.5-6.7 0-5.4-1.4-5.8-2.1-.7-.3 2.7.2 4.9 1.6 7.6 1.5 2.7 1.8 4 1 4.8-.8.8-1.3.5-1.8-1-.3-1.2-1-2.1-1.5-2.1s-.6-.7-.3-1.7c.4-1 .2-1.4-.5-.9-1.4.8-2.5-2.8-1.7-5.4.4-1.1.2-2-.4-2-2.3 0-1.6 7.4 1.1 12.2 2.1 3.7 1.9 6.8-.4 6.8-1.9-.1-4.9-7.2-4.6-11 .2-1.9-.2-3.5-.9-3.7-2.1-.7-1.6 7.2.7 11.6 1.6 3.2 1.7 4.1.6 5.6-1.2 1.6-1.4 1.5-3.4-1.6-3-4.9-4.4-12.1-3.1-15.6 1.3-3.7 5.9-10.3 7.1-10.3.5 0-.5 2-2.3 4.5-1.8 2.5-3 4.8-2.6 5.1.3.3 1.2-.7 2-2.3 2.1-4 6.3-7.7 7.8-6.8.8.6 1 .4.5-.4-.5-.7 0-1.8 1-2.6 1.1-.8 1.5-1.5 1-1.5-.6 0-2 1-3.3 2.2-1.3 1.2-2.6 1.9-2.9 1.5-1-.9.4-2.4 5.2-5.6l4.5-3.1.9 2.6c1.3 3.4 1.3 3.9-.5 5.4-2 1.7-1.9 4.9.2 7.2 1.1 1.2 1.6 3.3 1.5 5.8-.3 5.1 1.7 9 6.8 13l4 3.2 2.9-3.1c1.6-1.7 3.2-3.1 3.5-3.1 1.3 0 7.8-6.6 9.2-9.1 1.2-2.4 1.1-2.8-.5-4.4-1.1-.9-2.5-3-3.1-4.6-1-2.4-1-3.3.3-5.1 1.8-2.9 12.9-8.6 18.2-9.4 7.4-1.2 16.9-1.4 22.7-.4 7.1 1.2 8.5 1.1 7.9-.5-1.1-2.9 0-9.7 2.2-14.1 3.3-6.4 5.2-8 11-8.8 3.8-.6 5.6-1.6 8.4-4.4 3.5-3.8 6.5-9.3 7.9-14.7.9-3.8 1-17.2.2-20.5-.4-1.4-.7-2.8-.7-3.1-.3-2-8.7-10.6-12.8-13-4.7-2.8-7.6-3.9-19.8-7.4-3.3-1-6.4-2.1-6.8-2.5-1.4-1.3 10.3-7.9 16.1-9.1 7.6-1.5 20.1.2 31.7 4.4 4 1.5 7.5 5.6 7.5 8.9 0 1 .3 1.8.8 1.8.4 0 1.8 1.6 3.1 3.5 2.5 3.8 10.6 8.2 16.2 8.9 7.9 1 15.2 3.9 20.6 8.3 3.9 3.1 5.9 4.2 7.1 3.7 1.5-.6 1.4-.8-.5-1.1-2.3-.4-7.2-6.2-7.7-9.1-.2-.9-.7-4-1.1-6.7-.8-6-5.7-16.9-9.4-20.8-4.1-4.5-7.3-5.6-16.8-6.1-6.2-.3-10.3-1.1-13.8-2.7-11.6-5.2-33.6-6.1-45.4-2-8.5 2.9-16.8 8.8-20.3 14.2-1.7 2.7-2.4 2.7-16.3.4-1.1-.2-7.2-1-13.5-1.9-23-3.3-41.1-7.5-48.2-11.3-7.1-3.7-13.6-10.4-17-17.5-3.3-6.8-2.1-19.9 1.6-16.9.6.5 3.4 1.2 6.1 1.6 2.8.4 5.7 1.3 6.5 2 .8.7 4.7 3 8.5 5.1 8.1 4.4 17.6 11.4 20.4 14.9 1 1.4 2.3 2.5 2.8 2.5 1.6 0 4.3-4 4.3-6.3 0-1.5.9-2.9 2.5-3.7 3.4-1.8 3.2-3-.5-3s-3.8-1.5-.3-5.2l2.6-2.7-3.6.6c-4.2.6-4.5.1-1.7-2.7 2.9-2.9 2.5-3.9-1.5-3.3-4.4.7-4.9-1.7-.8-3.6 2.3-1.1 2.9-1 4 .5.7.9 1.4 2.1 1.6 2.7.5 1.6 2.7-.2 2.7-2.3 0-2.6 1.7-3.4 2.5-1.1.3 1.1 1.3 2.2 2.2 2.5 1.2.5 1.4.1 1.1-1.9-.6-2.7.4-3.7 3.7-4.3 2.8-.4 4.2-2.1 5.3-6.5.9-3.2.8-3.8-.9-4.8-1.1-.5-4.7-1.2-8.1-1.5-7.1-.5-14-3.4-15.6-6.7-.7-1.2-1.8-4.8-2.6-7.9-2.8-10.9-5.5-14.6-11.8-16.1-2.1-.6-2.8-1.5-3.3-4.6-.4-2.2-1.3-4.5-2.1-5.2-.8-.6-1.4-2-1.4-3 0-1.1-.4-1.9-.9-1.9-1.6 0-5.5 9.4-5.5 13.1-.1 3.6-.2 3.7-4.5 4.3-9.4 1.3-17.4.7-22.7-1.8-5.2-2.4-12.3-9.6-12.5-12.8-.3-3.7-.4-4.1-1.6-4.5-1-.4-1.2 1.8-1 8.9zm49.1-.6c.3.9.6 3.1.6 5 0 3-.3 3.4-2.5 3.4-2 0-2.5-.5-2.5-2.5 0-2.7 1.9-7.5 3.1-7.5.4 0 1 .7 1.3 1.6zm-43.4 4.9c2.5 3.4 10.4 8.5 13.3 8.5.8 0 1.8.6 2 1.2.4 1 .7 1 1.4.1.9-1.2 3.7-1.2 4.9 0 .4.4-.4.7-1.7.8-2.3.1.4.9 7.9 2.5 1.3.2 2 .8 1.8 1.3-.3.5-1.7.6-3.2.3-1.6-.3-3 .1-3.5.9-.7 1-1.1 1.1-1.7.2-.4-.6-1.8-1.1-3.2-1-1.4 0-3.2-.3-4.1-.7-1-.4-1.8-.2-2.2.7-.4 1 .5 1.3 3.9 1.3 2.4-.1 4.4.2 4.4.6 0 1.1 4.8 1 5.5-.2 1-1.6 3.7.1 3.2 2.1-.3 1.1-.2 1.7.2 1.5.4-.3 1.5.4 2.4 1.4 1.5 1.8 1.5 2-.7 3.7-1.2 1-3 3-4 4.5-1 1.6-2.5 2.8-3.2 2.8-.8 0-1.4.6-1.4 1.3 0 .7-1.4 2-3.2 2.8-3.7 1.6-4.6 3.4-2.2 4.3 1.3.5 1.5.2 1.1-1.4-.4-1.6-.2-2 1.2-1.5 1.3.4 3.4-1.2 7.2-5.2 3-3.2 6.9-6.9 8.7-8.1 1.8-1.3 3.1-2.7 2.8-3-.2-.4.2-2.3 1-4.2.7-1.9 1.3-2.9 1.3-2.3.1.7.9 1.3 1.9 1.3 1.6-.1 1.6-.1-.1-1.1-1.5-.9-4.7-6.5-4.7-8.3 0-.5 9.1-2 11-1.7 3.6.5 6.6 2.4 8.2 5 1.5 2.8 1.5 3 0 3.7-1 .4-2.4.6-3.4.5-.9-.1-1.9.3-2.3.9-.3.5-1.5 1-2.6 1-2 0-10.4 3.9-9.7 4.5.1.2 4.3-1 9.3-2.6 4.9-1.6 9.6-2.7 10.2-2.4 2.1.7 1.5 2.5-.8 2.5-4.5 0-10.9 2.2-10.9 3.8 0 1.2-.3 1.3-1.1.5s-1.6-.7-2.9.5c-1 1-2.6 2.3-3.5 3-.8.7-1.3 1.7-1 2.2.3.5-.8.7-2.5.5-1.6-.2-3 .1-3 .6 0 .6.6.7 1.3.3.6-.4.4.2-.6 1.3-.9 1.1-1.4 2.3-1 2.6.3.4-.3.7-1.5.7s-2.2.4-2.2.9-.9 1.3-2 1.6c-2.5.8-2.6 2.5-.2 2.5 2.1 0 9.2-6 9.2-7.8 0-.7.4-1.1.9-.8.5.3 2.4-.8 4.2-2.4 3.5-3.1 4.9-3.7 4.9-2 0 .5.9 1.4 2 2 1.6.8 2.7.7 5.1-.7 2.5-1.5 3-2.3 2.6-4.6-.3-2.3 0-2.7 1.9-2.7 2.6 0 2.9.4 3.8 4.6.6 2.8.4 3.3-2.9 5.3-2 1.1-4.8 2.3-6.3 2.6-2.5.6-2.5.5.4-.9 1.8-.7 3.5-1.9 3.8-2.5.4-.6-1.5.1-4.2 1.4-5.3 2.7-8.8 3.3-7.6 1.3.5-.7.3-.8-.7-.2-.8.4-2.5.7-3.9.5-2.4-.3-2.5-.2-.5 1.3 1.1.8 3.7 1.6 5.7 1.6 2.8 0 3.6.4 3.2 1.4-.7 1.8 1.2 3 2.2 1.5.5-.8.3-.9-.6-.4-.8.5-1.1.3-.8-.6.2-.7 2.6-1.9 5.2-2.5 2.7-.7 5.8-2.2 7-3.3 2.9-2.7 3.6-2.6 3.6.5 0 2.1-.4 2.4-2 1.9-2.8-.9-2.5.2 1.2 3.5 3.1 2.9 3.1 3 1.3 5-1 1.1-1.5 2.3-1.1 2.7.4.4 1 .2 1.4-.4.5-.7 1.3-.9 2.1-.4 1.4.9 5.8-2.7 5.3-4.2-.1-.5.2-.6.7-.3.5.4 1.1-.4 1.3-1.6.2-1.5.9-2.3 2.1-2.2.9.1 3.2.2 5 .3 5.2.2 6.3 1.3 4.7 5-.7 1.7-1.6 3.1-2 3.1-.5 0-1.6.3-2.6.7-1.4.5-1.6.2-1.1-1.6.7-2.8-1.5-3.8-4.6-2.2-1.2.6-1.4.9-.5.7 1-.3 2-.1 2.3.4.6.9-7.7 5-10 5-.8 0-3.5.9-6.1 2-4.2 1.8-5.4 1.9-10.3.9-3.1-.6-6.1-1.5-6.7-2-.7-.6-1.8-.8-2.5-.7-.8.2-1.5-.7-1.6-2.2-.2-2.3-.2-2.3.7-.5.9 1.7 1 1.6.5-.6-.4-2.4-.2-2.7 2-2.5 1.4 0 2.5.5 2.5 1 0 .6.6.4 1.2-.2 1-1 1-1.5-.2-2.2-.9-.6-1.6-.6-1.8 0-.6 1.8-2.2 1-2.2-1 0-1.4.5-1.8 1.8-1.3.9.3 1.4.3 1.1-.1-1.1-1.2-8.1-1.8-7.4-.6.4.6 1 .8 1.5.5 1.8-1.1 1.7 2.4 0 4-1.1 1-1.7 2.2-1.4 2.7.3.5 0 1.6-.8 2.5-.9 1.2-1 1.5 0 .9.7-.4 1.5-.1 1.8.8.3.9 1 1.4 1.4 1.1 1.3-.8 2.1 2.5 1 4.6-1.2 2.2-2.1 2.4-3.8.7-.6-.6-1.5-.8-1.9-.4-1 1 1.7 2.6 4.5 2.6 1.2 0 2.2-.6 2.2-1.4 0-.8.4-1.7.9-2 .4-.3.6.6.3 1.9-.2 1.4 0 2.5.5 2.5 1.1 0 1.1-4-.1-5.8-1.2-2-.5-2.2 3.9-1.1 2.2.5 5.6 1.1 7.5 1.4 1.9.3 4 .8 4.6 1 1 .3 4.2 8.3 4.8 11.8.1.7.5 1.8 1 2.5.9 1.4 0 7.8-1.2 8.6-.4.2-2.4-1.1-4.4-3-2.1-1.9-3.3-3.5-2.8-3.5.6-.1 1.3-.2 1.8-.3 1.6-.2 5.3-4.4 4.4-5-.6-.3-1.2.1-1.6.9-.3.8-1.1 1.5-1.7 1.5-.7 0-.4-.9.7-2.1 1.8-2 1.8-2.1-.6-4-1.4-1-3.1-1.9-3.8-1.9-.9 0-1.1-.7-.7-2 .4-1.4.2-2-.8-2-.9 0-1.3.8-1 2.2.2 1.3-.1 3-.7 3.8-.9 1.3-1.1 1.3-2 0-.6-1-.6-1.6 0-1.8.6-.2 1-.8 1-1.4 0-.6-.7-.8-1.5-.4-1.2.4-1.4 0-1.1-1.9.3-1.7 0-2.5-1-2.5s-1.3.7-.8 2.5c.5 2 .2 2.7-1.7 3.3-1.3.5-1.8 1.1-1.1 1.6.6.3 1.3.2 1.7-.4 1.2-1.9 2.6-1 1.9 1.2-.3 1.3-.3 2 .1 1.6.4-.4 1.7-.2 2.8.3 1.5.8 2.2.8 2.9-.2.7-1.1.8-.9.4.4-.4 1.4-.1 1.8 1.2 1.5 1.2-.2 1.6-1.1 1.4-2.8-.3-2.4-.3-2.4 1.4-.8 1.6 1.6 1.6 1.9.2 3.5-.9 1-1.7 2.2-1.7 2.8 0 .5-.8 1.2-1.7 1.4-1.2.2-1.5-.2-1.1-1.4.4-.9.3-1.4-.3-1-.6.3-2.3-.3-3.9-1.4-1.6-1.2-5.2-3.2-8.1-4.5-8.3-3.8-11.4-7.7-7.1-8.9 1.2-.3 2.2.1 2.5 1 .3.8 1.1 1.1 1.7.8.7-.5.4-1.4-.7-2.6-1.4-1.5-1.9-1.7-2.6-.7-.5.8-1.1.9-1.5.3-.5-.6-1.7-1.7-2.8-2.5-2-1.5-2-1.4-.1.8 2.6 3 1.5 3.8-2.1 1.6l-2.8-1.8 1.8 2.1c1.7 2 1.7 2.1-.5 2.6-1.3.4-2.4.2-2.6-.3-.2-.6-1.3-1-2.4-1-1.1 0-2.2-.8-2.5-2-.5-2-2.3-2.8-2.3-1.1 0 .5-1.2 2.4-2.7 4.2-1.5 1.7-2.7 4.1-2.7 5.3.1 5.5 1.7 11.8 4 15.2 1.4 2 2.2 3.9 1.9 4.2-.3.4-1.1 0-1.6-.8-.9-1.3-1-1.3-.6 0 .2.8 1 1.5 1.9 1.5.8 0 3.5 2.1 6 4.7 2.5 2.5 5.6 4.9 6.9 5.3 1.3.4 2.7 1.2 3 1.8 2.1 3.1 22.3 7.7 54.4 12.1 18.9 2.7 24.3 4 20.8 5.3-.7.3-1.3 1.1-1.3 1.9 0 .8-.5 1.4-1.1 1.4-.6 0-.8.8-.5 1.8.4 1-.3 4.6-1.4 7.9-1.1 3.4-1.8 7.4-1.7 9 .2 1.5-.2 4.1-.9 5.8-.7 1.6-1.3 2.4-1.4 1.6 0-.8-.3-1.1-.6-.8-.4.4-.1 1.3.5 2.1 1.1 1.3.8 1.6-1.3 2.2-3.1.8-9.9-.4-9.1-1.5.3-.5-.2-1.2-1.1-1.5-.9-.4-1.3-.2-.8.5 1 1.7-13.8.1-15.2-1.7-1.4-1.8-2.2-1.8-2 0 0 .8-.2 1.5-.6 1.5-3.5.3-3.7 0-3.1-3.2.8-4.2.8-4.2 3.9-2.3 2.8 1.9 4.4 1.5 2.6-.7-.7-.8-.8-1.7-.4-2.2.4-.4-.3-.4-1.5-.1-2.1.7-3.4-.8-1.4-1.6.5-.2.4-1.4-.1-2.8-.9-2.3-1-2.4-2.2-.8-1.3 1.7-3.2 2.6-2.2 1 .2-.4-.4-.8-1.5-.8-2.3 0-2.3.3-.6 2.1.9.9 1.9 1 3.1.3 2-1.1 3.1-.5 2.1 1.1-1 1.7-4 1.3-6-.9-1-1.1-2.2-1.7-2.7-1.3-.6.3-1.4 0-1.8-.7-.5-.9-.9-.9-1.4-.1-.4.6.4 1.5 1.8 2.1 2.9 1.1 3.3 2.5 1.2 3.7-1.3.7-1.3 1.1 0 2.7 1.3 1.9 1.4 1.9 1.4-.6 0-1.4.7-2.8 1.5-3.2.8-.3 1.5-.1 1.5.5s.5.7 1 .4c.6-.3 1 0 1 .8s-1 1.8-2.2 2.1c-2.1.6-2.1.7-.5 1.7.9.5 1.7 1.4 1.7 1.9 0 .9-2.2.7-10.5-.5-1.6-.2-6.9-.9-11.8-1.6-4.8-.6-9-1.5-9.3-2-.3-.5-1-.7-1.5-.4-.5.4-1.5.3-2.1-.2-2.1-1.2-4.8-1.4-4.8-.2 0 .5-.5.7-1.1.3-.8-.4-.7-.9.2-1.5.7-.4 1-1.2.5-1.6-.4-.4-1.3 0-2 .9-1.2 1.6-1.8 1.6-8.2.3-13.4-2.8-22.5-5.8-22-7.2.3-.7.1-1.3-.3-1.3-.5 0-1.1.6-1.3 1.2-.6 1.6-9.6-.6-14.5-3.4-1.8-1.1-3.3-1.7-3.3-1.3 0 .3-1.3-.2-2.9-1.1-2.3-1.4-3.4-1.5-6.1-.6-1.8.7-3.6.9-4.1.6-.5-.3-.9 0-.9.5 0 .6.5 1.1 1.2 1.1s-.3 1.6-2.2 3.5c-3.1 3.2-3.5 3.4-5.1 1.9-1-.9-2.6-1.4-3.6-1.1-1.5.4-1.5.5.3.6 3.3.2 4.8 2.5 3.3 5.2l-1.2 2.3-1.3-2.5c-.7-1.4-2.4-3.1-3.9-3.7-2.4-1.1-2.5-1.4-1.1-2.8.9-.8 2.2-1.2 2.8-.9.7.4.4 0-.6-.9-1.7-1.4-2-1.4-3.1.1s-1.5 1.4-4.6-.9c-4-3-13.2-8.4-17.1-10.1-1.6-.6-2.8-1.8-2.9-2.7 0-.8-.3-1-.5-.4-.4.9-1.4.9-3.9.1-3.2-.9-4.8-2.7-2.6-2.7.5 0 1.2-.9 1.6-2 .6-1.9.7-1.9 5.3-.1 10.6 4.2 15.1 6.4 14.7 7.1-.3.5.3.6 1.2.4 2.6-.6 11.6 5.3 10.9 7.2-.7 1.9-.1 1.8 2-.3 1.5-1.6 1.7-1.6 3 .2 1.2 1.7 1.4 1.7 1.4.2 0-.9-.4-1.7-1-1.7-.5 0-1-.5-1-1.2 0-.6.3-.8.7-.5.3.4 1.2-.1 1.9-1.1 2.1-2.7 1.6-3.7-.8-1.6l-2.2 1.9 1.8-2.9c1-1.6 4.1-5.2 7-8.1 2.8-2.9 7.4-7.8 10.3-10.8 2.8-3 5.5-5.2 5.8-4.8.4.3.6.1.5-.4-.7-3.1.1-4.5 2.6-4.5 1.4 0 2.3-.4 1.9-1-.9-1.4-6.7-.9-6.1.6.2.6-.5 2-1.7 3.1-1.2 1-4.3 4.3-7 7.3l-4.7 5.4.6-5.4c.3-3 .7-9.1.9-13.5.1-4.4.4-8 .5-8 .1 0 .4-.9.6-2 .1-1.1.5-3.6.8-5.7.7-4.5 8-21.5 10.4-24.2 1-1.2 2.6-3.3 3.6-4.9l1.7-2.8 2.4 2.9c1.4 1.6 3.9 3.5 5.7 4.2 1.8.7 5.6 2.3 8.3 3.6 2.8 1.3 6.9 2.6 9.3 3 2.3.4 4.2 1 4.2 1.5 0 1.7 4.6.9 6.3-1.1 2.4-2.9 2.1-4.4-.4-1.9-1.3 1.3-2.7 1.8-3.7 1.4-.9-.4-2.6-.9-3.7-1.1-1.1-.2-2.1-.8-2.3-1.3-.2-.5-1.1-.7-2.1-.4-1 .2-4.1-.7-6.9-2.2-2.7-1.4-5.9-2.7-7-2.8-1.1 0-1.9-.4-1.7-.7.2-.4-.9-1.7-2.6-2.9-3-2.2-8.4-9.9-7.6-10.7.3-.3 2.7.8 5.4 2.4 6 3.6 15.6 6.6 20.1 6.3 1.9-.1 3.1.2 2.8.7-.3.6.3 1.2 1.5 1.5 1.6.4 1.8.3.8-.9-1.8-2.2 1.4-1.8 3.5.5 1.7 1.8 1.7 2-.1 2.9-1 .6-1.4 1.4-1 1.8.4.5 1.8-.4 3.1-1.9s2.8-2.7 3.5-2.7c.6 0 1.1-.5 1.1-1 0-.6-1.8-1-4-1-2.3 0-4-.5-4-1.1 0-.6-.9-.9-2-.6-1.1.3-2 .1-2-.3 0-.8-3.4-2.3-5.5-2.5-.5 0-.9-.8-.9-1.7.1-.9-.4-1.4-1-1.2-1.3.5-11.6-8.3-11.6-9.8 0-.5 1.5-.1 3.3 1 1.7 1.1 5.5 2.3 8.2 2.7 2.8.4 5.5 1.1 6 1.6.6.4 4.3 1.9 8.3 3.2 4 1.3 7.2 2.8 7.1 3.3 0 .5-.6.7-1.2.5-2.7-.8-8.3-2.2-9.4-2.3-.7-.1-1.3-.5-1.3-1s-.8-.2-1.7.7c-1.6 1.6-1.7 1.6-2.5-.4-.7-2.1-1.8-2.8-1.8-1.2 0 .5.9 1.9 2.1 3.2 1.1 1.3 1.7 1.8 1.3 1-.5-1.1-.2-1.3 1.4-.9 1.2.4 2.2.2 2.2-.2 0-.5 1.2-.2 2.8.6 1.5.7 3.8 1.4 5.2 1.4 1.9 0 2.2.2 1 1-.8.5-1.1 1.3-.6 1.7.4.4 1.5-.2 2.3-1.5.9-1.2 2.6-2.2 3.9-2.2 1.4 0 2.4-.6 2.4-1.5 0-.8-.6-1.2-1.5-.9-1.8.7-8.5-1.4-8.5-2.7 0-.6-.4-.7-1-.4-.5.3-3.2-.5-6-1.9s-5.8-2.3-6.8-2c-1.2.4-1.3.3-.4-.3.9-.7.4-1.7-1.9-3.9-3.8-3.6-6-7.8-6.4-12.1-.4-4.2.4-4.1 3.5.2zm35.8 9c.5 6.1.2 8.9-1.2 10.4-1.5 1.4-1.8 1.4-2.7.1-1.9-2.9.4-12 3.1-12 .3 0 .7.7.8 1.5zm-5.5 1.6c-.4 1.4-1.1 1.8-2.2 1.4-.9-.4-2.3-.8-3-.9-3.2-.6-1.9-2.1 1.8-2.3 3.4-.1 3.8.1 3.4 1.8zm21.9 12.7c-.6.2-1.2 1-1.2 1.8 0 1.8-1.4 1.8-2.9.1-1.5-1.9.5-3.6 3.2-2.9 1.2.3 1.6.7.9 1zm16.5 10.3c.6.6.9 1.8.6 2.5-.3.8 0 1.4.6 1.4s1.1.6 1.1 1.4c0 2-2.9 4.8-4.2 4-.7-.5-.5-1.2.6-2 1-.7 1.5-1.8 1.1-2.4-.6-.9-1-.9-1.6.1-.7 1.1-.9 1.1-.9-.1 0-.8-.3-2.5-.6-3.8-.7-2.4 1.3-3.1 3.3-1.1zm4.6 3.6c-.5 1.2-.7 1.2-1.4.1-1.3-2-1.1-2.8.5-2.2.8.3 1.2 1.2.9 2.1zm5.7 9.7c0 1.1-1.9 1.5-2.5.6-.3-.5.1-1 .9-1 .9 0 1.6.2 1.6.4zm-6 2.6c0 .5-.4 1-1 1-.5 0-1-.5-1-1 0-.6.5-1 1-1 .6 0 1 .4 1 1zm-6 7c0 .5-.4 1-1 1-.5 0-1-.5-1-1 0-.6.5-1 1-1 .6 0 1 .4 1 1zm-182.3 23.3c.6.4.5 2.4-.1 5.1-.8 3.5-1.6 4.6-3.5 5.1-4.1 1-7.9 4.3-9.7 8.5-2.2 4.9-3.4 5.1-3.4.6 0-2.7.8-4.1 4-7 4.3-3.9 4.7-4.6 2.6-4.6-1.9 0-8.6 7.1-8.6 9.1 0 2.1-3.6 6.6-4.6 5.7-1-1.1 3.4-11 5.8-13 1.1-1 1.8-2.3 1.5-3-.7-2.1-7.4 5.7-8.4 9.8-.8 3.7-3.6 6.5-5 5.1-.4-.5-.3-1.1.3-1.5.5-.4.9-1.7.8-3-.1-1.3.7-4 1.7-6 2.6-5 2.3-6.3-.6-3-1.4 1.6-2.7 4.7-3.1 7.5-.6 4.5-1.7 6.2-3.8 6.3-.4 0-.5-1.5-.2-3.3.4-1.7.8-4.5 1-6.1.9-6.5 7.1-11.6 15.3-12.5 6.6-.7 16.6-.6 18 .2zm8.8 6.1c-.8 1.9-2.2 3.2-3.5 3.4-3 .5-4-.7-3.3-4.1.6-3.2 3.9-5 6.4-3.4 1.4.9 1.5 1.4.4 4.1zm10.3-.3c1.3.5 2 1.3 1.7 1.9-.3.6.1.7.9.4.9-.3 3.7.7 6.3 2.2 2.7 1.6 5.3 2.9 5.8 2.9.6 0 4.3 1.7 8.2 3.8 4 2 7.9 3.7 8.6 3.7.8 0 3.6 1.1 6.3 2.5 2.7 1.4 5.6 2.5 6.5 2.5 1.5 0 4.7-5.8 5.5-9.8.1-.8 1-2.2 1.8-3.1.9-1 1.6-2.2 1.6-2.8 0-.5 1.1-2 2.5-3.3l2.5-2.3v3.4c-.1 6.9-1.7 11.7-5.3 16.1-2.1 2.5-3.7 5-3.7 5.7 0 .6-.5 1.1-1.1 1.1-.6 0-.9.6-.6 1.4.9 2.3 1.1 2.4-22.8-8.9-2.7-1.3-7.5-3.3-10.5-4.4-3-1-7.1-2.5-9-3.2-1.9-.6-5.1-2-7.1-3-2-1.1-4.6-1.9-5.8-1.9-2.5 0-2.6-.8-.6-3.6.8-1.2 1.1-2.5.7-2.8-.7-.8 3.8.1 7.6 1.5zm259 1.9c4.3 0 4.3 0 2.8 2.2-.9 1.2-1.6 3.1-1.6 4.1 0 1.7-.5 1.8-3.7 1.2-6.3-1.2-15.6-1.5-19.6-.6-3.4.8-3.8.7-4.3-1.6-.4-1.3-.2-2.9.4-3.5 1.4-1.4 10.9-2.7 16.7-2.2 2.8.2 6.9.4 9.3.4zm10.4 3.3c-1.2 1.3-2.2 3.4-2.2 4.6 0 1.7-.4 2.2-1.6 1.7-.9-.3-2-.6-2.5-.6-1.4 0-1.1-3.3.7-5.8 1-1.5 2.5-2.2 4.6-2.2h3.1l-2.1 2.3zm-38.8.3c1.3 3.5.7 5.4-1.9 5.4-1.9 0-2.5-.5-2.5-2.3 0-3.8 3.2-6.1 4.4-3.1zm45.7.4c1 .6 1.9 2.1 1.9 3.4 0 2.7-3.4 6.3-4.5 4.6-.3-.5-1-.8-1.5-.5-.5.3-1.1.1-1.5-.5-.4-.6-1-.8-1.5-.5-.4.3-.6-.4-.3-1.5s.9-2 1.4-2c.5 0 .9-.6.9-1.4 0-1.2 1-2.1 2.8-2.5.2-.1 1.2.4 2.3.9zm-51.4 4c1.1 2.9.9 3.3-2.1 6.3-3.6 3.4-9.9 17.1-11.6 24.8-1.4 6.7-2.9 10.1-4 9.4-.5-.3-1-.2-1 .4 0 .5.5 1.1 1.1 1.3.6.2.8 1.4.4 3-.6 2.4-1 2.6-3.8 2.1-1.8-.3-3.3-.6-3.4-.7-.1-.1.2-1.9.7-4.1.5-2.2.7-4.8.4-5.8-.3-.9-.1-1.7.5-1.7s.8-.6.5-1.4c-.3-.8 0-2.4.6-3.6 1.6-2.9 3.9-12.3 3.4-13.2-.3-.5-.1-.8.5-.8.5 0 1.9-1.9 3-4.3 1.9-4 11.4-14.7 13-14.7.4 0 1.2 1.4 1.8 3zm-230.2-.8c.3.7 2.4 1.4 4.7 1.5 2.3.2 4.5.8 4.8 1.3.4.6 2 1.3 3.6 1.6 3.7.7 3.8.8 2.3 3.6-1.6 3.1-1.4 2.9-3.3 2.2-.9-.3-1.6-1.4-1.6-2.3 0-1-.8-1.7-1.9-1.7-1.6 0-1.7.4-1 1.8.8 1.5.5 1.8-1.9 1.8-1.6 0-3.5.7-4.2 1.5-1 1.2-1.5 1.3-2.1.4-.4-.7-.7-.3-.7 1.2 0 1.3-.3 4.7-.7 7.4-.6 4.4-1.1 5.1-3.1 5.3-1.3.1-2.4-.3-2.4-.8 0-.6.5-.9 1.1-.8.6.2 1.4-.3 1.6-1 .3-.8-.1-1-1.1-.6-1.3.5-1.6-.1-1.6-3.1 0-2.2.4-3.4 1-3 .6.4.7 1.2.4 1.8-.4.7-.4.9.1.5.5-.5 1-2.3 1.2-4 .2-1.9 1.3-4 2.6-5l2.2-1.8h-2.2c-1.3 0-2.9 1-3.7 2.2-1.4 2.2-3.8 12.7-3.1 13.8.2.3-.7.7-2 .8-1.3.1-2.6-.2-2.9-.7-.3-.4.3-3.7 1.2-7.2 1.5-5.3 2.1-6.4 3.7-6.1 1.7.2 1.7.1.5-.7-1.2-.8-1.3-1.4-.3-3 .9-1.5.9-2.1 0-2.4-1.4-.4-5.1 7.3-6.1 12.8-.9 4.5-2.2 6.5-4.3 6.5-1.1 0-1.1-.4-.3-2 .6-1.1 1.5-4.6 2.1-7.7.6-3.2 1.5-6.4 2.1-7.1.6-.6.7-1.2.2-1.2-.5 0 .5-.9 2.1-2.1 2.8-1.9 2.8-2 .5-1.4-1.4.4-3 1.2-3.6 1.7-1.5 1.1-4.9 13.6-4.1 14.5.7.6-2.2 3.2-3.7 3.3-.8 0-.4-6.3 1-13.3.7-4 3.4-6.6 7.6-7.1 1.2-.2 3-.6 3.8-.9 4.4-1.7 11-2 11.5-.5zm293.6.9c1.6 3-1.3 10.2-4.7 11.8-3.6 1.6-4.1 1.4-5.8-2.1-1.9-3.7-2-4.9-.5-4.6.6.2 2-1.4 3.1-3.5 2.3-4.3 6-5.1 7.9-1.6zm14.7 2.3c4.8 4.4 9.8 14.4 11 22.1.6 3.3.8 6.2.6 6.4-.2.2-2.1-.3-4.1-1.2-2.1-.9-6.5-2.1-9.8-2.6-7.9-1.2-14.9-4.5-17.4-8-2.7-3.7-2.7-3.8.8-5.6 2.7-1.4 3-1.3 3.5.3.4.9 2.1 2.6 3.9 3.8 1.7 1.1 4.4 2.8 5.9 3.8s2.9 1.3 3.2.8c.3-.5-1.8-2.2-4.8-3.7-6.8-3.4-8.4-6.1-6.3-10.4.8-1.7 1.3-4.4 1.1-6.1-.5-3-.5-3 4-3 3.8 0 5.2.6 8.4 3.4zm-76.2 11.6c2.2.6 5.3 2.2 6.7 3.6 1.4 1.3 3 2.4 3.5 2.4.4 0 2.2 1.5 3.9 3.2 3.6 3.9 5.8 7.8 4.4 7.8-.6 0 .3 2 2 4.4 2.5 3.4 3.1 5.3 3.1 9.3-.1 4.4-2.4 12.3-5.2 17-.5 1-1.5 3.1-2.1 4.8-1 2.9-1.1 2.9-2.2.9-1-1.7-1.7-2-3.4-1.3-1.3.5-2.3 1.4-2.3 2.1 0 .9.3.9 1.2 0 .9-.9 1.5-.8 2.8.6 1.5 1.5 1.4 2-1.8 6.2-1.9 2.5-4.2 6.1-5.1 8-.9 1.9-2.2 4.2-3 5-.9.9-1 1.5-.3 1.8.6.2.8 1 .5 1.8-.4 1.2-.8 1.3-1.3.3-.6-.8-1.1-.6-1.9 1-1 1.9-.9 2.1 1.1 1.8 1.5-.1 2.3.4 2.6 1.6.3 1.6.1 1.7-1.8.7-1.2-.7-3.8-1.2-5.6-1.2-2.2 0-3.4-.5-3.4-1.3s-.5-1.7-1.1-2.1c-.8-.4-.9.1-.4 1.6.7 2.1.5 2.2-5.4 1.8-3.4-.1-6.1 0-6.1.4s-.7.5-1.5.2c-.8-.4-2.2-.1-3 .6-.8.7-2.2.9-3.1.6-1.6-.6-1.5-.8.2-2.2 1.8-1.4 1.8-1.5-.4-.4-1.2.6-2 1.5-1.7 2 .7 1.1-2.5 2.9-4.1 2.3-.7-.2-1-1.3-.7-2.4.3-1.2 1.1-1.8 1.9-1.5.8.3 1.4.1 1.4-.4 0-.9 3.4-2.1 10.8-4 1.8-.4 3.2-.4 3.2.1s-.5.9-1.2.9c-.6 0-.9.3-.5.6.7.8 3.9-1 3.8-2.2 0-.5.5-.9 1.2-1 .6 0 2-.4 3-.9 1-.4 2.1-.5 2.4-.1.4.3.1.6-.5.6-.7 0-1.2.5-1.2 1 0 .7.6.7 1.9 0 1.4-.7 2.1-.6 2.4.3.2.6.7.9 1.1.6.4-.4-.2-1.6-1.3-2.6-1.2-1.1-2.2-3.1-2.3-4.5-.1-1.5-.5-2.5-.9-2.2-1.7 1-1.9-1.9-.3-3.1 1.8-1.3 1.8-1.3 0-1.2-1.4.2-2.3-1.2-3.9-6.2-1.9-6.1-1.9-6.5-.2-7.7 1-.7 2.2-1.1 2.8-.7.5.3.4.9-.4 1.4-.7.4-1 1.1-.6 1.5.4.4 1.4-.1 2.2-1.2 1.2-1.7 1.2-2-.2-3.1-1.4-1-2.1-1-3.9.2-2.2 1.4-2.3 1.4-2.8-4.8-.7-8-.6-9.4.6-13.8.8-2.9 1.4-3.5 2.9-3.2 2 .6 2.7 2.3.9 2.3-.5 0-1 .4-1 .9s1 .7 2.1.4c1.9-.5 2.1-.3 1.7 2.1-.3 1.4-.1 2.9.4 3.2.4.3.6.9.3 1.3-.2.5 0 2.2.4 3.9.7 2.2.6 3.4-.4 4.2-1 .8-1.5.7-1.8-.5-.4-1.1-.4-1.1-.3.2.1 1.2.9 1.7 2.4 1.6 1.6-.2 2.2.3 2.4 2 0 1.2.2 3.3.3 4.7.1 1.4.7 3.6 1.4 4.9.7 1.2 1 3 .6 3.8-.3.9-.1 1.9.5 2.3.7.4 1.4 2.6 1.7 5 .5 3.5.2 4.6-1.2 5.7-1.1.7-1.3 1.3-.6 1.3.7 0 1 .4.7.8-.3.5.2.9 1 .9 1.7 0 2.9-3.8 2.1-6.7-.3-1.1-.1-1.8.4-1.4.5.3.9-.2.9-1s1.1-3.5 2.5-6c3-5.5 7.5-18.6 7.5-22.1 0-1.4.4-2.4.8-2.1.8.5 0-6.3-1.5-12.1-.4-1.8-2.5-5-4.5-7.2-4-4.2-4.7-5.7-2.3-4.7 2.1.8 1.9 0-.6-2.5l-2.1-2.1.7 2.1c.5 1.6.2 2.1-1 2.1s-1.6-.7-1.3-2.8c.2-1.8-.2-2.7-1.1-2.7-.9 0-1.5 1.1-1.5 2.7-.1 2.2.5 3.1 3.1 4.3 4 1.9 4.9 3.3 2 3.1-1.2-.1-2.8.2-3.4.7-.7.5-1.3.6-1.3.3 0-.4-1.3.8-3 2.6-1.6 1.8-3 4-3 5 0 2.4-1.6 2.3-2.3-.2-.3-1.1-1.4-2-2.4-2-1.6 0-1.9-.6-1.5-3.1l.5-3.1 2.2 2.8c2 2.6 4.5 2.7 4.5.2 0-.7-.5-.6-1.5.2-1.2 1-1.6.7-2.5-1.6-1.2-3-.4-10.4 1.1-10.4.5 0 .9.7.9 1.5s.4 1.5 1 1.5.6-.9 0-2.4c-.9-2.4-.3-6.6.9-6.6.3 0 1.5.7 2.5 1.5 1.7 1.3 1.8 1.5.3 1.5-.9 0-1.7.4-1.7 1 0 1.6 1.6 1.2 3.6-1.1 1-1.1 1.4-1.9.9-1.8-2.2.7-5.3-2.1-4.8-4.1.3-1.2 1.1-1.9 1.7-1.6.6.3 2.9 1 5.2 1.6zm16.6 5.6c4.6 2.3 4.9 2.7 3.5 4.1-1.4 1.5-1.8 1.3-4.3-1.6-1.5-1.8-3.7-3.7-4.8-4.1-1.2-.5-1.5-.9-.8-.9.7-.1 3.6 1.1 6.4 2.5zm9.8 6.4c0 .6-1 2-2.2 3.2-2 2-2.2 2-3.4.3-1.8-2.5 1.2-6.8 3.9-5.4.9.6 1.7 1.4 1.7 1.9zm3.9 3.4c1.2 1.4 3.5 8.4 2.5 7.3-.3-.3-1.7.6-3.1 1.9-1.4 1.3-2.9 2.4-3.3 2.4-.4 0-1.5-1.8-2.5-3.9l-1.8-4 2.9-2.5c3.4-3 3.8-3.1 5.3-1.2zm-23.9 5.5c1.4 2.7-1.2 5.3-4.2 4.2-3.2-1.2-4.7-3.9-2.8-5.1 2.5-1.6 5.9-1.1 7 .9zm-7.6 3.6c2.6 2.6 6.4 3.3 8.3 1.4.8-.8 1.4-.5 2.3 1 .9 1.9.8 2.5-1.2 4.1-1.3 1.1-3 1.9-4 2-1.1 0-1.5.6-1.1 1.9.5 1.9.5 1.9 2.4 0 1-1 2.5-1.9 3.3-1.9 1.9 0 .5 8.3-3 17.5-.4 1.1-.6 2.6-.5 3.3.1.7-.5 1.5-1.3 1.8-.8.3-1.7 2.1-2 3.9-.8 4.2-2.3 5.3-3.1 2.3-6-22.4-7.5-33.6-5.1-36.1.9-.8 1.6-2 1.6-2.6 0-1.6.7-1.4 3.4 1.4zm35.6 1.3c0 1.6-2.6 3.9-6.2 5.4-1.1.5-1.8.1-2.1-1.3-.3-1-.1-1.9.5-1.9.5 0 2.1-.9 3.5-2 3.2-2.5 4.3-2.5 4.3-.2zm-.3 8.9c-.4 3.2-.9 6.7-1.1 7.8-.6 3.1-3.9 9.5-4.8 9.5-.4 0-.8.7-.8 1.5 0 2.5-3.4 3.6-5.8 1.9-1.2-.8-2.2-1.1-2.2-.5 0 .5.8 1.5 1.8 2 1.5.9 1.5 1.2.2 2.1-1.8 1.1-6 1.3-6 .2 0-.4.9-1.8 2-3.2 1.1-1.4 2-3.3 2-4.4 0-1.3.5-1.6 1.8-1.1s1.4.4.5-.6c-.9-.9-.9-1.7-.1-3.3.6-1.2 1.9-4.6 2.9-7.6 1.2-4 2.2-5.6 3.7-5.8 1.1-.2 2.8-1.2 3.8-2.2 1.1-1 2.1-1.9 2.3-1.9.2-.1.1 2.5-.2 5.6zm-59.9-.5l5 1.1 1.7 9.6c1 5.3 3.1 13.4 4.7 18s2.6 8.7 2.1 9.1c-.4.3-3.2 1.2-6.1 1.8-2.9.7-12.7 4.2-21.8 7.8-9 3.6-17.1 6.4-17.9 6-1.9-.7-1.9-3 .1-5 1.7-1.8 3.4-2.1 3.4-.6 0 .5.7.7 1.6.3 1.1-.4 1.2-.8.4-1.3-1.5-.9 10.8-6.1 26.7-11.1l7.2-2.3-5-9.1c-5.5-10.4-6-12.6-2.6-11.8 1.8.4 1.9.3.7-.6-.8-.6-2.3-.8-3.2-.5-1.3.4-1.8 0-1.8-1.3 0-1.1-.4-2.3-.9-2.9-.5-.5-1.6-2.6-2.5-4.7-1.5-3.7-1.5-3.7.9-3.7 1.3 0 4.6.5 7.3 1.2zm-10.1 49.7c-.2 1-.9 2.6-1.7 3.5-1 1.4-1.5 1.4-2.1.4-1.4-2.2-1-3 1.3-2.2 2.1.6 2.1.6.5-1-2.2-2.2-2.1-2.6.3-2.6 1.4 0 1.9.6 1.7 1.9zm-5.5 3.4c.4 1.8-.2 2.6-2.4 3.6-2.3 1.1-2.8 1.9-2.8 5 0 2.3 1 5.1 2.6 7.5 1.9 2.7 2.3 4.1 1.5 4.9-.7.7-1.3.4-1.9-1.2l-.8-2.2-1.9 2.3c-1.1 1.3-1.6 2-1.1 1.6.5-.4 1.5-.3 2.2.3 1 .8 1.1 1.5.1 3-1.7 2.7-2.3 2.4-4.5-2.4-2.4-5-2-9.3 1.4-14.8.3-.5 0-.9-.5-.9-.6 0-1.1.7-1.1 1.6 0 .9-.5 1.2-1.2.8-.8-.5-.9-.2-.5.9s.1 1.7-.7 1.7c-2 0-1.5 9 .7 12.3 1.9 2.9 2.2 5.7.8 5.7-.5 0-1.3-.9-1.6-2-.3-1.1-1-2-1.5-2-1.1 0-2.5-2.6-3.4-6.3-.5-2.1-.3-2.7.9-2.7 1.3 0 1.3-.2.3-1.4-2.5-2.6-3.9-.6-3.6 5 .2 3.1.7 5.3 1.3 5.1 1.3-.5 4.5 4.2 4.5 6.5 0 2-.8 2.2-2.9.9-.8-.5-1-1.4-.6-2.2.6-1.1.5-1.2-.6-.1-1.9 1.7-2.9 1.5-2.9-.7 0-1.1-.4-2.2-.9-2.5-1.7-1.1-2-6.6-.6-11.3 2-6.3 10.5-15.3 14.5-15.3.6 0 1.8-.7 2.6-1.5 2.2-2.2 4.1-1.8 4.6.8zm-19.6 7.7c-2 2.2-3.6 4.7-3.6 5.5 0 2-1.6 1.9-2.4-.1-1.1-3-.6-4.1 3.2-6.7 5.5-3.8 6.9-3.2 2.8 1.3z"/><path d="M151.978944 17.245148c0 .5 1.1 2.3 2.4 4 1.9 2.3 2.7 2.7 3.7 1.7.6-.6.9-1.3.5-1.3-.4-.1-1.1-.2-1.6-.3-.5 0-1.8-1.2-3-2.6-1.1-1.4-2-2.1-2-1.5zM198.878944 21.645148c0 .6.5 1.3 1.1 1.6.6.4.8 1.4.5 2.2-.5 1.1-.2 1.3 1 .9s1.5-.2 1 .9c-.3.8-.1 1.5.4 1.5 1.7 0 1.1-3.6-.9-5.8-2-2.3-3.1-2.8-3.1-1.3zM204.378944 22.745148c.3.5 1.1 1 1.6 1 .6 0 .7-.5.4-1-.3-.6-1.1-1-1.6-1-.6 0-.7.4-.4 1zM194.878944 23.745148c0 .5.5 1 1.1 1 .6 0 .9.7.5 1.5-.8 2.2.2 1.8 1.5-.6.8-1.5.8-1.9 0-1.5-.6.4-1.1.2-1.1-.3 0-.6-.4-1.1-1-1.1-.5 0-1 .4-1 1zM158.878944 24.545148c0 .4 1 1.6 2.1 2.6 1.8 1.5 2.3 1.5 3 .5 1.2-2 1.1-3.7-.1-1.9-.9 1.3-1.2 1.3-2.4-.3-1.4-1.8-2.6-2.2-2.6-.9zM207.378944 24.845148c-.4.6-.5 1.2-.2 1.5.2.3.7-.2 1-1.1.7-1.7.1-2-.8-.4zM169.678944 27.445148c.7.3 1.6.2 1.9-.1.4-.3-.2-.6-1.3-.5-1.1 0-1.4.3-.6.6zM154.378944 33.845148c-.4.6-.4 1.3-.1 1.6.3.4.6.1.6-.6s.5-.9 1-.6c.6.3 1 .1 1-.4 0-1.4-1.7-1.4-2.5 0zM177.878944 34.745148c0 .5.5 1 1.1 1 .5 0 .7-.5.4-1-.3-.6-.8-1-1.1-1-.2 0-.4.4-.4 1zM139.978944 41.745148c2.2 3.4 9.6 7.3 10.3 5.4.5-1.3-2.2-3.4-4.4-3.4-.7 0-2.6-1-4.3-2.2l-3.2-2.3 1.6 2.5zM167.578944 42.245148c.3.8.9 1.2 1.4.9 1.2-.7 1.1-1.1-.5-1.7-1-.4-1.3-.1-.9.8zM150.878944 47.545148c0 .6 1.6 1.4 3.5 1.8 2.5.4 3.5 1.2 3.5 2.4 0 1.3.5 1.7 2 1.3 1.1-.3 2-1 2-1.5s-.4-.6-1-.3c-.5.3-1 .1-1-.4 0-1.4 2.7-1.4 3.5-.1.4.6 1.1.7 1.7.4 1.5-.9-2-2.7-5.7-2.9-1.6-.1-4.2-.5-5.7-1-1.8-.4-2.8-.3-2.8.3zM211.178944 50.745148c-.4 1.4-1.4 2-3.4 2-1.6 0-2.9.3-3 .7-.3 3.1-1 4.6-2.6 5.8-1 .8-1.4 1.7-.9 2.2.5.4 1.1.2 1.3-.5.3-.6 1.5-1.2 2.8-1.2 1.7 0 2.4-.7 2.8-2.7.5-2.6.4-2.7-1-.8-1.5 2-1.5 2-1.1 0 .5-2.8 3.8-3.1 5.8-.6 1.7 2.4 5 2 5-.6 0-1-.6-1.2-2.1-.8-1.9.6-2.1.4-1.6-1.4.3-1.1.1-2.1-.5-2.1-.5 0-.6-.5-.3-1 .3-.6.3-1 0-1-.4 0-.9.9-1.2 2zM133.578944 52.545148c-2.1 2.3-4.7 8.5-4.7 11.2 0 1.1-.4 2-.9 2-.8 0-2.7 7.9-3.4 14-.1 1.4-.8 2.4-1.4 2.3-.8-.2-1 .9-.6 3.4s.3 3.4-.5 2.9c-.6-.3-1.4-.1-1.8.5-.4.8-.3.9.4.5.8-.5 1.2 0 1.2 1.3 0 7 3.6-3.9 6.2-18.7.6-3.4 1.5-6.2 1.9-6.2.4 0 1.3-2.5 2-5.6.8-3.7 2.1-6.2 3.7-7.5 1.6-1.2 2-1.9 1-1.9-.8 0-2.2.8-3.1 1.8zM186.078944 52.045148c-1.5 1.7 4.4 5.5 6 3.9 1.6-1.6-.2-3.4-2.8-2.8-1.8.5-2.2.3-1.8-.9.7-1.8 0-1.9-1.4-.2zm5.8 2.1c0 1.1-1.9 1.5-2.5.6-.3-.5.1-1 .9-1 .9 0 1.6.2 1.6.4zM230.978944 52.345148c0 1.1.3 1.4.6.6.3-.7.2-1.6-.1-1.9-.3-.4-.6.2-.5 1.3zM137.978944 54.345148c0 1.1.3 1.4.6.6.3-.7.2-1.6-.1-1.9-.3-.4-.6.2-.5 1.3zM163.578944 53.345148c-.4.4-.7 1.2-.7 1.8 0 .6.5.4 1-.4.9-1.3 1.1-1.3 2.1 0 .9 1.2 1 1.2.7.1-.5-1.7-2.1-2.5-3.1-1.5zM175.578944 53.345148c-1 1 1.2 4.4 2.8 4.4.7 0 1.7-.6 2.1-1.3.4-.6.4-.9-.1-.5-1.1 1-4.7-1.1-4-2.3.7-1 .2-1.2-.8-.3zM147.278944 59.445148c.2 2.7 0 6-.5 7.5-.4 1.6-.4 2.8.2 2.8.5 0 .9.5.9 1.1 0 .5-.5.7-1.2.3-.7-.5-.8-.3-.2.7.5.8 1 3.3 1.1 5.6.1 3.4-.2 4.3-1.5 4.3-1.4 0-1.5.2-.2 1 .9.6 1.7.5 2.1-.2.5-.7 1.7-.6 3.8.5 1.7.8 3.1 1.1 3.1.6 0-.6.5-.7 1-.4.6.4.8.9.6 1.3-.2.4.7.8 2.1.8 2.4.2 2.4.2.6-1.9-1-1.2-2.4-2.7-3-3.5-.7-.7-1.3-1.4-1.3-1.5 0-.1 2.2-.1 5-.1 2.7.1 5-.3 5-.8s.5-.6 1.2-.2c.7.4.8.3.4-.4-.4-.6-1.3-.9-2.1-.6-.8.3-2 .2-2.6-.2-.9-.5-.6-1 .9-1.5 1.3-.5 2.2-1.7 2.3-3.1 0-1.3.2-3.1.4-4.1.2-.9-.1-1.5-.6-1.1-.5.3-.9 1.6-.9 2.9 0 2.5-4.5 7.5-6.7 7.5-2.6 0-4.1-6.5-1.7-7.4.8-.3 1.4-1.7 1.4-3.2 0-2.1-.3-2.4-1.4-1.5-.7.6-2.1.9-3 .5-.9-.3-1.6-.1-1.6.6 0 .6.4.9.9.6.5-.3.8 1.3.8 3.7-.1 2.3.2 5 .7 5.9.6 1.3.3 2-1 2.5-1.1.3-2.2 1-2.5 1.5-.3.5-.6-1.3-.6-3.9 0-2.6.4-5.4 1-6.1.7-.9.6-1.1-.5-.7-1.2.5-1.4-.7-1.1-7 .2-4.3-.1-7.5-.6-7.5-.6 0-.9 2.1-.7 4.7zm7.9 20.8c.7 1.7-.9 3-1.8 1.5-.4-.6-1.1-.8-1.6-.5-.5.4-.9.2-.9-.4 0-.8 1.5-1.8 3.1-2 .4-.1.9.6 1.2 1.4zM183.878944 55.745148c0 .5.7 1 1.6 1 .8 0 1.2-.5.9-1-.3-.6-1-1-1.6-1-.5 0-.9.4-.9 1z"/><path d="M138.878944 57.645148c0 .5.5 1.3 1 1.6.6.3 1 1.8 1 3.1 0 3.1-2.4 2.7-2.8-.4-.2-1.2-.8-2.2-1.3-2.2-1.1 0-1.2 2.3-.2 3.4 1.9 1.9 1 3.4-1.9 3.1-2-.3-2.8 0-2.5.8.2.7 1.8 1.1 3.8 1 1.9-.2 4.1-.3 4.9-.4.9 0 1.6-1.2 1.7-3.1.1-1.7.8-3.7 1.4-4.5.7-.8.8-1.3.3-1.1-.5.1-1.9-.3-3.1-1-1.3-.7-2.3-.8-2.3-.3zM188.578944 58.345148c.6 1.5 2.3 1.9 2.3.5 0-.5-.7-1.1-1.4-1.4-1-.4-1.3-.1-.9.9zM149.478944 58.645148c-.4.5-.2 1.2.3 1.5.5.4 1.2.2 1.5-.3.4-.5.2-1.2-.3-1.5-.5-.4-1.2-.2-1.5.3zM158.378944 59.745148c-.4.6.3 1 1.4 1 2.5 0 2.7-.6.6-1.3-.8-.4-1.7-.2-2 .3zM175.478944 59.845148c.3.5-.3.9-1.3 1-1 0-1.3.3-.7.5.6.3 2.1.1 3.4-.4l2.4-.9-2.2-.5c-1.2-.4-2-.2-1.6.3zM209.078944 60.845148c-1.6 2.6-1.5 2.9.9 2.9 1.9 0 2-.2.8-1.6-1.2-1.5-1.1-1.6 1-.9 1.5.4 2.1.4 1.7-.3-.3-.6 0-1.2.6-1.5.7-.2.1-.4-1.3-.4-1.4 0-3.1.8-3.7 1.8zM152.878944 60.745148c0 .5.9 1 2.1 1 1.1 0 1.7-.5 1.4-1-.3-.6-1.3-1-2.1-1s-1.4.4-1.4 1zM180.278944 60.945148c-.4.7-.3.8.4.4s1.2-.2 1.2.4c0 .6.5.8 1 .5 1.1-.7.4-2.5-1-2.5-.5 0-1.2.5-1.6 1.2zM186.878944 61.145148c0 .2.7.6 1.5 1 .8.3 1.5.1 1.5-.4 0-.6-.7-1-1.5-1s-1.5.2-1.5.4zM143.878944 62.845148c0 .5.5.7 1 .4.6-.3 1-.8 1-1.1 0-.2-.4-.4-1-.4-.5 0-1 .5-1 1.1zM168.878944 62.745148c-1.2.8-1 1 .8 1 1.3 0 2-.4 1.7-1-.7-1.2-.6-1.2-2.5 0zM163.578944 63.445148c-.4.3-.7 1.1-.7 1.7 0 .6.5.5 1.2-.2.6-.6.9-1.4.7-1.7-.3-.3-.9-.2-1.2.2zM157.878944 65.745148c0 .5.5 1 1.1 1 .5 0 .7-.5.4-1-.3-.6-.8-1-1.1-1-.2 0-.4.4-.4 1zM167.378944 65.645148c-.3.5-.1 1.2.5 1.6.5.3 1-.1 1-.9 0-1.8-.6-2.1-1.5-.7zM159.478944 69.445148c-1 2.5 1 3.9 2.3 1.5 1-1.9.6-3.2-1-3.2-.4 0-1 .8-1.3 1.7zM141.778944 69.245148c-.1.3-.2.9-.3 1.4 0 .5-.4 1.3-.8 1.7-1.2 1.1-1 3.4.3 3.4.5 0 .8-.4.4-.9-.3-.6.4-1.9 1.5-2.9 1.8-1.7 1.9-2 .6-2.5-.9-.4-1.7-.4-1.7-.2zM137.378944 70.745148c-.3.6.1.7.9.4 1.8-.7 2.1-1.4.7-1.4-.6 0-1.3.4-1.6 1zM155.578944 71.445148c-.4.6.3 1.9 1.6 2.9 1.2 1.1 1.7 1.2 1.1.4-.6-.8-1.3-2.2-1.6-3-.3-.9-.7-1-1.1-.3z"/><path d="M136.278944 74.245148c-.4.9-1.3 1.4-2 1.1-.7-.3-1.6-.1-1.9.5-.4.5-1.2.6-1.8.3-.7-.4-.1.5 1.2 1.9 2.5 2.8 4.1 3.4 4.1 1.7 0-.6-.5-.9-1.2-.8-.6.2-1.3-.6-1.5-1.7-.3-1.6-.2-1.7.6-.5.9 1.3 1.2 1.2 2.5-.5 1.3-1.8 1.4-1.7 1.2 1.3-.1 1.8-.8 3.7-1.5 4.1-1 .6-1.2 1.9-.7 4.5.8 4.4 4.1 6.1 8.3 4.5 3.1-1.2 7.5-5.6 6.3-6.4-1.2-.7-4.1.5-3.5 1.6.3.4-.4 1.3-1.5 1.9-1.7.9-2.4.6-4.4-1.4-1.4-1.3-2.6-2.3-2.8-2.2-.2 0 0-.3.4-.9 1.2-1.3 1-9.3-.2-10-.6-.3-1.3.1-1.6 1zm3.6 13.5c2.3 1.8 2.3 2 .5 2-1.1 0-2.6-.9-3.3-2-1.5-2.5-.4-2.5 2.8 0zM122.578944 75.745148c-.3 1.1-.2 2.2.2 2.4.4.3.8-.6.9-2 .2-2.9-.4-3.1-1.1-.4z"/><path d="M141.878944 76.745148c-1.3.8-1.2 1 .3 1 .9 0 1.7-.5 1.7-1 0-1.2-.1-1.2-2 0zM144.378944 79.745148c.3.5.8 1 1.1 1 .2 0 .4-.5.4-1 0-.6-.5-1-1.1-1-.5 0-.7.4-.4 1zM140.878944 82.145148c0 1.4.5 2.8 1 3.1.6.4 1-.7 1-2.4s-.4-3.1-1-3.1c-.5 0-1 1.1-1 2.4zM161.578944 81.045148c-.5 1.5 3.8 11.6 5.8 13.6.8.8 1.8 1.1 2.2.7.4-.4 0-1.2-1-1.7-.9-.6-1.7-1.7-1.7-2.6 0-.9-.8-2.5-1.7-3.5-1.5-1.7-1.5-2-.3-2.8 1.3-.8 1.2-1-.2-1-2 0-2.4-1.6-.6-2.2.8-.3.6-.7-.4-1.1-.9-.3-1.9-.1-2.1.6zM130.478944 82.245148c-.3.8-.1 1.5.4 1.5.6 0 1-.7 1-1.5s-.2-1.5-.4-1.5-.6.7-1 1.5zM217.878944 84.245148c-.8.9-.8 1.5-.2 1.5 1.2 0 2.6-1.9 1.9-2.6-.2-.2-1 .2-1.7 1.1zM128.478944 87.345148c-.8 2.2-.8 2.4.7 2.4.7 0 1.3-.9 1.3-2 0-2.4-1.1-2.6-2-.4zM154.278944 87.845148c0 1 .4 1.9.8 1.9s.8-.6.8-1.4c0-.8-.4-1.7-.8-2-.4-.2-.8.4-.8 1.5z"/><path d="M165.878944 86.945148c0 .6.3.8.7.5.3-.4 1.2.1 2 1.1 1.3 1.5 1.3 1.5.3-.6-1.1-2.3-3-3-3-1zM150.878944 88.045148c0 1 .7 2.5 1.5 3.3 1.9 1.9 1.9.7 0-2.6-1.1-2-1.4-2.1-1.5-.7zM158.278944 87.945148c-.4.6-.2 1.4.4 1.6 1.3.4.5 3.2-1 3.2-.5 0-.6-.5-.3-1 .3-.6.1-1-.4-1-2.1 0-1.1 2.9 1.2 3.2 1.8.2 2.2.9 2 3.3-.1 2 0 2.3.4.7.5-2.3 1.9-3 2-1 .1 2 4 8.8 4.6 8.2.3-.3-.3-2.1-1.4-4-1-1.9-1.6-3.4-1.4-3.4.3 0-.2-1.1-1.1-2.5-.9-1.4-1.4-3.2-1-4 .3-.9.2-1.3-.4-1-.6.3-1-.1-1-.9 0-2-1.7-2.9-2.6-1.4zM125.678944 90.445148c-.6 1.2-.4 2.6.9 4.8.7 1.1 1.3 1.5 1.3.8 0-.6-.5-1.5-1-1.8-.8-.5-.8-1.1 0-2 .7-.8.7-1.5.1-1.9-.5-.4-1.1-.3-1.3.1zM147.878944 91.245148c-.1 1.1-.2 2.6-.1 3.2.1.7-.3 2.2-1 3.4-.9 1.7-.8 2.5.5 3.7.8.9 1.9 1.2 2.3.8.5-.5.3-1-.2-1.2-.6-.2-.9-2.2-.7-4.3.4-4.2-.3-9.5-.8-5.6zM129.378944 91.745148c.3.5 1.1 1 1.6 1 .6 0 .7-.5.4-1-.3-.6-1.1-1-1.6-1-.6 0-.7.4-.4 1zM133.878944 91.745148c0 .5.5 1 1.1 1 .5 0 .7-.5.4-1-.3-.6-.8-1-1.1-1-.2 0-.4.4-.4 1zM138.278944 93.845148c-.3.6.1 1.8 1 2.7 1 1.1 1.6 1.2 1.6.4 0-.7-.5-1.2-1.1-1.2-.6 0-.9-.7-.5-1.5.6-1.7 0-2-1-.4zM141.378944 93.745148c-.3.5-.1 1 .4 1 .6 0 1.1-.5 1.1-1 0-.6-.2-1-.4-1-.3 0-.8.4-1.1 1zM120.678944 94.545148c.9.6 1.2 2.2.9 4.6-.3 2.5-.1 3.6.7 3.3.6-.2 1.1-2.1 1.1-4.3 0-3.1-.4-3.9-2-4.2-1.5-.2-1.7-.1-.7.6zM144.878944 94.745148c0 .5.5 1 1.1 1 .5 0 .7-.5.4-1-.3-.6-.8-1-1.1-1-.2 0-.4.4-.4 1z"/><path d="M154.278944 95.245148c1.3 3.1 1.5 6.4.5 7.1-.8.5-1.3-1.6-1-4.3.1-.6-.3-1.4-.9-1.8-.5-.3-1-.1-1 .5s-.5.8-1 .5c-.6-.4-.6.3.1 1.8.9 2 .8 3.2-.6 6.1-1.8 3.8-1.1 6.5.9 3.2.6-1 2.2-3.2 3.6-4.9 1.3-1.6 2.5-4.3 2.6-5.9.2-1.7 0-2.7-.3-2.4-.4.3-1.3 0-2.1-.7-1.4-1-1.5-.9-.8.8zM136.878944 97.845148c0 .6-.7 1.7-1.5 2.5-.8.9-1.5 2.1-1.4 2.7 0 .9.2.8.6-.1.2-.6 1.1-1.2 1.9-1.2.8 0 1.4-1 1.4-2.5 0-1.4-.2-2.5-.5-2.5s-.5.5-.5 1.1zM142.278944 97.945148c-.4.6-.3.8.4.4.5-.3 1.3 0 1.5.6.3.8.6.6.6-.5.1-1.9-1.4-2.3-2.5-.5zM168.878944 97.745148c0 .5.5 1 1.1 1 .5 0 .7-.5.4-1-.3-.6-.8-1-1.1-1-.2 0-.4.4-.4 1zM167.878944 100.845148c0 .5.5.7 1 .4.6-.3 1-.8 1-1.1 0-.2-.4-.4-1-.4-.5 0-1 .5-1 1.1zM173.478944 101.245148c-.8.9-2.1 1.4-2.7 1.3-.7-.2-1.4.6-1.6 1.7-.3 2-.3 2 .6 0 .8-1.9.8-1.9 2 .3.6 1.2 1.7 2.2 2.3 2.2.7 0 .6-.5-.2-1.5-1-1.1-.9-1.8.4-3 .9-.9 2.1-1.3 2.7-.9.8.4.9.3.5-.4-1-1.6-2.2-1.5-4 .3z"/><path d="M140.678944 102.445148c-.7 1-2.2 1.8-3.3 1.8-1.1 0-1.9.6-1.7 1.2.1.7-.3 1.3-.9 1.3-.5 0-.7.4-.4 1 .3.5.1 1-.4 1-1.6 0-1.3 3.2.5 5.8 1.2 1.7 2.4 2.2 4.7 2 1.9-.2 3.1-.8 3-1.6-.2-.6.3-1.2 1.1-1.2s2.3-.3 3.3-.7c1.7-.7 1.7-.6 0 2.1-1 1.5-2.7 3.6-3.8 4.7-1 1-1.9 2.4-1.9 3 0 .5-.4.8-.9.5-.5-.3-3.3.8-6.2 2.4-3 1.6-6.2 3-7.1 3-1 0-1.8.4-1.8 1 0 .5 1.1 1 2.5 1s2.5-.5 2.5-1.1c0-.6.7-.9 1.5-.5.8.3 1.5.1 1.5-.4 0-.6.8-1 1.8-1s2.3-.5 2.9-1.1c1.5-1.5 3.4-.2 2.6 1.9-.3.9-.3 1.4.2 1 .4-.4 1.4 0 2.3.8 1.2 1.2 1.2 2 .4 4-.9 1.9-.9 2.4.3 2.4.7 0 1.7-.5 2.1-1.2.4-.7.3-.8-.4-.4s-1.2.3-1.2-.3c0-.5.5-1.3 1.1-1.6.7-.5.3-1.5-1.1-3-1.2-1.3-1.9-2.8-1.5-3.4.3-.6.1-1.1-.5-1.1-.7 0-.5-.7.4-1.6.9-.8 1.4-2 1.1-2.4-.7-1.2 2.5-2.8 4.7-2.5 1.4.3 1.7-.2 1.2-2.1-.5-1.8-.2-2.4 1-2.4.9 0 1.6-.6 1.6-1.4 0-.8.6-1.7 1.3-2 1.3-.6-3.6-.1-8.8.9-4.7.9-5.9-.4-4.5-5.4.6-2.3 1.5-3.9 2.1-3.5.6.4.5 1.2-.3 2.2-1.1 1.5.3.6 4.2-2.7.3-.2-.3-.1-1.2.2-2 .7-3.5-.9-1.6-1.6.9-.4 1-.6.1-.6-.6-.1-1.8.7-2.5 1.6zm-2.6 6.1c-2.1.7-1.4 4.2.9 4.2 1.1 0 1.7.4 1.4 1-1.2 2-4.3 1-4.9-1.6-.7-2.8 1-5.8 2.7-4.7.8.5.7.8-.1 1.1zm12.8 4.2c0 .5-.4 1-.9 1-.6 0-1.3-.5-1.6-1-.3-.6.1-1 .9-1 .9 0 1.6.4 1.6 1zM158.578944 101.345148c-.3.3-.3 1.2 0 2 .6 1.6 2.9 1.9 3.7.5.3-.5-.2-.8-1.2-.7-.9 0-1.6-.5-1.4-1.2.2-1.3-.1-1.5-1.1-.6zM179.878944 104.245148c.7.8 1.7 1.5 2.2 1.5.6 0 .5-.7-.2-1.5s-1.7-1.5-2.2-1.5c-.6 0-.5.7.2 1.5z"/><path d="M146.878944 104.745148c0 .5.5 1 1 1 .6 0 1-.5 1-1 0-.6-.4-1-1-1-.5 0-1 .4-1 1zM183.878944 106.045148c0 1-.8 1.7-2 1.7-1.1 0-2 .4-2 .9 0 1.3 3.4 2.3 5.4 1.5 1.4-.5 1.4-.9.4-2.2-.7-.8-1.1-1.7-1-1.9.2-.3.1-.7-.2-1.1-.3-.3-.6.2-.6 1.1zM161.478944 107.245148c-.3.9.1 1.8 1 2.2 2.1.8 2.5.1.9-2-1.1-1.5-1.3-1.6-1.9-.2zM145.878944 108.245148c-1 1.2-1 1.5.2 1.5.8 0 1.5-.7 1.5-1.5s-.1-1.5-.2-1.5c-.2 0-.8.7-1.5 1.5zM167.878944 107.945148c0 .9.5 2 1 2.3 1.3.8 1.3-.5 0-2.5-.8-1.3-1-1.3-1 .2zM140.878944 109.345148c0 .9.5 1.4 1.2 1.2 1.8-.6 2.1-2.8.4-2.8-.9 0-1.6.7-1.6 1.6zM172.878944 109.245148c-.8 1-.5 1.3 1.5 1.1 2.8-.1 3.3-1.1 1.1-1.9-.8-.3-2 0-2.6.8zM126.578944 109.345148c-.8.8.3 3.4 1.4 3.4 1.1 0 1.2-2.7 0-3.4-.4-.3-1.1-.3-1.4 0zM154.878944 109.745148c0 .5.5 1 1.1 1 .5 0 .7-.5.4-1-.3-.6-.8-1-1.1-1-.2 0-.4.4-.4 1zM191.378944 109.845148c-.4.6-.5 1.2-.2 1.5.2.3.7-.2 1-1.1.7-1.7.1-2-.8-.4zM161.878944 112.745148c.7 1.4.7 2 0 2-.5 0-1 .5-1 1.2 0 .8.5.7 1.5-.3 1.6-1.6 1.1-4.9-.6-4.9-.6 0-.5.9.1 2zM165.778944 112.445148c-1.3 1.6-1.3 1.7.4.4 1-.8 1.7-.9 1.7-.3 0 2.2 3.6 3.2 5.6 1.7 1.6-1.3 1.7-1.4.2-.9-1.1.4-1.8.1-1.8-.7 0-1-.3-1-1.2-.1-.9.9-1.4.8-2.3-.4-1-1.4-1.3-1.4-2.6.3zM186.878944 111.345148c0 .3.5 1.4 1 2.5.9 1.5.7 1.9-.7 2-1.4 0-1.2.3.6 1 2.9 1.1 3.6.6 2.6-1.8-.5-1-.7-2.4-.6-3.1.1-.6-.5-1.2-1.4-1.2-.8 0-1.5.3-1.5.6zM198.378944 111.345148c1.1.4 2.5 1 3.1 1.5.6.5 2.3.8 3.7.7 3-.3 2.7-1-.6-1.4-1.2-.1-3.5-.5-5.2-.8-1.6-.3-2.1-.3-1 0zM124.878944 113.245148c0 1-.5 1.3-1.2.9s-.4.3.7 1.6l2 2.3-2.5-1.3c-2.2-1.2-2.4-1.1-1.3.2.7.8 1 1.7.7 2.1-.3.3.3.3 1.4 0 1.5-.4 2-1.3 2-3.4-.1-3.1-1.8-5.3-1.8-2.4zM182.378944 112.745148c-.4.6.3 1 1.4 1 2.5 0 2.7-.6.6-1.3-.8-.4-1.7-.2-2 .3zM129.578944 113.445148c-1.3 1.3-.7 2.9 1.2 2.9 1.6 0 1.7-.4 1-1.8-1.1-2-1.3-2.1-2.2-1.1zM191.378944 113.745148c.4.6 1.1.7 1.7.4.8-.5.9-.1.5 1-.8 2 1.4 4.6 3.8 4.6.8 0 2 1 2.6 2.2l1 2.3-.5-2.2c-.3-2-.1-2.1 2.8-1.6 3.1.6 6.1 2.3 3.9 2.3-.6 0-1.3.7-1.6 1.4-.4 1-.1 1.3.9.9.7-.3 1.4-.9 1.4-1.4 0-.5.8-.9 1.8-1 1.3 0 1.2-.3-.5-1.1-1.3-.6-2.3-1.5-2.3-2 0-1.2 4.3.1 5.2 1.5.4.6.2 1.9-.3 2.9-.6 1.2-.6 1.8.1 1.8.5 0 1-.7 1-1.6 0-.9.6-1.4 1.3-1.1 4.7 1.9 4.7 1.9 4.1.3-.3-.9-1.4-1.5-2.2-1.4-.9.2-1.7-.3-1.8-1-.1-.6-.2-1.7-.3-2.2 0-.6-1.3-1-2.7-1-1.4 0-2.3-.4-1.9-1 .3-.6.2-1-.4-1-.5 0-1.1.5-1.3 1.1-.2.6-2.8 1.2-5.8 1.2-4.7.2-5.5-.1-5.8-1.8-.3-1.1-.9-2.3-1.6-2.7-1.7-1.1-3.8-1-3.1.2zM175.878944 114.845148c0 .5.5.7 1 .4.6-.3 1-.8 1-1.1 0-.2-.4-.4-1-.4-.5 0-1 .5-1 1.1z"/><path d="M181.278944 116.645148c1.7 1.7 2.7 3.1 2.4 3.1-.4 0-1.4.3-2.3.6-1 .4-1.5.2-1.3-.7.2-.8-.5-1.4-1.7-1.4-1.3 0-2.1.8-2.3 2.2-.3 2-.6 2.2-2.5 1.1-2.2-1.2-2.8-1.4-4.8-1.7-.5 0-.7-.6-.4-1.1.3-.6.1-1-.4-1-1.6 0-1.3 2 .4 2.6.8.4 1.3 1 1 1.4-.3.5 0 1.2.6 1.6.8.4.9.3.5-.4-1.2-2 .8-1.4 4.4 1.3 4 3 3.7 2.9 3.7 1 0-.8-.6-1.5-1.2-1.5-.8 0-1-1-.7-2.5.5-3 1.8-3.2 2.7-.5.7 2.2 2 2.6 3.1.9.4-.8.9-.7 1.5.2.6 1 .9.7.9-1.1-.1-3-1.7-5.3-4.5-6.4-1.6-.6-1.4-.1.9 2.3zM117.878944 116.245148c0 .9.6 1.2 1.5.9.8-.4 1.2-1 .9-1.5-.8-1.4-2.4-1-2.4.6zM154.878944 116.945148c0 1.9.2 2 1 .8 1.3-1.9 1.3-3 0-3-.5 0-1 1-1 2.2zM198.878944 115.845148c-1.3.9-1.3 1 .1.6.9-.3 2.2 0 2.8.6.6.6 1.4.7 1.8.3.4-.4.1-1.1-.7-1.6-1.9-1.2-2.2-1.2-4 .1zM215.478944 115.945148c.3.4 1.4.8 2.5.8s1.8-.4 1.4-.9c-.3-.6-1.4-.9-2.5-.8-1 .1-1.6.5-1.4.9zM152.378944 116.545148c-.6.4-1.1 1.4-1.3 2.2-.3 1.2 0 1.2 1.4-.2 1.8-1.8 1.7-3.3-.1-2zM158.878944 117.745148c.6 1.1 1.5 2 2 2 .6 0 .2-.9-.7-2-1-1.1-1.9-2-2.1-2-.1 0 .2.9.8 2zM221.378944 116.745148c.3.5.8 1 1.1 1 .2 0 .4-.5.4-1 0-.6-.5-1-1.1-1-.5 0-.7.4-.4 1zM163.378944 117.845148c-.4.5-.4 2.2 0 3.6.4 1.7.1 2.9-.7 3.5-1 .7-1 .9.2.5 1-.2 1.5-1.7 1.5-4.5 0-4.5-.1-4.7-1-3.1zM114.978944 119.145148c-.8 1-.9 1.6-.1 2.1.5.3 1.3-.1 1.6-1 .9-2.2-.1-2.9-1.5-1.1zM120.378944 118.645148c-.3.5-.1 1.2.5 1.6.5.3 1-.1 1-.9 0-1.8-.6-2.1-1.5-.7zM128.878944 119.345148c0 .8-.4 1.3-.9 1-.5-.3-1.2.1-1.5 1-.5 1.3-.2 1.4 1.1.9 3.1-1.3 6.8-1.1 8.1.5 1 1.3 1.1 1.2.5-.4-.5-1.6-.3-1.8 1.5-1.4 1.2.4 2.2.2 2.2-.3s-1.4-.8-3.2-.7c-1.8.1-3.3-.3-3.6-1-.6-1.8-4.2-1.5-4.2.4zM187.278944 118.545148c.4.7.3 1.2-.2 1.2-.6 0-.9 1.1-.8 2.4 0 1.3.4 2.2.9 1.9.4-.2 1 .3 1.3 1.1.3.9 1 1.4 1.5 1.1.4-.3 2.5.2 4.6 1.2 4.2 1.9 9.3 2.6 9.3 1.3 0-1.2-1.2-1.8-5-2.5-1.8-.3-4.1-1-5-1.5-1-.5-2.1-.6-2.6-.2-.5.4-.1-.2.9-1.4 2.4-2.9 2.1-3.5-1-1.9-3 1.6-5 1-3.3-1 .8-1 .8-1.5-.1-2.1-.8-.4-.9-.3-.5.4zM216.978944 118.245148c0 .5.6 1.9 1.4 3 1.5 1.8 1.7 1.8 4.4.2s4.1-1.4 4.1.5c0 .4-.9.8-1.9.8-2.6 0-3.5 1.6-1.5 2.4 2.1.8 3.4.8 3.3-.2-.4-2.3.4-2.4 2.1-.2 1 1.4 2.2 2.1 2.7 1.6.4-.5.2-1.1-.4-1.3-.7-.3-1.4-1.9-1.4-3.6-.1-2-.3-2.5-.6-1.3-.4 1.4-.7 1.6-1.3.6-.4-.7-2-1.4-3.4-1.5-1.4-.2-2.4.1-2.1.5.3.5.1 1.1-.4 1.4-.5.3-1.2-.1-1.5-1-.3-.8-1-1.3-1.5-1-.5.4-1.2 0-1.4-.6-.3-.7-.6-.9-.6-.3zM231.278944 118.845148c-1 1.6 1.1 3.1 3.7 2.6 2.2-.4 2.2-.4-.3-.6-2-.1-2.6-.5-2.2-1.6.7-1.7-.2-2-1.2-.4zM236.378944 118.745148c.3.5 1.4 1 2.3 1 1.5 0 1.5-.2.2-1-2-1.3-3.3-1.3-2.5 0zM240.878944 119.545148c0 1.1 2.6 1.7 11 2.6 2.5.2 3.7.2 2.7-.1-.9-.2-1.5-.8-1.3-1.2.3-.4-1.6-.8-4.2-.8s-5.5-.4-6.4-.8c-1.1-.4-1.8-.3-1.8.3zM79.078944 122.345148c1 1 2 1.6 2.2 1.3.3-.3-.5-1.1-1.7-1.8-2.1-1.3-2.1-1.2-.5.5zM117.478944 122.345148c-.8 2.1.2 3.3 1.3 1.5.5-.7 1.4-1 2-.7 2.1 1.4 1.1 2.6-1.9 2.2-1.6-.2-3 .1-3 .5 0 .9 1.6 1.3 3.4 1 .5-.1.5.6.2 1.6-.6 1.5-.5 1.5 1.4-.2 1.1-1 2-2.4 2-3.2 0-.8.4-1.2.8-.9.4.2.8-.4.8-1.4 0-1.5-.3-1.6-1.4-.8-.9.8-1.6.8-2.4 0-1.6-1.6-2.5-1.5-3.2.4zM155.478944 122.045148c-1.7 1.3-1.7 1.4 0 2.8 1 .7 1.5.9 1.1.3-.4-.7-.1-1.7.7-2.3 1-.8 1.6-.9 1.9-.1.3.6.4.5.3-.2-.3-1.8-2-2-4-.5z"/><path d="M129.878944 122.745148c0 .5.5 1 1 1 .6 0 1-.5 1-1 0-.6-.4-1-1-1-.5 0-1 .4-1 1zM202.578944 122.845148c.7.7 1.5 1 1.8.7.3-.3-.2-.9-1.2-1.2-1.4-.6-1.5-.5-.6.5zM238.378944 122.745148c.4.6 1.1.8 1.6.5 1.4-.9 1.1-1.5-.7-1.5-.8 0-1.2.5-.9 1zM257.378944 122.745148c-.3.5-.2 1 .4 1 .5 0 1.3-.5 1.6-1 .3-.6.2-1-.4-1-.5 0-1.3.4-1.6 1zM233.978944 124.145148c-1.2 1.4-1.2 1.6.2 1.1.8-.4 1.8-.2 2.2.4.8 1.4 3.5 1.4 3.5 0 0-.5-.5-.7-1.1-.4-.6.4-1.6-.1-2.3-1-1.1-1.5-1.3-1.5-2.5-.1zM242.378944 123.745148c.3.5 1.1 1 1.6 1 .6 0 .7-.5.4-1-.3-.6-1.1-1-1.6-1-.6 0-.7.4-.4 1z"/><path d="M245.878944 124.445148c0 .7-1.1 1.3-2.5 1.3-1.7 0-2.5.6-2.5 1.7 0 1.3.3 1.4 1.2.5 2.7-2.7 3.4-1.6 4.1 6 .1.9.5 1.4.9 1.2.4-.3 1.8.2 3 1 3 1.9 8.4 1.1 6.7-1-.9-1.1-.8-1.8.1-2.9.7-.8.9-1.5.6-1.5-1.1 0-3.9 3-2.9 3 .4 0 .1.5-.9 1-2.3 1.4-4.4.3-5.8-3-1.6-3.8-.5-7 2.4-7 2.4 0 3.3 3.4 1.5 5.6-.7.8-.7 1.4.1 1.9.5.3 1 .1 1-.6 0-.6.7-1.7 1.6-2.4 2.8-2 .2-5.2-4.6-5.7-2.8-.2-4 0-4 .9zM167.378944 124.845148c-.4.6-.5 1.2-.2 1.5.2.3.7-.2 1-1.1.7-1.7.1-2-.8-.4zM112.478944 126.045148c.3 1 .9 1.5 1.2 1.2.3-.3 0-1.1-.7-1.8-1-.9-1.1-.8-.5.6zM182.978944 126.345148c0 1.1.3 1.4.6.6.3-.7.2-1.6-.1-1.9-.3-.4-.6.2-.5 1.3zM88.378944 127.345148c3.4 2.6 5.5 3.6 5.5 2.5 0-1-5.1-4.1-6.7-4.1-.4 0 .1.8 1.2 1.6zM143.878944 127.045148c0 .7.9 2 2 3 1.9 1.6 2 1.6 2-.4 0-1.1.5-1.7 1-1.4.6.3 1 1.8 1 3.2 0 1.8-.4 2.4-1.5 1.9-.9-.3-1.5 0-1.5 1 0 1.2.4 1.3 2 .4 1.2-.6 3.1-.8 4.3-.5 1.6.5 1.8.4.8-.4-.8-.5-1.6-1.6-1.7-2.4-.5-3.6-8.4-7.7-8.4-4.4zm2.5.7c.3.5.1 1-.4 1-.6 0-1.1-.5-1.1-1 0-.6.2-1 .4-1 .3 0 .8.4 1.1 1zM217.378944 126.745148c.3.5.1 1-.5 1s-.8.5-.4 1.1c.4.8.9.7 1.5-.2.4-.7 1-1.1 1.3-.9.2.3-.2 1.4-1 2.4-.8 1.2-1.4 1.4-1.4.7 0-.8-.6-1.1-1.5-.7-.9.3-1.5 0-1.5-.9 0-.8-.4-1.5-1-1.5-.5 0-.7.7-.4 1.5.4 1 0 1.5-1.5 1.5s-1.9-.4-1.4-1.7c.5-1.2.2-1.5-1-1-1 .4-1.7.2-1.7-.5 0-.9-.3-.9-1.2 0-1.7 1.7 3 5.2 5.7 4.2 2.1-.8 4.5.9 4.5 3.2 0 .7.7.2 1.6-1 .8-1.2 2.1-2.2 2.8-2.2 1.7 0 1.3-3.9-.5-5.1-1.9-1.2-3.2-1.1-2.4.1z"/><path d="M152.878944 128.745148c0 .6.4.9.9.5.5-.3 1.2-.1 1.6.5.4.6 1.1.8 1.6.5.5-.4.9.3.9 1.4 0 1.2-.9 2.6-2 3.3-1.1.7-2 1.7-2 2.2 0 .5.3.6.6.3.4-.3 1.6-.1 2.8.5 1.1.6 1.8.7 1.3.3-.4-.5-.1-1.8.7-3 .7-1.1 1.5-2.9 1.7-3.8.4-1.6.6-1.6 4.1.1 4.3 2.2 6 .7 2.5-2.3-1.4-1.2-2.2-1.4-2.5-.7-.2.7-1.3 1-2.5.8-7-1.5-9.7-1.6-9.7-.6zM173.978944 128.845148c1.1.7 1.1.9-.2.9-.9 0-2 .7-2.3 1.6-.3.8-.2 1.2.3.9.5-.3 1.6.4 2.4 1.6 1.4 2 1.6 2 2.6.2.7-1.1 1.1-1.3 1.1-.4 0 .8.6 1.1 1.6.7.8-.3 1.2-.2.9.4-.3.6-.2 1 .3 1 1.5 0 2.1 3.7.9 4.9-.6.6-.8 1.4-.4 1.7.9 1 3.7-2.2 3.7-4.3 0-1-1.4-2.7-3-3.8-3.3-2.2-4-3.7-1.2-2.9.9.2.7-.1-.5-.7-1.3-.7-2.3-1.5-2.3-1.9 0-.4-1.2-.8-2.6-.8-1.8 0-2.2.3-1.3.9zm1.7 4.4c-.3.3-.9-.2-1.2-1.2-.6-1.4-.5-1.5.5-.6.7.7 1 1.5.7 1.8zM180.878944 128.745148c0 .5.5 1 1.1 1 .5 0 .7-.5.4-1-.3-.6-.8-1-1.1-1-.2 0-.4.4-.4 1zM222.378944 128.745148c-.7 1.2-.8 1.1 3 1.6 2.8.3 2.9.2 1.1-1.2-2.3-1.7-3.3-1.8-4.1-.4zM231.878944 130.045148c1.1 1 2.6 1.5 3.3 1.1.9-.5.9-.4 0 .7-1.6 1.7-1.7 3.7-.2 2.2 1.3-1.3 2.9-.1 4.4 3.2.8 1.9.9 1.9 1.3-.4.3-1.7-.3-3-1.8-4.1-1.1-.9-1.9-2.2-1.7-3 .2-.8.2-1.2 0-.8-.7 1.1-3.3 1-3.3-.1 0-.6-.9-.9-2-.8-1.9.1-1.9.1 0 2zM95.378944 129.745148c-.9 1.5 1.4 4 3.4 3.9 1.3-.1 1.3-.2-.1-.6-1.6-.4-2.2-1.5-1.9-3.6.2-1-.7-.9-1.4.3zM184.878944 130.745148c-1.5.3-2 .9-1.3 1.3.6.4 2.1.3 3.4-.1 2.9-1.1 1.2-2.1-2.1-1.2zM134.378944 131.845148c.4.6 1 .8 1.3.5.3-.4 1.3.5 2.2 2 1.4 2 1.8 2.2 2.3 1 .4-.9.1-1.5-.6-1.3-.7.1-1.1-.6-.9-1.6.2-1.2-.4-1.7-2.3-1.7-1.6 0-2.4.4-2 1.1zM225.278944 133.345148c.8 3 2.2 4.4 4.4 4.4.9 0 1.1 1 .6 3.7l-.7 3.6 2.6-1.9c1.4-1 2.3-2.1 2.1-2.3-.2-.2.1-1.3.7-2.4.6-1 .7-1.7.2-1.4-.8.5-3.5-1.7-2.9-2.4.2-.2-.5-1.3-1.5-2.3-1.1-1.1-1.9-1.4-1.9-.7 0 .9-.5.9-2.1 0-2-1-2.1-.9-1.5 1.7zm5.2 2.1c-.2.2-1.1 0-2-.3-1.4-.5-1.5-.9-.5-1.5 1.2-.7 3.4 1 2.5 1.8zM190.478944 133.045148c.3 1 .9 1.5 1.2 1.2.3-.3 0-1.1-.7-1.8-1-.9-1.1-.8-.5.6zM104.578944 133.845148c.7.7 1.5 1 1.8.7.3-.3-.2-.9-1.2-1.2-1.4-.6-1.5-.5-.6.5z"/><path d="M161.578944 133.445148c-.3.5-.3 1.4.1 1.9 1 1.6 4.2 2.5 4.2 1.3 0-.7 1-.5 2.5.5 3.1 2 3.2 2 3.8-.5.5-1.7.3-1.8-1-.7-1.3 1-1.8.9-3.3-1-1.6-2-1.9-2-2.5-.4-.6 1.6-.7 1.6-2-.1-.7-1-1.5-1.4-1.8-1zM204.578944 134.745148c.3 1.1.9 2 1.3 2 .5 0 .6-.9.3-2s-.9-2-1.3-2c-.5 0-.6.9-.3 2zM211.278944 133.545148c-.6.4-.8 1.5-.5 2.5.6 1.7.8 1.6 1.9-.7 1.2-2.6.7-3.2-1.4-1.8zM207.678944 136.645148c-.3 2.2 0 3.1 1.3 3.4 1.5.4 1.6.1.7-2.7-1.4-4.1-1.5-4.2-2-.7zM218.278944 134.945148c-.5.8-.2.9 1.1.4 1.1-.4 2.2-.2 2.6.6.4.7 1.1.9 1.6.5.8-.9-1.5-2.7-3.4-2.7-.6 0-1.5.5-1.9 1.2zM177.378944 136.245148c1.6 5.1 1.6 5 2.5 3.5 1.4-2.2 1.2-2.8-1-4-1.6-.8-1.9-.8-1.5.5zM199.878944 135.745148c0 .5.5 1 1.1 1 .5 0 .7-.5.4-1-.3-.6-.8-1-1.1-1-.2 0-.4.4-.4 1zM242.478944 137.145148c-.3 1.4-1.3 3.2-2.2 4-.8.9-1.1 1.6-.6 1.6.6 0 .8.9.5 2-.3 1.1-.2 2.8.2 3.7.6 1.7.7 1.7 1.7 0 .7-1.3.7-2.2-.1-3-.9-.9-.6-1.6 1.1-2.9 2.1-1.6 2.1-1.8.4-1.8-1.7 0-1.7-.2-.2-2.4.9-1.4 1.2-2.7.7-3-.5-.3-1.2.5-1.5 1.8zM107.878944 136.145148c0 .2.7.6 1.5 1 .8.3 1.5.1 1.5-.4 0-.6-.7-1-1.5-1s-1.5.2-1.5.4zM186.278944 139.345148c-1.1 3.4-.4 5.1 1.6 3.9.6-.3 1-1.3 1-2.1s.5-1.2 1-.9c1.7 1 1.1-1.1-.8-2.8-1.6-1.5-1.8-1.4-2.8 1.9zM191.678944 136.445148c.7.3 1.6.2 1.9-.1.4-.3-.2-.6-1.3-.5-1.1 0-1.4.3-.6.6zM195.878944 136.145148c0 .2.7.7 1.6 1 .8.3 1.2.2.9-.4-.6-1-2.5-1.4-2.5-.6zM246.278944 137.345148c-.7.3-1 1.4-.7 2.4.7 2.8 1.8 2.5 1.8-.5v-2.4s-.5.3-1.1.5zM162.878944 139.445148c0 .5 1.1.9 2.5.9 1.4.1 2.2-.2 1.9-.7-.6-1.1-4.4-1.2-4.4-.2zM175.378944 139.745148c.3.5.8 1 1.1 1 .2 0 .4-.5.4-1 0-.6-.5-1-1.1-1-.5 0-.7.4-.4 1zM191.878944 139.845148c0 .5.8.9 1.8 1 1.1.1.8.4-.8.8-2.4.7-2.4.7.9 1.4 3.8.8 5.1.3 5.1-2.1-.1-1.5-.2-1.5-1.5.2-1.2 1.6-1.5 1.7-1.5.4 0-.9-.9-1.8-2-2.1-1.1-.3-2-.1-2 .4zM201.878944 139.745148c0 .5.5 1 1 1 .6 0 1-.5 1-1 0-.6-.4-1-1-1-.5 0-1 .4-1 1zM236.978944 141.345148c0 1.1.3 1.4.6.6.3-.7.2-1.6-.1-1.9-.3-.4-.6.2-.5 1.3zM251.878944 141.245148c0 .9.6 1.2 1.5.9.8-.4 1.2-1 .9-1.5-.8-1.4-2.4-1-2.4.6zM169.878944 141.145148c0 .9 3 1.4 3.5.6.4-.6-.3-1-1.4-1-1.2 0-2.1.2-2.1.4zM164.578944 142.845148c.7.7 1.5 1 1.8.7.3-.3-.2-.9-1.2-1.2-1.4-.6-1.5-.5-.6.5zM168.678944 143.445148c.7.3 1.6.2 1.9-.1.4-.3-.2-.6-1.3-.5-1.1 0-1.4.3-.6.6zM205.978944 143.645148c-1.1.7-1.2 1.3-.3 2.3.9 1.1.9 1.8-.1 2.8-.6.7 0 .5 1.5-.6 2.2-1.6 2.5-2.1 1.3-3-.8-.6-1.2-1.4-.8-1.7.9-1 0-.8-1.6.2zM209.378944 143.745148c.3.5 1.1 1 1.6 1 .6 0 .7-.5.4-1-.3-.6-1.1-1-1.6-1-.6 0-.7.4-.4 1zM234.178944 145.245148c-.3.9-.3 1.8-.1 2.1.3.3.8-.4 1.1-1.6.6-2.3-.1-2.7-1-.5zM248.878944 144.845148c1.3 1.5 6 2.2 6 1 0-.4-.6-.8-1.2-.8-.7 0-2.4-.3-3.7-.8-2-.6-2.2-.5-1.1.6zM191.878944 145.145148c0 .2.7.7 1.6 1 .8.3 1.2.2.9-.4-.6-1-2.5-1.4-2.5-.6zM197.878944 145.445148c0 .5.9 1.4 2 2.1 1.1.7 2 .8 2 .2 0-.5-.9-1.4-2-2-1.1-.6-2-.7-2-.3zM210.878944 146.645148c0 .6.5 1.3 1 1.6.6.3 1-.1 1-.9 0-.9-.4-1.6-1-1.6-.5 0-1 .4-1 .9zM236.878944 146.245148c-.1.5-.2 1.4-.1 1.9.1.4-.4 1.4-1 2.2-.9 1.1-.7 1.4.9 1.4 1.2 0 2.4-.5 2.8-1.2.4-.6.3-.8-.4-.4-.6.4-1.2-.5-1.5-2.1-.2-1.6-.5-2.4-.7-1.8zM244.878944 148.145148c0 1.4.5 2.8 1 3.1.6.4 1-.7 1-2.4s-.4-3.1-1-3.1c-.5 0-1 1.1-1 2.4zM249.178944 152.045148c.5 1.5 3.7 2.2 3.7.9 0-.5-.9-1.2-2.1-1.5-1.3-.3-1.9-.1-1.6.6zM21.378944 96.545148c-1.6.2-3.4.8-4 1.3-.8.8 11.3.2 12.3-.6.6-.5-5.4-1-8.3-.7zM31.478944 96.445148c-.3.3-.3 1 0 1.4.7 1.2 4.4 1.2 4.4 0 0-1-3.6-2.1-4.4-1.4zM13.978944 104.345148c-1.2 1.5-2.1 3.6-2 4.8.1 1.7.3 1.5.9-.8.5-1.5 1.7-3.7 2.6-4.7.9-1 1.4-1.9 1.1-1.9-.3 0-1.5 1.2-2.6 2.6zM44.878944 99.745148c-.6 1.2-.9 2.4-.7 2.7.3.2 1.1-.5 1.7-1.7.6-1.2.9-2.4.7-2.7-.3-.2-1.1.5-1.7 1.7zM52.678944 100.445148c.7.3 1.6.2 1.9-.1.4-.3-.2-.6-1.3-.5-1.1 0-1.4.3-.6.6zM63.278944 107.245148c3.7 1.9 7.5 3.5 8.2 3.5.7 0 4.7 1.6 8.8 3.5 4.1 1.9 8.3 3.5 9.2 3.5 1 0 2.6.7 3.6 1.7 1 .9 2.1 1.3 2.5.9 1.1-1.1-.9-2.3-6.8-4-3.1-.9-7.6-2.7-10-4.1-2.4-1.4-5.1-2.5-6-2.5-1 0-4.3-1.4-7.4-3-3.1-1.7-6.4-3-7.4-3-.9 0 1.5 1.6 5.3 3.5zM308.678944 106.445148c.7.3 1.6.2 1.9-.1.4-.3-.2-.6-1.3-.5-1.1 0-1.4.3-.6.6zM53.978944 113.645148c1.3 1.1 2.8 1.7 3.2 1.4 1.3-.8-1.4-3.3-3.5-3.3-1.9 0-1.9.1.3 1.9zM350.878944 115.745148c0 .5.6 1 1.3 1 2.2.1 6.4 4.4 9.6 9.8 1.7 2.9 3.1 5.5 3.1 5.8 0 .2-1.1.2-2.4-.2-1.3-.3-2.7-.1-3 .5-.4.7.1 1.1 1.4 1.1 2.4 0 5.9 1.8 7.7 4 1.1 1.3 1.2 1.3 1.3-.2 0-.9-.4-2-1-2.3-.5-.3-2.2-3.2-3.6-6.3-1.4-3.1-3.5-6.8-4.7-8-2.6-2.9-9.7-6.7-9.7-5.2zM281.478944 125.945148c.3.5 1 .6 1.5.3 1.3-.9 1.1-1.2-.6-1.2-.8 0-1.2.4-.9.9zM288.378944 127.745148c-.3.5-1.5 1-2.6 1-1 0-1.9.4-1.9.9 0 1.5 1.8 2.3 2.5 1.1.4-.6 1-.8 1.5-.5.4.3 1-.4 1.3-1.5.6-2.2.2-2.6-.8-1zM288.878944 132.545148c0 .5.7 1.5 1.5 2.2 1.2 1 1.5 1 1.5-.1.1-.9.5-.8 1.5.5 1.9 2.5 1.9 4 0 3.3-.8-.4-1.7-.2-2 .3-.4.6.1 1 1 1 1.1 0 1.5.5 1.2 1.5-.4.8-.2 1.7.4 2 .5.4.9.3.8-.2-.4-2.5.4-2.4 1.6.2 1.1 2.4 1.4 2.6 1.4.9.1-1.1-.4-2.5-1.1-3.2-1.2-1.2-2.2-7.2-1.2-7.2.4 0 1.3.8 2.1 1.7 1.3 1.6 1.3 1.6.3-.4-1.2-2.6-3-3.9-3-2.3 0 .7-.7.9-1.5.6-.8-.3-2.2-.9-3-1.2-.8-.3-1.5-.2-1.5.4zM278.378944 134.745148c-.3.6.1.7.9.4 1.8-.7 2.1-1.4.7-1.4-.6 0-1.3.4-1.6 1zM277.578944 138.545148c-1.9 2.1-2.2 4.2-.6 4.2.5 0 .7-.5.4-1-.3-.6.1-1 .9-1 .9 0 1.4-.8 1.3-2-.2-2.4 0-2.4-2-.2zM299.578944 139.245148c.3.8.9 1.2 1.4.9 1.2-.7 1.1-1.1-.5-1.7-1-.4-1.3-.1-.9.8zM298.878944 143.745148c0 1.5 3.9 5.5 4.6 4.7.4-.3-.1-1.3-1-2.2-.9-.9-1.6-2.1-1.6-2.6s-.4-.9-1-.9c-.5 0-1 .5-1 1zM296.978944 150.445148c1 1.7 1.9 2 4.1 1.6 1.5-.3 2.8-.1 2.8.4s.7 1.8 1.6 2.9c1.4 1.8 1.5 1.8.8-.6-.8-3-2.1-4-5.4-4-1.5 0-3.2-.6-3.9-1.3-1.1-1-1.1-.8 0 1zM269.478944 156.245148c.4.8 1 1.5 1.5 1.5s.5 1 0 2.2c-.9 2.4.1 6.9 1.1 5.2.7-1.1.3-6.3-.7-8.7-.9-2.1-2.7-2.3-1.9-.2zM300.878944 159.445148c0 1.3.4 2.3.9 2.3s1.2 1 1.4 2.2c.4 2.1.4 2.1.6-.3 0-1.4-.6-3.4-1.4-4.5-1.4-1.9-1.4-1.8-1.5.3zM298.578944 163.445148c-.5.9 1 5.3 1.7 5.3.3 0 .1-1.1-.4-2.4-.5-1.3-.6-2.7-.3-3 .4-.3.4-.6 0-.6-.3 0-.8.3-1 .7zM296.878944 170.845148c0 .5.5.7 1 .4.6-.3 1-.8 1-1.1 0-.2-.4-.4-1-.4-.5 0-1 .5-1 1.1zM274.878944 177.245148c0 .6.7 2 1.5 3.1.8 1.2 1.1 2.4.8 2.8-.3.3-.1.6.5.6s1.4-.5 1.7-1c.3-.6.2-1-.2-1-.5 0-1.6-1.2-2.5-2.8-1-1.5-1.8-2.2-1.8-1.7zM273.178944 181.245148c0 .8.4 1.2.9.9.5-.3.6-1 .3-1.5-.9-1.3-1.2-1.1-1.2.6zM276.778944 185.545148c1.2.8 1.2 1.3.3 2.5-1 1.2-.9 1.8.3 3.1.9.9 2.2 1.6 2.8 1.6.7 0 .1-1-1.3-2.1-1.5-1.3-1.8-1.9-.8-1.5 1.4.4 1.5.1.9-1.6-.4-1.2-1.4-2.4-2.2-2.6-1.2-.3-1.2-.2 0 .6zM290.378944 186.745148c.3.5.8 1 1.1 1 .2 0 .4-.5.4-1 0-.6-.5-1-1.1-1-.5 0-.7.4-.4 1zM279.378944 202.745148c-.3.5.1 1 .9 1 .9 0 1.6-.5 1.6-1 0-.6-.4-1-.9-1-.6 0-1.3.4-1.6 1zM285.678944 145.945148c.6.6 2 1.3 2.9 1.4 1.6.2 1.6.1-.1-1.2-2.4-1.7-4.5-1.9-2.8-.2zM281.878944 150.345148c0 .8 5.2 5.4 6.1 5.4.3 0 1.4-.7 2.5-1.5 1.8-1.5 1.8-1.5-.6-1-1.8.4-3.1 0-4.4-1.4-1.9-2-3.6-2.7-3.6-1.5zM278.878944 151.545148c0 .5.9 1.7 2 2.7 1.1 1 2.3 3.6 2.7 5.8.5 3.7.7 3.8 2 2.2.9-1.4 1-2.1.2-2.6-.7-.4-.9-1.4-.6-2.2.3-.9-.4-1.9-1.9-2.7-1.3-.8-2.4-1.9-2.4-2.7 0-.7-.4-1.3-1-1.3-.5 0-1 .4-1 .8z"/><path d="M281.578944 166.245148c.4 9.2 1.7 14.5 3.6 14.5.6 0 .7-.3.4-.7-.4-.3-.3-1.1.2-1.7 1.4-1.8 2.1-8.5.9-9.2-.5-.4-.6-.9-.1-1.3.4-.3 1.4-1.8 2-3.4 1.1-2.3 1-2.7-.2-2.7-.8 0-1.5.7-1.5 1.5s-.5 1.5-1.1 1.5c-.6 0-1 2.4-.9 6.2.2 7.9.1 8.8-1 6.3-.5-1.1-.9-4.7-1-8-.2-3.3-.6-7.4-1-9-.5-1.8-.6.7-.3 6zM314.578944 166.445148c-.4.3-.7 1.1-.7 1.7 0 .6.5.5 1.2-.2.6-.6.9-1.4.7-1.7-.3-.3-.9-.2-1.2.2zM307.878944 176.145148c0 .2.7.9 1.5 1.6.9.7 1.5.8 1.5.2 0-.5-.7-1.2-1.5-1.6-.8-.3-1.5-.4-1.5-.2zM252.878944 161.545148c0 1.8 1.7 2.3 4.2 1.3 1.6-.7 1.8-1 .6-1-.9-.1-2.3-.4-3.2-.7-.9-.3-1.6-.1-1.6.4zM256.678944 165.445148c-1 .2-1.8.9-1.8 1.5 0 .5.7.7 1.6.4.9-.3 2.2-.6 3-.6.8 0 1.4-.5 1.4-1 0-1-1.2-1.1-4.2-.3zM258.878944 171.745148c-2.2.6-2.3.8-.7 1.5 1.2.5 2.4.2 3.5-.9 1.7-1.7 1.2-1.8-2.8-.6zM260.578944 177.745148c.8 2.9 2.5 3.7 2.1.9-.1-1.2-.8-2.4-1.5-2.6-.7-.3-.9.3-.6 1.7zM266.278944 189.445148l1.6 3.3-3.2 1.4c-1.8.8-2.8 1.5-2.2 1.5.6.1 2.8-.6 4.9-1.5 3-1.2 3.5-1.7 2.4-2.7-.8-.7-2.2-2.1-3.3-3.2-1.8-2-1.8-1.9-.2 1.2zM250.378944 198.345148c-3.3 1.4-7.7 3.1-9.7 3.8-4.8 1.5-5.9 2.6-1.6 1.7 3-.7 8.3-2.9 16.3-6.6 5.3-2.4 1.2-1.6-5 1.1zM236.178944 213.945148c-1.3.6-2.3 1.4-2.3 1.9 0 .4 1.1.2 2.5-.4 1.4-.7 2.5-1.5 2.5-2 0-.8.1-.9-2.7.5zM228.278944 218.645148c.3.5-.3 1.1-1.4 1.4-1.1.3-2 1-2 1.6 0 1.8 1.5 1.3 4-1.4 2-2.1 2.1-2.5.6-2.5-.9 0-1.5.4-1.2.9zM235.578944 224.945148c.4 1.9.3 2-.6.8-.6-.8-1.1-1-1.1-.4 0 .5.6 1.8 1.3 2.9 1.8 2.3 3.2.4 2.3-3.1-.8-3-2.6-3.2-1.9-.2zM225.378944 238.745148c.3.5.8 1 1.1 1 .2 0 .4-.5.4-1 0-.6-.5-1-1.1-1-.5 0-.7.4-.4 1zM198.578944 232.145148c-.7 1.7 1.3 9.6 2.3 9.6.5 0 .2-1.9-.5-4.3-.6-2.3-1-4.8-.8-5.5.6-1.7-.4-1.5-1 .2zM204.878944 237.145148c0 .4.9 1.9 2 3.3 1.3 1.7 2 2 2 1.1 0-.8-.9-2.3-2-3.3s-2-1.5-2-1.1zM201.378944 243.745148c.3.5 1.1 1 1.6 1 .6 0 .7-.5.4-1-.3-.6-1.1-1-1.6-1-.6 0-.7.4-.4 1z"/></svg>