<svg xmlns="http://www.w3.org/2000/svg" viewBox="0 0 175 400"><path d="M33.2249168 1.703503c-2.74835088.302238-7.47555469.705222-10.66366186.705222-4.83721844.100746-6.04647268.50373-8.4650819 3.123126-4.61728993 5.138046-5.05704622 13.902948-1.09934036 25.69023.76949795 2.720142 1.53909665 6.246252 1.53909665 7.958934s.98942646 4.634316 2.1986807 6.447744l2.30869534 3.425364-3.4080357 3.425364c-7.80539709 8.261172-8.79482355 12.492504-8.90473744 38.182734 0 9.973854-.43975629 23.574564-1.09934035 30.2238-1.64911128 18.738756-1.64911128 24.68277.10991388 25.69023 1.09934036.604476 1.31916813 4.735062.65958407 20.854422-.4397563 10.981314-.98942647 21.761136-1.20925424 23.977548-1.09934035 9.369378-.98942647 22.466358.21982777 23.776056.98942647 1.108206 2.85836551 15.212646 2.5285231 19.544724 0 .50373-.21982776 24.17904-.43975628 52.488666-.21982777 28.309626-.65958406 51.984936-.98942647 52.488666-.32974166.50373-.76949795 3.425364-.87941183 6.447744-.11001463 3.02238-1.20935499 10.175346-2.30869534 16.018614-1.09934035 5.843268-2.1986807 11.283552-2.30859459 12.08952-.11001463.906714.43965555 1.309698 1.42908201 1.108206.87951258-.201492 3.84779198-.604476 6.48622897-.906714l4.8371177-.50373-.65958406 6.145506c-.87951258 7.958934.3298424 9.167886 8.1352395 7.354458 8.4650819-2.01492 13.52202737-.805968 25.61497274 6.145506 9.67433614 5.54103 10.88359038 6.04476 13.41211349 4.936554 1.53909664-.604476 2.63843699-1.712682 2.41860922-2.317158-.4397563-1.00746-13.96178367-10.276092-22.20693705-15.212646-1.0994411-.705222-3.84779198-2.51865-6.04647268-4.130586l-3.95770587-2.921634 5.4968025.805968c4.9470316.705222 11.2134328.805968 19.23865766.201492 2.5285231-.201492 2.74845163.201492 3.2981218 5.238792.65958406 6.850728 2.638437 8.261172 8.24515339 5.843268 2.30859459-1.00746 6.48612822-1.712682 10.22400632-1.712682 5.60671639 0 10.55374797.906714 27.48381103 5.138046 4.28754827 1.108206 4.94713233 1.00746 7.03589915-1.00746 1.20925424-1.208952 1.97885293-2.417904 1.75902516-2.720142-.3298424-.201492-4.61728992-1.712682-9.78435077-3.324618-5.05694547-1.611936-13.85186978-4.936554-19.45858617-7.253712-10.0040778-4.231332-10.11399169-4.332078-7.3656408-5.641776 2.63843699-1.309698 2.63843699-1.51119 1.20925423-4.130586-5.49670176-10.0746-8.46498116-39.693924-6.70605674-68.205042.21992851-4.735062-1.31916813-14.809662-3.95760512-25.992468-.98942647-4.02984-1.64911128-12.291012-2.30869534-32.943942-.10991388-1.410444.4397563-3.727602 1.09934035-5.339538 2.19878145-4.835808 3.4080357-101.350476 1.53909665-117.066852-1.31916813-10.57833-.32974166-12.492504 11.1035189-20.350692 18.24933193-12.59325 28.14349584-23.272326 28.25340973-30.2238 0-2.01492.3298424-2.115666 2.5285231-1.309698 3.4080357 1.309698 19.01882988 4.735062 24.95538868 5.440284 2.74835088.302238 10.11399169.805968 16.49030677 1.208952 9.89416392.50373 11.87301685.302238 13.08227109-1.00746.76959869-.906714 2.19878145-1.611936 3.07819328-1.611936 2.41860922 0 5.6067164-3.324618 6.2664012-6.346998.43975629-2.51865.10991389-3.02238-3.2981218-4.332078-4.50737604-1.712682-30.34217655-5.440284-37.92774588-5.440284-2.9682794 0-5.38678787-.402984-5.38678787-.906714 0-.604476 5.27687399-.805968 12.9723572-.402984 11.1035189.402984 13.19228571.201492 14.51145384-1.208952 1.75902516-1.914174.54967017-3.223872-3.29802106-3.727602l-2.74835088-.302238 3.18810717-1.51119c6.15638657-2.820888 4.39736141-3.52611-10.55384872-3.828348-16.05055048-.302238-24.29570387 1.108206-32.2111156 5.238792-5.27687398 2.820888-16.60022065 4.332078-39.46684251 5.138046l-16.38039289.50373 1.75902516-2.317158c.98942647-1.309698 2.08876682-4.231332 2.41850848-6.346998.43975629-2.115666 1.53909664-6.346998 2.41860922-9.268632.87951258-3.02238 1.75902516-9.873108 1.75902516-15.414138l.21982777-9.873108-3.62786346-3.324618C54.22259961 1.199773 53.67292944.998281 46.08736011.998281c-4.28744752 0-10.11399168.302238-12.8624433.705222zm4.94713233 1.813428c-.3298424.50373-1.97885293 1.00746-3.51794957 1.00746-3.51794958 0-3.07819329.50373 1.09934035 1.410444 2.08876682.402984 2.85836551.302238 2.41860922-.402984-.3298424-.50373 0-1.00746.98942647-1.00746.87951258 0 1.86893904-.604476 2.08876682-1.309698.43975629-.906714.65958406-.906714.65958406 0 .11001463.604476-.4397563 1.51119-.98942647 1.813428-.76949795.402984-.87941183 1.108206-.10991388 1.813428.76959869.906714-.10991389 1.208952-2.9682794 1.208952-2.3085946 0-4.61728993.302238-5.38678788.805968-1.64901052 1.108206-3.62786346.100746-3.18810717-1.611936.10991389-.705222.10991389-.906714-.11001463-.50373-.32974166.50373-1.20925424.805968-2.08876682.805968-.98942646 0-1.31916812-.50373-.87941183-1.208952.43965554-.705222.32974166-.805968-.43975629-.402984-1.86893905 1.00746-1.64901053 2.619396.32974166 2.619396.98942646 0 1.97885293.705222 2.30869533 1.51119.4397563 1.00746 1.31926887 1.208952 2.41860923.705222 1.09934035-.50373 2.63843699-.805968 3.51794957-.705222.87941183.100746 2.1986807-.201492 2.74835088-.50373.65958406-.402984 2.74835088-.604476 4.61728993-.50373 2.08876681 0 3.84769123-.50373 4.17753363-1.309698.21982777-.705222-.10991388-1.208952-.87951258-1.00746-1.429082.302238-1.8688383-.302238-1.8688383-2.720142 0-1.108206 1.20925424-1.51119 4.39736141-1.51119 5.82664491 0 10.99360501 4.130586 11.98303148 9.671616.76949795 4.332078-.87951258 16.522344-2.19878145 16.522344-.54967018 0-.65958406.705222-.21982777 1.51119.87951258 2.317158-1.86893905 13.60071-4.28744753 17.328312-2.19878145 3.425364-2.9682794 3.727602-7.14581303 2.720142-2.30869534-.604476-2.19878145-.805968 1.64901053-4.130586 2.1986807-2.01492 3.51794957-3.324618 2.85826476-2.921634-.76949794.302238-.10991388-3.324618 1.42918276-8.764902 3.51794957-12.693996 3.84779198-18.335772 1.20935498-20.552184-1.20935498-1.00746-2.41860922-1.309698-2.8583655-.805968-.4397563.604476-1.97885294 1.00746-3.51794958 1.00746-1.53909664-.100746-3.07819329.302238-3.40803569.705222-.32974166.402984-1.64901053-.100746-2.96817865-1.208952-2.19878145-1.914174-2.9682794-1.813428-2.52852311.302238.10991389.50373-.3298424.604476-.98942647.201492-.65958406-.302238-.87951258-.906714-.65958406-1.309698.21982777-.402984-1.64911127-.50373-4.28754827-.402984-3.84769123.302238-4.8371177 0-5.27687398-1.51119-.4397563-1.51119-.54967018-1.410444-.65958407.402984-.11001463 1.51119.65958407 2.317158 2.41850848 2.619396 2.30869534.302238 2.30869534.402984.21992852 1.208952-3.2981218 1.410444-7.14581304 4.735062-7.14581304 6.346998 0 1.208952-.3298424 1.208952-1.75902516.100746-1.53909664-1.208952-1.53909664-1.410444.65968481-2.115666 1.97875219-.604476 2.08876682-1.108206 1.09934035-2.921634-.76959869-1.108206-1.53909664-1.813428-1.86893904-1.51119-.4397563.302238-1.31916813.100746-2.1986807-.604476-1.20935499-.805968-1.86893905-.805968-2.85836552.201492-.98942646 1.00746-.98942646 1.108206 0 .604476.7695987-.402984 1.97885293-.402984 2.52852311-.100746 1.53909664.906714-.87951258 4.735062-2.5285231 4.02984-.76949796-.402984-.54967018-.100746.3298424.705222.98942646.705222 1.53909664 2.115666 1.31916812 3.123126-.21982777 1.00746 0 2.619396.3298424 3.52611.98942647 2.115666 2.08876682 14.003694 1.20925424 13.197726-1.20925424-1.108206-4.17753363-15.61563-4.5072753-21.861882-.21992851-6.04476.1099139-6.749982 3.51794958-6.346998 1.8688383.201492 2.96817865-1.914174 1.64901053-3.123126-.87951258-.805968-1.75902516-.705222-2.9682794.201492-.87951258.705222-1.64901053.805968-1.64901053.302238 0-2.317158 4.72720382-4.332078 10.22400632-4.432824 3.07819329-.100746 6.92588452-.50373 8.46498116-.906714 3.95770586-1.208952 6.81607138-1.208952 6.04647268 0zm-18.1393173 13.499964c0 .302238-.43975629.805968-1.0994411 1.108206-.54967017.302238-1.09934035.100746-1.09934035-.402984 0-.604476.54967018-1.108206 1.09934035-1.108206.65968481 0 1.0994411.201492 1.0994411.402984zm30.89184673 1.813428c.43975629.604476.65958406 1.51119.3298424 2.01492-.21992852.402984-.7695987 3.828348-.98942646 7.55595-.7695987 9.57087-3.51794958 15.917868-8.24515339 19.242486-3.18820792 2.317158-4.83721844 2.720142-10.22400632 2.619396-4.17763438-.100746-6.04647268.201492-5.27697473.906714.54967017.50373 4.06761975.805968 7.6954832.50373l6.59614287-.402984.65958406 3.929094c.43975629 2.115666.54977092 4.02984.3298424 4.130586-.10991388.201492-2.30859459 1.00746-4.72720381 1.813428-3.84779198 1.410444-4.83721844 1.410444-9.01475208.100746-4.50737604-1.410444-4.72720381-1.712682-4.8371177-5.641776-.3298424-9.06714.32974166-34.455132.87951258-35.2611.32974166-.50373 2.08876682-1.51119 4.067519-2.317158 4.17763439-1.813428 21.4374391-1.208952 22.75670798.805968zm-31.7713593 4.02984c0 .705222.21982776 1.712682.21982776 2.317158.11001464.50373.4397563 1.410444.7695987 2.01492.98942646 1.51119.98942646 7.455204 0 7.958934-.4397563.302238-.87951258-1.108206-.98942647-3.02238-.10991388-1.914174-.43975629-4.02984-.87951258-4.53357-1.09934035-1.712682-1.31916812-5.944014-.32974166-5.944014.54967018 0 1.09934036.604476 1.20925424 1.208952zm1.97885292 17.832042c0 1.611936-3.07819328 3.324618-3.84779197 2.115666-.4397563-.604476-.4397563-1.410444-.10991389-1.712682.3298424-.402984.65958406-.100746.65958406.604476s.54967018.906714 1.09934035.604476c.65968481-.402984.87951258-1.108206.54977093-1.611936-.4397563-.50373-.11001464-.906714.43965554-.906714.6596848 0 1.20935498.402984 1.20935498.906714zm128.40460535 2.417904c-2.85826476 1.108206-30.56200432 1.611936-30.56200432.50373 0-1.309698 3.95760512-1.611936 18.4691597-1.51119 10.3339202.100746 13.96178367.402984 12.09284462 1.00746zm-31.66134467 1.108206c0 .805968-1.97885293 1.813428-4.39746216 2.417904-2.41860922.50373-4.39746215.805968-4.39746215.604476 0-.302238 7.69548321-4.231332 8.57499579-4.432824.10991389 0 .21992852.604476.21992852 1.410444zm-97.07310308 2.820888c-.3298424.805968-.65958406.50373-.65958406-.604476-.10991389-1.108206.21982777-1.712682.54967017-1.309698.3298424.302238.4397563 1.208952.10991389 1.914174zm124.00724394-.302238c2.30869534.302238 4.39746215 1.208952 4.72720381 1.914174.3298424.906714-.43975629 1.108206-2.638437.805968-1.64901052-.302238-6.48612822-.604476-10.77367649-.705222-6.26630045-.100746-9.12466596.402984-14.29162606 2.51865-3.62786346 1.410444-6.26630046 2.921634-5.82654417 3.223872.3298424.302238 1.53909664.100746 2.74835088-.50373 1.31926887-.604476 4.94713233-1.108206 8.35516802-1.108206 7.0357984 0 34.18986778 3.52611 38.36740142 4.936554 1.53909664.50373 2.9682794.705222 3.2981218.50373.3298424-.302238.87951258 0 1.31916812.604476.7695987 1.208952-2.30859459 1.00746-13.74185514-.906714-3.2981218-.50373-8.79492431-1.208952-12.09294537-1.51119-3.29802105-.302238-9.45440762-.805968-13.632042-1.208952-6.15638657-.604476-7.4755547-.50373-7.0357984.705222.32974165.906714 1.8688383 1.309698 4.50737604 1.108206 2.52842236-.201492 4.067519.100746 4.067519.805968 0 .604476.54977092.805968 1.31926887.402984.7695987-.50373 3.40803569-.705222 5.82654416-.50373 8.24515339.50373 26.38457144 3.223872 27.3739979 4.130586.4397563.402984 1.64901053.604476 2.41860922.302238.87941184-.302238 1.53909665 0 1.53909665.604476 0 1.51119-.98942647 1.410444-16.7102353-.805968-16.05055048-2.317158-32.540958-3.52611-28.36332361-2.115666 1.53909664.50373 7.6954832 1.410444 13.74185514 2.01492 11.65318908 1.108206 30.0124349 3.626856 29.13292232 4.02984-1.75892442.705222-8.79482357.705222-9.34449374 0-.3298424-.50373-1.31926887-.705222-2.1986807-.402984-1.20935499.50373-17.80957565-1.208952-30.45219119-3.123126-1.64901053-.201492-3.29802105 0-3.62786346.50373-.32974166.604476.4397563 1.00746 1.86893905 1.00746s8.02532561.705222 14.62136772 1.611936c6.70605675.906714 13.7419559 1.813428 15.72080883 2.01492 1.86893904.302238 3.51794957.906714 3.51794957 1.51119 0 .50373-1.09934035.705222-2.41860922.402984-1.42918276-.201492-8.1352395-.906714-14.95121013-1.51119-11.87301685-.906714-28.9129938-4.332078-31.7713593-6.346998-1.64901053-1.108206-1.97885294-11.384298-.4397563-12.190266 5.1669601-3.02238 24.51563239-4.432824 35.83897906-2.720142zM18.60354908 66.684673c-1.75902516 3.223872-3.2981218 4.835808-4.61728993 4.835808-3.18810717 0-4.50737604-4.53357-2.85836551-9.268632 1.42918275-4.130586 5.8266449-9.369378 7.8053971-9.369378.54977092 0 1.20935498-.805968 1.31926886-1.813428.10991389-.906714.3298424 1.108206.54967018 4.53357.3298424 5.138046-.10991389 7.253712-2.1986807 11.08206zm87.2887523-15.1119c.10991389 1.00746 0 2.216412-.10991389 2.820888-.10991388.50373-.3298424 3.52611-.54967017 6.649236-.21992852 5.440284-3.07819329 12.492504-6.48622897 16.421598-1.42918276 1.611936-2.08876682 1.712682-3.07819329.805968-1.09934035-1.00746-1.09934035-1.51119.21992852-2.216412.87941183-.50373 1.09934035-1.00746.43975629-1.00746-.6596848 0-1.20935498-2.417904-1.31926887-5.742522 0-3.828348.21982777-5.238792.87951258-4.332078.76949795 1.108206 1.09934035.201492 1.09934035-2.820888 0-2.417904-.3298424-4.130586-.87951258-3.828348-.43975629.201492-.76949795-1.309698-.76949795-3.52611 0-4.130586.54967018-4.634316 6.92588452-4.835808 2.638437-.100746 3.51794957.302238 3.62786346 1.611936zm-50.57036141.402984c5.38688862-.100746 9.78435077.100746 9.78435077.402984s-2.08876682 3.223872-4.61728993 6.346998c-2.5285231 3.123126-4.72730455 5.944014-4.94713233 6.145506-.54967017.805968-6.81597063-2.216412-8.90473744-4.231332-3.62796421-3.828348-5.38688862-10.981314-2.19878145-9.167886.6596848.402984 5.4968025.604476 10.88359038.50373zm25.06530256-.100746c1.0994411 0 1.31926887.906714.6596848 3.727602-.43975628 2.115666-.76959869 4.634316-.6596848 5.54103 0 1.00746-.54967018 1.813428-1.09934035 1.813428-.65958407 0-.76949795.402984-.4397563 1.00746.32984241.50373.11001464 1.00746-.54967017 1.00746-.65958406 0-.98942647.402984-.65958406.906714.3298424.402984-1.64901053 3.02238-4.39746216 5.742522-2.63843699 2.720142-6.26630045 6.649236-7.8053971 8.764902-2.5285231 3.223872-2.63843699 4.02984-1.31916812 4.936554 1.20925424.805968 1.20925424.906714-.3298424.50373-3.18810717-1.00746-6.92598526 10.376838-4.28744752 12.996234.54967017.50373 1.20925424 2.01492 1.429082 3.324618.11001464 1.410444.98942647 2.619396 1.86893905 2.921634 1.09934036.302238 1.20925424 0 .3298424-1.309698-.54967017-1.00746-.76959869-2.720142-.43975628-3.828348.3298424-1.410444.10991388-1.813428-.65958406-1.309698-.7695987.402984-1.31926887.201492-1.31926887-.302238 0-.604476.54967017-1.108206 1.09934035-1.108206.65958406 0 1.09934035-.906714 1.09934035-2.01492s.54967018-3.02238 1.31926887-4.332078c.65958406-1.208952 1.53909664-2.921634 1.97885293-3.727602.4397563-.805968 1.75892442-1.611936 2.85826477-1.813428 1.64911127-.201492 1.42918275.100746-.65958406 1.309698l-2.74835088 1.611936 3.62786346-.604476c2.30859459-.402984 3.51794957-.302238 3.51794957.50373 0 .604476.43965554.906714 1.09934035.50373.54967018-.302238.76949795-1.208952.4397563-2.01492-.4397563-.805968-1.209355-1.208952-1.75902517-.906714-.65958406.402984-.98942646.100746-.65958406-.705222s1.09934035-1.410444 1.75892441-1.410444c.65968481 0 1.86893905-.705222 2.638437-1.51119 1.20935498-1.208952 1.20935498-1.208952-.43965555-.100746-1.0994411.705222-1.97885293 1.00746-1.97885293.705222 0-.402984-.98942646-.201492-2.19878145.402984-3.29802105 1.611936-5.27687399 0-2.08876682-1.712682 1.42918276-.805968 1.75902516-1.208952.7695987-.906714-2.52852311.705222-2.638437-1.00746-.21992852-1.813428 1.0994411-.402984 2.41860922 0 3.07819328 1.00746 1.20935499 1.51119 1.53909665 1.51119 3.18820792-.100746 2.85826477-2.619396 2.1986807-3.425364-2.19878145-2.921634-3.18810717.402984-3.73777735.302238-2.5285231-.50373.98942646-.705222 3.84779197-.906714 7.25582766-.50373 4.72720381.50373 5.71663028.302238 6.37621434-1.208952.43975629-.906714.21982777-2.216412-.4397563-2.820888-1.53909663-1.410444-1.42918275-3.626856.32984241-3.626856.76949795 0 1.42918276-1.712682 1.64901053-4.634316.21982777-3.02238-.10991389-4.432824-.87951258-3.929094-.65958406.302238-.87941183 1.108206-.43975629 1.611936.3298424.604476-.21982777 2.619396-1.20925424 4.634316-1.53909664 2.921634-1.64901053 4.02984-.65958406 5.54103 1.75892441 2.51865.43975629 4.332078-1.86893905 2.619396-1.31916812-1.00746-1.53909664-1.00746-.87951258-.100746.4397563.705222.21992852 1.309698-.32974165 1.309698-.65958407 0-1.20935499-.50373-1.20935499-1.108206s-.98932572-.805968-2.30859459-.402984c-1.64901053.50373-2.1986807.302238-1.86893904-.604476.3298424-.805968 1.97885293-1.712682 3.73787809-2.01492 1.75892441-.402984 2.41850847-.705222 1.31916812-.805968-1.53909664-.100746-1.42918275-.705222.7695987-4.936554 1.429082-2.619396 2.74835088-6.649236 2.85826476-8.865648.4397563-4.332078 1.42918276-5.440284 5.1669601-5.440284 3.51794958 0 4.61728993 3.52611 3.95770587 11.787282-.98942647 10.57833-.76949795 14.205186.98942646 16.220106 1.42918276 1.611936-1.64901052 4.735062-12.42268702 12.291012-9.78425003 6.850728-18.908916 14.910408-21.65726687 19.14174-.98942647 1.611936-2.30869534 3.02238-2.74845163 3.02238-.43975629 0-.87951258.50373-.87951258 1.208952 0 .604476-1.20925424 2.619396-2.74835088 4.432824s-2.74835088 3.626856-2.74835088 4.02984c0 1.813428-5.8266449 7.455204-7.6954832 7.455204-2.85836552 0-3.7378781-1.712682-1.97885294-3.828348 1.31916812-1.51119 1.20925424-1.611936-.43975629-.302238-1.75892441 1.208952-1.97885293 1.108206-1.97885293-.302238 0-.805968 1.53909664-2.317158 3.40803569-3.123126 1.8688383-.906714 3.18810717-1.813428 2.9682794-2.115666-.7695987-.604476-7.91541173 1.813428-8.79492431 3.02238-.43965555.604476-1.09934036.705222-1.64901053.201492-.4397563-.402984 0-1.208952 1.09934035-1.712682 1.20935498-.604476 1.75902516-1.712682 1.31926887-2.820888-.3298424-1.108206.76949795-2.820888 3.29802106-5.0373 2.19878145-1.813428 3.73787809-3.52611 3.51794957-3.727602-.98942647-.906714-6.26630045 2.317158-6.26630045 3.828348 0 2.317158-1.75892442 2.317158-2.638437.201492-.87951258-2.01492 1.75892442-5.944014 4.94703159-7.455204 1.20935498-.705222 1.97885293-1.410444 1.64911127-1.712682-.21992852-.302238-1.97885293.402984-3.7378781 1.611936-1.8688383 1.208952-3.95760511 2.115666-4.83711769 2.115666-1.20925424 0-1.20925424-.201492 0-.906714 1.31926887-.705222 2.08876682-2.720142 2.30859459-5.843268.11001463-.705222 2.19878145-2.115666 4.83721844-3.223872 3.95770587-1.712682 4.28744753-1.914174 1.86893905-2.01492-1.64911127-.100746-3.40803569.402984-4.17763438 1.108206-.76949795.705222-1.31916813.805968-1.31916813.201492 0-1.914174 1.75892442-3.223872 4.8371177-3.626856 1.75902516-.100746 3.51794958-.906714 3.7378781-1.712682.32974165-.906714 0-1.208952-.98942647-.906714-.87951258.402984-2.52852311.906714-3.7378781 1.309698-2.08876681.604476-2.08876681.604476-.21982777-.805968 1.09934036-.906714 1.64901053-2.115666 1.20925424-3.123126-.54967017-1.410444 0-1.611936 3.84779198-1.309698 3.29802106.302238 4.50737604 0 4.50737604-1.108206 0-1.00746-.7695987-1.309698-2.41860922-.906714-2.30869534.604476-2.41860922.50373-.54967018-.705222 1.8688383-1.309698 1.8688383-1.410444-.10991388-1.813428-2.30869534-.604476-6.81607138 2.417904-6.81607138 4.53357 0 .805968-.76949795 2.115666-1.8688383 2.820888-2.08876682 1.611936-6.48622897 10.376838-7.69548321 15.212646-2.63853774 11.182806 2.1986807 21.861882 11.32334667 24.68277l2.96817865.906714-4.28744752 4.432824c-4.50737604 4.53357-4.8371177 6.54849-1.97885293 10.57833.87951258 1.208952 1.20935498 2.417904.87951258 2.720142-.3298424.402984-.10991389 1.611936.65958406 2.820888 1.42918276 2.417904.3298424 11.384298-1.31916812 10.477584-.54967018-.302238-.7695987-1.208952-.4397563-2.01492.32974166-.805968.21982778-1.410444-.3298424-1.410444-1.42918275 0-2.1986807 3.929094-.98942646 4.231332.76959869.302238.76959869 1.108206-.10991389 2.619396-.87951258 1.410444-.87951258 2.216412-.10991389 2.216412.54967018 0 1.09934036-.604476 1.09934036-1.410444s.43975629-1.712682.87951258-2.01492c.54967017-.302238.87941183 1.108206.65958406 3.223872-.21982777 2.01492-.3298424 4.332078-.3298424 5.138046-.1099139 1.00746-.87941184.805968-2.85826477-.906714-3.40803569-2.921634-3.7378781-.705222-.54967018 3.02238 2.85826477 3.324618 2.96817865 6.04476.21982777 3.727602-1.09934035-1.00746-2.41860922-1.712682-2.85826476-1.712682-1.0994411 0-.11001463 6.246252 1.31916812 8.764902 1.64901053 2.720142 1.64901053 4.332078.10991389 4.332078-.54967018 0-.76949795-.50373-.4397563-1.00746.32984241-.604476.21992853-1.00746-.32974165-1.00746-.43975629 0-1.75902516-1.51119-2.85836551-3.324618-.98942647-1.712682-1.64901053-2.51865-1.31916813-1.611936.21982778.906714 0 2.115666-.6596848 2.720142-.87941184.805968-.4397563 1.712682 1.64911127 3.223872 2.96817865 2.115666 3.95760512 5.0373 1.8688383 5.0373-.54967018 0-1.09934035.705222-1.09934035 1.51119 0 .906714-.76949795 1.813428-1.64901053 2.115666-.98942647.402984-1.42918276 1.309698-1.09934035 2.317158.43975629 1.51119-5.71663028 8.160426-7.69548321 8.160426-.3298424 0-1.64911128.906714-2.9682794 2.01492-3.07819328 2.619396-4.94713233 2.51865-4.06761975-.302238 0-.100746-.43975629-1.410444-1.09934035-2.820888-.54967018-1.51119-.65958406-3.123126-.3298424-3.52611.43975628-.50373-.1099139-.100746-1.09934036.906714-2.1986807 2.115666-2.638437 6.246252-.87951258 7.253712.7695987.402984.98942647-.302238.54967018-2.216412-.43965555-2.317158-.43965555-2.417904.43975629-.805968 1.53909664 2.921634 1.42918275 4.231332-.54967018 4.936554-.87951258.302238-1.31916812.201492-.98942646-.402984.3298424-.604476 0-1.00746-.87941184-1.00746-2.9682794 0-3.18820791-4.53357-1.20935498-25.992468.65958406-7.05222.7695987-7.253712 3.51794957-7.253712 4.94713233 0 8.90473745-3.123126 20.55792652-16.220106.7695987-.906714 2.74845163-3.929094 4.39746216-6.54849l2.9682794-4.936554-5.6067164 5.54103c-3.07819328 3.02238-5.60671639 6.145506-5.60671639 6.850728 0 1.00746-.43975629 1.00746-2.19878145 0-1.8688383-1.108206-2.41850847-1.00746-3.29802105.201492-.54967018.805968-.98942647 1.914174-.98942647 2.51865 0 .50373.3298424.402984.65958406-.302238.65968481-1.611936 3.62786346-1.611936 3.62786346.100746 0 .705222-.54967017 1.813428-1.20925424 2.417904-1.75892441 1.611936-4.7272038-1.108206-3.95770586-3.727602.3298424-1.309698.10991389-1.712682-1.09934035-1.309698-.87951258.302238-1.31916813 1.208952-.98942647 2.01492.3298424.805968.65958406 2.417904.65958406 3.626856 0 1.813428.21992852 1.914174 1.20935499.705222.98942646-1.309698 1.09934035-1.309698.65958406 0-.21982777.805968-1.20925424 1.611936-2.1986807 1.813428-1.42918276.302238-1.86893905-.402984-1.86893905-3.223872 0-2.01492-.43975629-3.626856-1.09934035-3.626856s-.76949795 1.712682-.4397563 4.332078c.54967018 3.425364.21992853 4.53357-1.53909663 6.04476-2.08876682 1.813428-2.08876682 1.712682-.98942647-2.216412 1.20935498-4.130586.7695987-5.843268-1.31916812-4.634316-.65968481.302238-1.20935499 2.216412-1.20935499 4.231332s-.32974166 3.425364-.65958406 3.02238c-.76949795-.604476-.65958406-22.063374.10991389-22.66785.21992851-.201492 1.53909664.402984 3.07819328 1.309698 2.74845163 1.611936 10.3339202 1.813428 11.32334667.302238.3298424-.402984 1.09934035-.805968 1.75902516-.805968.65958406 0 .32974166.906714-.6596848 1.914174-1.09934036 1.108206-2.74835089 1.712682-3.73777735 1.410444-1.09934036-.402984-1.42918276-.201492-.87951258.604476.54977092.705222-.65958407 1.712682-3.18810717 2.720142-2.3085946.805968-3.84769124 1.813428-3.51794958 2.115666 1.0994411.906714 5.71673103-.50373 8.9048382-2.820888 4.17753363-3.02238 11.87301684-12.895488 11.21343278-14.305932-.3298424-.705222-.7695987-.402984-1.20935498.805968-.76949795 2.216412-6.15638657 5.641776-10.4438341 6.649236-1.53909664.302238-4.39746215 0-6.37631508-.705222-1.97875219-.705222-4.28744752-1.108206-5.1669601-.805968-1.09934035.402984-1.64901053 0-1.64901053-1.51119 0-2.216412 2.638437-2.921634 3.84779198-1.00746.43975629.604476 1.429082.805968 2.1986807.50373.87951258-.302238 1.75892442 0 2.08876682.705222.21982777.705222.54967018.402984.54967018-.604476.10991388-1.108206.87951258-1.712682 1.97885293-1.611936 1.09934035.100746 2.85836551-.100746 3.84769123-.604476 1.0994411-.402984 3.18820792-.805968 4.61728993-.906714 1.42918275 0 2.41860922-.402984 2.08886756-.906714-.21992852-.402984-.11001463-.705222.43965554-.705222.4397563 0 1.86893905-.705222 3.07819329-1.611936 1.86893904-1.309698 1.97885293-1.611936.54977092-2.417904-.87951258-.50373-2.08886756-1.00746-2.74845163-1.00746-.54967017 0-.43975629.402984.4397563.906714 1.20925423.705222 1.09934035 1.108206-.65958407 2.01492-3.18820791 1.51119-12.20285925 3.223872-17.14999158 3.324618-7.14581303.100746-7.58556932-.906714-6.70605674-17.12682.54967017-9.973854 1.09934035-14.003694 1.97885293-13.60071.65958406.402984.65958406 0-.10991389-.906714-.76959869-.805968-1.09934035-1.712682-.87951258-2.01492.65958407-.604476.98942647-13.802202.65958407-27.503658-.10991389-5.0373-.21982778-10.376838-.21982778-11.988774l.10991389-3.02238 3.51794957 3.123126c8.68490968 7.455204 17.03997695 8.865648 27.48391179 4.53357 3.84769123-1.712682 7.6954832-3.727602 8.46498116-4.634316 2.41860922-2.619396 3.62786346-1.813428 1.75902516 1.108206-2.74845163 4.231332-13.7419559 8.865648-20.44801264 8.764902-2.9682794-.100746-6.04647268-.604476-6.81607138-1.309698-.87941183-.604476-1.8688383-.805968-2.1986807-.402984-.43975629.302238-.76949795.100746-.76949795-.604476s-.43975629-1.00746-.98942646-.705222c-.54967018.302238-2.52852311-.805968-4.39746216-2.619396-4.06761975-3.828348-5.82654416-3.123126-2.1986807.906714 3.95770586 4.332078 9.34449374 7.253712 12.09284462 6.649236 1.86893904-.50373 2.19878145-.302238 1.53909664.705222-.65958406 1.00746-.21982777 1.108206 1.75902516.705222 9.34449374-2.115666 9.45440762-2.115666 7.03589915-.402984-1.20935499.906714-3.18820792 1.712682-4.39746216 1.813428-1.75892441.100746-1.86893904.201492-.3298424.604476 1.64911127.402984 1.53909664.906714-.76949795 5.138046-1.42918276 2.619396-3.18810717 6.951474-3.95770586 9.772362-1.42918276 5.54103-5.05704622 9.772362-6.48622898 7.55595-.65958406-.906714-.98932572-.906714-1.64901052 0-1.42918276 2.01492 1.42918275 3.626856 3.84779197 2.216412 2.08876682-1.108206 2.1986807-.906714 2.1986807 3.52611 0 5.843268 3.0781933 12.291012 7.14581304 15.212646 3.18810717 2.317158 6.59614286 2.820888 7.69548321 1.208952.3298424-.604476-.43975629-1.00746-1.97885293-1.00746-5.05704622 0-11.76310296-9.873108-11.76310296-17.529804 0-9.873108 9.12466597-26.093214 18.7990021-33.548418 3.29802106-2.619396 3.4080357-2.619396 2.74835089-.50373-.4397563 1.208952-.32974166 2.216412.21992852 2.216412 1.09934035 0 4.3973614-5.641776 6.70605674-11.283552.54967018-1.410444 4.28744752-6.447744 8.35506727-11.182806 7.25572692-8.664156 9.56442226-10.0746 15.39096642-9.167886 1.20925424.201492 2.85836551.402984 3.73777735.402984zM47.2967151 63.460801c2.1986807 1.410444 4.72720381 2.51865 5.60671639 2.51865 3.73777735 0-9.67433614 9.57087-16.93006306 12.08952-4.17753364 1.410444-12.31277314.402984-16.82014918-2.115666l-3.51794957-1.914174 2.74835088-3.727602c1.53909664-2.01492 3.07819328-4.735062 3.40803569-6.04476.76959869-2.720142.76959869-2.720142 6.48622897-.906714 3.18810717 1.00746 4.94703158 1.108206 6.48612822.402984 1.75902516-.906714 4.39746216-1.813428 8.1352395-2.720142.21992852-.100746 2.19878145 1.00746 4.39746216 2.417904zm115.65217667 4.936554c0 1.108206-2.08886757 1.51119-2.74845163.604476-.32974166-.50373.10991389-1.00746.98942647-1.00746.98942646 0 1.75902516.201492 1.75902516.402984zm-98.06252955 41.608098c0 1.00746.3298424 6.951474.7695987 13.09698.65958406 8.261172.54967017 11.384298-.4397563 11.384298-.65958406 0-1.20935498.50373-1.20935498 1.108206s.65968481.906714 1.53909664.604476c1.0994411-.402984 1.42918276 1.309698 1.0994411 8.664156-.11001463 5.138046-.3298424 13.701456-.3298424 19.242486-.10991389 8.462664-.3298424 9.772362-1.86893905 9.268632-.87941183-.302238-1.31916812-.201492-.98942646.402984.3298424.604476-.54967018 1.00746-2.08876682 1.00746s-2.85826477.302238-2.85826477.604476c0 1.410444 3.62786346 7.455204 4.50737604 7.455204 1.31916813 0 .76949795-2.115666-.98942646-3.828348-1.53909665-1.611936-.7695987-3.223872 1.64901052-3.223872 1.20925424 0 1.53909665.805968 1.20925424 3.02238-.32974166 1.712682-.21982777 3.02238.21992852 3.02238.65958406 0 .43965554 37.175274-.3298424 45.436446-.21982778 2.51865-.7695987 5.138046-1.20925424 5.742522-.98942647 1.51119-4.72730456 1.611936-5.6067164.201492-.3298424-.604476-1.20935498-1.00746-1.86893904-1.00746-.7695987 0-.65958406.604476.21982777 1.51119.98942647 1.00746.98942647 1.51119.11001463 1.51119-.6596848 0-1.31926887-.50373-1.31926887-1.00746-.10991388-.604476-.21982777-1.410444-.3298424-1.914174 0-.50373-.43965554-1.208952-.76949795-1.611936-.43975629-.302238 0-1.914174.87951258-3.626856.87941184-1.611936 1.31916813-3.52611 1.09934035-4.231332-.3298424-.604476-.87951258.302238-1.42918275 2.216412l-.7695987 3.324618-1.31916812-2.820888c-.98942647-2.317158-.98942647-3.223872.10991389-4.130586.76959869-.705222 1.64901052-1.813428 1.86893904-2.51865.4397563-1.00746.76949795-1.00746 1.64901053.100746.65958406.805968 1.31926887.906714 1.75892441.302238.3298424-.50373-.10991388-1.309698-1.09934035-1.611936-1.53909664-.50373-1.53909664-.906714-.32974166-2.317158 1.31916813-1.410444 1.31916813-1.611936-.11001463-1.108206-.87941183.201492-2.30859459 1.712682-3.07819328 3.123126-1.53909664 2.921634-4.17753364 3.828348-3.07819329 1.108206.3298424-.906714.65968481-2.216412.65968481-3.02238s1.31916813-2.01492 3.07819329-2.619396c2.41850847-.906714 2.63843699-1.208952.98942646-1.51119-1.42918275-.302238-1.75902516-1.00746-1.20935498-2.51865.43975629-1.410444.3298424-1.813428-.65958406-1.309698-.65958407.402984-1.09934036 1.611936-.7695987 2.619396.3298424 1.108206.4397563 1.914174.21992852 1.914174-.21992852 0-1.31926887.302238-2.41860922.705222-1.09934035.302238-1.64901053.302238-1.20925424-.201492.43975629-.402984.21982777-1.51119-.54967018-2.317158-.98942646-1.309698-.98942646-1.410444 0-.805968 1.42918276.705222 1.20925424-6.346998-.3298424-16.421598-.21982777-2.01492-.65958406-8.160426-.87951258-13.802202-.54967018-11.988774-3.62786346-28.511118-5.71663028-30.72753-.87941183-.805968-1.53909664-2.216412-1.53909664-3.02238s-.54967018-2.01492-1.20925424-2.619396c-.87951258-.805968-.65958406-1.611936.87951258-3.02238 3.73777735-3.626856 9.56432151-9.873108 9.6742354-10.376838.43975629-1.914174 7.58556932-10.880568 8.35516802-10.477584.54967017.302238.65958406-.201492.32974165-1.00746-.32974165-.906714.54967018-2.619396 2.08886757-4.02984 1.429082-1.309698 2.96817865-3.123126 3.29802105-4.02984.87951258-2.115666 1.75892442-2.01492 1.64901053.100746zm-31.00176061 7.152966c-.3298424.302238-.11001463 1.108206.54967018 1.914174.76949794.805968.87941183 1.309698.10991388 1.309698-.54967017 0-1.42918275-.705222-1.75892441-1.611936-.98942647-2.417904-.7695987-3.626856.54967017-2.921634.65958407.402984.87941184 1.00746.54967018 1.309698zm11.87301685 74.753532c.87951258 29.417832 1.42918275 34.858116 4.06761975 39.996162 2.30859459 4.432824 6.26630045 6.145506 10.88359038 4.835808 2.08876681-.604476 2.1986807-.201492 2.1986807 6.749982 0 4.02984.3298424 8.966394.54967018 10.880568.54967017 2.921634 0 4.130586-3.18810717 7.55595-4.06761975 4.332078-6.48622898 4.53357-2.85826477.201492 1.31916812-1.51119 1.8688383-3.223872 1.42908201-4.231332-.54967018-1.410444-1.09934035-1.00746-3.18810717 2.115666-1.42918276 2.115666-2.30859459 4.130586-1.97885293 4.634316.3298424.402984-.98942647.50373-2.85826477.201492-1.86893904-.402984-3.2981218-.201492-3.2981218.402984 0 1.813428-3.95760512 1.914174-6.37621434.201492l-2.30869534-1.813428 2.41860923-.604476c2.30869533-.50373 2.30869533-.705222-1.42918276-3.52611-2.08876682-1.712682-3.40793494-3.02238-2.85826477-3.123126.65958407 0 .10991389-.604476-.98942646-1.410444-1.97885293-1.309698-1.97885293-1.51119-.21992852-3.02238 1.20935498-1.208952 1.86893905-1.309698 1.86893905-.50373 0 1.712682 1.09934035.604476 1.53909664-1.712682.3298424-1.108206.76949795-2.720142 1.20925424-3.727602 1.31926887-2.921634-.10991389-1.914174-3.18810717 2.417904-1.64901053 2.216412-3.29802106 3.828348-3.73777735 3.52611-.7695987-.705222 2.9682794-7.656696 4.06761975-7.656696.32974166 0 .76949795-1.108206.76949795-2.51865.10991388-1.410444.10991388-2.51865-.10991389-2.51865-.87951258 0-5.27687399 7.757442-5.05704621 8.764902.3298424 2.115666-1.75892442 1.51119-2.41860923-.604476-.32974165-1.208952.7695987-3.324618 2.74845163-5.54103 1.75892441-2.01492 2.85826477-3.626856 2.41860922-3.626856-.54977092 0-.3298424-.50373.43965555-1.208952.76959869-.705222 1.31926887-1.611936 1.31926887-2.115666 0-1.309698-5.38688862 4.332078-6.15638657 6.54849-.54967018 1.611936-.87951258 1.712682-1.53909664.705222-1.09934036-1.611936.54967017-4.835808 3.73777734-7.152966 1.53909664-1.208952 1.75902516-1.813428.7695987-1.813428-1.20935499 0-1.09934036-.50373.43975629-2.01492 1.53909664-1.611936 1.75892441-2.317158.76949794-3.223872-1.09934035-1.00746-1.86893904-1.00746-3.51794957 0-3.07819328 1.712682-2.74835088 0 .43975629-2.720142 2.41860922-2.01492 2.74835088-2.115666 4.39746215-.604476.98942647.906714 1.75892442 2.820888 1.75892442 4.231332 0 4.936554 2.638437 10.477584 6.70605674 14.60817 5.1669601 4.936554 5.4968025 9.470124 1.20935499 14.809662-2.19878145 2.720142-2.30869534 3.123126-.65968481 2.317158 1.20935498-.604476 3.07819328-2.01492 4.17753363-3.123126 1.20935499-1.208952 2.52852311-2.115666 3.07819329-2.115666 1.0994411 0-.98942647 3.828348-3.18810717 5.843268-1.64901053 1.51119-1.20925424 2.820888.54967017 1.813428.65968481-.302238 2.08876682-2.216412 3.4080357-4.130586l2.1986807-3.52611-2.638437-.604476c-2.1986807-.50373-2.5285231-1.00746-1.97885293-3.929094.54967018-2.820888 0-3.828348-4.28744752-7.656696-4.72720381-4.432824-5.4968025-6.145506-8.1352395-18.738756-.3298424-1.611936-.98942647-2.115666-2.41860922-1.712682-1.53909665.50373-1.42918276.302238.3298424-1.108206 1.86893905-1.410444 1.97885293-1.712682.54967018-2.51865-1.09934036-.705222-1.20925424-1.00746-.21982778-1.00746.65958407 0 1.31916813-.906714 1.31916813-2.115666 0-1.108206-.54967018-1.712682-1.09934035-1.410444-.65958407.402984-.87951258 1.00746-.54967018 1.51119s.10991389 1.108206-.43975629 1.51119c-.65958406.302238-.87951258 1.108206-.65958406 1.813428.43975629 1.208952-7.58556933 7.757442-9.45450837 7.757442-2.08876682 0-.76949795-2.01492 3.40803569-5.339538 2.41860922-1.914174 4.39746215-3.828348 4.39746215-4.231332 0-.50373-1.20935498.201492-2.74845163 1.51119-2.85826476 2.51865-3.95770586.906714-1.09934035-1.611936.87951258-.906714 1.64901053-2.115666 1.64901053-2.720142 0-.705222-.76949795-.302238-1.64901053.705222-1.53909664 1.813428-1.64901053 1.712682-1.64901053-2.51865 0-3.02238.87951258-5.54103 2.638437-8.05968 1.53909664-2.01492 3.51794957-6.246252 4.50737604-9.57087.98942646-3.223872 2.30859459-6.850728 2.9682794-7.958934.76949794-1.208952.76949794-2.01492.10991388-2.216412-.7695987-.302238-.6596848-2.619396.32974166-6.749982.7695987-3.626856 1.64911127-9.369378 1.97885293-12.895488.21992852-3.425364.54967018-6.54849.65968481-6.850728.10991389-.302238.87941183 2.01492 1.64901053 5.0373.87941183 3.223872 1.75892441 14.910408 2.08876682 28.20888zm-9.23457986-8.462664c0 2.417904-1.86893904 1.51119-2.41860922-1.108206-.43975629-2.01492-.3298424-2.317158.87951258-1.410444.87951258.604476 1.53909664 1.813428 1.53909664 2.51865zm-2.1986807 13.499964c0 .50373-.54977092 1.00746-1.20935498 1.00746-.54967018 0-.76949795-.50373-.4397563-1.00746.32984241-.604476.87951259-1.00746 1.20935499-1.00746.21982777 0 .43975629.402984.43975629 1.00746zm-7.14581303 11.08206c.32974165.604476-.11001464.705222-.98942647.402984-1.97885293-.705222-2.30869534-1.410444-.7695987-1.410444.65958407 0 1.42918276.402984 1.75902517 1.00746zm-2.63853774 3.425364c1.97885293-1.712682 2.08876681-1.611936 2.08876681 4.02984 0 3.223872-.43965554 6.54849-.98932572 7.455204-1.53909664 2.619396-2.08886756 15.817122-1.0994411 23.574564 1.42918276 10.679076 5.82664492 16.824582 14.18171219 20.249946 8.02532561 3.223872 15.06112401 2.820888 21.7672815-1.108206 1.64901053-1.00746 2.08876682-1.813428 1.31916813-2.216412-.87951258-.50373-.76949795-1.00746.3298424-1.914174 1.31916813-.906714 1.75892442-.604476 2.3085946 2.01492 1.31926886 6.04476.76959869 8.664156-1.97885294 10.376838-6.37621434 3.727602-10.7736765 5.641776-11.87301685 5.0373-.76949794-.402984-.87941183-.201492-.43975629.402984 1.31926887 2.115666-10.11399168 5.54103-22.976435 6.850728-5.60671639.604476-6.04647268.50373-6.04647268-1.410444 0-1.108206.4397563-2.216412 1.09934036-2.417904s.3298424-2.115666-.65958407-4.735062c-.87951258-2.417904-1.42918275-5.0373-1.0994411-5.742522.32984241-.705222-.21982777-1.813428-1.20925423-2.619396-1.53909664-1.108206-1.64901053-1.00746-1.09934035.705222 1.09934035 3.52611 2.30859459 11.08206 1.86893904 12.08952-.11001463.50373-.21992852 2.01492-.21992852 3.223872.21992852 1.914174-.10991388 2.01492-3.40793494 1.108206-1.86893904-.604476-4.17763438-1.208952-4.83721844-1.410444-1.64901053-.402984-1.86893905-4.634316-1.97885293-41.910336 0-21.458898.21992851-25.992468 1.53909664-25.992468 3.95770586 0 10.11409243-2.417904 9.89426466-3.929094-.21992852-2.619396.32974166-3.727602.87941183-1.813428.54967018 1.813428.65968481 1.813428 2.638437.100746zm25.17531719 6.04476c0 .302238-.43975629.805968-1.0994411 1.108206-.54967017.302238-1.09934035.100746-1.09934035-.402984 0-.604476.54967018-1.108206 1.09934035-1.108206.65968481 0 1.0994411.201492 1.0994411.402984zm-15.28105253 12.492504c-.54967018 1.00746-1.86893905 2.417904-2.74845163 3.123126-.98942647.805968-1.53909664 1.611936-1.31916812 2.01492.32974165.402984 0 1.309698-.65958407 2.115666-.87951258 1.208952-.98942646 1.208952-.43975629-.302238.32974166-1.00746 0-1.712682-.87951258-1.712682-1.31926887 0-1.31926887-.604476-.3298424-2.921634.6596848-1.712682 1.53909664-2.820888 1.97885293-2.51865.4397563.201492 1.09934035 0 1.53909664-.604476.3298424-.50373 1.42918276-1.00746 2.30869534-1.00746 1.20925424 0 1.31916812.402984.54967018 1.813428zm17.8094749.201492c.3298424 1.108206.11001462 2.01492-.43965555 2.01492-.54967018 0-.98942647-.906714-.98942647-2.01492s.21982777-2.01492.4397563-2.01492c.21982776 0 .65958405.906714.98932571 2.01492zm-23.4161913 17.12682c0 2.317158.54967018 4.02984 1.20925424 4.02984.65958406 0 .98942647.705222.65958406 1.410444-.43965554 1.00746-.10991388 1.309698.98942647.906714.7695987-.302238 1.53909664 0 1.53909664.604476 0 .50373 1.42918276 2.51865 3.2981218 4.432824 2.08876682 2.216412 2.638437 3.425364 1.64901053 3.425364-.87951258 0-1.20925424-.50373-.87951258-1.00746.4397563-.604476 0-.805968-1.09934035-.402984-1.75892441.604476-4.3973614-1.410444-3.84769123-2.921634.21982777-.50373-.11001463-1.108206-.7695987-1.208952-2.30859459-.705222-3.73777734-2.417904-3.07819328-3.828348.3298424-.805968.10991389-1.410444-.3298424-1.410444-.54967018 0-1.09934036-1.813428-1.20925424-4.02984-.10991389-2.216412.3298424-4.02984.87951258-4.02984.54967017 0 .98942646 1.813428.98942646 4.02984zm36.82840553 29.921562c-.7695987 3.223872-5.6067164 14.305932-9.56442226 22.466358-1.53909664 3.02238-4.17753364 8.966394-5.82654416 13.09698-1.75902516 4.130586-5.1669601 10.981314-7.80549785 15.212646-4.06761975 6.749982-10.55374797 17.832042-17.03997694 29.21634-3.18810717 5.742522-13.4121135 14.910408-17.36981936 15.61563l-3.51794957.705222 4.72730456-6.447744c5.49670176-7.455204 11.87301684-16.925328 11.87301684-17.63055 0-.302238 1.8688383-2.619396 4.17753364-5.339538 2.1986807-2.619396 5.4968025-7.05222 7.14581303-9.671616s3.29802106-4.53357 3.62786346-4.231332c.65958407.50373-7.6954832 13.298472-10.993605 16.522344-1.20925425 1.309698-1.75892442 2.317158-1.31916813 2.317158.43975629 0-.7695987 2.01492-2.638437 4.432824-2.8583655 3.626856-3.2981218 4.835808-2.30869533 6.346998 1.09934035 1.712682 1.09934035 1.611936 1.20935498-.50373 0-1.309698.43965555-2.01492 1.09934035-1.712682.65958407.302238 1.09934036-.402984 1.09934036-1.712682.10991388-2.720142 2.63843699-6.145506 3.84769123-5.0373.54967017.402984.54967017.201492.21992852-.50373-.4397563-.604476-.4397563-1.309698.10991388-1.51119 1.09934035-.402984 18.4691597-29.21634 19.34867229-32.137974 1.09934035-3.324618 5.71663027-14.205186 7.3656408-17.227566 1.42918276-2.51865 1.20935499-3.223872-.43975629-2.01492-.76949795.604476-3.51794957 1.410444-6.04637193 1.813428-4.28754827.604476-7.58556933 2.417904-4.50737604 2.417904.76949794 0 .98942646.302238.65958406.705222-.4397563.302238-1.75892442-.201492-2.85836551-1.108206-1.20925424-1.00746-2.638437-1.51119-3.29802106-1.208952-.54967018.402984-1.42918276 0-1.97885293-.805968-.4397563-.705222-1.75892442-1.51119-2.9682794-1.712682-1.09934035-.201492-2.74835088-1.410444-3.62786346-2.51865-1.42918276-2.01492-1.31916812-2.216412 3.18820792-3.223872 4.17753363-1.00746 4.50727529-.906714 2.63843699.302238-1.86893905 1.309698-1.86893905 1.51119-.3298424 2.115666.98942646.302238 1.64901052 1.00746 1.31926887 1.410444-.3298424.50373 1.09934035.604476 3.29802105.302238 2.52852311-.402984 3.84779198-.201492 3.84779198.604476 0 .604476 1.31916812 1.108206 3.07819328 1.00746 2.85826477-.100746 2.85826477-.100746.32974166-.805968-2.41860922-.604476-2.41860922-.705222 1.42918276-2.417904 5.27687399-2.317158 7.3656408-2.115666 4.06761975.302238-1.42918276 1.108206-2.1986807 2.01492-1.86893905 2.01492 1.09934035 0 7.25572692-3.02238 7.25572692-3.425364 0-.302238.3298424-1.309698.65968481-2.317158.32974166-1.00746-.21992852-.705222-1.09934035.705222-.87951258 1.410444-1.64911128 2.01492-1.64911128 1.51119 0-1.410444 3.07819329-6.346998 3.18820792-5.0373 0 1.309698 2.1986807-1.611936 2.1986807-3.02238 0-.604476-.54967017-.302238-1.09934035.50373-.54967017.805968-1.09934035 1.00746-1.09934035.50373 0-1.51119 1.75892441-3.727602 2.85826477-3.52611.54967017.100746 1.09934035-.302238 1.31926887-.906714.21982777-.604476 0-1.108206-.54967018-1.108206-1.20935498.100746-6.59614286 2.921634-5.4968025 3.02238 2.41860922.100746-3.07819329 6.346998-6.70605675 7.656696-2.1986807.805968-4.94713233 1.914174-6.15638657 2.51865-4.17753363 2.216412-1.09934035-1.611936 3.29802106-3.929094 2.30869533-1.309698 3.18810717-2.01492 1.86893904-1.712682-4.17753363 1.108206-2.8583655-.402984 1.86893905-2.115666 8.24515339-3.02238 3.62786346-2.51865-6.70615749.705222-7.69548321 2.417904-12.75242868 3.324618-20.11817023 3.52611-5.38678788.201492-10.0040778.604476-10.3339202.906714-1.09934036 1.00746 5.38688861 2.417904 8.4650819 1.914174 2.638437-.50373 3.18810717-.201492 3.73777734 1.914174.87951258 3.123126 8.46498116 7.656696 14.29162607 8.56341 3.84769123.604476 4.8371177.402984 7.0357984-1.611936 3.51794958-3.223872 4.06761975-2.317158 1.86893905 2.921634-2.30859459 5.54103-4.50737604 7.858188-8.68490968 9.57087-4.3973614 1.611936-6.48612822.302238-4.7272038-3.223872 1.64901052-3.223872 3.29802105-3.123126 2.41860921.100746-.87951258 3.123126.21982778 3.223872 2.96817866.201492 2.41860922-2.720142 2.74845162-4.432824.43975629-2.720142-1.42908201 1.00746-1.64901053.906714-1.64901053-1.108206v-2.417904l-2.85826477 2.720142c-1.64911127 1.51119-2.85836551 3.727602-2.85836551 5.238792 0 1.410444-.43975629 2.619396-.98942647 2.619396-.54967017 0-.98942646-.50373-.98942646-1.108206 0-.805968-.54967018-.805968-1.64901053.100746-2.41860922 1.813428-1.97885293.50373 1.09934035-4.02984 1.97885293-2.921634 2.30869534-4.02984 1.20925424-4.02984-.87941183 0-2.30859459 1.813428-3.29802106 4.02984-1.64901052 3.929094-4.83721844 5.843268-3.62786346 2.216412 1.97885294-5.54103 3.84769124-9.369378 4.17753364-8.462664.3298424.604476.87951258.50373 1.75892441-.302238.98942647-1.00746.65968481-1.208952-1.8688383-1.108206-2.63843699.100746-3.18810717.604476-3.73787809 3.626856-.76949795 4.130586-2.41850847 6.850728-3.51784883 5.742522-.43975629-.302238.10991389-2.720142 1.20925424-5.339538 1.42918276-3.425364 1.53909664-4.936554.65958406-5.742522-.87941183-.805968-1.20925423-.805968-1.20925423.100746 0 1.914174 0 2.01492-1.64901053 5.641776-.87951258 1.813428-1.20935499 3.626856-.87951258 4.02984.43975629.302238.10991388.604476-.54967018.604476-1.64901053 0-1.64901053-2.51865-.10991388-7.05222 2.08876681-6.346998 2.96817865-10.0746 2.1986807-9.973854-.3298424 0-1.64901053.402984-2.85836551.906714-1.8688383.705222-1.8688383.906714-.21982777.906714 2.63843699.100746 2.30859459 1.51119-.87951258 4.735062-2.08876682 2.01492-2.74835088 2.317158-2.74835088 1.00746 0-.906714-.54967018-1.611936-1.09934036-1.611936-1.97885293 0 1.42918276 11.787282 4.39736141 15.011154 2.9682794 3.123126 14.29162607 4.231332 19.5686008 1.712682 4.5072753-2.115666 4.8371177-2.01492 3.40793495.705222-.87951258 1.813428-1.8688383 2.317158-3.73777735 2.01492-1.31926887-.302238-2.85836551 0-3.18810717.604476-.43975629.604476-3.40803569 1.108206-6.59614286 1.108206-7.03589915 0-10.88359038-2.417904-13.96178366-8.462664l-2.08886757-4.130586v3.324618c0 1.914174.7695987 4.634316 1.75902516 6.04476 1.42918276 2.317158 1.42918276 3.223872.3298424 5.742522l-1.42918275 3.02238-.43975629-2.820888c-.21992852-1.51119-.87951258-2.51865-1.53909664-2.115666-.65958406.402984-.87951258-1.712682-.54967018-6.246252.32974166-3.828348.54967018-11.988774.65958407-18.235026v-11.283552l3.51794957 1.108206c9.56442226 3.02238 45.40340131-5.54103 49.69084883-11.988774 1.64901053-2.417904 3.18810717-1.410444 2.41860923 1.410444zm2.63843699 10.57833c.54967018 2.921634.87951258 7.354458.54967018 9.873108-.98942647 9.369378-.3298424 34.152894 1.31916812 45.134208.87951258 6.346998 1.42918276 12.190266 1.0994411 12.996234-.3298424.805968-.11001463 1.108206.43965554.805968.65968481-.402984 1.0994411.705222 1.0994411 2.51865 0 1.712682.76949795 4.53357 1.75892441 6.145506.87951258 1.712682 1.42918276 3.324618 1.09934036 3.626856-1.31916813 1.309698-5.05704622-1.108206-6.04647269-4.02984-1.31916812-3.727602-2.74835088-16.220106-2.63843699-23.17158 0-3.929094-.21982777-4.53357-1.42918276-3.626856-1.75892441 1.309698-2.08876681 6.54849-.54967017 7.455204.6596848.302238.87951258 1.51119.54967017 2.820888-.65958406 2.921634 1.64911128 18.033534 2.9682794 19.443978 1.20935499 1.309698-4.61728992 3.828348-11.43326055 4.936554l-4.06761975.705222-.21982778-3.828348c-.21992851-3.52611-.43975629-8.764902-.87951258-22.869342-.10991388-2.619396-.65958406-4.735062-1.20935498-4.735062-1.20925424 0-1.20925424.50373-.98932572 8.664156.10991389 4.432824-.3298424 6.447744-1.64911127 7.455204-2.41850848 1.813428-3.40793495.50373-1.8688383-2.51865 1.20925423-2.417904 1.09934035-2.51865-.87951258-1.51119-2.1986807 1.108206-2.638437 2.115666-2.1986807 4.936554.10991388.906714-.54967018 1.208952-2.08876683.805968-1.31926887-.302238-2.30869533-.201492-2.30869533.302238 0 .402984-.65958406 1.00746-1.53909664 1.309698-1.09934036.402984-1.31916813 0-.98942647-1.410444.3298424-1.00746 1.20935498-1.914174 1.86893905-1.914174.76949794 0 2.08876681-1.208952 2.9682794-2.619396.76949794-1.51119 2.41850847-2.921634 3.51784882-3.324618 1.97885293-.705222 1.97885293-.805968.11001463-2.216412-1.20935498-.805968-1.64911127-.906714-1.09934035-.201492.43965555.805968.21982777 1.309698-.6596848 1.309698-.76949795 0-2.52852311 1.611936-3.95760512 3.52611-1.31926887 1.914174-2.9682794 3.52611-3.62796421 3.52611-.54967018 0-.76949795.402984-.43965554 1.00746.32974165.50373.21982777 1.00746-.21992852 1.00746-1.31916813 0-3.62786346-2.216412-3.62786346-3.425364 0-.604476.43975629-.50373.98942646.302238.7695987 1.00746 1.97885294.402984 5.1669601-2.921634 5.38688863-5.440284 5.49680251-5.641776 2.41860923-7.152966-2.08876682-.906714-2.30869534-.906714-1.20935499.100746.98942647 1.00746.7695987 1.712682-1.31916812 3.223872-1.53909664 1.108206-2.638437 2.417904-2.41860922 3.02238.10991388.604476-.54967018 1.309698-1.42918276 1.51119-1.429082.402984-1.429082.302238 0-.604476 1.42918276-.906714 1.31926887-1.108206-.43965554-1.108206-1.97885293 0-1.86893905-.302238.76949795-2.820888 1.64901052-1.51119 2.9682794-3.223872 2.9682794-3.626856 0-.50373-.98942647.201492-2.19868071 1.51119-2.9682794 3.324618-2.74845163 2.01492.54967018-3.324618 2.5285231-4.231332 3.07819328-4.53357 6.70605674-4.231332 3.51794957.201492 3.73777735.100746 1.8688383-1.108206-1.42908201-1.00746-2.1986807-1.00746-2.74835088-.201492-.43975629.604476-1.20925424.805968-1.64901053.302238-.7695987-.604476 7.91531098-17.328312 9.56432151-18.235026.3298424-.201492.54967018 3.626856.54967018 8.361918 0 6.447744-.43965555 9.06714-1.64901053 9.873108-1.20925424.906714-.98942647 1.108206 1.53909664.906714 3.07819329-.302238 5.4968025-1.51119 3.07819329-1.51119-.98942647 0-1.20925424-3.425364-.87941184-12.895488.32974166-10.57833.76949795-13.499964 2.74835088-17.026074 1.20925424-2.317158 2.3085946-5.0373 2.3085946-6.04476 0-1.410444.21992851-1.51119.98942646-.402984.7695987 1.108206 1.20935498 1.00746 2.19878145-.705222 1.53909664-2.51865 1.53909664-4.332078.10991388-2.216412-1.86893904 2.619396-1.20935498-.604476 1.09934036-5.440284 1.09934035-2.51865 2.5285231-4.634316 2.9682794-4.634316.43975628 0 .65958406 2.51865.54967017 5.54103-.21992852 3.02238-.87951258 5.54103-1.42918276 5.54103-.54967017 0-.98942646.50373-.98942646 1.108206 0 .50373.43975629.705222 1.09934035.402984.6596848-.402984.7695987 4.735062.3298424 14.507424-.65958406 14.708916-.10991388 20.854422 1.75892442 19.846962 1.20935498-.705222 1.42918275-46.141668.3298424-47.753604-1.09934035-1.51119-.43975629-6.246252.87951258-6.246252.54967018 0 1.42918276 2.417904 2.08876682 5.238792zm-27.3739979 3.324618c-4.3973614 2.921634-4.3973614 2.921634-4.3973614 1.00746 0-.906714 1.09934035-2.01492 2.5285231-2.51865 4.61728993-1.712682 5.6067164-1.00746 1.8688383 1.51119zm-24.0758761 16.723836c-.65958406 1.611936-1.09934035 1.813428-1.09934035.705222-.10991388-2.216412 1.31926887-5.54103 1.75902516-4.231332.21982778.604476-.11001463 2.216412-.6596848 3.52611zm4.83721845 6.951474c.32974166.50373.10991389 1.00746-.43975629 1.00746-.65958406 0-1.20925424-.50373-1.20925424-1.00746 0-.604476.21982777-1.00746.43965555-1.00746.3298424 0 .87951258.402984 1.20935498 1.00746zm19.78832783 8.05968c-2.3085946 3.929094-4.39736141 6.951474-4.61728993 6.649236-.54967017-.50373 1.53909664-4.634316 5.82664491-11.384298 3.73777735-5.843268 2.85826477-2.619396-1.20935498 4.735062zm-2.74835088-1.309698c0 1.309698-5.82654417 8.361918-7.03589915 8.56341-.65958406 0-1.75892441.201492-2.41850848.201492-.6596848.100746-2.08876681.705222-3.07819328 1.51119-2.85836551 2.216412-3.51794957.402984-.87951258-2.216412 2.5285231-2.417904 3.29802106-4.332078 1.31916812-3.223872-.54967017.302238-1.09934035.201492-1.09934035-.302238s2.19878145-1.309698 4.94713233-1.712682c2.74835088-.302238 4.72720381-1.00746 4.39746216-1.51119-.3298424-.402984.10991388-1.108206.76949794-1.309698 2.08876682-.805968 3.07819329-.805968 3.07819329 0zm-19.78842858 3.828348c.11001464-1.914174.11001464-1.914174 1.53909665-.302238 1.75902516 2.216412 2.8583655 2.317158 2.8583655.402984 0-.805968.4397563-1.712682.98942647-2.115666 2.1986807-1.208952.3298424 4.735062-2.08876681 6.850728-2.1986807 2.01492-2.41860923 2.01492-1.75902516.302238.54977092-1.611936.43975629-1.712682-.98932572-.604476-1.53909665 1.108206-2.08886757.705222-1.75902516-1.208952 0-.402984-.65958407-.50373-1.53909665-.201492-1.86893904.705222-2.30859459-2.115666-.54967017-3.123126.54967017-.302238.7695987-1.309698.43975629-2.317158-.21992852-.906714.21982777-.402984 1.09934035 1.309698 1.31926887 2.417904 1.64901053 2.619396 1.75892441 1.00746zm-8.02522486 3.52611c.32974165.805968.76949794 2.216412.76949794 3.02238.11001464.906714 2.19878145 2.115666 4.94713233 2.921634 4.39746216 1.309698 5.276874 1.208952 10.22400632-.705222l5.4968025-2.115666-1.64911127 2.216412c-.98932572 1.208952-2.30859459 2.115666-2.96817865 1.914174-.6596848-.100746-.98942646.201492-.6596848.705222.6596848 1.00746-12.6425148 21.761136-15.1710379 23.776056-.65968482.50373-2.19878146 2.720142-3.4080357 4.835808-1.20925423 2.115666-2.63843699 4.130586-3.07819328 4.432824-.98942647.50373-.3298424-5.843268 1.42918276-13.802202.87951258-3.929094 1.75892441-14.60817 2.30859459-28.71261.11001463-2.216412.3298424-3.123126.6596848-2.01492.21982778 1.108206.76949795 2.720142 1.09934036 3.52611zm24.51563238 34.75737c4.39736141 2.115666 5.6067164 1.914174 10.66366186-1.410444l4.28754827-2.820888.21982777 7.55595.10991389 7.55595-5.71663028-.705222c-19.67841394-2.317158-23.3062774-2.51865-23.6361198-1.611936-.21982778.604476-1.75892442.705222-3.29802106.402984-3.95770586-.906714-4.06761975-1.108206-2.41860922-2.921634 1.09934035-1.208952 1.75892441-1.309698 2.85836551-.402984 1.20925424.906714 1.53909664.805968 1.53909664-.100746 0-1.00746.32974166-1.00746 1.64901053 0 1.31916812 1.00746 1.64901053 1.00746 1.64901053-.302238 0-.906714-.4397563-1.914174-1.09934035-2.216412-.54967018-.302238-1.09934036-1.108206-1.09934036-1.611936 0-.604476.54967018-.705222 1.09934036-.402984.65958406.302238 1.09934035-.302238 1.09934035-1.51119s.43975629-1.813428 1.20925424-1.51119c.6596848.402984.87951258 1.208952.6596848 1.914174-.6596848 1.51119 1.09934036 5.641776 2.41850848 5.641776.54967018 0 .3298424-2.115666-.54967018-4.735062-2.1986807-6.54849-1.8688383-7.656696.65968481-2.619396 1.09934035 2.417904 2.638437 4.332078 3.29802106 4.332078 1.64901053 0 1.42918275-.906714-1.09934035-3.727602-1.20925424-1.410444-2.1986807-3.727602-2.1986807-5.238792.10991388-2.417904.21982776-2.417904 2.30859458 1.108206 1.09934035 2.115666 3.62786346 4.432824 5.38688862 5.339538zm39.79658418 10.175346c2.74845162 1.309698 3.18820791 2.01492 2.74845162 4.231332l-.54967017 2.619396 1.97875218-2.417904c1.97885293-2.317158 2.08886757-2.417904 4.17763438-.705222 1.09934036.906714 2.638437 1.712682 3.40793495 1.712682 1.64901052 0 19.34867228 5.641776 21.98710927 6.951474 3.84779198 2.01492-2.1986807 2.417904-8.57499579.604476-9.01465133-2.619396-18.68898747-4.432824-23.96586146-4.53357-3.18820792 0-4.72730456-.402984-4.72730456-1.309698 0-.805968-.98932572-2.216412-2.08876682-3.123126-1.64901052-1.410444-2.63843699-1.51119-4.3973614-.604476-2.638437 1.208952-3.07819329 4.02984-.65958407 4.02984.98932572 0 1.31916813-.604476.87941184-1.611936-.87941184-2.216412 1.86893904-1.410444 3.40803569.906714.87951258 1.309698.76949794 2.01492-.4397563 2.720142-1.97885293 1.208952-6.48622897 2.417904-7.14581303 1.914174-.21982777-.201492-.54967017-2.820888-.76949795-5.843268-.3298424-5.138046-.11001463-5.54103 2.41850848-6.246252 4.61728993-1.208952 8.79482356-1.00746 12.31277314.705222zm-47.05241184 2.01492c3.40803568 2.216412 4.06761975 3.02238 3.40803568 5.138046-.43975629 1.611936-.21982777 2.216412.54967018 1.813428.54967018-.302238 1.09934035-1.309698 1.09934035-2.115666 0-2.01492.7695987-1.813428 4.17763438 1.108206 1.64901053 1.410444 3.40793495 2.51865 3.84769124 2.51865.54967017 0 5.1669601 2.820888 10.44383409 6.246252 6.15638656 4.130586 8.7949243 6.447744 7.58556932 6.649236-1.75892441.302238-7.03589915-2.51865-10.44383409-5.54103-.7695987-.705222-2.08876682-1.309698-2.85836551-1.309698-.76949795 0-2.3085946-.906714-3.40793494-2.01492-1.0994411-1.208952-2.63853774-1.914174-3.4080357-1.611936-.76959869.302238-1.53909663.100746-1.7589244-.50373-.21992852-.50373-3.18820792-1.00746-6.7061575-1.208952-4.50727529-.100746-6.15638656-.604476-5.71663027-1.51119.6596848-1.813428-3.40793495-5.339538-5.49670176-4.634316-.87951258.402984-1.64911128 1.208952-1.64911128 2.01492s-.54967017 1.410444-1.20925424 1.410444c-.87951258 0-.87951258.402984.10991389 1.410444.65958406.805968 1.97885293 1.208952 2.9682794.906714.98942646-.402984 1.20925424-.805968.43975629-1.208952-.65958406-.402984-.7695987-1.208952 0-2.115666.87951258-1.309698 1.09934035-1.309698 2.08876682 0 1.97885293 2.820888.76949794 4.53357-3.62786346 4.835808l-4.17753364.302238.54967018-5.843268c.21982777-3.223872.54967017-5.944014.54967017-6.04476.10991389-.100746 1.75892442-.402984 3.73777735-.604476 1.86893904-.201492 3.73777734-.50373 4.06761975-.50373.3298424-.100746 2.5285231 1.00746 4.8371177 2.417904z"/><path d="M21.90157013 7.546771c.3298424 1.208952-.21982777 3.02238-1.42918275 4.332078l-2.08876682 2.216412 2.5285231-1.914174c2.30869534-1.914174 3.4080357-6.649236 1.42918276-6.649236-.54967017 0-.76949795.906714-.43975629 2.01492zM52.68350297 6.136327c-.32974166.302238-.32974166 1.309698 0 2.216412.4397563 1.00746.21992852 1.309698-.54967017.805968-.76949795-.402984-1.31916813-.302238-1.31916813.201492 0 .604476.65958406 1.208952 1.42908201 1.51119.87951258.302238 1.53909664-.50373 1.64911128-2.417904.21982777-2.921634 0-3.425364-1.20935499-2.317158zM47.51654287 7.647517c0 .50373.54967018.705222 1.09934035.402984.65968481-.302238 1.0994411-.805968 1.0994411-1.108206 0-.201492-.43975629-.402984-1.0994411-.402984-.54967017 0-1.09934035.50373-1.09934035 1.108206zM56.31136643 10.972135c0 .805968.4397563 1.712682.87951258 2.01492.4397563.201492.87951258-.402984.87951258-1.51119 0-1.00746-.43975629-1.914174-.87951258-1.914174s-.87951258.604476-.87951258 1.410444zM42.01984111 11.576611c0 .604476.76949795 1.00746 1.64901053 1.00746.87941183 0 1.64901053-.201492 1.64901053-.402984s-.7695987-.604476-1.64901053-1.00746c-.87951258-.302238-1.64901053-.100746-1.64901053.402984zM22.56125494 13.087801c-.6596848.604476-.7695987 1.813428-.3298424 2.51865.65958406.906714 1.09934035.705222 1.64901052-.906714.87951258-2.720142.4397563-3.324618-1.31916812-1.611936zM53.01334538 35.856397c0 .50373.54967017.705222 1.09934035.402984.65958406-.302238 1.09934035-.805968 1.09934035-1.108206 0-.201492-.43975629-.402984-1.09934035-.402984-.54967018 0-1.09934035.50373-1.09934035 1.108206zM52.02391891 42.404887c0 1.108206.3298424 1.410444.65958406.604476.3298424-.705222.21992852-1.611936-.10991388-1.914174-.3298424-.402984-.65958407.201492-.54967018 1.309698zM38.3918769 20.039275c-.43965554 1.51119-.65958406 3.123126-.21982777 3.425364 1.09934035 1.00746 1.75892442-.604476 1.42918276-3.52611l-.3298424-2.820888-.87951259 2.921634zM26.95861635 20.442259c-1.20925424.906714-1.42918276 1.309698-.65958406.906714.76949794-.50373 3.29802105-.604476 5.82654416-.201492 3.40803569.50373 4.28754827.402984 3.84779198-.705222-.87951258-1.914174-6.70605675-2.01492-9.01475208 0zM42.56951129 19.636291c-.4397563.604476.87941183 1.108206 2.96817865 1.108206 2.5285231.100746 2.85836551.302238 1.20935498.604476-1.42918275.201492-2.5285231.805968-2.5285231 1.309698s-.7695987.705222-1.75902517.302238c-1.53909664-.50373-1.429082-.302238.21992852 1.51119 2.41860922 2.720142 4.28744752 2.820888 5.4968025.402984 1.20925425-2.51865 1.20925425-3.626856.1099139-5.0373-1.20935499-1.410444-4.72720382-1.611936-5.71663028-.201492zM27.28845875 23.565385c-.87951258 1.309698 2.1986807 4.53357 3.62786346 3.727602.65958406-.402984.87951258-1.208952.54967018-1.813428-.54967018-.705222.21982777-.906714 2.1986807-.604476 1.64901053.302238 2.85836551.100746 2.85836551-.604476 0-1.309698-8.4650819-2.01492-9.23457985-.705222zM37.62237896 26.084035c0 .805968.54967017 1.813428 1.09934035 2.115666.65958406.302238 1.09934035-.302238 1.09934035-1.410444 0-1.208952-.43975629-2.115666-1.09934035-2.115666-.54967018 0-1.09934035.604476-1.09934035 1.410444z"/><path d="M32.78526126 28.300447c-.54977092 1.309698-1.53909664 1.51119-4.61739067.906714-2.638437-.402984-3.73777735-.302238-3.18810717.402984 1.42918275 2.317158 10.44393483.302238 10.44393483-2.317158 0-1.309698-1.97885293-.50373-2.638437 1.00746zM40.92040001 28.501939c0 1.309698 4.94713233 2.115666 6.81607138 1.108206.98942646-.604476.76949795-.906714-.98942647-.906714-1.31926887 0-3.07819328-.302238-4.06761975-.604476-.98942646-.302238-1.75902516-.201492-1.75902516.402984zM37.62237896 33.740731c0 3.123126.3298424 3.828348 1.64901052 3.425364 1.97885294-.705222 2.1986807 1.108206.3298424 2.216412-.65958405.402984-1.86893904-.100746-2.74845162-1.108206-.76949795-1.108206-1.429082-1.51119-1.429082-.906714 0 .50373-.7695987 0-1.64911128-1.00746-1.64901053-2.01492-1.64901053-2.01492-1.64901053 0 0 2.619396 6.04647268 5.138046 8.24515339 3.425364 2.08876681-1.611936 2.08876681-3.626856.11001463-4.332078-.98942647-.302238-1.31926887-1.51119-.98942647-3.123126.32974166-1.51119.10991389-2.619396-.6596848-2.619396-.65958407 0-1.20925424 1.712682-1.20925424 4.02984zM27.28845875 43.311601c.4397563.805968.87941184 1.51119 1.09934035 1.51119.21982778 0 .4397563-.705222.4397563-1.51119s-.4397563-1.51119-1.09934036-1.51119c-.54967017 0-.7695987.705222-.43975629 1.51119zM33.11500292 43.714585c-1.64901053 1.712682-1.53909665 1.813428 1.97885293 1.914174 2.08876682.100746 3.40803569-.302238 3.07819328-.805968-.3298424-.50373-1.42918275-.705222-2.5285231-.402984-1.53909665.50373-1.53909665.402984-.32984241-.402984.98942647-.604476 2.5285231-.705222 4.06761975-.201492 1.42918276.50373 2.85836551.50373 3.18820792.100746.32974165-.50373-.21992852-1.208952-1.20935499-1.51119-2.9682794-1.00746-6.37621434-.50373-8.24515338 1.309698zM36.30311009 47.542933c.76959869.302238 1.75902516.201492 2.08876681-.100746.4397563-.302238-.21982777-.604476-1.429082-.50373-1.20935499 0-1.53909665.302238-.65968481.604476zM27.72821504 56.811565c0 .50373.54967018 1.309698 1.09934035 1.611936.65958407.302238 1.09934036.201492 1.09934036-.402984 0-.50373-.4397563-1.309698-1.09934036-1.611936-.54967017-.302238-1.09934035-.201492-1.09934035.402984zM114.57721106 57.919771c0 .50373.54967017 1.00746 1.09934035 1.00746.6596848 0 1.09934035-.50373 1.09934035-1.00746 0-.604476-.43965554-1.00746-1.09934035-1.00746-.54967018 0-1.09934035.402984-1.09934035 1.00746zM16.29485374 56.610073c-.43975629.906714-.10991389 2.317158.7695987 3.123126 1.31916812 1.208952 1.64901052 1.108206 2.1986807-.705222.7695987-2.619396-1.97885293-4.936554-2.9682794-2.417904zM13.54650286 64.367515c-1.42918276 1.51119-.54967018 2.619396 2.30859459 2.619396 2.41860922 0 2.5285231-.705222.43975629-2.51865-1.31916812-1.208952-1.75892441-1.208952-2.74835088-.100746zM99.18624464 51.774265c0 1.51119 1.75902516 2.216412 3.73777734 1.51119 2.74845163-.906714 2.08876682-2.417904-.98942646-2.417904-1.53909665 0-2.74835088.402984-2.74835088.906714zM101.16509757 56.005597c-2.41860922 1.208952-2.638437 3.929094-.4397563 3.929094 2.19868071 0 3.18810718-1.712682 1.53909665-2.317158-.87951258-.302238-.65958406-.604476.54967018-.604476.98942646-.100746 1.86893904-.604476 1.86893904-1.108206 0-1.309698-1.09934035-1.208952-3.51794957.100746zM99.29615852 66.986911c-.54967017 1.611936-.87941183 3.02238-.65958406 3.02238 1.20925424 0 4.94713233-3.626856 4.94713233-4.735062 0-2.51865-3.07819328-1.309698-4.28754827 1.712682zM46.41720252 55.602613c0 .100746 1.20925424 1.309698 2.74835088 2.720142l2.74845162 2.51865v-2.921634c0-2.619396-.43975629-2.921634-2.74845162-2.820888-1.53909664.100746-2.74835088.302238-2.74835088.50373zM56.31136643 56.005597c0 .50373-.43965554.805968-.98942646.50373-.54967018-.302238-.87941184.50373-.76949795 1.914174.10991388 3.223872 1.09934035 3.223872 2.638437 0 1.64901052-3.223872 1.64901052-3.52611.21992851-3.52611-.54977092 0-1.0994411.50373-1.0994411 1.108206zM88.63239591 54.091423c1.86893905 2.417904 2.30869534 4.231332.98942647 3.52611-.54967018-.302238-.87941183 2.417904-.87941183 6.04476.10991388 3.52611-.3298424 6.749982-.7695987 6.951474-.54967017.302238-.65958406.906714-.32974166 1.309698.21982778.50373 0 2.317158-.54977092 4.02984-.54967017 2.01492-.54967017 4.231332 0 5.742522 1.31926887 3.123126 3.7378781 3.324618 2.63853774.100746-.43975629-1.208952-.7695987-2.720142-.6596848-3.223872.11001463-.604476.3298424-2.820888.6596848-5.0373 1.8688383-13.09698 1.97885293-18.63801.65958406-20.1492-2.1986807-2.417904-3.62786346-1.813428-1.75902516.705222zM70.27325084 54.998137c-1.20935498.705222-1.75902516 1.712682-1.31926887 2.921634.3298424 1.00746.10991389 2.115666-.54967017 2.51865-.54967018.302238-1.09934036 1.51119-1.09934036 2.51865s-.76959869 2.317158-1.75902516 2.820888c-.98932572.50373-1.64901052 1.410444-1.429082 2.115666.65958406 1.813428 6.59614285-7.253712 6.15638656-9.167886-.54967017-1.611936 2.1986807-3.425364 3.40793494-2.317158 1.20935499 1.108206-2.30859459 7.858188-6.81597063 13.499964-6.15638656 7.55595-10.11409243 15.61563-13.3021996 26.798436-1.53909664 5.843268-1.75892441 8.764902-.3298424 7.958934.54967017-.402984.98942646 0 .7695987.705222-.4397563 3.223872.21982776 4.53357 2.30859458 4.634316 2.63853774.201492 2.63853774.402984.4397563-3.727602-1.53909665-2.720142-1.64901054-4.231332-.65958407-9.772362 1.31926887-7.455204 8.79482356-22.264866 12.5326009-24.985008 2.63853775-1.914174 7.69548322-12.08952 7.25582767-14.60817-.3298424-2.820888-2.63853774-3.52611-5.60671639-1.914174zM86.10397355 56.509327c0 1.108206.32974166 1.410444.65958406.604476.32974166-.705222.21982778-1.611936-.10991388-1.914174-.3298424-.402984-.65968481.201492-.54967018 1.309698zM60.70882859 65.072737c0 .50373.54967017.705222 1.09934035.402984.65958406-.302238 1.09934035-.805968 1.09934035-1.108206 0-.201492-.43975629-.402984-1.09934035-.402984-.54967018 0-1.09934035.50373-1.09934035 1.108206z"/><path d="M61.80816894 70.009291c0 .50373-.87951258.604476-1.8688383.302238-1.64911128-.604476-1.75902516-.402984-.65968481.906714.7695987.805968 1.31926887 1.712682 1.09934035 1.914174-.10991388.201492.4397563-.201492 1.20935499-1.00746 1.31916812-1.51119 1.75892441-3.123126.76949794-3.123126-.32974165 0-.54967017.402984-.54967017 1.00746zM55.21202608 75.449575c0 .201492.98942647.604476 2.19878145.906714 1.20925424.302238 2.1986807.100746 2.1986807-.402984s-.98942646-.906714-2.1986807-.906714c-1.20935498 0-2.19878145.201492-2.19878145.402984zM50.81466467 79.580161c-.87951258 1.108206-1.09934035 1.611936-.3298424 1.208952 1.64901053-.906714 2.30869533 3.324618 1.31926887 8.56341-.3298424 2.115666-.3298424 3.52611.21982777 3.324618 1.42918276-.906714 1.97885293-5.843268 1.20925424-10.477584-.76949795-4.130586-.87941184-4.332078-2.41850848-2.619396zM83.46543581 79.580161c-.43965554.805968-.21982777 1.712682.3298424 2.01492.65958407.402984 1.09934036-.302238 1.09934036-1.410444 0-2.51865-.65958406-2.720142-1.42918276-.604476zM79.39781606 80.990605c0 .50373.65968481 1.410444 1.53909664 2.01492 1.31926887 1.00746 1.42918276.805968.98942647-.805968-.54967018-2.115666-2.5285231-3.02238-2.5285231-1.208952zM55.76169626 82.098811c-.32974166.50373-.10991389 1.00746.43975629 1.00746.65958406 0 1.20935498-.50373 1.20935498-1.00746 0-.604476-.21992852-1.00746-.43975629-1.00746-.3298424 0-.87951258.402984-1.20935498 1.00746zM10.13846717 84.818953c0 .50373.65968481 1.813428 1.53909664 2.820888 1.53909665 1.914174 1.64911128 1.914174 3.84779198.100746l2.3085946-1.914174v5.641776c0 3.425364.43975628 5.742522 1.20935498 5.742522.65958406 0 .98942646-1.712682.76949794-4.332078l-.32974165-4.231332 3.84769123.201492c2.08876682.100746 2.85836551-.100746 1.64901053-.402984-1.20925424-.302238-3.40793495-1.00746-4.94703159-1.611936-1.53909664-.50373-3.62786346-.906714-4.72730456-.805968-1.09934035.100746-2.74835088-.302238-3.62786346-.906714-.87941183-.705222-1.53909664-.805968-1.53909664-.302238zM68.18448402 90.259237c-1.0994411.50373-1.97885293 1.611936-1.97885293 2.417904 0 .705222-.43975629 1.51119-1.09934035 1.712682-1.42918276.402984 0 4.835808 1.53909664 4.835808s6.48612823-4.02984 5.82654417-4.634316c-.7695987-.705222-4.06761975.705222-4.06761975 1.712682 0 .50373-.4397563.906714-.87951258.906714-2.1986807 0-.65958407-3.02238 2.08876681-4.02984 1.86893905-.805968 2.85836552-1.712682 2.41860923-2.619396-.65958407-1.611936-1.31916813-1.712682-3.84769124-.302238zM45.31786217 91.165951c2.08876681 1.309698 3.29802105 1.309698 3.29802105 0 0-.604476-1.09934035-1.00746-2.41850847-1.00746-2.08876682 0-2.19878145.201492-.87951258 1.00746zM11.78757845 109.098739c0 10.679076.43965554 18.13428 1.09934035 18.537264.65958406.50373.65958406.805968-.11001463.805968-.76949795 0-.87941184 1.51119-.32974166 4.735062.43975629 2.720142.87951258 5.440284.87951258 6.246252.10991388.805968.43965554 1.108206.87941183.805968.65968481-.604476.54967018-11.485044-.21982777-31.23126-.21992852-3.123126-.3298424-8.462664-.43975629-11.787282 0-3.324618-.43975629-6.04476-.87951258-6.04476-.54967018 0-.87941183 8.05968-.87941183 17.932788z"/><path d="M21.13207218 92.677141c0 .805968.21982778 1.51119.4397563 1.51119.21982777 0 .65958406-.705222 1.09934035-1.51119.32974165-.805968.10991388-1.51119-.4397563-1.51119-.65958406 0-1.09934035.705222-1.09934035 1.51119zM49.27556803 96.706981c-.3298424.906714-.6596848 2.417904-.54967018 3.324618 0 .906714.54967018.402984 1.09934036-1.208952.98942646-3.223872.65958406-4.835808-.54967018-2.115666zM21.24198607 98.822647c0 1.108206.3298424 1.410444.65958406.604476.3298424-.705222.21992852-1.611936-.10991388-1.914174-.3298424-.402984-.65958407.201492-.54967018 1.309698zM16.07502597 100.636075c-.4397563 1.00746-.21992852 2.216412.43975629 2.820888 1.31916812 1.208952 5.71663028.201492 5.71663028-1.309698 0-.604476-.54967018-.705222-1.31926887-.302238-.65958407.402984-1.8688383-.100746-2.638437-1.108206-1.42918275-1.712682-1.53909664-1.712682-2.1986807-.100746zM40.15090206 101.845027c-1.97885293.805968-3.62786346 1.914174-3.62786346 2.417904 0 1.309698.32974166 1.309698 3.73777735-.100746 1.53909664-.705222 2.9682794-1.813428 3.2981218-2.51865.32974166-.805968.43965555-1.410444.32974166-1.309698-.10991389 0-1.8688383.705222-3.73777735 1.51119zM48.72589785 103.859947c0 1.108206.32974166 1.410444.65958407.604476.3298424-.705222.21982777-1.611936-.10991389-1.914174-.3298424-.402984-.6596848.201492-.54967018 1.309698zM38.61180542 110.005453c-1.31926887 1.611936-1.31926887 1.712682.10991389.705222.87951258-.705222 2.638437-1.410444 3.84779198-1.712682 2.08876681-.402984 2.08876681-.50373-.11001464-.604476-1.31916812 0-3.07819328.705222-3.84769123 1.611936zM45.31786217 109.300231c0 .50373.54967017 1.00746 1.09934035 1.00746.65958406 0 1.09934035-.50373 1.09934035-1.00746 0-.604476-.43975629-1.00746-1.09934035-1.00746-.54967018 0-1.09934035.402984-1.09934035 1.00746zM50.37490838 112.826341c.21982777 5.238792 1.53909664 7.55595 1.53909664 2.619396 0-1.813428.4397563-3.02238.98942647-2.720142.54967018.402984.43975629-.50373-.21992852-1.914174-1.8688383-3.626856-2.41850847-3.123126-2.30859459 2.01492zM40.92040001 116.050213c-2.08876682 1.813428-3.29802105 3.324618-2.638437 3.324618 1.209355 0 7.69548322-5.843268 6.92598527-6.346998-.21992852-.100746-2.19878145 1.208952-4.28754827 3.02238zM17.3941941 118.165879c.87951257.402984 1.20935498 4.130586 1.09944109 10.679076 0 5.843268.32974166 10.0746.98942647 10.376838.65958406.201492 1.09934035-3.626856 1.09934035-10.0746 0-9.671616-.54967018-11.787282-3.2981218-11.787282-.54967018 0-.54967018.402984.10991388.805968zM41.90982648 119.072593c-1.42908201 1.51119-1.31916813 1.51119.98942646.402984 2.52852311-1.208952 3.07819329-2.115666 1.42918276-2.115666-.54967018 0-1.64901053.705222-2.41860922 1.712682zM28.8275554 123.102433c0 .604476.98942646 2.115666 2.30859458 3.425364l2.19878145 2.417904-1.86893904-3.02238c-2.638437-3.929094-2.638437-4.02984-2.638437-2.820888zM44.3284357 125.822575c-2.85836551 2.820888-1.86893905 3.52611 1.42918276 1.309698 1.20925423-.805968 1.8688383-1.914174 1.64901052-2.619396-.3298424-.805968-1.42918275-.302238-3.07819328 1.309698zM33.2249168 129.852415c0 .201492.7695987.705222 1.75902516 1.00746.87951258.302238 1.31916813.201492.98942647-.402984-.65968481-1.00746-2.74845163-1.410444-2.74845163-.604476zM21.79165625 132.673303c.3298424.402984 1.42918275.805968 2.5285231.805968.98942647 0 2.52852311.604476 3.29802106 1.208952 1.0994411 1.108206 1.20935498 1.00746.6596848-.302238-.43975628-1.00746-2.08876681-1.914174-3.84779197-2.115666-1.75892441-.201492-2.9682794-.100746-2.638437.402984zM30.47656592 137.005381c-1.75892441.705222-6.48622897 2.216412-10.44383409 3.425364-3.95770586 1.108206-6.04647268 2.01492-4.72730456 2.115666 2.41860923 0 21.21761133-5.843268 21.21761133-6.649236s-2.74845162-.302238-6.04647268 1.108206zM9.69871088 139.020301c-.32974166.906714-.65958406 2.216412-.54967017 2.820888 0 .705222.54967017.100746 1.0994411-1.208952.54967017-1.309698.87941183-2.619396.54967017-2.820888-.21992852-.201492-.6596848.302238-1.0994411 1.208952zM25.96918988 149.195647c-1.97885293 1.410444-1.97885293 1.51119.4397563.402984 1.31926886-.604476 2.41860921-1.309698 2.41860921-1.51119 0-.805968-.54967017-.604476-2.8583655 1.108206zM19.81280331 150.807583c.54967018.50373 1.75902516.805968 2.52852311.604476.87951258-.302238.3298424-.705222-1.09934035-1.108206-1.86893905-.402984-2.30869534-.302238-1.42918276.50373zM34.98394196 151.109821c-.3298424.805968-.10991388 1.51119.4397563 1.51119.65958405 0 1.09934034-.705222 1.09934034-1.51119s-.21992851-1.51119-.43975629-1.51119c-.21982777 0-.65958406.705222-1.09934035 1.51119zM38.28196302 157.154581c-.32974166.805968-.10991389 1.51119.43975629 1.51119.65958406 0 1.09934035-.705222 1.09934035-1.51119s-.21982777-1.51119-.43975629-1.51119c-.21982777 0-.65958406.705222-1.09934035 1.51119zM12.5570764 158.162041c.98942646 1.00746 2.30869533 1.611936 3.07819328 1.309698.7695987-.201492-.10991389-1.00746-1.75892442-1.712682-2.9682794-1.208952-3.07819328-1.108206-1.31926887.402984zM26.62877394 159.975469l-2.74835088 3.223872 2.9682794-2.01492c1.64901053-1.108206 3.07819329-2.619396 3.07819329-3.324618 0-1.712682-.10991389-1.51119-3.2981218 2.115666zM27.72821504 174.281401c-7.47565544 8.361918-19.2387584 15.917868-17.14999158 11.08206.3298424-.805968.10991389-1.51119-.43975629-1.51119-.65958406 0-1.09934035 1.00746-1.09934035 2.115666 0 1.813428.43975629 2.01492 2.9682794 1.51119 1.75892441-.402984 3.62786346-.705222 4.39746215-.805968.76949795-.100746 1.09934035-.50373.76949795-1.00746-.3298424-.402984-.10991389-.805968.3298424-.805968 1.64901053 0 12.42268703-10.477584 14.73128162-14.406678 1.75902516-2.921634.6596848-1.914174-4.5072753 3.828348zM20.91214367 185.061223c-.21982778.705222-.10991389 3.52611.3298424 6.346998l.65958406 5.0373.10991389-6.346998c.21992852-5.944014-.10991389-7.656696-1.09934035-5.0373zM26.07910377 191.609713c.43975629 1.00746 1.0994411 2.619396 1.31926887 3.626856.43975629 1.309698.98942646 1.51119 2.08876682.604476 1.20925423-.906714 1.20925423-1.51119-.3298424-3.52611-1.9787522-2.820888-4.28744753-3.324618-3.0781933-.705222zM12.5570764 195.941791c-.76949795 1.108206-.87951259 2.01492-.32984241 2.01492.98942647 0 2.63853774-3.02238 1.97885293-3.626856-.10991388-.201492-.87941183.604476-1.64901053 1.611936zM23.77050918 198.359695c.3298424 2.216412 1.09934035 4.432824 1.75892441 5.0373 1.75902516 1.611936 1.31926887-3.52611-.65958406-6.447744-1.64901053-2.51865-1.64901053-2.51865-1.09934035 1.410444zM19.59297554 199.568647c-1.20935498 2.820888-.6596848 5.238792 1.20925424 5.843268 2.85836551 1.00746 3.40803569-.604476 1.31926887-4.231332-1.42918276-2.51865-1.97885293-2.921634-2.5285231-1.611936zM14.7557571 207.124597c.11001463 1.309698.87951258 2.317158 1.42918275 2.115666 1.64901053-.302238 1.31926887-3.52611-.3298424-4.02984-.98932572-.302238-1.42908201.302238-1.09934035 1.914174zM43.11918146 62.554087c0 1.712682 4.39736141 5.440284 6.26630046 5.440284 1.09934035 0 1.42918275-.302238.87951258-.805968-.65968481-.402984-2.41860923-1.813428-4.06761975-3.123126-1.75902516-1.410444-3.07819329-2.01492-3.07819329-1.51119zM24.43009324 66.180943c0 1.108206 1.31926887 1.00746 3.2981218-.201492 1.31916813-.705222 1.09934035-.906714-.87951258-.705222-1.31926887 0-2.41860922.50373-2.41860922.906714zM34.87402808 65.677213c-3.2981218.705222-4.50737604 2.115666-2.30869534 2.921634 1.09934035.402984 2.638437 0 3.84779198-1.00746 1.09934035-.906714 2.30859459-1.309698 2.85826476-.906714.4397563.50373.54967018.201492.10991389-.50373-.76949795-1.309698-.98942647-1.309698-4.5072753-.50373zM41.47007019 65.979451c.3298424.50373.87951258 1.00746 1.20935498 1.00746.21982777 0 .4397563-.50373.4397563-1.00746 0-.604476-.54967018-1.00746-1.209355-1.00746-.54967017 0-.76949794.402984-.43975628 1.00746zM20.14264572 69.606307c-1.31926887 2.01492-2.1986807 3.929094-1.86893905 4.130586.54967018.50373 5.05704622-5.742522 5.05704622-7.05222 0-1.51119-.87951258-.604476-3.18810717 2.921634zM32.78526126 72.628687c-.98942647 2.317158-.87951258 2.417904 1.429082 2.417904 2.74845163 0 4.17753364-2.01492 2.19878146-3.123126-2.19878145-1.208952-2.85836551-1.108206-3.62786346.705222zM58.51014788 123.606163c0 .705222-.3298424 2.317158-.7695987 3.626856-.54967017 2.115666-.32974165 2.317158 2.52852312 2.01492 2.41860922-.201492 3.18810717-.906714 3.2981218-2.51865.10991388-1.410444-.3298424-2.01492-1.31926887-1.611936-.87951258.302238-1.53909664-.100746-1.53909664-1.108206 0-.906714-.4397563-1.611936-1.09934036-1.611936-.54967017 0-1.09934035.604476-1.09934035 1.208952zm3.84769123 3.828348c.3298424.50373.21992852 1.00746-.43975629 1.00746-.54967017 0-1.429082-.50373-1.75892441-1.00746-.3298424-.604476-.21982777-1.00746.43975629-1.00746.54967018 0 1.42918276.402984 1.75892441 1.00746zM55.1021122 127.132273c-.1099139 1.611936-.21982778 3.223872-.4397563 3.828348-.10991388.50373-.32974165 7.55595-.43975629 15.61563-.10991388 10.0746-.54967017 14.10444-1.20925423 12.895488-.65958407-.906714-1.20925424-4.634316-1.20925424-8.261172-.11001463-3.626856-.54967018-6.649236-1.0994411-6.649236-.54967018 0-1.53909664-2.115666-2.30859459-4.835808-.7695987-2.619396-1.53909664-4.02984-1.64901053-3.223872-.21992852.805968.54967018 5.138046 1.75892442 9.57087 1.31926887 4.53357 1.86893904 8.361918 1.31926887 8.865648-.54967018.50373-1.31926887-.604476-1.75902516-2.51865-1.09934036-4.634316-4.5072753-10.477584-6.59614286-11.182806-2.1986807-.805968-2.08876682-.302238.87951258 4.130586 1.42918275 2.01492 3.07819328 5.0373 3.84779198 6.749982 1.20925423 2.921634 4.7272038 18.940248 4.50727529 20.451438-.43965554 2.317158.21992852 4.231332 1.20935498 3.727602 1.53909665-.906714 1.31916813-6.145506-.54967017-12.59325-1.86893905-6.447744-1.97885293-9.268632-.10991389-3.828348.98932572 2.921634 1.53909664 3.52611 2.85826477 2.820888 1.31926887-.805968 1.64901053-3.324618 1.42918275-13.60071-.21992851-6.951474.10991389-15.414138.65958407-18.63801.43975629-3.324618.43975629-6.04476-.10991389-6.04476-.43975629 0-.98942647 1.208952-.98942647 2.720142z"/><path d="M50.15497986 134.990461c-.32974165 2.01492-.43965554 3.929094 0 4.231332.3298424.402984.65968481-.604476.65968481-2.115666s.4397563-2.51865.98942647-2.216412c.54967017.402984.76949795-.302238.43965554-1.410444-.76949795-2.820888-1.20925424-2.51865-2.08876682 1.51119zM58.51014788 135.594937c.87941184 1.410444.87941184 2.417904.10991389 3.324618-.87951258 1.00746-.7695987 1.712682.54967017 2.720142 1.53909665 1.108206 2.08876682 1.00746 3.95770587-1.108206l2.08876682-2.417904-2.74845163-1.309698c-1.53909664-.805968-2.85826477-1.813428-2.85826477-2.317158 0-.604476-.54967017-1.00746-1.09934035-1.00746-.7695987 0-.7695987.705222 0 2.115666zm4.39736141 3.324618c0 1.108206-2.08876682 1.51119-2.74835088.604476-.3298424-.50373.10991389-1.00746.98942647-1.00746.98942646 0 1.75892441.201492 1.75892441.402984zM57.52072142 145.165807c0 1.108206.32974165 1.410444.65958406.604476.3298424-.705222.21982777-1.611936-.10991389-1.914174-.3298424-.402984-.65958406.201492-.54967017 1.309698zM59.16973194 149.296393c-.65958406 1.410444-.54967017 1.51119.54967018.604476.7695987-.705222 1.09934035-1.51119.7695987-1.813428-.32984241-.302238-.98942647.201492-1.31926888 1.208952zM62.57776763 149.296393c-.3298424.50373-.54967017 4.432824-.6596848 8.865648-.1099139 4.432824-.32974166 8.764902-.43965555 9.57087-.11001463.805968.32974166 1.712682.87941183 2.01492.65968481.302238 1.20935499-3.52611 1.31926887-10.376838.32974166-10.0746.10991389-11.888028-1.09934035-10.0746zM59.49957435 153.326233c-.87951258 11.58579-.87951258 13.399218.10991388 13.399218.65958407 0 1.09934036-3.223872 1.09934036-7.55595 0-4.130586-.21982778-7.55595-.54967018-7.55595s-.65958406.805968-.65958406 1.712682zM56.31136643 162.796357c0 .50373.54967018.705222 1.0994411.402984.65958406-.302238 1.09934035-.805968 1.09934035-1.108206 0-.201492-.43975629-.402984-1.09934035-.402984-.54977092 0-1.0994411.50373-1.0994411 1.108206zM53.45310167 170.453053c-.10991389 3.828348-.21992852 8.664156-.21992852 10.880568-.10991389 2.216412 1.0994411 10.779822 2.5285231 19.14174 1.53909665 8.261172 2.74845163 15.414138 2.74845163 15.716376 0 1.00746 3.40793494 2.01492 4.61728993 1.309698.54967017-.402984.43975629-1.309698-.54967018-2.216412-2.5285231-2.720142-5.4968025-14.10444-7.14581303-27.100674-.87951258-7.05222-.87951258-7.152966 1.31916812-6.145506 2.19878145 1.00746 2.19878145 1.00746.54967018-.805968-1.31916813-1.410444-1.75892442-3.52611-1.64901053-7.455204.21992852-3.02238.10991389-6.54849-.21982777-7.858188-.87951258-4.332078-1.86893905-2.216412-1.97885293 4.53357zM49.8252382 180.426907c0 1.108206.32974166 1.410444.65958407.604476.3298424-.705222.21982777-1.611936-.10991389-1.914174-.3298424-.402984-.65958406.201492-.54967017 1.309698zM50.70465004 184.053763c-.32974166 2.921634.11001463 10.276092.6596848 10.679076.32974167.302238.54967018-2.216412.54967018-5.641776s-.21992851-6.246252-.54967017-6.246252c-.3298424 0-.65968481.604476-.65968481 1.208952z"/><path d="M57.41080753 185.464207c0 .805968.54967018 1.208952 1.09934035.906714.65958406-.302238 1.09934035-1.00746 1.09934035-1.611936 0-.50373-.43975629-.906714-1.09934035-.906714-.54967017 0-1.09934035.705222-1.09934035 1.611936zM58.29021936 190.098523c-.32974165.705222-.10991388 2.417904.3298424 3.828348.65958407 2.216412.76949796 2.01492.87951259-1.309698.10991388-3.828348-.3298424-4.735062-1.20935499-2.51865zM59.38955972 199.467901c.21992851 1.410444.6596848 2.51865.87951258 2.51865.21992851 0 .43975629-1.108206.43975629-2.51865s-.4397563-2.51865-.98942647-2.51865c-.43975629 0-.65958406 1.108206-.3298424 2.51865zM49.71532432 200.072377c0 .50373.54967018.705222 1.09934035.402984.65958406-.302238 1.09934035-.805968 1.09934035-1.108206 0-.201492-.43975629-.402984-1.09934035-.402984-.54967017 0-1.09934035.50373-1.09934035 1.108206zM50.37490838 204.505201c-.3298424.906714 0 1.51119.87951258 1.51119.87941184 0 1.75892442-.705222 2.1986807-1.51119.32974166-.906714 0-1.51119-.87951257-1.51119-.87951258 0-1.75892442.705222-2.1986807 1.51119zM61.25849876 204.001471c-.3298424.50373-.10991388 1.00746.4397563 1.00746.65958405 0 1.20925423-.50373 1.20925423-1.00746 0-.604476-.21982777-1.00746-.43975629-1.00746-.32974166 0-.87941183.402984-1.20925424 1.00746zM57.9604777 222.135751c-.54967017.906714-.43975628 1.51119.32974166 1.813428.98942647.302238.65968481 1.410444-.98942646 3.828348-2.74835088 4.231332-1.97885293 4.53357 1.09934035.50373 1.75902516-2.115666 2.08886756-3.52611 1.42918276-5.238792-.76949795-1.712682-1.20925424-1.914174-1.8688383-.906714zM62.13801134 226.367083c-1.64901053 1.914174-3.73787809 5.843268-3.18810717 5.843268.87941184 0 5.27687399-6.145506 4.8371177-6.649236-.3298424-.201492-1.09934035.100746-1.64901053.805968z"/><path d="M43.11918146 170.453053c0 1.208952-1.09934035 19.947708-1.64911127 30.526038-.98932572 16.723836-.43965555 23.272326 2.74845162 34.354386 1.42918276 4.735062 7.69548321 9.973854 11.87301685 9.873108l2.9682794-.100746-3.2981218-.805968c-3.29802106-.805968-3.29802106-.805968-.4397563-.906714 4.94713234-.201492 4.61739068-2.619396-.21982777-2.51865-2.30859459 0-4.06761975-.201492-3.95770586-.50373.11001463-.302238-1.09934035-1.914174-2.74835088-3.425364-1.75892441-1.712682-3.18810717-4.53357-3.73777735-7.55595-.43975629-2.619396-.98942646-5.440284-1.09934035-6.246252-.87951258-3.828348-.7695987-14.205186 0-33.044688.54967018-11.182806.65958406-20.350692.21982777-20.350692-.3298424 0-.65958406.302238-.65958406.705222zM38.17204913 198.057457c-.43975629.604476-.54967017 1.208952-.21982777 1.51119.21982777.302238.76949795-.201492 1.09934035-1.108206.76949795-1.712682.10991389-2.01492-.87951258-.402984zM37.29253655 203.497741c-.43975629.805968-.21982777 1.712682.3298424 2.01492.65958407.402984 1.09934036-.302238 1.09934036-1.410444 0-2.51865-.65958406-2.720142-1.42918276-.604476zM37.18262267 208.535041c-.3298424.805968-.10991389 1.51119.43975629 1.51119.65958406 0 1.09934035-.705222 1.09934035-1.51119s-.21982777-1.51119-.4397563-1.51119c-.21982776 0-.65958405.705222-1.09934034 1.51119zM55.76169626 247.322251l-3.29802106.805968 2.9682794.100746c1.64901053 0 3.29802105-.402984 3.62786346-.906714.32974166-.604476.54967017-.906714.32974166-.906714-.21982778.100746-1.75892442.50373-3.62786346.906714zM41.25024242 251.352091c-.3298424.805968-.98942647 2.51865-1.53909665 3.828348-1.42918275 3.324618.7695987 1.813428 2.85836552-1.914174.98942646-1.611936 2.1986807-2.921634 2.85826476-2.921634 1.75902516 0 0 4.332078-2.5285231 6.346998-1.31916813 1.00746-1.97885294 2.115666-1.53909665 2.417904.4397563.402984 1.20935499.100746 1.75902516-.705222.65958406-.805968 1.09934035-1.108206 1.09934035-.604476 0 2.417904 3.18810717-3.223872 3.29802106-5.641776 0-2.417904-.43975629-2.720142-2.85826477-2.619396-1.64911127.201492-3.07819328.906714-3.40803568 1.813428zM42.78933906 263.844595c-.4397563.906714-.21982777 1.813428.3298424 2.115666.65958406.402984 1.09934035.100746 1.09934035-.50373s.54967018-.805968 1.20925424-.402984c.7695987.402984 1.09934035.100746.7695987-.604476-.65968481-2.01492-2.74845163-2.317158-3.4080357-.604476z"/><path d="M17.83395038 218.609641c-.76949795.805968-2.5285231 1.51119-3.95760512 1.51119-1.75902516 0-2.63853774.604476-2.63853774 1.611936 0 1.309698.7695987 1.51119 3.07819329 1.108206l2.9682794-.604476v14.305932c0 7.858188.43975629 16.824582.98942646 19.846962.4397563 3.02238.98942647 6.54849.98942647 7.757442.10991388 1.309698.7695987 2.216412 1.42918275 2.01492.65958407-.100746 2.638437 1.309698 4.28744753 3.123126 3.62786346 3.929094 6.2664012 5.0373 15.28105253 6.145506 6.59614286.805968 11.65318907-.100746 11.65318907-2.115666 0-.50373.4397563-.705222.98942647-.302238 1.20925424.604476 4.94703158-2.51865 3.95760512-3.324618-.32974166-.302238-1.20925424 0-1.8688383.604476-.7695987.705222-2.1986807 1.208952-3.2981218 1.208952-1.09934036 0-1.97875219.402984-1.97875219.805968 0 1.309698-15.39096642.201492-18.7990021-1.309698-5.05704622-2.417904-9.23457986-8.462664-10.55384873-15.1119-.21982777-1.108206-.65958406-9.369378-1.09934035-18.436518-.4397563-11.58579-.21982777-16.824582.65958406-17.63055.6596848-.604476 1.20935498-1.51119 1.20935498-1.914174 0-1.309698-1.86893904-.906714-3.2981218.705222z"/><path d="M20.03273183 224.150671c0 .50373.54967018 1.00746 1.09934035 1.00746.65958407 0 1.09934036-.50373 1.09934036-1.00746 0-.604476-.4397563-1.00746-1.09934036-1.00746-.54967017 0-1.09934035.402984-1.09934035 1.00746zM12.4471625 240.874507c0 1.108206.32974167 1.410444.65958407.604476.3298424-.705222.21992852-1.611936-.10991389-1.914174-.3298424-.402984-.65958406.201492-.54967017 1.309698zM12.8869188 255.381931c.32974166.50373.87941183 1.00746 1.20925424 1.00746.21982777 0 .43975629-.50373.43975629-1.00746 0-.604476-.54967018-1.00746-1.20925424-1.00746-.54977092 0-.7695987.402984-.4397563 1.00746zM27.83812893 263.038627c0 1.108206.32974166 1.410444.65958406.604476.3298424-.705222.21992852-1.611936-.10991389-1.914174-.3298424-.402984-.65958406.201492-.54967017 1.309698zM14.3160008 272.710243c-2.41850847 2.216412-2.63843699 3.52611-.32974165 1.813428 1.42918276-1.108206 1.64901053-.604476 1.64901053 3.425364 0 2.921634-.4397563 4.53357-1.09934035 4.130586-.54967018-.302238-1.09934036-1.309698-1.09934036-2.115666s-.54967017-1.208952-1.09934035-.906714c-1.75902516 1.00746.87941184 4.53357 3.29802106 4.53357s2.638437-1.410444 1.31926887-8.56341c-.7695987-3.929094-.87951258-4.02984-2.63853774-2.317158zM25.5294336 273.415465c0 1.309698 4.28754826 3.52611 5.27697473 2.720142.32974165-.302238 0-.604476-.65968481-.604476-.65958406 0-1.97885293-.705222-2.85826477-1.611936-.98942646-.805968-1.75902516-1.108206-1.75902516-.50373zM23.33075289 276.437845c0 1.108206.54967017 2.317158 1.31926887 2.720142.65958406.402984.87941183.302238.43965554-.402984-.32974166-.50373-.21982777-1.208952.3298424-1.410444.54967018-.100746.32984241-.906714-.54967017-1.611936-1.31926887-1.108206-1.53909664-.906714-1.53909664.705222zM41.7999126 277.243813c.76959869.302238 1.75902515.201492 2.08876681-.100746.43975629-.302238-.21982777-.604476-1.42918276-.50373-1.20925423 0-1.53909664.302238-.65958406.604476zM45.31786217 278.553511c-.87951258.50373-1.20925424 1.208952-.7695987 1.611936.4397563.402984 1.64911128 0 2.63853774-.906714 1.97875219-1.813428.87941184-2.317158-1.86893904-.705222zM31.68582016 280.467685c-.43965554.50373.3298424.705222 1.53909664.402984 2.52852311-.604476 2.85836551-1.309698.65968481-1.309698-.87951258 0-1.86893905.402984-2.19878145.906714zM38.94164783 280.971415c.76949794.805968 1.64901052 1.108206 1.97875218.705222.3298424-.302238.98942647-.906714 1.53909664-1.410444.54967018-.402984-.32974165-.705222-1.97875218-.705222-2.41860922 0-2.74845163.201492-1.53909664 1.410444zM13.10674657 364.691341c-4.72720381 6.447744-5.05704622 7.354458-1.53909664 4.231332 1.42918275-1.208952 2.41860922-2.417904 2.1986807-2.619396-.10991388-.201492.7695987-1.712682 1.97885293-3.324618 1.31926887-1.611936 2.08876682-3.123126 1.86893905-3.425364-.3298424-.201492-2.30869534 2.01492-4.50737604 5.138046zM59.38955972 306.460153c.76959869.302238 1.75902516.201492 2.08886756-.100746.43965554-.302238-.21992852-.604476-1.42918276-.50373-1.20935498 0-1.53909664.302238-.6596848.604476zM55.1021122 309.986263c-.87951259 2.01492-1.53909665 7.253712-1.53909665 13.09698 0 5.440284-.3298424 9.873108-.65958406 9.873108-.3298424 0-.43975629 1.309698-.10991389 3.02238 1.09934036 6.649236 2.1986807 2.417904 2.52842237-9.470124.21992851-6.850728.76959869-12.794742 1.20935498-13.197726.32974166-.402984 1.64901053-.201492 2.74835088.302238 1.75902516.906714 1.97885293.705222 1.97885293-1.410444-.21982777-2.720142-1.64901053-4.634316-1.64901053-2.115666 0 .906714-.76959869 1.712682-1.75902516 1.712682-1.31916812 0-1.64901052-.604476-1.09934035-2.51865.98942647-3.52611.10991389-3.123126-1.64901053.705222z"/><path d="M58.51014788 324.695179c0 1.410444.65958406 2.216412 1.75892442 2.216412 1.53909664 0 1.64901052-.302238.3298424-1.813428-.7695987-.906714-1.64901053-1.914174-1.75902516-2.115666-.21982777-.201492-.32974166.50373-.32974166 1.712682zM44.76819199 333.258589c-1.31926887 1.410444-.87951258 4.735062.65958406 4.735062.54967018 0 .98942647-1.410444.98942647-3.02238 0-3.324618-.10991389-3.425364-1.64901053-1.712682zM58.51014788 332.956351c0 .50373.54967018 1.00746 1.09934035 1.00746.65958407 0 1.09934036-.50373 1.09934036-1.00746 0-.604476-.4397563-1.00746-1.09934036-1.00746-.54967017 0-1.09934035.402984-1.09934035 1.00746zM55.98162477 338.799619c-1.64901052 1.611936-2.74845162 3.52611-2.41860922 4.332078s.98942647 7.152966 1.42918276 14.205186c.87951258 12.492504 1.64901053 15.61563 3.29802105 13.197726.7695987-1.108206.4397563-6.346998-1.53909664-22.768596-.65958406-5.944014-.54967017-6.951474 1.20935499-8.160426 1.09934035-.705222 1.75892441-1.813428 1.53909664-2.51865-.3298424-.705222-1.64911128-.100746-3.51794958 1.712682zM61.91808282 337.590667c0 1.108206.3298424 1.410444.65968481.604476.32974166-.705222.21982777-1.611936-.11001463-1.914174-.32974166-.402984-.65958406.201492-.54967018 1.309698z"/><path d="M59.05981806 346.456315c.43975629 3.52611 1.20925424 7.958934 1.75892441 9.772362.54967018 2.216412.65968481.906714.10991389-3.626856-.32974166-3.929094-.65958406-8.261172-.65958406-9.873108.10991388-1.51119-.32974166-2.720142-.87951258-2.720142-.65958407 0-.76949795 2.619396-.32974166 6.447744zM42.01984111 344.441395c.76949795.705222 1.53909664.604476 2.30859459-.100746.98942647-.906714.7695987-1.208952-.98942647-1.00746-1.53909664.100746-1.97885293.50373-1.31916812 1.108206zM60.81874247 362.374183c.10991389.705222.54967018 2.417904.98942647 3.828348.7695987 2.115666.87951258 2.01492.7695987-1.208952-.11001464-2.115666-.54967018-3.828348-.98942647-3.828348-.54967018 0-.87951258.604476-.7695987 1.208952zM29.48713946 328.422781c-.3298424.805968-.10991389 1.51119.43975629 1.51119.65958406 0 1.09934035-.705222 1.09934035-1.51119s-.21982777-1.51119-.4397563-1.51119c-.21982776 0-.65958405.705222-1.09934034 1.51119zM19.59297554 339.202603c.32974166.402984-1.42918275.604476-3.95770586.402984-3.18810717-.302238-4.39746216 0-4.39746216.906714 0 2.115666 3.62796421 2.720142 8.24525414 1.309698 4.94703158-1.51119 6.37621434-3.727602 2.30859459-3.425364-1.42918276 0-2.41860923.402984-2.1986807.805968zM18.49363519 346.657807c-.43975629.906714-.43975629 1.914174-.11001463 2.216412.21992852.302238.7695987-.302238 1.20935498-1.208952.4397563-.906714.4397563-1.914174.10991389-2.216412-.21982777-.302238-.7695987.302238-1.20925424 1.208952zM12.33724862 350.586901c-.7695987.906714-1.0994411 1.813428-.7695987 2.115666.32984241.302238 1.09934036-.402984 1.86893905-1.51119 1.42918276-2.51865.87941184-2.720142-1.09934035-.604476zM13.43658897 354.616741c-.76959869.906714-1.20935498 1.712682-.98942646 2.01492.32974166.201492 1.09934035-.50373 1.8688383-1.51119 1.53909664-2.417904 1.0994411-2.619396-.87941184-.50373zM9.03912682 355.624201c-.76949795.906714-.87951258 1.51119-.21982777 1.51119.54967017 0 1.31916812-.705222 1.75892441-1.51119.3298424-.805968.4397563-1.51119.21992852-1.51119-.21992852 0-.98942647.705222-1.75902516 1.51119zM45.97744623 365.295817c-2.41850848 2.115666-4.06761975 2.317158-9.23457985 1.00746-2.74835088-.805968-3.51794958-.705222-3.51794958.402984 0 .805968 1.64911128 1.712682 4.17763438 2.01492 2.1986807.402984 4.5072753.805968 5.1669601.906714 1.09934036.201492 6.59604212-5.238792 5.93645806-5.843268-.21982778-.201492-1.42918276.50373-2.52852311 1.51119z"/></svg>