<svg xmlns="http://www.w3.org/2000/svg" viewBox="0 0 240 308"><title>Silos 195v</title><path d="M131.445 1.657c-14.3 3.6-26.6 12.7-29.2 21.4-2.1 7.2-1.5 17.4 1.4 24.5 3.8 9.3 9 17.3 11.8 18.4l2.5.9-2.5 1.9c-1.4 1-4.3 3.4-6.4 5.3-5.8 5.2-8.1 6.3-10.8 4.9-1.3-.6-5.5-2.4-9.4-4-3.9-1.7-8.8-4.1-11-5.4-2.1-1.3-5.1-2.9-6.5-3.5-5-2.1-14.1-8.5-20.4-14.2-3.5-3.2-8.5-6.8-11-8-8.1-3.8-22.5-5.6-22.5-2.7 0 2.1 2 3.2 8 4.5 3 .7 6.9 1.8 8.5 2.5 1.7.8 3.9 1.8 5 2.2 1.8.8-14.2 1.9-30.7 2.3-5.3.1-5.8.3-7.2 3.2-1.5 2.9-1.4 3.3.4 5.3 1.1 1.1 2.6 3 3.4 4.1 1.4 1.9 2.5 2 21.2 1.8 10.9-.1 20.9-.4 22.2-.8l2.5-.6-.6 6.8c-.4 3.7-1.1 8.9-1.5 11.5-.5 2.6-.6 5.1-.3 5.6s3.9 1.2 8 1.6c8.1.7 19.6 4.2 26.9 8.2 15.2 8.1 19.8 10.4 21.4 10.4 1.5 0 1.2 1.4-2.1 10.7-5.6 15.5-7.8 21.1-11 27.3-1.6 3-3.4 7.3-4.1 9.5-.7 2.2-2.6 6.6-4.1 9.7-1.6 3.2-2.9 5.9-2.9 6.2 0 .2 2.1.7 4.6 1.1l4.7.7-.7 6.4-.7 6.4h2.9c3.2 0 5.2 1.6 5.2 4.2 0 2.5 3.3 8.9 5.8 11.1 1.9 1.7 2.1 3.1 2.1 13.5 0 6.5.2 12.7.5 13.9.6 3-.9 8.2-5.1 17.1-2.7 5.6-3.3 7.9-2.6 9.1 1.4 2.2 5.9 2.6 8.8.7 1.9-1.2 2.5-1.3 3.4-.2.8.9-.7 3.9-6 11.7-3.9 5.7-7.8 10.8-8.7 11.3-.9.5-3.6 2.6-5.8 4.8-3.9 3.7-4.1 4.3-3.3 7.2 1.2 4.2 1.1 11.3-.1 13.7-1 1.8-.7 1.9 6.7 1.9 4.3.1 12.1.1 17.3.2h17c4.1-.1 15.6 0 25.5.1 9.9.2 20.1.1 22.7-.1 4.6-.4 4.7-.5 4.6-3.6-.1-1.7.9-6.2 2.1-9.8l2.2-6.7-2.6-4.1c-1.4-2.2-4.8-5.4-7.4-7.1-2.7-1.6-6-4.4-7.4-6.2-1.4-1.8-5-5.7-8.1-8.7l-5.7-5.5 3.3-.8c4.5-1.2 5.7-2.4 8-7.7 1.7-3.7 1.9-5.7 1.3-12-.4-4.1-.9-10-1.1-13-.3-3-.7-6.1-.9-6.8-.3-.7-.4-15.1-.4-32 .1-16.9 0-34.9-.1-40-.1-5 .2-9.2.6-9.2.4 0 1.7.9 2.9 2s4.7 2.5 7.9 3.1c5.4 1 6.2.8 11.2-1.6 9.1-4.4 10.3-7 14.9-30.5 2.6-13.4 3.5-15.8 6.1-16.4 1.4-.4 2.7-1.9 3.5-4.1 1.1-3 2.2-3.8 6.9-5.6 7.7-2.9 14-7 14.6-9.6.4-1.4-.2-3.3-1.3-5-3.8-5.4-3.7-5.9 3.2-12.9 6.1-6.2 8.2-10.4 5.2-10.4-.7 0-6.2 5-12.2 11.1-6.1 6.1-11.8 11.5-12.7 12-1.6.8-1.7.6-1.1-2.3.3-1.8 1.4-5.6 2.3-8.4 1.2-3.4 1.5-5.6.8-6.7-.5-1-.6-2.2-.3-2.7s0-.7-.7-.5c-1.8.8-6.3 10.5-9.3 20-3.1 9.9-3 9.7-8.9 12.9-5.4 2.9-11.6 3.4-15.4 1.2-1.3-.7-6.1-5.7-10.6-11.2l-8.3-9.9 2.7-3.2c4.7-5.3 6.3-12.1 5.8-23.7-.6-12.1-2.5-17.1-9-23.4-3.2-3.1-6.5-5-11.7-6.7-8.4-2.9-9.3-2.9-18.1-.6zm13.9 2.6c.4 2.4 1.9 3.5 3.8 2.8 2.1-.8 1.5-2.5-.7-1.8-1.4.4-2 .2-2-.9 0-2.6 5.6-.5 12.2 4.6 3 2.4 3.6 3.3 2.8 4.7-1.1 2.1.5 4.2 2.5 3.4 3.4-1.2 6 11.4 4.7 22.4-.8 6.5-1.6 9.2-4.3 13.2-1.8 2.8-3.5 5.1-3.9 5.1-.3 0-2.2-.8-4.2-1.8l-3.5-1.8 3.3-2.3c7.1-4.9 10.4-15.3 6.5-20.2-2.5-3.2-4.6-3.6-26.6-4.9-14.8-.9-16.1-.8-17.8.8-1 1-1.9 3.4-2 5.3-.2 1.9-.8 4.4-1.5 5.6-1.7 3-1.5 4.6.8 7.6 1.6 2.1 1.8 3 1 5.2-.8 2.1-.7 3.5.5 5.8.8 1.6 1.5 4.1 1.5 5.4 0 1.2.5 2.3 1.2 2.3.9 0 .9.3.1 1.1-3.1 3.1-14.2-14.7-16.3-26-1.5-7.9-1.3-9.8 1-10.4 2.1-.5 2.9-4.7.9-4.7-1.7 0 .1-4.1 3.5-8.2 2.4-2.8 3.4-3.4 4.8-2.7 1.3.7 2 .4 2.8-1.1.6-1.1.9-2.4.6-2.9-.3-.5 2-2.1 5.1-3.6 3.6-1.7 5.9-2.3 6.1-1.6.6 1.8 3.6 1.3 5.5-1 2.5-2.8 11-2.4 11.6.6zm-13.4-.5c-.3.5-1.1 1-1.6 1-.6 0-.7-.5-.4-1 .3-.6 1.1-1 1.6-1 .6 0 .7.4.4 1zm-16.5 8c0 .5-.4 1-1 1-.5 0-1-.5-1-1 0-.6.5-1 1-1 .6 0 1 .4 1 1zm49 3c0 .5-.4 1-1 1-.5 0-1-.5-1-1 0-.6.5-1 1-1 .6 0 1 .4 1 1zm-60.3 13.2c-.3.8-.6.5-.6-.6-.1-1.1.2-1.7.5-1.3.3.3.4 1.2.1 1.9zm22.8.8c.4.6.3.9-.2.8-.4-.2-.9.1-1.1.7-.2.5-1.3 1.6-2.5 2.3l-2.2 1.3 2.3-.5c1.8-.3 2.2-.1 1.8 1-.3.8 0 1.4.7 1.4.8 0 .7.4-.3 1-.8.5-1.7.6-2 .2-.3-.4-1.4-1.4-2.4-2.2-1.8-1.4-1.9-1.4-.8.7 1 1.9.9 2.3-.9 2.8-1.1.4-2.3.4-2.6.1-.4-.3.1-.6 1-.6 1.3 0 1.6-.8 1.2-4-.3-3.7-.2-3.9 1.6-3 1.5.8 1.9.7 1.9-.4 0-2.2 3.4-3.4 4.5-1.6zm7.5 3.9c0 2.1.3 4.1.7 4.5.4.3.8 3.4.9 6.7.1 3.4.8 6.6 1.4 7.2 1 .9 1.2.8.7-.6-.4-1-.1-2.6.5-3.7 1.2-1.9 1-2.6-2.2-9.1-.6-1.1-.3-2.2.8-3.3 1.6-1.6 1.6-1.8 0-3-2.5-1.8-2.2-2.6.7-2.6 3 0 4.3 3.9 2.6 7.7l-1.2 2.6 4.7-.6c2.5-.2 5-1.1 5.5-1.8 1.5-2.5 1 .9-.6 4.1-.9 1.8-1.1 3.1-.5 3.5 1 .6 1.9-.9 2.4-3.9.1-.8.5-1.8.9-2.2.3-.4.1-1.6-.5-2.7-.9-1.8-1.2-1.9-2.2-.5-.6.8-2.5 1.7-4.1 2.1-3 .6-3 .5-3-4v-4.5l7.5.7c7.2.7 12.5 2.6 13.4 5 .2.6 0 3.1-.4 5.4-1.5 8.4-13.6 16.5-21.6 14.5-1.9-.5-2.5-.4-2 .5.4.6 2.5 1.1 4.7 1.1 2.1 0 3.9.2 3.9.4s.3 1.1.6 2c.5 1.4-.6 1.6-8 1.6h-8.6l-.1-5.3c-.1-2.8-.3-4.5-.6-3.7-.6 2.2-5.6 5.7-6.1 4.2-.2-.7-.8-1.2-1.4-1.2-.7 0-.6.5.1 1.4 1 1.1.8 1.6-.6 2.4-1 .6-1.4 1.4-.9 1.9.5.4 1.1.2 1.3-.5.3-.6 1.1-1.2 1.9-1.2.8 0 1.4-.5 1.4-1.1 0-.8.5-.8 1.5.1 1.3 1.1 1.3 1.5-.7 3.4-1.3 1.2-2.9 2-3.7 1.7-.9-.2-1.2 0-.7.7.3.6.2 1.3-.4 1.7-1.1.7-1.7-.5-2.4-5.3-.3-2.6-.1-3.2.9-2.8.9.3 1.2 0 .8-.9-.3-.8-.9-1.2-1.4-.9-1.9 1.1-2.8-.7-1.8-3.3.7-1.8.6-3-.1-3.7-1.5-1.5-1.2-3 .3-1.7 1 .8 1.4.7 1.4-.3 0-.8-.9-1.3-2.3-1.1-1.5.1-2.1-.2-1.7-1.1.3-.8.9-1.1 1.4-.8.5.3.6-.2.3-1-.4-1.1.4-1.7 3.1-2.2 4.2-.8 4.6-.5 5.1 3.4.3 2.6.1 2.9-2.4 2.5-2.3-.3-2.4-.2-.7.6 1.9.9 1.8 1.2-.4 1.5-1.5.2-2.5 1.6-1.2 1.6.7 0 .9.6.6 1.2-.4.7 0 .5.8-.5 2-2.4 2.8-2.1 2.5 1-.2 1.9.2 2.8 1.1 2.8 1.2 0 1.5-2.2 1.5-10.6.1-8.9.4-11 1.9-12.7 2.7-2.9 4.7-1.7 4.7 2.7zm-100 10.8c5.3 1.4 12.6 6 16.3 10.1 1.5 1.6 1.7 2.9 1.2 6.7l-.7 4.6-5.7-.2c-3.2-.1-6.3.1-7.1.6-1.9 1.2-30.2 1.2-32 0-1.1-.7 2.5-1.2 12-1.5l13.5-.6-13.7-.2c-7.8-.1-13.9-.6-14.3-1.2-.4-.6 4.4-1 13.8-1 11.9 0 14.4-.3 14.4-1.4 0-1.1-.5-1.2-1.7-.6-2.3 1.2-28.2.8-28.7-.5-.2-.6 4.8-1 13.7-.9 8.4 0 14.3-.3 14.7-.9.4-.7-3-.9-9.8-.5-10.5.5-19.7-.3-16.9-1.4.8-.4 9.4-.9 19-1.3l17.5-.6 2.3 3c1.2 1.7 2.7 3.1 3.3 3.1.5 0-.1-1.5-1.5-3.3-1.5-1.9-2.6-3.9-2.6-4.5 0-.6-1-1.4-2.2-1.8-1.3-.3-3-1.2-3.8-1.9-.8-.7-4.6-1.9-8.4-2.7-8.2-1.6-10.2-3.8-2.9-3.1 2.6.3 7.3 1.1 10.3 2zm201.5 5.8c-1.5 1.9-5.3 5.7-8.6 8.6-3.3 2.9-7.4 7-9.1 9.1-2.7 3.5-2.9 4.1-1.5 5.6.8.9 1.9 2.7 2.5 3.8 1.1 2 .7 2.3-4.7 4.3-3.2 1.1-6.8 2.1-7.9 2.1-2.2 0-4.7-3.4-3.7-5 .3-.6.8-1.8 1-2.7.8-4.3 6.8-20.9 7.7-21.4.5-.3.9-.9.9-1.3-.3-1.8 0-2.6.8-2.6 1.1 0 .6 5.1-.7 7.7-.5 1-1.2 4.3-1.6 7.3-.4 3-1.2 6-1.7 6.6-1.2 1.4-.1 6.4 1.3 6.4.5 0 .7-1.3.3-2.9-.6-2.8.3-3.9 12.6-16 12.9-12.9 17.6-16.5 12.4-9.6zm-85.3 6c.9.4 1.3 1.7 1.1 3.8-.2 2.4-.1 2.7.5 1.2.6-1.3 1.1 1.9 1.6 9.5.8 12.4 1.4 22.9 1.5 27.1.1 1.4 1.1 3.9 2.3 5.5 1.6 1.9 2.3 4.4 2.5 7.6.2 6.1 2.6 13.4 6.9 20.9 1.8 3.3 3 5.9 2.6 5.9-1.5-.1-5.3-4-4.8-4.9.4-.5.2-1.2-.3-1.5-.9-.6-3.3-7.4-4.6-13-.3-1.5-.8-2.6-1.1-2.3-.3.3.2 3.1 1.1 6.2 1.6 5.7 1.5 8.3-.3 4.8-.7-1.4-2.9-9-3.7-13.3-.1-.3-.4-1.9-.8-3.5-1-4.2-3.4-24.3-4.2-34.8-.8-10.5-2.3-11.7-1.8-1.5.6 12.7 5.6 44.6 7.8 50 .6 1.6-.2 1.8-8.6 2-5.2.1-11.3 0-13.6-.1-3.4-.2-4.3.1-4.3 1.3 0 .9-.4 1.6-1 1.6-.5 0-1-.5-1-1.1 0-1.4-5 2.2-11 8.1-5.6 5.5-6.4 4.4-2.3-3.1 2.1-3.9 3.2-4.9 5.2-5h2.6l-2.5-1c-3.8-1.5-7-5-7-7.5 0-2.2.1-2.2 3.3-.9 3.5 1.5 17.6 3.7 18.8 2.9.4-.2 3.7-.6 7.4-.8 6.2-.3 10.4-1.4 5.3-1.4-1.3.1-4.3-.2-6.8-.5-3-.4-3.8-.3-2.5.3 1.4.6 0 .9-4.7.9-4 .1-6.8-.3-6.8-.9 0-.6-1.1-.8-2.6-.4-2.5.6-12.4-3-12.4-4.6 0-.3 1.4-1.9 3-3.5 3.5-3.3 4.6-6.9 6-18.7 2-16.3 2-16.5 3.6-21.9.4-1.3.2-1.9-.4-1.5-1 .6-2.2 7.1-3.7 19.1-1.8 14-2.8 18.2-5 21-1.6 1.9-1.6 1.9-1-1 1.6-7.5 2-12.4 1.5-18s-.6-5.3-1.2 4.5c-.9 13.9-1.8 19.2-2.9 16.5-.7-1.9-.8-1.9-.8.2-.1 1.3-.6 2.3-1.1 2.3-.7 0-.8.6-.2 1.7.7 1.1.4 3-.9 6.1-1.1 2.4-4.4 12.4-7.4 22.1-3 9.7-6.1 19.6-7 22-1.3 3.9-2.1 11.6-.8 8.2.5-1.1.7-1.1 1.4 0 .6.9.8.4.6-1.5-.1-1.6.3-3.1.9-3.3.8-.3 1 1 .7 3.8-.4 3.1-.2 4 .7 3.4.7-.4 1-2 .8-3.6-.3-1.6-.1-2.9.3-2.9 1.4 0 2.2 2.2 2.1 5.7-.1 1.8.3 3.3.8 3.3.6 0 1-1.6 1-3.6 0-4.7 1.9-3.4 2.2 1.4.1 3.6.1 3.6.5.5.3-2.3.8-3 1.9-2.6 1.4.5 2-3.2 1.4-9.5-.3-3.8 6.3-9.6 12.2-10.7 2.4-.5 6.6 1.5 9.2 4.4 1.5 1.6 1.9 3.6 1.9 9.3-.1 9.5-.2 11-1.3 10.3-.5-.3-2.2 1.4-3.8 3.8-1.7 2.3-6.3 7.4-10.3 11.2-6.7 6.3-7.4 6.7-7.7 4.6-.2-1.2.3-3 1.1-3.9.8-.9 1.2-2.3.9-3.1-.2-.8 0-1.1.6-.7.6.3 1.7-.3 2.5-1.4.7-1.1 1.7-1.7 2-1.4.4.4-.7 2.4-2.3 4.4-5.1 6.5-3.3 5.4 2.2-1.2 2.9-3.5 5.4-6.5 5.7-6.8 1.5-1.3 7.9-9.7 8.9-11.7 1.6-2.9 1.5-3.4-.3-2.7-.8.4-1.2 1-.9 1.5.3.5.1.9-.4.9-.6 0-1.2 1-1.6 2.2-.7 2.9-9.9 14.3-10.4 12.9-.2-.5.6-2.8 1.7-5 1.2-2.2 2.1-4.4 2.1-4.8-.1-.4-.8.5-1.6 2.2-2.5 4.8-6.7 10.6-7.2 10-.3-.2.2-1.5 1-2.7.8-1.3 2.7-6.2 4.3-11.1 2.2-7.1 2.5-9 1.5-10.2-.7-.9-1.5-1.3-1.8-1-.3.2 0 1 .6 1.8.8 1 .5 3.3-1.3 9.1-1.3 4.3-2.7 8.1-3 8.5-.4.3-.6-2.1-.5-5.4.4-13.2.1-16.5-1.4-15.9-1.4.5-1.6 2.8-.3 4 1.1 1.2.8 4.9-.5 6.3-1.1 1.1-1 1.2.1.6s1.3.5.8 6.6c-.8 9.9-1.7 14.1-3.1 13.6-.6-.2-1-1.7-1-3.3.3-8.4.4-9.5 1.5-8.8.8.4.8.1.1-1.2-.5-1.1-.7-2.5-.5-3.2.3-.6 0-1.2-.5-1.2-1.1 0-2.4 14.7-1.8 20.3.3 2.1 0 5.2-.6 6.8-1 2.9-1.1 2.9-2.9 1.3-2-1.8-5.9-9.3-5.9-11.3 0-2.6 2.5.7 2.8 3.5.3 3.8 1.2 4.4 1.2.9 0-3.7 1.7-2.1 2.2 2l.4 3 .8-2.8c.7-2.4.4-3.3-2-5.8-1.6-1.6-5-3.7-7.7-4.7l-4.8-1.7.3-4.4c.2-2.6.9-4.6 1.6-4.9 1-.3 1.3.5 1.1 3.1-.2 2 0 3.9.4 4.3.4.4.7-.7.7-2.5 0-2.2.4-3.1 1.2-2.9.8.3 1.2 1.9.9 4.4-.1 2.1.1 3.5.6 3.1.4-.5.8-2 .8-3.3.1-1.3.5-2.3 1-2.2.6.2.9 1.8.7 3.5-.2 2 .1 3.3.8 3.3.6 0 1.1-1 1-2.3-.4-4.1.1-4.2 1.5-.2l1.3 4 .1-3.6c.1-2-.5-4.1-1.1-4.7-3.3-2.6-11-6.2-14.7-6.8-2.3-.4-4.4-1-4.6-1.5-.3-.4.5-3.2 1.9-6.1 6.6-14.8 14.6-34.1 16.6-40.3 1.2-3.9 2.7-7.5 3.3-8 .7-.7.8-.5.5.5-.3.8-1.3 4.2-2.2 7.5-.9 3.3-2.1 6.9-2.6 8-5.3 11.2-8.8 22.8-6 19.8 1.7-1.8 11.2-32.1 11.5-36.7.1-2.6.8-5.2 1.5-5.6 1.8-1.1.3-2.9-1.9-2.3-1 .2-2.6-.3-3.5-1.2-.9-.9-2.3-1.4-3.1-1.1-.8.3-1.5.1-1.5-.5 0-.5-1.3-1.5-3-2-2.6-.9-3-1.6-3.1-4.7-.1-2.8-.3-3.1-.6-1.2-.8 4.5-1.8 4-5.3-2.7-1.9-3.7-3.9-7.1-4.5-7.7-.5-.6-2.7-3.1-4.9-5.5-2.1-2.4-5.4-5.7-7.2-7.3l-3.4-3v2.8c0 2.3.2 2.6 1.1 1.4.8-1.2 1-1 .5 1-.4 2.2-.4 2.3.8.8.7-1 1.6-1.5 1.9-1.1.4.3.2 1.2-.4 2-.8.8-.8 1.3-.1 1.3.6 0 1.3-.6 1.5-1.3.4-.9.8-.9 1.6.3.5.8.7 1.9.4 2.5-.4.5-.3.7.1.3.4-.3 2.2 1 4.1 3 4.1 4.6 9.7 14.1 8.2 13.8-.7-.2-3.9-2.9-7.2-6.2-6.5-6.4-17.4-13.1-16.2-10 .4 1 .7 2.3.8 2.9 0 .7.4.3.9-.8.7-1.7.9-1.7.9-.3.1 1.2.6 1.5 1.7 1.1 1.4-.5 1.5-.3.5 1.8-1.1 2.2-1.1 2.3.3.5 1.4-1.8 1.6-1.8 4.3.2 1.5 1.1 4.4 3.7 6.3 5.7l3.5 3.6-3.5-1.5c-1.9-.8-3.5-1.9-3.5-2.4 0-.6-.4-1.4-.9-1.9s-.6-.3-.2.4c.9 1.6-.4 1.6-4.1.2-1.5-.6-4.4-1.2-6.3-1.4-1.9-.2-3.8-.4-4.2-.4-.8-.1-.3-16.7.8-23.7.5-3.8.8-4.2 2.1-2.8 1.3 1.3 1.3 2.3-.1 8.6-.9 3.9-1.4 7.3-1.1 7.6.6.6 1.1-1 2.4-8.2.6-3.3 1.3-6.1 1.6-6.4.2-.3 1.7.4 3.2 1.4 1.5 1 3.4 1.9 4 2 .7.1 3 1.3 5 2.5 2.1 1.3 6.5 3.7 9.8 5.4 5.4 2.7 6 3.3 5.8 6 0 1.6.1 2.5.4 1.8.2-.7 1.2-.9 2.1-.6 1 .3 1.3.2.6-.4-1.5-1.1-2.5-4.3-1.4-4.3.5 0 1.6 1 2.4 2.2.9 1.2 1.6 1.7 1.6 1 0-.6 1-1.1 2.2-.9 2.4.2 6.2 5.3 8.7 11.5.8 1.8 1.6 3.1 1.8 2.8.3-.2-.7-2.8-2.1-5.7-3-5.9-2.9-7.6.3-2.7 1.1 1.8 2.1 2.9 2.1 2.4 0-1.5-4.1-7.5-5.8-8.6-1.4-.8-1.5-1.1-.3-1.9.8-.5 2.1-.7 3-.4 1.2.4 1.3.3.3-.5-1-.7-.1-1.9 3.9-5.1 2.8-2.3 5.4-3.9 5.7-3.6.3.3-.3 1.2-1.4 2.1-1 .8-1.4 1.3-.7 1 .6-.4 1.4.2 1.6 1.1.3 1.3.5 1.2.6-.5.1-1.3.5-2 1.1-1.7.7.4.9-.2.5-1.8-.5-2-.2-2.8 1.5-3.7 1.2-.6 2.4-.9 2.7-.6.4.3 1.1-.4 1.7-1.7 1.1-2 1.9-2.2 11.9-2.5 9.7-.2 10.8-.1 10.5 1.4-.2.9.2 1.9.9 2.1.7.2 1-.3.8-1.4-1-4.9-1.4-8.3-1.1-8.3.3 0 1.1.2 1.8.5zm-95.2 4.1c0 1.1.6 1.3 2 .9 1.4-.5 2-.2 2 1s-.7 1.5-2.7 1.3c-2.2-.2-2.9-.9-3.1-3.2-.2-1.8 0-2.6.7-2.1.6.3 1.1 1.3 1.1 2.1zm103.8.3c3.9 3.3 3.9 6.1.2 7.3-2.1.6-1.9.7.9.4 3.3-.3 3.4-.2 1.5 1.3-2.4 2.1-2.9 4.2-.9 3.4 2.1-.7 3.6-3.8 2.9-5.7-1.2-3.1.6-1.5 6.2 5.6 5.3 6.6 5.8 7.7 6.4 13.7.7 6.2 1.2 5.6 1.4-1.7.1-1.7.6-3 1.1-2.9.6.2 1 2.5.9 5 0 2.6.3 4.7.8 4.7.4 0 .8-1.8.8-4 0-2.9.4-4 1.5-4 1.7 0 2 1.6.5 2.5-1.7 1.1-1.1 9.7 1.1 14.1 2.4 5 6.8 7.1 11.2 5.5l2.6-1-.5 5.2c-.3 2.9-.9 5.4-1.3 5.7-.3.3-.6 2.2-.7 4.2-.2 5-5.1 15.1-7.1 14.4-.8-.3-1.2-.2-.9.3 1 1.5-7.3 5.3-9.7 4.4-1.2-.4-2.7-.6-3.4-.5-2.1.4-3.4-3.6-2.8-9 .3-2.8.8-5.4 1-5.8.2-.3 1.1-6.2 2-13.1.8-6.8 1.8-13.5 2.1-14.7.2-1.3.1-2.1-.4-1.8-.5.3-1.2 3.7-1.6 7.6-.4 3.8-1.1 7-1.6 7-.4 0-.6.9-.3 1.9.3 1.1-.2 5.7-1.1 10.3-.9 4.6-1.7 9.6-1.9 11.3-.4 2.9-.4 2.9-.6-.5-.2-2.9-.4-3.2-1.1-1.5-.8 1.8-.9 1.7-.9-.8-.1-1.5-.5-2.7-.9-2.7-1.7 0-4.4-7.7-4.6-12.8-.1-1.2-.4-2.2-.8-2.2-.5 0-.8-.5-.8-1.1 0-.5.4-.8.9-.5.4.3.7-2.9.5-7.1-.2-4.1 0-8.2.5-9.1.6-1.1.2-2.1-1.3-3.4l-2.1-1.8 3 .5 3 .6-3.5-1.9c-3.2-1.7-5.7-2-3.5-.4.6.4 1.2 1.6 1.4 2.7.5 2.9 1 14.5.7 14.5-.2 0-1.1-1.2-2.1-2.6-.9-1.5-1.1-2.3-.4-1.9.8.6 1 .4.4-.5-.4-.7-.9-4.4-1.1-8.4-.9-15.6-1.6-24.3-2.3-28.9-1-5.6-.1-5.9 4.7-1.8zm67.2 3.9c0 1.4-6.9 8.2-8.2 8.1-1 0-1-.2 0-.6.6-.2 1-.8.7-1.3-.2-.4.9-2.2 2.5-3.9 2.9-3 5-4 5-2.3zm-168.2 2.6c.5 2.2-1.3 3.5-3.9 2.9-1.2-.4-1.9-1.4-1.9-3 0-2.1.4-2.4 2.7-2.1 1.8.2 2.9 1 3.1 2.2zm169.7.6c.7 1.1-5.8 8-7.5 8-1.6 0-1.2-.9 2.7-5 4-4.5 3.9-4.4 4.8-3zm-172.2 3.9c1.9.8 2.3 1.5 2 3.5-.3 1.6-1.2 2.6-2.2 2.6-2.5 0-3.9-1.8-3.3-4.6.5-2.8.3-2.7 3.5-1.5zm174.7.1c0 1.6-5.4 6.1-6.7 5.5-.7-.2-1.3.1-1.3.7s-.3.8-.7.4c-.4-.4.8-2.2 2.7-4.1 3.4-3.3 6-4.4 6-2.5zm-173.2 10.3c.3 2.3 0 2.7-2.1 2.7-3.1 0-4.8-2-4.1-4.7.9-3.2 5.8-1.6 6.2 2zm144.6.2c.5 1.8 1.5 2.7 3.6 3.2 4.6.9 3.2 5.3-1.6 5.3-3.9 0-7.5-5.7-6-9.5.9-2.4 3.3-1.7 4 1zm-5.4 3.6c0 1.9 3.3 5.9 4.8 5.9.8 0 .7 1.2-.2 3.7-1.2 3.5-1.6 3.8-5.4 4.1-4 .3-4.1.2-6.2-4.4-3-6.4-2.2-10.8 2.3-12.1 3.4-1 4.7-.2 4.7 2.8zm-90-2.1c0 .5-.2 1-.4 1-.3 0-.8-.5-1.1-1-.3-.6-.1-1 .4-1 .6 0 1.1.4 1.1 1zm80.1 3.2c-.5 1.4-.8 3.2-.7 3.9.9 4.4 1.9 6.8 2.7 6.3.5-.3.6.2.3 1-.8 2.1 3.2 3.9 7.2 3.3 4-.7 4.5.5.9 2.1-3 1.4-6.4 1.5-8.2.4-1.9-1.2-5.3-9.4-5.3-12.7 0-1.7.7-4.1 1.6-5.3 2-2.9 2.8-2.3 1.5 1zm-129.7-.1c1.7 1.5-.3 3.9-3.3 3.9-3.1 0-4.1-1.3-3.3-4.2.3-1.4 1.1-1.6 3.1-1.2 1.4.4 3 1 3.5 1.5zm57.5 37.1l2.4 2.8-3 5.7c-1.7 3.2-3.4 7.1-3.8 8.8-.3 1.6-1.3 3.7-2 4.5-2.2 2.5-9.8 21.6-7.7 19.6.4-.4 1.5-2.6 2.5-4.9 1.5-3.6 1.7-3.7 1.3-1.2-.3 1.6-.8 4.2-1.2 5.7-.5 2.3-.3 2.8 1.1 2.8 1.5 0 1.6-.2.4-1.7-1.1-1.3-1.1-1.7-.1-2 .6-.3 1.2-1.8 1.2-3.4 0-1.6.6-2.9 1.3-3 .8 0 .8-.2.1-.5-1.3-.5 0-8.2 1.7-9.9 1.2-1.2 1.2 3.7-.2 10.9-.8 4.3-.7 6.1.2 7.2.8 1 .8 1.4 0 1.4-.7 0-.9.9-.5 2.5.7 3 .4 3-3.8.7-1.8-1-4.3-2.4-5.4-3-2.2-1.1-2.2-1.2-.4-7.4 7.2-25.1 12.2-40.1 12.9-39.1.4.4 1.7 2 3 3.5zm22.5 5c1.4 1.9 1.6 2 1.6.5 0-1.4.4-1.6 1.9-.7 2.9 1.5 3.9 1.2 1.7-.5-1.8-1.4-1.3-1.5 5.3-1.5 7.6 0 7.7.1 4.2 4.5-.8 1.1 0 .6 1.9-1.1 3.2-2.9 3.6-3.1 5.1-1.5 1.8 1.8 3.5 6 3 7.6-.2.5-.3 5.9-.4 12-.1 6-.3 10.3-.5 9.3-.2-.9-1.1-1.9-2-2.3-1.4-.5-1.5-.4-.4.6 1.9 2 1.4 3.6-1.2 4.1-3.7.7-5-.5-4.3-4.3.5-3 .5-3.1-.5-1.2-.6 1.3-1.4 2.3-1.8 2.3-2.9 0-3.8-8.3-1.4-12.8.8-1.5 1.4-3.1 1.4-3.5 0-.5.9-2 2-3.4s2-3.1 2-3.7c-.1-2.8-7.6 11-8.3 15.4-.2.8-.8 2.4-1.4 3.5-2.4 4.4-4.1 9.5-3.2 9.5.5 0 .9-.8.9-1.8 0-1.1.6-.6 1.6 1.4 1.5 3 6 6.4 8.6 6.4.7 0-.3-1-2.2-2.1-4.5-2.8-5.9-4.8-6-8.4 0-4.6 1.6-6.4 2.4-2.8.8 3.5 4.5 7.3 7.2 7.5 1.1.1 3.1-.2 4.7-.5 1.5-.4 2.7-.5 2.7-.3 0 1-5.1 5.6-6.2 5.6-.6 0-.8.3-.5.6.4.4 1.8-.1 3.2-1l2.5-1.6-.1 4.2c0 2.4-.3 3.7-.6 3-.2-.6-.9-1.2-1.5-1.2s-.4.8.4 1.7c.9 1 1.8 4.5 2.1 7.8.4 3.9.3 5.4-.3 4.5-.8-1.2-1-1-1.1 1 0 2.3-.1 2.3-.9.5-.8-1.9-.9-1.9-.9.1-.1 3-3.8 3.9-4.4 1-.3-1.7-.5-1.5-.6.6-.2 3.9-2.1 3.5-2.3-.5l-.1-3.2-.4 3.1c-.3 2-1.1 3.4-2.1 3.6-2 .6-4.6-1.7-3.7-3.2.3-.5 0-.7-.8-.5-.7.3-1.9-.5-2.7-2-.7-1.4-1.6-2.3-1.8-2-.6.6 1.7 5.4 3.5 7.3.7.7 2.8 1.9 4.8 2.7 3.2 1.4 3.5 1.4 3.6-.2.1-1.7.2-1.7.6-.1.4 1.5.8 1.5 2.6.5 1.2-.7 3.4-2.3 5-3.6l2.7-2.5v3.1c0 3.4-4.2 7.8-8.6 8.9-1.3.3-2.4 1-2.4 1.5s1.3.3 3-.6c3.7-1.9 4-1.9 4.1.2.1 1.7.2 1.7.6 0 .5-1.9 2.3-2.3 2.3-.5 0 .7-.5 3-1.1 5.2-1.1 4.1-1.4 5.4-2.9 13-1.2 5.9-1.2 5.6 0 5.6.5 0 .6-.7.3-1.7-.4-.9-.2-1.4.3-1.1.5.3 1-1.3 1.1-3.6.1-2.2.8-6.1 1.6-8.6l1.4-4.5.1 6.5c.1 3.6.6 12.6 1.3 20 1 11.8 1 14-.4 17.2-1.6 3.8-2.8 4.4-8.4 3.9-1.2-.1-2.4.3-2.8.9-.5.8.7.9 3.7.6 3.9-.5 4.1-.4 2.4.9-4.3 3.2-8.5.7-10.6-6.3-.7-2.3-1.5-4-1.7-3.8-.3.2.2 2.7 1.1 5.5.9 3 1.1 4.9.5 4.5-.6-.3-2.8.2-4.9 1.1-2.7 1.2-5 1.5-7.4 1.1-3.6-.7-7-3.2-6.2-4.5.3-.4.7-4 1-8 .3-4 .8-8.9 1.1-10.9.5-3.6.4-3.6-.5-.7-.5 1.6-1.2 5.2-1.5 8-1.7 16.2-1.4 15.4-4.9 15.9-10.1 1.7-12.4 1.6-13 0-.4-1 .4-3.3 1.9-5.6 1.4-2.1 2.2-3.8 1.7-3.8-.4 0-1.6 1.6-2.7 3.6-2 3.8-6.9 8.4-8.8 8.4-3.5-.1-3.8-1.6-1.7-7.2 1.1-3.1 2.7-6.2 3.5-6.8 1.6-1.3 2.1-3.5.6-2.6-1 .6 1.5-4.5 5-10.4 6.3-10.4 19.9-40.7 19.9-44-.1-1.4-6.3 12.5-9.5 21.3-1.7 4.4-4.6 9.9-5.8 10.8-.5.3-.8.9-.7 1.3.3.9-6.1 12.8-6.6 12.4-.7-.8-.6-27.3.1-30.1.5-1.7 2-3.4 3.8-4.4 1.8-.9 5.5-4 8.4-6.9 2.9-2.9 5.3-5.1 5.3-4.8 0 1.3-8.3 15.1-9.7 16.1-.9.7-1.3 1.3-.9 1.3s.4.5.1 1c-.5.8-1.2.7-2.3-.2-1.3-1.1-1.5-1-.9.5.9 2.3-.2 4.7-2 4.7-1.3 0-1.4.8-.9 4.2.8 4.7 1.3 5.8 2.8 5.8.7 0 .7-.4.1-1.3-1.5-1.8-1.4-7.5.1-8.4 1.8-1.2 6.6-8.6 12.1-18.8 2.7-5 5.7-10.4 6.8-12 1.9-3 1.9-3 1.3-.3-.3 1.4-.8 3.4-1.1 4.5-.3 1 .4-.2 1.5-2.6 1.1-2.5 1.8-5.2 1.5-6-.3-.8-.3-1.2.1-.8.4.4 1.6-1.7 2.6-4.6 4.4-11.9 5.8-17.1 5-17.6-.5-.3-1.2-1.9-1.6-3.5-.8-3.3-6.7-9.6-8.7-9.5-1 0-1 .2-.2.5.7.3.9 1.3.6 2.2-.4 1.5-.3 1.5.6.2.9-1.2 1.1-1.1 1.1 1 0 2 .2 2.2 1.1 1 .9-1.2 1-1.1.6.7-.3 1.3-.1 2.3.4 2.3s.9-.8.9-1.8c0-1.2.4-1.1 1.4.8.9 1.8 1 2.9.2 3.9-.8 1.1-.8 1.3 0 .8 1.8-1.1 2.4 3.1 1.2 8.6-.7 3.5-1.3 4.5-1.9 3.6-.6-1-.9-.5-1 1.6 0 2.3-.4 1.7-1.4-2.5-1.4-5.8-4.7-9.4-9.6-10.5-3.2-.7-8.8 1.4-11.9 4.5-2.2 2.2-3.8 2.2-2.5 0 .4-.7.8-3.8.9-7 .1-5.6.3-6 5.2-10.7 8.9-8.5 10.3-9.6 12.6-9.8 3.8-.4 3.9-.5 3.3-1.5-1.3-2.1 3.5-.9 4.9 1.2zm27 3.8c-.6.5-2.4-2.1-2.4-3.4 0-.6.6-.1 1.4 1 .8 1 1.2 2.1 1 2.4zm-3.4 63.9c0 .5-.7 1.2-1.6 1.5-1.4.5-1.5.4-.4-.9 1.4-1.7 2-1.9 2-.6zm-30.4 60.1c.6.6 2.7 1.1 4.7 1.2l3.7.1-.7 4.1c-.3 2.3-.7 4.3-.9 4.5-.2.2-2.5.6-5.2.9l-4.8.4-1.3-3.8c-.7-2.2-1.5-4.5-1.7-5.2-.3-.6.5-1.6 1.8-2.1 3-1.3 3.2-1.3 4.4-.1zm19.9 0c.8 0 1.5 2.1 2 5.6.7 5.6 1.7 8.7 6.2 18.2 1.3 3 2.2 5.6 1.9 5.9-.9.9-2.7-.8-3.7-3.5-1.8-4.9-7.3-13.2-9-13.7-1.5-.5-1.6-1.1-.7-3.6 1.2-3.5 0-5.6-2.6-4.6-2.1.8-2.1 2.7 0 2.7.9 0 1.2-.5.8-1.3-.5-.8-.4-.9.4-.2.6.6.9 2 .6 3.2-.5 1.8-1.2 2.2-3.8 2-3.2-.3-3.4-.7-2.2-8 .4-2.6 2.6-3.8 6-3.2 1.6.3 3.4.5 4.1.5zm-25.6 10.1c.1 2.1-.6 2.9-3 3.9-3.4 1.4-5.6.3-4.6-2.4.7-1.8 2.7-2.2 2.7-.6 0 .5-.5 1-1.1 1-.5 0-.7.5-.4 1 .9 1.5 2.5.2 2.5-2.1 0-1.5-.6-2-2.2-1.7-1.8.2-2.3 1-2.4 3.3 0 1.7-.7 4.1-1.6 5.5-.9 1.4-2.6 4.9-3.8 7.7-1.2 2.9-2.6 5.3-3.1 5.3s-.9.7-.9 1.7c0 .9-.3 1.4-.6 1-.3-.3.2-2.8 1.1-5.4 1.9-5.3 3.3-11.9 4.1-20.5l.6-5.7 5.2-.3c4.9-.3 5.2-.2 6.3 2.7.6 1.6 1.2 4.2 1.2 5.6zm34.6 2.5c-1.4 1.1-1.5 1.4-.4 1.4.8 0 2-.5 2.5-1 .8-.8 1.9.1 3.7 2.8 1.5 2.1 2.7 4.3 2.7 5 0 .6.6.9 1.3.7 1.8-.7 7.1 2.9 10.3 7l2.7 3.6-2.1 6.8c-1.2 3.7-2.2 7.7-2.2 8.9 0 1.8-.6 2.2-3.5 2.2-3.3 0-3.5-.2-3.5-3.5 0-2.5.4-3.3 1.4-2.9.8.3 1.7.1 2.1-.5.3-.6-.1-1.1-.9-1.1-1.6 0-2.1-2.1-1.7-6.7.1-1.2-.8-4.2-2.1-6.5-1.2-2.4-2.1-4.8-2-5.4.1-.6-.5-1.1-1.3-1.1s-1.5 1-1.6 2.1c0 1.5-.5 1-1.6-1.7-.8-2-1.9-3.7-2.4-3.7s-.3 1.3.6 3c.8 1.6 1.5 3.9 1.5 5.1 0 4.9-8-13.6-9.3-21.5-.5-2.9-.5-2.9 3.6 1.4 3.9 4 4 4.3 2.2 5.6zm-50.1 1.9c-1.3 9.1-3.5 16.8-4.1 14.8-.2-.7.1-2.2.7-3.5.9-1.8.6-1.7-1.6.7-1.4 1.6-2.3 2.5-2 1.8.7-1.3-1-2.8-1.8-1.5-.6 1 4.3 8.2 5.7 8.2.5 0 1.9-1 3-2.3l2-2.2-.6 2.5c-.3 1.4-1.3 5.1-2.2 8.4-1.5 5.6-1.5 8.6.2 8.6.4 0 .9-2.8 1.1-6.2.4-9.2 2-9.5 1.9-.4l-.2 7.7-5.4-.3c-4.3-.2-5.5-.7-6.2-2.3-.7-1.9-.8-1.8-.8.4-.1 2.1-.4 2.3-3.2 1.7-1.7-.3-4.1-.6-5.3-.6-1.9 0-2.1-.5-2.1-6.2 0-3.5-.3-7.4-.7-8.8-.6-2.1-.1-3 3.3-5.8 4.1-3.5 9.2-5.4 6.9-2.7-.6.8-.8 2-.4 2.7 1 1.6.6 7.1-.7 10.6-1.6 4-2 9-.9 9.7.6.3 1-.5 1-1.9 0-1.3.4-3.6 1-5 1.6-4.3 2.2-11.4 1.1-13.4-.8-1.5-.7-2.1.4-2.6.8-.3 1.5-1.2 1.5-1.9 0-.8.7-2 1.5-2.7.8-.7 1.5-1.8 1.5-2.4 0-.6-1.2.1-2.5 1.6-3.5 4-3.9 3.4-.9-1.1 1.8-2.8 3.1-3.8 4.2-3.3 1.5.5 1.5.4.2-1.3-1.4-1.7-1.3-1.7 1-1.2 1.4.4 1.9.4 1.3.1-.7-.3-1.3-1-1.3-1.6 0-.9 3.8-6.8 4.4-6.8.2 0-.3 3.8-1 8.5zm32.8 2.2c2.2 5.1 2.6 10.6 1.3 18.8-.4 2.7-.8 7.1-.9 9.7-.1 4.4-.3 4.8-2.6 4.9-7.3.2-11.2.1-11.7-.5-.4-.4-.6-2.6-.5-4.9.1-3.8 0-3.9-.9-1.7-.6 1.4-.8 3.8-.5 5.3l.6 2.8-6.3-.2c-3.4-.1-6.8-.6-7.5-1.2-.9-.7-1.1-3-.6-8.7.4-5.1.3-8.4-.5-9.8-.9-1.7-.8-2.8.5-5.4 5.2-10.1 11.9-13.6 14.9-7.8 1.7 3.3 2 14.4.5 18.4-.5 1.5-.6 2.8 0 3.1.9.5 1.4-1.6 2.4-10.5.7-5.4-.7-12-2.8-13.6-.9-.6-1.6-1.4-1.6-1.7 0-.7 4.1-1.4 9.8-1.6 4.2-.1 4.4 0 6.4 4.6zm4.2-1.2c1.5 2.3 1.5 2.5.1 2.5-.9 0-1.3.5-1 1 1 1.6 3.7-1 3-2.8-.9-2.5 2.4.7 4.1 3.9 2.1 4.2 1.7 4.9-.7 1-1.1-1.8-2.3-3.1-2.6-2.7-.3.3.2 1.4 1.1 2.5 2.2 2.4 4.6 11.3 4.6 17.1 0 7.3 1.1 11.9 2.9 12.3.9.3-1.6.5-5.6.6-9.5.1-9.9-.5-7.7-13.6 1.7-10.8 1.5-15-1-20.6-1.3-3-1.4-3.7-.2-3.7.7 0 2.1 1.1 3 2.5zm23.3 16c.8 2.5.8 17.3 0 18.1-.1.2-2.3.6-4.8.9l-4.6.6.1-9.1c.1-8.7.3-9.4 3.1-12.6 3.3-3.7 4.4-3.3 6.2 2.1zm-12-.7c2 4.4 2.6 8.8 1.9 13.7-1.1 7.1-2.3 5.3-2.8-4.3-.3-4.8-.9-9.5-1.3-10.5-.4-.9-.3-1.7.1-1.7.5 0 1.5 1.2 2.1 2.8z"/><path d="M143.245 10.557c.7.5 1 1.6.6 2.5-.4 1.2-.1 1.7 1 1.7.9 0 1.6-.3 1.6-.6 0-1.4-2.2-4.4-3.3-4.4-.9 0-.9.2.1.8zm-23.8 2.8c0 1.4.3 1.4 1.5.4.8-.7 1.5-1.4 1.5-1.6 0-.2-.7-.4-1.5-.4s-1.5.7-1.5 1.6zm11.1-.2c-1 1.1-.9 1.4.1 1.2 1.4-.2 2.3-1.5 1.5-2.2-.2-.2-1 .2-1.6 1zm5.9.5c0 2.4 1.3 3.3 3.4 2.5 2.7-1 2-4.4-.9-4.4-1.8 0-2.5.5-2.5 1.9zm3 .1c0 .5-.4 1-1 1-.5 0-1-.5-1-1 0-.6.5-1 1-1 .6 0 1 .4 1 1zm-15.3-.3c-.4.3-.7 1.4-.7 2.4 0 .9-.4 1.9-.9 2.1-.4.1-.5 1.2 0 2.3.7 1.9.8 1.9.8-.2.1-1.2.9-2.4 2.1-2.8 2.2-.7 2.8-4.5.7-4.5-.8 0-1.7.3-2 .7zm27.6 1c-2.1.8-1.5 4.3.7 4.3 1.1 0 2-.7 2-1.5s0-1.8.1-2.2c.1-1-1.3-1.3-2.8-.6zm-8.7 2.8c-.3.8-.1 1.5.4 1.5.6 0 1-.7 1-1.5s-.2-1.5-.4-1.5-.6.7-1 1.5zm-12.1.5c-.3.5-.1 1 .4 1 .6 0 1.1-.5 1.1-1 0-.6-.2-1-.4-1-.3 0-.8.4-1.1 1zm-14 1c-.3.6.1.7.9.4 1.8-.7 2.1-1.4.7-1.4-.6 0-1.3.4-1.6 1zm21.5 0c0 .5.5 1 1 1 .6 0 1-.5 1-1 0-.6-.4-1-1-1-.5 0-1 .4-1 1zm-26.1 2.6c-1 1.3-1 1.7.1 2.4 1.8 1.1 3 .3 3-2.1 0-2.3-1.3-2.5-3.1-.3zm50.5 2.8c-.6 1.7.2 3.6 1.7 3.6 1.2 0 1.2-3.7-.1-4.5-.6-.3-1.3.1-1.6.9zm-55.8 12.1c-.3.9.3 1.9 1.4 2.5 1.7.9 2 .7 2-1.5 0-2.7-2.4-3.5-3.4-1zm.1 5.2c-.4.3-.7 1.1-.7 1.7 0 .6.5.5 1.2-.2.6-.6.9-1.4.7-1.7-.3-.3-.9-.2-1.2.2zm56.9 2.9c-.4 1-.2 2.2.3 2.7.7.7 1.3.5 1.7-.7.4-1 .2-2.2-.3-2.7-.7-.7-1.3-.5-1.7.7zm-54.4 7.1c.5 2.5 2.8 2.8 2.8.4 0-1.2-.6-2.1-1.6-2.1-.9 0-1.4.7-1.2 1.7zm21.2-20c-1.1 2.6-1.3 5.3-.3 5.3.5 0 .8.5.7 1.2-.2.6.5 1.4 1.5 1.6 1.6.3 1.7.1.7-1.8-.7-1.2-1-3.5-.8-5.1.5-3.2-.5-3.9-1.8-1.2zm22.9 4.3c.3 1 .1 2-.3 2.2-.5.2-.2 1.4.5 2.8 1.4 2.4 1.4 2.3 1.3-2.3-.1-2.6-.6-4.7-1.1-4.7-.5 0-.7.9-.4 2zm2.7 1.4c0 3.1.6 3.4 1.3.6.3-1.1.1-2.3-.4-2.6-.5-.3-.9.6-.9 2zm-14.4 5.8c.4 2 .1 4.5-.6 5.7-.6 1.3-.9 2.5-.7 2.8.9.8 2.8-3.7 2.9-6.8.1-1.7-.4-3.5-1-4.1-.8-.8-1-.2-.6 2.4zm-10.3-1.5c.9.2 1.5.8 1.2 1.3-.3.5-1.2.7-2 .4-1-.4-1.2 0-.8 1.5.3 1.2.9 2.1 1.4 2.1.5 0 .8.5.7 1.1-.2.6.2 1.3.7 1.5.6.2 1-1.5 1-4.1 0-3.9-.3-4.5-2-4.4-1.7.1-1.7.2-.2.6zm-93.3 16.3c0 .5.5 1 1.1 1 .5 0 .7-.5.4-1-.3-.6-.8-1-1.1-1-.2 0-.4.4-.4 1zm104 4.9c0 .6.3 1.1.8 1.1.4 0 .5 2.5.4 5.5-.3 4.2-.8 5.8-2.3 6.5-1.6.9-1.9.7-1.9-.9 0-1.1-.4-2.3-1-2.6-.6-.4-.8.7-.5 2.7.4 2.6.3 2.9-.4 1.3-.7-1.4-1-1.5-1.1-.5 0 1.1-.3 1.1-1.1-.4-.9-1.4-.8-2.1.2-2.8 1.1-.8 1.1-.9-.1-.5-.9.2-1.4 1.4-1.3 2.8.3 2.2.2 2.2-1.1.7-.7-1-1.7-1.4-2.1-1-.4.4-.5-.7-.2-2.3.4-1.7.4-2.4.1-1.7-.3.6-1 1-1.5.6-2-1.2-.8 2.8 1.6 5.1 2.6 2.7 7.2 3.3 10.5 1.5 1-.6 2.1-.6 2.4-.1.7 1.1-2.1 3.5-6.4 5.5-3.4 1.6-3.4 1.6-.5 1 1.7-.3 4-1.5 5.3-2.6l2.2-2.1.1 3.9c.1 2.1.5 5.2.9 6.9.5 1.8.6.1.3-4.5-.3-4.1-.8-7.9-1.1-8.5-.6-.9-.4-8.1.3-11.6.2-1-.3-2.3-1.1-3-1-.8-1.4-.8-1.4 0z"/><path d="M139.245 63.457c.7.3 1.6.2 1.9-.1.4-.3-.2-.6-1.3-.5-1.1 0-1.4.3-.6.6zm-11.8 1.5c0 .7-.3 3.1-.7 5.3-.8 5.5.5 3.9 1.6-1.8.5-2.7.5-4.7 0-4.7s-.9.6-.9 1.2zm-61.4 2.3c.4.8 1.1 1.5 1.6 1.5.6 0 .5-.6-.2-1.5-.7-.8-1.4-1.5-1.6-1.5-.2 0-.1.7.2 1.5zm6.7 3.1c.9 1.2 1.4 2.4 1 2.9-.5.4-.3.5.3.2 1.7-.9 11.7 10 14.8 16.1 2.6 5.1 4.2 7 2.9 3.4-2.1-5.8-12.2-18.6-17.7-22.4-2.9-2.1-3-2.1-1.3-.2zm41.7 5.2c0 1.2.4 2.2.9 2.2 1 0 .9-2.6-.2-3.6-.4-.4-.7.2-.7 1.4zm-3 .2c0 .5.5 1 1.1 1 .5 0 .7-.5.4-1-.3-.6-.8-1-1.1-1-.2 0-.4.4-.4 1z"/><path d="M124.645 82.557c-1.4 8.8-1.5 10.8-.5 9.9.8-.9 3.1-17.7 2.3-17.7-.3 0-1.1 3.5-1.8 7.8zm-12.6-3.7c.3.5 1.1.9 1.9.9.7 0 1.6.6 1.8 1.2.4.8.6.7.6-.3.1-1-.9-1.9-2.4-2.1-1.3-.3-2.2-.1-1.9.3zm16.5 1.7c1.2 1.9 3.8 3.7 4.4 3 .1-.2-1.1-1.4-2.7-2.7-2.8-2.3-2.9-2.3-1.7-.3zm-39.1 2.3c0 .5.5.7 1 .4.6-.3 1-.8 1-1.1 0-.2-.4-.4-1-.4-.5 0-1 .5-1 1.1zm4 4.9c-.8.5-1 1-.5 1 .6 0 1.7-.5 2.5-1s1.1-1 .5-1c-.5 0-1.7.5-2.5 1zm47 .5c0 1.7-.2 1.8-1 .5s-1-1.2-1 .2c0 2 .8 2.2 3 .8 1.2-.7 1.2-1.2.2-2.2-.9-.9-1.2-.8-1.2.7zm-40.3.2c-1.2 1.2-.7 2.2 1.6 3.3 2 1 2 1 .5-.3-2.2-1.8-2.3-3.1-.2-2.3.8.3 1.2.2.9-.4-.7-1.2-1.9-1.3-2.8-.3z"/><path d="M125.845 91.257c-1 3.9.3 7.2 3.9 9.7 4.4 3.2 10.7 3.1 14.1-.1 2.8-2.6 4.8-2.2 2.6.4-3.7 4.5-12.5 5.9-17 2.8-2.8-1.9-4-3.5-5.7-7.8-1-2.7-1.2-2.7-1.2-.7-.2 5.1 7.9 12.4 12.8 11.6 6.3-1.1 8-1.6 9.9-3.4 2-1.9 2.1-1.9 2.7 1.3 1.6 8 3.7 13.5 5.1 13 1.1-.4 1-1-.5-2.9-1.1-1.4-2.7-6.5-3.7-11.9-1-5.2-2.2-9.5-2.7-9.5s-.6.7-.3 1.7c.4 1-.1 2.3-1.4 3.5-1.3 1.2-2 1.4-2 .6 0-.9-.3-.9-1 .2-.5.8-1 1-1 .5 0-.6-.5-.3-1 .5-.8 1.2-1 1.2-1.1-.5 0-2 0-2-.9 0-.8 1.8-.9 1.8-1-.5-.2-1.7-.4-2-.7-.8-.6 2.3-3.7 1.8-6.3-1-1.7-1.8-1.9-2.6-1-4.4 1.1-2.3 1.1-2.3-.6-.3-1.6 1.9-1.6 1.9-1-1.3.7-3.8-.1-4.3-1-.7zm-14.3-.5c0 .3.6 2.7 1.4 5.5.8 3 1.4 4 1.4 2.5 0-2-2.6-9.7-2.8-8zm-11 6.8c-.8 1.5-.5 1.8 1.5 2 1.7.1 2.4-.3 2.3-1.6 0-1-.3-1.2-.6-.5-.2.7-.9 1.3-1.5 1.3s-.8-.7-.4-1.5c.8-2.1-.1-1.9-1.3.3zm-6.4-.1c-.4.3.2 1.3 1.4 2.1 2.6 1.8 3.2 1.2.9-1-.9-1-2-1.5-2.3-1.1zm17.6 3.3c0 2.5.2 3.5.4 2.2.2-1.2.2-3.2 0-4.5-.2-1.2-.4-.2-.4 2.3zm-3.9 1.4c.2 1.5.6 2.9.9 3.2.3.4.5-.6.3-2-.1-1.4-.5-2.9-.9-3.2-.3-.3-.4.6-.3 2zm12.8 2c-.6 2.5-2.1 5.5-3.2 6.6-2.6 2.6-2.6 3.4 0 1.8 2-1.3 5.5-9.9 4.8-11.9-.2-.6-.9 1-1.6 3.5zm-16.5.2c-1 1.1-.8 2.4.4 2.4.5 0 .7-.5.4-1-.3-.6-.2-1 .4-1 .5 0 1.2.5 1.4 1 .3.6.4.5.3-.2-.3-1.4-2-2.1-2.9-1.2zm53 4.1c.8 6.3 1.3 6.7 1.3 1 0-2.5-.4-4.9-1-5.2-.6-.4-.7 1.1-.3 4.2zm-33.1 4c-.8 2-.8 2.3.5 2.3.5 0 .7-.5.3-1.1-.4-.7 0-.9 1.3-.5s2 .2 2-.7c0-1.8-3.4-1.9-4.1 0z"/><path d="M143.545 112.157c-.9 1-.9 1.6-.1 2.1 1.7 1 3.7-1.2 2.4-2.5-.8-.8-1.5-.6-2.3.4zm-7.6.6c.3.5.8 1 1.1 1 .2 0 .4-.5.4-1 0-.6-.5-1-1.1-1-.5 0-.7.4-.4 1zm-19 8c.3.5 1.3 1 2.1 1s1.2-.5.9-1c-.3-.6-1.3-1-2.1-1s-1.2.4-.9 1zm24 1c.3.5 1.1 1 1.6 1 .6 0 .7-.5.4-1-.3-.6-1.1-1-1.6-1-.6 0-.7.4-.4 1zm7 0c.3.5.8 1 1.1 1 .2 0 .4-.5.4-1 0-.6-.5-1-1.1-1-.5 0-.7.4-.4 1zm-23.5 1.9c0 .5.5 1.3 1 1.6.6.3 1 .2 1-.4 0-.5-.4-1.3-1-1.6-.5-.3-1-.2-1 .4zm-4.5 5.1c-.3.5-.1 1 .4 1 .6 0 1.1-.5 1.1-1 0-.6-.2-1-.4-1-.3 0-.8.4-1.1 1zm-27.4 27.4c-1 1.2-.8 1.3.8.9 1.2-.3 1.8-.9 1.5-1.4-.7-1.2-1-1.1-2.3.5zm25.8.6c-.6.4 0 .9 1.5 1.2 1.6.3 2.6.1 2.6-.7 0-1.3-2.3-1.6-4.1-.5zm8.6 1.7c.3.8.5 1.8.5 2.1 0 .8 2-2 2-2.9 0-.3-.7-.6-1.5-.6-1 0-1.4.6-1 1.4zm-35.9 1.2c-.4.6-.4 1.1.1 1.1.4 0 .3.4-.3.8-.7.4-.8 1.5-.3 2.7.7 1.9.8 1.9.8-.2.1-1.2.7-2.3 1.4-2.6.9-.3.9-.8.1-1.7-.8-.8-1.4-.9-1.8-.1zm27.4 0c0 .5.7 1.4 1.5 2.1 1.2 1 1.5 1 1.5-.3 0-.8-.7-1.7-1.5-2.1-.8-.3-1.5-.2-1.5.3zm6 .5c0 .2.7.9 1.5 1.6 1.3 1.1 1.4 1 .9-.4-.5-1.4-2.4-2.3-2.4-1.2zm-36.1 4.3c-.1.7-.2 1.9-.3 2.5-.1.7-.5 1.6-1 1.9-.4.4-.3.9.2 1.3 1.6 1 3.1-2.6 2.1-4.9-.4-1.1-.9-1.4-1-.8zm35.7.6c.3.8-.2 3-1.1 4.7-.9 1.8-1.4 3.4-1.1 3.7.5.5 3.8-6.8 3.8-8.4 0-.4-.5-.9-1.1-1.1-.6-.2-.8.3-.5 1.1zm33.4-103.3c0 .5.6 1 1.3 1 .8 0 .7.3-.3 1-.8.5-1.2 1.1-.9 1.4 1 1.1 2.9-1.1 2.3-2.7-.7-1.8-2.4-2.3-2.4-.7zm7.5 13c-.3.5-.2 1 .4 1 .5 0 1.3-.5 1.6-1 .3-.6.2-1-.4-1-.5 0-1.3.4-1.6 1zm-7.5 1.4c0 .7.7 1.9 1.5 2.6.8.7 1.5 1.7 1.5 2.3 0 .5-1 .2-2.2-.9-2.5-2.2-1.6-.1 1.5 3.3 2.5 2.8 3.7 2.1 3.7-2.3 0-2.4-.5-3.4-1.5-3.4-.8 0-1.5-.4-1.5-.9s-.7-1.1-1.5-1.5c-.9-.3-1.5 0-1.5.8zm4.7 6.3c-.3 1-.5.4-.5-1.2 0-1.7.2-2.4.5-1.8.2.7.2 2.1 0 3zm5.6-2.5c-.1 1.7-1 3.6-2 4.4-1 .7-1.6 1.4-1.3 1.5 2.8.9 5.4.2 8.2-2.3 1.8-1.6 2.7-2.6 2-2.3-.9.5-1.2.1-1-1 .2-1-.3-2-1-2.2-.9-.4-1.1.2-.7 2 .5 1.9.2 2.8-1.4 3.7-1.9 1-2.1.8-2.1-1.7 0-2.1.3-2.5 1-1.3s.9 1 .7-.7c-.2-3.4-2.2-3.4-2.4-.1z"/><path d="M164.445 80.757c0 1.1.5 2 1 2 .6 0 1-.9 1-2s-.4-2-1-2c-.5 0-1 .9-1 2zm8 5.5c-1.4.8-3.4 1.5-4.5 1.5-1.6.1-1.7.3-.4.8.9.4 1.5 1.6 1.3 2.7-.2 1.1.1 2.2.6 2.5 1 .6-.6 10.5-2.2 13.7-.6 1.3-.8 2.6-.5 3 .4.3.7-.2.7-1.3 0-1.6.2-1.7 1-.4.7 1.1 1 .5 1-2.4s.3-3.7 1.5-3.3c.8.4 1.7.2 2-.3.4-.6-.2-1-1.2-1.1-1.1 0-1.3-.3-.5-.6 1-.4 1-.8.1-1.9-.9-1.1-.8-1.4.7-1.4 1.6 0 1.7-.2.4-1-1.3-.8-1.3-1 .1-1 1.2 0 1.8-1.3 2.2-5.2.4-2.8.5-5.3.4-5.4-.1-.1-1.3.4-2.7 1.1zm1.6 2.1c-.3.9-.6 2.8-.6 4.2-.1 2.5-.2 2.5-1.4 1-.7-1-1.6-1.5-1.9-1.2-.3.3-.3-.5 0-1.8.6-2.3 2-3.8 3.7-3.8.4 0 .5.7.2 1.6zm6.1 4.1c-.4.6-.7 2.4-.6 4 .1 1.5-.2 3.6-.6 4.5-.4 1-.3 1.8.2 1.8 1.7 0 2.8-3.6 2.3-7.5-.3-2.4-.8-3.5-1.3-2.8z"/><path d="M164.145 94.457c-1.1 1-.8 12.1.3 12.8.6.3 1-.4 1-1.7 0-1.8.2-2 1-.8.5.8 1 1 1 .4 0-.5-.6-1.6-1.2-2.3-1.1-1.1-1-1.4 0-1.8 1-.4.8-.9-.5-1.9-1.7-1.3-1.7-1.5-.1-2.7 1-.8 1.5-1.7 1.1-2-.8-.9-1.8-.9-2.6 0zm18.7 8.4c1.5 2.4 3.4 3.7 8.1 5.5 1.9.7 1.8.8-.5 1.2-2.4.4-8.8-2.3-10.2-4.3-1.3-1.7-1.8 0-3.5 11.8-1.1 7.3-2 11.2-2.6 10.4-.6-.9-.7-.8-.4.3.2.8 1 1.4 1.6 1.2 1.4-.3 1.4 1.1-.1 2.6-.8.8-.8 1.5.2 2.7 1.6 2 4 1.9 4-.1 0-1.2.7-1.5 2.5-1.2 2.2.5 2.5.2 2-1.6-.6-2.1-.6-2.1.9-.2 1.4 1.7 1.6 1.8 1.6.3 0-.9.5-1.7 1.1-1.7.5 0 .7-.5.3-1.1-.4-.8-.9-.7-1.6.2-.6 1-.7.6-.2-1.1.3-1.4 1.5-3.7 2.5-5.2 2.4-3.3 2.4-4.5.2-2.7-1.6 1.3-1.7 1.2-.4-.3.7-1 1.7-1.5 2.2-1.3.9.6 7-9.5 6.4-10.6-.3-.3-2.5-.9-5.1-1.2-3.2-.3-5.5-1.3-7.6-3.3-3-2.8-3-2.8-1.4-.3zm-.3 9.6c2.6 2 5.5 2.3 7.5.7 1.8-1.5 1.8-1.5-.3-.5-2.7 1.3-3.6 1.4-2.9.2.4-.5-.4-.7-1.6-.3-1.3.3-1.9.1-1.5-.5.4-.6 0-1.3-.8-1.7-1.7-.6-2-2.6-.4-2.6.5 0 .8.4.5.9-.6 1 2.6 2.1 6.3 2.1 1.4 0 3.3-.7 4.3-1.7 4-3.6 2.5-.4-2.3 5-2.8 3.1-4.8 6.1-4.4 6.7 1.3 2.1-6.9 13-9.9 13-.2 0-.2-3 .1-6.8.2-3.7.4-7.8.4-9.1l-.1-2.5 2.4 2.3c1.7 1.6 3.1 2.1 4.3 1.6 1.6-.7 1.5-.9-.7-1.5-1.4-.5-2.1-.8-1.5-.9.5-.1-.1-.8-1.3-1.7-1.2-.8-2.2-2.5-2.2-3.8 0-3 1.3-4.1 2.1-1.9.4 1 1.3 2.4 2 3z"/><path d="M184.245 115.957c.6.6 1.8.8 2.8.6 1.4-.3 1.2-.5-.9-1-1.9-.3-2.5-.2-1.9.4zm-5.8 5.4c0 .8.5 1.2 1 .9.6-.4.8-1.1.5-1.6-.9-1.4-1.5-1.1-1.5.7zm3.1 2.8c-2 2.1-2.9 3.6-2.2 4 .6.4 1.1.2 1.1-.4 0-.6.5-.8 1.2-.4.8.5.9.2.5-1-.6-1.4-.3-1.7.9-1.2 1.1.4 1.5.2 1.1-.8-.3-.8-.1-1.7.6-1.9.7-.2.9-.7.6-1-.3-.4-2 .8-3.8 2.7zm-17-12.2c-.1 2.1.4 3.8.9 3.8 1.1 0 1.1-1.4 0-5-.7-2.2-.8-2.1-.9 1.2zm3.7-.7c-.6.6.1 11.7.8 12.4.2.2.4-2.6.4-6.2 0-6.6-.1-7.2-1.2-6.2zm-3.2 8.5c.3 1.9 1 3.9 1.5 4.4 1.1 1.2.1-4.3-1.2-6.3-.7-1.2-.8-.6-.3 1.9zm28.3 1.4c-1 2.7-1.6 3.3-2.6 2.4-.9-.7-1.3-.7-1.3 0 0 .6.5 1.4 1 1.7.6.4.8 1.1.5 1.6-.4.5-.2.9.3.9 1.1 0 4.7-8.9 3.9-9.6-.3-.3-1.1 1-1.8 3zm-4.3 9.3c-.6 1.4-.5 1.5.5.6.7-.7 1-1.5.7-1.8-.3-.3-.9.2-1.2 1.2zm-135.6-57.7c0 .5.5 1 1 1 .6 0 1-.5 1-1 0-.6-.4-1-1-1-.5 0-1 .4-1 1zm-1 7.6c0 .8.5 1.2 1 .9.6-.4.8-1.1.5-1.6-.9-1.4-1.5-1.1-1.5.7zm146 1.2c0 .8 1.3 2.7 2.9 4.3 2.1 2.1 3.5 2.7 4.8 2.1 1.5-.6 1.3-.8-.9-1-1.6-.2-2.8-.6-2.8-1-.1-1.4-4-5.7-4-4.4zm-7 1.2c-1.4 3.5.4 7.6 2.1 4.9.7-1.1.9-1.1.9.2 0 1.7 4 5.9 5.6 5.9.5 0 .1-.5-.8-1.1-1-.5-2.5-2.5-3.4-4.4-.9-1.9-2-3.3-2.4-3-.5.3-1.1-.3-1.3-1.2-.3-1-.6-1.6-.7-1.3zm1 8.5c0 .3.7 1.7 1.6 3 1.8 2.8 4.7 3.5 3.7.9-.4-1.2-.8-1.3-1.4-.3-.5.9-1 .5-1.4-1.4-.6-2.3-2.5-3.9-2.5-2.2zm-140-4.1c0 .9.5 1.6 1 1.6.6 0 1-.4 1-.9 0-.6-.4-1.3-1-1.6-.5-.3-1 .1-1 .9zm58.2 36.6c.4 1.3-2.8 12-4.5 14.7-1.2 1.9-3.7 10.7-2.8 9.7.5-.5 2.9-6 5.3-12.2 3.9-9.8 4.3-11.4 3-12.5-1.3-1-1.4-.9-1 .3zm44.8 5.5c-.8.9-.8 1.5-.2 1.5 1.2 0 2.6-1.9 1.9-2.6-.2-.2-1 .2-1.7 1.1zm-28.8.7c-.7.9-.6 1.7.4 2.6 1.2 1.1 1.3.8 1.2-1.3-.3-2.9-.2-2.9-1.6-1.3zm5.3-.2c.3.5.8 1 1.1 1 .2 0 .4-.5.4-1 0-.6-.5-1-1.1-1-.5 0-.7.4-.4 1zm12.1.9c-.3.4-1.7.6-3.1.3-2.1-.4-2.4-.1-1.8 1.4.4 1.1.8 1.3 1.1.6.2-.7.8-1.2 1.4-1.2.6 0 .7.8.4 1.7-.6 1.7-.5 1.7.8 0 1.6-2.1 2.7-2.2 2-.2-.9 2.3.2 1.8 2-1 1.6-2.4 1.5-2.5-.3-2.5-1.1 0-2.2.4-2.5.9zm-14.6 3.7c-2.5 1.4-3.7 2.3-2.7 2 1-.3 3.5-.6 5.5-.7 3.2-.1 3.4-.2 1.2-.8l-2.5-.7 3-1.1c1.7-.6 2.3-1.2 1.5-1.2-.8 0-3.5 1.1-6 2.5z"/><path d="M147.845 134.357c-1 .8-1.3 1.3-.6.9 1.7-.9 1.5-.1-.7 3.6-1.7 2.8-2 2.9-2.5 1.2-.7-2.1-7.6-6-7.6-4.3 0 .6.5 1 1.1 1 .6 0 .9.8.7 1.7-.2 1 .1 2.3.7 2.9.7.9 1.3.6 2.3-1 1.2-2 1.3-1.9.9.9-.2 1.6-.2 2.4 0 1.7.3-.6.9-1.2 1.4-1.2 1.2 0 1.2.1-.6 4.3-2.9 7-1.4 5.1 3-3.7 2.5-4.9 4.3-9.1 4.2-9.3-.2-.1-1.2.4-2.3 1.3zm-7.7 5.6c-.3.8-.6.5-.6-.6-.1-1.1.2-1.7.5-1.3.3.3.4 1.2.1 1.9zm16.7-5.1c-.8 1.4 1.1 3.3 2.5 2.5 1.1-.7.4-3.6-.9-3.6-.5 0-1.2.5-1.6 1.1zm-36 3.8c-4 2.5-5 4-3.4 5.4 1 .9 1.2.8.7-.6-.6-1.6.7-2.5 1.6-1 .2.5.2.2.1-.5-.2-.6 0-1.2.4-1.2.5 0 1.4.6 2.1 1.2 1 1.1 1.1 1 .6-.5-.4-.9-.3-1.7.3-1.7s1.3.8 1.5 1.7c.4 1.7.5 1.7.6 0 0-.9.5-1.7 1-1.7s1.2.8 1.4 1.7c.4 1.4.5 1.2.6-.5.1-1.7-.4-2.2-2.5-2.2-1.4 0-2.3-.4-1.9-1 .9-1.4.5-1.3-3.1.9zm33.9-.2c.4.3.1 1.3-.6 2.2-1.1 1.4-1 1.4.5.2 1.6-1.2 1.6-3.1.1-3.1-.4 0-.3.3 0 .7zm-42.4 6c-1.2 1.5-1.2 1.6.2 1.1.9-.4 2.2-.1 2.9.5 1 1 1 .7.1-1.1-1.4-2.6-1.5-2.7-3.2-.5zm43-1.5c-.1.2-.3 1.3-.4 2.5-.2 1.9.1 2.1 1.6 1.2 1.1-.5 1.9-1.5 1.8-2.2 0-.9-.2-.9-.6 0-.2.7-.9 1.3-1.5 1.3s-.8-.7-.4-1.5c.4-1.2 0-2.3-.5-1.3zm-33.5 2.8c-3.7.8-10.4 4.7-10.4 6.1 0 .5 1.9-.4 4.2-2.1 6-4.4 11.5-4.2 15.7.5 1.7 2 3.3 4.8 3.7 6.3 1 4.5 1.2 4.8 1.3 1.9.1-3.3-1.3-6.3-4.4-9.4-2.9-3-6.4-4.1-10.1-3.3zm27.5.1c-.4 1.4-.5 7.2-.2 6.1.3-.6.8-1 1.2-.7.9.5.6-4.4-.3-5.3-.3-.3-.6-.3-.7-.1zm5.1 6.6c0 .4.5 1.5 1 2.3.8 1.3 1 1.3 1-.2 0-.9-.4-2-1-2.3-.5-.3-1-.3-1 .2zm-15.4 12.8c-.4 1.9-2.2 8-4.1 13.6-2.1 6.4-2.8 9.6-1.9 8.8.8-.6 1.4-2.1 1.4-3.3 0-1.7.2-1.8 1-.6.7 1.1 1 .1 1.1-3.5.1-4.2.2-4.5.8-2 .6 2.7.8 2.4 1.3-2.5.4-3 .9-7.4 1.3-9.8.7-5.1 0-5.7-.9-.7zm6.1 2.2c.4 1.1.3 1.4-.5.9-.7-.4-1.2-.2-1.2.3 0 1.2 2.3 1.5 3.3.5.8-.8-.3-3.4-1.4-3.4-.4 0-.5.7-.2 1.7zm10 4c.5 1.2.2 1.5-1 1-.9-.3-1.7-.2-1.7.4 0 .6.8.9 1.7.7 1.9-.3 3.1-3.8 1.4-3.8-.6 0-.7.8-.4 1.7zm-15.6 7.9c0 1.1.3 1.4.6.6.3-.7.2-1.6-.1-1.9-.3-.4-.6.2-.5 1.3zm1.9 1.4c0 1.6.2 3 .4 3s.6-1.4.8-3c.3-1.7.1-3-.4-3-.4 0-.8 1.3-.8 3zm2.2 2c0 1.4.2 1.9.5 1.2.2-.6.2-1.8 0-2.5-.3-.6-.5-.1-.5 1.3zm2 2c0 1.9.2 2.7.5 1.7.2-.9.2-2.5 0-3.5-.3-.9-.5-.1-.5 1.8zm8.9.6c0 1.1.3 1.4.6.6.3-.7.2-1.6-.1-1.9-.3-.4-.6.2-.5 1.3zm-18.8 5.9c0 2.7.2 3.8.4 2.2.2-1.5.2-3.7 0-5-.2-1.2-.4 0-.4 2.8zm-5.8 1.2c-1.1 4.4-11.4 26.1-15.7 33-1.1 1.8-1.6 3.3-1.1 3.3.4 0 2.1-2.4 3.7-5.3 1.6-2.8 3.2-5.4 3.6-5.7.3-.3 1.1-2.1 1.7-4 1-3.1 1.1-3.2 1.2-.9.1 2.8 3.1 6.1 5.8 6.5 2.2.3 7.3-2.3 7.3-3.8 0-.6-.9-.3-1.9.6-1.9 1.7-2 1.7-2.4-.6-.4-2.3-.4-2.3-.6-.1-.1 3-1.6 2.9-4.6-.2-2.9-2.8-3.1-5.8-.9-10 2.8-5.2 6.4-15.5 5.5-15.5-.5 0-1.2 1.2-1.6 2.7zm8.2-.5c.3 1.3 1 2.8 1.5 3.4.4.6.5 1.9.2 2.8-.9 2.4.6 20.6 1.8 20.6.5 0 .7-.3.5-.8-1.1-1.7-1.8-20.2-.9-20.2.6 0 1.2.4 1.4.9.2.5 1.6 1.3 3.2 1.7 2.1.5 2.7.4 2.2-.5-.4-.6-1.6-1.1-2.6-1.1-2 0-6-4.4-6-6.6 0-.7-.4-1.5-.9-1.8-.5-.4-.7.4-.4 1.6zm18.7.9c-1.9 2.2-1.9 2.2.4.8 1.2-.8 2.2-1.7 2.2-2.1 0-1.2-.6-.9-2.6 1.3zm-20.6 9.1c.5 9.5.9 10.4 1.1 2.5 0-4.2-.2-7.7-.6-7.7-.5 0-.7 2.4-.5 5.2zm-25.8-1.2c-1.4 1.1-2 2-1.4 2 .6 0 1.9-.9 2.9-2 2.3-2.5 1.7-2.5-1.5 0z"/><path d="M131.545 200.657c-.8.5-.9 1.1-.3 1.5.5.3 1.2-.1 1.6-.9.6-1.7.6-1.8-1.3-.6zm23.4 2.1c-.3.5-.1 1 .4 1 .6 0 1.1-.5 1.1-1 0-.6-.2-1-.4-1-.3 0-.8.4-1.1 1zm-12.5 1.4c0 .8.4 1.7.9 2 .5.4.7-.3.4-1.4-.6-2.3-1.3-2.6-1.3-.6zm5.7 1.7c-.4 1.6-.3 1.8.9.8 1.6-1.3 1.9-2.9.5-2.9-.5 0-1.1.9-1.4 2.1zm2.8 2c-.4.6-.5 1.2-.2 1.5.2.3.7-.2 1-1.1.7-1.7.1-2-.8-.4zm-37.5 2.9c-.9.6-1 1-.3 1 .6 0 1.5-.5 1.8-1 .8-1.2.4-1.2-1.5 0zm32.4 1.2c-.4.7-.3.8.4.4s1.2-.2 1.2.3c0 .6.5 1.1 1 1.1.6 0 1-.7 1-1.5 0-1.8-2.6-2-3.6-.3zm-9 4.3c.1 1.9.8 4 1.5 4.7 1.1 1.1 1.3.9.7-1.2-.3-1.4-.6-3.5-.6-4.8 0-1.2-.4-2.2-.8-2.2-.5 0-.8 1.6-.8 3.5zm-25.6.2c.7.3 1.6.2 1.9-.1.4-.3-.2-.6-1.3-.5-1.1 0-1.4.3-.6.6zm39 0c.7.3 1.6.2 1.9-.1.4-.3-.2-.6-1.3-.5-1.1 0-1.4.3-.6.6zm-28.6 3.3c.2.8 1.4 1.9 2.6 2.5 2.9 1.3 2.3 2.9-4.5 13.4-3 4.6-5.2 8.5-5 8.7.6.6 10.3-14.5 11.6-17.9.6-1.5 1.9-3 2.8-3.3 5.1-1.6 5.4-2.1 1-1.6-3.7.4-5.2.1-6.9-1.4-1.6-1.4-2-1.5-1.6-.4zm19.2 1.6c.3 1.1 1 5.9 1.5 10.8.6 4.9 1.3 9.2 1.7 9.5.3.3.4-1.2 0-3.4-.3-2.2-.8-7-1.2-10.8-.3-3.7-1.1-7-1.6-7.3-.6-.4-.8.1-.4 1.2zm-32.6.1c.7.3 1.6.2 1.9-.1.4-.3-.2-.6-1.3-.5-1.1 0-1.4.3-.6.6zm37.7.3c-.4.6-.4 1.4-.1 1.7.3.4.6.1.6-.5 0-.7.5-1.2 1.1-1.2.5 0 .7.4.4 1-.3.5-.1 1 .5 1 1.4 0 .8-2.2-.7-2.7-.6-.2-1.4.1-1.8.7zm-8.8 1.2c.9 1.1 2 7.6 4 24.3.3 2.2.9 4.4 1.4 5 1.2 1.3 1.2-.3-.5-8.8-.8-4-1.7-10.2-2.1-13.9-.5-4.7-1.1-6.8-2.2-7.2-1.2-.5-1.3-.3-.6.6zm-29 .5c-.4.3-.7 1.1-.7 1.7 0 .6.5.5 1.2-.2.6-.6.9-1.4.7-1.7-.3-.3-.9-.2-1.2.2zm46.4 1.9c0 1.1.3 1.4.6.6.3-.7.2-1.6-.1-1.9-.3-.4-.6.2-.5 1.3zm1.8 1.6c-.3 2.2-.1 3.4.4 2.9s.7-2.1.5-3.7c-.3-2.7-.4-2.6-.9.8z"/><path d="M119.445 225.657c0 .6.5 1.3 1 1.6.6.3 1-.1 1-.9 0-.9-.4-1.6-1-1.6-.5 0-1 .4-1 .9zm14.5 2.1c.3.5.8 1 1.1 1 .2 0 .4-.5.4-1 0-.6-.5-1-1.1-1-.5 0-.7.4-.4 1zm18.6 3.6c-.5 2.2-1.5 5.9-2.1 8.4-.7 2.5-1.7 5.1-2.2 5.7-1.3 1.6-.3 1.7 2.2.3 1.2-.7 1.6-1.7 1.3-3.1-.4-1.5-.3-2 .5-1.5.7.4 1.2.3 1.2-.3 0-.5-.4-1.1-.9-1.3-.6-.2-.4-2.6.5-5.7.7-3 1.2-5.6 1-5.9-.3-.2-.9 1.3-1.5 3.4zm-36.1-.7c0 .5.5 1.3 1 1.6.6.3 1 .2 1-.4 0-.5-.4-1.3-1-1.6-.5-.3-1-.2-1 .4zm29.5.1c-.3.5-.1 1 .5 1s.8.5.4 1.2-.3.8.4.4c1.4-.9 1.6-3.6.3-3.6-.6 0-1.3.4-1.6 1zm-11.9 2.5c.4.8 1 1.2 1.5.9 1.1-.6.2-2.4-1.1-2.4-.5 0-.7.7-.4 1.5zm21.8 3.4c.1 3.7.5 5.6 1.5 5.9.8.3 1.1 0 .7-.6-.3-.6-.3-1.2.1-1.5.5-.2.3-.2-.4-.1-.8.2-1.3-1.4-1.6-4.4-.4-4.4-.4-4.3-.3.7zm3.6-3.9c0 .5.5 1 1.1 1 .5 0 .7-.5.4-1-.3-.6-.8-1-1.1-1-.2 0-.4.4-.4 1zm-51.9 4.6c-1.2 1.9-1.6 3.2-1.1 2.9 1.1-.7 4.3-6.5 3.6-6.5-.2 0-1.3 1.6-2.5 3.6zm4.9-1.2c0 .2.7.7 1.6 1 .8.3 1.2.2.9-.4-.6-1-2.5-1.4-2.5-.6zm47.5.6c.3.5.8 1 1.1 1 .2 0 .4-.5.4-1 0-.6-.5-1-1.1-1-.5 0-.7.4-.4 1zm-36.5.9c0 .6.5 1.3 1 1.6.6.3 1-.1 1-.9 0-.9-.4-1.6-1-1.6-.5 0-1 .4-1 .9zm9.6 1c-.3.5.1 1.1.9 1.5.8.3 1.5.1 1.5-.4 0-1.3-1.8-2.2-2.4-1.1zm-24 3.6c.4.8.8 1.5 1 1.5.2 0 .4-.7.4-1.5s-.4-1.5-1-1.5c-.5 0-.7.7-.4 1.5zm11.9.5c-.3.5.1 1 1 1s1.3-.5 1-1c-.3-.6-.8-1-1-1-.2 0-.7.4-1 1zm40.1.5c.4.8.8 1.5 1 1.5.2 0 .4-.7.4-1.5s-.4-1.5-1-1.5c-.5 0-.7.7-.4 1.5zm-30.3 2.1c0 1.7.2 2.2.7 1.3.5-.6.6-1.8.3-2.6-.8-1.9-1-1.6-1 1.3zm2.6.6c-1.1 2-1 2.1.3 1.1.8-.7 1.8-1 2.1-.6.4.3.7.1.7-.5 0-2.2-1.9-2.2-3.1 0zm22.8-1.5c-.2.5-.1 1.9.2 3.2.6 2.3.7 2.3 2.1.5.9-1 1-1.5.3-1-.8.4-1.3.1-1.3-.9s.5-1.3 1.2-.9.8.3.4-.4c-.8-1.4-2.3-1.6-2.9-.5zm-50.7 2.2c0 .5.5 1.3 1 1.6.6.3 1 .2 1-.4 0-.5-.4-1.3-1-1.6-.5-.3-1-.2-1 .4zm13.6 1c-.3.5.1 1.1.9 1.5.8.3 1.5.1 1.5-.4 0-1.3-1.8-2.2-2.4-1.1zm11.6 3.1c0 1.4.2 1.9.5 1.2.2-.6.2-1.8 0-2.5-.3-.6-.5-.1-.5 1.3zm-28.2.4c0 .2.7.6 1.5 1 .8.3 1.5.1 1.5-.4 0-.6-.7-1-1.5-1s-1.5.2-1.5.4zm18 .4c0 .5-1 .8-2.1.8-1.2-.1-2.3.5-2.5 1.2-.1.7 0 .8.3.2.3-.8.9-.8 1.8 0s1.7.6 2.9-.6c1.4-1.4 1.9-1.4 3.4-.2s1.6 1.1.3-.5c-1.4-1.7-4.1-2.4-4.1-.9zm14.3 1.1c0 1.1.5 1.7.9 1.5 1.1-.7 1-3.4-.1-3.4-.6 0-.9.9-.8 1.9zm4.3-.4c.4.8.8 1.5 1 1.5.2 0 .4-.7.4-1.5s-.4-1.5-1-1.5c-.5 0-.7.7-.4 1.5zm-37.9 1.1c-1.1 1.1.3 2.4 2.6 2.3 1.5 0 1.7-.2.7-.6-.8-.3-1.8-1-2.1-1.5-.3-.4-.8-.5-1.2-.2zm10.8.4c-.3.5-.1 1 .4 1 .6 0 1.1-.5 1.1-1 0-.6-.2-1-.4-1-.3 0-.8.4-1.1 1zm20.5 7.9c0 .7-.5.9-1.2.5-.7-.5-.8-.3-.3.5.5.9 1 1 1.8.2.6-.6.8-1.4.4-1.8-.4-.3-.7-.1-.7.6zm-12.5-.9c-.3.5.1 1 1 1s1.3-.5 1-1c-.3-.6-.8-1-1-1-.2 0-.7.4-1 1zm-6.8.7c-1.2 1.2-.7 2.2.8 1.7.8-.4 1.5-1 1.5-1.5 0-1.1-1.4-1.2-2.3-.2zm49.8 12.8c.1 1.4.6 2.9 1 3.3.4.4.4-.4.1-1.8l-.7-2.5 1.5 2.5c.9 1.5 1.5 1.9 1.5 1 0-1.5-2.2-5-3.2-5-.3 0-.4 1.1-.2 2.5zm9.5 6c0 .3.7 1.7 1.6 3.1 1.4 2 1.6 4.2 1.1 11.7-.6 10.3 1 8.8 2-1.9.4-4.5.1-6.8-1.1-9.1-1.5-3-3.6-5.2-3.6-3.8z"/><path d="M170.645 283.957c.5 1.5 2.8 2.3 2.8 1 0-.5-.7-1.3-1.6-1.6-1-.4-1.4-.1-1.2.6zm1.8 7.4c0 .8.5 1.2 1 .9.6-.4.8-1.1.5-1.6-.9-1.4-1.5-1.1-1.5.7zm-1 12.4c0 .5.5 1 1.1 1 .5 0 .7-.5.4-1-.3-.6-.8-1-1.1-1-.2 0-.4.4-.4 1zm-68.5-25c-1 1.1-1.6 2.2-1.3 2.5.3.3 1.3-.4 2.3-1.5 1-1.1 1.6-2.2 1.3-2.5-.3-.3-1.3.4-2.3 1.5zm-11.8 7.7c-.9 1.4 1.7 4.8 3.1 3.9 1.7-1 1.5-2.6-.2-2.6-.8 0-1.6-.5-1.8-1.2-.3-.8-.6-.9-1.1-.1zm10 3.7c-.4 1-.5 2.1-.2 2.4.9.9 1.7-.6 1.3-2.5-.3-1.7-.4-1.7-1.1.1zm-11.7 3.5c0 1.7 3 2.5 4.3 1.2.8-.8.8-1.1 0-1.1-.6 0-1.8-.3-2.7-.6-.9-.3-1.6-.1-1.6.5zm11.1 1.7c0 1.1.3 1.4.6.6.3-.7.2-1.6-.1-1.9-.3-.4-.6.2-.5 1.3zm-11 5.9c0 .5.4 1.7.9 2.5.7 1.2 1.2 1.2 2.2.2.9-.9.9-1.2-.4-1.2-.9 0-1.9-.6-2.1-1.3-.3-.6-.6-.8-.6-.2zm11.9.9c.7.7 1.3.7 2 0 .6-.6.3-1-1-1s-1.6.4-1 1zm36.8-30.2c1.9 3.8 2 13.8.2 23.7-.9 5.2-.9 6.6.2 7.7 1.1 1.1 1.4.2 1.7-5.4 1-14.4.6-25.9-.8-27.5-2.3-2.8-3-1.9-1.3 1.5zm-6.6-.1c.2.7 1 1.5 1.7 1.7.8.3 1.2-.1.9-.9-.2-.7-1-1.5-1.7-1.7-.8-.3-1.2.1-.9.9zm-11.6 1.6c-.3.3.1 1.1.9 1.7 2.9 2.1 3.4 10 1.4 19.4-1.8 7.9-1.8 8.7-.3 10.2 1.5 1.4 1.6 1.3 1-.6-.4-1.2.2-5.8 1.2-10.2 2-8.4 2-12.7.1-17.4-1.1-2.7-3.2-4.2-4.3-3.1zm12.7 5.6c.5 1.5 2.9 1.6 3.4.2.2-.6-.6-1.1-1.8-1.2-1.2-.1-1.9.3-1.6 1z"/></svg>