<svg xmlns="http://www.w3.org/2000/svg" viewBox="0 0 270 700"><title>Silos 83v-d1</title><path d="M100.914 2.774c-2.068 5.396-2.32 16.743-.454 23.047 2.27 7.868 4.337 12.508 5.497 12.508.505 0 .353-1.261-.454-2.774-.756-1.513-1.614-4.388-1.866-6.304-.302-1.967-1.008-6.153-1.614-9.33-.706-4.035-.706-7.01.051-10.087C104.091 1.967 104.293 0 103.133 0c-.656 0-1.664 1.261-2.219 2.774z"/><path d="M90.575 5.8c-.201.403-.403 2.017-.403 3.58 0 1.513-.757 3.581-1.614 4.59-.908 1.008-1.664 2.572-1.664 3.53 0 .908-.505 1.664-1.11 1.664-.756 0-1.008 3.026-.756 9.33.403 10.49 3.278 18.105 10.338 27.335 2.068 2.672 3.632 5.043 3.43 5.244-.706.656-9.885-7.766-9.885-9.027 0-.706-.908-2.118-2.017-3.127-1.11-1.008-2.017-2.168-2.017-2.622 0-2.118-2.119-6.002-3.026-5.447-.606.404-.454 1.967.554 4.287l1.513 3.631-2.168-1.967c-2.724-2.421-7.969-12.759-8.019-15.735-.05-2.773-2.774-9.078-2.875-6.707-.05.857-.706 2.118-1.462 2.774-1.866 1.513-1.16 9.33 2.017 21.282 3.228 12.305 3.379 12.608 8.271 19.114 2.269 3.026 3.934 5.699 3.682 5.951-.707.655-8.322-4.842-8.977-6.506-.303-.756-1.261-1.412-2.169-1.412-1.11 0-1.412-.605-1.009-1.866.706-2.219-.302-5.396-1.462-4.69-.454.302-.555 1.462-.252 2.622.454 1.866.302 2.018-1.362 1.11-3.984-2.169-7.212-6.809-11.499-16.592-3.379-7.767-5.194-6.506-2.37 1.664 1.715 5.043 1.412 7.06-2.219 16.743-1.412 3.884-3.581 12.608-3.379 13.869.605 3.732-.555 6.657-4.085 10.188-2.168 2.168-4.287 5.244-4.69 6.808-.353 1.614-1.059 3.379-1.513 3.984-1.009 1.311-1.362 9.38-.504 12.053.454 1.362-.101 2.825-1.715 4.539-1.261 1.412-4.337 5.951-6.808 10.087-2.472 4.186-4.993 8.472-5.649 9.582-.706 1.109-2.673 4.942-4.387 8.573-1.766 3.581-3.833 7.767-4.64 9.229-.757 1.463-1.412 3.531-1.412 4.59 0 1.059-.404 2.37-.959 2.874-1.361 1.412-4.085 9.179-5.598 16.088-.756 3.329-2.067 9.229-2.975 13.113-5.195 22.341-4.892 96.931.454 111.001 2.521 6.556 9.179 34.042 9.532 39.287.403 5.295 5.547 20.475 10.691 31.47 2.774 5.9 4.993 11.044 4.993 11.498 0 2.118 20.778 32.226 24.258 35.202 22.442 19.063 31.318 46.246 26.275 80.187-.908 6.153-1.109 12.154-.605 18.66l1.009 13.113c1.462 19.214 2.975 28.342 6.707 41.051 2.723 9.23 2.875 10.49 1.563 12.608-3.782 6.002-.1 17.047 6.305 19.114 1.26.404 1.311 1.513.453 6.91-1.26 7.413.656 22.492 3.178 25.266.807.908 1.462 2.017 1.513 2.572.05 2.925 15.381 15.533 18.861 15.533 1.11 0 2.32.706 2.623 1.564.353.807 2.673 2.42 5.245 3.48 21.736 9.33 31.772 31.015 17.701 38.328-2.219 1.16-1.563 2.976 1.16 3.026 1.866 0 9.179-7.867 11.146-12.003 6.001-12.759.605-44.279-9.986-58.148-1.714-2.219-3.53-4.791-4.034-5.649-.505-.857-3.631-3.782-6.96-6.455-17.349-13.919-23.148-20.476-22.241-25.216.908-4.943-.453-9.229-4.085-13.113-1.916-2.017-3.732-4.841-4.085-6.304-.353-1.513-1.21-3.883-1.966-5.345-.706-1.463-1.513-5.346-1.766-8.725-.302-3.329-1.059-7.868-1.714-10.036-.757-2.623-.858-5.094-.252-7.414.504-1.916.605-4.841.201-6.506-1.462-6.505-.706-24.005 1.715-37.824 3.934-22.442-1.866-48.616-15.029-68.386-5.9-8.876-5.8-9.078 3.53-6.707 10.995 2.723 30.915 1.16 39.035-3.026 1.664-.858 3.682-1.564 4.438-1.564.807 0 2.572-.908 3.934-1.967 1.412-1.109 6.304-3.379 10.893-5.043 4.59-1.664 9.33-3.681 10.49-4.438 13.566-8.775 33.084-9.935 52.904-3.177 10.389 3.53 10.641 3.48 9.884-2.169-.353-2.572-1.059-5.194-1.513-5.799-.504-.606-1.21-4.237-1.563-8.07-.404-3.782-1.311-8.371-2.068-10.187-.706-1.765-1.361-5.9-1.412-9.179-.05-3.278-.605-8.472-1.21-11.498-2.018-9.885-2.068-10.389-1.715-40.346 0-1.412-.101-4.135-.252-6.052-.353-4.892 1.967-17.55 3.681-20.425.303-.454 1.665.101 3.077 1.261 3.429 2.673 4.236 2.572 8.926-.958 2.219-1.665 4.489-3.026 5.144-3.026.606-.051 2.623-1.412 4.388-3.077 1.765-1.664 3.631-3.026 4.186-3.026.504 0 1.412-1.159 2.068-2.572.907-2.017 1.664-2.471 3.278-1.916 5.346 1.715 7.615 1.715 7.615.05 0-1.412.353-1.513 2.118-.554 3.177 1.714 3.379.655 1.463-7.162-1.917-7.867-1.261-10.036 2.975-10.036 1.261 0 3.43-.605 4.842-1.311l2.521-1.311-2.269-3.732c-10.036-16.693-24.914-20.324-44.229-10.944-10.188 4.993-20.93 14.726-22.846 20.829-.706 2.219-1.866 4.992-2.623 6.152-1.866 2.976-3.379 10.944-5.043 26.074-.807 7.212-1.866 14.474-2.37 16.138-1.211 3.984-2.118 16.29-2.219 30.562-.051 6.254-.252 11.347-.404 11.347-.201 0-1.664-1.261-3.278-2.773-1.563-1.513-5.144-4.035-7.867-5.598-2.723-1.513-8.019-4.943-11.65-7.565-7.414-5.245-11.448-7.969-24.107-16.189-4.69-3.026-12.406-8.12-17.147-11.246-4.69-3.127-11.952-7.011-16.138-8.574-8.17-3.127-18.156-7.514-18.156-8.019 0-.151 3.43-2.017 7.616-4.085 4.186-2.067 7.363-3.984 7.111-4.286-.303-.303-2.118.201-3.984 1.109-7.313 3.48-9.129 1.412-2.169-2.37 2.471-1.362 4.539-2.824 4.539-3.278 0-1.765-3.177-.505-8.221 3.278-4.791 3.631-7.817 4.034-5.093.706.554-.656 1.563-3.278 2.168-5.749.656-2.522 2.673-7.061 4.539-10.087 1.816-3.076 3.682-6.707 4.085-8.069.908-2.976 12.608-14.676 15.584-15.634 1.16-.353 2.068-1.059 2.068-1.564 0-.554.857-.958 1.866-.958 1.059 0 3.883-.857 6.304-1.916 2.471-1.059 6.152-1.967 8.27-1.917 2.068 0 4.388-.504 5.094-1.059.706-.605 4.438-1.513 8.271-2.067 9.633-1.362 16.138-2.825 19.921-4.539 1.765-.807 5.598-2.169 8.422-3.077 2.875-.907 5.8-2.32 6.455-3.126.656-.807 1.816-1.463 2.623-1.463.756 0 3.177-1.16 5.396-2.522 2.219-1.412 4.287-2.521 4.589-2.521 3.48 0 28.192-22.695 29.301-26.931.303-1.21 1.211-2.421 2.018-2.723.756-.303 1.412-1.261 1.412-2.068 0-.857.403-1.564.857-1.564 1.664 0 10.188-18.76 12.356-27.233 5.649-22.039 2.32-36.563-10.692-47.255-1.512-1.261-1.512-1.563.454-3.581 1.11-1.26 2.068-2.723 2.068-3.328s.706-1.614 1.513-2.32c1.967-1.614 1.917-6.506-.05-9.532-1.614-2.471-6.607-4.69-19.921-8.725-12.608-3.883-16.693-7.564-20.476-18.71-4.286-12.558-6.102-15.281-11.498-17.601-2.471-1.109-5.296-2.421-6.203-2.925-.908-.454-1.917-.605-2.27-.252s-1.412.706-2.37.807c-.958.05-3.682.454-6.052.908-3.631.605-4.388.454-4.942-1.11-.353-1.009-1.614-3.228-2.825-4.892-2.521-3.48-5.598-9.834-5.598-11.549 0-6.203-6.001 7.414-6.707 15.281-.757 7.918-1.614 8.372-9.078 4.791-10.137-4.942-19.013-19.366-20.374-33.235l-.656-6.505-2.774 2.975c-1.513 1.664-2.824 3.48-2.875 4.035-.252 2.017-.554 3.076-1.361 4.841-.454 1.009-.505 5.094-.101 9.078.353 3.984.857 9.28 1.009 11.801.453 6.254.403 6.052 1.916 5.447 1.362-.504 5.295 4.337 4.337 5.346-.655.655-6.253-4.892-10.439-10.339-6.456-8.321-11.953-24.56-10.742-31.47.504-2.975-.757-4.589-2.018-2.521zm-1.412 20.778c-.252 1.361.051 2.723.656 3.127.605.353 1.109 1.966 1.109 3.58 0 1.564.404 3.026.858 3.178 2.118.806 2.168 4.438.151 4.438-1.463 0-2.32-.959-3.026-3.531-1.21-4.438-1.311-14.474-.151-13.768.504.303.655 1.665.403 2.976zm22.493 1.462c1.412 7.969 12.356 25.822 15.18 24.712.908-.353 1.412.202 1.412 1.564 0 1.21 1.211 2.874 2.774 3.883 1.513.958 3.026 2.068 3.278 2.421 1.664 2.067 5.749 3.076 10.137 2.521 4.539-.605 4.842-.504 5.85 2.169 2.068 5.396 7.212 9.229 7.212 5.346 0-1.059 1.16-2.825 2.522-3.884 3.429-2.723 3.177-4.69-1.513-11.397-4.085-5.851-5.044-8.473-2.774-7.716.706.252 2.572.05 4.236-.404 3.682-1.059 7.262 2.017 5.749 4.942-.504.959-.554 2.673-.151 3.783.404 1.109.656 2.471.555 3.026-.151.555-.051.655.202.201.252-.453 1.059-.252 1.866.354.756.655 2.067.907 2.925.605 2.874-1.11 1.513 1.866-2.623 5.749-2.269 2.118-4.892 5.548-5.799 7.565-3.43 7.666-14.424 19.366-11.852 12.658.303-.756.151-1.412-.353-1.412-1.816 0-2.068 1.866-.454 3.48 1.866 1.866 1.21 4.589-1.16 4.589-.857 0-1.311.454-.908 1.059.908 1.463-2.219 5.901-5.144 7.212-3.076 1.412-3.177 2.824-.202 2.774 3.329-.05 11.852-9.935 11.852-13.718 0-.756 7.666-11.145 9.784-13.263.706-.757 1.311-1.917 1.311-2.572 0-6.002 20.677-16.492 23.149-11.801 1.311 2.37 1.361 3.379.151 2.622-.504-.303-2.219.454-3.783 1.715-1.563 1.261-3.984 2.925-5.396 3.631-1.361.706-3.227 1.815-4.085 2.471-2.068 1.614-12.053 14.726-12.053 15.836 0 .504-1.564 2.622-3.53 4.74-5.144 5.649-3.127-1.311 2.269-7.766.706-.807 3.682-4.489 6.556-8.069 3.732-4.64 6.859-7.313 10.541-9.078 5.295-2.522 6.657-4.035 3.782-4.035-5.295 0-21.383 16.794-27.939 29.15-2.018 3.783-4.842 8.221-6.304 9.784l-2.623 2.824 3.076 2.724c1.665 1.462 3.077 3.177 3.077 3.732 0 1.26 3.883 2.672 4.791 1.815.302-.353-.051-.605-.858-.605-1.159-.05-1.159-.202.101-1.009 1.211-.807 1.059-.958-.756-1.008-1.261 0-2.27-.454-2.27-1.009 0-.555.908-1.009 2.018-1.009 1.109 0 2.017-.454 2.017-1.008 0-.555-1.009-1.009-2.269-1.009-4.59-.05-6.153-3.934-2.169-5.447.756-.302 1.412-1.21 1.412-1.966 0-.908.706-1.312 1.765-1.06 1.211.303 3.329-1.462 6.809-5.749 2.773-3.429 5.598-6.808 6.304-7.514.706-.706 1.26-2.018 1.26-2.925 0-2.068.505-1.967 3.884.504 5.497 4.085 11.599-1.715 9.431-8.876-1.06-3.429-1.009-3.934 1.059-5.548 2.521-1.916 5.799-2.32 5.799-.706 0 1.463 6.052 10.339 7.767 11.348 1.866 1.16 1.765 9.783-.151 9.783-1.665 0-3.026 3.48-2.018 5.094.404.706 1.765-.353 3.329-2.622 3.026-4.237 4.64-2.32 1.765 2.067-2.32 3.48-2.017 4.237 1.412 3.732 2.068-.302 3.682-1.513 5.094-3.833 1.16-1.916 2.572-3.429 3.126-3.429.555 0 .707-.454.354-1.009-.354-.554-.253-1.008.201-1.008 2.371 0 3.026 3.681 1.412 8.119l-1.664 4.489-7.06.202c-3.833.151-8.019.706-9.28 1.26-5.749 2.673-7.01 3.178-10.086 4.035-2.825.807-3.279.656-3.279-.908 0-2.774-2.319-4.085-6.909-3.934-2.824.152-4.186.656-4.186 1.564 0 .807.505 1.109 1.059.756 1.211-.756 7.011 1.412 7.011 2.623 0 1.412-6.456 6.253-6.859 5.094-.505-1.564-2.219-1.362-2.219.302 0 1.21-4.993 2.976-5.901 2.118-.202-.201.353-1.412 1.261-2.673.908-1.26 1.563-3.227 1.513-4.337 0-1.16-.303-1.513-.555-.807-.403.908-1.008.958-2.521.152-2.219-1.16-4.892-.555-4.892 1.059 0 .605.907 1.059 2.017 1.059 1.109 0 2.017.403 2.017.907 0 2.068-1.311 4.136-2.622 4.136-.757 0-1.412.403-1.412.958 0 1.513 2.017 2.32 3.328 1.311 2.37-1.815 15.634.757 19.971 3.884 4.338 3.076 3.531 4.034-1.866 2.219-2.622-.908-5.446-1.866-6.304-2.118-2.521-.858-4.488-.807-5.9.201-.908.656-1.614.505-2.219-.454-.757-1.21-.908-1.16-.958.303 0 1.16.756 1.765 2.269 1.765 1.866.051 2.017.202.756 1.11-1.159.807-1.21 1.21-.252 1.563.706.303 1.261 1.362 1.261 2.37 0 1.059.454 2.169 1.009 2.522 1.614 1.009 2.471-2.572 1.16-4.69-1.967-3.127 1.21-3.43 8.018-.757 7.313 2.925 10.137 5.649 10.339 10.137.202 4.842 3.228 6.859 3.934 2.623.201-1.261.403.353.454 3.53.151 6.405-.555 7.06-3.581 3.228-2.32-2.926-7.968-6.96-11.146-7.969-1.714-.554-1.916-1.059-1.109-2.572 1.513-2.824 1.21-6.052-.504-6.052-1.009 0-1.513 1.009-1.513 3.077 0 3.933-6.304 2.168-13.97-3.884-2.169-1.714-2.774-1.765-6.455-.504-5.245 1.816-5.8 1.11-1.312-1.664 1.967-1.261 3.581-2.875 3.581-3.682v-1.916c0-.807-1.009-.605-1.21.252-1.513 6.354-20.476 4.337-23.048-2.421-1.21-3.177-3.177-3.076-2.37.101.555 2.37.454 2.421-2.018 1.261-1.412-.656-2.622-2.017-2.622-2.976 0-.958-.454-1.765-.958-1.765-.555 0-.706-2.067-.404-4.841.454-3.682.101-5.85-1.412-8.826-2.219-4.488-3.631-10.54-2.471-10.54 1.765 0 3.228 2.622 3.228 5.749 0 3.53 1.21 6.304 4.539 10.288 1.109 1.362 1.513 2.169.907 1.816-.756-.404-.958.202-.655 1.815.302 1.513.908 2.219 1.614 1.816.605-.404 1.916-.757 2.925-.857 2.824-.202 3.479-4.489.655-4.489-.454 0-.605.656-.252 1.513.353.958-.05 1.513-1.059 1.513-.908 0-1.563-.353-1.513-.756.504-3.026-.403-6.607-2.017-8.221-2.673-2.673-3.833-8.17-1.715-8.17.908 0 1.614-.403 1.614-.908 0-1.361-2.673-3.227-4.186-2.925-1.765.404-1.866-4.387-.101-4.993.706-.252 1.261.303 1.261 1.11 0 1.009 1.311 1.816 3.631 2.269 3.581.656 5.649 3.026 3.732 4.287-1.967 1.362-2.269 4.236-.555 6.203 2.169 2.522 8.826 2.825 9.734.404 1.462-3.732-.404-4.64-3.581-1.765-1.715 1.563-1.866 1.563-1.866 0 0-.908-.454-1.665-1.009-1.665-.857 0-.453-1.21 1.766-4.942.1-.252 1.916-.706 4.034-1.059 2.925-.504 3.732-1.059 3.48-2.471-.303-1.513.101-1.765 2.118-1.261 3.228.807 7.162-2.118 6.203-4.64-.807-2.168-2.067-2.269-2.824-.252-.656 1.664-5.699 2.118-5.699.555 0-.555.757-.706 1.665-.353 2.067.756 1.21-5.598-.908-6.96-3.127-2.017-6.405 7.262-3.581 10.087.656.655.757 1.21.252 1.21-.504 0-.252.454.555 1.009 1.21.806 1.059.958-.757 1.008-1.26 0-3.076-.908-4.034-2.017-.908-1.11-2.068-2.017-2.522-2.017-.454 0-.353.907.252 2.017.807 1.513.757 2.017-.201 2.017-2.875-.05-4.136-1.815-3.531-4.892.353-1.714.202-3.379-.353-3.681-.504-.353-.958.101-.958.958s-.504 1.563-1.109 1.563c-.807 0-.807.454.05 1.463 1.967 2.37.757 4.135-1.362 2.017-1.765-1.765-7.514-2.723-15.482-2.673-1.816.051-3.278-.353-3.278-.857 0-.555-.656-.958-1.463-.958-.756 0-2.32-1.16-3.379-2.522-1.109-1.412-2.673-2.522-3.48-2.522-1.664 0-11.196-10.036-14.322-15.079-1.513-2.37 5.497 2.32 7.111 4.791 1.059 1.614 1.916 2.068 2.723 1.412 1.412-1.16 5.194.051 6.405 2.068.454.757 2.471 2.32 4.387 3.48 8.675 5.194 11.045 6.254 11.701 5.245.454-.757.958-.757 1.664-.051.756.757.656 1.614-.353 2.774-1.311 1.614-1.21 1.614 1.109.303 3.985-2.27 5.044-4.085 3.379-5.749-.807-.807-1.21-1.715-.907-2.018.857-.807 5.598 2.018 4.992 2.976-.302.454-.1.857.454.857.505 0 1.211-.756 1.564-1.614.504-1.311.907-1.412 2.118-.403.807.655 2.017 1.008 2.723.756s2.118-.05 3.077.404c1.059.555 1.765.555 1.765-.051 0-.504.302-1.714.655-2.622.555-1.463.051-1.614-4.034-.958-3.43.504-4.691.353-4.691-.555 0-.656-.655-.958-1.512-.656-.807.353-1.513.101-1.513-.504s-.656-.807-1.513-.504c-2.925 1.16-18.459-7.969-18.61-10.944 0-.605-1.967-2.875-4.337-5.094-2.37-2.219-4.892-5.144-5.598-6.556-.706-1.362-2.572-4.741-4.186-7.514-4.287-7.464-3.682-8.927.706-1.715 4.791 7.867 13.667 18.004 16.643 18.962 2.42.757 20.021 12.306 21.08 13.869.656.958 2.875.051 2.875-1.261 0-.756-10.238-8.17-11.297-8.17-.857 0-8.876-8.22-8.876-9.077 0-.404-.756-1.362-1.664-2.169-2.824-2.32-5.195-9.027-5.951-16.895-.807-7.918.857-9.683 2.118-2.32zm23.098 21.989c4.64 2.168 10.389 2.471 11.095.655 1.059-2.773 2.572-1.008 2.572 3.077 0 6.354-4.539 9.431-7.06 4.74-.757-1.462-1.715-1.866-3.379-1.462-1.463.353-3.228-.202-4.993-1.563-3.076-2.421-2.824-4.136.454-3.279 1.361.353 1.916.202 1.513-.504-.555-.958-4.64-2.118-8.977-2.522-1.059-.1-2.169-1.462-2.673-3.227-.504-1.715-1.21-3.984-1.664-5.094-.454-1.261 1.16-.202 4.186 2.673 2.723 2.572 6.757 5.497 8.926 6.506zm-38.328-5.901c.302 1.009 1.966 3.379 3.731 5.296 1.715 1.916 3.732 4.841 4.489 6.505.756 1.715 1.362 2.673 1.362 2.219.05-.504 1.966.858 4.337 2.976 2.37 2.169 4.135 4.287 3.984 4.791-.151.504.403.656 1.21.353.807-.353 2.018.101 2.724.908 1.008 1.21 1.412 1.261 2.067.202.555-.908.807-.908.858-.152 0 .656.252 1.917.605 2.774.807 2.118-2.925 2.169-4.64.101-.706-.857-1.916-1.513-2.673-1.513-.807 0-1.664-.656-1.967-1.412-.302-.807-1.613-1.715-2.925-2.017-5.245-1.312-18.912-18.963-17.046-21.989.908-1.463 3.278-.857 3.884.958zm78.724 3.884c0 1.563-.605 1.866-3.53 1.563-5.043-.454-5.901-1.866-1.916-3.026 4.387-1.261 5.446-.958 5.446 1.463zM84.17 59.46c7.464 9.33 15.08 17.247 16.845 17.55.857.151 3.127 1.261 5.043 2.471 3.833 2.421 3.833 2.421 9.33 2.724 4.892.252 5.346.807 3.833 4.387l-1.21 2.925-2.472-2.269c-1.613-1.513-3.479-2.219-5.245-2.017-1.513.151-2.925-.051-3.227-.454-.252-.404-3.43-2.169-7.061-3.934-10.893-5.295-25.367-23.3-25.166-31.369 0-1.664-.151-1.866 9.33 9.986zm71.312-4.287c3.026 4.741 3.933 9.733 2.017 10.893-.555.353-1.311-.756-1.664-2.471s-1.059-3.429-1.665-3.782c-.655-.404-.806.504-.403 2.572.958 4.791-.908 3.833-2.118-1.11-.908-3.833-.656-10.843.454-10.843.201 0 1.765 2.118 3.379 4.741zm27.233-3.48c.051-.403.908.353 2.017 1.765 2.018 2.572 2.724 5.598 1.11 4.59-.504-.303-2.875.151-5.245 1.008-5.295 1.866-7.363 1.311-6.405-1.715.605-1.865.353-2.067-1.513-1.563-1.664.404-2.118.151-1.815-1.16.201-1.16 1.26-1.614 3.53-1.513 1.765.051 3.177-.151 3.127-.504-.253-1.765.353-2.017 2.673-1.16 1.412.504 2.521.605 2.521.252zM60.77 63.545c1.21 2.773 2.521 5.043 3.026 5.043.454 0 1.109 1.563 1.462 3.53.404 1.917 1.11 3.53 1.614 3.53.555 0 .706.454.353.959-.302.554.353 2.017 1.513 3.278 3.984 4.337 4.741 5.346 5.296 7.01.353.958 3.328 3.883 6.657 6.556 7.161 5.749 7.464 6.859 2.42 9.179-2.067.958-7.01 4.135-10.994 7.06-3.934 2.925-7.716 5.296-8.321 5.296-2.017 0-7.615-7.111-9.33-11.902-1.866-5.296-1.412-8.826.756-5.649 6.304 9.179 10.289 12.558 11.297 9.633.202-.656.807-.908 1.362-.555 2.673 1.664 4.387-.757 1.866-2.673-2.017-1.563-2.169-1.916-.757-1.967 2.118 0 2.32-1.563.404-2.723-4.287-2.522-11.6-26.628-8.473-27.889 1.261-.505-.756-2.623-2.521-2.673-2.572-.051.151 14.524 4.589 24.46 1.462 3.177 2.219 5.799 1.765 5.799-.454 0-1.109-.807-1.412-1.765-.353-.958-1.059-2.471-1.563-3.278-.555-.857-1.564-2.975-2.32-4.791-.706-1.816-1.614-3.278-1.967-3.278-.858 0 .101 3.732 1.815 7.01.757 1.412 1.362 2.925 1.362 3.379 0 .454 1.21 2.421 2.673 4.337 3.076 4.035 2.421 5.951-.807 2.32-5.598-6.304-11.852-23.955-10.187-28.847.958-2.724 1.008-2.623 1.714 2.219.908 6.556 1.261 7.565 2.673 7.565.656 0 .858-.706.404-1.766-.858-2.017-1.463-20.273-.757-22.19.908-2.37 2.219-1.261 4.388 3.783zm17.197 10.288c1.866.908 7.01 3.328 11.448 5.295 4.438 2.018 8.776 4.085 9.583 4.59.857.554 3.681 1.916 6.304 3.126 2.622 1.211 4.791 2.572 4.791 3.127 0 .505.454.656 1.059.252.554-.353 1.714-.101 2.521.606.757.655 2.068.958 2.825.655 1.008-.403 1.714 1.009 2.622 4.943.656 2.975 2.017 6.001 3.026 6.707 2.37 1.664 1.664 7.817-.857 7.817-6.103 0-19.568 25.115-21.031 39.135-.706 7.011-2.219 4.792-2.269-3.328 0-7.414 2.975-22.493 4.589-22.896 1.715-.454 12.558-12.961 12.558-14.525 0-.756.908-1.815 2.017-2.421 1.11-.605 2.017-1.765 2.017-2.572 0-2.773-2.773-1.462-5.396 2.522-1.462 2.169-4.135 5.497-5.951 7.414-8.271 8.623-12.759 13.717-16.289 18.659-4.489 6.153-6.052 6.405-2.169.303 1.412-2.269 2.572-4.539 2.572-5.094 0-1.664 6.909-10.288 12.457-15.533 11.902-11.145 13.869-13.213 12.86-13.566-.605-.202-2.421.605-4.035 1.715-1.613 1.16-3.53 2.118-4.286 2.118-1.059.05-1.11.202-.101.857 1.513.958-1.967 4.59-5.396 5.598-1.16.353-2.724 1.866-3.531 3.379-.756 1.513-3.782 5.699-6.707 9.28-2.925 3.58-5.296 7.211-5.296 8.069 0 .857-1.714 4.942-3.782 9.128l-3.782 7.565-.303-6.002c-.202-4.085.252-7.262 1.412-9.834 1.967-4.387 1.513-5.547-1.412-3.732-2.32 1.463-3.076 5.749-3.682 21.232-.201 5.749-.706 11.7-1.109 13.213-1.715 6.809 2.622 2.623 7.262-7.06 5.548-11.599 12.558-23.451 13.819-23.451.454 0 .605.756.252 1.664-3.278 8.523-.958 28.999 3.934 34.849 1.412 1.664 2.521 4.287 2.521 5.85 0 4.539 13.264 20.274 21.686 25.72 5.094 3.329 11.852 6.557 13.617 6.557 3.833 0 7.312 8.876 5.093 13.011-.857 1.614-.706 1.866.959 1.412 2.219-.605 3.026-9.632 1.008-10.893-2.471-1.513-.403-2.068 7.464-2.068 4.64.051 8.271.404 8.019.807-.252.404-1.311.757-2.37.757-1.059 0-2.219.504-2.623 1.16-.504.857 0 .958 1.715.453 1.311-.403 3.984-1.109 5.85-1.613 1.916-.454 4.741-1.816 6.254-2.925 1.664-1.261 3.076-1.715 3.429-1.11.353.555-.101 1.009-1.009 1.009-.907 0-1.412.353-1.16.807.303.403-.907 1.361-2.673 2.067-8.371 3.379-9.531 4.035-6.757 4.085 1.412 0 4.337-.857 6.556-1.916 2.219-1.059 5.497-1.967 7.312-1.967 3.329-.05 4.691-1.967 1.513-2.169-1.866-.1-1.311-.403 4.539-2.37 1.261-.454 2.27-1.261 2.27-1.815 0-1.16 2.521-3.379 5.547-4.842 1.11-.555 3.833-2.068 6.052-3.429 4.993-3.077 6.254-3.127 7.111-.404.454 1.463.151 2.471-.958 3.077-.857.504-1.614 1.513-1.614 2.269 0 .757-1.462 2.27-3.278 3.379-1.816 1.11-5.85 3.833-9.027 6.001-5.296 3.732-23.401 11.196-28.394 11.802-1.21.151-3.732.605-5.699 1.059-1.916.403-5.093.907-7.06 1.008-1.917.152-6.455.908-10.087 1.665-9.683 2.067-43.321 1.815-49.423-.353-2.471-.908-7.918-2.623-12.054-3.833-8.472-2.522-12.255-4.59-11.549-6.456 1.009-2.572-3.227-4.892-7.615-4.135-4.74.807-6.606 3.328-5.699 7.767.706 3.631-1.26 3.429-3.177-.303-3.328-6.355 2.976-13.415 8.775-9.784 2.522 1.563 3.531.555 2.119-2.118-2.371-4.438-10.793-1.311-13.567 4.993-3.127 7.111 3.278 16.239 8.271 11.7 1.261-1.11 2.169-1.311 2.875-.605s1.462.555 2.32-.505c1.109-1.361.958-1.563-1.312-1.563-2.824 0-5.043-2.925-4.135-5.346.958-2.521 5.144-3.833 6.607-2.118 1.109 1.311.907 1.463-1.463.857-3.278-.806-3.682 1.11-.403 2.119 1.26.403 3.883 1.966 5.799 3.479 3.984 3.077 9.078 5.044 13.113 5.044 1.916 0 3.026.756 3.833 2.521.655 1.412 1.513 2.421 1.966 2.32 7.918-2.118 12.508 22.695 4.993 27.334-3.177 1.917-23.905 2.774-27.435 1.11-.555-.303-1.21-.05-1.513.454-1.614 3.076 25.67 3.278 29.049.252 1.614-1.463 2.068-1.513 2.522-.403.655 1.714-.303 3.177-2.32 3.429-.807.151-3.53.706-6.052 1.311-12.507 2.976-17.298 2.976-23.199-.05-3.026-1.564-6.506-3.077-7.716-3.43-2.118-.605-3.934-3.328-2.925-4.387.252-.252 1.614.252 3.026 1.16 3.177 2.118 3.58 2.067 3.58-.252 0-1.009-.857-2.119-1.966-2.371-1.412-.403-1.765-1.109-1.362-2.723 1.21-4.589-6.657-6.052-10.44-1.917-.958 1.06-1.815 3.632-1.916 5.75-.101 2.067-.504 4.791-.908 6.001-1.614 5.094 1.614 7.868 8.523 7.363 3.934-.302 6.758-2.118 3.278-2.118-1.21 0-3.429-1.21-4.891-2.723l-2.724-2.724.656 2.724c.504 2.068.302 2.723-.858 2.723-2.42 0-2.067-10.692.505-14.877 2.269-3.783 2.673-3.884 5.194-1.614 2.219 2.017 2.421 4.387.404 4.387-3.228 0-6.556 1.967-5.951 3.531.504 1.361.756 1.361 1.967-.202 1.21-1.664 1.361-1.513 1.361 1.412.051 2.421.404 3.127 1.513 2.723.807-.302 4.791 1.059 8.876 3.026 7.263 3.581 7.565 3.631 14.424 2.623 8.271-1.16 16.39-2.774 17.601-3.53.454-.303 1.16-.101 1.462.453 2.018 3.178-7.766 5.397-21.333 4.791-8.069-.353-13.566-.252-13.969.353-.303.555 1.109.959 3.278.959h3.833l.201 23.955c.202 30.764.051 28.494 1.917 28.494 1.21 0 1.412-.454.807-1.765-.454-.958-.807-4.034-.706-6.808.05-2.774.151-13.566.252-23.956l.101-18.912h3.429c3.43 0 3.43 0 2.774 3.783-1.311 7.06-.857 39.892.555 40.346 1.21.403 1.361-3.379 1.513-39.842v-4.287h3.933c4.338 0 4.237-.101 2.976 3.329-2.421 6.354-5.8 43.523-4.085 44.632.555.303 1.008-1.109 1.059-3.278.101-5.093.303-7.211 1.765-17.954 3.177-22.896 4.438-27.485 7.918-28.847 3.48-1.311 3.429-1.462 1.715 7.716-.858 4.388-1.967 10.289-2.421 13.062-.504 2.774-1.211 6.153-1.564 7.565-.403 1.362-.907 7.615-1.21 13.869l-.454 11.347h-3.681c-4.842 0-9.229.505-17.803 2.018-3.883.706-8.019 1.21-9.229 1.16-1.715-.101-2.068.353-1.664 1.916.756 2.774 2.219 3.48 3.631 1.664 1.513-1.866 19.265-3.732 29.452-3.076 7.767.454 12.054 1.261 24.309 4.287 8.422 2.067 10.288 2.723 19.265 6.758 2.925 1.311 6.455 2.672 7.817 3.025 1.412.353 2.572 1.009 2.572 1.463 0 .454 1.361 1.109 3.026 1.463 1.664.353 3.227 1.059 3.53 1.563.353.504 7.918 5.043 16.945 10.187 8.977 5.094 18.862 10.944 21.888 13.012 3.076 2.067 7.817 4.892 10.641 6.304 2.774 1.412 5.699 3.732 6.455 5.144 1.766 3.328 4.64 3.631 3.581.353-.403-1.261-1.109-9.078-1.513-17.399-.454-8.322-1.109-16.794-1.513-18.761-.454-2.37-.302-3.934.404-4.388 1.311-.807 1.513-6.606.201-6.606-.504 0-1.16.554-1.462 1.261-.858 2.118-.706-3.43.302-9.835.505-3.328 1.11-8.119 1.412-10.591.253-2.521.908-5.698 1.463-7.06.504-1.412 1.463-6.405 2.169-11.095.655-4.741 1.462-9.28 1.815-10.087.303-.857.706-2.42.908-3.53 2.017-11.297 2.572-12.658 7.262-17.5 11.902-12.305 29.352-14.877 37.673-5.547 1.917 2.118 5.043 15.23 3.883 15.987-.958.554-2.773-3.077-3.53-7.061-.807-4.085-4.892-9.128-6.556-8.119-.706.453-.857 1.109-.353 1.412 2.017 1.412 4.337 5.799 4.337 8.22 0 1.412.706 3.581 1.563 4.842.908 1.26 1.11 2.219.505 2.219-1.463 0-5.094-6.052-5.094-8.423 0-4.085-7.363-9.733-12.709-9.733-5.598 0-4.993 2.068.757 2.471 5.9.454 13.415 11.6 10.086 14.928-1.513 1.513-3.177-.05-3.177-2.975 0-3.682-5.648-9.734-9.784-10.49-4.236-.757-5.447.706-1.362 1.614 3.329.706 8.12 5.698 8.12 8.472 0 .958.656 2.623 1.463 3.682 2.269 2.975 1.866 3.732-.959 1.866-1.412-.908-2.521-2.118-2.521-2.724 0-4.286-9.532-11.801-14.928-11.801-3.833 0-2.421 1.614 3.833 4.287 4.942 2.118 6.304 3.278 7.766 6.455.958 2.118 2.37 4.69 3.177 5.649 1.312 1.563 1.261 1.765-.151 1.765-.908 0-2.875-1.715-4.388-3.783-3.227-4.488-8.422-9.279-10.086-9.279-1.412-.051 2.32 4.64 8.977 11.297 3.581 3.58 4.438 4.992 3.329 5.396-1.917.756-6.002-2.37-8.019-6.153-3.278-6.052-13.113-9.935-14.474-5.749-.303.908.252 1.109 1.967.706 3.278-.857 8.926 3.127 11.145 7.867.958 2.068 2.219 3.732 2.774 3.732.555 0 1.009.807.958 1.766 0 1.563-.151 1.563-1.261.252-2.622-3.228-12.961-11.297-13.616-10.642-.353.404.1 1.16 1.059 1.665.958.554 2.874 2.975 4.337 5.446 1.513 2.572 3.127 4.237 3.883 3.934.706-.252 1.866.202 2.572 1.059 1.11 1.311 1.009 1.564-.706 1.564-2.017 0-6.405-3.732-9.078-7.817-.807-1.261-2.37-2.27-3.379-2.27-2.622 0-2.42 1.009.706 3.732 1.917 1.614 2.421 2.774 1.866 4.035-1.916 4.488-4.286 11.902-3.984 12.457.202.302-.05 2.37-.555 4.538-1.714 6.96-.756 46.449 1.16 50.029 1.312 2.522 1.211 4.842-.201 2.875-.807-1.16-.908-.757-.404 1.513.404 1.664.858 4.135 1.009 5.547.202 1.362 1.311 7.01 2.471 12.508 1.11 5.497 2.068 11.347 2.068 12.961 0 1.563.403 3.681.857 4.589 2.118 4.186 2.37 7.565.454 6.808-1.009-.403-6.102-1.815-11.398-3.126-17.348-4.388-34.142-1.413-55.727 9.733-2.472 1.261-3.379 1.11-1.967-.303.655-.655 1.21-1.966 1.21-2.874 0-2.572 10.692-6.607 24.258-9.179 6.607-1.311 12.053-2.673 12.053-3.127 0-1.714-17.752 1.816-28.746 5.699-6.657 2.421-7.313 2.471-11.499 1.009-2.42-.807-4.639-1.261-4.891-1.009-1.009 1.009 1.008 2.623 3.227 2.623 2.824 0 3.48 1.412 2.824 5.799-.403 2.673-.958 3.278-2.925 3.278-1.361 0-2.219-.403-1.916-.907.656-1.11-2.017-7.767-3.53-8.725-1.866-1.16-1.917 0-.152 4.841 1.211 3.48 1.362 5.044.555 5.851-.807.806-1.261.151-1.765-2.371-.605-3.328-4.085-7.666-5.195-6.556-.302.303.404 2.118 1.513 4.035 1.513 2.521 1.917 4.438 1.463 6.707-.757 3.631-2.421 4.287-2.421.908-.05-2.471-1.916-8.17-3.732-11.347-1.967-3.379-2.673-.807-.958 3.53 2.32 5.749 2.169 9.733-.504 11.196-1.917 1.008-2.068.908-1.362-.757 1.563-3.833 1.715-6.405.353-9.38-1.412-3.177-3.883-4.186-3.883-1.563 0 .806.403 1.513.908 1.513 2.471 0 2.269 11.448-.253 12.406-.756.302-1.21-1.211-1.311-4.388-.202-4.791-1.664-8.876-3.732-10.238-1.866-1.21-2.874.354-1.311 2.068 6.909 7.716-1.463 14.071-13.466 10.238-2.975-.958-1.765-1.261 6.557-1.563 8.674-.353 8.573-.353 8.573-1.463 0-.555-1.563-1.009-3.53-1.009-3.429 0-3.53-.1-3.48-3.782.051-4.236 4.892-7.313 17.954-11.398 3.379-1.008 6.909-2.269 7.918-2.824 1.008-.504 3.681-1.866 6.001-3.026 2.27-1.21 5.699-2.168 7.565-2.168 1.866-.051 5.195-.454 7.414-.959 2.219-.504 6.304-1.26 9.077-1.614 2.774-.353 5.245-.857 5.447-1.059 1.311-1.21-1.412-1.311-8.069-.353-4.085.606-9.986 1.463-13.012 1.917-3.076.454-8.422 2.219-11.902 3.883-3.479 1.715-8.674 3.883-11.599 4.791-2.875.958-7.464 2.875-10.238 4.236-10.237 5.145-36.059 5.649-42.363.858-5.396-4.085-13.264-21.686-12.305-27.486.554-3.681.554-3.681-1.765-2.774-3.884 1.463 3.227 22.947 10.086 30.562l4.337 4.842 11.801-.101 11.801-.101 1.312 3.026c1.361 3.228 3.328 1.311 2.067-2.017-.453-1.16.202-1.513 2.774-1.513 2.673 0 3.53.504 3.984 2.219 1.059 4.034-1.109 5.144-8.371 4.387-3.631-.403-8.423-.857-10.642-1.008-2.219-.101-5.396-.605-7.06-1.009l-3.026-.756 3.53 2.471c3.278 2.269 6.355 3.379 16.643 5.951 4.287 1.059 12.911 1.21 15.836.302 1.008-.353 1.815-.151 1.815.404 0 2.471-13.314 3.429-21.686 1.614-4.438-1.009-9.784-1.866-11.851-1.967-2.471-.101-4.791-1.059-6.556-2.673-1.513-1.412-4.943-3.782-7.565-5.295-2.774-1.564-4.791-3.43-4.791-4.438 0-.959-.807-2.925-1.766-4.338-.958-1.462-3.076-4.639-4.69-7.06-1.614-2.421-2.975-5.295-3.076-6.405-.151-2.723-2.673-10.893-3.732-12.104-.504-.504-.857-1.967-.857-3.227 0-3.127-1.866-3.985-2.875-1.261-.706 2.017-.958 1.714-2.017-2.371-1.564-6.253-1.564-6.102 1.866-7.665 9.027-3.984 13.213-15.231 7.817-21.081-3.833-4.135-6.052-2.925-2.825 1.563 3.985 5.548 2.169 13.062-3.883 15.786-2.168 1.008-4.438 1.513-4.993 1.16-3.076-1.917-.857 11.044 3.631 20.576 7.162 15.382 9.179 21.182 7.313 21.182-.555 0-1.009-.656-1.009-1.412 0-.807-.353-1.614-.756-1.766-.403-.201-3.228-5.345-6.203-11.448-3.026-6.102-5.951-12.003-6.506-13.112-.555-1.11-1.261-3.581-1.614-5.447-.302-1.866-1.008-3.48-1.563-3.53-1.866-.202-1.664 4.287.454 8.372 3.631 7.06 2.168 6.959-1.816-.202-4.034-7.161-5.85-9.481-6.707-8.624-.505.504 1.916 5.548 6.102 12.457 2.522 4.186 2.622 4.387 5.195 11.095 4.639 11.902 10.288 20.677 13.314 20.677 1.109 0 .605-.958-1.564-2.975-3.026-2.825-6.052-8.221-8.22-14.676-.555-1.664-1.362-3.883-1.765-4.943-1.967-4.841 1.563-.05 4.539 6.153 3.479 7.363 7.615 13.415 9.178 13.415.505 0 1.009-1.462 1.009-3.278.05-2.925.202-3.076 1.261-1.412.655 1.059 2.168 3.429 3.379 5.245l2.168 3.278-4.589 2.017-4.64 2.018-5.094-5.598c-2.773-3.026-5.799-7.212-6.707-9.229-.908-1.967-2.421-4.237-3.329-4.993-.907-.807-1.664-2.118-1.664-2.976 0-.807-1.059-2.925-2.32-4.64-1.261-1.714-3.833-7.211-5.699-12.204-1.916-4.993-3.782-9.532-4.236-10.036-1.563-1.765-.908-2.118 3.883-2.32 7.061-.303 17.349-6.506 17.45-10.54 0-1.261-1.866-1.866-2.522-.757-2.471 3.984-10.59 8.725-15.281 8.876-5.698.202-7.716-2.017-8.674-9.531l-.504-4.186 7.01-.656c10.086-.908 15.382-4.135 15.483-9.33.05-2.925-.555-2.975-4.035-.202-2.421 1.917-3.631 2.068-10.238 1.564-5.699-.404-7.464-.252-7.464.756 0 2.572 12.81 2.976 16.996.505 3.631-2.169 3.631-2.169 1.815-.101-3.984 4.438-17.802 6.606-21.03 3.379-.555-.555-1.21-2.825-1.513-5.144l-.555-4.136h5.195c2.875 0 6.808-.656 8.826-1.513 3.832-1.614 5.396-1.311 5.396 1.059 0 .807.454 1.463 1.009 1.463 1.412 0 1.26-2.774-.404-8.624-.807-2.774-1.765-7.515-2.169-10.541-.353-3.076-1.159-6.152-1.765-6.858-.554-.706-1.16-2.522-1.311-4.035-.101-1.513-.908-9.33-1.765-17.349-.857-8.069-1.563-16.34-1.664-18.407-.202-6.204-.404-7.817-.958-7.817-.303 0-.555-4.186-.606-9.33 0-5.144-.302-15.483-.605-22.947-.605-13.365.555-25.216 2.421-25.216.504 0 1.815.504 2.925 1.109 2.269 1.211 6.909.454 6.909-1.109 0-.555-1.311-1.009-2.925-1.009-3.429 0-8.725-4.034-9.733-7.363-.404-1.21-1.765-3.681-3.077-5.447-1.361-1.765-2.42-3.479-2.42-3.883 0-.353-.656-2.068-1.463-3.833-3.228-7.212-3.631-12.91-1.261-17.802 2.27-4.691 2.371-5.044 2.623-7.565.05-.858.554-1.513 1.109-1.513.656 0 .757 1.109.353 2.774-.353 1.513-.655 3.177-.655 3.782.958 17.5 3.732 26.275 10.237 32.025 3.884 3.378 7.616 3.984 4.691.756-1.009-1.11-2.421-2.017-3.178-2.017-.756 0-1.361-.706-1.361-1.513 0-.858-.454-1.513-1.009-1.513-1.614 0-3.833-4.237-5.497-10.541-1.816-6.909-1.412-7.968 1.563-4.185 4.993 6.354 20.123 9.077 21.837 3.933.253-.857-.554-.857-3.076-.101-10.439 3.228-24.46-7.766-22.493-17.55 1.362-6.708 1.513-8.927.605-8.372-1.26.807-1.26.505.101-3.379 2.219-6.354 3.228-3.53 2.572 7.162l-.655 10.338 2.975 3.228c6.96 7.565 20.829 9.885 24.41 4.085 1.311-2.169-.152-2.623-3.279-1.059-5.144 2.572-12.456 1.311-16.642-2.875l-3.48-3.48-.353-13.062c-.252-10.036 0-13.818 1.16-16.34 2.32-5.144 2.874-4.639 2.471 2.068-.807 13.869 11.65 29.705 19.719 24.964.958-.555 1.412-1.059 1.009-1.16-9.532-1.967-11.549-3.581-16.038-12.81-2.824-5.85-3.076-7.06-2.521-12.961.353-4.085.201-6.253-.404-5.9-1.462.907-1.16-.858.504-3.077 1.463-1.916 1.513-1.916 1.614.051.807 18.105 4.842 26.023 13.314 26.174 5.447.051 6.153-1.815.807-2.068-2.168-.101-4.438-.504-5.043-.857-5.951-3.682-8.977-31.823-3.429-31.823 1.714 0 1.714.152-.152 3.682-2.925 5.547-.706 15.18 5.346 23.3 2.371 3.126 7.262 4.69 7.262 2.269 0-.555-.907-1.009-2.017-1.009-1.109 0-2.017-.605-2.017-1.412 0-.756-.656-1.916-1.463-2.572-.807-.655-2.42-3.328-3.58-5.951-1.211-2.572-2.572-5.447-3.026-6.354-.706-1.312.353-7.868 1.563-9.734.101-.151 1.614 1.11 3.379 2.875 3.076 3.076 6.102 3.631 6.909 1.21.252-.706-.403-1.261-1.462-1.261-6.556 0-12.81-14.827-9.734-22.946.908-2.371 1.967-4.287 2.371-4.287.454 0 1.008-.908 1.311-2.017 1.513-5.75 6.859-2.875 6.254 3.379-.707 6.606 1.966 14.121 6.556 18.71 4.892 4.842 4.892 4.085-.051 10.389-4.841 6.102-8.018 12.003-8.018 14.878 0 2.622 1.613 2.673 3.025.05.606-1.109 1.614-2.017 2.32-2.068 1.766-.05 5.195-2.824 4.438-3.631-.353-.353-1.412 0-2.37.757-1.362 1.109-1.563 1.109-.958.05.454-.706 3.278-2.874 6.253-4.791 2.976-1.916 5.447-3.934 5.447-4.488 0-.606.555-.959 1.261-.858 1.664.303 4.741-1.059 7.716-3.278 3.48-2.723 5.497-2.421 4.741.605-.353 1.362-.152 2.724.403 3.077.555.353 1.009.05 1.009-.656 0-2.068 4.337-7.716 6.808-8.826 1.261-.605 2.27-1.765 2.27-2.572 0-.857 1.361-2.219 3.026-3.076 1.664-.857 3.026-2.219 3.026-3.076 0-.959 1.008-1.463 2.975-1.463 3.228 0 6.102-2.269 6.102-4.791 0-1.412-.201-1.412-1.866.101-1.008.908-2.572 1.664-3.53 1.664-.908 0-3.379 1.513-5.447 3.379-2.067 1.866-5.144 4.085-6.808 4.943-1.664.857-3.883 2.521-4.942 3.681-2.018 2.219-5.649 2.875-5.649 1.009 0-.605.858-1.312 1.917-1.614 1.059-.252 2.168-1.362 2.42-2.421.303-1.059 1.11-2.118 1.866-2.37 3.632-1.311 6.859-2.824 11.449-5.548 2.773-1.614 5.85-2.975 6.808-3.026 1.916-.05 2.37-1.563.756-2.572-.554-.353-1.008-1.109-1.008-1.714 0-.656.454-.706 1.261-.101 1.664 1.311 10.489 1.714 11.196.504.302-.504-2.673-1.513-6.708-2.219-4.539-.857-8.876-2.421-11.599-4.186-2.371-1.563-4.993-2.874-5.8-2.874-.807 0-1.463-.656-1.463-1.413 0-.756-.554-1.664-1.26-2.017s-2.623-1.513-4.287-2.622c-1.664-1.059-4.236-2.673-5.749-3.48-1.513-.858-3.934-2.673-5.447-4.085-2.572-2.371-4.438-3.228-4.438-1.967 0 1.059 11.398 12.003 12.507 12.053 1.11 0 3.48 1.564 10.036 6.556 1.816 1.362 4.993 3.43 7.01 4.539 8.674 4.64-.05 6.456-9.229 1.917-4.438-2.219-5.144-2.976-4.64-4.791.404-1.564.303-1.765-.403-.757-1.614 2.371-9.532-5.043-12.81-12.154-.908-1.866-2.673-5.447-3.984-7.918-3.379-6.405-3.127-6.758 1.916-2.37 2.421 2.118 5.951 4.64 7.817 5.598zm138.79 12.961c1.009.857 2.673 1.916 3.631 2.269 1.009.404 1.513 1.11 1.21 1.614-.302.555-.151 1.261.454 1.614 3.278 2.017.051 10.137-3.732 9.38-1.866-.403-1.916-1.059-.655-7.615.706-3.833-.908-6.304-4.186-6.304-1.261 0-2.522-.605-2.824-1.311-.706-1.866 3.832-1.614 6.102.353zm-9.986 3.631c-.958 1.21-.958 1.664.051 2.32.908.555.706.908-.807 1.311-1.866.505-2.017.252-1.463-2.118.858-3.631 1.312-4.337 2.471-3.631.656.403.555 1.21-.252 2.118zm22.644 7.262c-2.269 5.548-7.363 9.129-7.363 5.195 0-.555.908-1.009 2.018-1.009 1.966 0 2.37-1.21 2.269-7.565-.05-2.723 2.017-3.883 3.429-1.916.908 1.21.858 2.421-.353 5.295zm-136.974 4.186c.757 1.211-4.236 3.682-5.295 2.623-.403-.454.151-1.412 1.21-2.219 2.32-1.665 3.228-1.765 4.085-.404zm117.255 3.53c1.362.353 2.27.202 2.27-.453 0-.555 1.16-1.06 2.521-1.06 1.715 0 2.522.555 2.522 1.766.051 1.412.202 1.462.908.353 1.109-1.715 4.539-.606 3.833 1.21-.252.757.706 1.866 2.32 2.572 1.563.706 3.076 1.916 3.379 2.723.453 1.11.201 1.211-1.16.454-.959-.504-3.884-1.866-6.506-3.026-2.623-1.109-4.791-2.521-4.791-3.026 0-.554-.656-1.008-1.463-1.008-1.008 0-1.412.958-1.261 3.026.202 3.076 1.06 3.833 2.27 1.967.403-.656 1.059-.706 1.815-.152.656.505 2.522 1.463 4.186 2.068 2.875 1.059 2.825 1.11-1.16.555-2.37-.303-4.438-.101-4.791.454-1.21 1.967-9.178-1.665-10.288-4.691-1.311-3.479-.706-5.446 1.463-4.841.907.252 2.673.756 3.933 1.109zm-123.811.555c0 .555-.807 1.311-1.765 1.715-.958.353-2.572 1.715-3.581 2.975-1.008 1.261-2.471 2.32-3.227 2.32-.757 0-2.219 1.059-3.228 2.371-2.169 2.723-6.001 4.992-6.607 3.933-.252-.403-.302-.201-.151.404.151.655-.807 1.916-2.169 2.824-1.916 1.21-2.471 1.311-2.471.303 0-2.068 8.019-9.33 13.617-12.407 2.774-1.513 5.396-3.379 5.85-4.135.958-1.614 3.732-1.816 3.732-.303zm115.49.958c-.303.505-.101 1.866.504 3.026 1.009 1.866.807 2.018-3.479 2.018h-4.59v4.438c0 2.673.605 4.892 1.513 5.648.858.706 1.513 2.522 1.513 4.035 0 1.513.858 3.833 1.917 5.194 1.26 1.614 1.765 3.379 1.412 5.195-.303 1.513 0 3.429.706 4.236.706.857 1.008 2.774.706 4.388-1.059 5.194 1.614 7.514 8.119 6.959 7.515-.605 8.675 1.614 5.498 10.49-3.329 9.229-19.266 30.108-22.998 30.108-.655 0-1.714.656-2.42 1.513-.706.807-3.127 1.967-5.397 2.572-2.319.555-5.093 1.463-6.203 1.967-8.22 3.682-34.092 5.043-37.269 1.917-.505-.505-1.967-.908-3.228-.908-1.261 0-3.934-1.16-6.001-2.522-2.018-1.412-4.237-2.521-4.892-2.521-2.118 0-15.231-15.534-17.097-20.173-1.008-2.522-2.269-5.094-2.824-5.75-4.64-5.648 1.916-32.781 9.027-37.319 1.513-1.009 3.379-2.573 4.085-3.581 2.018-2.673 3.077-2.118 3.833 2.017.353 2.068 1.009 4.236 1.412 4.791.454.555 1.11 2.471 1.463 4.287.403 1.815 1.109 3.278 1.664 3.278 1.463 0 1.059-2.219-1.563-8.876-2.169-5.598-2.219-6.254-.706-6.254 1.311 0 2.017 1.513 2.874 6.204 1.16 6.001 2.623 8.926 3.934 7.665.303-.353-.151-3.076-1.009-6.153-3.076-10.59-2.471-11.902 3.833-8.22 2.32 1.362 6.254 2.723 8.675 3.026 2.471.353 4.639.756 4.841.958.202.202 1.765-.05 3.48-.555 4.388-1.21 4.993.253 2.673 6.96-3.127 9.078-1.009 10.641 2.269 1.664l1.866-4.992-.605 5.295c-.656 5.9.908 7.363 2.118 2.017.454-1.815.706-3.681.555-4.236-.403-2.118 1.11-5.598 2.471-5.598 1.463 0 2.068 3.076 1.765 9.078-.151 2.42-.101 2.471 1.312.554.806-1.059 1.462-2.773 1.462-3.782s.353-1.815.757-1.815c2.017.05 3.126 1.916 3.782 6.304.857 5.497 2.975 6.657 2.32 1.26-.303-2.471 0-3.53.958-3.53 2.32 0 3.177 4.236 1.614 7.968-.757 1.917-1.16 3.682-.857 3.985.706.655 3.479-3.026 3.479-4.691.051-1.008.555-1.008 2.169-.151 1.765.958 1.967 1.715 1.412 5.346l-.656 4.186 1.917-2.774c1.967-2.875 3.278-2.723 3.278.303 0 1.311.807 1.714 3.127 1.563 5.295-.252 7.262-7.01 4.942-17.248-2.168-9.683-4.236-17.197-4.993-18.156-.403-.554-1.059-2.269-1.462-3.782-.353-1.513-1.11-2.774-1.614-2.774-1.614 0-1.16-2.572.756-4.236 1.009-.857 3.178-1.311 5.145-1.16 1.866.202 4.135-.101 5.043-.605 2.118-1.261 2.421-1.261 1.664-.051zm-20.98 4.691c-.353.353.505 1.513 1.866 2.572 2.471 1.967 3.379 4.841 1.463 4.841-.555 0-1.009-.403-1.009-.857 0-1.311-4.841-3.177-6.556-2.522-2.32.858-1.816-1.361.706-3.127 2.219-1.513 4.841-2.219 3.53-.907zm-55.879 4.387c1.009 3.884-1.311 8.12-2.673 4.791-.302-.807-.504-.605-.554.404-.051 1.059-1.312 1.967-3.127 2.37-1.664.353-3.026 1.21-3.077 1.866-.1 2.522-6.001 8.372-6.001 5.901 0-1.211.353-2.219.756-2.219.404 0 1.816-2.472 3.178-5.447 1.714-3.833 3.429-6.001 6.052-7.514 4.488-2.623 4.791-2.623 5.446-.152zm78.372-1.059c1.21.807 1.009 1.16-1.009 1.967-2.067.807-1.412 1.009 3.732 1.059 5.598.051 13.415 2.37 13.415 4.035 0 1.008-19.618-.051-20.929-1.16-3.53-2.976.807-8.372 4.791-5.901zm23.955 6.758c4.741 5.901 5.8 24.157 1.11 19.921-1.009-.958-2.219-1.412-2.623-1.009-.353.404-.05 1.16.807 1.664 1.211.807 1.211.908-.252.959-.908 0-2.017-.505-2.37-1.11-.454-.655-2.27-.908-4.539-.605-2.169.252-4.287 0-4.942-.656-.807-.807-1.564-.807-2.926 0-4.135 2.623-9.027-.554-7.615-4.942.807-2.522 15.987-2.017 20.123.706 3.328 2.169 4.488 1.967 4.488-.857 0-3.833-5.194-8.675-9.229-8.574-3.53.051-3.228.303 1.412 1.362 1.664.353 3.329 1.765 4.287 3.581l1.513 2.975-4.791-2.118c-3.833-1.614-6.002-1.917-10.843-1.463-6.405.656-10.591-.907-10.591-3.933 0-2.472 12.003-3.631 20.425-2.018 5.245 1.009 5.144-1.714-.252-4.74-5.144-2.976-5.094-3.732.202-2.774 2.874.504 5.043 1.715 6.606 3.631zm-153.062-1.16c0 .555-9.683 5.548-10.792 5.548-1.059 0 3.631-3.278 6.758-4.691 2.824-1.361 4.034-1.613 4.034-.857zm116.297 3.631c.404 1.564.202 1.917-.958 1.513-.857-.353-1.715-.605-1.967-.605-.202 0-.403-.706-.403-1.513 0-2.269 2.723-1.815 3.328.605zm44.986 7.767c1.412 6.808 1.412 9.279-.051 9.279-.655 0-.958-.252-.655-.554.302-.303-.051-3.833-.807-7.817-1.664-8.624-1.664-8.423-.504-7.212.504.504 1.412 3.379 2.017 6.304zm-11.196 13.617c.908.706 1.664.655 2.471-.152 3.682-3.681 3.631 4.085-.05 16.29-2.673 8.826-4.993 11.65-4.438 5.447.252-3.026.201-3.077-1.211-1.211-2.118 2.976-3.127 1.11-1.765-3.379 2.976-9.985.807-13.667-7.565-12.86-3.278.252-5.093.303-4.135 0 2.168-.656 2.32-2.269.252-3.076-2.017-.757-1.916-2.119.252-2.673 2.774-.757 14.726.454 16.189 1.614zm11.7 12.608c-.857 2.874-1.967 5.245-2.421 5.245-.453 0 .051-2.371 1.11-5.296 1.059-2.874 1.916-5.446 1.916-5.699 0-.252.202-.252.454 0 .252.253-.252 2.825-1.059 5.75zm-15.382 17.954c-2.925 6.354-14.272 19.012-15.079 16.693-.202-.656-1.059-1.866-1.916-2.724-1.564-1.563-.858-3.026 3.328-7.01 2.471-2.32 7.464-9.481 8.473-12.053l1.059-2.824 2.622 2.673c2.371 2.319 2.522 2.975 1.513 5.245zm-206.318-1.211c.202 1.412 2.875 7.817 4.64 11.095 2.723 5.094 5.144 9.28 5.951 10.288.554.656.454 2.472-.253 4.489-1.008 2.824-1.311 3.076-1.866 1.462-.504-1.462-.958-.806-1.815 2.724-.656 2.521-1.463 5.346-1.816 6.203-.353.908-.151 1.664.404 1.664s1.462-1.714 2.017-3.782c.807-3.026 1.009-1.16.958 9.582l-.05 13.415-2.572.656c-1.513.353-4.842-.152-8.17-1.312-7.464-2.572-8.271-4.387-6.96-15.533.555-4.74 1.16-9.935 1.311-11.599 1.816-16.542 7.212-36.009 8.221-29.352zm207.579 7.918c-2.673 4.589-6.707 9.834-7.565 9.834-.504 0-2.37 1.614-4.085 3.531-1.714 1.966-4.438 4.538-6.102 5.698l-3.026 2.119 1.362-2.169c.756-1.16 2.118-2.37 3.026-2.673.907-.303 2.37-1.513 3.177-2.774.857-1.21 2.874-3.681 4.539-5.446 1.664-1.766 3.984-4.59 5.194-6.304 2.118-2.926 4.993-4.489 3.48-1.816zm-42.867 38.177c-1.362 1.059-3.178 1.866-4.136 1.917-.958 0-3.48.907-5.598 2.017-2.118 1.109-6.102 2.219-8.876 2.522-2.723.302-4.287.252-3.48-.051.858-.353 2.421-1.009 3.531-1.462 1.109-.454 5.396-2.018 9.531-3.48 4.136-1.412 7.969-3.026 8.523-3.581.505-.504 1.362-.656 1.917-.303.555.303-.101 1.413-1.412 2.421zm-19.568 2.925c.353.605-.656 1.009-2.421 1.009-1.664 0-3.278.454-3.631 1.009-.353.605-1.16.756-1.715.353-1.563-.908 2.018-3.379 4.892-3.379 1.211 0 2.522.454 2.875 1.008zm-14.878 1.665c3.329.857 2.875 3.379-.655 3.379-2.724 0-4.741-2.068-3.379-3.43.706-.756 1.16-.756 4.034.051zm-48.465 2.319c3.984.202 6.455 5.195 6.001 12.003-.302 3.682-.554 7.515-.605 8.523 0 1.009-.504 1.564-1.059 1.211-.605-.353-.807-1.059-.454-1.564 3.531-5.698-.605-17.802-6.253-18.307-2.068-.151-3.884-.857-4.136-1.513-.252-.756.605-1.059 2.471-.806 1.564.201 3.379.403 4.035.453zm30.562 1.211c0 .454-.656.857-1.463.857-.806 0-1.815.555-2.269 1.261-1.059 1.664-8.473 1.664-10.187 0-1.564-1.463-4.237-1.664-4.237-.303 0 .505.454 1.211 1.009 1.564.555.353 1.009 2.168 1.009 4.034 0 3.48-1.967 6.153-2.068 2.825-.051-1.463-.252-1.362-1.009.453-.504 1.261-.655 2.875-.353 3.632.252.756-.302 1.966-1.21 2.773-1.614 1.312-1.664 1.16-.958-1.613.454-1.665.706-3.934.554-5.044-.151-1.109-.302-3.833-.403-6.052-.05-2.219-.555-4.387-1.11-4.791-.554-.403 4.338-.655 10.843-.605 6.506.101 11.852.555 11.852 1.009zm-116.65 4.841c4.136 1.362 8.674 1.665 10.893.656 1.261-.555 1.715-.05 2.068 2.622.252 1.816.656 3.985.908 4.842.202.807-.151 1.412-.857 1.261-.706-.152-1.261.201-1.261.756 0 .555.403 1.009.908 1.009 1.664 0 1.916 7.464.353 9.33-3.934 4.488-13.718 2.521-17.349-3.48-2.673-4.337-3.177-22.241-.555-19.618.807.807 3.026 2.017 4.892 2.622zm126.182-2.017c.756 1.21-3.127 2.421-4.64 1.463-.857-.505-.605-1.009.706-1.513 2.723-1.059 3.278-1.059 3.934.05zm-38.984 5.447c.201 2.118-.152 3.681-.757 3.681-.555 0-1.059.656-1.059 1.513 0 .807-.403 1.513-.958 1.513-.505 0-.908-.807-.858-1.765 0-.958-.302-3.681-.706-6.052-.756-4.236-.706-4.287 1.614-3.429 1.866.655 2.471 1.765 2.724 4.539zm-1.413 11.095c.353 1.866.454 4.034.202 4.791-.252.807-.706 2.673-1.059 4.236-.353 1.564-1.16 2.673-1.765 2.471-1.362-.454-1.866-4.639-.656-5.396.454-.302.858-2.521.858-4.993 0-5.295 1.513-5.951 2.42-1.109zm-87.348 9.279c2.723 1.312 4.993 1.564 9.884 1.059 5.649-.554 6.355-.453 6.355 1.16-.051 12.76 2.723 37.724 5.094 45.894 2.067 7.262 1.815 7.817-3.632 7.817-1.361 0-3.379.454-4.488 1.059-5.396 2.874-10.339-.555-11.952-8.372-.505-2.37-1.16-5.447-1.513-6.808-.908-3.631-2.623-18.408-3.178-27.234-.252-4.186-.907-10.036-1.462-13.062-1.211-6.758-1.11-8.271.252-5.396.605 1.21 2.673 2.976 4.64 3.883zm88.206 46.146c-.252.454-1.009.302-1.765-.303-1.009-.857-1.261-.504-1.16 1.463.101 1.412.756 2.572 1.462 2.572.858 0 1.211.958 1.009 2.572-.151 1.362-.757 2.471-1.311 2.421-.555-.101-.908-.555-.757-1.059.353-1.211-1.109-1.16-2.32.05-1.261 1.261-3.933-.403-3.026-1.866.353-.605 1.463-1.109 2.371-1.109 1.462-.051 1.513-.152.201-1.009-1.059-.706-1.16-.958-.201-1.009.706 0 1.21-.555 1.16-1.261-.101-.706-.152-2.572-.051-4.185l.101-2.926 2.32 2.421c1.311 1.311 2.169 2.774 1.967 3.228zm-10.944 6.506c-.706 9.027-1.362 12.003-1.463 6.707-.353-13.869-.252-15.533 1.11-15.533.706 0 .857 2.875.353 8.826zm15.735-3.178c0 1.009.555 1.413 1.462 1.06.959-.354 1.614.403 2.068 2.42.353 1.614 1.059 3.228 1.614 3.531 1.715 1.109 1.059 3.681-.757 2.672-1.21-.706-2.319-.201-4.387 1.967-3.379 3.581-4.64 3.732-2.421.303 1.664-2.522 1.664-2.522-.958-1.513-1.715.656-2.673.656-2.673.05 0-.554.403-1.008.908-1.008 1.261 0 3.58-6.052 3.328-8.776-.101-1.26.252-2.319.807-2.319s1.009.706 1.009 1.613zm11.196 5.75c.05 1.513.252 1.714.655.706.757-1.917 3.279-4.438 3.279-3.278 0 .454-.404 1.311-.908 1.815-.505.505-1.211 2.068-1.614 3.48-.706 2.471-.656 2.471.857.504 1.513-1.916 1.513-1.866.807 1.009-.605 2.269-.403 3.329.757 4.236 1.412 1.11 1.311 1.261-.656 1.261-2.017.051-2.774-.958-2.37-3.228.05-.403-.353-.756-.908-.756s-1.009.958-1.009 2.118c0 1.765-.252 1.967-1.462.958-.807-.655-1.261-1.765-1.009-2.37.252-.656.656-2.824.857-4.741.202-1.966.454-3.883.505-4.337.202-1.714 2.118.555 2.219 2.623zm-80.793 5.648c0 4.388-4.639 5.447-11.498 2.572-2.068-.807-4.186-1.21-4.791-.857-1.009.605-2.825-1.211-2.875-2.824 0-.353 1.463-.454 3.278-.152 1.816.252 5.094.051 7.313-.504 7.363-1.765 8.573-1.513 8.573 1.765zm61.729-.151c.303 2.32 0 2.824-1.966 2.925-1.463.101-2.169-.303-1.816-1.009.303-.655.857-1.967 1.16-2.925.958-2.622 2.118-2.168 2.622 1.009zm31.067 2.471c0 .454-.353.807-.858.807-1.311 0-.958 2.875.454 3.429.807.303 1.11-.05.757-.958-.757-1.916 1.714-1.916 4.236.051 1.715 1.26 1.765 1.613.454 2.471-1.21.807-.908 1.008 1.261 1.059 1.765 0 2.773.555 2.773 1.513 0 .807.606 1.513 1.362 1.513.706 0 2.421 1.16 3.783 2.622 1.311 1.412 3.732 3.278 5.295 4.085 1.563.858 2.622 1.765 2.269 2.068-.655.706-8.674-4.64-8.674-5.8 0-.403-.958-.504-2.169-.201-1.412.353-1.966.201-1.512-.505.403-.655-.303-1.412-1.614-1.815-1.261-.404-3.531-1.816-5.144-3.127-1.564-1.311-3.48-2.37-4.287-2.37-.807 0-1.412-1.009-1.412-2.27-.051-1.816-.252-1.967-.958-.807-.505.857-1.11 1.311-1.261 1.009-3.732-5.8-2.371-9.229 2.269-5.8 1.614 1.21 2.976 2.572 2.976 3.026zm-18.408 1.664c-1.059 1.261-.908 1.412.958.958 1.261-.353 2.37-.05 2.623.606.302.706-.555 1.26-2.018 1.412-1.765.151-2.673-.404-3.026-1.816-.302-1.109-.958-2.017-1.412-2.017-.504 0-.908-.656-.908-1.513 0-1.21.454-1.261 2.522-.303 2.068.908 2.32 1.362 1.261 2.673zm-85.281 1.715c4.186 1.412 4.993 1.412 8.372 0 5.9-2.471 6.808-.857 1.109 1.866-4.791 2.269-14.726 3.076-14.726 1.16 0-.757-.252-2.118-.605-2.976-.757-2.017.101-2.017 5.85-.05zm98.04 1.816c-.302.857.404 1.714 1.816 2.118 1.866.605 1.967.857.605 1.21-1.614.454-7.867-2.169-7.867-3.278 0-.303.403-.252.958.05.504.303 1.21.152 1.563-.453.958-1.513 3.53-1.211 2.925.353zm42.616 17.247c-.303.858.1 2.219.958 3.026.857.858 1.109 1.564.555 1.564-.555 0-1.614.252-2.421.554-1.513.555-1.665-1.613-.303-4.841.908-2.118 2.017-2.37 1.211-.303zm14.877 5.094c1.816 1.362 3.682 2.522 4.136 2.522.403 0 1.563.907 2.521 2.017.958 1.059 3.026 2.673 4.64 3.53 2.774 1.412 2.824 1.513.555 1.513-2.068 0-2.219.202-1.11 1.564.706.907 2.169 1.361 3.177 1.109 2.018-.504 2.522.958.555 1.664-2.37.807-6.707-2.168-6.304-4.337.252-1.21-.151-2.017-1.009-2.017-.756 0-1.664-.857-1.966-1.917-.353-1.059-1.665-2.168-2.925-2.471-3.329-.857-8.574-5.699-6.153-5.699.353 0 2.068 1.11 3.883 2.522zm15.331 3.177c-.353.908.051 2.118.959 2.824 1.513 1.06 1.462 1.312-.152 2.623-1.613 1.311-1.714 1.261-1.109-.303.403-1.16.151-1.765-.857-1.765-.807 0-1.463-.403-1.463-.908 0-1.866 1.261-4.135 2.219-4.135.555 0 .757.756.403 1.664zm-16.34 3.984c.908.353 1.614 1.261 1.614 2.018 0 .756 1.463 1.714 3.228 2.168 1.765.454 3.379 1.412 3.631 2.118.252.858-1.059.555-3.732-.806-2.269-1.16-4.135-2.573-4.135-3.077 0-.555-.505-.908-1.11-.756-.656.151-1.362-.303-1.614-1.009-.504-1.412-.151-1.513 2.118-.656zm21.787 8.019c0 1.614-.555 2.471-1.614 2.471-1.059 0-1.412-.554-1.008-1.614.353-.857.605-2.269.605-3.076 0-.807.454-1.21 1.009-.857.554.353 1.008 1.714 1.008 3.076zM77.513 420.05c1.564 2.976 1.564 3.026-.252 1.564-3.833-3.077-5.093-4.69-4.69-5.901.555-1.714 2.875.303 4.942 4.337zm-4.942 2.926c1.21-.404 1.362-.303.403.403-1.412 1.009-.05 6.153 1.967 7.414.606.353.858 1.512.606 2.521-.353 1.513-.757 1.21-2.018-1.614-.857-1.967-2.572-4.791-3.732-6.304-1.21-1.513-1.866-3.278-1.513-3.883.505-.807 1.009-.656 1.614.454.555.908 1.664 1.362 2.673 1.009zm17.803 29.956c-.303.555-.202.958.252.958 1.815 0 .857 7.666-.958 7.817-1.009.051-1.513-.353-1.16-.907.353-.605.605-3.077.554-5.548-.05-2.673.303-4.236.908-3.833.555.303.706 1.009.404 1.513zm1.815 15.382c2.169-.454 2.875-.302 2.371.555-.404.655-1.816 1.16-3.178 1.16-1.361 0-2.471.555-2.471 1.261-.05.907-.303.857-.908-.152-.504-.807-.655-2.118-.302-2.975.353-.958.706-1.11.958-.404.252.757 1.513.959 3.53.555zm.505 28.948c1.412 0 1.412.202.05 1.765-.857.959-1.362 2.371-1.059 3.077.252.706-.101 1.916-.706 2.673-.858 1.059-.858 1.563.05 2.118.757.504.958.353.505-.404-.404-.655-.202-1.16.453-1.16.757 0 .959.858.606 2.27-.353 1.261-.656 2.824-.656 3.53s-.908 1.261-2.017 1.261c-1.11 0-2.018-.656-2.018-1.513 0-.857.807-1.513 1.766-1.513 1.109 0 1.361-.303.655-.756-.605-.404-1.16-2.371-1.261-4.287-.151-4.237.959-10.087 1.614-8.322.202.706 1.11 1.261 2.018 1.261zm-.908 18.257c.706 1.16 1.059 2.37.706 2.673-.303.353-.555-.051-.555-.807 0-1.059-.252-1.11-1.21-.152-1.816 1.816-2.572 1.463-2.572-1.311 0-3.076 1.815-3.278 3.631-.403zm.454 8.069c.454 1.715.201 2.017-1.463 1.563-1.815-.454-2.017-.151-1.614 2.471.202 1.665.101 2.623-.353 2.219-.403-.453-.908-1.966-1.059-3.328-.605-4.438 3.43-7.061 4.489-2.925zm-.706 11.448c.907.908 1.059 1.664.403 2.068-.555.353-1.059 1.866-1.109 3.328l-.101 2.724-.757-2.522c-.403-1.412-.655-3.228-.555-4.035.152-.857-.302-1.866-.907-2.269-.757-.504-.706-.706.201-.757.757 0 2.018.656 2.825 1.463zm14.322 46.852c.303.958-.05 1.21-1.109.807-1.059-.404-1.564-.051-1.513 1.109.05.958-.303 2.623-.706 3.732-.656 1.664-.555 1.816.555.757 1.815-1.665 2.975-1.614 2.975.252 0 3.883-4.841 1.614-5.547-2.623-.908-5.245 3.782-8.775 5.345-4.034zm-8.018 3.126c1.16 3.379-.555 4.287-2.875 1.513-.656-.807-1.614-1.26-2.068-.958-.454.252-1.109 0-1.462-.555-.353-.554.403-1.462 1.714-1.966 3.43-1.362 3.531-1.312 4.691 1.966zm-1.059 5.901c.302.908-.303 1.21-1.866 1.009-1.261-.202-2.522-.959-2.774-1.715-.303-.908.302-1.21 1.866-1.009 1.261.202 2.521.959 2.774 1.715zm11.296 2.673c0 3.026-1.916 3.278-4.236.555-1.614-1.866-1.563-1.967 1.009-2.371 1.513-.201 2.824-.454 2.975-.554.151-.101.252.958.252 2.37zm-4.488 2.572c.353.605 1.866 1.563 3.328 2.169l2.673 1.059-3.026 1.311c-3.429 1.462-4.135 1.109-5.093-2.824-.656-2.774.756-3.884 2.118-1.715zm-3.631 4.085c0 .353-1.059.656-2.421.656-2.37 0-2.421-.051-.807-2.522 1.614-2.421 2.824-1.715 3.228 1.866zm12.406 2.068c-.403 1.563-.202 1.967.656 1.412.756-.454 1.16-.252 1.008.605-.403 2.219 2.219 6.707 4.237 7.212 2.824.756 2.32 2.471-.757 2.471-1.715 0-2.774-.656-3.127-1.916-.252-1.009-.807-1.866-1.21-1.866-1.21 0-4.035-6.96-3.429-8.574.907-2.421 3.278-1.866 2.622.656zm-2.017 8.17c.958.958 1.765 2.118 1.765 2.521 0 1.009 8.069 11.751 13.062 17.399 9.179 10.44 15.785 21.182 14.071 22.897-.707.706.605 2.622 4.337 6.152 3.782 3.632 5.043 5.447 4.286 6.204-.756.756-1.714.353-3.278-1.463-1.21-1.362-1.866-2.522-1.462-2.572.403 0-.252-.555-1.463-1.261-1.261-.706-4.286-3.177-6.758-5.547-2.521-2.371-5.497-4.539-6.606-4.741-3.732-.706-11.801-6.859-12.659-9.633-.302-.958-1.513-2.017-2.673-2.269-1.311-.353-1.815-1.009-1.311-1.816.555-.857.303-1.059-.857-.605-2.118.807-2.925-.554-2.925-4.993 0-1.966-.606-3.732-1.312-4.034-1.966-.757-3.732-6.909-4.488-15.735 0-.403-.958-.756-2.068-.756-1.109 0-2.017-.454-2.017-1.009 0-.555.454-1.009 1.009-1.009.554 0 .907-.504.756-1.16-.151-.605.303-1.311 1.009-1.563s1.26.303 1.26 1.362c0 .958.656 3.631 1.463 5.85.807 2.269 1.715 5.799 2.068 7.867.605 3.883 21.686 26.981 24.611 26.981.706 0 2.37 1.362 3.782 3.026 1.412 1.665 3.076 3.026 3.682 3.026.655 0-2.118-3.328-6.153-7.363-4.035-4.034-6.96-7.766-6.556-8.22.454-.505.201-.555-.505-.152-1.966 1.16-13.263-11.296-12.507-13.818.152-.504-.202-.605-.756-.252-1.312.857-3.833-4.388-3.581-7.464.101-1.311-.403-3.581-1.16-5.043-.756-1.412-1.311-3.732-1.311-5.094l.05-2.522 1.715 2.522c.958 1.362 2.522 3.278 3.48 4.287zm12.86 7.262c0 .656 1.16 1.816 2.522 2.572 1.563.857 2.521 2.219 2.521 3.682 0 1.714.555 2.37 2.018 2.37 1.109 0 2.017.655 2.017 1.513 0 1.715-1.564 2.017-2.37.454-.253-.555-.404-.454-.253.252.152.756 1.11 1.311 2.119 1.311 1.008 0 2.067.656 2.319 1.412.303.908.051 1.11-.807.605-.857-.554-1.059-.403-.605.353.908 1.413 3.631 1.564 3.631.152 0-1.816 3.884-1.11 3.985.756.151 4.489.706 7.01 2.067 9.33.807 1.362 1.362 2.875 1.211 3.278-.101.404.252.757.807.757.554 0 1.008-.958 1.008-2.068 0-1.16.454-1.815 1.009-1.462.555.353 1.009 1.714 1.009 3.076 0 1.815.403 2.269 1.664 1.765 1.109-.403 1.462-.202 1.16.807-.303.756-1.362 1.311-2.421 1.21-1.866-.151-1.866-.101 0 1.261 1.059.757 2.37 1.11 2.925.757.555-.353.706-.152.353.453-.353.606-.101 1.312.605 1.614.706.353-.05.303-1.664-.05-2.32-.454-2.723-.303-2.068.807.505.756 1.009 2.068 1.11 2.874.151.858.958 2.018 1.815 2.673 1.513 1.11 2.169 3.43.959 3.43-1.11 0-6.405-6.506-6.456-7.918 0-.757-.857-2.572-1.866-4.035-1.059-1.462-2.874-4.639-4.085-7.01-1.21-2.37-2.975-5.093-3.933-6.102-2.371-2.421-9.28-10.994-9.28-11.499 0-.252-2.017-2.622-4.539-5.245-5.447-5.749-6.001-8.018-1.513-6.455 1.664.605 3.026 1.614 3.026 2.32z"/><path d="M189.523 75.144c-.353 1.11-.958 3.682-1.311 5.699-.908 5.144-5.648 10.54-9.985 11.347-3.43.656-6.002 2.623-3.379 2.623.706 0-.051.907-1.665 1.967-2.118 1.412-3.328 1.664-4.236.907-1.513-1.21-3.681-.151-2.774 1.362.353.555.051 1.412-.706 1.916-1.109.706-1.059.858.353.908.959 0 1.765-.403 1.765-.908 0-.504.908-.655 2.068-.403 1.16.353 2.875-.202 4.035-1.261 1.109-1.008 1.967-1.261 1.967-.605 0 .656.706 1.16 1.513 1.16.857 0 1.513-.605 1.513-1.362 0-.756 1.159-1.866 2.521-2.471 1.412-.656 2.522-1.866 2.522-2.723 0-.807.706-1.513 1.513-1.513.857 0 1.513-.555 1.513-1.261.05-2.723 1.916-4.438 3.026-2.774 1.513 2.37 1.311 2.824-3.631 7.615-5.245 5.094-3.329 6.607 2.219 1.715 5.648-5.043 8.069-13.768 4.488-16.39-.353-.303-1.16-2.119-1.715-4.035-.857-2.975-1.109-3.177-1.614-1.513zm-55.072 38.329c.606 3.429 11.348 8.17 14.777 6.505 1.513-.706 3.076-1.21 3.48-1.109.403.05.756-.252.756-.807 0-1.463-4.185-2.421-4.992-1.11-.454.707-1.766.908-3.43.505-1.462-.353-2.421-1.009-2.168-1.463.302-.454-.404-.555-1.564-.302-1.311.353-2.975-.303-4.64-1.816-2.42-2.269-2.572-2.269-2.219-.403zm49.424 20.677c1.11 3.127 2.875 4.135 2.875 1.614 0-2.522-1.16-4.64-2.572-4.64-1.059 0-1.11.656-.303 3.026zM61.678 74.388c0 9.481 13.011 26.577 20.072 26.426 1.815-.05 2.168-.302 1.059-.756-5.043-2.219-14.525-12.508-16.592-18.055-1.967-5.245-4.539-9.532-4.539-7.615zM44.581 95.771c-2.925 5.447-1.311 13.97 3.631 19.265 6.657 7.111 8.826 6.052 5.396-2.774-2.471-6.354-5.043-14.877-5.043-16.895 0-2.219-2.723-1.966-3.984.404zm3.883 9.885c.051 1.26.555 3.177 1.11 4.286 3.379 6.708 3.379 6.657.151 3.531-3.53-3.48-4.791-7.616-4.287-14.121l.253-3.026 1.361 3.53c.757 1.916 1.412 4.539 1.412 5.8zm25.67 23.198c-2.773 3.732-6.152 8.372-7.464 10.339-1.311 1.917-2.975 3.883-3.681 4.337-.706.454-1.362 2.018-1.362 3.531-.101 2.37-.201 2.471-.908.706-.403-1.11-.554-2.623-.252-3.43.353-.857 0-1.21-.907-.908-4.035 1.312.05 9.885 4.74 9.885 1.362 0 3.631-.756 4.993-1.614 2.37-1.563 2.471-1.563 2.471.505 0 6.354 1.614.857 1.765-6.002.101-4.892.757-9.38 1.665-11.196 1.008-1.916 1.109-2.874.353-2.622-1.362.454-2.371 3.631-3.279 10.086-.504 3.883-1.008 4.791-2.672 4.791-1.11 0-2.875.454-3.934 1.059-1.211.606-1.967.656-1.967.051 0-.505-.252-1.614-.605-2.471-.404-1.11-.051-1.362 1.311-1.009 1.412.353 2.421-.656 4.135-4.236 1.261-2.572 3.985-7.263 6.103-10.389 7.161-10.843 6.959-11.449-.505-1.413zm11.146-4.387c-.605 1.614.202 3.631 1.463 3.631 1.109 0 1.159-3.883.1-4.589-.554-.303-1.26.101-1.563.958zm-18.912 7.565c-3.278 2.622-6.607 6.001-7.363 7.464-.807 1.513-1.866 2.723-2.421 2.723-.504 0-.958.454-.958 1.059 0 1.513 4.993-2.32 4.993-3.833.05-.706 2.773-3.379 6.102-5.951 3.328-2.572 6.052-5.093 6.052-5.547 0-1.16.201-1.312-6.405 4.085zm24.157 11.801c-2.219 5.85.252 19.82 6.001 33.689 5.195 12.557 18.106 29.301 26.931 34.949 3.026 1.917 3.783 3.026 3.883 5.649l.051 3.278 1.513-3.43c1.513-3.429 1.462-3.48-1.866-6.052-4.892-3.732-17.954-16.44-17.954-17.449 0-.504-1.765-3.278-3.934-6.153-2.118-2.875-4.236-6.405-4.589-7.766-.404-1.413-1.463-4.136-2.37-6.052-.858-1.967-1.765-4.388-1.917-5.497-.202-1.06-1.008-3.934-1.866-6.405-1.815-5.397-3.379-15.987-2.723-18.559.605-2.219-.303-2.421-1.16-.202zm-33.891 13.314c0 3.581 7.666 5.548 10.541 2.673 2.37-2.421 1.866-4.085-.555-1.917-2.017 1.866-2.169 1.866-6.052-.353-3.681-2.168-3.934-2.168-3.934-.403zm22.846 6.354c-1.311 1.866-1.311 2.724-.05 6.809.807 2.572 1.715 5.699 2.017 6.959.353 1.261 1.261 2.27 2.017 2.27 1.866 0 1.766-1.513-.252-4.64-1.059-1.563-1.765-4.791-1.765-8.069-.101-6.254-.05-6.102-1.967-3.329z"/><path d="M64.754 167.183c0 5.85 4.842 15.331 12.205 24.056 2.067 2.421 4.034 5.296 4.387 6.355.303 1.109 1.614 2.32 2.824 2.723 1.211.353 3.48 1.765 5.094 3.076 1.564 1.312 3.379 2.371 4.035 2.32.605 0 .05-.908-1.362-2.017-5.497-4.337-9.078-8.271-9.078-10.036 0-1.009-1.412-3.026-3.177-4.489-1.715-1.462-3.934-4.135-4.842-5.9-5.951-11.196-6.707-12.961-7.615-17.601-.958-4.892-2.521-3.934-2.471 1.513z"/><path d="M83.918 164.964c-.05 4.388 2.673 14.373 4.791 17.45 1.009 1.462 3.329 5.598 5.195 9.229 1.866 3.58 5.85 9.43 8.926 12.91 3.026 3.48 5.195 6.657 4.791 7.061-.403.403-1.613-.454-2.723-1.816-1.059-1.412-3.429-4.135-5.194-6.102-6.002-6.657-7.263-8.523-10.238-14.827-1.614-3.48-3.329-6.304-3.783-6.304-1.16 0-1.059.302 1.715 5.85 3.026 6.102 3.127 6.657.504 4.993-1.109-.656-2.017-1.614-2.017-2.068 0-.454-1.412-2.875-3.076-5.346-1.715-2.471-4.287-7.01-5.699-10.086-1.563-3.48-2.925-5.245-3.48-4.69-2.269 2.269 7.817 19.063 17.046 28.292 6.506 6.556 9.683 10.49 5.901 7.313-.958-.757-1.664-.807-2.068-.152-.756 1.261-15.382-4.791-20.98-8.623-3.681-2.572-8.977-11.6-11.347-19.366-.504-1.614-1.009-2.068-1.765-1.312-2.32 2.32 5.9 19.971 10.49 22.443 1.059.554 1.664 1.412 1.361 1.916-.302.454-.1 1.16.505 1.513.555.353 1.008.151 1.008-.403 0-1.16 4.287.353 7.061 2.42 1.765 1.362 11.599 4.539 13.919 4.539.858 0 3.43.858 5.699 1.967 7.313 3.48 19.719 5.094 19.719 2.572 0-.908-.908-1.513-2.32-1.513-4.841 0-20.072-15.785-22.392-23.199-.454-1.412-2.521-5.951-4.69-10.086-2.118-4.186-3.883-8.977-3.883-10.641 0-1.715-.656-3.984-1.463-5.044-1.412-1.866-1.513-1.815-1.513 1.11zm-58.552 11.902c0 1.412 5.75 6.707 7.313 6.707.454 0 2.017.807 3.53 1.766 2.572 1.664 4.842 2.219 10.188 2.37l2.42.101-2.269 2.168c-1.563 1.513-2.37 1.816-2.723.908-.757-1.967-3.531-1.513-3.127.504 1.008 5.397 10.893.303 10.893-5.648 0-2.522-4.186-7.464-5.346-6.304-.756.757-.554 1.614.606 2.925 5.295 5.8-9.028 2.774-16.34-3.48-4.338-3.732-5.145-4.034-5.145-2.017z"/><path d="M53.962 185.994c1.008 8.675 9.884 20.879 18.861 26.023 2.673 1.564 5.144 3.228 5.497 3.833.353.555 1.513 1.009 2.623 1.009 1.109 0 4.791.958 8.17 2.118 7.111 2.37 25.72 3.883 24.56 2.017-.403-.655-1.109-.857-1.664-.555-1.513.959-19.366-1.512-21.585-2.975-1.109-.757-3.429-1.664-5.144-2.017-1.765-.404-5.548-2.27-8.523-4.186-2.925-1.866-5.598-3.581-5.951-3.732-.958-.454-10.641-12.205-12.457-15.079-.908-1.463-1.967-4.539-2.32-6.809-1.059-6.657-2.824-6.354-2.067.353zm136.116 13.062c-2.32 1.211-4.287 2.522-4.287 2.925-.05.958 4.993-1.21 7.263-3.127.958-.806 2.017-1.26 2.32-.958.252.303-2.119 2.522-5.296 4.943-7.161 5.446-8.825 6.959-7.514 6.959.504 0 2.824-1.462 5.043-3.278 2.219-1.815 5.245-4.135 6.708-5.144 5.245-3.681 1.916-5.497-4.237-2.32zm-156.491 4.993c-1.564 1.916-1.866 56.837-.303 64.251 2.925 14.423 4.539 22.997 4.842 26.224.504 5.952 1.109 9.885 2.219 14.878.605 2.622 1.563 8.069 2.219 12.104.807 5.093 1.563 7.312 2.572 7.312 1.614 0 1.815-1.412.504-3.883-.504-.908-1.16-4.74-1.462-8.523-.353-3.782-.858-7.313-1.211-7.867-.605-.959-2.118-9.835-2.975-17.551-.958-8.624-1.866-13.616-2.421-13.616-.353 0-.656-1.009-.756-2.27-.051-1.261-.505-5.245-.959-8.826-.857-7.06-.907-10.792-.504-42.211.303-21.081.151-22.342-1.765-20.022zm95.166 2.723c-.404.606.05 2.018 1.008 3.026 1.765 1.917 1.765 6.405.051 10.339-1.261 2.925 2.017 1.059 3.328-1.866 2.371-5.144-1.714-15.836-4.387-11.499zm7.564 2.875c0 .454.706 2.32 1.614 4.085.958 1.866 1.362 4.236 1.009 5.699-.757 2.975.908 3.278 2.421.454 1.26-2.32.353-6.809-1.816-9.33-1.614-1.866-3.228-2.32-3.228-.908zm12.104 1.009c0 5.446 7.918 10.843 11.146 7.564.454-.453-.757-.958-2.724-1.109-6.253-.454-7.867-3.278-1.866-3.278 1.967 0 3.531-.504 3.531-1.11 0-.706-1.513-.958-4.035-.756-2.824.302-4.035 0-4.035-.857 0-.757-.453-1.312-1.008-1.312-.555 0-1.009.404-1.009.858zm26.477 1.21c-2.37 1.009-4.287 2.068-4.287 2.32 0 .605 8.776-2.723 9.683-3.682 1.211-1.16-.857-.655-5.396 1.362zm-10.338 3.581l-3.531 1.462 3.43-.555c1.866-.252 3.782-.504 4.286-.504.454 0 .858-.454.858-1.009 0-1.26-.706-1.21-5.043.606zm-43.927 3.48c-.353.605-1.614 1.512-2.824 1.966-1.765.706-1.362.908 2.068.959 2.319 0 4.488-.404 4.841-.959.353-.554-.353-1.008-1.513-1.008s-1.866-.454-1.513-1.009c.353-.555.404-1.009.101-1.009-.252 0-.807.505-1.16 1.06zm-58.955 3.933c0 1.059 8.775 6.103 10.59 6.103.706 0 2.572.655 4.186 1.513 1.564.806 4.489 1.462 6.405 1.412l3.53-.101-4.034-.958c-2.169-.505-4.438-1.362-4.993-1.917-.504-.504-1.765-.958-2.774-.958-1.008 0-3.53-1.059-5.598-2.32-4.74-2.975-7.312-3.934-7.312-2.774zm-3.631 6.607c-1.866 2.874-1.211 7.565 1.059 7.565 1.059 0 1.311-.858.907-3.379-.353-2.018-.1-3.732.555-4.136.605-.353 1.11-1.109 1.11-1.614 0-1.815-1.967-.958-3.631 1.564zm7.917 2.219c-4.488.857-2.118 2.32 3.783 2.32 3.379 0 6.052-.454 6.052-1.009 0-.555-1.11-1.009-2.421-1.009-1.362 0-3.076-.151-3.782-.353-.757-.201-2.371-.201-3.632.051zm-17.399 3.127c0 .706 8.322 5.245 9.633 5.245 1.866 0-.303-2.219-3.883-3.934-4.792-2.32-5.75-2.522-5.75-1.311z"/><path d="M41.505 236.981c0 6.254 36.311 13.567 41.506 8.372.706-.706 2.067-1.261 3.025-1.261 1.766 0 3.48-1.765 2.572-2.622-.252-.252-2.319.252-4.589 1.16-8.271 3.328-29.957.857-37.421-4.186-3.832-2.623-5.093-2.976-5.093-1.463z"/><path d="M62.182 239.049c-1.513.656-.756.908 3.026.958 2.774.051 7.06.555 9.532 1.11 4.488 1.059 10.137-.152 10.137-2.169 0-.454-1.16-.353-2.573.303-2.017.908-3.681.908-7.11 0-5.094-1.362-10.087-1.463-13.012-.202zm21.182 9.582c-3.026 2.118-13.415 2.068-23.956-.101-1.513-.302-2.774-.101-2.774.404 0 1.563 6.002 3.278 8.776 2.572 1.714-.404 3.429.05 5.446 1.563 1.614 1.211 2.925 1.715 2.925 1.16 0-.605 1.564-1.059 3.531-1.059 2.471 0 4.438-.857 6.808-2.975 3.379-3.077 2.875-4.085-.756-1.564zm-35.656 22.594c-1.11.706-1.059 1.412.353 4.135 1.715 3.278 1.765 6.052.454 30.764-.404 7.968 0 10.591 1.614 10.591 1.21 0 1.412-.757.907-3.531-.958-5.043-.958-5.345-.1-12.608.403-3.631.857-11.902.958-18.407.202-12.306-.202-13.466-4.186-10.944zm7.565 5.9c-.505 4.438-1.009 33.79-.706 40.044.05.554.504.504 1.109-.101 1.311-1.312 2.27-45.742 1.009-45.742-.454 0-1.059 2.622-1.412 5.799zm151.801 15.13c-2.421 4.489-4.136 15.231-3.732 22.947.202 4.438.656 13.667.958 20.475.303 6.809.857 12.911 1.261 13.516.353.605.605 3.682.454 6.758-.101 3.127.958 12.205 2.37 20.223 1.412 8.07 2.572 14.979 2.572 15.382 0 1.11-6.455 1.009-9.531-.202-3.228-1.21-3.379-3.025-.202-3.025 4.892 0 8.17-6.456 5.648-11.196-1.715-3.178-2.723-1.362-1.967 3.53.606 4.186.505 4.539-1.765 5.093-4.337 1.11-5.951-.05-5.497-3.984.504-4.337-1.412-4.74-2.32-.454-.454 1.967-.202 3.632.656 4.691.756.907 1.21 2.42 1.059 3.429-.504 2.976 3.883 5.043 10.187 4.842 6.153-.202 7.212-1.564 5.548-6.96-2.824-9.229-4.388-22.745-6.355-55.476-.353-5.85-.907-11.296-1.21-12.103-1.362-3.833.656-23.098 2.925-27.486.454-.958.656-1.765.353-1.765-.252 0-.908.807-1.412 1.765zm-160.98 38.53c-.857 1.312 5.649 3.329 6.859 2.118.555-.554.807-1.21.605-1.412-1.109-.907-7.01-1.513-7.464-.706zm28.595-.504c-.252.202-4.034.656-8.422.958-9.784.706-12.81 2.623-3.631 2.32 5.951-.202 6.405-.05 7.716 2.522 2.673 5.144 1.21 10.641-2.118 7.867-2.824-2.32-4.236.908-4.136 9.229.101 8.624-.907 10.641-5.698 11.146-1.715.151-3.329.958-3.581 1.714-.303.959.05 1.211 1.16.807.857-.353 1.866-.151 2.269.404 3.278 5.346 13.264-7.666 12.154-15.836-.403-2.774-.201-4.438.404-4.438 2.37 0 3.883-6.354 2.37-9.935-1.765-4.236-1.765-3.833.505-4.438 4.135-1.11 7.11 5.194 4.74 9.834-1.765 3.43-1.261 4.589 1.009 2.32.908-.857 1.664-3.429 1.765-5.699.151-4.387 1.664-5.8 4.488-4.287.959.505 2.169.959 2.724.959 1.462.101 1.815 4.74.555 7.161-.707 1.311-.757 2.068-.152 2.068.555 0 1.765-1.564 2.673-3.48 1.412-2.976 1.917-3.329 3.833-2.471 1.21.504 2.975 1.21 3.934 1.563 1.866.605 2.42 2.37.756 2.37-.555 0-1.008.454-1.008 1.009 0 1.816 2.067 1.059 4.589-1.664 3.127-3.379 3.127-5.85-.051-9.028-3.227-3.227-5.598-2.168-2.521 1.11 4.337 4.589 2.068 5.699-4.186 2.017-3.883-2.269-7.968-3.681-13.012-4.488-4.034-.605-7.615-1.311-8.018-1.564-.404-.252-.908-.252-1.11-.05zm-6.859 26.124c-1.059 1.967-1.109 1.916-.706-.908.253-1.664.101-3.681-.353-4.438-.504-.756-.605-2.118-.252-2.975.404-1.11.908-.353 1.564 2.269.605 2.623.504 4.539-.253 6.052zm39.237-22.594c0 .505.403 1.16.857 1.463 1.765 1.109 2.118 6.808.706 10.238-1.664 3.933-.504 4.639 1.917 1.26 2.773-3.984 1.412-13.919-1.967-13.919-.807 0-1.513.403-1.513.958zm7.817 5.094c.403 3.076.05 4.589-1.312 6.102-2.017 2.219-1.613 3.329.908 2.371 2.421-.908 4.237-7.616 2.774-10.339-1.866-3.429-2.975-2.522-2.37 1.866zm9.33 1.16c0 1.967-.656 4.186-1.513 4.892-.807.706-1.513 2.017-1.463 2.874 0 1.16.908.656 2.875-1.613 3.177-3.732 5.598-3.43 15.23 2.118 2.522 1.462 6.809 3.732 9.583 5.043 2.773 1.362 7.11 4.287 9.682 6.556 2.522 2.219 7.212 5.195 10.39 6.607 3.177 1.412 7.867 3.984 10.389 5.648 3.429 2.371 7.867 3.732 5.245 1.664-4.993-3.933-12.861-8.775-15.231-9.279-1.664-.353-3.782-1.311-4.69-2.068-7.918-6.758-10.793-8.674-18.307-12.406-4.69-2.37-9.229-4.842-10.087-5.548-.806-.756-3.076-1.866-5.043-2.521-1.916-.656-4.337-2.169-5.295-3.43l-1.715-2.219-.05 3.682zm-85.937 2.622c-2.723 4.136-8.019 6.203-12.911 5.144-.857-.201-1.513.303-1.513 1.16 0 1.765 6.355 1.715 10.692-.05 3.228-1.311 7.212-6.506 6.758-8.725-.202-1.16-1.16-.403-3.026 2.471z"/><path d="M79.48 347.63c-1.664 1.714.101 2.118 11.196 2.824 6.506.403 12.407 1.16 13.062 1.715.656.554 2.471 1.16 4.035 1.361 3.127.404 16.441 7.565 19.265 10.389 4.034 4.035 11.448 9.532 16.491 12.306 3.127 1.714 4.64 3.026 3.631 3.127-2.673.201-2.773.252-9.834 2.773-3.581 1.312-8.17 3.178-10.086 4.186-1.967 1.059-9.683 3.884-17.147 6.355-24.41 8.069-37.32 3.984-39.993-12.659-.404-2.32-1.16-3.782-2.068-3.782-4.791 0 2.017 16.088 8.574 20.173 4.69 2.874 26.426 4.438 26.426 1.866 0-.555.504-.656 1.059-.303.605.353 1.866 0 2.774-.756.958-.807 5.144-2.522 9.28-3.833 4.185-1.311 9.077-3.228 10.994-4.287 1.866-1.009 5.497-2.572 8.069-3.48 2.522-.857 5.8-2.017 7.161-2.622 1.412-.555 3.228-1.16 4.035-1.362 3.328-.706 26.88-.706 28.091.05 1.815 1.11 2.673-.05 1.26-1.765-.857-1.059-4.135-1.462-12.91-1.563-6.506-.05-12.054-.454-12.356-.908-.303-.454-2.471-1.765-4.741-2.975-2.32-1.16-5.043-2.825-6.052-3.682-1.059-.807-3.883-3.127-6.354-5.194-11.347-9.28-19.568-13.768-28.343-15.483-3.581-.706-8.422-1.664-10.742-2.169-4.892-1.109-13.768-1.261-14.777-.302zm56.837 2.673c0 .756 2.724 3.782 6.002 6.808 9.733 8.876 13.213 11.398 14.171 10.439 1.261-1.26.202-2.572-5.194-6.253-2.572-1.765-6.657-5.245-9.078-7.716-4.589-4.741-5.901-5.497-5.901-3.278z"/><path d="M124.214 350.958c0 .555 1.26 1.664 2.773 2.522 1.513.807 6.052 4.589 9.986 8.372 10.339 9.783 14.424 11.649 25.065 11.196 5.447-.202 8.926-.858 9.784-1.715 1.109-1.16.908-1.261-1.211-.605-10.338 3.126-21.433-.606-32.024-10.692-3.43-3.278-6.556-6.001-6.909-6.001-.303 0-1.765-.908-3.178-2.018-2.773-2.219-4.286-2.572-4.286-1.059zm-36.312 2.522c-1.361.807-4.185 1.715-6.203 2.068-2.017.353-4.539 1.613-5.547 2.773-1.816 2.068-1.816 2.068.151 1.312 1.11-.404 3.177-1.11 4.64-1.564 1.462-.454 3.732-1.362 5.043-2.068 4.337-2.319 9.179-2.118 13.213.606 2.068 1.361 4.438 2.471 5.245 2.471.807 0 1.765.403 2.068.908.303.554 1.916 1.26 3.581 1.613 1.664.353 3.026 1.06 3.026 1.513 0 .505 1.008 1.211 2.269 1.564 2.37.756 2.673.958 9.33 7.111 2.219 2.067 5.497 4.337 7.313 5.093 4.438 1.866 4.135 2.673-2.018 5.144-7.665 3.127-12.456 4.186-20.929 4.741-4.186.252-9.733.958-12.356 1.614-9.632 2.269-17.702-2.673-20.929-12.911-1.11-3.53-4.035-6.152-4.035-3.58 0 10.086 11.953 20.526 21.989 19.164 16.34-2.219 29.956-5.043 35-7.212 1.664-.706 4.992-2.118 7.413-3.127l4.337-1.866-5.346-2.723c-2.975-1.513-7.564-4.842-10.237-7.414s-5.85-5.144-7.061-5.648c-1.21-.504-2.874-1.362-3.732-1.866-1.866-1.11-5.699-2.774-9.33-4.085-1.513-.555-2.774-1.412-2.774-1.967 0-2.723-10.086-3.883-14.121-1.664zm-28.242 1.311c.051 2.118 1.967 3.732 3.077 2.623.655-.656.857-1.665.504-2.27-.756-1.261-3.581-1.513-3.581-.353z"/><path d="M89.92 359.935c0 .605 1.916 1.564 4.286 2.169 8.725 2.269 13.264 4.69 18.56 9.834 4.841 4.69 5.194 5.295 3.126 5.447-1.26.101-3.631.353-5.295.605-8.422 1.261-19.82.303-23.451-1.917-6.355-3.933-1.765-3.732 6.052.253.958.504 2.521.907 3.48.907 2.118 0-8.12-5.446-12.054-6.404-6.556-1.665-3.479 6.102 3.531 8.926 4.286 1.715 18.861 2.269 21.181.857.605-.403 5.699-.655 11.297-.554 9.128.101 9.935-.051 8.17-1.362-1.059-.807-2.723-1.21-3.682-.908-.958.303-1.916-.151-2.269-1.008-.303-.858-1.21-1.564-1.916-1.564-.757 0-3.379-2.118-5.851-4.69-6.304-6.657-25.165-14.575-25.165-10.591z"/><path d="M76.807 363.869c0 1.412 3.43 2.925 14.121 6.203 5.851 1.816 12.608 3.934 15.08 4.741 2.42.756 5.295 1.412 6.304 1.412 3.076 0 2.017-1.765-1.463-2.421-4.942-.908-28.343-8.674-29.452-9.733-1.16-1.16-4.59-1.261-4.59-.202zm14.121.605c3.077.757 8.372 2.723 11.852 4.388 3.48 1.664 6.304 2.673 6.304 2.269 0-.403-1.715-1.513-3.782-2.471-2.068-.958-5.145-2.37-6.809-3.177-1.664-.807-5.295-1.665-8.069-1.917l-5.043-.403 5.547 1.311zm81.701 10.137c0 .857 1.16 1.614 2.773 1.816 4.237.453 4.186 7.211-.05 7.665-3.228.404-3.177 2.371.05 2.875 4.64.706 7.817-6.657 4.539-10.641-2.168-2.673-7.312-3.884-7.312-1.715zm13.465 4.085c1.513 3.934 1.816 8.725.605 10.187-1.614 1.967-.454 3.127 1.564 1.463 2.622-2.169 1.311-13.113-1.614-13.113-.605 0-.858.656-.555 1.463zm20.98-251.355c-4.741 1.211-3.631 1.564 2.875.807 3.984-.453 4.841-.756 3.025-1.16-1.412-.302-4.034-.151-5.9.353zm-.151 9.885c0 1.16 2.723 1.765 8.069 1.816 2.975.05 4.034-.202 3.026-.757-2.118-1.21-11.095-2.067-11.095-1.059zm6.304 9.734c-5.195.655-3.783 1.815 2.219 1.815 7.766 0 9.481 1.816 7.817 8.221-.706 2.572-1.009 4.892-.706 5.194 1.109 1.16 2.32-1.462 2.975-6.405.958-7.212-2.875-9.985-12.305-8.825zm.454 28.897c-.959 1.412-1.715 3.026-1.715 3.531 0 .504-1.866 2.824-4.136 5.144-3.681 3.833-4.791 6.354-2.017 4.639 2.017-1.21 10.339-13.667 9.986-14.827-.202-.605-1.16.051-2.118 1.513zm-202.335 9.229c-3.984 12.962-5.598 30.058-3.48 36.362 3.178 9.229 7.918 9.683 9.986.908.656-2.774 1.563-5.85 1.967-6.909.605-1.362.454-1.765-.555-1.412-.807.252-1.664 1.765-2.017 3.379-.757 3.782-2.774 7.514-3.984 7.514-2.976 0-5.901-12.003-4.186-17.298.605-1.866 1.361-5.901 1.664-8.927.353-3.076 1.059-7.413 1.664-9.733 1.463-5.8.606-9.179-1.059-3.884z"/><path d="M15.936 195.425c-.253.404-.757 3.934-1.16 7.817-.353 3.883-1.11 8.523-1.665 10.339-1.008 3.227-.403 7.312 1.059 7.312.707 0 2.522-10.742 3.531-20.929.403-3.883-.605-6.455-1.765-4.539zm-9.784 38.581c-.051.252-.252 1.311-.454 2.269-.404 2.169 4.438 5.8 7.766 5.8 2.623 0 6.859-2.572 6.859-4.136 0-.554-1.008-.353-2.219.505-2.874 2.017-6.758 1.109-9.632-2.27-1.261-1.462-2.32-2.471-2.32-2.168zm9.834 14.726c-2.219 2.925-3.177 3.026-6.001.403-2.32-2.168-3.783-2.572-3.783-1.059 0 5.951 9.179 6.204 12.457.353 1.311-2.319-.908-2.067-2.673.303zm-9.28 22.341c.354 5.397.858 11.65 1.11 13.869.303 2.219.756 5.851 1.059 8.07.252 2.219.807 4.488 1.21 5.043.404.555.858 2.32 1.06 3.984.605 5.699 6.051 10.742 9.884 9.128 1.665-.706 1.614-.857-.454-1.412-6.556-1.816-10.59-14.373-11.196-34.899-.201-6.657-1.361-13.617-2.319-13.617-.606 0-.757 3.631-.354 9.834zm4.892-8.321c-.756 1.967.505 13.718 1.614 15.533 1.564 2.522 2.976.252 2.018-3.177-.505-1.765-1.06-5.598-1.16-8.523-.202-5.245-1.312-6.859-2.472-3.833zm8.17 5.8c.404 2.37.908 6.354 1.11 8.926.202 2.572.857 6.758 1.412 9.33.605 2.522.807 8.624.454 13.466-.454 7.01-.303 8.624.656 7.665 1.664-1.613 1.916-16.39.403-23.602-.605-3.127-1.009-7.01-.807-8.573.404-3.48-1.715-11.499-3.026-11.499-.504 0-.605 1.866-.202 4.287z"/><path d="M14.07 280.958c-.706.706-.152 6.203 1.361 13.566 2.169 10.793 2.976 13.264 4.186 12.81.656-.252 1.059-1.059.908-1.815-1.463-6.002-2.522-11.549-3.429-17.803-.959-6.758-1.614-8.17-3.026-6.758zM76.152 19.416c.605 6.103.807 7.414 2.572 14.626.706 2.925 1.714 5.295 2.219 5.295 1.21 0 1.21-.353-1.11-11.196-1.109-5.194-2.017-10.49-2.017-11.751 0-1.26-.504-2.269-1.11-2.269-.706 0-.907 1.816-.554 5.295zM59.257 35.807c-.504 1.916.151 4.236 2.37 8.321 1.715 3.127 3.077 6.203 3.077 6.859 0 1.715 3.732 6.153 4.488 5.346.353-.353-1.21-4.539-3.429-9.381-2.27-4.791-4.237-9.582-4.388-10.641-.504-3.127-1.412-3.328-2.118-.504z"/></svg>