<svg xmlns="http://www.w3.org/2000/svg" width="1024" height="1024" viewBox="0 0 1024 1024"><path fill="currentColor" d="M 990.248 140.728 L 871.854 39.446 C 851.312 21.872 823.452 12 794.401 12 L 401.63 12 C 341.134 12 292.094 53.952 292.094 105.704 L 292.094 199.409 L 109.535 199.409 C 49.04 199.409 0 241.361 0 293.113 L 0 917.809 C 0 969.561 49.04 1011.513 109.535 1011.513 L 620.701 1011.513 C 681.196 1011.513 730.236 969.561 730.236 917.809 L 730.236 824.104 L 912.795 824.104 C 973.291 824.104 1022.33 782.152 1022.33 730.4 L 1022.33 206.987 C 1022.33 182.135 1010.79 158.301 990.248 140.728 Z M 607.009 917.809 L 123.227 917.809 C 115.665 917.809 109.535 912.565 109.535 906.096 L 109.535 304.826 C 109.535 298.357 115.665 293.113 123.227 293.113 L 292.094 293.113 L 292.094 730.4 C 292.094 782.152 341.134 824.104 401.63 824.104 L 620.701 824.104 L 620.701 906.096 C 620.701 912.565 614.571 917.809 607.009 917.809 Z M 899.103 730.4 L 415.322 730.4 C 407.76 730.4 401.63 725.156 401.63 718.687 L 401.63 117.417 C 401.63 110.948 407.76 105.704 415.322 105.704 L 657.212 105.704 L 657.212 277.496 C 657.212 303.372 681.732 324.348 711.98 324.348 L 912.795 324.348 L 912.795 718.687 C 912.795 725.156 906.665 730.4 899.103 730.4 Z M 912.795 230.643 L 766.748 230.643 L 766.748 105.704 L 788.728 105.704 C 792.359 105.704 795.841 106.938 798.41 109.134 L 908.786 203.557 C 911.353 205.754 912.796 208.734 912.795 211.84 L 912.795 230.643 Z" style=""/></svg>