<svg xmlns="http://www.w3.org/2000/svg">
  <symbol id="flower" viewBox="0 0 1024 1024">
    <path d="M531.264 114.112C541.536-28.928 434.688 3.056 434.688 3.056s-72.416 18.112-53.12 95.36c26.56 65.184 126.16 183.488 126.16 183.488s13.28-24.736 23.536-167.776zM839.84 240.608s-15.904-72.944-93.696-56c-65.952 24.576-187.216 120.528-187.216 120.528s24.32 14.032 166.992 28.624c51.184-14.528 111.952-17.104 113.92-93.152zM677.68 25.216S611.92-10.144 574.208 60c-24.224 66.08-30.176 220.608-30.176 220.608s26.48-9.376 130.336-108.256c103.84-98.88 3.296-147.12 3.296-147.12zm-108 307.472s6.128 27.408 91.84 142.384c35.088 56.064 84.816 77.936 145.664 20.944 0 0 42.976-61.04-22.112-106.896-62.704-31.968-215.392-56.432-215.392-56.432zm94.704 211.424C639.52 478.272 543.04 357.408 543.04 357.408s-10.864 31.04-27.888 167.12C497.36 666.832 608.8 638.064 608.8 638.064s72.88-16.224 55.584-93.952zM229.28 157.408s-38.64 63.888 29.488 105.088c64.784 27.552 218.8 41.328 218.8 41.328s-8.016-26.912-101.52-135.648c-51.744-44.592-107.152-66.976-146.768-10.768zM198.8 425.296s23.424 70.896 99.024 45.92c63.056-31.296 173.664-139.36 173.664-139.36s-25.664-11.424-169.072-11.088c-60.48 4.608-117.52 35.52-103.632 104.512zm320.4 598.72h65.184s-205.6-161.424-173.392-421.552c14.72-3.6 27.28-9.248 41.824-28.624 33.872-61.696 51.888-223.904 51.888-223.904s-34.096 20.112-134.048 99.904c-121.216 96.736-25.36 145.328-25.36 145.328s23.184 11.76 54.16 9.152C378.912 688.624 355.888 899.248 519.2 1024zM162.48 797.984c-12.672 41.648 27.168 93.552 27.168 93.552 130.416 131.552 255.328 103.232 255.328 103.232C367.12 833.616 171.888 767.104 162.48 797.984z"/>
  </symbol>
  <symbol id="frame" viewBox="0 0 1024 1024">
    <path d="M1024 704c0 35.328-28.672 64-64 64v69.888c37.184 13.248 64 48.384 64 90.112 0 52.992-43.008 96-96 96-41.76 0-76.896-26.816-90.112-64H768c0 35.328-28.672 64-64 64s-64-28.672-64-64h-64c0 35.328-28.672 64-64 64s-64-28.672-64-64h-64c0 35.328-28.672 64-64 64s-64-28.672-64-64h-69.888c-13.216 37.184-48.384 64-90.112 64-53.024 0-96-43.008-96-96 0-41.76 26.784-76.864 64-90.112V768c-35.328 0-64-28.672-64-64s28.672-64 64-64v-64c-35.328 0-64-28.672-64-64s28.672-64 64-64v-64c-35.328 0-64-28.672-64-64s28.672-64 64-64v-69.888C26.784 172.896 0 137.728 0 96 0 42.976 42.976 0 96 0c41.728 0 76.896 26.784 90.112 64H256c0-35.328 28.672-64 64-64s64 28.672 64 64h64c0-35.328 28.672-64 64-64s64 28.672 64 64h64c0-35.328 28.672-64 64-64s64 28.672 64 64h69.888C851.104 26.784 886.24 0 928 0c52.992 0 96 42.976 96 96 0 41.728-26.816 76.896-64 90.112V256c35.328 0 64 28.672 64 64s-28.672 64-64 64v64c35.328 0 64 28.672 64 64s-28.672 64-64 64v64c35.328 0 64 28.672 64 64zM832 224c0-17.664-14.304-32-32-32H224c-17.664 0-32 14.336-32 32v576c0 17.696 14.336 32 32 32h576c17.696 0 32-14.304 32-32V224z"/>
  </symbol>
  <symbol id="smiley-neutral" viewBox="0 0 1024 1024">
    <path d="M512 1024c282.77 0 512-229.23 512-512S794.77 0 512 0 0 229.23 0 512s229.23 512 512 512zm0-928c229.75 0 416 186.25 416 416S741.75 928 512 928 96 741.75 96 512 282.25 96 512 96zM256 320c0 35.346 28.654 64 64 64s64-28.654 64-64-28.654-64-64-64-64 28.654-64 64zm384 0c0 35.346 28.654 64 64 64s64-28.654 64-64-28.654-64-64-64-64 28.654-64 64zM384 704h256v64H384v-64z"/>
  </symbol>
  <symbol id="smiley-neutral2" viewBox="0 0 1024 1024">
    <path d="M512 0C229.23 0 0 229.23 0 512s229.226 512 512 512c282.77 0 512-229.23 512-512S794.77 0 512 0zm128 768H384v-64h256v64zm64-512c35.346 0 64 28.654 64 64s-28.654 64-64 64-64-28.654-64-64c0-35.346 28.654-64 64-64zm-384 0c35.346 0 64 28.654 64 64s-28.654 64-64 64-64-28.654-64-64c0-35.346 28.654-64 64-64z"/>
  </symbol>
</svg>
