<svg xmlns="http://www.w3.org/2000/svg">
  <symbol id="tilion" viewBox="0 0 900 1000">
    <path d="M 677.272 145.798 C 677.272 199.332 631.161 242.729 574.283 242.729 C 517.404 242.729 471.294 199.332 471.294 145.798 C 471.294 92.265 517.404 48.867 574.283 48.867 C 626.558 48.867 670.54 85.725 676.581 134.595 M 235.025 145.798 C 235.025 199.332 188.916 242.729 132.037 242.729 C 75.157 242.729 29.048 199.332 29.048 145.798 C 29.048 92.265 75.157 48.867 132.037 48.867 C 184.312 48.867 228.294 85.725 234.335 134.595" fill="#fea"/>
    <path d="M 404.654 584.849 C 616.221 832.237 954.734 633.762 816.61 378.871 C 825.818 386.578 856.398 361.729 852.959 366.755 C 1002.834 807.468 394.45 807.551 307.724 596.965 C 296.174 564.971 332.332 586.018 404.654 584.849 Z" fill="#fea"/>
    <path d="M 756.028 209.242 C 854.085 319.395 665.926 352.148 852.959 415.22 C 991.221 326.447 750.815 181.802 756.028 209.242 Z" fill="#a05a2c"/>
    <g fill="#fc0" transform="matrix(1.211634, 0, 0, 1.211634, -261.74646, -144.993011)">
      <path d="M758.81 246.848c0 36.92-30.808 66.85-68.81 66.85s-68.81-29.93-68.81-66.85C621.19 209.928 652 180 690 180c34.926 0 64.31 25.42 68.348 59.123M405 250c0 38.66-32.46 70-72.5 70S260 288.66 260 250s32.46-70 72.5-70c36.8 0 67.76 26.618 72.014 61.91"/>
    </g>
    <path d="M 441.003 897.011 C 444.38 813.546 363.74 623.323 368.305 533.521 C 403.103 532.983 430.502 506.816 465.236 509.289 C 465.868 509.858 683.279 856.149 683.33 860.662 C 640.218 864.135 474.214 904.054 441.003 897.011 Z" fill="#fea"/>
    <path d="M 77.513 836.429 C 76.982 834.779 233.572 498.678 235.025 497.172 C 235.641 496.535 367.511 532.709 368.305 533.521 C 369.289 534.526 272.611 884.619 271.374 884.894 C 328.564 888.801 117.436 870.406 77.513 836.429 Z" fill="#fea"/>
    <path d="M 283.491 327.544 C 283.491 307.466 267.219 291.194 247.142 291.194 C 227.065 291.194 210.793 307.466 210.793 327.544 C 210.793 347.62 227.065 363.892 247.142 363.892 C 267.219 363.892 283.491 347.62 283.491 327.544 Z M 489.468 327.544 C 489.468 347.62 473.197 363.892 453.119 363.892 C 433.043 363.892 416.771 347.62 416.771 327.544 C 416.771 307.466 433.043 291.194 453.119 291.194 C 473.197 291.194 489.468 307.466 489.468 327.544 Z" fill="#fff"/>
    <path d="M 489.319 329.792 C -11.388 821.025 238.965 575.407 489.319 329.792 Z" fill="#ffb380"/>
    <path d="M 265.317 326.332 C 265.317 336.369 257.179 344.506 247.142 344.506 C 237.104 344.506 228.968 336.369 228.968 326.332 C 228.968 316.294 237.104 308.158 247.142 308.158 C 257.179 308.158 265.317 316.294 265.317 326.332 Z M 470.082 326.332 C 470.082 336.369 461.946 344.506 451.908 344.506 C 441.871 344.506 433.733 336.369 433.733 326.332 C 433.733 316.294 441.871 308.158 451.908 308.158 C 461.946 308.158 470.082 316.294 470.082 326.332 Z"/>
    <path d="M 392.538 715.266 C 425.382 599.634 388.697 681.546 344.073 691.033 C 240.209 713.115 344.327 600.75 271.374 594.103 C 211.367 576.613 174.658 763.701 70.851 659.111 C 46.401 634.474 105.448 564.645 89.629 533.521 C 79.81 498.608 28.591 519.401 16.932 485.055 C 5.116 453.107 16.553 429.963 29.048 424.474 C 55.964 412.648 60.069 398.961 65.397 376.009 C 69.238 345.561 12.71 328.664 4.815 291.194 C -2.11 259.752 37.636 236.492 29.048 194.264 C 19.239 139.825 123.201 242.05 111.56 200.792 C 103.733 173.05 83.557 119.205 89.629 109.45 C 116.537 78.347 171.6 61.717 186.56 73.1 C 219.541 98.198 224.179 139.067 247.142 109.45 C 269.686 72.216 130.498 21.38 307.724 0.402 C 381.736 -8.915 350.041 146.84 392.538 121.566 C 415.884 107.68 344.926 40.877 459.711 14.974 C 541.261 -1.412 551.434 58.007 513.701 85.217 C 490.87 101.68 505.971 120.07 513.701 133.682 C 595.54 129.736 511.554 55.35 610.632 73.1 C 756.816 99.29 560.068 186.501 622.748 206.38 C 649.986 223.781 692.173 107.529 707.562 145.798 C 727.918 176.111 705.73 244.228 634.865 303.311 C 632.127 350.503 695.558 314.658 719.679 315.427 C 773.442 317.144 659.212 420.865 622.748 412.358 C 621.786 435.587 681.379 452.305 695.446 485.055 C 727.997 560.843 662.95 566.623 598.516 521.405 C 532.948 512.822 587.771 606.922 634.865 594.103 C 674.198 583.396 644.08 706.203 537.934 618.335 C 467.252 577.63 475.159 584.977 513.701 654.684 C 526.624 707.088 410.595 733.668 392.538 715.266 Z" fill="#a05a2c"/>
    <path d="M 150.212 448.706 C 83.159 336.4 140.797 258.353 150.212 242.729 C 162.049 223.081 234.12 130.823 307.724 230.612 C 346.241 260.06 383.419 242.153 392.538 230.612 C 464.344 139.752 524.957 207.924 550.051 242.729 C 581.674 300.689 579.833 355.251 562.167 412.358 C 551.153 469.147 483.037 538.295 356.189 545.638 C 269.715 546.158 210.388 535.399 150.212 448.706 Z" fill="#fc0"/>
    <path d="M 271.129 354.696 C 252.583 368.611 222.416 356.455 203.747 327.544 C 185.078 298.634 184.979 263.915 203.523 249.999 C 222.068 236.083 252.235 248.238 270.904 277.149 C 289.573 306.061 289.672 340.779 271.129 354.694 Z M 477.19 251.414 C 498.343 262.387 503 295.36 487.594 325.057 C 472.187 354.759 442.551 369.94 421.4 358.968 C 400.247 347.995 395.589 315.025 410.995 285.325 C 426.355 255.713 455.874 240.517 477.029 251.33 L 449.294 305.19 Z" fill="#fea"/>
    <g transform="matrix(1.211634, 0, 0, 1.211634, 168.383484, -593.297424)" fill="#000000">
      <circle cx="65" cy="755" r="26"/>
      <circle cx="225" cy="755" r="26"/>
    </g>
    <path d="M 277.433 497.172 C 222.942 492.132 202.675 396.486 271.374 388.125 C 273.716 335.358 384.408 288.347 416.771 388.125 C 495.449 403.905 458.124 505.382 404.654 497.172 C 387.312 511.587 343.503 529.032 277.433 497.172 Z" fill="#fea"/>
    <path d="M 247.142 436.59 C 267.95 362.892 442.057 366.821 441.003 436.59 C 447.292 506.68 260.31 517.861 247.142 436.59 Z" fill="#fff"/>
    <path d="M 295.607 388.125 C 312.108 380.978 339.399 359.506 386.479 388.125 C 385.614 422.906 371.017 455.431 344.073 460.823 C 314.808 456.672 301.52 430.174 295.607 388.125 Z" fill="#784421"/>
    <path d="M 313.782 472.939 C 313.258 474.769 344.693 491.489 344.073 460.823 C 343.871 483.586 361.157 482.698 375.575 474.151 C 359.018 483.827 357.764 479.451 344.073 478.998 C 332.79 477.417 330.835 487.582 313.782 472.939 Z" stroke="#000" stroke-width="1.351"/>
    <path d="M 289.549 884.894 C 289.549 948.465 227.166 1000 150.212 1000 C 73.257 1000 10.874 948.465 10.874 884.894 C 10.874 821.324 73.257 769.789 150.212 769.789 C 220.935 769.789 280.441 813.559 288.616 871.591 M 716.272 878.837 C 716.272 942.407 652.701 993.942 574.283 993.942 C 495.866 993.942 432.294 942.407 432.294 878.837 C 432.294 815.266 495.866 763.732 574.283 763.732 C 651.989 763.732 715.26 814.368 716.26 877.356" fill="#fc0"/>
    <path d="M 101.746 884.894 C 80.412 865.579 35.942 887.888 53.28 969.709 L 77.513 981.826 C 35.543 921.614 65.276 881.329 101.746 884.894 Z M 174.444 897.011 C 153.111 877.695 108.64 915.755 125.979 997.576 L 150.212 1000 C 108.24 939.789 137.974 893.445 174.444 897.011 Z M 610.632 884.894 C 631.965 865.579 676.435 887.888 659.097 969.709 L 634.865 981.826 C 676.836 921.614 647.102 881.329 610.632 884.894 Z M 513.701 884.894 C 535.035 865.579 579.505 912.12 562.167 993.942 L 537.934 990.306 C 579.905 930.096 550.172 881.329 513.701 884.894 Z" fill="#a05a2c"/>
  </symbol>
</svg>
