<svg xmlns="http://www.w3.org/2000/svg">
  <symbol id="brightness_4" viewBox="0 0 24 24">
    <path d="M0 0h24v24H0V0z" fill="none"/><path d="M20 8.69V4h-4.69L12 .69 8.69 4H4v4.69L.69 12 4 15.31V20h4.69L12 23.31 15.31 20H20v-4.69L23.31 12 20 8.69zm-2 5.79V18h-3.52L12 20.48 9.52 18H6v-3.52L3.52 12 6 9.52V6h3.52L12 3.52 14.48 6H18v3.52L20.48 12 18 14.48zM12.29 7c-.74 0-1.45.17-2.08.46 1.72.79 2.92 2.53 2.92 4.54s-1.2 3.75-2.92 4.54c.63.29 1.34.46 2.08.46 2.76 0 5-2.24 5-5s-2.24-5-5-5z"/>
  </symbol>
  <symbol id="brightness_5" viewBox="0 0 24 24">
    <path d="M0 0h24v24H0V0z" fill="none"/><path d="M20 8.69V4h-4.69L12 .69 8.69 4H4v4.69L.69 12 4 15.31V20h4.69L12 23.31 15.31 20H20v-4.69L23.31 12 20 8.69zm-2 5.79V18h-3.52L12 20.48 9.52 18H6v-3.52L3.52 12 6 9.52V6h3.52L12 3.52 14.48 6H18v3.52L20.48 12 18 14.48zM12 6.5c-3.03 0-5.5 2.47-5.5 5.5s2.47 5.5 5.5 5.5 5.5-2.47 5.5-5.5-2.47-5.5-5.5-5.5zm0 9c-1.93 0-3.5-1.57-3.5-3.5s1.57-3.5 3.5-3.5 3.5 1.57 3.5 3.5-1.57 3.5-3.5 3.5z"/>
  </symbol>
  <symbol id="check" viewBox="0 0 48 48">
    <path d="M18.9 35.7 7.7 24.5l2.15-2.15 9.05 9.05 19.2-19.2 2.15 2.15Z"/>
  </symbol>
  <symbol id="close" viewBox="0 0 48 48">
    <path d="m12.45 37.65-2.1-2.1L21.9 24 10.35 12.45l2.1-2.1L24 21.9l11.55-11.55 2.1 2.1L26.1 24l11.55 11.55-2.1 2.1L24 26.1Z"/>
  </symbol>
  <symbol id="dark_mode" viewBox="0 0 24 24">
    <rect fill="none" height="24" width="24"/><path d="M9.37,5.51C9.19,6.15,9.1,6.82,9.1,7.5c0,4.08,3.32,7.4,7.4,7.4c0.68,0,1.35-0.09,1.99-0.27C17.45,17.19,14.93,19,12,19 c-3.86,0-7-3.14-7-7C5,9.07,6.81,6.55,9.37,5.51z M12,3c-4.97,0-9,4.03-9,9s4.03,9,9,9s9-4.03,9-9c0-0.46-0.04-0.92-0.1-1.36 c-0.98,1.37-2.58,2.26-4.4,2.26c-2.98,0-5.4-2.42-5.4-5.4c0-1.81,0.89-3.42,2.26-4.4C12.92,3.04,12.46,3,12,3L12,3z"/>
  </symbol>
  <symbol id="delete" viewBox="0 0 48 48">
    <path d="M13.05 42q-1.25 0-2.125-.875T10.05 39V10.5H8v-3h9.4V6h13.2v1.5H40v3h-2.05V39q0 1.2-.9 2.1-.9.9-2.1.9Zm21.9-31.5h-21.9V39h21.9Zm-16.6 24.2h3V14.75h-3Zm8.3 0h3V14.75h-3Zm-13.6-24.2V39Z"/>
  </symbol>
  <symbol id="heart" viewBox="0 0 48 48">
  <path d="m24 41.95-2.05-1.85q-5.3-4.85-8.75-8.375-3.45-3.525-5.5-6.3T4.825 20.4Q4 18.15 4 15.85q0-4.5 3.025-7.525Q10.05 5.3 14.5 5.3q2.85 0 5.275 1.35Q22.2 8 24 10.55q2.1-2.7 4.45-3.975T33.5 5.3q4.45 0 7.475 3.025Q44 11.35 44 15.85q0 2.3-.825 4.55T40.3 25.425q-2.05 2.775-5.5 6.3T26.05 40.1ZM24 38q5.05-4.65 8.325-7.975 3.275-3.325 5.2-5.825 1.925-2.5 2.7-4.45.775-1.95.775-3.9 0-3.3-2.1-5.425T33.5 8.3q-2.55 0-4.75 1.575T25.2 14.3h-2.45q-1.3-2.8-3.5-4.4-2.2-1.6-4.75-1.6-3.3 0-5.4 2.125Q7 12.55 7 15.85q0 1.95.775 3.925.775 1.975 2.7 4.5Q12.4 26.8 15.7 30.1 19 33.4 24 38Zm0-14.85Z"/>
  </symbol>
  <symbol id="light_mode" viewBox="0 0 24 24">
    <rect fill="none" height="24" width="24"/><path d="M12,9c1.65,0,3,1.35,3,3s-1.35,3-3,3s-3-1.35-3-3S10.35,9,12,9 M12,7c-2.76,0-5,2.24-5,5s2.24,5,5,5s5-2.24,5-5 S14.76,7,12,7L12,7z M2,13l2,0c0.55,0,1-0.45,1-1s-0.45-1-1-1l-2,0c-0.55,0-1,0.45-1,1S1.45,13,2,13z M20,13l2,0c0.55,0,1-0.45,1-1 s-0.45-1-1-1l-2,0c-0.55,0-1,0.45-1,1S19.45,13,20,13z M11,2v2c0,0.55,0.45,1,1,1s1-0.45,1-1V2c0-0.55-0.45-1-1-1S11,1.45,11,2z M11,20v2c0,0.55,0.45,1,1,1s1-0.45,1-1v-2c0-0.55-0.45-1-1-1C11.45,19,11,19.45,11,20z M5.99,4.58c-0.39-0.39-1.03-0.39-1.41,0 c-0.39,0.39-0.39,1.03,0,1.41l1.06,1.06c0.39,0.39,1.03,0.39,1.41,0s0.39-1.03,0-1.41L5.99,4.58z M18.36,16.95 c-0.39-0.39-1.03-0.39-1.41,0c-0.39,0.39-0.39,1.03,0,1.41l1.06,1.06c0.39,0.39,1.03,0.39,1.41,0c0.39-0.39,0.39-1.03,0-1.41 L18.36,16.95z M19.42,5.99c0.39-0.39,0.39-1.03,0-1.41c-0.39-0.39-1.03-0.39-1.41,0l-1.06,1.06c-0.39,0.39-0.39,1.03,0,1.41 s1.03,0.39,1.41,0L19.42,5.99z M7.05,18.36c0.39-0.39,0.39-1.03,0-1.41c-0.39-0.39-1.03-0.39-1.41,0l-1.06,1.06 c-0.39,0.39-0.39,1.03,0,1.41s1.03,0.39,1.41,0L7.05,18.36z"/>
  </symbol>
  <symbol id="list" viewBox="0 0 48 48">
    <path d="M8.55 39q-1.05 0-1.8-.725T6 36.55q0-1.05.75-1.8t1.8-.75q1 0 1.725.75.725.75.725 1.8 0 1-.725 1.725Q9.55 39 8.55 39ZM16 38v-3h26v3ZM8.55 26.5q-1.05 0-1.8-.725T6 24q0-1.05.75-1.775.75-.725 1.8-.725 1 0 1.725.75Q11 23 11 24t-.725 1.75q-.725.75-1.725.75Zm7.45-1v-3h26v3ZM8.5 14q-1.05 0-1.775-.725Q6 12.55 6 11.5q0-1.05.725-1.775Q7.45 9 8.5 9q1.05 0 1.775.725Q11 10.45 11 11.5q0 1.05-.725 1.775Q9.55 14 8.5 14Zm7.5-1v-3h26v3Z"/>
  </symbol>
  <symbol id="location_on" viewBox="0 0 48 48">
    <path d="M24 23.5q1.45 0 2.475-1.025Q27.5 21.45 27.5 20q0-1.45-1.025-2.475Q25.45 16.5 24 16.5q-1.45 0-2.475 1.025Q20.5 18.55 20.5 20q0 1.45 1.025 2.475Q22.55 23.5 24 23.5Zm0 16.55q6.65-6.05 9.825-10.975Q37 24.15 37 20.4q0-5.9-3.775-9.65T24 7q-5.45 0-9.225 3.75Q11 14.5 11 20.4q0 3.75 3.25 8.675Q17.5 34 24 40.05ZM24 44q-8.05-6.85-12.025-12.725Q8 25.4 8 20.4q0-7.5 4.825-11.95Q17.65 4 24 4q6.35 0 11.175 4.45Q40 12.9 40 20.4q0 5-3.975 10.875T24 44Zm0-23.6Z"/>
  </symbol>
  <symbol id="location_on2" viewBox="0 0 24 24">
    <path d="M0 0h24v24H0V0z" fill="none"/><path d="M12 4C9.24 4 7 6.24 7 9c0 2.85 2.92 7.21 5 9.88 2.11-2.69 5-7 5-9.88 0-2.76-2.24-5-5-5zm0 7.5c-1.38 0-2.5-1.12-2.5-2.5s1.12-2.5 2.5-2.5 2.5 1.12 2.5 2.5-1.12 2.5-2.5 2.5z" opacity=".3"/><path d="M12 2C8.13 2 5 5.13 5 9c0 5.25 7 13 7 13s7-7.75 7-13c0-3.87-3.13-7-7-7zM7 9c0-2.76 2.24-5 5-5s5 2.24 5 5c0 2.88-2.88 7.19-5 9.88C9.92 16.21 7 11.85 7 9z"/><circle cx="12" cy="9" r="2.5"/>
  </symbol>
  <symbol id="map" viewBox="0 0 24 24">
    <path d="M0 0h24v24H0V0z" fill="none"/><path d="M20.5 3l-.16.03L15 5.1 9 3 3.36 4.9c-.21.07-.36.25-.36.48V20.5c0 .28.22.5.5.5l.16-.03L9 18.9l6 2.1 5.64-1.9c.21-.07.36-.25.36-.48V3.5c0-.28-.22-.5-.5-.5zM10 5.47l4 1.4v11.66l-4-1.4V5.47zm-5 .99l3-1.01v11.7l-3 1.16V6.46zm14 11.08l-3 1.01V6.86l3-1.16v11.84z"/>
  </symbol>
  <symbol id="search" viewBox="0 0 48 48">
    <path xmlns="http://www.w3.org/2000/svg" d="M39.8 41.95 26.65 28.8q-1.5 1.3-3.5 2.025-2 .725-4.25.725-5.4 0-9.15-3.75T6 18.75q0-5.3 3.75-9.05 3.75-3.75 9.1-3.75 5.3 0 9.025 3.75 3.725 3.75 3.725 9.05 0 2.15-.7 4.15-.7 2-2.1 3.75L42 39.75Zm-20.95-13.4q4.05 0 6.9-2.875Q28.6 22.8 28.6 18.75t-2.85-6.925Q22.9 8.95 18.85 8.95q-4.1 0-6.975 2.875T9 18.75q0 4.05 2.875 6.925t6.975 2.875Z"/>
  </symbol>
  <symbol id="settings" viewBox="0 0 48 48">
    <path d="m19.4 44-1-6.3q-.95-.35-2-.95t-1.85-1.25l-5.9 2.7L4 30l5.4-3.95q-.1-.45-.125-1.025Q9.25 24.45 9.25 24q0-.45.025-1.025T9.4 21.95L4 18l4.65-8.2 5.9 2.7q.8-.65 1.85-1.25t2-.9l1-6.35h9.2l1 6.3q.95.35 2.025.925Q32.7 11.8 33.45 12.5l5.9-2.7L44 18l-5.4 3.85q.1.5.125 1.075.025.575.025 1.075t-.025 1.05q-.025.55-.125 1.05L44 30l-4.65 8.2-5.9-2.7q-.8.65-1.825 1.275-1.025.625-2.025.925l-1 6.3ZM24 30.5q2.7 0 4.6-1.9 1.9-1.9 1.9-4.6 0-2.7-1.9-4.6-1.9-1.9-4.6-1.9-2.7 0-4.6 1.9-1.9 1.9-1.9 4.6 0 2.7 1.9 4.6 1.9 1.9 4.6 1.9Zm0-3q-1.45 0-2.475-1.025Q20.5 25.45 20.5 24q0-1.45 1.025-2.475Q22.55 20.5 24 20.5q1.45 0 2.475 1.025Q27.5 22.55 27.5 24q0 1.45-1.025 2.475Q25.45 27.5 24 27.5Zm0-3.5Zm-2.2 17h4.4l.7-5.6q1.65-.4 3.125-1.25T32.7 32.1l5.3 2.3 2-3.6-4.7-3.45q.2-.85.325-1.675.125-.825.125-1.675 0-.85-.1-1.675-.1-.825-.35-1.675L40 17.2l-2-3.6-5.3 2.3q-1.15-1.3-2.6-2.175-1.45-.875-3.2-1.125L26.2 7h-4.4l-.7 5.6q-1.7.35-3.175 1.2-1.475.85-2.625 2.1L10 13.6l-2 3.6 4.7 3.45q-.2.85-.325 1.675-.125.825-.125 1.675 0 .85.125 1.675.125.825.325 1.675L8 30.8l2 3.6 5.3-2.3q1.2 1.2 2.675 2.05Q19.45 35 21.1 35.4Z"/>
  </symbol>
  <symbol id="start" viewBox="0 0 48 48">
    <path d="m16.15 37.75 7.85-4.7 7.85 4.75-2.1-8.9 6.9-6-9.1-.8L24 13.7l-3.55 8.35-9.1.8 6.9 6ZM11.65 44l3.25-14.05L4 20.5l14.4-1.25L24 6l5.6 13.25L44 20.5l-10.9 9.45L36.35 44 24 36.55ZM24 26.25Z"/>
  </symbol>
</svg>
