<svg xmlns="http://www.w3.org/2000/svg">
  <symbol id="0" viewBox="0 0 50 50">
    <circle cx="25" cy="25" r="16" fill="currentColor" stroke="currentColor" stroke-width="3"/>
  </symbol>
  <symbol id="1" viewBox="0 0 50 50">
    <circle stroke-width="3" stroke="currentColor" fill="none" r="16" cy="25" cx="25"/><path stroke-width="0" fill="currentColor" d="m25,9a16,16 0 0 0 0,32l0,-1.5a18,18 0 0 0 0,-29l0,-1.5z"/>
  </symbol>
  <symbol id="2" viewBox="0 0 50 50">
    <circle stroke-width="3" stroke="currentColor" fill="none" r="16" cy="25" cx="25"/><path stroke-width="0" fill="currentColor" d="m25,9a16,16 0 0 0 0,32l0,-32z"/>
  </symbol>
  <symbol id="3" viewBox="0 0 50 50">
    <circle cx="25" cy="25" r="16" fill="none" stroke="currentColor" stroke-width="3"/><path d="m25,9a16,16 0 0 0 0,32l0,-1.5a18,18 0 0 1 0,-29l0,-1.5z" fill="currentColor" stroke-width="0"/>
  </symbol>
  <symbol id="4" viewBox="0 0 50 50">
    <circle cx="25" cy="25" r="16" fill="none" stroke="currentColor" stroke-width="3"/>
  </symbol>
  <symbol id="5" viewBox="0 0 50 50">
    <circle cx="25" cy="25" r="16" fill="none" stroke="currentColor" stroke-width="3"/><path d="m25,9a16,16 0 0 1 0,32l0,-1.5a18,18 0 0 0 0,-29l0,-1.5z" fill="currentColor" stroke-width="0"/>
  </symbol>
  <symbol id="6" viewBox="0 0 50 50">
    <circle cx="25" cy="25" r="16" fill="none" stroke="currentColor" stroke-width="3"/><path d="m25,9a16,16 0 0 1 0,32l0,-32z" fill="currentColor" stroke-width="0"/>
  </symbol>
  <symbol id="7" viewBox="0 0 50 50">
    <circle stroke-width="3" stroke="currentColor" fill="none" r="16" cy="25" cx="25"/><path stroke-width="0" fill="currentColor" d="m25,9a16,16 0 0 1 0,32l0,-1.5a18,18 0 0 1 0,-29l0,-1.5z"/>
  </symbol>
</svg>
