<svg xmlns="http://www.w3.org/2000/svg"><symbol id="fast-forward" viewBox="0 0 24 24"><path d="M5.58 16.89l5.77-4.07c.56-.4.56-1.24 0-1.63L5.58 7.11C4.91 6.65 4 7.12 4 7.93v8.14c0 .81.91 1.28 1.58.82zM13 7.93v8.14c0 .81.91 1.28 1.58.82l5.77-4.07c.56-.4.56-1.24 0-1.63l-5.77-4.07c-.67-.47-1.58 0-1.58.81z"></path></symbol><symbol id="fast-rewind" viewBox="0 0 24 24"><path d="M11 16.07V7.93c0-.81-.91-1.28-1.58-.82l-5.77 4.07c-.56.4-.56 1.24 0 1.63l5.77 4.07c.67.47 1.58 0 1.58-.81zm1.66-3.25l5.77 4.07c.66.47 1.58-.01 1.58-.82V7.93c0-.81-.91-1.28-1.58-.82l-5.77 4.07c-.57.4-.57 1.24 0 1.64z"></path></symbol><symbol id="favorite-border" viewBox="0 0 24 24"><path d="M0 0h24v24H0V0z" fill="none"></path><path d="M19.66 3.99c-2.64-1.8-5.9-.96-7.66 1.1-1.76-2.06-5.02-2.91-7.66-1.1-1.4.96-2.28 2.58-2.34 4.29-.14 3.88 3.3 6.99 8.55 11.76l.1.09c.76.69 1.93.69 2.69-.01l.11-.1c5.25-4.76 8.68-7.87 8.55-11.75-.06-1.7-.94-3.32-2.34-4.28zM12.1 18.55l-.1.1-.1-.1C7.14 14.24 4 11.39 4 8.5 4 6.5 5.5 5 7.5 5c1.54 0 3.04.99 3.57 2.36h1.87C13.46 5.99 14.96 5 16.5 5c2 0 3.5 1.5 3.5 3.5 0 2.89-3.14 5.74-7.9 10.05z"></path></symbol><symbol id="favorite" viewBox="0 0 24 24"><path d="M0 0h24v24H0V0z" fill="none"></path><path d="M13.35 20.13c-.76.69-1.93.69-2.69-.01l-.11-.1C5.3 15.27 1.87 12.16 2 8.28c.06-1.7.93-3.33 2.34-4.29 2.64-1.8 5.9-.96 7.66 1.1 1.76-2.06 5.02-2.91 7.66-1.1 1.41.96 2.28 2.59 2.34 4.29.14 3.88-3.3 6.99-8.55 11.76l-.1.09z"></path></symbol><symbol id="forward-10" viewBox="0 0 24 24"><path d="M18.92 13c-.5 0-.91.37-.98.86-.48 3.37-3.77 5.84-7.42 4.96-2.25-.54-3.91-2.27-4.39-4.53C5.32 10.42 8.27 7 12 7v2.79c0 .45.54.67.85.35l3.79-3.79c.2-.2.2-.51 0-.71l-3.79-3.79c-.31-.31-.85-.09-.85.36V5c-4.94 0-8.84 4.48-7.84 9.6.6 3.11 2.9 5.5 5.99 6.19 4.83 1.08 9.15-2.2 9.77-6.67.09-.59-.4-1.12-1-1.12zm-8.02 3v-4.27h-.09l-1.77.63v.69l1.01-.31V16zm3.42-4.22c-.18-.07-.37-.1-.59-.1s-.41.03-.59.1-.33.18-.45.33-.23.34-.29.57-.1.5-.1.82v.74c0 .32.04.6.11.82s.17.42.3.57.28.26.46.33.37.1.59.1.41-.03.59-.1.33-.18.45-.33.22-.34.29-.57.1-.5.1-.82v-.74c0-.32-.04-.6-.11-.82s-.17-.42-.3-.57-.29-.26-.46-.33zm.01 2.57c0 .19-.01.35-.04.48s-.06.24-.11.32-.11.14-.19.17-.16.05-.25.05-.18-.02-.25-.05-.14-.09-.19-.17-.09-.19-.12-.32-.04-.29-.04-.48v-.97c0-.19.01-.35.04-.48s.06-.23.12-.31.11-.14.19-.17.16-.05.25-.05.18.02.25.05.14.09.19.17.09.18.12.31.04.29.04.48v.97z"></path></symbol><symbol id="get-app" viewBox="0 0 24 24"><path d="M0 0h24v24H0V0z" fill="none"></path><path d="M16.59 9H15V4c0-.55-.45-1-1-1h-4c-.55 0-1 .45-1 1v5H7.41c-.89 0-1.34 1.08-.71 1.71l4.59 4.59c.39.39 1.02.39 1.41 0l4.59-4.59c.63-.63.19-1.71-.7-1.71zM5 19c0 .55.45 1 1 1h12c.55 0 1-.45 1-1s-.45-1-1-1H6c-.55 0-1 .45-1 1z"></path></symbol><symbol id="menu" viewBox="0 0 24 24"><path d="M0 0h24v24H0V0z" fill="none"></path><path d="M12 8c1.1 0 2-.9 2-2s-.9-2-2-2-2 .9-2 2 .9 2 2 2zm0 2c-1.1 0-2 .9-2 2s.9 2 2 2 2-.9 2-2-.9-2-2-2zm0 6c-1.1 0-2 .9-2 2s.9 2 2 2 2-.9 2-2-.9-2-2-2z"></path></symbol><symbol id="pause" viewBox="0 0 24 24"><path d="M8 19c1.1 0 2-.9 2-2V7c0-1.1-.9-2-2-2s-2 .9-2 2v10c0 1.1.9 2 2 2zm6-12v10c0 1.1.9 2 2 2s2-.9 2-2V7c0-1.1-.9-2-2-2s-2 .9-2 2z"></path></symbol><symbol id="play" viewBox="0 0 24 24"><path d="M8 6.82v10.36c0 .79.87 1.27 1.54.84l8.14-5.18c.62-.39.62-1.29 0-1.69L9.54 5.98C8.87 5.55 8 6.03 8 6.82z"></path></symbol><symbol id="replay" viewBox="0 0 24 24"><path d="M12 5V2.21c0-.45-.54-.67-.85-.35l-3.8 3.79c-.2.2-.2.51 0 .71l3.79 3.79c.32.31.86.09.86-.36V7c3.73 0 6.68 3.42 5.86 7.29-.47 2.27-2.31 4.1-4.57 4.57-3.57.75-6.75-1.7-7.23-5.01-.07-.48-.49-.85-.98-.85-.6 0-1.08.53-1 1.13.62 4.39 4.8 7.64 9.53 6.72 3.12-.61 5.63-3.12 6.24-6.24C20.84 9.48 16.94 5 12 5z"></path></symbol><symbol id="rewind-10" viewBox="0 0 24 24"><path d="M11.99 5V2.21c0-.45-.54-.67-.85-.35L7.35 5.65c-.2.2-.2.51 0 .71l3.79 3.79c.31.31.85.09.85-.35V7c3.73 0 6.68 3.42 5.86 7.29-.47 2.27-2.31 4.1-4.57 4.57-3.57.75-6.75-1.7-7.23-5.01-.06-.48-.48-.85-.98-.85-.6 0-1.08.53-1 1.13.62 4.39 4.8 7.64 9.53 6.72 3.12-.61 5.63-3.12 6.24-6.24.99-5.13-2.9-9.61-7.85-9.61zm-1.1 11h-.85v-3.26l-1.01.31v-.69l1.77-.63h.09V16zm4.28-1.76c0 .32-.03.6-.1.82s-.17.42-.29.57-.28.26-.45.33-.37.1-.59.1-.41-.03-.59-.1-.33-.18-.46-.33-.23-.34-.3-.57-.11-.5-.11-.82v-.74c0-.32.03-.6.1-.82s.17-.42.29-.57.28-.26.45-.33.37-.1.59-.1.41.03.59.1.33.18.46.33.23.34.3.57.11.5.11.82v.74zm-.85-.86c0-.19-.01-.35-.04-.48s-.07-.23-.12-.31-.11-.14-.19-.17-.16-.05-.25-.05-.18.02-.25.05-.14.09-.19.17-.09.18-.12.31-.04.29-.04.48v.97c0 .19.01.35.04.48s.07.24.12.32.11.14.19.17.16.05.25.05.18-.02.25-.05.14-.09.19-.17.09-.19.11-.32.04-.29.04-.48v-.97z"></path></symbol><symbol id="skip-next" viewBox="0 0 24 24"><path d="M7.58 16.89l5.77-4.07c.56-.4.56-1.24 0-1.63L7.58 7.11C6.91 6.65 6 7.12 6 7.93v8.14c0 .81.91 1.28 1.58.82zM16 7v10c0 .55.45 1 1 1s1-.45 1-1V7c0-.55-.45-1-1-1s-1 .45-1 1z"></path></symbol><symbol id="skip-prev" viewBox="0 0 24 24"><path d="M7 6c.55 0 1 .45 1 1v10c0 .55-.45 1-1 1s-1-.45-1-1V7c0-.55.45-1 1-1zm3.66 6.82l5.77 4.07c.66.47 1.58-.01 1.58-.82V7.93c0-.81-.91-1.28-1.58-.82l-5.77 4.07c-.57.4-.57 1.24 0 1.64z"></path></symbol><symbol id="star-border" viewBox="0 0 24 24"><path d="M0 0h24v24H0V0z" fill="none"></path><path d="M19.65 9.04l-4.84-.42-1.89-4.45c-.34-.81-1.5-.81-1.84 0L9.19 8.63l-4.83.41c-.88.07-1.24 1.17-.57 1.75l3.67 3.18-1.1 4.72c-.2.86.73 1.54 1.49 1.08l4.15-2.5 4.15 2.51c.76.46 1.69-.22 1.49-1.08l-1.1-4.73 3.67-3.18c.67-.58.32-1.68-.56-1.75zM12 15.4l-3.76 2.27 1-4.28-3.32-2.88 4.38-.38L12 6.1l1.71 4.04 4.38.38-3.32 2.88 1 4.28L12 15.4z"></path></symbol><symbol id="star" viewBox="0 0 24 24"><g><path d="M0 0h24v24H0V0z" fill="none"></path><path d="M0 0h24v24H0V0z" fill="none"></path></g><g><path d="m12 17.27 4.15 2.51c.76.46 1.69-.22 1.49-1.08l-1.1-4.72 3.67-3.18c.67-.58.31-1.68-.57-1.75l-4.83-.41-1.89-4.46c-.34-.81-1.5-.81-1.84 0L9.19 8.63l-4.83.41c-.88.07-1.24 1.17-.57 1.75l3.67 3.18-1.1 4.72c-.2.86.73 1.54 1.49 1.08l4.15-2.5z"></path></g></symbol><symbol id="stop" viewBox="0 0 24 24"><path d="M8 6h8c1.1 0 2 .9 2 2v8c0 1.1-.9 2-2 2H8c-1.1 0-2-.9-2-2V8c0-1.1.9-2 2-2z"></path></symbol><symbol id="volume-off" viewBox="0 0 24 24"><path d="M3.63 3.63c-.39.39-.39 1.02 0 1.41L7.29 8.7 7 9H4c-.55 0-1 .45-1 1v4c0 .55.45 1 1 1h3l3.29 3.29c.63.63 1.71.18 1.71-.71v-4.17l4.18 4.18c-.49.37-1.02.68-1.6.91-.36.15-.58.53-.58.92 0 .72.73 1.18 1.39.91.8-.33 1.55-.77 2.22-1.31l1.34 1.34c.39.39 1.02.39 1.41 0 .39-.39.39-1.02 0-1.41L5.05 3.63c-.39-.39-1.02-.39-1.42 0zM19 12c0 .82-.15 1.61-.41 2.34l1.53 1.53c.56-1.17.88-2.48.88-3.87 0-3.83-2.4-7.11-5.78-8.4-.59-.23-1.22.23-1.22.86v.19c0 .38.25.71.61.85C17.18 6.54 19 9.06 19 12zm-8.71-6.29l-.17.17L12 7.76V6.41c0-.89-1.08-1.33-1.71-.7zM16.5 12c0-1.77-1.02-3.29-2.5-4.03v1.79l2.48 2.48c.01-.08.02-.16.02-.24z"></path></symbol><symbol id="volume-up" viewBox="0 0 24 24"><path d="M3 10v4c0 .55.45 1 1 1h3l3.29 3.29c.63.63 1.71.18 1.71-.71V6.41c0-.89-1.08-1.34-1.71-.71L7 9H4c-.55 0-1 .45-1 1zm13.5 2c0-1.77-1.02-3.29-2.5-4.03v8.05c1.48-.73 2.5-2.25 2.5-4.02zM14 4.45v.2c0 .38.25.71.6.85C17.18 6.53 19 9.06 19 12s-1.82 5.47-4.4 6.5c-.36.14-.6.47-.6.85v.2c0 .63.63 1.07 1.21.85C18.6 19.11 21 15.84 21 12s-2.4-7.11-5.79-8.4c-.58-.23-1.21.22-1.21.85z"></path></symbol></svg>