<svg xmlns="http://www.w3.org/2000/svg"><symbol id="address-card" viewBox="0 0 576 512"><path d="M64 32C28.7 32 0 60.7 0 96V416c0 35.3 28.7 64 64 64H512c35.3 0 64-28.7 64-64V96c0-35.3-28.7-64-64-64H64zm80 256h64c44.2 0 80 35.8 80 80c0 8.8-7.2 16-16 16H80c-8.8 0-16-7.2-16-16c0-44.2 35.8-80 80-80zm96-96c0 35.3-28.7 64-64 64s-64-28.7-64-64s28.7-64 64-64s64 28.7 64 64zm128-32H496c8.8 0 16 7.2 16 16s-7.2 16-16 16H368c-8.8 0-16-7.2-16-16s7.2-16 16-16zm0 64H496c8.8 0 16 7.2 16 16s-7.2 16-16 16H368c-8.8 0-16-7.2-16-16s7.2-16 16-16zm0 64H496c8.8 0 16 7.2 16 16s-7.2 16-16 16H368c-8.8 0-16-7.2-16-16s7.2-16 16-16z"></path></symbol><symbol id="ampersand" viewBox="0 0 1024 1024"><path d="M434.592 960.224c227.264 0 427.872-125.952 427.872-335.84 0-76.576-35.808-123.488-50.816-148.192-12.512-14.816-12.512-27.168 17.504-29.632 117.344-17.28 194.752-81.504 194.752-204.96 0-66.688-54.944-146.88-154.816-146.88-47.424 0-105.376 45.632-105.376 95.008 0 27.2 27.968 59.648 67.904 59.648 44.96 0 70.432-47.296 62.944-67.072-2.464-12.352-10.464-27.168 6.976-27.168 32.512 0 69.952 41.984 69.952 81.504 0 69.152-64.928 116.672-167.328 116.672-54.944 0-102.368-33.888-154.816-33.888-132.352 0-209.76 104.896-209.76 196.288 0 103.712 79.904 153.088 139.84 153.088 67.392 0 87.392-39.488 87.392-71.616 0-37.024-22.496-61.728-69.952-61.728-37.44 0-54.944 39.488-52.448 59.264 2.496 9.888-4.992 17.28-12.512 17.28-9.984 0-39.936-32.096-39.936-74.048 0-29.664 20-127.136 124.864-127.136 112.352 0 190.624 102.4 190.624 186.368 0 118.528-133.216 244.512-360.448 244.512-227.264 0-357.088-103.712-357.088-254.368 0-69.152 29.984-133.344 67.392-160.512 15.008-9.888 22.496-7.392 29.984 4.928 17.504 12.352 57.44 45.632 82.4 45.632 32.48 0 49.952-40.672 49.952-75.296 0-29.632-34.944-49.984-64.896-49.984s-49.952 17.888-62.432 22.816c-17.472-27.168-27.456-61.728-27.456-88.896 0-79.008 57.44-128.608 112.384-128.608 47.424 0 87.392 37.216 79.904 84.16-2.496 12.352-2.496 22.208 2.496 22.208 19.968 0 64.896-29.632 64.896-83.968 0-76.544-57.408-116.064-132.352-116.064-122.336 0-197.248 86.432-197.248 177.824 0 54.304 19.968 103.712 52.448 145.696C97.44 409.472.064 493.44.064 641.632c.032 125.952 87.424 318.592 434.528 318.592z"></path></symbol><symbol id="arrow-down" viewBox="0 0 1024 1024"><path d="M384 0v512L192 320 0 512l512 512 512-512-192-192-192 192V0z"></path></symbol><symbol id="arrow-left" viewBox="0 0 1024 1024"><path d="M1024 384H512l192-192L512 0 0 512l512 512 192-192-192-192h512z"></path></symbol><symbol id="arrow-right" viewBox="0 0 1024 1024"><path d="M0 640h512L320 832l192 192 512-512L512 0 320 192l192 192H0z"></path></symbol><symbol id="arrow-right2" viewBox="0 0 448 512"><path d="M438.6 278.6c12.5-12.5 12.5-32.8 0-45.3l-160-160c-12.5-12.5-32.8-12.5-45.3 0s-12.5 32.8 0 45.3L338.8 224 32 224c-17.7 0-32 14.3-32 32s14.3 32 32 32l306.7 0L233.4 393.4c-12.5 12.5-12.5 32.8 0 45.3s32.8 12.5 45.3 0l160-160z"></path></symbol><symbol id="arrow-up" viewBox="0 0 1024 1024"><path d="M640 1024V512l192 192 192-192L512 0 0 512l192 192 192-192v512z"></path></symbol><symbol id="asterisk" viewBox="0 0 1024 1024"><path d="M998.994 330.016l-88.276-150.748-349.03 245.814L601.074 0H421.805l40.743 425.082L112.16 179.268 22.528 330.016 410.94 512 22.527 692.625 112.16 844.73l350.39-245.812L421.805 1024h179.268L561.69 598.916 910.717 844.73l88.276-152.105L611.938 512z"></path></symbol><symbol id="asterisk2" viewBox="0 0 1024 1024"><path d="M515.584 1024q58.88 0 84.48-37.12t25.6-72.96q0-25.6-14.08-53.76t-30.72-70.4-33.28-104.96-21.76-157.44q84.48 53.76 133.12 107.52t81.92 94.72 58.88 66.56 66.56 25.6q53.76 0 80.64-34.56t26.88-72.96q0-35.84-15.36-57.6t-38.4-34.56q-17.92-10.24-47.36-11.52t-75.52-8.96-111.36-26.88T530.944 512q89.6-43.52 154.88-62.72t111.36-26.88 75.52-8.96 47.36-11.52q23.04-12.8 38.4-34.56t15.36-57.6q0-38.4-26.88-72.96t-80.64-34.56q-40.96 0-66.56 25.6t-58.88 66.56-81.92 94.72-133.12 107.52q5.12-94.72 21.76-157.44t34.56-104.96 32-70.4 14.08-53.76q0-35.84-25.6-72.96T518.144 0t-84.48 37.12-25.6 72.96q0 25.6 14.08 53.76t30.72 70.4 33.28 104.96 21.76 157.44q-84.48-53.76-133.12-107.52t-81.92-94.72-58.88-66.56-66.56-25.6q-53.76 0-80.64 34.56t-26.88 72.96q0 35.84 15.36 57.6t38.4 34.56q17.92 10.24 46.08 11.52t74.24 8.96 112.64 26.88T502.784 512q-92.16 43.52-157.44 62.72t-111.36 26.88-75.52 8.96-47.36 11.52q-23.04 12.8-38.4 34.56t-15.36 57.6q0 38.4 26.88 72.96t80.64 34.56q40.96 0 66.56-25.6t58.88-66.56 81.92-94.72 133.12-107.52q-5.12 94.72-20.48 157.44t-33.28 104.96-32 70.4-14.08 53.76q0 35.84 25.6 72.96t84.48 37.12z"></path></symbol><symbol id="asterism" viewBox="0 0 1024 1024"><path d="M477 .156l18.313 190.875L337.97 80.66l-40.25 68.28 174.404 81.095-174.406 81.72 40.25 67.688 157.342-110.38L477 459.94h80.5l-17.688-190.875 156.72 110.375 39.624-67.688-173.78-81.72 173.78-81.093-39.625-68.28L539.817 191.03 557.5.157H477zM179.28 564.22l18.282 190.874L40.25 644.72 0 713l174.406 81.125L0 875.813 40.25 943.5l157.313-110.375L179.28 1024h80.5l-17.686-190.875L398.814 943.5l39.623-67.688-173.78-81.687L438.437 713l-39.626-68.28-156.715 110.374L259.78 564.22h-80.5zm585.47 0l18.28 190.874L625.72 644.72 585.47 713l174.405 81.125-174.406 81.688 40.25 67.687 157.31-110.375L764.75 1024h80.5l-17.688-190.875L984.282 943.5l39.625-67.688-173.78-81.687L1023.905 713l-39.625-68.28-156.717 110.374L845.25 564.22h-80.5z"></path></symbol><symbol id="asterism2" viewBox="0 0 1024 1024"><path d="M511.36 460.8q26.496 0 38.016-16.705t11.52-32.833q0-11.52-6.337-24.192t-13.83-31.68q-7.49-19.01-14.98-47.233-7.49-28.225-9.8-70.85 38.01 24.193 59.9 48.385t36.86 42.624 26.49 29.952 29.95 11.52q24.19 0 36.29-15.553t12.09-32.833q0-16.128-6.91-25.92t-17.28-15.554q-8.07-4.608-21.32-5.185t-33.99-4.033-50.11-12.097-69.7-28.225q40.32-19.584 69.7-28.225t50.11-12.097 33.98-4.033 21.31-5.185q10.37-5.76 17.28-15.553t6.91-25.92q0-17.28-12.094-32.834t-36.27-15.55q-18.43 0-29.95 11.52T612.7 132.47t-36.86 42.63-59.9 48.38q2.31-42.62 9.79-70.85t15.56-47.23q8.06-19.01 14.4-31.68t6.335-24.19q0-16.13-11.52-32.83t-38-16.72-38.016 16.7-11.52 32.84q0 11.52 6.336 24.19t13.824 31.68q7.48 19.01 14.97 47.24 7.49 28.22 9.79 70.84-38.01-24.19-59.9-48.38t-36.86-42.62-26.49-29.96-29.95-11.52q-24.19 0-36.29 15.55t-12.09 32.84q0 16.13 6.91 25.92t17.28 15.55q8.07 4.61 20.74 5.18t33.41 4.03 50.69 12.1 70.27 28.22q-41.47 19.58-70.85 28.22t-50.11 12.09-33.98 4.032-21.31 5.187q-10.37 5.76-17.28 15.553t-6.913 25.93q0 17.28 12.1 32.83t36.29 15.55q18.43 0 29.95-11.52t26.5-29.95 36.862-42.62 59.902-48.38q-2.304 42.62-9.22 70.85t-14.973 47.23q-8.066 19.01-14.4 31.68t-6.34 24.19q0 16.125 11.52 32.83t38.02 16.71zM206.208 1024q26.496 0 38.016-16.705t11.52-32.833q0-11.52-6.337-24.192t-13.824-31.68q-7.49-19.01-14.976-47.233-7.49-28.225-9.793-70.85 38.016 24.193 59.904 48.385t36.864 42.624 26.496 29.952 29.952 11.52q24.192 0 36.29-15.553t12.096-32.833q0-16.128-6.912-25.92t-17.28-15.554q-8.064-4.608-21.313-5.185t-33.98-4.033-50.11-12.097-69.69-28.225q40.32-19.584 69.7-28.225t50.12-12.097 33.99-4.033 21.32-5.185q10.37-5.76 17.28-15.553t6.91-25.92q0-17.28-12.1-32.834t-36.29-15.55q-18.43 0-29.95 11.52t-26.5 29.95-36.86 42.63-59.903 48.39q2.304-42.62 9.79-70.85t15.55-47.23q8.07-19.01 14.4-31.68t6.34-24.19q0-16.13-11.52-32.83t-38.014-16.7-38.012 16.71-11.52 32.84q0 11.52 6.335 24.19T178 668.62q7.49 19.01 14.975 47.23 7.49 28.23 9.795 70.85-38.02-24.19-59.91-48.38T106 695.68t-26.5-29.96-29.96-11.52q-24.19 0-36.29 15.552T1.16 702.58q0 16.128 6.91 25.92t17.28 15.554q8.064 4.6 20.736 5.18t33.408 4.03 50.69 12.097 70.27 28.23q-41.47 19.59-70.85 28.23t-50.11 12.1-33.985 4.04-21.32 5.19q-10.37 5.76-17.28 15.55T0 884.61q0 17.28 12.097 32.833T48.387 933q18.43 0 29.95-11.52t26.497-29.952 36.864-42.623 59.904-48.382q-2.304 42.623-9.216 70.85T177.41 918.6q-8.064 19.01-14.4 31.68t-6.338 24.192q0 16.123 11.52 32.83t38.014 16.7zm612.352 0q26.496 0 38.016-16.703 11.52-16.705 11.52-32.833 0-11.52-6.337-24.192t-13.83-31.68q-7.49-19.01-14.98-47.233-7.49-28.23-9.8-70.85 38.01 24.19 59.9 48.38t36.86 42.62 26.49 29.95 29.95 11.52q24.19 0 36.29-15.56 12.09-15.56 12.09-32.84 0-16.13-6.92-25.92t-17.28-15.56q-8.06-4.61-21.31-5.19t-33.99-4.03-50.11-12.09-69.7-28.23q40.32-19.59 69.7-28.23t50.115-12.09 33.986-4.037 21.32-5.183q10.37-5.76 17.28-15.56t6.916-25.92q0-17.28-12.094-32.833-12.095-15.55-36.29-15.55-18.43 0-29.95 11.52t-26.494 29.95-36.865 42.623-59.9 48.388q2.307-42.62 9.796-70.85t15.55-47.23q8.07-19.01 14.4-31.68t6.34-24.19q0-16.13-11.52-32.832t-38.01-16.7-38.01 16.71-11.52 32.835q0 11.52 6.333 24.19t13.823 31.68q7.49 19.01 14.98 47.24 7.49 28.223 9.8 70.85-38.02-24.195-59.907-48.387t-36.87-42.623-26.497-29.95-29.96-11.52q-24.19 0-36.29 15.55t-12.1 32.84q0 16.13 6.91 25.92t17.28 15.56q8.066 4.605 20.74 5.18t33.41 4.03 50.69 12.1 70.28 28.24q-41.47 19.587-70.85 28.23t-50.11 12.094-33.98 4.03-21.31 5.183q-10.37 5.76-17.28 15.552t-6.91 25.92q0 17.28 12.093 32.83t36.29 15.55q18.43 0 29.95-11.52t26.5-29.95 36.86-42.63 59.905-48.39q-2.31 42.62-9.22 70.85t-14.98 47.23q-8.07 19.01-14.4 31.68t-6.34 24.19q0 16.13 11.52 32.83 11.52 16.71 38.013 16.71z"></path></symbol><symbol id="at" viewBox="0 0 1024 1024"><path d="M955.008 768C998.88 692.64 1024 605.504 1024 512 1024 229.248 794.752 0 512 0S0 229.248 0 512s229.248 512 512 512c141.376 0 269.376-57.248 361.984-150.016L783.36 783.36C713.888 852.992 617.888 896 512 896c-211.744 0-384-172.256-384-384s172.256-384 384-384 384 172.256 384 384c0 45.504-8.736 88.992-23.36 129.504L871.616 640H768V257.376H512c-141.376 0-256 114.624-256 256s114.624 256 256 256c58.752 0 112.256-20.64 155.488-53.888C690.752 746.496 726.24 768 768 768h187.008zM640 448.256v65.12c0 70.624-57.504 128-128 128s-128-57.376-128-128 57.504-128 128-128h128v62.88z"></path></symbol><symbol id="badge" viewBox="0 0 1024 1024"><path d="M256 0c-47.146 0-85.334 38.186-85.334 85.334V298.88c0 29.866 12.374 56.982 32.214 76.374l92.8 92.8C232.106 526.528 192 610.56 192 704c0 176.64 143.36 320 320 320 176.618 0 320-143.36 320-320 0-93.44-40.106-177.472-103.658-235.968l92.8-92.8c19.84-19.392 32.214-46.506 32.214-76.374l-.002-213.524C853.354 38.188 815.168 0 768.02 0H256zm256 533.334c7.466 0 13.654 4.714 15.786 11.306L566.612 640h99.626c8.96 0 16.426 9.6 16.426 18.346 0 5.334-2.56 10.026-6.634 12.8l-83.84 56.96s26.88 101.334 27.754 104.32c.618 1.494.832 3.2.832 4.906 0 8.96-7.254 16-16.426 16-4.032 0-7.894-1.472-10.666-3.84L512 785.706l-81.706 63.786c-2.774 2.346-6.614 3.84-10.666 3.84-9.174 0-16.426-7.04-16.426-16 0-1.706.214-3.414.854-4.906.854-2.986 28.16-103.872 28.16-103.872l-84.266-57.386c-4.054-2.774-6.614-7.466-6.614-12.8 0-8.746 7.466-18.346 16.426-18.346h99.626l38.826-95.36c2.132-6.614 8.32-11.328 15.786-11.328zm-149.334-384v149.334c0 23.466-19.2 42.666-42.666 42.666s-42.666-19.2-42.666-42.666V149.334c0-23.466 19.2-42.666 42.666-42.666s42.666 19.198 42.666 42.666zm192 0v192C554.666 364.8 535.466 384 512 384s-42.666-19.2-42.666-42.666v-192c0-23.466 19.2-42.666 42.666-42.666 23.466-.002 42.666 19.198 42.666 42.666zm192 0v149.334c0 23.466-19.2 42.666-42.666 42.666s-42.666-19.2-42.666-42.666V149.334c0-23.466 19.2-42.666 42.666-42.666s42.666 19.198 42.666 42.666z"></path></symbol><symbol id="bars-progress" viewBox="0 0 512 512"><path d="M448 160H320V128H448v32zM48 64C21.5 64 0 85.5 0 112v64c0 26.5 21.5 48 48 48H464c26.5 0 48-21.5 48-48V112c0-26.5-21.5-48-48-48H48zM448 352v32H192V352H448zM48 288c-26.5 0-48 21.5-48 48v64c0 26.5 21.5 48 48 48H464c26.5 0 48-21.5 48-48V336c0-26.5-21.5-48-48-48H48z"></path></symbol><symbol id="bin" viewBox="0 0 1024 1024"><path d="M906.666 213.334H768v-128C768 38.188 729.814 0 682.666 0H341.334C294.188 0 256 38.186 256 85.334v128H117.334c-29.44 0-53.334 23.892-53.334 53.332S87.894 320 117.334 320h32v618.666c0 47.146 38.186 85.334 85.334 85.334h554.666c47.146 0 85.334-38.186 85.334-85.334L874.666 320h32c29.44 0 53.334-23.894 53.334-53.334s-23.894-53.332-53.334-53.332zm-245.332 0H362.666V153.6a46.8 46.8 0 0 1 46.934-46.934h204.8a46.8 46.8 0 0 1 46.934 46.934v59.734zM362.666 362.666v512c0 23.466-19.2 42.666-42.666 42.666s-42.666-19.2-42.666-42.666v-512C277.334 339.2 296.534 320 320 320s42.666 19.2 42.666 42.666zm192 0v512c0 23.466-19.2 42.666-42.666 42.666s-42.666-19.2-42.666-42.666v-512C469.334 339.2 488.534 320 512 320s42.666 19.2 42.666 42.666zm192 0v512c0 23.466-19.2 42.666-42.666 42.666s-42.666-19.2-42.666-42.666v-512C661.334 339.2 680.534 320 704 320s42.666 19.2 42.666 42.666z"></path></symbol><symbol id="birthday-cake" viewBox="0 0 1024 1024"><path d="M1024 804.57V1024H0V804.57q25.714 0 48.57-8t33.715-15.713 26.857-21.43q17.143-15.428 29.43-21.713t32.285-6.286 31.714 6.286 30 21.714q16.58 14.286 26.86 21.714t33.15 15.43 49.15 8q25.713 0 48.57-8.287t33.143-15.43 27.43-21.428q12-10.857 18.57-15.43t17.715-8.57 24.857-4q20 0 32.287 6.286t29.43 21.714q16 13.714 26.858 21.43t33.71 15.713 48.57 8 48.57-8 33.714-15.714 26.85-21.43q17.144-15.428 29.43-21.713t32.286-6.286q19.43 0 31.714 6.286t29.43 21.714q16 13.714 26.85 21.43t33.714 15.713 48.57 8zm0-182.856v109.714q-20 0-31.714-6.286t-30-21.714q-16.57-14.286-26.857-21.714t-33.15-15.43-48.57-8q-26.29 0-49.15 8t-33.145 15.43-26.858 21.714q-12.57 10.857-18.86 15.43t-17.71 8.57-25.14 4q-20 0-32.287-6.287t-29.43-21.71q-16.57-14.28-26.856-21.71t-33.143-15.43-49.14-8q-25.713 0-48.57 8.29T430.286 682t-27.43 21.43q-12 10.856-18.57 15.428t-17.714 8.57-24.85 4q-20 0-32.28-6.285T280 703.43q-16-13.715-26.857-21.43t-33.714-15.714-48.58-8q-26.29 0-49.15 8t-33.142 15.43-26.85 21.714q-17.143 15.424-29.43 21.71T0 731.43V621.714Q0 576 32 544t77.714-32h36.57V256H292.57v256h146.29V256h146.286v256H731.43V256h146.285v256h36.57Q960 512 992 544t32 77.715zM292.57 128q0 44-20.57 67.714t-52.57 23.714q-30.287 0-51.715-21.43t-21.43-51.713q0-16.57 5.43-29.143t13.43-19.43 17.713-16 17.714-18 13.43-25.428T219.43-.002q21.714 0 47.43 42.286t25.713 85.714zm292.573 0q0 44-20.57 67.714T512 219.428q-30.285 0-51.713-21.43t-21.43-51.713q0-16.57 5.43-29.143t13.43-19.43 17.713-16 17.714-18 13.43-25.428T512-.002q21.714 0 47.43 42.286t25.713 85.714zm292.57 0q0 44-20.57 67.714t-52.57 23.714q-30.287 0-51.715-21.43t-21.43-51.713q0-16.57 5.43-29.143t13.43-19.43 17.713-16 17.72-18 13.43-25.428 5.43-38.286q21.72 0 47.43 42.286t25.72 85.714z"></path></symbol><symbol id="book" viewBox="0 0 1024 1024"><path d="M512 192S384 64 0 64v768c388 0 512 128 512 128s124-128 512-128V64c-384 0-512 128-512 128zm-384 0c162.688 13.632 262.496 51.264 320 81.76v515.488c-57.504-30.368-157.312-68-320-81.76V192zm768 515.488c-162.752 13.76-262.496 51.328-320 81.76V273.76c57.504-30.496 157.248-68.128 320-81.76v515.488z"></path></symbol><symbol id="bookmark" viewBox="0 0 1024 1024"><path d="M192 0v1024l320-320 320 320V0z"></path></symbol><symbol id="border-none" viewBox="0 0 448 512"><!--! Font Awesome Pro 6.3.0 by @fontawesome - https://fontawesome.com License - https://fontawesome.com/license (Commercial License) Copyright 2023 Fonticons, Inc.--><path d="M32 416a32 32 0 1 0 0 64 32 32 0 1 0 0-64zm96 64a32 32 0 1 0 0-64 32 32 0 1 0 0 64zm0-384a32 32 0 1 0 0-64 32 32 0 1 0 0 64zm0 128a32 32 0 1 0 0 64 32 32 0 1 0 0-64zM320 480a32 32 0 1 0 0-64 32 32 0 1 0 0 64zm0-448a32 32 0 1 0 0 64 32 32 0 1 0 0-64zm0 256a32 32 0 1 0 0-64 32 32 0 1 0 0 64zM224 416a32 32 0 1 0 0 64 32 32 0 1 0 0-64zm0-320a32 32 0 1 0 0-64 32 32 0 1 0 0 64zm0 128a32 32 0 1 0 0 64 32 32 0 1 0 0-64zM416 480a32 32 0 1 0 0-64 32 32 0 1 0 0 64zm0-384a32 32 0 1 0 0-64 32 32 0 1 0 0 64zM32 32a32 32 0 1 0 0 64 32 32 0 1 0 0-64zM416 288a32 32 0 1 0 0-64 32 32 0 1 0 0 64zM32 224a32 32 0 1 0 0 64 32 32 0 1 0 0-64zM224 384a32 32 0 1 0 0-64 32 32 0 1 0 0 64zm192-64a32 32 0 1 0 0 64 32 32 0 1 0 0-64zM32 384a32 32 0 1 0 0-64 32 32 0 1 0 0 64zM416 128a32 32 0 1 0 0 64 32 32 0 1 0 0-64zM32 192a32 32 0 1 0 0-64 32 32 0 1 0 0 64zm192-64a32 32 0 1 0 0 64 32 32 0 1 0 0-64z"></path></symbol><symbol id="bubbles" viewBox="0 0 1152 1024"><path d="M480 0c265.096 0 480 173.914 480 388.448S745.096 776.896 480 776.896a595.29 595.29 0 0 1-74.834-4.71C302.06 874.88 182.994 893.294 64 896v-25.134c64.252-31.354 116-88.466 116-153.734 0-9.106-.712-18.048-2.03-26.794C69.412 619.124 0 510.35 0 388.448 0 173.914 214.904 0 480 0zm516 870.686c0 55.942 36.314 104.898 92 131.772V1024c-103.126-2.318-197.786-18.102-287.142-106.126a521.363 521.363 0 0 1-64.858 4.04c-95.47 0-183.408-25.758-253.614-69.04 144.674-.506 281.26-46.854 384.834-130.672 52.208-42.252 93.394-91.826 122.414-147.348C1020.4 515.988 1036 453.272 1036 388.448c0-10.448-.45-20.836-1.258-31.168C1107.312 417.214 1152 498.902 1152 588.956c0 104.488-60.158 197.722-154.24 258.764a152.354 152.354 0 0 0-1.76 22.966z"></path></symbol><symbol id="bubbles2" viewBox="0 0 1024 1024"><path d="M957.066 822.462c0 39.555 22.615 73.797 55.634 90.57v13.854c-9.236 1.252-18.665 1.947-28.262 1.947-59.11 0-112.435-24.812-150.154-64.563-22.782 6.065-46.954 9.346-71.962 9.346-138.276 0-250.35-99.64-250.35-222.533S624.047 428.55 762.322 428.55s250.35 99.64 250.35 222.533c0 48.123-17.19 92.658-46.37 129.07a101.1 101.1 0 0 0-9.262 42.336zm-500.7-783.345c242.06 0 438.974 156.997 444.927 352.492-42.754-19.057-90.043-29.127-138.944-29.127-83.064 0-161.534 29.068-220.92 81.864-61.59 54.742-95.497 128.15-95.497 206.732 0 38.832 8.29 76.41 24.117 111.07l-13.685.196a546.885 546.885 0 0 1-69.403-4.396c-95.606 95.607-209.71 112.74-320.03 115.273V849.83c59.583-29.18 111.266-82.366 111.266-143.117 0-8.484-.67-16.8-1.892-24.952-100.67-66.285-165.01-167.565-165.01-281.03C11.3 201.01 210.55 39.117 456.366 39.117z"></path></symbol><symbol id="calendar" viewBox="0 0 1024 1024"><path d="M832 128v65.504c0 70.752-57.248 128-128 128s-128-57.248-128-128V128H448v65.504c0 70.752-57.248 128-128 128s-128-57.248-128-128V128H0v896h1024V128H832zM320 896H192V768h128v128zm0-256H192V512h128v128zm256 256H448V768h128v128zm0-256H448V512h128v128zm128 256V768h128L704 896zm128-256H704V512h128v128zM256 192V64c0-35.36 28.64-64 64-64s64 28.64 64 64v128c0 35.36-28.64 64-64 64s-64-28.64-64-64zm384 0V64c0-35.36 28.64-64 64-64s64 28.64 64 64v128c0 35.36-28.64 64-64 64s-64-28.64-64-64z"></path></symbol><symbol id="check2" viewBox="0 0 512 512"><path d="M470.6 105.4c12.5 12.5 12.5 32.8 0 45.3l-256 256c-12.5 12.5-32.8 12.5-45.3 0l-128-128c-12.5-12.5-12.5-32.8 0-45.3s32.8-12.5 45.3 0L192 338.7 425.4 105.4c12.5-12.5 32.8-12.5 45.3 0z"></path></symbol><symbol id="checkmark-hollow" viewBox="0 0 1024 1024"><path d="M397.44 917.696L-.416 526.08 196.96 331.808l200.48 197.344 429.632-422.848 197.376 194.272-627.008 617.12zM107.904 526.112l289.536 284.96 518.656-510.496-89.024-87.648L397.44 635.776 196.96 438.432l-89.024 87.648z"></path></symbol><symbol id="checkmark" viewBox="0 0 1024 1024"><path d="M864 128L384 608 160 384 0 544l384 384 640-640z"></path></symbol><symbol id="chevron-right" viewBox="0 0 1024 1024"><path d="M345.786 13.355l-117.6 117.6 381.05 381.05-381.05 381.052 117.6 117.6L844.43 512.012z"></path></symbol><symbol id="code" viewBox="0 0 1024 1024"><path d="M292.813 755.2c-12.083 0-24.27-4.25-33.997-12.902L-.256 512l273.46-243.098c21.093-18.688 53.452-16.896 72.242 4.25s16.896 53.504-4.25 72.294L153.856 512 326.81 665.702c21.144 18.79 23.04 51.15 4.25 72.294-10.09 11.418-24.17 17.204-38.25 17.204zm457.984-.102L1024.257 512 765.183 281.702c-21.146-18.79-53.504-16.896-72.243 4.25-18.79 21.146-16.895 53.504 4.25 72.294L870.146 512l-187.34 166.502c-21.147 18.79-23.04 51.15-4.25 72.294C688.64 762.214 702.72 768 716.8 768c12.083 0 24.27-4.25 33.997-12.903zm-239.514 72.55l102.4-614.4c4.66-27.904-14.182-54.272-42.086-58.93-28.006-4.71-54.323 14.18-58.88 42.085l-102.4 614.4c-4.66 27.904 14.182 54.272 42.086 58.93 2.867.462 5.632.667 8.448.667 24.58 0 46.29-17.766 50.436-42.752z"></path></symbol><symbol id="cogwheel" viewBox="0 0 1024 1024"><path d="M919.636 368.56c-32.855 0-55.838-8.145-61.497-21.783-5.657-13.634 4.813-35.626 27.994-58.834l70.607-70.607L784.773 45.43l-70.55 70.552C688.51 141.688 671.3 145.53 663.33 145.53c-5.877 0-10.547-1.93-14.693-6.088-5.62-5.636-15.036-20.503-14.96-56.81l-.12-2.046v-97.782H390.475v100.04c-.043 14.67-2.318 62.696-29.85 62.696-7.96 0-25.144-3.84-50.845-29.554l-70.59-70.553L67.286 217.335l70.542 70.607c23.207 23.197 33.688 45.184 28.04 58.828-5.65 13.64-28.608 21.79-61.413 21.79H4.625v243.175h99.832c32.8 0 55.756 8.146 61.41 21.784 5.656 13.65-4.824 35.66-28.033 58.88l-70.548 70.55L239.198 934.93l70.586-70.618c25.686-25.674 42.876-29.51 50.83-29.51 27.546 0 29.82 47.995 29.864 62.702V997.55h243.087v-97.776l.12-2.024c-.075-36.323 9.34-51.19 14.96-56.82 4.152-4.163 8.827-6.1 14.71-6.1 7.97 0 25.182 3.83 50.89 29.49l70.53 70.607L956.75 762.95l-70.618-70.557c-23.176-23.22-33.645-45.24-27.988-58.877s28.642-21.78 61.492-21.78h99.735V368.563h-99.74zM741.138 490.178c0 126.347-102.79 229.138-229.138 229.138s-229.138-102.79-229.138-229.138S385.652 261.04 512 261.04s229.138 102.79 229.138 229.137z"></path></symbol><symbol id="cogwheel2" viewBox="0 0 1024 1024"><path d="M930.88 512c0-10.453-.81-20.715-1.568-30.987 40.98-13.11 73.29-25.62 94.22-36.78l-7.51-42.27c-23.488-3.382-58.123-4.172-101.11-2.582-5.695-20.11-12.81-39.58-21.343-58.33 33.93-26.19 59.94-48.89 75.74-66.45l-21.62-37.16c-23.26 4.79-56.1 15.82-95.97 31.92-12.23-16.83-25.51-32.82-40.05-47.63 22.83-36.11 39.45-66.26 48.23-88.11L826.77 106c-20.14 12.362-47.114 33.802-78.922 62.346-17.182-11.648-35.465-21.717-54.345-30.763C702.55 95.8 707.787 61.773 708.5 38.21l-40.63-14.67c-14.706 18.51-32.72 47.927-52.86 85.71-20.045-5.045-40.48-9.088-61.56-11.147-5.876-42.154-12.65-75.786-20.074-98.1h-43.243c-7.413 22.315-14.197 55.947-20.085 98.09-21.08 2.06-41.517 6.102-61.55 11.148-20.14-37.78-38.154-67.2-52.863-85.7L315.007 38.2c.706 23.552 5.965 57.59 15 99.37-18.89 9.046-37.164 19.116-54.348 30.764-31.82-28.544-58.8-49.995-78.94-62.347L163.6 133.57c8.79 21.86 25.41 52 48.246 88.12-14.56 14.817-27.84 30.806-40.053 47.638-39.883-16.096-72.725-27.125-95.98-31.915L54.21 274.57c15.787 17.558 41.803 40.257 75.744 66.454-8.544 18.752-15.66 38.22-21.344 58.336-42.987-1.58-77.62-.8-101.11 2.58L0 444.225c20.917 11.157 53.227 23.67 94.208 36.78-.757 10.282-1.568 20.543-1.568 30.996s.81 20.72 1.568 30.98c-40.98 13.13-73.29 25.63-94.208 36.8l7.5 42.27c23.487 3.38 58.122 4.17 101.108 2.58 5.685 20.12 12.8 39.59 21.344 58.34-33.94 26.2-59.947 48.89-75.744 66.46l21.61 37.16c23.254-4.78 56.097-15.81 95.98-31.91 12.213 16.84 25.493 32.81 40.053 47.63-22.84 36.13-39.45 66.28-48.24 88.14l33.12 27.58c20.15-12.35 47.13-33.79 78.94-62.35 17.18 11.66 35.46 21.72 54.35 30.76-9.04 41.79-14.29 75.81-14.99 99.36l40.63 14.68c14.71-18.49 32.73-47.91 52.86-85.7 20.04 5.06 40.47 9.1 61.55 11.16 5.89 42.16 12.67 75.78 20.09 98.09h43.24c7.43-22.31 14.2-55.93 20.09-98.09 21.077-2.06 41.515-6.1 61.557-11.15 20.14 37.794 38.16 67.213 52.868 85.71l40.63-14.678c-.713-23.55-5.96-57.58-14.995-99.36 18.88-9.047 37.15-19.106 54.35-30.765 31.806 28.557 58.793 49.997 78.92 62.35l33.12-27.57c-8.78-21.865-25.41-52.01-48.236-88.14 14.55-14.813 27.83-30.79 40.057-47.624 39.87 16.095 72.717 27.124 95.97 31.914l21.625-37.164c-15.79-17.57-41.813-40.26-75.744-66.456 8.53-18.75 15.65-38.22 21.34-58.332 42.97 1.58 77.61.8 101.11-2.58l7.505-42.273c-20.93-11.17-53.237-23.67-94.22-36.79.748-10.27 1.57-20.536 1.57-30.99zM671.34 263.104c25.172-24.992 66.004-24.992 91.178 0 25.184 24.992 25.184 65.515 0 90.507-25.173 25.01-66.005 25.01-91.18 0-25.183-24.99-25.183-65.51 0-90.5zM511.764 160c35.616 0 64.48 28.66 64.48 64s-28.864 64-64.48 64-64.48-28.66-64.48-64 28.864-64 64.48-64zM260.992 263.104c25.173-24.992 66.005-24.992 91.19 0s25.172 65.515 0 90.507c-25.174 25.01-66.006 25.01-91.19 0-25.184-24.99-25.184-65.51 0-90.5zM157.11 512c0-35.35 28.863-64 64.48-64s64.48 28.65 64.48 64-28.865 64-64.48 64-64.48-28.65-64.48-64zm195.07 248.896c-25.172 25.003-66.004 25.003-91.188 0-25.173-24.992-25.173-65.515 0-90.496 25.173-25.003 66.005-25.003 91.19 0 25.172 24.98 25.183 65.504 0 90.496zM511.766 864c-35.616 0-64.48-28.66-64.48-64 0-35.35 28.864-64 64.48-64s64.48 28.65 64.48 64c-.01 35.34-28.875 64-64.48 64zm0-192c-89.035 0-161.205-71.637-161.205-160s72.18-160 161.21-160 161.19 71.637 161.19 160-72.17 160-161.19 160zm250.752 88.896c-25.173 25.003-66.005 25.003-91.18 0-25.183-24.992-25.183-65.515 0-90.496 25.174-25.003 66.006-25.003 91.18 0 25.195 24.98 25.195 65.504 0 90.496zM801.92 576c-35.605 0-64.48-28.65-64.48-64s28.875-64 64.48-64c35.616 0 64.48 28.65 64.48 64s-28.864 64-64.48 64z"></path></symbol><symbol id="cogwheel3" viewBox="0 0 1024 1024"><path d="M931.317 512c0-10.485-.81-20.768-1.568-31.06 40.94-13.09 73.37-25.57 94.26-36.705l-7.51-42.272c-23.45-3.37-58.2-4.107-101.13-2.517-5.71-20.16-12.84-39.67-21.41-58.453 33.91-26.155 60.04-48.853 75.79-66.4l-21.62-37.163c-23.21 4.79-56.14 15.904-95.97 31.98-12.25-16.876-25.57-32.897-40.17-47.745 22.82-36.064 39.54-66.25 48.31-88.075l-33.13-27.584c-20.12 12.34-47.14 33.867-78.92 62.39-17.22-11.68-35.54-21.772-54.48-30.838 9.04-41.728 14.35-75.82 15.07-99.34L668.2 23.553c-14.688 18.464-32.704 47.99-52.82 85.717-20.097-5.068-40.588-9.11-61.708-11.17-5.9-42.11-12.63-75.828-20.053-98.1h-43.26c-7.42 22.272-14.16 55.99-20.04 98.09-21.12 2.07-41.62 6.113-61.71 11.17-20.12-37.73-38.137-67.254-52.82-85.718L315.15 38.21c.704 23.52 6.027 57.61 15.07 99.338-18.93 9.067-37.26 19.157-54.483 30.837-31.774-28.523-58.803-50.048-78.91-62.39L163.7 133.58c8.756 21.813 25.492 52 48.308 88.075-14.592 14.848-27.915 30.87-40.17 47.744-39.83-16.08-72.758-27.19-95.97-31.98l-21.63 37.16c15.775 17.54 41.898 40.23 75.796 66.4-8.565 18.79-15.69 38.3-21.397 58.45-42.944-1.58-77.685-.86-101.13 2.51l-7.51 42.27c20.885 11.13 53.312 23.62 94.26 36.7-.767 10.3-1.588 20.583-1.588 31.07 0 10.473.81 20.77 1.57 31.06-40.94 13.09-73.37 25.57-94.25 36.714l7.51 42.28c23.44 3.37 58.18 4.105 101.13 2.515 5.71 20.16 12.83 39.67 21.4 58.453-33.91 26.15-60.03 48.85-75.8 66.4l21.633 37.17c23.21-4.78 56.137-15.9 95.966-31.98 12.245 16.87 25.57 32.9 40.17 47.75-22.836 36.06-39.55 66.25-48.308 88.07L196.83 918c20.11-12.33 47.13-33.876 78.91-62.39 17.22 11.68 35.55 21.76 54.48 30.84-9.05 41.717-14.37 75.82-15.07 99.33l40.65 14.68c14.69-18.466 32.7-47.99 52.82-85.73 20.08 5.07 40.583 9.11 61.703 11.19 5.877 42.09 12.62 75.81 20.032 98.08h43.252c7.41-22.27 14.153-55.99 20.03-98.08 21.12-2.07 41.61-6.12 61.707-11.19 20.108 37.74 38.134 67.264 52.82 85.73l40.653-14.68c-.714-23.51-6.026-57.61-15.07-99.33 18.934-9.075 37.26-19.155 54.486-30.835 31.774 28.51 58.803 50.046 78.91 62.39l33.13-27.576c-8.767-21.83-25.49-52.01-48.308-88.08 14.59-14.85 27.914-30.88 40.17-47.76 39.83 16.09 72.757 27.2 95.97 31.98l21.62-37.16c-15.766-17.55-41.9-40.236-75.798-66.4 8.577-18.796 15.7-38.305 21.41-58.454 42.933 1.58 77.685.853 101.13-2.517l7.52-42.277c-20.884-11.145-53.31-23.625-94.26-36.7.757-10.3 1.58-20.595 1.58-31.07zM544 194.603c0-18.07 16.597-31.563 34.347-28.17 79.243 15.124 148.97 56.852 199.712 115.508 11.78 13.64 8.29 34.72-7.32 43.74l-6.94 4c-11.69 6.75-26.13 3.62-34.99-6.56-41.07-47.11-97.05-80.82-160.64-93.47-13.8-2.77-24.18-14.15-24.18-28.24v-6.8zM245.94 281.94c50.753-58.666 120.48-100.372 199.724-115.508 17.728-3.392 34.336 10.1 34.336 28.17v6.817c0 14.09-10.38 25.47-24.192 28.22-63.584 12.65-119.573 46.37-160.63 93.48-8.863 10.17-23.306 13.3-34.986 6.55l-6.944-4c-15.605-9.02-19.093-30.1-7.307-43.74zm-19.775 358.145l-4.95 2.86c-15.572 8.98-35.53 1.556-41.492-15.404C167.04 591.35 160 552.53 160 512c0-40.533 7.04-79.34 19.733-115.53 5.963-16.972 25.92-24.396 41.493-15.404l4.95 2.86c11.967 6.91 18.143 21.332 13.61 34.4A285.29 285.29 0 0 0 224 512c0 32.81 5.6 64.3 15.775 93.685 4.533 13.067-1.643 27.477-13.61 34.4zM480 829.397c0 18.06-16.608 31.563-34.347 28.18-79.243-15.135-148.97-56.852-199.723-115.508-11.776-13.64-8.288-34.72 7.317-43.74l6.944-4.01c11.7-6.74 26.13-3.62 34.99 6.56 41.06 47.11 97.05 80.83 160.63 93.49 13.81 2.74 24.19 14.13 24.19 28.21v6.81zm32-135.06c-100.693 0-182.336-81.633-182.336-182.337S411.307 329.664 512 329.664 694.336 411.307 694.336 512 612.693 694.336 512 694.336zm266.048 47.722c-50.74 58.65-120.47 100.37-199.712 115.5-17.74 3.39-34.336-10.11-34.336-28.17v-6.82c0-14.08 10.38-25.46 24.18-28.22 63.596-12.66 119.574-46.38 160.64-93.495 8.865-10.176 23.308-13.3 34.988-6.55l6.944 4c15.605 9.014 19.093 30.102 7.296 43.734zm66.208-114.53c-5.952 16.97-25.91 24.38-41.483 15.4l-4.95-2.86c-11.967-6.91-18.143-21.33-13.62-34.4C794.4 576.3 800 544.81 800 512s-5.6-64.3-15.787-93.685c-4.523-13.067 1.653-27.477 13.62-34.4l4.95-2.86c15.573-8.99 35.53-1.556 41.483 15.404C856.96 432.66 864 471.46 864 512c0 40.523-7.04 79.35-19.745 115.53z"></path></symbol><symbol id="compact-disc" viewBox="0 0 512 512"><path d="M512 256c0 141.4-114.6 256-256 256S0 397.4 0 256S114.6 0 256 0S512 114.6 512 256zM256 224c17.7 0 32 14.3 32 32s-14.3 32-32 32s-32-14.3-32-32s14.3-32 32-32zm-96 32c0 53 43 96 96 96s96-43 96-96s-43-96-96-96s-96 43-96 96zM96 240c0-35 17.5-71.1 45.2-98.8S205 96 240 96c8.8 0 16-7.2 16-16s-7.2-16-16-16c-45.4 0-89.2 22.3-121.5 54.5S64 194.6 64 240c0 8.8 7.2 16 16 16s16-7.2 16-16z"></path></symbol><symbol id="control-eject" viewBox="0 0 1024 1024"><path d="M114.842 611.29L512 114.84l397.158 496.45zm0 99.29h793.25v198.578H114.84z"></path></symbol><symbol id="control-fast-next" viewBox="0 0 1024 1024"><path d="M512 512.002L-2.535 867.686V156.313L512 512zm0-355.688V867.69l514.535-355.685L512 156.313z"></path></symbol><symbol id="control-fast-prev" viewBox="0 0 1024 1024"><path d="M512 512.002l514.535 355.684V156.313L512 512zm0-355.688V867.69L-2.535 512.004 512 156.313z"></path></symbol><symbol id="control-next" viewBox="0 0 1024 1024"><path d="M114.842 114.842L710.58 512 114.842 909.158zm595.737 99.29h198.578v595.74h-198.58z"></path></symbol><symbol id="control-next2" viewBox="0 0 1024 1024"><path d="M573.52 512.002L-2.534 910.216v-796.43L573.52 512.004zM450.48 113.784v177.18c165.352 114.308 319.75 221.04 319.75 221.04L450.48 733.036v177.177L1026.534 512 450.48 113.782z"></path></symbol><symbol id="control-pause" viewBox="0 0 1024 1024"><path d="M214.133 114.842h198.58v794.316h-198.58zm397.156 0h198.578v794.316h-198.58z"></path></symbol><symbol id="control-play" viewBox="0 0 1024 1024"><path d="M204.524 102.03L819.48 512 204.523 921.97z"></path></symbol><symbol id="control-prev" viewBox="0 0 1024 1024"><path d="M909.158 909.158L313.42 512l595.738-397.158zM114.842 214.133h198.58V809.87H114.84z"></path></symbol><symbol id="control-prev2" viewBox="0 0 1024 1024"><path d="M450.48 512.002l576.055 398.214v-796.43L450.48 512.004zm123.04-398.218v177.18c-165.352 114.308-319.75 221.04-319.75 221.04l319.75 221.033v177.177L-2.534 512 573.52 113.782z"></path></symbol><symbol id="control-stop" viewBox="0 0 1024 1024"><path d="M127.253 127.253h769.494v769.494H127.253z"></path></symbol><symbol id="copy" viewBox="0 0 1024 1024"><path fill="currentColor" d="M 990.248 140.728 L 871.854 39.446 C 851.312 21.872 823.452 12 794.401 12 L 401.63 12 C 341.134 12 292.094 53.952 292.094 105.704 L 292.094 199.409 L 109.535 199.409 C 49.04 199.409 0 241.361 0 293.113 L 0 917.809 C 0 969.561 49.04 1011.513 109.535 1011.513 L 620.701 1011.513 C 681.196 1011.513 730.236 969.561 730.236 917.809 L 730.236 824.104 L 912.795 824.104 C 973.291 824.104 1022.33 782.152 1022.33 730.4 L 1022.33 206.987 C 1022.33 182.135 1010.79 158.301 990.248 140.728 Z M 607.009 917.809 L 123.227 917.809 C 115.665 917.809 109.535 912.565 109.535 906.096 L 109.535 304.826 C 109.535 298.357 115.665 293.113 123.227 293.113 L 292.094 293.113 L 292.094 730.4 C 292.094 782.152 341.134 824.104 401.63 824.104 L 620.701 824.104 L 620.701 906.096 C 620.701 912.565 614.571 917.809 607.009 917.809 Z M 899.103 730.4 L 415.322 730.4 C 407.76 730.4 401.63 725.156 401.63 718.687 L 401.63 117.417 C 401.63 110.948 407.76 105.704 415.322 105.704 L 657.212 105.704 L 657.212 277.496 C 657.212 303.372 681.732 324.348 711.98 324.348 L 912.795 324.348 L 912.795 718.687 C 912.795 725.156 906.665 730.4 899.103 730.4 Z M 912.795 230.643 L 766.748 230.643 L 766.748 105.704 L 788.728 105.704 C 792.359 105.704 795.841 106.938 798.41 109.134 L 908.786 203.557 C 911.353 205.754 912.796 208.734 912.795 211.84 L 912.795 230.643 Z"></path></symbol><symbol id="copy2" viewBox="0 0 1024 1024"><path d="M 399.026 0 C 367.635 0 342.188 25.447 342.188 56.838 L 342.188 227.351 L 455.864 227.351 L 455.864 113.676 L 853.728 113.676 L 853.728 568.377 L 796.89 568.377 L 796.89 682.053 L 910.565 682.053 C 941.956 682.053 967.403 656.605 967.403 625.215 L 967.403 56.838 C 967.403 25.447 941.956 0 910.565 0 L 399.026 0 Z"></path><path d="M 58 397.864 C 58 366.473 83.447 341.026 114.838 341.026 L 626.377 341.026 C 657.767 341.026 683.215 366.473 683.215 397.864 L 683.215 966.24 C 683.215 997.631 657.767 1023.078 626.377 1023.078 L 114.838 1023.078 C 83.447 1023.078 58 997.631 58 966.24 L 58 397.864 Z M 171.676 454.701 L 171.676 909.403 L 569.539 909.403 L 569.539 454.701 L 171.676 454.701 Z"></path></symbol><symbol id="crop" viewBox="0 0 1024 1024"><path d="M832 256l192-192-64-64-192 192H320V0H192v192H0v128h192v512h512v192h128V832h192V704H832V256zm-512 64h320L320 640V320zm64 384l320-320v320H384z"></path></symbol><symbol id="download2" viewBox="0 0 1024 1024"><path d="M832 64H192L0 256v672c0 17.674 14.326 32 32 32h960c17.672 0 32-14.326 32-32V256L832 64zM512 832L192 576h192V384h256v192h192L512 832zM154.51 192l64-64h586.978l64 64H154.51z"></path></symbol><symbol id="ellipsis-vertical" viewBox="0 0 128 512"><path d="M64 360c30.9 0 56 25.1 56 56s-25.1 56-56 56s-56-25.1-56-56s25.1-56 56-56zm0-160c30.9 0 56 25.1 56 56s-25.1 56-56 56s-56-25.1-56-56s25.1-56 56-56zM120 96c0 30.9-25.1 56-56 56S8 126.9 8 96S33.1 40 64 40s56 25.1 56 56z"></path></symbol><symbol id="ellipsis" viewBox="0 0 448 512"><path d="M120 256c0 30.9-25.1 56-56 56s-56-25.1-56-56s25.1-56 56-56s56 25.1 56 56zm160 0c0 30.9-25.1 56-56 56s-56-25.1-56-56s25.1-56 56-56s56 25.1 56 56zm104 56c-30.9 0-56-25.1-56-56s25.1-56 56-56s56 25.1 56 56s-25.1 56-56 56z"></path></symbol><symbol id="enlarge-diagonal" viewBox="0 0 1024 1024"><path d="M1024 0v416L864 256 672 448l-96-96 192-192L608 0zM448 672L256 864l160 160H0V608l160 160 192-192z"></path></symbol><symbol id="enlarge" viewBox="0 0 1024 1024"><path d="M1024 0H608l160 160-192 192 96 96 192-192 160 160zm0 1024V608L864 768 672 576l-96 96 192 192-160 160zM0 1024h416L256 864l192-192-96-96-192 192L0 608zM0 0v416l160-160 192 192 96-96-192-192L416 0z"></path></symbol><symbol id="external-link" viewBox="0 0 448 512"><path d="M288 32c-12.9 0-24.6 7.8-29.6 19.8s-2.2 25.7 6.9 34.9L306.7 128 169.4 265.4c-12.5 12.5-12.5 32.8 0 45.3s32.8 12.5 45.3 0L352 173.3l41.4 41.4c9.2 9.2 22.9 11.9 34.9 6.9s19.8-16.6 19.8-29.6V64c0-17.7-14.3-32-32-32H288zM80 64C35.8 64 0 99.8 0 144V400c0 44.2 35.8 80 80 80H336c44.2 0 80-35.8 80-80V320c0-17.7-14.3-32-32-32s-32 14.3-32 32v80c0 8.8-7.2 16-16 16H80c-8.8 0-16-7.2-16-16V144c0-8.8 7.2-16 16-16h80c17.7 0 32-14.3 32-32s-14.3-32-32-32H80z"></path></symbol><symbol id="eye-blocked" viewBox="0 0 1024 1024"><path d="M848.415 35.703L675.896 208.222C623.958 192.468 568.948 184 512 184 288.682 184 95.118 314.042 0 504c41.122 82.124 100.648 153.04 173.022 207.096L14.06 870.058l67.882 67.884 835.441-835.441zM416 312c42.24 0 78.082 27.294 90.92 65.196L385.196 498.92C347.294 486.082 320 450.24 320 408c0-53.02 42.98-96 96-96zM110.116 504c38.292-60.524 89.274-111.924 149.434-150.296 3.918-2.5 7.876-4.922 11.862-7.3C261.45 373.732 256 403.226 256 434c0 54.89 17.286 105.738 46.7 147.418l-60.924 60.924C189.33 605.5 144.574 558.46 110.116 504zM768 434c0-27.166-4.256-53.334-12.102-77.898L434.09 677.91C458.658 685.752 484.832 690 512 690c141.382 0 256-114.618 256-256zm62.026-152.026l-69.362 69.362c1.264.786 2.53 1.568 3.786 2.368C824.612 392.078 875.592 443.478 913.884 504c-38.292 60.522-89.274 111.922-149.436 150.296C688.854 702.514 601.558 728 512 728a468.97 468.97 0 0 1-113.962-14.04l-76.894 76.894C380.862 812.316 445.094 824 512 824c223.31 0 416.876-130.042 512-320-45.022-89.916-112.118-166.396-193.974-222.026z"></path></symbol><symbol id="eye" viewBox="0 0 1024 1024"><path d="M512 184C288.682 184 95.118 314.042 0 504c95.118 189.958 288.682 320 512 320 223.312 0 416.876-130.042 512-320-95.116-189.958-288.688-320-512-320zm252.45 169.704C824.612 392.078 875.592 443.478 913.884 504c-38.292 60.522-89.274 111.922-149.436 150.296C688.854 702.514 601.558 728 512 728c-89.56 0-176.858-25.486-252.452-73.704C199.39 615.924 148.41 564.524 110.116 504c38.292-60.524 89.274-111.924 149.434-150.296 3.918-2.5 7.876-4.922 11.86-7.3C261.45 373.732 256 403.226 256 434c0 141.382 114.616 256 256 256 141.384 0 256-114.618 256-256 0-30.774-5.452-60.268-15.408-87.598a481.379 481.379 0 0 1 11.858 7.302zM512 408c0 53.02-42.98 96-96 96s-96-42.98-96-96 42.98-96 96-96 96 42.982 96 96z"></path></symbol><symbol id="female" viewBox="0 0 320 512"><path d="M160 96c-26.5 0-48-21.5-48-48s21.5-48 48-48s48 21.5 48 48s-21.5 48-48 48zM88 384H70.2c-10.9 0-18.6-10.7-15.2-21.1L93.3 248.1 59.4 304.5c-9.1 15.1-28.8 20-43.9 10.9s-20-28.8-10.9-43.9l53.6-89.2c20.3-33.7 56.7-54.3 96-54.3h11.6c39.3 0 75.7 20.6 96 54.3l53.6 89.2c9.1 15.1 4.2 34.8-10.9 43.9s-34.8 4.2-43.9-10.9l-33.9-56.3L265 362.9c3.5 10.4-4.3 21.1-15.2 21.1H232v96c0 17.7-14.3 32-32 32s-32-14.3-32-32V384H152v96c0 17.7-14.3 32-32 32s-32-14.3-32-32V384z"></path></symbol><symbol id="flake" viewBox="0 0 1024 1024"><path d="M309.344 522.72c0 21.344 3.424 42.016 9.376 61.248l-87.04 50.144L76.8 592.736c-27.936-7.456-56.736 9.184-64.416 36.896-7.456 27.968 9.184 56.544 37.344 64l125.216 33.504-33.696 124.576c-7.456 27.744 9.184 56.544 37.12 64 28.16 7.456 56.96-9.184 64.416-37.088l41.376-154.048 91.104-52.288c23.68 21.536 52.48 37.792 84.256 46.336v117.344l-113.504 95.744c-20.48 21.12-20.48 55.264 0 76.576 20.48 21.12 53.76 21.12 74.24 0L512 913.6l91.744 94.688c20.48 21.12 53.76 21.12 74.208 0 20.512-21.344 20.512-55.456 0-76.576L564.48 835.968V718.624c31.776-8.544 60.576-24.8 84.256-46.336l91.104 52.288 41.376 154.048c7.456 27.936 36.256 44.544 64.416 37.088 27.968-7.456 44.608-36.256 37.12-64l-33.696-124.576 125.216-33.504c28.16-7.456 44.8-36.032 37.344-64-7.648-27.712-36.48-44.32-64.416-36.896l-154.912 41.376-87.008-50.144c5.952-19.2 9.376-39.904 9.376-61.248s-3.424-42.016-9.376-61.44l87.008-49.92L947.2 452.736c27.936 7.456 56.736-9.184 64.416-36.896 7.456-27.936-9.184-56.544-37.344-64l-125.216-33.504 33.696-124.576c7.488-27.744-9.184-56.512-37.12-64-28.16-7.456-56.96 9.184-64.416 37.12L739.84 320.896l-91.104 52.256c-23.68-21.536-52.48-37.76-84.256-46.304v-96l113.472-117.12c20.512-21.12 20.512-55.264 0-76.576-20.48-21.12-53.76-21.12-74.208 0L512 131.904l-91.744-94.72c-20.48-21.12-53.76-21.12-74.24 0-20.48 21.344-20.48 55.456 0 76.576L459.52 230.88v96c-31.776 8.544-60.576 24.736-84.256 46.304l-91.104-52.256-41.376-154.016c-7.456-27.968-36.256-44.576-64.416-37.12-27.936 7.488-44.576 36.256-37.12 64l33.696 124.576-125.216 33.504c-28.16 7.456-44.8 36.064-37.344 64 7.68 27.744 36.48 44.384 64.416 36.896l154.88-41.376 87.04 49.92c-5.984 19.424-9.376 40.096-9.376 61.408zm202.656 96c-53.12 0-96-42.88-96-96s42.88-96 96-96 96 42.88 96 96-42.88 96-96 96z"></path></symbol><symbol id="flame" viewBox="0 0 1024 1024"><path d="M433 45c50 134 24 207-32 265-61 64-156 112-223 206C89 641 74 916 395 988c-135-71-164-277-18-406-38 125 32 205 119 176 85-29 141 32 139 102-1 48-20 89-69 112 209-37 293-210 293-342 0-174-155-198-77-344-93 8-125 69-116 169 6 66-63 111-114 81-41-25-40-73-4-109 77-76 107-251-115-382z"></path></symbol><symbol id="folder-closed" viewBox="0 0 512 512"><path d="M448 480H64c-35.3 0-64-28.7-64-64V192H512V416c0 35.3-28.7 64-64 64zm64-320H0V96C0 60.7 28.7 32 64 32H181.5c17 0 33.3 6.7 45.3 18.7l26.5 26.5c12 12 28.3 18.7 45.3 18.7H448c35.3 0 64 28.7 64 64z"></path></symbol><symbol id="frame" viewBox="0 0 1024 1024"><path d="M1024 704c0 35.328-28.672 64-64 64v69.888c37.184 13.248 64 48.384 64 90.112 0 52.992-43.008 96-96 96-41.76 0-76.896-26.816-90.112-64H768c0 35.328-28.672 64-64 64s-64-28.672-64-64h-64c0 35.328-28.672 64-64 64s-64-28.672-64-64h-64c0 35.328-28.672 64-64 64s-64-28.672-64-64h-69.888c-13.216 37.184-48.384 64-90.112 64-53.024 0-96-43.008-96-96 0-41.76 26.784-76.864 64-90.112V768c-35.328 0-64-28.672-64-64s28.672-64 64-64v-64c-35.328 0-64-28.672-64-64s28.672-64 64-64v-64c-35.328 0-64-28.672-64-64s28.672-64 64-64v-69.888C26.784 172.896 0 137.728 0 96 0 42.976 42.976 0 96 0c41.728 0 76.896 26.784 90.112 64H256c0-35.328 28.672-64 64-64s64 28.672 64 64h64c0-35.328 28.672-64 64-64s64 28.672 64 64h64c0-35.328 28.672-64 64-64s64 28.672 64 64h69.888C851.104 26.784 886.24 0 928 0c52.992 0 96 42.976 96 96 0 41.728-26.816 76.896-64 90.112V256c35.328 0 64 28.672 64 64s-28.672 64-64 64v64c35.328 0 64 28.672 64 64s-28.672 64-64 64v64c35.328 0 64 28.672 64 64zM832 224c0-17.664-14.304-32-32-32H224c-17.664 0-32 14.336-32 32v576c0 17.696 14.336 32 32 32h576c17.696 0 32-14.304 32-32V224z"></path></symbol><symbol id="github" viewBox="0 0 1024 1024"><path d="M512 0C229.25 0 0 229.25 0 512c0 226.25 146.688 418.126 350.156 485.812 25.594 4.688 34.938-11.126 34.938-24.626 0-12.188-.468-52.562-.718-95.312C242 908.812 211.908 817.498 211.908 817.498c-23.312-59.126-56.844-74.876-56.844-74.876-46.532-31.75 3.53-31.126 3.53-31.126 51.406 3.562 78.47 52.75 78.47 52.75 45.688 78.25 119.876 55.626 149 42.5 4.654-33 17.904-55.626 32.5-68.376-113.656-12.938-233.218-56.876-233.218-253.062 0-55.938 19.968-101.562 52.656-137.406-5.218-13-22.844-65.094 5.062-135.562 0 0 42.938-13.75 140.812 52.5 40.812-11.406 84.594-17.032 128.126-17.218 43.5.188 87.312 5.876 128.188 17.282 97.688-66.312 140.688-52.5 140.688-52.5 28 70.532 10.376 122.562 5.126 135.5 32.812 35.844 52.626 81.468 52.626 137.406 0 196.688-119.75 240-233.812 252.688 18.438 15.876 34.75 47 34.75 94.75 0 68.438-.688 123.626-.688 140.5 0 13.626 9.312 29.562 35.25 24.562 203.312-67.812 349.876-259.688 349.876-485.812 0-282.75-229.25-512-512-512z"></path></symbol><symbol id="gopuram" viewBox="0 0 512 512"><path d="M120 0c13.3 0 24 10.7 24 24v8h40V24c0-13.3 10.7-24 24-24s24 10.7 24 24v8h48V24c0-13.3 10.7-24 24-24s24 10.7 24 24v8h40V24c0-13.3 10.7-24 24-24s24 10.7 24 24v8V64v64c17.7 0 32 14.3 32 32v64c17.7 0 32 14.3 32 32v96c17.7 0 32 14.3 32 32v96c0 17.7-14.3 32-32 32H416V352H384V224H352V128H320v96h32V352h32V512H304V464c0-26.5-21.5-48-48-48s-48 21.5-48 48v48H128V352h32V224h32V128H160v96H128V352H96V512H32c-17.7 0-32-14.3-32-32V384c0-17.7 14.3-32 32-32V256c0-17.7 14.3-32 32-32V160c0-17.7 14.3-32 32-32V64 32 24c0-13.3 10.7-24 24-24zM256 272c-17.7 0-32 14.3-32 32v48h64V304c0-17.7-14.3-32-32-32zm-32-80v32h64V192c0-17.7-14.3-32-32-32s-32 14.3-32 32z"></path></symbol><symbol id="grip" viewBox="0 0 448 512"><!--! Font Awesome Pro 6.3.0 by @fontawesome - https://fontawesome.com License - https://fontawesome.com/license (Commercial License) Copyright 2023 Fonticons, Inc.--><path d="M128 136c0-22.1-17.9-40-40-40L40 96C17.9 96 0 113.9 0 136l0 48c0 22.1 17.9 40 40 40H88c22.1 0 40-17.9 40-40V136zm0 192c0-22.1-17.9-40-40-40H40c-22.1 0-40 17.9-40 40v48c0 22.1 17.9 40 40 40H88c22.1 0 40-17.9 40-40V328zm32-192v48c0 22.1 17.9 40 40 40h48c22.1 0 40-17.9 40-40V136c0-22.1-17.9-40-40-40l-48 0c-22.1 0-40 17.9-40 40zM288 328c0-22.1-17.9-40-40-40H200c-22.1 0-40 17.9-40 40l0 48c0 22.1 17.9 40 40 40h48c22.1 0 40-17.9 40-40V328zm32-192v48c0 22.1 17.9 40 40 40h48c22.1 0 40-17.9 40-40V136c0-22.1-17.9-40-40-40l-48 0c-22.1 0-40 17.9-40 40zM448 328c0-22.1-17.9-40-40-40H360c-22.1 0-40 17.9-40 40v48c0 22.1 17.9 40 40 40h48c22.1 0 40-17.9 40-40V328z"></path></symbol><symbol id="heart-hollow" viewBox="0 0 1024 1024"><path d="M741.344 24.34c-91.402 0-176.788 45.052-229.322 118.048C459.454 69.378 374.06 24.34 282.656 24.34 126.81 24.34 0 151.128 0 307c0 188.762 115.28 289.77 248.774 406.716 77.966 68.3 166.34 145.714 239.308 250.664l24.534 35.282 23.708-35.848c70.626-106.774 157.046-183.39 240.61-257.468C904.012 593.71 1024 487.308 1024 307c0-155.872-126.792-282.66-282.656-282.66zm-3.06 638.402C664.426 728.2 581.746 801.488 511.48 897.524c-71.434-93.746-152.178-164.484-224.296-227.668C159.296 557.836 58.29 469.336 58.29 307c0-123.736 100.65-224.372 224.368-224.372 86.392 0 166.068 50.79 202.982 129.394l26.382 56.21 26.38-56.224c36.886-78.606 116.546-129.38 202.944-129.38 123.732 0 224.368 100.634 224.368 224.372-.002 154.096-100.368 243.094-227.43 355.742z"></path></symbol><symbol id="heart" viewBox="0 0 1024 1024"><path d="M755.188 37.876c-107.63 0-200.258 63.556-243.164 155-42.938-91.442-135.578-155-243.216-155C120.426 37.876 0 158.316 0 306.708c0 301.846 304.5 380.994 512.022 679.418C708.176 689.552 1024 598.922 1024 306.708c0-148.392-120.428-268.832-268.812-268.832z"></path></symbol><symbol id="home" viewBox="0 0 1024 1024"><path d="M1024 590.444L512 193.018 0 590.446V428.408L512 30.982l512 397.428zM896 576v384H640V704H384v256H128V576l384-288z"></path></symbol><symbol id="hour-glass" viewBox="0 0 1024 1024"><path d="M728.992 512C866.746 424.666 960 256.792 960 64c0-21.676-1.192-43.034-3.478-64H67.48A589.397 589.397 0 0 0 64 64c0 192.792 93.254 360.666 231.006 448C157.254 599.334 64 767.208 64 960a589.85 589.85 0 0 0 3.478 64H956.52a589.85 589.85 0 0 0 3.478-64c.002-192.792-93.252-360.666-231.006-448zM160 960c0-186.912 80.162-345.414 224-397.708V461.706C240.162 409.416 160 250.914 160 64h704c0 186.914-80.162 345.416-224 397.706v100.586C783.838 614.586 864 773.088 864 960H160zm459.626-290.406C547.972 628.95 544.018 576.226 544 544.228V480c0-31.994 3.804-84.914 75.744-125.664 38.504-22.364 71.808-56.348 97.048-98.336H307.21c25.266 42.032 58.612 76.042 97.166 98.406 71.654 40.644 75.606 93.366 75.626 125.366V544c0 31.992-3.804 84.914-75.744 125.664C331.636 711.844 277.52 795.348 261.168 896h501.67c-16.364-100.708-70.53-184.248-143.212-226.406z"></path></symbol><symbol id="indent" viewBox="0 0 448 512"><path d="M0 64C0 46.3 14.3 32 32 32H416c17.7 0 32 14.3 32 32s-14.3 32-32 32H32C14.3 96 0 81.7 0 64zM192 192c0-17.7 14.3-32 32-32H416c17.7 0 32 14.3 32 32s-14.3 32-32 32H224c-17.7 0-32-14.3-32-32zm32 96H416c17.7 0 32 14.3 32 32s-14.3 32-32 32H224c-17.7 0-32-14.3-32-32s14.3-32 32-32zM0 448c0-17.7 14.3-32 32-32H416c17.7 0 32 14.3 32 32s-14.3 32-32 32H32c-17.7 0-32-14.3-32-32zM127.8 268.6L25.8 347.9C15.3 356.1 0 348.6 0 335.3V176.7c0-13.3 15.3-20.8 25.8-12.6l101.9 79.3c8.2 6.4 8.2 18.9 0 25.3z"></path></symbol><symbol id="info" viewBox="0 0 1024 1024"><path d="M336 512c35.36 0 64 28.64 64 64v256c0 35.36-28.64 64-64 64h-64v128h512V896h-63.744C684.992 896 656 867.36 656 832l-.128-448H272v128h64zm64-384c0 70.688 57.312 128 128 128s128-57.312 128-128S598.688 0 528 0 400 57.312 400 128z"></path></symbol><symbol id="key-hollow" viewBox="0 0 1024 1024"><path d="M704 0C527.264 0 384 143.264 384 320c0 20 2.368 39.264 5.888 58.112L0 768v256h384V896h128V768h128V640l5.888-5.888C664.736 637.632 684 640 704 640c176.736 0 320-143.264 320-320S880.736 0 704 0zm0 512c-10.016 0-20.992-1.248-34.752-3.744L603.008 496 512 587.008V640H384v128H256v128H128v-75.008l400-400-12.256-66.24C513.184 340.992 512 329.984 512 320c0-105.888 86.112-192 192-192s192 86.112 192 192-86.112 192-192 192zm-64-192c0-35.346 28.654-64 64-64s64 28.654 64 64c0 35.346-28.654 64-64 64s-64-28.654-64-64z"></path></symbol><symbol id="key" viewBox="0 0 1024 1024"><path d="M704 0C527.264 0 384 143.264 384 320c0 20 2.368 39.264 5.888 58.112L0 768v256h384V896h128V768h128V640l5.888-5.888C664.736 637.632 684 640 704 640c176.736 0 320-143.264 320-320S880.736 0 704 0zm.256 384c-35.36 0-64-28.64-64-64s28.64-64 64-64 64 28.64 64 64-28.64 64-64 64z"></path></symbol><symbol id="keyboard" viewBox="0 0 1024 1024"><path d="M874.666 320c0-106.026-85.974-192-192-192H341.334c-39.68 0-73.194-27.094-82.56-64 0 0-2.774-7.04-2.774-10.666C256 23.894 232.106 0 202.666 0s-53.332 23.894-53.332 53.334c0 4.054.426 7.894 1.302 11.734 11.07 95.572 92.138 169.598 190.698 169.598h341.334c47.146 0 85.334 38.186 85.334 85.334H85.334C38.188 320 0 358.186 0 405.334v533.334c0 47.146 38.186 85.334 85.334 85.334h853.334c47.146 0 85.334-38.186 85.334-85.334L1024 405.334c0-47.146-38.186-85.334-85.334-85.334h-64zM629.334 426.666c29.44 0 53.334 23.894 53.334 53.334s-23.894 53.334-53.334 53.334S576 509.44 576 480s23.894-53.334 53.334-53.334zm0 192c29.44 0 53.334 23.894 53.334 53.334s-23.894 53.334-53.334 53.334S576 701.44 576 672s23.894-53.334 53.334-53.334zm-234.668-192C424.106 426.666 448 450.56 448 480s-23.894 53.334-53.334 53.334S341.334 509.44 341.334 480s23.892-53.334 53.332-53.334zm0 192C424.106 618.666 448 642.56 448 672s-23.894 53.334-53.334 53.334S341.334 701.44 341.334 672s23.892-53.334 53.332-53.334zM160 426.666c29.44 0 53.334 23.894 53.334 53.334S189.44 533.334 160 533.334 106.666 509.44 106.666 480 130.56 426.666 160 426.666zm0 192c29.44 0 53.334 23.894 53.334 53.334S189.44 725.334 160 725.334 106.666 701.44 106.666 672 130.56 618.666 160 618.666zm0 192c29.44 0 53.334 23.894 53.334 53.334S189.44 917.334 160 917.334 106.666 893.44 106.666 864 130.56 810.666 160 810.666zm704-384c29.44 0 53.334 23.894 53.334 53.334S893.44 533.334 864 533.334 810.666 509.44 810.666 480 834.56 426.666 864 426.666zm0 192c29.44 0 53.334 23.894 53.334 53.334S893.44 725.334 864 725.334 810.666 701.44 810.666 672 834.56 618.666 864 618.666zm0 192c29.44 0 53.334 23.894 53.334 53.334S893.44 917.334 864 917.334 810.666 893.44 810.666 864 834.56 810.666 864 810.666zM682.666 917.334H341.334c-23.466 0-42.666-19.2-42.666-42.666s19.2-42.666 42.666-42.666h341.334c23.466 0 42.666 19.2 42.666 42.666s-19.2 42.666-42.668 42.666z"></path></symbol><symbol id="language" viewBox="0 0 640 512"><path d="M0 128C0 92.7 28.7 64 64 64H256h48 16H576c35.3 0 64 28.7 64 64V384c0 35.3-28.7 64-64 64H320 304 256 64c-35.3 0-64-28.7-64-64V128zm320 0V384H576V128H320zM178.3 175.9c-3.2-7.2-10.4-11.9-18.3-11.9s-15.1 4.7-18.3 11.9l-64 144c-4.5 10.1 .1 21.9 10.2 26.4s21.9-.1 26.4-10.2l8.9-20.1h73.6l8.9 20.1c4.5 10.1 16.3 14.6 26.4 10.2s14.6-16.3 10.2-26.4l-64-144zM160 233.2L179 276H141l19-42.8zM448 164c11 0 20 9 20 20v4h44 16c11 0 20 9 20 20s-9 20-20 20h-2l-1.6 4.5c-8.9 24.4-22.4 46.6-39.6 65.4c.9 .6 1.8 1.1 2.7 1.6l18.9 11.3c9.5 5.7 12.5 18 6.9 27.4s-18 12.5-27.4 6.9l-18.9-11.3c-4.5-2.7-8.8-5.5-13.1-8.5c-10.6 7.5-21.9 14-34 19.4l-3.6 1.6c-10.1 4.5-21.9-.1-26.4-10.2s.1-21.9 10.2-26.4l3.6-1.6c6.4-2.9 12.6-6.1 18.5-9.8l-12.2-12.2c-7.8-7.8-7.8-20.5 0-28.3s20.5-7.8 28.3 0l14.6 14.6 .5 .5c12.4-13.1 22.5-28.3 29.8-45H448 376c-11 0-20-9-20-20s9-20 20-20h52v-4c0-11 9-20 20-20z"></path></symbol><symbol id="link" viewBox="0 0 1024 1024"><path d="M440.236 635.766c-13.31 0-26.616-5.076-36.77-15.23-95.134-95.136-95.134-249.934 0-345.07l192-192C641.554 37.38 702.826 12 768 12s126.448 25.38 172.536 71.464c95.132 95.136 95.132 249.934 0 345.07L852.77 516.3c-20.308 20.308-53.23 20.308-73.54 0-20.306-20.306-20.306-53.232 0-73.54l87.766-87.766c54.584-54.586 54.584-143.404 0-197.99C840.554 130.562 805.396 116 768 116s-72.552 14.562-98.996 41.006l-192 191.998c-54.586 54.586-54.586 143.406 0 197.992 20.308 20.306 20.306 53.232 0 73.54-10.15 10.152-23.462 15.23-36.768 15.23z"></path><path d="M256 1012c-65.176 0-126.45-25.38-172.534-71.464-95.134-95.136-95.134-249.934 0-345.07l87.764-87.764c20.308-20.306 53.234-20.306 73.54 0 20.308 20.306 20.308 53.232 0 73.54l-87.764 87.764c-54.586 54.586-54.586 143.406 0 197.992C183.446 893.438 218.604 908 256 908s72.552-14.562 98.998-41.006l192-191.998c54.584-54.586 54.584-143.406 0-197.992-20.308-20.308-20.306-53.232 0-73.54 20.306-20.306 53.232-20.306 73.54.002 95.132 95.134 95.132 249.932.002 345.068l-192.002 192C382.448 986.622 321.174 1012 256 1012z"></path></symbol><symbol id="link2" viewBox="0 0 640 512"><path d="M579.8 267.7c56.5-56.5 56.5-148 0-204.5c-50-50-128.8-56.5-186.3-15.4l-1.6 1.1c-14.4 10.3-17.7 30.3-7.4 44.6s30.3 17.7 44.6 7.4l1.6-1.1c32.1-22.9 76-19.3 103.8 8.6c31.5 31.5 31.5 82.5 0 114L422.3 334.8c-31.5 31.5-82.5 31.5-114 0c-27.9-27.9-31.5-71.8-8.6-103.8l1.1-1.6c10.3-14.4 6.9-34.4-7.4-44.6s-34.4-6.9-44.6 7.4l-1.1 1.6C206.5 251.2 213 330 263 380c56.5 56.5 148 56.5 204.5 0L579.8 267.7zM60.2 244.3c-56.5 56.5-56.5 148 0 204.5c50 50 128.8 56.5 186.3 15.4l1.6-1.1c14.4-10.3 17.7-30.3 7.4-44.6s-30.3-17.7-44.6-7.4l-1.6 1.1c-32.1 22.9-76 19.3-103.8-8.6C74 372 74 321 105.5 289.5L217.7 177.2c31.5-31.5 82.5-31.5 114 0c27.9 27.9 31.5 71.8 8.6 103.9l-1.1 1.6c-10.3 14.4-6.9 34.4 7.4 44.6s34.4 6.9 44.6-7.4l1.1-1.6C433.5 260.8 427 182 377 132c-56.5-56.5-148-56.5-204.5 0L60.2 244.3z"></path></symbol><symbol id="list-ul" viewBox="0 0 512 512"><path d="M64 144c26.5 0 48-21.5 48-48s-21.5-48-48-48S16 69.5 16 96s21.5 48 48 48zM192 64c-17.7 0-32 14.3-32 32s14.3 32 32 32H480c17.7 0 32-14.3 32-32s-14.3-32-32-32H192zm0 160c-17.7 0-32 14.3-32 32s14.3 32 32 32H480c17.7 0 32-14.3 32-32s-14.3-32-32-32H192zm0 160c-17.7 0-32 14.3-32 32s14.3 32 32 32H480c17.7 0 32-14.3 32-32s-14.3-32-32-32H192zM64 464c26.5 0 48-21.5 48-48s-21.5-48-48-48s-48 21.5-48 48s21.5 48 48 48zm48-208c0-26.5-21.5-48-48-48s-48 21.5-48 48s21.5 48 48 48s48-21.5 48-48z"></path></symbol><symbol id="location" viewBox="0 0 1024 1024"><path d="M512 0C335.268 0 192 143.268 192 320c0 320 320 704 320 704s320-384 320-704C832 143.268 688.73 0 512 0zm0 512c-106.04 0-192-85.96-192-192s85.96-192 192-192 192 85.96 192 192-85.96 192-192 192z"></path></symbol><symbol id="location2" viewBox="0 0 1024 1024"><path d="M512 0C335.268 0 192 143.268 192 320c0 320 320 704 320 704s320-384 320-704C832 143.268 688.73 0 512 0zm0 516c-108.248 0-196-87.752-196-196s87.752-196 196-196 196 87.752 196 196-87.752 196-196 196zM388 320c0-68.483 55.517-124 124-124s124 55.517 124 124-55.517 124-124 124-124-55.517-124-124z"></path></symbol><symbol id="locked" viewBox="0 0 1024 1024"><path d="M234.666 277.334v149.334l-64-.002c-47.146 0-85.334 38.186-85.334 85.334v426.666c0 47.146 38.186 85.334 85.334 85.334h682.666c47.146 0 85.334-38.186 85.334-85.334V512c0-47.146-38.186-85.334-85.334-85.334h-64V277.332c0-153.174-124.16-277.334-277.334-277.334C358.826 0 234.666 124.16 234.666 277.334zm106.668 149.332V277.332c0-94.294 76.374-170.666 170.666-170.666s170.666 76.374 170.666 170.666v149.334H341.334zm85.332 234.668C426.666 614.188 464.852 576 512 576s85.334 38.186 85.334 85.334c0 30.08-15.574 56.534-39.04 71.68 0 0 8.342 50.346 17.706 109.654 0 17.706-14.294 32-32 32h-64c-17.706 0-32-14.294-32-32l17.706-109.654c-23.466-15.148-39.04-41.6-39.04-71.68z"></path></symbol><symbol id="login" viewBox="0 0 1024 1024"><path d="M258.107 0l-2.11 170.667h597.336v682.667H255.997V1024H1024V0H258.105zM0 597.336h426.67L256 768.003h256.002L768.006 512 512.004 256H256.002L426.67 426.665H0v170.667z"></path></symbol><symbol id="logout" viewBox="0 0 1024 1024"><path d="M258.107 0l-2.11 170.667h597.336v682.667H255.997V1024H1024V0H258.105zm509.895 597.336h-426.67L512 768.003H255.998L-.004 512l256.002-256H512L341.333 426.665h426.67v170.667z"></path></symbol><symbol id="male" viewBox="0 0 320 512"><path d="M208 48c0 26.5-21.5 48-48 48s-48-21.5-48-48s21.5-48 48-48s48 21.5 48 48zM152 352V480c0 17.7-14.3 32-32 32s-32-14.3-32-32V256.9L59.4 304.5c-9.1 15.1-28.8 20-43.9 10.9s-20-28.8-10.9-43.9l58.3-97c17.4-28.9 48.6-46.6 82.3-46.6h29.7c33.7 0 64.9 17.7 82.3 46.6l58.3 97c9.1 15.1 4.2 34.8-10.9 43.9s-34.8 4.2-43.9-10.9L232 256.9V480c0 17.7-14.3 32-32 32s-32-14.3-32-32V352H152z"></path></symbol><symbol id="map-location-dot" viewBox="0 0 576 512"><path d="M408 120c0 54.6-73.1 151.9-105.2 192c-7.7 9.6-22 9.6-29.6 0C241.1 271.9 168 174.6 168 120C168 53.7 221.7 0 288 0s120 53.7 120 120zm8 80.4c3.5-6.9 6.7-13.8 9.6-20.6c.5-1.2 1-2.5 1.5-3.7l116-46.4C558.9 123.4 576 135 576 152V422.8c0 9.8-6 18.6-15.1 22.3L416 503V200.4zM137.6 138.3c2.4 14.1 7.2 28.3 12.8 41.5c2.9 6.8 6.1 13.7 9.6 20.6V451.8L32.9 502.7C17.1 509 0 497.4 0 480.4V209.6c0-9.8 6-18.6 15.1-22.3l122.6-49zM327.8 332c13.9-17.4 35.7-45.7 56.2-77V504.3L192 449.4V255c20.5 31.3 42.3 59.6 56.2 77c20.5 25.6 59.1 25.6 79.6 0zM288 152c22.1 0 40-17.9 40-40s-17.9-40-40-40s-40 17.9-40 40s17.9 40 40 40z"></path></symbol><symbol id="mark-hollow" viewBox="0 0 1024 1024"><path d="M234.422 1018.417L6.944 790.805l278.813-278.85L6.89 233.102 234.5 5.624 513.298 284.38 792.047 5.585 1019.7 233.092l-278.823 278.84L1019.71 790.73l-227.498 227.65L513.318 739.5 234.42 1018.416zm-72.09-227.596l72.113 72.157L513.317 584.09 792.19 862.946l72.132-72.184-278.863-278.82 278.804-278.824-72.187-72.136-278.774 278.815-278.825-278.785-72.156 72.113 278.84 278.823L162.33 790.822z"></path></symbol><symbol id="mark" viewBox="0 0 1024 1024"><path d="M1013.097 837.82L687.163 511.937l325.894-325.912L837.823 10.907 511.99 336.792 186.096 10.95 10.904 186.036l325.942 325.92-325.9 325.95L186.032 1013.1l325.973-325.996 325.973 325.954z"></path></symbol><symbol id="mars" viewBox="0 0 448 512"><path d="M289.8 46.8c3.7-9 12.5-14.8 22.2-14.8H424c13.3 0 24 10.7 24 24V168c0 9.7-5.8 18.5-14.8 22.2s-19.3 1.7-26.2-5.2l-33.4-33.4L321 204.2c19.5 28.4 31 62.7 31 99.8c0 97.2-78.8 176-176 176S0 401.2 0 304s78.8-176 176-176c37 0 71.4 11.4 99.8 31l52.6-52.6L295 73c-6.9-6.9-8.9-17.2-5.2-26.2zM400 80l0 0h0v0zM176 416c61.9 0 112-50.1 112-112s-50.1-112-112-112s-112 50.1-112 112s50.1 112 112 112z"></path></symbol><symbol id="message" viewBox="0 0 512 512"><path d="M64 0C28.7 0 0 28.7 0 64V352c0 35.3 28.7 64 64 64h96v80c0 6.1 3.4 11.6 8.8 14.3s11.9 2.1 16.8-1.5L309.3 416H448c35.3 0 64-28.7 64-64V64c0-35.3-28.7-64-64-64H64z"></path></symbol><symbol id="minus" viewBox="0 0 1024 1024"><path d="M0 416v192c0 17.672 14.328 32 32 32h960c17.672 0 32-14.328 32-32V416c0-17.672-14.328-32-32-32H32c-17.672 0-32 14.328-32 32z"></path></symbol><symbol id="moon" viewBox="0 0 384 512"><path d="M223.5 32C100 32 0 132.3 0 256S100 480 223.5 480c60.6 0 115.5-24.2 155.8-63.4c5-4.9 6.3-12.5 3.1-18.7s-10.1-9.7-17-8.5c-9.8 1.7-19.8 2.6-30.1 2.6c-96.9 0-175.5-78.8-175.5-176c0-65.8 36-123.1 89.3-153.3c6.1-3.5 9.2-10.5 7.7-17.3s-7.3-11.9-14.3-12.5c-6.3-.5-12.6-.8-19-.8z"></path></symbol><symbol id="music-note" viewBox="0 0 1024 1024"><path d="M320 638.506a193.124 193.124 0 0 0-85.334-19.84c-106.026 0-192 85.974-192 192 0 106.048 85.974 192 192 192s192-85.952 192-192V384c0-23.466 19.2-42.666 42.666-42.666h362.666c23.466 0 42.666 19.2 42.666 42.666v254.506a193.17 193.17 0 0 0-85.33-19.84c-106.048 0-192 85.974-192 192 0 106.048 85.952 192 192 192s192-85.952 192-192V89.6A46.8 46.8 0 0 0 934.4 42.666H366.934A46.8 46.8 0 0 0 320 89.6v548.906z"></path></symbol><symbol id="old-key" viewBox="0 0 1024 1024"><path d="M944.573 56.31c-31.457-31.457-73.288-48.783-117.78-48.783s-86.318 17.326-117.775 48.778c-15.96 15.964-28.247 34.888-36.567 56.325-26.37-16.102-56.34-24.535-87.15-24.535-44.13 0-85.63 17.188-116.84 48.404-64.9 64.9-64.94 170.48-.12 235.43l41.56 43.404-.005.476L51.65 874.06c-11.976 11.976-11.976 31.462 0 43.443l85.197 85.197c5.8 5.8 13.517 8.996 21.72 8.996 8.206 0 15.922-3.195 21.723-9l31.734-31.735c11.976-11.98 11.976-31.47 0-43.44l-31.734-31.74 31.734-31.74 31.734 31.74c5.8 5.8 13.517 9 21.724 9s15.918-3.196 21.72-8.997l31.738-31.74c11.976-11.98 11.976-31.47 0-43.45l-31.734-31.732 29.404-29.41 29.742 29.744c5.8 5.8 13.517 9 21.724 9s15.923-3.2 21.724-9l31.734-31.732c11.976-11.98 11.976-31.467 0-43.447l-29.742-29.745 193.275-193.28.476-.002 43.418 41.564c31.45 31.376 73.22 48.656 117.66 48.656 44.496 0 86.32-17.32 117.78-48.785 53.947-53.943 63.63-138.956 23.867-203.99 21.524-8.38 40.4-20.65 56.325-36.572 64.93-64.94 64.93-170.612-.01-235.55zm-315.74 240.563c-11.34 11.336-26.465 17.582-42.598 17.582-16.128 0-31.258-6.246-42.598-17.587-23.485-23.485-23.485-61.706 0-85.197 11.34-11.34 26.465-17.58 42.598-17.58s31.258 6.24 42.598 17.58c23.485 23.5 23.485 61.72 0 85.21zM886.98 174.085c0 16.128-6.247 31.258-17.583 42.593-11.34 11.34-26.465 17.587-42.598 17.587-16.13 0-31.26-6.246-42.6-17.582-11.34-11.34-17.58-26.465-17.58-42.598s6.24-31.258 17.58-42.593c11.34-11.34 26.46-17.587 42.6-17.587s31.25 6.246 42.59 17.587c11.333 11.336 17.58 26.465 17.58 42.593zm-80.19 240.563c0 16.128-6.247 31.258-17.583 42.593-11.34 11.35-26.465 17.59-42.598 17.59s-31.26-6.24-42.6-17.58-17.59-26.463-17.59-42.596c0-16.13 6.24-31.252 17.58-42.593 11.34-11.34 26.46-17.587 42.6-17.587 16.13 0 31.26 6.244 42.6 17.585 11.34 11.34 17.58 26.47 17.58 42.598z"></path></symbol><symbol id="paint-roller" viewBox="0 0 512 512"><path d="M0 64C0 28.7 28.7 0 64 0H352c35.3 0 64 28.7 64 64v64c0 35.3-28.7 64-64 64H64c-35.3 0-64-28.7-64-64V64zM160 352c0-17.7 14.3-32 32-32V304c0-44.2 35.8-80 80-80H416c17.7 0 32-14.3 32-32V160 69.5c37.3 13.2 64 48.7 64 90.5v32c0 53-43 96-96 96H272c-8.8 0-16 7.2-16 16v16c17.7 0 32 14.3 32 32V480c0 17.7-14.3 32-32 32H192c-17.7 0-32-14.3-32-32V352z"></path></symbol><symbol id="palette" viewBox="0 0 512 512"><path d="M512 256c0 .9 0 1.8 0 2.7c-.4 36.5-33.6 61.3-70.1 61.3H344c-26.5 0-48 21.5-48 48c0 3.4 .4 6.7 1 9.9c2.1 10.2 6.5 20 10.8 29.9c6.1 13.8 12.1 27.5 12.1 42c0 31.8-21.6 60.7-53.4 62c-3.5 .1-7 .2-10.6 .2C114.6 512 0 397.4 0 256S114.6 0 256 0S512 114.6 512 256zM128 288c0-17.7-14.3-32-32-32s-32 14.3-32 32s14.3 32 32 32s32-14.3 32-32zm0-96c17.7 0 32-14.3 32-32s-14.3-32-32-32s-32 14.3-32 32s14.3 32 32 32zM288 96c0-17.7-14.3-32-32-32s-32 14.3-32 32s14.3 32 32 32s32-14.3 32-32zm96 96c17.7 0 32-14.3 32-32s-14.3-32-32-32s-32 14.3-32 32s14.3 32 32 32z"></path></symbol><symbol id="paper-plane" viewBox="0 0 1024 1024"><path d="M954.368 134.86C936.755 141.057 67.533 447.387 50.38 453.428c-14.54 5.12-17.765 17.664-.51 24.525 20.53 8.243 194.354 77.875 194.354 77.875l115.2 46.13s554.906-407.45 562.38-412.978c7.58-5.53 16.283 4.863 10.804 10.802-5.478 5.99-402.995 435.866-402.995 435.866v.102l-23.142 25.754 30.67 16.486s238.08 128.205 255.08 137.318c14.9 7.987 34.2 1.382 38.5-17.1 5.07-21.812 145.666-627.764 148.79-641.28 4.044-17.563-7.58-28.263-25.14-22.068zM358.4 878.695c0 12.595 7.117 16.128 16.947 7.22 12.85-11.726 145.92-131.124 145.92-131.124L358.4 670.62v208.077z"></path></symbol><symbol id="paperclip" viewBox="0 0 1024 1024"><path d="M697.824 327.04l-64.96-64.928-324.8 324.736c-53.824 53.792-53.824 141.056 0 194.848s141.056 53.792 194.88 0L892.704 392c89.728-89.664 89.728-235.072 0-324.736-89.664-89.696-235.104-89.696-324.768 0L157.856 477.28c-125.088 125.088-125.088 327.84 0 452.896 125.056 125.056 327.872 125.056 452.992 0l.832-.864.032.032L891.04 650.048l-64.992-64.928-280.16 280.096c-89.088 89.056-233.984 89.056-323.072 0-89.056-89.056-89.056-233.92 0-322.976l.896-.832-.032-.064 409.28-409.152c53.696-53.728 141.152-53.728 194.88 0s53.696 141.152 0 194.848L438.08 716.736c-17.92 17.92-47.04 17.92-64.96 0-17.888-17.888-17.888-47.04 0-64.928l324.8-324.768z"></path></symbol><symbol id="pen" viewBox="0 0 1024 1024"><path d="M384 640l128-64 448-448-64-64-448 448-64 128zm-94.688 227.104c-31.648-66.72-65.664-100.768-132.384-132.384l99.104-272.8 128-77.92 384-384h-192l-384 384-192 640 640-192 384-384V256l-384 384-77.92 128z"></path></symbol><symbol id="phone" viewBox="0 0 1024 1024"><path d="M512 0C329.6 0 146.774 32.64 80.426 97.706 25.386 151.68 7.04 247.04.852 307.412c0 0-.854 5.974-.854 8.534 0 23.68 19.2 42.666 42.666 42.666 2.774 0 105.386-8.32 167.254-13.44 1.494-.214 2.986-.426 4.48-.854 23.04-.64 41.6-19.414 41.6-42.666l.214-84.054c.002-26.024 21.122-46.932 47.148-46.932h417.258c26.048 0 47.168 20.908 47.168 46.934l.214 84.054c0 23.254 18.56 42.026 41.6 42.666 1.472.426 2.986.64 4.48.854 61.866 5.12 164.48 13.44 167.254 13.44 23.466 0 42.666-18.986 42.666-42.666 0-2.56-.854-8.534-.854-8.534-6.186-60.374-24.512-155.734-79.552-209.706C877.226 32.64 694.4 0 512 0zm0 554.666c-47.146 0-85.334 38.186-85.334 85.334s38.186 85.334 85.334 85.334 85.334-38.186 85.334-85.334-38.188-85.334-85.334-85.334zm-64-192v-53.334c0-29.44-23.894-53.334-53.334-53.334s-53.332 23.896-53.332 53.336v53.332L53.546 670.08c-19.84 19.414-32.212 46.506-32.212 76.374V832c0 47.146 38.186 85.334 85.334 85.334h21.334v53.334C128 1000.106 151.894 1024 181.334 1024s53.334-23.894 53.334-53.334l-.002-53.332h554.666v53.334c0 29.44 23.894 53.334 53.334 53.334S896 1000.108 896 970.668v-53.334h21.334c47.146 0 85.334-38.186 85.334-85.334v-85.546c0-29.866-12.374-56.96-32.214-76.374L682.666 362.666v-53.334c0-29.44-23.894-53.334-53.334-53.334S576 279.894 576 309.334v53.332H448zm64 106.668c94.294 0 170.666 76.374 170.666 170.666S606.292 810.666 512 810.666 341.334 734.292 341.334 640 417.706 469.334 512 469.334z"></path></symbol><symbol id="phone2" viewBox="0 0 1024 1024"><path d="M513.664 958.272c87.446 87.68 229.12 87.68 316.566 0 54.422-54.4 75.094-129.706 61.674-200.106 23.04-11.734 43.712-25.386 60.992-38.186 1.92-1.494 10.454-7.466 12.586-9.174 9.622-7.894 15.786-19.84 15.786-33.302 0-12.8-5.546-24.32-14.506-32l-176-145.066c-7.254-5.974-16.618-9.6-26.88-9.6-11.542 0-21.994 4.48-29.674 11.734-3.008 2.986-29.418 30.08-29.418 30.08-18.368 18.346-48 18.346-66.368 0l-179.606-179.84c-18.346-18.346-18.346-48.214 0-66.56l29.226-29.226c7.68-7.68 12.16-18.346 12.16-29.846 0-11.52-4.48-21.782-11.734-29.44L337.642 15.554C329.748 6.168 317.802-.02 304.576-.02c-14.08 0-26.454 6.826-34.346 17.28l-2.56 3.414c-32.854 44.374-75.734 114.774-75.734 180.906 0 182.186 406.208 587.734 586.666 587.734 3.414 0 6.826-.214 10.048-.214 3.2 33.494-8.128 68.032-33.706 93.866-45.866 45.846-120.128 45.846-165.994 0l-294.592-302.72c-62.506-62.506-163.626-62.506-226.134 0-62.506 62.506-62.506 163.626 0 226.134l96.64 95.36c20.906 20.714 54.614 20.714 75.52 0 20.694-20.886 20.694-54.614 0-75.498l-96.854-95.168c-20.694-20.886-20.694-54.614 0-75.498 20.906-20.714 54.614-20.714 75.52 0l294.614 302.696z"></path></symbol><symbol id="picture" viewBox="0 0 1024 1024"><path d="M896 192H128v640h768V192zm128-128v896H0V64h1024zM832 768H192V640l192-320 263.008 320L832 512v64zM640 352c0 53.024 42.976 96 96 96s96-42.976 96-96-42.976-96-96-96-96 42.976-96 96z"></path></symbol><symbol id="pie" viewBox="0 0 1024 1024"><path d="M455.755 94.955C208.375 94.955 7.84 295.5 7.84 542.86c0 247.37 200.533 447.924 447.915 447.924 247.37 0 447.904-200.555 447.904-447.925H455.754V94.954zm560.405 396.64c0-123.67-50.133-235.66-131.2-316.715L568.245 491.595h447.915zM512.405 33.205V481.11L829.12 164.393c-87.445-87.456-202.09-131.19-316.715-131.19z"></path></symbol><symbol id="plus" viewBox="0 0 1024 1024"><path d="M992 384H640V32c0-17.672-14.328-32-32-32H416c-17.672 0-32 14.328-32 32v352H32c-17.672 0-32 14.328-32 32v192c0 17.672 14.328 32 32 32h352v352c0 17.672 14.328 32 32 32h192c17.672 0 32-14.328 32-32V640h352c17.672 0 32-14.328 32-32V416c0-17.672-14.328-32-32-32z"></path></symbol><symbol id="power-off" viewBox="0 0 512 512"><path d="M288 32c0-17.7-14.3-32-32-32s-32 14.3-32 32V256c0 17.7 14.3 32 32 32s32-14.3 32-32V32zM143.5 120.6c13.6-11.3 15.4-31.5 4.1-45.1s-31.5-15.4-45.1-4.1C49.7 115.4 16 181.8 16 256c0 132.5 107.5 240 240 240s240-107.5 240-240c0-74.2-33.8-140.6-86.6-184.6c-13.6-11.3-33.8-9.4-45.1 4.1s-9.4 33.8 4.1 45.1c38.9 32.3 63.5 81 63.5 135.4c0 97.2-78.8 176-176 176s-176-78.8-176-176c0-54.4 24.7-103.1 63.5-135.4z"></path></symbol><symbol id="power" viewBox="0 0 1024 1024"><path d="M384 0L0 512h384l-256 512 896-640H512L896 0z"></path></symbol><symbol id="printer" viewBox="0 0 1024 1024"><path d="M0 938.666C0 985.812 38.186 1024 85.334 1024h853.334c47.146 0 85.334-38.186 85.334-85.334l-.002-512c0-47.146-38.186-85.334-85.334-85.334h-64V85.334C874.666 38.188 836.48 0 789.332 0H234.666c-47.146 0-85.332 38.186-85.332 85.334v256h-64C38.188 341.334 0 379.52 0 426.668v511.998zM768 153.6v247.466A46.8 46.8 0 0 1 721.066 448H302.934A46.8 46.8 0 0 1 256 401.066V153.6a46.8 46.8 0 0 1 46.934-46.934h418.134A46.798 46.798 0 0 1 768 153.6zm64 763.734H192c-23.466 0-42.666-19.2-42.666-42.666s19.2-42.666 42.666-42.666h640c23.466 0 42.666 19.2 42.666 42.666s-19.2 42.666-42.666 42.666zm-682.666-224c0-29.44 23.892-53.334 53.332-53.334S256 663.894 256 693.334s-23.894 53.332-53.334 53.332-53.332-23.892-53.332-53.332z"></path></symbol><symbol id="puzzle" viewBox="0 0 1024 1024"><path d="M418.326 265.194l.448.618c9.6 7.68 15.552 19.626 15.552 32.854 0 23.466-18.986 42.666-42.666 42.666l-241.9.002c-47.146 0-85.334 38.186-85.334 85.334v164.714c0 23.466 19.2 42.666 42.666 42.666 13.014 0 24.534-5.782 32.448-14.954 1.472-1.706 6.614-7.04 7.658-8.086C170.218 589.226 201.174 576 235.094 576c70.634 0 128 57.366 128 128s-57.366 128-128 128c-34.134 0-65.28-13.44-88.32-35.2-.854-.832-5.974-5.76-7.254-7.658-7.894-9.174-19.626-15.146-32.854-15.146-23.488 0-42.666 19.2-42.666 42.666l.426 122.004c0 47.146 38.186 85.334 85.334 85.334h725.334c47.146 0 85.334-38.186 85.334-85.334V752.64c0-23.466-19.2-42.666-42.666-42.666-11.968 0-22.826 4.886-30.698 13.014l-8.342 8.96C855.658 754.346 824.32 768 789.76 768c-70.634 0-128-57.366-128-128s57.366-128 128-128c34.774 0 66.134 13.866 89.174 36.266l6.634 7.04c7.894 8.96 19.414 14.72 32.214 14.72 23.466 0 42.666-19.2 42.666-42.666V426.666c0-47.146-38.186-85.334-85.334-85.334H632.768c-23.466 0-42.666-19.2-42.666-42.666 0-11.968 4.906-22.806 13.014-30.698 35.582-27.114 58.644-70.208 58.644-118.634C661.76 66.774 594.986 0 512.426 0S363.092 66.774 363.092 149.334c.002 46.698 21.526 88.532 55.234 115.86z"></path></symbol><symbol id="quill" viewBox="0 0 1024 1024"><path d="M384 586.656s203.936-122.368 318.752-74.016c23.808-36.256 47.264-75.328 70.208-115.232-112.32-27.52-260.96-2.752-260.96-2.752s190.208-114.112 306.656-78.4c23.36-42.112 46.048-83.648 67.968-122.304C793.856 187.68 704 202.656 704 202.656s119.136-71.488 226.592-83.584C964.384 64.224 995.776 21.184 1024 0 463.008 0 128 640 0 1024h64l192-320s64 64 256 0c45.472-15.168 90.944-57.248 135.584-113.92C534.976 561.536 384 586.688 384 586.688z"></path></symbol><symbol id="quotes-left" viewBox="0 0 1024 1024"><path d="M225 448c123.712 0 224 100.29 224 224S348.712 896 225 896 1 795.712 1 672l-1-32c0-247.424 200.576-448 448-448v128c-85.474 0-165.834 33.286-226.274 93.726a324.643 324.643 0 0 0-31.83 37.02A225.675 225.675 0 0 1 225 448zm576 0c123.71 0 224 100.29 224 224S924.71 896 801 896 577 795.712 577 672l-1-32c0-247.424 200.576-448 448-448v128c-85.474 0-165.834 33.286-226.274 93.726a324.46 324.46 0 0 0-31.832 37.02A225.7 225.7 0 0 1 801 448z"></path></symbol><symbol id="quotes-right" viewBox="0 0 1024 1024"><path d="M800 640c-123.712 0-224-100.29-224-224s100.288-224 224-224 224 100.288 224 224l1 32c0 247.424-200.576 448-448 448V768c85.474 0 165.834-33.286 226.274-93.726a324.643 324.643 0 0 0 31.83-37.02A225.675 225.675 0 0 1 800 640zm-576 0C100.29 640 0 539.71 0 416s100.29-224 224-224 224 100.288 224 224l1 32c0 247.424-200.576 448-448 448V768c85.474 0 165.834-33.286 226.274-93.726a324.46 324.46 0 0 0 31.832-37.02A225.7 225.7 0 0 1 224 640z"></path></symbol><symbol id="radio-checked" viewBox="0 0 1024 1024"><path d="M512 0C229.23 0 0 229.23 0 512s229.23 512 512 512 512-229.23 512-512S794.77 0 512 0zm0 896c-212.078 0-384-171.922-384-384s171.922-384 384-384 384 171.922 384 384-171.922 384-384 384zM320 512c0-106.04 85.96-192 192-192s192 85.96 192 192-85.96 192-192 192-192-85.96-192-192z"></path></symbol><symbol id="radio-checked2" viewBox="0 0 1024 1024"><path d="M512 0C229.23 0 0 229.23 0 512s229.23 512 512 512 512-229.23 512-512S794.77 0 512 0zm0 640c-70.692 0-128-57.306-128-128 0-70.692 57.308-128 128-128 70.694 0 128 57.308 128 128 0 70.694-57.306 128-128 128z"></path></symbol><symbol id="radio-unchecked" viewBox="0 0 1024 1024"><path d="M512 0C229.23 0 0 229.23 0 512s229.23 512 512 512 512-229.23 512-512S794.77 0 512 0zm0 896c-212.078 0-384-171.922-384-384s171.922-384 384-384 384 171.922 384 384-171.922 384-384 384z"></path></symbol><symbol id="ribbon" viewBox="0 0 448 512"><path d="M224 96c39.5 0 66.8 12.2 81.9 21.5L245.6 184l79.3 87.4 36.3-40c14.7-16.2 22.8-37.3 22.8-59.1v-27c0-15.6-4.1-30.8-12-44.3L337.7 42C326.4 22.7 307 6.8 282.1 3.5C267.8 1.6 248.4 0 224 0s-43.8 1.6-58 3.5C141 6.8 121.7 22.7 110.4 42L76 101c-7.8 13.4-12 28.7-12 44.3v27c0 21.9 8.1 42.9 22.8 59.1l57.9 63.8L224 382.6 334.2 504.1c6.4 7 16.3 9.7 25.4 6.6l72-24c7.7-2.6 13.6-8.8 15.6-16.7s0-16.2-5.4-22.2L303.3 295.2 224 207.8l-81.9-90.3C157.3 108.2 184.5 96 224 96zM202.4 406.5L123.2 319 6.3 447.9c-5.4 6-7.5 14.4-5.4 22.2s7.9 14.1 15.6 16.7l72 24c9 3 19 .4 25.4-6.6l88.6-97.7z"></path></symbol><symbol id="rocket" viewBox="0 0 1024 1024"><path d="M1024 0L704 64 384 384H192L0 640s203.412-56.662 322.063-30.094L0 1024l421.906-328.156C480.744 830.498 384 1024 384 1024l256-192V640l320-320zM853.09 248.246c-43.842 58.157-130.203-6.492-79.176-66.87 44.986-53.227 123.017 8.713 79.176 66.87z"></path></symbol><symbol id="search" viewBox="0 0 1024 1024"><path d="M992.262 871.396L749.71 665.102c-25.074-22.566-51.89-32.926-73.552-31.926C733.414 566.108 768 479.098 768 384 768 171.922 596.078 0 384 0 171.924 0 0 171.922 0 384s171.922 384 384 384c95.098 0 182.108-34.586 249.176-91.844-1 21.662 9.36 48.478 31.926 73.552L871.396 992.26c35.322 39.246 93.022 42.554 128.22 7.356s31.892-92.898-7.354-128.22zM384 640c-141.384 0-256-114.616-256-256s114.616-256 256-256 256 114.616 256 256-114.614 256-256 256z"></path></symbol><symbol id="select-column" viewBox="0 0 1024 1024"><path d="M512 0L276.48 373.76h470.976L512 0zm.064 1024L747.52 650.24l-471.04-.064L512.064 1024z"></path></symbol><symbol id="share" viewBox="0 0 25 25"><path d="m 14.417653,4.4453658 c -0.19977,-1.166972 0.360841,-1.5641347 1.441764,-1.4417652 l 8.650592,8.6505904 c 0.630357,0.538086 0.661981,0.845486 0,1.441765 l -8.650592,7.208827 c -0.893442,0.148885 -1.433048,-0.319648 -1.441764,-1.441766 v -2.88353 C 8.6505913,15.979487 4.3252961,17.421252 5.8027204e-7,21.746548 1.4417658,14.537723 5.7670614,8.7706609 14.417653,7.3288963 Z"></path></symbol><symbol id="share2" viewBox="0 0 512 512"><!--! Font Awesome Pro 6.3.0 by @fontawesome - https://fontawesome.com License - https://fontawesome.com/license (Commercial License) Copyright 2023 Fonticons, Inc.--><path d="M307 34.8c-11.5 5.1-19 16.6-19 29.2v64H176C78.8 128 0 206.8 0 304C0 417.3 81.5 467.9 100.2 478.1c2.5 1.4 5.3 1.9 8.1 1.9c10.9 0 19.7-8.9 19.7-19.7c0-7.5-4.3-14.4-9.8-19.5C108.8 431.9 96 414.4 96 384c0-53 43-96 96-96h96v64c0 12.6 7.4 24.1 19 29.2s25 3 34.4-5.4l160-144c6.7-6.1 10.6-14.7 10.6-23.8s-3.8-17.7-10.6-23.8l-160-144c-9.4-8.5-22.9-10.6-34.4-5.4z"></path></symbol><symbol id="sharp" viewBox="0 0 1024 1024"><path d="M960 384V256H799.872l32-256h-128l-32 256H415.936l32-256h-128l-32 256H64v128h207.936L240 640H64v128h160l-32 256h128l32-256h255.936l-32 256H704l32-256h224V640H752l31.872-256H960zM623.936 640H368l31.936-256h255.936l-31.936 256z"></path></symbol><symbol id="shrink-diagonal" viewBox="0 0 1024 1024"><path d="M448 576v416L288 832 96 1024 0 928l192-192L32 576zm576-480L832 288l160 160H576V32l160 160L928 0z"></path></symbol><symbol id="shrink" viewBox="0 0 1024 1024"><path d="M576 448h416L832 288l192-192-96-96-192 192L576 32zm0 128v416l160-160 192 192 96-96-192-192 160-160zm-128-.004H32l160 160-192 192 96 96 192-192 160 160zM448 448V32L288 192 96 0 0 96l192 192L32 448z"></path></symbol><symbol id="skull-crossbones" viewBox="0 0 512 512"><path d="M400 128c0 44.4-25.4 83.5-64 106.4V256c0 17.7-14.3 32-32 32H208c-17.7 0-32-14.3-32-32V234.4c-38.6-23-64-62.1-64-106.4C112 57.3 176.5 0 256 0s144 57.3 144 128zM200 176c17.7 0 32-14.3 32-32s-14.3-32-32-32s-32 14.3-32 32s14.3 32 32 32zm144-32c0-17.7-14.3-32-32-32s-32 14.3-32 32s14.3 32 32 32s32-14.3 32-32zM35.4 273.7c7.9-15.8 27.1-22.2 42.9-14.3L256 348.2l177.7-88.8c15.8-7.9 35-1.5 42.9 14.3s1.5 35-14.3 42.9L327.6 384l134.8 67.4c15.8 7.9 22.2 27.1 14.3 42.9s-27.1 22.2-42.9 14.3L256 419.8 78.3 508.6c-15.8 7.9-35 1.5-42.9-14.3s-1.5-35 14.3-42.9L184.4 384 49.7 316.6c-15.8-7.9-22.2-27.1-14.3-42.9z"></path></symbol><symbol id="skull" viewBox="0 0 512 512"><path d="M416 398.9c58.5-41.1 96-104.1 96-174.9C512 100.3 397.4 0 256 0S0 100.3 0 224c0 70.7 37.5 133.8 96 174.9c0 .4 0 .7 0 1.1v64c0 26.5 21.5 48 48 48h48V464c0-8.8 7.2-16 16-16s16 7.2 16 16v48h64V464c0-8.8 7.2-16 16-16s16 7.2 16 16v48h48c26.5 0 48-21.5 48-48V400c0-.4 0-.7 0-1.1zM224 256c0 35.3-28.7 64-64 64s-64-28.7-64-64s28.7-64 64-64s64 28.7 64 64zm128 64c-35.3 0-64-28.7-64-64s28.7-64 64-64s64 28.7 64 64s-28.7 64-64 64z"></path></symbol><symbol id="sliders" viewBox="0 0 512 512"><path d="M0 416c0-17.7 14.3-32 32-32l54.7 0c12.3-28.3 40.5-48 73.3-48s61 19.7 73.3 48L480 384c17.7 0 32 14.3 32 32s-14.3 32-32 32l-246.7 0c-12.3 28.3-40.5 48-73.3 48s-61-19.7-73.3-48L32 448c-17.7 0-32-14.3-32-32zm192 0c0-17.7-14.3-32-32-32s-32 14.3-32 32s14.3 32 32 32s32-14.3 32-32zM384 256c0-17.7-14.3-32-32-32s-32 14.3-32 32s14.3 32 32 32s32-14.3 32-32zm-32-80c32.8 0 61 19.7 73.3 48l54.7 0c17.7 0 32 14.3 32 32s-14.3 32-32 32l-54.7 0c-12.3 28.3-40.5 48-73.3 48s-61-19.7-73.3-48L32 288c-17.7 0-32-14.3-32-32s14.3-32 32-32l246.7 0c12.3-28.3 40.5-48 73.3-48zM192 64c-17.7 0-32 14.3-32 32s14.3 32 32 32s32-14.3 32-32s-14.3-32-32-32zm73.3 0L480 64c17.7 0 32 14.3 32 32s-14.3 32-32 32l-214.7 0c-12.3 28.3-40.5 48-73.3 48s-61-19.7-73.3-48L32 128C14.3 128 0 113.7 0 96S14.3 64 32 64l86.7 0C131 35.7 159.2 16 192 16s61 19.7 73.3 48z"></path></symbol><symbol id="space-invader" viewBox="0 0 1056 1024"><path d="M958.816 799.424V609.12h-93.12v191.008h-97.184v94.496H542.976v-95.2h225.536V704.32H288.8v95.136l192.96.672v95.136H288.128v-94.432h-97.152v-192.32H97.824v190.304H0V510.688h95.84v-92.512h95.136v-97.824H288.8v-95.808h95.808v96.096l287.456.768v-96.864h95.808v97.152h97.824v95.168h94.496V512h96.448v287.424h-97.824zM384.608 416.16H288.8V512h95.808v-95.84zm383.264 0h-95.808V512h95.808v-95.84zM190.976 128.736H288.8v95.808h-97.824v-95.808zm674.72 0v95.808h-97.824v-95.808h97.824z"></path></symbol><symbol id="spinner" viewBox="0 0 1024 1024"><path d="M384 128C384 57.308 441.308 0 512 0s128 57.308 128 128c0 70.692-57.308 128-128 128s-128-57.308-128-128zm271.53 112.47c0-70.692 57.308-128 128-128s128 57.308 128 128c0 70.692-57.308 128-128 128s-128-57.308-128-128zM832 512c0-35.346 28.654-64 64-64s64 28.654 64 64c0 35.346-28.654 64-64 64s-64-28.654-64-64zM719.53 783.53c0-35.346 28.654-64 64-64s64 28.654 64 64c0 35.346-28.654 64-64 64s-64-28.654-64-64zM448.002 896c0-35.346 28.654-64 64-64s64 28.654 64 64c0 35.346-28.654 64-64 64s-64-28.654-64-64zm-271.53-112.47c0-35.346 28.654-64 64-64s64 28.654 64 64c0 35.346-28.654 64-64 64s-64-28.654-64-64zm-32-543.06c0-53.02 42.98-96 96-96s96 42.98 96 96-42.98 96-96 96-96-42.98-96-96zM56 512c0-39.765 32.235-72 72-72s72 32.235 72 72-32.235 72-72 72-72-32.235-72-72z"></path></symbol><symbol id="square-caret-down" viewBox="0 0 448 512"><path d="M384 480c35.3 0 64-28.7 64-64l0-320c0-35.3-28.7-64-64-64L64 32C28.7 32 0 60.7 0 96L0 416c0 35.3 28.7 64 64 64l320 0zM224 352c-6.7 0-13-2.8-17.6-7.7l-104-112c-6.5-7-8.2-17.2-4.4-25.9s12.5-14.4 22-14.4l208 0c9.5 0 18.2 5.7 22 14.4s2.1 18.9-4.4 25.9l-104 112c-4.5 4.9-10.9 7.7-17.6 7.7z"></path></symbol><symbol id="square-check" viewBox="0 0 448 512"><path d="M64 32C28.7 32 0 60.7 0 96V416c0 35.3 28.7 64 64 64H384c35.3 0 64-28.7 64-64V96c0-35.3-28.7-64-64-64H64zM337 209L209 337c-9.4 9.4-24.6 9.4-33.9 0l-64-64c-9.4-9.4-9.4-24.6 0-33.9s24.6-9.4 33.9 0l47 47L303 175c9.4-9.4 24.6-9.4 33.9 0s9.4 24.6 0 33.9z"></path></symbol><symbol id="suitcase" viewBox="0 0 1024 1024"><path d="M768 256V128c0-47.146-38.186-85.334-85.334-85.334H341.334C294.188 42.666 256 80.852 256 128v128H85.334C38.188 256 0 294.186 0 341.334V896c0 47.146 38.186 85.334 85.334 85.334h853.334c47.146 0 85.334-38.186 85.334-85.334L1024 341.334c0-47.146-38.186-85.334-85.334-85.334H768zM409.6 149.334h204.8a46.798 46.798 0 0 1 46.934 46.932V256H362.666v-59.734a46.798 46.798 0 0 1 46.934-46.932zm-153.6 256V832c0 23.466-19.2 42.666-42.666 42.666s-42.666-19.2-42.666-42.666l-.002-426.666c0-23.466 19.2-42.666 42.666-42.666S256 381.866 256 405.334zm597.334 0V832c0 23.466-19.2 42.666-42.666 42.666s-42.666-19.2-42.666-42.666L768 405.334c0-23.466 19.2-42.666 42.666-42.666s42.668 19.198 42.668 42.666z"></path></symbol><symbol id="sun" viewBox="0 0 512 512"><path d="M361.5 1.2c5 2.1 8.6 6.6 9.6 11.9L391 121l107.9 19.8c5.3 1 9.8 4.6 11.9 9.6s1.5 10.7-1.6 15.2L446.9 256l62.3 90.3c3.1 4.5 3.7 10.2 1.6 15.2s-6.6 8.6-11.9 9.6L391 391 371.1 498.9c-1 5.3-4.6 9.8-9.6 11.9s-10.7 1.5-15.2-1.6L256 446.9l-90.3 62.3c-4.5 3.1-10.2 3.7-15.2 1.6s-8.6-6.6-9.6-11.9L121 391 13.1 371.1c-5.3-1-9.8-4.6-11.9-9.6s-1.5-10.7 1.6-15.2L65.1 256 2.8 165.7c-3.1-4.5-3.7-10.2-1.6-15.2s6.6-8.6 11.9-9.6L121 121 140.9 13.1c1-5.3 4.6-9.8 9.6-11.9s10.7-1.5 15.2 1.6L256 65.1 346.3 2.8c4.5-3.1 10.2-3.7 15.2-1.6zM352 256c0 53-43 96-96 96s-96-43-96-96s43-96 96-96s96 43 96 96zm32 0c0-70.7-57.3-128-128-128s-128 57.3-128 128s57.3 128 128 128s128-57.3 128-128z"></path></symbol><symbol id="switch" viewBox="0 0 1024 1024"><path d="M640 146.588v135.958c36.206 15.804 69.5 38.408 98.274 67.18C798.716 410.166 832 490.526 832 576s-33.286 165.834-93.726 226.274S597.476 896 512 896s-165.834-33.286-226.274-93.726S192 661.474 192 576s33.286-165.834 93.726-226.274c28.774-28.774 62.068-51.378 98.274-67.182V146.588C198.952 201.668 64 373.06 64 576c0 247.424 200.578 448 448 448s448-200.576 448-448c0-202.94-134.95-374.332-320-429.412zM448 0h128v512H448z"></path></symbol><symbol id="table-cells" viewBox="0 0 512 512"><path d="M64 32C28.7 32 0 60.7 0 96V416c0 35.3 28.7 64 64 64H448c35.3 0 64-28.7 64-64V96c0-35.3-28.7-64-64-64H64zm88 64v64H64V96h88zm56 0h88v64H208V96zm240 0v64H360V96h88zM64 224h88v64H64V224zm232 0v64H208V224h88zm64 0h88v64H360V224zM152 352v64H64V352h88zm56 0h88v64H208V352zm240 0v64H360V352h88z"></path></symbol><symbol id="table-columns" viewBox="0 0 512 512"><path d="M0 96C0 60.7 28.7 32 64 32H448c35.3 0 64 28.7 64 64V416c0 35.3-28.7 64-64 64H64c-35.3 0-64-28.7-64-64V96zm64 64V416H224V160H64zm384 0H288V416H448V160z"></path></symbol><symbol id="table-list" viewBox="0 0 512 512"><path d="M0 96C0 60.7 28.7 32 64 32H448c35.3 0 64 28.7 64 64V416c0 35.3-28.7 64-64 64H64c-35.3 0-64-28.7-64-64V96zm64 0v64h64V96H64zm384 0H192v64H448V96zM64 224v64h64V224H64zm384 0H192v64H448V224zM64 352v64h64V352H64zm384 0H192v64H448V352z"></path></symbol><symbol id="table" viewBox="0 0 512 512"><path d="M64 256V160H224v96H64zm0 64H224v96H64V320zm224 96V320H448v96H288zM448 256H288V160H448v96zM64 32C28.7 32 0 60.7 0 96V416c0 35.3 28.7 64 64 64H448c35.3 0 64-28.7 64-64V96c0-35.3-28.7-64-64-64H64z"></path></symbol><symbol id="thumbtack" viewBox="0 0 384 512"><!--! Font Awesome Pro 6.3.0 by @fontawesome - https://fontawesome.com License - https://fontawesome.com/license (Commercial License) Copyright 2023 Fonticons, Inc.--><path d="M32 32C32 14.3 46.3 0 64 0H320c17.7 0 32 14.3 32 32s-14.3 32-32 32H290.5l11.4 148.2c36.7 19.9 65.7 53.2 79.5 94.7l1 3c3.3 9.8 1.6 20.5-4.4 28.8s-15.7 13.3-26 13.3H32c-10.3 0-19.9-4.9-26-13.3s-7.7-19.1-4.4-28.8l1-3c13.8-41.5 42.8-74.8 79.5-94.7L93.5 64H64C46.3 64 32 49.7 32 32zM160 384h64v96c0 17.7-14.3 32-32 32s-32-14.3-32-32V384z"></path></symbol><symbol id="toggle-off" viewBox="0 0 1170 1024"><path d="M658.286 512q0-59.43-23.143-113.43t-62.57-93.428-93.43-62.57-113.43-23.144-113.428 23.143-93.43 62.572-62.57 93.43T73.142 512t23.143 113.43 62.57 93.428 93.43 62.57 113.43 23.144 113.428-23.143 93.43-62.572 62.57-93.43T658.286 512zm438.857 0q0-59.43-23.143-113.43t-62.57-93.428-93.43-62.57-113.43-23.144H584q68 51.43 107.714 128t39.714 164.57-39.714 164.572T584 804.57h220.57q59.43 0 113.43-23.143t93.43-62.57 62.57-93.43 23.143-113.43zm73.143 0q0 74.286-29.143 142t-78 116.57-116.57 78-142 29.144H365.714q-74.286 0-142-29.143t-116.57-78-78-116.57T0 512t29.144-142 78-116.57 116.57-78 142-29.144h438.858q74.286 0 142 29.143t116.57 78 78 116.57 29.144 142z"></path></symbol><symbol id="toggle-on" viewBox="0 0 1170 1024"><path d="M0 512q0-74.286 29.143-142t78-116.57 116.57-78 142-29.144H804.57q74.288 0 142 29.143t116.573 78 78 116.57 29.143 142-29.143 142-78 116.57-116.57 78-142 29.143h-438.86q-74.286 0-142-29.143t-116.57-78-78-116.57T0 512zm804.57 292.57q59.43 0 113.43-23.142t93.43-62.57 62.57-93.43 23.143-113.43T1074 398.57t-62.57-93.43T918 242.57t-113.43-23.143-113.428 23.143-93.43 62.57-62.57 93.43T512 512t23.142 113.428 62.57 93.43 93.43 62.57 113.43 23.143z"></path></symbol><symbol id="umbrella" viewBox="0 0 1022 1024"><path d="M512 0C229.76 0 0 229.696 0 512h128c0-26.432 21.632-48 48-48 26.496 0 48 21.568 48 48h128c0-26.432 21.632-48 48-48 26.496 0 48 21.568 48 48v320c0 35.264-28.64 64-64 64-35.264 0-64-28.736-64-64H192c0 105.888 86.24 192 192 192 105.984 0 192-86.112 192-192V512c0-26.432 21.632-48 48-48 26.496 0 47.936 21.568 47.936 48h128c0-26.432 21.76-48 48-48 26.496 0 48 21.568 48 48h128C1023.936 229.696 794.432 0 512 0z"></path></symbol><symbol id="unlocked" viewBox="0 0 1024 1024"><path d="M85.334 938.666c0 47.146 38.186 85.334 85.334 85.334h682.666c47.146 0 85.334-38.186 85.334-85.334L938.666 512c0-47.146-38.186-85.334-85.334-85.334H341.334V277.332c0-94.294 76.374-170.666 170.666-170.666s170.666 76.374 170.666 170.666v10.666c0 29.44 23.894 53.334 53.334 53.334s53.334-23.894 53.334-53.334v-10.664C789.334 124.16 665.174 0 512 0 358.806 0 234.666 124.16 234.666 277.334v149.334l-64-.002c-47.146 0-85.334 38.186-85.334 85.334l.002 426.666zm341.332-277.332C426.666 614.188 464.852 576 512 576s85.334 38.186 85.334 85.334c0 30.08-15.574 56.534-39.04 71.68 0 0 8.342 50.346 17.706 109.654 0 17.706-14.294 32-32 32h-64c-17.706 0-32-14.294-32-32l17.706-109.654c-23.466-15.148-39.04-41.6-39.04-71.68z"></path></symbol><symbol id="up-right-from-square" viewBox="0 0 512 512"><!--! Font Awesome Pro 6.3.0 by @fontawesome - https://fontawesome.com License - https://fontawesome.com/license (Commercial License) Copyright 2023 Fonticons, Inc.--><path d="M352 0c-12.9 0-24.6 7.8-29.6 19.8s-2.2 25.7 6.9 34.9L370.7 96 201.4 265.4c-12.5 12.5-12.5 32.8 0 45.3s32.8 12.5 45.3 0L416 141.3l41.4 41.4c9.2 9.2 22.9 11.9 34.9 6.9s19.8-16.6 19.8-29.6V32c0-17.7-14.3-32-32-32H352zM80 32C35.8 32 0 67.8 0 112V432c0 44.2 35.8 80 80 80H400c44.2 0 80-35.8 80-80V320c0-17.7-14.3-32-32-32s-32 14.3-32 32V432c0 8.8-7.2 16-16 16H80c-8.8 0-16-7.2-16-16V112c0-8.8 7.2-16 16-16H192c17.7 0 32-14.3 32-32s-14.3-32-32-32H80z"></path></symbol><symbol id="upload" viewBox="0 0 1024 1024"><path d="M0 896h1024v64H0zm1024-128v64H0v-64l128-256h256v128h256V512h256zM224 320L512 32l288 288H576v256H448V320z"></path></symbol><symbol id="upload2" viewBox="0 0 1024 1024"><path d="M832 64H192L0 256v672c0 17.674 14.326 32 32 32h960c17.672 0 32-14.326 32-32V256L832 64zM640 640v192H384V640H192l320-256 320 256H640zM154.51 192l64-64h586.976l64 64H154.51z"></path></symbol><symbol id="user" viewBox="0 0 1024 1024"><path d="M889.366 737.92c-44.8-58.454-98.986-96.426-176.618-117.952L640 874.666c0 23.466-19.2 42.666-42.666 42.666s-42.666-19.2-42.666-42.666V672c0-29.44-23.894-53.334-53.334-53.334S448 642.56 448 672v202.666c0 23.466-19.2 42.666-42.666 42.666s-42.666-19.2-42.666-42.666l-72.746-254.698c-77.654 21.76-131.84 59.498-176.64 117.952-17.708 23.04-27.308 69.334-27.948 94.08v106.666c0 47.146 38.186 85.334 85.334 85.334h661.334c47.146 0 85.334-38.186 85.334-85.334V832c-.642-24.746-10.242-71.04-27.97-94.08zM501.334 533.334c143.786 0 224-183.04 224-307.628S625.066 0 501.334 0s-224 101.12-224 225.706 77.652 307.628 224 307.628z"></path></symbol><symbol id="users" viewBox="0 0 640 512"><path d="M144 160c-44.2 0-80-35.8-80-80S99.8 0 144 0s80 35.8 80 80s-35.8 80-80 80zm368 0c-44.2 0-80-35.8-80-80s35.8-80 80-80s80 35.8 80 80s-35.8 80-80 80zM0 298.7C0 239.8 47.8 192 106.7 192h42.7c15.9 0 31 3.5 44.6 9.7c-1.3 7.2-1.9 14.7-1.9 22.3c0 38.2 16.8 72.5 43.3 96c-.2 0-.4 0-.7 0H21.3C9.6 320 0 310.4 0 298.7zM405.3 320c-.2 0-.4 0-.7 0c26.6-23.5 43.3-57.8 43.3-96c0-7.6-.7-15-1.9-22.3c13.6-6.3 28.7-9.7 44.6-9.7h42.7C592.2 192 640 239.8 640 298.7c0 11.8-9.6 21.3-21.3 21.3H405.3zM416 224c0 53-43 96-96 96s-96-43-96-96s43-96 96-96s96 43 96 96zM128 485.3C128 411.7 187.7 352 261.3 352H378.7C452.3 352 512 411.7 512 485.3c0 14.7-11.9 26.7-26.7 26.7H154.7c-14.7 0-26.7-11.9-26.7-26.7z"></path></symbol><symbol id="venus" viewBox="0 0 384 512"><path d="M304 176c0 61.9-50.1 112-112 112s-112-50.1-112-112s50.1-112 112-112s112 50.1 112 112zM224 349.1c81.9-15 144-86.8 144-173.1C368 78.8 289.2 0 192 0S16 78.8 16 176c0 86.3 62.1 158.1 144 173.1V384H128c-17.7 0-32 14.3-32 32s14.3 32 32 32h32v32c0 17.7 14.3 32 32 32s32-14.3 32-32V448h32c17.7 0 32-14.3 32-32s-14.3-32-32-32H224V349.1z"></path></symbol><symbol id="video-play" viewBox="0 0 1024 1024"><path d="M392.33 755.598v-477.47l389.374 238.74-389.374 238.73zM560.393 14.722C719.5 30.214 862.765 121.45 943.673 261.592s88.28 309.825 22.144 455.36l-84.343-48.694c49.155-115.306 41.98-248.11-21.625-358.272-63.597-110.16-175.026-182.773-299.46-197.863v-97.4zM917.438 800.78C824.464 930.824 673.82 1009.278 512 1009.278S199.537 930.824 106.562 800.78l84.35-48.7C266.198 852.3 384.8 912.49 512 912.49s245.8-60.19 321.085-160.41l84.356 48.7zm-859.26-83.824C-7.956 571.42-.585 401.734 80.32 261.596 161.23 121.452 304.498 30.217 463.603 14.722v97.4c-124.435 15.086-235.862 87.704-299.46 197.863-63.603 110.16-70.78 242.966-21.626 358.272l-84.343 48.698z"></path></symbol><symbol id="video-play2" viewBox="0 0 1024 1024"><path d="M512 200.574c-173.432 0-314.026 138.9-314.026 310.245 0 171.34 140.594 310.24 314.026 310.24 173.434 0 314.028-138.902 314.028-310.244 0-171.347-140.59-310.246-314.028-310.246zM422.98 681.74V347.51l272.563 167.116-272.564 167.11zM560.392 14.72C719.5 30.214 862.765 121.45 943.672 261.592s88.28 309.825 22.145 455.36l-84.343-48.694c49.155-115.306 41.98-248.11-21.625-358.272-63.6-110.16-175.03-182.773-299.46-197.863v-97.4zm357.046 786.06C824.464 930.824 673.82 1009.278 512 1009.278S199.537 930.824 106.562 800.78l84.35-48.7C266.198 852.3 384.8 912.49 512 912.49s245.8-60.19 321.085-160.41l84.356 48.7zm-859.26-83.824C-7.956 571.42-.585 401.734 80.32 261.596c80.91-140.144 224.178-231.38 383.283-246.874v97.4c-124.435 15.086-235.862 87.704-299.46 197.863-63.603 110.16-70.78 242.966-21.626 358.272l-84.343 48.698z"></path></symbol><symbol id="warning" viewBox="0 0 1024 1024"><path d="M1019.296 874.976L544.192 34.752C537.632 23.136 525.312 16 512 16c-13.344 0-25.6 7.168-32.192 18.752L4.768 874.976a36.664 36.664 0 0 0 .256 36.608c6.592 11.296 18.752 18.208 31.904 18.208H987.04c12.992 0 25.248-6.912 31.904-18.208a36.9 36.9 0 0 0 .352-36.608zm-448.64-52.672H453.312v-107.52h117.344v107.52zm0-188.128H453.312V311.648h117.344v322.528z"></path></symbol><symbol id="xmark2" viewBox="0 0 320 512"><path d="M310.6 150.6c12.5-12.5 12.5-32.8 0-45.3s-32.8-12.5-45.3 0L160 210.7 54.6 105.4c-12.5-12.5-32.8-12.5-45.3 0s-12.5 32.8 0 45.3L114.7 256 9.4 361.4c-12.5 12.5-12.5 32.8 0 45.3s32.8 12.5 45.3 0L160 301.3 265.4 406.6c12.5 12.5 32.8 12.5 45.3 0s12.5-32.8 0-45.3L205.3 256 310.6 150.6z"></path></symbol><symbol id="youtube" viewBox="0 0 576 512"><path d="M549.655 124.083c-6.281-23.65-24.787-42.276-48.284-48.597C458.781 64 288 64 288 64S117.22 64 74.629 75.486c-23.497 6.322-42.003 24.947-48.284 48.597-11.412 42.867-11.412 132.305-11.412 132.305s0 89.438 11.412 132.305c6.281 23.65 24.787 41.5 48.284 47.821C117.22 448 288 448 288 448s170.78 0 213.371-11.486c23.497-6.321 42.003-24.171 48.284-47.821 11.412-42.867 11.412-132.305 11.412-132.305s0-89.438-11.412-132.305zm-317.51 213.508V175.185l142.739 81.205-142.739 81.201z"></path></symbol></svg>