<svg xmlns="http://www.w3.org/2000/svg">
  <symbol id="color-circle" viewBox="0 0 1024 1024">
    <path d="M1024 512H859c0-96-39-183-102-245l117-117c93 93 150 221 150 362z" fill="#f6bb42"/><path d="M859 512h165c0 141-57 269-150 362L757 757c63-62 102-149 102-245z" fill="#8cc152"/><path d="M874 874a510 510 0 01-362 150V859c96 0 183-39 245-102z" fill="#37bc9b"/><path d="M874 150L757 267a346 346 0 00-245-102V0c142 0 269 57 362 150z" fill="#e9573f"/><path d="M859 512H694c0-50-21-96-54-128l117-117c63 62 102 149 102 245z" fill="#ffce54"/><path d="M640 640l117 117a346 346 0 01-245 102V694c50 0 96-21 128-54z" fill="#48cfad"/><path d="M512 859v165c-141 0-269-57-362-150l117-117c62 63 149 102 245 102z" fill="#4a89dc"/><path d="M512 694v165c-96 0-183-39-245-102l116-117c33 33 79 54 129 54z" fill="#5d9cec"/><path d="M512 165v165c-50 0-95 21-128 54L267 267c62-63 149-102 245-102z" fill="#ed5565"/><path d="M267 757L150 874A510 510 0 010 512h165c0 96 39 183 102 245z" fill="#967adc"/><path d="M694 512h165c0 96-39 183-102 245L641 640c32-32 53-78 53-128z" fill="#a0d468"/><path d="M267 267l116 116c-32 33-53 79-53 129H165c0-96 39-183 102-245z" fill="#ec87c0"/><path d="M384 640L267 757a346 346 0 01-102-245h165c0 50 21 96 54 128z" fill="#ac92ec"/><path d="M150 150l117 117a346 346 0 00-102 245H0c0-141 57-269 150-362z" fill="#d770ad"/><path d="M757 267L641 383c-33-32-79-53-129-53V165c96 0 183 39 245 102z" fill="#fc6e51"/><path d="M512 0v165c-96 0-183 39-245 102L150 150C243 57 371 0 512 0z" fill="#da4453"/>
  </symbol>
  <symbol id="rgb" viewBox="0 0 1024 1024">
    <path d="M811 299.5c0 165.133-133.867 299-299 299-165.132 0-299-133.867-299-299S346.868.5 512 .5c165.133 0 299 133.867 299 299zm0 0" fill="#42c0e2"/><path d="M1024 685.343c0 165.134-133.867 299.001-298.999 299.001C559.867 984.344 426 850.477 426 685.343c0-165.132 133.867-298.999 299.001-298.999 165.132 0 298.999 133.867 298.999 298.999zm0 0" fill="#ffd061"/><path d="M441.493 590.117c22.609 5.461 46.218 8.383 70.507 8.383 131.836 0 243.743-85.328 283.508-203.773-22.609-5.469-46.219-8.383-70.507-8.383-131.837 0-243.743 85.328-283.508 203.773zm0 0" fill="#49bd90"/><path d="M598 685.343c0 165.134-133.867 299.001-299 299.001S0 850.477 0 685.343c0-165.132 133.867-298.999 299-298.999s299 133.867 299 298.999zm0 0" fill="#fa70b2"/><path d="M228.492 394.727C268.258 513.172 380.164 598.5 512 598.5c24.289 0 47.898-2.922 70.508-8.383C542.742 471.672 430.836 386.344 299 386.344c-24.29 0-47.899 2.914-70.508 8.383zm0 0" fill="#af7bc6"/><path d="M426 685.343c0 81.759 32.828 155.837 86 209.813 53.172-53.976 86-128.054 86-209.813 0-81.757-32.828-155.835-86-209.812-53.172 53.977-86 128.055-86 209.812zm0 0" fill="#ef6122"/><path d="M582.508 590.141c-22.61 5.453-46.226 8.359-70.508 8.359-24.281 0-47.898-2.906-70.507-8.359 14.624-43.555 38.991-82.61 70.507-114.61 31.516 32 55.883 71.055 70.508 114.61zm0 0" fill="#fff"/>
  </symbol>
</svg>
