<?xml version="1.0" encoding="UTF-8" standalone="no"?>
<svg
   width="1000"
   height="1000"
   version="1.1"
   id="svg21"
   sodipodi:docname="faviconMaskable2.svg"
   inkscape:version="1.3.1 (9b9bdc1480, 2023-11-25, custom)"
   xmlns:inkscape="http://www.inkscape.org/namespaces/inkscape"
   xmlns:sodipodi="http://sodipodi.sourceforge.net/DTD/sodipodi-0.dtd"
   xmlns="http://www.w3.org/2000/svg"
   xmlns:svg="http://www.w3.org/2000/svg">
  <defs
     id="defs21" />
  <sodipodi:namedview
     id="namedview21"
     pagecolor="#505050"
     bordercolor="#ffffff"
     borderopacity="1"
     inkscape:showpageshadow="0"
     inkscape:pageopacity="0"
     inkscape:pagecheckerboard="1"
     inkscape:deskcolor="#505050"
     inkscape:zoom="1.168"
     inkscape:cx="500"
     inkscape:cy="500"
     inkscape:window-width="2560"
     inkscape:window-height="1371"
     inkscape:window-x="0"
     inkscape:window-y="0"
     inkscape:window-maximized="1"
     inkscape:current-layer="svg21" />
  <path
     d="m 723.8613,248.88374 c 0,37.48137 -32.37025,68.14793 -72.40714,68.14793 -40.03692,0 -72.40718,-30.66656 -72.40718,-68.14793 0,-37.48135 32.37026,-68.14791 72.40718,-68.14791 36.6295,0 67.29605,25.55547 71.5553,60.48128 m -310.07304,7.66663 a 72.407164,68.14792 0 1 1 -0.85184,-7.66663"
     fill="#ffeeaa"
     id="path1"
     style="stroke-width:0.851849" />
  <path
     d="m 532.19529,557.25309 c 149.07357,174.62904 386.73944,34.92582 289.62864,-144.81433 6.81481,5.96294 28.11103,-11.92589 25.55548,-8.51849 105.62928,310.07304 -321.99892,310.07304 -383.33204,161.85132 -8.51849,-22.14809 17.03698,-7.66665 68.14792,-8.5185 z"
     fill="#ffeeaa"
     id="path2"
     style="stroke-width:0.851849" />
  <path
     d="m 779.23149,293.1799 c 68.99976,77.51825 -63.03682,100.51819 68.14792,144.81434 C 944.4902,375.80925 775.8241,274.43922 779.23149,293.1799 Z"
     fill="#a05a2c"
     id="path3"
     style="stroke-width:0.851849" />
  <path
     fill="#ffcc00"
     d="m 710.23171,254.84669 c 0,31.51842 -26.40731,57.07389 -58.77755,57.07389 -32.37028,0 -58.77759,-25.55547 -58.77759,-57.07389 0,-31.5184 26.40731,-57.07388 58.77759,-57.07388 29.8147,0 54.51831,21.29623 57.92572,50.2591 m -300.7027,9.37033 a 62.184976,59.629429 0 1 1 0,-6.8148"
     id="path4"
     style="stroke-width:0.851849" />
  <path
     d="m 557.75075,777.03014 c 2.55556,-58.77759 -54.51834,-192.51789 -51.11093,-255.55471 24.70362,0 43.4443,-18.74068 68.14792,-17.03698 0.85184,0 153.33281,243.62881 153.33281,247.03621 -30.66657,2.55554 -147.36987,30.66657 -170.3698,25.55548 z"
     fill="#ffeeaa"
     id="path5"
     style="stroke-width:0.851849" />
  <path
     d="M 302.19606,734.43768 412.93642,495.91996 c 0.85186,-0.85185 92.85155,24.70362 93.7034,25.55547 0.85184,0.85184 -67.29608,247.03621 -68.14792,247.03621 40.0369,2.55554 -108.18483,-10.22219 -136.29584,-34.07396 z"
     fill="#ffeeaa"
     id="path6"
     style="stroke-width:0.851849" />
  <path
     d="m 447.01039,376.66111 a 25.555471,25.555471 0 1 0 -51.11094,0 25.555471,25.555471 0 0 0 51.11094,0 z m 144.81433,0 a 25.555475,25.555475 0 1 1 -51.11095,0 25.555475,25.555475 0 0 1 51.11095,0 z"
     fill="#ffffff"
     id="path7"
     style="stroke-width:0.851849" />
  <path
     d="m 591.82472,378.3648 c -351.81364,344.99884 -176.33274,172.92533 0,0 z"
     fill="#ffb380"
     id="path8"
     style="stroke-width:0.851849" />
  <path
     d="m 434.23266,375.80925 a 12.77774,12.77774 0 1 1 -25.55548,0 12.77774,12.77774 0 0 1 25.55548,0 z m 143.96247,0 a 12.777738,12.777738 0 1 1 -25.55547,0 12.777738,12.777738 0 0 1 25.55547,0 z"
     id="path9"
     style="stroke-width:0.851849" />
  <path
     d="m 523.6768,649.25278 c 22.99992,-80.92566 -2.55556,-23.85177 -34.07396,-17.03698 -73.25902,15.33328 0,-63.88868 -51.11094,-68.14792 -42.59245,-11.92589 -68.14793,119.25886 -140.55508,45.99984 -17.88883,-17.88881 23.85176,-66.44422 12.77774,-88.59229 -6.81481,-24.70361 -42.59246,-10.22218 -51.11094,-34.07396 -8.5185,-22.14808 0,-38.33321 8.51848,-42.59245 18.74068,-8.51849 22.14808,-17.88883 25.55547,-34.07396 2.55555,-21.29621 -36.62951,-33.22211 -42.59245,-59.62942 -5.11109,-22.14808 22.99993,-38.33321 17.03698,-68.14793 -6.81479,-38.33321 66.44421,33.22212 57.92573,4.25924 -5.11109,-19.59252 -19.59252,-57.07387 -15.33327,-63.88866 18.74067,-22.14808 57.92572,-33.22212 68.1479,-25.55548 22.99994,17.88882 26.40733,45.99986 42.59245,25.55548 16.18513,-26.40732 -81.7775,-62.18498 42.59246,-76.66642 51.96278,-6.81478 29.81472,103.07373 59.62943,85.18491 16.18514,-9.37035 -33.22212,-57.07389 46.85169,-74.96271 57.92573,-11.07404 64.74053,30.66655 38.33321,49.40723 -16.18513,11.92589 -5.1111,24.70363 0,34.07397 57.92573,-2.55556 -1.70371,-55.37019 68.14791,-42.59246 103.07373,18.74068 -35.77766,80.07381 8.51849,93.70339 18.74069,11.92589 48.5554,-69.85161 59.62943,-42.59246 14.48144,21.29624 -1.7037,68.99978 -51.11094,110.74039 -1.70369,33.2221 42.59244,7.66663 59.62943,8.51849 37.48136,0.85184 -42.59245,74.11086 -68.14792,68.14791 -0.85184,16.18513 40.88876,28.11102 51.11093,51.11094 22.99994,53.66649 -22.99991,57.07389 -68.1479,25.55548 -45.99985,-5.96295 -7.66665,60.48126 25.55546,51.11093 27.25918,-7.66665 6.8148,79.22195 -68.14791,17.03698 -49.40724,-28.96287 -44.29616,-23.85177 -17.03698,25.55547 9.37034,36.6295 -72.40717,55.37019 -85.1849,42.59245 z"
     fill="#a05a2c"
     id="path10"
     style="stroke-width:0.851849" />
  <path
     d="m 353.307,461.84599 c -46.85169,-79.22195 -6.8148,-133.74029 0,-144.81432 8.51848,-13.62958 58.77758,-78.3701 110.74037,-8.51848 27.25916,20.44437 52.81463,8.51848 59.62943,0 50.25908,-63.88869 92.85154,-16.18514 110.74037,8.51848 22.14807,40.88875 21.29623,79.22196 8.51849,119.25886 -7.66664,40.03691 -55.37019,88.59229 -144.81433,93.70339 -60.48129,0 -102.22188,-6.8148 -144.81433,-68.14793 z"
     fill="#ffcc00"
     id="path11"
     style="stroke-width:0.851849" />
  <path
     d="m 438.4919,395.40178 c -13.62959,10.22219 -34.07397,1.70369 -47.70355,-18.74067 -12.77773,-20.44438 -12.77773,-45.148 0,-54.51835 12.77773,-9.37033 34.07396,-0.85184 47.70355,18.74068 12.77773,20.44438 12.77773,45.148 0,54.51834 z"
     fill="#ffeeaa"
     id="path12"
     style="stroke-width:0.851849" />
  <path
     d="m 442.75114,372.40186 a 21.296226,21.296226 0 1 1 -42.59245,0 21.296226,21.296226 0 0 1 42.59245,0 z"
     id="path13"
     style="stroke-width:0.851849" />
  <path
     d="m 583.30623,322.99462 c 14.48143,7.66664 17.88883,30.66655 6.81478,51.96279 -10.22218,20.44437 -31.5184,31.51841 -45.99984,23.85176 -15.33328,-7.66664 -17.88882,-30.66655 -7.66664,-51.96277 11.07404,-20.44438 31.51841,-31.51844 46.8517,-23.85178 l -19.59253,38.3332 z"
     fill="#ffeeaa"
     id="path14"
     style="stroke-width:0.851849" />
  <path
     d="m 579.04698,372.40186 a 21.296226,21.296226 0 1 1 -42.59245,0 21.296226,21.296226 0 0 1 42.59245,0 z"
     id="path15"
     style="stroke-width:0.851849" />
  <path
     d="m 442.75114,495.91996 c -38.33321,-3.40739 -52.81463,-70.70347 -4.25924,-76.66641 1.7037,-37.48135 79.22196,-69.85162 102.22187,0 55.37019,11.07404 28.96287,82.62935 -8.51848,76.66641 -11.92589,10.22219 -42.59245,22.14807 -89.44415,0 z"
     fill="#ffeeaa"
     id="path16"
     style="stroke-width:0.851849" />
  <path
     d="m 421.45491,453.3275 c 14.48144,-51.96277 137.1477,-49.40723 136.29584,0 4.25925,49.40725 -126.92549,57.07389 -136.29584,0 z"
     fill="#ffffff"
     id="path17"
     style="stroke-width:0.851849" />
  <path
     d="m 455.52888,419.25355 c 11.92589,-5.11109 30.66655,-20.44438 63.88866,0 -0.85183,24.70361 -11.07403,47.70355 -29.8147,51.11093 -20.44438,-2.55553 -29.81472,-21.29622 -34.07396,-51.11093 z"
     fill="#784421"
     id="path18"
     style="stroke-width:0.851849" />
  <path
     d="m 468.30661,478.88298 c 0,1.70371 22.14807,12.77773 21.29623,-8.5185 0,16.18513 11.92589,15.33329 22.14807,9.37036 -11.92589,6.81477 -12.77774,3.40738 -22.14807,3.40738 -7.66665,-0.85185 -9.37034,5.96296 -21.29623,-4.25924 z"
     stroke="#000000"
     stroke-width="1.40842"
     id="path19" />
  <path
     d="m 451.26963,768.51164 c 0,44.29614 -43.44431,80.92565 -97.96263,80.92565 -54.51833,0 -97.96264,-36.62951 -97.96264,-80.92565 0,-44.29615 43.44431,-80.92565 97.96264,-80.92565 49.40724,0 91.14785,30.66656 97.11078,71.5553 m 300.70271,5.1111 c 0,44.29615 -44.29617,80.92566 -99.66633,80.92566 -55.3702,0 -99.66634,-36.62951 -99.66634,-80.92566 0,-44.29615 44.29614,-80.92565 99.66634,-80.92565 54.51831,0 98.81447,35.77765 99.66633,80.0738"
     fill="#ffcc00"
     id="path20"
     style="stroke-width:0.851849" />
  <path
     d="m 319.23305,768.51164 c -15.3333,-13.62959 -45.99986,1.7037 -34.07397,59.62943 l 17.03698,8.51849 c -29.81471,-42.59246 -8.51849,-70.70347 17.03699,-68.14792 z m 51.11092,8.5185 c -15.33328,-13.6296 -45.99983,12.77772 -34.07395,70.70345 l 17.03698,1.7037 c -29.81471,-42.59245 -8.51849,-74.96271 17.03697,-72.40715 z m 306.66564,-8.5185 c 15.33329,-13.62959 45.99985,1.7037 34.07396,59.62943 l -17.03698,8.51849 c 29.81471,-42.59246 8.51849,-70.70347 -17.03698,-68.14792 z m -68.14791,0 c 15.33327,-13.62959 45.99984,18.74068 34.07396,76.66641 l -17.03698,-2.55555 c 29.81472,-42.59245 8.51849,-76.66641 -17.03698,-74.11086 z"
     fill="#a05a2c"
     id="path21"
     style="stroke-width:0.851849" />
</svg>
