<svg xmlns="http://www.w3.org/2000/svg">
  <symbol id="1" viewBox="0 0 900 2226">
    <path d="m312 5-1 11c-1 15-3 28-4 28s-5-3-8-7l-20-17v5l3 2 15 19c6 7 6 9-3 9l-27 4c0 2 14 5 24 5 7 0 8 0 9 2l-1 2-8 11-8 12c-2 3-3 6-1 6 1 0 10-7 19-16 5-5 9-6 9-4 0 9 4 37 5 39 1 3 2-3 3-20l2-19c1-1 6 2 17 11 8 7 12 10 13 9l-4-6a108 108 0 0 1-9-12c-4-2-10-14-8-14a2589 2589 0 0 0 32-4c3-1 3-1 1-2l-8-1-28-4c-1-1 3-8 8-15l8-11c0-3-3 0-11 7-10 9-12 10-12 4l-4-33c-1-2-3-3-3-1zM538 28l-2 9c-2 14-2 17-4 18a220 220 0 0 1-31 5c0 1 6 3 13 4l14 2c4 2 5 2 6 7l2 14c2 21 3 25 4 25 2 0 3-13 5-33 0-12 0-12 7-12l11-2 10-1 5-1c0-3-1-3-14-5-17-2-18-2-18-4l-3-17-2-9c-1-2-3-2-3 0z"/><path d="M558 38c-6 3-8 6-6 9 1 1 2 2 5 2s3-1 7-6c6-9 3-11-6-5zM516 38l1 2 3 4c1 4 2 5 5 5 2 0 3 0 3-2 0-3-3-6-7-8l-4-2-1 1zM520 74l-5 7 1 2 6-2c4-2 5-3 5-5 0-4-4-6-7-2zM551 75c-1 3 1 6 6 9l6 3c2 0 1-2-1-5-7-9-10-11-11-8zM216 149l-4 18-2 9c-2 3-2 4-6 4l-8 1c-8 0-7 4 1 5 10 2 10 1 12 10l3 14 1 10 2 14c1 11 2 14 4 12l3-27 1-27c1-2 1-2 14-4l8-2c1-2-1-4-4-4a1002 1002 0 0 0-18-5l-3-15c-1-12-3-18-4-13zM633 161l-1 6c0 6-3 16-5 17l-13 2-12 2c-1 2 10 5 17 5 8 0 10 1 10 9l2 10 1 15c0 10 3 25 4 22l2-24 2-26c0-4 2-6 7-6l7-2 6-1c2 0 3-2 1-3l-10-2-11-3-1-7c-2-12-4-17-6-14zM141 206l-1 8-1 10a416 416 0 0 0-4 19c-2 0-5-2-11-7l-6-4c-2 1-2 2 1 6l4 5 4 5c3 3 3 4 2 4l-24 4c-8 1-9 2-10 4 0 2 1 2 19 4l12 2c1 1-2 7-6 11-3 4-5 9-4 10s5-2 13-9l8-6 3 32a324 324 0 0 0 3 28c0 9 1 12 3 11s2-2 2-6l3-55c0-9 2-11 5-7 2 3 17 14 18 14 3 0 0-4-10-16l-5-7c0-1 6-3 14-4 17-3 20-6 7-8-21-3-21-3-22-6l2-6 6-9c3-6 3-6 1-8-1-1-2-1-8 6-5 5-8 8-9 7l-1-3-1-10-2-11c0-5-1-9-3-9l-2 1zM762 275c0 15 0 18-2 19l-2 2-1 2c0 2 0 2-4 3l-8 1-11 2c-12 1-8 2 7 3 13 0 13 0 14 2l3 3c2 1 2 2 2 10l2 24a752 752 0 0 1 3 50l1 2v-2a769 769 0 0 0 3-78l2-2c1 0 2-1 2-3 1-3 1-4 6-5l11-2 5-1-19-4c-2 0-4-2-2-3 2-2 1-3-2-3s-5-3-5-11l-1-9-2-9-1-8c-1-1-1 5-1 17zM438 337c-20 3-31 6-33 9l-1 51c1 46 1 50 3 51 2 2 2 2 13-2l15-4 13-2c9-1 37-2 51-1 7 0 8 0 10-2l3-4 2-6a482 482 0 0 0 28-72c0-3-5-5-18-10a274 274 0 0 0-85-8zM26 344l-1 14c-1 15-2 21-3 21l-5-3c-4-3-5-2-2 2 4 5 2 6-6 7-6 0-7 1-7 2 0 2 1 3 7 3 11 2 10 1 8 5-6 7-5 7-4 8l5-3c3-2 4-2 4-1l3 26c0 10 1 16 2 17l1 1 4-28 2-13c0-3 3-2 7 1s5 4 5 1l-1-1-1-1-3-5c-4-4-3-5 5-6 5-1 7-2 3-3l-4-2-4-1c-3 0-3-2 0-6l4-5c0-2-4-1-7 1-4 3-5 1-6-11-2-16-4-23-6-20zM387 351c-18 8-37 22-53 37-19 19-34 42-44 67-10 26-12 41-12 73a152 152 0 0 0 6 44 231 231 0 0 0 28 54c4 5 7 4 12-10a973 973 0 0 1 22-53 1460 1460 0 0 1 40-87c0-3 2-6 8-13l4-4v-54c-1-55-1-56-5-56l-6 2zM549 359l-7 19-4 10-2 4-12 30c-7 16-7 18-2 21l6 2 9 3 10 3 12 6c17 8 29 22 35 40 2 8 3 8 5 9l7-3 7-6 23-23c6-7 6-9 1-23l-13-25c-12-21-29-40-52-57-14-10-20-13-23-10zM255 366l-1 7c0 8-2 22-3 23l-6-3c-7-5-8-5-8-4l5 8 5 9c0 1-7 3-17 3-5 1-6 1-6 3s4 3 13 3c8 0 9 1 4 9-5 6-6 9-4 10 1 1 5-2 8-5 6-6 6-5 8 12l2 23c0 14 2 24 4 24l3-42c0-16 1-21 2-22l7 4 6 4-3-7c-4-6-5-9-1-10l9-1c7 0 8-1 8-2-1-2-4-3-13-3l-7-1c-1-1 1-4 4-7 4-6 5-9 2-9l-6 4c-6 5-7 5-7 2l-3-21c-1-10-3-14-5-11zM822 439l-1 4-1 8-2 11c-1 13-2 14-13 5l-10-7c-2 0-1 3 7 11l8 10c0 2-3 2-13 3l-12 1c-1 2 3 5 6 5l8 1 8 1c5 1 5 2 1 6l-10 16c0 2 2 1 9-5l7-7c2 0 4 9 4 16l2 10 1 12c0 6 2 17 4 23a624 624 0 0 1 7-60c1-2 3-1 10 4l8 6v-1c1-2-4-8-10-14l-3-4c0-1 6-3 16-4 12-1 12-5 1-6l-9-2-5-1c-4 0-4-1 1-6 8-8 12-14 9-14l-12 9-6 5-5-20c-2-15-3-18-5-16zM127 444l-2 13-1 13-6-3-7-4c-2 0-2 2 3 8 3 3 5 6 4 7l-4 1-9 2c-9 1-5 4 8 6l5 1-4 8-5 8c0 2 4 1 8-2 3-3 7-4 7-1l1 10 1 17 2 21c0 12 2 15 4 8l2-24c2-31 2-36 4-37l7 3 6 4c2 0 1-3-3-9-3-3-4-5-3-6l8-2c7-1 9-2 8-4l-12-3c-6 0-8-1-8-2l4-7c4-4 4-7 2-7l-5 3c-6 5-8 4-8-2l-1-7-2-8c0-4-1-6-2-6l-2 1z"/><path d="M448 451c-16 1-28 5-33 9-2 2-2 2-1 3l6-1 8-2 6-2c3-2 33-1 39 0l11 3 12 4c8 2 8 2 12 20l4 11a845 845 0 0 1 32 96l1 3 9 26c3 6 5 6 8 2 4-4 5-3 1 2s-4 9-2 15l3 8 4 7 1 5 3 8 4 11 3 8 6 16a1076 1076 0 0 0 16 40l3 2 4-1 6-3 5-3c6-3 6-3 1-19l-3-10a94 94 0 0 0-5-15 453 453 0 0 0-24-67c0-2 0-2 1-1 2 2 2 2 3 1v-7l-3-16c0-10-1-12-3-12-1 0-6 10-6 13l-3 3-2 2-6 6 3-5 3-6 2-2v-1l-1-4 2-2c2 0 3-1 4-4l4-8c2-4 2-18 0-37l-2-24c-2-23-8-36-21-46a146 146 0 0 0-63-24c-6-2-37-4-41-4l-12 1zm81 38 1 4c-1 0-6-5-6-7s3-1 5 2z"/><path d="m433 468-8 2c-3 0-4 1-4 2s-1 2-2 1c-2 0-3 0-3 2-1 2-1 2-3 1h-3l-3 2c-3 1-2 2 2 4 3 1 5 1 11-2l9-2c1 0 10-4 13-7l2-3h-12zM453 471c-3 4-13 11-19 14l-9 4c-16 4-20 5-23 7l-8 8c-3 4-3 5-3 9v5l-2 6-3 10-3 11c-2 7-2 44 0 50l4 19 5 19c3 5 10 10 18 12l22 2h6l-6 1-5 1c-1 1 0 3 1 5 3 5 4 11 6 19l2 7 1 8c1 7 2 10 7 21l6 12c4 3 11 6 16 6s5-1 7-10l3-12 3-13 2-8c4-15 4-21 5-29 0-11 1-15 5-24 2-5 5-12 6-20a390 390 0 0 1 7-40c2-3 3-16 3-25 0-7-1-17-3-19l-3-7c-3-7-10-14-19-21l-12-10-9-16c-1-7-4-8-8-2zm-30 33c6 2 7 4 4 10l-2 7c-1 4-4 3-6-2l-3-5h2c4-1 2-6-4-10-2-1-2-1 1-1l8 1zm45 9 5 1 10 5 3 2 1 1-7-2c-9-5-26-6-26-2l1 2 2 3c0 2 1 3 4 3 6 1 10 4 14 10 4 5 5 10 3 10l-2-2c-1-4-3-6-6-6-2-1-3 0-6 4l-5 5c-2 1-5 0-7-2s-2-2 0-6c1-3 1-3-1-4l-7 1c-4 2-4 3-4 7 0 5 0 5-3 2-4-2-7-1-10 4-3 3-7 7-7 5l4-6 4-6 3-4 6-11c5-11 7-12 15-14 7-2 13-2 16 0zm-62 3c4 1 8 5 12 11l2 2v3c-2 0-3-1-5-3-4-5-6-5-11 0-3 3-5 4-6 3-4-1-4-1-3-6v-7c0-3 0-3 3-3l3-1 5 1zm76 35-1 1c-2 0-2-1-1-2l2 1zm-54 23c2 2-1 4-6 3-5 0-7-2-4-3h10zm-10 20 9 4 4 2-5 1-8-2-7-1c-5 0-10-4-8-6 3-3 9-2 15 2zm-7 15c1 2-2 4-4 2s-2-2-1-3c2-1 4-1 5 1zM470 471v4c0 3 5 9 6 9l4 3 12 10c7 6 12 13 14 17 1 3 3 2 3 0 0-4-3-11-8-16-5-6-8-12-10-16-2-5-8-9-14-11s-5-2-7-1zM634 486c-9 9-21 20-29 25l-6 4v6l1 14 2 18 5 43c6 41 8 45 14 38a161 161 0 0 0 30-88 265 265 0 0 0-4-61c-1-8-5-8-13 1zM371 537c-2 5-4 22-2 22l1-8 3-12v-5l-2 3zM367 563c-2 2-5 15-5 18l-1 6-2 45v45l2 5c2 3 3 4 4 3 2-2 3-9 3-30l1-22c1 0 2 9 2 30l1 20 3-1c2-1 2-2 2-6l2-14 1 9c0 8 1 9 4 7 1-1 2-3 1-11l-1-14-1-7c-1-4-2-3-4 3l-1 5v-8l-2-11-1-5 1-3v4l2 4c2-1 2-5 1-9l-2-8-1-6c-2-3-5-26-7-42 0-8-1-9-3-7zm6 58c-1 2-1 1-1-1 0-3 0-4 1-3v4zM512 571l-2 13-2 11a637 637 0 0 0-8 51l1 18v6l-1 4c1 5 8 11 21 19 10 6 18 13 18 16l3 6c2 6 2 8 1 18-1 8-1 8 2 14l4 7c2-1 2-9 0-13-3-6-3-12 2-18 6-10 5-21-2-27-4-4-13-8-17-8l-3-2-6-2c-7-1-6-2 1-1 18 2 30 8 34 16l3 10-1 9-2 4 2-1 3-2 3-4c2-4 3-21 1-22l-1-3c0-3-8-10-16-15l-9-5c-2 0-12-7-15-10-4-5-5-7-5-11l-2-6-1-17a1165 1165 0 0 0 0-56c-1 8-3 8-3 1 1-8-1-7-3 0zm-3 105c2 2 3 3 1 2-2 0-4-4-3-4l2 2zm7 4c1 2-1 2-2 2-1-1-2-1-1-2h3zm29 25h-2c-1-2 0-5 1-3l1 3zM349 579l-3 6-4 9-3 6a923 923 0 0 1-25 57c-14 30-15 32-14 34l3 3 6 6c4 6 8 7 10 5l10-30 5-15 2-7 1-4 1-3 1-4 2-6 3-12c7-24 10-46 7-47l-2 2z"/><path d="m528 587-3 20v19c1 0 2-3 2-10l2-11c1-4 2-16 0-18h-1zM533 595c-1 4 0 11 1 11l2-12c-1-4-3-4-3 1zM754 611a164 164 0 0 0-4 34l-5-7c-8-10-12-11-6-1l7 14-12-4-5-1c-1 1-1 1 2 3l5 4 2 2c0 2-1 2-7 3-12 1-12 3 0 4 4 0 6 1 7 2l-1 2-5 5 12-3h2l-4 10-2 3-2 4v6l9-12 1-2c2 0 3 8 4 24s3 25 5 25l1-6a798 798 0 0 0 5-40l6 6 6 7c2 1 1-4-3-10l-5-11c1-2 2-1 8 1 7 3 11 4 11 2l-2-2-7-4c-4-2-6-4-4-4l8-3c6-1 7-3 3-4-10-1-11-1-11-3 0-1 2-3 5-4l7-5c2-2 2-2 0-2l-12 4-7 1 5-12c4-11 5-12 3-12l-7 7-2 5c-3 4-4 3-5-7-2-20-3-21-6-19zM540 627c0 8 5 21 7 21v-4l-2-6-1-5-2-1c-1-11-2-14-2-5zM546 626c-1 2-1 5 1 6l1 4c0 3 4 10 6 9l-6-17-2-3zM537 639c-1 3-1 7 1 7v-6l-1-1zM347 647l-6 18-6 20c-3 9-4 11-1 11s9-4 11-7c1-3 3-14 4-31 2-16 1-19-2-11zM525 646c-2 2 0 6 4 9l4 3 8 3c7 4 14 9 22 17 5 4 6 4 4 1l-3-8c-2-7-7-11-15-14l-8-2c-4 0-13-5-14-8l-2-1zM392 650c-1 2 0 13 2 15l2 6c0 5 2 3 2-3l-1-4c-2 0-2-4-1-7 0-2 1-1 2 3s1 4 2 3l1-6c0-4-1-5-2-5-2 0-3-1-3-2h-4zM405 656l-2 6c-1 6-2 11-1 12 2 1 5-5 5-11 1-6 1-7-1-7h-1zM488 680l-2 6-7 32c-1 6-1 8 1 10 6 3 49 4 53 0v-7c0-6 0-8-2-12-3-4-4-5-10-7-11-5-21-11-24-17-5-5-8-8-9-5z"/><path d="m407 683-6 2a84 84 0 0 0-15 4c-4 2-4 5 1 14 5 12 12 21 21 30 16 17 33 28 56 37l30 8c7 2 10 1 17-6a63 63 0 0 1 20-13l5-3c2-2 2-3 0-13l-20-1a174 174 0 0 1-70-14c-12-6-19-13-24-23l-6-19c0-3-5-5-9-3z"/><path d="m370 700-3 6c0 3 0 4 3 7 5 4 6 5 7 15 0 9 2 15 6 26l3 9c0 2 11 23 16 29a111 111 0 0 0 30 26c15 10 24 17 39 31 7 7 9 6 15-9 3-7 4-17 5-36 0-19 0-19-5-20l-5-2-24-7-26-12c-21-13-45-40-52-60-3-8-5-9-9-4zM355 701l-23 12c-1 1-6 11-6 14 0 2 6 14 10 19s7 8 8 6c2-1 3-9 3-15 0-4 3-11 6-15l9-20c-1-3-2-3-7-1zM295 706c-3 3-2 7 2 14a406 406 0 0 1 16 34l-13-16c-10-17-15-23-19-24-5-1-9 0-9 3 0 4 3 10 6 11 1 1 1 1-2 1s-7 3-7 5l10 22 11 18 14 19c3 4 4 6 4 9l-1 5c-2 0-13-11-20-21-8-11-12-14-16-12-2 1-3 4-2 7 1 4 13 21 21 31 9 11 25 26 29 26 2 0 4-4 4-8l1-7 4-10 3-9a339 339 0 0 0 12-39l-6-7c-8-10-8-9-22-35-7-13-8-16-12-17-4-2-6-2-8 0zM361 723c-4 5-5 8-5 17 0 7 1 11 3 18l5 12v7c-1 1-8-2-12-5l-4-3-5 10-4 11-1 5-3 9-4 13-4 15-3 8 3 3c7 7 19 13 28 14 8 0 10-1 15-9l8-8 9-8c4-3 5-5 6-11 2-7 2-8 0-13l-1-8c0-3-4-12-10-25-7-15-8-20-12-40-2-14-2-14-5-14l-4 2zM555 727l-1 3c1 1 2-1 2-3l-1-3v3zM146 730c-2 2-2 7-3 22l-2 20c-1 1-4 0-10-5-8-5-9-3-2 7 5 8 5 9-1 9l-16 3 1 2 6 2c5 0 15 3 15 4l-5 7c-2 3-4 6-3 7h4l5-5c4-2 4-2 6-1l3 27c2 16 2 18 4 18l4-34c0-11 1-13 5-10 3 3 12 8 12 7l-4-8-4-7c1-2 10-4 18-5 11-1 8-4-7-5l-11-3 3-6c6-8 5-10-3-5l-6 4c-1 0-2-3-3-10l-2-17-1-12c0-7-1-9-3-6zM578 733c-14 4-14 4-17 10-4 8-5 19-3 23l2 4 2 4c2 2 3 2 7 1l7-1 7-3c8-2 11-4 11-6l-2-7-4-14-5-11c-1-2-2-2-5 0zM620 747l-8 4c-5 2-6 3-6 5l9 29 6 24 5 18a228 228 0 0 1 7 36l2 13c1 16 3 18 11 17 7 0 7 0 7-9a399 399 0 0 0-9-63l-4-22a228 228 0 0 1-5-24l-3-13-4-14c-2-3-5-3-8-1zM541 766c-2 2-4 9-5 17l-4 24c-1 2-2-10-2-20 0-14 0-15-5-17-3-1-5 0-8 4v24l-1 26c-3 8-4 6-4-8-1-18-3-27-6-29-2-2-5 0-7 4l-1 20c-1 18-1 19-4 26l-4 10c-1 2-1 2 1 4l5 2 6 1 4 2c3 0 18 7 24 12l11 7c4 2 6 4 6 5l3 3c2 3 3 3 4 1l1-3a181 181 0 0 1 16-29c3-4 4-7 4-9s-1-3-5-3c-3 0-5 0-7 2-4 2-9 8-9 10-1 3-3 2-2-1 1-7-1-12-7-15l-5-4c-2-2-2-2 0-2l7 4c3 3 5 4 6 3l2-26v-26l-2-1c-2-2-2-3-2-9 0-8 0-8-3-10-4-1-5-1-7 1zm-8 60c2 2 2 2 0 2-2 1-3 0-3-2h3z"/><path d="m589 779-13 3-11 4c-2 2-2 4-2 18 0 20 1 21 10 25l9 5c4 4 6 4 13-1l6-5 5-3c4-4 4-6 1-15a608 608 0 0 0-9-29c-1-5-2-5-9-2zM247 801l-6 10-36 75 1 3c2 1 34 2 39 0 4-1 6-3 6-6l2-5 1-4 3-11a1519 1519 0 0 0 16-51l-3-5-8-8c-4-5-5-6-7-6-3 0-4 1-8 8zM409 817c-2 4-2 17-1 24l2 11 2 12 2 15c2 11 3 12 11 12 10 0 11-1 11-12a271 271 0 0 0-5-47c0-4-2-7-7-10l-8-6c-4-3-5-3-7 1zM280 825l-4 12c0 2 8 14 14 20 5 5 8 6 14 3 8-3 8-5-9-22l-11-12c-1-2-4-3-5-1zM440 833v12a743 743 0 0 1 5 45l9 1c9 0 11-1 14-9 8-21 8-20-6-33-15-14-20-18-22-16zM605 835l-6 3c-4 1-22 20-25 25-5 7-7 13-7 18l-2 6c-1 1-1 1 4 1 4 0 5-1 5-3l1-3 1-2c0-2 3-3 5-2 1 2 6 0 7-3l3-1 3-3c1-3 2-3 6-3l8 2c7 3 7 3 8 1 1-3 0-15-1-20l-2-8-1-5-1-3c0-3-2-3-6 0zm3 6c0 2-1 2-4 2s-3 0-2-2c3-2 5-2 6 0zM386 839l-4 4-5 4-9 13c-3 6-13 8-23 4l-6-1 1 6c2 2 3 7 4 10l3 8 1 3h9l11-1a130 130 0 0 0 24-50h-6zM272 846l-1 5-8 24c0 3 3 2 14-3 13-6 15-6 15-8l-5-6-9-10c-3-4-5-5-6-2zM402 851l-4 25c-1 13-1 14 5 14s7-1 4-17l-2-14c-2-8-2-10-3-8zM484 860l-3 5-4 13-4 10 2 2c2 2 5 2 34 2s32 0 33-2c2-3-2-9-12-16a83 83 0 0 0-41-17c-2 0-3 0-5 3zM319 866a270 270 0 0 1-34 20c-2 3 2 4 24 4l23-1c2 0 2-3 1-13-2-9-5-14-7-14l-7 4z"/><path d="M602 873c-1 3-1 3-2 0-1-2-4-3-4 0 0 1 6 4 8 3v-4l-1-2-1 3zM592 887c1 2 8 2 12 1s1-2-6-2l-6 1zM189 928a647 647 0 0 0-25 85l12 5 4 1 10 3 11 4c5 2 12 2 13 1l2-9 4-13a700 700 0 0 0 14-78l-23-1c-17 0-21 0-22 2zM292 927c-2 1-3 8-1 12l5 21 4 19c2 2 5 1 11-6l7-9 4-5 8-10c9-11 11-16 11-18l-3-3c-3-2-44-2-46-1zM247 930l-2 6-1 6a277 277 0 0 0-6 23 375 375 0 0 0-9 38c-6 22-6 26-3 28l13 3c9 1 10 1 13-1 7-3 40-38 41-43v-8a1222 1222 0 0 0-12-53c-2-2-3-2-17-2h-15l-2 3zM365 929l-1 41c0 44 0 50 4 51 3 0 4-1 5-14a1839 1839 0 0 0 3-79c-4-2-10-1-11 1zM392 928c-4 3-4 14-1 23a573 573 0 0 0 44 88v-3l-1-5-1-6-2-8a822 822 0 0 0-16-80c-2-9-3-10-13-10l-11 1zM420 929v8a372 372 0 0 1 7 31 1131 1131 0 0 1 14 77l2 8c0 3 3 6 5 6a1338 1338 0 0 1-6-90 1916 1916 0 0 1-7-41c-3-2-14-1-15 1zM446 928a278 278 0 0 0 3 44v14l1 17 2 21c1 15 2 19 4 16l5-32 2-13 1-10 1-13c1-6 1-7-1-14a360 360 0 0 1-9-28c-2-2-7-3-9-2zM463 928l-1 2 3 10 2 5c3 13 7 25 16 43a435 435 0 0 1 13 26c2 0 3-2 5-8l5-12c2-5 5-28 5-38 0-7 0-7-3-10-4-3-4-6 0-5 2 1 4 0 7-3l7-6 2-4-30-1-31 1zM639 928v28c2 39 2 41 4 42 3 2 11 3 13 2s2-2 2-17c-2-37-3-53-5-55l-7-1-7 1zM568 931c0 2 4 3 5 2 1 0-2-3-4-3l-1 1zM614 939a510 510 0 0 1-48 25c-6 3-6 4-4 6 4 4 13 7 38 16 18 6 25 8 26 7 2-1 2-3 2-11l-1-15-1-18-1-14c-1-2-3-1-12 4zM331 955l-17 21c-12 14-11 14-9 26a254 254 0 0 0 3 20l4 24 2 3c2 2 3 2 12-1a212 212 0 0 0 19-6c4 0 5-2 5-13l-2-15-1-15-1-14-2-21-1-17c-2-4-4-3-12 8zM522 945l-1 3-1 9-2 18-3 17-6 17-1 5a219 219 0 0 0-14 35 261 261 0 0 0-8 23 308 308 0 0 0-12 34c-2 4-1 5 2 8l5 7 19 21c1 1 3-1 6-6a679 679 0 0 1 16-37l6-14a194 194 0 0 0 8-16l6-15a539 539 0 0 1 15-32l5-13c2-5 1-8-4-14l-11-15c-11-16-13-19-15-19l-2 2 1 1 3 4c1 3 1 3-1 8l-3 7-1 4-5 12-2 3v-6l2-5 5-14v-11l-2-13c0-4 0-6-2-7-2-2-2-2-3-1zm-1 62-2 4-2 5h-1l1-5 2-6c0-2 2 0 2 2zm-7 17c-1 3-2 1-1-1l1-1v2zM388 981l-1 4-1 17c-1 20-1 23 9 31 8 6 11 7 10 3l-1-8-2-8-1-6-1-7-2-9c-2-8-9-20-10-17zM575 990c1 3 5 5 7 4s2-1 0-3c-4-2-8-3-7-1zM582 997c-2 1 2 6 11 13 5 4 7 5 9 4 3-2 2-3 0-3l-3-1-4-1c-2 0-2 0-2-2 1-2 0-3-3-4-3-2-5-3-5-5s-1-2-3-1z"/><path d="m288 1006-27 28c-7 6-7 6-13 6a188 188 0 0 1-25-1c-2 0-4 4-5 11 0 10-1 9 27 9 36-1 52-2 56-4s4-2 4-7a369 369 0 0 0-11-47c-1 0-4 2-6 5zM478 1007l-2 12a508 508 0 0 1-8 46l-1 10c0 5 0 7 2 9 2 3 4 4 4 2l-2-3v-7a350 350 0 0 1 8-33l3-17c3-14 4-18 1-22-2-3-4-3-5 3zM612 1004c-2 5-2 7-1 8 2 1 3-2 2-6l-1-3zM599 1006l1 3 2 1c3 1 2-3 0-5-2-3-3-2-3 1zM620 1004c0 3 1 4 2 2v-2h-2zM641 1006c-1 2-3 16-3 27a218 218 0 0 1-4 41c-2 18-2 24-4 29-4 19-4 18-2 23 3 6 4 7 8 11l3 5c0 1 7 8 8 7a578 578 0 0 1 4-26l2-22 2-15 1-12 1-12c1-5 2-45 1-49 0-2-2-4-3-5-3-3-12-4-14-2zM405 1015l2 11 2 8 1 5c0 3 3 6 10 9 8 3 8 3 8 0s-4-10-12-23l-3-5c0-2-6-10-7-10l-1 5zM566 1014a770 770 0 0 1-26 57l-6 14-9 20a408 408 0 0 1-19 44 439 439 0 0 0 42 46c4 3 5 3 13 3 20 0 24-4 32-32l5-14 5-20a314 314 0 0 1 9-31l2-6a596 596 0 0 1 9-41c0-4 0-5-3-7l-8-5c-6-3-25-16-32-23l-11-9-3 4zM158 1020c-3 3-7 18-9 31a890 890 0 0 1-7 54c-2 10-2 29-1 33l7 16a282 282 0 0 0 8 22 405 405 0 0 0 22 48 1245 1245 0 0 1 9-52l1-15a512 512 0 0 1 8-53 1154 1154 0 0 1 14-68c-2-2-9-5-15-6l-7-2-26-10-4 2zM619 1024l-4 2c0 1 7 6 9 6l1-3c1-5 0-6-6-5zM386 1037c0 2 2 3 4 3s1-3-1-3h-3zM363 1046l-1 5-1 6-2 5-2 10c-2 8-1 9 4 9l10 2 7 1 9 2 13 3 14 3 11 3 7 2c10 5 13 5 12 2l1-3 2-9 2-12c1-7 0-8-8-12l-8-3-2-1c-1-2-14-6-27-9-14-4-38-6-41-4zm19 13h-4c-1-1 0-1 2-1s3 0 2 1zm60 35h-2l1-1 1 1zM295 1068a204 204 0 0 1-23 6l-7 1-4 1-7 2-8 1c-2 1-3 2-6 12l-7 21a377 377 0 0 1-8 29c-2 5-1 13 1 21l1 6 2 8 1 7 1 6 2 9c2 13 4 16 13 23a599 599 0 0 0 25 20l1-6a537 537 0 0 1 20-120 306 306 0 0 1 13-46c-1-2-6-2-10-1zM341 1087l-3 5-3 9-5 12-10 29-3 10-2 8 7 12a300 300 0 0 1 46 132l2 12 12 8c4 2 5 1 6-5a415 415 0 0 0-11-133l-1-9a346 346 0 0 1-8-32l-1-7-4-10c-6-21-14-39-18-42-2-1-2-1-4 1zM374 1091l1 8 2 9 1 5a221 221 0 0 1 10 43l5 33 2 20 2 9 1 13 2 20a844 844 0 0 1 1 83c2 2 4 1 6-6a211 211 0 0 0 7-39l2-10 2-13a1060 1060 0 0 0 14-107l2-16 1-14c2-3 1-22 0-24l-29-8a1316 1316 0 0 1-32-6zM443 1114a493 493 0 0 1-10 96 1292 1292 0 0 0-10 63 525 525 0 0 1-10 62c-1 5-1 6 1 7l3 2c2 0 5-7 9-21l6-17c1-1 3-5 3-8l4-9a684 684 0 0 0 18-57l2-8 2-7 2-8a371 371 0 0 0 11-39 305 305 0 0 1 6-19v-4l-18-17a515 515 0 0 0-19-16zM620 1146l-2 6-3 9-1 6-1 6a1285 1285 0 0 1-22 67l-2 5-2 5-4 11-5 10c0 1 14 15 24 23 8 7 11 8 12 4l2-4 1-4 3-11a416 416 0 0 0 11-48 624 624 0 0 0 10-54c1-7 0-9-5-15l-7-9c-5-7-7-9-9-7zM486 1156a538 538 0 0 0-17 59 558 558 0 0 0-18 74l-1 5v-4l-1-4-8 19-2 7-6 15-3 7-1 3-2 7c-1 4-1 4 1 6l5 3 8 5a3385 3385 0 0 1 57 35l1-23-2-62c0-44-1-64-3-80-2-12-2-39-1-53 1-12 1-14-3-17-2-3-4-4-4-2zm-35 142-3 4c-1-1 0-5 2-5l1 1zM198 1172a193 193 0 0 1-4 25 1645 1645 0 0 1-5 38l-1 7 4 9 5 11a380 380 0 0 0 29 48 621 621 0 0 0 60 76c2 0 1-3-3-11l-2-3-2-5-6-14-10-22-3-8-1-4a237 237 0 0 1-14-31l-1-2-6-16a200 200 0 0 1-6-18 520 520 0 0 1-30-83l-2-3c-2 0-2 1-3 6zM135 1172v25a4514 4514 0 0 1 8 116c0 9 0 10 3 14l28 33 18 19c22 24 32 35 34 35s3-2 4-6l3-12 5-17a150 150 0 0 1 4-15l-17-25a462 462 0 0 1-27-42l-12-20a1095 1095 0 0 1-35-74l-5-10-6-14c-2-7-4-9-5-7z"/><path d="m311 1172-4 10-5 15a262 262 0 0 0-8 23l-9 23-4 13 3 4c8 8 75 52 77 51 1-1 1-14-1-21l-4-17a247 247 0 0 0-9-34 351 351 0 0 0-29-63c-3-5-6-6-8-4zM507 1178a167 167 0 0 0-2 26 185 185 0 0 0 29 96 282 282 0 0 0 106 78c1-1-4-6-6-6l-3-3-4-3a400 400 0 0 1-91-97l-3-7-3-6-1-2c-2-1-2-5-1-5l2 2 1 3 2 4 3 5a222 222 0 0 1 10 16c1 0 2 1 2 3l10 12 2 2a305 305 0 0 0 55 56l9 6a482 482 0 0 0 55 34l1-21c-1-25 0-24-16-30a198 198 0 0 1-37-17l-6-3-11-6-36-24a143 143 0 0 1-56-91l-4-20c-3-3-7-4-7-2zm20 69-1 1-1-3c0-2 0-2 1 0l1 2z"/><path d="m654 1193-1 6a413 413 0 0 1-10 54l-3 12-3 12-3 14c-3 9-5 20-4 22l9 6c11 5 11 5 12-12l4-69v-46l-1 1zM254 1264l6 15a786 786 0 0 1 30 71 181 181 0 0 1 7 18l4 8 5 11 8 20c0 4 8 14 13 17l29 1h27l3-3 4-8 5-11a336 336 0 0 0 10-23c5-10 6-13 2-14l-18-10-8-5a1223 1223 0 0 1-121-86c-4-3-5-4-6-1zM504 1328c0 49 1 69 3 71s5 0 5-4a437 437 0 0 1 17-65c1-2-1-6-5-13l-3-5-1-3-5-10c-5-13-10-23-11-23l-1 52zM150 1351l2 16a1113 1113 0 0 0 5 32c2 25 1 23 8 23h7v-7c1-8 0-11-4-11h-2l2-2c2-2 2-3 2-11l-2-19c-1-10-1-11-5-15-6-8-11-13-12-13l-1 7zM550 1352a142 142 0 0 0-6 27c-2 5-7 40-6 42l3 3c3 2 41 3 43 1s5-8 6-14l2-7c2-5 2-4-19-30l-14-17c-5-6-8-7-9-5zM712 1365v43l5 4a727 727 0 0 1 78 46 231 231 0 0 1 65 79c3 6 6 7 6 2l1-5 4-10a153 153 0 0 1 11-32c4-8 4-11 0-16l-7-9a503 503 0 0 0-47-44 349 349 0 0 0-41-24l-14-8-11-6-10-5-16-7-18-8h-6zM246 1373l-10 32-3 9c-2 4-1 7 1 10l34 1 32-1-18-19a536 536 0 0 1-34-33l-3 1zM415 1373l-2 2-15 37c-4 7-4 10-2 12a1182 1182 0 0 0 101 1c2-1 0-3-6-7l-7-4-14-9-20-14-12-7-5-3-7-5c-9-4-9-4-11-3zM596 1384l6 7 9 11 18 21 3 3h23l22-1-5-5a796 796 0 0 1-76-36zM605 1418c-2 2-1 6 1 7 5 1 7-2 3-6-2-2-3-2-4-1zM159 1437a368 368 0 0 0 8 63 487 487 0 0 0 9 59 697 697 0 0 1 6 43c0 4 1 6 3 5v-19c0-19 0-21 4-37l1-6a529 529 0 0 1-9-65l-4-26-3-18c-2-2-14-1-15 1zM250 1436a1209 1209 0 0 1 96 107l11 14a383 383 0 0 1 16 16v-28a210 210 0 0 1 4-57v-6l-8-6-10-7-8-7a1026 1026 0 0 0-30-24l-3-3h-34l-35 1zM352 1436c-3 0-2 3 1 6a1096 1096 0 0 0 13 10c2 0 9-8 10-12l-1-3c-1-2-20-2-23-1zM385 1437c-3 2-12 17-12 20 0 2 7 8 13 12l6 5 18 13 33 25 17 13 15 12c6 4 8 6 10 6 2-1 3-1 3-5l2-7 1-6 1-10 1-13 2-11 4-43c0-14 6-13-58-13-52 0-54 0-56 2zM504 1436l-2 26a700 700 0 0 1-10 76c-2 12-2 12 9 20l14 9c20 14 87 66 106 84l14 12a978 978 0 0 1 49 46c1-1 2-2 2-8 0-9-2-20-6-27l-5-9-20-36-4-9a2958 2958 0 0 0-59-94l-8-11-7-9-6-9c-8-11-23-29-40-46l-16-16h-5l-6 1zM567 1436c-1 2 1 4 7 7 5 3 7 2 7-4l-1-4h-6l-8 1zM638 1437l17 25 11 17 9 13c6 9 6 8 5-16a1997 1997 0 0 1-1-39c-1-2-40-2-41 0zM602 1438c-2 2-3 6-4 9-3 10-3 10 14 22a86 86 0 0 0 15 9c3 2 4 0 5-7l1-11 1-5-5-8c-4-6-7-10-9-10l-9-1c-6 0-7 0-9 2zM728 1445l13 28a767 767 0 0 1 48 140c1 1 8 2 31 2 29 1 30 1 32-1 4-5 2-26-5-47l-10-26a179 179 0 0 0-46-59c-7-7-33-24-54-35-8-4-9-5-9-2zM713 1448v10a1989 1989 0 0 1 2 81l5 6a259 259 0 0 1 15 13 427 427 0 0 1 33 31c2 0 1-4-1-13l-5-14-4-13-5-12a440 440 0 0 0-27-67c-4-10-11-22-12-23l-1 1zM545 1452l12 15a927 927 0 0 1 52 70l8 12 20 32 4 7 7 12 6 9 9 17 7 13 8 12c3 6 3 6 5 4v-53l-1-54c-2-4-25-22-44-35l-12-9a495 495 0 0 0-35-25 369 369 0 0 0-46-27zM149 1452a3671 3671 0 0 1 7 134c7 4 15 0 14-7a340 340 0 0 1-5-28l-1-9a732 732 0 0 0-9-63l-2-16c-1-10-2-13-4-11zM219 1463l-3 7-2 7-3 14-3 18a263 263 0 0 0-6 36 493 493 0 0 0-4 59c2 3 30 11 35 10l9-12a607 607 0 0 0 30-66c4-11 6-20 5-22l-41-41c-13-12-14-12-17-10zM645 1476l-1 9c0 8 1 10 11 16l8 5 5 4c3 2 3 2 4 1 0-2-2-5-18-31-5-6-7-7-9-4zM385 1492l-3 9c-2 11-2 54 0 56l2 1a200 200 0 0 0 27-48c0-2-5-7-15-14-8-5-9-6-11-4zM415 1516l-2 3-4 8a357 357 0 0 0-12 20 364 364 0 0 0-19 37 242 242 0 0 1 33 44 371 371 0 0 1 23 35l7 7a141 141 0 0 0 16-36l7-16a344 344 0 0 1 12-36l1-5 2-9c1-5 1-6-1-8a650 650 0 0 0-57-44c-4-2-4-2-6 0zM286 1532l-2 6-1 4-3 8a616 616 0 0 1-32 68c0 2 3 6 11 15 17 20 18 21 23 29 8 9 8 9 18-1l40-45c9-11 11-15 11-17l-14-19a770 770 0 0 0-41-47c-6-6-8-7-10-1zM484 1571l-2 6-1 5-3 9-4 10-1 4-1 5-3 7-2 6-2 4-1 2-8 22-5 11-5 10c-2 3-3 5-2 7a332 332 0 0 0 23 38l5 9 4 6a773 773 0 0 1 22 41c1 1 5-5 5-8l1-4a383 383 0 0 0 13-45l2-10 2-7 3-12 9-39 2-8a147 147 0 0 0 4-19v-12s-2-3-5-4l-11-10c-25-20-34-27-36-27l-3 3zM715 1573v28l1 65c0 48 1 83 3 84 1 1 4-1 8-5 10-10 21-17 37-24 12-5 42-9 57-7l7-1c1-1-6-15-12-24l-4-7-2-3-9-14c-22-32-52-68-76-89-7-5-9-6-10-3zM156 1596c-2 1-2 8-2 71l-1 80a1360 1360 0 0 1-12 78 559 559 0 0 1-18 56c-3 4-2 6 1 10s5 4 10 0l5-3 6-4 17-11a1249 1249 0 0 0 33-18c11-6 12-6 10-21a733 733 0 0 1-6-44l-2-16-2-14-3-18-2-18a350 350 0 0 1-3-24 609 609 0 0 1-9-62 508 508 0 0 0-8-42c-4-2-12-3-14 0zM351 1611a993 993 0 0 1-41 47l-10 11-5 7c0 2 3 7 13 21a562 562 0 0 1 31 46 531 531 0 0 1 44 72c2 0 2-7-1-70a390 390 0 0 0-5-62 416 416 0 0 0-5-57c-2-7-13-20-16-20l-5 5zM201 1617c-2 1-1 5 5 14l6 13 3 7a324 324 0 0 1 15 33 182 182 0 0 1 9 20l5 10 2 6a631 631 0 0 1 23 56c7 19 8 20 17 18l30-10c7-2 22-8 24-10l2-3-6-14a1082 1082 0 0 0-36-52l-5-8a932 932 0 0 1-36-46l-3-4-17-19c-3-3-5-4-9-5l-14-3-7-2-6-1h-2zM549 1622l-2 8-3 13a218 218 0 0 0-6 23l-2 10-7 29-5 17a1116 1116 0 0 1-18 67l4 12 7 14a648 648 0 0 1 31 79 72 72 0 0 1-3 34l2 4 135-2c4 0 7-7 5-8l-1-4-1-4-3-8a301 301 0 0 0-12-34 142 142 0 0 1-9-24l-3-7-4-8a268 268 0 0 1-8-24l-5-11c-6-15-6-17-8-19l-1-5-1-4a141 141 0 0 1-6-16l-4-8-3-8-7-18-7-20-7-18-7-16-5-13c-2-6-17-21-30-31h-6zM798 1623c-1 2 0 4 3 8l18 26 14 21c5 8 7 8 8-1l3-14a661 661 0 0 0 6-39l-27-2-25 1zM186 1633a295 295 0 0 1 4 29l2 15a480 480 0 0 0 9 66 876 876 0 0 0 7 38 843 843 0 0 0-8-133l-3-5-9-12-2-3v5zM600 1668l1 5 3 9 3 6 1 3 1 5 2 6 2 4 1 2 2 4 1 5 2 3 3 8 3 9 3 9a99 99 0 0 0 6 15l4 10 3 8 3 10 3 7 6 15a492 492 0 0 1 19 49l5 12 6 14a1357 1357 0 0 0 1-113l-4-8-3-5-14-21a497 497 0 0 0-63-71zM402 1686c-1 8 0 12 1 10 2-1 2-14 0-15l-1 5zM227 1696v53l1 51h12c11 0 25-1 28-3s0-14-7-26l-1-4-2-7-5-13-19-45c-4-8-6-10-7-6zM427 1711l-6 8-14 18-5 5v11a2774 2774 0 0 1-1 78l11 4a152 152 0 0 1 18 5l17 7 11 4 10 5c7 4 7 3 12-15a576 576 0 0 0 7-21c2-7 1-12-1-17l-4-6-3-7a293 293 0 0 1-15-25l-11-19c-22-37-22-37-26-35zM402 1719v9c1 2 7-6 7-9 0-2-5-8-6-8l-1 8zM816 1739c-10 1-10 2-7 9l8 14c5 7 7 10 9 8l3-22c0-6 0-7-2-8l-4-2-7 1zM331 1783c-14 6-23 9-38 13l-13 4c-1 2-1 5 1 10 2 7 3 7 18 4a212 212 0 0 0 56-22c0-3-2-7-5-11s-5-4-19 2zM348 1801a263 263 0 0 1-61 22l6 18 3 7 3 8c8 19 10 32 8 36l-11 10c-14 10-27 23-27 27 0 3 4 4 31 4h26l6-15a1069 1069 0 0 1 18-47l5-14 4-19 2-12 1-14c0-9 0-11-2-12-2-3-4-2-12 1zM720 1802c-1 1 1 103 2 104 2 2 5 0 15-8a1153 1153 0 0 0 38-33c13-12 27-27 29-33 2-7 2-9-1-12l-4-4-7-2c-12-6-23-9-46-10l-19-2h-7zM244 1809c-5 2-6 5-2 5l4 2c2 2 2 2 3 1l7-1c6 0 7 0 5-5-1-2-3-3-5-1h-5l-3-2-5 1zm6 4h-2v-2h2v2zM264 1809l2 1 1-1-1-1-2 1zM230 1812c-2 2-2 3-2 11l1 9v2c-1 2 0 3 3 2 2-1 2-1 1-3l-2-2 3 1c4 3 5 3 5-1v-6c2-2 2-2 3-1 2 2 4 3 6 1s1-3-3-3c-3 0-3-1-3-3 0-3 0-3-2-3-4 0-5 2-5 7v4l-1-2-2-4c-1-1-1-1 2-4 3-4 4-5 1-6-2-1-3-1-5 1z"/><path d="m366 1819-1 7-1 10-2 9-1 5-3 11a139 139 0 0 1-9 26l-2 6-1 2-3 7-4 9-1 5-1 2-2 6c-2 4-2 5 0 7l1 2h22l22-1v-5c2-15 5-55 4-60a142 142 0 0 0-9-35l-2-6-2-6c-1-4-4-4-5-1zM251 1823v2c1 2 0 3-4 2-3 0-3 0-3 2s0 2 5 2l6-2c2 0 2 0 1-1-3-2-2-3 1-3l3 1 2 1c2 0 1-1-1-3s-9-3-10-1zM494 1828l-1 4-3 10-4 14c-3 8-2 9 6 14a754 754 0 0 1 25 17c1 0 1-10-1-17-2-10-5-17-9-25a696 696 0 0 1-11-19l-2 2zM272 1838l-8 2-28 7-12 5-8 3-14 7a173 173 0 0 0-27 14l-33 24c-4 4-4 4-3 7 2 4 19 19 22 20a312 312 0 0 1 44-41c21-16 43-26 72-33 11-3 12-4 11-9-2-6-4-7-8-7l-8 1zM398 1850l-1 14-3 30-4 29c0 6 0 8 2 9l30 1 30-1c2 0 6-8 6-10l3-12 7-23 2-8c1-4 0-8-3-9l-8-3a431 431 0 0 0-58-18l-3 1zM810 1866a531 531 0 0 1-60 54c-8 5-11 8-10 9h69c4 0 4 0 4-39l2-18 1-11-7 5zM281 1868l-9 2-6 1-8 4-15 6-4 1c-1 0-13 7-14 9-2 2-4 8-5 19-3 15-2 21 0 22l20 1 19-1 2-3 10-14a2024 2024 0 0 0 23-32c2-6 3-14 1-16-2-1-8-1-14 1zM207 1903l-22 21c-5 6-4 7 9 8l13-1c1 0 3-3 3-6 2-5 3-23 2-24l-5 2zM129 1914c-3 1-15 14-14 16s5 2 17 2c11 0 16-1 16-3 0-1-13-15-15-15h-4zM493 1920c-2 3 1 3 3 1v-2l-3 1zM512 1922v3c2 2 4 0 4-3s-2-3-4 0zM503 1924c-2 1-1 5 1 5l2-3c0-3 0-4-3-2zM478 1925c0 2 1 4 3 4s1-4-1-5l-2 1zM486 1926l1 2v-3c-1-1-1-1-1 1zM495 1927l-1 2 4-2h-3zM321 1965l-4 5-3 9a251 251 0 0 0-12 31l-6 19c0 2 3 5 14 11l16 11 19 10a1749 1749 0 0 0 27-81l3-11-1-4c-2-1-3-2-26-2-21 0-25 1-27 2zM220 1965c-3 3-2 8 1 12 4 4 9 8 11 7l3-5 2-8c2-6 0-7-8-7l-9 1zM249 1966c-2 2-6 15-7 22v5l16 12 15 11 12 8c3 2 4 2 6 0l2-2 1-5c1-2 3-5 3-8a1264 1264 0 0 1 15-40l-2-3c-2-2-7-2-30-2-27 0-29 0-31 2zM385 1966l-5 21-1 6-2 7-2 10-5 24-6 25c-3 9-2 10 2 14l8 5 13 6 11 5c3 0 4-3 14-24l6-15a774 774 0 0 0 27-78c2-8 3-8-30-8l-30 1zM533 1965l-8 9a248 248 0 0 1-77 61c-8 5-6 7 4 5a223 223 0 0 1 22-4l17-4 27-6a844 844 0 0 1 36-11l10-4 8-3 3-2 3-1c3 0 42-20 59-31l7-3c5-3 5-3 4-5 0-2-6-2-56-2l-59 1zM659 1969a167 167 0 0 1-13 8l-11 6-15 9a754 754 0 0 1-31 17c-1 1 0 4 6 16a170 170 0 0 1 16 44l3 15 1 8 2 17 1 16h8l14-1 10-2a188 188 0 0 0 42-9 2006 2006 0 0 0-2-136c-1-12-2-13-14-13-8 0-8 0-17 5zM108 1967l-1 53v52l2 2c3 2 7 2 10 0l2-14a365 365 0 0 1 19-89v-5h-15l-17 1zM165 1967l-4 12 4 7 10 16 5 10 11 20a603 603 0 0 1 41 96l7-9 3-6c6-9 6-10 2-18a292 292 0 0 1-23-64c-4-12-5-22-8-36l-1-13-10-8-8-8h-14l-15 1zM480 1967c-3 0-4 0-4 2 1 1 0 3-1 4-1 2-1 2 1 2l4-1c1-2 6-3 6-1l-1 2v3l2 2c0 3 2 3 6 0a529 529 0 0 1 14-13h-27zM734 1967c-11 1-11 3-2 21l3 10 2 7 3 8 3 8a100 100 0 0 1 5 13l2 7a1394 1394 0 0 0 14 32c2 0 11-10 14-15a668 668 0 0 1 14-29l2-4a137 137 0 0 1 5-18l2-8a257 257 0 0 0 5-27v-5h-72zM469 1968l1 2c1 2 1 2 2 1 2-3 2-4-1-4l-2 1z"/><path d="M474 1979c-1 2-1 5 1 5 1 1 2 1 1 3-1 3 2 2 6-1 3-3 3-3 2-5l-2-3c0-1-8-1-9 1zM469 1985l1 2c1 1 1 1-1 4l-2 2 4-1 1-4c0-4-1-5-3-3zM70 1995a235 235 0 0 0-30 102v46c1 4 30 19 34 19 2 0 3-1 3-6a2012 2012 0 0 0-1-144c0-20 0-21-2-21l-4 4zM241 2007c-2 1-3 17-3 30 1 11 4 23 9 36l4 12c2 3 4 3 7 0l13-16a296 296 0 0 1 23-27l-10-8-31-22-10-7-2 1zM553 2022a481 481 0 0 1-109 26l-10 3c-2 2-6 15-6 20l1 2a354 354 0 0 0 164 5c1-5-16-50-23-58-3-3-4-2-17 2zM725 2039l-1 7 2 52c0 2 11 0 17-5 3-2 2-10-2-17l-1-3-2-6-3-6-4-12c-4-11-4-11-6-10zM161 2041c-3 1-2 4 0 4l2 2 2 3c1 2 1 2-5 5l-5 2-2-2c-2-3-4-2-4 1l-2 5c-3 2-4 3-1 6 2 2 2 2 1 4l-2 3-2 2c-2 2-2 26 0 28 2 3 2 5 1 6l-2 2 1 2c1-1 2 0 3 1v1l-1 3 2 3c3 0 2 2-1 2-2 1-3 4 0 5l1 1c-2 0-2 3 0 5l8 4c2 0 1 4-2 6-2 1-3 4-1 7v3l-1 1c0 1 3 2 5 1h3l3 1c2 1 2 2 2 3l1 4c2 2 2 3 1 4-2 2-1 4 3 5s6 4 2 5c-2 1-2 1 1 4l3 4c0 2 3 5 6 5l7 4c4 3 6 4 6 1 1-3 4-2 5 1 1 2 2 3 4 1 2-3 3-2 4 1 0 3 0 2 4 1l8-3c5 0 5 0 4 1v4c0 3 0 3-3 3-5 0-5 2-2 5 2 1 2 1 4-1 3-3 4-3 8-3 5 0 6-1 4-4l-4-1c-2 0-3 0-2-1h2c2 0 3-4 2-7l-1-6-1-9a234 234 0 0 1-5-21l-4-13-8-29a256 256 0 0 0-16-40 208 208 0 0 0-16-30c-1-3-4-3-5-2-3 3-5 3-5 0 1-2 0-2-2-2l-5-1h-3zm20 14c-1 1-2-1-1-3h1v3zm-9-1-2 3c-2 1-2 1-1-1s3-3 3-2zm-20 27-3 1c-2 0-2 0-1-2l2-4 1 1 1 4zm6 6c0 2-1 4-2 3-2-1-1-3 1-3h1zm-6 27c1 1-1 5-2 5l-2-4c1-2 4-3 4-1zm3 19-2 1-2-1 2-1 2 1zm3 18c-1 2-3 0-2-2 0-2 0-2 2-1v3zm16 15c-3 3-4 4-4 1-1-1 0-2 2-4l2-3 1 1c1 2 1 2-1 5zm43 28h-2v-2c2-1 3 1 2 2zm13 1c0 2 0 2-2 2-3 0-4-2-2-4s4-1 4 2zM324 2076l-10 1c-15 1-26 5-26 9l10 12c22 24 26 29 34 41a679 679 0 0 1 40 70c2 4 4 3 5-1l2-9 3-10a2780 2780 0 0 1 16-51c5-15 6-14-13-23-14-7-22-12-30-19l-26-20h-5z"/><path d="m425 2081-2 4c-1 2-1 3 2 5l4 2 7 3a204 204 0 0 0 27 11l31 9c21 5 42 9 62 10 36 2 36 2 39 1l2-2v-32l-3-3a503 503 0 0 1-167-9l-2 1zM109 2088c-2 3-1 87 0 90 1 2 3 3 16 8 6 3 7 2 5-9a400 400 0 0 1-11-83c0-6-1-8-6-8l-4 2zM738 2104l-10 4-2 2-1 20c0 22 1 25 5 25a118 118 0 0 0 32-9l3-2c2-2 2-3 1-5l-5-12-10-26c-2-2-5-1-13 3zM258 2106c-6 7-22 36-22 41l3 13a252 252 0 0 1 12 58c0 9-4 8 45 8h45l-8-15c-11-23-22-42-34-60l-8-13-7-9-8-10c-3-5-11-14-13-15s-3 0-5 2zM680 2123c-9 3-24 6-48 8-12 1-15 2-15 6l-1 8c-2 6-2 8 3 9 17 4 69 7 74 3l1-5c1-4-1-27-2-29h-13zM409 2135l-3 13-3 11-3 11-4 11c-2 5-2 15 0 25 2 12 2 12 4 12 3 0 14-6 16-8l4-2 6-3a210 210 0 0 0 46-51c0-2-9-7-21-10l-22-8c-2-2-3-2-5 0-2 1-2 2-2 6l-2 10-1 10-2 10-1 18-1 11a211 211 0 0 1 5-62c2-4 1-7-3-9l-5-1-3 6zM41 2157c-2 1-2 1 0 17a274 274 0 0 0 8 44l1 8h15c13 0 15 0 15-2l-1-25v-23l-3-3-11-6-14-8c-8-4-8-5-10-2z"/><path d="M482 2158c-2 0-8 7-10 9l-23 27a106 106 0 0 1-53 30l-7 2h92c88 0 93 0 95-2l1-4 1-4a308 308 0 0 0 7-29l-11-3a200 200 0 0 1-21-6 994 994 0 0 1-65-19l-6-1zM635 2167l-2 5-6 18-6 16-9 19 11 1h11l3-13 7-32c1-9 2-12 0-13-1-1-7-2-9-1zM110 2194c-2 1-2 2-2 17l1 15h37l-5-12c-5-13-5-12-20-19-8-3-8-3-11-1zM227 2210l2 1 1-1-1-1-2 1zM164 2213l2 7 3 6h18c10 0 18 0 17-1l-8-3c-14-4-19-6-22-8s-10-2-10-1zM231 2220c-2 1-1 3 2 3 3 1 5 0 2-2s-3-2-4-1z"/>
  </symbol>
</svg>
