<svg xmlns="http://www.w3.org/2000/svg">
  <symbol id="1" viewBox="0 0 300 392">
    <path d="M149 5c-6 3-6 3-16 2h-8l-8 6c-5 7-6 7-11 7s-7 1-11 3l-4 8c0 2-3 7-7 7s-9 6-9 12c-1 5-4 9-7 8l-5 4c-2 3-4 4-4 11 0 6 0 6-3 8-3 0-6 4-9 6-4 5-4 7-4 15 0 9 0 10-3 16-5 9-5 10-4 20 0 6 0 7-4 15-3 5-3 7-3 13l-3 14-1 10c2 6 2 12 1 17-1 3 0 5 6 12l6 12 2 2c1 2 1 2 2 1 3-1 10-1 10 1h-4c-5 0-8 3-8 7 0 2 3 6 6 6l-4 6c-16 16-16 17-15 18 2 2 5 0 11-3 4-3 4-3 4 0-1 3 3 5 8 1 3-2 4-4 4-1 0 2 4 1 10-3l5-1c0 3 3 1 8-2 3-2 5-3 5 0 0 2 5 1 8-2 3-2 4-3 5-2 1 2 4 1 9-4l5-2c0 2 2 1 6-2 1-2 4-3 5-2l5-2 2-4-1 4v4h4l2 13v21l-2 2c0 3-4 4-13 9-6 2-13 7-16 11-5 4-6 5-14 5-19 1-29 10-40 34-10 20-15 26-25 28-7 0-16 3-17 6 0 1 1 1 5-1l11-3c6-1 15-6 17-10 3-2 3-2 4-1s0 2-2 5c-4 4-10 6-20 7l-11 4-5 1c0-1-5 8-4 9l5-4c4-4 6-4 15-5 20-1 26-5 36-20 10-14 15-19 22-23l7-4v9c2 9 4 12 9 18 16 15 43 0 43-22 0-7-1-11-5-16l-2-2 7-1h11l5-2h9c1 3 7 0 7-2 0-4 17 0 25 5l2 1-3 6c-8 9-10 21-5 33 3 9 8 15 16 17 7 2 18-2 23-9 3-4 3-3 6 2l9 7c15 7 30 3 41-8 13-16 11-36-7-55l-6-7 3-2c12-10 10-36-4-46-5-2-6-2-12-2l-11 1-4 3v-7l4-53 1-16 4 2c6 0 17-5 22-12 7-8 7-23 1-35-4-8-10-13-14-13-3 2-2 0 7-7 22-19 34-41 33-58-3-14-16-31-27-33-11-4-29 1-37 10l-5 3-3-7c-2-9-6-14-14-17l-7-5c0-3-6-9-11-11-3-2-7-2-13 1-5 1-5 1-10-1-9-5-16-5-24 1zm15-1h4l1 1 4 2c2 3 4 3 6 1l5-1 5-1c0 1-3 4-5 4l-2 2 7-2 4-3h2l-2-1h-2 5c4 2 3 6 0 6l-3 3c0 2 0 2 2 1 1-1 4 0 4 1-1 1 0 1 0 0 2 0 3 4 2 4v4c3 0 3-5 0-8l-1-5c1-2 2-2 4-1l1 4 1 2c1 1 0 9-1 11l-10 5c-2-1-1-7 1-7 3-1 3-1 0-1-2 0-3-2-3-3l-4-4c-3-1-1 0 1 4 3 6 3 9 0 9-4 0-6-4-5-6 3-2 0-8-2-9-1 0-3-1-3-4 0-4-1-2-2 1 0 5-4 13-5 12l-3 1c-1 2-1 1-2-3-1-2-1-2 1-2l3-1h-4l-6-2c-3-1-3-1 1 3s4 7-1 7l-3-1c0-2-7-9-8-9-3 0-3-3 0-5l-2-1c-3 0-2-4 2-6l6-4-1 2c-3 1-3 2-3 4h-1l-1 2c0 3 5 0 6-5 1-3 1-3 4-1h1c-1-2 0-3 1-2zm-34 6c1 1 1 7-2 7v-2l-1-2-1 4c0 3 0 3 4 1l2-2c-1-3 4-3 6-1v6c5-4 3-9-3-9-3 0-3 0-2-1h7l3 1h3c2 3 1 8-1 11-4 4-4 4-7 2l-6-4 3 2c2 2 3 5 1 8-3 2-4 2-4 0l-5-5-3-1 7 7-5 1c-5-1-5-1-5-5l-2-6c-3-4-3-4 0-6l3-3v7c0 2 0 2 2 0l1-7c0-3 0-5 2-5zm54 10 1 3c-1 3-1 3-3 2l-4-3 1-2c1-3 4-3 5 0zm32 3c4 2 4 4 0 6h-5c-2-1-4 0-1 3h2l7-3 3-2 1 4v10c3-3 4 0 3 2-3 2-4 1-5-1 0-5-2-5-1 0 0 6-3 8-6 5s-4-6-2-4l2-1c-3-3-4-1-4 1l-1 4-2 2 3-1c1-1 1-1 4 1v3c-2 0-2 1 1 2 2 1 2 1-1 1h-3l3 5 2 3c1 1 0 1-4 1-3 0-5-1-5-2h3v-2c-1-1-3-3-1-6l-2-2-1-2-1-2-3-3c0-2 0-3 3-4 2-2 2-2 1-5-2-4-2-5 0-7l3-7c0-4 0-4 2-2zm-62-1c7 5 5 6-2 4-5-1-6-3-5-4 2-2 2-4 7 0zm-37 1c4 5 4 10 0 11l-2 2-1 1v-4c2-5 1-8-4-8h-2l2 1c4 1 5 5 1 8l-1 3c4 0 4 2 2 5l-1 2-2-2-4-3 1 3 3 2c-1 1 0 1 1 1l5-3c1-5 5-9 6-6l1 1v-3h3c6 2 10 0 13-2 7-6 8-6 15-4 9 4 14 3 21-2 4-3 4-3 6 0l5 3c1 2 4 4 6 4 7 3 8 3 10 11 3 5 3 8 1 8-1 1-1 1 2 1 2-1 2-1 2 2s0 4-1 3c0-3-3-4-3-1l3 5c2 2 2 3 1 11s-4 12-12 14c-5 3-14 0-19-6l-3-3 2-4c4-8 9-14 14-15 3-1 10 0 10 1h1l2 2c1 1 0 1-2 1l-4-1-2-2c-2 3 1 4 7 4l5 1-3-5-1-5-1-1-2-2h-4c0-2 0-3-1-2-3 2-2 3 2 4l5 4c0 2-1 1-6-1-5-4-6-7-4-9l3-1-5 2c-3 3-3 3 0 3 2 1 1 2-3 2-3 1-3 1-2-1l-1-4v3l-2 2c-5 1-1 3 5 3 5-2 5-2 1 1l-6 1c-2 0-5-4-2-6v-1c-3 0-3 1-3 5l-1 6h-2v3l5-3c3-3 3-3 2 0l-2 3-4 5-3 3c-2-3-21 0-21 2l2 2 1-2 4-1c2 0 3 0 2 1l3 4h3l-2-1-3-4c0-1 8-1 9 1l-3 2h-1c3 2 3 2 1 4l-4 2c-3 0-3 0-2 1v4l-1-2-2 2c-3 2-3 1-2-3l3-5c2-1 2-1 0-1-6 1-9 0-9-2l-5-3c-2 0-2 0 0 1l4 3 2 2c3 0 4 3 3 5l-1 3c1 1 0 2-2 2l-2-1h-4c2-1 0-3-1-4v-6c-1-4-2-4-2 0 1 2 1 4-2 5v1l3 3-4 1c-4 0-6-3-6-6l-3-3c-2 0-1-1 2-3 2-3 2-3 3 0l2 3v-3c1-2 1-3 2-2h1l-1-2h-1l-3 1c-1-1-3 0-6 4l-3 3-2 5v3c2-1 3-3 4-1l1 1-1-3v-3c1-3 4 0 4 2l2 5v5c-2 4-2 4 0 4l-1 2v1c1-1 4 3 2 4-1 1-7-6-7-8 0-4-2-9-2-7l-2 2c-1-2-1 0-2 1l-5 5c-3 0-4 1-4 2l5-1 4-1c1 1-1 3-4 2l-2 1h7c4-1 7 3 6 5l-1 3v1l-1-1-4-1c-4 0-4 0-1 1l2 2-1 2h-1l-1 1-3-3-1-2-3-4-3-2c-4-2-4-2-1-2l2-1-6 1-5 3c0 1 2 2 5 1 4-2 6 0 6 4v1h4v4h-3l-3-1h-4l4 1c2 1 2 1 0 2s-3 0-4-1l-5-1c-4 1-4 0-4-1 1-3 1-3-1-2h-1c0-2 3-3 5-2v2l1 2v-5c-1-3-3-3-4-2l-2 2-2 1c-1 2 0 4 2 6l3 1h7v5l-2 9c0 7 0 7-2 7-3-1-4 0-3 1 2 2 0 3-1 5h-2c0-1-2-1-3 2-2 2-3 1-1-4l2-5-4 1-7-1c-1-2 5-6 9-5 2 0 2 0 1-2-2-2-2-2-6 1l-6 2v3l2 2c0 1 2 3 4 1 3 0 4 0 4 3l-3 4c-2 0-2 0-1 1v2l-4 2-2 2h4l-2 3-1 2 1 1c2-1 2 0 0 0l2 3c1 0 1 2-2 5v2c2 3 0 4-2 1h-4c-2 0-3-2-1-6 1-2 5-4 5-1l2 1-1-4h-4l-3 2-1-5c1-1 0-3-2-4-2-2-3-2-1 5 3 6 3 6-1 11s-4 6 0 6l4 3 1 2c-3 0-4 3-1 3l1 5 1 5 1 1c0 2-6 8-7 8l-1 3c1 4-2 6-4 5v2c0 3 0 1 2 0 4-3 5-2 2 3-2 2-3 3-4 2l-1 1c1 2 0 4-3 8l-13-14 1 3c0 3-1 5-4 1-1-1-2-3-4-1l-5-2c-4-2-7-6-3-4 2 1 3 0 0-3v-2l1-5 1-5-2 3 1-3-1-3c-3-1-3-2-1-3v-4h2c1 2 2 1 2-3l3-5c2-2 5 0 5 5 0 3 1 4 2 4l4 3c1 2 1 2 0 0-1-7 0-13 3-18l2-5-2 4-3 1h-1l-1 8-2 6v-3l-2-6c-3-2-3-2-5-1l-4 5c0 2-1 4-2 2v-1l1-4c-1-6 0-7 4-9 3-3 3-3 7 0h3c0-2-2-3-4-3h-6c-4 3-5 3-5-2l1-3 1 4c-1 0-1 1 0 0l1-4v-3l3 2c1 1 1 0 1-2 0-3 0-4-2-4v-1c1-3 2-3 2-2 0 3 0 3 3 2 2-3 6 0 6 5 0 1 0 2 2 2 3 0 4 0 4 4l1 2 1-11c0-7 0-10 4-15 5-6 6-15 4-15l-4-1-2-2c0-4-4-9-8-8-1 2-1 2 2 3s4 3 3 8c0 3 0 3 1 2 4-4 9 0 7 5 0 2-2 3-4 3-3 0-5 0-6 3-4 5-8 3-9-1l-2-7c-3-2-3-3 0-3v-3l2-4 1-2 3-5c0-5 7-5 12-1 3 2 3 5 3 7 0 4 0 4 1 1l1-3c-1-1 0-3 3-6 3-4 6-10 5-13v-5c0-3 1-5 2-5l2-1 2-1 6-4c4-2 4-3 4-8 0-7 0-7 8-11 3-3 5-5 5-8l3-6c1-3 1-3-2-5l-2-1 1 1v6h-4l-3-1 3 2c3 3 4 5 2 7l-3-2-4-1v3l2 1 1 1c0 4-4 3-5-2l-4-5-2-4-1-5c-3 0 0-2 2-2l3 2h1l1-2c-1 0-1-2 1-3l1-4 3 4 1 6 1 3c2 0 2-4-1-8l1-3 3-8 2-6c2 0 3 1 3 4l1 3v-3c1-3 3-4 5-4h4c-2-2 2-1 3 1zm-19 5-2 5c-1 3-1 3-2 1v-2l1-1 1-4zm169 9v1l1 1-3 2-5 2c-4 1-4 1-4-1l-2-3-2-3c-1-3-1-3 1-2l3-1 2-1 2 1v1l2 3 2 2-1-3v-4c1-1 4 2 4 5zm3-1 3 5v-4c-1-4 1-5 5-3 2 2 2 3 2 7-1 4-4 4-4 0v-5h-1v3c0 3 0 4-2 3l-4-1-1-7c0-2 0-3 1-2zm-65 3-1 2-3-2-2-3c-1-2-1-3 1-3 2-1 5 3 5 6zm44-3 2 2 3 5v2l-3 4c-2 4-4 5-4 3l1-2c1 0 1-5-1-7h-1l-2 2v-2c0-2 0-2-1-1-1 2-5 2-5 0l1-1c2 1 2 0 3-2s1-2 4-1l3 4c4 1 4 1 0-1-2-4-3-7-1-7zm35 6c-1 5-1 7 1 3 1-3 5-3 4 0v2c1-2 2 2 1 5-1 2-1 2 1 2 4-1 4 1 0 3-2 1-2 2-1 2l4-2c2-2 2-2 2 1v4l1 3c-1 3-2 3-7 3l-1 1 4 1c3-1 4-1 4 1s-1 3-4 3l-5-1v-4c0-3 1-4 2-4 4 0 6-1 6-2h-3c-5 2-7 0-5-6 0-3 0-4-2-3l-2-2-4-5v-3l1-3 2-2h1zm-10 3h2c2 0 2 3-1 5l-2 4 1-4 1-2-2 1c-1 1-1 1-1-1v-4l-2 4-1 5-1-5c-1-4-1-4-1-1s0 3-3 1v1c0 3 0 3-1 1h-3l-2-1v-4h1l1 3 2-3c-2-2 1-3 1-1h1c0-2 1-2 4-1zM82 49c-2 3 0 3 2 4 4 2 5 9 3 11l-2 4-2 1v-1c2-3 1-10-3-10l2 4v6c-2 1-2 1 1 3 2 2 4 5 1 8-2 2-4 3-4 1 0-1-1-2-3-2l-5 1h-1v-8l-2 2v7h3l5-1c3 0 3 3-3 6h-5l-1-4-2-7c0-5 0-6-3-8l-1-2 4 1c2 3 2 3 3 0l2 1h1c0-2-3-4-4-2h-2l-2-2c5-2 7-2 8 1 2 2 2 2 3-1v-7h4l-1-1v-6c1-4 4-4 4 1zm161-2c4 1 5 3 3 3l-11-5c0-2 4-1 8 2zm-16 1 1 6c-1 3-1 3-2 1l-3-5-2-3c1-2 2-2 6 1zm4 1h-1c-2-1 0-4 1-4zm26 0v4l-1-6zm-14 3c3 2 4 3 4 6 0 6-1 6-27 13l-9 4-1-4c0-3 0-5 2-6l24-1 6-1h-5c-2 0-2 0-1-1v-2l-1 2-5 1c-4-1-4-3 0-10 2-5 3-5 6-5zm37-3-5 9 1-5c2-5 4-6 4-4zm-26 4c2 1 0 4-1 6l-1 3 1-4-1-5v2l-1 2v3c1 3 0 6-2 6s-1-11 2-14c2-4 3-4 3 1zm-31 1c3 3 3 4 2 6l-2 2-3-7c-5-5-5-5-1-5zm60-1c0 4-7 10-8 9l1-3 4-4c1-3 3-5 3-2zm-11 4c3 6 2 8 0 16-4 7-10 16-20 26-13 12-26 28-29 33l-3 11c-1 7-1 9 1 16l2 22v14l-4 8-8 13c-4 3-16 11-18 11l-7 7c-6 10-11 15-16 15-3 0-3 0-3-7v-11l1 8c0 10 1 10 6 6 8-5 20-26 17-27l-9 4c-12 6-20 10-21 9l2-3 23-11c4-3 4-3 5-1l3 1v2l-1 5 2-5 4-8c6-6 12-22 15-40 2-16 0-24-10-48-6-12-8-17-8-23l-1-5h5c5 1 6 1 9-3l3-3 4-3 5-6 2-4c3 0 4 13 3 21l-1 6h2c5-1 6 0 4 4l-1 4 2-5 1-5v-4l3-2 1-1c-1-2 0-5 2-9s3-5 3-3v-1l4-3v-2c-3-1-3-1-5 2l-5 8-3 5-1 1c1 2-1 8-4 8v-4l2-1c1 1 1 0 1-1l-1-3-2-5 2-5 1-2c0-3 2-6 4-5 2 0 1 6-2 7v1c3 0 5-4 4-8s-4-4-6 0h-3c2-1 0-1 0 0-2 2-2 2-2 0l2-3 10-3c8-3 8-3 10-2l1 2 2 1-3 4-1 2c2 0 2 0 2 3l-1 4c-2 13-6 20-6 14l1-4 1-2-1-1h-1c-1-2-3 0-4 3-1 7 0 9 1 3l2-5v6l-2 4-1 1c0 1 5 2 6 1l8-27c4-20 5-22 13-22 4 0 5 0 7 4zm13 2c0 3-5 5-9 5l3-2 4-5 1-2zm-64 1c1 3-1 4-4 0-3-2-2-3 0-3s4 1 4 3zM74 60v2l-1-2v-1Zm211 9c0 5-2 12-4 12l-5-2c-4-1-6-4-2-4l1 1 3 2c3 0 3-3 0-3l-4-2 5-2c5 2 5 2-1-1-3-1-3-1-2-2v-2l4-1 5-1zM64 74c0 5 0 6 3 8 2 5 2 7 1 10-1 5-4 5-4 2v-8c-1-2-2-4-5-4-2 0-2 0 0-1s3-2 3-6v-6c1-3 2 0 2 5zm161 0-16 5 1-3c12-3 16-5 15-2zm71 4c0 2 0 2-3 1l-5-1h-3v-2l6-1c4 0 5 1 5 3zm-121 6v2l-1-1 4 4c5 2 17 5 16 2v-2 7c0 3-1 3-6 3-6 0-14-4-18-8l-2-2-3 3-1 2 1-5 2-3 1-6c1-2 1-2 7 4zm45-4h-3v-1zm61 2h4c-2-2 0-3 5-1 4 1 5 3 4 4h-4l-2-1c-3 0-2 2 2 3 4 0 4 2 0 7l-4 5-5 6v-2l-1-1h-1l-1-1-3-2v-5l3-3 2 3 5 2-2-2c-3 0-5-5-3-7v-2c-1 0-11-4-10-5h4l7 4zm-65-1 1 1-1 2h-1l-3 2v-1l-1-3-1 2c1 1 0 1-3 1h-3l2-3 6-2zM53 86c-1 3-1 4-2 3l2-4c3-4 3-4 0 1zm222-2 4 2-4 5-5 6 3 3 3 2 3 5c-1 1-5-2-4-2l-1-2c-2 0-2 0 0 4l1 4c0 1-6-4-6-6h-1v-2c1-1 2-2 4-1l-8-7c-4-1-5-3-1-6 2-2 2-2 6 1l4 2c1 0-3-5-5-5l-1-2 5 2 3 2-3-4c-5-3-4-4 3-1zM62 85l1 5c-1 5 0 6 4 9l2 2c0 2-1 2-3 2l-4 2 2 1c4-1 4 0 0 4-2 2-2 2-5 0-1-2-2-3-1-4l-1-3v2l-1 1h-5c0-4-5-11-5-10v-2c2-4 5-4 5 0v5c1 2 1 2 2 0l1 1c2 2 2 1 2-4s-3-6-3-1l-1 2c-4 0 4-13 7-13zm103 0-1 2h-1v-2zm45 2-1 2-2 2c-1 3-1 3-2 1 0-2-4-5-6-3v1l2 2c1 2 0 2-1 2-4-2-4-5-1-7 2-2 10-1 11 0zm-24 3h-2v-1zm-24 2c-3 9-10 24-14 26l-20 19c-14 13-18 16-16 11 0-3-2-4-4-1-4 2-3 6 0 7 2 1 1 3-8 12l-11 11c-2 0-2 0-1 2h3c4-3 7-2 3 1-1 2-3 2-6 1-1-1-3-2-1-4l-2-2c-2 0-1 6 2 7 1 0 1 2-4 9-6 9-11 15-11 12l2-3c3-2 3-3 1-8l-1-7c-1-1 0-4 4-8 7-7 9-9 7-17-2-6-1-8 6-11 8-2 14-11 14-18v-8l12-5c4 0 13-5 15-8 1-2 4-7 4-10 1-6 2-9 6-8h14c6-3 7-2 6 0zm7 2v1h1l4 1 1 3v1h2c1-3 5-1 5 1h-2c-2-1-2-1-2 2 1 3 0 3-3 3l-5 2h7l1 4c-1 1 0 3 1 3l1 3v5c3 3-1 3-3 0-3-1-3-2 0-4v-2l-3 2-2 3-2-3c-1-3-3-4-5-2v1l3 1-5 2c-6-2-7-2-6-3l2-2 2-4 1-5 1-1 1-6 3-6zm93 1 3 4 3 1-3 2-2 3-4-3-5-3c0-3 3-2 5 1 5 3 6 2 3-1l-4-4c0-3 2-1 4 0zm-137 4c0 2-1 3-3 0v-4zm-78 1-1 1v-1l1-1zm111 11c-4 8-5 10-7 11-3 0-3 0-2-1l3-2h1l9-19zm27-5 8 22c7 25 8 37 0 54-4 9-18 23-24 26-5 3-6 4-6 8 0 5-4 15-9 22-6 11-6 10 0-3 5-12 8-19 7-24v-5h-3l-2-1-3 1c-2 1-4 5-1 5l2-3c2-1 2-1 2 2s0 3 1 0c1-4 2-4 2 1l-2 3v4h1c3-2 1 1 0 5-2 3-2 3-2 0l-2-2-1 2c0 3-2 1-4-1l-1-1c0 2 4 6 6 6l2 1-2 1h-2l1 2-1 2-3 5-2 4-1 1h2l-5 6-3-2-3 1-1 1-3-6 2 1 1 1v-5c-3-2-1-7 1-11 1-1 3-3 1-6l-1 1v-2l-1-5-1 7v5l-2 8-3 11-3 3 1-3 2-8 2-8c0-3-1-1-2 2-2 5-9 15-10 14l5-10c5-7 6-11 3-9-2 2-6 0-3-2h1l1 1v-9l-3 7c-4 6-8 12-8 8 1-3 0-2-1 0v3c4-3-1 6-7 13l-7 4-1 1-1 3c-3 1-3 1-3-2l3-3 6-8 17-29h8c1-3 2-2 2 3l-1 5-1 3c0 2 2 1 2-1l3-10 2-11c1-4 9-9 12-9 4 0 10 2 13 7l2 5 8-3c13-11 24-30 24-46l-1-14c-2 0-2 2-1 3v21l-1 1c-2-1-2 0-2 1v4l-1-4v-5l3-2v-1l-2-3 2-1h1l-1-1v-3c0-2 0-2-2-1l-1 6c0 4-1 5-2 3l-4-2c-2-1-7 5-5 7 3 2 1 3-1 3h-3c0 3 5 3 5 0l3-1h1l-1-1c-4 0-4-3-1-4h2l1 1 3 4c-2 1 0 3 1 5s1 4-1 7c-4 7-8 10-9 8-1-1 0-3 1-4v-2c-3 2-3 5-1 7 3 3 3 3-1 6l-9 6c-4 4-5 4-5 2l-2-5-1-3 2 1h4l-2-1c-2 0-2-1-1-3v-4c0-1 0-3-2-3-1-1-1-2 2-5 4-3 5-5 5-1h1l2-2v-2c-3 2-4-1-2-1 3-1 5 0 5 1l-2 4-3 4 3-1 2-3c2 0 0 4-2 6l-1 3 2-1 5-7c4-3 5-5 3-5l-2 2-1 2-2-2-2-4-1-4-9 8c-13 13-49 37-44 31l-1-2c-3 0-1 3 1 4v1c-2-1-16 6-16 8l-27 33c-9 9-19 15-20 12-1-1 17-21 19-19l-2 3-3 4 13-14-2 3-5 2 4-5 3-2 4-5c2-2 5-6 7-6l8-6-13 6-32 11 7-12 7-13-10 14-9 15 3-2h10l-8 5-1 2v1h-2c-4 2-3 3 0 2 1-1 1-1 0 0l-4 3-1 1-1 1-3 3-1 1-3 2-2 3-3 1-1 1c-2 0-2 0-1-2l2-4 2-1c1 1 6-3 5-4-2 0 1-4 2-2l1-3c0-2 5-7 6-6l-1 1-1 2c-1 3-1 2 2-2l2-2h-2c-1-1-1-1-3 1-3 3-6 3-9-1-2-3 0-4 3-1h3l11-13c9-13 13-18 14-17l5-6 5-8-5 5c-1 4-4 7-6 7-3 1-6-2-4-4 1-3 3-1 1 0-2 7 10-5 18-17l4-5c2 0 7-4 13-13l18-23c-5 4-7 6-10 6-2 0-6-4-4-5l1 1 3 2c3 0 9-5 28-24l7-5c1 0 1 1-2 3l-17 16 9-8c12-11 17-12 27-12 8 1 10 1 14 5 7 7 10 20 6 31-1 2-1 2 1 2 1 0 3 0 1-1l-1-2h3c1 1 1 1 0 0v-13l-2-2c0-3 2-4 3-4l4 2h-3v2c4 2 5 2 5 1a1050 1050 0 0 1-6-6h-3v-4h-1l-1-1-1-5v1l-1 1c-2-1 0-5 2-5l2-1v-6l-2-9c0-3-2-3-2-1-2 3-2 3-3 1l1-3 3-4 1-1zm6 1 3 6c4 6 2 10-1 8l-3-5-1-5v-3h1v-3l-2 1c-2 1-2 0-2-1 0-3 2-4 3-3l1-1 1 1zm66-4 2 4c-1 1-8-5-7-6 0-1 1-1 5 2zm-209 2-1 3v-1l-1-1v-3c1-2 2-1 2 2zm156 23c7 15 8 21 8 24h-1l-5-15c-7-15-12-30-12-32 0-3 1 0 2 3 0 4 4 13 8 20zm53-18-1 2c-3 3-3 3-7-1l-3-5 3 2 4 3-1-3c-3-1-4-3-3-3zm12-2c4 4 5 5 3 7 0 1-9-8-8-9 0-3 1-1 5 2zm-138 0-1 2h-2l2-3zm134 4c4 4 5 6 4 6l-5-3-5-4 6 6c3 2 3 2-1 5l-4 2c-1 0-7-7-6-8 2-3 3-1 4 1l4 4c2 1 1 0-3-5-2-3-2-3 0-5 3-4 3-4 6 1zm-12 5 4 5 2 4-2 2-3 3 2-4c0-3 0-3-2-1-1 1-2 2-3 1l1 1c1 3 1 3-1 8l-3 6-4-3-2-1 2 2 3 3c0 1-1 2-3 1l-2-2h-1c-4 0-2 3 3 3l3 3h-5c-5-3-6-5-3-10 2-4 2-6-2-6l-5-3c-6-3-2-3 4-1l7 3c1-2 3-2 4 1l4 2-3-3c-4-3-4-8-1-5l1-3 1-2 2 1 1 1v-2l-1-3-2-2c-3-4-6-3-2 0l2 2c-1 1-2 0-5-1-3-4-5-5-1-4l1-1c-1-2 0-2 3 0l5 5zm-69 0c2 6 2 7-1 6l-1-2c1-3 1-6-2-6v-4zm60 1c3 3 4 4 2 4l-8-6zm-2 3 2 5c-1 0-9-5-8-7s2-1 6 2zm-42 7 6 15v5c3 0 3 0 3 7v4l-2 1h-2l-3 1h8v7l-4 11v2c0 3 0 3-4 3h-4l-3-3 3-1c2 1 3 0 6-1 2-3 2-5 0-5v1c1 1 1 1-2 2-2 3-6 2-6-1l3 1c1 2 1 2 1-2s0-4-1-2l1-10v-6l1-5c3-4 3-9 1-8l-1 3v2l-1-1-1-6c-3-4-3-5-1-8l1-5-3 3-1 1-2-6v-5l1 1c0 3 2 1 2-1h2zm38-4c4 2 5 3 4 4s-10-2-10-5c0-1 1-1 6 1zm-3 8 4 2-11-1c-3-1-3-5 0-4zm-195 1v7c-2 2-3 0-2-1l-1-5c-1-3 0-5 3-1zm218 0-1 3-1 2 2-2c1-4 6-5 6-3l-1 1-4 4c-1 4-2 5-6 5l-4-1 3-2c1 2 1 0 1-1 0-3 3-7 4-7zm-23 4 2 2h-1l-3-1-10-2c0-3 2-3 5-2zm30 1-5 5-1 1c-1-1 6-11 8-10zm-209 1-3 5-2-1c-1-3-1-3 1-5l5-2c1 0 1 1-1 3zm214-1-1 2c-1 0-5 3-9 8-6 6-8 7-6 2v-2l-2 1v3c-3 1-3 1 0 2 1 3 1 5-1 4-3 0-3-10 0-13l3-1c2 3 6 3 6 1l7-7zm-37 2 3 3-1 2-8-2-5-3zm41 4-2 1-4 2-4 2-1 1v3h1l1 7c-1 5-1 8-3 10-5 4-6 4-5-1s1-6-3-5l-2-3 1-2 3-1v-4h3l1-1c-1-1 0-4 4-6l5-4 1-1h3zm-223-1 2 9c0 6 0 6-2 6-3 0-4 0-3-3 0-2-5-7-7-7-4 1-5-1-1-4 2-2 8-4 11-1zm176 1 5 1 1 2h3l1 1 4 1 5 1v3h-7l-2 1 5 1c2 0 4 0 6 3l3 3v4h2c0-1 1-1 1 1 2 3-1 8-3 8v-6c-3 0-5 1-4 3h-1c-4 0-3-1 0-5l3-5-2 2-4 5-1 1-1-4-2-2v1h-1l-1-4c-1-3-2-5-7-5s-9-1-9-2h4c7 1 10 1 11-1l-4-4-11-4zm5 5 1 1c0 2-2 3-7 0l-4-1h-1c-4-1 1-2 6-1zm43 0v1l-7 3c-4 0-4-3 0-4l2-1c0-1 5-1 5 1zm1 5c0 3-1 3-4 1-4 0-4 0-3 2 1 1 4 2 5 1l2 1c0 2-1 2-2 1h-5c-1 0-2-1-2-3l3-4 4-1h2zm-62 6c0 5-2 4-2-2v-3zm-109 6c-4 7-9 11-9 10-1 0 0-2 8-10l10-11zm123-9c7 0 7 2 0 3l-3-1-2-1-2-1zm-2 4h5c2-1 4 0 6 4l4 5c2 0 1 4-3 6l-1 3c0 1 2 0 4-3s5-5 5-2l-4 5-4 3-2-2-3-3 3-2c3-2 5-6 2-5h-3l-5 1c-4 2-4 2-3 3v2c-2 0-4-2-1-5l5-2 5-3-4 2c-5 1-7 1-7-2-2-1 0-1 1-1h5c4 0 2-1-1-1l-8-3zm49 3v7l-5-2-5-3 2-2c0-3 1-3 3-3zm-86 2h-1l-3-1c0-2 3-1 4 1zm21 15c-4 16-14 33-17 33l3-6 8-11c2-7 7-23 7-29v-4l1 4zm60-10 4 3-5 3c-4 5-6 7-6 4 0-2 2-4 2-2h2c1-2 0-2-2-3l-1-1h3l2 1-1-2c-1-3-5-4-4-1v1-3c0-2 1-2 6 0zm-198 0h2c3 0 3 0 3 3l-3 2-1 1h-1c-1-2-4-2-4-2-2 1-2 1-1-2s4-4 5-2zm165 2-6 3-1-2v-1zm25 6-3 6v-3l1-6v-3zm-4-3v6c-1 3-1 4-5 4-1 0-2-1-1-2v-7l-1 3c0 4-4 7-5 6l1-4 2-5-3 3-4 4v-3s2-1 2-4c3-2 3-3 8-3s6 1 6 2zm-25 4c3 4 2 6-3 6-4 0-7-2-4-2l7-3h-3c-5 0-7-1-4-2 1-3 5-2 7 1zm9 6c2 0 4 1 4 3l-7-3-2-2zm-41 1c1 4 0 5-2 3l-1-1c1 1 0 2-2 3-1 2-1 2 2 4l2 1-1-1c-3-1-1-5 1-4 2 0 1 8-2 11l-3 4-2-2c-7-5-8-5-8-4s0 2 1 1l2 1v7l-2 1c0 2-1 2-3 1-4 0-6 1-4 4l1-2v-1c2 0 2 1-1 4l-1 1h-1c0 3-4 5-4 5l-1-4-2-2-2 1-1 1c-2 2-3 0-3-1l1-2v-3l2-2c1 0 2 0 1 1l1 1h1c0-2 2-6 5-8 7-3 7-3 8 0l1 1-1-4c-3-1 0-4 3-4 3 2 3 0 2-1l-2-2 3 1h2l2-4 1-1 1-1v-1h-2v-3c3-1 6-1 8 1zm4-1-1 3c-3 0-3-2-2-3 2-2 3-1 3 0zm34 1 2 2 2 2c4 1 3 4-1 4-4 1-4 1-1-1 1-2 1-2-3-2-3 0-5 2-8 4l-4 7-5 7-4 4 5-2c5-5 9-6 13-6 3 1 4 5 0 5-4-1-10 1-14 6-4 4-4 14 1 18 4 3 6 4 6 2l-2-2c-1-1 0-1 1-1 4 0 4 0 4 3 0 2-1 2-5 3-3 0-5-1-7-5l-3-6c0-3-2-5-2-1 0 1 0 3-2 1-2 0-16 8-30 18l-9 4 2-2c4-1 11-11 15-17l10-6c10-5 14-9 20-20l3-5v-1l4-8c4-3 9-6 10-5zm-76 2-2 2c-2 1-3 3-4 1l-1 2h6l1-2-2 4c-2 1-2 1-5-1-4-1-4-3-2-4h3l1-1c0-3 1-3 5-1zm65 0-2 1-1-1 2-2c1 0 3 0 1 2zm-37 2-1 1-1-1 1-1zm46 4-1 1-1-1 1-1zm-4 2-2 3v-3l2-1zm11 0-1 1c-2 3-8 3-8 2 0-3 4-4 9-3zm-12 5c0 1-1 3-4 1-2-1-1-2 2-2zm11 4c0 1 0 2-1 1h-1l-2-1-1-1c-1 1-5 0-5-2l5-1c4 0 4 1 5 4zm-52 0c3 2 3 5-2 8s-6 3-6 0h1c1 2 1 2 4-2s5-5 2-5l-2-1zm-58 2-3 5h-5c-1-1-1-2 1-2l2-1 3-2c1-3 4-3 2 0zm98 9c0 5 0 5-5 5-7 0-6-4 0-4h4l-4-1-4-1 4-2c6-2 6-2 5 3zm11-4c0 1-4 3-6 1v2l5 1c1 0 2 0 1 1h-9v-2c0-3 2-4 5-4zm-122 3c1 0-3 7-4 6l-2 1 1 1c2-2 1 0-1 5l-4 3-2 1 1 1c5-3-4 9-15 20-6 6-11 10-11 6 0-1 2-5 6-7 11-11 21-24 27-37zm-84 3h-3l-1-2h1zm74 3-21 27v1c-1-1-7 5-9 8l-3 2h-2l-2 3h-1l11-13 12-13 15-18c4-3 4-2 0 3zm-68-1h4c1-4 4-3 4 2l2 6c2 4 4 2 0-1l-1-5c0-2 0-2 2 1 5 7 3 8-5 8s-10 0-7-4c1-1 1-1-1-1l-2-1c0-3 0-4-1-3v-2c1-3 3-4 5 0zm128 1-2 2-3 2c-2 1-2 1-2-2l1-1 3-2c2-3 3-2 3 1zm15 6c-2 5-5 6-5 4h-1l-2-1h-2l3 2v1l1 3-2 3-5 4v-2l-2-4-1-1 1-2c3 2 3 0 2-2-2-4-2-5 3-5l3-1 2-1c3 0 3 1 3 2v3l1-4 2-5c3-1 3 0-1 6zm57-6-1 4c-4 0-9-3-9-4zm-11 4c0 2-3 2-9 1-5-1-2-4 3-4s6 1 6 3zm6 1h2l3 1-6 1c-3 0-1 3 1 4h2v-1l3 1-4 1-5 1 4 2c4 0 5 3 1 3-2 0-2 0-1 2 4 1 4 3 0 2l-2 1 4 2 2 1-2 2-3 1h1l4 2c0 1-2 2-3 1l-1 1h-5c1 3 4 3 7 3 2 0 4 12 2 13-3 1-8 1-8-1h3l1-1-2-1-3-3c0-2 0-2 3-1l3-1v-2c-6 2-7 0-7-5l1-5 3-2h-3l1-7v-3l-1-7c0-6 1-6 5-5zm-147 2-21 20c-16 16-26 25-23 20v-1c-5 2-3-3 7-13 21-20 24-22 26-21l6-2zm141 3h-8c-3-1-2-3 3-3zm-106 2-4 5-2 4c0 2-5 7-8 7l11-18c3-3 4-1 3 2zm40 6c0 9 0 10 3 11h2c4 2 9 0 13-2 10-7 27-17 29-17 4 1 4 2 4 17 0 22 4 37 12 51l8 12 20 26c7 7 8 10 4 12h-6l-16-21c-16-23-23-31-40-38-7-3-16-5-26-5l-9-2-10-2h-7v-32l3-2 7-9c2-6 5-7 7-7 1 0 2 1 2 8zm-117-1-2 1-3-1 3-1zm177 3 5 2v3c0 2-2 2-7 2-4 0-6 0-6-2 0-3 3-4 6-2h3c1-1-1-1-4-2-3 0-5-1-5-3s0-2 2-1zm-85 8h3v15l2 17c1 3 2 3 8 3l12 2c4 1 7 3 8 1l2 2h-1v7l-1-2v-2h-3l-16-6c-7 0-7 0-1 3 3 1 6 2 8 5 3 2 4 2 2-2v-1c1 0 2 4 1 5l1 6c3 4 3 6 2 6-2 2 0 2 2 2l4 1h-4l-2 1-3 3c-1 2-1 2-2 1l-1-5c0-5-2-7-3-6l-1-3c0-2 0-2 2 0l3 6 1 3h1l-6-12-5-5c-6-5-10-5-4 1l5 4 2 1c0 6 0 7 2 6l1 1v5c2 3 0 4-1 4l-1-4c0-2-1-4-3-4h-1l-1 2-1-5-5-9c-4-5-5-5-8-4l-11 4c-6 4-11 4-7 1l15-8 2-2-4-1c-2 1-2 1-1-1 3-1 3-2 3-10l-2-16v-10zm90 5c-2 5-2 5-7 5-4 0-6-1-6-2l8-2 3-1-6-1-5-1c0-2 3-3 6-3h7zm0 9-4 1h-1l-4 1c-5 0-2-3 2-5h5c2-1 2 0 2 3zm23 0-1 6-4 4c-4 1-5 0-2-2v-1c-3 0-3 3 1 9l2 6-3 4c-3 3-5 3-5 1l3-4 2-3-2 1-1 1-2 1-3 1c-1-1 0-4 4-6l2-2-3 1h-2l-1 1-2 2c-3-3-1-4 2-5l3-3h-2l-3 1c-3 2-3 0-3-1 0-2 2-2 4-2l6-3c3-2 4-6 1-5v-1l3-2c1-2 1-2 1 2-1 4 0 7 1 5v-1c-1 0-1-3 2-8l1-1zm5-3-2 7 1 3 1-3v-2l1-2c1-4 4-5 8-1l2 2-2 1c-4 3-4 4 1 3 2-3 4-3 5-1s1 2-1 3c-4 0-8 4-7 5l3-1c4-4 7-4 7-1 1 2 1 1-3 3s-5 2-7-1c-2-1-2-2-1-4v-1l-1 1h-5c-4 0-5-1-5-3 0-4 3-9 5-9zm-27 7c0 2-10 6-12 3-2-2 1-3 6-3l5-2c1-1 1-1 1 2zm1 9 1 5c3 2 2 4-2 5h-8l8-3 1-2h-6c-4 2-4 2-4-1l5-2 3-3h-3c-1 1-6 1-7-1l3-1 7-2 2 4zm32 2 4 5h-4l-6 1 5 1c4-1 5-1 5 1 0 3-1 3-3 3h-1v1l1 1h2c0 4-3 5-5 3v1c1 2 1 2-3 4h-10c-1-2-1-2 2-4v-1l-3 1-2 1h-3c1 1 0 4-1 6l-5 5c-1-1 2-8 4-8l1-2 1-3 1-2 2-1 3-4c0-1 2-2 3-1l-1 4-2 1c0 3 3 1 4-1l1-3 2-1-3-2c-2 0-2 0-1-3v-1c-1 1-3 0-4-1v-5h4c1-3 8 0 12 4zm14 3c1 5 1 6-4 5-5 0-5 0-5-2l3-1h6l-5-2c-6 0-6-1-3-2 6-3 8-3 8 2zm-40 9 4 5-3 2-3 5-3 2c-2-2-1-4 2-5l4-5-4 2c-5 4-8 3-3-2l4-3 1-1-5 1c-2 3-4 3-6 1-1-1-1-3 2-3l3-2c0-1 4-2 5-1zm-58 0v5l2-4 1-4c1 0 0 17-3 23-1 3-1 3-1 1v-4l-2 3v2c0 4-3 1-3-2s0-4-1-3c0 3-3 1-3 0l-1-2-1-3 1-1h3v-1l-2-3h-1c0 4-2 3-2-1-2-4 0-5 3-1l4 2v4c-1 3-1 3 4 1l2-2c-2-1-3-13-1-13zm92-1 3 1c3-1 4 0 4 1 0 4-3 4-6 3-4-2-5-7-3-7zm-82 1-1 1-1 5c-2 4-4 6-4 3 0-4 2-10 5-10zm6 1c4 3 4 3 2 6l-3 5c0 2-2 3-2 0l1-5 1-5-4 4-2 5 1-10zm-53 5c0 6 0 8 2 4l1-3 1 3c1 4 1 4-5 5-5 0-5 0-5-3l-1-7 1-1c3-2 5 1 6 2zm58 4-1 4-1 1c-3 0-3-1-1-5 2-5 3-6 4-5 2 1 0 2-1 5zm69-5 2 1c1-1 2 0 3 1v4c-2 1-3 3-3 0l-3-4h-1l1 4c3 1 3 5 1 5l-2-2c-1-4-4-7-4-4l1 2 3 4c1 2 0 2-4 5l-4 2v-6l-1-5-1 6-1 7-1-7c0-6 0-7 2-7l6-4c5-3 6-5 6-2zm-137 4 2 2 1 3c1 1 0 2-1 2l-2-1-2-3c-1-1-3 2 0 3v2l-3-3v-5h2l1 1v-1c0-2 1-4 2-3zm74-2-2 5-1 4 3-4c3-2 4-3 5-2 3 2 4 6 2 6l-3 4-2 2c-3-1-2-2 1-6l2-4c0-2-3 3-5 5-1 3-1 3-5 0l-2-1 2-5c3-5 4-6 5-4zm-90 4v6c3 5 2 6-2 3v1l-1 4-3-4-1-4-1-1v-1c-3-1 0-4 1-4l2 4 3 2-1-3v-5c2-2 3 0 3 2zm134 4-2 5-2 2v-11l-3 6-1 4c-2-1-2-5 0-6l1-3v-1c3-4 7-1 7 4zm-125-1 1 2 1 1-2 1-1-1v-2c-1-3-3-3-3 0l2 3c1 0 0 3-3 3-2 0-2-6 0-9 4-3 5-2 5 2zm128 3c0 6-1 8-3 6v-3l1-6 1-3zm-66-3-4 11-1-4v-3l1-1v-2l1-3zm11 3 7 5c0 4-7 10-10 9-1-1 0-8 2-9 2-2 1-4 0-2l-3 5-2 2 1-6v-4l-3 3-1 5-1 1-1-4v-2l1-2 1-3zm20-1-3 4-1 2 2-1 4-3c1 2-5 8-6 8l-4-1c-1-2 0-3 3-5l2-5 1-1zm-111 2 3 5v4h-1l-6-11c1-2 2-1 4 2zm41-1 2 5 1 4c-3 2-6 1-7-1-3-8-3-9-2-9l3 1 1 1v-1l1-2zm-12 3c0 2-1 3-4 1-1-1-1 0-1 1 0 4 1 5 3 3h2c3 1 1 2-2 2h-4c-3-2-3-2-3 0l-1 4-1-1v-2l-1 3v2l-5-10c1-2 4-1 2 3l2 1 1-4 2-3 1 1 2 2v-2c0-3 0-3 6-4zm5 1c1 5 0 7-2 5-2-3-3-9 0-9zm-38 1 4 4v4c-3 0-9-9-8-10 1-3 3-2 4 2zm149 4c3 1 6 0 10-3 5-2 6-2 9-1 1 1 1 3-3 5-5 4-4 5 1 1l5-1c1 1 0 1-1 3-2 0-2 1-1 1 1 1 1 1-1 1l-3 1c-1 3-7-3-7-6h-3l-6 4-5 3c-1-1 0-3 1-3l3-4-4 3c-2 1-5 1-2-2 2-2 1-3 0-2-3 1-5 1-4-1l-1-2-3-2 6 2zm-30-1c-1 1-4 2-4 0l1-2 2-1c3-1 4-1 1 3zm-139-2v5l1 4 2-5v-5l1 4 1 1 1-2c-1-2 0-3 1-3l2 1c0 2-5 10-8 11-1 0-3-2-2-4l-1-2v-1l-2-1v10c-1 1-2 0-3-5-2-4-2-5-3-4l1 5c2 4 2 5-1 6-3 3-5 1-6-4-1-6 0-7 3-1 2 4 2 4 2 1l-1-4c-1-3 0-4 6-5l6-3zm15 0 4 4c2 4 2 4 1 6l-3 4-8-9c0-3 1-2 5 2l3 3-2-5c-4-3-4-6-1-6zm110 2v1h-3c0-3 3-3 3-1zm21 2h-4c-3-1-3-1-1-2 1-2 2 0 3 1zm-111 0c0 3 1 4 2 4v2l-2 1h-2l-1 3c-1 1-1 1-2-1l-2-4-1-2c1-3 3-2 4 1 1 2 1 2 1-1v-4c1-3 3-1 3 1zm92 5v5l-1 2-4 2c-1 0-2 0-2-3l-2-6c-1-1 2-2 3-1l1 1 1 6v-10c3-1 3-1 4 4zm4-4v6c0 5-1 4-3-2-1-4 0-5 2-5zm6 2-2 6 2-3 4-5c2 0 2 0 1 3l-4 6c-1 1-1 2-3 1-3 0-3-1-3-4l1-6 3-1zm42 3 5 5-4 5c-4 4-5 5-6 4s0-3 2-5c4-4 5-6 2-5l-2 1c0 3-3 5-6 4l3-4 3-5-3 3-5 2c-1-1 0-2 1-5l4-3c0-3 1-2 6 3zm-160 8 3 3-1-3c-2-4-1-7 3-3l3 3v1c-1 2-1 6 1 7 2 2 2 2 2-2-2-4 0-4 2-4 4-1 4 1 4 6s-4 10-6 11c-4 0-4 0-3-3l1-4c-1-1-2 1-3 4 0 3 0 3-4 2-2-2-1-2 1-5 3-3 3-3 0-2l-2 2h-1l-3-5c0-2 0-2 4-1l4-1-4-1c-3 0-3-2-3-4 0-3 0-3-1-1l-1 7c1 4 0 5-1 5h-2l-5 1c-3 0-3-1-3-3 0-3 0-3 2-3 4 3 8 3 8 1l-2-1-8-1c-3-1 0-4 2-3l5 2c3 0 3 0 1-2l-3-1-2-1h-2l-1-3c0-2 2-3 3-2l8 5-3-3c-3-2-7-5-6-7 0-2 1-1 4 1zm129-2c-4 5-4 7 1 3 4-5 5-4 0 2-5 5-5 5-1 9l3 1c-2-2 2-6 4-6l2-1c0-3-2-1-5 1-3 3-4 3-4 1l1-2 2-3 1-1h1c1-1 1-1 2 1l3 3-7 8-8 9c0 3-2 1-6-5l-6-6-4-2h1c2 0 3 0 3-3l1-2 1-3h-2l-1 4-2 1-1-4c0-3 0-3 5-3l9 3 5 5-2-3c-2-4-2-4-1-5l1-3 2-2 2-2c0-2-5 2-6 4l-3 3 2-5c3-6 3-6 7-3l3 3zm46-7c-3 5-10 7-8 4l2-2 3-2c3-2 4-4 3 0zm-212 1 2 5c1 1 1 3-1 5l-3 1-5-7c0-3 3-1 4 2l3 3-2-4c-1-4-2-5-1-6s3-1 3 1zm46 3c3 5 2 6-3 2l-3-5c2-3 4-2 6 3zm23 5-5 1h-3l3 2c5-1 6 0 6 5s-1 6-5 4l-5-2-4-2 4 3 4 2c1-1 5 3 3 4-1 2-1 2-3 0l-4-3-1-1-1-1c-2 0 0 2 3 5 5 4 5 5 3 6-2 3-2 3-4 0l-1-2-3-4c-1-1-2-3-1-5 1-4 1-9-1-11l-3-1-1 1c-2 0 3-5 8-8l3-2 4 4zm66-4c3 4 1 5-1 9-2 3-2 5-2 12l-2 7c-6 2-8 0-8-1l3-1 4-1-2-2c-4 2-7 0-7-1s2-2 5-1c3 0 4 0 3-1l-3-2c-3 0-5-1-3-3h1l4 1c1 0 2 0 1-1l-1-1-4-2v-2h2c3 2 5 4 5 1l-2-2c-4-2-5-3-3-4s3 0 4 1l3 3-2-4c-2-3-2-4-1-5l1-1c2 6 5 10 5 6l-1-3c-1 0-2-5-1-6zm82 0v5c-2 1-2 1 1 1 1-1 2 0 2 1 0 2-1 3-3 3l-4 2-3-1 4-2h-1l-5-2 1-1 6-6h-1l-4 2-1 2h-2c-1 0-1-2 2-4l4-3c0-2 2-1 4 3zm-196 1c0 1 0 3-2 1l-1 2c1 2 0 2-1 2l-3-1v-1l-1 2-1 3-5 2c-2 3-2 3-5 0-2-1-2-4 0-4l3 3h2l-1-3v-2h2c0 2 3 1 3-1l1-2 2-1 3-1h2c2-3 2-1 2 1zm-25 8c-1 2-6-4-5-7l2 3c3 1 4 4 3 4zm212 0c5 11 4 13-6 13-4 0-4 0-3 1h7c4-1 4-1 3 3s-1 4-5 2c-5-1-7-3-7-5l5-5c0 2 2 0 4-2l2-2-4 1c-1 2-6 3-6 2l4-3 2-3v-1l2-3h-2l-2 4-3 1h-3l8-10 3 7zm-64-3v8l1 4h5l1 3c2-1 6 6 6 9l3 4 2 5h-1l-4-5-2-4-2-5-3-3 1 3c3 3 3 3 2 6-3 1-3 1-3-1l-1-7v5c0 6 0 6-3 6-2 0-2 0-1-2v-10l-1 5c-1 6-1 7-6 5-3-2-4-5 0-5 2 0 5-2 2-2h-1l-3 1c-2 0-3 0-3-4-1-5 0-8 1-7l1-1c-1-4 1-7 4-5v2l1 3v-8c3-4 4-2 4 0zm-152 3 3 2-3 4c-2 3-4 3-5 1v-5l1 1 2 2v-3c-2-1-3-2-2-4zm9 5c0 2 0 2-1 1l-2-1-1 3 1 1h2-5c-3 0-3 0-2 2l3 2h-5c-1-1-1-1 1-4l4-3v-1l2-4zm222 4c0 8-1 12-3 9h-3l-3-1h-1c-1 2 1 4 5 4 2 0 4 0 2 2l-1 2c-1-1-1 0-1 2-1 3-5 5-5 1h-4c-1-3-6-3-11 0-4 2-5 1-6-3l-1-8v8c1 4 1 4-3 3-3-1-3-1-2-4v-6l1-1c0-3 10-1 11 1 1 3 1 3 6 3l3 2v1c1 0 5-7 5-11 0-2 0-4 2-4l6-2h-8l2-2 5-2c3-3 4-2 4 6zm-42 4c0 1 0 3 1 1 0-3 4-2 3 2l-2 8h-2c-1-2-3-3-1-6l-2-4v4c0 3-2 1-3-1v-4l1-2h1l1-3c0-2-1-2-3 3-4 5-5 6-6 5v-3h1c1 1 1 0 1-1l4-6 2-3 3 3c1 2 2 5 1 7zm-194-4c1 2 0 5-2 3-1-1-3-5 0-5zm45 2-2 2-3 1c-4 3-4 3-4-1-1-4-1-4 4-4l5-1zm3-2v2l2 2-2 1h-1c0 3-6 8-7 8-3-3-2-5 2-6 4-3 5-4 4-7l1-1zm-50 4v1l1 3c-1 1-5-3-4-4l2-1zm71 1v3l2 1 1 3v3c-3 3-4 1-4-3l-2-5v-3c1-1 1-1 3 1zm-65 3c1 4 1 4-1 2s-2-2-2 0c0 5 0 6-1 4-1-1-1-1-1 2 0 7-11 17-20 17l-6 2-1-1 6-3c6-2 15-8 15-11l2-1c2 1 3 0 3-1h-1c-3 1-2-3 1-6l2-5c1-4 3-3 4 1zm49-1-1 1v1l-1 3-1 1-2 1-1 2h-2c-3-1-3-1 0-3l3-5c3-3 5-4 5-1zm13 2v10l-7 1c-4 0-4 0-3-2l2-6v-4l1-1v8l2 3h1v-8l1-5zm116-2-3 3c-2 4-4 8-1 5l2-3 5-4c3 0 1 4-1 5-1 1-2 2-1 5l-1 1h-2c-1 1-2 1-3-1-4-4-4-5 0-9 2-4 3-4 3-2zm-185 3-2 2h-1l-1-3c0-2 0-2 1-1zm60-2-1 1v3l-1 1-2 1v2c0 3-5 4-5 2l2-3 2-3c3-5 5-7 5-4zm-63 6-1 1c-1-1-3 0-1 1 0 3 0 3-2 2v-4c2-4 4-4 4 0zm158 2 7 2 3 2c2 8 2 10 0 10-1 1-1 1-1-6 0-5-2-5-3 0 0 7 0 7-2 7-3 0-3 0-3-2l3-6v-3l-3 5-4 5-1-1 3-6 1-4-1 1-2 1-1 2-1 3c-1 3-2 3-4 2-1-2 0-3 2-5l3-5-3 2c-4 5-4 5-7 1-1-2-1-3 2-3s6-3 6-4h-1l-5 1c-4 1-4 1-4-1l4-2h5l2 1zm37-3v1c-1 1 0 1 1 1 3 0 3 0 3 3-3 2-3 11-2 11l2-4v-1l-2-1 2-2 1-1c-1-2 1-2 4 0 2 1 3 3 3 8 0 7-1 7-10 3-6-2-6-2-3-5v-7c0-3-3 1-3 5 0 2-1 4-3 1-2-1-3-5 0-5l2-4c2-4 4-6 5-3zm-19 6 3 5c-1 2-4 0-4-3l-1-3c-2-2-2-2 0 3v7c-2 1-2 2-2-4l-2-5c-1-1 0-5 3-5zm56 5c1 1 1 1-1 2h-2c2-1 2-1 0 0l-2-1-1-1h-1l-2-3v-2c0-1 5 1 9 5zm-11-3 6 7 1 1-5 1-2 1c-3 4-6 4-5-1l-1-1-2-3c0-2 0-2-1 0v3c3 2 1 6-1 6s-2-1-2-7c0-4 1-7 2-7zM21 381h-5l3-1c3 0 5 1 2 1z"/><path d="M162 8c-1 2-1 2 1 2 5 0 9 3 9 6v2l1-2c1-4-7-10-11-8z"/><path d="M156 12c-1 2 1 2 4 1 2-1 4 0 7 1 4 2 5 2 2-1-2-1-12-2-13-1zm-1 6 1 1v-1l-1-1zm3 4 3 1-3-1c-1-1-1-1 0 0zm4 3c0 2 0 3 1 2l-1-2c-1-1-1-1 0 0zm-34-13v1l1-1v-1l-2 1zm84 24 4 4 2 3-1-3c-1-4-5-6-5-4zm-4 3 2 1v-1l-2-1zm-31-10 1 1v-1l-1-1zm-25 3-1 2-2 2c-2 3 0 3 1-1 3-3 5-5 2-5zm6 2v1l2-1v-1l-3 1zm-52 1-3 1h3c5-2 5-2 0-1zm72 0 1 1v-1l-1-1zm5 0-1 3 2-2c2-1 1-2-1-1zm-22 1 1 2v-2l-1-1zm8 0-3 3c-3 0-4 1-4 4l-1 4v3l2 4 4 1 4-1-4-2-4-3v-5c0-4 0-4 3-4 2 1 3 0 5-2 1-3 1-4-2-2zm-35 3h1v-3zm54-1v1h2l3 1 1 1c1 3 1 3 1 0-1-2-5-5-7-3zm-63 1-1 2c1 2 3 0 4-1 2-2 1-4-3-1zm27 0 3 2 1-1h2c-1-2-6-2-6-1zm21 1 1 1 1-1-1-1zm-31 1 3 2 1 1v-1l-4-3Zm41 0-3 5-1 4 3-4c3-3 3-6 1-6zm-52 3-2 2 1 1c0 2 1 3 3 2v-4l2-2 1-2zm26 0-6 3-6 4 1 1c1-1 3 0 4 3v2l2-2 1-1h2l3 1 2 1v-4h-3c-4 0-5-1-2-2v-1l-3 2c-1 3-1 3-2 1s-1-3 2-5c4 0 8-3 6-4zm-15 3v3l2-4c0-2-2-2-2 1z"/><path d="M169 45v4h2c2-3 1-5-2-5zm19 0h1l1-1h-1zm-82 2h1v-2zm33-1 1 1v-1l-1-1zm36 0 2 1v-1l-2-1zm-62 4 3 2-2-2-2-3zm4-1c0 2 2 2 2 1 1-1 0-3-1-3zm-8 3c0 4 0 4 2 2v-4c-2-1-2 0-2 2zm15-2c3 2 4 2 3 0l-4-1zm9 4c-3 1-3 2 0 2v6c-4 3-4 1-2-1l2-4c-2-1-4 3-5 6l-3 5v3l3-2 3-4c4-4 5-7 3-9v-1s2 1 2 3l3 2c-1-3 2-5 5-3l1-1v-1c2 0 2 3 1 6h-1c0-3 0-3-1-1l-5 2-3 3 4-2 5-1c1 1 2 0 2-2 3-4 0-6-5-5-4 1-7 0-7-1l3-2h2c1-2-5-1-7 2zm-17 2 1 1-3-2zm3 0 1 1v-1l-1-1zm53 0v1l1-1v-1l-2 1zm-66 4 1 1 2-1-1-2zm14 0c5 3 7 3 5 1l-1-1-4-2zm36 0-3 1c-1 2 5 1 7 0 0-1 0-3-4-1zm16 0h2l-2-2z"/><path d="m102 62 4 3 3 3c2 3 3 4 3 1v-1h-1v-2l1-1c1-3 1-3-1-2-2 3-3 3-5-1-5-2-5-4-4 0zm48-1 1 5c1 3 2 5 4 3h2l3-1c0-1 1-1 1 1v-1c0-2 1-3 2-3l3-4h-4c-2 1-2 2-2 5l-4 1c-3 0-3 0-1-2 2 0 2-2 1-2l-3 2c-1 1-1 1-2-4zm-32 1 2 1h2zm-21 4 1 2 2-2-2-3zm70-1-1 1h-3c0 2 4 2 5 1v-4zm16 0-1 1v1h2v2c0 3 0 3 2 3 4-1 8 1 5 2v2h4c4 1 7-3 6-7 0-2 0-2 1-1l2 1v-2l-3-1c-1 1-6 0-10-3l-2 2v4c-3 2-3 2-3-1v-2l-1-1zm10 3-3 3 1-4c3-2 3-1 2 1zm7 3c0 2-3 3-6 1v-3c2-3 5-2 6 2z"/><path d="M195 69c1 3 4 3 4 2l-3-3zm-72-2-1 1h1l1-2zm16-1 2 2h1l-1-1zm-39 5h-3c-1-2-2-2-2 1-1 2 2 2 5 0 1-1 2-3 3-1 3 0 3 0 2-2h-5zm71 0c0 2 1 2 1 1v-4c-1 0-3 1-1 3zm-40 0 2 1v-1l-2-2zm4 0 1 1v-1l-1-2zm11 1c-1 2-1 2 1 2l2-2v-3zm33 0 1 1 2-1-3-1zm-74 2c0 3 0 3 1 2v-4zm18-1c-1 1 0 1 1 1 4 0 5 0 3-1zm-6 5c1 4 2 4 3 3l4-4 1-1-5 1h-2l-1-3zm58-2v2c2 1 2 0 2-1 1-4 0-5-2-1zm5 0-2 3c0 3 0 3 2 2l2-5zm-79 2 1 4h3c-2-1-3-3-2-4 0-4-1-4-2 0zm85-1 2 1v-1l-2-1zm-94 1 3 1 1-1-2-1zm16 1h1c3-1 3-1 4 2l-1 3c-1 1-1 3 1 3l1 1-1-10c-2-1-5-1-5 1zm75 0h1l1-1h-1zm7 2-2 2 2-1 3-1v-2zM87 82l-1 2c1 1 3-1 3-2zm49 1c-1 1 0 1 0 0 3 0 4-1 2-1zm48 0v1l1-1v-1l-2 1zm11 0 1 1v-1l-1-1zm-7 2v2l1-2v-1l-3 1zM83 87h2l-2-2zm25 1-1 5v1h4l1 1v-1l-3-5c-1-4-1-4-1-1zm-19 1 2 3c3 0 3 0 1-3l-2-2zm-11 0c-2 1 0 1 0 0 2 0 3-1 1-1zm5 1 3 2-2-3c-3-1-3-1-1 1zm20 0-1 3v1c1 2 3-2 3-4zm14 0 2 2-2-3zm12 5-1 3 2-3 1-2zm-48 1-2 2 2 2c3 1 3 1 2-1 0-3 1-4 2-1h4l2 1v-1c-1-2-2-3-4-2l-2-1c0-1-1-1-4 1zm14 2h1l1-2c-1-2-2-1-2 2zm11-2 2 3h1l-1-1zm-32 5 2 3h2l-3-3zm13 2 2 1 1-1-1-2zm7 3h1v-1c-1-1-3 0-1 1zm-11 1h1l1-1c-1-1-2-1-2 1zm6-1v3l1-2 1-2zm34 0h1l1-1h-1zm-48 4c0 4 3 5 3 2l2-3 1-3-2 1h-1c-3-2-4-1-3 3zm-21 1 4 4 2 2-1-2-3-4h-3zm27 1 4 4v-4l-1-1zm8 6v7l1-2c1-6 1-9-1-5zm-43 3v4l2-8zm28-3-1 3 2-1 4-2h1zm9 2c-2 1 0 1 1 1l1-1-1-2zm9 1h2v-3zm-25 1 3 1h2l-4-2zm11 3c-3 3-3 3 0 3 1 0 2-1 2-3v-4zm22 0h1v-3zm-57 2 4 2-1-2zm24 1v3l1-2c0-2 1-3 4 0h2l-5-3zm17-1 1 1c1 1 1 0 0 0 0-2-1-3-1-1zm10 2c-2 2-2 2 1 2s3 0 3 3 0 3 2 0c2-5-2-7-6-5zm-38 2h1c2 0 3-2 1-2zm19-2 3 2c0 1 1 1 0 0zm-29 5c0 3 0 4 1 3v-5c-1-1-1 0-1 2zm24-2-1 2-2 3h2c4-1 4-4 3-6zm4 6-1 4c-3 1-4 7-3 9 2 0 3 0 4-2 0-2 1-2 2-1 2 1 3 1 5-1l2-3-3 1-4 2c-1-2-2-2-3 1h-1l3-5 1-3-1-1v-2zm-14 9-1 2 5-4c0-2-1-1-4 2zm-18 11-1 4 2-3v-6zm7 7-1 2 3-1c1-4 1-5-2-2zm15-1c-1 1 0 1 1 2 3 0 3-1 2-2zm-7 2h1v-2zm5 4 1 1c2-1 1-2-1-2l-2 1zm-2 8 2 8c1 3 1 5 3 3 3 0 4 0 5 4 2 2 2 2 2 0 0-4-4-6-7-6-1 1-2 0-2-4v-6zm-22 4c0 2 0 4 2 2v-4c-2-2-2 0-2 2zm14-2 2 2c3 0 3 0 2-1l-3-1zm-1 6v2l1-2c1-3 0-4-1 0zm-14 2 1 1v-1l-1-1-1 1zm20-1 2 1h1zm-23 5 1 1v-1l-1-3zm8-1h3l2-2zm-6 3c-1 3 0 3 1 3 3 1 3 2 3 6 0 3 1 5 1 2 0-2 2-3 4 0l-2 4-2 2h1l3-1 1-1 1-1v-3c-2-2-2-2-1-3v-3l-1 1c-3 3-4 2-4-1l-1-4c-3 0-3-1-2-1v-2zm17-2h-2l-2 1c2 1 7 0 7-1zm5 1c-4 5-1 28 2 28v-5l2-1-3-1h-1l1-1-1-5c-2-6 0-19 4-13 2 2 2 2 1-1 0-3-3-3-5-1zm-12 0v1l1 1 1-1-2-2z"/><path d="M67 194c0 1 0 3 1 1v-2c-1-1-1 0-1 1zm-26 0h1l1-1h-1zm24 5 2 1 1-1-3-1zm-30 5c0 2 1 4 1 1v-5c-1-1-1 0-1 3zm25-2v2l2-2v-3zm-9 2 1 1v-1l-1-1-2 1zm-15 6 1 4h1l-1-4zm15 0c-2 1 0 1 1 1l1-1-1-1zm3 3h2v-3zM256 38l1 2c2 1 2 1 2-1l-2-3zm28 12 3 1h1l-1-1zM84 57l2 3v-2l-2-2zm-6 6c-2 2-2 2 0 0l2-2zm-3 5 1 1-1-1c-1-1-1-1 0 0zm4 0-1 3 1-3c1-1 0-2-1 0zm1 6h3l-3-1Zm150-14 2 1 1-1-1-2zm-12 9 1 2 2-2-2-2zm6-1h2l1-1h-1zm-11 1v2l2-2v-1l-3 1zm46-8v2c1 0 2-2 1-3zm-27 17 1 1 1-1-1-1zm-2 11 2 1v-1l-2-1zm5 11-2 9c-3 7-3 11 0 3 1-2 2-3 2-1v1c3-1 3-8 2-12-2-1-3-2-2 0zm2 6h-2l2-2zm45-38v1l1-1v-1l-2 1zM171 84l2 1v-1l-2-2zm-3 1c0 7 21 16 25 11 1-1 0-2-4-1-6 0-18-5-20-10zm113 4c0 1 6 4 7 3l-3-3zm-2 11h4l-5-2c-1 0-1 1 1 2zm-14-7 3 2-2-2-4-3zM58 94l-1 1h1l1-2zm5 7c-1 2 0 2 0 0 2 0 2-1 1-1zm103 2c-2 2-2 2 1 1 2-1 4-4 1-4zm5-2 1 2 1-2-1-1zm-4 5c-3 4-4 6-1 6l1-1 2-5 2-2zm4 5 2 1h1zm-9 6v1l1-1v-2zm10-1 1 1h1l-1-2zm-16 9-9 3c-5 4-24 23-34 36l-12 14-7 8-5 5-5 7 5-6 5-5-4 6-27 42c1 1 21-7 35-14 15-7 24-13 18-11l-7-4-2-3 2 2 4 3-5-5c-2-4-6-5-6-5l-4-5c-2-4-3-5-2-6l2-1 2-2v-1l1 3c-1 2 4 11 11 17s10 6 24-4l13-8c0-3-4-2-5 1-3 2-13 8-14 7l-1 1c1 2-4 5-6 5-3 0-18-14-18-17l3-4 3-3-4 3c-2 3-2 3-5 0v-3c1 1 3 0 1-1h3v-2c-1-1-1-2 2-5l3-3 1-1v-2l1-1c3 0 3 3 1 5-1 2-1 2 2 0 3-4 4-5 1-5l-3-1 2-1h2c1-2 1-2-1-2l1-1 2-2 5 7c4 9 14 18 16 18v3c-1 1-1 1 0 0h5c4 2 4 2 7 0l3-1-4-3c-7-3-18-13-23-22-2-5-5-8-4-10l3 2 5 11c0 1 16 16 20 17l5 2 4-3c7-8 13-14 13-11v2-4l2-2c2-1 7-14 7-17 0-1-1-3-2-1-3 0-14-4-16-8-3-2-2-5 1-1 2 2 6 5 12 6h5l-1-4c-3-13-14-19-27-15zm6 3 1 3v-6l1 3v6c-1 2-1 2-2-2-2-6-2-7-1-7zm-4 1c3 9 14 19 22 19l3 1c0 2-8 1-14-1-6-4-13-14-13-21 0-2 2-1 2 2zm13-2c2 0 9 9 9 10 0 3-3 2-7 0-4-3-5-4-5-1l10 4 4 2-14-4c-2-2-4-6-1-4l1-2c-2-5-2-6-1-6zm-18 1 2 3 1 2 4 7c4 8 13 11 22 13l-5 8-3 3-2 3-9 10-5 5-6-4-12-9c-5-5-12-18-12-20s2-1 3 2v3l4-3c1-2 3-3 1-4h-2c-1 2-1 2 1 1v1c-1 1-2 1-4-1-1-1-1-3 2-4 2-2 2-2 5-1 1 1 1 1 0 0-2-3-2-3 1-4l2-3 4-3 2-1 3-3zm-28 30c3 8 16 22 24 25l3 3c0 3-13-4-18-10-5-5-12-18-12-20s2-1 3 2zm-13 41c5 4 7 7 5 6l-15-16v-1zm-7 6c3 3 3 4 1 5h5l-3 4-7 3-6 4c-1 0 3-5 6-5v-2l-12 8-5 3-8 3h-2l-2 2-4 1c-1-1 0-3 2-6 4-1 5-4 5-5v-3c1-2 1-2 3-1l2 1-1-1c-1-2-1-2 1-6l5-5 1-1 1-2c2-2 2-2 0 0l3-5 4-6 4 6zm1-3h-1l-3-3h3z"/><path d="M171 131c0 2 7 7 7 6l-3-3-3-3zm-26 7-1 2-3 2v1c3 0 8-5 6-6zm5 0 2 1 1-1-1-1zm6 4 1 2v-2l-1-4zm-11 2c-3 3-3 3 0 3l1-2 1-2 2-1c0-2-3 0-4 2zm7 3v1l1-1v-2l-2 2zm5 1-2 2c0 3 0 3 1 1 2-2 2-6 1-3zm-12 2c0 1 0 3 1 1v-2c-1-1-1 0-1 1zm18 0h1l2-1c-2-1-3-1-3 1zm-27 3-3 2 3 6c5 8 10 12 17 16 8 4 8 3-1-2-7-5-12-10-10-10l2-1c-2 0 0-3 2-4 4-4 4-4 6-2l3 1-3-3c-2-1-3-1-6 3l-5 3h-1c-1-1 0-2 2-4l4-4-4 4c-4 3-6 2-4-3 0-1 0-4 2-4v-1c0-1-2 0-4 3zm32-2v2h1c0-3-1-4-1-2zm-10 4v1c3-2 4-1 3 2 0 2 0 2 1 0l2-2-2-2c-2-1-2-1-4 1zm14-1c-3 2-1 2 1 0v-1zm3 2-1 3 3-3c3-3 2-3-2 0zm-9 3c-2 3-2 3 1 1l1-2z"/><path d="m146 164-1 2 4-1c2-3 1-4-3-1zm6 1-2 4 3-3c4-5 3-5-2-1zm5 2v3l4-5c0-3-1-1-4 2zm7-1v4c2 1 2 0 2-3 1-3 1-5-2-1zm-11 5h2v-2zm7 0h2v-1zm1 4c0 2 0 2 1 1v-4zm-4 0 1 1v-1l-1-2zm-65 22h2v-2zm3 3 1 2v1l-2 3 2-1c2-3 4-5 1-5zm-6 5-2 1h3l1-1zm7 3v1l4-1 1-2c0-2-4-1-5 2zm4 1-3 2c0 2 1 2 4-1 4-2 4-2-1-1zm-13 1v1l3-1-1-1-3 1zm-6 1v3h3v-3zm10 0v4l-2 1c-3-1-5 0-2 1 2 2 7-1 7-2l-2-1v-1l2-2zm-6 9h1l1-1h-1zm-6 1c-1 3 0 5 2 3 2 0 3-2 2-3zm111-73 1 1-1-2zm-74 27v2l-2 3-1-2-1-2c-3 0-3 0 0 2l1 4-1 2 2-1 3-7-1-3zm67 0v1l1-1zm-56 8-4 1c-1-1-3 2 0 2 1 1 7-4 6-4-1-1-1 0-2 1zm6 0c-4 0-3 3 2 4l3-1-3-2v-2zm31 1 3 2c2 1 2 1 1-2-1-1-4-2-4 0zm-46 5-1 3h2l1-3v-2zm10-2 2 2h4v-1h-4zm-31 2 3 4 1 1c-3-5-4-7-4-5zm70 2 1 1v-1l-1-3zm-28 0 1 1 2-1-1-2zm36 2 3 1-3-3zm-47 0-3 2h-5c-2 0-2 0 0 2s3 2 7-2l3-3zm-15 2h1l2-1-2-1zm15 2-4 5 6-5c5-5 5-5-2 0zm45-3v1l1-1v-1l-2 1zm-26 4c-6 1-12 10-9 11v1l-2 3 2 2 1 2c0 3 2 2 2-1 1-2 0-3-1-2-2 0-4-3 0-3l1-5v-2c3 0 3 1 1 1h2c2-1 2-2 1-2v-1h5v-2c-1-1-1-1 1-1l2 1v2l3 1c2 1 5 1 4-1-3-3-8-5-13-4zm21 1-1 1 4-1v-2z"/><path d="M146 208c-2 2-2 5 0 3l3-6zm1 6c-2 2-2 3-1 3l4-6zm5 0v3l-1 3 4-6zm-10 5v3l2-3zm4 5c1 1 1 1-1 1-1-1-3-1-1 1 0 2 1 4 3 0 2-1 0-5-1-5zm-51 6-3 3 4-3c4-5 2-5-1-2zm51 1c-1 5-1 6 1 5l2-5-2-4zm-7 1-1 4 2-3c2-3 1-5-1-1zm-50 4h1l1-1h-1zm53 2-2 3v2c1 1 2 1 2-1l2-5c-2-1-2-1-2 1Zm-34 6-3 4 3-2c5-7 4-7-1-2zm-38 11-1 2h1l2-3zm-7 6c-1 3-1 3 1 2l1-4zm127-149 3 3 1 1-1-4zm54 24 4 2c0-1 0-2-3-4-2-2-5-1-1 2zm-44 1 1 1v-1l-1-1zm4 13c-2 1-2 3 1 4l2 1-1-1-1-3c1-2 1-2-1-1zm-4 16 1 1v-1l-1-1zm2 1 2 4c1 1 1 1 1-1v-5zm54-8-2 1 3 2c4 0 5 0 4-1h-1l-1-1 2-1 2-1c0-2-3-2-7 1zm1 7 2 1 1-1-1-1zM48 144l1 3c3 2 3 1 2-2zm190 14 2 2 6-2zm29 7h1l3 1 2 1v-1c-3-2-6-2-6-1zm-12 12v4l1-4zm-64 21v4l2-2c0-2 2-2 3-1l-1 3-1 2 5-5-3-2c-3-2-3-2-5 1zm-12 6 1 4c3 3 3 1 2-3zm-5 5v1c1 1 1 1-1 3v2l2-2 3-3 1-1zm33 17h1l2-1h-2zm-5 4v1l2-1 1-3zm-6 2h1l2-1h-2zm-2 1v2l1-2v-1l-2 1zm-88 3-5 7c-4 3-6 6-6 7l3-3c7-6 9-11 9-12zm-65-16 4 4 2 2-2-4zm7 6 3 4-2-4c-1-5-2-5-1 0zm125 13h1l1-1h-1zm-106 8-15 13 6-3 4-3 3-4 5-4 2-2 3-5 6-6zm-18 17 2 1 1-1-1-1zm92 17-1 2c1 2 2-1 2-2zm120-18-1 7 2-5c3-4 3-5-1-2zm-9 12-2 1c-2 1-2 1 0 1l4-2v-1zm4 4-1 2 4-1 2-1 1-2c0-2-2-1-6 2zm-2 14 1 3 1-4c-1-1-2-1-2 1zm-76 10-1 1h1l1-2zm-38-6 1 6-1-9zm122 7 1 5c2 1 2-4-1-6-1-2-1-2-1 1zm-62 8-3 7 5-9zm-53-2v2l2 2h1c0-1-3-6-3-4zm118 4-2 2 4-2c4-4 1-4-2 0zm-149 23c0 4 0 4 1 1v-3zm103-2v1c3-1 4-4 2-4zm4 2h-5l-2 3 1 1 4 2c2 3 3 2 1-1v-1l2 1 3-1 1-3-2 2h-3c-1 0-1-2 1-3 3-1 2-2-1 0zm-2 3-2 1-1-1 1-2zm5 6 1 1v-1l-1-1zm-99-20c-3 1-3 1 0 1h2l1 2c3-2-2-4-5-3zm-3 5 1 3-1-3c-1-1-1-1 0 0zm1 5h2l2 1h1l-3-2c-2 0-3 0-2 1zm6 1c0 1 3 3 3 0v-1c-1-1-3 0-3 1zm73 4 2 2c2 0 4 3 1 3v1l1-4c2-1 0-1-1-1l-2-1zm-4 5 1 1c1 1 1 0 0 0 0-2-1-2-1-1zm78 2c0 1 4 3 5 1h4c0-1-2-2-4-1zm-19 4c0 2 3 8 6 8h1zm8 6 1 1 2-1-2-1zm10 1 1 1v-1l-1-2zm-28 9-1 4c-3 1-2 2 0 3s3 1 3-1h-1v-4c1-3 1-5-1-5zm14 1 3 4c2 0 1-1 0-5-3-1-3-1-3 1z"/>
  </symbol>
</svg>
