<svg xmlns="http://www.w3.org/2000/svg">
  <symbol id="1" viewBox="0 0 900 921">
    <path d="m414 172-23 5-8 3-6 1-5 1-5 1-6 2c-4 2-12 5-14 4l-1-2-2 1-4 2c-3 0-4 1-5 3l-2 9-2 6v11l1 4c0 4 4 13 8 19l4 8 5 2c5 1 6 1 5 3s-5 4-11 4c-3 0-4 0-6-2l-7-9c-8-8-9-10-11-21-2-10-1-29 2-34 1-2 1-2-1-2s-5 7-6 12c-1 3-1 3-4 2h-4v10l-2 11 1 2 3 2 2 4 6 9c4 8 11 16 13 16l1 2c0 2-2 3-5 4l-11 5c-11 5-20 13-27 23l-8 15c-1 2-3 3-5 2-2 0-3-3-1-3l2-3 1-2 2-2c0-2 3-5 5-7l4-6 1-1 5-5 18-19c3-2 4-6 2-6-16 14-30 31-41 49 0 4-9 6-9 2l8-12 3-4c5-8 23-27 29-31l4-7c-1-1-5 1-14 10-12 12-17 17-21 23l-7 11-5 8c-1 2-2 2-4 2-4-1-4-4 1-9l25-29 21-24c0-3-4 0-9 6l-24 25c-14 16-17 21-18 23-1 3-4 4-6 3s-1-3 2-6l9-11 11-13c6-5 9-9 19-21l8-10c4-4 7-8 6-9s-9 4-10 7c-3 5-3 5-5 2-1-1 0-2 3-6l4-7 2-2 1-1-1-2-13 12-13 12-3 1c-2 0-2 1-1 2s0 3-6 8l-10 14-11 16c-2 4-5 5-7 2-1-3-1-3 9-17l9-13 4-5c5-6 10-12 19-20l14-13c9-8 10-10 10-13l-1-4-4-1-3 1-6 2c-6 1-6 1-5 4 0 3 2 3 7 0 4-2 6-2 7 0l-9 10-40 43-10 13-2 2c-4 2-5 4-5 10 1 6 0 7-1 6l-2 1c0 1 7 8 11 10l5 5c5 5 23 11 32 11 4 0 6 1 4 3l-2 5c0 4-3 6-6 5l-6-1c-14-4-27-11-38-20-2-2-5-4-5-6-1-1-1-2-2-1-1 0-1 4 1 7l1 5c-1 3 1 7 3 8l6 3 9 5 7 3c1 0-1 2-6 4l-6 7c-2 3-5 5-6 5-2 0-2 5-2 31l1 33c2 9 2 10-2 10-2 0-3-1-3-4l-2-5c-1-22-1-45 1-67v-4l-1 3-3 4c-3 0-2-7 0-12 2-4 3-5 2-8-1-5-2-6-5-2l-2 8-1 7-2 6-1 7-1 24c2 0 5-4 5-6l-1-4c-2-4-1-14 1-16 4-4 4-2 4 25v31c3 9 1 15-4 10-2-2-3-10-3-24 0-7 0-10-2-12l-2-3-1 3v18c0 16 0 16 2 20l3 5 2 3c2 1 3 2 2 4l1 2 1-2c0-3 2-4 10-1l10 1h5l3 7 3 3c2 0 4 1 4 3s-2 3-6 2l-5-1-4-1-6-1c-4 0-9-2-12-5l-4-1c-2 1-3 1-4-1s-3 0-2 2l3 4 2 5c0 1 5 4 8 4l10 2c9 2 20 2 25 1l7-2 6-2c7-3 7-3 8-2l1 9 1 11 1 10c1 6 0 7-2 9-1 1-2 2-1 3l3 17 2 8v5c-2 4-4 4-6-1l-2-8-1-11-5-24c-1-9-2-8-3 2 0 6 0 8 2 9l1 7 2 9 1 9 2 7c1 4 2 9 0 9-3 0-4-3-5-10l-2-9-1-9-1-12-2-12-1-6c-1 0-2-1-2-4-1-6-3-6-3-1l1 5c2 1 2 2 1 4v4l1 5 2 11 2 13 4 18 1 3c0 2-1 3-3 3s-2-1-3-4l-2-6-3-13c-3-11-4-15-6-32l-2-9c-3-3-4-2-3 3v18l-2-3-2-8v12l2 8c1 7 2 8 3 3l1-3 3 4c2 5 3 11 0 13v5c0 5 2 5 2 2 0-6 3-3 6 6 1 4-1 7-3 5l-1-4v-3l-1 4c0 4-1 5-3 5s-3 1-3 3c-1 4 0 4 8 4 9-1 15-3 20-5l5-3 4-4 3-4c1 0 4 6 5 13 3 15 7 30 12 44 0 3 0 3-3 3s-4 1-4 3-6 7-8 6c-1-1-2 0-1 2 0 3 0 4-3 6l-7 3c-6 1-5 2 3 2 6 0 7 0 14-4l8-6c0-2 1-2 3-2s3 1 3 5l2 5 2 5 2 5 1 4 2 3 1 5 1 7c1 1 1 1 1-3v-10l-2-9 1-2 2 2c3 2 3 2 2 8 0 5 0 7 2 10l3 8 2 4c1-41 8-81 20-120l2-4 1-5c1-3 0-4-2-5s-3-1-4 1l-1 4-1 2-2 3-1 3-1 2-3 10-4 8-1 3-1 3-3 10c-3 9-5 26-5 39 0 11 0 13-3 13-2 0-2-1-2-5l-1-8-2-10-1-11 1-14 1-19 2-9 1-5 1-7 3-7 2-5 2-5 3-6 2-4c4-2 3-5-1-8-6-4-6-4-6-1s-2 11-7 22l-2 7-1 4-2 4-1 6-2 7c0 10-3 22-6 20-2-21-1-42 4-63 1-7 4-13 6-13 3 0 3-3 0-4-1 0-2-1-2-3l-3-2c-3 0-3 1-3 3l-2 8c-1 4-2 5-4 5v9l-2 10-2 10c0 3-2 6-4 5l-1-9-2-16 1-10 2-7c1-6 2-10 5-16l2-7c1-3 1-3-2-4-3 0-5 2-5 7l-2 7c-1 1-2 3-1 5l-1 5c-4 3-6-1-7-19l1-20v-13c-1-3 0-16 2-15l2-3 1-5c2 0 1-4-1-4h-3l-2 1c-1-2-2-9-1-17v-19c-2-21 2-43 12-62 7-13 18-24 31-30l4-1 7-3c18-5 21-6 44-6 13 0 26-1 39-5 2 0 3 0 12-5l14-8c6-5 11-10 11-12 0-1 4-4 5-3l18 21 7 4 5 3c9 6 28 9 53 9 14 0 19 0 22 2l15 7c8 3 27 23 32 35 6 12 10 36 6 41-1 2-1 5 1 5l2-2c1-1 1-1 1 1l2 4c3 0 3 8 0 9l-2 2-2 4c-2 3 0 5 3 3h2l1 9c0 9-1 11-5 8-2-1-3-1-4 1l-2 4-1 5v4c0 2 3 1 4-1v-3c-1-2-1-2 1-4 5-6 9 4 4 11-2 3-3 4-2 5l2 7 2 7 1 16c1 13 1 15-1 15l-2-2-5-9c-2 0-1 6 2 15 3 8 4 14 2 14s-4-2-6-5l-13-16h-4v4l6 7 4 6c-1 2 0 3 1 5 5 4 11 30 7 30-2 0-6-4-8-9l-5-10c-3-6-16-20-20-22-2-1-2-1-1 3l3 7c10 11 17 24 20 38l2 7 2 7 2 10c0 7 1 10 2 11 2 2 2 4 2 9l1 6c1 0 2-3 2-8l1-8 1-6 2-8 2-10c1-8 2-9 7-4 4 4 8 6 16 8 7 2 24 2 25 1l-2-3c-3-3-3-4 2-9s14-18 14-20l7-27c1-5 2-21 0-24-1-3-2-2-2 1l-1 7-2 10-1 6-1 7-1 8-2 4-1 6-2 5-2 3c-3 0-3-8 0-10l1-4 2-7c1-4 2-18 0-18-1 0-2 4-2 10l-1 8-2 5c0 3-2 12-4 15l-1 3-2 6c-2 3-3 5-5 5-3 1-5-2-3-4l6-14 3-13c2-5 3-12 3-16l2-10c2-2 2-3 1-6l-1-3-1 3-2 5c0 3 0 3-2 3-2-1-2-1-3-6l1-7-2 1c-2 2-3 3-3 5l-2 6c-1 2-2 3-1 4s0 6-2 15l-2 9c-2 9-9 28-11 29h-3c-1-2-1-4 3-13l4-12 2-6 1-7 2-7c1-3 2-16 1-18-2-2-3 0-3 4l-2 5-1 8-1 11-2 7-7 22-3 1c-3 0-3 1 2-12l5-19 2-6v-23l-2 8-2 9-1 5-2 12-3 13c-1 6-2 7-4 7-3 0-4-4-3-8l3-16 2-14 1-16c-1-16 0-17 4-13l20 1c13 0 19 0 22-2l7-1 5-1 3-2 4-2 3-2 1-2 2-4c2-3 1-7-2-4-11 7-23 11-35 13-3 0-7-3-6-4l1-4c1-4 5-7 8-7 5 1 21-5 26-10 3-3 3-3 1-4-3 0-3-2-2-4l2-5 3-6c2-3 2-4 2-10l-1-7c-1-1-1 1-1 7 0 7 0 8-2 8s-3-2-3-10c0-7-2-17-4-19l-2-7-3-6v4l1 6 2 10 1 18v12l-3 4c-4 4-7 4-7 0l2-9c2-6 2-10 2-21 0-12 0-14-2-15l-2-4-1-2c-1 0-1 2 1 11v14l-4 29c-1 3-1 3-5 3-5 0-6-2-4-8l2-12 2-11 1-9c1-6 2-15 4-18l-2-7-3-6-14-12c-5-2-5-4 0-6 4-2 15-12 15-15l1-2 2-3 2-6c1-4-1-10-3-10l-1-2-1-3c-2-1-2-1-2 2l2 7v6c-3 5-9 11-14 14l-5 5-4 2-5 2c-5 4-13 8-17 9-3 0-3 0-3-2l-1-6c-1-2-1-2 1-4l5-2 3-1 5-3 8-5c4-5 6-5 6-1-1 4 2 4 3 1l3-5c3-3 3-4 0-4-2-1-2-1-1-3l2-3 4-6c4-5 4-7 2-7l-4-4-5-7-4-4c0-2-12-17-21-26-6-6-9-11-9-12 0-2-1-2-5-3l-6-1c-5-4-9-5-6-1l2 2 4 2 7 6 15 15c8 7 15 16 21 25l3 6c-2 4-3 2-10-7-10-12-20-23-32-33l-10-7c-8-7-11-8-12-6-1 1 4 6 6 6l1 1 6 4 10 8 5 4 13 14 15 17c4 4 5 8 2 9-3 2-4 1-7-4-7-9-32-34-43-42s-15-10-15-8l4 4c20 16 38 34 54 54 3 2 3 2 0 5-3 4-4 3-8-3-16-20-36-37-58-51-1 1 7 9 13 14 13 10 36 32 42 40l2 4-2 2-4 2-5-6c-12-16-27-30-43-41l15 16c9 8 16 16 23 25 5 7 6 8 5 9-3 2-6 1-7-2l-3-4-6-8c-6-9-15-17-24-22-7-4-9-7-11-15-2-10-2-12 1-20 4-10 10-18 16-23l6-4c5-4 8-5 10-3l4 2c2 0 3 1 3 3l4 3c2 0 3 1 3 2l2 2c3 0-7-11-13-14-5-3-14-4-16-2s-6 1-7-1l-3-1c-2 1-2 4 0 4s1 3-5 9c-9 9-12 16-13 27-1 8 0 16 2 18v6l-4-1c-3-2-4-2-4-7l-2-8-1-11c0-13 4-20 19-36 5-4 8-8 7-8l-7 2c-6 2-6 2-8 1l-4-2-5-2-4-2-5-1-8-2-7-1c-5-2-20-2-31-1l-22 4-5 1c-2 0-3 1-3 2h7c2-2 39-4 53-3 11 1 29 6 29 8l-2 3c-2 3-5 4-8 2-5-3-16-6-27-7-19-2-49 2-49 6h18c13-3 26-2 38 1l7 2 7 1 6 2c1 2 1 2-1 6-1 3-4 4-6 2l-7-2-9-3c-18-2-36-1-54 1-3 0-5 1-5 2l29 1 31 1c19 5 18 5 17 9l-1 4c0 1-4 0-7-2l-15-4c-11-2-40-2-42 0l-4 1c-3 1-3 1-2 2h10c18-1 36 1 54 6 4 2 6 2 6 4 0 4-3 5-7 3-3-2-5-2-20-5-13-3-42-2-42 1l19 1c9 0 19 1 28 3l10 2 7 2c4 0 8 8 5 9 0 1-6 0-11-2-8-3-15-4-24-5-17-2-18-2-18 0 0 1 6 3 11 3l8 1 26 5c7 1 12 4 11 6l-7 1-11-1c-9-1-25-3-31-5-12-4-15-5-18-9l-8-9-7-9c-4-6-6-12-7-21l1-11 2-5c0-2 7-12 9-12 8-2 12-2 12-1 0 2-1 4-4 5s-3 1 1 1l5-1 8-2c5-1 8-2 12-1 3 1 4 0 6-1l1-2c-2-2-11-3-19-3-6 1-8 0-9-1h-13l-12 8-8 7-8-8-10-8c-4-1-12-1-18 1zm16 6 5 5 5 8c3 3 3 5 4 13l1 10-1 5-1 7c-2 9-20 24-28 24l-5 1-11 3-15 2c-8 1-12 1-12-1l4-3 5-1 6-1 17-2c0-2-18-1-24 0-7 2-21 3-22 1 0-1 6-4 13-5l11-2 20-3c15-1 25-4 26-6 0-1-6-2-9 0l-13 2c-15 1-30 4-44 8-4 2-8 3-9 1l-2-2 10-4 7-1c6-2 14-4 34-7l13-3 10-1c6 0 8-1 6-3-1-1-23 1-32 2l-14 2-8 2c-2 2-4 3-15 5l-7 3c-2 2-8 1-8-1-1-2 0-4 2-4l10-3 11-3 4-1c3-2 16-5 20-5l6-1 23-3 4-1 4-1 3-1c-1-2-16-3-19-1l-9 2-12 2-8 1-6 1-6 2c-4 0-14 3-15 4l-3 2-5 1c-5 3-9 2-8-2 1-2 10-5 15-5l5-2 6-3 4-1 7-1c14-5 25-7 41-8 6 0 9-1 10-2 0-1-10-2-22-1-11 1-13 1-35 8-7 1-17 5-18 6l-3 1-5 1-4 2c-3 0-3 0-3-3 19-5 38-11 56-18 8 0 27-6 27-8h-12c-1 2-8 3-19 5l-7 2-5 1-19 6-10 3-4 2-4 1c-2 0-3 0-3-3l4-4 6-2 5-2 5-1 4-2 6-1 7-2 7-1 9-2 9-1 6-1c5-2-10-2-22 0l-29 7-4 1-4 2-3 2c-1 2-4 1-4-2 0-2 1-3 3-4l22-7 7-2 11-3 14-2 10-2 6-1 5-1c2-1 6 0 9 1zm-145 65c1 2 0 4-4 9l-8 10-13 14-15 20c0 2-4 3-6 2s-1-6 3-10l10-12 7-9 4-3c2-4 18-22 20-22zm245 22-1 3c-2 0-3-1-2-3 1-3 3-2 3 0zm120 73 1 3v2l1-2c2-4 4-3 9 7 2 3 2 5 2 13-1 7-1 9-3 12l-4 3c-2 1-1 3 1 3s2 1 2 18l-2 22c0 5-9 18-13 18-8 1-11-1-16-11-2-6-3-9-2-31 0-9 1-12 2-13l1-2 1-1 1-1h-2c-2 0-3 0-3-5l-1-11-1-9c-1-3-1-4 1-7l6-7c3-3 4-3 11-3 6 0 8 0 8 2zm-393 10c2 0 4 2 5 3l7 11 1 4c3 6 4 15 3 37v26c0 6 0 7-3 11s-4 6-7 6c-5 1-11 0-13-2-4-4-6-11-6-18 0-10-2-25-4-28-4-10-7-20-9-31-1-4 1-10 8-16 5-5 5-5 10-5zm-29 38 2 12 2 7 2 9c2 13 2 12 0 14l-4 2c-1-1-2-5-3-16l-2-10c-2-4-1-25 0-25s2 2 3 7zm440 92-1 8-3 8c-1 8-3 16-6 23-2 6-6 10-9 9-2-1-2-1 1-7 5-9 9-20 11-30l1-8c0-5 2-9 5-9zm-390 20-1 2-1-2 1-2zm344 16c3 2 2 7-1 11l-4 3-3 2c-1 1-1 1-1-3l-1-6c-1-1 0-2 3-5l5-4zm-315 82c0 4-1 5-2 4l-3-1-3 1c-1-1-1-1 1-4s5-6 6-5z"/><path d="M412 185v1c2 1 6 0 6-1zm-5 60c-3 1 0 2 6 2l6-1c-1-2-9-2-12-1zm229 100-4 7c-3 4-4 14-2 16l5 11-1 3c-3 1-2 2 1 1 3 0 3 0 5 5l3 6 1 5 2 4c2 2 1 6-2 10l-5 3c-2 0-2-3 0-4 4-3 1-8-3-6-6 2-6 12-1 14 2 1 3 2 3 4l-1 4c-2 1 0 2 3 2 2 0 4-1 6-4 6-6 6-9 6-20-1-13-2-21-4-22l-1-3-6-9c-5-5-6-7-6-10s1-4 3-6c2-3 3-3 7-2s4 7-1 7c-3 0-3 0-3 2 1 4 5 5 9 3 3-2 4-2 4-7 1-4 1-4-3-9-3-3-5-4-7-4l-5-1c-2-2-3-2-3 0zm-390 10c-4 1-7 5-7 9 0 7 4 12 8 9 2-1 2-4 0-6v-4c2-3 4-3 7 1 3 3 3 3 3 13-1 13-2 23-4 27s-4 14-4 19c0 8 6 16 12 16 5 0 11-11 8-16-1-2-1-2-5-1-3 2-4 3-2 4v7l-3-2c-2-2-3-3-3-8 0-6 1-7 3-11 8-11 9-17 8-29-1-13-2-15-5-20-4-8-9-10-16-8zm116-176c-1 1 0 1 2 1l3-1c1-1 0-1-2-1zm177 0 2 1 2-1-3-1-2 1zm-268 37c-1 3-1 4 3 2 3-1 3-4 0-5zm362 16 2 2 1-1c-1-2-3-2-3-1zm6 6 1 2h1l-1-3zm-172 17c0 1 4 4 5 3l-1-3c-1-2-4-3-4-1zm184 2 2 1 1 2 1 1c1 0 1-1-1-3-1-3-3-4-3-1zm-214 3 2 1 1-1-1-1zm-17 7-3 1c1 2 5 2 7 0 1-2 1-2-4-1zm61 0 1 3c0 2 1 2 3 0 2-1 1-2-3-4-2 0-2 0-1 1zm-31 4v2h2l-1-2h-2zm6 5v4c0 2-1 3-10 3l-9 2c-2 1-6 1-10-1h-12l-11-1h-6c-1-2-2-2-3 0-3 2-2 3 0 3s2 2 0 3h-3c-1 0-3 1-3 3l-4 3c-2 0-3 3-2 5 0 2 4 4 5 3l1-4c-1-4-1-4 2-4l4-2 3-1 3-2c3-3 7-3 12-2 7 2 29 2 38 0l12-1 7-1c3-2 7-2 16-1 19 1 21 1 21-1 1-2-12-4-28-4l-17-1v-3c2-3 1-4-2-4-2 0-3 1-4 4zm44-3c-3 1-2 3 0 3 3 0 5-1 3-3zm-103 1-2 2 6-2zm-50 5c0 3 0 6 2 7 3 0 4-2 3-5 0-3-3-4-5-2zm11 2-2 3c0 2 4 1 7-1s3-3 1-3c-2-1-3-1-6 1zm163 0h6c1-1 1-1-2-1zm-185 2v2c-3 2-2 4 1 6l3 2-2 3-6 3-3 2c0 1 4 1 7-1 2-2 10-5 12-5 3 0 3-1 0-3l-3-4c0-2-6-7-8-7s-2 0-1 2zm214 0c-1 2 2 3 5 3l3 1 4 1c4 0 9 2 12 5l7 4c3 0 4-1 1-4l-4-2c-2 0-3-1-3-2 0-2-1-3-11-4l-9-2zm-231 1v2c1 1 4 0 4-2zm223 0c-1 1 0 1 1 1l2-1c1-1 0-1-1-1zm-189 8c-1 2-1 2 2 2l3-2c0-2-5-2-5 0z"/><path d="m501 291-6 2-9 1-4 2c-2 0-2 1-1 3 2 2 1 4-3 5l-4-1 2-1 1-2-4-1c-7 0-9 1-14 3-3 2-6 2-11 2l-8-1-7-1-8-3h-4l-8-1c-8-2-9-2-9 2l-2 4c-1 2-1 4 2 4l4 2 7 3c5 2 17 13 17 15s7 8 8 8c2 0 1-7-2-9l-1-6c0-4-1-5-3-5l-2-1-2-2c-3-1-3-2-2-4h3c2 1 2 1 3-1 2-3 2-3 10 1 7 4 8 4 8 1l4-2 5-2h3l3 2c2 0 2 2 0 4l-3 4-2 4-2 4c0 2-4 6-6 5-3 0-4 2-3 8 3 15 3 19-2 18-2 0-2 0-1 3l1 4c2 24 3 48 2 72l1 6 1 20v14c2 1 5 0 4-2v-73l-2-29v-8l1-4c-1-1 0-3 1-5l2-8 1-5 1-4 2-4 1-3 5-8 7-8 5-3 5-3 3-1 3-1 17-4 6-3c1-3-1-4-4-3-2 3-5 3-5 0l1-2h5c4 0 5 0 5 3 1 3 4 4 16 4 18 0 28 2 33 6 1 2 4 3 5 3l7 4 7 3 4 1 1 1c1 0 1-1-1-1l-2-4c0-2-1-3-3-3-3 0-7-3-10-6-2-3-8-5-13-6-8 0-9-1-10-4-1-1-1-2-3-1s-11 0-13-1c-2-2-32-2-34-1zm0 5-1 1c-2 1-2 1-2-1 0-1 3-2 3 0zm-13 7-1 1-2-1 2-1zm-14 4 1 2c-1 1-4-1-4-3s3-1 3 1zm-19 94-1 2c0 1-2 0-2-2zm-93-103c-1 0-1 3 1 6v2c-2-1-6 5-5 7l1 3 2 3c1 0 4-3 4-6s0-3 6-3l6-1-1-5v-5l-6-1zm-48 3c0 3 1 3 3 0 3-2 2-3 0-3s-3 1-3 3zm272-2 2 2h1c-1-2-3-4-3-2zm-280 6-5 7c-3 4-4 9-2 10s9-4 9-6l1-3v-8c0-3-3-3-4 0zm15 1 2 2 2 3v-3l-2-3h-2zm28 2-6 2c-2 0-4 1-13 9l-4 3-10 11 1 2 10-7c2-3 18-12 24-13 4 0 5-2 1-2-3 0-3-1-1-3l1-3c0-2-1-2-3 1z"/><path d="M459 310c-1 2 0 4 1 3v-3h-2zm-83 3c-3 3-4 5-2 5l3 1c3 1 5-5 3-7-1-1-2-1-4 1zm19-1 1 2c1 1 1 1 1-1l-1-2zm-8 1c-1 2 0 5 1 4v-4zm130 3c-11 1-21 5-30 12l-3 3-4 4-3 5c-2 2-4 8-5 13l-2 11c-2 28-2 55 1 83l-2 37c-3 1-4 3-4 5 0 1 1 1 3-1 5-2 5-2 5 6l1 7c2 0 2-1 2-4l2-8 1 2c0 3 1 5 2 3l3-1c2 0 3-3 0-4l-1-2-2-7c-2-29-3-58-2-87 1-4 1-4 4-3 5 1 7 2 6 4-1 1 0 3 1 5 3 4 4 4 4 1l-2-1v-4c1-1 1-1 1 1l3 3 1 3 3 5 3 4 1 1 2 2 1 1c2 0 3 5 2 6 0 1-6-6-6-8l-2-1-1-1-1-2c-2 0-2 2 1 6l3 5 1 1 4 3 4 3h2l2 1c3 0 8 4 8 6 0 3 1 3 3 2 1-2 2-2 3 0 1 1 1 1 3-2 2-2 2-3 0-4l-5-2-3-1-3-1c-4-1-5-2-12-11l-7-12c0-1 3 0 5 2 4 4 11 7 13 7l3 1 3 1h3c0 2 5 1 6 0l6-2 5-1 5-3c5-2 10-6 14-12 5-6 6-7 9-8l4-4c2-2 4-4 6-4l3-3c0-2-5-2-10-1l-7 3c-2 0-5 3-9 7-5 7-12 12-19 16l-14 1c-10 0-11 0-17-3l-18-12-6-4c-3-2-3-2-3-7 0-4 1-4 6-9l8-4 1 4c0 8 2 11 9 18l7 8c0 1 15 0 18-2l5-1c4 0 12-10 12-15l1-2c2-2 0-11-3-15-3-3-2-5 3-4 5 0 17 6 21 10l7 3 7 4 6 3c2 0 2 0 1-3-1-4-2-5-3-5-3 0-10-4-12-7-1-3-3-4-6-4l-11-4c-19-8-41-8-59 2l-2 1c-2 0-5 3-9 7-5 5-7 7-8 6-3 0-3-6-1-8l2-3c0-2 16-17 17-17l4-2 7-5c5-2 6-2 19-2 15 0 21 1 30 7l13 7c5 2 8 3 16 11 4 4 7 6 9 6l2 1c1 2 3 3 3 1l-1-2-2-2-4-6-5-8c0-4-1-4-4-5-4 0-5-1-6-3 0-2-2-3-4-3l-7-5c-2-3-5-5-6-5l-18-8-11-2-20 1zm20 40c5 3 6 12 3 20-2 5-7 7-14 7s-10-2-15-11l-3-8 3-2c3-3 4-4 13-5 8-2 11-2 13-1zm-62 123-1 6-1-6 1-6zm-23-160-1 3c0 3 3 2 4-1 0-3-1-4-3-2zm226 1c-1 0 0 3 2 5l3 4v-2c0-3-4-9-5-7zm-382 8c0 2 1 3 2 1v-3zm376 0 3 7 3 6 1 1c3 0-1-10-5-13zm-290 1-7 1-11 1c-8 2-17 5-24 9l-5 3-4 3c-2 0-5 3-7 6l-15 13c-3 2-3 2-2 4s1 3-4 8c-2 2-2 4 0 5s3 1 6-3l5-4 2-3c5-7 12-12 19-16 5-4 12-7 14-7l3-1 12-3 19-1 7 1 15 6c7 3 10 6 15 10l5 7 2 3 1 5 1 6c2 14 3 27 2 41 2 26 3 52 1 78l2-1 3-1c2 0 5-4 5-7h-3c-2-1-1-16 0-19 1-2 2-10 1-38 0-43-1-54-3-64-1-9-5-20-8-23l-4-5c-3-4-10-9-12-9l-3-2-12-2-13-1-3-1zm-100 8c-1 1 0 5 1 4v-5zm-60 8c1 6 1 6 1 1l-1-5zm222-1v4c0 2 1 3 2 3 2 0 3-2 1-5-1-3-2-4-3-2zm160 0c0 3 2 3 4 2 3-2 3-3-1-3zm-322 6c0 4 2 8 4 8 1 0 2-3 2-7-1-2-1-2 2-2l2-1c0-2-3-2-5-1h-2c-2-2-3-1-3 2z"/><path d="m375 363-8 1-7 1c-6 3-12 4-15 4-5-2-5-2-6 0 0 3-3 6-5 6-1 0-10 6-11 9l-7 5-7 5c-1 2-1 4 2 4l14-8 5-3 5-3 4-2 2-2 2-1 3-2 5-1c4 0 4-1 2 9l1 9c2 5 10 13 13 13l10 2c8 1 11 0 17-6 4-3 7-7 7-8 3-4 2-12 0-17l-2-6c0-3 11 0 16 4 4 3 10 5 10 3 0-4-14-12-25-15-12-3-19-3-25-1zm12 10c3 1 4 7 3 13s-5 11-10 11-10-2-13-6-3-5-2-10l1-7c1-1 18-3 21-1zm220-8c-1 2 0 3 3 3l2-1c1-1-1-3-3-3zm-324 1c-2 2-1 5 1 5 3 0 4-2 3-4s-2-3-4-1z"/><path d="M601 384c0 2 0 2 1 1v-2c-1-1-1-1-1 1zm-317 4c-2 2-3 6-1 6l3-4c0-4 0-4-2-2zm134 2-5 6-4 6c-3 5-13 12-21 14-11 3-27 2-32-3l-2-1-10-6-11-7-4-2c-1-1-5-1-10 1-2 0-2 0 0 2l5 2 7 4 9 7 7 4 8 5 2 2v2l1-1 8 1 9 1c8 0 17-2 20-5l2-1 7-4 5-3c2 1 3 5 3 7l-1-1c-2-2-4-1-4 2l-4 4a92 92 0 0 0-17 18c1 1 5 0 7-3 1-2 3-2 6-3h5c2-1 9-10 9-12l2-2 1-3 2-3c1-2 1-6-1-7l-1 3c-1 2-1 3-2 2-2-2-1-5 3-6 4-2 4-2 5-8l1-9v-4c-1-2-4-1-5 1zM597 398c-1 0 3 5 5 5l-2-4c-2-2-2-2-3-1zm-114 7v6l1 2 1-2-1-6-1-3-1 3zM583 408l-4 2v2c0 1 1 2 3 2 3 0 4-1 5-3s1-2 2-1h3l-2-1-1-1c0-2-3-2-7 0zm-265 7c-1 4-5 8-8 6l-2-4-1-3c-3 0-3 2-1 6 1 4 2 4 6 4 6 0 8-2 8-8 0-5-2-6-2-1zm-25 0c1 3 4 5 5 3v-2l-2-2c-2-2-3-1-3 1zm258 1c-1 2-2 2-6 2l-6 1c-1 1-1 1 6 1 3 0 4 1 4 4 1 4 2 3 2-2l2-5v-2c-1-1-1-1-2 1zm57 2-2 5-1 2-5 5c0 2 6-2 7-4l4-11zm-44 1c-2 1-1 5 1 5l1-3c0-3-1-4-2-2zm-268 3c0 2 1 3 2 1l-1-3zm41 4c-2 1-2 2-1 3 1 2 4-1 4-3 0-3-2-3-3 0zm-17 2-2 4-1 4c0 3 1 3 4 3 4 1 5 0 5-3l-1-4-1-1c1-2-1-6-3-6zm256-2v6c1 1 4-3 4-5s-3-3-4-1zm-92 3c-3 3-2 6 2 7 2 0 3 0 3-2 1-2 1-4-1-5l-1-3zm105 0c-3 3-1 5 2 2l2-3c0-2-3-1-4 1zm-43 4v4c2 0 4-1 4-3s-1-2-4-1zm9 0c-1 3 0 4 3 6h4c3-2 2-2-2-2l-4-3c0-2-1-2-1-1zm56 2 1 2 1-3c-1-2-2-1-2 1zm-38 2c-2 2 0 3 2 2l2-2zm32 2c1 3 1 4-2 4h-3c-2-2-5-1-5 1 0 3-3 6-11 12-4 3-6 4-8 3-4 0-5 1-4 5l-1 3-2 2c0 2-5 5-7 5-1-1-1-1-1 1l-5 12-5 12-2 3-1 2-2 4-1 6-2 8c-2 2-2 4-2 9s0 6-2 7c-1 1-2 0-4-1l-3-2-3-3c-4-7-14-12-14-7 0 3-5 12-7 12s-7 6-7 7c1 1 3 0 8-3 3-2 4-2 5-1l4 1c6 2 33 31 33 36l1 4 3 6 2 5 1 5 2 6 1 7c2 8 3 19 2 24l-2 10-2 8-2 8c-1 11-4 22-9 32l-1 3-4 7-7 18-3 6-2 1-1 5v4l-2 3-1 4c-2 0-2 1-1 2s1 3-1 7c-2 2-3 7-3 9l-1 7v2l2-2 4-3c3 0 3-2 0-3-2 0-3-4-1-6 2-1 4-5 4-8l2-7 2-8c2-6 9-16 11-16 2 1 5-2 5-4l2-4 1-3 2-3 1-5 2-4 2-7 1-8 1-4 2-7 1-4 1-3 3-8c2-7 3-10 3-30 0-15-1-24-2-28-4-11-8-22-14-32-2-5-8-11-10-11l-2-2c0-2-1-3-2-3-1-1-1-4 2-7l2-7 3-8 2-7 1-5 1-3c0-3 4-8 7-9 4 0 4-5 0-4-3 0-2-3 2-5 3-1 3-2 4-5 0-3 1-6 3-8l4-7c3-3 6-6 8-6l3-3c1-2 2-3 4-3l5-2c2-2 2-3 1-4-2-3 0-4 3-2 4 1 4 1 3-2v-4l1 1c1 2 1 2 4 1h3v-6l-1-6c-2 0-2 0-2 3zm-42 227-1 2-1-1 1-2 1 2zM371 442c-2 4 0 6 5 4 3-1 3-5-2-6l-3 1zm-68 3c-1 3-3 4-4 4l-2 2c0 2 2 3 3 1l2-1 3-1 4-2c3-1 3-5-1-6-3-1-3-2-5 3zm55 2c-2 1-2 2-1 3h4c3-2 3-3 1-5-2-1-2 0-4 2zm134 0v10l-1 8-2 5c-1 3-1 4 2 7 2 3 4 4 6 4 1 0 2 1 2 3s1 3 2 3l1-4-1-7c-1-1-4-10-5-17l-1-4-1-5c0-4-1-6-2-3zm5 26-1 1c-2 0-3-2-1-3 1-1 2 0 2 2zm-179-25c-5 3-5 5-1 9 2 3 2 5 1 8 0 3 0 3 2 3 6-2 6-2 5 10 0 3 1 8 3 8l1-4c-1-2 0-3 1-4 2-1 6 3 6 5s1 3 2 3l5 4c4 4 4 4 2 6v2c2 0 4 4 3 7 0 2 0 2 2 2 3-1 6-7 5-10l-12-14-12-14-3-3c-2 0-2 0-2-4 1-3 1-3-3-4-3-2-3-2-1-6 1-3 2-6 0-6zm381 4c-1 3-1 4 1 5 1 2 2 1 2-4 1-5-1-6-3-1zm-356 0-1 3-3 3c-2 1-2 1 0 10 0 4 4 5 8 2 2-3 2-3 1-5-2-2-1-6 1-6v-1c0-1-1-2-3-2s-2 0-2-2c1-2 0-3-1-2zm81 1-1 2c0 1 1 2 2 1l2-2c0-2-2-2-3-1zm108 1-1 3c0 2 0 2 2 1l2-3c0-2-1-2-3-1zm149 1v3l1-3zm-377 1c-2 2-3 4-1 4 1 0 2 1 2 3l1 2 2-3c2-5 0-9-4-6zm111 1-7 4c-3 2-4 3-4 5 1 3 4 4 10 1 5-2 7-4 6-9-1-3-2-3-5-1zm137-1c-2 1-3 5-1 6 2 0 5-2 5-5 0-2 0-2-4-1zm-192 1v2h2l-1-2h-2zm340 4-1 3c0 2 0 2 1 1l1-3zm-191 2 2 3c2 0 2 0 2-3-1-3-4-3-4 0zm-298 1v2l1 9c0 7 0 8 3 11l3 7 3 5 1 4c0 3 0 3 1 1v-5l-3-9-1-6-2-6c-1-10-3-15-6-13zm325 0 2 2 1 3c0 2 3 1 4 0l-2-4c-3-2-5-3-5-1zm-165 2c-1 2 0 2 2 3 4 2 6 2 6 0l-1-2-3-1c-2-2-3-2-4 0zm-5 2-1 4c0 5 3 6 4 2 1-5-1-9-3-6zm-135 5c1 6 3 11 4 11l1-6c0-4 0-6-2-7-3-3-3-2-3 2zm35-3c0 3 0 9 2 11l2 7v5l1-6c1-4 1-6-1-8l-1-4c0-3-3-7-3-6zm252 0 2 4v-4zm-297 4 1 4 3 20 2 6c1 0 3 3 3 5l5 16 1 5 3 6 2 3v-3l-1-6-2-7-1-3-4-17-8-25-2-5-1-2z"/><path d="m593 474 2 2c1 0 1-3-1-4zm-239 2c-2 0-4 2-3 4l2-1h3l2 1 5 2c5 3 6 3 4-2-1-3-2-3-5-3-2 1-3 1-3-1l-2-1zm175 1-2 3 4-4zm-148 0-3 2 12 5c3 0 3-3 0-4-2 0-3-2-3-2 0-2-2-2-6-1zm104 3 1 2c1 1 1 1 1-1s0-3-2-1zm64 5c-4 3-4 4-3 7v3l4-4c4-4 5-8 3-8zm-255 0 2 1 2-1-3-1zm60 2 2 2c2-1 3-4 0-4zm182 0c-1 1 0 3 2 3l1-1c1-1 0-4-2-4zm-19 3c0 2 3 4 4 2l-1-2c-3-3-4-2-3 0zm-139 1c-2 1-1 4 1 4s2-1 2-2c0-2-2-4-3-2zm117 3-4 3-4 3c-2 3-2 3 0 8 2 3 3 5 5 5s2 0 1-3c0-5 2-6 5-3 3 2 3 6-1 10-6 6-12 3-15-6-2-7-2-7-5-6-2 1-2 1-1 7l-1 7-2 3-4 5c-3 3-4 4-7 4-5 0-9-3-7-5 1-1 0-2-2-3s-4-2-5-1c-3 1-7-2-7-7l-2-5c-2-2-4 0-5 4 0 5-2 8-6 10-3 2-3 2-6-1-3-2-3-3-3-7s1-4 3-5c4 0 5 2 2 5-2 2-2 2-1 3 3 3 8-4 7-9-2-7-9-7-15-1-3 2-4 3-5 2-3 0-2 2 0 5l2 7c1 5 1 5 6 8 7 3 12 2 16-1 2-2 3-1 4 3 0 1 2 2 5 2 5 1 7 2 8 7 2 5 4 8 7 8 4 0 4-2 1-3-2-1-3-2-3-4s1-2 5-2l6-1 6-4 6-7c1-3 2-3 4-3 6 2 12 2 14 1 4-2 9-7 10-10 4-7 3-8-2-13l-5-5-2-4-3-3-1 2zm-160 1 2 1 1-1-1-2zm80 1-1 2c0 2 3 1 4-1 0-2 0-2-3-1zm129 1-1 4-1 4-2 3c0 2-1 3-3 3-4 0-5 2-3 3 2 0 2 2 2 5 0 6 2 7 3 3l3-12c3-8 4-15 2-13zm-167 4c0 3 2 3 4 1 1-2 1-3-2-3zm188 0c-1 2 0 3 4 7 7 8 15 19 15 21l1 5c7 13 10 20 11 29l3 9 1 8 1 6c3 2 4-31 1-37l-1-5-2-6-3-5c-7-13-17-25-29-34zm-230 2-1 2-2 3c-3 2-1 3 2 3 2 0 3-1 3-4 1-4 0-5-2-4zm58 2v2l5-3c0-2-4-1-5 1zm-35 0 6 11c2-1 1-6-1-9s-4-4-5-2zm167 0c-2 1-1 5 1 5l1-3c0-3-1-4-2-2zm-143 3c0 4 2 5 6 3s2-5-2-6c-4 0-4 0-4 3zm206-2-1 2c0 1 1 2 3 2s3-3 0-4zm-346 8c0 3 0 6 2 7l1-3c0-4-2-6-3-4zm318 1c0 2 1 3 2 2l-1-3zm-191 7v4l1 2-1 1c-2 0-2 1-1 3 0 3 0 4-2 7-3 4-3 6-1 6s5-5 5-8l1-2 1-3c0-2 0-2 1-1 2 2 3 1 3-2 0-4-5-10-7-7zm19 5c-1 3-3 6-5 7l-4 4-4 7c-5 5-7 8-7 11l-1 4-2 3-1 2-5 11-1 5-5 12c0 2-2 7-5 10l-2 10-1 15c-1 15 0 30 2 45l2-4 1-5 1-4 1 6 1 5 3 16c0 11 2 23 4 27l1 6c-1 1 0 4 1 6 2 4 3 12 1 10l-3-1c-1 0-4-2-6-5l-8-6c-2 0-3-2-3-3 0-2-1-3-3-3l-2-1h-1l2 6c1 3 1 3 11 14l8 10 3 4c3 1 11 16 10 19s4 3 5-1c2-3 4-3 8 1l4 4c2 0 1-5-1-6l-2-3c0-3-3-9-6-15l-2-5-3-8-3-8-2-2-1-4-2-6-1-8-2-8-1-12-2-16c-3-23-2-46 3-68l4-10 1-4 1-4 2-3 1-5 3-6 2-5 1-3 2-3c2-5 14-19 18-21l3-4-4-8-2-4c0-2-2-3-4-3zm167-4c-1 1-1 4 1 5 2 2 1 2-2 5l-2 4 2-1 3-1c2 0 3 1 7 10l6 10 8 11c2 5 5 13 4 14l1 5c3 8 4 17 4 33 0 17 0 21 2 21l2-4 2-5 1-2v-4c2-16 1-32-2-47 0-3-3-10-5-14l-3-4-16-25c-6-9-11-13-13-11zm-49 8c-3 3-2 4 1 2l2-3c0-2-1-1-3 1zm-102 8c-1 1-1 2 1 3 5 3 5 2 2-2-1-2-2-2-3-1zm223 2a1624 1624 0 0 0-11 40c0 3 0 3-2 3-3 0-11 10-11 15l-1 4c-2 2-4 21-3 27l1 4 2-5 2-9 3-10 4-13c0-9 2-10 8-4l7 5 7 2c5 1 19 2 21 0 1-1 1-1-1-2l-2-5 2-3c4-2 12-12 13-16 0-4-2-4-3 0l-2 5c-2-1-2-10-1-13 2-4 3-15 1-15-1 0-4 17-4 25l-1 8c-3 2-4-1-3-12 0-8 1-11 2-12 1 0 2-11 0-12-1-1-2 2-2 6l-1 6c-2 1-3 18-2 21 2 5-5 11-6 7-1-2 0-18 2-21v-12l-2 6-1 7c-1 1-2 5-2 11 0 9 0 9-3 9l-3-1h-4c-4 0-5 0-7-3-3-3-3-4-3-6l2-9 1-5 1-4 2-6c2-1 2-3 2-8 0-7-1-9-2-5z"/><path d="m635 541-1 2c-2 1-6 24-7 34v5l2-4 4-18c2-3 4-21 3-21zm28 6c0 2 0 2 1 1v-2c-1-1-1-1-1 1zm6 1c0 3 2 2 3-1l-1-2c-2 0-2 1-2 3zm-183 0-6 2-9 2-7 3c-1 0-2 0-1 1 0 2-3 3-7 3l-9-3-8-3-4-2h-5c-6 4-9 5-17 5l-8-1-1 4c-1 5-3 9-6 14-3 4-5 9-6 14l-1 3-2 4-1 4-3 7-5 22-2 20c-2 15-1 31 2 46l1 11 2 9 7 26 4 14 2 1 2 2c-1 2 1 9 3 11 2 1 3 1 3-1s3-1 6 2c2 1 3 4 4 6l4 4 1 2c-1 2 0 4 2 8l4 8c1 3 3 3 3 0l-1-4-1-3c-3-2-4-6-3-8 0-1 0-2-2-2l-2-3-3-6-3-3 3 1c4 0 4 0 3-3 0-3-3-6-6-5-2 0-3 0-3-2l-4-7-2-5-1-3c-2-1-4-9-4-14l-2-8-2-9-2-10c-2-4-2-6-1-13l1-11c1-2 1-3-1-9-3-7-3-8-2-13l2-16c0-11 2-22 8-32l1-6 1-6 2-4c0-3 9-19 12-23 3-3 10-6 16-7l9 3c11 6 27 6 34 1 3-2 11-3 14-1l5 3c5 0 11 4 13 8l4 5c5 5 10 14 10 17l1 4 2 5 2 7 1 13 2 11c1 2 0 16-2 31l-3 20c-2 10-5 24-8 28l-1 4-2 5-2 4c0 3-3 7-4 7s-2 1-1 4c0 4 0 5-4 10-3 3-4 5-3 7 0 2 0 2-1 1-2-3-3-1-2 1l-1 3c-2 1-2 2-1 4l-1 5-2 3c0 2-2 4-2 2l-3-5-1 4-1 4-1 5-3 9c-3 5-4 8-3 8l3-1c2-1 3-1 3 1l4 11v-4l1-6 3-4 3-7 3-6 2-4c2-3 6-2 7 1v3l2 1 5 3c4 2 6 3 9 2 7 0 15-3 16-5l3-4v-30c1-4-2-3-4 1l-1 8c0 5-1 8-2 6-2-2-3-1-3 4 0 6-1 7-10 7-7 1-14-1-17-3-3-3-3-3 0-9 2-3 3-4 5-4s2-1 4-4l1-7c-1-2 0-3 3-6 2-2 3-3 2-6l2-8c2-3 4-7 4-10l5-13 3-12 2-11 1-12 1-4c1-1 2-9 2-28 1-11 0-22-4-33l-2-7c0-2-5-17-7-19-13-17-14-19-14-22s-2-3-10-2h-8c-2-1-4-4-2-5l3-1c2-2 0-5-4-6-3-1-4 0-5 1zm155 1-1 4c-2 3-3 11-1 11 1 0 2-3 2-7 0-2 1-3 2-3l1-3-1-4zm7 0c0 3 1 4 1 1v-3zm-378 3c-1 1-1 4 1 7l1 5 2 4 1 5 1 7 7 20c2 0 1-12-1-15l-1-6c-2-9-5-18-9-26 0-1-1-2-2-1zm10 3 2 7 2 7 2 3c2 0 1-5 0-8l-2-5c0-3-1-7-3-7zm-19 1 1 2v4c-1 2-1 3 1 7l3 6c0 4 5 21 7 22 3 3 0-10-5-28l-2-7-2-3-1-3-1-2zm-18 3c-1 1 0 3 2 5 2 3 3 2 0-3-1-3-2-4-2-2zm11 6c2 9 5 19 7 19s1-3-1-4l-1-5c0-6-2-12-4-13zm382 3-1 6-1 6c-2 2 0 3 2 1 1-2 3-16 1-16z"/><path d="M477 576c-9 9-18 12-29 11l-11-5-8-5c-2 0-2 1-2 4 0 4 0 4 4 7 4 2 5 3 2 6l-2 4-3 5c-4 5-6 10-6 12l-1 5-5 12-2 5-1 6-2 6-1 21 2 27a541 541 0 0 1 7 38l3 11 3 8 5 10 2 5 2 3c1 1 2 2 1 3l3 3c3 1 3 1 3 4 0 4 2 5 2 2l1-5v-7l-1-5-5-8-4-6-2-6c-2-4-3-11-4-19l-2-10c-3-9-4-40-3-52l2-14c3-24 7-37 15-46 6-7 7-8 15-8 7-1 8-1 11 1l3 3 3 5a69 69 0 0 1 15 41 220 220 0 0 1-2 54c-1 5-2 10-4 13l-2 9-2 6-3 7-2 6c0 5-4 11-7 11l-2 2c0 5-6 8-9 6v-4l3-8 5-11 2-7 1-8a249 249 0 0 0 10-66c1-13-1-25-5-32-3-7-4-7-11-7-6 0-7 0-9 3-4 4-6 12-8 20l-1 6a442 442 0 0 0 3 99l5 17 1 5c1 1 9-3 10-5l2-1c3 0 2 3-1 5-2 1-3 2-2 3v7c0 5 0 6 2 7l2 4c0 2 3 1 4-1l2-5 1-5 1-3 2-4 1-5 2-4 1-2c1 0 8-15 8-18l2-4 2-5 3-11 4-11 4-16 1-30-2-25-4-11c-1-6-2-8-6-15l-1-4-6-8-6-8-2-2-2-1 2-2 2-4 3-5c5-8 4-11-2-5zm-15 49c3 2 5 4 6 12 1 7 2 24 1 26l-2 16a245 245 0 0 1-12 66c0 4-3 10-5 9l-1-5-1-6c-1-2-3-29-2-31 1-1 0-2-1-4l-1-26a195 195 0 0 1 5-43c0-6 4-13 7-14h6z"/><path d="M454 664c-1 3 0 4 3 3 2 0 3-2 1-4-2-1-2-1-4 1zm1 16c-1 2-1 5 1 5 2-1 3-4 1-5zM287 576l2 5 1 4c0 4 1 6 2 6l-1-9-1-5c-1-5-3-5-3-1zm243 2 2 2 2-2-2-1zm91 33v22l1 2 1-12a410 410 0 0 1-2-12zm-6 2-2 4c-2 1-3 20-1 21l2-7 2-11v-10zm33-3v15c0 3 2 3 3-1v-5l-1-5c0-4-1-6-2-4zm-18 1v19c1 2 2-2 2-11 0-7-1-10-2-8zm-120 1c-1 1-1 5 1 6 2 2 4-3 2-5-1-2-2-2-3-1zm126 6 1 2 1 5 1 5c1 2 1 2 1-2v-6l-2-3-1-1zm-336 3 1 3 1 4 2 5 2 4 1 3c2 0 1-3 0-6l-2-6-2-6-3-3zm108 1c-2 0-3 3-1 4 1 1 5-1 5-3 0-1-1-2-4-1zm-114 4 4 11 2 7c0 4 2 4 1-1l-1-5-1-4-2-6zm-15 4c0 3 2 8 3 8v-3l-1-4-1-3zm9 1 1 2 1-1-1-2zm2 7 1 4c1 2 1 2 1-2s-1-5-2-2zm37 16c1 2 3 3 3 0l-2-2zm239 47-2 3-2 3c-2 1-4 4-5 7-3 7-4 7-6 8-5 1-11 14-12 22 0 3 0 3 2 4 2 0 6-6 6-11 0-3 0-3 3-4 2 0 4-1 5-3l5-6 5-7 3-5 2-2c2-1 1-4-1-4s-2-1 0-5c0-3-1-2-3 0zm7 23c-3 1-5 7-4 9h4c4-1 4-2 3-4-1-5-1-6-4-5zm-245 2-1 2 3-2zm-7 10c-2 2-3 12-2 15 0 2 1 2 2-6 2-6 2-8 1-9zm13 1-2 4c-3 3-4 5-2 6l2-1 4-2c5 0 6-3 4-7-1-3-6-3-6 0zm233 0v2c1 2 2 2 3 0 2-3 1-4-3-2zm-76 2 1 1 1-1-1-2zm10 2-3 4c-2 1 0 4 1 4 3 0 4-2 4-7l-1-5zm51 5c-1 1-1 2 2 4l3 4h5l5-1c12 0 16-3 7-4h-10l-10-5zm-223 7c-3 2 2 4 6 2 2-1 3-1 6 3 3 2 4 4 4 5-1 1 0 2 1 3v4c-1 4-1 4 3 4 2 0 3-1 2-2l2-4c2-1 2-3-1-3l-4-1c-2-2-2-2-1-3 1-2 0-6-2-7-3-1-14-2-16-1zm226 8 2 2 3 4h2l-1-2-1-1-2-3z"/><path d="M335 764c0 2 4 5 6 5 3 0 2-2-1-3l-3-2c-1-3-2-2-2 0zm211 4c0 2 1 4 3 4s1-1-1-3zm-189 5c-1 2 1 5 3 5l3 1-1-3c-1-5-3-6-5-3zm155-1c-1 2 0 3 1 3v-3zm3 6 1 1 1-1-1-2zm-67 1c-1 1 1 4 2 3l1-2c0-2-2-3-3-1zm-73 13c-1 3 2 6 7 9l5 2c3 3 20-1 20-4l2-1 2-1-2-1-2 1-9 1c-10 0-16-2-19-6-3-3-4-2-4 0zm114 23c0 3 2 4 4 3 1-2 0-5-2-5z"/>
  </symbol>
</svg>
