<svg xmlns="http://www.w3.org/2000/svg">
  <symbol id="1" viewBox="0 0 680 1200">
    <path d="m16 8 1 5c1 2 1 4-1 8v22c-2 3-2 4-1 6l3 3c2 0 1 2-1 2-3 1-4 2-1 5 2 3 6 2 5-1-2-3-1-5 2-8 2-2 2-3 2-7l-2-6c-1-1-2-21-1-22l-2-5c-2-5-4-5-4-2Zm352 45v3c0 2 0 2-2 2l-2 1c0 1 3 1 6-1 3-1 4-4 1-5zm-38 2c-1 0-1 3 1 4 1 0 4-2 4-4zm24 8c0 3 3 7 5 7s1-3 0-3l-2-3-2-5zM15 64c-2 1-2 4-4 16l-1 8c-1 1-1 2 1 3 1 1 2 2 1 3l-1 4c0 2 1 2 3 2 1 0 2 0 1-3l1-5v-3c-1-1-1-9 1-12V64Zm7 0c-2 1-1 4 1 4 2 1 1 3-1 5-1 2-2 3-1 4l1 15v14l4 4 5 4c3 0 3 2 2 4l-4 1c-2-1-3 1-3 8v6l1 7 2 8 2 6v6l2 6 1 4 5-1c6 0 9 2 8 4-2 3-4 3-7 1l-4-3c-2 0-3 1-2 11v12c1 1 6-1 8-3s2-2 1-4c-2-4 0-7 4-7s4 0 4-3c1-3 0-5-2-9l-3-6-4-7 1-1 2 1c0 2 2 2 2 1 1-1 0-2-1-3l-3-4-1-5c-1-3-2-4-4-4-3 0-3 0-3-2s1-3 3-3c3 0 4-1 1-3-1-1-2-1-3 1-2 3-4 0-3-6 0-4 1-5 2-5 2 0 4-4 4-7l-2-6c-4-8-5-12-4-16l-1-5v-3c2-3 1-4-2-5-2-1-3-4-1-4s5-11 3-12l-2 1c-1 3-3 4-4 1-1-2-3-3-4-2zm8 25-1 2c0 2 0 2-2 0-2-1-2-2-1-2zm2 20c0 3 0 3-1 1v-4zm13 55-1 2c-1 1-2-1-1-3s2-1 2 1zm295-98-2 3c0 2 4 1 5-1 2-3 1-4-3-2zm8 2 4 4 1-2c0-3-5-4-5-2zm20 2-2 2c0 2 5 6 9 6 6 1 5 6 0 7-4 1-4 2-1 6l2 3 3-3c2-2 4-2 4 2l3 6c2 3 3 4 2 13-1 4 0 6 1 7 2 3 4 2 4 0l-1-2c-3 0-2-3 0-4s2-2 2-4l-1-9c1-9 1-12-3-15 0-2-5-5-7-5l-3-3-6-6c-4-2-4-2-6-1zm-39 1v3c1 3 4 4 7 2 2-2 2-2-2-4s-4-2-5-1zm7 11c0 4 1 5 3 3s2-6-1-6c-2 0-2 1-2 3zm21 0c-1 3 0 6 2 6s2-2 2-5c-1-3-3-4-4-1zm-13 8c0 4 2 5 5 4l3-1-8-6zm19 4c-2 1-1 3 1 3l2-1zm-26 1c-1 1-1 2 1 2l1-2c0-1-1-2-2 0zm26 7-3 2-2 2c0 2 0 2 2 1h3c1 1 2 2 3 1l3 1c2 3 4 2 4-1 0-2-1-4-3-5l-3-2c-2-2-3-1-4 1zm-20 3c-3 1-4 2-1 4 1 1 2 0 3-2 3-4 3-5-2-2z"/><path d="m9 109-1 3-2 7-1 8-1 6c-1 3-1 9 2 11 2 2 1 5-2 6-3 3-3 7 1 9s4 3 1 4c-3 0-3 1-1 6 1 4 2 11 1 12v12l2 4 1 6c-2 4-2 16-1 19l1 12 2 16v31c1 7-1 28-1 29l1 18v17l-1 3c-2 0-1 3 1 6v13l1 6 2 24c0 2 0 2-2 3-2 0-2 1 0 7l-3 3c-3 2-4 7-3 9 1 1 2 1 4-1 3-2 5-1 3 1l-1 9-1 10c-2 3-2 3 1 5l3 3v50c1 2 4 1 6-2s2-4 2-13l-1-24-1-14-2-22v-19c-1-3-1-4 1-6 1-2 2-18 0-20v-4c2-5 2-12 1-17v-15l-1-13c0-8-1-11-2-13-2-3-1-6 1-11 2-3 1-18-1-21v-2c2 0 4-4 4-6l-2-4-2-7c-1-3-1-4 2-6 4-4 11-4 11-1l2 3c3 3 3 7 2 9-1 1-2 3-1 4 0 2 0 3-2 4l-2 4-1 3c-1 1-1 2 2 4l3 3 3-2c3-3 5-3 9 0 2 2 2 2 0 5-1 3-1 3 1 7l5 5c2 0 3 2 3 3l1 2v3l-1 5c1 3-4 12-6 14l-1 2 3-1c1-2 1-2 3-1l4 2 11-6-3-6c-2-5-3-6-2-8v-7l1-6v-6c2-3-3-5-5-3-2 1-2 1-5-1l-4-3-2-1-1-3c-1-1 0-6 1-7 2-1 4-14 3-15l-2-1c-2 0-4 6-4 10 1 4 0 4-2 5-5 1-7 0-6-3l1-5c1-1 0-3-1-5l-2-3 3-1c2-1 3-3 1-3-2-1 1-3 5-4 3 0 4-1 4-3s-1-3-3-3c-3 0-3-1-4-4l-2-5c-2-2-1-3 1-4l2-1-2-3c-2-2-3-5 0-7l1-6 1-10v-7c-3-4-8-4-9-1v3c1 1 1 6-1 28 0 12 0 12 2 14l2 2-2 1-5 2-5 1c-2 1-3 1-4-1-2-1-2-4-2-24l-2-24v-5c1-2 1-5-1-15-1-9-2-13-1-15v-12c0-4-1-8-3-8l-2-2 2-1c2 1 2 1 2-1l-2-2v-2c1-2 0-8-1-10-1-1 0-2 1-4 4-4 4-12 1-14zm6 204-1 2c-2 0-2-1-1-2 1-2 2-1 2 0zm347-199c-1 2-3 2-4 1l-3 1 2 1 3 2c0 2 2 3 4 4 3 1 4 3 2 5-4 3-1 9 3 8l2-3 2-3v-5c0-2 0-3 2-5 1-1 1-1-2-1l-5 1-2 1c-2-1-3-5-1-5 1-1 0-4-1-4zm23 16v5c2 2 3 6 1 8v1c3 2 7-4 7-9l-1-5-1-3c-1-4-4-3-6 3zm5 5c-2 1-3 0-3-1h3zm14-8c-3 2 0 3 6 2l-1-2zm33 3-4 1c-8-1-14 0-14 1l-2 3c-2 0-3 1-3 2-1 1-3 2-7 2-7 0-7-1-8 6-1 3-1 3-3 2-3-3-7 6-4 10 1 1 0 2-1 4-1 1-4 14-4 19 0 1 2 3 5 4 6 3 7 3 5 1-2-3-2-6 0-9 2-2 2-3 1-7l-1-6 1-6 2-4c1-1 1-1 2 1 1 4 3 4 3-1s1-7 4-7l5-2 6-4 4-4c3-4 6-4 7-1l8 7c1 0 2-1 2-3 1-2 1-2 3 0 2 1 2 1 2-1 0-7-6-12-9-8zm-64 8 1 2c2 1 2 1 1-1 0-2-2-3-3-1zm-9 2c-2 2-2 12-1 14 1 1 2 1 3-3l4-7 1-3zm85 4c-2 2-2 2-1 3l2 4c2 2 3 3 5 3 1 0 4 1 5 3 4 2 6 1 4-2v-5l2-4c0-1-4-3-10-4-5 0-6 0-7 2z"/><path d="m421 147 2 2v-2c0-3-2-2-2 0zm11 3-1 5-5 3c-5 2-10 5-10 7l7 4 4 3c4 4 3 6-1 7l-3 1h3c2 0 3 1 3 3 0 3-4 7-8 7-5 0-6 6-3 13 2 3 1 4-4 7l-5 3-4 1c-2-1-2 0-2 2-1 2-1 3-4 2l-6 1-3 3c-3 1-4 4-1 4 2 1 2 0 3-2s2-2 6-2c3 0 5 1 6 3l2 3c1 2 3-3 2-5-1-3 1-5 3-4 1 0 12-11 16-17 2-3 2-3 0-6-1-2-1-2 1-2 3 1 6-2 8-7v-5c-2-2-1-6 2-9s4-11 1-14l-2-4c0-2-2-7-4-7zm1 12c2 2 3 8 1 8l-7-4v-3c0-4 3-4 6-1zm-76-7-2 3-1 1 3 2c0 2 2 3 2 3l2 4c0 5 2 10 4 10l1 5c0 4 3 9 6 10 2 1 3 1 5-2 3-3 3-4 0-7l-4-8c-1-4-2-5-4-5l-4-4c-3-3-3-3-2-6 2-4 2-4 0-4s-3-1-3-3c0-3-3-3-3 1zm24 1c-1 3 1 5 2 2v-5c-1 0-2 1-2 3zm69 9c-1 3 1 4 4 3l5 1h2c2-2 3-1 5 2 2 2 2 2 0 5l-2 5-2 3c-2 1-3 1-7-3-5-6-6-6-6 2 1 6 3 8 9 10s9 1 9-3c0-2 1-3 2-3 3-1 4-4 3-5v-6c1-3 1-3-2-6l-3-4c2-3 0-4-8-3-8 0-8 0-9 2zm-98 2c-1 2 2 4 4 2 1-2 1-2-1-3s-2-1-3 1z"/><path d="M380 196c-1 1-2 3-1 4 2 6 15 9 19 5 2-2 7-3 9-1h7l-3-2c-2 0-3-1-3-3s0-2-3-2l-7 2h-6l-4-2-4-2c-2-3-2-3-4 1zm63 6-2 5-1 1-2-1-3-1h-4l1 7 1 12c0 5 0 5-2 5l-4-4c-3-5-4-5-5-1-2 3-2 3 1 6l3 3-2 1c-3 1-3 1-6-1-3-4-6-3-7 1l-1 4 2 3 1 2c-1 1-8-1-8-2l-1-4-2-5c-2-4-4-1-4 4s1 7 3 9l2 5c0 3 0 3 4 3s8-1 8-3l5-3c4-2 4-2 4-6-1-4 0-5 2-3 4 4 5 3 5-1l1-4c1-2 1-2 3-1h2l4-1c2-1 3-1 2-6 0-4 0-5 2-6v-2h-3l-3 1c-2 0-1-3 1-6s2-3 5-1l9 2c4 1 5 1 6-2v-7c-2-2-2-2-4-1-2 2-4 2-5 0l-4-4c-1-1-2-1-4 2zm-392 7 2 2 1-1c-1-2-3-2-3-1zm336 21-3 1-3 1-5 1-3 1 2 1 3 1c0 2-1 2-3 2-3-1-6 1-6 4 1 2 1 2 3 1 1-2 2-2 6 0 6 1 7 1 5-2-4-3-1-7 4-7 2 0 3-3 2-4h-3zm-26 2h-4c-3 0-3 1-4 3 0 3-1 4-3 1h-7c-2 1-2 2 1 3 4 1 5 3 2 5s-1 5 3 5c6 0 10-5 7-9-1-1 0-1 2-3l5-3c0-2-1-3-2-2zm-40 5c0 2 0 2-5 1l-7 1-10 1c-8 0-8 0-9 2v2l-2-2-1-2-3 2c-2 2-3 3-5 2-3 0-3 0-3 3 1 3 4 4 7 2 4-3 7-3 8-1 2 1 3 1 9-1 4-3 5-3 6-1h6c1 1 2 1 6-1 6-1 7-1 10 1h3l1-4c0-2 0-2-4-2-5 1-8-1-3-2 5 0 5-2 0-3-3 0-4 0-4 2zm-180 0-3 1c-6 0-9 1-11 4l-3 3v-5l1-1-5 1c-3 1-5 2-6 1l-5-2c-5 0-6 2-4 6 2 2 5 3 7 1h5l10 1c6 0 7 1 5 4l-2 4c1 1 5 2 5 0 0-3 2-3 4-2 7 7 8 8 10 8s2 0 1-1l-1-5c1-2 2-2 5-2l7-1 1-3c2-1 2 0 4 2 2 3 3 3 5 3h3l-1 2-1 2 1 1 1-2c0-2 3 0 3 3l3 6 3 9 1 6 4 7 3 6c2 0 2-1 2-7l-2-8-2-8c-1-7-2-10-6-11-4-2-6-5-4-10s2-6-2-6c-4 1-16-3-18-5s-6-1-8 1c-2 3-4 3-5-1-1-2-4-4-5-2zm12 8 2 1h-7c-1-2 0-3 2-2zm-9 2c0 2-2 3-3 1l-3-2-2-1 4-1c3 1 4 1 4 3zm103-8c-3 0-3 0-1 2 2 3 5 2 6-1 0-2 0-2-5-1zm8 4c0 6 1 8 4 5v-5c-3-5-4-5-4 0zm-181-1c-3 2-2 6 0 8 3 2 2 5-1 5-4 1-4 5 0 6 2 1 3 2 3 5 0 4 0 4-2 4l-4 1-4 2c-5 0-11 1-12 3-3 5 1 7 8 3 6-5 17-3 17 2l-1 3v12c0 1 1 2 3 2 3 0 4 1 1 3-2 1-3 5-1 7s2 4 1 7c-2 3 0 4 4 4s6-4 4-9l-1-8v-6l-2-5c-1-12 0-13 2-16s2-6 0-6-4-3-4-6l2-6c4-3 4-4 1-4-5 2-10 2-10 1l2-1 1-2c-1-3 1-4 9-4 6 0 8 0 10-2 3-2 3-3 2-4s-6 0-9 1h-3c-3-1-14-2-16 0zm192-1c-3 2-2 5 1 4 6-1 7-2 6-4 0-1-5-2-8 0z"/><path d="M387 242c-3 2-4 4-2 4 1 0 6 8 6 10s3 6 4 6l4-2 2-2-2-3-4-2c-2 0-2-2-1-4 3-2 2-6 0-7l-2-1c0-2-1-1-5 1zm-149 3v2h2l1-2zm100 1c-3 0-4 2-3 5l3 1 3-7zm34 4 2 7c3 4 2 7-1 8-3 0-7-2-8-6l-2-4c-2-1-6 6-6 8l-2 5-2 2-2-4-3-5-1-2c-2-2-4 1-4 5l-1 4c-2 1-1 4 2 7s5 3 8 0c2-2 3-2 9-2 6-1 7-1 9-3 4-3 9-4 11-3s3 1 4-1v-3l-1-4c0-1-1-4-3-5l-4-5-4-2c-2 0-2 0-1 3zm-306-1 1 1 3-1-2-1zm31 2-1 8c1 6 1 8-1 9v3c2 1 4 3 4 6 0 4 2 4 5 0 1-2 3-3 3-2h5c7-2 8-3 9-5 0-2-4-5-6-4-5 1-8 2-12 0l-3-1 1-4c1-2 2-3 5-4 6-1 7-2 3-4-2-2-3-3-4-2zm133 2c-1 2-4 4-14 7l-9 4-4 2c-2 0-5 2-5 5l-2 3c-2 2-2 2-1 4 1 1 2 1 5-2 2-3 3-4 4-3l3-2 2-2 4-2 4-2 3-1h5c1 0 5 1 7 4 3 2 5 3 3 1l-1-4-2-4c-2-4 0-5 4-2l6 3 1 3c-1 2-1 2 1 1s3-2 2-3v-4c0-4-3-6-6-4-2 2-3 2-3-2 0-3 0-3-3-3-2 0-3 1-4 3zm79-1 2 1 2 2c1 1 5 2 5 0l-2-2-3-1zm-58 1c-2 2-2 2 0 4 3 5 6 3 5-2-1-3-3-4-5-2zm76 0-3 3c-3 1-3 2 2 3 4 1 6-2 4-5-1-2-4-3-3-1zm-25 1 1 2v4c-2 1-2 1 0 1s3 1 3 2l2 1c3 0 3-2 0-3-1-1-1-1 1-1 3 0 3-2 1-5-3-2-7-3-8-1zm-8 3c-1 0-2 1-2 3 0 4 2 4 5 1 3-4 2-6-3-4zm-133 2 1 9c0 8 1 11 3 11l5 2h4c1-2 1-3-1-3s-5-3-5-6l-1-2-2-4c0-3-1-6-3-7l-2-2zm121-1-3 4c-3 3-3 3-3 6 1 3 1 3-2 3-3-1-3 0-4 1 0 2-1 2-3 2s-3-1-4-4-1-3-2-1 0 6 2 6l3 3c3 2 3 2 4 1l4-4 4-4c0-3 4-8 7-9s2-4-1-5z"/><path d="M264 260c0 2 4 5 6 5l3-2 1-2h-4c-3-2-5-2-6-1zm-123 7c-3 4-1 6 3 3 3-3 3-5 0-6zm291-1-7 1h-8c-1-1-2-1-3 1s-1 2-3 1h-5c-2 2-2 2-4 1-3-1-3-1-8 1l-7 2-6 1-5 2-4 2c-2-1-5 0-4 1 2 2 17 1 20-1h2c2 1 6 0 8-2 1-1 3-2 7-2s6 0 7-2c1-1 1-1 4 1h3l4-1 3-1 3-1c3 1 7-2 6-5 0-2-2-1-3 1zm-102 2v5c0 3-1 4-4 4s-4 0-5-2c-1-5-3-3-4 3-1 5 0 12 3 14l2 2c0 2 5 3 7 2 3-1 3-4 0-4l-3-5c-1-4-1-7 1-7s7 7 7 10c0 2 4 2 6 1l7-2 5-2c0-1-5-3-6-2-2 2-5 1-7-1s-2-5 0-7c1-1 1-1-1-3l-3-5c0-2 0-3-2-3s-3 1-3 2zm-81 2 1 1 1-1-1-2zm54 5v24c1 2 1 2 4 1h8l-2-2c-1 0-2-1-1-5 0-3-1-5-3-8l-2-5c1-2-1-6-2-6zm-172 2-1 5c-1 1-2 4-1 5l-2 5c-2 1-3 4-4 7l-2 6c-1 2-1 6 1 7l6 3c4 2 5 2 7-4 1-5 1-6-2-6-2 0-3-1-4-3-1-3 1-6 5-7 5-2 10 6 5 9-3 2-2 4 3 7l7 5c3 2 3 2 4 1l1-3 2-1c2 0 2 0 0-5-3-5-8-10-10-11-3 0-2-3 1-6l4-5c1-1 0-2-4-2-5 0-5 0-6-3-1-5-2-6-6-6-2 0-3 0-4 2zm75-1c-4 0-4 1-4 2 0 2 0 3 4 3 3 0 4 0 5 3 0 3-2 5-7 5s-5 0-6 3l-3 3c-3 0-2 2 1 3l2 2 2 1 5 2 6 4c4 0 5 0 8-3 4-4 5-7 3-9h-3l-4 3c-2 0-3 2-3 2 0 2-1 2-6 1-2-2-3-2-3-5s0-3 6-3c5 0 6 0 10-5l5-4-3-1-3-3-2-2-3-2-2-1-6 1zm51 2-5 5-2 3 2 8 3 9c0 3 2 4 3 3l5-2c4 0 4-2 0-3l-3-3-2-4c-2-1-2-2-2-5l3-8c1-4 0-6-2-3zm212 1 2 5c2 3 2 3 0 5-1 1-1 1 1 3l2 4c0 2 4 5 8 5 5 0 9 3 9 6-1 2 0 2 2 3s2 3-1 3c-2 0-1 2 1 5l1 3c-2 2-1 4 2 5l2 2-3 7c-3 5-4 8-3 9l-2 5-1 5-2 3-4 2-3 2c-1 0-3 1-3 3l-3 3-4 2c-3 2-5 2-5 0l2-2c2-1 2-1 1-2h-3c-4 2-7 1-7-1l-3-3-3 4-2 5c0 3-2 3-3 0-1-2-1-2-4 0-3 1-4 2-5 1-2-1-5 0-5 3h-6l-2-3c0-2-3-5-5-5l-4-7c0-2 3-1 4 1l2 1c3-1 2-3-2-5s-5-5-2-7l2-6c1-3 2-4 5-4l8-2c4-1 8 0 8 2l2 1c3 0 3-2 0-5-2-3-2-3-1-5v-1h-6c-4-1-5 0-6 1l-4 2c-3 0-7 2-9 5l-3 5-3 7-3 3c-1 1 0 9 1 12 1 2 1 2-1 4-2 1-2 2-1 4 1 1 2 2 6 2 6 0 8 1 13 6l6 3 5 2 2 1-2 2-2 2 2 2c3 3 6 3 6 0v-7c-3 0-3-3-1-4 2 0 3-1 3-2h1c0 2 4 1 5-1s2-3 5-3l3-1h2l4 3c2 1 2 1 3-1 1-3 1-3 3-2 3 1 3 1 4-1s2-3 4-3c3-1 5-2 7-5l8-10 2-3 1-2 1-4v-4l2-1 2-3v-5l-1-5-1-5-2-8c0-4 0-4 2-5 4-1 4-3 0-3-3 0-4-1-6-4l-3-5-1-5h-4c-3 2-6 0-6-5-1-3-1-4-3-5l-4-2c-1-4-4-5-4-2zm29 60-1 1-2-1 2-1zm-41 32c1 2-2 3-4 2v-2zm-166-90-1 8c0 13 0 12-3 10-2-1-4-5-3-7s0-5-1-5l-3 5c-2 4-2 5-1 7l2 10c1 9 2 10 5 6l3-2 5 1c4 2 5 2 6 1l2-2c2 0 2 0 1 2-1 3-1 7 1 7s5-5 5-8c-1-2-1-3-3-2l-4-1h-5l-3-1-3-2-3-1c-2 1-4-1-2-2l6-3c8-2 10-6 6-10l-2-7c-1-4-1-5-3-5l-3 1zm67 0c-2 0-6 5-5 6l5-2c2-1 4-2 5-1h2l-4-4zm-248 2c-2 0-3 2-3 2 0 2 0 2-4 1-3-1-5 0-5 3l-2 2c-2 1-3 4 0 5l12 9-1 5c-2 4-2 6 1 6l2 1-1 1-1 5-2 7-3 7-3 4c-2 1-2 3 1 3s9-4 9-6l3-4c2-2 2-3 2-6l-1-7v-27l-3-3c-4-2-4-4 0-5 2 0 3-2 3-2 0-3-1-3-4-1zm-3 12c1 2-1 3-4 3v-3zm158-10c0 3 1 4 3 6l3 1c1-1-1-5-3-8l-3-3zm-89-2-1 3c0 2 0 2 2 1l2-3c0-2-1-2-3-1zm225 1c-1 0-1 1 1 2 1 1 4 0 3-2zm-169 2c-1 2-1 9 1 10 2 0 3-6 2-9l-2-4zm143 1 2 1 1-1-2-1zm44 2c-1 1-2 2-2 5l-2 8c-2 5-2 6-1 7 2 1 2 1 4-1 3-2 3-3 3-7s1-6 2-6c3-2 3-3 0-6-1-2-2-2-4 0z"/><path d="m457 289 1 1 2-1c1-2 1-2-1-2zm-66 6-2 6-2 4-1 5-2 2c-2 1-4-2-3-5 1-6 1-6-2-6-2 0-4-1-6-4-3-4-4-5-8-2-3 2-4 3-1 5 1 1 1 1 2-1 2-4 5-4 6 1l2 4 1 5c0 4 0 5-2 6s-2 2-2 6c2 12 2 12 5 10 2-1 2-2 1-4v-4l1-4 2-4c2 0 4 2 4 4l2 3c2 1 4-2 4-6l2-6h1c-1 2 1 3 5 2h4c1 1 3 1 5-1 3-2 4-5 2-7v-4l2-7c0-2 0-2-3-1-3 0-4 2-4 7l-2 8c-1 3-2 3-2 1l-3-3c-3-1-4-5-2-7 2-1 1-7-1-8zm50-2-2 4c-2 0-3 2-3 2 0 2-3 5-6 4-2 0-8 2-6 3l4 1c2 0 3 1 3 2 0 3-9 8-12 7l-4 2c-1 2-2 3-5 3s-4 1-5 4-3 6-6 7v3c1 3 5 4 6 1l5-5 6-6c1-3 2-3 4-3 2 1 3 0 4-1l5-2 4-1h12l13 6c3 3 4 2 4-1l1-2 1 4c0 2 0 3 2 3 2 1 4 7 2 9s-1 3 1 3l4-2c2-2 2-2 4-1v4c-1 2 0 8 2 8l3-4c1-3 1-4-1-5v-5c2-3 2-3 0-4l-3-1h-4l1-2c2-1 2-2 1-4-3-8-2-7-7-8-6 0-9-1-9-3-1-2 2-9 4-11l-3-5-2 2-2 4c-2 1-2 2-2 4 1 4-2 8-4 6h-10c-2-1-2-2-1-3v-6l1-4c0-2 1-3 2-3l1-3c-1-3-3-4-3-1zm-409 4-2 7c0 3 0 5 2 6 2 2 3 2 4 0 2-1 3-6 3-9l-2-4-3-2zm325 0-5 1c-3 0-4 0-4 2s0 2 2 2c3-1 5 1 3 3v1l7-9-1-1zm-120 2c1 2 3 2 3 1l-2-2zm104 3h-2l-3 1c0 1-1 2-3 1l-7 2-7 3c-2 0-3 0-3 2s0 2 2 1l3 1c0 2 3 2 3 0l3-1c2 0 3-1 5-3 2-3 5-4 5-2l1 1 1-2c-1-2 4-3 7-1 1 2 3 0 1-2-1-2-6-3-6-1zm-164 3 2 1 2-1-3-1z"/><path d="m363 305-2 8c-1 11-3 13-8 9-1-1-2-2-1-4 0-4-1-8-4-8-2 0-2 1-2 10-1 6-1 9-3 11-1 2-1 2 1 5l2 2 3-2 2-4 3-3c2 0 3-2 3-3l1-1 1 4c0 5 4 2 7-6l1-5v-4c2-1 2-2 1-6-2-3-4-5-5-3zm118 0v2h2l-1-2zm-247 3 1 2c1 2 1 2-2 3-4 2-4 4 0 6 3 2 4 2 4-3l2-5c2-1 1-4-2-4zm23 3c-2 5 1 7 4 3h2l2 4c2 3 2 3 1 4l-3 1c-2 0-2 0-1 2l1 5 2 4c4 3 7-6 5-12-1-3 1-6 4-6s4-3 2-5c-3-2-7-3-9-1-2 3-4 2-4 0-1-3-5-3-6 1zm-59 0v1c2 1 3 0 3-1zm-19 2-2 2c0 2 3 1 4 0 2-3 1-4-2-2zm-148 4v2l-1 2c-1 1-1 4 1 11l2 2c3 0 3-2 2-6-1-3 0-4 1-5 1 0 1-1-1-4-2-4-3-5-4-2zm455 2c-3 2-2 3 1 3l2-2c0-3-1-3-3-1zm-354 1-5 2c-3 1-4 2-6 6-4 8-4 11 1 5 3-3 5-3 8 1s7 4 11 0c4-5 4-7-2-11-4-4-6-5-7-3zm84 2c3 5 5 6 6 4 1-3-1-6-4-6s-3 0-2 2z"/><path d="m274 322-2 4c0 1 5 1 7-1 2-1 2-1 1-3-3-3-3-3-6 0zm-190 0c-3 0-4 2-4 7 0 3 0 4-2 5-4 2-3 4 0 5l6-4c4-5 6-5 9-1 2 2 2 2 3 0l1-3c1-2-2-6-5-6l-4-2zm145 0c-1 1 2 7 5 8 1 1 3 2 3 4 1 2 2 3 4 3 3 0 3 0 2-2v-5c0-3 0-3-4-5l-5-1-3-2zm101 2-2 5v1c0-2-3-1-5 1-3 2-2 3 1 3 2 0 3 1 3 3l2 4 2 4c0 2 1 3 2 3 2 0 3-1 5-7s2-6 0-7-2-2-2-6c0-5 0-6-2-6s-3 0-4 2zm-168 0 1 2c1 1 1 0 1-1l-1-2zm20 3c-2 3-3 4-1 4s6-3 5-5c0-2-1-1-4 1zm272 4c-1 2 0 3 2 3s3-2 0-3h-3zm-230 3-1 2 1 4c0 2 1 3 3 3 3 1 4 0 4-5-1-5-4-7-7-4z"/><path d="m314 334 1 5 1 4c1 1 1 2-1 3-3 4-6 2-6-4 1-3 0-5-2-6-4-2-5 0-5 8v16c2 2 4 1 7-4l5-3 3-2 6-4 4-4c0-2-1-2-3-1l-3 1c-2-1-2-1-1-3 1-4 0-6-3-7s-4-1-3 1zm-3 16c0 1-1 2-2 1-3 0-3-2 0-2zm-123-16 3 3c1-1 0-4-1-4zm60 1c-1 1 0 2 2 2l1-2c0-1-2-2-3 0zm16 4 1 5-1 2c-2 0-5 4-5 6s2 2 6 0c2 0 2 0 2 2l1 3v-6l-1-4c2 0 6-5 6-6l-8-4zm-215 1c-1 2-1 2 1 2l1-2c0-2-1-3-2 0zm123-1-2 2c0 2 1 4 4 4 2 0 2 0 2-3 0-4 0-4-4-3zm43 1c-2 1-3 5 0 6l3 1 4 1c3 0 3-3 0-5l-2-3c-1-2-2-2-5 0zm-94 0c-2 1-3 4-1 6 1 1 8-1 8-3l-4-4zm134 1v4c1 1 6-3 5-4zm35 2c-2 2-2 6 1 11 1 3 1 3-1 4-1 1-2 2-1 3 0 2-5 6-8 6-2-1-3-1-2-6l1-6v-2c-1-1-2 1-4 4-2 5-2 6-1 7v2l-3 10c0 2 4 1 6-1l5-2 2-1 2-3c2-2 2-2 4-1 2 2 2 2 5 0l3-6c1-3 0-3-2-2-4 0-4-1-2-4 3-4 3-6 2-9l-2-4c-1-3-3-3-5 0zm104 2-2 4-3 6-2 8c1 2 0 5-1 8-3 5-2 7 3 7 2 0 2 0 3-4l-1-6c-1-1 0-2 1-3l2-5 3-8c2-3 3-5 2-7 0-4-2-4-5 0zm-340 1c1 3 4 4 4 0 0-2-1-3-2-3-2 0-2 0-2 3zm38-1 1 3h3v-3zm148 1v9h4l5 1c1 1 2 2 3 1 2-1-1-4-3-4l-3-2c0-2-2-4-3-5l-2-2zm189 2-3 2c-3 2-3 4 0 5h4c1 0 2-1 2-4 0-5-1-6-3-3zm36 0c-1 3 0 4 2 4l1-3c-1-3-3-4-3-1zm-392 1c1 2 7 2 7 1 0-2-1-3-3-1zm159 0v5c2 0 3-4 2-5zm-200 0a126 126 0 0 0-1 35v5c0 2 0 3-3 6-4 4-4 5 0 10 2 2 2 4 2 6v5l2 8c-1 3 0 7 1 9 1 3 1 3 3 2l1-4 2-3c1-2 1-2-2-7-2-4-2-5-1-8v-5c0-2 0-3 2-3 4 0 6 1 7 5 3 8 7 11 10 6 1-2 1-2-1-4l-2-2c0-2 4-1 7 1s5 0 2-3l-2-2c-1 0-2-1-2-4 0-4-1-5-3-5s-3 0-4 2c-1 3-1 3 1 5s0 3-3 1l-5-2c-2 0-6-8-6-10l2-2c4 0 5-2 2-3l-4-3c-2-1-2-2 0-3v-5c0-4 0-4 2-4 4 0 4-2 1-3-2-1-2-1-1-3s1-4-2-8c-2-3-2-3 0-5l2-3zm406 5 1 4h9c11 0 14-1 12-4-1-2-3-3-5 0h-5l-6-3-2-1-2-1c-2 0-2 0-2 5zm46-4c-1 1 1 2 2 1v-1zm-303 2 1 1 2-1c1-2 1-2-1-2zm-116 1 1 2c2 0 4-1 3-3s-4-1-4 0zm38 1c0 3 3 5 4 3s1-4-2-5c-2-1-2-1-2 2zm-15 0c-3 2-5 6-3 6 4 0 9-5 8-7-1-1-2-1-5 1zm42 0-5 2-4 1 2 1c1-1 2 0 3 1 1 2 1 2 5-1l3-5c0-1-3-1-4 1zm89 0 3 3 2 6 3 6c4 4 7 4 7 1l-1-4c-1-1-1-1 1-2 1 0 2 0 3 2h2v-7l-1 1c-2 2-6 1-7-1s-1-2-3-1-3 1-4-2c-2-3-5-4-5-2zm-80 6c-2 1-1 4 1 4l2-1c0-2-2-4-3-3zm115 0-1 3v3l3-3 2-3zm-203 2c0 2 1 3 3 2 2-2 1-3-1-3zm39 0c0 3 3 6 6 6 4 0 4 2 2 3l-4 2h-4c-3-2-5-1-6 1-1 3-4 5-8 4l-6 1-5 1-4 2c-2 1-2 1-1 3l4 1h7c4-1 6-1 7-3s3-2 9-3l9-2 5-1c4 1 5-1 2-5-2-2-2-2-1-4 3-3 2-3-2-5-6-2-10-2-10-1zm116 2c-1 2 1 4 4 5 2 0 3 0 3-3l-1-4c-2-1-5 0-6 2zm-51 0c-2 2-1 5 2 6 2 2 2 2 4 1v-3l-2-3c-1-2-2-3-4-1z"/><path d="M42 366c-1 2 2 4 4 2l1-3c0-2-4-1-5 1zm23 0c-1 3 3 5 3 2 2-2 1-4-1-4zm7 0-1 4c-1 2-1 2 1 2l4-2c2-2 2-2 1-3-2-2-3-2-5-1zm59 2-2 4-1 6c0 4 2 5 8 5 4-1 5-1 7 1 1 2 2 2 3 1 2-1 2-11 1-13-1-1-1-1-3 1s-3 3-6 3c-4 0-7-1-7-2l2-1 3-2 5-2 2-1-3-1h-5c-2-1-3-1-4 1zm40 0 2 4 1-3c0-3-2-4-3-1zm90 1c-2 1-2 4-3 7l-1 6v3c2 2 5 2 5 1l3-4c3-3 4-6 2-6l-2-4-1-4c-1-2-2-2-3 1zm-154 0c-1 3 1 5 6 7 5 1 6 0 2-5-3-4-7-5-8-2zm140 0c-1 2-2 2-4 1-3 0-4 0-5 2v3c2 2 5 1 6-1 1-1 2-2 5-2s4-1 1-3c-2-3-3-2-3 0zm-126 3c-2 1-1 3 1 3 3 0 3 0 2-2-2-2-2-2-3-1zm-70 2c-1 3 1 5 4 5 2 0 2 0 2-3s-5-4-6-2zm155 3c0 1-1 2-2 1-1 0-3 3-3 7l-1 7c0 3-1 4-3 4-3 0-4 3-1 5 3 3 3 5-1 8-2 2-4 3-7 3l-8-1c-1-1-2-1-6 1-6 3-9 3-12-1-1-2-6-3-9-1-5 1 0 6 6 6l5 2c2 2 3 2 5 0h11l10-1c2-2 4-3 7-1 1 1 3 1 7-2l7-3 3-2 3-3 4-2c2-2 4-1 4 3l2 2 1-4c0-4 0-5 2-5l2-2c0-1-4-2-4 0-2 2-3 0-3-4 0-3 1-5 3-7l3-5 1-3c2-2 0-3-4-4-4 0-6 0-9 2-4 3-5 6-3 8l2-1 3-1c2 0 2 0 2 3-2 10-3 12-8 14l-3 2c0 1-7 4-10 4s-2-1 1-7c2-4 3-5 2-7s0-4 1-4l1 2c0 3 1 4 4 2 1-2 1-2-2-4l-4-3-1-2c0-2 1-3 2-1 2 2 4 1 5-2 2-2 2-2 0-4-3-2-4-2-5 1zm-161 0c0 2 2 4 3 2s0-4-1-4zm359 3c-2 3-2 18-1 19v15l2 5c2 5 5 0 5-7l2-6c1-2 1-2-1-4l-2-6 1-10c0-5 0-6-2-8s-3-1-4 2zm-157 0-1 4c0 3-1 4-5 5-4 2-8 7-6 7l1-1c1-2 2-2 5-1 4 1 9 0 9-3v-9c-1-3-3-4-3-2zm139 6c-2 2-3 4-2 6 1 5 1 5 3 4 2 0 2 0 2 2l-2 2-2 2c2 2 3 11 2 13l-1 7c1 4 0 7-1 9l-1 4-2 2c-2 0-3 1-3 2l-1 4c-2 4-1 5 2 5 1 0 2-1 2-3l1-3 7-10 3-4c2-2 3-3 2-8l-1-9-1-12c1-7 1-8-1-8v-2c1-2 1-3-1-4-3-2-3-2-5 1zm-340-1 1 3h4v-3zm52 0c-2 1-2 3 1 3 2 0 3-2 2-3zm70 3c-3 1-2 3 0 3l3-2c0-2-1-2-3-1zm-57 1c-2 1-1 2 2 2l2-2zm9 0c-1 1 2 4 3 4v-3c0-2-2-2-3-1zm22 0c-1 2 0 3 1 1v-1zm9 0c-2 1-1 2 3 4 4 3 4 3 4 1 0-4-5-7-7-5z"/><path d="M180 390c-2 3-2 3 0 4 2 2 2 2 3 0l3-2c2 0 2-2 1-3-3-2-6-1-7 1zm-102 0 2 3c2 3 1 10-3 10l-4-4c-3-6-6-10-6-8l1 2 1 3c0 4 1 6 2 6 2 0 8 7 8 8l2 2c3 0 4-2 1-3-3 0-3-3 0-3l2-1 3-1 4-2c0-1 1-1 3 2l4 3c1 0 3 1 3 3l4 2c1 0 2 1 2 3 1 3 4 4 5 0l-1-4c-2-2-1-4 2-5l4-1-3-2c-2 0-3-2-3-3-1-3-3-4-5-3-1 2-1 2 1 3l2 4c0 5-2 6-4 4l-3-2-2-3-2-4c-1 0-2-1-1-4 0-3 0-3-2-3l-2 2-2 3-7-2-2-4c-3-2-4-3-4-1zm54 8c0 3 0 3-4 4-5 1-5 2-5 5s3 5 6 4c3 0 4-4 3-7l1-3 1-3-1-3c-2 0-2 0-1 3zm40-2v5l2-3v-3zm9 2 1 3 6 4-4-5zm-24 3c-1 1 1 3 2 3 3-1 2-4 0-4zm-40 6h2l-1-1zm22 1c-1 3 0 5 4 8l3 2 1-2c2-4 1-5-1-8-3-3-7-3-8 0z"/><path d="M103 415c-2 1-1 3 1 3l2-1zm299 16c-1 1 0 3 2 3s3-2 2-4c-2-1-2-1-4 1zm-370 9 1 3c2 1 2 1 4-1 3-2 3-2 1-2l-3-2c-1 0-2 0-3 2zm2 8c-1 2-1 7 1 7v-7h-2zm7 2c-2 1-1 4 1 4 2 1 3 0 3-2 0-1-3-3-4-2zm329 6c-2 4-1 8 3 10s9 0 8-3c-1-1 0-2 1-3 2-2 1-3-1-3s-4-1-5-3c-3-3-5-3-6 2zm-105 3-1 4c0 2-1 3-2 3v3l1 2c-1 2-5 1-6-1 0-2-2 0-1 2l-2 2-12 9-3 3 4 1c3 0 4 0 6-3l4-3 2-1c1-1 2-2 6-2 5 0 6 1 6 3s1 3 5 4l6 1-2-6c-1-3-2-4-3-3-2 0-5-2-5-4l3-2 5-2 6-2h17l12-1 3 3a518 518 0 0 1 14 17c0 4 0 5 1 3 2-2 6 0 6 4 0 2 0 3 4 5s6 3 6 6l4 5 3 5 1 3 2 5c0 3 1 3 4 4 4 0 4 0 4-3v-12c-1-2-1-3-4-3-2 0-3-1-6-5l-4-7-3-6c-3-3-4-4-6-4-4 0-10-9-7-11 2-1 6 3 7 6l1 3c2-1 2-5 0-7-1-2-16-10-18-10l-4-3c-3-2-4-2-12-2l-14-1h-9l-7 1h-4c-2 3-3 2-5-1-1-3-2-4-3-2zm-231 5 1 1 1-2-1-1zm209 2-5 4c-5 4-5 7-1 8 2 0 4-1 7-5 5-5 7-9 3-9zm-209 5c-1 1-1 4 2 5 2 1 6-1 6-3 0-4-5-5-8-2z"/><path d="m305 471-1 3h2l2-3zm-19 1 1 4c2 2 3 3 4 2l3-3 3-1c1 1 2 1 2-1l-3-1-7-1zm-62 11-5 7-4 4-4 5-3 4-1 4 2 8v4c-2 1-3 5-3 10l-2 3c-2 2-2 2-1 4s2 3 1 4l-1 8c-1 10-2 15-4 17s-3 8-1 14c0 2 1 3 5 5l8 2c2 0 3 2 4 7l4 8c2 0 5 4 4 5l3 7 4 6c0 3 5 7 11 8l9 4c3 2 3 2 3 5v7c2 2 2 6 2 18 0 6-2 14-5 16l-3 6-1 3-6 4c-4 4-8 5-9 4-1-2-2-1-3 2s-2 4-4 4c-2 1-6 3-9 7l-7 5c-2 0-3 2-4 4-2 3-2 4-1 5 1 2 2 2 3 1l1-2 2-4 3-2 2 3 3 4 2 2c0 2 2 3 3 3l3 4c2 5 4 6 7 6l5 2h7c3 2 16 5 20 5a374 374 0 0 1 26 1 94 94 0 0 0 26-4c3 0 11-4 12-5l2-1 3-2 5-1c3 1 3 1 5-3 1-3 2-4 6-4 3 0 4-1 4-2l-2-1c-2 0-3-2-3-4s-2-5-6-7c-5-5-5-6-4-8 1-3 3-4 8-6l3-3c1-2-3-11-6-14l-4-6c-2-3-3-4-3-1l-3 1c-2-1-6 0-7 3-1 2-1 2 3 2 4-1 5-1 6 1l2 5 3 4c2 1 3 6 1 6l-2 3c-1 3-4 3-4 0s0-3-5-4l-4-3c0-1-1-2-3-2l-3-2-3-2c-1 0-2-5 0-8 1-3 1-3-1-5v-7l-1-4c0-2 0-2 3-2 2 0 2 0 3-2l-2-4-2-1-5 11-2 2c-2 2-1 4 1 6v6l-2 6c0 2 7 9 8 9l7 6c2 4 7 9 10 12 4 5 5 6 5 10s-1 7-4 7l-6 2-5 1-3 1-3 2-3 1-4 1c-2-1-4 0-5 1l-5 2-6 1-7 1-3-1c-3 1-12 0-12-2l-6-1c-4 0-5 0-6-2s-1-2-3-1c-5 3-19-1-21-5l-3-1c-2 0-3-1-3-3l-4-4c-4-1-6-2-6-5s0-3 4-5l9-5c6-4 6-4 8-1 2 2 3 3 3 0l3-5 4-4 3-4c2-2 2-3 2-6v-5l2-4 1-4 2-26v-9c0-4-1-5-2-7l-4-1-3-2-8-4c-6-2-9-4-8-6 2-2 0-7-3-8s-3-1-3-3c1-4 5-4 6-1 2 4 3 4 3 0 0-2-1-4-4-6l-8-2c-3-1-4-1-5-6-2-5-7-10-12-10l-6-4c-2-2-2-3-2-6l3-6 2-5 1-4 2-10 1-11c2-3 2-4 1-10-1-5-1-6 1-7 1 0 2-1 2-4 0-7 1-13 3-13l1 3c0 3 0 3 1 1l3-2c1 0 14-13 14-15s-3-1-5 2l-4 4-4 2c-5 5-6 2-1-5l4-4c2 0 4-3 4-5-1-4-2-3-8 2zm88-4v5c1 2 2 2 3 1 3-2 1-8-3-6zm-270 5c-2 0-1 3 2 4 4 1 6 1 6-2 0-1-5-3-8-2zm252 2c-1 3-1 3-5 1l-5-1c-2 1-1 5 1 7s3 2 5 0c3-2 6-2 9 2 3 3 3 3 4 1 0-2 0-3-2-4l-2-4-2-3c-2-1-2-1-3 1zm23-1 3 2c3 1 3 1 2-1s-5-3-5-1zm-283 5v5c1 0 4-4 4-6s-4-1-4 1zm277 2c-1 2-2 3 0 3 2 1 5 1 6-1 2-3 1-4-1-5s-3 0-5 3zm-53 0 1 1c2-1 2-3 1-3zm-5 1c-1 1-1 2 1 2l1-2c0-1-1-2-2 0z"/><path d="m247 494-1 2-3 3-5 4c-4 3-4 4-2 5 2 3 4 2 5-1 0-2 2-3 3-3 2-1 6-7 6-9s-2-2-3-1zm17 0-2 2-1 1 2 1c2 0 5-3 3-4zm-224 2-2 3-1 1c-3-1-4 2-3 10 0 2 2 0 2-2l2-3 3-3c1-2 2-2 4-2 2 1 4-2 3-4 0-3-6-3-8 0zm-20 3h-2l-3-1c-2 1-2 2-1 4l1 10 1 9c1 1 1 2-1 3-2 2-3 3-3 5l2 1h3v2c-2 1-2 2-1 4 2 3 2 17 1 17-2 1-1 27 1 31v5a333 333 0 0 0-2 69v11l-1 18a2936 2936 0 0 1 4 49l2 9v19c2 1 3 6 1 6l-1-2c-1-2-1-2-2-1v9a124 124 0 0 0 3 46c3 2 2 6 0 7l-2 3-2 6-3 4-3 4-3 3v11c0 4 1 4 3 6 6 2 8 6 9 13v11c1 4 0 13-1 15v2c2 2 1 10 0 10-3 0-2 2 0 3 3 2 4 3 3 5l-3 3c-1 2-1 2 3 6 4 5 4 6 0 6-2 1-2 1-2 8s0 8 2 8c3 0 3 2 0 2-1 0-2 1-2 6v15c2 10 2 14 1 16-1 1-2 5-2 13 0 4 0 6-2 7v2c2 0 3 1 3 11l-2 12c-2 2-2 3 0 4 2 3 3 29 1 33v20c-2 4-2 7-1 8v3l1 2v6c-2 1-2 2 0 6 2 5 1 12-1 13v6c2 3 2 5 1 8v40c0 6 1 7 8 5l10-2 9-3c8-7 9-9 5-13-3-1-3-2-2-4l1-20 1-22a1979 1979 0 0 1 2-62v-26l-2-33v-18l-1-30a157 157 0 0 1 1-21 132 132 0 0 1 1-37l-1-4v-9c-1-9-1-11 4-11l4-1h6c5 1 9 0 12-2l6-2 15-4h6c5 1 6 1 8-1l9-1 10-1h6c2 2 6 3 14 2l12-1c5 2 6-1 5-7 0-4 0-5-2-5s-2 1-2 3c0 1-1 3-4 5l-3 2-3-3c-3-3-3-3-6-1h-6l-12-1h-26l1-5-1-3-3-1c-2-3-4-1-3 4 0 4 0 4-3 6l-9 3c-6 1-15 6-17 8-1 2-4 3-7 1-2-3-5-2-6 0-1 3-1 3-5 2-6 0-6-1-6 27v34l-1 11v15a574 574 0 0 0 2 74v23a282 282 0 0 1-1 46v6l-1 39v34l-4 1-4 2c-3 3-3 1-1-5l-2-2v-4l1-11a532 532 0 0 1-1-79l-1-19-2-27v-9l1-22v-36l1-28a476 476 0 0 1 2-72c-2-1-2-3-2-5 1-2 0-3-1-5v-4c1-1 1-2-1-3-4-2-5 0-2 3 1 2 1 2-1 4l-2 2-5-2c-4-2-5-3-5-5 0-1 1-2 3-2 4 0 6-1 6-4l3-3 2-2 1-2 5-6c2-3 5-5 6-5s3-3 3-5l-1-1c-2 0-13 9-18 15-6 7-8 7-8 4s4-8 13-16l4-6c1-3 5-5 7-5l3 2c1 1 1 1 3-1s7-3 9-1l4 1c5 0 11 4 11 8l3 3 5 3c2 2 2 2 4 1 2-2 2-2 6 1l6 2c3 0 5 3 6 8l2 1c2 0 1-7-1-8l-1-5c0-4 0-4-4-5-9 0-17-4-22-9l-7-5-3-1-7-2c-9-1-10-3-10-9v-9l-1-15c-1-10 0-12 1-13 3-2 1-7-2-7-4 0-6-1-6-4 0-4-2-1-2 4-1 3 0 5 1 8a608 608 0 0 0 4 36c0 7 0 9-7 16-2 2-2 2-4 0-2-1-2-2-1-8l-1-10-1-10a378 378 0 0 0-2-48l-3-19-1-10 1-9 1-4v-7l-2-2-2-1 2-1c3 0 3-2 1-5-4-4-4-6-1-5 2 0 2 0 2-3 0-2 0-3-2-3v-34a786 786 0 0 0 3-48 5423 5423 0 0 1 3-47c3 0 2-2-1-2-2 0-2-1-3-7a158 158 0 0 0-3-33c1-6-1-10-3-6zm2 64-1 1-2-1 2-1zm2 25-1 1-1-2c1-1 2-1 2 1zm252-86c-3 1-3 4 0 4 1-1 2 0 3 1s2 2 4 1l2 1c0 1 1 4 3 5l4 6 4 7c6 6 6 7 6 13 0 4 0 5 3 5 2 1 4 6 4 11l1 3c1 0 3-4 2-5v-5c0-4-4-16-7-19l-2-4c1-2-7-14-9-14-1 0-4-1-5-3-10-9-9-8-13-7zm25 0c-1 1 0 2 2 3 1 1 2 0 3-1 1-2-4-4-5-2zm25 1v7h3c2-1 3-1 5 2s5 11 4 15l-2 4v7c2 4 1 8-1 10-2 0-2 4-1 6 2 1 0 5-2 5l-2 2-2 4c-1 3-1 3 1 6l6 3c3 1 4 2 5 5l2 2c2-1 5 3 6 8 0 7 1 7 3 6s2-2 1-4c-1-3-1-4 1-5 1-2 2-6 0-6l-5-9c0-1 1-2 3-2 2-1 4-2 5-5l3-5 4-13 2-8c0-3 0-4-2-6l-4-2v1c2 2 1 4-1 6-4 3-6 1-5-5 0-4 0-5-2-6s-2-1-2 6c0 5 1 7 2 9 1 1 2 2 1 4 0 3 0 3 1 2 5-4 3 7-2 12l-2 3-2 4-2 5-2 3c-2 0-5-5-5-8l-1-6v-3l2-4 3-3c2 0 2-1 2-10 0-20 0-23-2-24l-1-1-3-5-3-4-1-1-2-2c-1-3-5-3-6 0zm-63 2c-2 2-2 2-1 3 3 1 6 0 6-3s-2-3-5 0zm-14 0v3c1 2 4 0 5-2 0-2-2-3-5-1zm59 2-2 5c0 1 2 4 5 6l4 5 1 3c1 1 1 1 2-1 3-2 2-5-1-8l-2-5-2-5-3-3zm-269 2c0 2 2 3 3 2 1 0 0-3-2-3zm222 6-1 2 3-2z"/><path d="M33 517c-2 2-2 3 2 3 3 0 3-1 2-3-2-3-2-3-4 0zm202-1c-1 2 0 3 1 3v-3zm93 3c-2 1-1 5 1 6 3 2 3 1 1-3zm-290 4-3 3v2c2-1 2 0 3 1 2 6 6 4 5-1s-3-6-5-5zm282 3 1 5c2 4 2 4 3 2v-5c-1-4-3-5-4-2zm-65 2 3 1 2-2-2-1c-2 0-3 0-3 2zm10 4 2 3 3 3c1 3 2 4 3 2 1-1-1-3-3-6-4-4-5-4-5-2zm29 1v1l2-1v-2zm-58 2-7 8-7 7v6c1 1 9-5 9-7 0-4 3-5 10-7h9c1 2 8 1 9-1 2-2 0-3-7-3-6-1-8-1-9-3-2-3-4-3-7 0zm86 7-1 8-2 6-3 5c-7 6-10 9-9 12l2 3 4 3h3c2-1 2-1 4 1l5 3c3 0 4 1 5 5l3 6 3 4c1 3 2 3 4 3 4-1 5-3 2-7l-3-4-2-3-5-5c-2-5-7-8-11-8-6 0-6-4-2-9l3-4 2-3c2-2 2-4 2-8 0-5 0-6 2-7 3 0 3-2-1-3-5-3-6-3-5 2zm-273-2-4 1c-4 0-4 2-1 3 4 0 7-1 7-2 0-2-2-3-2-2zm-12 9-3 3 2-1 2-1 2-3c0-2 0-1-3 2zm206 1-3 1-3 1-3 1c-1 2-1 2 1 3l1 3c-1 2 1 9 2 10l3-2c3-3 3-8 0-11-1-2-1-2 1-2l7 3c6 4 8 3 4-3l-7-5zm25 1 2 2c2 0 4-2 2-3-2-2-4-1-4 1zm29 4c-2 2-3 3-2 4 0 1 0 2-2 2l-2 2-2 7c-3 7-4 10-1 12 2 3 6 1 5-2l1-9c1-4 1-4 3-4s2 0 1-1c-2-2-1-5 2-6l2-5c0-3 0-3-5 0zm-35 1-1 2h3c1-1-1-3-2-2zm15 7c-1 2 0 3 1 1v-1zm-238 4c-2 4-1 5 1 6 2 0 3-2 2-5 0-2-3-3-3-1zm232 2c-1 1-1 1 1 2 3 1 5 0 4-2s-3-2-5 0zm-35 6 2 1 2-1-2-1zm23 0c-1 1 0 3 1 4 2 3 3 3 3 1 1-1 0-2-1-4-2-2-3-2-3-1zm37 7c-1 2 0 5 2 6l7 1c6 0 7 0 7 4l2 4 2 4-2 3-2 3-3 4-3 6c0 2-1 3-3 4-4 2-4 6-1 9 2 1 2 2 1 5s-1 3 1 5c1 1 2 3 1 4 0 1 5 2 6 1v-1l-1-4-2-5c-2-2-2-3-1-4 1-2 2-3 1-5-2-5-1-6 4-6 6 1 5 2 6-9 0-10 0-10 6-10l5-1-1-1-10-9-4-2-4-2c-2-2-3-3-5-2s-2 1-4-1c-3-2-3-2-5-1zm-258 5 2 4c1 1 1 1 1-1 0-3-3-5-3-3zm240 3c-1 1-1 1 1 1l2-1c0-2 0-2-3 0zm-23 0 2 3c3 2 4 1 2-2-1-2-2-3-4-1zm101 6c-1 1-1 1 1 1l2-1zm-76 3 2 1 2-1-3-1zm69 5c-1 6-1 7 1 6v-10c0-2-1-1-1 4zm-309 2c-1 7 0 10 2 5v-8l-1-4zm289-2-2 4c0 2 1 2 3 2l5-1c3 0 2-4-1-5-4-2-4-2-5 0zm-34 3c0 2 0 2 1 1v-2c-1-1-1-1-1 1zm-22 0c-1 1 0 3 2 3l1-2c-1-2-3-3-3-1zm71 6c-2 2-2 3-1 10 0 4 2 5 2 0 0-2 1-2 3-2s2 0 2-2l-2-4c0-4-1-4-4-2z"/><path d="m331 615-2 3-4 4-4 5c-4 3-4 3-3 8 1 8 3 12 6 12l4 1 2 2 1 2c1 2 1 2 2-1 2-4 2-4 1-6l-4-3-4-3c-2-3-2-4-1-7l4-8c3-2 3-4 3-7zm-66 4c-1 1 0 3 1 3v-3zm-225 1-1 6a931 931 0 0 0-2 20c0 2 2 3 4 2v-2l-1-6c2-9 2-26 0-20zm242 1c-1 2-3 2-8 2l-9 2c-2 2-1 6 1 6 2 1 10-1 11-2l2-1 4-1h2l4-2c3-2 3-2 1-2l-2-3c-1-2-5-1-6 1z"/><path d="M339 630c1 2-1 6-2 6-3 0-3 2 1 7l4 6 2 3 5 4 3 2c3-1 2-4-1-9-7-8-8-10-9-15l-2-5zm14 2c-3 2-3 3 0 6s5 2 4-2c0-2 0-2 2-3 2 0 2-1 1-1zm-64 17v3c1 3 4 4 5 2v-2l-2-2c0-2-1-2-3-1zm74 2c-2 2-2 4 1 3l1-4c0-3 0-3-2 1zm-84 2c0 2 2 4 3 2v-3c-2-2-3-1-3 1zm55 5c-4 5-2 9 7 9 4 0 5 0 5-2 0-1-1-3-4-5-5-5-6-5-8-2zm-296 0c0 2 1 3 2 2l-1-3zm283 6c0 2 2 7 4 7 2 1 5-1 5-4l-3-3-4-1c-1-2-2-1-2 1zm-48 0c-1 2 2 4 3 2 1-1 1-3-1-3zm-226 1-3 1-4 1c-3 0-5 2-3 3h6c2 3 5 2 6-1 2-5 1-5-2-4zm1 10c-1 2 0 10 1 13s2 3 5 3l4-1c1-1-3-5-5-5l-1-5c-1-5-2-7-4-5zm234 7-1 4c0 2 1 2 2 2 2 0 3-1 2-3 0-4-1-6-3-3zm-245 2 1 1 1-1-1-2zm287-1 1 2c1 1 2-2 1-2zm-33 6 1 3c1 1 1 1 1-2l-1-3zm63 13c3 4 4 4 5 3l-1-1-1-1c0-2-3-5-4-5zm-65 8c-1 1 0 4 2 4s2-1 2-2c0-3-3-4-4-2zm-241 2 1 2 1-1c1-2-1-4-2-1zm309 2c-2 2 0 6 2 6 3 1 4 0 2-4-2-3-3-4-4-2zm-102 2c-2 2-1 5 2 6s4 0 4-4c0-3 0-3-2-3zm50 1c-1 3 1 4 7 4l5 1c1 2 5 3 6 1 0-1-4-4-6-4l-4-2c-3-2-7-3-8 0zm-38 1c-3 2-2 3 2 3 3 0 4 0 4-2-1-2-4-2-6-1zm-58 6c-4 2-5 4-2 8l2 4 1-3 1-6c1-4 1-4-2-3zm-170 2v4l3 4c0 2 0 2-2 3-2 0-3 1-1 2v6c0 5 0 6 2 7l3 1c2-2 2-8 1-11v-16c-1-3-6-3-6 0zm319-1v6c0 6-1 9-6 9-3 0-6 2-6 4 0 1 4 4 5 3 3-1 5 3 6 11 0 6 0 7-2 8l-5 4c-5 4-5 8-1 10l2 3 2 3 1 4c-1 3 0 4 3 2h5l-1-1-3-3c-1-2 0-3 1-4l1-3 3-4 1-4c-1-2-4-1-6 2-1 3-3 4-5 4s-3-3 0-3l3-4 2-2h3c1-1 2-2 2-8 0-8 0-8-4-11-2-3-3-4-3-7l2-2c2 0 5 4 5 7l2 4c2 1 2 3 2 6l2 7v6l-1 15a502 502 0 0 1 2 24c3 7 1 22-4 29-2 3-2 3-1 4 2 2 4 2 4 0l1-1c1 1 2 5 1 12v6l-2-2c0-2-1-2-3-2l-7 4c-3 2-4 3-3 4 2 1 3 1 5-1l5-2c2 0 3 0 3 2 0 4-2 8-4 8l-1 2-2 3-1 3-2 3-1 3-3 5c-3 3-3 4 1 4 3-1 4 0 5 2 2 2 2 5 0 5l-2-2-3-1c-2 0-2 0-2 3s-2 2-3-1l-2-2-1 3 1 5c0 2 0 2 1 1 2-3 6-3 6 1 1 2 0 3-4 7s-5 5-4 8c0 3 0 4-3 6s-5 5-6 12l-3 7c-2 1-2 3-2 5 0 4-2 7-5 9-2 1-3 1-5-2-4-4-12-6-15-4-5 3-4-4 2-10l3-4 3-1c2 0 3-1 3-2 0-2 5-8 8-9l2-1 3-3c2 0 4-3 5-4 0-2 2-4 4-5 3-3 3-4-1-7-3-3-5-3-6 0l-4 5c-2 2-3 3-3 5 0 3 0 3-5 5-4 1-5 2-5 5l-3 3-3 2-10 5v2c1 3-1 9-3 9l-2 4-2 5c-3 5-3 6-2 8s1 3-1 4c-3 2-5 2-7 1-3-3-5-1-7 6-2 5-3 8-6 11-4 4-13 9-13 8-2-1-1-5 1-6s7-8 8-11v-5l-1-2-3 2-4 7c-3 7-10 13-15 13-7 2-8 2-8 5v3c3 2 6 2 8 1 4-2 14-3 18-3 5 1 7 0 9-4l3-2 4-3 6-3 4-1h2l3 2 4 1 7 2 7 2h6c2-1 2-1 5 2 2 3 2 7-1 10-1 1-1 2 1 4 1 2 1 2-1 8l-1 9-1 6v3c1 3 1 3-3 8l-5 6c0 2-4 10-6 11l-2 3c0 2 6 6 9 5 1 0 2 0 2 3 1 4 2 5 5 5 4-1 4-3 2-8-2-3-2-5-1-7 2-4 9-2 9 3 0 6 10 10 13 4 1-2 0-4-1-2s-3 0-3-5c-1-4-1-5-4-5s-5-1-7-3l-4-3v-5l3-1c2 0 2 0 2-3a195 195 0 0 1 3-42l2-6v-4c-2-2-2-3-1-5l3-3 3-1h3l1 4v2l3-2 3-4c0-2 1-2 4-1 4 0 4 0 4-2s-1-2-7-4l-4 1c0 2-14 1-15-1l-2-1v13l-2-2h-3c-2 1-3 1-5-1l-2-2-2 2-5 2c-3-1-3 0-2-13l5-11 4 3c3 3 5 4 7 1 1-1 2-1 4 2 6 6 10 6 10 0l2-7 2-7 1-5 1-3 3-5c2-2 2-3 2-5v-4l8-15 8-10 6-6-3-3c-5-4-5-8-2-11 2-1 3-3 3-5l2-3 3-9c2-6 3-7 1-9-1-2-1-3 1-4l1-8 2-8c2-1 2-3 2-6v-10l-1-4-2-6-1-5-2-12v-11l1-12v-7l-4-19-2-7c-1-2-2-4-1-5 0-2-2-8-4-9l-1-3c0-3-4-4-6-2zm6 9c2 3 1 5-2 3l-2-4c0-3 2-2 4 1zm-59 238c-2 13-4 15-10 14-4-1-5-4-2-6l3-3 2-4 2-4 5-6zm14 83 1 2-3-1c-1-2 0-3 2-1zm-3 10c4 4 2 7-2 4-3-1-4-6-1-6zM195 728l-3 5-3 3-4 1c-2 1-4 8-5 14l-3 3c-2 1-3 2-3 9v7h-3l-3 1 1 1 2 2c0 4-2 15-4 18l-1 4c1 1 0 1-2 2l-3 3-2 5-2 5-2 2-2 3-2 4-1 3-3 4c-2 2-3 4-3 7v3h5c4-1 9-5 9-8l2-5 3-5 1-3v-2c-2-2-1-4 1-2 3 2 5 0 5-4 0-5 4-11 7-10l1-1-1-1c-3 0-2-10 1-10 2-1 4-8 5-17 0-6 0-7-2-8l-3-2 3-2c3-3 4-3 5 0l3 2c3 0 3 1 4 5l2 7 2 5 3 5 5 5 3 2c3 0 3 0 3-3 0-5 7-7 9-2 0 2 0 3-4 6-3 1 0 7 3 7s5 4 2 6l-1 3 4-3 5-4c2 0 1-2-1-2l-2-3v-4c-1-2 4-3 6-1 1 1 1 1 2-2 0-2 0-3-2-4l-4-4-6-2c-5 0-8-2-8-4 0-3-3-4-5-2s-6 3-6 1l-2-6-2-11c-2-12-2-14 0-14 2-1 2-1 2-4l-1-8c1-3-2-3-5 0zm17 48c0 2-4 3-5 2-2-1-1-2 1-2zm128-41c0 3 1 4 3 3 2 0 2 0 0-3s-3-3-3 0z"/><path d="m206 740 2 2c2 0 2 0 2-2l-2-2c-2 0-2 0-2 2zm132 3v22l2 5c0 3 5 3 5 0 1-2-1-8-2-10-2-2 0-4 2-4 3 1 5-1 3-2h-3c-2 1-3 1-3-7 0-3-1-5-2-5zm-121 9c0 2 0 2 2 1 2 0 3-2 1-2-1-1-2 0-3 1zm11 1-1 2c0 2 5 4 6 3l-1-1-1-2c0-2-1-3-3-2zm57 1 2 2c1 0 1-2-1-3zm10 2c-1 3-1 4 1 4 3 0 3-1 2-4-1-2-3-3-3 0zm22 1-2 2h3c3 0 4-1 2-3 0-1-1-1-3 1zm10 0c-2 0-1 3 1 3l2-1c1-1-1-3-3-2zm-82 2-1 3h1l2-3 1-1zm22 1h-3c-3-1-4 0-4 3 1 3 9 3 11 0 2-2 2-2 1-4h-5zm9 7 1 2c1 2 4-1 3-2zm-30 1 2 1 1-1-1-1zm14 2-2 2v4h4c4-2 4-3 3-5s-5-3-5-1zm54 3-2 1 4 1c1 2 4 0 4-2s-1-2-6-1zm-45 5c-1 2 2 4 6 3 4 0 4-1 1-3-2-2-6-2-7 0zm-32 5c0 1 1 3 3 3 3 1 3-1 1-3-3-2-3-2-4 0zm72-1c-1 1-3 2-10 1h-11l-4 1c-2-1-1 2 2 4s3 2 6 1h7l4-1h5c3 0 4 1 4 4l2 4 2 7c0 5 2 11 4 18 2 4 1 13 0 14-1 2 0 5 2 7 2 1 3 3 3 10 0 8-2 13-9 22l-4 7-6 10a312 312 0 0 0-15 25c2 3 1 6-2 8-5 4-9 6-12 6l-6 2c-4 2-6 2-8 1h-2c-2 2-2 2-4 1-4-1-5-1-5 2l-1 4c-1 1-1 1-4-1s-3-2-5 0c-4 2-13 1-13-2l-3-4-4-7c-1-3-1-3 1-7 3-4 7-4 6 0 0 3 1 5 3 3l2-8c2-7 3-11 5-13 2-3 0-4-6-4l-5-1v4c0 2 0 4-2 4l-3 6c-1 2-3 6-5 7-3 3-4 3-7 2-3 0-4-1-5-2-1-2-2-3-6-4-3-1-8-2-10-4-4-2-8-3-10 0l-5 1-5 2-6 1c-5 0-6 1-11 7l-3 3-3 4-2 6-1 7c0 4 0 6-2 7-3 2-5 1-5-1l-3-3c-3-1-3-1-3-4s-1-4-2-4l-2-1-4 5-2 5 2 2 2 4c0 1 1 2 3 2l4 2c2 2 3 1 4-2v-2l4 2c3 2 3 3 3 5-1 4 1 10 5 19 3 7 5 10 10 13s7 7 5 8l-2 7-2 8-1 3c1 1 0 2-1 3l-1 3-1 5-2 7c-1 6-3 10-6 10-5 0-6 0-5 4l2 6c1 1 1 5-2 8-2 2-3 2-4 1-2-2-3 0-4 4 0 3 0 3 3 4 3 0 5 3 3 4-1 0-4 2-6 5l-5 4 4 2c2 0 4 2 5 3 1 2-2 5-5 5-2 0-4 1-6 4-4 4-4 5-1 5s6 4 6 7c0 2-1 3-3 4-3 1-8 7-7 9 1 1 2 3 4 3l4 3-4 3c-2-1-5 1-7 5s-2 5-1 7l3 2 2 1 4 3c4 1 4 1 6-1 4-3 5-8 2-10-3-4-3-5 2-10 4-4 4-5 4-8v-6c3-6 4-14 1-15-1 0-2-5 0-5 3 0 7-6 7-10l3-5c3-3 2-6 0-9s-3-7-1-9v-5c-2-4-1-7 2-6h6c5 1 6 2 5 6v9l-1 5-1 4c-1 3-1 3-3 2-3-2-4 0-3 3 0 2 1 3 2 3 3 0 7-5 7-8s1-4 3-3h2v-4c-4-6-1-10 5-8 2 1 3 1 6-1 4-2 6-2 6 0l-7 8-2 4-1 4 1 4c2 2 2 5 1 9-4 9-4 10-2 13l2 2-4 7c-2 5-3 7-2 8 2 3 1 5-2 6-2 1-3 2-3 4v5c0 2 0 3 2 4 4 2 4 3 3 4-4 4-3 9 1 9 1 0 4 2 6 5l5 5v-5c0-5 0-7 2-10 2-4 2-5 0-8l-1-5c0-1-1-3-3-3-2-2-3-4 0-8l1-9 1-6 4-6 3-6-3-2c-3-3-3-5 2-9 2-3 3-4 2-6l-1-6-2-5-1-5c0-3 0-3 4-3l6 3c2 2 3 2 7 2 5-1 6 0 4 4-1 2 0 4 1 6v6c-2 2-3 3-5 3-8 0-9 2-3 9 4 5 5 8 2 13-2 3-2 4-1 8s1 4-1 7l-2 8c-1 4 0 5 3 8 3 4 3 4 2 10 0 5-1 7-2 8-3 2-3 3 0 5 2 2 2 2 4-1l3-6 3-6v-3l-1-8-3-7c-2-2-3-4 0-8l1-7v-9l1-5v-10c-2-2-1-5 1-6s6-8 6-11l-2-4c-1-2-1-3 4-3l8-2 3-2 3 3c4 4 4 7 0 7s-9 3-9 5 3 4 6 5l2 4c0 2-2 4-6 8-5 4-6 6-6 8s1 3 4 3c4 0 4 1 5 4l-4 8-5 5c0 2 4 4 7 4s4 1 4 3l-4 4c-5 3-6 6-3 8l3 4 2 3-2 2-5 5-1 3 4 2 6 4c1 2 3 3 4 1l2-10c0-10 1-12 5-12 3 1 4 0 2-3-1-1-2-2-3-1-3 1-4-2-2-9 2-8 1-11-3-13-4-1-4-4 1-9l3-5-3-5-2-3 3-3c3-3 7-9 7-12l-2-6c-3-5-2-7 3-5 3 1 4 0 3-3 0-2 0-3 2-5 3-3 2-5-3-5-4 0-6-3-4-8 2-6-1-8-5-3l-5 5-4 4c-2 4-5 4-6-1v-5c1-2-1-7-4-8-3 0-5 1-5 5-1 4-4 7-8 8-5 0-7-3-7-10 0-4 0-5-2-5-1 0-3 1-5 5l-4 5-5 4c-6 6-9 5-9-4-1-7 1-9 6-9 3 0 3-5 0-6s-6 1-10 7l-5 6-3 2c-3 2-5-2-4-7 0-3 0-4-2-5s-2-2-1-5c2-4 4-6 7-4l1 1c3-3 6-9 6-10h-3c-3 0-4 1-5 2h-1l2-3 2-5 2-3 3-4c2-5 3-6 5-5s8-2 10-6c2-3 3-3 6-3l8-2c3-2 5-2 8-2 2 1 4 1 6-1l5-2c2 0 3 1 3 5l2 6 1 5c-1 5 7 4 9-1l4-5c9-5 14-9 14-11 0-4 3-10 6-13 2-2 2-2 2-8l1-8c2-1 1-5-1-5-3-1-3-3 1-7 3-2 3-2 6-1 3 2 4 2 6 1l6-2c3 0 11-4 11-6 1-3 4-2 6 1 1 3 5 5 7 3 1-2 1-5-3-8-3-4-3-6 2-11 10-11 11-12 8-18 0-2 0-2 2-2 4 0 5-2 3-5-1-3 0-5 3-5 2 0 2-1 2-4-1-3-1-4 2-5 3 0 4-1 4-3s1-4 3-5l3-4 2-5c2-2 2-4 2-7-1-3-1-3-5-3-3 0-3 0-3-3 1-5 2-5 4-5 2 1 5-1 5-2l-2-1c-3 0-8-5-7-7l-3-4c-2-3-2-4-2-9v-6l-1-3-2-5c-2-2-2-3-1-5v-4l1-6c2-6 2-6-4-8zM162 921l-1 3c-2 2-2 3 0 5l2 2 6-5 6-4h7l7 1h10c1-1 6 3 6 5l1 3 1 2 1 3c1 1 1 1 3-1s2-2 1-4l-3-3-2-2c0-3 1-3 3 0l6 4c3 1 3 2 2 4l-1 5c0 3 0 3-5 2l-5-3-2-1c-2 2-1 4 1 5 4 2 5 5 4 7-2 2 0 7 3 7l2 2h-2c-3-1-5-1-5 2l-2 4-7 7c-6 7-10 8-19 5l-10-2-5-2c0-2-2-3-4-3l-2-3-5-11c-2-4-1-18 1-22v-4l-1-4c0-2 0-3 2-3l2-1zm72 27c2 1 2 2 1 5l-1 9-1 6c-1 3 0 3 3 0 2-1 2-3 3-10 0-10 1-12 4-12s5 3 5 7c0 3 0 4 2 4 3 1 4 4 1 8l-2 7-3 5h-3l-5-1-5-2c-1-2-1-2-4-1s-3 1-6-1c-3-3-3-3-5-2s-2 1-4-1c-3-3-3-4 1-6 3-1 4-1 4 1 0 3 2 3 4 1 1-2 2-4 1-10l1-9c1-2 7 0 9 2zm-74 33c2 3 0 4-2 1l-2-2c0-2 2-1 4 1zm36 71c0 2-3 4-4 2-2-1 0-4 2-4zm21 0c0 2-2 6-4 7-1 0-2 0-3-2-1-1-1-2 1-4 1-3 5-4 6-1zm-70 25c0 2-3 3-4 0 0-1 2-3 3-2zm87 60-2 1c-2-1-3-3 0-3z"/><path d="m181 936-2 4c0 3 1 4 4 6s3 2 3 6-1 4-4 5c-4 0-4 0-6-5l-2-4 2-3c4-4 2-5-4-3-5 2-5 5-2 13 2 5 3 6 6 7 2 1 5 2 6 4 3 3 5 3 9-2 6-7 8-16 5-21l-4-3-2-1-6-4zm66-152 1 1c2-1 2-3 1-3zm23 1h-6c-2 2-2 2-3 1-2-2-4-1-4 1l1 2 12 2h4l5-2c3 0 3-2 1-3l-2-1c0-1-7-2-8 0zm-21 3 2 2 1-2-1-2c-2 0-2 1-2 2zm-8 5c-4 2-5 3-2 6 1 2 2 2 4 2 2-1 3-1 5 5l7 9c3 3 3 3 2 6l-4 7c-3 3-3 4-2 5l4 1 3 3c0 3-1 5-4 7-4 2-4 4 0 5 3 0 4 3 1 7v5c1 4-1 5-4 2-2-2-2-2-4 0l-1 2c0 2 4 7 5 7s2 1 2 4 1 3 1 2l2-4 2-10c0-6 0-8 3-10 2-2 2-2 3-1 1 2 2 2 3 2l-3-3c-2-3-2-4-3-10 0-7 0-8 2-10s2-3 1-9c0-5-1-9-3-12l-2-7-2-4-3-5-3-1h-5c-1-2-2-2-5-1zm-58 6c0 2 1 2 3 2 1 0 2 0 2-2l-2-2c-2 0-3 1-3 2zm29 0c-2 1-2 3-2 5 1 1 0 2-1 3l-4 8-5 8-2 5-1 4c-2 0-5 5-5 8l-2 5-2 5c0 4-6 11-11 14-4 2-4 4-2 5s2 1 5-2l6-3c3 0 9-6 9-11l2-7 1-5 3-5 3-4 2-3 1-4 3-5 4-6 3-3c2 0 3-2 1-4l-2-5c0-5-2-6-4-3zm71 0c-2 1 0 7 3 7s3-1 2-5c-1-3-2-3-5-2zm73 3c-1 1-1 3 1 3 2 1 4-1 2-3zm-18 3 2 3 2 2c2 0 1-3-1-5-3-2-5-3-3 0zm-159 4v1l2-1v-1zm15 1c0 2 2 4 3 3l1-3-2-2zm159 3c-2 1-1 3 1 4 3 1 4 0 3-3 0-2-3-3-4-1zm-125 2 1 1 1-2-1-1zm79 0c-2 1 0 4 3 4 2 0 2 0 2-2 0-3-2-4-5-2zm47 8c0 1 3 4 5 4s2-2 1-4c-1-1-5-2-6 0zm-45 1 2 5v-5zm-182 3s-1 2-3 2c-3 2-10 2-13 0-2-2-3 0-3 3l4 3c2 2 2 2 3 0 0-1 1-2 2-1h6l3-2c2 1 3 0 3-2l-1-3zm217 1 1 1 1-2-1-1zm-209 3-2 3h2c2 1 4 0 4-3s0-3-4 0zm84 0 4 2c2 0 2 0 1-1-1-2-5-3-5-1zm66 0-4 1-2 1 4 4c2 0 5-4 5-5-1-2-3-2-4-1zm68 2c0 1 2 3 4 3l3-1c2 0 1-3-1-3-4-1-5-1-6 1z"/><path d="M243 834c-2 4-1 7 3 5 3 0 3-2 0-5l-2-2zm51 0c1 2 2 2 3 0l-1-2zm-28 0 2 1 1-1-1-1zm-217 3v4l2 4 1 5c0 2 0 3-2 4h-6l-5 1c-2 3-1 3 5 4 4 1 5 1 4 3 0 3 0 3 2 3 2-1 7-10 7-13l2-6c3-2 2-5-1-6l-4-2c0-2-4-3-5-1zm224 0c1 2 3 2 3 1l-2-2zm-137 2c0 2 1 3 4 3 3 1 3 1 3-1 0-4-5-6-7-2zm128-1c0 1 3 4 5 4l1-3c0-2-4-3-6-1zm29 4v3l2-1c2-1 0-3-2-2zm-8 1 2 1 1-1-1-1zm18 1c-2 5-2 7 1 9 5 4 6 2 4-5-2-5-3-7-5-4zm-26 5c-4 4-5 6-2 6 3 2 5 1 5-1l2-4c1-1 1-6-1-6zm-37-1-4 4c-3 1-4 2-2 4 4 3 9-2 8-8l-1-3zm113 1c-1 2 1 8 3 8s2-4 1-7-3-4-4-1zm-107 2c0 3 1 5 3 4v-4c0-4-3-4-3 0zm-170 0 2 2c2 0 2-2 0-3zm133 1 2 1 1-1-2-1-2 1zm86 4c-3 0-3 4-2 6 2 1 2 1 4-1 4-5 3-7-2-5zm-225 1c-1 2 0 2 2 2l1-2zm-32 10c-2 2-2 2-1 3s2 1 5-1l3-2c0-2-4-2-7 0zm240 1c-1 1-2 2-1 3s1 1 2-1c2-2 1-4-1-2zm-49 2c-3 4-3 4 1 4s9-3 8-5c-2-2-6-1-9 1zm76-1v4l2 2c1 2 1 2 1 0-1-2 0-3 1-4l1-2zm-23 4-2 2v3h2c1-2 2-2 2-1 2 2 4 1 4-2s0-4-3-4c-2-1-2 0-3 2zm66-1 1 3c1 1 1 0 1-1l-1-3c-1-1-1 0-1 1zm-108 3c-3 2-5 6-5 13-1 3 0 4 2 4l3 3c1 3 3 2 3-2l2-5c2-1 2-2 1-2-2-1-1-4 1-6s1-6-1-6c-2-1-2-1-6 1zm52-1c-1 1 0 4 2 4v-3c0-2-2-2-2-1zm-88 5v3c3 0 3-2 2-4-1-1-1-1-2 1zm23 0-1 3c1 0 5-3 4-4-1-2-3-1-3 1zm27 3-2 6-3 6c-2 2-2 3-1 3 3 0 7-3 7-5l2-3 1-3 1-3c2-1 1-3-1-3-2-1-3 0-4 2zm82-1c-2 1-1 3 1 3l2-2c0-2-2-2-3-1zm-61 6-5 1c-3 1-4 4-2 6 3 2 4 1 5-1 1-3 1-3 3-2 3 2 5 0 4-3s-1-3-5-1zm112 4-5 2v2c3 2 0 12-4 12l-3 3-4 7-5 7-3 5-2 7v4s-2 0-3 2l-2 4c1 1 0 4-1 5v5c1 3 1 3-1 5l-5 10c-1 2-1 2 1 2 2-1 3 0 4 1 1 2 1 2 4-2 3-3 3-3 2-5-2-3-1-7 2-8 2-1 3-1 5 1 2 3 5 4 15 5l8 2 3 1c2 0 2 1 1 2l1 3c2 1 9-1 9-3s3-1 4 1 2 3 4 3l5 3c2 3 3 3 7 3h5l3 2c3 0 8 3 10 5h2c1-2 5-3 6-2l4 1 2 1c0 2 7 3 13 3 5 0 6 0 7 2 2 2 3 3 7 2l6 1c2 2 5 2 10 2h8l4 1 1 3c0 2 2 3 4 2 1-1 2 0 4 1h4c3-2 6-1 7 1 1 3 1 3 5 1h8l3 1c2 2 10 4 15 4l5 1c2 1 4 2 7 1 3 0 4 0 5 2l1 3c-1 1-17 0-20-1s-7 0-7 1l2 3c1 3 2 3 6 3l8 1h12c2-1 3 0 5 2s3 2 4 1c3-2 14-2 18 0 3 2 4 2 8 0 3-1 5 0 5 3l2 3c1 2 2 2 8 2 8 0 9-1 9-3-1-2 1-2 3 1 2 1 3 2 5 1l4 1h24c5 1 5 1 5-2 0-2-1-3-2-3l-4-1h-5l-8-1-10-1-7-3-4-1c-2 1-6 0-6-2l-5-1c-5 1-5 1-7-1-1-2-4-3-6 0l-3 1-2-1-3-2-3-1-5-2-5-1c-1-2-7-3-8-2s-2 0-3-1c-1-2-3-2-6-3l-19-3-7-2-7-3c-2-2-10-3-16-3-3 0-4-1-6-3s-2-2-5-1h-7c-8-4-13-5-14-4-1 2-5 0-6-2 0-2-6-5-9-5l-3 2-2 2-3-4-3-5c0-1-3-1-5 1l-3 1-2 1-1 2h-4l-4-3c0-3-4-6-10-6l-6-1v3c0 3 0 4-2 4l-7-2-6-2-1-2 2-1c5 2 10 2 11 1 1-2-3-4-7-4-2 1-3 0-5-1-2-3-3-3-7-2l-4-1c0-2-7-4-10-3l-6-2-7-2-5-1-12-1c-3 1-4 1-6-3l-2-5 6-13 2-6c0-2 4-6 6-6s2 2 3 10l2 5 1 4c1 2 6 3 7 1 1-1-3-9-5-10l-1-4c0-3-1-4-2-5-3-1-3-6 0-8l3-4c0-2 2-3 3-3 2 0 3-1 3-3 1-2 1-2 1 0 0 3 1 3 3 1v-12c0-4-1-4-3-5zm-47 4c0 2 0 2 1 1v-2c-1-1-1-1-1 1zm-75 1c-1 1 1 2 2 2 2-1 1-4 0-4z"/><path d="m373 895-1 3c0 2 1 2 2 2l4-1c2 0 2-1 2-2-1-3-5-4-7-2zm-106 6c-1 0-1 3 1 3 2 1 3 0 3-2s-1-2-4-1zm-16 1c-1 2 0 5 2 5 2 1 2 0 1-3s-2-4-4-2zm-52 3v4l1-2 2-3v-2zm77 1-3 1c-2 0-3 1-3 2-1 3 1 5 3 3 0-2 2-2 3-1 3 0 3 0 3-3s-2-4-3-2zm-21 4v3l1 3 2-2 2-4zm9 8c-1 6 2 9 5 6 1-1 0-2-1-5-3-5-4-5-4-1zm-26 0 2 1 1-1-2-1-2 1zm47 34v2c1 0 3-3 2-4zm120 24c-1 2-1 3 1 3l1-2c0-2 0-2-2-1zm-45 6 2 3c2 2 2 2 6 1h10l4 1c3 3 7 1 7-3 0-2-4-3-6-2h-3c-4-2-6-2-8-1h-3l-5-1c-3 0-4 0-4 2zm35 3c-3 1 1 5 7 6 4 1 5-1 1-4-3-2-6-3-8-2zm16 6-4 1 9 5c1-1 2-6 0-6zm12 3c-2 1-1 2 1 2l2-1c-1-2-2-2-3-1zm-225 1 3 3c1 2 2 2 2 1l-2-3c0-2-3-3-3-1zm231 2c0 2 1 3 4 2l-1-2zm-86 6-3 21c0 13 0 19 2 21 1 2 1 6-1 7v6l2 5c0 3 0 3 4 3 3 0 3 1 4 4l-1 4-1 5c-1 4-1 4 2 7l3 5c0 5-3 11-6 12l-4 3-3 2c-1 0-4 6-3 8 1 1 4-1 4-3l2-1 5 2 4 1-3 6c-4 5-5 6-3 7l1 9-1 7 3 1c3 0 4 1 1 3l-4 5-3 4c-3 0-7-4-8-8-1-2-2-2-5-2s-3 0-3-3l-2-6-3-3 3-8c3-8 3-9-3-15-2-3-2-3-1-5 2-3 3-4 5-3 2 0 2 0 1-3v-4l2-3 1-4c2-3 0-9-2-10-3 0-9 1-9 3l2 4c4 4 5 8 2 12l-3 4c-3 0-9 9-9 11 0 1 1 3 4 4s4 2 4 6v7l-2 6c-1 3-1 4 2 6 2 2 2 2 1 9 0 4-1 7-3 8-1 1-1 1 2 4 2 2 3 3 5 2h5c3 0 4-1 4-2 0-2-1-3-4-3-4-1-5-5-2-9l3-2c2 0 5 4 7 9 2 6 4 7 5 3 2-5 5-5 7-1 2 3 5 7 7 7l3-2 4-4 6-8s-1-2-3-2c-3-2-3-2-5 2l-4 3 1-2v-5c0-2 0-3 3-4 3-2 3-3 3-5s-1-2-3-2c-5 0-6-2-6-5s2-5 5-5c2 0 3-1 2-3l-2-2c-1 1-2 0-3-1-1-2-1-3 2-5l3-5 1-5c1-2 0-4-4-4-4-1-4-3 0-8l3-5-2-3-2-4-1-2v-8c1-1 0-1-1-1-3 1-3 0-4-3-1-4 0-5 3-8 5-5 7-4 6 4-1 5-1 5 1 6l3 2c1 1 1 1 3-1l4-3c3-2 3-2 5 0s2 2 4 1l1-2c0-3 4-9 6-9 3 0 4 1 3 3s-1 3 1 5c1 4 2 5 9 7 3 1 3 2 1 3v3l2-1 3-1c2 0 3 2 1 3l-1 2-1 4c-1 1-2 7-1 9v6c3 3 2 4-2 9l-4 6 7 6c4 1 4 3 1 7s-4 8-1 9c2 1 3 8 1 8l-2 4c-1 3-1 4 4 8l6 4 6-3c5-4 5-6 1-9-1-1-2-1-4 1-4 3-4 2 0-4 4-9 4-12-1-13-3-1-4-2-4-5l2-7 1-3-2-3c-4-2-4-6 0-12 2-5 2-5 1-9l-4-7-2-2 2-4 3-5c0-2-4-7-6-7v-4c0-5-1-6-3-3-2 4-5 3-6-1-1-5-2-6-4-6-2 1-4-1-4-4 0-5-1-6-6-4l-6 6c-3 5-5 6-9 5-2-2-3-2-2-8l-1-7c-3 0-6 2-8 6-4 5-7 7-10 5v-4c2-3 1-6-1-7-3-1-3-2-2-7v-5l-1-7c-1-4 0-6 2-9l4-6c1-2 7-5 10-5a358 358 0 0 1 19 1c1-2 1-2 4 0l4 1c3-1 8 2 12 6 3 4 4 5 4 8l1 4v5l1 4 2 2 1 2v-2l-1-2-1-2c0-2 2-3 3 0h2v-8l-1-4c-2-1-7-8-7-10s2-2 5-2h5l7 3 3 2 4-2c3-2 4-2 6-1 4 2 11 3 12 2v-3c-1-2 0-3 4-2 6 1 6 1 4 4-3 5-3 5 7 2l4-1c0-1 2-2 3-1 4 0 4 2 1 2l-2 1 6 2 8 1h4c1-2 1-3-2-4l-3-4c-1-4-2-5-8-5-4 0-5 0-6-2-2-3-5-2-5 2l-1 2c-1 0-2-1-2-3l-1-4-2 2c0 3-2 3-5 1l-6-2-5-1-2 1-3 1-4 2c-3 2-5 1-10-1-3-2-4-2-6-1h-11l-10-2-34-1-15-1c-1-2-2-1-2 4zm72 140c-2 3-3 4-4 2l2-5c3-2 3 1 2 3zm-203-142c0 1 1 2 3 2 3 0 2-2-1-3zm273 4 1 1v2c0 2 1 7 2 6l1-4 1-3 1-2zm-291 4c-1 4-1 4 3 8 3 4 4 3 2-6-1-7-3-8-5-2zm10 0c-1 2-1 2 1 3h6c1-3-5-5-7-3zm288 1 1 3 3 5 4 5c4 2 10 2 12 1 3-1 3-3 0-3-2 0-2 0-3-4v-3l1 1c0 3 5 4 24 6h6l3 2c1 1 2 2 4 1 6-1 4-5-2-7-4 0-7-2-8-3h-9l-7-1h-5l-3-1-3-1h-7l-6-2c-3-1-4-1-5 1zm-266 4 2 1c2-1 3-1 4 1h1c0-2 0-2-4-3-2-1-3-1-3 1zm57 0c-1 3-1 5 1 6 3 1 4-1 2-5-1-3-3-4-3-1zm-43 1c-3 2-2 3 2 3s5-1 3-3z"/><path d="M374 1017v3l1 4c0 2 1 4 3 3v-4l-1-4 1-3c-2-2-4-1-4 1zm-68 0 1 2h1v-2zm-80 1v2h2l-1-2h-2zm40 1c0 3 2 4 4 4 2-1 3-1 3 1 1 3 3 4 3 1l-3-4c-3-3-7-4-7-2zm117 1-1 3c0 2 0 2 2 1 2-3 1-7-1-4zm-16 5v5c1 0 5-4 4-5zm-204 3v4c2 0 2-3 1-4zm225 3 3 4 5 1-1-3-2-2-2-1zm28 6c-2 1-3 4-2 5 2 1 2 1 3-1l3-2 1-1c0-1-2-2-5-1zm-123 3c-9 5-11 7-7 12l2 7 2 8v11c-2 2-2 4 0 7s3 7 1 7c-1 0-9 7-9 9l7 5c1 0 1 1-1 2l-2 4-3 5c-1 2-1 2 2 3 4 2 4 6 0 11l-4 6 4 1 3 2-3 4c-5 5-5 6-2 7 2 1 2 1-2 5s-4 4-2 6c2 3 5 3 7-1 3-2 5-2 5 1s2 6 3 5l1-8c0-7 0-9 4-9 3 0 3-2 0-5s-4-6-1-7c2 0 5-4 4-6l-4-1c-5-1-5-4-1-7 4-4 4-6 0-9l-3-2 4-4c5-4 7-9 5-9l-4-3-2-2 2-3c5-5 6-14 1-14-2 0-5-3-5-5l3-1c3-1 4-3 1-3-2-1-3-5-1-7 3-2 2-4 0-5-4-2-4-7 0-12 1-1 0-2-1-4-1-1-2-2-4-1z"/><path d="M264 1043c-3 2-4 4-1 7v5l-1 8-1 12c-1 5-1 5 1 5l4 2c1 3 1 4-1 7l-2 4c0 2-1 5-3 6-4 4-4 5-1 12 1 5 1 5-1 10l-2 5 2 7c3 9 4 11 1 13-4 3-2 11 2 13 2 0 3 2 3 3l2 1c2-1 2-12 0-13v-10l-2-4 2-6c1-4 1-6-1-8v-6c2-5 2-11 1-14-1-2-1-2 2-6 2-3 4-10 4-19l-3-2c-2 0-3-2-3-2 0-2 5-5 8-7 1 0 2 1 2 3 1 4 2 4 7 1l4-2-4-3-5-4 2-3c2-2 3-5 1-5l-4 2-4 2-1-4c-2-14-2-13-8-10zm12 19-1 1-2-1 2-2zm119-20c-1 1-1 2 1 2l1-1zm21 7-5 2c-6 2-7 4-2 8 7 7 11 4 11-6-1-6-2-7-4-5zm4 18-4 3 2 2 2 4 2 2c2 0 1 4-1 8-1 3-1 3 1 6 2 2 2 4 1 8 0 5 0 6 2 8v10c-1 2-1 2 3 2s4 0 3 4c0 6 2 11 4 10 4-1 3 2-1 7-5 5-5 6-2 7 5 1 6 2 6 7v5l4 1c6 0 8-2 8-9 0-3 1-4 2-5 2-1 2-2 1-5-2-3-2-4-4-4l-1 1v2c0 1 0 2-3 3s-5 1-5-2c0-2 1-3 3-3 3-1 3-1 3-4l-3-5-2-7-1-7c-2-2-2-2-1-4 3-3 2-5-2-8-4-2-5-3-5-6l1-5c3-2 2-3-1-7-2-4-2-4-1-7v-10l-2-4c-1-3-5-3-9 2zm-45 9v16c1 7 3 8 3 1 0-4 0-5 2-6l6 1c3 2 4 1 2-1l-1-3 1-3c2-2 1-3-2-2-3 0-4 0-5-2-3-2-5-3-6-1z"/><path d="M256 1084c-2 1-1 3 1 3l1-2c0-2-1-3-2-1zm-97 7-3 5-1 10c0 6-1 8-2 11-2 2-3 5-2 5l1 5c1 3-1 7-5 12l-2 5c0 4 0 4 1 3l6-3c4-1 4-1 4-6a122 122 0 0 1 3-27l3-8c2-3 2-3 1-5-1-1-2-4-1-6l-1-5c-1 0-2 1-2 4zm185-2c-3 2-2 3 2 5s6 0 4-4c-1-4-4-4-6-1zm43 5-1 2-4 5c-3 4-4 4-4 10 0 5 0 5 3 8 3 2 4 4 2 11-2 5-3 6-6 4l-2-1 1 2v5c-2 5-1 7 3 7 3 1 3 1 4 4l-2 8c-2 4-2 5 0 6 1 2 1 2 3 0l3-4c1-3 1-3 5-4 3 0 3 0 3-2s0-3-3-4-4-3-4-4c0-2 0-3-3-8v-6c2-2 4-8 3-11-1-6-1-16 1-22l2-7zm-24 24 2 4 1-2-1-3zm-54 29c0 2 4 6 6 6s2-2-2-5c-3-2-4-3-4-1zm-146 1v5c2 0 5-4 5-5zm89 1 2 1 1-1-1-1zm-112 4c-1 2-1 4 2 3l1-3c0-4 0-4-3 0zm148 17-1 3c0 3 4 5 7 3 3-3-1-8-6-6z"/>
  </symbol>
</svg>
