<svg xmlns="http://www.w3.org/2000/svg"><symbol id="a" viewBox="0 0 286 286"><path d="M262 37c-3 2-5 6-5 14 0 5 0 5-3 6-4 2-29 2-45 1a912 912 0 0 0-86 0c-18 2-32 5-49 11-7 2-10 3-12 2-3-2-8-1-11 1l-8 2-7 3-3 3c-5 0-14 7-14 11l-2 1-13 12c-2 3-3 6-3 13s0 7 3 11l3 5c-1 1 3 5 5 5l5-1c2-2 2-2 4 2 3 8 13 10 21 5 3-2 4-2 2 1-2 2-2 17 0 21l1 4-4 1c-5 3-9 4-12 4-3 1-7 4-7 7l-2 3 2 4c2 2 2 2 0 4-4 5-4 11 1 12 2 0 3 1 2 2 0 4 2 7 6 7 5 0 8-2 14-12 6-9 6-6 1 5-4 8-5 10-3 13s5 4 8 2c2-1 2-1 4 1 2 3 5 3 8 0 2-2 3-3 4-2 1 2 6 1 8-1 2-3 2-7 0-12-2-3-6-26-6-27 1-1 5 4 7 8 1 3 1 3-1 6-2 2-2 2-1 8 1 5 2 5 4 6l5-2 2-1c4 7 4 8-1 9-2 1-4 2-4 4-1 1-2 2-3 1l-1 1c0 1 3 3 6 3 1 0 2 0 1 1l1 2 1-2v-3h-2c-1 2-3 0-2-2 0-3 9-6 12-4 1 1 2 1 1 2l-3 6-4 4 2-5 3-5h-2l-1 1v1l-1 1-1 3v4l1 6c0 9-6 18-10 15-2-2 1-8 5-8v1c-2 1-2 2-1 2h1l1-1 1-2v-3h-1l-4 2c-2 0-3 0-3-2s1-3 4-6l4-3-3 1c-2 1-3 2-4 1v-7c-1 0-3 2-3 4 0 1 0 2-1 1l-1 1 3 2c2 0 2 0 1 2l-2 3c0 2 0 2-2 1h-1l3 2 2 3-1 4-1-1h-2c0 2 3 4 6 4 2 1 3 1 6-2 4-4 5-8 5-17l1-5 3-4c2-4 2-4 8-4s9-1 13-6l3-5c0-2 2-3 5-5l4-2 3 3 2 3-2 1c-5 4-2 12 4 12 3 0 6-3 6-5s0-2 2 0c3 3 11 6 18 8 4 2 7 2 14 1h12l3-1-7-7c-9-8-20-12-28-12-6-1-6-1-6-3 0-4-3-7-6-7-2 0-6 3-6 6h-2c-1-2-1-2 1-5 2-4 3-4 5-3 6 1 21 0 27-2 6-1 6-1 8 1l4 3 6 3c4 3 5 4 8 1l2-1c2 1 6-1 6-3 0-1 2-2 2 0h1l-1-3c-1-1-1-1 1-3l2-1 1-1-1-3v-1l2-3h2c1 1 2 0 0-2-2-3-10-4-14-2l-6 6c-5 4-6 5-6 2l1-1 7-6a44 44 0 0 0-9-70l-6-3 8-20 3-3 11 2 12-1c1-2 6-2 27-2 29 1 35 0 37-3l2-4v-1l3-2 2-1v2-7h2v-4c-1-3 0-4 1-2s2 1 1-1c-1-4-10-6-12-3h3l5 1c1 1 0 3-2 2v-2l-2 1-2 1h-1l-1 2c-1 1 0 2 3 2 4 0 4 0 2-1l-2-1c2-2 5 0 5 2s-2 3-5 3-7 2-5 3h2c2-4 6-2 4 1 0 2-1 2-3 2-4-1-8 1-8 4s5 3 5 0c1-1 0-2-1-2l-1 1c1 1 0 2-1 2-2 0-1-4 2-4 4 0 5 3 2 5-2 2-4 2-31 2-28 0-30 0-31-2s-1-2 18-2l20 1-21-1a1013 1013 0 0 1-64-7l25 3h8l22 2a152 152 0 0 0 44-1l-8 2c-5 1-5 1-1 1l7-1c4-1 4-1 10-14 2-5 1-11-3-9-3 1-6 2-6 4l3-2c2-1 6-1 6 1s-2 4-3 4c-2-1-6 1-6 2l2 1 1-1 2-1c2 0 2 0 2 2l-1 2h-11l-2 3c0 2-2 3-5 3l-4 1-7 2-46-3 2-4c2-3 2-3 5-2a356 356 0 0 0 56-1c3-2 3-2 3-8s2-12 3-12h3c3-2 6-1 6 1l-4 2c-3 1-6 2-5 4l3-1c2-2 4-3 6-1 1 2 1 2-3 1-2 0-3 0-1 1l3 1h2l1 1 1 1c1 0 0-3-2-5l-1-3 2 1h1c0-2-5-6-7-6zm-68 22-2 4-3 3-6-1-8-1c-5 0-5-1-5-3v-3l12 1zm-61 4 3 14a56 56 0 0 1 3 14l2 4 3 6-1 2c-2 0-9 4-10 6-1 1-9-13-9-15l-2-5-3-5-2-2-1-3v-2l-1-1-1-1v-1l-3-4-4-4 17-3c7 0 10-2 4-2a215 215 0 0 0-22 2l6-1 20-2zm35-1-1 2-17-2-15-2 17-1h16zm99 1c0 3-6 5-17 6-7 0-6-1 1-2l10-2-3-1c-2 1-2 1 0-1 2-1 9-2 9 0zm-164 2-5 1-10 2-6 2-3 1h-1l-4 2c-2 2-4 3-5 2-3-1 5-4 17-8 12-3 16-4 17-2zm48 2a2854 2854 0 0 1 47 4c4 0 4 0 3 2l-3 3-14-2-20 1c-18 4-24 4-26 1l-2-6c0-5-2-5 15-3zm-42 6c7 10 14 24 13 26-5 6-10 16-13 22-5 16-1 32 11 44l10 8c5 1 5 2 5 5l-1 5-8-3a49 49 0 0 1-28-61c3-8 9-19 12-21 1-1 1-1-1-1-2 1-4 1-6-2-3-3-4-7-1-11l1-3-18 4c-3 1-3 0-8-4l-5-5 4-1c9-4 22-8 27-8 2 0 4 2 6 6zm-46 1 9 5c7 6 17 16 15 16l2 2 2 2c-5-5-4-5 3-1 5 4 5 5 0 5-4 0-9-3-22-13L51 75v-2c3-1 7-1 12 1zm146 0 2 2c0 2-4 3-10 2a309 309 0 0 0-38 1l-21 3c-6-2-5-3 4-3l14-2c6-2 23-2 38-1h7l1-1v1l1 1 1-2h-4l-2 1c-3-2 3-4 7-2zM54 79c6 3 16 11 16 12l2 4-1-2c-3-4 0-2 6 3l11 7c5 3 4 4-1 4s-7-1-23-12c-13-9-22-14-25-14s-3-1-1-3c4-3 10-3 16 1zm126 7c-2 4-4 8-3 9l-1 1v2h-1l-1 1-2 6-2 8h-1l-1 1-2 8-4 9c0 2-1 1-3-5-4-8-4-9-3-11 2-3 10-31 10-33s0-2 15-3h3zm-17-2-2 8-2 6-6 2-7 1-2-5-2-5 4-1c4-2 4-3 4-5l4-2 6-1c4-1 4-1 3 2zM46 85a378 378 0 0 1 35 23c2 1 1 2-3 3s-6 0-23-12c-13-9-20-11-28-9l-5 1-1-1 3-2 1-1 3-3c4-3 12-2 18 1zm53 2c0 6 2 10 5 11l3 1-4 6c-4 7-7 15-8 23-2 14 3 29 13 40 5 6 15 13 22 15l3 2c0 2-14-5-20-9l-3-2c-2 0-8-8-11-14-4-7-6-12-7-22s4-27 10-35c2-3 2-3 0-3-3 0-5-4-5-10v-5l-3 1-3 1-3 1h-5c0-1 1-2 8-3 8-3 9-3 8 3zm47-3c3 0 2 2-1 4l-4 1-1-3c-1-3-1-3 1-3zm-53 6 1 4c1 4 1 4-3 0l-5-3 7-3zm-52 2c5 3 8 5 11 10l5 8c3 2 3 3 2 4-3 3-12-3-12-8 0-4-4-11-7-12l-3-2zm-3 2c4 2 6 6 6 9-1 3-3 4-7 1-5-4-11-7-14-7s-8 2-8 3h2c4-2 10-1 15 3l5 4h-2c-7 0-14 5-17 15-2 4-3 5-7 6s-4 1-6-2c-5-8-3-16 5-24 8-9 20-13 28-8zm31 17-2 1c-4 1-5 0-8-3-1-1-4-4-4-6-2-3-2-3 5 2zm56-10-1 2c-2 1-9 12-11 19-3 9-3 20 2 29 3 7 10 15 16 18l4 3-9-4c-12-8-20-25-17-39 1-7 7-21 11-26 3-3 5-4 5-2zm33 2c0 3-2 7-3 7l-2 1h1c1 0 2 0 1 1l-4 3c-6 1-14 8-14 13-1 3-1 5 1 8 3 5 3 13 1 18s-8 11-10 11v-3c1-1 1-1 0 0-2 1-6-2-9-7-4-5-4-6-3-11 1-4 2-7 5-10l6-9c4-8 9-13 16-17l10-3 3-1c0-2-8 0-13 3-8 4-13 9-17 17l-6 8c-2 2-5 9-5 12l-1 3-1-4c0-3 1-5 6-12l2-2-3 2-5 4c-1 2-1 2-1-2 0-3 1-4 3-6l6-3 4-4c4-7 12-13 22-17 7-2 10-3 10 0zm-63 7-4 10-1 5-2-3-6-6-4-3 4-1 5-2c3 0 6-2 8-4 3-3 3-2 0 4zm33-2c2 3 2 3 1 4l-4 6-4 4-4 2-3 1c0-3 10-21 12-21zm56 1c18 12 24 34 14 54-3 7-15 18-20 20l-3 1c-2 2-11 4-19 5-10 0-16-1-17-3l1-1 9 1-5-1c-4 0-4 0-4-2l1-4c1-3 1-3 7-2 7 1 15 1 23-2 7-2 15-9 19-17 7-15 1-36-12-43-5-3-6-3-4-6 1-1 2-1 6 1 6 4 12 11 16 19 3 5 3 7 3 15-1 8-1 11-3 15-3 7-12 16-17 19l-5 3c-1 2 8-3 12-7 5-4 12-14 13-19a40 40 0 0 0-13-43l-3-2-4-2-4-2c0-2 3-1 9 3zm-141 0-1 7c0 9-4 18-7 15v-6c2-8 2-9 0-11l-4-2h-1l4-1c2 0 3 0 1-1-2 0-8 1-7 2l-2 3-4 8c-4 11-7 14-8 9-1-2-1-2-2-1v5c-2 0-4-2-4-4l4-3c4-1 5-2 7-7 5-10 11-15 18-13 2 1 3 0 5-1 3-2 4-2 1 1zm4 2 5 4 2 2-7 6c-6 6-6 6-5 2l2-9c0-7 1-9 3-5zm128 4c15 7 21 27 14 43-3 6-11 13-17 15-5 2-16 4-24 3-10-2-7-3 7-3 12 1 13 1 19-3 18-10 21-31 8-46l-7-6-4-4h4zm-141 1v1c-1-1-7 2-9 4-2 5-3 3-1-1 4-6 8-8 10-4zm38-1 2 1c6 0 13 10 13 21 0 8-2 20-5 27-4 8-4 14-3 19 2 4 1 7-1 6l1-2v-1l-3-2-4-3c-4-3-4-3 0-8 6-10 9-24 7-33-2-8-10-11-16-7-2 1-2 2-2 4 1 5 3 6 7 4 3-2 3-2 4 1 0 3-1 8-3 11l-2 2-4-2c-5-2-9-3-12-1-3 1-3 1-3-1 0-3 3-10 6-14 4-6 4-8 1-8s-5 1-11 7c-6 5-11 7-13 4v-1c2 1 5-1 5-3l1-2c1 0 5-3 8-7 7-7 11-10 18-12zm9 2c8 5 11 18 8 36l-2 12c0 4 3 9 4 7 2-2 8-2 9-1 3 2 2 3 0 2l-6 1-1 1h7l-1 1h-2l-3 2c-3 0-4 3-4 7l-1 3c-2 1-3-4-1-7 1-2 0-5-4-9l-3-1 3-9c4-11 5-27 3-35-2-5-5-9-10-11v-1zm72 2 2 4a426 426 0 0 0 21 43l-2 1-4 2-4 2-1-2-3-4-1-2-1-2-3-5c-1-5-14-27-15-28-2-1-1-4 3-8l6-4s2 1 2 3zm-120 1-2 4c-1 2-1 2-3 0-1-2-1-2 1-4l4-2c2 0 2 0 0 2zm145 3 6 7c2 4 2 5 2 13 0 9 0 10-2 15-3 4-5 6-5 4l-4-6-8-13-4-8 3-7 3-8c1-2 3-2 9 3zm-144 0c-3 3-2 6 0 10v4h-3l-2-3c0-3 0-3 1-1l3 2-1-2c-2-2-1-7 1-10l2-2zm-6 2v15l-1-2c0-2-1-3-3-3-3 0-3 0 0 1l1 2c0 2 5 5 8 5 4 0 9-3 14-8l6-5c2 0 2 3 0 6-5 7-6 11-6 18l1 10c2 3 2 4 0 4-1 0-3-9-3-17 1-6 4-14 6-16l2-2c0-2-2-1-5 3-2 4-4 5-9 7s-6 2-10 1c-5-2-8-6-8-12 0-5 4-10 7-7zm116 10 3 7-3-3-3-6c-2-1-3-4-1-4zm-70 0c4 4 5 16 1 27-1 5-8 16-10 17l-1-10c1-12 3-14 3-3v8l1-9 1-10c2 0 5-8 5-10l-2-6-2-3-2 2c-1 2-5 3-5 1l-1-2c0-5 8-6 12-2zm69 3c3 6 3 9 2 14-3 6-4 5-3-4l-1-11-2-3c0-2 1 0 4 4zm9 12c1 3 2 5 1 6l-1 4-2 4h1c2-1 2-1 7 6 2 2 2 2-5 1a100 100 0 0 1-11-1l-1-3c0-1 0-2 1-1h1c-1-1 0-2 1-3v-3l3-8 1-1c-1-1 0-7 1-7zm-59 5c1 5 4 9 10 15 4 4 4 5 2 5l-2-2c0-3-4-5-9-3-4 1-4 1-5-2 0-3 1-19 2-18zm-33-2c4 2 6 4 5 5l-4-2c-3-2-8-3-11 0h-2c0-2 4-4 7-4zm1 5c1 1 1 1-1 3l-6 4h-4c-2-2-1-7 1-8s7-1 10 1zm81 0-1 3c-1 3-1 3-2 1v-3c0-2 3-3 3-1zm18 7 4 6c-1 2-3 1-5-3l-4-4c-1-1-2-4 0-4zm-97-1c-1 4-3 5-3 2 0-2 2-5 3-5zm76 3c2 8-1 21-6 27l-3 2c-1-1 0-2 1-4 5-6 7-18 4-27l1-2zm-82 4-12 8-5 3-3 2-1-3-2-4v9l-1-1-3-5-1-2 22-10 7-4 1 3zm77-5-1 1-1-1 1-1zm-71 5-1 3v1l1 18c0 16 0 17-2 16l-3-1 2 2c4 2 4 4-1 4-4 0-4 0-3-6a333 333 0 0 0 5-38c0-2 2-1 2 1zm-4 3-2 4-11 9a357 357 0 0 0-15 11c0-2-2-5-4-5l-1-1c1-2 4-1 6 1 2 1 2 1 1-1l-2-3 6-3 13-9 8-5zm27 8c-2 5 0 9 4 8 2 0 1 3-1 5s-2 2-2 0l-2-4c-3-4-4-9-4-14v-5l3 4c3 3 3 3 2 6zm119-7c3 3 1 5-4 5l-7 2-3 1h3l4-1c1-2 3-1 4 1 2 1 2 1 1 3-2 2-3 2-7 1l-6 1c-1 1-1 1 0 0l2 1h2c1-1 2-1 4 1 2 1 2 1 1 3h-8l-2-1c-3 0-3 0-1 1 3 2 3 2 2 3h-1l-9-5-5-4 3-2h4c2 2 6 0 9-5 4-5 6-5 10-3h4l-2-1-2-1zm-96 3-4 1c-6 1-9 4-9 10 0 4 0 5 2 7 2 1 3 2 2 3s-2 1-4-2c-5-6-4-15 3-19 3-2 10-2 10 0zm9 5-1 2c-1 2-2 2-5 1l-4-1 1-4 2-3 3 2zm-66 6-8 11c-2 2-2 3-3 2l-3-3c-2-1-2-1 16-17 6-5 5-1-2 7zm16 3 2 11 2 4h-7v-27c1-1 2 0 2 2zm25-10-2 2 1-3 2-2zm-64-1c1 1 3 4 2 6l-3 2c-1 1-2 1-3-1-4-3-1-10 4-7zm78 0c0 2-2 4-6 6-4 1-5 1-3-3 2-3 9-6 9-3zm17 5 6 2c2 0 2 0 0 3l-2 2-3-2c-2-1-4-3-4-5-1-2-1-2 3 0zm-5 6c0 6 0 7-2 7l-1-4c0-4 2-10 3-10zm-63 4c-2 12-2 12-5 11-2 0-2 0 0 1l2 3c0 2-2 3-3 1l-2-1c-2 1-3-2-1-2l3-9c3-8 6-13 7-12zm56-8c4 1 4 4 0 3H97c0-3 11-5 15-3zm-27 5 1 6c0 4-4 8-7 8-2 0-2 0 1-3 4-4 4-4 4-8-1-4-1-5-4-5-2 0-2 0-1-1 3-1 5 0 6 3zm43 3 7 6c3 2 3 2 2 0 0-3 3-7 5-7 4 0 5 6 2 8-2 1-1 1 5 1h8l-2 3-4 7c0 4 0 4-1 3l-2-2-5-3-4-3-1 2-1 5c-2 1-6 1-7-1-2-3 0-7 3-8 1 0 2-1 1-2v-1l-6-5-7-6c-1-3 1-2 7 3zm-45-1c0 4-2 9-5 9-3 1-3-1 1-4l2-3-3 2c-2 2-2 2-3 1-1-3 1-5 2-5 1 1 2 0 1-1 0-1 0-2 2-2 2 1 3 1 3 3zm20-1c-1 2-2 2-2 1v-2c2-2 3-1 2 1zm9-1-11 17c-2 2-2 2-4 1l-3-2 4-5 6-9c1-2 2-3 5-3zm-84 3c3 2 3 5 0 6-5 2-8-1-5-6 1-2 2-3 5 0zm87-1c0 2-2 4-3 4l1-3c1-2 2-3 2-1zm-22 1-2 3c-2 3-1 8 2 11 5 6 15 5 19-2 1-3 4-4 4-2l-7 8c-4 3-13 3-17 0-5-5-6-11-2-17 1-2 3-3 3-1zm29 1-1 1-1-1 1-1zm-26 2c2 2 2 2 0 5l-3 3v-7c0-2 1-2 3-1zm30 0-1 1h-2c-1 1-10 4-12 3-4-1-1-3 3-3l7-1zm-88 2c2 1 3 5 1 6h-1l-3-4-2-3c1-1 2-1 5 1zm-4 4 2 4c-1 2-6 4-8 2s-1-6 1-7 3-1 5 1zm76 0c2 0 2 0 0 3l-5 4c-4 1-4 1 0-4 3-4 3-4 5-3zm54 2 4 1-2 3c-2 2-2 4-2 6 0 4 0 4-6 2-5-1-5-2-5-4 0-3 4-10 6-10zm-91 3c1 2 1 2-1 1l-3-2v1c2 0 2 1-1 2s-3 1-3-1c0-4 7-4 8-1zm98-1-2 3-1 6c0 3-1 4-2 4-2 0-1-8 1-11zm8 7c3 2 5 5 4 5h-8l-6 1v-3c0-3 2-8 4-8zm-128-2 1 4c0 2-1 3-3 3-3 0-5-2-5-6 1-2 4-3 7-1zm23 1c1 1 0 3-1 4-2 2-2 2-4 1-3-2-4-5-2-6l4-1c2 0 3 0 3 2zm-12 0c2 0 1 6-1 7-2 2-2 2-4 0-4-3-1-9 3-8z"/><path d="M172 61h20l-10-1zm-40 7c0 5 2 11 3 11l-2-8zm-5 4 1 1v-1l-1-1zm-7 2v1l1-1v-1l-2 1zm15 8h1v-2zm1 4 1 2 1 1-1-3zm-4 1 1 1v-1l-1-1zm-1 3v1l1-1v-1zm2 9h1v-2Zm130-35h2l-2-1zm-161 8 2 1-2-1c-1-1-1-1 0 0zm-9 3h1v-1zm5 0 1 1v-2zm-15 2h1l1-1h-1zm27 30c-1 2-1 2 1 0v-1zm-7 20 1 1v-1l-1-1zm-2 21h1l1-1c-1-1-2-1-2 1zm4 8 2 2-1-2-2-2zm10 10 1 1v-1l-1-1zM58 74l7 3-6-3zm9 4c0 2 3 3 3 2l-2-2zm4 4 1 1v-1l-1-1zm9 8 3 2-2-2-3-3zM40 78l2 1h8c0-2-8-3-10-1zm11 1c0 1 1 2 3 2l3 2-3-3zm10 7 3 3-4-5c-2-1-2 0 0 2zm4 2 2 2c1 1 1 1 0 0zm10 8 1 2 1 1c1 0 1-1-1-2zm6 6 4 2-2-2zm6 3 2 1-2-1c-1-1-1-1 0 0zm80-21h1v-2zm-1 4h1v-2zm-1 4c0 1 0 2 1 1v-2c-1-1-1 0-1 1zm6 0h1v-2zm-10 14h1v-2zm-7-16c-1 1-1 1 0 0h3c0-2-2-2-3 0zm-6 4 1 1v-1l-1-1zm9 1-1 1h1l1-2zM32 84l-5 2h3l7-1h4l-1-1zm15 4 2 1 4 2 4 3-4-4c-5-3-8-4-6-2zm12 8 4 2c2 2 3 3 2 4 0 2 0 2 1 1l1-1c1-1-1-2-3-4zm10 7 2 2h2l-2-2zm7 5 2 1-1-2c-2-1-2-1-1 1zm-66 4c-5 6-6 10-3 12 2 3 4 2 6 0s2-3 2-7c-1-4 0-6 1-8 2-4 0-2-6 3zm3 6c0 4-1 6-4 6-2 0-2-1-2-3 0-4 2-6 4-6s2 1 2 3z"/><path d="M9 119v2c2 0 3-2 2-2zm134-4c-4 2-5 4-8 8-3 6-3 10-1 14 3 6 3 11 0 18s-2 7 1 1 4-14 1-18l-2-6c0-4 3-9 7-13 4-5 5-6 7-5l1-1c0-2-1-1-6 2zm-22 28h1l1-1h-1zm3-32v1l1-1 1-2zm-4 7v2l1-2c0-2-1-3-1 0zm50 65-6 1c-5 2-5 2-1 2 4-1 12-4 9-4zm-17 3c-2 1-2 1 1 1l4-1zm-76-56h2l-2-1zm74-11 1 2v-1c0-2-1-3-1-1zm4 8a227 227 0 0 0 18 33 425 425 0 0 1-18-33zm21 3h-1v1h1l1-2zm-5 6v3l2 1-1-2v-2c3-1 1-2-1 0zm5 3 1 1v-1l-1-2zm1 8 1 1c1-1 1-2-1-2zm3 5c-1 1 1 2 2 2l-1-1-1-1 1-1-2 1zM24 128c-1 1 0 2 1 2v3c2-1 2-5 0-6zm41 7v1l3-1v-1zm6 0 2 1-2-1c-1-1-1-1 0 0zm74 33 3 1c2 0 2-1-1-1zm-87 44h2c1-1 0-1-1-1s-2 0-1 1zm-11-30v1l1-1v-1zm-4 3h2l-2-1zm-5 3-3 1c-1 0-1 1 1 1l3-2c2-2 1-3-1-1zm159-11v1l1-1v-1l-2 1zm1 7h4l-2-1zm-11 2h-5c-1-1-2-1-3 1-1 1-1 1 1 1h3c1 1 7-2 7-3zm4 5h5l-3-1zm-50 5 2 1h1l-1-1zm4 10-3 1h3l3-1v-1zm5 1v2l2-2v-2zm-2 6h1l1-1h-1zm25 3 1 2 1-1-1-2zm93-176 1 1 2-1zm-1 13c-1 1-1 1 0 0l3-1h1c0-2-3-1-4 1zm-33 12h1l1-1h-1zm26 8c-4 0-4 2 0 1h5l1-1zm-21 1-16 1h16l16-1v-1ZM80 227h2l-2-1z"/></symbol></svg>
