<?xml version="1.0" standalone="no"?>
<!DOCTYPE svg PUBLIC "-//W3C//DTD SVG 20010904//EN"
 "http://www.w3.org/TR/2001/REC-SVG-20010904/DTD/svg10.dtd">
<svg version="1.0" xmlns="http://www.w3.org/2000/svg"
 width="604.000000pt" height="604.000000pt" viewBox="0 0 604.000000 604.000000"
 preserveAspectRatio="xMidYMid meet">
<metadata>
Created by potrace 1.14, written by Peter Selinger 2001-2017
</metadata>
<g transform="translate(0.000000,604.000000) scale(0.100000,-0.100000)"
fill="#000000" stroke="none">
<path d="M1276 5969 c-108 -75 -133 -100 -156 -153 -15 -37 -16 -46 -3 -90 8
-27 20 -54 26 -61 35 -35 144 -160 158 -182 10 -14 16 -33 14 -42 -1 -9 -6
-50 -10 -91 -4 -41 -9 -82 -10 -90 -7 -36 -18 -255 -30 -560 -3 -80 -7 -165
-10 -190 -2 -25 -7 -83 -10 -130 -9 -115 -14 -160 -21 -171 -3 -6 0 -17 7 -25
17 -20 7 -27 -81 -55 -49 -16 -95 -39 -135 -70 -33 -25 -91 -63 -130 -84 -62
-34 -94 -58 -197 -147 -14 -13 -46 -40 -71 -60 -78 -65 -104 -199 -63 -329 28
-90 64 -133 148 -175 l69 -35 275 2 c173 1 279 -2 285 -8 13 -13 16 -703 4
-788 -10 -73 -10 -101 -2 -183 5 -45 2 -82 -8 -124 -11 -40 -15 -89 -12 -146
2 -48 0 -104 -4 -125 -5 -32 -3 -43 17 -67 l24 -28 108 4 c59 2 116 6 127 7
11 2 35 0 54 -5 22 -6 50 -5 84 3 30 7 146 14 272 16 121 2 243 4 270 5 120 3
439 -15 520 -29 22 -4 44 -7 49 -7 23 -2 35 -102 29 -231 -6 -125 -6 -215 -3
-355 1 -36 -3 -101 -9 -145 -6 -44 -12 -91 -12 -105 -2 -33 11 -190 17 -212 3
-10 7 -30 10 -45 2 -16 6 -38 9 -50 3 -13 -1 -38 -9 -57 -16 -37 -14 -163 2
-227 7 -28 4 -50 -14 -105 -22 -62 -23 -74 -12 -122 l12 -54 35 8 c50 10 243
4 331 -11 47 -7 138 -15 360 -30 131 -8 216 -7 243 4 16 6 40 9 55 7 15 -3 50
-8 77 -11 28 -3 64 -8 81 -10 17 -3 55 6 87 19 55 22 66 23 290 20 352 -5 491
-3 503 9 3 3 7 61 9 130 2 69 7 156 11 194 9 81 9 74 0 145 -6 39 -3 77 7 125
8 37 16 104 17 148 3 147 8 200 24 265 12 50 13 73 5 107 -12 46 -27 54 -74
41 -30 -9 -139 -11 -185 -4 -14 2 -53 13 -87 24 -58 18 -63 19 -78 3 -19 -22
-19 -73 -1 -137 21 -71 27 -143 24 -279 -1 -66 -2 -181 -2 -257 -1 -75 -3
-138 -6 -141 -5 -5 -128 -20 -170 -20 -21 -1 -150 12 -185 18 -5 1 -18 3 -28
3 -10 1 -16 5 -14 10 5 7 13 90 22 227 8 122 14 158 35 219 24 70 56 221 66
305 l7 63 -93 -6 c-52 -3 -111 -11 -132 -17 -35 -9 -44 -7 -98 22 -49 28 -61
31 -74 20 -12 -10 -15 -24 -11 -55 3 -22 7 -61 10 -86 6 -79 17 -173 25 -225
8 -48 5 -171 -4 -230 -3 -16 -8 -77 -12 -135 -4 -58 -8 -106 -9 -108 -1 -1
-19 -5 -40 -7 -21 -3 -50 -7 -64 -10 -83 -14 -124 -16 -130 -7 -11 18 1 837
13 862 5 13 -2 16 -46 15 -29 -1 -77 -7 -107 -15 -53 -13 -71 -10 -161 21 -14
5 -38 8 -55 6 -30 -3 -30 -3 -28 -62 2 -98 12 -206 23 -265 10 -51 13 -82 24
-200 3 -25 5 -112 6 -194 l2 -149 -29 -23 c-22 -18 -35 -22 -63 -17 -88 15
-84 12 -90 94 -4 41 -4 135 -3 209 2 74 6 270 9 435 11 654 15 748 44 904 6
36 5 46 -11 62 -11 11 -34 19 -51 20 -18 0 -71 2 -118 3 -328 13 -461 18 -505
21 -27 1 -54 0 -60 -3 -5 -4 -95 -7 -200 -8 -127 -1 -217 -6 -270 -17 -109
-21 -249 -17 -292 8 l-32 19 4 315 c2 174 4 419 5 544 3 258 -5 238 90 251 64
9 90 18 133 46 l38 25 -5 60 c-6 61 -6 61 28 79 30 16 34 24 40 70 3 29 12 71
20 94 33 93 35 141 6 180 l-21 29 31 49 c25 39 30 56 26 86 -5 32 -2 38 29 60
23 15 35 32 36 48 1 14 2 43 3 65 2 22 -4 55 -13 73 l-15 32 -241 0 -242 0 0
690 c0 380 4 690 8 690 13 0 49 90 55 137 5 46 -6 104 -33 165 -18 43 -71 77
-157 102 -101 30 -131 24 -230 -45z"/>
<path d="M3594 5118 c-18 -8 -20 -15 -13 -56 10 -62 3 -185 -17 -292 -3 -14
-7 -63 -10 -110 -6 -105 -23 -207 -38 -238 -10 -18 -10 -37 0 -81 11 -58 27
-327 18 -303 -3 6 -10 12 -15 12 -5 0 -44 24 -87 54 -72 51 -207 117 -297 146
-22 7 -85 34 -140 61 -55 26 -123 55 -150 65 -55 18 -214 95 -309 150 -106 60
-140 88 -166 137 -22 42 -53 67 -66 54 -9 -9 19 -108 39 -138 12 -18 50 -52
85 -75 53 -37 68 -54 102 -120 33 -64 92 -144 157 -211 6 -7 20 -23 30 -36 27
-35 336 -292 401 -334 32 -20 84 -52 117 -70 33 -18 56 -33 50 -33 -5 -1 -39
-3 -75 -5 -54 -3 -141 -14 -160 -20 -3 -1 -18 -5 -35 -9 -97 -26 -264 -98
-363 -157 -61 -37 -126 -70 -142 -74 -17 -4 -30 -10 -30 -14 0 -5 -18 -11 -41
-14 -22 -3 -57 -17 -78 -31 -21 -15 -61 -34 -89 -44 -29 -11 -55 -22 -59 -25
-3 -4 -13 -7 -20 -7 -8 0 -50 -16 -94 -37 -94 -42 -103 -66 -28 -71 35 -2 62
5 119 32 52 24 79 32 94 26 12 -4 24 -8 29 -8 4 0 33 -6 65 -13 76 -16 251
-13 307 7 29 9 95 16 182 18 145 4 202 10 268 28 22 5 47 12 55 14 56 13 88
22 109 29 18 5 10 -6 -30 -47 -99 -99 -235 -286 -255 -351 -3 -12 -20 -48 -35
-79 -16 -32 -29 -64 -29 -72 0 -37 -160 -308 -211 -358 -21 -20 -59 -63 -85
-95 -25 -32 -64 -74 -87 -94 l-40 -35 38 -23 c30 -17 40 -19 45 -9 20 35 87
107 101 107 39 2 288 151 459 275 229 166 266 198 404 344 32 35 61 61 64 58
5 -6 6 -11 16 -116 5 -40 36 -152 83 -289 73 -218 78 -228 148 -326 79 -109
106 -166 150 -320 15 -55 34 -105 42 -111 14 -12 63 -7 63 7 0 5 -14 64 -31
132 -18 67 -32 127 -32 132 0 18 14 140 18 155 2 8 6 45 9 83 8 95 18 197 22
232 5 36 4 216 -1 265 -1 19 -6 67 -9 105 -4 39 -9 89 -12 113 l-5 44 93 -74
c184 -146 310 -229 393 -261 44 -16 85 -33 90 -38 6 -4 41 -19 79 -33 38 -15
83 -35 100 -45 49 -30 266 -136 321 -157 50 -19 73 -39 140 -129 21 -27 39
-52 41 -53 5 -7 110 -8 134 -2 23 7 22 8 -15 18 -22 7 -45 12 -50 12 -6 0 -35
41 -64 91 -34 59 -81 119 -130 169 -42 42 -113 130 -158 196 -44 65 -98 134
-120 153 -36 32 -226 207 -303 281 -102 97 -160 138 -260 186 -59 28 -110 56
-113 61 -3 5 25 10 66 11 191 6 310 20 437 52 41 10 86 21 100 24 14 3 88 30
165 61 77 31 147 57 155 57 17 1 101 -9 177 -21 29 -4 54 -6 56 -4 12 11 -8
54 -27 58 -48 10 -141 27 -160 30 -50 6 -107 19 -186 42 -361 105 -437 119
-652 118 -81 0 -124 4 -120 10 18 33 96 142 154 216 71 91 120 195 166 349 22
75 25 107 27 268 1 100 -1 185 -6 188 -4 2 -13 -15 -20 -38 -6 -24 -13 -48
-15 -55 -2 -7 -30 -26 -62 -42 -33 -17 -73 -45 -90 -63 -16 -18 -54 -59 -84
-92 -48 -52 -179 -232 -320 -436 -67 -98 -88 -125 -88 -113 0 20 -30 239 -36
258 -42 147 -136 347 -221 472 l-56 83 -1 124 c-1 69 -5 129 -11 134 -6 6 -18
6 -31 0z"/>
</g>
</svg>
